version 1
nodes
0 "ValveBiped.Bip01_Pelvis" -1
1 "ValveBiped.Bip01_Spine" 0
2 "ValveBiped.Bip01_Spine1" 1
3 "ValveBiped.Bip01_Spine2" 2
4 "ValveBiped.Bip01_Spine4" 3
5 "ValveBiped.Bip01_Neck1" 4
6 "ValveBiped.Bip01_Head1" 5
7 "ValveBiped.forward" 6
8 "ValveBiped.Bip01_R_Eye" 6
9 "ValveBiped.Bip01_L_Eye" 6
10 "j_hair_b_01" 6
11 "j_hair_b_011" 10
12 "j_hair_b_012" 11
13 "j_hair_b_013" 12
14 "j_hair_b_014" 13
15 "j_hair_b_015" 14
16 "j_hair_b_021" 10
17 "j_hair_b_022" 16
18 "j_hair_b_023" 17
19 "j_hair_b_024" 18
20 "j_hair_b_025" 19
21 "j_hair_b_041" 10
22 "j_hair_b_042" 21
23 "j_hair_b_043" 22
24 "j_hair_b_044" 23
25 "j_hair_b_045" 24
26 "j_hair_b_051" 10
27 "j_hair_b_052" 26
28 "j_hair_b_053" 27
29 "j_hair_b_054" 28
30 "j_hair_b_055" 29
31 "j_hair_b_061" 10
32 "j_hair_b_062" 31
33 "j_hair_b_063" 32
34 "j_hair_b_064" 33
35 "j_hair_b_065" 34
36 "j_hair_b_071" 10
37 "j_hair_b_072" 36
38 "j_hair_b_073" 37
39 "j_hair_b_074" 38
40 "j_hair_b_075" 39
41 "j_hair_b_031" 10
42 "j_hair_b_032" 41
43 "j_hair_b_033" 42
44 "j_hair_b_034" 43
45 "j_hair_b_035" 44
46 "j_hair_f_01" 6
47 "j_hair_f_02" 46
48 "j_hair_fr_01" 6
49 "j_hair_fl_01" 6
50 "j_hair_r_01" 6
51 "j_hair_l_01" 6
52 "ValveBiped.Bip01_L_Clavicle" 4
53 "ValveBiped.Bip01_L_UpperArm" 52
54 "ValveBiped.Bip01_L_Forearm" 53
55 "ValveBiped.Bip01_L_Ulna" 54
56 "ValveBiped.Bip01_L_Wrist" 54
57 "ValveBiped.Bip01_L_Hand" 54
58 "ValveBiped.Bip01_L_Finger3" 57
59 "ValveBiped.Bip01_L_Finger31" 58
60 "ValveBiped.Bip01_L_Finger32" 59
61 "ValveBiped.Bip01_L_Finger2" 57
62 "ValveBiped.Bip01_L_Finger21" 61
63 "ValveBiped.Bip01_L_Finger22" 62
64 "ValveBiped.Bip01_L_Finger1" 57
65 "ValveBiped.Bip01_L_Finger11" 64
66 "ValveBiped.Bip01_L_Finger12" 65
67 "ValveBiped.Bip01_L_Finger4" 57
68 "ValveBiped.Bip01_L_Finger41" 67
69 "ValveBiped.Bip01_L_Finger42" 68
70 "ValveBiped.Bip01_L_Finger0" 57
71 "ValveBiped.Bip01_L_Finger01" 70
72 "ValveBiped.Bip01_L_Finger02" 71
73 "ValveBiped.Bip01_L_Shoulder" 53
74 "ValveBiped.Bip01_L_Elbow" 53
75 "ValveBiped.Bip01_L_Trapezius" 52
76 "ValveBiped.Bip01_R_Clavicle" 4
77 "ValveBiped.Bip01_R_UpperArm" 76
78 "ValveBiped.Bip01_R_Forearm" 77
79 "ValveBiped.Bip01_R_Hand" 78
80 "ValveBiped.Bip01_R_Finger2" 79
81 "ValveBiped.Bip01_R_Finger21" 80
82 "ValveBiped.Bip01_R_Finger22" 81
83 "ValveBiped.Bip01_R_Finger1" 79
84 "ValveBiped.Bip01_R_Finger11" 83
85 "ValveBiped.Bip01_R_Finger12" 84
86 "ValveBiped.Bip01_R_Finger3" 79
87 "ValveBiped.Bip01_R_Finger31" 86
88 "ValveBiped.Bip01_R_Finger32" 87
89 "ValveBiped.Bip01_R_Finger4" 79
90 "ValveBiped.Bip01_R_Finger41" 89
91 "ValveBiped.Bip01_R_Finger42" 90
92 "ValveBiped.Bip01_R_Finger0" 79
93 "ValveBiped.Bip01_R_Finger01" 92
94 "ValveBiped.Bip01_R_Finger02" 93
95 "ValveBiped.Bip01_R_Wrist" 78
96 "ValveBiped.Bip01_R_Ulna" 78
97 "ValveBiped.Bip01_R_Shoulder" 77
98 "ValveBiped.Bip01_R_Elbow" 77
99 "ValveBiped.Bip01_R_Trapezius" 76
100 "p_wing_c_01" 4
101 "p_wing_r_01" 100
102 "p_wing_l_01" 100
103 "ValveBiped.Bip01_L_Thigh" 0
104 "ValveBiped.Bip01_L_Calf" 103
105 "ValveBiped.Bip01_L_Foot" 104
106 "ValveBiped.Bip01_L_Toe0" 105
107 "ValveBiped.Bip01_L_Ankle" 104
108 "ValveBiped.Bip01_L_Knee" 103
109 "ValveBiped.Bip01_R_Thigh" 0
110 "ValveBiped.Bip01_R_Calf" 109
111 "ValveBiped.Bip01_R_Foot" 110
112 "ValveBiped.Bip01_R_Toe0" 111
113 "ValveBiped.Bip01_R_Ankle" 110
114 "ValveBiped.Bip01_R_Knee" 109
115 "root" -1
end
skeleton
time 0
0  -0.010646 -0.740858 37.743862  1.570796 -0.000000 0.000000
1  0.000004 1.778801 -1.570904  1.570796 -0.010528 1.570812
2  3.567222 -0.000016 0.000055  0.000002 -0.000018 -0.112617
3  3.363213 -0.000002 -0.000010  0.000000 0.000003 -0.012641
4  7.610757 0.069373 -0.000001  -0.000000 0.000002 0.155813
5  2.349385 0.024889 0.000004  3.141590 -0.000004 0.227054
6  3.207989 0.000005 0.000008  -0.000000 0.000004 0.111004
7  0.000002 -0.000003 0.000000  -1.570790 -0.000001 -1.323625
8  2.939039 -0.168550 1.371936  1.571041 -1.554020 0.174364
9  2.947497 -0.167063 -1.324620  1.570786 -1.633708 0.174591
10  7.838858 6.460703 -0.010598  -0.000003 0.000004 2.556769
11  1.795999 0.000007 -0.000000  0.034014 0.420091 0.389848
12  12.693293 0.000203 0.000119  -0.000017 -0.000037 0.204735
13  14.397285 -0.000088 -0.000412  0.000013 0.000020 -0.003570
14  14.182595 -0.000135 -0.000117  -0.000006 0.000025 -0.002318
15  11.238826 0.000179 0.000192  -0.000002 -0.000043 0.074594
16  1.796021 0.000014 -0.000000  0.013064 0.281247 0.345405
17  12.495463 -0.000175 -0.000104  0.000012 0.000003 0.218213
18  14.264750 -0.000060 -0.000064  -0.000002 0.000008 -0.015028
19  14.315914 0.000021 0.000045  -0.000006 0.000008 0.008426
20  10.998489 0.000044 0.000124  -0.000001 -0.000025 0.067891
21  1.796008 -0.000002 -0.000000  -0.000001 0.000000 0.341148
22  12.211101 -0.000188 -0.000000  0.000000 -0.000000 0.135257
23  14.351534 0.000116 -0.000001  0.000000 0.000000 0.061748
24  14.240410 0.000031 0.000000  0.000000 0.000000 -0.001125
25  10.626462 0.000023 0.000000  0.000000 -0.000000 -0.015231
26  1.796021 0.000014 -0.000000  -0.003249 -0.143342 0.328368
27  12.448377 -0.000033 -0.000002  -0.000001 -0.000013 0.181913
28  14.022105 0.000055 -0.000182  0.000001 0.000014 0.019295
29  13.727727 -0.000040 0.000017  -0.000004 0.000002 0.017588
30  11.751347 -0.000087 0.000035  0.000005 0.000033 0.028955
31  1.796008 -0.000002 -0.000000  -0.013760 -0.288072 0.355400
32  12.201813 -0.000170 0.000078  -0.000008 0.000000 0.200649
33  13.727725 -0.000082 0.000093  0.000006 -0.000014 -0.026899
34  14.050259 0.000074 -0.000117  -0.000002 -0.000026 0.068499
35  11.467733 -0.000010 -0.000391  -0.000004 0.000019 0.000730
36  1.796008 -0.000002 -0.000000  -0.033588 -0.413300 0.386593
37  12.348496 -0.000153 -0.000042  -0.000001 0.000026 0.216382
38  13.917513 -0.000104 0.000289  -0.000000 0.000038 -0.027175
39  13.326023 -0.000084 0.000791  -0.000002 -0.000024 0.019375
40  12.015522 0.000033 0.000430  0.000000 -0.000045 0.029163
41  1.796025 0.000011 -0.000000  0.003044 0.134521 0.328351
42  12.448415 -0.000155 -0.000032  0.000002 0.000005 0.187596
43  13.887742 -0.000038 0.000041  0.000003 0.000012 0.022602
44  14.264750 0.000115 0.000219  -0.000008 -0.000008 -0.009301
45  11.346079 -0.000189 0.000088  0.000007 -0.000028 0.059486
46  7.951499 -3.887518 -0.205242  -1.575304 0.054796 -3.066599
47  2.581427 0.000039 -0.000057  -0.000004 0.000010 -0.023738
48  7.462265 -3.217788 2.206812  -1.570765 -0.035999 -2.984471
49  8.022839 -3.128971 -2.191636  -1.570793 -0.023259 -2.984441
50  4.493585 -2.010164 4.287773  1.570793 2.849525 0.157127
51  5.194356 -1.899128 -4.650994  1.570791 -2.887118 0.157145
52  1.881268 0.843590 1.898575  -1.503288 -1.807438 -0.241407
53  2.970788 0.045838 0.084208  -1.441676 0.096440 -0.516738
54  8.699284 0.000038 0.000004  0.002977 -0.045845 -0.039723
55  3.891239 0.000125 -0.000011  -0.030891 -0.000000 0.000029
56  7.782444 0.000247 -0.000003  -0.057572 -0.000001 0.000028
57  7.782445 0.000246 0.000005  1.505400 -0.038605 0.036337
58  2.959192 0.161515 -0.430188  0.068897 -0.044930 -0.258034
59  1.164918 -0.049369 -0.072170  0.042616 0.057706 0.125599
60  0.679468 -0.000023 0.000003  0.156416 -0.040115 -0.202642
61  3.009077 0.080144 0.136295  0.142330 -0.052338 -0.171465
62  1.365345 -0.048336 -0.068474  -0.036110 0.039207 0.053660
63  0.755192 0.000011 -0.000006  -0.001250 -0.005673 -0.098994
64  3.020000 -0.040074 0.648142  0.302872 -0.149215 -0.102524
65  1.066566 -0.051342 -0.053605  -0.020777 0.084728 -0.150781
66  0.824845 0.022262 -0.030335  0.022999 0.020232 0.074286
67  2.759480 -0.116649 -1.107486  0.217204 -0.052923 -0.105024
68  0.834291 -0.042746 -0.018989  -0.400122 0.100860 0.016253
69  0.481277 0.000000 -0.000004  0.194194 -0.012831 -0.056700
70  1.003916 -0.318441 0.595923  -0.074760 -0.826044 -0.527891
71  0.985941 0.000010 -0.000012  -0.169024 0.043740 0.104425
72  0.778556 0.000006 -0.000003  -0.319732 0.108341 -0.014838
73  1.039957 0.001349 0.056852  -0.157219 -0.054605 0.001297
74  8.699305 0.000038 0.000002  0.005484 -0.054329 -0.098917
75  2.308939 0.045844 0.084195  -0.000001 -0.000007 -0.000006
76  1.881274 0.843599 -1.924850  1.431435 1.807472 -0.241532
77  2.846481 0.005646 -0.083866  1.500777 -0.058212 -0.465598
78  8.662306 -0.007396 0.395620  -0.000700 -0.008665 -0.041751
79  7.708406 0.000177 0.000038  -1.502002 0.039027 0.029858
80  2.961793 0.036305 -0.067128  -0.093567 0.056361 -0.120093
81  1.241524 0.012356 -0.044789  0.084557 0.001858 -0.292327
82  0.922285 0.038923 0.055060  -0.007845 -0.008312 0.252457
83  2.970551 -0.095584 -0.592688  -0.299688 0.165179 -0.119529
84  1.246895 -0.016448 0.060773  0.001284 -0.065017 -0.155360
85  0.727606 -0.000030 -0.000019  0.041281 -0.100690 0.112495
86  2.912335 0.127545 0.651071  -0.175295 0.080301 -0.179114
87  1.127996 -0.001531 -0.000502  -0.004425 -0.045743 -0.074531
88  0.724871 -0.000010 0.000006  -0.081644 0.016442 -0.018045
89  2.798821 0.007999 1.134009  -0.144908 -0.034663 -0.248794
90  0.709027 -0.019755 0.021109  -0.275160 0.134587 0.055056
91  0.581720 0.006523 -0.016448  -0.005657 -0.131240 -0.068398
92  1.034821 -0.392484 -0.639818  1.804367 0.759700 -0.503068
93  1.017592 0.000012 0.000008  0.227149 0.055419 0.089628
94  0.804549 0.000006 -0.000016  0.020420 0.073866 -0.178579
95  7.708406 0.000177 0.000038  0.065184 0.000000 0.000013
96  3.854198 0.000090 0.000027  0.034932 -0.000001 0.000031
97  1.031609 0.000000 0.000020  0.000002 -0.000000 0.000003
98  8.662306 -0.007396 0.395620  -0.000013 0.000000 -0.100068
99  2.184631 0.005629 -0.083874  -0.000001 -0.000002 0.000006
100  -1.049802 -2.841842 0.010650  3.141589 -0.000002 -0.071380
101  1.968996 -0.000022 0.000000  1.570918 -1.452439 -0.030418
102  1.969008 -0.000001 0.000000  1.570770 1.388433 -0.030325
103  3.703570 -0.000000 -0.000003  -1.570796 0.031087 -1.611085
104  15.711951 -0.008584 0.011099  -0.000001 -0.017307 0.051659
105  19.191357 -0.102995 0.046528  0.029982 -0.030327 -1.230021
106  5.947888 0.000044 -0.000003  -0.011147 0.000934 -0.500524
107  18.014866 -0.155491 0.043366  -0.000001 0.000000 0.000068
108  15.711951 -0.008584 0.011099  0.000001 0.000000 0.025252
109  -3.703569 0.000011 0.000006  -1.571277 0.031093 -1.528219
110  15.674867 -0.008532 -0.011853  0.000001 0.017924 0.051663
111  19.147018 -0.103972 -0.050086  -0.016314 0.041538 -1.233105
112  5.992657 -0.000049 0.000002  -0.078651 -0.006185 -0.498941
113  17.973276 -0.156954 -0.046987  -0.000002 0.000000 -0.000025
114  15.674855 -0.008532 -0.011852  0.000000 0.000000 0.025264
115  0.000000 0.000000 0.000000  0.000000 -0.000000 0.000000
end
