// Created by Crowbar 0.74
version 1
nodes
  0 "static_prop" -1
end
skeleton
  time 0
    0 0.000000 0.000000 0.000000 0.000000 0.000000 0.000000
end
triangles
  phy
    0 -6.976942 -25.622591 -0.000001 0.904221 -0.005232 -0.427032 0 0
    0 -10.029359 -6.605851 0.000000 -0.004022 0.599785 -0.800151 0 0
    0 9.812063 -14.915318 -0.000001 -0.027647 0.897627 0.439889 0 0
  phy
    0 -6.976942 -25.622591 -0.000001 0.904221 -0.005232 -0.427032 0 0
    0 9.812063 -14.915318 -0.000001 -0.027647 0.897627 0.439889 0 0
    0 8.990563 -25.061329 -0.000001 0.826554 -0.197315 0.527139 0 0
  phy
    0 9.812063 -14.915318 -0.000001 -0.027647 0.897627 0.439889 0 0
    0 -10.029359 -6.605851 0.000000 -0.004022 0.599785 -0.800151 0 0
    0 -6.976945 6.976943 0.000001 -0.569303 0.788042 -0.234275 0 0
  phy
    0 9.812063 -14.915318 -0.000001 -0.027647 0.897627 0.439889 0 0
    0 -6.976945 6.976943 0.000001 -0.569303 0.788042 -0.234275 0 0
    0 6.976945 6.976943 0.000000 -0.383920 0.418480 0.823092 0 0
  phy
    0 -10.029359 -6.605851 0.000000 -0.004022 0.599785 -0.800151 0 0
    0 -10.029359 -10.652796 17.275208 0.289965 -0.801161 -0.523509 0 0
    0 -9.753845 11.558444 17.275210 -0.451290 -0.312884 -0.835728 0 0
  phy
    0 -6.976945 6.976943 0.000001 -0.569303 0.788042 -0.234275 0 0
    0 -10.029359 -6.605851 0.000000 -0.004022 0.599785 -0.800151 0 0
    0 -9.753845 11.558444 17.275210 -0.451290 -0.312884 -0.835728 0 0
  phy
    0 -10.029359 -10.652796 17.275208 0.289965 -0.801161 -0.523509 0 0
    0 -10.029359 -6.605851 0.000000 -0.004022 0.599785 -0.800151 0 0
    0 -6.976942 -25.622591 -0.000001 0.904221 -0.005232 -0.427032 0 0
  phy
    0 9.812063 -14.915318 -0.000001 -0.027647 0.897627 0.439889 0 0
    0 10.029358 -10.652800 17.275208 0.361386 -0.663376 0.655235 0 0
    0 8.990563 -25.061329 -0.000001 0.826554 -0.197315 0.527139 0 0
  phy
    0 9.812063 -14.915318 -0.000001 -0.027647 0.897627 0.439889 0 0
    0 6.976945 6.976943 0.000000 -0.383920 0.418480 0.823092 0 0
    0 10.029358 -10.652800 17.275208 0.361386 -0.663376 0.655235 0 0
  phy
    0 10.029358 -10.652800 17.275208 0.361386 -0.663376 0.655235 0 0
    0 6.246860 11.558444 17.275208 -0.605686 -0.688574 0.398761 0 0
    0 -10.029359 -10.652796 17.275208 0.289965 -0.801161 -0.523509 0 0
  phy
    0 6.246860 11.558444 17.275208 -0.605686 -0.688574 0.398761 0 0
    0 -9.753845 11.558444 17.275210 -0.451290 -0.312884 -0.835728 0 0
    0 -10.029359 -10.652796 17.275208 0.289965 -0.801161 -0.523509 0 0
  phy
    0 -6.976945 6.976943 0.000001 -0.569303 0.788042 -0.234275 0 0
    0 -9.753845 11.558444 17.275210 -0.451290 -0.312884 -0.835728 0 0
    0 6.246860 11.558444 17.275208 -0.605686 -0.688574 0.398761 0 0
  phy
    0 -6.976945 6.976943 0.000001 -0.569303 0.788042 -0.234275 0 0
    0 6.246860 11.558444 17.275208 -0.605686 -0.688574 0.398761 0 0
    0 6.976945 6.976943 0.000000 -0.383920 0.418480 0.823092 0 0
  phy
    0 10.029358 -10.652800 17.275208 0.361386 -0.663376 0.655235 0 0
    0 6.976945 6.976943 0.000000 -0.383920 0.418480 0.823092 0 0
    0 6.246860 11.558444 17.275208 -0.605686 -0.688574 0.398761 0 0
  phy
    0 -10.029359 -10.652796 17.275208 0.289965 -0.801161 -0.523509 0 0
    0 -6.976942 -25.622591 -0.000001 0.904221 -0.005232 -0.427032 0 0
    0 10.029358 -10.652800 17.275208 0.361386 -0.663376 0.655235 0 0
  phy
    0 10.029358 -10.652800 17.275208 0.361386 -0.663376 0.655235 0 0
    0 -6.976942 -25.622591 -0.000001 0.904221 -0.005232 -0.427032 0 0
    0 8.990563 -25.061329 -0.000001 0.826554 -0.197315 0.527139 0 0
  phy
    0 -9.364849 8.152482 27.691187 -0.677872 -0.469060 -0.566103 0 0
    0 -9.401838 11.402150 13.945815 -0.568924 0.373606 -0.732628 0 0
    0 -9.364849 -2.931702 27.691182 0.658255 -0.112729 -0.744307 0 0
  phy
    0 -9.364849 -2.931702 27.691182 0.658255 -0.112729 -0.744307 0 0
    0 -9.401838 11.402150 13.945815 -0.568924 0.373606 -0.732628 0 0
    0 -9.401837 -2.931702 13.945814 0.417028 0.869048 -0.266165 0 0
  phy
    0 -9.401838 11.402150 13.945815 -0.568924 0.373606 -0.732628 0 0
    0 5.937371 11.402150 16.126189 -0.157410 0.946522 0.281635 0 0
    0 -9.401837 -2.931702 13.945814 0.417028 0.869048 -0.266165 0 0
  phy
    0 -9.401837 -2.931702 13.945814 0.417028 0.869048 -0.266165 0 0
    0 5.937371 11.402150 16.126189 -0.157410 0.946522 0.281635 0 0
    0 5.937372 -2.931702 16.126188 0.741006 0.492304 0.456670 0 0
  phy
    0 -9.401838 11.402150 13.945815 -0.568924 0.373606 -0.732628 0 0
    0 -9.364849 8.152482 27.691187 -0.677872 -0.469060 -0.566103 0 0
    0 4.691851 11.402151 20.523118 -0.702031 -0.505473 0.501647 0 0
  phy
    0 5.937371 11.402150 16.126189 -0.157410 0.946522 0.281635 0 0
    0 -9.401838 11.402150 13.945815 -0.568924 0.373606 -0.732628 0 0
    0 4.691851 11.402151 20.523118 -0.702031 -0.505473 0.501647 0 0
  phy
    0 -9.364849 8.152482 27.691187 -0.677872 -0.469060 -0.566103 0 0
    0 -4.486944 -2.931702 28.937459 0.220070 -0.940239 0.259845 0 0
    0 -4.486942 8.152489 28.937457 -0.161044 -0.839837 0.518401 0 0
  phy
    0 -9.364849 8.152482 27.691187 -0.677872 -0.469060 -0.566103 0 0
    0 -9.364849 -2.931702 27.691182 0.658255 -0.112729 -0.744307 0 0
    0 -4.486944 -2.931702 28.937459 0.220070 -0.940239 0.259845 0 0
  phy
    0 -9.364849 -2.931702 27.691182 0.658255 -0.112729 -0.744307 0 0
    0 4.480095 -2.931701 21.270654 0.271270 -0.646649 0.712922 0 0
    0 -4.486944 -2.931702 28.937459 0.220070 -0.940239 0.259845 0 0
  phy
    0 -9.364849 -2.931702 27.691182 0.658255 -0.112729 -0.744307 0 0
    0 5.937372 -2.931702 16.126188 0.741006 0.492304 0.456670 0 0
    0 4.480095 -2.931701 21.270654 0.271270 -0.646649 0.712922 0 0
  phy
    0 -9.364849 -2.931702 27.691182 0.658255 -0.112729 -0.744307 0 0
    0 -9.401837 -2.931702 13.945814 0.417028 0.869048 -0.266165 0 0
    0 5.937372 -2.931702 16.126188 0.741006 0.492304 0.456670 0 0
  phy
    0 4.480095 -2.931701 21.270654 0.271270 -0.646649 0.712922 0 0
    0 4.691851 11.402151 20.523118 -0.702031 -0.505473 0.501647 0 0
    0 -4.486942 8.152489 28.937457 -0.161044 -0.839837 0.518401 0 0
  phy
    0 -4.486942 8.152489 28.937457 -0.161044 -0.839837 0.518401 0 0
    0 -4.486944 -2.931702 28.937459 0.220070 -0.940239 0.259845 0 0
    0 4.480095 -2.931701 21.270654 0.271270 -0.646649 0.712922 0 0
  phy
    0 -9.364849 8.152482 27.691187 -0.677872 -0.469060 -0.566103 0 0
    0 -4.486942 8.152489 28.937457 -0.161044 -0.839837 0.518401 0 0
    0 4.691851 11.402151 20.523118 -0.702031 -0.505473 0.501647 0 0
  phy
    0 4.691851 11.402151 20.523118 -0.702031 -0.505473 0.501647 0 0
    0 5.937372 -2.931702 16.126188 0.741006 0.492304 0.456670 0 0
    0 5.937371 11.402150 16.126189 -0.157410 0.946522 0.281635 0 0
  phy
    0 4.691851 11.402151 20.523118 -0.702031 -0.505473 0.501647 0 0
    0 4.480095 -2.931701 21.270654 0.271270 -0.646649 0.712922 0 0
    0 5.937372 -2.931702 16.126188 0.741006 0.492304 0.456670 0 0
end
