version 1
nodes
0 "static_prop" -1
end
skeleton
time 0
0  0.000000 0.000000 0.000000  0.000000 -0.000000 0.000000
end
triangles
  phy
0  62.408051 24.001148 4.039942  -0.670401 0.040479 0.740894  0.000000 0.000000 1 0 1.000000
0  62.408066 -24.001593 4.039940  0.542168 0.062546 0.837939  0.000000 0.000000 1 0 1.000000
0  58.748272 -23.852150 -0.109711  0.133834 0.990979 0.006925  0.000000 0.000000 1 0 1.000000
  phy
0  58.748272 -23.852150 -0.109711  0.133834 0.990979 0.006925  0.000000 0.000000 1 0 1.000000
0  58.748260 23.852150 -0.109707  0.003371 0.996389 0.084835  0.000000 0.000000 1 0 1.000000
0  62.408051 24.001148 4.039942  -0.670401 0.040479 0.740894  0.000000 0.000000 1 0 1.000000
  phy
0  62.408066 -24.001593 4.039940  0.542168 0.062546 0.837939  0.000000 0.000000 1 0 1.000000
0  -62.399052 -24.001598 4.039930  0.716024 0.047186 -0.696480  0.000000 0.000000 1 0 1.000000
0  58.748272 -23.852150 -0.109711  0.133834 0.990979 0.006925  0.000000 0.000000 1 0 1.000000
  phy
0  -62.399052 -24.001598 4.039930  0.716024 0.047186 -0.696480  0.000000 0.000000 1 0 1.000000
0  -59.403786 -23.852156 -0.109711  0.005268 0.997200 -0.074591  0.000000 0.000000 1 0 1.000000
0  58.748272 -23.852150 -0.109711  0.133834 0.990979 0.006925  0.000000 0.000000 1 0 1.000000
  phy
0  58.748272 -23.852150 -0.109711  0.133834 0.990979 0.006925  0.000000 0.000000 1 0 1.000000
0  -59.403793 23.852150 -0.109707  -0.018952 0.998738 -0.046507  0.000000 0.000000 1 0 1.000000
0  58.748260 23.852150 -0.109707  0.003371 0.996389 0.084835  0.000000 0.000000 1 0 1.000000
  phy
0  -59.403793 23.852150 -0.109707  -0.018952 0.998738 -0.046507  0.000000 0.000000 1 0 1.000000
0  58.748272 -23.852150 -0.109711  0.133834 0.990979 0.006925  0.000000 0.000000 1 0 1.000000
0  -59.403786 -23.852156 -0.109711  0.005268 0.997200 -0.074591  0.000000 0.000000 1 0 1.000000
  phy
0  -59.403793 23.852150 -0.109707  -0.018952 0.998738 -0.046507  0.000000 0.000000 1 0 1.000000
0  62.408051 24.001148 4.039942  -0.670401 0.040479 0.740894  0.000000 0.000000 1 0 1.000000
0  58.748260 23.852150 -0.109707  0.003371 0.996389 0.084835  0.000000 0.000000 1 0 1.000000
  phy
0  62.408051 24.001148 4.039942  -0.670401 0.040479 0.740894  0.000000 0.000000 1 0 1.000000
0  -59.403793 23.852150 -0.109707  -0.018952 0.998738 -0.046507  0.000000 0.000000 1 0 1.000000
0  -62.399067 24.001148 4.039947  -0.890403 -0.029230 -0.454234  0.000000 0.000000 1 0 1.000000
  phy
0  62.408051 24.001148 128.082428  -0.675588 -0.256652 0.691166  0.000000 0.000000 1 0 1.000000
0  62.408051 24.001148 4.039942  -0.670401 0.040479 0.740894  0.000000 0.000000 1 0 1.000000
0  -62.399067 24.001148 4.039947  -0.890403 -0.029230 -0.454234  0.000000 0.000000 1 0 1.000000
  phy
0  62.408051 24.001148 4.039942  -0.670401 0.040479 0.740894  0.000000 0.000000 1 0 1.000000
0  62.408051 24.001148 128.082428  -0.675588 -0.256652 0.691166  0.000000 0.000000 1 0 1.000000
0  62.408066 -24.001593 4.039940  0.542168 0.062546 0.837939  0.000000 0.000000 1 0 1.000000
  phy
0  62.408066 -24.001596 128.082428  0.704354 -0.615584 0.353472  0.000000 0.000000 1 0 1.000000
0  -62.399052 -24.001598 4.039930  0.716024 0.047186 -0.696480  0.000000 0.000000 1 0 1.000000
0  62.408066 -24.001593 4.039940  0.542168 0.062546 0.837939  0.000000 0.000000 1 0 1.000000
  phy
0  62.408066 -24.001593 4.039940  0.542168 0.062546 0.837939  0.000000 0.000000 1 0 1.000000
0  62.408051 24.001148 128.082428  -0.675588 -0.256652 0.691166  0.000000 0.000000 1 0 1.000000
0  62.408066 -24.001596 128.082428  0.704354 -0.615584 0.353472  0.000000 0.000000 1 0 1.000000
  phy
0  -62.399052 -24.001598 4.039930  0.716024 0.047186 -0.696480  0.000000 0.000000 1 0 1.000000
0  -59.403793 23.852150 -0.109707  -0.018952 0.998738 -0.046507  0.000000 0.000000 1 0 1.000000
0  -59.403786 -23.852156 -0.109711  0.005268 0.997200 -0.074591  0.000000 0.000000 1 0 1.000000
  phy
0  -59.403793 23.852150 -0.109707  -0.018952 0.998738 -0.046507  0.000000 0.000000 1 0 1.000000
0  -62.399052 -24.001598 4.039930  0.716024 0.047186 -0.696480  0.000000 0.000000 1 0 1.000000
0  -62.399067 24.001148 4.039947  -0.890403 -0.029230 -0.454234  0.000000 0.000000 1 0 1.000000
  phy
0  62.408066 -24.001596 128.082428  0.704354 -0.615584 0.353472  0.000000 0.000000 1 0 1.000000
0  -62.399067 24.001143 128.082428  -0.403905 -0.556126 -0.726350  0.000000 0.000000 1 0 1.000000
0  -62.399052 -24.001600 128.082428  0.620391 -0.479877 -0.620350  0.000000 0.000000 1 0 1.000000
  phy
0  62.408066 -24.001596 128.082428  0.704354 -0.615584 0.353472  0.000000 0.000000 1 0 1.000000
0  62.408051 24.001148 128.082428  -0.675588 -0.256652 0.691166  0.000000 0.000000 1 0 1.000000
0  -62.399067 24.001143 128.082428  -0.403905 -0.556126 -0.726350  0.000000 0.000000 1 0 1.000000
  phy
0  62.408066 -24.001596 128.082428  0.704354 -0.615584 0.353472  0.000000 0.000000 1 0 1.000000
0  -62.399052 -24.001600 128.082428  0.620391 -0.479877 -0.620350  0.000000 0.000000 1 0 1.000000
0  -62.399052 -24.001598 4.039930  0.716024 0.047186 -0.696480  0.000000 0.000000 1 0 1.000000
  phy
0  -62.399067 24.001143 128.082428  -0.403905 -0.556126 -0.726350  0.000000 0.000000 1 0 1.000000
0  -62.399052 -24.001598 4.039930  0.716024 0.047186 -0.696480  0.000000 0.000000 1 0 1.000000
0  -62.399052 -24.001600 128.082428  0.620391 -0.479877 -0.620350  0.000000 0.000000 1 0 1.000000
  phy
0  -62.399052 -24.001598 4.039930  0.716024 0.047186 -0.696480  0.000000 0.000000 1 0 1.000000
0  -62.399067 24.001143 128.082428  -0.403905 -0.556126 -0.726350  0.000000 0.000000 1 0 1.000000
0  -62.399067 24.001148 4.039947  -0.890403 -0.029230 -0.454234  0.000000 0.000000 1 0 1.000000
  phy
0  -62.399067 24.001143 128.082428  -0.403905 -0.556126 -0.726350  0.000000 0.000000 1 0 1.000000
0  62.408051 24.001148 128.082428  -0.675588 -0.256652 0.691166  0.000000 0.000000 1 0 1.000000
0  -62.399067 24.001148 4.039947  -0.890403 -0.029230 -0.454234  0.000000 0.000000 1 0 1.000000
end
