// Created by Crowbar 0.74
version 1
nodes
  0 "ValveBiped.ValveBiped" -1
  1 "ValveBiped.Bip01" 0
  2 "ValveBiped.Camera" 0
  3 "ValveBiped.weapon_bone" 1
  4 "ValveBiped.attach_muzzle" 3
  5 "ValveBiped.attach_shell_eject" 3
  6 "ValveBiped.attach_camera" 2
  7 "ValveBiped.Bip01_Spine" 1
  8 "ValveBiped.Bip01_Spine1" 7
  9 "ValveBiped.Bip01_Spine2" 8
  10 "ValveBiped.Bip01_Spine4" 9
  11 "ValveBiped.Bip01_L_Clavicle" 10
  12 "ValveBiped.Bip01_L_UpperArm" 11
  13 "ValveBiped.Bip01_L_Forearm" 12
  14 "ValveBiped.Bip01_L_Hand" 13
  15 "ValveBiped.Bip01_L_Finger4" 14
  16 "ValveBiped.Bip01_L_Finger41" 15
  17 "ValveBiped.Bip01_L_Finger42" 16
  18 "ValveBiped.Bip01_L_Finger3" 14
  19 "ValveBiped.Bip01_L_Finger31" 18
  20 "ValveBiped.Bip01_L_Finger32" 19
  21 "ValveBiped.Bip01_L_Finger2" 14
  22 "ValveBiped.Bip01_L_Finger21" 21
  23 "ValveBiped.Bip01_L_Finger22" 22
  24 "ValveBiped.Bip01_L_Finger1" 14
  25 "ValveBiped.Bip01_L_Finger11" 24
  26 "ValveBiped.Bip01_L_Finger12" 25
  27 "ValveBiped.Bip01_L_Finger0" 14
  28 "ValveBiped.Bip01_L_Finger01" 27
  29 "ValveBiped.Bip01_L_Finger02" 28
  30 "ValveBiped.Bip01_R_Clavicle" 10
  31 "ValveBiped.Bip01_R_UpperArm" 30
  32 "ValveBiped.Bip01_R_Forearm" 31
  33 "ValveBiped.Bip01_R_Hand" 32
  34 "ValveBiped.Bip01_R_Finger4" 33
  35 "ValveBiped.Bip01_R_Finger41" 34
  36 "ValveBiped.Bip01_R_Finger42" 35
  37 "ValveBiped.Bip01_R_Finger3" 33
  38 "ValveBiped.Bip01_R_Finger31" 37
  39 "ValveBiped.Bip01_R_Finger32" 38
  40 "ValveBiped.Bip01_R_Finger2" 33
  41 "ValveBiped.Bip01_R_Finger21" 40
  42 "ValveBiped.Bip01_R_Finger22" 41
  43 "ValveBiped.Bip01_R_Finger1" 33
  44 "ValveBiped.Bip01_R_Finger11" 43
  45 "ValveBiped.Bip01_R_Finger12" 44
  46 "ValveBiped.Bip01_R_Finger0" 33
  47 "ValveBiped.Bip01_R_Finger01" 46
  48 "ValveBiped.Bip01_R_Finger02" 47
  49 "ValveBiped.weapon_charger_slide" 3
  50 "ValveBiped.weapon_stock_hammer" 3
  51 "ValveBiped.weapon_bolt" 3
  52 "ValveBiped.weapon_safety" 3
  53 "ValveBiped.weapon_trigger" 3
  54 "ValveBiped.weapon_clip_realease" 3
  55 "ValveBiped.weapon_clip" 3
  56 "ValveBiped.weapon_clip_bullets" 55
  57 "ValveBiped.Bip01_R_Forearm_driven" 32
  58 "ValveBiped.Bip01_R_Driven_ulna" 32
  59 "ValveBiped.Bip01_R_thumbroot" 33
  60 "ValveBiped.Bip01_L_Forearm_driven" 13
  61 "ValveBiped.Bip01_L_Driven_ulna" 13
  62 "ValveBiped.Bip01_L_thumbroot" 14
end
skeleton
  time 0
    0 -0.999512 -2.000000 -55.000000 1.570792 0.000003 -0.000003
    1 0.000000 38.312500 -0.516602 1.570793 0.004436 1.570793
    2 0.285645 54.406250 -3.105469 0.000000 0.000000 0.000000
    3 -0.975940 12.362689 3.293069 -0.794944 -0.975490 -0.348482
    4 0.000000 0.099715 8.360889 0.000000 -1.570796 0.000000
    5 0.000000 3.003861 1.610714 -1.570796 0.000000 1.570796
    6 0.000000 0.000000 0.000000 0.000000 -1.570796 0.000000
    7 4.043092 0.000872 -0.002303 0.000000 0.000008 -0.078734
    8 3.995838 0.000000 0.000000 0.000000 0.000000 0.076510
    9 3.698238 0.000000 0.000000 0.000000 0.000000 0.238291
    10 5.700886 0.000000 0.000000 0.000000 0.000000 0.495179
    11 -7.403705 3.103527 0.371059 0.075792 -1.280255 -2.230763
    12 5.507359 0.000004 0.000001 -0.813911 -0.312003 -1.635644
    13 10.907391 0.000000 0.000004 0.429567 -0.285502 -1.413676
    14 10.424316 -0.000007 -0.000031 1.436550 -0.354227 0.458555
    15 2.997272 0.005413 -1.477472 0.048713 0.112741 -0.654673
    16 1.510380 -0.000002 0.000000 0.102019 -0.018587 -1.050086
    17 0.808647 0.000001 0.000000 0.074512 -0.167912 -1.025861
    18 3.305794 0.203110 -0.546729 0.146325 0.120110 -0.673330
    19 1.807177 0.000000 0.000000 0.012053 -0.101773 -1.183193
    20 0.966141 -0.000001 0.000000 -0.003500 -0.006392 -0.767940
    21 3.571516 0.109303 0.409580 0.093176 0.176201 -0.995108
    22 2.150654 0.000000 0.000000 -0.009587 -0.067747 -1.184706
    23 1.152744 0.000001 0.000000 -0.025266 0.000084 -1.098543
    24 3.684093 -0.158703 1.419181 0.009585 0.296894 -0.902305
    25 1.701010 0.000000 0.000000 0.004252 0.081930 -1.300948
    26 0.994709 0.000002 0.000000 -0.014902 0.035588 -0.462866
    27 1.068075 -1.287205 0.981903 2.068196 -0.124072 -0.600798
    28 1.836302 0.000003 -0.000002 -0.003685 0.139064 -0.385174
    29 1.223946 -0.000001 0.000000 0.029853 -0.027588 -0.628672
    30 -4.747377 1.228471 -3.570376 -1.763527 1.041143 -3.256642
    31 5.507362 -0.000008 -0.000001 3.506090 0.861218 1.813529
    32 10.907394 0.000001 -0.000008 0.829598 -0.263251 -0.575235
    33 10.424301 -0.000005 0.000015 -0.576816 -0.060792 0.195014
    34 2.997293 0.000065 1.477481 -0.054917 0.035603 -0.292237
    35 1.510380 -0.000002 0.000000 0.006094 -0.080370 -1.263391
    36 0.808651 0.000000 0.000000 -0.156899 0.033183 -1.357418
    37 3.305807 0.201134 0.547461 -0.169398 0.018538 -0.591364
    38 1.807178 -0.000002 0.000000 -0.029862 0.098046 -1.361275
    39 0.966137 -0.000001 0.000000 0.007772 -0.006365 -1.370825
    40 3.571524 0.110785 -0.409182 -0.279324 -0.024837 -0.912932
    41 2.150660 0.000002 0.000000 -0.068972 0.182128 -1.811132
    42 1.152756 0.000000 0.000000 0.008506 -0.008711 -1.087232
    43 3.684111 -0.153564 -1.419746 -0.049544 0.000946 -0.625191
    44 1.701017 0.000004 0.000000 -0.004431 -0.081918 -1.298816
    45 0.994705 0.000000 0.000000 0.038452 -0.003169 -1.554984
    46 1.068094 -1.283655 -0.986553 -1.747658 0.284853 -0.595059
    47 1.836308 -0.000001 0.000002 -0.659900 -0.033173 -0.370602
    48 1.223946 -0.000001 0.000002 -0.035666 0.019493 -0.874576
    49 0.000000 1.945634 -1.740829 0.000000 0.000000 0.000000
    50 0.000000 1.092286 -2.833118 0.000000 0.000000 0.000000
    51 0.000000 1.945635 0.000000 0.000000 0.000000 0.000000
    52 0.000000 1.228824 1.706703 0.000000 0.000000 0.000000
    53 -15.195776 -50.280812 -27.606508 1.241497 -0.403552 -0.450354
    54 0.000000 -0.000002 3.037922 0.000000 0.000000 0.000000
    55 0.000000 -0.000002 3.857136 0.000000 0.000000 0.000000
    56 0.000000 -0.876005 0.000000 0.000000 0.000000 0.000000
    57 3.201996 0.000000 -0.000004 -1.001933 -0.104720 0.122173
    58 6.694000 0.000000 -0.000004 -0.693444 -0.104982 0.122278
    59 0.109995 -0.821001 -0.907000 -1.824288 0.377451 -0.632148
    60 3.355659 -0.031000 0.000000 1.613904 0.104720 0.122173
    61 6.867996 0.000000 0.000000 1.798616 0.104720 0.122161
    62 0.084999 -0.691999 1.011000 -1.495770 0.247836 2.697155
  time 1
    0 -0.999512 -2.000000 -55.000000 1.570792 0.000003 -0.000003
    1 0.000000 38.312500 -0.516602 1.570793 0.004436 1.570793
    2 0.285645 54.406250 -3.105469 0.000000 0.000000 0.000000
    3 -3.433046 12.319719 2.074282 -0.859253 -0.962228 -0.288198
    4 0.000000 0.099715 8.360889 0.000000 -1.570796 0.000000
    5 0.000000 3.003861 1.610714 -1.570796 0.000000 1.570796
    6 0.000000 0.000000 0.000000 0.000000 -1.570796 0.000000
    7 4.043092 0.000872 -0.002303 0.000000 0.000008 -0.078734
    8 3.995838 0.000000 0.000000 0.000000 0.000000 0.076510
    9 3.698238 0.000000 0.000000 0.000000 0.000000 0.238291
    10 5.700886 0.000000 0.000000 0.000000 0.000000 0.495179
    11 -7.403705 3.103527 0.371059 1.022735 -1.341340 -3.083747
    12 5.507359 0.000004 0.000001 -0.863859 -0.348307 -1.533303
    13 10.907391 0.000000 0.000004 0.485220 -0.391268 -1.307200
    14 10.424316 -0.000007 -0.000031 1.461955 -0.396095 0.326034
    15 2.997272 0.005413 -1.477472 0.048713 0.112741 -0.654673
    16 1.510380 -0.000002 0.000000 0.102019 -0.018587 -1.050086
    17 0.808647 0.000001 0.000000 0.074512 -0.167912 -1.025861
    18 3.305794 0.203110 -0.546729 0.146325 0.120110 -0.673357
    19 1.807177 0.000000 0.000000 0.012053 -0.101773 -1.183193
    20 0.966141 -0.000001 0.000000 -0.003500 -0.006392 -0.767940
    21 3.571516 0.109303 0.409580 0.093176 0.176201 -0.995108
    22 2.150654 0.000000 0.000000 -0.009587 -0.067747 -1.184706
    23 1.152744 0.000001 0.000000 -0.025266 0.000084 -1.098543
    24 3.684093 -0.158703 1.419181 0.009585 0.296894 -0.902305
    25 1.701010 0.000000 0.000000 0.004252 0.081930 -1.300948
    26 0.994709 0.000002 0.000000 -0.014902 0.035600 -0.462866
    27 1.068075 -1.287205 0.981903 2.068196 -0.124072 -0.600798
    28 1.836302 0.000003 -0.000002 -0.003685 0.139064 -0.385174
    29 1.223946 -0.000001 0.000000 0.029853 -0.027588 -0.628672
    30 -4.747377 1.228471 -3.570376 -1.763527 1.041143 -3.256642
    31 5.507362 -0.000008 -0.000001 3.236792 0.987350 1.562049
    32 10.907394 0.000001 -0.000008 0.820839 -0.185288 -0.649943
    33 10.424301 -0.000005 0.000015 -0.591489 -0.100185 0.086660
    34 2.997293 0.000065 1.477481 -0.052980 0.033230 -0.304341
    35 1.510380 -0.000002 0.000000 0.006273 -0.080358 -1.272317
    36 0.808651 0.000000 0.000000 -0.158086 0.032068 -1.366201
    37 3.305807 0.201134 0.547461 -0.168020 0.017171 -0.600039
    38 1.807178 -0.000002 0.000000 -0.031096 0.097662 -1.373884
    39 0.966137 -0.000001 0.000000 0.007832 -0.006293 -1.379732
    40 3.571524 0.110785 -0.409182 -0.277850 -0.025760 -0.921717
    41 2.150660 0.000002 0.000000 -0.069512 0.181841 -1.820098
    42 1.152756 0.000000 0.000000 0.008578 -0.008627 -1.096164
    43 3.684111 -0.153564 -1.419746 -0.048621 -0.000361 -0.633952
    44 1.701017 0.000004 0.000000 -0.003700 -0.081954 -1.307759
    45 0.994705 0.000000 0.000000 0.038488 -0.002690 -1.567509
    46 1.068094 -1.283655 -0.986553 -1.745390 0.287154 -0.586081
    47 1.836308 -0.000001 0.000002 -0.658248 -0.041928 -0.370674
    48 1.223946 -0.000001 0.000002 -0.027852 0.015227 -0.874453
    49 0.000000 1.945634 -1.740829 0.000000 0.000000 0.000000
    50 0.000000 1.092286 -2.833118 0.000000 0.000000 0.000000
    51 0.000000 1.945635 0.000000 0.000000 0.000000 0.000000
    52 0.000000 1.228824 1.706703 0.000000 0.000000 0.000000
    53 -14.945769 -47.928630 -28.305748 1.247667 -0.382557 -0.485565
    54 0.000000 -0.000002 3.037922 0.000000 0.000000 0.000000
    55 0.000000 -0.000002 3.857136 0.000000 0.000000 0.000000
    56 0.000000 -0.876005 0.000000 0.000000 0.000000 0.000000
    57 3.201996 0.000000 -0.000004 -1.146089 -0.104720 0.122173
    58 6.694000 0.000000 -0.000004 -0.966128 -0.104982 0.122278
    59 0.109995 -0.821001 -0.907000 -1.824288 0.377439 -0.624119
    60 3.355659 -0.031000 0.000000 1.655506 0.104720 0.122173
    61 6.867996 0.000000 0.000000 1.870691 0.104720 0.122161
    62 0.084999 -0.691999 1.011000 -1.495770 0.247836 2.697155
  time 2
    0 -0.999512 -2.000000 -55.000000 1.570792 0.000003 -0.000003
    1 0.000000 38.312500 -0.516602 1.570793 0.004436 1.570793
    2 0.285645 54.406250 -3.105469 0.000000 0.000000 0.000000
    3 -4.956530 12.343157 1.406293 -0.994284 -0.871344 -0.198939
    4 0.000000 0.099715 8.360889 0.000000 -1.570796 0.000000
    5 0.000000 3.003861 1.610714 -1.570796 0.000000 1.570796
    6 0.000000 0.000000 0.000000 0.000000 -1.570796 0.000000
    7 4.043092 0.000872 -0.002303 0.000000 0.000008 -0.078734
    8 3.995838 0.000000 0.000000 0.000000 0.000000 0.076510
    9 3.698238 0.000000 0.000000 0.000000 0.000000 0.238291
    10 5.700886 0.000000 0.000000 0.000000 0.000000 0.495179
    11 -7.403705 3.103527 0.371059 1.555552 -1.291567 -3.580368
    12 5.507359 0.000004 0.000001 -0.895596 -0.370313 -1.433148
    13 10.907391 0.000000 0.000004 0.517921 -0.450181 -1.213294
    14 10.424316 -0.000007 -0.000031 1.504251 -0.437181 0.222434
    15 2.997272 0.005413 -1.477472 0.048305 0.112705 -0.654786
    16 1.510380 -0.000002 0.000000 0.102019 -0.018587 -1.050099
    17 0.808647 0.000001 0.000000 0.074512 -0.167912 -1.025861
    18 3.305794 0.203110 -0.546729 0.145918 0.120062 -0.673437
    19 1.807177 0.000000 0.000000 0.012053 -0.101773 -1.183193
    20 0.966141 -0.000001 0.000000 -0.003500 -0.006392 -0.767940
    21 3.571516 0.109303 0.409580 0.092793 0.176021 -0.995221
    22 2.150654 0.000000 0.000000 -0.009587 -0.067747 -1.184706
    23 1.152744 0.000001 0.000000 -0.025266 0.000084 -1.098543
    24 3.684093 -0.158703 1.419181 0.009178 0.296750 -0.902451
    25 1.701010 0.000000 0.000000 0.004252 0.081930 -1.300948
    26 0.994709 0.000002 0.000000 -0.014902 0.035600 -0.462866
    27 1.068075 -1.287205 0.981903 2.067790 -0.124085 -0.600798
    28 1.836302 0.000003 -0.000002 -0.003685 0.139064 -0.385174
    29 1.223946 -0.000001 0.000000 0.029853 -0.027588 -0.628672
    30 -4.747377 1.228471 -3.570376 -1.763527 1.041143 -3.256642
    31 5.507362 -0.000008 -0.000001 2.881855 1.041502 1.203204
    32 10.907394 0.000001 -0.000008 0.839499 -0.126236 -0.718753
    33 10.424301 -0.000005 0.000015 -0.562972 -0.126634 -0.082838
    34 2.997293 0.000065 1.477481 -0.051031 0.030893 -0.316386
    35 1.510380 -0.000002 0.000000 0.006597 -0.080334 -1.288479
    36 0.808651 0.000000 0.000000 -0.160207 0.030019 -1.382147
    37 3.305807 0.201134 0.547461 -0.165491 0.014714 -0.615738
    38 1.807178 -0.000002 0.000000 -0.032307 0.097267 -1.386438
    39 0.966137 -0.000001 0.000000 0.007940 -0.006174 -1.395854
    40 3.571524 0.110785 -0.409182 -0.275177 -0.027390 -0.937619
    41 2.150660 0.000002 0.000000 -0.070494 0.181301 -1.836386
    42 1.152756 0.000000 0.000000 0.008721 -0.008496 -1.112278
    43 3.684111 -0.153564 -1.419746 -0.046919 -0.002698 -0.649828
    44 1.701017 0.000004 0.000000 -0.002370 -0.082002 -1.323941
    45 0.994705 0.000000 0.000000 0.038512 -0.002199 -1.579984
    46 1.068094 -1.283655 -0.986553 -1.741190 0.291253 -0.569810
    47 1.836308 -0.000001 0.000002 -0.655275 -0.057793 -0.370817
    48 1.223946 -0.000001 0.000002 -0.013686 0.007485 -0.874288
    49 0.000000 1.945634 -1.740829 0.000000 0.000000 0.000000
    50 0.000000 1.092286 -2.833118 0.000000 0.000000 0.000000
    51 0.000000 1.945635 0.000000 0.000000 0.000000 0.000000
    52 0.000000 1.228824 1.706703 0.000000 0.000000 0.000000
    53 -17.992737 -43.447573 -31.614443 1.312515 -0.358533 -0.614348
    54 0.000000 -0.000002 3.037922 0.000000 0.000000 0.000000
    55 0.000000 -0.000002 3.857136 0.000000 0.000000 0.000000
    56 0.000000 -0.876005 0.000000 0.000000 0.000000 0.000000
    57 3.201996 0.000000 -0.000004 -1.305326 -0.104720 0.122173
    58 6.694000 0.000000 -0.000004 -1.260242 -0.104982 0.122278
    59 0.109995 -0.821001 -0.907000 -1.824288 0.377427 -0.616065
    60 3.355659 -0.031000 0.000000 1.719583 0.104720 0.122173
    61 6.867996 0.000000 0.000000 1.981715 0.104720 0.122161
    62 0.084999 -0.691999 1.011000 -1.495338 0.247792 2.697211
  time 3
    0 -0.999512 -2.000000 -55.000000 1.570792 0.000003 -0.000003
    1 0.000000 38.312500 -0.516602 1.570793 0.004436 1.570793
    2 0.285645 54.406250 -3.105469 0.000000 0.000000 0.000000
    3 0.047529 11.827516 4.449355 -1.175595 -0.612071 -0.144277
    4 0.000000 0.099715 8.360889 0.000000 -1.570796 0.000000
    5 0.000000 3.003861 1.610714 -1.570796 0.000000 1.570796
    6 0.000000 0.000000 0.000000 0.000000 -1.570796 0.000000
    7 4.043092 0.000872 -0.002303 0.000000 0.000008 -0.078734
    8 3.995838 0.000000 0.000000 0.000000 0.000000 0.076510
    9 3.698238 0.000000 0.000000 0.000000 0.000000 0.238291
    10 5.700886 0.000000 0.000000 0.000000 0.000000 0.495179
    11 -7.403705 3.103527 0.371059 -0.306147 -1.195149 -1.887263
    12 5.671426 -0.062498 0.015626 -0.751700 -0.342365 -1.547367
    13 10.907391 0.000000 0.000004 0.507789 -0.232408 -1.483828
    14 10.424316 -0.000007 -0.000031 1.584139 -0.317156 0.379079
    15 2.997272 0.005413 -1.477472 0.048713 0.112753 -0.654673
    16 1.510380 -0.000002 0.000000 0.102019 -0.018587 -1.050086
    17 0.808647 0.000001 0.000000 0.074512 -0.167912 -1.025861
    18 3.305794 0.203110 -0.546729 0.146325 0.120110 -0.673357
    19 1.807177 0.000000 0.000000 0.012053 -0.101773 -1.183193
    20 0.966141 -0.000001 0.000000 -0.003500 -0.006392 -0.767940
    21 3.571516 0.109303 0.409580 0.093176 0.176213 -0.995108
    22 2.150654 0.000000 0.000000 -0.009587 -0.067747 -1.184706
    23 1.152744 0.000001 0.000000 -0.025266 0.000084 -1.098543
    24 3.684093 -0.158703 1.419181 0.009585 0.296894 -0.902305
    25 1.701010 0.000000 0.000000 0.004252 0.081930 -1.300948
    26 0.994709 0.000002 0.000000 -0.014902 0.035588 -0.462866
    27 1.068075 -1.287205 0.981903 2.068196 -0.124072 -0.600827
    28 1.836302 0.000003 -0.000002 -0.003685 0.139064 -0.385174
    29 1.223946 -0.000001 0.000000 0.029853 -0.027588 -0.628672
    30 -4.747377 1.228471 -3.570376 -1.763527 1.041143 -3.256642
    31 5.433141 0.562510 -0.070316 2.630328 1.045403 0.744646
    32 10.907394 0.000001 -0.000008 0.873010 -0.048831 -1.287181
    33 10.424301 -0.000005 0.000015 -0.529528 0.144141 0.081823
    34 2.997293 0.000065 1.477481 -0.049059 0.028568 -0.328430
    35 1.510380 -0.000002 0.000000 0.006849 -0.080310 -1.300966
    36 0.808651 0.000000 0.000000 -0.161825 0.028413 -1.394478
    37 3.305807 0.201134 0.547461 -0.163514 0.012845 -0.627893
    38 1.807178 -0.000002 0.000000 -0.033529 0.096859 -1.398964
    39 0.966137 -0.000001 0.000000 0.008012 -0.006066 -1.408332
    40 3.571524 0.110785 -0.409182 -0.273092 -0.028625 -0.949918
    41 2.150660 0.000002 0.000000 -0.071249 0.180882 -1.848976
    42 1.152756 0.000000 0.000000 0.008817 -0.008376 -1.124770
    43 3.684111 -0.153564 -1.419746 -0.045589 -0.004495 -0.662124
    44 1.701017 0.000004 0.000000 -0.001351 -0.082026 -1.336461
    45 0.994705 0.000000 0.000000 0.038536 -0.001719 -1.592460
    46 1.068094 -1.283655 -0.986553 -1.737879 0.294393 -0.557185
    47 1.836308 -0.000001 0.000002 -0.652963 -0.070059 -0.370961
    48 1.223946 -0.000001 0.000002 -0.002732 0.001504 -0.874247
    49 0.000000 1.945634 -1.740829 0.000000 0.000000 0.000000
    50 0.000000 1.092286 -2.833118 0.000000 0.000000 0.000000
    51 0.000000 1.945635 0.000000 0.000000 0.000000 0.000000
    52 0.000000 1.228824 1.706703 0.000000 0.000000 0.000000
    53 -30.387646 -33.488016 -38.997481 1.484231 -0.320559 -0.920532
    54 0.000000 -0.000002 3.037922 0.000000 0.000000 0.000000
    55 0.000000 -0.000002 3.857136 0.000000 0.000000 0.000000
    56 0.000000 -0.876005 0.000000 0.000000 0.000000 0.000000
    57 3.201996 0.000000 -0.000004 -0.921048 -0.104720 0.122173
    58 6.694000 0.000000 -0.000004 -0.538596 -0.104982 0.122278
    59 0.109995 -0.821001 -0.907000 -1.824288 0.377415 -0.607951
    60 3.355659 -0.031000 0.000000 1.798399 0.104720 0.122173
    61 6.867996 0.000000 0.000000 2.118290 0.104720 0.122161
    62 0.084999 -0.691999 1.011000 -1.495770 0.247836 2.697155
  time 4
    0 -0.999512 -2.000000 -55.000000 1.570792 0.000003 -0.000003
    1 0.000000 38.312500 -0.516602 1.570793 0.004436 1.570793
    2 0.285645 54.406250 -3.105469 0.000000 0.000000 0.000000
    3 6.391473 12.940831 7.648671 -1.356163 -0.370481 -0.121703
    4 0.000000 0.099715 8.360889 0.000000 -1.570796 0.000000
    5 0.000000 3.003861 1.610714 -1.570796 0.000000 1.570796
    6 0.000000 0.000000 0.000000 0.000000 -1.570796 0.000000
    7 4.043092 0.000872 -0.002303 0.000000 0.000008 -0.078734
    8 3.995838 0.000000 0.000000 0.000000 0.000000 0.076510
    9 3.698238 0.000000 0.000000 0.000000 0.000000 0.238291
    10 5.700886 0.000000 0.000000 0.000000 0.000000 0.495179
    11 -7.403705 3.103527 0.371059 -0.803711 -0.813270 -2.003320
    12 6.136284 -0.246097 0.058596 -0.763443 -0.419430 -1.513633
    13 10.907391 0.000000 0.000004 0.164197 0.148992 -1.388998
    14 10.424316 -0.000007 -0.000031 1.616382 -0.145011 0.388887
    15 2.997272 0.005413 -1.477472 0.048869 0.112945 -0.654956
    16 1.510380 -0.000002 0.000000 0.102019 -0.018587 -1.050086
    17 0.808647 0.000001 0.000000 0.074512 -0.167912 -1.025861
    18 3.305794 0.203110 -0.546729 0.146481 0.120314 -0.673625
    19 1.807177 0.000000 0.000000 0.012053 -0.101773 -1.183193
    20 0.966141 -0.000001 0.000000 -0.003500 -0.006392 -0.767940
    21 3.571516 0.109303 0.409580 0.093248 0.176441 -0.995372
    22 2.150654 0.000000 0.000000 -0.009587 -0.067747 -1.184706
    23 1.152744 0.000001 0.000000 -0.025266 0.000084 -1.098543
    24 3.684093 -0.158703 1.419181 0.009681 0.297122 -0.902560
    25 1.701010 0.000000 0.000000 0.004252 0.081930 -1.300948
    26 0.994709 0.000002 0.000000 -0.014902 0.035600 -0.462866
    27 1.068075 -1.287205 0.981903 2.068368 -0.123879 -0.601125
    28 1.836302 0.000003 -0.000002 -0.003685 0.139064 -0.385174
    29 1.223946 -0.000001 0.000000 0.029853 -0.027588 -0.628672
    30 -4.747377 1.228471 -3.570376 -1.763527 1.041143 -3.256642
    31 5.198759 2.246155 -0.312510 1.672803 1.438605 -0.347011
    32 10.907394 0.000001 -0.000008 0.486201 0.293776 -1.599945
    33 10.424301 -0.000005 0.000015 -0.555868 0.248403 0.372445
    34 2.997293 0.000065 1.477481 -0.047038 0.026267 -0.340547
    35 1.510380 -0.000002 0.000000 0.007100 -0.080286 -1.313544
    36 0.808651 0.000000 0.000000 -0.163431 0.026771 -1.406843
    37 3.305807 0.201134 0.547461 -0.161500 0.010987 -0.640112
    38 1.807178 -0.000002 0.000000 -0.034740 0.096428 -1.411573
    39 0.966137 -0.000001 0.000000 0.008084 -0.005970 -1.420884
    40 3.571524 0.110785 -0.409182 -0.270971 -0.029847 -0.962284
    41 2.150660 0.000002 0.000000 -0.072004 0.180450 -1.861604
    42 1.152756 0.000000 0.000000 0.008925 -0.008268 -1.137323
    43 3.684111 -0.153564 -1.419746 -0.044223 -0.006281 -0.674466
    44 1.701017 0.000004 0.000000 -0.000321 -0.082038 -1.349066
    45 0.994705 0.000000 0.000000 0.038560 -0.001240 -1.604984
    46 1.068094 -1.283655 -0.986553 -1.734537 0.297497 -0.544489
    47 1.836308 -0.000001 0.000002 -0.650650 -0.082400 -0.371141
    48 1.223946 -0.000001 0.000002 0.008269 -0.004512 -0.874247
    49 0.000000 1.945634 -1.740829 0.000000 0.000000 0.000000
    50 0.000000 1.092286 -2.833118 0.000000 0.000000 0.000000
    51 0.000000 1.945635 0.000000 0.000000 0.000000 0.000000
    52 0.000000 1.228824 1.706703 0.000000 0.000000 0.000000
    53 -41.227821 -18.263341 -47.169605 1.618123 -0.199838 -1.192424
    54 0.000000 -0.000002 3.037922 0.000000 0.000000 0.000000
    55 0.000000 -0.000002 3.857136 0.000000 0.000000 0.000000
    56 0.000000 -0.876005 0.000000 0.000000 0.000000 0.000000
    57 3.201996 0.000000 -0.000004 -0.735291 -0.104720 0.122173
    58 6.694000 0.000000 -0.000004 -0.180789 -0.104982 0.122278
    59 0.109995 -0.821001 -0.907000 -1.824288 0.377403 -0.599742
    60 3.355659 -0.031000 0.000000 1.746540 0.104720 0.122173
    61 6.867996 0.000000 0.000000 2.028426 0.104720 0.122161
    62 0.084999 -0.691999 1.011000 -1.495962 0.247674 2.696820
  time 5
    0 -0.999512 -2.000000 -55.000000 1.570792 0.000003 -0.000003
    1 0.000000 38.312500 -0.516602 1.570793 0.004436 1.570793
    2 0.285645 54.406250 -3.105469 0.000000 0.000000 0.000000
    3 10.485348 19.804322 7.773675 -1.544165 -0.267656 -0.115821
    4 0.000000 0.099715 8.360889 0.000000 -1.570796 0.000000
    5 0.000000 3.003861 1.610714 -1.570796 0.000000 1.570796
    6 0.000000 0.000000 0.000000 0.000000 -1.570796 0.000000
    7 4.043092 0.000872 -0.002303 0.000000 0.000008 -0.078734
    8 3.995838 0.000000 0.000000 0.000000 0.000000 0.076510
    9 3.698238 0.000000 0.000000 0.000000 0.000000 0.238291
    10 5.700886 0.000000 0.000000 0.000000 0.000000 0.495179
    11 -7.403705 3.103527 0.371059 -1.400519 -1.350788 -1.822470
    12 6.730052 -0.480480 0.117192 -0.923023 -0.466645 -1.256024
    13 10.907391 0.000000 0.000004 0.188684 0.155486 -0.792567
    14 10.424316 -0.000007 -0.000031 1.621252 -0.015744 0.151900
    15 2.997272 0.005413 -1.477472 0.048641 0.112154 -0.654645
    16 1.510380 -0.000002 0.000000 0.102019 -0.018587 -1.050086
    17 0.808647 0.000001 0.000000 0.074512 -0.167912 -1.025861
    18 3.305794 0.203110 -0.546729 0.146265 0.119523 -0.673303
    19 1.807177 0.000000 0.000000 0.012053 -0.101773 -1.183193
    20 0.966141 -0.000001 0.000000 -0.003500 -0.006392 -0.767940
    21 3.571516 0.109303 0.409580 0.093308 0.175626 -0.995032
    22 2.150654 0.000000 0.000000 -0.009587 -0.067747 -1.184706
    23 1.152744 0.000001 0.000000 -0.025266 0.000084 -1.098543
    24 3.684093 -0.158703 1.419181 0.009657 0.296307 -0.902232
    25 1.701010 0.000000 0.000000 0.004252 0.081930 -1.300948
    26 0.994709 0.000002 0.000000 -0.014902 0.035588 -0.462866
    27 1.068075 -1.287205 0.981903 2.068102 -0.124652 -0.600768
    28 1.836302 0.000003 -0.000002 -0.003685 0.139064 -0.385174
    29 1.223946 -0.000001 0.000000 0.029853 -0.027588 -0.628672
    30 -4.747377 1.228471 -3.570376 -1.763527 1.041143 -3.256642
    31 4.847186 4.613414 -0.722679 -0.799557 1.308572 -3.080268
    32 10.907394 0.000001 -0.000008 0.395853 0.354037 -1.206148
    33 10.424301 -0.000005 0.000015 -0.734701 0.137220 0.197607
    34 2.997293 0.000065 1.477481 -0.045005 0.023990 -0.352615
    35 1.510380 -0.000002 0.000000 0.007352 -0.080250 -1.326054
    36 0.808651 0.000000 0.000000 -0.165001 0.025129 -1.419173
    37 3.305807 0.201134 0.547461 -0.159463 0.009166 -0.652279
    38 1.807178 -0.000002 0.000000 -0.035950 0.095996 -1.424099
    39 0.966137 -0.000001 0.000000 0.008155 -0.005874 -1.433399
    40 3.571524 0.110785 -0.409182 -0.268850 -0.031033 -0.974605
    41 2.150660 0.000002 0.000000 -0.072747 0.180007 -1.874231
    42 1.152756 0.000000 0.000000 0.009033 -0.008160 -1.149815
    43 3.684111 -0.153564 -1.419746 -0.042833 -0.008055 -0.686762
    44 1.701017 0.000004 0.000000 0.000710 -0.082038 -1.361586
    45 0.994705 0.000000 0.000000 0.038572 -0.000761 -1.617509
    46 1.068094 -1.283655 -0.986553 -1.731134 0.300541 -0.531807
    47 1.836308 -0.000001 0.000002 -0.648314 -0.094666 -0.371345
    48 1.223946 -0.000001 0.000002 0.019235 -0.010504 -0.874329
    49 0.000000 1.945634 -1.740829 0.000000 0.000000 0.000000
    50 0.000000 1.092286 -2.833118 0.000000 0.000000 0.000000
    51 0.000000 1.945635 0.000000 0.000000 0.000000 0.000000
    52 0.000000 1.228824 1.706703 0.000000 0.000000 0.000000
    53 -45.290445 -5.867240 -56.892558 1.683959 -0.025645 -1.303071
    54 0.000000 -0.000002 3.037922 0.000000 0.000000 0.000000
    55 0.000000 -0.000002 3.857136 0.000000 0.000000 0.000000
    56 0.000000 -0.876005 0.000000 0.000000 0.000000 0.000000
    57 3.201996 0.000000 -0.000004 -0.732757 -0.104720 0.122173
    58 6.694000 0.000000 -0.000004 -0.175854 -0.104982 0.122278
    59 0.109995 -0.821001 -0.907000 -1.824288 0.377379 -0.591508
    60 3.355659 -0.031000 0.000000 1.391088 0.104720 0.122173
    61 6.867996 0.000000 0.000000 1.412780 0.104720 0.122161
    62 0.084999 -0.691999 1.011000 -1.495566 0.248396 2.697239
  time 6
    0 -0.999512 -2.000000 -55.000000 1.570792 0.000003 -0.000003
    1 0.000000 38.312500 -0.516602 1.570793 0.004436 1.570793
    2 0.285645 54.406250 -3.105469 0.000000 0.000000 0.000000
    3 12.981518 25.804505 6.988495 -1.673156 -0.187796 -0.111929
    4 0.000000 0.099715 8.360889 0.000000 -1.570796 0.000000
    5 0.000000 3.003861 1.610714 -1.570796 0.000000 1.570796
    6 0.000000 0.000000 0.000000 0.000000 -1.570796 0.000000
    7 4.043092 0.000872 -0.002303 0.000000 0.000008 -0.078734
    8 3.995838 0.000000 0.000000 0.000000 0.000000 0.076510
    9 3.698238 0.000000 0.000000 0.000000 0.000000 0.238291
    10 5.700886 0.000000 0.000000 0.000000 0.000000 0.495179
    11 -7.403705 3.103527 0.371059 2.478450 -1.019947 0.472164
    12 7.194910 -0.664079 0.160162 -1.171051 -0.340043 -0.729498
    13 10.907391 0.000000 0.000004 0.234205 0.009868 -0.293277
    14 10.424316 -0.000007 -0.000031 1.622907 0.102690 -0.214038
    15 2.997272 0.005413 -1.477472 0.048713 0.112741 -0.654673
    16 1.510380 -0.000002 0.000000 0.102019 -0.018587 -1.050086
    17 0.808647 0.000001 0.000000 0.074512 -0.167912 -1.025861
    18 3.305794 0.203110 -0.546729 0.146325 0.120098 -0.673330
    19 1.807177 0.000000 0.000000 0.012053 -0.101773 -1.183193
    20 0.966141 -0.000001 0.000000 -0.003500 -0.006392 -0.767940
    21 3.571516 0.109303 0.409580 0.093176 0.176201 -0.995108
    22 2.150654 0.000000 0.000000 -0.009587 -0.067747 -1.184706
    23 1.152744 0.000001 0.000000 -0.025266 0.000084 -1.098543
    24 3.684093 -0.158703 1.419181 0.009585 0.296894 -0.902305
    25 1.701010 0.000000 0.000000 0.004252 0.081930 -1.300948
    26 0.994709 0.000002 0.000000 -0.014902 0.035588 -0.462866
    27 1.068075 -1.287205 0.981903 2.068196 -0.124072 -0.600798
    28 1.836302 0.000003 -0.000002 -0.003685 0.139064 -0.385174
    29 1.223946 -0.000001 0.000000 0.029853 -0.027588 -0.628672
    30 -4.747377 1.228471 -3.570376 -1.763527 1.041143 -3.256642
    31 4.468268 6.894734 -1.238320 -0.966108 1.099597 -3.541122
    32 10.907394 0.000001 -0.000008 0.448786 0.216557 -0.723540
    33 10.424301 -0.000005 0.000015 -0.848928 0.064083 -0.119678
    34 2.997293 0.000065 1.477481 -0.042936 0.021749 -0.364672
    35 1.510380 -0.000002 0.000000 0.007604 -0.080214 -1.338564
    36 0.808651 0.000000 0.000000 -0.166559 0.023463 -1.431504
    37 3.305807 0.201134 0.547461 -0.157425 0.007368 -0.664447
    38 1.807178 -0.000002 0.000000 -0.037148 0.095529 -1.436653
    39 0.966137 -0.000001 0.000000 0.008227 -0.005766 -1.445877
    40 3.571524 0.110785 -0.409182 -0.266716 -0.032196 -0.986927
    41 2.150660 0.000002 0.000000 -0.073478 0.179564 -1.886821
    42 1.152756 0.000000 0.000000 0.009129 -0.008040 -1.162307
    43 3.684111 -0.153564 -1.419746 -0.041431 -0.009792 -0.699073
    44 1.701017 0.000004 0.000000 0.001741 -0.082026 -1.374127
    45 0.994705 0.000000 0.000000 0.038572 -0.000281 -1.629984
    46 1.068094 -1.283655 -0.986553 -1.727700 0.303561 -0.519139
    47 1.836308 -0.000001 0.000002 -0.646002 -0.106933 -0.371572
    48 1.223946 -0.000001 0.000002 0.030189 -0.016496 -0.874494
    49 0.000000 1.945634 -1.740829 0.000000 0.000000 0.000000
    50 0.000000 1.092286 -2.833118 0.000000 0.000000 0.000000
    51 0.000000 1.945635 0.000000 0.000000 0.000000 0.000000
    52 0.000000 1.228824 1.706703 0.000000 0.000000 0.000000
    53 -47.341288 4.578634 -62.959149 1.706295 0.100606 -1.382029
    54 0.000000 -0.000002 3.037922 0.000000 0.000000 0.000000
    55 0.000000 -0.000002 3.857136 0.000000 0.000000 0.000000
    56 0.000000 -0.876005 0.000000 0.000000 0.000000 0.000000
    57 3.201996 0.000000 -0.000004 -0.717459 -0.104720 0.122173
    58 6.694000 0.000000 -0.000004 -0.146383 -0.104982 0.122278
    59 0.109995 -0.821001 -0.907000 -1.824288 0.377367 -0.583239
    60 3.355659 -0.031000 0.000000 1.206046 0.104720 0.122173
    61 6.867996 0.000000 0.000000 1.092760 0.104720 0.122161
    62 0.084999 -0.691999 1.011000 -1.495758 0.247851 2.697155
  time 7
    0 -0.999512 -2.000000 -55.000000 1.570792 0.000003 -0.000003
    1 0.000000 38.312500 -0.516602 1.570793 0.004436 1.570793
    2 0.285645 54.406250 -3.105469 0.000000 0.000000 0.000000
    3 13.547941 27.023292 6.390820 -1.661911 -0.129350 -0.106653
    4 0.000000 0.099715 8.360889 0.000000 -1.570796 0.000000
    5 0.000000 3.003861 1.610714 -1.570796 0.000000 1.570796
    6 0.000000 0.000000 0.000000 0.000000 -1.570796 0.000000
    7 4.043092 0.000872 -0.002303 0.000000 0.000008 -0.032977
    8 3.995838 0.000000 0.000000 0.000000 0.000000 0.112715
    9 3.698238 0.000000 0.000000 0.000000 0.000000 0.253308
    10 5.700886 0.000000 0.000000 0.000000 0.000000 0.464112
    11 -7.798248 2.763673 0.371059 2.433617 -0.836027 0.432240
    12 7.358978 -0.730487 0.175788 -1.203086 -0.279366 -0.594374
    13 10.907391 0.000000 0.000004 0.247792 -0.016321 -0.186339
    14 10.424316 -0.000007 -0.000031 1.632743 0.125266 -0.260086
    15 2.997272 0.005413 -1.477472 0.048713 0.112741 -0.654673
    16 1.510380 -0.000002 0.000000 0.102019 -0.018587 -1.050099
    17 0.808647 0.000001 0.000000 0.074512 -0.167912 -1.025861
    18 3.305794 0.203110 -0.546729 0.146325 0.120098 -0.673330
    19 1.807177 0.000000 0.000000 0.012053 -0.101773 -1.183193
    20 0.966141 -0.000001 0.000000 -0.003500 -0.006392 -0.767940
    21 3.571516 0.109303 0.409580 0.093176 0.176201 -0.995108
    22 2.150654 0.000000 0.000000 -0.009587 -0.067747 -1.184722
    23 1.152744 0.000001 0.000000 -0.025266 0.000084 -1.098543
    24 3.684093 -0.158703 1.419181 0.009585 0.296894 -0.902305
    25 1.701010 0.000000 0.000000 0.004252 0.081930 -1.300948
    26 0.994709 0.000002 0.000000 -0.014902 0.035600 -0.462866
    27 1.068075 -1.287205 0.981903 2.068196 -0.124072 -0.600798
    28 1.836302 0.000003 -0.000002 -0.003685 0.139064 -0.385174
    29 1.223946 -0.000001 0.000000 0.029853 -0.027588 -0.628672
    30 -5.274737 0.716737 -3.570376 -1.763527 1.041143 -3.322561
    31 4.144040 8.488533 -1.781305 -0.767703 1.130470 -3.481314
    32 10.907394 0.000001 -0.000008 0.446216 0.157319 -0.748243
    33 10.424301 -0.000005 0.000015 -0.868838 0.021024 -0.126450
    34 2.997293 0.000065 1.477481 -0.044416 0.023343 -0.356067
    35 1.510380 -0.000002 0.000000 0.007424 -0.080238 -1.329638
    36 0.808651 0.000000 0.000000 -0.165456 0.024650 -1.422686
    37 3.305807 0.201134 0.547461 -0.158888 0.008650 -0.655772
    38 1.807178 -0.000002 0.000000 -0.036297 0.095864 -1.427686
    39 0.966137 -0.000001 0.000000 0.008179 -0.005838 -1.436970
    40 3.571524 0.110785 -0.409182 -0.268238 -0.031369 -0.978119
    41 2.150660 0.000002 0.000000 -0.072963 0.179887 -1.877817
    42 1.152756 0.000000 0.000000 0.009033 -0.008160 -1.149754
    43 3.684111 -0.153564 -1.419746 -0.042845 -0.008043 -0.686701
    44 1.701017 0.000004 0.000000 0.001010 -0.082038 -1.365184
    45 0.994705 0.000000 0.000000 0.038572 -0.000617 -1.621066
    46 1.068094 -1.283655 -0.986553 -1.730153 0.301416 -0.528189
    47 1.836308 -0.000001 0.000002 -0.648338 -0.094604 -0.371345
    48 1.223946 -0.000001 0.000002 0.019175 -0.010468 -0.874329
    49 0.000000 1.945634 -1.740829 0.000000 0.000000 0.000000
    50 0.000000 1.092286 -2.833118 0.000000 0.000000 0.000000
    51 0.000000 1.945635 0.000000 0.000000 0.000000 0.000000
    52 0.000000 1.228824 1.706703 0.000000 0.000000 0.000000
    53 -48.052248 6.032620 -63.834176 1.693646 0.090426 -1.440873
    54 0.000000 -0.000002 3.037922 0.000000 0.000000 0.000000
    55 0.000000 -0.000002 3.857136 0.000000 0.000000 0.000000
    56 0.000000 -0.876005 0.000000 0.000000 0.000000 0.000000
    57 3.201996 0.000000 -0.000004 -0.670718 -0.104720 0.122173
    58 6.694000 0.000000 -0.000004 -0.056280 -0.104982 0.122278
    59 0.109995 -0.821001 -0.907000 -1.824288 0.377379 -0.591556
    60 3.355659 -0.031000 0.000000 1.181717 0.104720 0.122173
    61 6.867996 0.000000 0.000000 1.050716 0.104720 0.122161
    62 0.084999 -0.691999 1.011000 -1.495758 0.247851 2.697155
  time 8
    0 -0.999512 -2.000000 -55.000000 1.570792 0.000003 -0.000003
    1 0.000000 38.312500 -0.516602 1.570793 0.004436 1.570793
    2 0.285645 54.406250 -3.105469 0.000000 0.000000 0.000000
    3 13.208087 27.503776 5.750175 -1.595278 -0.091228 -0.092901
    4 0.000000 0.099715 8.360889 0.000000 -1.570796 0.000000
    5 0.000000 3.003861 1.610714 -1.570796 0.000000 1.570796
    6 0.000000 0.000000 0.000000 0.000000 -1.570796 0.000000
    7 4.043092 0.000872 -0.002303 0.000000 0.000008 0.051340
    8 3.995838 0.000000 0.000000 0.000000 0.000000 0.179457
    9 3.698238 0.000000 0.000000 0.000000 0.000000 0.280968
    10 5.700886 0.000000 0.000000 0.000000 0.000000 0.406838
    11 -8.544364 2.181624 0.371059 2.424325 -0.788650 0.321519
    12 7.339446 -0.722674 0.175788 -1.185396 -0.274213 -0.590668
    13 10.907391 0.000000 0.000004 0.264833 -0.021718 -0.154637
    14 10.424316 -0.000007 -0.000031 1.646874 0.106276 -0.186199
    15 2.997272 0.005413 -1.477472 0.048713 0.112741 -0.654673
    16 1.510380 -0.000002 0.000000 0.102019 -0.018587 -1.050086
    17 0.808647 0.000001 0.000000 0.074512 -0.167912 -1.025861
    18 3.305794 0.203110 -0.546729 0.146325 0.120098 -0.673330
    19 1.807177 0.000000 0.000000 0.012053 -0.101773 -1.183193
    20 0.966141 -0.000001 0.000000 -0.003500 -0.006392 -0.767940
    21 3.571516 0.109303 0.409580 0.093176 0.176201 -0.995108
    22 2.150654 0.000000 0.000000 -0.009587 -0.067747 -1.184706
    23 1.152744 0.000001 0.000000 -0.025266 0.000084 -1.098543
    24 3.684093 -0.158703 1.419181 0.009585 0.296894 -0.902305
    25 1.701010 0.000000 0.000000 0.004252 0.081930 -1.300948
    26 0.994709 0.000002 0.000000 -0.014902 0.035588 -0.462866
    27 1.068075 -1.287205 0.981903 2.068196 -0.124072 -0.600798
    28 1.836302 0.000003 -0.000002 -0.003685 0.139064 -0.385174
    29 1.223946 -0.000001 0.000000 0.029853 -0.027588 -0.628672
    30 -6.286487 -0.154383 -3.570376 -1.763527 1.041143 -3.443973
    31 3.804185 9.379185 -2.433669 -0.834531 1.185251 -3.606958
    32 10.907394 0.000001 -0.000008 0.508288 0.092552 -0.695075
    33 10.424301 -0.000005 0.000015 -0.831143 -0.034194 -0.095840
    34 2.997293 0.000065 1.477481 -0.047050 0.026279 -0.340487
    35 1.510380 -0.000002 0.000000 0.007100 -0.080286 -1.313476
    36 0.808651 0.000000 0.000000 -0.163419 0.026783 -1.406774
    37 3.305807 0.201134 0.547461 -0.161512 0.010999 -0.640048
    38 1.807178 -0.000002 0.000000 -0.034740 0.096440 -1.411490
    39 0.966137 -0.000001 0.000000 0.008084 -0.005970 -1.420811
    40 3.571524 0.110785 -0.409182 -0.270983 -0.029835 -0.962217
    41 2.150660 0.000002 0.000000 -0.072004 0.180450 -1.861566
    42 1.152756 0.000000 0.000000 0.008925 -0.008268 -1.137262
    43 3.684111 -0.153564 -1.419746 -0.044223 -0.006281 -0.674405
    44 1.701017 0.000004 0.000000 -0.000321 -0.082038 -1.348981
    45 0.994705 0.000000 0.000000 0.038560 -0.001240 -1.604936
    46 1.068094 -1.283655 -0.986553 -1.734537 0.297473 -0.544561
    47 1.836308 -0.000001 0.000002 -0.650650 -0.082326 -0.371141
    48 1.223946 -0.000001 0.000002 0.008209 -0.004488 -0.874247
    49 0.000000 1.945634 -1.740829 0.000000 0.000000 0.000000
    50 0.000000 1.092286 -2.833118 0.000000 0.000000 0.000000
    51 0.000000 1.945635 0.000000 0.000000 0.000000 0.000000
    52 0.000000 1.228824 1.706703 0.000000 0.000000 0.000000
    53 -48.446791 2.916226 -63.849801 1.670261 0.024447 -1.479556
    54 0.000000 -0.000002 3.037922 0.000000 0.000000 0.000000
    55 0.000000 -0.000002 3.857136 0.000000 0.000000 0.000000
    56 0.000000 -0.876005 0.000000 0.000000 0.000000 0.000000
    57 3.201996 0.000000 -0.000004 -0.626800 -0.104720 0.122173
    58 6.694000 0.000000 -0.000004 0.028203 -0.104982 0.122278
    59 0.109995 -0.821001 -0.907000 -1.824288 0.377403 -0.599790
    60 3.355659 -0.031000 0.000000 1.200484 0.104720 0.122173
    61 6.867996 0.000000 0.000000 1.083150 0.104720 0.122161
    62 0.084999 -0.691999 1.011000 -1.495758 0.247851 2.697155
  time 9
    0 -0.999512 -2.000000 -55.000000 1.570792 0.000003 -0.000003
    1 0.000000 38.312500 -0.516602 1.570793 0.004436 1.570793
    2 0.285645 54.406250 -3.105469 0.000000 0.000000 0.000000
    3 12.711978 27.452993 5.465011 -1.525114 -0.070847 -0.071797
    4 0.000000 0.099715 8.360889 0.000000 -1.570796 0.000000
    5 0.000000 3.003861 1.610714 -1.570796 0.000000 1.570796
    6 0.000000 0.000000 0.000000 0.000000 -1.570796 0.000000
    7 4.043092 0.000872 -0.002303 0.000000 0.000008 0.096686
    8 3.995838 0.000000 0.000000 0.000000 0.000000 0.215339
    9 3.698238 0.000000 0.000000 0.000000 0.000000 0.295841
    10 5.700886 0.000000 0.000000 0.000000 0.000000 0.376035
    11 -8.946720 1.896459 0.371059 2.442335 -0.829506 0.243101
    12 7.284757 -0.699236 0.167975 -1.151354 -0.301139 -0.658705
    13 10.907391 0.000000 0.000004 0.276271 -0.014507 -0.167022
    14 10.424316 -0.000007 -0.000031 1.654958 0.086983 -0.078416
    15 2.997272 0.005413 -1.477472 0.048713 0.112741 -0.654673
    16 1.510380 -0.000002 0.000000 0.102019 -0.018587 -1.050099
    17 0.808647 0.000001 0.000000 0.074512 -0.167912 -1.025861
    18 3.305794 0.203110 -0.546729 0.146325 0.120098 -0.673330
    19 1.807177 0.000000 0.000000 0.012053 -0.101773 -1.183193
    20 0.966141 -0.000001 0.000000 -0.003500 -0.006392 -0.767940
    21 3.571516 0.109303 0.409580 0.093176 0.176201 -0.995108
    22 2.150654 0.000000 0.000000 -0.009587 -0.067747 -1.184722
    23 1.152744 0.000001 0.000000 -0.025266 0.000084 -1.098543
    24 3.684093 -0.158703 1.419181 0.009585 0.296894 -0.902305
    25 1.701010 0.000000 0.000000 0.004252 0.081930 -1.300967
    26 0.994709 0.000002 0.000000 -0.014902 0.035600 -0.462866
    27 1.068075 -1.287205 0.981903 2.068196 -0.124072 -0.600798
    28 1.836302 0.000003 -0.000002 -0.003685 0.139064 -0.385174
    29 1.223946 -0.000001 0.000000 0.029853 -0.027588 -0.628672
    30 -6.845098 -0.580178 -3.570376 -1.763527 1.041143 -3.509236
    31 3.565897 9.773728 -3.195411 -0.905707 1.225981 -3.698153
    32 10.907394 0.000001 -0.000008 0.548559 0.050039 -0.688323
    33 10.424301 -0.000005 0.000015 -0.804803 -0.061503 -0.032492
    34 2.997293 0.000065 1.477481 -0.049059 0.028568 -0.328442
    35 1.510380 -0.000002 0.000000 0.006849 -0.080310 -1.300966
    36 0.808651 0.000000 0.000000 -0.161825 0.028413 -1.394478
    37 3.305807 0.201134 0.547461 -0.163514 0.012845 -0.627893
    38 1.807178 -0.000002 0.000000 -0.033529 0.096859 -1.398964
    39 0.966137 -0.000001 0.000000 0.008012 -0.006066 -1.408332
    40 3.571524 0.110785 -0.409182 -0.273092 -0.028625 -0.949918
    41 2.150660 0.000002 0.000000 -0.071249 0.180882 -1.848976
    42 1.152756 0.000000 0.000000 0.008817 -0.008388 -1.124770
    43 3.684111 -0.153564 -1.419746 -0.045589 -0.004495 -0.662124
    44 1.701017 0.000004 0.000000 -0.001351 -0.082026 -1.336461
    45 0.994705 0.000000 0.000000 0.038536 -0.001719 -1.592460
    46 1.068094 -1.283655 -0.986553 -1.737879 0.294393 -0.557200
    47 1.836308 -0.000001 0.000002 -0.652963 -0.070059 -0.370961
    48 1.223946 -0.000001 0.000002 -0.002732 0.001504 -0.874247
    49 0.000000 1.945634 -1.740829 0.000000 0.000000 0.000000
    50 0.000000 1.092286 -2.833118 0.000000 0.000000 0.000000
    51 0.000000 1.945635 0.000000 0.000000 0.000000 0.000000
    52 0.000000 1.228824 1.706703 0.000000 0.000000 0.000000
    53 -49.228065 -0.875055 -62.814614 1.643791 -0.045548 -1.499911
    54 0.000000 -0.000002 3.037922 0.000000 0.000000 0.000000
    55 0.000000 -0.000002 3.857136 0.000000 0.000000 0.000000
    56 0.000000 -0.876005 0.000000 0.000000 0.000000 0.000000
    57 3.201996 0.000000 -0.000004 -0.598447 -0.104720 0.122173
    58 6.694000 0.000000 -0.000004 0.082575 -0.104982 0.122278
    59 0.109995 -0.821001 -0.907000 -1.824288 0.377415 -0.607951
    60 3.355659 -0.031000 0.000000 1.226067 0.104720 0.122173
    61 6.867996 0.000000 0.000000 1.127365 0.104720 0.122161
    62 0.084999 -0.691999 1.011000 -1.495758 0.247851 2.697155
  time 10
    0 -0.999512 -2.000000 -55.000000 1.570792 0.000003 -0.000003
    1 0.000000 38.312500 -0.516602 1.570793 0.004436 1.570793
    2 0.285645 54.406250 -3.105469 0.000000 0.000000 0.000000
    3 12.270558 27.066262 5.867367 -1.465916 -0.059135 -0.053375
    4 0.000000 0.099715 8.360889 0.000000 -1.570796 0.000000
    5 0.000000 3.003861 1.610714 -1.570796 0.000000 1.570796
    6 0.000000 0.000000 0.000000 0.000000 -1.570796 0.000000
    7 4.043092 0.000872 -0.002303 0.000000 0.000008 0.096686
    8 3.995838 0.000000 0.000000 0.000000 0.000000 0.215339
    9 3.698238 0.000000 0.000000 0.000000 0.000000 0.295841
    10 5.700886 0.000000 0.000000 0.000000 0.000000 0.376035
    11 -8.946720 1.896459 0.371059 2.490520 -0.901104 0.205273
    12 7.194910 -0.664079 0.160162 -1.122887 -0.327602 -0.729498
    13 10.907391 0.000000 0.000004 0.279879 -0.000675 -0.187725
    14 10.424316 -0.000007 -0.000031 1.656014 0.072311 -0.003699
    15 2.997272 0.005413 -1.477472 0.048713 0.112741 -0.654673
    16 1.510380 -0.000002 0.000000 0.102019 -0.018587 -1.050086
    17 0.808647 0.000001 0.000000 0.074512 -0.167912 -1.025861
    18 3.305794 0.203110 -0.546729 0.146325 0.120098 -0.673330
    19 1.807177 0.000000 0.000000 0.012053 -0.101773 -1.183193
    20 0.966141 -0.000001 0.000000 -0.003500 -0.006392 -0.767940
    21 3.571516 0.109303 0.409580 0.093176 0.176201 -0.995108
    22 2.150654 0.000000 0.000000 -0.009587 -0.067747 -1.184706
    23 1.152744 0.000001 0.000000 -0.025266 0.000084 -1.098543
    24 3.684093 -0.158703 1.419181 0.009585 0.296894 -0.902305
    25 1.701010 0.000000 0.000000 0.004252 0.081930 -1.300948
    26 0.994709 0.000002 0.000000 -0.014902 0.035588 -0.462866
    27 1.068075 -1.287205 0.981903 2.068196 -0.124072 -0.600798
    28 1.836302 0.000003 -0.000002 -0.003685 0.139064 -0.385174
    29 1.223946 -0.000001 0.000000 0.029853 -0.027588 -0.628672
    30 -6.845098 -0.580178 -3.570376 -1.763527 1.041143 -3.509236
    31 3.476050 10.054987 -4.015749 -0.756927 1.256140 -3.564471
    32 10.907394 0.000001 -0.000008 0.548273 0.027784 -0.763372
    33 10.424301 -0.000005 0.000015 -0.810092 -0.054171 0.036933
    34 2.997293 0.000065 1.477481 -0.051043 0.030893 -0.316326
    35 1.510380 -0.000002 0.000000 0.006597 -0.080334 -1.288411
    36 0.808651 0.000000 0.000000 -0.160195 0.030019 -1.382079
    37 3.305807 0.201134 0.547461 -0.165503 0.014726 -0.615674
    38 1.807178 -0.000002 0.000000 -0.032307 0.097279 -1.386355
    39 0.966137 -0.000001 0.000000 0.007940 -0.006174 -1.395781
    40 3.571524 0.110785 -0.409182 -0.275189 -0.027390 -0.937553
    41 2.150660 0.000002 0.000000 -0.070494 0.181313 -1.836312
    42 1.152756 0.000000 0.000000 0.008721 -0.008496 -1.112216
    43 3.684111 -0.153564 -1.419746 -0.046931 -0.002698 -0.649768
    44 1.701017 0.000004 0.000000 -0.002382 -0.082002 -1.323877
    45 0.994705 0.000000 0.000000 0.038512 -0.002211 -1.579936
    46 1.068094 -1.283655 -0.986553 -1.741190 0.291241 -0.569882
    47 1.836308 -0.000001 0.000002 -0.655299 -0.057731 -0.370817
    48 1.223946 -0.000001 0.000002 -0.013746 0.007521 -0.874288
    49 0.000000 1.945634 -1.740829 0.000000 0.000000 0.000000
    50 0.000000 1.092286 -2.833118 0.000000 0.000000 0.000000
    51 0.000000 1.945635 0.000000 0.000000 0.000000 0.000000
    52 0.000000 1.228824 1.706703 0.000000 0.000000 0.000000
    53 -49.958556 -3.520020 -61.435665 1.622319 -0.104587 -1.511342
    54 0.000000 -0.000002 3.037922 0.000000 0.000000 0.000000
    55 0.000000 -0.000002 3.857136 0.000000 0.000000 0.000000
    56 0.000000 -0.876005 0.000000 0.000000 0.000000 0.000000
    57 3.201996 0.000000 -0.000004 -0.586020 -0.104720 0.122173
    58 6.694000 0.000000 -0.000004 0.106426 -0.104982 0.122278
    59 0.109995 -0.821001 -0.907000 -1.824288 0.377427 -0.616101
    60 3.355659 -0.031000 0.000000 1.247355 0.104720 0.122173
    61 6.867996 0.000000 0.000000 1.164165 0.104720 0.122161
    62 0.084999 -0.691999 1.011000 -1.495758 0.247851 2.697155
  time 11
    0 -0.999512 -2.000000 -55.000000 1.570792 0.000003 -0.000003
    1 0.000000 38.312500 -0.516602 1.570793 0.004436 1.570793
    2 0.285645 54.406250 -3.105469 0.000000 0.000000 0.000000
    3 11.676790 26.546715 6.617389 -1.404209 -0.051671 -0.047580
    4 0.000000 0.099715 8.360889 0.000000 -1.570796 0.000000
    5 0.000000 3.003861 1.610714 -1.570796 0.000000 1.570796
    6 0.000000 0.000000 0.000000 0.000000 -1.570796 0.000000
    7 4.043092 0.000872 -0.002303 0.000000 0.000008 0.096686
    8 3.995838 0.000000 0.000000 0.000000 0.000000 0.215339
    9 3.698238 0.000000 0.000000 0.000000 0.000000 0.295841
    10 5.700886 0.000000 0.000000 0.000000 0.000000 0.376035
    11 -8.946720 1.896459 0.371059 2.556044 -0.985079 0.157059
    12 7.066000 -0.613296 0.148443 -1.094123 -0.352021 -0.801241
    13 10.907391 0.000000 0.000004 0.282796 0.013242 -0.205564
    14 10.424316 -0.000007 -0.000031 1.654647 0.041049 0.052194
    15 2.997272 0.005413 -1.477472 0.048713 0.112741 -0.654673
    16 1.510380 -0.000002 0.000000 0.102019 -0.018587 -1.050086
    17 0.808647 0.000001 0.000000 0.074512 -0.167912 -1.025861
    18 3.305794 0.203110 -0.546729 0.146325 0.120098 -0.673330
    19 1.807177 0.000000 0.000000 0.012053 -0.101773 -1.183193
    20 0.966141 -0.000001 0.000000 -0.003500 -0.006392 -0.767940
    21 3.571516 0.109303 0.409580 0.093176 0.176201 -0.995108
    22 2.150654 0.000000 0.000000 -0.009587 -0.067747 -1.184706
    23 1.152744 0.000001 0.000000 -0.025266 0.000084 -1.098543
    24 3.684093 -0.158703 1.419181 0.009585 0.296894 -0.902305
    25 1.701010 0.000000 0.000000 0.004252 0.081930 -1.300948
    26 0.994709 0.000002 0.000000 -0.014902 0.035588 -0.462866
    27 1.068075 -1.287205 0.981903 2.068196 -0.124072 -0.600798
    28 1.836302 0.000003 -0.000002 -0.003685 0.139064 -0.385174
    29 1.223946 -0.000001 0.000000 0.029853 -0.027588 -0.628672
    30 -6.845098 -0.580178 -3.570376 -1.763527 1.041143 -3.509236
    31 3.460425 10.179991 -4.929839 -0.547841 1.261132 -3.373948
    32 10.907394 0.000001 -0.000008 0.540371 -0.000650 -0.824318
    33 10.424301 -0.000005 0.000015 -0.826217 -0.050130 0.084028
    34 2.997293 0.000065 1.477481 -0.052992 0.033242 -0.304269
    35 1.510380 -0.000002 0.000000 0.006345 -0.080358 -1.275901
    36 0.808651 0.000000 0.000000 -0.158565 0.031613 -1.369748
    37 3.305807 0.201134 0.547461 -0.167469 0.016620 -0.603519
    38 1.807178 -0.000002 0.000000 -0.031084 0.097674 -1.373828
    39 0.966137 -0.000001 0.000000 0.007856 -0.006269 -1.383303
    40 3.571524 0.110785 -0.409182 -0.277263 -0.026120 -0.925231
    41 2.150660 0.000002 0.000000 -0.069727 0.181721 -1.823722
    42 1.152756 0.000000 0.000000 0.008613 -0.008603 -1.099724
    43 3.684111 -0.153564 -1.419746 -0.048250 -0.000888 -0.637472
    44 1.701017 0.000004 0.000000 -0.003401 -0.081966 -1.311336
    45 0.994705 0.000000 0.000000 0.038488 -0.002690 -1.567460
    46 1.068094 -1.283655 -0.986553 -1.744470 0.288065 -0.582478
    47 1.836308 -0.000001 0.000002 -0.657587 -0.045452 -0.370698
    48 1.223946 -0.000001 0.000002 -0.024712 0.013513 -0.874412
    49 0.000000 1.945634 -1.740829 0.000000 0.000000 0.000000
    50 0.000000 1.092286 -2.833118 0.000000 0.000000 0.000000
    51 0.000000 1.945635 0.000000 0.000000 0.000000 0.000000
    52 0.000000 1.228824 1.706703 0.000000 0.000000 0.000000
    53 -49.759331 -6.050849 -60.462979 1.614051 -0.166303 -1.518384
    54 0.000000 -0.000002 3.037922 0.000000 0.000000 0.000000
    55 0.000000 -0.000002 3.857136 0.000000 0.000000 0.000000
    56 0.000000 -0.876005 0.000000 0.000000 0.000000 0.000000
    57 3.201996 0.000000 -0.000004 -0.577043 -0.104720 0.122173
    58 6.694000 0.000000 -0.000004 0.123606 -0.104982 0.122278
    59 0.109995 -0.821001 -0.907000 -1.824288 0.377439 -0.624154
    60 3.355659 -0.031000 0.000000 1.279220 0.104720 0.122173
    61 6.867996 0.000000 0.000000 1.219262 0.104720 0.122161
    62 0.084999 -0.691999 1.011000 -1.495758 0.247851 2.697155
  time 12
    0 -0.999512 -2.000000 -55.000000 1.570792 0.000003 -0.000003
    1 0.000000 38.312500 -0.516602 1.570793 0.004436 1.570793
    2 0.285645 54.406250 -3.105469 0.000000 0.000000 0.000000
    3 11.020520 26.081857 7.133030 -1.347427 -0.053107 -0.064446
    4 0.000000 0.099715 8.360889 0.000000 -1.570796 0.000000
    5 0.000000 3.003861 1.610714 -1.570796 0.000000 1.570796
    6 0.000000 0.000000 0.000000 0.000000 -1.570796 0.000000
    7 4.043092 0.000872 -0.002303 0.000000 0.000008 0.096686
    8 3.995838 0.000000 0.000000 0.000000 0.000000 0.215339
    9 3.698238 0.000000 0.000000 0.000000 0.000000 0.295841
    10 5.700886 0.000000 0.000000 0.000000 0.000000 0.376035
    11 -8.946720 1.896459 0.371059 2.615151 -1.055546 0.127807
    12 6.909745 -0.550794 0.132818 -1.070190 -0.370730 -0.863956
    13 10.907391 0.000000 0.000004 0.285175 0.005145 -0.233199
    14 10.424316 -0.000007 -0.000031 1.651576 -0.001931 0.104193
    15 2.997272 0.005413 -1.477472 0.048713 0.112741 -0.654673
    16 1.510380 -0.000002 0.000000 0.102019 -0.018587 -1.050086
    17 0.808647 0.000001 0.000000 0.074512 -0.167912 -1.025861
    18 3.305794 0.203110 -0.546729 0.146325 0.120098 -0.673330
    19 1.807177 0.000000 0.000000 0.012053 -0.101773 -1.183193
    20 0.966141 -0.000001 0.000000 -0.003500 -0.006392 -0.767940
    21 3.571516 0.109303 0.409580 0.093176 0.176201 -0.995108
    22 2.150654 0.000000 0.000000 -0.009587 -0.067747 -1.184706
    23 1.152744 0.000001 0.000000 -0.025266 0.000084 -1.098543
    24 3.684093 -0.158703 1.419181 0.009585 0.296894 -0.902305
    25 1.701010 0.000000 0.000000 0.004252 0.081930 -1.300948
    26 0.994709 0.000002 0.000000 -0.014902 0.035588 -0.462866
    27 1.068075 -1.287205 0.981903 2.068196 -0.124072 -0.600798
    28 1.836302 0.000003 -0.000002 -0.003685 0.139064 -0.385174
    29 1.223946 -0.000001 0.000000 0.029853 -0.027588 -0.628672
    30 -6.845098 -0.580178 -3.570376 -1.763527 1.041143 -3.509236
    31 3.577616 10.109676 -5.660330 -0.476192 1.253833 -3.328781
    32 10.907394 0.000001 -0.000008 0.537420 -0.047530 -0.820899
    33 10.424301 -0.000005 0.000015 -0.846646 -0.068237 0.095173
    34 2.997293 0.000065 1.477481 -0.054917 0.035603 -0.292237
    35 1.510380 -0.000002 0.000000 0.006094 -0.080370 -1.263391
    36 0.808651 0.000000 0.000000 -0.156911 0.033183 -1.357418
    37 3.305807 0.201134 0.547461 -0.169398 0.018538 -0.591364
    38 1.807178 -0.000002 0.000000 -0.029862 0.098046 -1.361275
    39 0.966137 -0.000001 0.000000 0.007772 -0.006365 -1.370825
    40 3.571524 0.110785 -0.409182 -0.279324 -0.024837 -0.912932
    41 2.150660 0.000002 0.000000 -0.068972 0.182128 -1.811132
    42 1.152756 0.000000 0.000000 0.008506 -0.008711 -1.087232
    43 3.684111 -0.153564 -1.419746 -0.049544 0.000946 -0.625191
    44 1.701017 0.000004 0.000000 -0.004431 -0.081918 -1.298816
    45 0.994705 0.000000 0.000000 0.038452 -0.003169 -1.554984
    46 1.068094 -1.283655 -0.986553 -1.747658 0.284853 -0.595045
    47 1.836308 -0.000001 0.000002 -0.659900 -0.033173 -0.370602
    48 1.223946 -0.000001 0.000002 -0.035666 0.019493 -0.874576
    49 0.000000 1.945634 -1.740829 0.000000 0.000000 0.000000
    50 0.000000 1.092286 -2.833118 0.000000 0.000000 0.000000
    51 0.000000 1.945635 0.000000 0.000000 0.000000 0.000000
    52 0.000000 1.228824 1.706703 0.000000 0.000000 0.000000
    53 -48.142094 -9.028295 -60.451260 1.627502 -0.222982 -1.516310
    54 0.000000 -0.000002 3.037922 0.000000 0.000000 0.000000
    55 0.000000 -0.000002 3.857136 0.000000 0.000000 0.000000
    56 0.000000 -0.876005 0.000000 0.000000 0.000000 0.000000
    57 3.201996 0.000000 -0.000004 -0.570673 -0.104720 0.122173
    58 6.694000 0.000000 -0.000004 0.135805 -0.104982 0.122278
    59 0.109995 -0.821001 -0.907000 -1.824288 0.377451 -0.632148
    60 3.355659 -0.031000 0.000000 1.312859 0.104720 0.122173
    61 6.867996 0.000000 0.000000 1.277453 0.104720 0.122161
    62 0.084999 -0.691999 1.011000 -1.495758 0.247851 2.697155
  time 13
    0 -0.999512 -2.000000 -55.000000 1.570792 0.000003 -0.000003
    1 0.000000 38.312500 -0.516602 1.570793 0.004436 1.570793
    2 0.285645 54.406250 -3.105469 0.000000 0.000000 0.000000
    3 10.407220 25.292771 7.187719 -1.292783 -0.067173 -0.152320
    4 0.000000 0.099715 8.360889 0.000000 -1.570796 0.000000
    5 0.000000 3.003861 1.610714 -1.570796 0.000000 1.570796
    6 0.000000 0.000000 0.000000 0.000000 -1.570796 0.000000
    7 4.043092 0.000872 -0.002303 0.000000 0.000008 0.096686
    8 3.995838 0.000000 0.000000 0.000000 0.000000 0.215339
    9 3.698238 0.000000 0.000000 0.000000 0.000000 0.295841
    10 5.700886 0.000000 0.000000 0.000000 0.000000 0.376035
    11 -8.946720 1.896459 0.371059 2.714108 -1.178181 0.072637
    12 6.730052 -0.480480 0.117192 -1.017195 -0.404296 -0.994994
    13 10.907391 0.000000 0.000004 0.294694 -0.036099 -0.315737
    14 10.424316 -0.000007 -0.000031 1.646034 -0.096097 0.183813
    15 2.997272 0.005413 -1.477472 0.048773 0.112562 -0.654701
    16 1.510380 -0.000002 0.000000 0.102019 -0.018587 -1.050086
    17 0.808647 0.000001 0.000000 0.074512 -0.167912 -1.025861
    18 3.305794 0.203110 -0.546729 0.146385 0.119930 -0.673357
    19 1.807177 0.000000 0.000000 0.012053 -0.101773 -1.183193
    20 0.966141 -0.000001 0.000000 -0.003500 -0.006392 -0.767940
    21 3.571516 0.109303 0.409580 0.093284 0.176057 -0.995108
    22 2.150654 0.000000 0.000000 -0.009587 -0.067747 -1.184706
    23 1.152744 0.000001 0.000000 -0.025266 0.000084 -1.098543
    24 3.684093 -0.158703 1.419181 0.009681 0.296738 -0.902305
    25 1.701010 0.000000 0.000000 0.004252 0.081930 -1.300948
    26 0.994709 0.000002 0.000000 -0.014902 0.035588 -0.462866
    27 1.068075 -1.287205 0.981903 2.068243 -0.124252 -0.600857
    28 1.836302 0.000003 -0.000002 -0.003685 0.139064 -0.385174
    29 1.223946 -0.000001 0.000000 0.029853 -0.027588 -0.628672
    30 -6.845098 -0.580178 -3.570376 -1.763527 1.041143 -3.509236
    31 3.819811 9.887013 -6.019716 -0.537443 1.279420 -3.412033
    32 10.907394 0.000001 -0.000008 0.553985 -0.146446 -0.821668
    33 10.424301 -0.000005 0.000015 -0.867801 -0.109538 0.071529
    34 2.997293 0.000065 1.477481 -0.054917 0.035603 -0.292237
    35 1.510380 -0.000002 0.000000 0.006094 -0.080370 -1.263391
    36 0.808651 0.000000 0.000000 -0.156911 0.033171 -1.357418
    37 3.305807 0.201134 0.547461 -0.169398 0.018538 -0.591364
    38 1.807178 -0.000002 0.000000 -0.029862 0.098046 -1.361275
    39 0.966137 -0.000001 0.000000 0.007772 -0.006365 -1.370825
    40 3.571524 0.110785 -0.409182 -0.279324 -0.024837 -0.912932
    41 2.150660 0.000002 0.000000 -0.068972 0.182128 -1.811132
    42 1.152756 0.000000 0.000000 0.008506 -0.008711 -1.087232
    43 3.684111 -0.153564 -1.419746 -0.049544 0.000946 -0.625191
    44 1.701017 0.000004 0.000000 -0.004431 -0.081918 -1.298816
    45 0.994705 0.000000 0.000000 0.038452 -0.003169 -1.554984
    46 1.068094 -1.283655 -0.986553 -1.747658 0.284853 -0.595045
    47 1.836308 -0.000001 0.000002 -0.659900 -0.033173 -0.370602
    48 1.223946 -0.000001 0.000002 -0.035666 0.019493 -0.874576
    49 0.000000 1.945634 -1.740829 0.000000 0.000000 0.000000
    50 0.000000 1.092286 -2.833118 0.000000 0.000000 0.000000
    51 0.000000 1.945635 0.000000 0.000000 0.000000 0.000000
    52 0.000000 1.228824 1.706703 0.000000 0.000000 0.000000
    53 -42.196600 -13.365442 -62.775550 1.708331 -0.277266 -1.500972
    54 0.000000 -0.000002 3.037922 0.000000 0.000000 0.000000
    55 0.000000 -0.000002 3.857136 0.000000 0.000000 0.000000
    56 0.000000 -0.876005 0.000000 0.000000 0.000000 0.000000
    57 3.201996 0.000000 -0.000004 -0.572555 -0.104720 0.122173
    58 6.694000 0.000000 -0.000004 0.132241 -0.104982 0.122278
    59 0.109995 -0.821001 -0.907000 -1.824288 0.377451 -0.632136
    60 3.355659 -0.031000 0.000000 1.346992 0.104720 0.122173
    61 6.867996 0.000000 0.000000 1.336477 0.104720 0.122161
    62 0.084999 -0.691999 1.011000 -1.495782 0.248028 2.697127
  time 14
    0 -0.999512 -2.000000 -55.000000 1.570792 0.000003 -0.000003
    1 0.000000 38.312500 -0.516602 1.570793 0.004436 1.570793
    2 0.285645 54.406250 -3.105469 0.000000 0.000000 0.000000
    3 9.731418 23.956792 7.004120 -1.234515 -0.094616 -0.284392
    4 0.000000 0.099715 8.360889 0.000000 -1.570796 0.000000
    5 0.000000 3.003861 1.610714 -1.570796 0.000000 1.570796
    6 0.000000 0.000000 0.000000 0.000000 -1.570796 0.000000
    7 4.043092 0.000872 -0.002303 0.000000 0.000008 0.096686
    8 3.995838 0.000000 0.000000 0.000000 0.000000 0.215339
    9 3.698238 0.000000 0.000000 0.000000 0.000000 0.295841
    10 5.700886 0.000000 0.000000 0.000000 0.000000 0.376035
    11 -8.946720 1.896459 0.371059 2.934534 -1.344667 -0.073148
    12 6.534734 -0.402352 0.097660 -0.932091 -0.432615 -1.176204
    13 10.907391 0.000000 0.000004 0.325630 -0.124870 -0.465561
    14 10.424316 -0.000007 -0.000031 1.642435 -0.203495 0.277497
    15 2.997272 0.005413 -1.477472 0.048881 0.113173 -0.654616
    16 1.510380 -0.000002 0.000000 0.102019 -0.018587 -1.050086
    17 0.808647 0.000001 0.000000 0.074512 -0.167912 -1.025861
    18 3.305794 0.203110 -0.546729 0.146493 0.120530 -0.673277
    19 1.807177 0.000000 0.000000 0.012053 -0.101773 -1.183193
    20 0.966141 -0.000001 0.000000 -0.003500 -0.006392 -0.767940
    21 3.571516 0.109303 0.409580 0.093188 0.176656 -0.995070
    22 2.150654 0.000000 0.000000 -0.009587 -0.067747 -1.184706
    23 1.152744 0.000001 0.000000 -0.025266 0.000084 -1.098543
    24 3.684093 -0.158703 1.419181 0.009645 0.297350 -0.902232
    25 1.701010 0.000000 0.000000 0.004252 0.081930 -1.300948
    26 0.994709 0.000002 0.000000 -0.014902 0.035588 -0.462866
    27 1.068075 -1.287205 0.981903 2.068383 -0.123660 -0.600798
    28 1.836302 0.000003 -0.000002 -0.003685 0.139064 -0.385174
    29 1.223946 -0.000001 0.000000 0.029853 -0.027588 -0.628672
    30 -6.845098 -0.580178 -3.570376 -1.763527 1.041143 -3.509236
    31 4.108882 9.386998 -5.992371 -0.737077 1.325812 -3.597963
    32 10.907394 0.000001 -0.000008 0.592828 -0.260649 -0.867655
    33 10.424301 -0.000005 0.000015 -0.877653 -0.148257 0.043434
    34 2.997293 0.000065 1.477481 -0.054917 0.035603 -0.292237
    35 1.510380 -0.000002 0.000000 0.006094 -0.080370 -1.263391
    36 0.808651 0.000000 0.000000 -0.156899 0.033171 -1.357418
    37 3.305807 0.201134 0.547461 -0.169398 0.018538 -0.591364
    38 1.807178 -0.000002 0.000000 -0.029862 0.098046 -1.361275
    39 0.966137 -0.000001 0.000000 0.007772 -0.006365 -1.370825
    40 3.571524 0.110785 -0.409182 -0.279324 -0.024837 -0.912932
    41 2.150660 0.000002 0.000000 -0.068960 0.182128 -1.811132
    42 1.152756 0.000000 0.000000 0.008506 -0.008711 -1.087232
    43 3.684111 -0.153564 -1.419746 -0.049544 0.000946 -0.625191
    44 1.701017 0.000004 0.000000 -0.004431 -0.081918 -1.298816
    45 0.994705 0.000000 0.000000 0.038452 -0.003169 -1.554984
    46 1.068094 -1.283655 -0.986553 -1.747658 0.284853 -0.595045
    47 1.836308 -0.000001 0.000002 -0.659900 -0.033173 -0.370602
    48 1.223946 -0.000001 0.000002 -0.035666 0.019493 -0.874576
    49 0.000000 1.945634 -1.740829 0.000000 0.000000 0.000000
    50 0.000000 1.092286 -2.833118 0.000000 0.000000 0.000000
    51 0.000000 1.945635 0.000000 0.000000 0.000000 0.000000
    52 0.000000 1.228824 1.706703 0.000000 0.000000 0.000000
    53 -33.251015 -18.605747 -65.017806 1.826551 -0.334649 -1.470633
    54 0.000000 -0.000002 3.037922 0.000000 0.000000 0.000000
    55 0.000000 -0.000002 3.857136 0.000000 0.000000 0.000000
    56 0.000000 -0.876005 0.000000 0.000000 0.000000 0.000000
    57 3.201996 0.000000 -0.000004 -0.584186 -0.104720 0.122173
    58 6.694000 0.000000 -0.000004 0.109898 -0.104982 0.122278
    59 0.109995 -0.821001 -0.907000 -1.824288 0.377451 -0.632136
    60 3.355659 -0.031000 0.000000 1.394689 0.104720 0.122173
    61 6.867996 0.000000 0.000000 1.419017 0.104720 0.122161
    62 0.084999 -0.691999 1.011000 -1.496021 0.247453 2.697127
  time 15
    0 -0.999512 -2.000000 -55.000000 1.570792 0.000003 -0.000003
    1 0.000000 38.312500 -0.516602 1.570793 0.004436 1.570793
    2 0.285645 54.406250 -3.105469 0.000000 0.000000 0.000000
    3 8.758733 22.503623 6.672079 -1.178848 -0.137101 -0.361023
    4 0.000000 0.099715 8.360889 0.000000 -1.570796 0.000000
    5 0.000000 3.003861 1.610714 -1.570796 0.000000 1.570796
    6 0.000000 0.000000 0.000000 0.000000 -1.570796 0.000000
    7 4.043092 0.000872 -0.002303 0.000000 0.000008 0.096686
    8 3.995838 0.000000 0.000000 0.000000 0.000000 0.215339
    9 3.698238 0.000000 0.000000 0.000000 0.000000 0.295841
    10 5.700886 0.000000 0.000000 0.000000 0.000000 0.376035
    11 -8.946720 1.896459 0.371059 3.553472 -1.458984 -0.598164
    12 6.331602 -0.324225 0.078128 -0.854865 -0.433961 -1.329192
    13 10.907391 0.000000 0.000004 0.368156 -0.210394 -0.619174
    14 10.424316 -0.000007 -0.000031 1.633247 -0.264631 0.358236
    15 2.997272 0.005413 -1.477472 0.048725 0.112753 -0.654673
    16 1.510380 -0.000002 0.000000 0.102019 -0.018587 -1.050086
    17 0.808647 0.000001 0.000000 0.074512 -0.167912 -1.025861
    18 3.305794 0.203110 -0.546729 0.146337 0.120110 -0.673357
    19 1.807177 0.000000 0.000000 0.012053 -0.101773 -1.183213
    20 0.966141 -0.000001 0.000000 -0.003500 -0.006392 -0.767940
    21 3.571516 0.109303 0.409580 0.093176 0.176213 -0.995108
    22 2.150654 0.000000 0.000000 -0.009587 -0.067747 -1.184706
    23 1.152744 0.000001 0.000000 -0.025266 0.000084 -1.098543
    24 3.684093 -0.158703 1.419181 0.009585 0.296894 -0.902305
    25 1.701010 0.000000 0.000000 0.004252 0.081930 -1.300948
    26 0.994709 0.000002 0.000000 -0.014902 0.035600 -0.462866
    27 1.068075 -1.287205 0.981903 2.068196 -0.124072 -0.600827
    28 1.836302 0.000003 -0.000002 -0.003685 0.139064 -0.385174
    29 1.223946 -0.000001 0.000000 0.029853 -0.027588 -0.628672
    30 -6.845098 -0.580178 -3.570376 -1.763527 1.041143 -3.509236
    31 4.397954 8.433843 -5.586109 -1.263479 1.339571 2.262708
    32 10.907394 0.000001 -0.000008 0.652044 -0.304880 -0.883896
    33 10.424301 -0.000005 0.000015 -0.837469 -0.161238 0.014836
    34 2.997293 0.000065 1.477481 -0.054917 0.035603 -0.292237
    35 1.510380 -0.000002 0.000000 0.006094 -0.080370 -1.263391
    36 0.808651 0.000000 0.000000 -0.156911 0.033171 -1.357418
    37 3.305807 0.201134 0.547461 -0.169398 0.018538 -0.591364
    38 1.807178 -0.000002 0.000000 -0.029862 0.098046 -1.361275
    39 0.966137 -0.000001 0.000000 0.007772 -0.006365 -1.370825
    40 3.571524 0.110785 -0.409182 -0.279324 -0.024837 -0.912932
    41 2.150660 0.000002 0.000000 -0.068972 0.182128 -1.811132
    42 1.152756 0.000000 0.000000 0.008506 -0.008711 -1.087232
    43 3.684111 -0.153564 -1.419746 -0.049544 0.000946 -0.625191
    44 1.701017 0.000004 0.000000 -0.004431 -0.081918 -1.298816
    45 0.994705 0.000000 0.000000 0.038452 -0.003169 -1.554984
    46 1.068094 -1.283655 -0.986553 -1.747658 0.284853 -0.595045
    47 1.836308 -0.000001 0.000002 -0.659900 -0.033173 -0.370602
    48 1.223946 -0.000001 0.000002 -0.035666 0.019493 -0.874576
    49 0.000000 1.945634 -1.740829 0.000000 0.000000 0.000000
    50 0.000000 1.092286 -2.833118 0.000000 0.000000 0.000000
    51 0.000000 1.945635 0.000000 0.000000 0.000000 0.000000
    52 0.000000 1.228824 1.706703 0.000000 0.000000 0.000000
    53 -27.731315 -23.325000 -64.068558 1.879799 -0.388017 -1.422641
    54 0.000000 -0.000002 3.037922 0.000000 0.000000 0.000000
    55 0.000000 -0.000002 3.857136 0.000000 0.000000 0.000000
    56 0.000000 -0.876005 0.000000 0.000000 0.000000 0.000000
    57 3.201996 0.000000 -0.000004 -0.599074 -0.104720 0.122173
    58 6.694000 0.000000 -0.000004 0.081387 -0.104982 0.122278
    59 0.109995 -0.821001 -0.907000 -1.824288 0.377451 -0.632148
    60 3.355659 -0.031000 0.000000 1.460900 0.104720 0.122173
    61 6.867996 0.000000 0.000000 1.533622 0.104720 0.122161
    62 0.084999 -0.691999 1.011000 -1.495770 0.247836 2.697155
  time 16
    0 -0.999512 -2.000000 -55.000000 1.570792 0.000003 -0.000003
    1 0.000000 38.312500 -0.516602 1.570793 0.004436 1.570793
    2 0.285645 54.406250 -3.105469 0.000000 0.000000 0.000000
    3 7.336814 20.925450 6.199408 -1.120208 -0.217822 -0.366645
    4 0.000000 0.099715 8.360889 0.000000 -1.570796 0.000000
    5 0.000000 3.003861 1.610714 -1.570796 0.000000 1.570796
    6 0.000000 0.000000 0.000000 0.000000 -1.570796 0.000000
    7 4.043092 0.000872 -0.002303 0.000000 0.000008 0.096635
    8 3.995838 0.000000 0.000000 0.000000 0.000000 0.215327
    9 3.698238 0.000000 0.000000 0.000000 0.000000 0.295841
    10 5.700886 0.000000 0.000000 0.000000 0.000000 0.376035
    11 -8.946720 1.896459 0.371059 -1.535592 -1.443613 -1.680687
    12 6.132378 -0.246097 0.058596 -0.792802 -0.415391 -1.467262
    13 10.907391 0.000000 0.000004 0.404005 -0.267073 -0.772048
    14 10.424316 -0.000007 -0.000031 1.611608 -0.285970 0.438722
    15 2.997272 0.005413 -1.477472 0.048713 0.112753 -0.654673
    16 1.510380 -0.000002 0.000000 0.102019 -0.018587 -1.050099
    17 0.808647 0.000001 0.000000 0.074512 -0.167912 -1.025861
    18 3.305794 0.203110 -0.546729 0.146337 0.120110 -0.673357
    19 1.807177 0.000000 0.000000 0.012053 -0.101773 -1.183193
    20 0.966141 -0.000001 0.000000 -0.003500 -0.006392 -0.767940
    21 3.571516 0.109303 0.409580 0.093176 0.176213 -0.995108
    22 2.150654 0.000000 0.000000 -0.009587 -0.067747 -1.184706
    23 1.152744 0.000001 0.000000 -0.025266 0.000084 -1.098543
    24 3.684093 -0.158703 1.419181 0.009585 0.296894 -0.902305
    25 1.701010 0.000000 0.000000 0.004252 0.081930 -1.300948
    26 0.994709 0.000002 0.000000 -0.014902 0.035600 -0.462866
    27 1.068075 -1.287205 0.981903 2.068196 -0.124072 -0.600827
    28 1.836302 0.000003 -0.000002 -0.003685 0.139064 -0.385174
    29 1.223946 -0.000001 0.000000 0.029853 -0.027588 -0.628672
    30 -6.845098 -0.580178 -3.570376 -1.763527 1.041143 -3.509236
    31 4.679212 7.074427 -4.820461 4.331943 1.267046 1.806543
    32 10.907394 0.000001 -0.000008 0.733252 -0.272775 -0.861245
    33 10.424301 -0.000005 0.000015 -0.738693 -0.142047 -0.011788
    34 2.997293 0.000065 1.477481 -0.054917 0.035603 -0.292237
    35 1.510380 -0.000002 0.000000 0.006094 -0.080370 -1.263391
    36 0.808651 0.000000 0.000000 -0.156899 0.033183 -1.357418
    37 3.305807 0.201134 0.547461 -0.169398 0.018538 -0.591364
    38 1.807178 -0.000002 0.000000 -0.029862 0.098046 -1.361275
    39 0.966137 -0.000001 0.000000 0.007772 -0.006365 -1.370825
    40 3.571524 0.110785 -0.409182 -0.279324 -0.024837 -0.912932
    41 2.150660 0.000002 0.000000 -0.068972 0.182128 -1.811132
    42 1.152756 0.000000 0.000000 0.008506 -0.008711 -1.087232
    43 3.684111 -0.153564 -1.419746 -0.049544 0.000946 -0.625191
    44 1.701017 0.000004 0.000000 -0.004431 -0.081918 -1.298816
    45 0.994705 0.000000 0.000000 0.038452 -0.003169 -1.554984
    46 1.068094 -1.283655 -0.986553 -1.747658 0.284853 -0.595045
    47 1.836308 -0.000001 0.000002 -0.659900 -0.033173 -0.370602
    48 1.223946 -0.000001 0.000002 -0.035666 0.019493 -0.874576
    49 0.000000 1.945634 -1.740829 0.000000 0.000000 0.000000
    50 0.000000 1.092286 -2.833118 0.000000 0.000000 0.000000
    51 0.000000 1.945635 0.000000 0.000000 0.000000 0.000000
    52 0.000000 1.228824 1.706703 0.000000 0.000000 0.000000
    53 -26.653157 -28.451169 -59.873118 1.837657 -0.439095 -1.329696
    54 0.000000 -0.000002 3.037922 0.000000 0.000000 0.000000
    55 0.000000 -0.000002 3.857136 0.000000 0.000000 0.000000
    56 0.000000 -0.876005 0.000000 0.000000 0.000000 0.000000
    57 3.201996 0.000000 -0.000004 -0.619875 -0.104720 0.122173
    58 6.694000 0.000000 -0.000004 0.041453 -0.104982 0.122278
    59 0.109995 -0.821001 -0.907000 -1.824288 0.377451 -0.632148
    60 3.355659 -0.031000 0.000000 1.527405 0.104720 0.122173
    61 6.867996 0.000000 0.000000 1.648782 0.104720 0.122161
    62 0.084999 -0.691999 1.011000 -1.495770 0.247836 2.697155
  time 17
    0 -0.999512 -2.000000 -55.000000 1.570792 0.000003 -0.000003
    1 0.000000 38.312500 -0.516602 1.570793 0.004436 1.570793
    2 0.285645 54.406250 -3.105469 0.000000 0.000000 0.000000
    3 5.606293 19.089456 5.609546 -1.048371 -0.345392 -0.359640
    4 0.000000 0.099715 8.360889 0.000000 -1.570796 0.000000
    5 0.000000 3.003861 1.610714 -1.570796 0.000000 1.570796
    6 0.000000 0.000000 0.000000 0.000000 -1.570796 0.000000
    7 4.043092 0.000872 -0.002303 0.000000 0.000008 0.089129
    8 3.995838 0.000000 0.000000 0.000000 0.000000 0.209359
    9 3.698238 0.000000 0.000000 0.000000 0.000000 0.293360
    10 5.700886 0.000000 0.000000 0.000000 0.000000 0.381179
    11 -8.880312 1.943335 0.371059 -1.017048 -1.359905 -2.036479
    12 5.952685 -0.175783 0.039065 -0.748504 -0.380898 -1.586897
    13 10.907391 0.000000 0.000004 0.446532 -0.321727 -0.951172
    14 10.424316 -0.000007 -0.000031 1.580588 -0.300565 0.510301
    15 2.997272 0.005413 -1.477472 0.048641 0.112693 -0.654645
    16 1.510380 -0.000002 0.000000 0.102019 -0.018587 -1.050086
    17 0.808647 0.000001 0.000000 0.074512 -0.167912 -1.025861
    18 3.305794 0.203110 -0.546729 0.146253 0.120050 -0.673303
    19 1.807177 0.000000 0.000000 0.012053 -0.101773 -1.183193
    20 0.966141 -0.000001 0.000000 -0.003500 -0.006392 -0.767940
    21 3.571516 0.109303 0.409580 0.093116 0.176129 -0.995070
    22 2.150654 0.000000 0.000000 -0.009587 -0.067747 -1.184706
    23 1.152744 0.000001 0.000000 -0.025266 0.000084 -1.098543
    24 3.684093 -0.158703 1.419181 0.009513 0.296822 -0.902268
    25 1.701010 0.000000 0.000000 0.004252 0.081930 -1.300948
    26 0.994709 0.000002 0.000000 -0.014902 0.035588 -0.462866
    27 1.068075 -1.287205 0.981903 2.068118 -0.124123 -0.600738
    28 1.836302 0.000003 -0.000002 -0.003685 0.139064 -0.385174
    29 1.223946 -0.000001 0.000000 0.029853 -0.027588 -0.628672
    30 -6.751345 -0.509863 -3.570376 -1.763527 1.041143 -3.498400
    31 4.933126 5.445471 -3.793085 3.860175 1.122416 1.621666
    32 10.907394 0.000001 -0.000008 0.818269 -0.234398 -0.814830
    33 10.424301 -0.000005 0.000015 -0.632400 -0.121210 -0.024868
    34 2.997293 0.000065 1.477481 -0.054917 0.035603 -0.292237
    35 1.510380 -0.000002 0.000000 0.006094 -0.080370 -1.263391
    36 0.808651 0.000000 0.000000 -0.156899 0.033183 -1.357418
    37 3.305807 0.201134 0.547461 -0.169398 0.018538 -0.591364
    38 1.807178 -0.000002 0.000000 -0.029862 0.098046 -1.361275
    39 0.966137 -0.000001 0.000000 0.007772 -0.006365 -1.370825
    40 3.571524 0.110785 -0.409182 -0.279324 -0.024837 -0.912932
    41 2.150660 0.000002 0.000000 -0.068972 0.182128 -1.811132
    42 1.152756 0.000000 0.000000 0.008506 -0.008711 -1.087232
    43 3.684111 -0.153564 -1.419746 -0.049544 0.000946 -0.625191
    44 1.701017 0.000004 0.000000 -0.004431 -0.081918 -1.298816
    45 0.994705 0.000000 0.000000 0.038452 -0.003169 -1.554984
    46 1.068094 -1.283655 -0.986553 -1.747658 0.284853 -0.595045
    47 1.836308 -0.000001 0.000002 -0.659900 -0.033173 -0.370602
    48 1.223946 -0.000001 0.000002 -0.035666 0.019493 -0.874576
    49 0.000000 1.945634 -1.740829 0.000000 0.000000 0.000000
    50 0.000000 1.092286 -2.833118 0.000000 0.000000 0.000000
    51 0.000000 1.945635 0.000000 0.000000 0.000000 0.000000
    52 0.000000 1.228824 1.706703 0.000000 0.000000 0.000000
    53 -25.813288 -34.698844 -53.615114 1.742328 -0.488658 -1.177327
    54 0.000000 -0.000002 3.037922 0.000000 0.000000 0.000000
    55 0.000000 -0.000002 3.857136 0.000000 0.000000 0.000000
    56 0.000000 -0.876005 0.000000 0.000000 0.000000 0.000000
    57 3.201996 0.000000 -0.000004 -0.653851 -0.104720 0.122173
    58 6.694000 0.000000 -0.000004 -0.023840 -0.104982 0.122278
    59 0.109995 -0.821001 -0.907000 -1.824288 0.377451 -0.632148
    60 3.355659 -0.031000 0.000000 1.583506 0.104720 0.122173
    61 6.867996 0.000000 0.000000 1.745945 0.104720 0.122161
    62 0.084999 -0.691999 1.011000 -1.495686 0.247880 2.697211
  time 18
    0 -0.999512 -2.000000 -55.000000 1.570792 0.000003 -0.000003
    1 0.000000 38.312500 -0.516602 1.570793 0.004436 1.570793
    2 0.285645 54.406250 -3.105469 0.000000 0.000000 0.000000
    3 3.754674 17.167523 4.964995 -0.973746 -0.503907 -0.349780
    4 0.000000 0.099715 8.360889 0.000000 -1.570796 0.000000
    5 0.000000 3.003861 1.610714 -1.570796 0.000000 1.570796
    6 0.000000 0.000000 0.000000 0.000000 -1.570796 0.000000
    7 4.043092 0.000872 -0.002303 0.000000 0.000008 0.069283
    8 3.995838 0.000000 0.000000 0.000000 0.000000 0.193647
    9 3.698238 0.000000 0.000000 0.000000 0.000000 0.286853
    10 5.700886 0.000000 0.000000 0.000000 0.000000 0.394642
    11 -8.704526 2.068339 0.371059 -0.754855 -1.305341 -2.089933
    12 5.796430 -0.113281 0.027346 -0.734456 -0.342365 -1.662345
    13 10.907391 0.000000 0.000004 0.484146 -0.356223 -1.129925
    14 10.424316 -0.000007 -0.000031 1.542443 -0.316197 0.550941
    15 2.997272 0.005413 -1.477472 0.048641 0.112693 -0.654645
    16 1.510380 -0.000002 0.000000 0.102019 -0.018587 -1.050086
    17 0.808647 0.000001 0.000000 0.074512 -0.167912 -1.025861
    18 3.305794 0.203110 -0.546729 0.146253 0.120050 -0.673303
    19 1.807177 0.000000 0.000000 0.012053 -0.101773 -1.183193
    20 0.966141 -0.000001 0.000000 -0.003500 -0.006392 -0.767940
    21 3.571516 0.109303 0.409580 0.093116 0.176129 -0.995070
    22 2.150654 0.000000 0.000000 -0.009587 -0.067747 -1.184706
    23 1.152744 0.000001 0.000000 -0.025266 0.000084 -1.098543
    24 3.684093 -0.158703 1.419181 0.009513 0.296822 -0.902268
    25 1.701010 0.000000 0.000000 0.004252 0.081930 -1.300948
    26 0.994709 0.000002 0.000000 -0.014902 0.035600 -0.462866
    27 1.068075 -1.287205 0.981903 2.068118 -0.124123 -0.600738
    28 1.836302 0.000003 -0.000002 -0.003685 0.139064 -0.385174
    29 1.223946 -0.000001 0.000000 0.029853 -0.027588 -0.628672
    30 -6.505244 -0.326264 -3.570376 -1.763527 1.041143 -3.469832
    31 5.147976 3.738388 -2.652426 3.641636 0.990035 1.628651
    32 10.907394 0.000001 -0.000008 0.860253 -0.228590 -0.736105
    33 10.424301 -0.000005 0.000015 -0.577386 -0.122669 -0.005519
    34 2.997293 0.000065 1.477481 -0.054917 0.035603 -0.292237
    35 1.510380 -0.000002 0.000000 0.006094 -0.080370 -1.263391
    36 0.808651 0.000000 0.000000 -0.156899 0.033183 -1.357418
    37 3.305807 0.201134 0.547461 -0.169398 0.018538 -0.591364
    38 1.807178 -0.000002 0.000000 -0.029862 0.098046 -1.361275
    39 0.966137 -0.000001 0.000000 0.007772 -0.006365 -1.370825
    40 3.571524 0.110785 -0.409182 -0.279324 -0.024837 -0.912932
    41 2.150660 0.000002 0.000000 -0.068972 0.182128 -1.811132
    42 1.152756 0.000000 0.000000 0.008506 -0.008711 -1.087232
    43 3.684111 -0.153564 -1.419746 -0.049544 0.000946 -0.625191
    44 1.701017 0.000004 0.000000 -0.004431 -0.081918 -1.298816
    45 0.994705 0.000000 0.000000 0.038452 -0.003169 -1.554984
    46 1.068094 -1.283655 -0.986553 -1.747658 0.284853 -0.595045
    47 1.836308 -0.000001 0.000002 -0.659900 -0.033173 -0.370602
    48 1.223946 -0.000001 0.000002 -0.035666 0.019493 -0.874576
    49 0.000000 1.945634 -1.740829 0.000000 0.000000 0.000000
    50 0.000000 1.092286 -2.833118 0.000000 0.000000 0.000000
    51 0.000000 1.945635 0.000000 0.000000 0.000000 0.000000
    52 0.000000 1.228824 1.706703 0.000000 0.000000 0.000000
    53 -24.258553 -40.708323 -46.189106 1.607819 -0.514691 -0.982753
    54 0.000000 -0.000002 3.037922 0.000000 0.000000 0.000000
    55 0.000000 -0.000002 3.857136 0.000000 0.000000 0.000000
    56 0.000000 -0.876005 0.000000 0.000000 0.000000 0.000000
    57 3.201996 0.000000 -0.000004 -0.695717 -0.104720 0.122173
    58 6.694000 0.000000 -0.000004 -0.104439 -0.104982 0.122278
    59 0.109995 -0.821001 -0.907000 -1.824288 0.377451 -0.632148
    60 3.355659 -0.031000 0.000000 1.626322 0.104720 0.122173
    61 6.867996 0.000000 0.000000 1.820123 0.104720 0.122161
    62 0.084999 -0.691999 1.011000 -1.495686 0.247880 2.697211
  time 19
    0 -0.999512 -2.000000 -55.000000 1.570792 0.000003 -0.000003
    1 0.000000 38.312500 -0.516602 1.570793 0.004436 1.570793
    2 0.285645 54.406250 -3.105469 0.000000 0.000000 0.000000
    3 1.969463 15.339342 4.339976 -0.904697 -0.672871 -0.343466
    4 0.000000 0.099715 8.360889 0.000000 -1.570796 0.000000
    5 0.000000 3.003861 1.610714 -1.570796 0.000000 1.570796
    6 0.000000 0.000000 0.000000 0.000000 -1.570796 0.000000
    7 4.043092 0.000872 -0.002303 0.000000 0.000008 0.041057
    8 3.995838 0.000000 0.000000 0.000000 0.000000 0.171332
    9 3.698238 0.000000 0.000000 0.000000 0.000000 0.277601
    10 5.700886 0.000000 0.000000 0.000000 0.000000 0.413815
    11 -8.450612 2.248032 0.371059 -0.524561 -1.290835 -2.095650
    12 5.671426 -0.062498 0.015626 -0.748206 -0.314881 -1.689617
    13 10.907391 0.000000 0.000004 0.496658 -0.358247 -1.274851
    14 10.424316 -0.000007 -0.000031 1.499285 -0.334934 0.551265
    15 2.997272 0.005413 -1.477472 0.048641 0.112693 -0.654645
    16 1.510380 -0.000002 0.000000 0.102019 -0.018587 -1.050086
    17 0.808647 0.000001 0.000000 0.074512 -0.167912 -1.025861
    18 3.305794 0.203110 -0.546729 0.146253 0.120050 -0.673303
    19 1.807177 0.000000 0.000000 0.012053 -0.101773 -1.183193
    20 0.966141 -0.000001 0.000000 -0.003500 -0.006392 -0.767940
    21 3.571516 0.109303 0.409580 0.093116 0.176129 -0.995070
    22 2.150654 0.000000 0.000000 -0.009587 -0.067747 -1.184706
    23 1.152744 0.000001 0.000000 -0.025266 0.000084 -1.098543
    24 3.684093 -0.158703 1.419181 0.009513 0.296822 -0.902268
    25 1.701010 0.000000 0.000000 0.004252 0.081930 -1.300948
    26 0.994709 0.000002 0.000000 -0.014902 0.035588 -0.462866
    27 1.068075 -1.287205 0.981903 2.068118 -0.124123 -0.600738
    28 1.836302 0.000003 -0.000002 -0.003685 0.139064 -0.385174
    29 1.223946 -0.000001 0.000000 0.029853 -0.027588 -0.628672
    30 -6.161483 -0.052818 -3.570376 -1.763527 1.041143 -3.429197
    31 5.312044 2.187559 -1.570361 3.552312 0.906059 1.695157
    32 10.907394 0.000001 -0.000008 0.857016 -0.239462 -0.652935
    33 10.424301 -0.000005 0.000015 -0.571423 -0.128392 0.041886
    34 2.997293 0.000065 1.477481 -0.054917 0.035603 -0.292237
    35 1.510380 -0.000002 0.000000 0.006094 -0.080370 -1.263391
    36 0.808651 0.000000 0.000000 -0.156899 0.033171 -1.357418
    37 3.305807 0.201134 0.547461 -0.169398 0.018538 -0.591364
    38 1.807178 -0.000002 0.000000 -0.029862 0.098046 -1.361275
    39 0.966137 -0.000001 0.000000 0.007772 -0.006365 -1.370825
    40 3.571524 0.110785 -0.409182 -0.279324 -0.024837 -0.912932
    41 2.150660 0.000002 0.000000 -0.068960 0.182128 -1.811132
    42 1.152756 0.000000 0.000000 0.008506 -0.008711 -1.087232
    43 3.684111 -0.153564 -1.419746 -0.049544 0.000946 -0.625191
    44 1.701017 0.000004 0.000000 -0.004431 -0.081918 -1.298816
    45 0.994705 0.000000 0.000000 0.038452 -0.003169 -1.554984
    46 1.068094 -1.283655 -0.986553 -1.747658 0.284853 -0.595045
    47 1.836308 -0.000001 0.000002 -0.659900 -0.033173 -0.370602
    48 1.223946 -0.000001 0.000002 -0.035666 0.019493 -0.874576
    49 0.000000 1.945634 -1.740829 0.000000 0.000000 0.000000
    50 0.000000 1.092286 -2.833118 0.000000 0.000000 0.000000
    51 0.000000 1.945635 0.000000 0.000000 0.000000 0.000000
    52 0.000000 1.228824 1.706703 0.000000 0.000000 0.000000
    53 -21.692068 -45.437500 -38.821694 1.463190 -0.504334 -0.778630
    54 0.000000 -0.000002 3.037922 0.000000 0.000000 0.000000
    55 0.000000 -0.000002 3.857136 0.000000 0.000000 0.000000
    56 0.000000 -0.876005 0.000000 0.000000 0.000000 0.000000
    57 3.201996 0.000000 -0.000004 -0.735146 -0.104720 0.122173
    58 6.694000 0.000000 -0.000004 -0.180469 -0.104982 0.122278
    59 0.109995 -0.821001 -0.907000 -1.824288 0.377451 -0.632136
    60 3.355659 -0.031000 0.000000 1.648783 0.104720 0.122173
    61 6.867996 0.000000 0.000000 1.859025 0.104720 0.122161
    62 0.084999 -0.691999 1.011000 -1.495686 0.247880 2.697211
  time 20
    0 -0.999512 -2.000000 -55.000000 1.570792 0.000003 -0.000003
    1 0.000000 38.312500 -0.516602 1.570793 0.004436 1.570793
    2 0.285645 54.406250 -3.105469 0.000000 0.000000 0.000000
    3 0.461604 13.808045 3.804804 -0.848008 -0.825013 -0.343120
    4 0.000000 0.099715 8.360889 0.000000 -1.570796 0.000000
    5 0.000000 3.003861 1.610714 -1.570796 0.000000 1.570796
    6 0.000000 0.000000 0.000000 0.000000 -1.570796 0.000000
    7 4.043092 0.000872 -0.002303 0.000000 0.000008 0.008924
    8 3.995838 0.000000 0.000000 0.000000 0.000000 0.145876
    9 3.698238 0.000000 0.000000 0.000000 0.000000 0.267054
    10 5.700886 0.000000 0.000000 0.000000 0.000000 0.435655
    11 -8.165447 2.466789 0.371059 -0.278749 -1.296358 -2.138528
    12 5.577673 -0.027341 0.003907 -0.777640 -0.305735 -1.678975
    13 10.907391 0.000000 0.000004 0.477621 -0.335137 -1.365152
    14 10.424316 -0.000007 -0.000031 1.461308 -0.350540 0.519028
    15 2.997272 0.005413 -1.477472 0.048641 0.112693 -0.654645
    16 1.510380 -0.000002 0.000000 0.102019 -0.018587 -1.050099
    17 0.808647 0.000001 0.000000 0.074512 -0.167912 -1.025861
    18 3.305794 0.203110 -0.546729 0.146253 0.120050 -0.673303
    19 1.807177 0.000000 0.000000 0.012053 -0.101773 -1.183193
    20 0.966141 -0.000001 0.000000 -0.003500 -0.006392 -0.767940
    21 3.571516 0.109303 0.409580 0.093116 0.176129 -0.995070
    22 2.150654 0.000000 0.000000 -0.009587 -0.067747 -1.184722
    23 1.152744 0.000001 0.000000 -0.025266 0.000084 -1.098543
    24 3.684093 -0.158703 1.419181 0.009513 0.296822 -0.902268
    25 1.701010 0.000000 0.000000 0.004252 0.081930 -1.300948
    26 0.994709 0.000002 0.000000 -0.014902 0.035588 -0.462866
    27 1.068075 -1.287205 0.981903 2.068118 -0.124123 -0.600738
    28 1.836302 0.000003 -0.000002 -0.003685 0.139064 -0.385174
    29 1.223946 -0.000001 0.000000 0.029853 -0.027588 -0.628672
    30 -5.770846 0.271411 -3.570376 -1.763527 1.041143 -3.382898
    31 5.425329 0.988304 -0.714867 3.510627 0.867636 1.761568
    32 10.907394 0.000001 -0.000008 0.833977 -0.247268 -0.597289
    33 10.424301 -0.000005 0.000015 -0.586201 -0.118553 0.100475
    34 2.997293 0.000065 1.477481 -0.054917 0.035603 -0.292237
    35 1.510380 -0.000002 0.000000 0.006094 -0.080370 -1.263391
    36 0.808651 0.000000 0.000000 -0.156899 0.033183 -1.357418
    37 3.305807 0.201134 0.547461 -0.169398 0.018538 -0.591364
    38 1.807178 -0.000002 0.000000 -0.029862 0.098046 -1.361275
    39 0.966137 -0.000001 0.000000 0.007772 -0.006365 -1.370825
    40 3.571524 0.110785 -0.409182 -0.279324 -0.024837 -0.912932
    41 2.150660 0.000002 0.000000 -0.068960 0.182128 -1.811132
    42 1.152756 0.000000 0.000000 0.008506 -0.008711 -1.087232
    43 3.684111 -0.153564 -1.419746 -0.049544 0.000946 -0.625191
    44 1.701017 0.000004 0.000000 -0.004431 -0.081918 -1.298816
    45 0.994705 0.000000 0.000000 0.038452 -0.003169 -1.554984
    46 1.068094 -1.283655 -0.986553 -1.747658 0.284853 -0.595045
    47 1.836308 -0.000001 0.000002 -0.659900 -0.033173 -0.370602
    48 1.223946 -0.000001 0.000002 -0.035666 0.019493 -0.874576
    49 0.000000 1.945634 -1.740829 0.000000 0.000000 0.000000
    50 0.000000 1.092286 -2.833118 0.000000 0.000000 0.000000
    51 0.000000 1.945635 0.000000 0.000000 0.000000 0.000000
    52 0.000000 1.228824 1.706703 0.000000 0.000000 0.000000
    53 -18.672445 -48.419909 -32.825417 1.343489 -0.465444 -0.605907
    54 0.000000 -0.000002 3.037922 0.000000 0.000000 0.000000
    55 0.000000 -0.000002 3.857136 0.000000 0.000000 0.000000
    56 0.000000 -0.876005 0.000000 0.000000 0.000000 0.000000
    57 3.201996 0.000000 -0.000004 -0.761207 -0.104720 0.122173
    58 6.694000 0.000000 -0.000004 -0.230729 -0.104982 0.122278
    59 0.109995 -0.821001 -0.907000 -1.824288 0.377451 -0.632148
    60 3.355659 -0.031000 0.000000 1.646609 0.104720 0.122173
    61 6.867996 0.000000 0.000000 1.855260 0.104720 0.122161
    62 0.084999 -0.691999 1.011000 -1.495686 0.247880 2.697211
  time 21
    0 -0.999512 -2.000000 -55.000000 1.570792 0.000003 -0.000003
    1 0.000000 38.312500 -0.516602 1.570793 0.004436 1.570793
    2 0.285645 54.406250 -3.105469 0.000000 0.000000 0.000000
    3 -0.585303 12.757232 3.433699 -0.809256 -0.934153 -0.346579
    4 0.000000 0.099715 8.360889 0.000000 -1.570796 0.000000
    5 0.000000 3.003861 1.610714 -1.570796 0.000000 1.570796
    6 0.000000 0.000000 0.000000 0.000000 -1.570796 0.000000
    7 4.043092 0.000872 -0.002303 0.000000 0.000008 -0.023209
    8 3.995838 0.000000 0.000000 0.000000 0.000000 0.120445
    9 3.698238 0.000000 0.000000 0.000000 0.000000 0.256508
    10 5.700886 0.000000 0.000000 0.000000 0.000000 0.457494
    11 -7.884188 2.693358 0.371059 -0.059855 -1.298154 -2.206466
    12 5.522984 -0.003903 0.000001 -0.805661 -0.308103 -1.653793
    13 10.907391 0.000000 0.000004 0.446225 -0.306503 -1.405819
    14 10.424316 -0.000007 -0.000031 1.437269 -0.357737 0.478063
    15 2.997272 0.005413 -1.477472 0.048641 0.112693 -0.654645
    16 1.510380 -0.000002 0.000000 0.102019 -0.018587 -1.050099
    17 0.808647 0.000001 0.000000 0.074512 -0.167912 -1.025861
    18 3.305794 0.203110 -0.546729 0.146253 0.120050 -0.673303
    19 1.807177 0.000000 0.000000 0.012053 -0.101773 -1.183193
    20 0.966141 -0.000001 0.000000 -0.003500 -0.006392 -0.767940
    21 3.571516 0.109303 0.409580 0.093116 0.176129 -0.995070
    22 2.150654 0.000000 0.000000 -0.009587 -0.067747 -1.184706
    23 1.152744 0.000001 0.000000 -0.025266 0.000084 -1.098543
    24 3.684093 -0.158703 1.419181 0.009513 0.296822 -0.902268
    25 1.701010 0.000000 0.000000 0.004252 0.081930 -1.300948
    26 0.994709 0.000002 0.000000 -0.014902 0.035588 -0.462866
    27 1.068075 -1.287205 0.981903 2.068118 -0.124123 -0.600738
    28 1.836302 0.000003 -0.000002 -0.003685 0.139064 -0.385174
    29 1.223946 -0.000001 0.000000 0.029853 -0.027588 -0.628672
    30 -5.388022 0.611265 -3.570376 -1.763527 1.041143 -3.336599
    31 5.491737 0.242187 -0.179694 3.485105 0.858827 1.801950
    32 10.907394 0.000001 -0.000008 0.812652 -0.249545 -0.580108
    33 10.424301 -0.000005 0.000015 -0.600615 -0.095883 0.152524
    34 2.997293 0.000065 1.477481 -0.054917 0.035603 -0.292237
    35 1.510380 -0.000002 0.000000 0.006094 -0.080370 -1.263391
    36 0.808651 0.000000 0.000000 -0.156899 0.033171 -1.357418
    37 3.305807 0.201134 0.547461 -0.169398 0.018538 -0.591364
    38 1.807178 -0.000002 0.000000 -0.029862 0.098046 -1.361275
    39 0.966137 -0.000001 0.000000 0.007772 -0.006365 -1.370825
    40 3.571524 0.110785 -0.409182 -0.279324 -0.024837 -0.912932
    41 2.150660 0.000002 0.000000 -0.068972 0.182128 -1.811132
    42 1.152756 0.000000 0.000000 0.008506 -0.008711 -1.087232
    43 3.684111 -0.153564 -1.419746 -0.049544 0.000946 -0.625191
    44 1.701017 0.000004 0.000000 -0.004431 -0.081918 -1.298816
    45 0.994705 0.000000 0.000000 0.038452 -0.003169 -1.554984
    46 1.068094 -1.283655 -0.986553 -1.747658 0.284853 -0.595045
    47 1.836308 -0.000001 0.000002 -0.659900 -0.033173 -0.370602
    48 1.223946 -0.000001 0.000002 -0.035666 0.019493 -0.874576
    49 0.000000 1.945634 -1.740829 0.000000 0.000000 0.000000
    50 0.000000 1.092286 -2.833118 0.000000 0.000000 0.000000
    51 0.000000 1.945635 0.000000 0.000000 0.000000 0.000000
    52 0.000000 1.228824 1.706703 0.000000 0.000000 0.000000
    53 -16.184088 -49.873895 -28.965924 1.267720 -0.422715 -0.491401
    54 0.000000 -0.000002 3.037922 0.000000 0.000000 0.000000
    55 0.000000 -0.000002 3.857136 0.000000 0.000000 0.000000
    56 0.000000 -0.876005 0.000000 0.000000 0.000000 0.000000
    57 3.201996 0.000000 -0.000004 -0.770835 -0.104720 0.122173
    58 6.694000 0.000000 -0.000004 -0.249326 -0.104982 0.122278
    59 0.109995 -0.821001 -0.907000 -1.824288 0.377451 -0.632148
    60 3.355659 -0.031000 0.000000 1.630177 0.104720 0.122173
    61 6.867996 0.000000 0.000000 1.826799 0.104720 0.122161
    62 0.084999 -0.691999 1.011000 -1.495686 0.247880 2.697211
  time 22
    0 -0.999512 -2.000000 -55.000000 1.570792 0.000003 -0.000003
    1 0.000000 38.312500 -0.516602 1.570793 0.004436 1.570793
    2 0.285645 54.406250 -3.105469 0.000000 0.000000 0.000000
    3 -0.975940 12.362689 3.293069 -0.794944 -0.975490 -0.348482
    4 0.000000 0.099715 8.360889 0.000000 -1.570796 0.000000
    5 0.000000 3.003861 1.610714 -1.570796 0.000000 1.570796
    6 0.000000 0.000000 0.000000 0.000000 -1.570796 0.000000
    7 4.043092 0.000872 -0.002303 0.000000 0.000008 -0.051331
    8 3.995838 0.000000 0.000000 0.000000 0.000000 0.098202
    9 3.698238 0.000000 0.000000 0.000000 0.000000 0.247292
    10 5.700886 0.000000 0.000000 0.000000 0.000000 0.476573
    11 -7.638087 2.896489 0.371059 0.045808 -1.290968 -2.235908
    12 5.507359 0.000004 0.000001 -0.816215 -0.311167 -1.639255
    13 10.907391 0.000000 0.000004 0.430411 -0.290773 -1.415339
    14 10.424316 -0.000007 -0.000031 1.431632 -0.357459 0.458771
    15 2.997272 0.005413 -1.477472 0.048641 0.112693 -0.654645
    16 1.510380 -0.000002 0.000000 0.102019 -0.018587 -1.050099
    17 0.808647 0.000001 0.000000 0.074512 -0.167912 -1.025861
    18 3.305794 0.203110 -0.546729 0.146253 0.120050 -0.673303
    19 1.807177 0.000000 0.000000 0.012053 -0.101773 -1.183193
    20 0.966141 -0.000001 0.000000 -0.003500 -0.006392 -0.767940
    21 3.571516 0.109303 0.409580 0.093116 0.176129 -0.995070
    22 2.150654 0.000000 0.000000 -0.009587 -0.067747 -1.184706
    23 1.152744 0.000001 0.000000 -0.025266 0.000084 -1.098543
    24 3.684093 -0.158703 1.419181 0.009513 0.296822 -0.902268
    25 1.701010 0.000000 0.000000 0.004252 0.081930 -1.300948
    26 0.994709 0.000002 0.000000 -0.014902 0.035588 -0.462866
    27 1.068075 -1.287205 0.981903 2.068118 -0.124123 -0.600738
    28 1.836302 0.000003 -0.000002 -0.003685 0.139064 -0.385174
    29 1.223946 -0.000001 0.000000 0.029853 -0.027588 -0.628672
    30 -5.063793 0.919868 -3.570376 -1.763527 1.041143 -3.296128
    31 5.507362 -0.000008 -0.000001 3.474708 0.860421 1.812189
    32 10.907394 0.000001 -0.000008 0.803798 -0.249777 -0.583356
    33 10.424301 -0.000005 0.000015 -0.606526 -0.081742 0.176439
    34 2.997293 0.000065 1.477481 -0.054917 0.035603 -0.292237
    35 1.510380 -0.000002 0.000000 0.006094 -0.080370 -1.263391
    36 0.808651 0.000000 0.000000 -0.156911 0.033183 -1.357418
    37 3.305807 0.201134 0.547461 -0.169398 0.018538 -0.591364
    38 1.807178 -0.000002 0.000000 -0.029862 0.098046 -1.361275
    39 0.966137 -0.000001 0.000000 0.007772 -0.006365 -1.370825
    40 3.571524 0.110785 -0.409182 -0.279324 -0.024837 -0.912932
    41 2.150660 0.000002 0.000000 -0.068972 0.182128 -1.811132
    42 1.152756 0.000000 0.000000 0.008506 -0.008711 -1.087232
    43 3.684111 -0.153564 -1.419746 -0.049544 0.000946 -0.625191
    44 1.701017 0.000004 0.000000 -0.004431 -0.081918 -1.298816
    45 0.994705 0.000000 0.000000 0.038452 -0.003169 -1.554984
    46 1.068094 -1.283655 -0.986553 -1.747658 0.284853 -0.595045
    47 1.836308 -0.000001 0.000002 -0.659900 -0.033173 -0.370602
    48 1.223946 -0.000001 0.000002 -0.035666 0.019493 -0.874576
    49 0.000000 1.945634 -1.740829 0.000000 0.000000 0.000000
    50 0.000000 1.092286 -2.833118 0.000000 0.000000 0.000000
    51 0.000000 1.945635 0.000000 0.000000 0.000000 0.000000
    52 0.000000 1.228824 1.706703 0.000000 0.000000 0.000000
    53 -15.195776 -50.280812 -27.606508 1.241497 -0.403552 -0.450354
    54 0.000000 -0.000002 3.037922 0.000000 0.000000 0.000000
    55 0.000000 -0.000002 3.857136 0.000000 0.000000 0.000000
    56 0.000000 -0.876005 0.000000 0.000000 0.000000 0.000000
    57 3.201996 0.000000 -0.000004 -0.770835 -0.104720 0.122173
    58 6.694000 0.000000 -0.000004 -0.249097 -0.104982 0.122278
    59 0.109995 -0.821001 -0.907000 -1.824288 0.377451 -0.632148
    60 3.355659 -0.031000 0.000000 1.618279 0.104720 0.122173
    61 6.867996 0.000000 0.000000 1.806193 0.104720 0.122161
    62 0.084999 -0.691999 1.011000 -1.495686 0.247880 2.697211
end
