// Created by Crowbar 0.74
version 1
nodes
  0 "ValveBiped.Bip01_Pelvis" -1
  1 "ValveBiped.Bip01_Spine" 0
  2 "ValveBiped.Bip01_Spine1" 1
  3 "ValveBiped.Bip01_Spine2" 2
  4 "ValveBiped.Bip01_Spine4" 3
  5 "ValveBiped.Bip01_Neck1" 4
  6 "ValveBiped.Bip01_Head1" 5
  7 "Eye_L" 6
  8 "Eye_R" 6
  9 "Teeth" 6
  10 "Tongue1" 6
  11 "Tongue2" 10
  12 "Tongue3" 11
  13 "FrontHair1" 6
  14 "FrontHair2" 13
  15 "FrontHair_L" 6
  16 "FrontHair_R" 6
  17 "SideHair1_L" 6
  18 "SideHair2_L" 17
  19 "SideHair3_L" 18
  20 "SideHair1_R" 6
  21 "SideHair2_R" 20
  22 "SideHair3_R" 21
  23 "BackSideHair1_L" 6
  24 "BackSideHair2_L" 23
  25 "BackSideHair1_R" 6
  26 "BackSideHair2_R" 25
  27 "BackInsideHair" 6
  28 "BackHair" 6
  29 "ValveBiped.Bip01_L_Clavicle" 4
  30 "SleeveRibbon_L" 29
  31 "ValveBiped.Bip01_L_UpperArm" 29
  32 "ValveBiped.Bip01_L_Forearm" 31
  33 "ValveBiped.Bip01_L_Hand" 32
  34 "BackArmKA_L" 31
  35 "FrontArmKA_L" 31
  36 "BackKA1_L" 29
  37 "BackKA2_L" 36
  38 "SideKA1_L" 4
  39 "SideKA2_L" 38
  40 "FrontKA1_L" 4
  41 "FrontKA2_L" 40
  42 "ValveBiped.Bip01_R_Clavicle" 4
  43 "SleeveRibbon_R" 42
  44 "ValveBiped.Bip01_R_UpperArm" 42
  45 "ValveBiped.Bip01_R_Forearm" 44
  46 "ValveBiped.Bip01_R_Hand" 45
  47 "BackArmKA_R" 44
  48 "FrontArmKA_R" 44
  49 "BackKA1_R" 42
  50 "BackKA2_R" 49
  51 "SideKA1_R" 4
  52 "SideKA2_R" 51
  53 "FrontKA1_R" 4
  54 "FrontKA2_R" 53
  55 "BackMiddleKA1" 4
  56 "BackMiddleKA2" 55
  57 "ValveBiped.Bip01_L_Thigh" 0
  58 "ValveBiped.Bip01_L_Calf" 57
  59 "ValveBiped.Bip01_L_Foot" 58
  60 "ValveBiped.Bip01_R_Thigh" 0
  61 "ValveBiped.Bip01_R_Calf" 60
  62 "ValveBiped.Bip01_R_Foot" 61
  63 "ValveBiped.Bip01_L_Finger0" 33
  64 "ValveBiped.Bip01_L_Finger01" 63
  65 "ValveBiped.Bip01_L_Finger02" 64
  66 "ValveBiped.Bip01_L_Finger1" 33
  67 "ValveBiped.Bip01_L_Finger11" 66
  68 "ValveBiped.Bip01_L_Finger12" 67
  69 "ValveBiped.Bip01_L_Finger2" 33
  70 "ValveBiped.Bip01_L_Finger21" 69
  71 "ValveBiped.Bip01_L_Finger22" 70
  72 "ValveBiped.Bip01_L_Finger3" 33
  73 "ValveBiped.Bip01_L_Finger31" 72
  74 "ValveBiped.Bip01_L_Finger32" 73
  75 "ValveBiped.Bip01_L_Finger4" 33
  76 "ValveBiped.Bip01_L_Finger41" 75
  77 "ValveBiped.Bip01_L_Finger42" 76
  78 "ValveBiped.Bip01_R_Finger0" 46
  79 "ValveBiped.Bip01_R_Finger01" 78
  80 "ValveBiped.Bip01_R_Finger02" 79
  81 "ValveBiped.Bip01_R_Finger1" 46
  82 "ValveBiped.Bip01_R_Finger11" 81
  83 "ValveBiped.Bip01_R_Finger12" 82
  84 "ValveBiped.Bip01_R_Finger2" 46
  85 "ValveBiped.Bip01_R_Finger21" 84
  86 "ValveBiped.Bip01_R_Finger22" 85
  87 "ValveBiped.Bip01_R_Finger3" 46
  88 "ValveBiped.Bip01_R_Finger31" 87
  89 "ValveBiped.Bip01_R_Finger32" 88
  90 "ValveBiped.Bip01_R_Finger4" 46
  91 "ValveBiped.Bip01_R_Finger41" 90
  92 "ValveBiped.Bip01_R_Finger42" 91
  93 "Tie1" 4
  94 "Tie2" 93
  95 "Tie3" 94
  96 "Tie4" 95
  97 "Tie5" 96
  98 "Tie6" 97
  99 "Belt1" 0
  100 "Belt2" 99
  101 "Belt3" 100
  102 "Belt4" 101
  103 "Belt5" 102
end
skeleton
  time 0
    0 0.000000 -2.087236 35.214973 1.570796 0.000000 0.000000
    1 0.000003 3.958523 -1.379565 1.570796 -0.074104 1.570801
    2 3.543991 0.000027 0.000016 0.000001 -0.000006 -0.112615
    3 3.341240 0.000028 -0.000005 0.000000 0.000004 -0.012632
    4 6.963291 0.000036 0.000019 0.000000 -0.000004 0.155826
    5 2.935257 -0.000237 -0.000006 -3.141592 0.000001 0.224052
    6 2.189419 0.080305 0.000001 0.000000 0.000001 0.100578
    7 2.523140 -0.334479 -1.152895 -2.838601 -0.054556 -0.074840
    8 2.523151 -0.334476 1.152903 0.303011 -0.054536 3.066762
    9 0.249531 -1.665981 0.000000 0.000000 1.570794 2.933635
    10 0.238731 -1.261398 0.000000 0.000000 1.570789 2.901134
    11 0.000000 0.645905 0.000000 0.005272 0.000000 0.000000
    12 0.000000 0.483727 -0.000011 -0.005191 0.000000 0.000000
    13 5.935242 -3.225060 0.000009 0.000000 -1.570795 0.244065
    14 0.000000 0.033809 2.125095 -0.005249 0.000000 0.000000
    15 5.935246 -3.225062 -2.082912 0.000000 1.570795 0.244065
    16 5.935230 -3.225060 2.082930 0.000000 -1.570795 0.244065
    17 5.365303 0.301672 -4.434361 0.000000 -1.570795 0.195590
    18 0.000000 -0.100058 3.071209 0.009521 0.000000 0.000000
    19 0.000000 -0.047046 2.040993 0.016280 0.000000 0.000000
    20 5.365273 0.301675 4.434371 0.000000 -1.570795 0.195590
    21 0.000000 -0.100058 3.071205 0.009522 0.000000 0.000000
    22 0.000000 -0.047046 2.040977 0.016279 0.000000 0.000000
    23 4.607601 3.495598 -5.170744 0.000000 -1.570795 0.195590
    24 0.000000 -0.166048 5.096729 0.000154 -0.000022 0.001360
    25 4.607563 3.495595 5.170753 0.000000 -1.570795 0.195589
    26 0.000000 -0.166049 5.096752 0.000154 0.000022 -0.001360
    27 0.605942 4.565639 0.000001 0.000000 -1.570795 0.183581
    28 0.339760 5.719984 0.000001 0.000000 -1.570795 0.183581
    29 1.620514 0.585389 0.906230 1.397308 -1.239013 3.061126
    30 8.683131 -0.055901 -0.805783 2.049573 1.402847 1.843492
    31 4.017081 -0.343719 -0.838144 -1.424292 0.049762 -0.291220
    32 9.653366 0.000000 0.000004 0.000000 0.001788 -0.013702
    33 9.700520 -0.000003 0.173653 1.570796 -0.058854 0.000001
    34 0.140934 1.465839 1.656834 -0.037035 -0.653280 -1.463125
    35 -0.074823 -0.930140 1.653088 0.145504 -0.483089 -1.732807
    36 2.275753 1.061657 -2.923031 -2.592914 -0.707330 0.649718
    37 -0.000006 1.650688 -0.000004 -0.503380 -0.223883 0.141366
    38 1.750286 1.309223 2.431600 1.011993 0.210461 0.907309
    39 -0.000004 2.839314 0.000008 -0.415784 -0.535950 0.456325
    40 1.246674 2.549739 1.387323 0.860368 0.095125 0.755684
    41 -0.000011 3.089649 0.000008 -0.353464 -0.556295 0.514158
    42 1.620544 0.585401 -0.906207 -1.460919 1.238521 3.069740
    43 8.685408 -0.111893 0.775028 -1.212662 1.486555 -1.477698
    44 4.019474 -0.402172 0.799941 1.492225 -0.026337 -0.293716
    45 9.653347 0.000000 0.000000 0.000000 -0.001793 -0.013703
    46 9.700523 -0.000002 -0.173683 -1.570796 0.059154 0.000001
    47 0.140934 1.465840 -1.656834 3.104556 -0.653280 1.678468
    48 -0.074837 -0.930140 -1.653084 -2.996089 -0.483088 1.408786
    49 2.284116 0.849777 2.985158 0.473894 -0.664781 -2.444388
    50 -0.000006 1.650673 -0.000004 -0.503380 0.223883 -0.141367
    51 1.750278 1.309222 -2.431606 -2.129602 0.210458 -2.234284
    52 0.000004 2.839323 -0.000008 -0.415784 0.535950 -0.456325
    53 1.246651 2.549737 -1.387329 -2.281227 0.095122 -2.385909
    54 -0.000004 3.089649 0.000008 -0.353463 0.556296 -0.514157
    55 0.209564 -2.528919 -0.000001 0.000000 1.570788 3.001086
    56 0.000000 0.488070 1.833447 0.035867 0.000000 0.000000
    57 2.982521 0.000004 0.000002 -1.570796 0.000000 -1.570796
    58 13.441391 -0.116433 -0.318382 0.000000 0.000000 0.122992
    59 17.962406 0.000000 0.000000 0.000001 0.000000 -1.083473
    60 -2.982520 0.000004 0.000002 -1.570796 0.000000 -1.570796
    61 13.441391 -0.116433 0.318380 0.000000 0.000000 0.122992
    62 17.962408 0.000000 0.000000 0.000000 0.000000 -1.086513
    63 0.255142 -0.280399 0.786743 -1.627755 -0.392902 -0.330939
    64 1.293724 0.000004 0.000008 -0.056161 0.001272 -0.043727
    65 1.033814 0.026755 0.086330 -0.001546 -0.078120 -0.261983
    66 2.478041 -0.225307 0.803191 0.000000 -0.000003 -0.090672
    67 1.164509 -0.027367 0.008878 0.000000 0.000001 -0.023497
    68 0.793106 0.009369 -0.015788 0.000000 0.000001 0.011817
    69 2.609575 -0.172771 0.167416 0.000000 0.000000 -0.066107
    70 1.203959 0.021435 0.008552 0.000000 0.000000 0.017799
    71 0.809977 -0.023346 0.000000 0.000000 0.000001 -0.028814
    72 2.495247 -0.287560 -0.444678 0.000000 0.000001 -0.114735
    73 1.024572 0.059875 0.017763 0.000000 0.000000 0.058380
    74 0.752829 -0.013725 0.027300 0.000000 -0.000001 -0.018228
    75 2.354773 -0.462547 -1.022895 0.000000 0.000000 -0.193958
    76 0.807179 0.074562 0.035851 0.000000 -0.000001 0.092100
    77 0.590860 0.010323 0.023023 0.000000 0.000000 0.017468
    78 0.255070 -0.280472 -0.786743 1.627755 0.392902 -0.331235
    79 1.293743 0.000000 0.000000 0.063510 -0.003851 -0.043927
    80 1.033587 0.026155 -0.089211 0.000848 0.076727 -0.262614
    81 2.477989 -0.226036 -0.803191 0.000000 0.000003 -0.090969
    82 1.164516 -0.027363 -0.008878 0.000000 -0.000001 -0.023497
    83 0.793106 0.009380 0.015789 0.000000 -0.000001 0.011816
    84 2.609529 -0.173538 -0.167416 0.000000 0.000001 -0.066404
    85 1.203957 0.021427 -0.008552 0.000000 0.000001 0.017799
    86 0.809977 -0.023357 0.000000 0.000000 -0.000001 -0.028815
    87 2.495169 -0.288288 0.444679 0.000000 0.000000 -0.115032
    88 1.024569 0.059879 -0.017762 0.000000 0.000001 0.058379
    89 0.752825 -0.013721 -0.027300 0.000000 0.000001 -0.018229
    90 2.354631 -0.463238 1.022895 0.000000 0.000001 -0.194255
    91 0.807184 0.074554 -0.035851 0.000000 0.000001 0.092099
    92 0.590851 0.010326 -0.023023 0.000000 -0.000001 0.017467
    93 0.794479 3.282163 -0.000002 0.000000 -1.570795 -0.637865
    94 0.000000 0.091846 0.779434 0.120736 0.000000 0.000000
    95 0.000000 0.167423 0.697979 0.088975 -0.000036 -0.000003
    96 0.000041 0.226933 1.110523 0.034320 0.000032 0.000000
    97 0.000008 0.112392 1.553921 0.017734 0.000002 0.000000
    98 0.000005 -0.150728 1.708767 0.276285 0.000059 0.000016
    99 2.795703 6.788696 3.734684 0.869066 0.000000 0.000000
    100 -0.000001 -0.562553 3.198036 0.317572 0.000000 0.000000
    101 0.000001 0.136871 4.045185 0.008174 0.000001 0.000000
    102 -0.000004 0.182449 4.048157 0.092432 0.000000 0.000000
    103 -0.000002 0.549179 4.012955 0.022276 0.000000 0.000000
end
triangles
trans
  32 17.577902 -0.680416 42.498604 -0.197050 -0.473331 -0.858562 0.992090 0.119770 1 32 1.000000
  32 17.497440 0.042226 42.347015 -0.264027 0.078588 -0.961308 0.992090 0.031350 1 32 1.000000
  32 18.033180 0.033813 42.197266 -0.933733 0.060229 -0.352866 0.913180 0.036650 1 32 1.000000
trans
  32 18.033180 0.033813 42.197266 -0.933733 0.060229 -0.352866 0.913180 0.036650 1 32 1.000000
  32 18.102016 -0.566005 42.318764 -0.885283 -0.376965 -0.272343 0.913180 0.117220 1 32 1.000000
  32 17.577902 -0.680416 42.498604 -0.197050 -0.473331 -0.858562 0.992090 0.119770 1 32 1.000000
trans
  32 17.814743 -1.153856 42.930202 0.041492 -0.844193 -0.534431 0.992090 0.214510 1 32 1.000000
  32 17.577902 -0.680416 42.498604 -0.197050 -0.473331 -0.858562 0.992090 0.119770 1 32 1.000000
  32 18.102016 -0.566005 42.318764 -0.885283 -0.376965 -0.272343 0.913180 0.117220 1 32 1.000000
trans
  32 18.102016 -0.566005 42.318764 -0.885283 -0.376965 -0.272343 0.913180 0.117220 1 32 1.000000
  32 18.284227 -0.955906 42.653793 -0.725341 -0.687953 0.024522 0.913180 0.208830 1 32 1.000000
  32 17.814743 -1.153856 42.930202 0.041492 -0.844193 -0.534431 0.992090 0.214510 1 32 1.000000
trans
  32 18.165558 -1.252469 43.482662 0.447552 -0.894256 0.001643 0.992090 0.299690 1 32 1.000000
  32 17.814743 -1.153856 42.930202 0.041492 -0.844193 -0.534431 0.992090 0.214510 1 32 1.000000
  32 18.284227 -0.955906 42.653793 -0.725341 -0.687953 0.024522 0.913180 0.208830 1 32 1.000000
trans
  32 18.284227 -0.955906 42.653793 -0.725341 -0.687953 0.024522 0.913180 0.208830 1 32 1.000000
  32 18.571171 -1.055520 43.100307 -0.419760 -0.740409 0.524971 0.913180 0.298290 1 32 1.000000
  32 18.165558 -1.252469 43.482662 0.447552 -0.894256 0.001643 0.992090 0.299690 1 32 1.000000
trans
  32 18.519855 -0.709701 43.990334 0.765407 -0.434560 0.474669 0.992090 0.396400 1 32 1.000000
  32 18.165558 -1.252469 43.482662 0.447552 -0.894256 0.001643 0.992090 0.299690 1 32 1.000000
  32 18.571171 -1.055520 43.100307 -0.419760 -0.740409 0.524971 0.913180 0.298290 1 32 1.000000
trans
  32 18.571171 -1.055520 43.100307 -0.419760 -0.740409 0.524971 0.913180 0.298290 1 32 1.000000
  32 18.867119 -0.610293 43.525120 -0.111855 -0.369722 0.922385 0.913180 0.398500 1 32 1.000000
  32 18.519855 -0.709701 43.990334 0.765407 -0.434560 0.474669 0.992090 0.396400 1 32 1.000000
trans
  32 18.581148 0.147250 44.061798 0.836352 0.180953 0.517466 0.992090 0.504200 1 32 1.000000
  32 18.519855 -0.709701 43.990334 0.765407 -0.434560 0.474669 0.992090 0.396400 1 32 1.000000
  32 18.867119 -0.610293 43.525120 -0.111855 -0.369722 0.922385 0.913180 0.398500 1 32 1.000000
trans
  32 18.867119 -0.610293 43.525120 -0.111855 -0.369722 0.922385 0.913180 0.398500 1 32 1.000000
  32 18.915802 0.098072 43.587688 -0.035784 0.169122 0.984945 0.913180 0.504000 1 32 1.000000
  32 18.581148 0.147250 44.061798 0.836352 0.180953 0.517466 0.992090 0.504200 1 32 1.000000
trans
  32 18.401102 0.776175 43.815506 0.730871 0.631087 0.259917 0.992090 0.596710 1 32 1.000000
  32 18.581148 0.147250 44.061798 0.836352 0.180953 0.517466 0.992090 0.504200 1 32 1.000000
  32 18.915802 0.098072 43.587688 -0.035784 0.169122 0.984945 0.913180 0.504000 1 32 1.000000
trans
  32 18.915802 0.098072 43.587688 -0.035784 0.169122 0.984945 0.913180 0.504000 1 32 1.000000
  32 18.734144 0.559657 43.339367 -0.151633 0.597856 0.787131 0.913180 0.595670 1 32 1.000000
  32 18.401102 0.776175 43.815506 0.730871 0.631087 0.259917 0.992090 0.596710 1 32 1.000000
trans
  32 18.186743 1.007566 43.467018 0.534887 0.844423 -0.029081 0.992090 0.660780 1 32 1.000000
  32 18.401102 0.776175 43.815506 0.730871 0.631087 0.259917 0.992090 0.596710 1 32 1.000000
  32 18.734144 0.559657 43.339367 -0.151633 0.597856 0.787131 0.913180 0.595670 1 32 1.000000
trans
  32 18.734144 0.559657 43.339367 -0.151633 0.597856 0.787131 0.913180 0.595670 1 32 1.000000
  32 18.577406 0.704312 43.102341 -0.323883 0.789310 0.521622 0.913180 0.664970 1 32 1.000000
  32 18.186743 1.007566 43.467018 0.534887 0.844423 -0.029081 0.992090 0.660780 1 32 1.000000
trans
  32 17.905556 1.000354 43.026901 0.261534 0.910187 -0.321182 0.992090 0.742220 1 32 1.000000
  32 18.186743 1.007566 43.467018 0.534887 0.844423 -0.029081 0.992090 0.660780 1 32 1.000000
  32 18.577406 0.704312 43.102341 -0.323883 0.789310 0.521622 0.913180 0.664970 1 32 1.000000
trans
  32 18.577406 0.704312 43.102341 -0.323883 0.789310 0.521622 0.913180 0.664970 1 32 1.000000
  32 18.366423 0.802302 42.752335 -0.553126 0.801327 0.227874 0.913180 0.748040 1 32 1.000000
  32 17.905556 1.000354 43.026901 0.261534 0.910187 -0.321182 0.992090 0.742220 1 32 1.000000
trans
  32 17.651356 0.804386 42.616371 -0.074695 0.664453 -0.743587 0.992090 0.818930 1 32 1.000000
  32 17.905556 1.000354 43.026901 0.261534 0.910187 -0.321182 0.992090 0.742220 1 32 1.000000
  32 18.366423 0.802302 42.752335 -0.553126 0.801327 0.227874 0.913180 0.748040 1 32 1.000000
trans
  32 18.366423 0.802302 42.752335 -0.553126 0.801327 0.227874 0.913180 0.748040 1 32 1.000000
  32 18.159176 0.629258 42.418007 -0.822758 0.547140 -0.153969 0.913180 0.830840 1 32 1.000000
  32 17.651356 0.804386 42.616371 -0.074695 0.664453 -0.743587 0.992090 0.818930 1 32 1.000000
trans
  32 17.497440 0.042226 42.347015 -0.264027 0.078588 -0.961308 0.992090 0.967770 1 32 1.000000
  32 17.651356 0.804386 42.616371 -0.074695 0.664453 -0.743587 0.992090 0.818930 1 32 1.000000
  32 18.159176 0.629258 42.418007 -0.822758 0.547140 -0.153969 0.913180 0.830840 1 32 1.000000
trans
  32 18.159176 0.629258 42.418007 -0.822758 0.547140 -0.153969 0.913180 0.830840 1 32 1.000000
  32 18.033180 0.033813 42.197266 -0.933733 0.060229 -0.352866 0.913180 0.961110 1 32 1.000000
  32 17.497440 0.042226 42.347015 -0.264027 0.078588 -0.961308 0.992090 0.967770 1 32 1.000000
trans
  32 20.052841 0.116481 42.553223 0.978747 0.118074 0.167667 0.913180 0.380650 1 32 1.000000
  32 20.454742 0.176461 42.448921 0.214725 0.217050 0.952251 0.992090 0.376110 1 32 1.000000
  32 20.345211 0.539463 42.270714 0.090019 0.596855 0.797283 0.992090 0.312540 1 32 1.000000
trans
  32 20.345211 0.539463 42.270714 0.090019 0.596855 0.797283 0.992090 0.312540 1 32 1.000000
  32 19.962202 0.416811 42.405762 0.900955 0.431877 0.041979 0.913180 0.316920 1 32 1.000000
  32 20.052841 0.116481 42.553223 0.978747 0.118074 0.167667 0.913180 0.380650 1 32 1.000000
trans
  32 19.962202 0.416811 42.405762 0.900955 0.431877 0.041979 0.913180 0.316920 1 32 1.000000
  32 20.345211 0.539463 42.270714 0.090019 0.596855 0.797283 0.992090 0.312540 1 32 1.000000
  32 20.173428 0.790136 42.026012 -0.106082 0.822684 0.558514 0.992090 0.256320 1 32 1.000000
trans
  32 20.173428 0.790136 42.026012 -0.106082 0.822684 0.558514 0.992090 0.256320 1 32 1.000000
  32 19.820078 0.624205 42.203308 0.772796 0.611344 -0.170423 0.913180 0.258810 1 32 1.000000
  32 19.962202 0.416811 42.405762 0.900955 0.431877 0.041979 0.913180 0.316920 1 32 1.000000
trans
  32 19.820078 0.624205 42.203308 0.772796 0.611344 -0.170423 0.913180 0.258810 1 32 1.000000
  32 20.173428 0.790136 42.026012 -0.106082 0.822684 0.558514 0.992090 0.256320 1 32 1.000000
  32 19.949116 0.875342 41.689835 -0.377002 0.906185 0.191567 0.992090 0.199820 1 32 1.000000
trans
  32 19.949116 0.875342 41.689835 -0.377002 0.906185 0.191567 0.992090 0.199820 1 32 1.000000
  32 19.634495 0.694701 41.925171 0.604694 0.657160 -0.449984 0.913180 0.200780 1 32 1.000000
  32 19.820078 0.624205 42.203308 0.772796 0.611344 -0.170423 0.913180 0.258810 1 32 1.000000
trans
  32 19.634495 0.694701 41.925171 0.604694 0.657160 -0.449984 0.913180 0.200780 1 32 1.000000
  32 19.949116 0.875342 41.689835 -0.377002 0.906185 0.191567 0.992090 0.199820 1 32 1.000000
  32 19.760525 0.762945 41.399910 -0.610850 0.774064 -0.166393 0.992090 0.152040 1 32 1.000000
trans
  32 19.760525 0.762945 41.399910 -0.610850 0.774064 -0.166393 0.992090 0.152040 1 32 1.000000
  32 19.478470 0.601710 41.685314 0.443622 0.555685 -0.703145 0.913180 0.150100 1 32 1.000000
  32 19.634495 0.694701 41.925171 0.604694 0.657160 -0.449984 0.913180 0.200780 1 32 1.000000
trans
  32 19.478470 0.601710 41.685314 0.443622 0.555685 -0.703145 0.913180 0.150100 1 32 1.000000
  32 19.760525 0.762945 41.399910 -0.610850 0.774064 -0.166393 0.992090 0.152040 1 32 1.000000
  32 19.618826 0.503976 41.179058 -0.754076 0.506680 -0.417905 0.992090 0.105250 1 32 1.000000
trans
  32 19.618826 0.503976 41.179058 -0.754076 0.506680 -0.417905 0.992090 0.105250 1 32 1.000000
  32 19.361233 0.387451 41.502590 0.334768 0.362267 -0.869881 0.913180 0.101690 1 32 1.000000
  32 19.478470 0.601710 41.685314 0.443622 0.555685 -0.703145 0.913180 0.150100 1 32 1.000000
trans
  32 19.361233 0.387451 41.502590 0.334768 0.362267 -0.869881 0.913180 0.101690 1 32 1.000000
  32 19.618826 0.503976 41.179058 -0.754076 0.506680 -0.417905 0.992090 0.105250 1 32 1.000000
  32 19.532436 0.114776 41.046696 -0.819660 0.149532 -0.552990 0.992090 0.052930 1 32 1.000000
trans
  32 19.532436 0.114776 41.046696 -0.819660 0.149532 -0.552990 0.992090 0.052930 1 32 1.000000
  32 19.289757 0.065447 41.393070 0.277571 0.092057 -0.956284 0.913180 0.051340 1 32 1.000000
  32 19.361233 0.387451 41.502590 0.334768 0.362267 -0.869881 0.913180 0.101690 1 32 1.000000
trans
  32 19.289757 0.065447 41.393070 0.277571 0.092057 -0.956284 0.913180 0.051340 1 32 1.000000
  32 19.532436 0.114776 41.046696 -0.819660 0.149532 -0.552990 0.992090 0.052930 1 32 1.000000
  32 19.537962 -0.249189 41.073105 -0.813533 -0.072396 -0.576995 0.992090 0.007420 1 32 1.000000
trans
  32 19.537962 -0.249189 41.073105 -0.813533 -0.072396 -0.576995 0.992090 0.007420 1 32 1.000000
  32 19.294333 -0.235680 41.414928 0.261919 -0.097885 -0.960113 0.913180 0.009390 1 32 1.000000
  32 19.289757 0.065447 41.393070 0.277571 0.092057 -0.956284 0.913180 0.051340 1 32 1.000000
trans
  32 19.294333 -0.235680 41.414928 0.261919 -0.097885 -0.960113 0.913180 0.933880 1 32 1.000000
  32 19.537962 -0.249189 41.073105 -0.813533 -0.072396 -0.576995 0.992090 0.949290 1 32 1.000000
  32 19.542242 -0.533831 41.111763 -0.799970 -0.279272 -0.531089 0.992090 0.889280 1 32 1.000000
trans
  32 19.542242 -0.533831 41.111763 -0.799970 -0.279272 -0.531089 0.992090 0.889280 1 32 1.000000
  32 19.297882 -0.471178 41.446911 0.295830 -0.253552 -0.920975 0.913180 0.879840 1 32 1.000000
  32 19.294333 -0.235680 41.414928 0.261919 -0.097885 -0.960113 0.913180 0.933880 1 32 1.000000
trans
  32 19.297882 -0.471178 41.446911 0.295830 -0.253552 -0.920975 0.913180 0.879840 1 32 1.000000
  32 19.542242 -0.533831 41.111763 -0.799970 -0.279272 -0.531089 0.992090 0.889280 1 32 1.000000
  32 19.622692 -0.830171 41.271954 -0.737557 -0.524496 -0.425339 0.992090 0.819500 1 32 1.000000
trans
  32 19.622692 -0.830171 41.271954 -0.737557 -0.524496 -0.425339 0.992090 0.819500 1 32 1.000000
  32 19.364424 -0.716357 41.579437 0.361866 -0.447893 -0.817585 0.913180 0.814630 1 32 1.000000
  32 19.297882 -0.471178 41.446911 0.295830 -0.253552 -0.920975 0.913180 0.879840 1 32 1.000000
trans
  32 19.364424 -0.716357 41.579437 0.361866 -0.447893 -0.817585 0.913180 0.814630 1 32 1.000000
  32 19.622692 -0.830171 41.271954 -0.737557 -0.524496 -0.425339 0.992090 0.819500 1 32 1.000000
  32 19.696358 -1.040560 41.458580 -0.673693 -0.678349 -0.293224 0.992090 0.761970 1 32 1.000000
trans
  32 19.696358 -1.040560 41.458580 -0.673693 -0.678349 -0.293224 0.992090 0.761970 1 32 1.000000
  32 19.425373 -0.890420 41.733849 0.408089 -0.536590 -0.738603 0.913180 0.758970 1 32 1.000000
  32 19.364424 -0.716357 41.579437 0.361866 -0.447893 -0.817585 0.913180 0.814630 1 32 1.000000
trans
  32 19.425373 -0.890420 41.733849 0.408089 -0.536590 -0.738603 0.913180 0.758970 1 32 1.000000
  32 19.696358 -1.040560 41.458580 -0.673693 -0.678349 -0.293224 0.992090 0.761970 1 32 1.000000
  32 19.836559 -1.217371 41.690495 -0.505323 -0.862467 0.028272 0.992090 0.704000 1 32 1.000000
trans
  32 19.836559 -1.217371 41.690495 -0.505323 -0.862467 0.028272 0.992090 0.704000 1 32 1.000000
  32 19.541367 -1.036707 41.925709 0.522100 -0.630914 -0.573898 0.913180 0.700440 1 32 1.000000
  32 19.425373 -0.890420 41.733849 0.408089 -0.536590 -0.738603 0.913180 0.758970 1 32 1.000000
trans
  32 19.541367 -1.036707 41.925709 0.522100 -0.630914 -0.573898 0.913180 0.700440 1 32 1.000000
  32 19.836559 -1.217371 41.690495 -0.505323 -0.862467 0.028272 0.992090 0.704000 1 32 1.000000
  32 20.052385 -1.210739 42.009758 -0.147517 -0.823204 0.548246 0.992090 0.638170 1 32 1.000000
trans
  32 20.052385 -1.210739 42.009758 -0.147517 -0.823204 0.548246 0.992090 0.638170 1 32 1.000000
  32 19.719940 -1.031220 42.189869 0.767223 -0.608556 -0.202553 0.913180 0.633430 1 32 1.000000
  32 19.541367 -1.036707 41.925709 0.522100 -0.630914 -0.573898 0.913180 0.700440 1 32 1.000000
trans
  32 19.719940 -1.031220 42.189869 0.767223 -0.608556 -0.202553 0.913180 0.633430 1 32 1.000000
  32 20.052385 -1.210739 42.009758 -0.147517 -0.823204 0.548246 0.992090 0.638170 1 32 1.000000
  32 20.187698 -0.972617 42.193493 0.078467 -0.628166 0.774113 0.992090 0.579500 1 32 1.000000
trans
  32 20.187698 -0.972617 42.193493 0.078467 -0.628166 0.774113 0.992090 0.579500 1 32 1.000000
  32 19.831884 -0.834209 42.341873 0.860181 -0.509907 0.009165 0.913180 0.575300 1 32 1.000000
  32 19.719940 -1.031220 42.189869 0.767223 -0.608556 -0.202553 0.913180 0.633430 1 32 1.000000
trans
  32 19.831884 -0.834209 42.341873 0.860181 -0.509907 0.009165 0.913180 0.575300 1 32 1.000000
  32 20.187698 -0.972617 42.193493 0.078467 -0.628166 0.774113 0.992090 0.579500 1 32 1.000000
  32 20.352627 -0.700694 42.392166 0.175237 -0.390830 0.903628 0.992090 0.519250 1 32 1.000000
trans
  32 20.352627 -0.700694 42.392166 0.175237 -0.390830 0.903628 0.992090 0.519250 1 32 1.000000
  32 19.968346 -0.609233 42.506248 0.930528 -0.351823 0.101676 0.913180 0.515290 1 32 1.000000
  32 19.831884 -0.834209 42.341873 0.860181 -0.509907 0.009165 0.913180 0.575300 1 32 1.000000
trans
  32 19.968346 -0.609233 42.506248 0.930528 -0.351823 0.101676 0.913180 0.515290 1 32 1.000000
  32 20.352627 -0.700694 42.392166 0.175237 -0.390830 0.903628 0.992090 0.519250 1 32 1.000000
  32 20.411955 -0.276777 42.434532 0.256091 -0.093221 0.962147 0.992090 0.446740 1 32 1.000000
trans
  32 20.411955 -0.276777 42.434532 0.256091 -0.093221 0.962147 0.992090 0.446740 1 32 1.000000
  32 20.017427 -0.258505 42.541306 0.972873 -0.118620 0.198612 0.913180 0.448380 1 32 1.000000
  32 19.968346 -0.609233 42.506248 0.930528 -0.351823 0.101676 0.913180 0.515290 1 32 1.000000
trans
  32 20.017427 -0.258505 42.541306 0.972873 -0.118620 0.198612 0.913180 0.448380 1 32 1.000000
  32 20.411955 -0.276777 42.434532 0.256091 -0.093221 0.962147 0.992090 0.446740 1 32 1.000000
  32 20.454742 0.176461 42.448921 0.214725 0.217050 0.952251 0.992090 0.376110 1 32 1.000000
trans
  32 20.454742 0.176461 42.448921 0.214725 0.217050 0.952251 0.992090 0.376110 1 32 1.000000
  32 20.052841 0.116481 42.553223 0.978747 0.118074 0.167667 0.913180 0.380650 1 32 1.000000
  32 20.017427 -0.258505 42.541306 0.972873 -0.118620 0.198612 0.913180 0.448380 1 32 1.000000
band
  32 19.289757 0.065447 41.393074 0.277571 0.092057 -0.956284 0.985310 0.915890 1 32 1.000000
  32 19.318111 -0.008049 41.627254 0.985883 -0.080473 -0.146828 0.969890 0.975050 1 32 1.000000
  32 19.320103 -0.221900 41.643589 0.993801 -0.001043 -0.111170 0.940830 0.975050 1 32 1.000000
band
  32 19.320103 -0.221900 41.643589 0.993801 -0.001043 -0.111170 0.940830 0.975050 1 32 1.000000
  32 19.320770 -0.387398 41.668007 0.985499 0.086405 -0.146032 0.915540 0.975050 1 32 1.000000
  32 19.297880 -0.471178 41.446915 0.295830 -0.253552 -0.920975 0.918580 0.915890 1 32 1.000000
band
  32 19.297880 -0.471178 41.446915 0.295830 -0.253552 -0.920975 0.918580 0.915890 1 32 1.000000
  32 19.294333 -0.235680 41.414928 0.261919 -0.097885 -0.960113 0.946270 0.915890 1 32 1.000000
  32 19.320103 -0.221900 41.643589 0.993801 -0.001043 -0.111170 0.940830 0.975050 1 32 1.000000
band
  32 19.320103 -0.221900 41.643589 0.993801 -0.001043 -0.111170 0.940830 0.975050 1 32 1.000000
  32 19.294333 -0.235680 41.414928 0.261919 -0.097885 -0.960113 0.946270 0.915890 1 32 1.000000
  32 19.289757 0.065447 41.393074 0.277571 0.092057 -0.956284 0.985310 0.915890 1 32 1.000000
band
  32 19.289757 0.065447 41.393074 0.277571 0.092057 -0.956284 0.985310 0.915890 1 32 1.000000
  32 19.294333 -0.235680 41.414928 0.261919 -0.097885 -0.960113 0.946270 0.915890 1 32 1.000000
  32 19.189846 -0.241881 41.386353 -0.166570 -0.103640 -0.980568 0.947550 0.899630 1 32 1.000000
band
  32 19.189846 -0.241881 41.386353 -0.166570 -0.103640 -0.980568 0.947550 0.899630 1 32 1.000000
  32 19.184221 0.095243 41.362236 -0.143405 0.139595 -0.979769 0.989870 0.899630 1 32 1.000000
  32 19.289757 0.065447 41.393074 0.277571 0.092057 -0.956284 0.985310 0.915890 1 32 1.000000
band
  32 19.117178 0.094362 41.409176 -0.740766 0.155080 -0.653618 0.988840 0.888970 1 32 1.000000
  32 19.184221 0.095243 41.362236 -0.143405 0.139595 -0.979769 0.989870 0.899630 1 32 1.000000
  32 19.189846 -0.241881 41.386353 -0.166570 -0.103640 -0.980568 0.947550 0.899630 1 32 1.000000
band
  32 19.189846 -0.241881 41.386353 -0.166570 -0.103640 -0.980568 0.947550 0.899630 1 32 1.000000
  32 19.122807 -0.242762 41.433296 -0.738830 -0.081470 -0.668949 0.947930 0.888970 1 32 1.000000
  32 19.117178 0.094362 41.409176 -0.740766 0.155080 -0.653618 0.988840 0.888970 1 32 1.000000
band
  32 19.117178 0.094362 41.409176 -0.740766 0.155080 -0.653618 0.988840 0.888970 1 32 1.000000
  32 19.122807 -0.242762 41.433296 -0.738830 -0.081470 -0.668949 0.947930 0.888970 1 32 1.000000
  32 19.080997 -0.241147 41.508247 -0.715225 -0.112188 -0.689831 0.948050 0.877550 1 32 1.000000
band
  32 19.084988 -0.492575 41.542400 -0.721572 -0.293001 -0.627284 0.919760 0.877550 1 32 1.000000
  32 19.080997 -0.241147 41.508247 -0.715225 -0.112188 -0.689831 0.948050 0.877550 1 32 1.000000
  32 19.122807 -0.242762 41.433296 -0.738830 -0.081470 -0.668949 0.947930 0.888970 1 32 1.000000
band
  32 19.084988 -0.492575 41.542400 -0.721572 -0.293001 -0.627284 0.919760 0.877550 1 32 1.000000
  32 18.318010 -0.566452 42.163738 -0.384030 -0.423609 -0.820412 0.902530 0.752340 1 32 1.000000
  32 19.080997 -0.241147 41.508247 -0.715225 -0.112188 -0.689831 0.948050 0.877550 1 32 1.000000
band
  32 18.318010 -0.566452 42.163738 -0.384030 -0.423609 -0.820412 0.902530 0.752340 1 32 1.000000
  32 19.084988 -0.492575 41.542400 -0.721572 -0.293001 -0.627284 0.919760 0.877550 1 32 1.000000
  32 19.154367 -0.755414 41.681141 -0.655813 -0.546239 -0.521088 0.886120 0.877550 1 32 1.000000
band
  32 18.500883 -0.960437 42.498741 -0.193121 -0.835857 -0.513855 0.839930 0.752340 1 32 1.000000
  32 18.318010 -0.566452 42.163738 -0.384030 -0.423609 -0.820412 0.902530 0.752340 1 32 1.000000
  32 19.154367 -0.755414 41.681141 -0.655813 -0.546239 -0.521088 0.886120 0.877550 1 32 1.000000
band
  32 19.218746 -0.942261 41.842354 -0.615726 -0.700921 -0.359989 0.858270 0.877550 1 32 1.000000
  32 18.500883 -0.960437 42.498741 -0.193121 -0.835857 -0.513855 0.839930 0.752340 1 32 1.000000
  32 19.154367 -0.755414 41.681141 -0.655813 -0.546239 -0.521088 0.886120 0.877550 1 32 1.000000
band
  32 18.500883 -0.960437 42.498741 -0.193121 -0.835857 -0.513855 0.839930 0.752340 1 32 1.000000
  32 19.218746 -0.942261 41.842354 -0.615726 -0.700921 -0.359989 0.858270 0.877550 1 32 1.000000
  32 19.343054 -1.102268 42.051292 -0.400980 -0.914261 -0.057812 0.826360 0.877550 1 32 1.000000
band
  32 19.397110 -1.152834 42.002655 -0.400980 -0.914261 -0.057812 0.825810 0.888970 1 32 1.000000
  32 19.343054 -1.102268 42.051292 -0.400980 -0.914261 -0.057812 0.826360 0.877550 1 32 1.000000
  32 19.218746 -0.942261 41.842354 -0.615726 -0.700921 -0.359989 0.858270 0.877550 1 32 1.000000
band
  32 19.343054 -1.102268 42.051292 -0.400980 -0.914261 -0.057812 0.826360 0.877550 1 32 1.000000
  32 19.397110 -1.152834 42.002655 -0.400980 -0.914261 -0.057812 0.825810 0.888970 1 32 1.000000
  32 19.598877 -1.141258 42.309296 -0.021396 -0.870179 0.492271 0.788500 0.888970 1 32 1.000000
band
  32 19.598877 -1.141258 42.309296 -0.021396 -0.870179 0.492271 0.788500 0.888970 1 32 1.000000
  32 19.397110 -1.152834 42.002655 -0.400980 -0.914261 -0.057812 0.825810 0.888970 1 32 1.000000
  32 19.464149 -1.151951 41.955708 0.258619 -0.851918 -0.455359 0.825680 0.899630 1 32 1.000000
band
  32 19.464149 -1.151951 41.955708 0.258619 -0.851918 -0.455359 0.825680 0.899630 1 32 1.000000
  32 19.665915 -1.140378 42.262356 0.589144 -0.806910 0.042483 0.789030 0.899630 1 32 1.000000
  32 19.598877 -1.141258 42.309296 -0.021396 -0.870179 0.492271 0.788500 0.888970 1 32 1.000000
band
  32 19.218746 -0.942261 41.842354 -0.615726 -0.700921 -0.359989 0.858270 0.877550 1 32 1.000000
  32 19.265820 -0.980538 41.780739 -0.588639 -0.709125 -0.388132 0.856730 0.888970 1 32 1.000000
  32 19.397110 -1.152834 42.002655 -0.400980 -0.914261 -0.057812 0.825810 0.888970 1 32 1.000000
band
  32 19.265820 -0.980538 41.780739 -0.588639 -0.709125 -0.388132 0.856730 0.888970 1 32 1.000000
  32 19.218746 -0.942261 41.842354 -0.615726 -0.700921 -0.359989 0.858270 0.877550 1 32 1.000000
  32 19.154367 -0.755414 41.681141 -0.655813 -0.546239 -0.521088 0.886120 0.877550 1 32 1.000000
band
  32 19.198975 -0.781340 41.612576 -0.655813 -0.546239 -0.521088 0.884790 0.888970 1 32 1.000000
  32 19.154367 -0.755414 41.681141 -0.655813 -0.546239 -0.521088 0.886120 0.877550 1 32 1.000000
  32 19.084988 -0.492575 41.542400 -0.721572 -0.293001 -0.627284 0.919760 0.877550 1 32 1.000000
band
  32 19.154367 -0.755414 41.681141 -0.655813 -0.546239 -0.521088 0.886120 0.877550 1 32 1.000000
  32 19.198975 -0.781340 41.612576 -0.655813 -0.546239 -0.521088 0.884790 0.888970 1 32 1.000000
  32 19.265820 -0.980538 41.780739 -0.588639 -0.709125 -0.388132 0.856730 0.888970 1 32 1.000000
band
  32 19.265820 -0.980538 41.780739 -0.588639 -0.709125 -0.388132 0.856730 0.888970 1 32 1.000000
  32 19.198975 -0.781340 41.612576 -0.655813 -0.546239 -0.521088 0.884790 0.888970 1 32 1.000000
  32 19.266014 -0.780460 41.565639 -0.033407 -0.567309 -0.822827 0.884050 0.899630 1 32 1.000000
band
  32 19.266014 -0.780460 41.565639 -0.033407 -0.567309 -0.822827 0.884050 0.899630 1 32 1.000000
  32 19.332859 -0.979657 41.733788 0.059598 -0.703437 -0.708254 0.855910 0.899630 1 32 1.000000
  32 19.265820 -0.980538 41.780739 -0.588639 -0.709125 -0.388132 0.856730 0.888970 1 32 1.000000
band
  32 19.397110 -1.152834 42.002655 -0.400980 -0.914261 -0.057812 0.825810 0.888970 1 32 1.000000
  32 19.265820 -0.980538 41.780739 -0.588639 -0.709125 -0.388132 0.856730 0.888970 1 32 1.000000
  32 19.332859 -0.979657 41.733788 0.059598 -0.703437 -0.708254 0.855910 0.899630 1 32 1.000000
band
  32 19.332859 -0.979657 41.733788 0.059598 -0.703437 -0.708254 0.855910 0.899630 1 32 1.000000
  32 19.464149 -1.151951 41.955708 0.258619 -0.851918 -0.455359 0.825680 0.899630 1 32 1.000000
  32 19.397110 -1.152834 42.002655 -0.400980 -0.914261 -0.057812 0.825810 0.888970 1 32 1.000000
band
  32 19.464149 -1.151951 41.955708 0.258619 -0.851918 -0.455359 0.825680 0.899630 1 32 1.000000
  32 19.541365 -1.036707 41.925713 0.522100 -0.630914 -0.573898 0.826170 0.915890 1 32 1.000000
  32 19.719942 -1.031220 42.189873 0.767223 -0.608556 -0.202553 0.789170 0.915890 1 32 1.000000
band
  32 19.541365 -1.036707 41.925713 0.522100 -0.630914 -0.573898 0.826170 0.915890 1 32 1.000000
  32 19.464149 -1.151951 41.955708 0.258619 -0.851918 -0.455359 0.825680 0.899630 1 32 1.000000
  32 19.332859 -0.979657 41.733788 0.059598 -0.703437 -0.708254 0.855910 0.899630 1 32 1.000000
band
  32 19.332859 -0.979657 41.733788 0.059598 -0.703437 -0.708254 0.855910 0.899630 1 32 1.000000
  32 19.425373 -0.890420 41.733849 0.408089 -0.536590 -0.738603 0.856170 0.915890 1 32 1.000000
  32 19.541365 -1.036707 41.925713 0.522100 -0.630914 -0.573898 0.826170 0.915890 1 32 1.000000
band
  32 19.425373 -0.890420 41.733849 0.408089 -0.536590 -0.738603 0.856170 0.915890 1 32 1.000000
  32 19.332859 -0.979657 41.733788 0.059598 -0.703437 -0.708254 0.855910 0.899630 1 32 1.000000
  32 19.266014 -0.780460 41.565639 -0.033407 -0.567309 -0.822827 0.884050 0.899630 1 32 1.000000
band
  32 19.266014 -0.780460 41.565639 -0.033407 -0.567309 -0.822827 0.884050 0.899630 1 32 1.000000
  32 19.364424 -0.716357 41.579437 0.361866 -0.447893 -0.817585 0.884480 0.915890 1 32 1.000000
  32 19.425373 -0.890420 41.733849 0.408089 -0.536590 -0.738603 0.856170 0.915890 1 32 1.000000
band
  32 19.364424 -0.716357 41.579437 0.361866 -0.447893 -0.817585 0.884480 0.915890 1 32 1.000000
  32 19.266014 -0.780460 41.565639 -0.033407 -0.567309 -0.822827 0.884050 0.899630 1 32 1.000000
  32 19.194567 -0.506252 41.421448 -0.123870 -0.313107 -0.941605 0.918740 0.899630 1 32 1.000000
band
  32 19.194567 -0.506252 41.421448 -0.123870 -0.313107 -0.941605 0.918740 0.899630 1 32 1.000000
  32 19.266014 -0.780460 41.565639 -0.033407 -0.567309 -0.822827 0.884050 0.899630 1 32 1.000000
  32 19.198975 -0.781340 41.612576 -0.655813 -0.546239 -0.521088 0.884790 0.888970 1 32 1.000000
band
  32 19.198975 -0.781340 41.612576 -0.655813 -0.546239 -0.521088 0.884790 0.888970 1 32 1.000000
  32 19.127533 -0.507133 41.468388 -0.721572 -0.293001 -0.627284 0.919120 0.888970 1 32 1.000000
  32 19.194567 -0.506252 41.421448 -0.123870 -0.313107 -0.941605 0.918740 0.899630 1 32 1.000000
band
  32 19.084988 -0.492575 41.542400 -0.721572 -0.293001 -0.627284 0.919760 0.877550 1 32 1.000000
  32 19.127533 -0.507133 41.468388 -0.721572 -0.293001 -0.627284 0.919120 0.888970 1 32 1.000000
  32 19.198975 -0.781340 41.612576 -0.655813 -0.546239 -0.521088 0.884790 0.888970 1 32 1.000000
band
  32 19.122807 -0.242762 41.433296 -0.738830 -0.081470 -0.668949 0.947930 0.888970 1 32 1.000000
  32 19.127533 -0.507133 41.468388 -0.721572 -0.293001 -0.627284 0.919120 0.888970 1 32 1.000000
  32 19.084988 -0.492575 41.542400 -0.721572 -0.293001 -0.627284 0.919760 0.877550 1 32 1.000000
band
  32 19.194567 -0.506252 41.421448 -0.123870 -0.313107 -0.941605 0.918740 0.899630 1 32 1.000000
  32 19.127533 -0.507133 41.468388 -0.721572 -0.293001 -0.627284 0.919120 0.888970 1 32 1.000000
  32 19.122807 -0.242762 41.433296 -0.738830 -0.081470 -0.668949 0.947930 0.888970 1 32 1.000000
band
  32 19.122807 -0.242762 41.433296 -0.738830 -0.081470 -0.668949 0.947930 0.888970 1 32 1.000000
  32 19.189846 -0.241881 41.386353 -0.166570 -0.103640 -0.980568 0.947550 0.899630 1 32 1.000000
  32 19.194567 -0.506252 41.421448 -0.123870 -0.313107 -0.941605 0.918740 0.899630 1 32 1.000000
band
  32 19.297880 -0.471178 41.446915 0.295830 -0.253552 -0.920975 0.918580 0.915890 1 32 1.000000
  32 19.194567 -0.506252 41.421448 -0.123870 -0.313107 -0.941605 0.918740 0.899630 1 32 1.000000
  32 19.189846 -0.241881 41.386353 -0.166570 -0.103640 -0.980568 0.947550 0.899630 1 32 1.000000
band
  32 19.189846 -0.241881 41.386353 -0.166570 -0.103640 -0.980568 0.947550 0.899630 1 32 1.000000
  32 19.294333 -0.235680 41.414928 0.261919 -0.097885 -0.960113 0.946270 0.915890 1 32 1.000000
  32 19.297880 -0.471178 41.446915 0.295830 -0.253552 -0.920975 0.918580 0.915890 1 32 1.000000
band
  32 19.194567 -0.506252 41.421448 -0.123870 -0.313107 -0.941605 0.918740 0.899630 1 32 1.000000
  32 19.297880 -0.471178 41.446915 0.295830 -0.253552 -0.920975 0.918580 0.915890 1 32 1.000000
  32 19.364424 -0.716357 41.579437 0.361866 -0.447893 -0.817585 0.884480 0.915890 1 32 1.000000
band
  32 19.820303 0.231414 42.309620 0.669848 -0.206700 -0.713147 0.558000 0.975050 1 32 1.000000
  32 19.962204 0.416811 42.405769 0.900955 0.431877 0.041979 0.552170 0.915890 1 32 1.000000
  32 20.052837 0.116481 42.553223 0.978747 0.118074 0.167667 0.600900 0.915890 1 32 1.000000
band
  32 20.052837 0.116481 42.553223 0.978747 0.118074 0.167667 0.600900 0.915890 1 32 1.000000
  32 19.862915 0.026054 42.432068 0.624611 -0.109718 -0.773190 0.607430 0.975050 1 32 1.000000
  32 19.820303 0.231414 42.309620 0.669848 -0.206700 -0.713147 0.558000 0.975050 1 32 1.000000
band
  32 19.862915 0.026054 42.432068 0.624611 -0.109718 -0.773190 0.607430 0.975050 1 32 1.000000
  32 20.052837 0.116481 42.553223 0.978747 0.118074 0.167667 0.600900 0.915890 1 32 1.000000
  32 20.017427 -0.258505 42.541306 0.972873 -0.118620 0.198612 0.658590 0.915890 1 32 1.000000
band
  32 20.017427 -0.258505 42.541306 0.972873 -0.118620 0.198612 0.658590 0.915890 1 32 1.000000
  32 19.870911 -0.229048 42.423145 0.601018 -0.004973 -0.799220 0.659460 0.975050 1 32 1.000000
  32 19.862915 0.026054 42.432068 0.624611 -0.109718 -0.773190 0.607430 0.975050 1 32 1.000000
band
  32 19.816370 -0.478642 42.391842 0.632073 0.053986 -0.773026 0.711960 0.975050 1 32 1.000000
  32 19.870911 -0.229048 42.423145 0.601018 -0.004973 -0.799220 0.659460 0.975050 1 32 1.000000
  32 20.017427 -0.258505 42.541306 0.972873 -0.118620 0.198612 0.658590 0.915890 1 32 1.000000
band
  32 20.017427 -0.258505 42.541306 0.972873 -0.118620 0.198612 0.658590 0.915890 1 32 1.000000
  32 19.968344 -0.609233 42.506248 0.930528 -0.351823 0.101676 0.713030 0.915890 1 32 1.000000
  32 19.816370 -0.478642 42.391842 0.632073 0.053986 -0.773026 0.711960 0.975050 1 32 1.000000
band
  32 19.706491 -0.636493 42.275070 0.663932 0.155027 -0.731547 0.757860 0.975050 1 32 1.000000
  32 19.816370 -0.478642 42.391842 0.632073 0.053986 -0.773026 0.711960 0.975050 1 32 1.000000
  32 19.968344 -0.609233 42.506248 0.930528 -0.351823 0.101676 0.713030 0.915890 1 32 1.000000
band
  32 19.968344 -0.609233 42.506248 0.930528 -0.351823 0.101676 0.713030 0.915890 1 32 1.000000
  32 19.831884 -0.834209 42.341877 0.860181 -0.509907 0.009165 0.758780 0.915890 1 32 1.000000
  32 19.706491 -0.636493 42.275070 0.663932 0.155027 -0.731547 0.757860 0.975050 1 32 1.000000
band
  32 19.623327 -0.715501 42.173439 0.734476 0.211875 -0.644712 0.791710 0.975050 1 32 1.000000
  32 19.706491 -0.636493 42.275070 0.663932 0.155027 -0.731547 0.757860 0.975050 1 32 1.000000
  32 19.831884 -0.834209 42.341877 0.860181 -0.509907 0.009165 0.758780 0.915890 1 32 1.000000
band
  32 19.831884 -0.834209 42.341877 0.860181 -0.509907 0.009165 0.758780 0.915890 1 32 1.000000
  32 19.719942 -1.031220 42.189873 0.767223 -0.608556 -0.202553 0.789170 0.915890 1 32 1.000000
  32 19.623327 -0.715501 42.173439 0.734476 0.211875 -0.644712 0.791710 0.975050 1 32 1.000000
band
  32 19.501017 -0.724697 42.012337 0.833221 0.258896 -0.488585 0.825080 0.975050 1 32 1.000000
  32 19.623327 -0.715501 42.173439 0.734476 0.211875 -0.644712 0.791710 0.975050 1 32 1.000000
  32 19.719942 -1.031220 42.189873 0.767223 -0.608556 -0.202553 0.789170 0.915890 1 32 1.000000
band
  32 19.719942 -1.031220 42.189873 0.767223 -0.608556 -0.202553 0.789170 0.915890 1 32 1.000000
  32 19.541365 -1.036707 41.925713 0.522100 -0.630914 -0.573898 0.826170 0.915890 1 32 1.000000
  32 19.501017 -0.724697 42.012337 0.833221 0.258896 -0.488585 0.825080 0.975050 1 32 1.000000
band
  32 19.422119 -0.675324 41.893314 0.926186 0.225033 -0.302555 0.852070 0.975050 1 32 1.000000
  32 19.501017 -0.724697 42.012337 0.833221 0.258896 -0.488585 0.825080 0.975050 1 32 1.000000
  32 19.541365 -1.036707 41.925713 0.522100 -0.630914 -0.573898 0.826170 0.915890 1 32 1.000000
band
  32 19.541365 -1.036707 41.925713 0.522100 -0.630914 -0.573898 0.826170 0.915890 1 32 1.000000
  32 19.425373 -0.890420 41.733849 0.408089 -0.536590 -0.738603 0.856170 0.915890 1 32 1.000000
  32 19.422119 -0.675324 41.893314 0.926186 0.225033 -0.302555 0.852070 0.975050 1 32 1.000000
band
  32 19.375437 -0.562196 41.772240 0.965766 0.174942 -0.191552 0.882570 0.975050 1 32 1.000000
  32 19.422119 -0.675324 41.893314 0.926186 0.225033 -0.302555 0.852070 0.975050 1 32 1.000000
  32 19.425373 -0.890420 41.733849 0.408089 -0.536590 -0.738603 0.856170 0.915890 1 32 1.000000
band
  32 19.425373 -0.890420 41.733849 0.408089 -0.536590 -0.738603 0.856170 0.915890 1 32 1.000000
  32 19.364424 -0.716357 41.579437 0.361866 -0.447893 -0.817585 0.884480 0.915890 1 32 1.000000
  32 19.375437 -0.562196 41.772240 0.965766 0.174942 -0.191552 0.882570 0.975050 1 32 1.000000
band
  32 19.320770 -0.387398 41.668007 0.985499 0.086405 -0.146032 0.915540 0.975050 1 32 1.000000
  32 19.375437 -0.562196 41.772240 0.965766 0.174942 -0.191552 0.882570 0.975050 1 32 1.000000
  32 19.364424 -0.716357 41.579437 0.361866 -0.447893 -0.817585 0.884480 0.915890 1 32 1.000000
band
  32 19.364424 -0.716357 41.579437 0.361866 -0.447893 -0.817585 0.884480 0.915890 1 32 1.000000
  32 19.297880 -0.471178 41.446915 0.295830 -0.253552 -0.920975 0.918580 0.915890 1 32 1.000000
  32 19.320770 -0.387398 41.668007 0.985499 0.086405 -0.146032 0.915540 0.975050 1 32 1.000000
band
  32 19.565178 0.808184 41.967529 0.355838 0.887563 -0.292592 0.466130 0.899630 1 32 1.000000
  32 19.769648 0.727857 42.281456 0.588146 0.804499 0.082856 0.509160 0.899630 1 32 1.000000
  32 19.820078 0.624205 42.203308 0.772796 0.611344 -0.170423 0.509520 0.915890 1 32 1.000000
band
  32 19.962204 0.416811 42.405769 0.900955 0.431877 0.041979 0.552170 0.915890 1 32 1.000000
  32 19.820078 0.624205 42.203308 0.772796 0.611344 -0.170423 0.509520 0.915890 1 32 1.000000
  32 19.769648 0.727857 42.281456 0.588146 0.804499 0.082856 0.509160 0.899630 1 32 1.000000
band
  32 19.769648 0.727857 42.281456 0.588146 0.804499 0.082856 0.509160 0.899630 1 32 1.000000
  32 19.926872 0.492764 42.511139 0.738182 0.578008 0.347840 0.551820 0.899630 1 32 1.000000
  32 19.962204 0.416811 42.405769 0.900955 0.431877 0.041979 0.552170 0.915890 1 32 1.000000
band
  32 20.052837 0.116481 42.553223 0.978747 0.118074 0.167667 0.600900 0.915890 1 32 1.000000
  32 19.962204 0.416811 42.405769 0.900955 0.431877 0.041979 0.552170 0.915890 1 32 1.000000
  32 19.926872 0.492764 42.511139 0.738182 0.578008 0.347840 0.551820 0.899630 1 32 1.000000
band
  32 19.926872 0.492764 42.511139 0.738182 0.578008 0.347840 0.551820 0.899630 1 32 1.000000
  32 20.027164 0.153725 42.675941 0.836352 0.180953 0.517466 0.600090 0.899630 1 32 1.000000
  32 20.052837 0.116481 42.553223 0.978747 0.118074 0.167667 0.600900 0.915890 1 32 1.000000
band
  32 20.017427 -0.258505 42.541306 0.972873 -0.118620 0.198612 0.658590 0.915890 1 32 1.000000
  32 20.052837 0.116481 42.553223 0.978747 0.118074 0.167667 0.600900 0.915890 1 32 1.000000
  32 20.027164 0.153725 42.675941 0.836352 0.180953 0.517466 0.600090 0.899630 1 32 1.000000
band
  32 19.719942 -1.031220 42.189873 0.767223 -0.608556 -0.202553 0.789170 0.915890 1 32 1.000000
  32 19.665915 -1.140378 42.262356 0.589144 -0.806910 0.042483 0.789030 0.899630 1 32 1.000000
  32 19.464149 -1.151951 41.955708 0.258619 -0.851918 -0.455359 0.825680 0.899630 1 32 1.000000
band
  32 19.665915 -1.140378 42.262356 0.589144 -0.806910 0.042483 0.789030 0.899630 1 32 1.000000
  32 19.719942 -1.031220 42.189873 0.767223 -0.608556 -0.202553 0.789170 0.915890 1 32 1.000000
  32 19.831884 -0.834209 42.341877 0.860181 -0.509907 0.009165 0.758780 0.915890 1 32 1.000000
band
  32 19.831884 -0.834209 42.341877 0.860181 -0.509907 0.009165 0.758780 0.915890 1 32 1.000000
  32 19.789749 -0.916278 42.435173 0.706476 -0.636975 0.308473 0.757710 0.899630 1 32 1.000000
  32 19.665915 -1.140378 42.262356 0.589144 -0.806910 0.042483 0.789030 0.899630 1 32 1.000000
band
  32 19.789749 -0.916278 42.435173 0.706476 -0.636975 0.308473 0.757710 0.899630 1 32 1.000000
  32 19.831884 -0.834209 42.341877 0.860181 -0.509907 0.009165 0.758780 0.915890 1 32 1.000000
  32 19.968344 -0.609233 42.506248 0.930528 -0.351823 0.101676 0.713030 0.915890 1 32 1.000000
band
  32 19.968344 -0.609233 42.506248 0.930528 -0.351823 0.101676 0.713030 0.915890 1 32 1.000000
  32 19.937166 -0.663615 42.619156 0.792361 -0.419384 0.443036 0.713650 0.899630 1 32 1.000000
  32 19.789749 -0.916278 42.435173 0.706476 -0.636975 0.308473 0.757710 0.899630 1 32 1.000000
band
  32 19.937166 -0.663615 42.619156 0.792361 -0.419384 0.443036 0.713650 0.899630 1 32 1.000000
  32 19.968344 -0.609233 42.506248 0.930528 -0.351823 0.101676 0.713030 0.915890 1 32 1.000000
  32 20.017427 -0.258505 42.541306 0.972873 -0.118620 0.198612 0.658590 0.915890 1 32 1.000000
band
  32 20.017427 -0.258505 42.541306 0.972873 -0.118620 0.198612 0.658590 0.915890 1 32 1.000000
  32 19.990339 -0.269960 42.660545 0.825767 -0.131423 0.548485 0.658650 0.899630 1 32 1.000000
  32 19.937166 -0.663615 42.619156 0.792361 -0.419384 0.443036 0.713650 0.899630 1 32 1.000000
band
  32 20.027164 0.153725 42.675941 0.836352 0.180953 0.517466 0.600090 0.899630 1 32 1.000000
  32 19.990339 -0.269960 42.660545 0.825767 -0.131423 0.548485 0.658650 0.899630 1 32 1.000000
  32 20.017427 -0.258505 42.541306 0.972873 -0.118620 0.198612 0.658590 0.915890 1 32 1.000000
band
  32 19.990339 -0.269960 42.660545 0.825767 -0.131423 0.548485 0.658650 0.899630 1 32 1.000000
  32 20.027164 0.153725 42.675941 0.836352 0.180953 0.517466 0.600090 0.899630 1 32 1.000000
  32 19.960127 0.152844 42.722897 0.297397 0.218249 0.929474 0.601350 0.888970 1 32 1.000000
band
  32 19.960127 0.152844 42.722897 0.297397 0.218249 0.929474 0.601350 0.888970 1 32 1.000000
  32 20.027164 0.153725 42.675941 0.836352 0.180953 0.517466 0.600090 0.899630 1 32 1.000000
  32 19.926872 0.492764 42.511139 0.738182 0.578008 0.347840 0.551820 0.899630 1 32 1.000000
band
  32 19.926872 0.492764 42.511139 0.738182 0.578008 0.347840 0.551820 0.899630 1 32 1.000000
  32 19.859833 0.491883 42.558090 0.181701 0.613834 0.768240 0.553060 0.888970 1 32 1.000000
  32 19.960127 0.152844 42.722897 0.297397 0.218249 0.929474 0.601350 0.888970 1 32 1.000000
band
  32 19.859833 0.491883 42.558090 0.181701 0.613834 0.768240 0.553060 0.888970 1 32 1.000000
  32 19.926872 0.492764 42.511139 0.738182 0.578008 0.347840 0.551820 0.899630 1 32 1.000000
  32 19.769648 0.727857 42.281456 0.588146 0.804499 0.082856 0.509160 0.899630 1 32 1.000000
band
  32 19.769648 0.727857 42.281456 0.588146 0.804499 0.082856 0.509160 0.899630 1 32 1.000000
  32 19.702606 0.726976 42.328403 -0.016923 0.855609 0.517345 0.509800 0.888970 1 32 1.000000
  32 19.859833 0.491883 42.558090 0.181701 0.613834 0.768240 0.553060 0.888970 1 32 1.000000
band
  32 19.702606 0.726976 42.328403 -0.016923 0.855609 0.517345 0.509800 0.888970 1 32 1.000000
  32 19.769648 0.727857 42.281456 0.588146 0.804499 0.082856 0.509160 0.899630 1 32 1.000000
  32 19.565178 0.808184 41.967529 0.355838 0.887563 -0.292592 0.466130 0.899630 1 32 1.000000
band
  32 19.565178 0.808184 41.967529 0.355838 0.887563 -0.292592 0.466130 0.899630 1 32 1.000000
  32 19.498138 0.807303 42.014473 -0.293187 0.948015 0.123725 0.466050 0.888970 1 32 1.000000
  32 19.702606 0.726976 42.328403 -0.016923 0.855609 0.517345 0.509800 0.888970 1 32 1.000000
band
  32 19.702606 0.726976 42.328403 -0.016923 0.855609 0.517345 0.509800 0.888970 1 32 1.000000
  32 19.498138 0.807303 42.014473 -0.293187 0.948015 0.123725 0.466050 0.888970 1 32 1.000000
  32 19.440922 0.754572 42.056931 -0.189012 0.981013 0.043439 0.465930 0.877550 1 32 1.000000
band
  32 19.275627 0.653637 41.799805 -0.528967 0.809088 -0.256067 0.426420 0.877550 1 32 1.000000
  32 19.440922 0.754572 42.056931 -0.189012 0.981013 0.043439 0.465930 0.877550 1 32 1.000000
  32 19.498138 0.807303 42.014473 -0.293187 0.948015 0.123725 0.466050 0.888970 1 32 1.000000
band
  32 19.275627 0.653637 41.799805 -0.528967 0.809088 -0.256067 0.426420 0.877550 1 32 1.000000
  32 18.375542 0.634392 42.263165 -0.162317 0.746048 -0.645807 0.414690 0.752340 1 32 1.000000
  32 19.440922 0.754572 42.056931 -0.189012 0.981013 0.043439 0.465930 0.877550 1 32 1.000000
band
  32 18.375542 0.634392 42.263165 -0.162317 0.746048 -0.645807 0.414690 0.752340 1 32 1.000000
  32 18.294178 0.682575 42.281086 -0.124434 0.673739 -0.728417 0.418680 0.740840 1 32 1.000000
  32 18.513866 0.865450 42.636707 0.245804 0.937097 -0.247851 0.464010 0.740840 1 32 1.000000
band
  32 18.217691 0.682518 42.334637 -0.630954 0.662368 -0.403937 0.420710 0.727760 1 32 1.000000
  32 18.437380 0.865394 42.690262 -0.302008 0.949199 0.088389 0.464310 0.727760 1 32 1.000000
  32 18.513866 0.865450 42.636707 0.245804 0.937097 -0.247851 0.464010 0.740840 1 32 1.000000
band
  32 18.513866 0.865450 42.636707 0.245804 0.937097 -0.247851 0.464010 0.740840 1 32 1.000000
  32 18.294178 0.682575 42.281086 -0.124434 0.673739 -0.728417 0.418680 0.740840 1 32 1.000000
  32 18.217691 0.682518 42.334637 -0.630954 0.662368 -0.403937 0.420710 0.727760 1 32 1.000000
band
  32 18.082241 0.043962 42.097878 -0.759801 0.081516 -0.645025 0.335310 0.727760 1 32 1.000000
  32 18.217691 0.682518 42.334637 -0.630954 0.662368 -0.403937 0.420710 0.727760 1 32 1.000000
  32 18.294178 0.682575 42.281086 -0.124434 0.673739 -0.728417 0.418680 0.740840 1 32 1.000000
band
  32 18.294178 0.682575 42.281086 -0.124434 0.673739 -0.728417 0.418680 0.740840 1 32 1.000000
  32 18.158726 0.044019 42.044327 -0.312266 0.084212 -0.946255 0.332000 0.740840 1 32 1.000000
  32 18.082241 0.043962 42.097878 -0.759801 0.081516 -0.645025 0.335310 0.727760 1 32 1.000000
band
  32 18.249325 0.034627 42.040497 -0.405986 0.110530 -0.907171 0.337810 0.752340 1 32 1.000000
  32 18.158726 0.044019 42.044327 -0.312266 0.084212 -0.946255 0.332000 0.740840 1 32 1.000000
  32 18.294178 0.682575 42.281086 -0.124434 0.673739 -0.728417 0.418680 0.740840 1 32 1.000000
band
  32 18.294178 0.682575 42.281086 -0.124434 0.673739 -0.728417 0.418680 0.740840 1 32 1.000000
  32 18.375542 0.634392 42.263165 -0.162317 0.746048 -0.645807 0.414690 0.752340 1 32 1.000000
  32 18.249325 0.034627 42.040497 -0.405986 0.110530 -0.907171 0.337810 0.752340 1 32 1.000000
band
  32 18.249325 0.034627 42.040497 -0.405986 0.110530 -0.907171 0.337810 0.752340 1 32 1.000000
  32 18.375542 0.634392 42.263165 -0.162317 0.746048 -0.645807 0.414690 0.752340 1 32 1.000000
  32 19.151638 0.424820 41.603245 -0.637623 0.508444 -0.578725 0.385940 0.877550 1 32 1.000000
band
  32 18.375542 0.634392 42.263165 -0.162317 0.746048 -0.645807 0.414690 0.752340 1 32 1.000000
  32 19.275627 0.653637 41.799805 -0.528967 0.809088 -0.256067 0.426420 0.877550 1 32 1.000000
  32 19.151638 0.424820 41.603245 -0.637623 0.508444 -0.578725 0.385940 0.877550 1 32 1.000000
band
  32 19.151638 0.424820 41.603245 -0.637623 0.508444 -0.578725 0.385940 0.877550 1 32 1.000000
  32 19.275627 0.653637 41.799805 -0.528967 0.809088 -0.256067 0.426420 0.877550 1 32 1.000000
  32 19.325998 0.698774 41.742115 -0.528967 0.809088 -0.256067 0.428570 0.888970 1 32 1.000000
band
  32 19.498138 0.807303 42.014473 -0.293187 0.948015 0.123725 0.466050 0.888970 1 32 1.000000
  32 19.325998 0.698774 41.742115 -0.528967 0.809088 -0.256067 0.428570 0.888970 1 32 1.000000
  32 19.275627 0.653637 41.799805 -0.528967 0.809088 -0.256067 0.426420 0.877550 1 32 1.000000
band
  32 19.390820 0.694888 41.690655 0.118141 0.763466 -0.634950 0.429050 0.899630 1 32 1.000000
  32 19.325998 0.698774 41.742115 -0.528967 0.809088 -0.256067 0.428570 0.888970 1 32 1.000000
  32 19.498138 0.807303 42.014473 -0.293187 0.948015 0.123725 0.466050 0.888970 1 32 1.000000
band
  32 19.498138 0.807303 42.014473 -0.293187 0.948015 0.123725 0.466050 0.888970 1 32 1.000000
  32 19.565178 0.808184 41.967529 0.355838 0.887563 -0.292592 0.466130 0.899630 1 32 1.000000
  32 19.390820 0.694888 41.690655 0.118141 0.763466 -0.634950 0.429050 0.899630 1 32 1.000000
band
  32 19.390820 0.694888 41.690655 0.118141 0.763466 -0.634950 0.429050 0.899630 1 32 1.000000
  32 19.565178 0.808184 41.967529 0.355838 0.887563 -0.292592 0.466130 0.899630 1 32 1.000000
  32 19.634495 0.694701 41.925175 0.604694 0.657160 -0.449984 0.466210 0.915890 1 32 1.000000
band
  32 19.820078 0.624205 42.203308 0.772796 0.611344 -0.170423 0.509520 0.915890 1 32 1.000000
  32 19.634495 0.694701 41.925175 0.604694 0.657160 -0.449984 0.466210 0.915890 1 32 1.000000
  32 19.565178 0.808184 41.967529 0.355838 0.887563 -0.292592 0.466130 0.899630 1 32 1.000000
band
  32 19.574993 0.418311 41.981853 0.798373 -0.285709 -0.530066 0.467220 0.975050 1 32 1.000000
  32 19.634495 0.694701 41.925175 0.604694 0.657160 -0.449984 0.466210 0.915890 1 32 1.000000
  32 19.820078 0.624205 42.203308 0.772796 0.611344 -0.170423 0.509520 0.915890 1 32 1.000000
band
  32 19.820078 0.624205 42.203308 0.772796 0.611344 -0.170423 0.509520 0.915890 1 32 1.000000
  32 19.714779 0.371652 42.173153 0.726867 -0.224229 -0.649143 0.511910 0.975050 1 32 1.000000
  32 19.574993 0.418311 41.981853 0.798373 -0.285709 -0.530066 0.467220 0.975050 1 32 1.000000
band
  32 19.714779 0.371652 42.173153 0.726867 -0.224229 -0.649143 0.511910 0.975050 1 32 1.000000
  32 19.820078 0.624205 42.203308 0.772796 0.611344 -0.170423 0.509520 0.915890 1 32 1.000000
  32 19.962204 0.416811 42.405769 0.900955 0.431877 0.041979 0.552170 0.915890 1 32 1.000000
band
  32 19.962204 0.416811 42.405769 0.900955 0.431877 0.041979 0.552170 0.915890 1 32 1.000000
  32 19.820303 0.231414 42.309620 0.669848 -0.206700 -0.713147 0.558000 0.975050 1 32 1.000000
  32 19.714779 0.371652 42.173153 0.726867 -0.224229 -0.649143 0.511910 0.975050 1 32 1.000000
band
  32 19.634495 0.694701 41.925175 0.604694 0.657160 -0.449984 0.466210 0.915890 1 32 1.000000
  32 19.574993 0.418311 41.981853 0.798373 -0.285709 -0.530066 0.467220 0.975050 1 32 1.000000
  32 19.458000 0.362991 41.820736 0.878007 -0.288814 -0.381694 0.429430 0.975050 1 32 1.000000
band
  32 19.458000 0.362991 41.820736 0.878007 -0.288814 -0.381694 0.429430 0.975050 1 32 1.000000
  32 19.478470 0.601710 41.685318 0.443622 0.555685 -0.703145 0.429580 0.915890 1 32 1.000000
  32 19.634495 0.694701 41.925175 0.604694 0.657160 -0.449984 0.466210 0.915890 1 32 1.000000
band
  32 19.634495 0.694701 41.925175 0.604694 0.657160 -0.449984 0.466210 0.915890 1 32 1.000000
  32 19.478470 0.601710 41.685318 0.443622 0.555685 -0.703145 0.429580 0.915890 1 32 1.000000
  32 19.390820 0.694888 41.690655 0.118141 0.763466 -0.634950 0.429050 0.899630 1 32 1.000000
band
  32 19.265736 0.463746 41.491863 -0.050393 0.504515 -0.861931 0.392160 0.899630 1 32 1.000000
  32 19.390820 0.694888 41.690655 0.118141 0.763466 -0.634950 0.429050 0.899630 1 32 1.000000
  32 19.478470 0.601710 41.685318 0.443622 0.555685 -0.703145 0.429580 0.915890 1 32 1.000000
band
  32 19.325998 0.698774 41.742115 -0.528967 0.809088 -0.256067 0.428570 0.888970 1 32 1.000000
  32 19.390820 0.694888 41.690655 0.118141 0.763466 -0.634950 0.429050 0.899630 1 32 1.000000
  32 19.265736 0.463746 41.491863 -0.050393 0.504515 -0.861931 0.392160 0.899630 1 32 1.000000
band
  32 19.265736 0.463746 41.491863 -0.050393 0.504515 -0.861931 0.392160 0.899630 1 32 1.000000
  32 19.196478 0.458098 41.534283 -0.672561 0.531887 -0.514545 0.389270 0.888970 1 32 1.000000
  32 19.325998 0.698774 41.742115 -0.528967 0.809088 -0.256067 0.428570 0.888970 1 32 1.000000
band
  32 19.325998 0.698774 41.742115 -0.528967 0.809088 -0.256067 0.428570 0.888970 1 32 1.000000
  32 19.196478 0.458098 41.534283 -0.672561 0.531887 -0.514545 0.389270 0.888970 1 32 1.000000
  32 19.151638 0.424820 41.603245 -0.637623 0.508444 -0.578725 0.385940 0.877550 1 32 1.000000
band
  32 19.075335 0.080084 41.483341 -0.740766 0.155080 -0.653618 0.337810 0.877550 1 32 1.000000
  32 19.151638 0.424820 41.603245 -0.637623 0.508444 -0.578725 0.385940 0.877550 1 32 1.000000
  32 19.196478 0.458098 41.534283 -0.672561 0.531887 -0.514545 0.389270 0.888970 1 32 1.000000
band
  32 19.075335 0.080084 41.483341 -0.740766 0.155080 -0.653618 0.337810 0.877550 1 32 1.000000
  32 18.249325 0.034627 42.040497 -0.405986 0.110530 -0.907171 0.337810 0.752340 1 32 1.000000
  32 19.151638 0.424820 41.603245 -0.637623 0.508444 -0.578725 0.385940 0.877550 1 32 1.000000
band
  32 19.196478 0.458098 41.534283 -0.672561 0.531887 -0.514545 0.389270 0.888970 1 32 1.000000
  32 19.117178 0.094362 41.409176 -0.740766 0.155080 -0.653618 0.333780 0.888970 1 32 1.000000
  32 19.075335 0.080084 41.483341 -0.740766 0.155080 -0.653618 0.337810 0.877550 1 32 1.000000
band
  32 19.184221 0.095243 41.362236 -0.143405 0.139595 -0.979769 0.334960 0.899630 1 32 1.000000
  32 19.117178 0.094362 41.409176 -0.740766 0.155080 -0.653618 0.333780 0.888970 1 32 1.000000
  32 19.196478 0.458098 41.534283 -0.672561 0.531887 -0.514545 0.389270 0.888970 1 32 1.000000
band
  32 19.196478 0.458098 41.534283 -0.672561 0.531887 -0.514545 0.389270 0.888970 1 32 1.000000
  32 19.265736 0.463746 41.491863 -0.050393 0.504515 -0.861931 0.392160 0.899630 1 32 1.000000
  32 19.184221 0.095243 41.362236 -0.143405 0.139595 -0.979769 0.334960 0.899630 1 32 1.000000
band
  32 19.184221 0.095243 41.362236 -0.143405 0.139595 -0.979769 0.334960 0.899630 1 32 1.000000
  32 19.265736 0.463746 41.491863 -0.050393 0.504515 -0.861931 0.392160 0.899630 1 32 1.000000
  32 19.361233 0.387451 41.502590 0.334768 0.362267 -0.869881 0.391290 0.915890 1 32 1.000000
band
  32 19.478470 0.601710 41.685318 0.443622 0.555685 -0.703145 0.429580 0.915890 1 32 1.000000
  32 19.361233 0.387451 41.502590 0.334768 0.362267 -0.869881 0.391290 0.915890 1 32 1.000000
  32 19.265736 0.463746 41.491863 -0.050393 0.504515 -0.861931 0.392160 0.899630 1 32 1.000000
band
  32 19.370533 0.212783 41.698845 0.946481 -0.216785 -0.239119 0.393830 0.975050 1 32 1.000000
  32 19.361233 0.387451 41.502590 0.334768 0.362267 -0.869881 0.391290 0.915890 1 32 1.000000
  32 19.478470 0.601710 41.685318 0.443622 0.555685 -0.703145 0.429580 0.915890 1 32 1.000000
band
  32 19.478470 0.601710 41.685318 0.443622 0.555685 -0.703145 0.429580 0.915890 1 32 1.000000
  32 19.458000 0.362991 41.820736 0.878007 -0.288814 -0.381694 0.429430 0.975050 1 32 1.000000
  32 19.370533 0.212783 41.698845 0.946481 -0.216785 -0.239119 0.393830 0.975050 1 32 1.000000
band
  32 19.361233 0.387451 41.502590 0.334768 0.362267 -0.869881 0.391290 0.915890 1 32 1.000000
  32 19.289757 0.065447 41.393074 0.277571 0.092057 -0.956284 0.339420 0.915890 1 32 1.000000
  32 19.184221 0.095243 41.362236 -0.143405 0.139595 -0.979769 0.334960 0.899630 1 32 1.000000
band
  32 19.318111 -0.008049 41.627254 0.985883 -0.080473 -0.146828 0.358510 0.975050 1 32 1.000000
  32 19.289757 0.065447 41.393074 0.277571 0.092057 -0.956284 0.339420 0.915890 1 32 1.000000
  32 19.361233 0.387451 41.502590 0.334768 0.362267 -0.869881 0.391290 0.915890 1 32 1.000000
band
  32 19.361233 0.387451 41.502590 0.334768 0.362267 -0.869881 0.391290 0.915890 1 32 1.000000
  32 19.370533 0.212783 41.698845 0.946481 -0.216785 -0.239119 0.393830 0.975050 1 32 1.000000
  32 19.318111 -0.008049 41.627254 0.985883 -0.080473 -0.146828 0.358510 0.975050 1 32 1.000000
band
  32 19.088001 -0.611891 43.374275 0.711585 -0.442288 0.545918 0.704170 0.752340 1 32 1.000000
  32 18.789728 -1.059651 42.947803 0.339307 -0.929852 0.142285 0.779870 0.752340 1 32 1.000000
  32 19.652918 -0.881487 42.502357 0.259216 -0.687368 0.678477 0.752760 0.877550 1 32 1.000000
band
  32 18.789728 -1.059651 42.947803 0.339307 -0.929852 0.142285 0.779870 0.752340 1 32 1.000000
  32 19.534441 -1.092960 42.339615 -0.021396 -0.870179 0.492271 0.787310 0.877550 1 32 1.000000
  32 19.652918 -0.881487 42.502357 0.259216 -0.687368 0.678477 0.752760 0.877550 1 32 1.000000
band
  32 19.722708 -0.917159 42.482121 0.190396 -0.655652 0.730664 0.755790 0.888970 1 32 1.000000
  32 19.652918 -0.881487 42.502357 0.259216 -0.687368 0.678477 0.752760 0.877550 1 32 1.000000
  32 19.534441 -1.092960 42.339615 -0.021396 -0.870179 0.492271 0.787310 0.877550 1 32 1.000000
band
  32 19.636530 0.679277 42.355431 -0.016923 0.855609 0.517345 0.511150 0.877550 1 32 1.000000
  32 18.796204 0.708598 42.950649 0.402145 0.898173 0.177667 0.511500 0.752340 1 32 1.000000
  32 19.787571 0.453375 42.577473 0.304143 0.672853 0.674364 0.555920 0.877550 1 32 1.000000
band
  32 18.796204 0.708598 42.950649 0.402145 0.898173 0.177667 0.511500 0.752340 1 32 1.000000
  32 19.636530 0.679277 42.355431 -0.016923 0.855609 0.517345 0.511150 0.877550 1 32 1.000000
  32 19.440922 0.754572 42.056931 -0.189012 0.981013 0.043439 0.465930 0.877550 1 32 1.000000
band
  32 19.440922 0.754572 42.056931 -0.189012 0.981013 0.043439 0.465930 0.877550 1 32 1.000000
  32 19.636530 0.679277 42.355431 -0.016923 0.855609 0.517345 0.511150 0.877550 1 32 1.000000
  32 19.702606 0.726976 42.328403 -0.016923 0.855609 0.517345 0.509800 0.888970 1 32 1.000000
band
  32 19.859833 0.491883 42.558090 0.181701 0.613834 0.768240 0.553060 0.888970 1 32 1.000000
  32 19.702606 0.726976 42.328403 -0.016923 0.855609 0.517345 0.509800 0.888970 1 32 1.000000
  32 19.636530 0.679277 42.355431 -0.016923 0.855609 0.517345 0.511150 0.877550 1 32 1.000000
band
  32 19.636530 0.679277 42.355431 -0.016923 0.855609 0.517345 0.511150 0.877550 1 32 1.000000
  32 19.787571 0.453375 42.577473 0.304143 0.672853 0.674364 0.555920 0.877550 1 32 1.000000
  32 19.859833 0.491883 42.558090 0.181701 0.613834 0.768240 0.553060 0.888970 1 32 1.000000
band
  32 19.960127 0.152844 42.722897 0.297397 0.218249 0.929474 0.601350 0.888970 1 32 1.000000
  32 19.859833 0.491883 42.558090 0.181701 0.613834 0.768240 0.553060 0.888970 1 32 1.000000
  32 19.787571 0.453375 42.577473 0.304143 0.672853 0.674364 0.555920 0.877550 1 32 1.000000
band
  32 19.787571 0.453375 42.577473 0.304143 0.672853 0.674364 0.555920 0.877550 1 32 1.000000
  32 19.883139 0.141953 42.723190 0.363949 0.221758 0.904635 0.602690 0.877550 1 32 1.000000
  32 19.960127 0.152844 42.722897 0.297397 0.218249 0.929474 0.601350 0.888970 1 32 1.000000
band
  32 19.960127 0.152844 42.722897 0.297397 0.218249 0.929474 0.601350 0.888970 1 32 1.000000
  32 19.883139 0.141953 42.723190 0.363949 0.221758 0.904635 0.602690 0.877550 1 32 1.000000
  32 19.847311 -0.266366 42.715385 0.469797 -0.106633 0.876311 0.658650 0.877550 1 32 1.000000
band
  32 19.883139 0.141953 42.723190 0.363949 0.221758 0.904635 0.602690 0.877550 1 32 1.000000
  32 19.137045 0.100273 43.437042 0.757166 0.219676 0.615176 0.609070 0.752340 1 32 1.000000
  32 19.847311 -0.266366 42.715385 0.469797 -0.106633 0.876311 0.658650 0.877550 1 32 1.000000
band
  32 19.137045 0.100273 43.437042 0.757166 0.219676 0.615176 0.609070 0.752340 1 32 1.000000
  32 19.088001 -0.611891 43.374275 0.711585 -0.442288 0.545918 0.704170 0.752340 1 32 1.000000
  32 19.847311 -0.266366 42.715385 0.469797 -0.106633 0.876311 0.658650 0.877550 1 32 1.000000
band
  32 19.088001 -0.611891 43.374275 0.711585 -0.442288 0.545918 0.704170 0.752340 1 32 1.000000
  32 19.794485 -0.641934 42.676979 0.340504 -0.423283 0.839577 0.710680 0.877550 1 32 1.000000
  32 19.847311 -0.266366 42.715385 0.469797 -0.106633 0.876311 0.658650 0.877550 1 32 1.000000
band
  32 19.794485 -0.641934 42.676979 0.340504 -0.423283 0.839577 0.710680 0.877550 1 32 1.000000
  32 19.088001 -0.611891 43.374275 0.711585 -0.442288 0.545918 0.704170 0.752340 1 32 1.000000
  32 19.652918 -0.881487 42.502357 0.259216 -0.687368 0.678477 0.752760 0.877550 1 32 1.000000
band
  32 19.870129 -0.664496 42.666096 0.281357 -0.412203 0.866561 0.712640 0.888970 1 32 1.000000
  32 19.794485 -0.641934 42.676979 0.340504 -0.423283 0.839577 0.710680 0.877550 1 32 1.000000
  32 19.652918 -0.881487 42.502357 0.259216 -0.687368 0.678477 0.752760 0.877550 1 32 1.000000
band
  32 19.652918 -0.881487 42.502357 0.259216 -0.687368 0.678477 0.752760 0.877550 1 32 1.000000
  32 19.722708 -0.917159 42.482121 0.190396 -0.655652 0.730664 0.755790 0.888970 1 32 1.000000
  32 19.870129 -0.664496 42.666096 0.281357 -0.412203 0.866561 0.712640 0.888970 1 32 1.000000
band
  32 19.870129 -0.664496 42.666096 0.281357 -0.412203 0.866561 0.712640 0.888970 1 32 1.000000
  32 19.722708 -0.917159 42.482121 0.190396 -0.655652 0.730664 0.755790 0.888970 1 32 1.000000
  32 19.789749 -0.916278 42.435173 0.706476 -0.636975 0.308473 0.757710 0.899630 1 32 1.000000
band
  32 19.665915 -1.140378 42.262356 0.589144 -0.806910 0.042483 0.789030 0.899630 1 32 1.000000
  32 19.789749 -0.916278 42.435173 0.706476 -0.636975 0.308473 0.757710 0.899630 1 32 1.000000
  32 19.722708 -0.917159 42.482121 0.190396 -0.655652 0.730664 0.755790 0.888970 1 32 1.000000
band
  32 19.722708 -0.917159 42.482121 0.190396 -0.655652 0.730664 0.755790 0.888970 1 32 1.000000
  32 19.598877 -1.141258 42.309296 -0.021396 -0.870179 0.492271 0.788500 0.888970 1 32 1.000000
  32 19.665915 -1.140378 42.262356 0.589144 -0.806910 0.042483 0.789030 0.899630 1 32 1.000000
band
  32 19.534441 -1.092960 42.339615 -0.021396 -0.870179 0.492271 0.787310 0.877550 1 32 1.000000
  32 19.598877 -1.141258 42.309296 -0.021396 -0.870179 0.492271 0.788500 0.888970 1 32 1.000000
  32 19.722708 -0.917159 42.482121 0.190396 -0.655652 0.730664 0.755790 0.888970 1 32 1.000000
band
  32 19.598877 -1.141258 42.309296 -0.021396 -0.870179 0.492271 0.788500 0.888970 1 32 1.000000
  32 19.534441 -1.092960 42.339615 -0.021396 -0.870179 0.492271 0.787310 0.877550 1 32 1.000000
  32 19.343054 -1.102268 42.051292 -0.400980 -0.914261 -0.057812 0.826360 0.877550 1 32 1.000000
band
  32 19.534441 -1.092960 42.339615 -0.021396 -0.870179 0.492271 0.787310 0.877550 1 32 1.000000
  32 18.789728 -1.059651 42.947803 0.339307 -0.929852 0.142285 0.779870 0.752340 1 32 1.000000
  32 19.343054 -1.102268 42.051292 -0.400980 -0.914261 -0.057812 0.826360 0.877550 1 32 1.000000
band
  32 18.789728 -1.059651 42.947803 0.339307 -0.929852 0.142285 0.779870 0.752340 1 32 1.000000
  32 18.500883 -0.960437 42.498741 -0.193121 -0.835857 -0.513855 0.839930 0.752340 1 32 1.000000
  32 19.343054 -1.102268 42.051292 -0.400980 -0.914261 -0.057812 0.826360 0.877550 1 32 1.000000
band
  32 19.137045 0.100273 43.437042 0.757166 0.219676 0.615176 0.609070 0.752340 1 32 1.000000
  32 19.883139 0.141953 42.723190 0.363949 0.221758 0.904635 0.602690 0.877550 1 32 1.000000
  32 19.787571 0.453375 42.577473 0.304143 0.672853 0.674364 0.555920 0.877550 1 32 1.000000
band
  32 19.789749 -0.916278 42.435173 0.706476 -0.636975 0.308473 0.757710 0.899630 1 32 1.000000
  32 19.937166 -0.663615 42.619156 0.792361 -0.419384 0.443036 0.713650 0.899630 1 32 1.000000
  32 19.870129 -0.664496 42.666096 0.281357 -0.412203 0.866561 0.712640 0.888970 1 32 1.000000
band
  32 19.923296 -0.270841 42.707497 0.336335 -0.101150 0.936294 0.658760 0.888970 1 32 1.000000
  32 19.870129 -0.664496 42.666096 0.281357 -0.412203 0.866561 0.712640 0.888970 1 32 1.000000
  32 19.937166 -0.663615 42.619156 0.792361 -0.419384 0.443036 0.713650 0.899630 1 32 1.000000
band
  32 19.937166 -0.663615 42.619156 0.792361 -0.419384 0.443036 0.713650 0.899630 1 32 1.000000
  32 19.990339 -0.269960 42.660545 0.825767 -0.131423 0.548485 0.658650 0.899630 1 32 1.000000
  32 19.923296 -0.270841 42.707497 0.336335 -0.101150 0.936294 0.658760 0.888970 1 32 1.000000
band
  32 19.960127 0.152844 42.722897 0.297397 0.218249 0.929474 0.601350 0.888970 1 32 1.000000
  32 19.923296 -0.270841 42.707497 0.336335 -0.101150 0.936294 0.658760 0.888970 1 32 1.000000
  32 19.990339 -0.269960 42.660545 0.825767 -0.131423 0.548485 0.658650 0.899630 1 32 1.000000
band
  32 19.847311 -0.266366 42.715385 0.469797 -0.106633 0.876311 0.658650 0.877550 1 32 1.000000
  32 19.923296 -0.270841 42.707497 0.336335 -0.101150 0.936294 0.658760 0.888970 1 32 1.000000
  32 19.960127 0.152844 42.722897 0.297397 0.218249 0.929474 0.601350 0.888970 1 32 1.000000
band
  32 19.923296 -0.270841 42.707497 0.336335 -0.101150 0.936294 0.658760 0.888970 1 32 1.000000
  32 19.847311 -0.266366 42.715385 0.469797 -0.106633 0.876311 0.658650 0.877550 1 32 1.000000
  32 19.794485 -0.641934 42.676979 0.340504 -0.423283 0.839577 0.710680 0.877550 1 32 1.000000
band
  32 19.794485 -0.641934 42.676979 0.340504 -0.423283 0.839577 0.710680 0.877550 1 32 1.000000
  32 19.870129 -0.664496 42.666096 0.281357 -0.412203 0.866561 0.712640 0.888970 1 32 1.000000
  32 19.923296 -0.270841 42.707497 0.336335 -0.101150 0.936294 0.658760 0.888970 1 32 1.000000
band
  32 18.247919 -0.385716 42.461491 -0.767098 0.085835 0.635761 0.898470 0.671960 1 32 1.000000
  32 18.102016 -0.566005 42.318764 -0.885283 -0.376965 -0.272343 0.895900 0.710880 1 32 1.000000
  32 18.284227 -0.955906 42.653793 -0.725341 -0.687953 0.024522 0.834110 0.710880 1 32 1.000000
band
  32 18.102016 -0.566005 42.318764 -0.885283 -0.376965 -0.272343 0.895900 0.710880 1 32 1.000000
  32 18.247919 -0.385716 42.461491 -0.767098 0.085835 0.635761 0.898470 0.671960 1 32 1.000000
  32 18.221790 -0.001821 42.446777 -0.784575 -0.020649 0.619690 0.950360 0.671960 1 32 1.000000
band
  32 18.221790 -0.001821 42.446777 -0.784575 -0.020649 0.619690 0.950360 0.671960 1 32 1.000000
  32 18.033180 0.033813 42.197266 -0.933733 0.060229 -0.352866 0.979110 0.710880 1 32 1.000000
  32 18.102016 -0.566005 42.318764 -0.885283 -0.376965 -0.272343 0.895900 0.710880 1 32 1.000000
band
  32 18.102016 -0.566005 42.318764 -0.885283 -0.376965 -0.272343 0.895900 0.710880 1 32 1.000000
  32 18.033180 0.033813 42.197266 -0.933733 0.060229 -0.352866 0.979110 0.710880 1 32 1.000000
  32 18.082241 0.043962 42.097878 -0.759801 0.081516 -0.645025 0.984130 0.727760 1 32 1.000000
band
  32 18.082241 0.043962 42.097878 -0.759801 0.081516 -0.645025 0.984130 0.727760 1 32 1.000000
  32 18.155317 -0.595739 42.227577 -0.696425 -0.451525 -0.557779 0.897550 0.727760 1 32 1.000000
  32 18.102016 -0.566005 42.318764 -0.885283 -0.376965 -0.272343 0.895900 0.710880 1 32 1.000000
band
  32 18.231804 -0.595683 42.174034 -0.248598 -0.470432 -0.846695 0.899690 0.740840 1 32 1.000000
  32 18.155317 -0.595739 42.227577 -0.696425 -0.451525 -0.557779 0.897550 0.727760 1 32 1.000000
  32 18.082241 0.043962 42.097878 -0.759801 0.081516 -0.645025 0.984130 0.727760 1 32 1.000000
band
  32 18.155317 -0.595739 42.227577 -0.696425 -0.451525 -0.557779 0.897550 0.727760 1 32 1.000000
  32 18.231804 -0.595683 42.174034 -0.248598 -0.470432 -0.846695 0.899690 0.740840 1 32 1.000000
  32 18.425653 -1.011818 42.531303 -0.009383 -0.848351 -0.529350 0.837060 0.740840 1 32 1.000000
band
  32 18.425653 -1.011818 42.531303 -0.009383 -0.848351 -0.529350 0.837060 0.740840 1 32 1.000000
  32 18.231804 -0.595683 42.174034 -0.248598 -0.470432 -0.846695 0.899690 0.740840 1 32 1.000000
  32 18.318010 -0.566452 42.163738 -0.384030 -0.423609 -0.820412 0.902530 0.752340 1 32 1.000000
band
  32 18.318010 -0.566452 42.163738 -0.384030 -0.423609 -0.820412 0.902530 0.752340 1 32 1.000000
  32 18.500883 -0.960437 42.498741 -0.193121 -0.835857 -0.513855 0.839930 0.752340 1 32 1.000000
  32 18.425653 -1.011818 42.531303 -0.009383 -0.848351 -0.529350 0.837060 0.740840 1 32 1.000000
band
  32 18.731857 -1.118439 43.008575 0.404397 -0.914207 0.026252 0.779620 0.740840 1 32 1.000000
  32 18.425653 -1.011818 42.531303 -0.009383 -0.848351 -0.529350 0.837060 0.740840 1 32 1.000000
  32 18.500883 -0.960437 42.498741 -0.193121 -0.835857 -0.513855 0.839930 0.752340 1 32 1.000000
band
  32 18.500883 -0.960437 42.498741 -0.193121 -0.835857 -0.513855 0.839930 0.752340 1 32 1.000000
  32 18.789728 -1.059651 42.947803 0.339307 -0.929852 0.142285 0.779870 0.752340 1 32 1.000000
  32 18.731857 -1.118439 43.008575 0.404397 -0.914207 0.026252 0.779620 0.740840 1 32 1.000000
band
  32 19.044914 -0.643801 43.459320 0.711585 -0.442288 0.545918 0.704860 0.740840 1 32 1.000000
  32 18.731857 -1.118439 43.008575 0.404397 -0.914207 0.026252 0.779620 0.740840 1 32 1.000000
  32 18.789728 -1.059651 42.947803 0.339307 -0.929852 0.142285 0.779870 0.752340 1 32 1.000000
band
  32 18.789728 -1.059651 42.947803 0.339307 -0.929852 0.142285 0.779870 0.752340 1 32 1.000000
  32 19.088001 -0.611891 43.374275 0.711585 -0.442288 0.545918 0.704170 0.752340 1 32 1.000000
  32 19.044914 -0.643801 43.459320 0.711585 -0.442288 0.545918 0.704860 0.740840 1 32 1.000000
band
  32 19.096170 0.116050 43.526405 0.757166 0.219676 0.615176 0.609950 0.740840 1 32 1.000000
  32 19.044914 -0.643801 43.459320 0.711585 -0.442288 0.545918 0.704860 0.740840 1 32 1.000000
  32 19.088001 -0.611891 43.374275 0.711585 -0.442288 0.545918 0.704170 0.752340 1 32 1.000000
band
  32 19.088001 -0.611891 43.374275 0.711585 -0.442288 0.545918 0.704170 0.752340 1 32 1.000000
  32 19.137045 0.100273 43.437042 0.757166 0.219676 0.615176 0.609070 0.752340 1 32 1.000000
  32 19.096170 0.116050 43.526405 0.757166 0.219676 0.615176 0.609950 0.740840 1 32 1.000000
band
  32 19.096170 0.116050 43.526405 0.757166 0.219676 0.615176 0.609950 0.740840 1 32 1.000000
  32 19.137045 0.100273 43.437042 0.757166 0.219676 0.615176 0.609070 0.752340 1 32 1.000000
  32 18.955521 0.564203 43.189632 0.630173 0.703675 0.328211 0.546830 0.752340 1 32 1.000000
band
  32 19.137045 0.100273 43.437042 0.757166 0.219676 0.615176 0.609070 0.752340 1 32 1.000000
  32 19.787571 0.453375 42.577473 0.304143 0.672853 0.674364 0.555920 0.877550 1 32 1.000000
  32 18.955521 0.564203 43.189632 0.630173 0.703675 0.328211 0.546830 0.752340 1 32 1.000000
band
  32 19.787571 0.453375 42.577473 0.304143 0.672853 0.674364 0.555920 0.877550 1 32 1.000000
  32 18.796204 0.708598 42.950649 0.402145 0.898173 0.177667 0.511500 0.752340 1 32 1.000000
  32 18.955521 0.564203 43.189632 0.630173 0.703675 0.328211 0.546830 0.752340 1 32 1.000000
band
  32 18.905977 0.606326 43.263775 0.598916 0.713972 0.362688 0.545940 0.740840 1 32 1.000000
  32 18.955521 0.564203 43.189632 0.630173 0.703675 0.328211 0.546830 0.752340 1 32 1.000000
  32 18.796204 0.708598 42.950649 0.402145 0.898173 0.177667 0.511500 0.752340 1 32 1.000000
band
  32 18.955521 0.564203 43.189632 0.630173 0.703675 0.328211 0.546830 0.752340 1 32 1.000000
  32 18.905977 0.606326 43.263775 0.598916 0.713972 0.362688 0.545940 0.740840 1 32 1.000000
  32 19.096170 0.116050 43.526405 0.757166 0.219676 0.615176 0.609950 0.740840 1 32 1.000000
band
  32 19.096170 0.116050 43.526405 0.757166 0.219676 0.615176 0.609950 0.740840 1 32 1.000000
  32 18.905977 0.606326 43.263775 0.598916 0.713972 0.362688 0.545940 0.740840 1 32 1.000000
  32 18.829502 0.606269 43.317341 0.131878 0.716189 0.685333 0.546320 0.727760 1 32 1.000000
band
  32 18.284227 -0.955906 42.653793 -0.725341 -0.687953 0.024522 0.834110 0.710880 1 32 1.000000
  32 18.102016 -0.566005 42.318764 -0.885283 -0.376965 -0.272343 0.895900 0.710880 1 32 1.000000
  32 18.155317 -0.595739 42.227577 -0.696425 -0.451525 -0.557779 0.897550 0.727760 1 32 1.000000
band
  32 18.155317 -0.595739 42.227577 -0.696425 -0.451525 -0.557779 0.897550 0.727760 1 32 1.000000
  32 18.349169 -1.011876 42.584854 -0.496585 -0.837861 -0.226698 0.835150 0.727760 1 32 1.000000
  32 18.284227 -0.955906 42.653793 -0.725341 -0.687953 0.024522 0.834110 0.710880 1 32 1.000000
band
  32 18.425653 -1.011818 42.531303 -0.009383 -0.848351 -0.529350 0.837060 0.740840 1 32 1.000000
  32 18.349169 -1.011876 42.584854 -0.496585 -0.837861 -0.226698 0.835150 0.727760 1 32 1.000000
  32 18.155317 -0.595739 42.227577 -0.696425 -0.451525 -0.557779 0.897550 0.727760 1 32 1.000000
band
  32 18.349169 -1.011876 42.584854 -0.496585 -0.837861 -0.226698 0.835150 0.727760 1 32 1.000000
  32 18.425653 -1.011818 42.531303 -0.009383 -0.848351 -0.529350 0.837060 0.740840 1 32 1.000000
  32 18.731857 -1.118439 43.008575 0.404397 -0.914207 0.026252 0.779620 0.740840 1 32 1.000000
band
  32 18.731857 -1.118439 43.008575 0.404397 -0.914207 0.026252 0.779620 0.740840 1 32 1.000000
  32 18.655373 -1.118495 43.062126 -0.113989 -0.919981 0.375021 0.778880 0.727760 1 32 1.000000
  32 18.349169 -1.011876 42.584854 -0.496585 -0.837861 -0.226698 0.835150 0.727760 1 32 1.000000
band
  32 18.655373 -1.118495 43.062126 -0.113989 -0.919981 0.375021 0.778880 0.727760 1 32 1.000000
  32 18.731857 -1.118439 43.008575 0.404397 -0.914207 0.026252 0.779620 0.740840 1 32 1.000000
  32 19.044914 -0.643801 43.459320 0.711585 -0.442288 0.545918 0.704860 0.740840 1 32 1.000000
band
  32 19.044914 -0.643801 43.459320 0.711585 -0.442288 0.545918 0.704860 0.740840 1 32 1.000000
  32 18.968433 -0.643859 43.512875 0.252203 -0.443652 0.859980 0.704630 0.727760 1 32 1.000000
  32 18.655373 -1.118495 43.062126 -0.113989 -0.919981 0.375021 0.778880 0.727760 1 32 1.000000
band
  32 18.968433 -0.643859 43.512875 0.252203 -0.443652 0.859980 0.704630 0.727760 1 32 1.000000
  32 19.044914 -0.643801 43.459320 0.711585 -0.442288 0.545918 0.704860 0.740840 1 32 1.000000
  32 19.096170 0.116050 43.526405 0.757166 0.219676 0.615176 0.609950 0.740840 1 32 1.000000
band
  32 19.096170 0.116050 43.526405 0.757166 0.219676 0.615176 0.609950 0.740840 1 32 1.000000
  32 19.019690 0.115993 43.579971 0.297397 0.218249 0.929474 0.611500 0.727760 1 32 1.000000
  32 18.968433 -0.643859 43.512875 0.252203 -0.443652 0.859980 0.704630 0.727760 1 32 1.000000
band
  32 18.829502 0.606269 43.317341 0.131878 0.716189 0.685333 0.546320 0.727760 1 32 1.000000
  32 19.019690 0.115993 43.579971 0.297397 0.218249 0.929474 0.611500 0.727760 1 32 1.000000
  32 19.096170 0.116050 43.526405 0.757166 0.219676 0.615176 0.609950 0.740840 1 32 1.000000
band
  32 18.915802 0.098072 43.587688 -0.035784 0.169122 0.984945 0.614190 0.710880 1 32 1.000000
  32 19.019690 0.115993 43.579971 0.297397 0.218249 0.929474 0.611500 0.727760 1 32 1.000000
  32 18.829502 0.606269 43.317341 0.131878 0.716189 0.685333 0.546320 0.727760 1 32 1.000000
band
  32 18.829502 0.606269 43.317341 0.131878 0.716189 0.685333 0.546320 0.727760 1 32 1.000000
  32 18.734144 0.559657 43.339371 -0.151633 0.597856 0.787131 0.548040 0.710880 1 32 1.000000
  32 18.915802 0.098072 43.587688 -0.035784 0.169122 0.984945 0.614190 0.710880 1 32 1.000000
band
  32 18.734144 0.559657 43.339371 -0.151633 0.597856 0.787131 0.548040 0.710880 1 32 1.000000
  32 18.829502 0.606269 43.317341 0.131878 0.716189 0.685333 0.546320 0.727760 1 32 1.000000
  32 18.662367 0.760706 43.064163 -0.048208 0.904167 0.424450 0.511330 0.727760 1 32 1.000000
band
  32 18.662367 0.760706 43.064163 -0.048208 0.904167 0.424450 0.511330 0.727760 1 32 1.000000
  32 18.829502 0.606269 43.317341 0.131878 0.716189 0.685333 0.546320 0.727760 1 32 1.000000
  32 18.905977 0.606326 43.263775 0.598916 0.713972 0.362688 0.545940 0.740840 1 32 1.000000
band
  32 18.905977 0.606326 43.263775 0.598916 0.713972 0.362688 0.545940 0.740840 1 32 1.000000
  32 18.738852 0.760763 43.010609 0.433969 0.893554 0.115031 0.511320 0.740840 1 32 1.000000
  32 18.662367 0.760706 43.064163 -0.048208 0.904167 0.424450 0.511330 0.727760 1 32 1.000000
band
  32 18.796204 0.708598 42.950649 0.402145 0.898173 0.177667 0.511500 0.752340 1 32 1.000000
  32 18.738852 0.760763 43.010609 0.433969 0.893554 0.115031 0.511320 0.740840 1 32 1.000000
  32 18.905977 0.606326 43.263775 0.598916 0.713972 0.362688 0.545940 0.740840 1 32 1.000000
band
  32 18.738852 0.760763 43.010609 0.433969 0.893554 0.115031 0.511320 0.740840 1 32 1.000000
  32 18.796204 0.708598 42.950649 0.402145 0.898173 0.177667 0.511500 0.752340 1 32 1.000000
  32 18.583681 0.806459 42.598637 0.245804 0.937097 -0.247851 0.464010 0.752340 1 32 1.000000
band
  32 18.796204 0.708598 42.950649 0.402145 0.898173 0.177667 0.511500 0.752340 1 32 1.000000
  32 19.440922 0.754572 42.056931 -0.189012 0.981013 0.043439 0.465930 0.877550 1 32 1.000000
  32 18.583681 0.806459 42.598637 0.245804 0.937097 -0.247851 0.464010 0.752340 1 32 1.000000
band
  32 18.571171 -1.055520 43.100311 -0.419760 -0.740409 0.524971 0.777480 0.710880 1 32 1.000000
  32 18.284227 -0.955906 42.653793 -0.725341 -0.687953 0.024522 0.834110 0.710880 1 32 1.000000
  32 18.349169 -1.011876 42.584854 -0.496585 -0.837861 -0.226698 0.835150 0.727760 1 32 1.000000
band
  32 18.349169 -1.011876 42.584854 -0.496585 -0.837861 -0.226698 0.835150 0.727760 1 32 1.000000
  32 18.655373 -1.118495 43.062126 -0.113989 -0.919981 0.375021 0.778880 0.727760 1 32 1.000000
  32 18.571171 -1.055520 43.100311 -0.419760 -0.740409 0.524971 0.777480 0.710880 1 32 1.000000
band
  32 18.867119 -0.610293 43.525124 -0.111855 -0.369722 0.922385 0.703640 0.710880 1 32 1.000000
  32 18.571171 -1.055520 43.100311 -0.419760 -0.740409 0.524971 0.777480 0.710880 1 32 1.000000
  32 18.655373 -1.118495 43.062126 -0.113989 -0.919981 0.375021 0.778880 0.727760 1 32 1.000000
band
  32 18.655373 -1.118495 43.062126 -0.113989 -0.919981 0.375021 0.778880 0.727760 1 32 1.000000
  32 18.968433 -0.643859 43.512875 0.252203 -0.443652 0.859980 0.704630 0.727760 1 32 1.000000
  32 18.867119 -0.610293 43.525124 -0.111855 -0.369722 0.922385 0.703640 0.710880 1 32 1.000000
band
  32 18.915802 0.098072 43.587688 -0.035784 0.169122 0.984945 0.614190 0.710880 1 32 1.000000
  32 18.867119 -0.610293 43.525124 -0.111855 -0.369722 0.922385 0.703640 0.710880 1 32 1.000000
  32 18.968433 -0.643859 43.512875 0.252203 -0.443652 0.859980 0.704630 0.727760 1 32 1.000000
band
  32 18.968433 -0.643859 43.512875 0.252203 -0.443652 0.859980 0.704630 0.727760 1 32 1.000000
  32 19.019690 0.115993 43.579971 0.297397 0.218249 0.929474 0.611500 0.727760 1 32 1.000000
  32 18.915802 0.098072 43.587688 -0.035784 0.169122 0.984945 0.614190 0.710880 1 32 1.000000
band
  32 19.440922 0.754572 42.056931 -0.189012 0.981013 0.043439 0.465930 0.877550 1 32 1.000000
  32 18.375542 0.634392 42.263165 -0.162317 0.746048 -0.645807 0.414690 0.752340 1 32 1.000000
  32 18.583681 0.806459 42.598637 0.245804 0.937097 -0.247851 0.464010 0.752340 1 32 1.000000
band
  32 18.513866 0.865450 42.636707 0.245804 0.937097 -0.247851 0.464010 0.740840 1 32 1.000000
  32 18.583681 0.806459 42.598637 0.245804 0.937097 -0.247851 0.464010 0.752340 1 32 1.000000
  32 18.375542 0.634392 42.263165 -0.162317 0.746048 -0.645807 0.414690 0.752340 1 32 1.000000
band
  32 18.583681 0.806459 42.598637 0.245804 0.937097 -0.247851 0.464010 0.752340 1 32 1.000000
  32 18.513866 0.865450 42.636707 0.245804 0.937097 -0.247851 0.464010 0.740840 1 32 1.000000
  32 18.738852 0.760763 43.010609 0.433969 0.893554 0.115031 0.511320 0.740840 1 32 1.000000
band
  32 18.738852 0.760763 43.010609 0.433969 0.893554 0.115031 0.511320 0.740840 1 32 1.000000
  32 18.513866 0.865450 42.636707 0.245804 0.937097 -0.247851 0.464010 0.740840 1 32 1.000000
  32 18.437380 0.865394 42.690262 -0.302008 0.949199 0.088389 0.464310 0.727760 1 32 1.000000
band
  32 18.437380 0.865394 42.690262 -0.302008 0.949199 0.088389 0.464310 0.727760 1 32 1.000000
  32 18.662367 0.760706 43.064163 -0.048208 0.904167 0.424450 0.511330 0.727760 1 32 1.000000
  32 18.738852 0.760763 43.010609 0.433969 0.893554 0.115031 0.511320 0.740840 1 32 1.000000
band
  32 18.577406 0.704312 43.102341 -0.323883 0.789310 0.521622 0.511110 0.710880 1 32 1.000000
  32 18.662367 0.760706 43.064163 -0.048208 0.904167 0.424450 0.511330 0.727760 1 32 1.000000
  32 18.437380 0.865394 42.690262 -0.302008 0.949199 0.088389 0.464310 0.727760 1 32 1.000000
band
  32 18.662367 0.760706 43.064163 -0.048208 0.904167 0.424450 0.511330 0.727760 1 32 1.000000
  32 18.577406 0.704312 43.102341 -0.323883 0.789310 0.521622 0.511110 0.710880 1 32 1.000000
  32 18.734144 0.559657 43.339371 -0.151633 0.597856 0.787131 0.548040 0.710880 1 32 1.000000
band
  32 18.734144 0.559657 43.339371 -0.151633 0.597856 0.787131 0.548040 0.710880 1 32 1.000000
  32 18.577406 0.704312 43.102341 -0.323883 0.789310 0.521622 0.511110 0.710880 1 32 1.000000
  32 18.558001 0.428958 42.994053 -0.871336 -0.099865 0.480417 0.509460 0.671960 1 32 1.000000
band
  32 18.558001 0.428958 42.994053 -0.871336 -0.099865 0.480417 0.509460 0.671960 1 32 1.000000
  32 18.668318 0.307067 43.164173 -0.871336 -0.099865 0.480417 0.561640 0.671960 1 32 1.000000
  32 18.734144 0.559657 43.339371 -0.151633 0.597856 0.787131 0.548040 0.710880 1 32 1.000000
band
  32 18.915802 0.098072 43.587688 -0.035784 0.169122 0.984945 0.614190 0.710880 1 32 1.000000
  32 18.734144 0.559657 43.339371 -0.151633 0.597856 0.787131 0.548040 0.710880 1 32 1.000000
  32 18.668318 0.307067 43.164173 -0.871336 -0.099865 0.480417 0.561640 0.671960 1 32 1.000000
band
  32 18.668318 0.307067 43.164173 -0.871336 -0.099865 0.480417 0.561640 0.671960 1 32 1.000000
  32 18.760942 -0.005525 43.291882 -0.896843 -0.041486 0.440400 0.624900 0.671960 1 32 1.000000
  32 18.915802 0.098072 43.587688 -0.035784 0.169122 0.984945 0.614190 0.710880 1 32 1.000000
band
  32 18.915802 0.098072 43.587688 -0.035784 0.169122 0.984945 0.614190 0.710880 1 32 1.000000
  32 18.760942 -0.005525 43.291882 -0.896843 -0.041486 0.440400 0.624900 0.671960 1 32 1.000000
  32 18.751450 -0.433269 43.232162 -0.913166 0.086417 0.398322 0.696170 0.671960 1 32 1.000000
band
  32 18.751450 -0.433269 43.232162 -0.913166 0.086417 0.398322 0.696170 0.671960 1 32 1.000000
  32 18.867119 -0.610293 43.525124 -0.111855 -0.369722 0.922385 0.703640 0.710880 1 32 1.000000
  32 18.915802 0.098072 43.587688 -0.035784 0.169122 0.984945 0.614190 0.710880 1 32 1.000000
band
  32 18.867119 -0.610293 43.525124 -0.111855 -0.369722 0.922385 0.703640 0.710880 1 32 1.000000
  32 18.751450 -0.433269 43.232162 -0.913166 0.086417 0.398322 0.696170 0.671960 1 32 1.000000
  32 18.622746 -0.775596 43.029495 -0.846650 0.212536 0.487864 0.766810 0.671960 1 32 1.000000
band
  32 18.622746 -0.775596 43.029495 -0.846650 0.212536 0.487864 0.766810 0.671960 1 32 1.000000
  32 18.571171 -1.055520 43.100311 -0.419760 -0.740409 0.524971 0.777480 0.710880 1 32 1.000000
  32 18.867119 -0.610293 43.525124 -0.111855 -0.369722 0.922385 0.703640 0.710880 1 32 1.000000
band
  32 18.571171 -1.055520 43.100311 -0.419760 -0.740409 0.524971 0.777480 0.710880 1 32 1.000000
  32 18.622746 -0.775596 43.029495 -0.846650 0.212536 0.487864 0.766810 0.671960 1 32 1.000000
  32 18.400562 -0.702119 42.716858 -0.770213 0.203177 0.604558 0.833610 0.671960 1 32 1.000000
band
  32 18.400562 -0.702119 42.716858 -0.770213 0.203177 0.604558 0.833610 0.671960 1 32 1.000000
  32 18.284227 -0.955906 42.653793 -0.725341 -0.687953 0.024522 0.834110 0.710880 1 32 1.000000
  32 18.571171 -1.055520 43.100311 -0.419760 -0.740409 0.524971 0.777480 0.710880 1 32 1.000000
band
  32 18.284227 -0.955906 42.653793 -0.725341 -0.687953 0.024522 0.834110 0.710880 1 32 1.000000
  32 18.400562 -0.702119 42.716858 -0.770213 0.203177 0.604558 0.833610 0.671960 1 32 1.000000
  32 18.247919 -0.385716 42.461491 -0.767098 0.085835 0.635761 0.898470 0.671960 1 32 1.000000
band
  32 18.432062 0.411219 42.796276 -0.841811 -0.093661 0.531584 0.463180 0.671960 1 32 1.000000
  32 18.558001 0.428958 42.994053 -0.871336 -0.099865 0.480417 0.509460 0.671960 1 32 1.000000
  32 18.577406 0.704312 43.102341 -0.323883 0.789310 0.521622 0.511110 0.710880 1 32 1.000000
band
  32 18.577406 0.704312 43.102341 -0.323883 0.789310 0.521622 0.511110 0.710880 1 32 1.000000
  32 18.366423 0.802302 42.752335 -0.553126 0.801327 0.227874 0.464790 0.710880 1 32 1.000000
  32 18.432062 0.411219 42.796276 -0.841811 -0.093661 0.531584 0.463180 0.671960 1 32 1.000000
band
  32 18.301262 0.324370 42.582275 -0.816235 -0.067340 0.573782 0.419210 0.671960 1 32 1.000000
  32 18.432062 0.411219 42.796276 -0.841811 -0.093661 0.531584 0.463180 0.671960 1 32 1.000000
  32 18.366423 0.802302 42.752335 -0.553126 0.801327 0.227874 0.464790 0.710880 1 32 1.000000
band
  32 18.366423 0.802302 42.752335 -0.553126 0.801327 0.227874 0.464790 0.710880 1 32 1.000000
  32 18.159176 0.629258 42.418003 -0.822758 0.547140 -0.153969 0.420960 0.710880 1 32 1.000000
  32 18.301262 0.324370 42.582275 -0.816235 -0.067340 0.573782 0.419210 0.671960 1 32 1.000000
band
  32 18.221790 -0.001821 42.446777 -0.784575 -0.020649 0.619690 0.369810 0.671960 1 32 1.000000
  32 18.301262 0.324370 42.582275 -0.816235 -0.067340 0.573782 0.419210 0.671960 1 32 1.000000
  32 18.159176 0.629258 42.418003 -0.822758 0.547140 -0.153969 0.420960 0.710880 1 32 1.000000
band
  32 18.159176 0.629258 42.418003 -0.822758 0.547140 -0.153969 0.420960 0.710880 1 32 1.000000
  32 18.033180 0.033813 42.197266 -0.933733 0.060229 -0.352866 0.341630 0.710880 1 32 1.000000
  32 18.221790 -0.001821 42.446777 -0.784575 -0.020649 0.619690 0.369810 0.671960 1 32 1.000000
band
  32 18.082241 0.043962 42.097878 -0.759801 0.081516 -0.645025 0.335310 0.727760 1 32 1.000000
  32 18.033180 0.033813 42.197266 -0.933733 0.060229 -0.352866 0.341630 0.710880 1 32 1.000000
  32 18.159176 0.629258 42.418003 -0.822758 0.547140 -0.153969 0.420960 0.710880 1 32 1.000000
band
  32 18.159176 0.629258 42.418003 -0.822758 0.547140 -0.153969 0.420960 0.710880 1 32 1.000000
  32 18.217691 0.682518 42.334637 -0.630954 0.662368 -0.403937 0.420710 0.727760 1 32 1.000000
  32 18.082241 0.043962 42.097878 -0.759801 0.081516 -0.645025 0.335310 0.727760 1 32 1.000000
band
  32 18.217691 0.682518 42.334637 -0.630954 0.662368 -0.403937 0.420710 0.727760 1 32 1.000000
  32 18.159176 0.629258 42.418003 -0.822758 0.547140 -0.153969 0.420960 0.710880 1 32 1.000000
  32 18.366423 0.802302 42.752335 -0.553126 0.801327 0.227874 0.464790 0.710880 1 32 1.000000
band
  32 18.366423 0.802302 42.752335 -0.553126 0.801327 0.227874 0.464790 0.710880 1 32 1.000000
  32 18.437380 0.865394 42.690262 -0.302008 0.949199 0.088389 0.464310 0.727760 1 32 1.000000
  32 18.217691 0.682518 42.334637 -0.630954 0.662368 -0.403937 0.420710 0.727760 1 32 1.000000
band
  32 18.437380 0.865394 42.690262 -0.302008 0.949199 0.088389 0.464310 0.727760 1 32 1.000000
  32 18.366423 0.802302 42.752335 -0.553126 0.801327 0.227874 0.464790 0.710880 1 32 1.000000
  32 18.577406 0.704312 43.102341 -0.323883 0.789310 0.521622 0.511110 0.710880 1 32 1.000000
band
  32 19.080997 -0.241147 41.508247 -0.715225 -0.112188 -0.689831 0.948050 0.877550 1 32 1.000000
  32 19.075335 0.080084 41.483341 -0.740766 0.155080 -0.653618 0.979970 0.877550 1 32 1.000000
  32 19.117178 0.094362 41.409176 -0.740766 0.155080 -0.653618 0.988840 0.888970 1 32 1.000000
band
  32 18.249325 0.034627 42.040497 -0.405986 0.110530 -0.907171 0.979970 0.752340 1 32 1.000000
  32 19.075335 0.080084 41.483341 -0.740766 0.155080 -0.653618 0.979970 0.877550 1 32 1.000000
  32 19.080997 -0.241147 41.508247 -0.715225 -0.112188 -0.689831 0.948050 0.877550 1 32 1.000000
band
  32 18.318010 -0.566452 42.163738 -0.384030 -0.423609 -0.820412 0.902530 0.752340 1 32 1.000000
  32 18.249325 0.034627 42.040497 -0.405986 0.110530 -0.907171 0.979970 0.752340 1 32 1.000000
  32 19.080997 -0.241147 41.508247 -0.715225 -0.112188 -0.689831 0.948050 0.877550 1 32 1.000000
band
  32 18.249325 0.034627 42.040497 -0.405986 0.110530 -0.907171 0.979970 0.752340 1 32 1.000000
  32 18.318010 -0.566452 42.163738 -0.384030 -0.423609 -0.820412 0.902530 0.752340 1 32 1.000000
  32 18.231804 -0.595683 42.174034 -0.248598 -0.470432 -0.846695 0.899690 0.740840 1 32 1.000000
band
  32 18.231804 -0.595683 42.174034 -0.248598 -0.470432 -0.846695 0.899690 0.740840 1 32 1.000000
  32 18.158726 0.044019 42.044327 -0.312266 0.084212 -0.946255 0.985350 0.740840 1 32 1.000000
  32 18.249325 0.034627 42.040497 -0.405986 0.110530 -0.907171 0.979970 0.752340 1 32 1.000000
band
  32 18.082241 0.043962 42.097878 -0.759801 0.081516 -0.645025 0.984130 0.727760 1 32 1.000000
  32 18.158726 0.044019 42.044327 -0.312266 0.084212 -0.946255 0.985350 0.740840 1 32 1.000000
  32 18.231804 -0.595683 42.174034 -0.248598 -0.470432 -0.846695 0.899690 0.740840 1 32 1.000000
end
