// Created by Crowbar 0.74
version 1
nodes
  0 "ValveBiped.Bip01_Pelvis" -1
  1 "ValveBiped.Bip01_Spine" 0
  2 "ValveBiped.Bip01_Spine1" 1
  3 "ValveBiped.Bip01_Spine2" 2
  4 "ValveBiped.Bip01_Spine4" 3
  5 "ValveBiped.Bip01_Neck1" 4
  6 "ValveBiped.Bip01_Head1" 5
  7 "ValveBiped.forward" 6
  8 "ValveBiped.Bip01_R_Eye" 6
  9 "ValveBiped.Bip01_L_Eye" 6
  10 "ValveBiped.Bip01_L_Clavicle" 4
  11 "ValveBiped.Bip01_L_UpperArm" 10
  12 "ValveBiped.Bip01_L_Forearm" 11
  13 "ValveBiped.Bip01_L_Ulna" 12
  14 "ValveBiped.Bip01_L_Wrist" 12
  15 "ValveBiped.Bip01_L_Hand" 12
  16 "ValveBiped.Bip01_L_Finger3" 15
  17 "ValveBiped.Bip01_L_Finger31" 16
  18 "ValveBiped.Bip01_L_Finger32" 17
  19 "ValveBiped.Bip01_L_Finger2" 15
  20 "ValveBiped.Bip01_L_Finger21" 19
  21 "ValveBiped.Bip01_L_Finger22" 20
  22 "ValveBiped.Bip01_L_Finger1" 15
  23 "ValveBiped.Bip01_L_Finger11" 22
  24 "ValveBiped.Bip01_L_Finger12" 23
  25 "ValveBiped.Bip01_L_Finger4" 15
  26 "ValveBiped.Bip01_L_Finger41" 25
  27 "ValveBiped.Bip01_L_Finger42" 26
  28 "ValveBiped.Bip01_L_Finger0" 15
  29 "ValveBiped.Bip01_L_Finger01" 28
  30 "ValveBiped.Bip01_L_Finger02" 29
  31 "ValveBiped.Bip01_L_Shoulder" 11
  32 "ValveBiped.Bip01_L_Elbow" 11
  33 "ValveBiped.Bip01_L_Trapezius" 10
  34 "ValveBiped.Bip01_R_Clavicle" 4
  35 "ValveBiped.Bip01_R_UpperArm" 34
  36 "ValveBiped.Bip01_R_Forearm" 35
  37 "ValveBiped.Bip01_R_Hand" 36
  38 "ValveBiped.Bip01_R_Finger2" 37
  39 "ValveBiped.Bip01_R_Finger21" 38
  40 "ValveBiped.Bip01_R_Finger22" 39
  41 "ValveBiped.Bip01_R_Finger1" 37
  42 "ValveBiped.Bip01_R_Finger11" 41
  43 "ValveBiped.Bip01_R_Finger12" 42
  44 "ValveBiped.Bip01_R_Finger3" 37
  45 "ValveBiped.Bip01_R_Finger31" 44
  46 "ValveBiped.Bip01_R_Finger32" 45
  47 "ValveBiped.Bip01_R_Finger4" 37
  48 "ValveBiped.Bip01_R_Finger41" 47
  49 "ValveBiped.Bip01_R_Finger42" 48
  50 "ValveBiped.Bip01_R_Finger0" 37
  51 "ValveBiped.Bip01_R_Finger01" 50
  52 "ValveBiped.Bip01_R_Finger02" 51
  53 "ValveBiped.Bip01_R_Wrist" 36
  54 "ValveBiped.Bip01_R_Ulna" 36
  55 "ValveBiped.Bip01_R_Shoulder" 35
  56 "ValveBiped.Bip01_R_Elbow" 35
  57 "ValveBiped.Bip01_R_Trapezius" 34
  58 "ValveBiped.Bip01_L_Thigh" 0
  59 "ValveBiped.Bip01_L_Calf" 58
  60 "ValveBiped.Bip01_L_Foot" 59
  61 "ValveBiped.Bip01_R_Thigh" 0
  62 "ValveBiped.Bip01_R_Calf" 61
  63 "ValveBiped.Bip01_R_Foot" 62
  64 "j_hair_b_01" 6
  65 "j_hair_b_011" 64
  66 "j_hair_b_012" 65
  67 "j_hair_b_013" 66
  68 "j_hair_b_014" 67
  69 "j_hair_b_015" 68
  70 "j_hair_b_021" 64
  71 "j_hair_b_022" 70
  72 "j_hair_b_023" 71
  73 "j_hair_b_024" 72
  74 "j_hair_b_025" 73
  75 "j_hair_b_041" 64
  76 "j_hair_b_042" 75
  77 "j_hair_b_043" 76
  78 "j_hair_b_044" 77
  79 "j_hair_b_045" 78
  80 "j_hair_b_051" 64
  81 "j_hair_b_052" 80
  82 "j_hair_b_053" 81
  83 "j_hair_b_054" 82
  84 "j_hair_b_055" 83
  85 "j_hair_b_061" 64
  86 "j_hair_b_062" 85
  87 "j_hair_b_063" 86
  88 "j_hair_b_064" 87
  89 "j_hair_b_065" 88
  90 "j_hair_b_071" 64
  91 "j_hair_b_072" 90
  92 "j_hair_b_073" 91
  93 "j_hair_b_074" 92
  94 "j_hair_b_075" 93
  95 "j_hair_b_031" 64
  96 "j_hair_b_032" 95
  97 "j_hair_b_033" 96
  98 "j_hair_b_034" 97
  99 "j_hair_b_035" 98
  100 "j_hair_f_01" 6
  101 "j_hair_f_02" 100
  102 "j_hair_fr_01" 6
  103 "j_hair_fl_01" 6
  104 "j_hair_r_01" 6
  105 "j_hair_l_01" 6
  106 "p_wing_c_01" 4
  107 "p_wing_r_01" 106
  108 "p_wing_l_01" 106
  109 "ValveBiped.Bip01_L_Ankle" 59
  110 "ValveBiped.Bip01_L_Knee" 58
  111 "ValveBiped.Bip01_R_Toe0" 63
  112 "ValveBiped.Bip01_R_Ankle" 62
  113 "ValveBiped.Bip01_R_Knee" 61
  114 "ValveBiped.Bip01_L_Toe0" 60
end
skeleton
  time 0
    0 0.000000 0.000000 0.000000 0.000000 0.000000 -1.570796
    1 0.000000 0.000000 0.000000 0.000000 0.000000 0.000000
    2 0.000000 0.000000 0.000000 0.000000 0.000000 0.000000
    3 0.000000 0.000000 0.000000 0.000000 0.000000 0.000000
    4 0.000000 0.000000 0.000000 0.000000 0.000000 0.000000
    5 0.000000 0.000000 0.000000 0.000000 0.000000 0.000000
    6 0.000000 0.000000 0.000000 0.000000 0.000000 0.000000
    7 -0.000004 -0.000004 0.000000 0.000000 0.000000 0.000000
    8 0.000000 0.000000 0.000000 0.000000 0.000000 0.000000
    9 0.000000 0.000000 0.000000 0.000000 0.000000 0.000000
    10 0.000000 0.000000 0.000000 0.000000 0.000000 0.000000
    11 0.000000 0.000000 0.000000 0.000000 0.000000 0.000000
    12 0.000000 0.000000 0.000000 0.000000 0.000000 0.000000
    13 0.000000 0.000000 0.000000 0.000000 0.000000 0.000000
    14 0.000000 0.000000 0.000000 0.000000 0.000000 0.000000
    15 0.000000 0.000000 0.000000 0.000000 0.000000 0.000000
    16 0.000000 0.000000 0.000000 0.000000 0.000000 0.000000
    17 0.000000 0.000000 0.000000 0.000000 0.000000 0.000000
    18 0.000000 0.000000 0.000000 0.000000 0.000000 0.000000
    19 0.000000 0.000000 0.000000 0.000000 0.000000 0.000000
    20 0.000000 0.000000 0.000000 0.000000 0.000000 0.000000
    21 0.000000 0.000000 0.000000 0.000000 0.000000 0.000000
    22 0.000000 0.000000 0.000000 0.000000 0.000000 0.000000
    23 0.000000 0.000000 0.000000 0.000000 0.000000 0.000000
    24 0.000000 0.000000 0.000000 0.000000 0.000000 0.000000
    25 0.000000 0.000000 0.000000 0.000000 0.000000 0.000000
    26 0.000000 0.000000 0.000000 0.000000 0.000000 0.000000
    27 0.000000 0.000000 0.000000 0.000000 0.000000 0.000000
    28 0.000000 0.000000 0.000000 0.000000 0.000000 0.000000
    29 0.000000 0.000000 0.000000 0.000000 0.000000 0.000000
    30 0.000000 0.000000 0.000000 0.000000 0.000000 0.000000
    31 0.000000 0.000000 0.000000 0.000000 0.000000 0.000000
    32 0.000000 0.000000 0.000000 0.000000 0.000000 0.000000
    33 0.000000 0.000000 0.000000 -0.000001 -0.000002 0.000002
    34 0.000000 0.000000 0.000000 0.000000 0.000000 0.000000
    35 0.000000 0.000000 0.000000 0.000000 0.000000 0.000000
    36 0.000000 0.000000 0.000000 0.000000 0.000000 0.000000
    37 0.000000 0.000000 0.000000 0.000000 0.000000 0.000000
    38 0.000000 0.000000 0.000000 0.000000 0.000000 0.000000
    39 0.000000 0.000000 0.000000 0.000000 0.000000 0.000000
    40 0.000000 0.000000 0.000000 0.000000 0.000000 0.000000
    41 0.000000 0.000000 0.000000 0.000000 0.000000 0.000000
    42 0.000000 0.000000 0.000000 0.000000 0.000000 0.000000
    43 0.000000 0.000000 0.000000 0.000000 0.000000 0.000000
    44 0.000000 0.000000 0.000000 0.000000 0.000000 0.000000
    45 0.000000 0.000000 0.000000 0.000000 0.000000 0.000000
    46 0.000000 0.000000 0.000000 0.000000 0.000000 0.000000
    47 0.000000 0.000000 0.000000 0.000000 0.000000 0.000000
    48 0.000000 0.000000 0.000000 0.000000 0.000000 0.000000
    49 0.000000 0.000000 0.000000 0.000000 0.000000 0.000000
    50 0.000000 0.000000 0.000000 0.000000 0.000000 0.000000
    51 0.000000 0.000000 0.000000 0.000000 0.000000 0.000000
    52 0.000000 0.000000 0.000000 0.000000 0.000000 0.000000
    53 0.000000 0.000000 0.000000 0.000000 0.000000 0.000000
    54 0.000000 0.000000 0.000000 0.000000 0.000000 0.000000
    55 0.000000 0.000000 0.000000 0.000004 0.000001 0.000005
    56 0.000000 0.000000 0.000000 0.000000 0.000000 0.000000
    57 0.000000 0.000000 0.000000 0.000002 -0.000003 0.000006
    58 0.000000 0.000000 0.000000 0.000000 0.000000 0.000000
    59 0.000000 0.000000 0.000000 0.000000 0.000000 0.000000
    60 0.000000 0.000000 0.000000 0.000000 0.000000 0.000000
    61 0.000000 0.000000 0.000000 0.000000 0.000000 0.000000
    62 0.000000 0.000000 0.000000 0.000000 0.000000 0.000000
    63 0.000000 0.000000 0.000000 0.000000 0.000000 0.000000
    64 7.838810 6.460746 -0.010600 -0.000003 0.000004 2.556780
    65 1.795998 0.000000 0.000000 0.034014 0.420080 0.389860
    66 12.693279 0.000010 -0.000004 0.000000 0.000000 0.204715
    67 14.397278 -0.000021 -0.000004 0.000000 0.000000 -0.003575
    68 14.182587 0.000000 -0.000008 0.000000 0.000000 -0.002292
    69 11.238811 -0.000006 -0.000002 0.000000 0.000000 0.074577
    70 1.796021 0.000008 0.000000 0.013064 0.281255 0.345385
    71 12.495441 0.000008 -0.000001 0.000000 0.000000 0.218223
    72 14.264744 0.000004 0.000002 0.000000 0.000000 -0.015021
    73 14.315907 -0.000010 0.000003 0.000000 0.000000 0.008428
    74 10.998483 0.000000 -0.000001 0.000000 0.000000 0.067886
    75 1.796005 -0.000011 0.000000 -0.000001 0.000000 0.341128
    76 12.211094 0.000000 0.000000 0.000000 0.000000 0.135281
    77 14.351528 0.000000 0.000000 0.000000 0.000000 0.061742
    78 14.240404 0.000000 0.000000 0.000000 0.000000 -0.001125
    79 10.626455 0.000002 0.000000 0.000000 0.000000 -0.015238
    80 1.796021 0.000008 0.000000 -0.003249 -0.143342 0.328360
    81 12.448360 0.000011 0.000000 0.000000 0.000000 0.181920
    82 14.022095 0.000000 0.000002 0.000000 0.000000 0.019288
    83 13.727724 -0.000004 -0.000001 0.000000 0.000000 0.017582
    84 11.751338 0.000006 -0.000004 0.000000 0.000000 0.028943
    85 1.796005 -0.000011 0.000000 -0.013760 -0.288079 0.355381
    86 12.201801 -0.000004 -0.000006 0.000000 0.000000 0.200657
    87 13.727722 -0.000004 0.000002 0.000000 0.000000 -0.026888
    88 14.050240 -0.000006 -0.000002 0.000000 0.000000 0.068499
    89 11.467726 -0.000076 -0.000004 0.000000 0.000000 0.000719
    90 1.796005 -0.000011 0.000000 -0.033588 -0.413297 0.386574
    91 12.348488 0.000010 -0.000004 0.000000 0.000000 0.216387
    92 13.917492 0.000004 -0.000006 0.000000 0.000000 -0.027174
    93 13.326015 0.000000 -0.000002 0.000000 0.000000 0.019387
    94 12.015517 -0.000031 0.000004 0.000000 0.000000 0.029158
    95 1.796024 0.000004 0.000000 0.003044 0.134524 0.328332
    96 12.448383 0.000008 0.000000 0.000000 0.000000 0.187607
    97 13.887730 0.000004 -0.000001 0.000000 0.000000 0.022613
    98 14.264746 0.000006 -0.000001 0.000000 0.000000 -0.009326
    99 11.346076 0.000008 0.000000 0.000000 0.000000 0.059512
    100 7.951519 -3.887465 -0.205244 -1.575307 0.054810 -3.066612
    101 2.581451 0.000001 -0.000004 -0.000001 0.000000 -0.023750
    102 7.462284 -3.217740 2.206808 -1.570797 -0.036015 -2.984453
    103 8.022854 -3.128915 -2.191640 -1.570796 -0.023246 -2.984453
    104 4.493595 -2.010132 4.287770 -1.570798 0.292063 -2.984453
    105 5.194363 -1.899093 -4.650998 -1.570798 -0.254472 -2.984453
    106 0.000000 0.000000 0.000000 0.000000 0.000000 0.000000
    107 1.969006 -0.000021 0.000000 1.570833 -1.452447 -0.030330
    108 1.969017 0.000000 0.000000 1.570819 1.388424 -0.030273
    109 0.000000 0.000000 0.000000 0.000000 0.000000 0.000009
    110 0.000000 0.000000 0.000000 0.000000 0.000000 0.000000
    111 0.000000 0.000000 0.000000 0.000000 0.000000 0.000000
    112 0.000000 0.000000 0.000000 0.000000 0.000000 0.000000
    113 0.000000 0.000000 0.000000 0.000000 0.000000 0.000000
    114 0.000000 0.000000 0.000000 0.000000 0.000000 0.000000
end
