version 1
nodes
0 "root" -1
end
skeleton
time 0
0 0 0 0 0 0 0
end
triangles
lilpeanuthomu
0  9.750889 -0.585236 57.631271  0.965355 0.110850 0.236225  0.392256 0.376366 0
0  13.552902 0.005835 41.816601  0.965355 0.110850 0.236225  0.629722 0.525087 0
0  9.694571 0.005835 57.584057  0.965355 0.110850 0.236225  0.657873 0.546995 0
lilpeanuthomu
0  5.041959 1.128914 41.757549  1.000000 0.000001 0.000000  0.692383 0.627116 0
0  5.041959 -0.008909 57.817074  1.000000 0.000001 0.000000  0.754257 0.877073 0
0  5.041959 -0.008909 41.988678  1.000000 0.000001 0.000000  0.693273 0.877073 0
lilpeanuthomu
0  0.022179 1.128914 41.857269  0.000000 1.000000 0.000000  0.553249 0.722853 0
0  5.041959 1.128914 57.720776  0.000000 1.000000 0.000000  0.614368 0.972810 0
0  5.041959 1.128914 41.757549  0.000000 1.000000 0.000000  0.552865 0.972810 0
lilpeanuthomu
0  0.022179 -0.008909 42.088406  -1.000000 0.000000 0.000000  0.580493 0.693024 0
0  0.022179 1.128914 57.970837  -1.000000 0.000000 0.000000  0.641685 0.942981 0
0  0.022179 1.128914 41.857269  -1.000000 0.000000 0.000000  0.579603 0.942981 0
lilpeanuthomu
0  5.041959 -0.008909 41.988678  0.000000 -1.000000 0.000000  0.846743 0.630592 0
0  0.022179 -0.008909 58.067139  0.000000 -1.000000 0.000000  0.908690 0.880548 0
0  0.022179 -0.008909 42.088406  0.000000 -1.000000 0.000000  0.847127 0.880548 0
lilpeanuthomu
0  9.750889 -0.585236 57.631271  0.000000 -1.000000 0.000000  0.290133 0.771322 0
0  -3.124752 -0.585236 42.267994  0.000000 -1.000000 0.000000  0.200398 0.669396 0
0  13.591581 -0.585236 41.935902  0.000000 -1.000000 0.000000  0.316749 0.663501 0
lilpeanuthomu
0  -1.120167 0.005835 58.122791  0.000000 1.000000 -0.000000  0.634689 0.942975 0
0  13.552902 0.005835 41.816601  0.000000 1.000000 -0.000000  0.527600 0.920042 0
0  -3.124178 0.005835 42.147907  0.000000 1.000000 -0.000000  0.649328 0.920930 0
lilpeanuthomu
0  9.750889 -0.585236 57.631271  0.049577 0.084228 0.995212  0.517756 0.243484 0
0  -1.120167 0.005835 58.122791  0.049577 0.084228 0.995212  0.862311 0.415137 0
0  -1.129472 -0.585236 58.173279  0.049577 0.084228 0.995212  0.441972 0.250121 0
lilpeanuthomu
0  -3.124178 0.005835 42.147907  -0.991881 0.026243 0.124429  0.817892 0.436156 0
0  -1.129472 -0.585236 58.173279  -0.991881 0.026243 0.124429  0.382913 0.293185 0
0  -1.120167 0.005835 58.122791  -0.991881 0.026243 0.124429  0.803252 0.458200 0
lilpeanuthomu
0  13.591581 -0.585236 41.935902  -0.019465 -0.199035 -0.979799  0.447171 0.263624 0
0  -3.124178 0.005835 42.147907  -0.019465 -0.199035 -0.979799  0.779750 0.521053 0
0  13.552902 0.005835 41.816601  -0.019465 -0.199035 -0.979799  0.658022 0.520165 0
lilpeanuthomu
0  5.041959 -0.008909 41.988678  -0.019463 -0.199029 -0.979800  0.699425 0.755264 0
0  0.022179 1.128914 41.857269  -0.019463 -0.199029 -0.979800  0.559401 0.601044 0
0  5.041959 1.128914 41.757549  -0.019463 -0.199029 -0.979800  0.698535 0.505307 0
lilpeanuthomu
0  5.041959 1.128914 57.720776  0.049578 0.084229 0.995212  0.614368 0.972810 0
0  0.022179 -0.008909 58.067139  0.049578 0.084229 0.995212  0.642056 0.693024 0
0  5.041959 -0.008909 57.817074  0.049578 0.084229 0.995212  0.907726 0.630592 0
lilpeanuthomu
0  9.750889 -0.585236 57.631271  0.965355 0.110852 0.236224  0.392256 0.376366 0
0  13.591581 -0.585236 41.935902  0.965355 0.110852 0.236224  0.418872 0.268545 0
0  13.552902 0.005835 41.816601  0.965355 0.110852 0.236224  0.629722 0.525087 0
lilpeanuthomu
0  5.041959 1.128914 41.757549  1.000000 -0.000001 0.000000  0.692383 0.627116 0
0  5.041959 1.128914 57.720776  1.000000 -0.000001 0.000000  0.753886 0.627116 0
0  5.041959 -0.008909 57.817074  1.000000 -0.000001 0.000000  0.754257 0.877073 0
lilpeanuthomu
0  0.022179 1.128914 41.857269  0.000000 1.000000 0.000000  0.553249 0.722853 0
0  0.022179 1.128914 57.970837  0.000000 1.000000 0.000000  0.615332 0.722853 0
0  5.041959 1.128914 57.720776  0.000000 1.000000 0.000000  0.614368 0.972810 0
lilpeanuthomu
0  0.022179 -0.008909 42.088406  -1.000000 -0.000000 0.000000  0.580493 0.693024 0
0  0.022179 -0.008909 58.067139  -1.000000 -0.000000 0.000000  0.642056 0.693024 0
0  0.022179 1.128914 57.970837  -1.000000 -0.000000 0.000000  0.641685 0.942981 0
lilpeanuthomu
0  5.041959 -0.008909 41.988678  0.000000 -1.000000 0.000000  0.846743 0.630592 0
0  5.041959 -0.008909 57.817074  0.000000 -1.000000 0.000000  0.907726 0.630592 0
0  0.022179 -0.008909 58.067139  0.000000 -1.000000 0.000000  0.908690 0.880548 0
lilpeanuthomu
0  9.750889 -0.585236 57.631271  0.000000 -1.000000 0.000000  0.290133 0.771322 0
0  -1.129472 -0.585236 58.173279  0.000000 -1.000000 0.000000  0.214350 0.777959 0
0  -3.124752 -0.585236 42.267994  0.000000 -1.000000 0.000000  0.200398 0.669396 0
lilpeanuthomu
0  -1.120167 0.005835 58.122791  0.000000 1.000000 0.000000  0.634689 0.942975 0
0  9.694571 0.005835 57.584057  0.000000 1.000000 0.000000  0.555751 0.941951 0
0  13.552902 0.005835 41.816601  0.000000 1.000000 0.000000  0.527600 0.920042 0
lilpeanuthomu
0  9.750889 -0.585236 57.631271  0.049576 0.084221 0.995213  0.517756 0.243484 0
0  9.694571 0.005835 57.584057  0.049576 0.084221 0.995213  0.783373 0.414113 0
0  -1.120167 0.005835 58.122791  0.049576 0.084221 0.995213  0.862311 0.415137 0
lilpeanuthomu
0  -3.124178 0.005835 42.147907  -0.991881 0.026242 0.124429  0.817892 0.436156 0
0  -3.124752 -0.585236 42.267994  -0.991881 0.026242 0.124429  0.368961 0.184622 0
0  -1.129472 -0.585236 58.173279  -0.991881 0.026242 0.124429  0.382913 0.293185 0
lilpeanuthomu
0  13.591581 -0.585236 41.935902  -0.019465 -0.199044 -0.979797  0.447171 0.263624 0
0  -3.124752 -0.585236 42.267994  -0.019465 -0.199044 -0.979797  0.330819 0.269519 0
0  -3.124178 0.005835 42.147907  -0.019465 -0.199044 -0.979797  0.779750 0.521053 0
lilpeanuthomu
0  5.041959 -0.008909 41.988678  -0.019467 -0.199035 -0.979799  0.699425 0.755264 0
0  0.022179 -0.008909 42.088406  -0.019467 -0.199035 -0.979799  0.586645 0.571216 0
0  0.022179 1.128914 41.857269  -0.019467 -0.199035 -0.979799  0.559401 0.601044 0
lilpeanuthomu
0  5.041959 1.128914 57.720776  0.049578 0.084232 0.995212  0.614368 0.972810 0
0  0.022179 1.128914 57.970837  0.049578 0.084232 0.995212  0.615332 0.722853 0
0  0.022179 -0.008909 58.067139  0.049578 0.084232 0.995212  0.642056 0.693024 0
end
