// Created by Crowbar 0.74
version 1
nodes
  0 "static_prop" -1
end
skeleton
  time 0
    0 0.000000 0.000000 0.000000 0.000000 0.000000 0.000000
end
triangles
  phy
    0 910.813639 -207.494150 53.177330 0.942656 -0.172649 0.285643 0 0
    0 878.676767 -216.308579 49.147268 0.967381 -0.178974 0.179284 0 0
    0 881.227508 -216.254287 -13.029726 0.959464 0.177407 0.218988 0 0
  phy
    0 881.227508 -216.254287 -13.029726 0.959464 0.177407 0.218988 0 0
    0 912.944013 -207.614148 -14.827571 0.936106 0.192908 0.294097 0 0
    0 910.813639 -207.494150 53.177330 0.942656 -0.172649 0.285643 0 0
  phy
    0 874.986273 -203.378182 -28.384351 0.473881 0.879218 -0.049125 0 0
    0 905.029117 -191.284390 -34.301018 0.489151 0.868929 0.075462 0 0
    0 881.227508 -216.254287 -13.029726 0.959464 0.177407 0.218988 0 0
  phy
    0 905.029117 -191.284390 -34.301018 0.489151 0.868929 0.075462 0 0
    0 912.944013 -207.614148 -14.827571 0.936106 0.192908 0.294097 0 0
    0 881.227508 -216.254287 -13.029726 0.959464 0.177407 0.218988 0 0
  phy
    0 878.676767 -216.308579 49.147268 0.967381 -0.178974 0.179284 0 0
    0 847.920545 -222.108308 -10.038661 0.928002 0.112338 -0.355236 0 0
    0 881.227508 -216.254287 -13.029726 0.959464 0.177407 0.218988 0 0
  phy
    0 881.227508 -216.254287 -13.029726 0.959464 0.177407 0.218988 0 0
    0 847.920545 -222.108308 -10.038661 0.928002 0.112338 -0.355236 0 0
    0 874.986273 -203.378182 -28.384351 0.473881 0.879218 -0.049125 0 0
  phy
    0 934.227170 -178.085387 -37.223936 0.289398 0.954890 0.066585 0 0
    0 943.062850 -196.322944 -15.477909 0.908482 0.200636 0.366614 0 0
    0 905.029117 -191.284390 -34.301018 0.489151 0.868929 0.075462 0 0
  phy
    0 943.062850 -196.322944 -15.477909 0.908482 0.200636 0.366614 0 0
    0 934.227170 -178.085387 -37.223936 0.289398 0.954890 0.066585 0 0
    0 962.952216 -164.282754 -38.496261 0.359141 0.894933 0.264789 0 0
  phy
    0 934.227170 -178.085387 -37.223936 0.289398 0.954890 0.066585 0 0
    0 948.544900 -136.358841 -39.613744 -0.402783 0.903505 -0.146441 0 0
    0 962.952216 -164.282754 -38.496261 0.359141 0.894933 0.264789 0 0
  phy
    0 948.544900 -136.358841 -39.613744 -0.402783 0.903505 -0.146441 0 0
    0 934.227170 -178.085387 -37.223936 0.289398 0.954890 0.066585 0 0
    0 920.607199 -151.685880 -38.280403 -0.274177 0.934456 -0.227199 0 0
  phy
    0 934.227170 -178.085387 -37.223936 0.289398 0.954890 0.066585 0 0
    0 905.029117 -191.284390 -34.301018 0.489151 0.868929 0.075462 0 0
    0 892.832298 -167.643179 -35.247139 -0.244302 0.928671 -0.279080 0 0
  phy
    0 934.227170 -178.085387 -37.223936 0.289398 0.954890 0.066585 0 0
    0 892.832298 -167.643179 -35.247139 -0.244302 0.928671 -0.279080 0 0
    0 920.607199 -151.685880 -38.280403 -0.274177 0.934456 -0.227199 0 0
  phy
    0 874.986273 -203.378182 -28.384351 0.473881 0.879218 -0.049125 0 0
    0 847.920545 -222.108308 -10.038661 0.928002 0.112338 -0.355236 0 0
    0 844.132581 -214.292346 -19.358960 0.570876 0.707982 -0.415767 0 0
  phy
    0 874.986273 -203.378182 -28.384351 0.473881 0.879218 -0.049125 0 0
    0 844.132581 -214.292346 -19.358960 0.570876 0.707982 -0.415767 0 0
    0 838.294668 -202.977545 -19.811767 -0.123732 0.883351 -0.452086 0 0
  phy
    0 865.369256 -184.738204 -29.130264 -0.199637 0.909524 -0.364570 0 0
    0 874.986273 -203.378182 -28.384351 0.473881 0.879218 -0.049125 0 0
    0 838.294668 -202.977545 -19.811767 -0.123732 0.883351 -0.452086 0 0
  phy
    0 905.029117 -191.284390 -34.301018 0.489151 0.868929 0.075462 0 0
    0 874.986273 -203.378182 -28.384351 0.473881 0.879218 -0.049125 0 0
    0 865.369256 -184.738204 -29.130264 -0.199637 0.909524 -0.364570 0 0
  phy
    0 943.062850 -196.322944 -15.477909 0.908482 0.200636 0.366614 0 0
    0 912.944013 -207.614148 -14.827571 0.936106 0.192908 0.294097 0 0
    0 905.029117 -191.284390 -34.301018 0.489151 0.868929 0.075462 0 0
  phy
    0 892.832298 -167.643179 -35.247139 -0.244302 0.928671 -0.279080 0 0
    0 905.029117 -191.284390 -34.301018 0.489151 0.868929 0.075462 0 0
    0 865.369256 -184.738204 -29.130264 -0.199637 0.909524 -0.364570 0 0
  phy
    0 863.458453 -183.698474 63.151112 -0.259528 -0.844023 -0.469330 0 0
    0 873.074945 -202.338170 63.897043 0.402137 -0.909098 -0.108752 0 0
    0 890.409590 -166.325081 70.613904 -0.325230 -0.860327 -0.392510 0 0
  phy
    0 890.409590 -166.325081 70.613904 -0.325230 -0.860327 -0.392510 0 0
    0 873.074945 -202.338170 63.897043 0.402137 -0.909098 -0.108752 0 0
    0 902.606033 -189.965391 71.559863 0.392427 -0.919783 -0.000482 0 0
  phy
    0 902.606033 -189.965391 71.559863 0.392427 -0.919783 -0.000482 0 0
    0 917.900040 -150.213298 75.074481 -0.200554 -0.950230 -0.238412 0 0
    0 890.409590 -166.325081 70.613904 -0.325230 -0.860327 -0.392510 0 0
  phy
    0 890.409590 -166.325081 70.613904 -0.325230 -0.860327 -0.392510 0 0
    0 909.058578 -131.978313 53.328107 -0.819721 -0.197154 -0.537762 0 0
    0 882.494168 -149.995398 51.140673 -0.776114 -0.188776 -0.601673 0 0
  phy
    0 917.900040 -150.213298 75.074481 -0.200554 -0.950230 -0.238412 0 0
    0 909.058578 -131.978313 53.328107 -0.819721 -0.197154 -0.537762 0 0
    0 890.409590 -166.325081 70.613904 -0.325230 -0.860327 -0.392510 0 0
  phy
    0 890.409590 -166.325081 70.613904 -0.325230 -0.860327 -0.392510 0 0
    0 857.217744 -170.821843 47.796655 -0.728541 -0.171199 -0.663263 0 0
    0 863.458453 -183.698474 63.151112 -0.259528 -0.844023 -0.469330 0 0
  phy
    0 882.494168 -149.995398 51.140673 -0.776114 -0.188776 -0.601673 0 0
    0 857.217744 -170.821843 47.796655 -0.728541 -0.171199 -0.663263 0 0
    0 890.409590 -166.325081 70.613904 -0.325230 -0.860327 -0.392510 0 0
  phy
    0 931.521588 -176.613500 76.130967 0.431439 -0.897139 0.094877 0 0
    0 902.606033 -189.965391 71.559863 0.392427 -0.919783 -0.000482 0 0
    0 941.946075 -195.711692 55.878594 0.865573 -0.364698 0.343190 0 0
  phy
    0 902.606033 -189.965391 71.559863 0.392427 -0.919783 -0.000482 0 0
    0 940.892077 -196.173135 55.734755 0.918546 -0.219816 0.328563 0 0
    0 941.946075 -195.711692 55.878594 0.865573 -0.364698 0.343190 0 0
  phy
    0 941.946075 -195.711692 55.878594 0.865573 -0.364698 0.343190 0 0
    0 970.898050 -183.059212 57.529164 0.858584 -0.179857 0.480087 0 0
    0 931.521588 -176.613500 76.130967 0.431439 -0.897139 0.094877 0 0
  phy
    0 943.062850 -196.322944 -15.477909 0.908482 0.200636 0.366614 0 0
    0 970.898050 -183.059212 57.529164 0.858584 -0.179857 0.480087 0 0
    0 941.946075 -195.711692 55.878594 0.865573 -0.364698 0.343190 0 0
  phy
    0 941.946075 -195.711692 55.878594 0.865573 -0.364698 0.343190 0 0
    0 940.892077 -196.173135 55.734755 0.918546 -0.219816 0.328563 0 0
    0 943.062850 -196.322944 -15.477909 0.908482 0.200636 0.366614 0 0
  phy
    0 878.676767 -216.308579 49.147268 0.967381 -0.178974 0.179284 0 0
    0 842.972553 -213.660969 53.027596 0.646940 -0.515939 -0.561495 0 0
    0 847.440329 -221.847042 44.347658 0.989996 -0.127935 -0.059508 0 0
  phy
    0 847.440329 -221.847042 44.347658 0.989996 -0.127935 -0.059508 0 0
    0 847.920545 -222.108308 -10.038661 0.928002 0.112338 -0.355236 0 0
    0 878.676767 -216.308579 49.147268 0.967381 -0.178974 0.179284 0 0
  phy
    0 847.440329 -221.847042 44.347658 0.989996 -0.127935 -0.059508 0 0
    0 842.972553 -213.660969 53.027596 0.646940 -0.515939 -0.561495 0 0
    0 847.920545 -222.108308 -10.038661 0.928002 0.112338 -0.355236 0 0
  phy
    0 910.813639 -207.494150 53.177330 0.942656 -0.172649 0.285643 0 0
    0 873.074945 -202.338170 63.897043 0.402137 -0.909098 -0.108752 0 0
    0 878.676767 -216.308579 49.147268 0.967381 -0.178974 0.179284 0 0
  phy
    0 902.606033 -189.965391 71.559863 0.392427 -0.919783 -0.000482 0 0
    0 873.074945 -202.338170 63.897043 0.402137 -0.909098 -0.108752 0 0
    0 910.813639 -207.494150 53.177330 0.942656 -0.172649 0.285643 0 0
  phy
    0 910.813639 -207.494150 53.177330 0.942656 -0.172649 0.285643 0 0
    0 940.892077 -196.173135 55.734755 0.918546 -0.219816 0.328563 0 0
    0 902.606033 -189.965391 71.559863 0.392427 -0.919783 -0.000482 0 0
  phy
    0 910.813639 -207.494150 53.177330 0.942656 -0.172649 0.285643 0 0
    0 912.944013 -207.614148 -14.827571 0.936106 0.192908 0.294097 0 0
    0 943.062850 -196.322944 -15.477909 0.908482 0.200636 0.366614 0 0
  phy
    0 943.062850 -196.322944 -15.477909 0.908482 0.200636 0.366614 0 0
    0 940.892077 -196.173135 55.734755 0.918546 -0.219816 0.328563 0 0
    0 910.813639 -207.494150 53.177330 0.942656 -0.172649 0.285643 0 0
  phy
    0 837.136216 -202.352156 52.575446 0.352817 -0.334160 -0.873989 0 0
    0 873.074945 -202.338170 63.897043 0.402137 -0.909098 -0.108752 0 0
    0 863.458453 -183.698474 63.151112 -0.259528 -0.844023 -0.469330 0 0
  phy
    0 842.972553 -213.660969 53.027596 0.646940 -0.515939 -0.561495 0 0
    0 873.074945 -202.338170 63.897043 0.402137 -0.909098 -0.108752 0 0
    0 837.136216 -202.352156 52.575446 0.352817 -0.334160 -0.873989 0 0
  phy
    0 837.136216 -202.352156 52.575446 0.352817 -0.334160 -0.873989 0 0
    0 833.829144 -194.798267 -11.132909 -0.022601 0.082137 -0.996365 0 0
    0 847.920545 -222.108308 -10.038661 0.928002 0.112338 -0.355236 0 0
  phy
    0 842.972553 -213.660969 53.027596 0.646940 -0.515939 -0.561495 0 0
    0 837.136216 -202.352156 52.575446 0.352817 -0.334160 -0.873989 0 0
    0 847.920545 -222.108308 -10.038661 0.928002 0.112338 -0.355236 0 0
  phy
    0 863.458453 -183.698474 63.151112 -0.259528 -0.844023 -0.469330 0 0
    0 833.346675 -194.531050 43.254593 -0.618472 -0.142588 -0.772762 0 0
    0 837.136216 -202.352156 52.575446 0.352817 -0.334160 -0.873989 0 0
  phy
    0 833.829144 -194.798267 -11.132909 -0.022601 0.082137 -0.996365 0 0
    0 837.136216 -202.352156 52.575446 0.352817 -0.334160 -0.873989 0 0
    0 833.346675 -194.531050 43.254593 -0.618472 -0.142588 -0.772762 0 0
  phy
    0 855.851061 -173.016646 -14.285891 -0.710344 0.185212 -0.679049 0 0
    0 833.829144 -194.798267 -11.132909 -0.022601 0.082137 -0.996365 0 0
    0 833.346675 -194.531050 43.254593 -0.618472 -0.142588 -0.772762 0 0
  phy
    0 857.217744 -170.821843 47.796655 -0.728541 -0.171199 -0.663263 0 0
    0 855.851061 -173.016646 -14.285891 -0.710344 0.185212 -0.679049 0 0
    0 833.346675 -194.531050 43.254593 -0.618472 -0.142588 -0.772762 0 0
  phy
    0 882.172472 -151.433569 -16.863290 -0.784661 0.088259 -0.613610 0 0
    0 855.851061 -173.016646 -14.285891 -0.710344 0.185212 -0.679049 0 0
    0 857.217744 -170.821843 47.796655 -0.728541 -0.171199 -0.663263 0 0
  phy
    0 855.851061 -173.016646 -14.285891 -0.710344 0.185212 -0.679049 0 0
    0 882.172472 -151.433569 -16.863290 -0.784661 0.088259 -0.613610 0 0
    0 865.369256 -184.738204 -29.130264 -0.199637 0.909524 -0.364570 0 0
  phy
    0 833.829144 -194.798267 -11.132909 -0.022601 0.082137 -0.996365 0 0
    0 855.851061 -173.016646 -14.285891 -0.710344 0.185212 -0.679049 0 0
    0 838.294668 -202.977545 -19.811767 -0.123732 0.883351 -0.452086 0 0
  phy
    0 855.851061 -173.016646 -14.285891 -0.710344 0.185212 -0.679049 0 0
    0 865.369256 -184.738204 -29.130264 -0.199637 0.909524 -0.364570 0 0
    0 838.294668 -202.977545 -19.811767 -0.123732 0.883351 -0.452086 0 0
  phy
    0 882.172472 -151.433569 -16.863290 -0.784661 0.088259 -0.613610 0 0
    0 882.494168 -149.995398 51.140673 -0.776114 -0.188776 -0.601673 0 0
    0 909.058578 -131.978313 53.328107 -0.819721 -0.197154 -0.537762 0 0
  phy
    0 882.172472 -151.433569 -16.863290 -0.784661 0.088259 -0.613610 0 0
    0 909.058578 -131.978313 53.328107 -0.819721 -0.197154 -0.537762 0 0
    0 883.498304 -150.540870 -17.111527 -0.761586 0.342151 -0.550382 0 0
  phy
    0 865.369256 -184.738204 -29.130264 -0.199637 0.909524 -0.364570 0 0
    0 882.172472 -151.433569 -16.863290 -0.784661 0.088259 -0.613610 0 0
    0 883.498304 -150.540870 -17.111527 -0.761586 0.342151 -0.550382 0 0
  phy
    0 882.494168 -149.995398 51.140673 -0.776114 -0.188776 -0.601673 0 0
    0 882.172472 -151.433569 -16.863290 -0.784661 0.088259 -0.613610 0 0
    0 857.217744 -170.821843 47.796655 -0.728541 -0.171199 -0.663263 0 0
  phy
    0 844.132581 -214.292346 -19.358960 0.570876 0.707982 -0.415767 0 0
    0 833.829144 -194.798267 -11.132909 -0.022601 0.082137 -0.996365 0 0
    0 838.294668 -202.977545 -19.811767 -0.123732 0.883351 -0.452086 0 0
  phy
    0 833.829144 -194.798267 -11.132909 -0.022601 0.082137 -0.996365 0 0
    0 844.132581 -214.292346 -19.358960 0.570876 0.707982 -0.415767 0 0
    0 847.920545 -222.108308 -10.038661 0.928002 0.112338 -0.355236 0 0
  phy
    0 892.832298 -167.643179 -35.247139 -0.244302 0.928671 -0.279080 0 0
    0 910.177156 -132.590166 -18.027838 -0.781144 0.367924 -0.504427 0 0
    0 920.607199 -151.685880 -38.280403 -0.274177 0.934456 -0.227199 0 0
  phy
    0 910.177156 -132.590166 -18.027838 -0.781144 0.367924 -0.504427 0 0
    0 892.832298 -167.643179 -35.247139 -0.244302 0.928671 -0.279080 0 0
    0 883.498304 -150.540870 -17.111527 -0.761586 0.342151 -0.550382 0 0
  phy
    0 892.832298 -167.643179 -35.247139 -0.244302 0.928671 -0.279080 0 0
    0 865.369256 -184.738204 -29.130264 -0.199637 0.909524 -0.364570 0 0
    0 883.498304 -150.540870 -17.111527 -0.761586 0.342151 -0.550382 0 0
  phy
    0 945.682601 -134.801114 77.879612 -0.333109 -0.930805 -0.150468 0 0
    0 909.058578 -131.978313 53.328107 -0.819721 -0.197154 -0.537762 0 0
    0 917.900040 -150.213298 75.074481 -0.200554 -0.950230 -0.238412 0 0
  phy
    0 936.333363 -115.512487 54.878100 -0.893136 -0.199899 -0.402925 0 0
    0 909.058578 -131.978313 53.328107 -0.819721 -0.197154 -0.537762 0 0
    0 945.682601 -134.801114 77.879612 -0.333109 -0.930805 -0.150468 0 0
  phy
    0 1032.328568 -93.624873 73.138217 -0.547074 -0.835180 -0.056435 0 0
    0 936.333363 -115.512487 54.878100 -0.893136 -0.199899 -0.402925 0 0
    0 945.682601 -134.801114 77.879612 -0.333109 -0.930805 -0.150468 0 0
  phy
    0 945.682601 -134.801114 77.879612 -0.333109 -0.930805 -0.150468 0 0
    0 1044.018062 -116.280036 74.044893 0.108498 -0.953848 0.280004 0 0
    0 1032.328568 -93.624873 73.138217 -0.547074 -0.835180 -0.056435 0 0
  phy
    0 945.682601 -134.801114 77.879612 -0.333109 -0.930805 -0.150468 0 0
    0 960.090067 -162.724322 78.997124 0.346480 -0.916220 0.201228 0 0
    0 1044.018062 -116.280036 74.044893 0.108498 -0.953848 0.280004 0 0
  phy
    0 917.900040 -150.213298 75.074481 -0.200554 -0.950230 -0.238412 0 0
    0 960.090067 -162.724322 78.997124 0.346480 -0.916220 0.201228 0 0
    0 945.682601 -134.801114 77.879612 -0.333109 -0.930805 -0.150468 0 0
  phy
    0 931.521588 -176.613500 76.130967 0.431439 -0.897139 0.094877 0 0
    0 917.900040 -150.213298 75.074481 -0.200554 -0.950230 -0.238412 0 0
    0 902.606033 -189.965391 71.559863 0.392427 -0.919783 -0.000482 0 0
  phy
    0 931.521588 -176.613500 76.130967 0.431439 -0.897139 0.094877 0 0
    0 960.090067 -162.724322 78.997124 0.346480 -0.916220 0.201228 0 0
    0 917.900040 -150.213298 75.074481 -0.200554 -0.950230 -0.238412 0 0
  phy
    0 970.898050 -183.059212 57.529164 0.858584 -0.179857 0.480087 0 0
    0 960.090067 -162.724322 78.997124 0.346480 -0.916220 0.201228 0 0
    0 931.521588 -176.613500 76.130967 0.431439 -0.897139 0.094877 0 0
  phy
    0 857.217744 -170.821843 47.796655 -0.728541 -0.171199 -0.663263 0 0
    0 833.346675 -194.531050 43.254593 -0.618472 -0.142588 -0.772762 0 0
    0 863.458453 -183.698474 63.151112 -0.259528 -0.844023 -0.469330 0 0
  phy
    0 948.544900 -136.358841 -39.613744 -0.402783 0.903505 -0.146441 0 0
    0 910.177156 -132.590166 -18.027838 -0.781144 0.367924 -0.504427 0 0
    0 937.274422 -116.261460 -18.156307 -0.881957 0.211726 -0.421099 0 0
  phy
    0 910.177156 -132.590166 -18.027838 -0.781144 0.367924 -0.504427 0 0
    0 948.544900 -136.358841 -39.613744 -0.402783 0.903505 -0.146441 0 0
    0 920.607199 -151.685880 -38.280403 -0.274177 0.934456 -0.227199 0 0
  phy
    0 937.274422 -116.261460 -18.156307 -0.881957 0.211726 -0.421099 0 0
    0 910.177156 -132.590166 -18.027838 -0.781144 0.367924 -0.504427 0 0
    0 909.058578 -131.978313 53.328107 -0.819721 -0.197154 -0.537762 0 0
  phy
    0 909.058578 -131.978313 53.328107 -0.819721 -0.197154 -0.537762 0 0
    0 910.177156 -132.590166 -18.027838 -0.781144 0.367924 -0.504427 0 0
    0 883.498304 -150.540870 -17.111527 -0.761586 0.342151 -0.550382 0 0
  phy
    0 943.062850 -196.322944 -15.477909 0.908482 0.200636 0.366614 0 0
    0 972.300101 -183.571418 -15.494579 0.846698 0.206149 0.490515 0 0
    0 970.898050 -183.059212 57.529164 0.858584 -0.179857 0.480087 0 0
  phy
    0 943.062850 -196.322944 -15.477909 0.908482 0.200636 0.366614 0 0
    0 962.952216 -164.282754 -38.496261 0.359141 0.894933 0.264789 0 0
    0 972.300101 -183.571418 -15.494579 0.846698 0.206149 0.490515 0 0
  phy
    0 948.544900 -136.358841 -39.613744 -0.402783 0.903505 -0.146441 0 0
    0 937.274422 -116.261460 -18.156307 -0.881957 0.211726 -0.421099 0 0
    0 1025.705638 -78.498322 -12.669038 -0.948321 0.225660 -0.223079 0 0
  phy
    0 948.544900 -136.358841 -39.613744 -0.402783 0.903505 -0.146441 0 0
    0 1025.705638 -78.498322 -12.669038 -0.948321 0.225660 -0.223079 0 0
    0 1034.651253 -94.888567 -30.049480 -0.381069 0.882728 0.274914 0 0
  phy
    0 962.952216 -164.282754 -38.496261 0.359141 0.894933 0.264789 0 0
    0 948.544900 -136.358841 -39.613744 -0.402783 0.903505 -0.146441 0 0
    0 1034.651253 -94.888567 -30.049480 -0.381069 0.882728 0.274914 0 0
  phy
    0 878.676767 -216.308579 49.147268 0.967381 -0.178974 0.179284 0 0
    0 873.074945 -202.338170 63.897043 0.402137 -0.909098 -0.108752 0 0
    0 842.972553 -213.660969 53.027596 0.646940 -0.515939 -0.561495 0 0
  phy
    0 1032.328568 -93.624873 73.138217 -0.547074 -0.835180 -0.056435 0 0
    0 1024.743478 -77.974937 54.475585 -0.964880 -0.184525 -0.186967 0 0
    0 936.333363 -115.512487 54.878100 -0.893136 -0.199899 -0.402925 0 0
  phy
    0 1044.018062 -116.280036 74.044893 0.108498 -0.953848 0.280004 0 0
    0 1075.471668 -86.658583 44.980913 -0.457646 -0.012994 0.889040 0 0
    0 1032.328568 -93.624873 73.138217 -0.547074 -0.835180 -0.056435 0 0
  phy
    0 1032.328568 -93.624873 73.138217 -0.547074 -0.835180 -0.056435 0 0
    0 1075.471668 -86.658583 44.980913 -0.457646 -0.012994 0.889040 0 0
    0 1024.743478 -77.974937 54.475585 -0.964880 -0.184525 -0.186967 0 0
  phy
    0 970.898050 -183.059212 57.529164 0.858584 -0.179857 0.480087 0 0
    0 1052.963677 -132.670703 56.664625 0.699935 -0.331133 0.632805 0 0
    0 960.090067 -162.724322 78.997124 0.346480 -0.916220 0.201228 0 0
  phy
    0 970.898050 -183.059212 57.529164 0.858584 -0.179857 0.480087 0 0
    0 972.300101 -183.571418 -15.494579 0.846698 0.206149 0.490515 0 0
    0 1053.821759 -133.404169 -10.356528 0.740795 0.188225 0.644821 0 0
  phy
    0 1053.821759 -133.404169 -10.356528 0.740795 0.188225 0.644821 0 0
    0 1052.963677 -132.670703 56.664625 0.699935 -0.331133 0.632805 0 0
    0 970.898050 -183.059212 57.529164 0.858584 -0.179857 0.480087 0 0
  phy
    0 962.952216 -164.282754 -38.496261 0.359141 0.894933 0.264789 0 0
    0 1046.340372 -117.544856 -29.142823 0.081691 0.772638 0.629569 0 0
    0 1053.821759 -133.404169 -10.356528 0.740795 0.188225 0.644821 0 0
  phy
    0 1046.340372 -117.544856 -29.142823 0.081691 0.772638 0.629569 0 0
    0 962.952216 -164.282754 -38.496261 0.359141 0.894933 0.264789 0 0
    0 1034.651253 -94.888567 -30.049480 -0.381069 0.882728 0.274914 0 0
  phy
    0 1046.340372 -117.544856 -29.142823 0.081691 0.772638 0.629569 0 0
    0 1075.471668 -86.658583 44.980913 -0.457646 -0.012994 0.889040 0 0
    0 1053.821759 -133.404169 -10.356528 0.740795 0.188225 0.644821 0 0
  phy
    0 1046.340372 -117.544856 -29.142823 0.081691 0.772638 0.629569 0 0
    0 1034.651253 -94.888567 -30.049480 -0.381069 0.882728 0.274914 0 0
    0 1075.471668 -86.658583 44.980913 -0.457646 -0.012994 0.889040 0 0
  phy
    0 937.274422 -116.261460 -18.156307 -0.881957 0.211726 -0.421099 0 0
    0 936.333363 -115.512487 54.878100 -0.893136 -0.199899 -0.402925 0 0
    0 1025.705638 -78.498322 -12.669038 -0.948321 0.225660 -0.223079 0 0
  phy
    0 1025.705638 -78.498322 -12.669038 -0.948321 0.225660 -0.223079 0 0
    0 936.333363 -115.512487 54.878100 -0.893136 -0.199899 -0.402925 0 0
    0 1024.743478 -77.974937 54.475585 -0.964880 -0.184525 -0.186967 0 0
  phy
    0 936.333363 -115.512487 54.878100 -0.893136 -0.199899 -0.402925 0 0
    0 937.274422 -116.261460 -18.156307 -0.881957 0.211726 -0.421099 0 0
    0 909.058578 -131.978313 53.328107 -0.819721 -0.197154 -0.537762 0 0
  phy
    0 962.952216 -164.282754 -38.496261 0.359141 0.894933 0.264789 0 0
    0 1053.821759 -133.404169 -10.356528 0.740795 0.188225 0.644821 0 0
    0 972.300101 -183.571418 -15.494579 0.846698 0.206149 0.490515 0 0
  phy
    0 1044.018062 -116.280036 74.044893 0.108498 -0.953848 0.280004 0 0
    0 1052.963677 -132.670703 56.664625 0.699935 -0.331133 0.632805 0 0
    0 1075.471668 -86.658583 44.980913 -0.457646 -0.012994 0.889040 0 0
  phy
    0 960.090067 -162.724322 78.997124 0.346480 -0.916220 0.201228 0 0
    0 1052.963677 -132.670703 56.664625 0.699935 -0.331133 0.632805 0 0
    0 1044.018062 -116.280036 74.044893 0.108498 -0.953848 0.280004 0 0
  phy
    0 1075.471668 -86.658583 44.980913 -0.457646 -0.012994 0.889040 0 0
    0 1052.963677 -132.670703 56.664625 0.699935 -0.331133 0.632805 0 0
    0 1053.821759 -133.404169 -10.356528 0.740795 0.188225 0.644821 0 0
  phy
    0 1025.705638 -78.498322 -12.669038 -0.948321 0.225660 -0.223079 0 0
    0 1075.471668 -86.658583 44.980913 -0.457646 -0.012994 0.889040 0 0
    0 1034.651253 -94.888567 -30.049480 -0.381069 0.882728 0.274914 0 0
  phy
    0 1075.471668 -86.658583 44.980913 -0.457646 -0.012994 0.889040 0 0
    0 1025.705638 -78.498322 -12.669038 -0.948321 0.225660 -0.223079 0 0
    0 1024.743478 -77.974937 54.475585 -0.964880 -0.184525 -0.186967 0 0
  phy
    0 944.466403 -284.409241 -2.400867 0.616021 -0.205078 -0.760566 0 0
    0 976.260478 -297.578902 -2.400868 0.382176 0.923218 -0.040130 0 0
    0 954.668691 -274.207836 19.416149 0.275325 -0.941767 -0.193059 0 0
  phy
    0 954.668691 -274.207836 19.416149 0.275325 -0.941767 -0.193059 0 0
    0 976.260478 -297.578902 -2.400868 0.382176 0.923218 -0.040130 0 0
    0 976.260103 -283.151349 19.416151 0.560406 -0.822349 0.098430 0 0
  phy
    0 954.668691 -274.207836 19.416149 0.275325 -0.941767 -0.193059 0 0
    0 1006.795928 -252.615861 19.416159 -0.000004 -0.940182 0.340672 0 0
    0 954.668691 -231.024243 19.416153 -0.155026 -0.975671 -0.155026 0 0
  phy
    0 976.260103 -283.151349 19.416151 0.560406 -0.822349 0.098430 0 0
    0 1006.795928 -252.615861 19.416159 -0.000004 -0.940182 0.340672 0 0
    0 954.668691 -274.207836 19.416149 0.275325 -0.941767 -0.193059 0 0
  phy
    0 944.466403 -284.409241 -2.400867 0.616021 -0.205078 -0.760566 0 0
    0 954.668691 -274.207836 19.416149 0.275325 -0.941767 -0.193059 0 0
    0 945.725028 -252.615486 19.416149 -0.000004 -0.637345 -0.770579 0 0
  phy
    0 954.668691 -231.024243 19.416153 -0.155026 -0.975671 -0.155026 0 0
    0 945.725028 -252.615486 19.416149 -0.000004 -0.637345 -0.770579 0 0
    0 954.668691 -274.207836 19.416149 0.275325 -0.941767 -0.193059 0 0
  phy
    0 997.852340 -274.207761 19.416154 0.482514 -0.731003 0.482509 0 0
    0 976.260103 -283.151349 19.416151 0.560406 -0.822349 0.098430 0 0
    0 1008.054478 -284.409861 -2.400867 0.676949 -0.288942 0.676943 0 0
  phy
    0 1008.054478 -284.409861 -2.400867 0.676949 -0.288942 0.676943 0 0
    0 1006.795928 -252.615861 19.416159 -0.000004 -0.940182 0.340672 0 0
    0 997.852340 -274.207761 19.416154 0.482514 -0.731003 0.482509 0 0
  phy
    0 997.852340 -274.207761 19.416154 0.482514 -0.731003 0.482509 0 0
    0 1006.795928 -252.615861 19.416159 -0.000004 -0.940182 0.340672 0 0
    0 976.260103 -283.151349 19.416151 0.560406 -0.822349 0.098430 0 0
  phy
    0 997.852040 -231.024224 19.416157 -0.613485 -0.662265 0.430164 0 0
    0 1008.053577 -220.822011 -2.400864 -0.616027 -0.205075 0.760562 0 0
    0 976.260403 -207.653121 -2.400864 -0.749424 0.657399 0.078683 0 0
  phy
    0 976.259952 -222.080693 19.416156 -0.560408 -0.822346 -0.098434 0 0
    0 997.852040 -231.024224 19.416157 -0.613485 -0.662265 0.430164 0 0
    0 976.260403 -207.653121 -2.400864 -0.749424 0.657399 0.078683 0 0
  phy
    0 997.852040 -231.024224 19.416157 -0.613485 -0.662265 0.430164 0 0
    0 1006.795928 -252.615861 19.416159 -0.000004 -0.940182 0.340672 0 0
    0 1008.053577 -220.822011 -2.400864 -0.616027 -0.205075 0.760562 0 0
  phy
    0 976.259952 -222.080693 19.416156 -0.560408 -0.822346 -0.098434 0 0
    0 1006.795928 -252.615861 19.416159 -0.000004 -0.940182 0.340672 0 0
    0 997.852040 -231.024224 19.416157 -0.613485 -0.662265 0.430164 0 0
  phy
    0 944.466403 -284.409241 -2.400867 0.616021 -0.205078 -0.760566 0 0
    0 931.297588 -252.615936 -2.400866 -0.000002 0.979946 -0.199263 0 0
    0 976.260478 -297.578902 -2.400868 0.382176 0.923218 -0.040130 0 0
  phy
    0 931.297588 -252.615936 -2.400866 -0.000002 0.979946 -0.199263 0 0
    0 944.466403 -284.409241 -2.400867 0.616021 -0.205078 -0.760566 0 0
    0 945.725028 -252.615486 19.416149 -0.000004 -0.637345 -0.770579 0 0
  phy
    0 944.466929 -220.822537 -2.400864 -0.404471 0.820249 -0.404470 0 0
    0 954.668691 -231.024243 19.416153 -0.155026 -0.975671 -0.155026 0 0
    0 976.259952 -222.080693 19.416156 -0.560408 -0.822346 -0.098434 0 0
  phy
    0 954.668691 -231.024243 19.416153 -0.155026 -0.975671 -0.155026 0 0
    0 944.466929 -220.822537 -2.400864 -0.404471 0.820249 -0.404470 0 0
    0 945.725028 -252.615486 19.416149 -0.000004 -0.637345 -0.770579 0 0
  phy
    0 954.668691 -231.024243 19.416153 -0.155026 -0.975671 -0.155026 0 0
    0 1006.795928 -252.615861 19.416159 -0.000004 -0.940182 0.340672 0 0
    0 976.259952 -222.080693 19.416156 -0.560408 -0.822346 -0.098434 0 0
  phy
    0 944.466929 -220.822537 -2.400864 -0.404471 0.820249 -0.404470 0 0
    0 976.259952 -222.080693 19.416156 -0.560408 -0.822346 -0.098434 0 0
    0 976.260403 -207.653121 -2.400864 -0.749424 0.657399 0.078683 0 0
  phy
    0 944.466929 -220.822537 -2.400864 -0.404471 0.820249 -0.404470 0 0
    0 931.297588 -252.615936 -2.400866 -0.000002 0.979946 -0.199263 0 0
    0 945.725028 -252.615486 19.416149 -0.000004 -0.637345 -0.770579 0 0
  phy
    0 931.297588 -252.615936 -2.400866 -0.000002 0.979946 -0.199263 0 0
    0 944.466929 -220.822537 -2.400864 -0.404471 0.820249 -0.404470 0 0
    0 1021.223444 -252.616237 -2.400866 -0.000002 0.989889 0.141845 0 0
  phy
    0 1021.223444 -252.616237 -2.400866 -0.000002 0.989889 0.141845 0 0
    0 944.466929 -220.822537 -2.400864 -0.404471 0.820249 -0.404470 0 0
    0 976.260403 -207.653121 -2.400864 -0.749424 0.657399 0.078683 0 0
  phy
    0 976.260103 -283.151349 19.416151 0.560406 -0.822349 0.098430 0 0
    0 976.260478 -297.578902 -2.400868 0.382176 0.923218 -0.040130 0 0
    0 1008.054478 -284.409861 -2.400867 0.676949 -0.288942 0.676943 0 0
  phy
    0 1021.223444 -252.616237 -2.400866 -0.000002 0.989889 0.141845 0 0
    0 1006.795928 -252.615861 19.416159 -0.000004 -0.940182 0.340672 0 0
    0 1008.054478 -284.409861 -2.400867 0.676949 -0.288942 0.676943 0 0
  phy
    0 1021.223444 -252.616237 -2.400866 -0.000002 0.989889 0.141845 0 0
    0 1008.054478 -284.409861 -2.400867 0.676949 -0.288942 0.676943 0 0
    0 976.260478 -297.578902 -2.400868 0.382176 0.923218 -0.040130 0 0
  phy
    0 1008.053577 -220.822011 -2.400864 -0.616027 -0.205075 0.760562 0 0
    0 1006.795928 -252.615861 19.416159 -0.000004 -0.940182 0.340672 0 0
    0 1021.223444 -252.616237 -2.400866 -0.000002 0.989889 0.141845 0 0
  phy
    0 1008.053577 -220.822011 -2.400864 -0.616027 -0.205075 0.760562 0 0
    0 1021.223444 -252.616237 -2.400866 -0.000002 0.989889 0.141845 0 0
    0 976.260403 -207.653121 -2.400864 -0.749424 0.657399 0.078683 0 0
  phy
    0 931.297588 -252.615936 -2.400866 -0.000002 0.979946 -0.199263 0 0
    0 1021.223444 -252.616237 -2.400866 -0.000002 0.989889 0.141845 0 0
    0 976.260478 -297.578902 -2.400868 0.382176 0.923218 -0.040130 0 0
  phy
    0 501.473645 -356.764756 22.506226 0.197869 -0.952215 0.232667 0 0
    0 514.241466 -376.061267 9.559900 0.413131 -0.774863 0.478445 0 0
    0 518.192982 -332.913586 19.909603 0.028268 -0.811022 0.584332 0 0
  phy
    0 462.336953 -407.331046 16.507858 0.331755 -0.929072 0.163595 0 0
    0 514.241466 -376.061267 9.559900 0.413131 -0.774863 0.478445 0 0
    0 501.473645 -356.764756 22.506226 0.197869 -0.952215 0.232667 0 0
  phy
    0 501.473645 -356.764756 22.506226 0.197869 -0.952215 0.232667 0 0
    0 518.192982 -332.913586 19.909603 0.028268 -0.811022 0.584332 0 0
    0 500.193018 -319.348283 23.232670 -0.129269 -0.984409 0.119281 0 0
  phy
    0 500.193018 -319.348283 23.232670 -0.129269 -0.984409 0.119281 0 0
    0 476.510919 -350.063767 25.771204 0.024927 -0.997273 -0.069462 0 0
    0 501.473645 -356.764756 22.506226 0.197869 -0.952215 0.232667 0 0
  phy
    0 501.473645 -356.764756 22.506226 0.197869 -0.952215 0.232667 0 0
    0 476.510919 -350.063767 25.771204 0.024927 -0.997273 -0.069462 0 0
    0 462.336953 -407.331046 16.507858 0.331755 -0.929072 0.163595 0 0
  phy
    0 482.100239 -310.784588 20.406678 -0.392565 -0.886027 -0.246675 0 0
    0 476.510919 -350.063767 25.771204 0.024927 -0.997273 -0.069462 0 0
    0 500.193018 -319.348283 23.232670 -0.129269 -0.984409 0.119281 0 0
  phy
    0 518.192982 -332.913586 19.909603 0.028268 -0.811022 0.584332 0 0
    0 502.927735 -304.185387 14.965591 -0.577383 -0.758445 0.302308 0 0
    0 500.193018 -319.348283 23.232670 -0.129269 -0.984409 0.119281 0 0
  phy
    0 500.193018 -319.348283 23.232670 -0.129269 -0.984409 0.119281 0 0
    0 502.927735 -304.185387 14.965591 -0.577383 -0.758445 0.302308 0 0
    0 482.100239 -310.784588 20.406678 -0.392565 -0.886027 -0.246675 0 0
  phy
    0 445.367408 -356.053180 18.068449 -0.127870 -0.929431 -0.346133 0 0
    0 482.100239 -310.784588 20.406678 -0.392565 -0.886027 -0.246675 0 0
    0 435.151829 -326.273122 7.908363 -0.322210 -0.842150 -0.432394 0 0
  phy
    0 445.367408 -356.053180 18.068449 -0.127870 -0.929431 -0.346133 0 0
    0 476.510919 -350.063767 25.771204 0.024927 -0.997273 -0.069462 0 0
    0 482.100239 -310.784588 20.406678 -0.392565 -0.886027 -0.246675 0 0
  phy
    0 432.211133 -406.929076 16.742447 0.073654 -0.978016 -0.195090 0 0
    0 476.510919 -350.063767 25.771204 0.024927 -0.997273 -0.069462 0 0
    0 445.367408 -356.053180 18.068449 -0.127870 -0.929431 -0.346133 0 0
  phy
    0 435.151829 -326.273122 7.908363 -0.322210 -0.842150 -0.432394 0 0
    0 403.287993 -411.667711 5.087515 -0.114503 -0.858430 -0.499988 0 0
    0 445.367408 -356.053180 18.068449 -0.127870 -0.929431 -0.346133 0 0
  phy
    0 445.367408 -356.053180 18.068449 -0.127870 -0.929431 -0.346133 0 0
    0 403.287993 -411.667711 5.087515 -0.114503 -0.858430 -0.499988 0 0
    0 432.211133 -406.929076 16.742447 0.073654 -0.978016 -0.195090 0 0
  phy
    0 518.192982 -332.913586 19.909603 0.028268 -0.811022 0.584332 0 0
    0 514.241466 -376.061267 9.559900 0.413131 -0.774863 0.478445 0 0
    0 537.807810 -373.964685 -9.766376 0.220338 -0.596063 0.772114 0 0
  phy
    0 537.807810 -373.964685 -9.766376 0.220338 -0.596063 0.772114 0 0
    0 543.523849 -319.646024 -3.907211 -0.578232 -0.234806 0.781354 0 0
    0 518.192982 -332.913586 19.909603 0.028268 -0.811022 0.584332 0 0
  phy
    0 543.523849 -319.646024 -3.907211 -0.578232 -0.234806 0.781354 0 0
    0 502.927735 -304.185387 14.965591 -0.577383 -0.758445 0.302308 0 0
    0 518.192982 -332.913586 19.909603 0.028268 -0.811022 0.584332 0 0
  phy
    0 465.718893 -434.058933 0.711726 0.551062 -0.708992 0.440070 0 0
    0 514.241466 -376.061267 9.559900 0.413131 -0.774863 0.478445 0 0
    0 462.336953 -407.331046 16.507858 0.331755 -0.929072 0.163595 0 0
  phy
    0 462.336953 -407.331046 16.507858 0.331755 -0.929072 0.163595 0 0
    0 440.242497 -445.881190 0.611778 0.880636 -0.383998 -0.277536 0 0
    0 465.718893 -434.058933 0.711726 0.551062 -0.708992 0.440070 0 0
  phy
    0 465.718893 -434.058933 0.711726 0.551062 -0.708992 0.440070 0 0
    0 440.242497 -445.881190 0.611778 0.880636 -0.383998 -0.277536 0 0
    0 459.309676 -452.939544 -16.182426 0.816168 -0.317862 0.482528 0 0
  phy
    0 465.718893 -434.058933 0.711726 0.551062 -0.708992 0.440070 0 0
    0 534.780420 -398.821192 -22.065771 0.669928 -0.196274 0.716012 0 0
    0 514.241466 -376.061267 9.559900 0.413131 -0.774863 0.478445 0 0
  phy
    0 459.309676 -452.939544 -16.182426 0.816168 -0.317862 0.482528 0 0
    0 534.780420 -398.821192 -22.065771 0.669928 -0.196274 0.716012 0 0
    0 465.718893 -434.058933 0.711726 0.551062 -0.708992 0.440070 0 0
  phy
    0 462.336953 -407.331046 16.507858 0.331755 -0.929072 0.163595 0 0
    0 476.510919 -350.063767 25.771204 0.024927 -0.997273 -0.069462 0 0
    0 432.211133 -406.929076 16.742447 0.073654 -0.978016 -0.195090 0 0
  phy
    0 432.211133 -406.929076 16.742447 0.073654 -0.978016 -0.195090 0 0
    0 413.731252 -432.208805 7.259940 0.502887 -0.809131 -0.303994 0 0
    0 462.336953 -407.331046 16.507858 0.331755 -0.929072 0.163595 0 0
  phy
    0 462.336953 -407.331046 16.507858 0.331755 -0.929072 0.163595 0 0
    0 413.731252 -432.208805 7.259940 0.502887 -0.809131 -0.303994 0 0
    0 440.242497 -445.881190 0.611778 0.880636 -0.383998 -0.277536 0 0
  phy
    0 537.807810 -373.964685 -9.766376 0.220338 -0.596063 0.772114 0 0
    0 555.816485 -340.489966 -33.358176 -0.165748 0.639197 0.750969 0 0
    0 543.523849 -319.646024 -3.907211 -0.578232 -0.234806 0.781354 0 0
  phy
    0 534.780420 -398.821192 -22.065771 0.669928 -0.196274 0.716012 0 0
    0 555.816485 -340.489966 -33.358176 -0.165748 0.639197 0.750969 0 0
    0 537.807810 -373.964685 -9.766376 0.220338 -0.596063 0.772114 0 0
  phy
    0 514.241466 -376.061267 9.559900 0.413131 -0.774863 0.478445 0 0
    0 534.780420 -398.821192 -22.065771 0.669928 -0.196274 0.716012 0 0
    0 537.807810 -373.964685 -9.766376 0.220338 -0.596063 0.772114 0 0
  phy
    0 482.100239 -310.784588 20.406678 -0.392565 -0.886027 -0.246675 0 0
    0 463.399812 -256.938784 -20.714707 -0.882353 -0.445218 -0.152430 0 0
    0 435.151829 -326.273122 7.908363 -0.322210 -0.842150 -0.432394 0 0
  phy
    0 435.151829 -326.273122 7.908363 -0.322210 -0.842150 -0.432394 0 0
    0 463.399812 -256.938784 -20.714707 -0.882353 -0.445218 -0.152430 0 0
    0 390.993479 -315.780414 -21.126345 -0.519246 -0.221824 -0.825335 0 0
  phy
    0 435.151829 -326.273122 7.908363 -0.322210 -0.842150 -0.432394 0 0
    0 390.993479 -315.780414 -21.126345 -0.519246 -0.221824 -0.825335 0 0
    0 403.287993 -411.667711 5.087515 -0.114503 -0.858430 -0.499988 0 0
  phy
    0 403.287993 -411.667711 5.087515 -0.114503 -0.858430 -0.499988 0 0
    0 413.731252 -432.208805 7.259940 0.502887 -0.809131 -0.303994 0 0
    0 432.211133 -406.929076 16.742447 0.073654 -0.978016 -0.195090 0 0
  phy
    0 440.242497 -445.881190 0.611778 0.880636 -0.383998 -0.277536 0 0
    0 454.489265 -460.999857 -51.416989 0.291665 0.951350 -0.099323 0 0
    0 459.309676 -452.939544 -16.182426 0.816168 -0.317862 0.482528 0 0
  phy
    0 459.309676 -452.939544 -16.182426 0.816168 -0.317862 0.482528 0 0
    0 454.489265 -460.999857 -51.416989 0.291665 0.951350 -0.099323 0 0
    0 534.780420 -398.821192 -22.065771 0.669928 -0.196274 0.716012 0 0
  phy
    0 479.633752 -274.139915 -49.751349 -0.213083 0.975499 -0.054753 0 0
    0 543.523849 -319.646024 -3.907211 -0.578232 -0.234806 0.781354 0 0
    0 555.816485 -340.489966 -33.358176 -0.165748 0.639197 0.750969 0 0
  phy
    0 543.523849 -319.646024 -3.907211 -0.578232 -0.234806 0.781354 0 0
    0 479.633752 -274.139915 -49.751349 -0.213083 0.975499 -0.054753 0 0
    0 463.399812 -256.938784 -20.714707 -0.882353 -0.445218 -0.152430 0 0
  phy
    0 492.558404 -281.589294 -2.907627 -0.748012 -0.445471 0.491969 0 0
    0 543.523849 -319.646024 -3.907211 -0.578232 -0.234806 0.781354 0 0
    0 463.399812 -256.938784 -20.714707 -0.882353 -0.445218 -0.152430 0 0
  phy
    0 543.523849 -319.646024 -3.907211 -0.578232 -0.234806 0.781354 0 0
    0 492.558404 -281.589294 -2.907627 -0.748012 -0.445471 0.491969 0 0
    0 502.927735 -304.185387 14.965591 -0.577383 -0.758445 0.302308 0 0
  phy
    0 519.591054 -397.123427 -51.102197 0.089779 0.956591 0.277261 0 0
    0 479.633752 -274.139915 -49.751349 -0.213083 0.975499 -0.054753 0 0
    0 555.816485 -340.489966 -33.358176 -0.165748 0.639197 0.750969 0 0
  phy
    0 479.633752 -274.139915 -49.751349 -0.213083 0.975499 -0.054753 0 0
    0 519.591054 -397.123427 -51.102197 0.089779 0.956591 0.277261 0 0
    0 454.489265 -460.999857 -51.416989 0.291665 0.951350 -0.099323 0 0
  phy
    0 519.591054 -397.123427 -51.102197 0.089779 0.956591 0.277261 0 0
    0 555.816485 -340.489966 -33.358176 -0.165748 0.639197 0.750969 0 0
    0 534.780420 -398.821192 -22.065771 0.669928 -0.196274 0.716012 0 0
  phy
    0 534.780420 -398.821192 -22.065771 0.669928 -0.196274 0.716012 0 0
    0 454.489265 -460.999857 -51.416989 0.291665 0.951350 -0.099323 0 0
    0 519.591054 -397.123427 -51.102197 0.089779 0.956591 0.277261 0 0
  phy
    0 492.558404 -281.589294 -2.907627 -0.748012 -0.445471 0.491969 0 0
    0 463.399812 -256.938784 -20.714707 -0.882353 -0.445218 -0.152430 0 0
    0 502.927735 -304.185387 14.965591 -0.577383 -0.758445 0.302308 0 0
  phy
    0 502.927735 -304.185387 14.965591 -0.577383 -0.758445 0.302308 0 0
    0 463.399812 -256.938784 -20.714707 -0.882353 -0.445218 -0.152430 0 0
    0 482.100239 -310.784588 20.406678 -0.392565 -0.886027 -0.246675 0 0
  phy
    0 403.287993 -411.667711 5.087515 -0.114503 -0.858430 -0.499988 0 0
    0 354.143653 -409.399280 -26.841502 0.127530 0.814375 -0.566153 0 0
    0 413.731252 -432.208805 7.259940 0.502887 -0.809131 -0.303994 0 0
  phy
    0 390.993479 -315.780414 -21.126345 -0.519246 -0.221824 -0.825335 0 0
    0 354.143653 -409.399280 -26.841502 0.127530 0.814375 -0.566153 0 0
    0 403.287993 -411.667711 5.087515 -0.114503 -0.858430 -0.499988 0 0
  phy
    0 413.731252 -432.208805 7.259940 0.502887 -0.809131 -0.303994 0 0
    0 354.143653 -409.399280 -26.841502 0.127530 0.814375 -0.566153 0 0
    0 440.242497 -445.881190 0.611778 0.880636 -0.383998 -0.277536 0 0
  phy
    0 354.143653 -409.399280 -26.841502 0.127530 0.814375 -0.566153 0 0
    0 454.489265 -460.999857 -51.416989 0.291665 0.951350 -0.099323 0 0
    0 440.242497 -445.881190 0.611778 0.880636 -0.383998 -0.277536 0 0
  phy
    0 390.993479 -315.780414 -21.126345 -0.519246 -0.221824 -0.825335 0 0
    0 479.633752 -274.139915 -49.751349 -0.213083 0.975499 -0.054753 0 0
    0 354.143653 -409.399280 -26.841502 0.127530 0.814375 -0.566153 0 0
  phy
    0 354.143653 -409.399280 -26.841502 0.127530 0.814375 -0.566153 0 0
    0 479.633752 -274.139915 -49.751349 -0.213083 0.975499 -0.054753 0 0
    0 454.489265 -460.999857 -51.416989 0.291665 0.951350 -0.099323 0 0
  phy
    0 479.633752 -274.139915 -49.751349 -0.213083 0.975499 -0.054753 0 0
    0 390.993479 -315.780414 -21.126345 -0.519246 -0.221824 -0.825335 0 0
    0 463.399812 -256.938784 -20.714707 -0.882353 -0.445218 -0.152430 0 0
  phy
    0 496.404753 -1160.969321 63.786924 -0.021755 -0.967624 -0.251458 0 0
    0 505.587623 -1238.051812 66.054773 0.125839 -0.492089 -0.861402 0 0
    0 508.471662 -1208.319777 65.779531 -0.018977 -0.999775 0.009470 0 0
  phy
    0 508.471662 -1208.319777 65.779531 -0.018977 -0.999775 0.009470 0 0
    0 508.221228 -1200.839666 65.619227 -0.038737 -0.999165 -0.012988 0 0
    0 496.404753 -1160.969321 63.786924 -0.021755 -0.967624 -0.251458 0 0
  phy
    0 496.404753 -1160.969321 63.786924 -0.021755 -0.967624 -0.251458 0 0
    0 768.860945 -876.330879 56.293358 -0.110975 -0.983351 0.143895 0 0
    0 490.011080 -1117.136798 60.531361 -0.158536 -0.941332 -0.297928 0 0
  phy
    0 496.404753 -1160.969321 63.786924 -0.021755 -0.967624 -0.251458 0 0
    0 508.221228 -1200.839666 65.619227 -0.038737 -0.999165 -0.012988 0 0
    0 768.860945 -876.330879 56.293358 -0.110975 -0.983351 0.143895 0 0
  phy
    0 505.587623 -1238.051812 66.054773 0.125839 -0.492089 -0.861402 0 0
    0 496.404753 -1160.969321 63.786924 -0.021755 -0.967624 -0.251458 0 0
    0 457.328436 -1154.192076 -0.604945 0.064141 -0.308818 -0.948956 0 0
  phy
    0 496.404753 -1160.969321 63.786924 -0.021755 -0.967624 -0.251458 0 0
    0 490.011080 -1117.136798 60.531361 -0.158536 -0.941332 -0.297928 0 0
    0 457.328436 -1154.192076 -0.604945 0.064141 -0.308818 -0.948956 0 0
  phy
    0 508.471662 -1208.319777 65.779531 -0.018977 -0.999775 0.009470 0 0
    0 506.310763 -1241.917498 66.193000 0.524814 -0.711967 0.466555 0 0
    0 780.613967 -948.956107 57.768315 -0.016839 -0.999755 0.014365 0 0
  phy
    0 780.613967 -948.956107 57.768315 -0.016839 -0.999755 0.014365 0 0
    0 506.310763 -1241.917498 66.193000 0.524814 -0.711967 0.466555 0 0
    0 800.990157 -974.572399 57.668071 0.432531 -0.793703 0.427728 0 0
  phy
    0 780.613967 -948.956107 57.768315 -0.016839 -0.999755 0.014365 0 0
    0 768.860945 -876.330879 56.293358 -0.110975 -0.983351 0.143895 0 0
    0 508.471662 -1208.319777 65.779531 -0.018977 -0.999775 0.009470 0 0
  phy
    0 800.990157 -974.572399 57.668071 0.432531 -0.793703 0.427728 0 0
    0 800.068322 -967.351808 57.512005 -0.175460 -0.699289 0.692971 0 0
    0 780.613967 -948.956107 57.768315 -0.016839 -0.999755 0.014365 0 0
  phy
    0 780.613967 -948.956107 57.768315 -0.016839 -0.999755 0.014365 0 0
    0 800.068322 -967.351808 57.512005 -0.175460 -0.699289 0.692971 0 0
    0 768.860945 -876.330879 56.293358 -0.110975 -0.983351 0.143895 0 0
  phy
    0 768.860945 -876.330879 56.293358 -0.110975 -0.983351 0.143895 0 0
    0 508.221228 -1200.839666 65.619227 -0.038737 -0.999165 -0.012988 0 0
    0 508.471662 -1208.319777 65.779531 -0.018977 -0.999775 0.009470 0 0
  phy
    0 505.587623 -1238.051812 66.054773 0.125839 -0.492089 -0.861402 0 0
    0 506.310763 -1241.917498 66.193000 0.524814 -0.711967 0.466555 0 0
    0 508.471662 -1208.319777 65.779531 -0.018977 -0.999775 0.009470 0 0
  phy
    0 490.011080 -1117.136798 60.531361 -0.158536 -0.941332 -0.297928 0 0
    0 716.091366 -828.203817 41.887779 -0.596206 -0.638283 -0.486962 0 0
    0 497.649411 -1093.683243 54.272930 -0.544156 -0.489156 -0.681631 0 0
  phy
    0 671.657652 -801.358561 -37.630637 -0.353335 0.874444 -0.332419 0 0
    0 497.649411 -1093.683243 54.272930 -0.544156 -0.489156 -0.681631 0 0
    0 716.091366 -828.203817 41.887779 -0.596206 -0.638283 -0.486962 0 0
  phy
    0 490.011080 -1117.136798 60.531361 -0.158536 -0.941332 -0.297928 0 0
    0 497.649411 -1093.683243 54.272930 -0.544156 -0.489156 -0.681631 0 0
    0 465.861043 -1082.261453 -24.180975 -0.007114 0.991044 -0.133349 0 0
  phy
    0 497.649411 -1093.683243 54.272930 -0.544156 -0.489156 -0.681631 0 0
    0 671.657652 -801.358561 -37.630637 -0.353335 0.874444 -0.332419 0 0
    0 465.861043 -1082.261453 -24.180975 -0.007114 0.991044 -0.133349 0 0
  phy
    0 745.538576 -829.860807 50.428111 -0.283269 -0.957639 0.051833 0 0
    0 768.860945 -876.330879 56.293358 -0.110975 -0.983351 0.143895 0 0
    0 821.217815 -835.107518 -11.766792 -0.443821 0.073625 0.893086 0 0
  phy
    0 821.217815 -835.107518 -11.766792 -0.443821 0.073625 0.893086 0 0
    0 790.644969 -788.770736 -14.325782 -0.970602 -0.182523 0.156896 0 0
    0 745.538576 -829.860807 50.428111 -0.283269 -0.957639 0.051833 0 0
  phy
    0 716.091366 -828.203817 41.887779 -0.596206 -0.638283 -0.486962 0 0
    0 745.538576 -829.860807 50.428111 -0.283269 -0.957639 0.051833 0 0
    0 790.644969 -788.770736 -14.325782 -0.970602 -0.182523 0.156896 0 0
  phy
    0 490.011080 -1117.136798 60.531361 -0.158536 -0.941332 -0.297928 0 0
    0 768.860945 -876.330879 56.293358 -0.110975 -0.983351 0.143895 0 0
    0 745.538576 -829.860807 50.428111 -0.283269 -0.957639 0.051833 0 0
  phy
    0 745.538576 -829.860807 50.428111 -0.283269 -0.957639 0.051833 0 0
    0 716.091366 -828.203817 41.887779 -0.596206 -0.638283 -0.486962 0 0
    0 490.011080 -1117.136798 60.531361 -0.158536 -0.941332 -0.297928 0 0
  phy
    0 506.310763 -1241.917498 66.193000 0.524814 -0.711967 0.466555 0 0
    0 505.587623 -1238.051812 66.054773 0.125839 -0.492089 -0.861402 0 0
    0 482.865506 -1306.521648 -0.939313 0.458350 0.875950 0.150421 0 0
  phy
    0 505.587623 -1238.051812 66.054773 0.125839 -0.492089 -0.861402 0 0
    0 457.328436 -1154.192076 -0.604945 0.064141 -0.308818 -0.948956 0 0
    0 482.865506 -1306.521648 -0.939313 0.458350 0.875950 0.150421 0 0
  phy
    0 506.310763 -1241.917498 66.193000 0.524814 -0.711967 0.466555 0 0
    0 861.812802 -996.726930 -12.022754 0.344819 0.878382 0.330976 0 0
    0 800.990157 -974.572399 57.668071 0.432531 -0.793703 0.427728 0 0
  phy
    0 800.990157 -974.572399 57.668071 0.432531 -0.793703 0.427728 0 0
    0 861.812802 -996.726930 -12.022754 0.344819 0.878382 0.330976 0 0
    0 800.068322 -967.351808 57.512005 -0.175460 -0.699289 0.692971 0 0
  phy
    0 821.217815 -835.107518 -11.766792 -0.443821 0.073625 0.893086 0 0
    0 849.378841 -915.554828 -11.276037 -0.208176 -0.657189 0.724406 0 0
    0 840.439684 -888.836928 -11.859278 -0.045540 0.983496 0.175107 0 0
  phy
    0 821.217815 -835.107518 -11.766792 -0.443821 0.073625 0.893086 0 0
    0 840.439684 -888.836928 -11.859278 -0.045540 0.983496 0.175107 0 0
    0 671.657652 -801.358561 -37.630637 -0.353335 0.874444 -0.332419 0 0
  phy
    0 840.439684 -888.836928 -11.859278 -0.045540 0.983496 0.175107 0 0
    0 849.378841 -915.554828 -11.276037 -0.208176 -0.657189 0.724406 0 0
    0 861.812802 -996.726930 -12.022754 0.344819 0.878382 0.330976 0 0
  phy
    0 671.657652 -801.358561 -37.630637 -0.353335 0.874444 -0.332419 0 0
    0 840.439684 -888.836928 -11.859278 -0.045540 0.983496 0.175107 0 0
    0 861.812802 -996.726930 -12.022754 0.344819 0.878382 0.330976 0 0
  phy
    0 768.860945 -876.330879 56.293358 -0.110975 -0.983351 0.143895 0 0
    0 849.378841 -915.554828 -11.276037 -0.208176 -0.657189 0.724406 0 0
    0 821.217815 -835.107518 -11.766792 -0.443821 0.073625 0.893086 0 0
  phy
    0 821.217815 -835.107518 -11.766792 -0.443821 0.073625 0.893086 0 0
    0 671.657652 -801.358561 -37.630637 -0.353335 0.874444 -0.332419 0 0
    0 790.644969 -788.770736 -14.325782 -0.970602 -0.182523 0.156896 0 0
  phy
    0 457.328436 -1154.192076 -0.604945 0.064141 -0.308818 -0.948956 0 0
    0 490.011080 -1117.136798 60.531361 -0.158536 -0.941332 -0.297928 0 0
    0 465.861043 -1082.261453 -24.180975 -0.007114 0.991044 -0.133349 0 0
  phy
    0 768.860945 -876.330879 56.293358 -0.110975 -0.983351 0.143895 0 0
    0 800.068322 -967.351808 57.512005 -0.175460 -0.699289 0.692971 0 0
    0 849.378841 -915.554828 -11.276037 -0.208176 -0.657189 0.724406 0 0
  phy
    0 506.310763 -1241.917498 66.193000 0.524814 -0.711967 0.466555 0 0
    0 482.865506 -1306.521648 -0.939313 0.458350 0.875950 0.150421 0 0
    0 861.812802 -996.726930 -12.022754 0.344819 0.878382 0.330976 0 0
  phy
    0 800.068322 -967.351808 57.512005 -0.175460 -0.699289 0.692971 0 0
    0 861.812802 -996.726930 -12.022754 0.344819 0.878382 0.330976 0 0
    0 849.378841 -915.554828 -11.276037 -0.208176 -0.657189 0.724406 0 0
  phy
    0 671.657652 -801.358561 -37.630637 -0.353335 0.874444 -0.332419 0 0
    0 716.091366 -828.203817 41.887779 -0.596206 -0.638283 -0.486962 0 0
    0 790.644969 -788.770736 -14.325782 -0.970602 -0.182523 0.156896 0 0
  phy
    0 465.861043 -1082.261453 -24.180975 -0.007114 0.991044 -0.133349 0 0
    0 671.657652 -801.358561 -37.630637 -0.353335 0.874444 -0.332419 0 0
    0 861.812802 -996.726930 -12.022754 0.344819 0.878382 0.330976 0 0
  phy
    0 457.328436 -1154.192076 -0.604945 0.064141 -0.308818 -0.948956 0 0
    0 465.861043 -1082.261453 -24.180975 -0.007114 0.991044 -0.133349 0 0
    0 482.865506 -1306.521648 -0.939313 0.458350 0.875950 0.150421 0 0
  phy
    0 465.861043 -1082.261453 -24.180975 -0.007114 0.991044 -0.133349 0 0
    0 861.812802 -996.726930 -12.022754 0.344819 0.878382 0.330976 0 0
    0 482.865506 -1306.521648 -0.939313 0.458350 0.875950 0.150421 0 0
  phy
    0 445.944118 -1458.928716 -10.694021 0.248286 0.959869 -0.130403 0 0
    0 447.730342 -1385.029920 -9.195373 -0.292987 0.948891 -0.117319 0 0
    0 534.975998 -1424.389186 3.881471 -0.011720 0.949974 0.312110 0 0
  phy
    0 445.944118 -1458.928716 -10.694021 0.248286 0.959869 -0.130403 0 0
    0 534.975998 -1424.389186 3.881471 -0.011720 0.949974 0.312110 0 0
    0 482.082367 -1475.232943 -5.277442 0.663789 0.741453 0.098142 0 0
  phy
    0 445.944118 -1458.928716 -10.694021 0.248286 0.959869 -0.130403 0 0
    0 478.252501 -1453.954141 22.841476 0.486916 -0.860758 -0.148351 0 0
    0 457.146262 -1444.431665 19.677863 0.475698 -0.645857 -0.597144 0 0
  phy
    0 445.944118 -1458.928716 -10.694021 0.248286 0.959869 -0.130403 0 0
    0 482.082367 -1475.232943 -5.277442 0.663789 0.741453 0.098142 0 0
    0 478.252501 -1453.954141 22.841476 0.486916 -0.860758 -0.148351 0 0
  phy
    0 447.730342 -1385.029920 -9.195373 -0.292987 0.948891 -0.117319 0 0
    0 445.944118 -1458.928716 -10.694021 0.248286 0.959869 -0.130403 0 0
    0 431.714921 -1421.565108 -12.316887 -0.022686 -0.069999 -0.997289 0 0
  phy
    0 445.944118 -1458.928716 -10.694021 0.248286 0.959869 -0.130403 0 0
    0 457.146262 -1444.431665 19.677863 0.475698 -0.645857 -0.597144 0 0
    0 448.835553 -1422.609344 18.729894 0.002355 -0.811974 -0.583689 0 0
  phy
    0 431.714921 -1421.565108 -12.316887 -0.022686 -0.069999 -0.997289 0 0
    0 445.944118 -1458.928716 -10.694021 0.248286 0.959869 -0.130403 0 0
    0 448.835553 -1422.609344 18.729894 0.002355 -0.811974 -0.583689 0 0
  phy
    0 447.730342 -1385.029920 -9.195373 -0.292987 0.948891 -0.117319 0 0
    0 458.189897 -1401.269717 20.553052 -0.477420 -0.665192 -0.574099 0 0
    0 479.728519 -1392.913728 24.079206 -0.577474 -0.785873 -0.221194 0 0
  phy
    0 458.189897 -1401.269717 20.553052 -0.477420 -0.665192 -0.574099 0 0
    0 447.730342 -1385.029920 -9.195373 -0.292987 0.948891 -0.117319 0 0
    0 448.835553 -1422.609344 18.729894 0.002355 -0.811974 -0.583689 0 0
  phy
    0 458.189897 -1401.269717 20.553052 -0.477420 -0.665192 -0.574099 0 0
    0 448.835553 -1422.609344 18.729894 0.002355 -0.811974 -0.583689 0 0
    0 479.728519 -1392.913728 24.079206 -0.577474 -0.785873 -0.221194 0 0
  phy
    0 500.835509 -1402.436354 27.242929 -0.263791 -0.963191 0.051737 0 0
    0 478.252501 -1453.954141 22.841476 0.486916 -0.860758 -0.148351 0 0
    0 499.792362 -1445.598152 26.367807 0.357248 -0.915533 0.184859 0 0
  phy
    0 499.792362 -1445.598152 26.367807 0.357248 -0.915533 0.184859 0 0
    0 509.146480 -1424.258675 28.190930 0.030987 -0.773690 0.632806 0 0
    0 500.835509 -1402.436354 27.242929 -0.263791 -0.963191 0.051737 0 0
  phy
    0 499.792362 -1445.598152 26.367807 0.357248 -0.915533 0.184859 0 0
    0 478.252501 -1453.954141 22.841476 0.486916 -0.860758 -0.148351 0 0
    0 518.959901 -1460.927227 0.759804 0.673009 -0.478409 0.564078 0 0
  phy
    0 518.959901 -1460.927227 0.759804 0.673009 -0.478409 0.564078 0 0
    0 509.146480 -1424.258675 28.190930 0.030987 -0.773690 0.632806 0 0
    0 499.792362 -1445.598152 26.367807 0.357248 -0.915533 0.184859 0 0
  phy
    0 500.835509 -1402.436354 27.242929 -0.263791 -0.963191 0.051737 0 0
    0 520.746577 -1387.026929 2.258563 -0.576688 -0.452314 0.680326 0 0
    0 484.608477 -1370.723003 -3.157995 -0.835546 0.518143 0.182730 0 0
  phy
    0 479.728519 -1392.913728 24.079206 -0.577474 -0.785873 -0.221194 0 0
    0 500.835509 -1402.436354 27.242929 -0.263791 -0.963191 0.051737 0 0
    0 484.608477 -1370.723003 -3.157995 -0.835546 0.518143 0.182730 0 0
  phy
    0 500.835509 -1402.436354 27.242929 -0.263791 -0.963191 0.051737 0 0
    0 509.146480 -1424.258675 28.190930 0.030987 -0.773690 0.632806 0 0
    0 520.746577 -1387.026929 2.258563 -0.576688 -0.452314 0.680326 0 0
  phy
    0 500.835509 -1402.436354 27.242929 -0.263791 -0.963191 0.051737 0 0
    0 448.835553 -1422.609344 18.729894 0.002355 -0.811974 -0.583689 0 0
    0 478.252501 -1453.954141 22.841476 0.486916 -0.860758 -0.148351 0 0
  phy
    0 479.728519 -1392.913728 24.079206 -0.577474 -0.785873 -0.221194 0 0
    0 448.835553 -1422.609344 18.729894 0.002355 -0.811974 -0.583689 0 0
    0 500.835509 -1402.436354 27.242929 -0.263791 -0.963191 0.051737 0 0
  phy
    0 478.252501 -1453.954141 22.841476 0.486916 -0.860758 -0.148351 0 0
    0 448.835553 -1422.609344 18.729894 0.002355 -0.811974 -0.583689 0 0
    0 457.146262 -1444.431665 19.677863 0.475698 -0.645857 -0.597144 0 0
  phy
    0 520.746577 -1387.026929 2.258563 -0.576688 -0.452314 0.680326 0 0
    0 534.975998 -1424.389186 3.881471 -0.011720 0.949974 0.312110 0 0
    0 484.608477 -1370.723003 -3.157995 -0.835546 0.518143 0.182730 0 0
  phy
    0 520.746577 -1387.026929 2.258563 -0.576688 -0.452314 0.680326 0 0
    0 509.146480 -1424.258675 28.190930 0.030987 -0.773690 0.632806 0 0
    0 534.975998 -1424.389186 3.881471 -0.011720 0.949974 0.312110 0 0
  phy
    0 447.730342 -1385.029920 -9.195373 -0.292987 0.948891 -0.117319 0 0
    0 431.714921 -1421.565108 -12.316887 -0.022686 -0.069999 -0.997289 0 0
    0 448.835553 -1422.609344 18.729894 0.002355 -0.811974 -0.583689 0 0
  phy
    0 447.730342 -1385.029920 -9.195373 -0.292987 0.948891 -0.117319 0 0
    0 479.728519 -1392.913728 24.079206 -0.577474 -0.785873 -0.221194 0 0
    0 484.608477 -1370.723003 -3.157995 -0.835546 0.518143 0.182730 0 0
  phy
    0 534.975998 -1424.389186 3.881471 -0.011720 0.949974 0.312110 0 0
    0 447.730342 -1385.029920 -9.195373 -0.292987 0.948891 -0.117319 0 0
    0 484.608477 -1370.723003 -3.157995 -0.835546 0.518143 0.182730 0 0
  phy
    0 478.252501 -1453.954141 22.841476 0.486916 -0.860758 -0.148351 0 0
    0 482.082367 -1475.232943 -5.277442 0.663789 0.741453 0.098142 0 0
    0 518.959901 -1460.927227 0.759804 0.673009 -0.478409 0.564078 0 0
  phy
    0 534.975998 -1424.389186 3.881471 -0.011720 0.949974 0.312110 0 0
    0 509.146480 -1424.258675 28.190930 0.030987 -0.773690 0.632806 0 0
    0 518.959901 -1460.927227 0.759804 0.673009 -0.478409 0.564078 0 0
  phy
    0 534.975998 -1424.389186 3.881471 -0.011720 0.949974 0.312110 0 0
    0 518.959901 -1460.927227 0.759804 0.673009 -0.478409 0.564078 0 0
    0 482.082367 -1475.232943 -5.277442 0.663789 0.741453 0.098142 0 0
  phy
    0 687.350776 -1254.032465 79.201526 -0.072809 -0.954658 -0.288663 0 0
    0 706.366441 -1240.207942 83.319465 0.011323 -0.998513 -0.053332 0 0
    0 619.450667 -1157.405132 50.723309 -0.079453 -0.953792 -0.289771 0 0
  phy
    0 619.450667 -1157.405132 50.723309 -0.079453 -0.953792 -0.289771 0 0
    0 706.366441 -1240.207942 83.319465 0.011323 -0.998513 -0.053332 0 0
    0 643.148648 -1147.981779 56.591597 -0.365827 -0.875077 -0.316877 0 0
  phy
    0 619.450667 -1157.405132 50.723309 -0.079453 -0.953792 -0.289771 0 0
    0 671.472925 -1266.938758 74.807302 0.330400 -0.938177 -0.103248 0 0
    0 687.350776 -1254.032465 79.201526 -0.072809 -0.954658 -0.288663 0 0
  phy
    0 607.199331 -1161.248365 46.942516 -0.123743 -0.892446 -0.433852 0 0
    0 671.472925 -1266.938758 74.807302 0.330400 -0.938177 -0.103248 0 0
    0 619.450667 -1157.405132 50.723309 -0.079453 -0.953792 -0.289771 0 0
  phy
    0 643.148648 -1147.981779 56.591597 -0.365827 -0.875077 -0.316877 0 0
    0 607.199331 -1161.248365 46.942516 -0.123743 -0.892446 -0.433852 0 0
    0 619.450667 -1157.405132 50.723309 -0.079453 -0.953792 -0.289771 0 0
  phy
    0 706.063518 -1187.196116 78.231387 -0.150176 -0.962257 0.226956 0 0
    0 746.335007 -1257.524265 59.416763 0.334222 -0.731731 0.594024 0 0
    0 745.247518 -1176.232015 52.012421 -0.324842 -0.651833 0.685267 0 0
  phy
    0 706.063518 -1187.196116 78.231387 -0.150176 -0.962257 0.226956 0 0
    0 706.366441 -1240.207942 83.319465 0.011323 -0.998513 -0.053332 0 0
    0 746.335007 -1257.524265 59.416763 0.334222 -0.731731 0.594024 0 0
  phy
    0 706.063518 -1187.196116 78.231387 -0.150176 -0.962257 0.226956 0 0
    0 685.740043 -1144.401821 68.398498 -0.552024 -0.831745 0.058912 0 0
    0 643.148648 -1147.981779 56.591597 -0.365827 -0.875077 -0.316877 0 0
  phy
    0 643.148648 -1147.981779 56.591597 -0.365827 -0.875077 -0.316877 0 0
    0 706.366441 -1240.207942 83.319465 0.011323 -0.998513 -0.053332 0 0
    0 706.063518 -1187.196116 78.231387 -0.150176 -0.962257 0.226956 0 0
  phy
    0 745.247518 -1176.232015 52.012421 -0.324842 -0.651833 0.685267 0 0
    0 685.740043 -1144.401821 68.398498 -0.552024 -0.831745 0.058912 0 0
    0 706.063518 -1187.196116 78.231387 -0.150176 -0.962257 0.226956 0 0
  phy
    0 671.472925 -1266.938758 74.807302 0.330400 -0.938177 -0.103248 0 0
    0 706.366441 -1240.207942 83.319465 0.011323 -0.998513 -0.053332 0 0
    0 687.350776 -1254.032465 79.201526 -0.072809 -0.954658 -0.288663 0 0
  phy
    0 627.958042 -1116.349829 18.966555 -0.761242 -0.594799 -0.258310 0 0
    0 643.148648 -1147.981779 56.591597 -0.365827 -0.875077 -0.316877 0 0
    0 685.740043 -1144.401821 68.398498 -0.552024 -0.831745 0.058912 0 0
  phy
    0 643.148648 -1147.981779 56.591597 -0.365827 -0.875077 -0.316877 0 0
    0 560.955138 -1136.606772 4.230409 -0.113967 0.910486 -0.397525 0 0
    0 607.199331 -1161.248365 46.942516 -0.123743 -0.892446 -0.433852 0 0
  phy
    0 627.958042 -1116.349829 18.966555 -0.761242 -0.594799 -0.258310 0 0
    0 560.955138 -1136.606772 4.230409 -0.113967 0.910486 -0.397525 0 0
    0 643.148648 -1147.981779 56.591597 -0.365827 -0.875077 -0.316877 0 0
  phy
    0 616.157862 -1209.830712 52.784372 0.048420 -0.720751 -0.691501 0 0
    0 631.581704 -1278.672106 62.446895 0.098695 -0.797047 -0.595798 0 0
    0 607.199331 -1161.248365 46.942516 -0.123743 -0.892446 -0.433852 0 0
  phy
    0 607.199331 -1161.248365 46.942516 -0.123743 -0.892446 -0.433852 0 0
    0 560.955138 -1136.606772 4.230409 -0.113967 0.910486 -0.397525 0 0
    0 616.157862 -1209.830712 52.784372 0.048420 -0.720751 -0.691501 0 0
  phy
    0 616.157862 -1209.830712 52.784372 0.048420 -0.720751 -0.691501 0 0
    0 560.955138 -1136.606772 4.230409 -0.113967 0.910486 -0.397525 0 0
    0 631.581704 -1278.672106 62.446895 0.098695 -0.797047 -0.595798 0 0
  phy
    0 679.246197 -1298.941214 46.490196 0.808805 -0.547640 0.214300 0 0
    0 746.335007 -1257.524265 59.416763 0.334222 -0.731731 0.594024 0 0
    0 671.472925 -1266.938758 74.807302 0.330400 -0.938177 -0.103248 0 0
  phy
    0 671.472925 -1266.938758 74.807302 0.330400 -0.938177 -0.103248 0 0
    0 606.415478 -1315.929383 27.911438 0.259667 0.953819 0.151007 0 0
    0 679.246197 -1298.941214 46.490196 0.808805 -0.547640 0.214300 0 0
  phy
    0 746.335007 -1257.524265 59.416763 0.334222 -0.731731 0.594024 0 0
    0 679.246197 -1298.941214 46.490196 0.808805 -0.547640 0.214300 0 0
    0 606.415478 -1315.929383 27.911438 0.259667 0.953819 0.151007 0 0
  phy
    0 745.247518 -1176.232015 52.012421 -0.324842 -0.651833 0.685267 0 0
    0 746.335007 -1257.524265 59.416763 0.334222 -0.731731 0.594024 0 0
    0 746.759129 -1251.195547 58.512603 0.081280 0.965007 0.249310 0 0
  phy
    0 745.247518 -1176.232015 52.012421 -0.324842 -0.651833 0.685267 0 0
    0 746.759129 -1251.195547 58.512603 0.081280 0.965007 0.249310 0 0
    0 707.362993 -1110.881745 36.996950 -0.007026 0.960433 0.278422 0 0
  phy
    0 745.247518 -1176.232015 52.012421 -0.324842 -0.651833 0.685267 0 0
    0 707.362993 -1110.881745 36.996950 -0.007026 0.960433 0.278422 0 0
    0 685.740043 -1144.401821 68.398498 -0.552024 -0.831745 0.058912 0 0
  phy
    0 607.199331 -1161.248365 46.942516 -0.123743 -0.892446 -0.433852 0 0
    0 631.581704 -1278.672106 62.446895 0.098695 -0.797047 -0.595798 0 0
    0 671.472925 -1266.938758 74.807302 0.330400 -0.938177 -0.103248 0 0
  phy
    0 631.581704 -1278.672106 62.446895 0.098695 -0.797047 -0.595798 0 0
    0 577.656603 -1210.788517 13.153647 0.100802 -0.662159 -0.742553 0 0
    0 606.415478 -1315.929383 27.911438 0.259667 0.953819 0.151007 0 0
  phy
    0 577.656603 -1210.788517 13.153647 0.100802 -0.662159 -0.742553 0 0
    0 593.369401 -1270.363124 20.860063 0.069371 0.970288 0.231797 0 0
    0 606.415478 -1315.929383 27.911438 0.259667 0.953819 0.151007 0 0
  phy
    0 577.656603 -1210.788517 13.153647 0.100802 -0.662159 -0.742553 0 0
    0 631.581704 -1278.672106 62.446895 0.098695 -0.797047 -0.595798 0 0
    0 560.955138 -1136.606772 4.230409 -0.113967 0.910486 -0.397525 0 0
  phy
    0 593.369401 -1270.363124 20.860063 0.069371 0.970288 0.231797 0 0
    0 577.656603 -1210.788517 13.153647 0.100802 -0.662159 -0.742553 0 0
    0 560.955138 -1136.606772 4.230409 -0.113967 0.910486 -0.397525 0 0
  phy
    0 746.335007 -1257.524265 59.416763 0.334222 -0.731731 0.594024 0 0
    0 706.366441 -1240.207942 83.319465 0.011323 -0.998513 -0.053332 0 0
    0 671.472925 -1266.938758 74.807302 0.330400 -0.938177 -0.103248 0 0
  phy
    0 631.581704 -1278.672106 62.446895 0.098695 -0.797047 -0.595798 0 0
    0 606.415478 -1315.929383 27.911438 0.259667 0.953819 0.151007 0 0
    0 671.472925 -1266.938758 74.807302 0.330400 -0.938177 -0.103248 0 0
  phy
    0 627.958042 -1116.349829 18.966555 -0.761242 -0.594799 -0.258310 0 0
    0 685.740043 -1144.401821 68.398498 -0.552024 -0.831745 0.058912 0 0
    0 707.362993 -1110.881745 36.996950 -0.007026 0.960433 0.278422 0 0
  phy
    0 560.955138 -1136.606772 4.230409 -0.113967 0.910486 -0.397525 0 0
    0 627.958042 -1116.349829 18.966555 -0.761242 -0.594799 -0.258310 0 0
    0 707.362993 -1110.881745 36.996950 -0.007026 0.960433 0.278422 0 0
  phy
    0 746.759129 -1251.195547 58.512603 0.081280 0.965007 0.249310 0 0
    0 746.335007 -1257.524265 59.416763 0.334222 -0.731731 0.594024 0 0
    0 606.415478 -1315.929383 27.911438 0.259667 0.953819 0.151007 0 0
  phy
    0 746.759129 -1251.195547 58.512603 0.081280 0.965007 0.249310 0 0
    0 606.415478 -1315.929383 27.911438 0.259667 0.953819 0.151007 0 0
    0 707.362993 -1110.881745 36.996950 -0.007026 0.960433 0.278422 0 0
  phy
    0 593.369401 -1270.363124 20.860063 0.069371 0.970288 0.231797 0 0
    0 560.955138 -1136.606772 4.230409 -0.113967 0.910486 -0.397525 0 0
    0 707.362993 -1110.881745 36.996950 -0.007026 0.960433 0.278422 0 0
  phy
    0 606.415478 -1315.929383 27.911438 0.259667 0.953819 0.151007 0 0
    0 593.369401 -1270.363124 20.860063 0.069371 0.970288 0.231797 0 0
    0 707.362993 -1110.881745 36.996950 -0.007026 0.960433 0.278422 0 0
  phy
    0 510.321189 -1313.156969 33.333846 -0.052251 -0.929129 -0.366045 0 0
    0 521.788109 -1300.522211 37.122711 -0.084690 -0.919653 -0.383492 0 0
    0 500.139927 -1322.676891 29.839967 -0.066407 -0.922405 -0.380473 0 0
  phy
    0 500.139927 -1322.676891 29.839967 -0.066407 -0.922405 -0.380473 0 0
    0 535.449531 -1293.930594 42.134157 0.060297 -0.966403 -0.249859 0 0
    0 510.321189 -1313.156969 33.333846 -0.052251 -0.929129 -0.366045 0 0
  phy
    0 510.321189 -1313.156969 33.333846 -0.052251 -0.929129 -0.366045 0 0
    0 535.449531 -1293.930594 42.134157 0.060297 -0.966403 -0.249859 0 0
    0 521.788109 -1300.522211 37.122711 -0.084690 -0.919653 -0.383492 0 0
  phy
    0 487.054239 -1314.077002 23.701135 -0.209610 -0.796950 -0.566510 0 0
    0 431.819525 -1408.867723 3.637479 0.060654 -0.886177 -0.459359 0 0
    0 500.011294 -1324.128579 29.848654 -0.005217 -0.932765 -0.360448 0 0
  phy
    0 487.054239 -1314.077002 23.701135 -0.209610 -0.796950 -0.566510 0 0
    0 421.922714 -1401.366737 -1.050356 -0.190284 -0.647369 -0.738042 0 0
    0 431.819525 -1408.867723 3.637479 0.060654 -0.886177 -0.459359 0 0
  phy
    0 487.054239 -1314.077002 23.701135 -0.209610 -0.796950 -0.566510 0 0
    0 500.011294 -1324.128579 29.848654 -0.005217 -0.932765 -0.360448 0 0
    0 500.139927 -1322.676891 29.839967 -0.066407 -0.922405 -0.380473 0 0
  phy
    0 484.482172 -1310.436219 10.117884 -0.536935 -0.235340 -0.810133 0 0
    0 487.054239 -1314.077002 23.701135 -0.209610 -0.796950 -0.566510 0 0
    0 498.261940 -1302.391713 27.454406 -0.310177 -0.763949 -0.565837 0 0
  phy
    0 487.054239 -1314.077002 23.701135 -0.209610 -0.796950 -0.566510 0 0
    0 484.482172 -1310.436219 10.117884 -0.536935 -0.235340 -0.810133 0 0
    0 421.922714 -1401.366737 -1.050356 -0.190284 -0.647369 -0.738042 0 0
  phy
    0 500.139927 -1322.676891 29.839967 -0.066407 -0.922405 -0.380473 0 0
    0 521.788109 -1300.522211 37.122711 -0.084690 -0.919653 -0.383492 0 0
    0 487.054239 -1314.077002 23.701135 -0.209610 -0.796950 -0.566510 0 0
  phy
    0 521.788109 -1300.522211 37.122711 -0.084690 -0.919653 -0.383492 0 0
    0 498.261940 -1302.391713 27.454406 -0.310177 -0.763949 -0.565837 0 0
    0 487.054239 -1314.077002 23.701135 -0.209610 -0.796950 -0.566510 0 0
  phy
    0 500.011294 -1324.128579 29.848654 -0.005217 -0.932765 -0.360448 0 0
    0 535.449531 -1293.930594 42.134157 0.060297 -0.966403 -0.249859 0 0
    0 500.139927 -1322.676891 29.839967 -0.066407 -0.922405 -0.380473 0 0
  phy
    0 484.651881 -1309.927993 9.503702 -0.651303 -0.238652 -0.720312 0 0
    0 512.683298 -1287.147342 31.835000 -0.662900 -0.285528 -0.692126 0 0
    0 512.921191 -1269.090007 -16.883640 -0.754905 -0.020646 -0.655509 0 0
  phy
    0 481.018570 -1301.377364 -24.901976 -0.645316 0.552781 -0.527257 0 0
    0 484.651881 -1309.927993 9.503702 -0.651303 -0.238652 -0.720312 0 0
    0 512.921191 -1269.090007 -16.883640 -0.754905 -0.020646 -0.655509 0 0
  phy
    0 512.683298 -1287.147342 31.835000 -0.662900 -0.285528 -0.692126 0 0
    0 484.651881 -1309.927993 9.503702 -0.651303 -0.238652 -0.720312 0 0
    0 484.482172 -1310.436219 10.117884 -0.536935 -0.235340 -0.810133 0 0
  phy
    0 484.482172 -1310.436219 10.117884 -0.536935 -0.235340 -0.810133 0 0
    0 484.651881 -1309.927993 9.503702 -0.651303 -0.238652 -0.720312 0 0
    0 481.018570 -1301.377364 -24.901976 -0.645316 0.552781 -0.527257 0 0
  phy
    0 436.465046 -1412.420798 5.646953 0.401174 -0.913189 0.071725 0 0
    0 535.449531 -1293.930594 42.134157 0.060297 -0.966403 -0.249859 0 0
    0 500.011294 -1324.128579 29.848654 -0.005217 -0.932765 -0.360448 0 0
  phy
    0 431.819525 -1408.867723 3.637479 0.060654 -0.886177 -0.459359 0 0
    0 436.465046 -1412.420798 5.646953 0.401174 -0.913189 0.071725 0 0
    0 500.011294 -1324.128579 29.848654 -0.005217 -0.932765 -0.360448 0 0
  phy
    0 575.712309 -1254.048986 51.322396 -0.816317 -0.386058 -0.429634 0 0
    0 580.286492 -1265.892119 54.600652 0.480716 -0.841922 0.245110 0 0
    0 628.735400 -1232.677970 54.011791 -0.237208 -0.968182 -0.079721 0 0
  phy
    0 575.712309 -1254.048986 51.322396 -0.816317 -0.386058 -0.429634 0 0
    0 628.735400 -1232.677970 54.011791 -0.237208 -0.968182 -0.079721 0 0
    0 711.982307 -1191.278893 47.164076 0.068280 0.892450 0.445949 0 0
  phy
    0 580.286492 -1265.892119 54.600652 0.480716 -0.841922 0.245110 0 0
    0 711.982307 -1191.278893 47.164076 0.068280 0.892450 0.445949 0 0
    0 628.735400 -1232.677970 54.011791 -0.237208 -0.968182 -0.079721 0 0
  phy
    0 512.683298 -1287.147342 31.835000 -0.662900 -0.285528 -0.692126 0 0
    0 513.514121 -1276.639202 5.084661 -0.785208 -0.288358 -0.547995 0 0
    0 512.921191 -1269.090007 -16.883640 -0.754905 -0.020646 -0.655509 0 0
  phy
    0 512.683298 -1287.147342 31.835000 -0.662900 -0.285528 -0.692126 0 0
    0 484.482172 -1310.436219 10.117884 -0.536935 -0.235340 -0.810133 0 0
    0 498.261940 -1302.391713 27.454406 -0.310177 -0.763949 -0.565837 0 0
  phy
    0 498.261940 -1302.391713 27.454406 -0.310177 -0.763949 -0.565837 0 0
    0 527.949296 -1278.501496 37.303534 -0.634554 -0.574019 -0.517536 0 0
    0 512.683298 -1287.147342 31.835000 -0.662900 -0.285528 -0.692126 0 0
  phy
    0 513.514121 -1276.639202 5.084661 -0.785208 -0.288358 -0.547995 0 0
    0 512.683298 -1287.147342 31.835000 -0.662900 -0.285528 -0.692126 0 0
    0 527.949296 -1278.501496 37.303534 -0.634554 -0.574019 -0.517536 0 0
  phy
    0 436.465046 -1412.420798 5.646953 0.401174 -0.913189 0.071725 0 0
    0 431.819525 -1408.867723 3.637479 0.060654 -0.886177 -0.459359 0 0
    0 448.799434 -1442.469800 -18.385001 0.529073 0.645122 0.551270 0 0
  phy
    0 431.819525 -1408.867723 3.637479 0.060654 -0.886177 -0.459359 0 0
    0 421.922714 -1401.366737 -1.050356 -0.190284 -0.647369 -0.738042 0 0
    0 448.799434 -1442.469800 -18.385001 0.529073 0.645122 0.551270 0 0
  phy
    0 521.788109 -1300.522211 37.122711 -0.084690 -0.919653 -0.383492 0 0
    0 527.949296 -1278.501496 37.303534 -0.634554 -0.574019 -0.517536 0 0
    0 498.261940 -1302.391713 27.454406 -0.310177 -0.763949 -0.565837 0 0
  phy
    0 521.788109 -1300.522211 37.122711 -0.084690 -0.919653 -0.383492 0 0
    0 535.449531 -1293.930594 42.134157 0.060297 -0.966403 -0.249859 0 0
    0 527.949296 -1278.501496 37.303534 -0.634554 -0.574019 -0.517536 0 0
  phy
    0 484.482172 -1310.436219 10.117884 -0.536935 -0.235340 -0.810133 0 0
    0 421.101127 -1401.669660 -2.782626 -0.173130 -0.350357 -0.920476 0 0
    0 421.922714 -1401.366737 -1.050356 -0.190284 -0.647369 -0.738042 0 0
  phy
    0 421.101127 -1401.669660 -2.782626 -0.173130 -0.350357 -0.920476 0 0
    0 484.482172 -1310.436219 10.117884 -0.536935 -0.235340 -0.810133 0 0
    0 406.096676 -1409.939443 -38.393088 -0.326653 0.559768 -0.761550 0 0
  phy
    0 406.096676 -1409.939443 -38.393088 -0.326653 0.559768 -0.761550 0 0
    0 484.482172 -1310.436219 10.117884 -0.536935 -0.235340 -0.810133 0 0
    0 479.820432 -1303.098183 -25.147265 0.065524 0.960055 0.272031 0 0
  phy
    0 484.482172 -1310.436219 10.117884 -0.536935 -0.235340 -0.810133 0 0
    0 481.018570 -1301.377364 -24.901976 -0.645316 0.552781 -0.527257 0 0
    0 479.820432 -1303.098183 -25.147265 0.065524 0.960055 0.272031 0 0
  phy
    0 575.712309 -1254.048986 51.322396 -0.816317 -0.386058 -0.429634 0 0
    0 531.866119 -1258.363498 -11.194785 -0.824411 -0.274085 -0.495201 0 0
    0 527.949296 -1278.501496 37.303534 -0.634554 -0.574019 -0.517536 0 0
  phy
    0 531.866119 -1258.363498 -11.194785 -0.824411 -0.274085 -0.495201 0 0
    0 575.712309 -1254.048986 51.322396 -0.816317 -0.386058 -0.429634 0 0
    0 582.555148 -1234.825164 4.589689 -0.920325 0.305932 -0.243737 0 0
  phy
    0 582.555148 -1234.825164 4.589689 -0.920325 0.305932 -0.243737 0 0
    0 575.712309 -1254.048986 51.322396 -0.816317 -0.386058 -0.429634 0 0
    0 711.982307 -1191.278893 47.164076 0.068280 0.892450 0.445949 0 0
  phy
    0 527.949296 -1278.501496 37.303534 -0.634554 -0.574019 -0.517536 0 0
    0 580.286492 -1265.892119 54.600652 0.480716 -0.841922 0.245110 0 0
    0 575.712309 -1254.048986 51.322396 -0.816317 -0.386058 -0.429634 0 0
  phy
    0 527.949296 -1278.501496 37.303534 -0.634554 -0.574019 -0.517536 0 0
    0 531.866119 -1258.363498 -11.194785 -0.824411 -0.274085 -0.495201 0 0
    0 512.921191 -1269.090007 -16.883640 -0.754905 -0.020646 -0.655509 0 0
  phy
    0 531.866119 -1258.363498 -11.194785 -0.824411 -0.274085 -0.495201 0 0
    0 582.555148 -1234.825164 4.589689 -0.920325 0.305932 -0.243737 0 0
    0 512.921191 -1269.090007 -16.883640 -0.754905 -0.020646 -0.655509 0 0
  phy
    0 513.514121 -1276.639202 5.084661 -0.785208 -0.288358 -0.547995 0 0
    0 527.949296 -1278.501496 37.303534 -0.634554 -0.574019 -0.517536 0 0
    0 512.921191 -1269.090007 -16.883640 -0.754905 -0.020646 -0.655509 0 0
  phy
    0 421.101127 -1401.669660 -2.782626 -0.173130 -0.350357 -0.920476 0 0
    0 406.096676 -1409.939443 -38.393088 -0.326653 0.559768 -0.761550 0 0
    0 448.799434 -1442.469800 -18.385001 0.529073 0.645122 0.551270 0 0
  phy
    0 421.922714 -1401.366737 -1.050356 -0.190284 -0.647369 -0.738042 0 0
    0 421.101127 -1401.669660 -2.782626 -0.173130 -0.350357 -0.920476 0 0
    0 448.799434 -1442.469800 -18.385001 0.529073 0.645122 0.551270 0 0
  phy
    0 580.286492 -1265.892119 54.600652 0.480716 -0.841922 0.245110 0 0
    0 535.449531 -1293.930594 42.134157 0.060297 -0.966403 -0.249859 0 0
    0 436.465046 -1412.420798 5.646953 0.401174 -0.913189 0.071725 0 0
  phy
    0 436.465046 -1412.420798 5.646953 0.401174 -0.913189 0.071725 0 0
    0 448.799434 -1442.469800 -18.385001 0.529073 0.645122 0.551270 0 0
    0 580.286492 -1265.892119 54.600652 0.480716 -0.841922 0.245110 0 0
  phy
    0 527.949296 -1278.501496 37.303534 -0.634554 -0.574019 -0.517536 0 0
    0 535.449531 -1293.930594 42.134157 0.060297 -0.966403 -0.249859 0 0
    0 580.286492 -1265.892119 54.600652 0.480716 -0.841922 0.245110 0 0
  phy
    0 580.286492 -1265.892119 54.600652 0.480716 -0.841922 0.245110 0 0
    0 448.799434 -1442.469800 -18.385001 0.529073 0.645122 0.551270 0 0
    0 608.904981 -1292.590044 22.034532 0.575527 -0.730643 0.367327 0 0
  phy
    0 608.904981 -1292.590044 22.034532 0.575527 -0.730643 0.367327 0 0
    0 711.982307 -1191.278893 47.164076 0.068280 0.892450 0.445949 0 0
    0 580.286492 -1265.892119 54.600652 0.480716 -0.841922 0.245110 0 0
  phy
    0 608.904981 -1292.590044 22.034532 0.575527 -0.730643 0.367327 0 0
    0 448.799434 -1442.469800 -18.385001 0.529073 0.645122 0.551270 0 0
    0 711.982307 -1191.278893 47.164076 0.068280 0.892450 0.445949 0 0
  phy
    0 481.018570 -1301.377364 -24.901976 -0.645316 0.552781 -0.527257 0 0
    0 582.555148 -1234.825164 4.589689 -0.920325 0.305932 -0.243737 0 0
    0 479.820432 -1303.098183 -25.147265 0.065524 0.960055 0.272031 0 0
  phy
    0 582.555148 -1234.825164 4.589689 -0.920325 0.305932 -0.243737 0 0
    0 481.018570 -1301.377364 -24.901976 -0.645316 0.552781 -0.527257 0 0
    0 512.921191 -1269.090007 -16.883640 -0.754905 -0.020646 -0.655509 0 0
  phy
    0 406.096676 -1409.939443 -38.393088 -0.326653 0.559768 -0.761550 0 0
    0 479.820432 -1303.098183 -25.147265 0.065524 0.960055 0.272031 0 0
    0 448.799434 -1442.469800 -18.385001 0.529073 0.645122 0.551270 0 0
  phy
    0 479.820432 -1303.098183 -25.147265 0.065524 0.960055 0.272031 0 0
    0 582.555148 -1234.825164 4.589689 -0.920325 0.305932 -0.243737 0 0
    0 711.982307 -1191.278893 47.164076 0.068280 0.892450 0.445949 0 0
  phy
    0 448.799434 -1442.469800 -18.385001 0.529073 0.645122 0.551270 0 0
    0 479.820432 -1303.098183 -25.147265 0.065524 0.960055 0.272031 0 0
    0 711.982307 -1191.278893 47.164076 0.068280 0.892450 0.445949 0 0
  phy
    0 190.619953 -1093.792352 34.676042 0.049857 -0.411558 -0.910019 0 0
    0 200.584517 -1049.874373 34.676011 -0.399483 -0.235052 -0.886095 0 0
    0 190.620404 -1093.793403 -2.394219 0.045436 0.309162 -0.949923 0 0
  phy
    0 200.584517 -1049.874373 34.676011 -0.399483 -0.235052 -0.886095 0 0
    0 200.585042 -1049.875425 -2.396726 -0.096236 0.990603 -0.097181 0 0
    0 190.620404 -1093.793403 -2.394219 0.045436 0.309162 -0.949923 0 0
  phy
    0 200.584517 -1049.874373 34.676011 -0.399483 -0.235052 -0.886095 0 0
    0 190.619953 -1093.792352 34.676042 0.049857 -0.411558 -0.910019 0 0
    0 251.587395 -1006.664366 79.357718 -0.487757 -0.626025 -0.608429 0 0
  phy
    0 200.584517 -1049.874373 34.676011 -0.399483 -0.235052 -0.886095 0 0
    0 251.587395 -1006.664366 79.357718 -0.487757 -0.626025 -0.608429 0 0
    0 200.585042 -1049.875425 -2.396726 -0.096236 0.990603 -0.097181 0 0
  phy
    0 221.757438 -1160.944841 80.988764 0.129749 -0.861708 -0.490536 0 0
    0 277.718071 -1189.748809 44.807074 0.944040 -0.321126 -0.075274 0 0
    0 283.893976 -1155.377185 96.557497 0.402646 -0.904332 0.141634 0 0
  phy
    0 283.893976 -1155.377185 96.557497 0.402646 -0.904332 0.141634 0 0
    0 282.990125 -1155.169029 96.759852 -0.010105 -0.999948 0.001665 0 0
    0 221.757438 -1160.944841 80.988764 0.129749 -0.861708 -0.490536 0 0
  phy
    0 358.257744 -1164.947570 79.150463 0.341590 -0.854981 0.390287 0 0
    0 384.361312 -1005.716099 79.149411 -0.223978 -0.844706 0.486113 0 0
    0 283.893976 -1155.377185 96.557497 0.402646 -0.904332 0.141634 0 0
  phy
    0 384.361312 -1005.716099 79.149411 -0.223978 -0.844706 0.486113 0 0
    0 282.990125 -1155.169029 96.759852 -0.010105 -0.999948 0.001665 0 0
    0 283.893976 -1155.377185 96.557497 0.402646 -0.904332 0.141634 0 0
  phy
    0 277.718071 -1189.748809 44.807074 0.944040 -0.321126 -0.075274 0 0
    0 358.257744 -1164.947570 79.150463 0.341590 -0.854981 0.390287 0 0
    0 283.893976 -1155.377185 96.557497 0.402646 -0.904332 0.141634 0 0
  phy
    0 221.757438 -1160.944841 80.988764 0.129749 -0.861708 -0.490536 0 0
    0 312.509612 -998.928641 94.928892 -0.637416 -0.767543 -0.067671 0 0
    0 251.587395 -1006.664366 79.357718 -0.487757 -0.626025 -0.608429 0 0
  phy
    0 282.990125 -1155.169029 96.759852 -0.010105 -0.999948 0.001665 0 0
    0 312.509612 -998.928641 94.928892 -0.637416 -0.767543 -0.067671 0 0
    0 221.757438 -1160.944841 80.988764 0.129749 -0.861708 -0.490536 0 0
  phy
    0 190.619953 -1093.792352 34.676042 0.049857 -0.411558 -0.910019 0 0
    0 221.757438 -1160.944841 80.988764 0.129749 -0.861708 -0.490536 0 0
    0 251.587395 -1006.664366 79.357718 -0.487757 -0.626025 -0.608429 0 0
  phy
    0 221.757438 -1160.944841 80.988764 0.129749 -0.861708 -0.490536 0 0
    0 190.619953 -1093.792352 34.676042 0.049857 -0.411558 -0.910019 0 0
    0 218.669110 -1175.724465 36.936482 0.656745 -0.143831 -0.740269 0 0
  phy
    0 221.757438 -1160.944841 80.988764 0.129749 -0.861708 -0.490536 0 0
    0 218.669110 -1175.724465 36.936482 0.656745 -0.143831 -0.740269 0 0
    0 277.718071 -1189.748809 44.807074 0.944040 -0.321126 -0.075274 0 0
  phy
    0 190.619953 -1093.792352 34.676042 0.049857 -0.411558 -0.910019 0 0
    0 218.668960 -1175.724916 -2.394223 0.521296 0.663110 -0.537155 0 0
    0 218.669110 -1175.724465 36.936482 0.656745 -0.143831 -0.740269 0 0
  phy
    0 218.668960 -1175.724916 -2.394223 0.521296 0.663110 -0.537155 0 0
    0 190.619953 -1093.792352 34.676042 0.049857 -0.411558 -0.910019 0 0
    0 190.620404 -1093.793403 -2.394219 0.045436 0.309162 -0.949923 0 0
  phy
    0 277.718071 -1189.748809 44.807074 0.944040 -0.321126 -0.075274 0 0
    0 218.669110 -1175.724465 36.936482 0.656745 -0.143831 -0.740269 0 0
    0 218.668960 -1175.724916 -2.394223 0.521296 0.663110 -0.537155 0 0
  phy
    0 218.668960 -1175.724916 -2.394223 0.521296 0.663110 -0.537155 0 0
    0 277.718371 -1189.749410 -2.394224 0.466380 0.884333 -0.021099 0 0
    0 277.718071 -1189.748809 44.807074 0.944040 -0.321126 -0.075274 0 0
  phy
    0 277.718071 -1189.748809 44.807074 0.944040 -0.321126 -0.075274 0 0
    0 277.718371 -1189.749410 -2.394224 0.466380 0.884333 -0.021099 0 0
    0 355.221643 -1187.165403 38.401686 0.952693 -0.156896 0.260306 0 0
  phy
    0 277.718071 -1189.748809 44.807074 0.944040 -0.321126 -0.075274 0 0
    0 355.221643 -1187.165403 38.401686 0.952693 -0.156896 0.260306 0 0
    0 358.257744 -1164.947570 79.150463 0.341590 -0.854981 0.390287 0 0
  phy
    0 253.360778 -1008.171172 -2.394215 -0.943692 0.162789 -0.288002 0 0
    0 251.587395 -1006.664366 79.357718 -0.487757 -0.626025 -0.608429 0 0
    0 312.509612 -998.928641 94.928892 -0.637416 -0.767543 -0.067671 0 0
  phy
    0 314.626018 -1001.528192 -2.394215 -0.889447 0.456976 -0.007496 0 0
    0 253.360778 -1008.171172 -2.394215 -0.943692 0.162789 -0.288002 0 0
    0 312.509612 -998.928641 94.928892 -0.637416 -0.767543 -0.067671 0 0
  phy
    0 251.587395 -1006.664366 79.357718 -0.487757 -0.626025 -0.608429 0 0
    0 253.360778 -1008.171172 -2.394215 -0.943692 0.162789 -0.288002 0 0
    0 200.585042 -1049.875425 -2.396726 -0.096236 0.990603 -0.097181 0 0
  phy
    0 200.585042 -1049.875425 -2.396726 -0.096236 0.990603 -0.097181 0 0
    0 253.360778 -1008.171172 -2.394215 -0.943692 0.162789 -0.288002 0 0
    0 314.626018 -1001.528192 -2.394215 -0.889447 0.456976 -0.007496 0 0
  phy
    0 355.222507 -1187.165703 -2.394224 0.221276 0.973342 0.060347 0 0
    0 200.585042 -1049.875425 -2.396726 -0.096236 0.990603 -0.097181 0 0
    0 391.389854 -1158.748386 -2.394223 0.131410 0.958956 0.251265 0 0
  phy
    0 200.585042 -1049.875425 -2.396726 -0.096236 0.990603 -0.097181 0 0
    0 355.222507 -1187.165703 -2.394224 0.221276 0.973342 0.060347 0 0
    0 277.718371 -1189.749410 -2.394224 0.466380 0.884333 -0.021099 0 0
  phy
    0 355.222507 -1187.165703 -2.394224 0.221276 0.973342 0.060347 0 0
    0 391.389854 -1158.748386 -2.394223 0.131410 0.958956 0.251265 0 0
    0 355.221643 -1187.165403 38.401686 0.952693 -0.156896 0.260306 0 0
  phy
    0 355.221643 -1187.165403 38.401686 0.952693 -0.156896 0.260306 0 0
    0 277.718371 -1189.749410 -2.394224 0.466380 0.884333 -0.021099 0 0
    0 355.222507 -1187.165703 -2.394224 0.221276 0.973342 0.060347 0 0
  phy
    0 358.257744 -1164.947570 79.150463 0.341590 -0.854981 0.390287 0 0
    0 409.526862 -1051.772711 49.826789 0.050012 -0.480652 0.875484 0 0
    0 384.361312 -1005.716099 79.149411 -0.223978 -0.844706 0.486113 0 0
  phy
    0 358.257744 -1164.947570 79.150463 0.341590 -0.854981 0.390287 0 0
    0 391.440129 -1158.448617 50.363691 0.317289 -0.228912 0.920287 0 0
    0 409.526862 -1051.772711 49.826789 0.050012 -0.480652 0.875484 0 0
  phy
    0 355.221643 -1187.165403 38.401686 0.952693 -0.156896 0.260306 0 0
    0 391.440129 -1158.448617 50.363691 0.317289 -0.228912 0.920287 0 0
    0 358.257744 -1164.947570 79.150463 0.341590 -0.854981 0.390287 0 0
  phy
    0 200.585042 -1049.875425 -2.396726 -0.096236 0.990603 -0.097181 0 0
    0 218.668960 -1175.724916 -2.394223 0.521296 0.663110 -0.537155 0 0
    0 190.620404 -1093.793403 -2.394219 0.045436 0.309162 -0.949923 0 0
  phy
    0 218.668960 -1175.724916 -2.394223 0.521296 0.663110 -0.537155 0 0
    0 200.585042 -1049.875425 -2.396726 -0.096236 0.990603 -0.097181 0 0
    0 277.718371 -1189.749410 -2.394224 0.466380 0.884333 -0.021099 0 0
  phy
    0 384.746799 -1007.063858 -2.394215 -0.712924 0.662412 0.230105 0 0
    0 409.473847 -1052.089601 -2.394218 -0.039683 0.877476 0.477976 0 0
    0 200.585042 -1049.875425 -2.396726 -0.096236 0.990603 -0.097181 0 0
  phy
    0 200.585042 -1049.875425 -2.396726 -0.096236 0.990603 -0.097181 0 0
    0 409.473847 -1052.089601 -2.394218 -0.039683 0.877476 0.477976 0 0
    0 391.389854 -1158.748386 -2.394223 0.131410 0.958956 0.251265 0 0
  phy
    0 384.746799 -1007.063858 -2.394215 -0.712924 0.662412 0.230105 0 0
    0 384.361312 -1005.716099 79.149411 -0.223978 -0.844706 0.486113 0 0
    0 409.473847 -1052.089601 -2.394218 -0.039683 0.877476 0.477976 0 0
  phy
    0 384.361312 -1005.716099 79.149411 -0.223978 -0.844706 0.486113 0 0
    0 409.526862 -1051.772711 49.826789 0.050012 -0.480652 0.875484 0 0
    0 409.473847 -1052.089601 -2.394218 -0.039683 0.877476 0.477976 0 0
  phy
    0 409.473847 -1052.089601 -2.394218 -0.039683 0.877476 0.477976 0 0
    0 391.440129 -1158.448617 50.363691 0.317289 -0.228912 0.920287 0 0
    0 391.389854 -1158.748386 -2.394223 0.131410 0.958956 0.251265 0 0
  phy
    0 409.526862 -1051.772711 49.826789 0.050012 -0.480652 0.875484 0 0
    0 391.440129 -1158.448617 50.363691 0.317289 -0.228912 0.920287 0 0
    0 409.473847 -1052.089601 -2.394218 -0.039683 0.877476 0.477976 0 0
  phy
    0 384.361312 -1005.716099 79.149411 -0.223978 -0.844706 0.486113 0 0
    0 384.746799 -1007.063858 -2.394215 -0.712924 0.662412 0.230105 0 0
    0 312.509612 -998.928641 94.928892 -0.637416 -0.767543 -0.067671 0 0
  phy
    0 384.746799 -1007.063858 -2.394215 -0.712924 0.662412 0.230105 0 0
    0 314.626018 -1001.528192 -2.394215 -0.889447 0.456976 -0.007496 0 0
    0 312.509612 -998.928641 94.928892 -0.637416 -0.767543 -0.067671 0 0
  phy
    0 384.746799 -1007.063858 -2.394215 -0.712924 0.662412 0.230105 0 0
    0 200.585042 -1049.875425 -2.396726 -0.096236 0.990603 -0.097181 0 0
    0 314.626018 -1001.528192 -2.394215 -0.889447 0.456976 -0.007496 0 0
  phy
    0 384.361312 -1005.716099 79.149411 -0.223978 -0.844706 0.486113 0 0
    0 312.509612 -998.928641 94.928892 -0.637416 -0.767543 -0.067671 0 0
    0 282.990125 -1155.169029 96.759852 -0.010105 -0.999948 0.001665 0 0
  phy
    0 391.389854 -1158.748386 -2.394223 0.131410 0.958956 0.251265 0 0
    0 391.440129 -1158.448617 50.363691 0.317289 -0.228912 0.920287 0 0
    0 355.221643 -1187.165403 38.401686 0.952693 -0.156896 0.260306 0 0
end
