version 1
nodes
0 "ValveBiped.Bip01_Pelvis" -1
1 "ValveBiped.Bip01_L_Thigh" 0
2 "ValveBiped.Bip01_L_Calf" 1
3 "ValveBiped.Bip01_L_Foot" 2
4 "ValveBiped.Bip01_L_Toe0" 3
5 "ValveBiped.Bip01_R_Thigh" 0
6 "ValveBiped.Bip01_R_Calf" 5
7 "ValveBiped.Bip01_R_Foot" 6
8 "ValveBiped.Bip01_R_Toe0" 7
9 "ValveBiped.Bip01_Spine" 0
10 "ValveBiped.Bip01_Spine1" 9
11 "ValveBiped.Bip01_Spine2" 10
12 "ValveBiped.Bip01_Spine4" 11
13 "ValveBiped.Bip01_Neck1" 12
14 "ValveBiped.Bip01_Head1" 13
15 "J_Adj_L_FaceEye" 14
16 "J_Adj_R_FaceEye" 14
17 "J_Sec_Hair1_01" 14
18 "J_Sec_Hair2_01" 17
19 "J_Sec_Hair3_01" 18
20 "J_Sec_Hair4_01" 19
21 "J_Sec_Hair1_02" 14
22 "J_Sec_Hair2_02" 21
23 "J_Sec_Hair3_02" 22
24 "J_Sec_Hair1_03" 14
25 "J_Sec_Hair2_03" 24
26 "J_Sec_Hair3_03" 25
27 "J_Sec_Hair1_04" 14
28 "J_Sec_Hair2_04" 27
29 "J_Sec_Hair3_04" 28
30 "J_Sec_Hair1_05" 14
31 "J_Sec_Hair2_05" 30
32 "J_Sec_Hair3_05" 31
33 "J_Sec_Hair1_06" 14
34 "J_Sec_Hair2_06" 33
35 "J_Sec_Hair3_06" 34
36 "J_Sec_Hair1_07" 14
37 "J_Sec_Hair2_07" 36
38 "J_Sec_Hair1_08" 14
39 "J_Sec_Hair2_08" 38
40 "J_Sec_Hair1_09" 14
41 "J_Sec_Hair2_09" 40
42 "J_Sec_Hair1_10" 14
43 "J_Sec_Hair2_10" 42
44 "J_Sec_Hair1_11" 14
45 "J_Sec_Hair2_11" 44
46 "J_Sec_Hair1_12" 14
47 "J_Sec_Hair2_12" 46
48 "J_Sec_Hair1_13" 14
49 "J_Sec_Hair2_13" 48
50 "J_Sec_Hair1_14" 14
51 "J_Sec_Hair2_14" 50
52 "J_Sec_Hair1_15" 14
53 "J_Sec_Hair2_15" 52
54 "J_Sec_Hair1_16" 14
55 "J_Sec_Hair2_16" 54
56 "J_Sec_Hair3_16" 55
57 "J_Sec_Hair1_17" 14
58 "J_Sec_Hair2_17" 57
59 "J_Sec_Hair3_17" 58
60 "J_Sec_Hair4_17" 59
61 "J_Sec_Hair5_17" 60
62 "J_Sec_Hair6_17" 61
63 "J_Sec_Hair7_17" 62
64 "J_Sec_Hair1_18" 14
65 "J_Sec_Hair2_18" 64
66 "J_Sec_Hair3_18" 65
67 "J_Sec_Hair4_18" 66
68 "J_Sec_Hair5_18" 67
69 "J_Sec_Hair6_18" 68
70 "J_Sec_Hair7_18" 69
71 "J_Sec_Hair1_19" 14
72 "J_Sec_Hair2_19" 71
73 "ValveBiped.Bip01_L_Clavicle" 12
74 "ValveBiped.Bip01_L_UpperArm" 73
75 "ValveBiped.Bip01_L_Forearm" 74
76 "ValveBiped.Bip01_L_Hand" 75
77 "ValveBiped.Bip01_L_Finger2" 76
78 "ValveBiped.Bip01_L_Finger21" 77
79 "ValveBiped.Bip01_L_Finger22" 78
80 "ValveBiped.Bip01_L_Finger1" 76
81 "ValveBiped.Bip01_L_Finger11" 80
82 "ValveBiped.Bip01_L_Finger12" 81
83 "ValveBiped.Bip01_L_Finger0" 76
84 "ValveBiped.Bip01_L_Finger01" 83
85 "ValveBiped.Bip01_L_Finger02" 84
86 "ValveBiped.Bip01_L_Finger4" 76
87 "ValveBiped.Bip01_L_Finger41" 86
88 "ValveBiped.Bip01_L_Finger42" 87
89 "ValveBiped.Bip01_L_Finger3" 76
90 "ValveBiped.Bip01_L_Finger31" 89
91 "ValveBiped.Bip01_L_Finger32" 90
92 "ValveBiped.Bip01_R_Clavicle" 12
93 "ValveBiped.Bip01_R_UpperArm" 92
94 "ValveBiped.Bip01_R_Forearm" 93
95 "ValveBiped.Bip01_R_Hand" 94
96 "ValveBiped.Bip01_R_Finger2" 95
97 "ValveBiped.Bip01_R_Finger21" 96
98 "ValveBiped.Bip01_R_Finger22" 97
99 "ValveBiped.Bip01_R_Finger1" 95
100 "ValveBiped.Bip01_R_Finger11" 99
101 "ValveBiped.Bip01_R_Finger12" 100
102 "ValveBiped.Bip01_R_Finger0" 95
103 "ValveBiped.Bip01_R_Finger01" 102
104 "ValveBiped.Bip01_R_Finger02" 103
105 "ValveBiped.Bip01_R_Finger4" 95
106 "ValveBiped.Bip01_R_Finger41" 105
107 "ValveBiped.Bip01_R_Finger42" 106
108 "ValveBiped.Bip01_R_Finger3" 95
109 "ValveBiped.Bip01_R_Finger31" 108
110 "ValveBiped.Bip01_R_Finger32" 109
111 "J_Sec_L_Bust1" 12
112 "J_Sec_L_Bust2" 111
113 "J_Sec_R_Bust1" 12
114 "J_Sec_R_Bust2" 113
115 "blender_implicit" 0
116 "Root" 0
end
skeleton
time 0
0  0.000000 -0.215981 36.707813  1.570796 -0.000000 0.000001
1  2.763114 -1.442894 -0.132636  -1.571056 0.020920 -1.570794
2  13.843041 0.000065 -0.000037  -0.004957 0.000202 0.039214
3  15.243612 -0.000075 0.000002  0.008799 0.017186 -1.002426
4  6.179252 -0.686110 0.083717  -0.001050 -0.003488 -0.555364
5  -2.763114 -1.442894 -0.132639  -1.570566 0.020920 -1.570799
6  13.843028 0.000064 0.000039  0.004948 -0.000204 0.039213
7  15.243613 -0.000072 -0.000001  -0.002131 -0.019445 -1.002276
8  6.178955 -0.687546 -0.093326  -0.061129 0.006496 -0.556043
9  -0.000000 1.768078 0.438796  1.570795 0.086294 1.570791
10  3.683841 0.368773 -0.000020  -0.000000 0.000001 -0.029231
11  -0.000005 0.000000 0.000000  0.000000 -0.000044 0.100328
12  3.817238 -0.461726 -0.000185  0.000009 0.000052 0.194100
13  4.474858 -2.223249 0.000020  3.141588 -0.000020 0.372980
14  2.279965 1.033708 0.000038  -0.000004 0.000010 0.302765
15  2.508570 -0.230864 -0.711011  -2.997458 -1.570822 0.091963
16  2.508533 -0.230869 0.711138  -2.997457 -1.570822 0.059365
17  6.886665 -2.424948 0.198199  -2.411157 1.338195 -0.481175
18  0.000006 1.098115 -0.000001  0.193546 0.018682 0.014266
19  -0.000006 1.107231 -0.000002  -0.017484 -0.001678 -0.001261
20  0.000002 1.107051 0.000000  0.000000 0.000000 -0.000000
21  7.132429 -2.576561 0.548724  -2.467585 1.667528 -0.425189
22  -0.000000 1.239929 -0.000002  0.220090 0.052265 -0.045719
23  -0.000000 1.257272 0.000000  -0.000000 -0.000000 -0.000000
24  3.907598 -1.788023 -3.252001  -2.438632 1.695711 -0.454109
25  0.000001 2.695917 0.000001  0.000622 -0.084089 0.070944
26  0.000002 2.702163 -0.000001  0.000000 0.000001 -0.000001
27  3.939971 -1.773285 3.245661  -2.438565 1.451365 -0.453738
28  -0.000002 2.714025 0.000009  0.000630 0.087660 -0.073939
29  0.000000 2.720871 0.000001  -0.000000 -0.000000 -0.000000
30  3.837198 -0.608681 4.267143  -2.457581 1.456182 -0.434746
31  0.000002 2.088239 0.000011  -0.957008 0.886148 -1.662831
32  -0.000018 2.185414 -0.000011  -0.000001 -0.000007 -0.000000
33  3.296707 -0.737684 -4.332202  0.617044 1.236971 2.773606
34  0.000011 1.792662 0.000005  -0.718120 -1.054585 1.386093
35  -0.000009 1.912136 0.000011  0.000000 0.000004 -0.000000
36  3.530901 -2.750919 4.173767  1.271302 0.682548 2.119357
37  -0.000012 7.518756 0.000091  -0.000000 0.000002 -0.000003
38  4.095798 -3.058823 -3.881626  -1.962244 0.716074 -0.930184
39  0.000008 7.310967 0.000032  0.000001 -0.000001 0.000001
40  7.405881 -1.786754 2.590066  1.342509 0.486691 2.048159
41  -0.000002 4.858870 0.000002  -0.000001 0.000001 0.000000
42  7.203874 -1.701287 -3.170210  -1.798473 0.516231 -1.093963
43  -0.000005 4.253150 -0.000058  -0.000002 -0.000002 -0.000003
44  -1.458488 3.886368 0.907545  -2.344376 1.343647 -0.547969
45  -0.000006 2.055712 -0.000003  -0.000001 0.000001 0.000000
46  -1.346678 4.246807 -1.388177  -2.419352 1.769791 -0.473294
47  -0.000003 2.198924 -0.000009  -0.000005 -0.000001 0.000001
48  1.376508 -0.592895 3.637507  -2.409577 1.261375 -0.482796
49  -0.000006 1.595863 0.000001  0.000000 0.000001 -0.000001
50  -0.044103 1.982462 3.581082  -2.423827 1.574632 -0.616938
51  0.000000 2.979942 0.000002  -0.000000 0.000000 -0.000001
52  1.652929 -0.647108 -3.747333  0.770160 1.102823 2.620476
53  0.000018 2.039981 0.000000  0.000000 -0.000000 0.000001
54  1.687960 1.858138 -3.942729  -2.389175 1.261533 -0.503184
55  -0.000000 2.210030 0.000000  -0.003001 -0.002054 0.001289
56  0.000019 2.210081 -0.000006  -0.000002 -0.000001 -0.000001
57  0.945233 -1.787082 -3.797905  -2.565916 1.528006 -0.326025
58  -0.000000 1.479283 0.000017  -0.000065 -0.049406 0.032070
59  0.000001 1.479216 0.000010  0.002825 -0.091867 0.059422
60  -0.000000 1.479139 0.000007  0.009515 -0.104620 0.066684
61  -0.000001 1.479642 -0.000005  0.009689 -0.061095 0.038430
62  0.000008 1.480353 0.000006  -0.001553 0.007897 -0.005005
63  -0.000011 1.480287 -0.000012  0.000000 -0.000001 0.000001
64  0.974116 -1.828231 3.794367  -2.575071 1.615189 -0.317853
65  0.000000 1.479013 -0.000009  0.006414 0.050643 -0.032196
66  -0.000001 1.478946 0.000012  0.015409 0.095111 -0.059841
67  -0.000003 1.478934 0.000013  0.023289 0.102087 -0.063146
68  -0.000005 1.479414 0.000004  0.016705 0.055954 -0.034388
69  -0.000007 1.480077 0.000014  -0.002849 -0.008471 0.005294
70  -0.000004 1.479996 0.000007  0.000000 -0.000000 -0.000000
71  8.683629 0.579162 -0.120757  -0.737796 1.499784 -2.154126
72  -0.000006 5.278078 -0.000008  0.000001 0.000000 0.000000
73  3.579350 -1.752102 0.802042  -1.577191 -2.025535 -0.171569
74  2.665756 0.858514 0.008416  -1.570907 -0.002444 -0.770589
75  7.925004 -0.000027 -0.000002  -0.000190 -0.000008 -0.001772
76  7.303160 -0.000039 -0.000003  1.573449 -0.106736 0.134897
77  2.177922 0.015792 0.359458  0.037527 -0.133410 -0.106396
78  1.224081 0.000002 0.000000  -0.033167 0.000001 0.000002
79  0.755173 0.000002 0.000000  0.000000 0.003077 -0.216388
80  2.070964 0.027363 0.939554  0.273434 -0.113735 -0.106387
81  1.098944 -0.000009 0.000000  -0.037012 0.010731 -0.033410
82  0.676628 -0.000005 0.000001  -0.000001 0.002593 -0.244327
83  0.008507 -0.337564 0.544979  -1.718761 -0.846357 -0.173475
84  1.547761 -0.000002 -0.000000  -0.098620 -0.018877 0.041048
85  0.951510 -0.000003 -0.000001  0.000006 0.011267 0.362860
86  2.144377 0.019100 -0.699189  -0.467554 -0.133409 -0.106387
87  1.038635 -0.000002 0.000001  0.000504 -0.000000 -0.000003
88  0.598615 0.000001 0.000000  -0.000005 0.004979 -0.244267
89  2.222494 0.010893 -0.162388  -0.189758 -0.133410 -0.106390
90  1.135494 0.000001 0.000001  0.008098 0.000001 -0.000007
91  0.655290 0.000005 0.000000  0.000001 0.007356 -0.430820
92  3.579357 -1.752101 -0.802009  1.567158 2.023840 -0.181982
93  2.667199 0.854044 0.004335  1.569499 -0.000345 -0.780866
94  7.925004 -0.000009 0.000002  -0.000418 0.000017 -0.001767
95  7.303168 -0.000055 0.000002  -1.563665 0.106374 0.130246
96  2.179777 0.013315 -0.348148  -0.033466 0.127719 -0.107307
97  1.224084 -0.000005 -0.000000  0.031988 -0.000000 -0.000002
98  0.755171 -0.000000 -0.000000  -0.000001 -0.004460 -0.216345
99  2.075857 0.022211 -0.928841  -0.273009 0.108044 -0.107222
100  1.098941 -0.000009 -0.000000  0.039270 -0.010881 -0.033366
101  0.676628 0.000002 -0.000000  0.000003 -0.004203 -0.244315
102  0.011222 -0.340111 -0.543344  2.010899 0.840400 -0.177997
103  1.547760 -0.000005 0.000001  0.140570 0.030084 0.033701
104  0.951509 0.000006 0.000001  -0.000006 -0.009622 0.362884
105  2.140709 0.021586 0.710283  0.467703 0.127718 -0.107304
106  1.038627 -0.000002 -0.000000  -0.013936 -0.000002 -0.000004
107  0.598611 0.000000 -0.000001  0.000006 -0.006133 -0.244288
108  2.221620 0.010838 0.173942  0.181004 0.127716 -0.107297
109  1.135491 -0.000010 -0.000000  -0.005393 -0.000000 -0.000015
110  0.655291 0.000003 -0.000000  0.000004 -0.009661 -0.430788
111  0.186244 2.509301 1.925558  -0.806191 2.244216 -0.985092
112  0.000002 0.930897 -0.000004  0.000001 -0.000000 0.000000
113  0.186263 2.509302 -1.925556  -0.806176 0.897371 -0.985080
114  0.000003 0.930899 -0.000003  0.000000 0.000001 -0.000000
115  0.000000 -36.707813 -0.215981  -1.570796 -0.000001 0.000000
116  0.000000 -36.707813 -0.215981  0.005884 -0.000001 -0.000000
time 1
0  0.000000 -0.215981 36.707813  1.570796 -0.000000 0.000001
1  2.763114 -1.442894 -0.132636  -1.571056 0.020920 -1.570794
2  13.843041 0.000065 -0.000037  -0.004957 0.000202 0.039214
3  15.243612 -0.000075 0.000002  0.008799 0.017186 -1.002426
4  6.179252 -0.686110 0.083717  -0.001050 -0.003488 -0.555364
5  -2.763114 -1.442894 -0.132639  -1.570566 0.020920 -1.570799
6  13.843028 0.000064 0.000039  0.004948 -0.000204 0.039213
7  15.243613 -0.000072 -0.000001  -0.002131 -0.019445 -1.002276
8  6.178955 -0.687546 -0.093326  -0.061129 0.006496 -0.556043
9  -0.000000 1.768078 0.438796  1.570795 0.086294 1.570791
10  3.683841 0.368773 -0.000020  -0.000000 0.000001 -0.029231
11  -0.000005 0.000000 0.000000  0.000000 -0.000044 0.100328
12  3.817238 -0.461726 -0.000185  0.000009 0.000052 0.194100
13  4.474858 -2.223249 0.000020  3.141588 -0.000020 0.372980
14  2.279965 1.033708 0.000038  -0.000004 0.000010 0.302765
15  2.508570 -0.230864 -0.711011  -2.997458 -1.570822 0.091963
16  2.508533 -0.230869 0.711138  -2.997457 -1.570822 0.059365
17  6.886665 -2.424948 0.198199  -2.411157 1.338195 -0.481175
18  0.000006 1.098115 -0.000001  0.193546 0.018682 0.014266
19  -0.000006 1.107231 -0.000002  -0.017484 -0.001678 -0.001261
20  0.000002 1.107051 0.000000  0.000000 0.000000 -0.000000
21  7.132429 -2.576561 0.548724  -2.467585 1.667528 -0.425189
22  -0.000000 1.239929 -0.000002  0.220090 0.052265 -0.045719
23  -0.000000 1.257272 0.000000  -0.000000 -0.000000 -0.000000
24  3.907598 -1.788023 -3.252001  -2.438632 1.695711 -0.454109
25  0.000001 2.695917 0.000001  0.000622 -0.084089 0.070944
26  0.000002 2.702163 -0.000001  0.000000 0.000001 -0.000001
27  3.939971 -1.773285 3.245661  -2.438565 1.451365 -0.453738
28  -0.000002 2.714025 0.000009  0.000630 0.087660 -0.073939
29  0.000000 2.720871 0.000001  -0.000000 -0.000000 -0.000000
30  3.837198 -0.608681 4.267143  -2.457581 1.456182 -0.434746
31  0.000002 2.088239 0.000011  -0.957008 0.886148 -1.662831
32  -0.000018 2.185414 -0.000011  -0.000001 -0.000007 -0.000000
33  3.296707 -0.737684 -4.332202  0.617044 1.236971 2.773606
34  0.000011 1.792662 0.000005  -0.718120 -1.054585 1.386093
35  -0.000009 1.912136 0.000011  0.000000 0.000004 -0.000000
36  3.530901 -2.750919 4.173767  1.271302 0.682548 2.119357
37  -0.000012 7.518756 0.000091  -0.000000 0.000002 -0.000003
38  4.095798 -3.058823 -3.881626  -1.962244 0.716074 -0.930184
39  0.000008 7.310967 0.000032  0.000001 -0.000001 0.000001
40  7.405881 -1.786754 2.590066  1.342509 0.486691 2.048159
41  -0.000002 4.858870 0.000002  -0.000001 0.000001 0.000000
42  7.203874 -1.701287 -3.170210  -1.798473 0.516231 -1.093963
43  -0.000005 4.253150 -0.000058  -0.000002 -0.000002 -0.000003
44  -1.458488 3.886368 0.907545  -2.344376 1.343647 -0.547969
45  -0.000006 2.055712 -0.000003  -0.000001 0.000001 0.000000
46  -1.346678 4.246807 -1.388177  -2.419352 1.769791 -0.473294
47  -0.000003 2.198924 -0.000009  -0.000005 -0.000001 0.000001
48  1.376508 -0.592895 3.637507  -2.409577 1.261375 -0.482796
49  -0.000006 1.595863 0.000001  0.000000 0.000001 -0.000001
50  -0.044103 1.982462 3.581082  -2.423827 1.574632 -0.616938
51  0.000000 2.979942 0.000002  -0.000000 0.000000 -0.000001
52  1.652929 -0.647108 -3.747333  0.770160 1.102823 2.620476
53  0.000018 2.039981 0.000000  0.000000 -0.000000 0.000001
54  1.687960 1.858138 -3.942729  -2.389175 1.261533 -0.503184
55  -0.000000 2.210030 0.000000  -0.003001 -0.002054 0.001289
56  0.000019 2.210081 -0.000006  -0.000002 -0.000001 -0.000001
57  0.945233 -1.787082 -3.797905  -2.565916 1.528006 -0.326025
58  -0.000000 1.479283 0.000017  -0.000065 -0.049406 0.032070
59  0.000001 1.479216 0.000010  0.002825 -0.091867 0.059422
60  -0.000000 1.479139 0.000007  0.009515 -0.104620 0.066684
61  -0.000001 1.479642 -0.000005  0.009689 -0.061095 0.038430
62  0.000008 1.480353 0.000006  -0.001553 0.007897 -0.005005
63  -0.000011 1.480287 -0.000012  0.000000 -0.000001 0.000001
64  0.974116 -1.828231 3.794367  -2.575071 1.615189 -0.317853
65  0.000000 1.479013 -0.000009  0.006414 0.050643 -0.032196
66  -0.000001 1.478946 0.000012  0.015409 0.095111 -0.059841
67  -0.000003 1.478934 0.000013  0.023289 0.102087 -0.063146
68  -0.000005 1.479414 0.000004  0.016705 0.055954 -0.034388
69  -0.000007 1.480077 0.000014  -0.002849 -0.008471 0.005294
70  -0.000004 1.479996 0.000007  0.000000 -0.000000 -0.000000
71  8.683629 0.579162 -0.120757  -0.737796 1.499784 -2.154126
72  -0.000006 5.278078 -0.000008  0.000001 0.000000 0.000000
73  3.579350 -1.752102 0.802042  -1.577191 -2.025535 -0.171569
74  2.665756 0.858514 0.008416  -1.570907 -0.002444 -0.770589
75  7.925004 -0.000027 -0.000002  -0.000190 -0.000008 -0.001772
76  7.303160 -0.000039 -0.000003  1.573449 -0.106736 0.134897
77  2.177922 0.015792 0.359458  0.037527 -0.133410 -0.106396
78  1.224081 0.000002 0.000000  -0.033167 0.000001 0.000002
79  0.755173 0.000002 0.000000  0.000000 0.003077 -0.216388
80  2.070964 0.027363 0.939554  0.273434 -0.113735 -0.106387
81  1.098944 -0.000009 0.000000  -0.037012 0.010731 -0.033410
82  0.676628 -0.000005 0.000001  -0.000001 0.002593 -0.244327
83  0.008507 -0.337564 0.544979  -1.718761 -0.846357 -0.173475
84  1.547761 -0.000002 -0.000000  -0.098620 -0.018877 0.041048
85  0.951510 -0.000003 -0.000001  0.000006 0.011267 0.362860
86  2.144377 0.019100 -0.699189  -0.467554 -0.133409 -0.106387
87  1.038635 -0.000002 0.000001  0.000504 -0.000000 -0.000003
88  0.598615 0.000001 0.000000  -0.000005 0.004979 -0.244267
89  2.222494 0.010893 -0.162388  -0.189758 -0.133410 -0.106390
90  1.135494 0.000001 0.000001  0.008098 0.000001 -0.000007
91  0.655290 0.000005 0.000000  0.000001 0.007356 -0.430820
92  3.579357 -1.752101 -0.802009  1.567158 2.023840 -0.181982
93  2.667199 0.854044 0.004335  1.569499 -0.000345 -0.780866
94  7.925004 -0.000009 0.000002  -0.000418 0.000017 -0.001767
95  7.303168 -0.000055 0.000002  -1.563665 0.106374 0.130246
96  2.179777 0.013315 -0.348148  -0.033466 0.127719 -0.107307
97  1.224084 -0.000005 -0.000000  0.031988 -0.000000 -0.000002
98  0.755171 -0.000000 -0.000000  -0.000001 -0.004460 -0.216345
99  2.075857 0.022211 -0.928841  -0.273009 0.108044 -0.107222
100  1.098941 -0.000009 -0.000000  0.039270 -0.010881 -0.033366
101  0.676628 0.000002 -0.000000  0.000003 -0.004203 -0.244315
102  0.011222 -0.340111 -0.543344  2.010899 0.840400 -0.177997
103  1.547760 -0.000005 0.000001  0.140570 0.030084 0.033701
104  0.951509 0.000006 0.000001  -0.000006 -0.009622 0.362884
105  2.140709 0.021586 0.710283  0.467703 0.127718 -0.107304
106  1.038627 -0.000002 -0.000000  -0.013936 -0.000002 -0.000004
107  0.598611 0.000000 -0.000001  0.000006 -0.006133 -0.244288
108  2.221620 0.010838 0.173942  0.181004 0.127716 -0.107297
109  1.135491 -0.000010 -0.000000  -0.005393 -0.000000 -0.000015
110  0.655291 0.000003 -0.000000  0.000004 -0.009661 -0.430788
111  0.186244 2.509301 1.925558  -0.806191 2.244216 -0.985092
112  0.000002 0.930897 -0.000004  0.000001 -0.000000 0.000000
113  0.186263 2.509302 -1.925556  -0.806176 0.897371 -0.985080
114  0.000003 0.930899 -0.000003  0.000000 0.000001 -0.000000
115  0.000000 -36.707813 -0.215981  -1.570796 -0.000001 0.000000
116  0.000000 -36.707813 -0.215981  0.005884 -0.000001 -0.000000
end
