version 1
nodes
0 "ValveBiped.Bip01_Pelvis" -1
1 "ValveBiped.Bip01_Spine" 0
2 "ValveBiped.Bip01_Spine1" 1
3 "ValveBiped.Bip01_Spine2" 2
4 "ValveBiped.Bip01_Spine4" 3
5 "ValveBiped.Bip01_Neck1" 4
6 "ValveBiped.Bip01_Head1" 5
7 "ValveBiped.forward" 6
8 "ValveBiped.Bip01_L_Clavicle" 4
9 "ValveBiped.Bip01_L_UpperArm" 8
10 "ValveBiped.Bip01_L_Forearm" 9
11 "ValveBiped.Bip01_L_Hand" 10
12 "ValveBiped.Anim_Attachment_LH" 11
13 "ValveBiped.Bip01_L_Finger4" 11
14 "ValveBiped.Bip01_L_Finger41" 13
15 "ValveBiped.Bip01_L_Finger42" 14
16 "ValveBiped.Bip01_L_Finger3" 11
17 "ValveBiped.Bip01_L_Finger31" 16
18 "ValveBiped.Bip01_L_Finger32" 17
19 "ValveBiped.Bip01_L_Finger2" 11
20 "ValveBiped.Bip01_L_Finger21" 19
21 "ValveBiped.Bip01_L_Finger22" 20
22 "ValveBiped.Bip01_L_Finger1" 11
23 "ValveBiped.Bip01_L_Finger11" 22
24 "ValveBiped.Bip01_L_Finger12" 23
25 "ValveBiped.Bip01_L_Finger0" 11
26 "ValveBiped.Bip01_L_Finger01" 25
27 "ValveBiped.Bip01_L_Finger02" 26
28 "ValveBiped.Bip01_R_Clavicle" 4
29 "ValveBiped.Bip01_R_UpperArm" 28
30 "ValveBiped.Bip01_R_Forearm" 29
31 "ValveBiped.Bip01_R_Hand" 30
32 "ValveBiped.Anim_Attachment_RH" 31
33 "ValveBiped.Bip01_R_Finger4" 31
34 "ValveBiped.Bip01_R_Finger41" 33
35 "ValveBiped.Bip01_R_Finger42" 34
36 "ValveBiped.Bip01_R_Finger3" 31
37 "ValveBiped.Bip01_R_Finger31" 36
38 "ValveBiped.Bip01_R_Finger32" 37
39 "ValveBiped.Bip01_R_Finger2" 31
40 "ValveBiped.Bip01_R_Finger21" 39
41 "ValveBiped.Bip01_R_Finger22" 40
42 "ValveBiped.Bip01_R_Finger1" 31
43 "ValveBiped.Bip01_R_Finger11" 42
44 "ValveBiped.Bip01_R_Finger12" 43
45 "ValveBiped.Bip01_R_Finger0" 31
46 "ValveBiped.Bip01_R_Finger01" 45
47 "ValveBiped.Bip01_R_Finger02" 46
48 "ValveBiped.Bip01_L_Thigh" 0
49 "ValveBiped.Bip01_L_Calf" 48
50 "ValveBiped.Bip01_L_Foot" 49
51 "ValveBiped.Bip01_L_Toe0" 50
52 "ValveBiped.Bip01_R_Thigh" 0
53 "ValveBiped.Bip01_R_Calf" 52
54 "ValveBiped.Bip01_R_Foot" 53
55 "ValveBiped.Bip01_R_Toe0" 54
end
skeleton
time 0
0  -0.000005 -0.788460 38.481480  1.570796 -0.000000 0.000001
1  0.000005 4.212788 -1.689856  1.570795 0.086294 1.570791
2  3.837404 0.000028 0.000001  -0.000000 0.000001 -0.029231
3  3.617858 0.000024 -0.000003  -0.000000 -0.000044 0.100328
4  7.539775 0.000026 -0.000000  0.000010 0.000052 0.194100
5  3.178299 -0.000032 0.000003  3.141588 -0.000020 0.372980
6  2.970289 -0.000014 -0.000000  -0.000004 0.000010 0.302764
7  -0.000001 0.000000 0.000000  -1.570796 -0.000000 -1.326447
8  2.023717 0.907440 0.852581  -1.577191 -2.025535 -0.171569
9  4.983672 -0.000007 0.000009  -1.570907 -0.002444 -0.770589
10  11.123069 -0.000036 -0.000008  -0.000190 -0.000008 -0.001772
11  11.208265 -0.000034 -0.000038  1.573450 -0.106736 0.134897
12  2.676094 -1.712439 -0.000001  1.570795 0.000002 1.570888
13  3.549250 0.198826 -1.489473  -0.467554 -0.133409 -0.106387
14  1.219002 0.000002 0.000002  0.000505 -0.000000 -0.000004
15  0.680004 0.000002 -0.000003  -0.000007 0.004979 -0.244267
16  3.698015 0.267561 -0.728982  -0.189758 -0.133410 -0.106390
17  1.749006 0.000004 -0.000001  0.008098 0.000001 -0.000007
18  0.959998 -0.000005 0.000003  0.000003 0.007356 -0.430820
19  3.768513 0.152545 0.071383  0.037527 -0.133410 -0.106396
20  2.037999 -0.000008 0.000005  -0.033167 0.000001 0.000002
21  1.067005 0.000001 -0.000003  -0.000001 0.003077 -0.216388
22  3.783932 -0.017256 0.794554  0.273434 -0.113735 -0.106387
23  1.629002 -0.000003 -0.000001  -0.037012 0.010731 -0.033410
24  0.955998 0.000007 -0.000009  -0.000001 0.002593 -0.244327
25  1.258968 -0.297984 1.252593  -1.718761 -0.846357 -0.173475
26  1.393005 -0.000003 -0.000001  -0.098620 -0.018877 0.041048
27  1.100006 -0.000000 -0.000004  0.000006 0.011267 0.362860
28  2.023721 0.907443 -0.852526  1.567159 2.023841 -0.181981
29  4.983667 -0.000009 -0.000002  1.569499 -0.000345 -0.780866
30  11.123063 -0.000033 0.000011  -0.000418 0.000017 -0.001767
31  11.208312 -0.000030 0.000010  -1.563666 0.106374 0.130246
32  2.676093 -1.712462 -0.000001  -1.570805 0.000002 -1.570600
33  3.549283 0.211388 1.487670  0.467703 0.127718 -0.107304
34  1.219011 -0.000009 -0.000004  -0.013936 -0.000002 -0.000004
35  0.680002 0.000004 0.000000  0.000007 -0.006133 -0.244288
36  3.698036 0.273695 0.726621  0.181005 0.127716 -0.107297
37  1.749007 0.000009 0.000007  -0.005393 -0.000000 -0.000015
38  0.959995 -0.000004 -0.000004  0.000003 -0.009661 -0.430788
39  3.768519 0.151935 -0.072743  -0.033466 0.127719 -0.107307
40  2.038006 0.000006 0.000012  0.031988 -0.000000 -0.000002
41  1.067000 0.000004 0.000000  0.000000 -0.004460 -0.216345
42  3.783919 -0.023973 -0.794456  -0.273008 0.108044 -0.107222
43  1.629006 0.000003 0.000012  0.039270 -0.010881 -0.033366
44  0.955998 0.000010 0.000010  0.000003 -0.004203 -0.244315
45  1.258948 -0.308554 -1.250057  2.010899 0.840401 -0.177998
46  1.393005 -0.000002 -0.000003  0.140570 0.030084 0.033701
47  1.100005 0.000008 -0.000002  -0.000006 -0.009622 0.362884
48  3.984014 -0.000000 -0.000003  -1.571056 0.020920 -1.570794
49  15.940023 0.000153 0.000005  -0.004957 0.000203 0.039214
50  17.709562 -0.000014 -0.000004  0.008799 0.017186 -1.002426
51  6.203998 0.000015 -0.000001  -0.001050 -0.003488 -0.555364
52  -3.984013 0.000008 0.000007  -1.570566 0.020920 -1.570799
53  15.940018 0.000155 0.000001  0.004948 -0.000204 0.039213
54  17.709564 -0.000012 0.000001  -0.002131 -0.019445 -1.002276
55  6.203997 -0.000012 -0.000002  -0.061129 0.006496 -0.556044
time 1
0  -0.000005 -0.788460 38.481480  1.570796 -0.000000 0.000001
1  0.000005 4.212788 -1.689856  1.570795 0.086294 1.570791
2  3.837404 0.000028 0.000001  -0.000000 0.000001 -0.029231
3  3.617858 0.000024 -0.000003  -0.000000 -0.000044 0.100328
4  7.539775 0.000026 -0.000000  0.000010 0.000052 0.194100
5  3.178299 -0.000032 0.000003  3.141588 -0.000020 0.372980
6  2.970289 -0.000014 -0.000000  -0.000004 0.000010 0.302764
7  -0.000001 0.000000 0.000000  -1.570796 -0.000000 -1.326447
8  2.023717 0.907440 0.852581  -1.577191 -2.025535 -0.171569
9  4.983672 -0.000007 0.000009  -1.570907 -0.002444 -0.770589
10  11.123069 -0.000036 -0.000008  -0.000190 -0.000008 -0.001772
11  11.208265 -0.000034 -0.000038  1.573450 -0.106736 0.134897
12  2.676094 -1.712439 -0.000001  1.570795 0.000002 1.570888
13  3.549250 0.198826 -1.489473  -0.467554 -0.133409 -0.106387
14  1.219002 0.000002 0.000002  0.000505 -0.000000 -0.000004
15  0.680004 0.000002 -0.000003  -0.000007 0.004979 -0.244267
16  3.698015 0.267561 -0.728982  -0.189758 -0.133410 -0.106390
17  1.749006 0.000004 -0.000001  0.008098 0.000001 -0.000007
18  0.959998 -0.000005 0.000003  0.000003 0.007356 -0.430820
19  3.768513 0.152545 0.071383  0.037527 -0.133410 -0.106396
20  2.037999 -0.000008 0.000005  -0.033167 0.000001 0.000002
21  1.067005 0.000001 -0.000003  -0.000001 0.003077 -0.216388
22  3.783932 -0.017256 0.794554  0.273434 -0.113735 -0.106387
23  1.629002 -0.000003 -0.000001  -0.037012 0.010731 -0.033410
24  0.955998 0.000007 -0.000009  -0.000001 0.002593 -0.244327
25  1.258968 -0.297984 1.252593  -1.718761 -0.846357 -0.173475
26  1.393005 -0.000003 -0.000001  -0.098620 -0.018877 0.041048
27  1.100006 -0.000000 -0.000004  0.000006 0.011267 0.362860
28  2.023721 0.907443 -0.852526  1.567159 2.023841 -0.181981
29  4.983667 -0.000009 -0.000002  1.569499 -0.000345 -0.780866
30  11.123063 -0.000033 0.000011  -0.000418 0.000017 -0.001767
31  11.208312 -0.000030 0.000010  -1.563666 0.106374 0.130246
32  2.676093 -1.712462 -0.000001  -1.570805 0.000002 -1.570600
33  3.549283 0.211388 1.487670  0.467703 0.127718 -0.107304
34  1.219011 -0.000009 -0.000004  -0.013936 -0.000002 -0.000004
35  0.680002 0.000004 0.000000  0.000007 -0.006133 -0.244288
36  3.698036 0.273695 0.726621  0.181005 0.127716 -0.107297
37  1.749007 0.000009 0.000007  -0.005393 -0.000000 -0.000015
38  0.959995 -0.000004 -0.000004  0.000003 -0.009661 -0.430788
39  3.768519 0.151935 -0.072743  -0.033466 0.127719 -0.107307
40  2.038006 0.000006 0.000012  0.031988 -0.000000 -0.000002
41  1.067000 0.000004 0.000000  0.000000 -0.004460 -0.216345
42  3.783919 -0.023973 -0.794456  -0.273008 0.108044 -0.107222
43  1.629006 0.000003 0.000012  0.039270 -0.010881 -0.033366
44  0.955998 0.000010 0.000010  0.000003 -0.004203 -0.244315
45  1.258948 -0.308554 -1.250057  2.010899 0.840401 -0.177998
46  1.393005 -0.000002 -0.000003  0.140570 0.030084 0.033701
47  1.100005 0.000008 -0.000002  -0.000006 -0.009622 0.362884
48  3.984014 -0.000000 -0.000003  -1.571056 0.020920 -1.570794
49  15.940023 0.000153 0.000005  -0.004957 0.000203 0.039214
50  17.709562 -0.000014 -0.000004  0.008799 0.017186 -1.002426
51  6.203998 0.000015 -0.000001  -0.001050 -0.003488 -0.555364
52  -3.984013 0.000008 0.000007  -1.570566 0.020920 -1.570799
53  15.940018 0.000155 0.000001  0.004948 -0.000204 0.039213
54  17.709564 -0.000012 0.000001  -0.002131 -0.019445 -1.002276
55  6.203997 -0.000012 -0.000002  -0.061129 0.006496 -0.556044
end
