// Created by Crowbar 0.74
version 1
nodes
  0 "GhostAnim_reference" -1
  1 "Base" 0
  2 "Attachment_1" 0
end
skeleton
  time 0
    0 0.000000 0.000000 0.000000 0.000000 0.000000 -0.000001
    1 5708.000000 -598.500000 2458.000000 0.000000 0.000000 3.138210
    2 -1074.064909 2184.987028 -37.735930 0.008674 0.209268 -1.291364
  time 1
    0 0.000000 0.000000 0.000000 0.000000 0.000000 -0.000001
    1 5708.000000 -598.500000 2458.000000 0.000000 0.000000 3.138210
    2 -1074.064909 2184.920346 -37.735930 0.008674 0.209226 -1.291364
  time 2
    0 0.000000 0.000000 0.000000 0.000000 0.000000 -0.000001
    1 5708.000000 -598.500000 2458.000000 0.000000 0.000000 3.138210
    2 -1074.064909 2184.920346 -37.751472 0.008674 0.209142 -1.291364
  time 3
    0 0.000000 0.000000 0.000000 0.000000 0.000000 -0.000001
    1 5708.000000 -598.500000 2458.000000 0.000000 0.000000 3.138210
    2 -1074.064909 2184.920346 -37.767014 0.008674 0.209016 -1.291364
  time 4
    0 0.000000 0.000000 0.000000 0.000000 0.000000 -0.000001
    1 5708.000000 -598.500000 2458.000000 0.000000 0.000000 3.138210
    2 -1074.064909 2184.920346 -37.798098 0.008674 0.208805 -1.291268
  time 5
    0 0.000000 0.000000 0.000000 0.000000 0.000000 -0.000001
    1 5708.000000 -598.500000 2458.000000 0.000000 0.000000 3.138210
    2 -1074.064909 2184.920346 -37.844724 0.008674 0.208552 -1.291172
  time 6
    0 0.000000 0.000000 0.000000 0.000000 0.000000 -0.000001
    1 5708.000000 -598.500000 2458.000000 0.000000 0.000000 3.138210
    2 -1074.064909 2184.920346 -37.891350 0.008674 0.208216 -1.291172
  time 7
    0 0.000000 0.000000 0.000000 0.000000 0.000000 -0.000001
    1 5708.000000 -598.500000 2458.000000 0.000000 0.000000 3.138210
    2 -1073.972524 2184.920346 -37.953518 0.008674 0.207837 -1.291076
  time 8
    0 0.000000 0.000000 0.000000 0.000000 0.000000 -0.000001
    1 5708.000000 -598.500000 2458.000000 0.000000 0.000000 3.138210
    2 -1073.972524 2184.920346 -38.015685 0.008674 0.207416 -1.290980
  time 9
    0 0.000000 0.000000 0.000000 0.000000 0.000000 -0.000001
    1 5708.000000 -598.500000 2458.000000 0.000000 0.000000 3.138210
    2 -1073.972524 2184.853663 -38.093395 0.008579 0.206911 -1.290788
  time 10
    0 0.000000 0.000000 0.000000 0.000000 0.000000 -0.000001
    1 5708.000000 -598.500000 2458.000000 0.000000 0.000000 3.138210
    2 -1073.972524 2184.853663 -38.171105 0.008579 0.206363 -1.290692
  time 11
    0 0.000000 0.000000 0.000000 0.000000 0.000000 -0.000001
    1 5708.000000 -598.500000 2458.000000 0.000000 0.000000 3.138210
    2 -1073.880139 2184.853663 -38.264357 0.008579 0.205732 -1.290501
  time 12
    0 0.000000 0.000000 0.000000 0.000000 0.000000 -0.000001
    1 5708.000000 -598.500000 2458.000000 0.000000 0.000000 3.138210
    2 -1073.880139 2184.786981 -38.373151 0.008579 0.205058 -1.290405
  time 13
    0 0.000000 0.000000 0.000000 0.000000 0.000000 -0.000001
    1 5708.000000 -598.500000 2458.000000 0.000000 0.000000 3.138210
    2 -1073.880139 2184.786981 -38.481945 0.008483 0.204301 -1.290213
  time 14
    0 0.000000 0.000000 0.000000 0.000000 0.000000 -0.000001
    1 5708.000000 -598.500000 2458.000000 0.000000 0.000000 3.138210
    2 -1073.787755 2184.720298 -38.606281 0.008483 0.203501 -1.290021
  time 15
    0 0.000000 0.000000 0.000000 0.000000 0.000000 -0.000001
    1 5708.000000 -598.500000 2458.000000 0.000000 0.000000 3.138210
    2 -1073.787755 2184.720298 -38.730617 0.008483 0.202617 -1.289830
  time 16
    0 0.000000 0.000000 0.000000 0.000000 0.000000 -0.000001
    1 5708.000000 -598.500000 2458.000000 0.000000 0.000000 3.138210
    2 -1073.695370 2184.653616 -38.870494 0.008387 0.201690 -1.289542
  time 17
    0 0.000000 0.000000 0.000000 0.000000 0.000000 -0.000001
    1 5708.000000 -598.500000 2458.000000 0.000000 0.000000 3.138210
    2 -1073.695370 2184.586933 -39.025914 0.008387 0.200680 -1.289350
  time 18
    0 0.000000 0.000000 0.000000 0.000000 0.000000 -0.000001
    1 5708.000000 -598.500000 2458.000000 0.000000 0.000000 3.138210
    2 -1073.602985 2184.586933 -39.181334 0.008387 0.199628 -1.289062
  time 19
    0 0.000000 0.000000 0.000000 0.000000 0.000000 -0.000001
    1 5708.000000 -598.500000 2458.000000 0.000000 0.000000 3.138210
    2 -1073.602985 2184.520251 -39.336754 0.008291 0.198491 -1.288775
  time 20
    0 0.000000 0.000000 0.000000 0.000000 0.000000 -0.000001
    1 5708.000000 -598.500000 2458.000000 0.000000 0.000000 3.138210
    2 -1073.510600 2184.453568 -39.523258 0.008291 0.197312 -1.288487
  time 21
    0 0.000000 0.000000 0.000000 0.000000 0.000000 -0.000001
    1 5708.000000 -598.500000 2458.000000 0.000000 0.000000 3.138210
    2 -1073.510600 2184.386885 -39.709761 0.008195 0.196049 -1.288200
  time 22
    0 0.000000 0.000000 0.000000 0.000000 0.000000 -0.000001
    1 5708.000000 -598.500000 2458.000000 0.000000 0.000000 3.138210
    2 -1073.418216 2184.320203 -39.896265 0.008195 0.194744 -1.287816
  time 23
    0 0.000000 0.000000 0.000000 0.000000 0.000000 -0.000001
    1 5708.000000 -598.500000 2458.000000 0.000000 0.000000 3.138210
    2 -1073.325831 2184.253520 -40.098311 0.008099 0.193313 -1.287528
  time 24
    0 0.000000 0.000000 0.000000 0.000000 0.000000 -0.000001
    1 5708.000000 -598.500000 2458.000000 0.000000 0.000000 3.138210
    2 -1073.233446 2184.186838 -40.315899 0.008099 0.191882 -1.287145
  time 25
    0 0.000000 0.000000 0.000000 0.000000 0.000000 -0.000001
    1 5708.000000 -598.500000 2458.000000 0.000000 0.000000 3.138210
    2 -1073.233446 2184.053473 -40.533486 0.008003 0.190324 -1.286761
  time 26
    0 0.000000 0.000000 0.000000 0.000000 0.000000 -0.000001
    1 5708.000000 -598.500000 2458.000000 0.000000 0.000000 3.138210
    2 -1073.141062 2183.986790 -40.766616 0.007908 0.188724 -1.286378
  time 27
    0 0.000000 0.000000 0.000000 0.000000 0.000000 -0.000001
    1 5708.000000 -598.500000 2458.000000 0.000000 0.000000 3.138210
    2 -1073.048677 2183.853425 -40.999746 0.007908 0.187083 -1.285899
  time 28
    0 0.000000 0.000000 0.000000 0.000000 0.000000 -0.000001
    1 5708.000000 -598.500000 2458.000000 0.000000 0.000000 3.138210
    2 -1072.956292 2183.786743 -41.248418 0.007812 0.185357 -1.285515
  time 29
    0 0.000000 0.000000 0.000000 0.000000 0.000000 -0.000001
    1 5708.000000 -598.500000 2458.000000 0.000000 0.000000 3.138210
    2 -1072.863907 2183.653377 -41.497089 0.007716 0.183546 -1.285036
  time 30
    0 0.000000 0.000000 0.000000 0.000000 0.000000 -0.000001
    1 5708.000000 -598.500000 2458.000000 0.000000 0.000000 3.138210
    2 -1072.771523 2183.520012 -41.761303 0.007620 0.181694 -1.284556
  time 31
    0 0.000000 0.000000 0.000000 0.000000 0.000000 -0.000001
    1 5708.000000 -598.500000 2458.000000 0.000000 0.000000 3.138210
    2 -1072.586753 2183.453330 -42.041059 0.007524 0.179758 -1.284077
  time 32
    0 0.000000 0.000000 0.000000 0.000000 0.000000 -0.000001
    1 5708.000000 -598.500000 2458.000000 0.000000 0.000000 3.138210
    2 -1072.494368 2183.319965 -42.320814 0.007428 0.177737 -1.283598
  time 33
    0 0.000000 0.000000 0.000000 0.000000 0.000000 -0.000001
    1 5708.000000 -598.500000 2458.000000 0.000000 0.000000 3.138210
    2 -1072.401984 2183.186600 -42.600570 0.007333 0.175674 -1.283022
  time 34
    0 0.000000 0.000000 0.000000 0.000000 0.000000 -0.000001
    1 5708.000000 -598.500000 2458.000000 0.000000 0.000000 3.138210
    2 -1072.217214 2182.986552 -42.911409 0.007237 0.173527 -1.282543
  time 35
    0 0.000000 0.000000 0.000000 0.000000 0.000000 -0.000001
    1 5708.000000 -598.500000 2458.000000 0.000000 0.000000 3.138210
    2 -1072.124829 2182.853187 -43.206707 0.007141 0.171296 -1.281968
  time 36
    0 0.000000 0.000000 0.000000 0.000000 0.000000 -0.000001
    1 5708.000000 -598.500000 2458.000000 0.000000 0.000000 3.138210
    2 -1072.032445 2182.719822 -43.533089 0.007045 0.169023 -1.281296
  time 37
    0 0.000000 0.000000 0.000000 0.000000 0.000000 -0.000001
    1 5708.000000 -598.500000 2458.000000 0.000000 0.000000 3.138210
    2 -1071.847675 2182.519774 -43.843928 0.006949 0.166665 -1.280721
  time 38
    0 0.000000 0.000000 0.000000 0.000000 0.000000 -0.000001
    1 5708.000000 -598.500000 2458.000000 0.000000 0.000000 3.138210
    2 -1071.662906 2182.319726 -44.185852 0.006853 0.164223 -1.280050
  time 39
    0 0.000000 0.000000 0.000000 0.000000 0.000000 -0.000001
    1 5708.000000 -598.500000 2458.000000 0.000000 0.000000 3.138210
    2 -1071.570521 2182.186361 -44.512234 0.006662 0.161740 -1.279475
  time 40
    0 0.000000 0.000000 0.000000 0.000000 0.000000 -0.000001
    1 5708.000000 -598.500000 2458.000000 0.000000 0.000000 3.138210
    2 -1071.385752 2181.986314 -44.854157 0.006566 0.159172 -1.278804
  time 41
    0 0.000000 0.000000 0.000000 0.000000 0.000000 -0.000001
    1 5708.000000 -598.500000 2458.000000 0.000000 0.000000 3.138210
    2 -1071.200982 2181.719584 -45.211623 0.006470 0.156520 -1.278037
  time 42
    0 0.000000 0.000000 0.000000 0.000000 0.000000 -0.000001
    1 5708.000000 -598.500000 2458.000000 0.000000 0.000000 3.138210
    2 -1071.016213 2181.519536 -45.569088 0.006278 0.153825 -1.277366
  time 43
    0 0.000000 0.000000 0.000000 0.000000 0.000000 -0.000001
    1 5708.000000 -598.500000 2458.000000 0.000000 0.000000 3.138210
    2 -1070.831443 2181.319488 -45.942096 0.006086 0.151089 -1.276599
  time 44
    0 0.000000 0.000000 0.000000 0.000000 0.000000 -0.000001
    1 5708.000000 -598.500000 2458.000000 0.000000 0.000000 3.138210
    2 -1070.646674 2181.052758 -46.315103 0.005991 0.148226 -1.275832
  time 45
    0 0.000000 0.000000 0.000000 0.000000 0.000000 -0.000001
    1 5708.000000 -598.500000 2458.000000 0.000000 0.000000 3.138210
    2 -1070.461904 2180.852710 -46.688111 0.005799 0.145322 -1.275064
  time 46
    0 0.000000 0.000000 0.000000 0.000000 0.000000 -0.000001
    1 5708.000000 -598.500000 2458.000000 0.000000 0.000000 3.138210
    2 -1070.277135 2180.585980 -47.076660 0.005607 0.142375 -1.274297
  time 47
    0 0.000000 0.000000 0.000000 0.000000 0.000000 -0.000001
    1 5708.000000 -598.500000 2458.000000 0.000000 0.000000 3.138210
    2 -1070.092365 2180.319250 -47.465210 0.005415 0.139302 -1.273435
  time 48
    0 0.000000 0.000000 0.000000 0.000000 0.000000 -0.000001
    1 5708.000000 -598.500000 2458.000000 0.000000 0.000000 3.138210
    2 -1069.815211 2179.985837 -47.869301 0.005224 0.136228 -1.272572
  time 49
    0 0.000000 0.000000 0.000000 0.000000 0.000000 -0.000001
    1 5708.000000 -598.500000 2458.000000 0.000000 0.000000 3.138210
    2 -1069.630442 2179.719107 -48.273393 0.005032 0.133071 -1.271709
  time 50
    0 0.000000 0.000000 0.000000 0.000000 0.000000 -0.000001
    1 5708.000000 -598.500000 2458.000000 0.000000 0.000000 3.138210
    2 -1069.353287 2179.385694 -48.677484 0.004840 0.129830 -1.270846
  time 51
    0 0.000000 0.000000 0.000000 0.000000 0.000000 -0.000001
    1 5708.000000 -598.500000 2458.000000 0.000000 0.000000 3.138210
    2 -1069.076133 2179.118964 -49.097118 0.004649 0.126546 -1.269983
  time 52
    0 0.000000 0.000000 0.000000 0.000000 0.000000 -0.000001
    1 5708.000000 -598.500000 2458.000000 0.000000 0.000000 3.138210
    2 -1068.891364 2178.785551 -49.501209 0.004361 0.123178 -1.269024
  time 53
    0 0.000000 0.000000 0.000000 0.000000 0.000000 -0.000001
    1 5708.000000 -598.500000 2458.000000 0.000000 0.000000 3.138210
    2 -1068.614210 2178.452139 -49.936385 0.004169 0.119726 -1.268065
  time 54
    0 0.000000 0.000000 0.000000 0.000000 0.000000 -0.000001
    1 5708.000000 -598.500000 2458.000000 0.000000 0.000000 3.138210
    2 -1068.337055 2178.052043 -50.356018 0.003882 0.116274 -1.267107
  time 55
    0 0.000000 0.000000 0.000000 0.000000 0.000000 -0.000001
    1 5708.000000 -598.500000 2458.000000 0.000000 0.000000 3.138210
    2 -1068.059901 2177.718631 -50.775652 0.003690 0.112738 -1.266052
  time 56
    0 0.000000 0.000000 0.000000 0.000000 0.000000 -0.000001
    1 5708.000000 -598.500000 2458.000000 0.000000 0.000000 3.138210
    2 -1067.782747 2177.318535 -51.210827 0.003403 0.109117 -1.264997
  time 57
    0 0.000000 0.000000 0.000000 0.000000 0.000000 -0.000001
    1 5708.000000 -598.500000 2458.000000 0.000000 0.000000 3.138210
    2 -1067.413208 2176.918440 -51.646003 0.003115 0.105497 -1.263943
  time 58
    0 0.000000 0.000000 0.000000 0.000000 0.000000 -0.000001
    1 5708.000000 -598.500000 2458.000000 0.000000 0.000000 3.138210
    2 -1067.136054 2176.518345 -52.081178 0.002827 0.101792 -1.262888
  time 59
    0 0.000000 0.000000 0.000000 0.000000 0.000000 -0.000001
    1 5708.000000 -598.500000 2458.000000 0.000000 0.000000 3.138210
    2 -1066.766515 2176.051567 -52.516354 0.002540 0.098004 -1.261834
  time 60
    0 0.000000 0.000000 0.000000 0.000000 0.000000 -0.000001
    1 5708.000000 -598.500000 2458.000000 0.000000 0.000000 3.138210
    2 -1066.489361 2175.584789 -52.951529 0.002252 0.094215 -1.260683
  time 61
    0 0.000000 0.000000 0.000000 0.000000 0.000000 -0.000001
    1 5708.000000 -598.500000 2458.000000 0.000000 0.000000 3.138210
    2 -1066.119822 2175.118011 -53.386705 0.001869 0.090342 -1.259532
  time 62
    0 0.000000 0.000000 0.000000 0.000000 0.000000 -0.000001
    1 5708.000000 -598.500000 2458.000000 0.000000 0.000000 3.138210
    2 -1065.750283 2174.651234 -53.821880 0.001581 0.086427 -1.258382
  time 63
    0 0.000000 0.000000 0.000000 0.000000 0.000000 -0.000001
    1 5708.000000 -598.500000 2458.000000 0.000000 0.000000 3.138210
    2 -1065.380744 2174.184456 -54.257056 0.001198 0.082470 -1.257231
  time 64
    0 0.000000 0.000000 0.000000 0.000000 0.000000 -0.000001
    1 5708.000000 -598.500000 2458.000000 0.000000 0.000000 3.138210
    2 -1065.011205 2173.650995 -54.692231 0.000910 0.078470 -1.255985
  time 65
    0 0.000000 0.000000 0.000000 0.000000 0.000000 -0.000001
    1 5708.000000 -598.500000 2458.000000 0.000000 0.000000 3.138210
    2 -1064.641666 2173.117535 -55.142948 0.000527 0.074429 -1.254739
  time 66
    0 0.000000 0.000000 0.000000 0.000000 0.000000 -0.000001
    1 5708.000000 -598.500000 2458.000000 0.000000 0.000000 3.138210
    2 -1064.272127 2172.584075 -55.562582 0.000144 0.070387 -1.253492
  time 67
    0 0.000000 0.000000 0.000000 0.000000 0.000000 -0.000001
    1 5708.000000 -598.500000 2458.000000 0.000000 0.000000 3.138210
    2 -1063.810203 2171.983932 -55.997757 -0.000240 0.066262 -1.252246
  time 68
    0 0.000000 0.000000 0.000000 0.000000 0.000000 -0.000001
    1 5708.000000 -598.500000 2458.000000 0.000000 0.000000 3.138210
    2 -1063.440665 2171.450471 -56.417391 -0.000623 0.062094 -1.250904
  time 69
    0 0.000000 0.000000 0.000000 0.000000 0.000000 -0.000001
    1 5708.000000 -598.500000 2458.000000 0.000000 0.000000 3.138210
    2 -1062.978741 2170.850328 -56.837024 -0.001103 0.057927 -1.249561
  time 70
    0 0.000000 0.000000 0.000000 0.000000 0.000000 -0.000001
    1 5708.000000 -598.500000 2458.000000 0.000000 0.000000 3.138210
    2 -1062.516817 2170.183503 -57.256658 -0.001486 0.053717 -1.248315
  time 71
    0 0.000000 0.000000 0.000000 0.000000 0.000000 -0.000001
    1 5708.000000 -598.500000 2458.000000 0.000000 0.000000 3.138210
    2 -1062.054894 2169.583360 -57.676291 -0.001965 0.049465 -1.246877
  time 72
    0 0.000000 0.000000 0.000000 0.000000 0.000000 -0.000001
    1 5708.000000 -598.500000 2458.000000 0.000000 0.000000 3.138210
    2 -1061.592970 2168.916534 -58.080383 -0.002349 0.045213 -1.245534
  time 73
    0 0.000000 0.000000 0.000000 0.000000 0.000000 -0.000001
    1 5708.000000 -598.500000 2458.000000 0.000000 0.000000 3.138210
    2 -1061.131046 2168.183026 -58.468932 -0.002828 0.040961 -1.244096
  time 74
    0 0.000000 0.000000 0.000000 0.000000 0.000000 -0.000001
    1 5708.000000 -598.500000 2458.000000 0.000000 0.000000 3.138210
    2 -1060.576738 2167.516201 -58.857482 -0.003307 0.036625 -1.242754
  time 75
    0 0.000000 0.000000 0.000000 0.000000 0.000000 -0.000001
    1 5708.000000 -598.500000 2458.000000 0.000000 0.000000 3.138210
    2 -1060.022429 2166.782693 -59.246031 -0.003786 0.032331 -1.241316
  time 76
    0 0.000000 0.000000 0.000000 0.000000 0.000000 -0.000001
    1 5708.000000 -598.500000 2458.000000 0.000000 0.000000 3.138210
    2 -1059.560506 2165.982502 -59.619039 -0.004266 0.028037 -1.239878
  time 77
    0 0.000000 0.000000 0.000000 0.000000 0.000000 -0.000001
    1 5708.000000 -598.500000 2458.000000 0.000000 0.000000 3.138210
    2 -1059.006197 2165.248994 -59.976505 -0.004745 0.023701 -1.238344
  time 78
    0 0.000000 0.000000 0.000000 0.000000 0.000000 -0.000001
    1 5708.000000 -598.500000 2458.000000 0.000000 0.000000 3.138210
    2 -1058.451889 2164.448804 -60.333970 -0.005320 0.019365 -1.236906
  time 79
    0 0.000000 0.000000 0.000000 0.000000 0.000000 -0.000001
    1 5708.000000 -598.500000 2458.000000 0.000000 0.000000 3.138210
    2 -1057.897581 2163.648613 -60.675894 -0.005799 0.015071 -1.235372
  time 80
    0 0.000000 0.000000 0.000000 0.000000 0.000000 -0.000001
    1 5708.000000 -598.500000 2458.000000 0.000000 0.000000 3.138210
    2 -1057.250887 2162.781740 -61.002275 -0.006375 0.010735 -1.233933
  time 81
    0 0.000000 0.000000 0.000000 0.000000 0.000000 -0.000001
    1 5708.000000 -598.500000 2458.000000 0.000000 0.000000 3.138210
    2 -1056.696579 2161.914867 -61.328657 -0.006950 0.006399 -1.232399
  time 82
    0 0.000000 0.000000 0.000000 0.000000 0.000000 -0.000001
    1 5708.000000 -598.500000 2458.000000 0.000000 0.000000 3.138210
    2 -1056.049886 2160.981311 -61.623955 -0.007429 0.002105 -1.230865
  time 83
    0 0.000000 0.000000 0.000000 0.000000 0.000000 -0.000001
    1 5708.000000 -598.500000 2458.000000 0.000000 0.000000 3.138210
    2 -1055.403193 2160.114438 -61.919252 -0.008004 -0.002147 -1.229235
  time 84
    0 0.000000 0.000000 0.000000 0.000000 0.000000 -0.000001
    1 5708.000000 -598.500000 2458.000000 0.000000 0.000000 3.138210
    2 -1054.756500 2159.114200 -62.183466 -0.008579 -0.006441 -1.227701
  time 85
    0 0.000000 0.000000 0.000000 0.000000 0.000000 -0.000001
    1 5708.000000 -598.500000 2458.000000 0.000000 0.000000 3.138210
    2 -1054.109806 2158.180644 -62.447680 -0.009154 -0.010693 -1.226167
  time 86
    0 0.000000 0.000000 0.000000 0.000000 0.000000 -0.000001
    1 5708.000000 -598.500000 2458.000000 0.000000 0.000000 3.138210
    2 -1053.370729 2157.180406 -62.696351 -0.009729 -0.014903 -1.224537
  time 87
    0 0.000000 0.000000 0.000000 0.000000 0.000000 -0.000001
    1 5708.000000 -598.500000 2458.000000 0.000000 0.000000 3.138210
    2 -1052.724035 2156.180168 -62.913939 -0.010305 -0.019112 -1.223003
  time 88
    0 0.000000 0.000000 0.000000 0.000000 0.000000 -0.000001
    1 5708.000000 -598.500000 2458.000000 0.000000 0.000000 3.138210
    2 -1051.984958 2155.113247 -63.131527 -0.010975 -0.023280 -1.221374
  time 89
    0 0.000000 0.000000 0.000000 0.000000 0.000000 -0.000001
    1 5708.000000 -598.500000 2458.000000 0.000000 0.000000 3.138210
    2 -1051.245880 2154.046326 -63.318030 -0.011551 -0.027406 -1.219840
  time 90
    0 0.000000 0.000000 0.000000 0.000000 0.000000 -0.000001
    1 5708.000000 -598.500000 2458.000000 0.000000 0.000000 3.138210
    2 -1050.506802 2152.912723 -63.488992 -0.012126 -0.031489 -1.218210
  time 91
    0 0.000000 0.000000 0.000000 0.000000 0.000000 -0.000001
    1 5708.000000 -598.500000 2458.000000 0.000000 0.000000 3.138210
    2 -1049.675339 2151.779120 -63.644412 -0.012797 -0.035573 -1.216580
  time 92
    0 0.000000 0.000000 0.000000 0.000000 0.000000 -0.000001
    1 5708.000000 -598.500000 2458.000000 0.000000 0.000000 3.138210
    2 -1048.936261 2150.578834 -63.768748 -0.013372 -0.039572 -1.215046
  time 93
    0 0.000000 0.000000 0.000000 0.000000 0.000000 -0.000001
    1 5708.000000 -598.500000 2458.000000 0.000000 0.000000 3.138210
    2 -1048.104799 2149.378548 -63.877542 -0.013947 -0.043529 -1.213416
  time 94
    0 0.000000 0.000000 0.000000 0.000000 0.000000 -0.000001
    1 5708.000000 -598.500000 2458.000000 0.000000 0.000000 3.138210
    2 -1047.273336 2148.178262 -63.970794 -0.014618 -0.047444 -1.211786
  time 95
    0 0.000000 0.000000 0.000000 0.000000 0.000000 -0.000001
    1 5708.000000 -598.500000 2458.000000 0.000000 0.000000 3.138210
    2 -1046.441874 2146.911294 -64.032962 -0.015193 -0.051275 -1.210156
  time 96
    0 0.000000 0.000000 0.000000 0.000000 0.000000 -0.000001
    1 5708.000000 -598.500000 2458.000000 0.000000 0.000000 3.138210
    2 -1045.518026 2145.644325 -64.079588 -0.015768 -0.055064 -1.208622
  time 97
    0 0.000000 0.000000 0.000000 0.000000 0.000000 -0.000001
    1 5708.000000 -598.500000 2458.000000 0.000000 0.000000 3.138210
    2 -1044.686564 2144.310675 -64.095130 -0.016439 -0.058769 -1.206992
  time 98
    0 0.000000 0.000000 0.000000 0.000000 0.000000 -0.000001
    1 5708.000000 -598.500000 2458.000000 0.000000 0.000000 3.138210
    2 -1043.762716 2142.977024 -64.095130 -0.017014 -0.062473 -1.205458
  time 99
    0 0.000000 0.000000 0.000000 0.000000 0.000000 -0.000001
    1 5708.000000 -598.500000 2458.000000 0.000000 0.000000 3.138210
    2 -1042.838869 2141.576690 -64.064046 -0.017589 -0.066051 -1.203828
  time 100
    0 0.000000 0.000000 0.000000 0.000000 0.000000 -0.000001
    1 5708.000000 -598.500000 2458.000000 0.000000 0.000000 3.138210
    2 -1041.915022 2140.176357 -64.017420 -0.018164 -0.069546 -1.202294
  time 101
    0 0.000000 0.000000 0.000000 0.000000 0.000000 -0.000001
    1 5708.000000 -598.500000 2458.000000 0.000000 0.000000 3.138210
    2 -1040.898790 2138.709341 -63.939710 -0.018835 -0.072998 -1.200664
  time 102
    0 0.000000 0.000000 0.000000 0.000000 0.000000 -0.000001
    1 5708.000000 -598.500000 2458.000000 0.000000 0.000000 3.138210
    2 -1039.974942 2137.175642 -63.830916 -0.019411 -0.076365 -1.199130
  time 103
    0 0.000000 0.000000 0.000000 0.000000 0.000000 -0.000001
    1 5708.000000 -598.500000 2458.000000 0.000000 0.000000 3.138210
    2 -1038.958710 2135.708626 -63.706580 -0.019986 -0.079649 -1.197596
  time 104
    0 0.000000 0.000000 0.000000 0.000000 0.000000 -0.000001
    1 5708.000000 -598.500000 2458.000000 0.000000 0.000000 3.138210
    2 -1037.942478 2134.108245 -63.551160 -0.020465 -0.082891 -1.196062
  time 105
    0 0.000000 0.000000 0.000000 0.000000 0.000000 -0.000001
    1 5708.000000 -598.500000 2458.000000 0.000000 0.000000 3.138210
    2 -1036.833861 2132.507864 -63.380198 -0.021040 -0.086006 -1.194528
  time 106
    0 0.000000 0.000000 0.000000 0.000000 0.000000 -0.000001
    1 5708.000000 -598.500000 2458.000000 0.000000 0.000000 3.138210
    2 -1035.817629 2130.907483 -63.162611 -0.021615 -0.089037 -1.193090
  time 107
    0 0.000000 0.000000 0.000000 0.000000 0.000000 -0.000001
    1 5708.000000 -598.500000 2458.000000 0.000000 0.000000 3.138210
    2 -1034.709013 2129.240419 -62.929481 -0.022094 -0.092026 -1.191556
  time 108
    0 0.000000 0.000000 0.000000 0.000000 0.000000 -0.000001
    1 5708.000000 -598.500000 2458.000000 0.000000 0.000000 3.138210
    2 -1033.600396 2127.573355 -62.680809 -0.022670 -0.094888 -1.190118
  time 109
    0 0.000000 0.000000 0.000000 0.000000 0.000000 -0.000001
    1 5708.000000 -598.500000 2458.000000 0.000000 0.000000 3.138210
    2 -1032.399394 2125.772926 -62.385512 -0.023149 -0.097667 -1.188680
  time 110
    0 0.000000 0.000000 0.000000 0.000000 0.000000 -0.000001
    1 5708.000000 -598.500000 2458.000000 0.000000 0.000000 3.138210
    2 -1031.290777 2124.039180 -62.074672 -0.023628 -0.100361 -1.187241
  time 111
    0 0.000000 0.000000 0.000000 0.000000 0.000000 -0.000001
    1 5708.000000 -598.500000 2458.000000 0.000000 0.000000 3.138210
    2 -1030.089776 2122.238751 -61.732748 -0.024107 -0.102929 -1.185803
  time 112
    0 0.000000 0.000000 0.000000 0.000000 0.000000 -0.000001
    1 5708.000000 -598.500000 2458.000000 0.000000 0.000000 3.138210
    2 -1028.888774 2120.371640 -61.375283 -0.024491 -0.105413 -1.184461
  time 113
    0 0.000000 0.000000 0.000000 0.000000 0.000000 -0.000001
    1 5708.000000 -598.500000 2458.000000 0.000000 0.000000 3.138210
    2 -1027.687773 2118.504529 -60.971191 -0.024970 -0.107812 -1.183119
  time 114
    0 0.000000 0.000000 0.000000 0.000000 0.000000 -0.000001
    1 5708.000000 -598.500000 2458.000000 0.000000 0.000000 3.138210
    2 -1026.394387 2116.570735 -60.551558 -0.025353 -0.110128 -1.181776
  time 115
    0 0.000000 0.000000 0.000000 0.000000 0.000000 -0.000001
    1 5708.000000 -598.500000 2458.000000 0.000000 0.000000 3.138210
    2 -1025.101000 2114.570258 -60.100840 -0.025737 -0.112317 -1.180434
  time 116
    0 0.000000 0.000000 0.000000 0.000000 0.000000 -0.000001
    1 5708.000000 -598.500000 2458.000000 0.000000 0.000000 3.138210
    2 -1023.807614 2112.569782 -59.619039 -0.026120 -0.114464 -1.179188
  time 117
    0 0.000000 0.000000 0.000000 0.000000 0.000000 -0.000001
    1 5708.000000 -598.500000 2458.000000 0.000000 0.000000 3.138210
    2 -1022.514228 2110.569306 -59.121696 -0.026504 -0.116442 -1.177845
  time 118
    0 0.000000 0.000000 0.000000 0.000000 0.000000 -0.000001
    1 5708.000000 -598.500000 2458.000000 0.000000 0.000000 3.138210
    2 -1021.128457 2108.435464 -58.593268 -0.026791 -0.118379 -1.176599
  time 119
    0 0.000000 0.000000 0.000000 0.000000 0.000000 -0.000001
    1 5708.000000 -598.500000 2458.000000 0.000000 0.000000 3.138210
    2 -1019.835070 2106.301623 -58.033757 -0.027175 -0.120189 -1.175449
  time 120
    0 0.000000 0.000000 0.000000 0.000000 0.000000 -0.000001
    1 5708.000000 -598.500000 2458.000000 0.000000 0.000000 3.138210
    2 -1018.449299 2104.167781 -57.443162 -0.027366 -0.121873 -1.174298
  time 121
    0 0.000000 0.000000 0.000000 0.000000 0.000000 -0.000001
    1 5708.000000 -598.500000 2458.000000 0.000000 0.000000 3.138210
    2 -1016.971144 2101.967257 -56.837024 -0.027654 -0.123473 -1.173052
  time 122
    0 0.000000 0.000000 0.000000 0.000000 0.000000 -0.000001
    1 5708.000000 -598.500000 2458.000000 0.000000 0.000000 3.138210
    2 -1015.585373 2099.700050 -56.184261 -0.027942 -0.124988 -1.171997
  time 123
    0 0.000000 0.000000 0.000000 0.000000 0.000000 -0.000001
    1 5708.000000 -598.500000 2458.000000 0.000000 0.000000 3.138210
    2 -1014.107217 2097.432844 -55.531498 -0.028133 -0.126420 -1.170846
  time 124
    0 0.000000 0.000000 0.000000 0.000000 0.000000 -0.000001
    1 5708.000000 -598.500000 2458.000000 0.000000 0.000000 3.138210
    2 -1012.629061 2095.098955 -54.832109 -0.028325 -0.127725 -1.169792
  time 125
    0 0.000000 0.000000 0.000000 0.000000 0.000000 -0.000001
    1 5708.000000 -598.500000 2458.000000 0.000000 0.000000 3.138210
    2 -1011.058521 2092.698383 -54.117178 -0.028421 -0.128903 -1.168737
  time 126
    0 0.000000 0.000000 0.000000 0.000000 0.000000 -0.000001
    1 5708.000000 -598.500000 2458.000000 0.000000 0.000000 3.138210
    2 -1009.580365 2090.297811 -53.371163 -0.028612 -0.129998 -1.167778
  time 127
    0 0.000000 0.000000 0.000000 0.000000 0.000000 -0.000001
    1 5708.000000 -598.500000 2458.000000 0.000000 0.000000 3.138210
    2 -1008.009825 2087.830557 -52.594064 -0.028708 -0.131008 -1.166820
  time 128
    0 0.000000 0.000000 0.000000 0.000000 0.000000 -0.000001
    1 5708.000000 -598.500000 2458.000000 0.000000 0.000000 3.138210
    2 -1006.346899 2085.296620 -51.801423 -0.028804 -0.131934 -1.165861
  time 129
    0 0.000000 0.000000 0.000000 0.000000 0.000000 -0.000001
    1 5708.000000 -598.500000 2458.000000 0.000000 0.000000 3.138210
    2 -1004.776359 2082.762683 -50.977698 -0.028804 -0.132734 -1.164902
  time 130
    0 0.000000 0.000000 0.000000 0.000000 0.000000 -0.000001
    1 5708.000000 -598.500000 2458.000000 0.000000 0.000000 3.138210
    2 -1003.113434 2080.162064 -50.122889 -0.028900 -0.133450 -1.164039
  time 131
    0 0.000000 0.000000 0.000000 0.000000 0.000000 -0.000001
    1 5708.000000 -598.500000 2458.000000 0.000000 0.000000 3.138210
    2 -1001.450509 2077.561445 -49.221454 -0.028900 -0.134124 -1.163080
  time 132
    0 0.000000 0.000000 0.000000 0.000000 0.000000 -0.000001
    1 5708.000000 -598.500000 2458.000000 0.000000 0.000000 3.138210
    2 -999.787583 2074.894143 -48.273393 -0.028900 -0.134713 -1.162122
  time 133
    0 0.000000 0.000000 0.000000 0.000000 0.000000 -0.000001
    1 5708.000000 -598.500000 2458.000000 0.000000 0.000000 3.138210
    2 -998.032273 2072.160158 -47.278706 -0.028804 -0.135260 -1.161163
  time 134
    0 0.000000 0.000000 0.000000 0.000000 0.000000 -0.000001
    1 5708.000000 -598.500000 2458.000000 0.000000 0.000000 3.138210
    2 -996.276963 2069.359491 -46.237393 -0.028804 -0.135723 -1.160204
  time 135
    0 0.000000 0.000000 0.000000 0.000000 0.000000 -0.000001
    1 5708.000000 -598.500000 2458.000000 0.000000 0.000000 3.138210
    2 -994.521654 2066.558824 -45.164997 -0.028708 -0.136144 -1.159150
  time 136
    0 0.000000 0.000000 0.000000 0.000000 0.000000 -0.000001
    1 5708.000000 -598.500000 2458.000000 0.000000 0.000000 3.138210
    2 -992.766344 2063.758157 -44.045974 -0.028612 -0.136523 -1.158095
  time 137
    0 0.000000 0.000000 0.000000 0.000000 0.000000 -0.000001
    1 5708.000000 -598.500000 2458.000000 0.000000 0.000000 3.138210
    2 -990.918649 2060.824125 -42.880326 -0.028517 -0.136860 -1.157040
  time 138
    0 0.000000 0.000000 0.000000 0.000000 0.000000 -0.000001
    1 5708.000000 -598.500000 2458.000000 0.000000 0.000000 3.138210
    2 -989.070954 2057.890093 -41.683593 -0.028421 -0.137112 -1.155986
  time 139
    0 0.000000 0.000000 0.000000 0.000000 0.000000 -0.000001
    1 5708.000000 -598.500000 2458.000000 0.000000 0.000000 3.138210
    2 -987.223260 2054.889379 -40.455776 -0.028325 -0.137323 -1.154931
  time 140
    0 0.000000 0.000000 0.000000 0.000000 0.000000 -0.000001
    1 5708.000000 -598.500000 2458.000000 0.000000 0.000000 3.138210
    2 -985.283180 2051.888664 -39.165792 -0.028133 -0.137449 -1.153876
  time 141
    0 0.000000 0.000000 0.000000 0.000000 0.000000 -0.000001
    1 5708.000000 -598.500000 2458.000000 0.000000 0.000000 3.138210
    2 -983.343101 2048.821267 -37.860266 -0.027942 -0.137576 -1.152726
  time 142
    0 0.000000 0.000000 0.000000 0.000000 0.000000 -0.000001
    1 5708.000000 -598.500000 2458.000000 0.000000 0.000000 3.138210
    2 -981.403021 2045.687187 -36.508113 -0.027750 -0.137618 -1.151575
  time 143
    0 0.000000 0.000000 0.000000 0.000000 0.000000 -0.000001
    1 5708.000000 -598.500000 2458.000000 0.000000 0.000000 3.138210
    2 -979.462942 2042.486425 -35.109335 -0.027558 -0.137618 -1.150425
  time 144
    0 0.000000 0.000000 0.000000 0.000000 0.000000 -0.000001
    1 5708.000000 -598.500000 2458.000000 0.000000 0.000000 3.138210
    2 -977.430478 2039.285662 -33.695015 -0.027366 -0.137533 -1.149274
  time 145
    0 0.000000 0.000000 0.000000 0.000000 0.000000 -0.000001
    1 5708.000000 -598.500000 2458.000000 0.000000 0.000000 3.138210
    2 -975.398014 2036.018218 -32.234069 -0.027079 -0.137449 -1.148124
  time 146
    0 0.000000 0.000000 0.000000 0.000000 0.000000 -0.000001
    1 5708.000000 -598.500000 2458.000000 0.000000 0.000000 3.138210
    2 -973.365550 2032.750773 -30.726496 -0.026791 -0.137281 -1.146973
  time 147
    0 0.000000 0.000000 0.000000 0.000000 0.000000 -0.000001
    1 5708.000000 -598.500000 2458.000000 0.000000 0.000000 3.138210
    2 -971.333085 2029.416645 -29.203382 -0.026504 -0.137112 -1.145727
  time 148
    0 0.000000 0.000000 0.000000 0.000000 0.000000 -0.000001
    1 5708.000000 -598.500000 2458.000000 0.000000 0.000000 3.138210
    2 -969.208237 2026.015836 -27.649184 -0.026216 -0.136860 -1.144576
  time 149
    0 0.000000 0.000000 0.000000 0.000000 0.000000 -0.000001
    1 5708.000000 -598.500000 2458.000000 0.000000 0.000000 3.138210
    2 -967.083388 2022.548343 -26.048360 -0.025929 -0.136565 -1.143330
  time 150
    0 0.000000 0.000000 0.000000 0.000000 0.000000 -0.000001
    1 5708.000000 -598.500000 2458.000000 0.000000 0.000000 3.138210
    2 -964.866154 2019.080851 -24.431994 -0.025545 -0.136228 -1.142083
  time 151
    0 0.000000 0.000000 0.000000 0.000000 0.000000 -0.000001
    1 5708.000000 -598.500000 2458.000000 0.000000 0.000000 3.138210
    2 -962.741305 2015.546676 -22.769002 -0.025258 -0.135850 -1.140837
  time 152
    0 0.000000 0.000000 0.000000 0.000000 0.000000 -0.000001
    1 5708.000000 -598.500000 2458.000000 0.000000 0.000000 3.138210
    2 -960.524072 2012.012501 -21.090468 -0.024874 -0.135429 -1.139591
  time 153
    0 0.000000 0.000000 0.000000 0.000000 0.000000 -0.000001
    1 5708.000000 -598.500000 2458.000000 0.000000 0.000000 3.138210
    2 -958.306838 2008.411643 -19.380850 -0.024491 -0.134965 -1.138344
  time 154
    0 0.000000 0.000000 0.000000 0.000000 0.000000 -0.000001
    1 5708.000000 -598.500000 2458.000000 0.000000 0.000000 3.138210
    2 -955.997220 2004.744103 -17.624606 -0.024107 -0.134460 -1.137098
  time 155
    0 0.000000 0.000000 0.000000 0.000000 0.000000 -0.000001
    1 5708.000000 -598.500000 2458.000000 0.000000 0.000000 3.138210
    2 -953.779986 2001.009880 -15.852821 -0.023628 -0.133913 -1.135851
  time 156
    0 0.000000 0.000000 0.000000 0.000000 0.000000 -0.000001
    1 5708.000000 -598.500000 2458.000000 0.000000 0.000000 3.138210
    2 -951.470368 1997.275658 -14.065493 -0.023245 -0.133324 -1.134605
  time 157
    0 0.000000 0.000000 0.000000 0.000000 0.000000 -0.000001
    1 5708.000000 -598.500000 2458.000000 0.000000 0.000000 3.138210
    2 -949.160750 1993.541435 -12.231539 -0.022765 -0.132692 -1.133263
  time 158
    0 0.000000 0.000000 0.000000 0.000000 0.000000 -0.000001
    1 5708.000000 -598.500000 2458.000000 0.000000 0.000000 3.138210
    2 -946.758746 1989.673847 -10.382043 -0.022286 -0.132019 -1.132016
  time 159
    0 0.000000 0.000000 0.000000 0.000000 0.000000 -0.000001
    1 5708.000000 -598.500000 2458.000000 0.000000 0.000000 3.138210
    2 -944.356743 1985.806260 -8.517006 -0.021807 -0.131303 -1.130770
  time 160
    0 0.000000 0.000000 0.000000 0.000000 0.000000 -0.000001
    1 5708.000000 -598.500000 2458.000000 0.000000 0.000000 3.138210
    2 -941.954740 1981.871989 -6.620884 -0.021328 -0.130587 -1.129428
  time 161
    0 0.000000 0.000000 0.000000 0.000000 0.000000 -0.000001
    1 5708.000000 -598.500000 2458.000000 0.000000 0.000000 3.138210
    2 -939.552737 1977.937719 -4.693678 -0.020848 -0.129787 -1.128181
  time 162
    0 0.000000 0.000000 0.000000 0.000000 0.000000 -0.000001
    1 5708.000000 -598.500000 2458.000000 0.000000 0.000000 3.138210
    2 -937.150734 1973.936766 -2.750931 -0.020273 -0.128988 -1.126839
  time 163
    0 0.000000 0.000000 0.000000 0.000000 0.000000 -0.000001
    1 5708.000000 -598.500000 2458.000000 0.000000 0.000000 3.138210
    2 -934.656346 1969.869131 -0.777099 -0.019698 -0.128146 -1.125593
  time 164
    0 0.000000 0.000000 0.000000 0.000000 0.000000 -0.000001
    1 5708.000000 -598.500000 2458.000000 0.000000 0.000000 3.138210
    2 -932.161959 1965.801495 1.196733 -0.019219 -0.127304 -1.124250
  time 165
    0 0.000000 0.000000 0.000000 0.000000 0.000000 -0.000001
    1 5708.000000 -598.500000 2458.000000 0.000000 0.000000 3.138210
    2 -929.575186 1961.667177 3.201648 -0.018644 -0.126378 -1.122908
  time 166
    0 0.000000 0.000000 0.000000 0.000000 0.000000 -0.000001
    1 5708.000000 -598.500000 2458.000000 0.000000 0.000000 3.138210
    2 -927.080798 1957.466177 5.222106 -0.017973 -0.125451 -1.121662
  time 167
    0 0.000000 0.000000 0.000000 0.000000 0.000000 -0.000001
    1 5708.000000 -598.500000 2458.000000 0.000000 0.000000 3.138210
    2 -924.494026 1953.265176 7.273647 -0.017398 -0.124483 -1.120319
  time 168
    0 0.000000 0.000000 0.000000 0.000000 0.000000 -0.000001
    1 5708.000000 -598.500000 2458.000000 0.000000 0.000000 3.138210
    2 -921.907253 1948.997493 9.340731 -0.016823 -0.123473 -1.119073
  time 169
    0 0.000000 0.000000 0.000000 0.000000 0.000000 -0.000001
    1 5708.000000 -598.500000 2458.000000 0.000000 0.000000 3.138210
    2 -919.320481 1944.729810 11.423356 -0.016152 -0.122462 -1.117731
  time 170
    0 0.000000 0.000000 0.000000 0.000000 0.000000 -0.000001
    1 5708.000000 -598.500000 2458.000000 0.000000 0.000000 3.138210
    2 -916.641323 1940.395445 13.521523 -0.015481 -0.121410 -1.116389
  time 171
    0 0.000000 0.000000 0.000000 0.000000 0.000000 -0.000001
    1 5708.000000 -598.500000 2458.000000 0.000000 0.000000 3.138210
    2 -913.962166 1935.994397 15.635233 -0.014905 -0.120315 -1.115142
  time 172
    0 0.000000 0.000000 0.000000 0.000000 0.000000 -0.000001
    1 5708.000000 -598.500000 2458.000000 0.000000 0.000000 3.138210
    2 -911.283009 1931.593349 17.764484 -0.014234 -0.119221 -1.113800
  time 173
    0 0.000000 0.000000 0.000000 0.000000 0.000000 -0.000001
    1 5708.000000 -598.500000 2458.000000 0.000000 0.000000 3.138210
    2 -908.603852 1927.125618 19.909278 -0.013468 -0.118084 -1.112553
  time 174
    0 0.000000 0.000000 0.000000 0.000000 0.000000 -0.000001
    1 5708.000000 -598.500000 2458.000000 0.000000 0.000000 3.138210
    2 -905.832310 1922.591205 22.069613 -0.012797 -0.116948 -1.111211
  time 175
    0 0.000000 0.000000 0.000000 0.000000 0.000000 -0.000001
    1 5708.000000 -598.500000 2458.000000 0.000000 0.000000 3.138210
    2 -903.060768 1918.056791 24.245490 -0.012126 -0.115769 -1.109965
  time 176
    0 0.000000 0.000000 0.000000 0.000000 0.000000 -0.000001
    1 5708.000000 -598.500000 2458.000000 0.000000 0.000000 3.138210
    2 -900.289226 1913.455696 26.436910 -0.011359 -0.114548 -1.108718
  time 177
    0 0.000000 0.000000 0.000000 0.000000 0.000000 -0.000001
    1 5708.000000 -598.500000 2458.000000 0.000000 0.000000 3.138210
    2 -897.517684 1908.854600 28.628329 -0.010592 -0.113327 -1.107376
  time 178
    0 0.000000 0.000000 0.000000 0.000000 0.000000 -0.000001
    1 5708.000000 -598.500000 2458.000000 0.000000 0.000000 3.138210
    2 -894.746142 1904.253504 30.835290 -0.009921 -0.112064 -1.106130
  time 179
    0 0.000000 0.000000 0.000000 0.000000 0.000000 -0.000001
    1 5708.000000 -598.500000 2458.000000 0.000000 0.000000 3.138210
    2 -891.882215 1899.519043 33.057794 -0.009154 -0.110801 -1.104883
  time 180
    0 0.000000 0.000000 0.000000 0.000000 0.000000 -0.000001
    1 5708.000000 -598.500000 2458.000000 0.000000 0.000000 3.138210
    2 -889.018288 1894.784582 35.280297 -0.008292 -0.109538 -1.103637
  time 181
    0 0.000000 0.000000 0.000000 0.000000 0.000000 -0.000001
    1 5708.000000 -598.500000 2458.000000 0.000000 0.000000 3.138210
    2 -886.154361 1890.050122 37.502800 -0.007525 -0.108233 -1.102391
  time 182
    0 0.000000 0.000000 0.000000 0.000000 0.000000 -0.000001
    1 5708.000000 -598.500000 2458.000000 0.000000 0.000000 3.138210
    2 -883.198050 1885.182296 39.756387 -0.006758 -0.106886 -1.101144
  time 183
    0 0.000000 0.000000 0.000000 0.000000 0.000000 -0.000001
    1 5708.000000 -598.500000 2458.000000 0.000000 0.000000 3.138210
    2 -880.334123 1880.381152 42.009975 -0.005991 -0.105539 -1.099898
  time 184
    0 0.000000 0.000000 0.000000 0.000000 0.000000 -0.000001
    1 5708.000000 -598.500000 2458.000000 0.000000 0.000000 3.138210
    2 -877.377812 1875.513326 44.263562 -0.005128 -0.104192 -1.098651
  time 185
    0 0.000000 0.000000 0.000000 0.000000 0.000000 -0.000001
    1 5708.000000 -598.500000 2458.000000 0.000000 0.000000 3.138210
    2 -874.421500 1870.578818 46.532691 -0.004266 -0.102845 -1.097405
  time 186
    0 0.000000 0.000000 0.000000 0.000000 0.000000 -0.000001
    1 5708.000000 -598.500000 2458.000000 0.000000 0.000000 3.138210
    2 -871.465189 1865.577627 48.801820 -0.003499 -0.101456 -1.096254
  time 187
    0 0.000000 0.000000 0.000000 0.000000 0.000000 -0.000001
    1 5708.000000 -598.500000 2458.000000 0.000000 0.000000 3.138210
    2 -868.416493 1860.643118 51.070949 -0.002636 -0.100024 -1.095104
  time 188
    0 0.000000 0.000000 0.000000 0.000000 0.000000 -0.000001
    1 5708.000000 -598.500000 2458.000000 0.000000 0.000000 3.138210
    2 -865.367796 1855.575245 53.355621 -0.001774 -0.098635 -1.093857
  time 189
    0 0.000000 0.000000 0.000000 0.000000 0.000000 -0.000001
    1 5708.000000 -598.500000 2458.000000 0.000000 0.000000 3.138210
    2 -862.411485 1850.507371 55.624750 -0.000911 -0.097204 -1.092707
  time 190
    0 0.000000 0.000000 0.000000 0.000000 0.000000 -0.000001
    1 5708.000000 -598.500000 2458.000000 0.000000 0.000000 3.138210
    2 -859.362789 1845.439497 57.909421 -0.000048 -0.095772 -1.091556
  time 191
    0 0.000000 0.000000 0.000000 0.000000 0.000000 -0.000001
    1 5708.000000 -598.500000 2458.000000 0.000000 0.000000 3.138210
    2 -856.221708 1840.304941 60.194092 0.000814 -0.094299 -1.090406
  time 192
    0 0.000000 0.000000 0.000000 0.000000 0.000000 -0.000001
    1 5708.000000 -598.500000 2458.000000 0.000000 0.000000 3.138210
    2 -853.080627 1835.103703 62.478764 0.001773 -0.092868 -1.089255
  time 193
    0 0.000000 0.000000 0.000000 0.000000 0.000000 -0.000001
    1 5708.000000 -598.500000 2458.000000 0.000000 0.000000 3.138210
    2 -849.939546 1829.702416 64.763435 0.002636 -0.091394 -1.088201
  time 194
    0 0.000000 0.000000 0.000000 0.000000 0.000000 -0.000001
    1 5708.000000 -598.500000 2458.000000 0.000000 0.000000 3.138210
    2 -846.613696 1824.167765 67.048106 0.003498 -0.089921 -1.087050
  time 195
    0 0.000000 0.000000 0.000000 0.000000 0.000000 -0.000001
    1 5708.000000 -598.500000 2458.000000 0.000000 0.000000 3.138210
    2 -843.195460 1818.566431 69.317235 0.004457 -0.088405 -1.085996
  time 196
    0 0.000000 0.000000 0.000000 0.000000 0.000000 -0.000001
    1 5708.000000 -598.500000 2458.000000 0.000000 0.000000 3.138210
    2 -839.777225 1812.765049 71.601906 0.005320 -0.086932 -1.084941
  time 197
    0 0.000000 0.000000 0.000000 0.000000 0.000000 -0.000001
    1 5708.000000 -598.500000 2458.000000 0.000000 0.000000 3.138210
    2 -836.174221 1806.763620 73.886578 0.006278 -0.085416 -1.083886
  time 198
    0 0.000000 0.000000 0.000000 0.000000 0.000000 -0.000001
    1 5708.000000 -598.500000 2458.000000 0.000000 0.000000 3.138210
    2 -832.571216 1800.762191 76.155707 0.007237 -0.083943 -1.082832
  time 199
    0 0.000000 0.000000 0.000000 0.000000 0.000000 -0.000001
    1 5708.000000 -598.500000 2458.000000 0.000000 0.000000 3.138210
    2 -828.875827 1794.560714 78.424836 0.008099 -0.082427 -1.081873
  time 200
    0 0.000000 0.000000 0.000000 0.000000 0.000000 -0.000001
    1 5708.000000 -598.500000 2458.000000 0.000000 0.000000 3.138210
    2 -825.088053 1788.159189 80.693965 0.009058 -0.080912 -1.080818
  time 201
    0 0.000000 0.000000 0.000000 0.000000 0.000000 -0.000001
    1 5708.000000 -598.500000 2458.000000 0.000000 0.000000 3.138210
    2 -821.207894 1781.690982 82.947552 0.010016 -0.079396 -1.079859
  time 202
    0 0.000000 0.000000 0.000000 0.000000 0.000000 -0.000001
    1 5708.000000 -598.500000 2458.000000 0.000000 0.000000 3.138210
    2 -817.235350 1775.089410 85.201140 0.010975 -0.077881 -1.078901
  time 203
    0 0.000000 0.000000 0.000000 0.000000 0.000000 -0.000001
    1 5708.000000 -598.500000 2458.000000 0.000000 0.000000 3.138210
    2 -813.262807 1768.354473 87.454727 0.011933 -0.076323 -1.077942
  time 204
    0 0.000000 0.000000 0.000000 0.000000 0.000000 -0.000001
    1 5708.000000 -598.500000 2458.000000 0.000000 0.000000 3.138210
    2 -809.105494 1761.486170 89.677230 0.012796 -0.074808 -1.077079
  time 205
    0 0.000000 0.000000 0.000000 0.000000 0.000000 -0.000001
    1 5708.000000 -598.500000 2458.000000 0.000000 0.000000 3.138210
    2 -804.948181 1754.484503 91.899734 0.013755 -0.073292 -1.076120
  time 206
    0 0.000000 0.000000 0.000000 0.000000 0.000000 -0.000001
    1 5708.000000 -598.500000 2458.000000 0.000000 0.000000 3.138210
    2 -800.698483 1747.349470 94.122237 0.014713 -0.071777 -1.075257
  time 207
    0 0.000000 0.000000 0.000000 0.000000 0.000000 -0.000001
    1 5708.000000 -598.500000 2458.000000 0.000000 0.000000 3.138210
    2 -796.448785 1740.147755 96.329198 0.015672 -0.070261 -1.074395
  time 208
    0 0.000000 0.000000 0.000000 0.000000 0.000000 -0.000001
    1 5708.000000 -598.500000 2458.000000 0.000000 0.000000 3.138210
    2 -792.014318 1732.812675 98.520617 0.016630 -0.068746 -1.073628
  time 209
    0 0.000000 0.000000 0.000000 0.000000 0.000000 -0.000001
    1 5708.000000 -598.500000 2458.000000 0.000000 0.000000 3.138210
    2 -787.579851 1725.277547 100.712037 0.017589 -0.067188 -1.072765
  time 210
    0 0.000000 0.000000 0.000000 0.000000 0.000000 -0.000001
    1 5708.000000 -598.500000 2458.000000 0.000000 0.000000 3.138210
    2 -783.052999 1717.742419 102.887914 0.018547 -0.065673 -1.071998
  time 211
    0 0.000000 0.000000 0.000000 0.000000 0.000000 -0.000001
    1 5708.000000 -598.500000 2458.000000 0.000000 0.000000 3.138210
    2 -778.433762 1710.007244 105.048249 0.019506 -0.064157 -1.071231
  time 212
    0 0.000000 0.000000 0.000000 0.000000 0.000000 -0.000001
    1 5708.000000 -598.500000 2458.000000 0.000000 0.000000 3.138210
    2 -773.814526 1702.138703 107.193043 0.020464 -0.062684 -1.070559
  time 213
    0 0.000000 0.000000 0.000000 0.000000 0.000000 -0.000001
    1 5708.000000 -598.500000 2458.000000 0.000000 0.000000 3.138210
    2 -769.102904 1694.270163 109.322294 0.021423 -0.061168 -1.069792
  time 214
    0 0.000000 0.000000 0.000000 0.000000 0.000000 -0.000001
    1 5708.000000 -598.500000 2458.000000 0.000000 0.000000 3.138210
    2 -764.298898 1686.201574 111.436004 0.022381 -0.059653 -1.069121
  time 215
    0 0.000000 0.000000 0.000000 0.000000 0.000000 -0.000001
    1 5708.000000 -598.500000 2458.000000 0.000000 0.000000 3.138210
    2 -759.402507 1677.999621 113.534171 0.023244 -0.058179 -1.068450
  time 216
    0 0.000000 0.000000 0.000000 0.000000 0.000000 -0.000001
    1 5708.000000 -598.500000 2458.000000 0.000000 0.000000 3.138210
    2 -754.506117 1669.797668 115.616796 0.024203 -0.056706 -1.067875
  time 217
    0 0.000000 0.000000 0.000000 0.000000 0.000000 -0.000001
    1 5708.000000 -598.500000 2458.000000 0.000000 0.000000 3.138210
    2 -749.517341 1661.462349 117.683880 0.025161 -0.055190 -1.067300
  time 218
    0 0.000000 0.000000 0.000000 0.000000 0.000000 -0.000001
    1 5708.000000 -598.500000 2458.000000 0.000000 0.000000 3.138210
    2 -744.528565 1652.926983 119.735421 0.026120 -0.053717 -1.066724
  time 219
    0 0.000000 0.000000 0.000000 0.000000 0.000000 -0.000001
    1 5708.000000 -598.500000 2458.000000 0.000000 0.000000 3.138210
    2 -739.447405 1644.391617 121.755879 0.026982 -0.052285 -1.066149
  time 220
    0 0.000000 0.000000 0.000000 0.000000 0.000000 -0.000001
    1 5708.000000 -598.500000 2458.000000 0.000000 0.000000 3.138210
    2 -734.273860 1635.722886 123.760794 0.027941 -0.050812 -1.065670
  time 221
    0 0.000000 0.000000 0.000000 0.000000 0.000000 -0.000001
    1 5708.000000 -598.500000 2458.000000 0.000000 0.000000 3.138210
    2 -729.007930 1626.920790 125.765710 0.028900 -0.049381 -1.065190
  time 222
    0 0.000000 0.000000 0.000000 0.000000 0.000000 -0.000001
    1 5708.000000 -598.500000 2458.000000 0.000000 0.000000 3.138210
    2 -723.742000 1618.118694 127.724000 0.029762 -0.047949 -1.064711
  time 223
    0 0.000000 0.000000 0.000000 0.000000 0.000000 -0.000001
    1 5708.000000 -598.500000 2458.000000 0.000000 0.000000 3.138210
    2 -718.476071 1609.183232 129.666747 0.030721 -0.046518 -1.064327
  time 224
    0 0.000000 0.000000 0.000000 0.000000 0.000000 -0.000001
    1 5708.000000 -598.500000 2458.000000 0.000000 0.000000 3.138210
    2 -713.025371 1600.114406 131.593953 0.031583 -0.045129 -1.063944
  time 225
    0 0.000000 0.000000 0.000000 0.000000 0.000000 -0.000001
    1 5708.000000 -598.500000 2458.000000 0.000000 0.000000 3.138210
    2 -707.667057 1590.978897 133.490075 0.032446 -0.043740 -1.063560
  time 226
    0 0.000000 0.000000 0.000000 0.000000 0.000000 -0.000001
    1 5708.000000 -598.500000 2458.000000 0.000000 0.000000 3.138210
    2 -702.123973 1581.776705 135.355112 0.033309 -0.042350 -1.063273
  time 227
    0 0.000000 0.000000 0.000000 0.000000 0.000000 -0.000001
    1 5708.000000 -598.500000 2458.000000 0.000000 0.000000 3.138210
    2 -696.580889 1572.374466 137.220150 0.034171 -0.041003 -1.062985
  time 228
    0 0.000000 0.000000 0.000000 0.000000 0.000000 -0.000001
    1 5708.000000 -598.500000 2458.000000 0.000000 0.000000 3.138210
    2 -691.037805 1563.038909 139.038562 0.035034 -0.039656 -1.062793
  time 229
    0 0.000000 0.000000 0.000000 0.000000 0.000000 -0.000001
    1 5708.000000 -598.500000 2458.000000 0.000000 0.000000 3.138210
    2 -685.402336 1553.569988 140.825890 0.035897 -0.038309 -1.062602
  time 230
    0 0.000000 0.000000 0.000000 0.000000 0.000000 -0.000001
    1 5708.000000 -598.500000 2458.000000 0.000000 0.000000 3.138210
    2 -679.674483 1543.967701 142.613217 0.036759 -0.036962 -1.062410
  time 231
    0 0.000000 0.000000 0.000000 0.000000 0.000000 -0.000001
    1 5708.000000 -598.500000 2458.000000 0.000000 0.000000 3.138210
    2 -674.039014 1534.365414 144.353919 0.037526 -0.035699 -1.062314
  time 232
    0 0.000000 0.000000 0.000000 0.000000 0.000000 -0.000001
    1 5708.000000 -598.500000 2458.000000 0.000000 0.000000 3.138210
    2 -668.218776 1524.629762 146.063537 0.038389 -0.034394 -1.062218
  time 233
    0 0.000000 0.000000 0.000000 0.000000 0.000000 -0.000001
    1 5708.000000 -598.500000 2458.000000 0.000000 0.000000 3.138210
    2 -662.398537 1514.760745 147.757613 0.039156 -0.033131 -1.062122
  time 234
    0 0.000000 0.000000 0.000000 0.000000 0.000000 -0.000001
    1 5708.000000 -598.500000 2458.000000 0.000000 0.000000 3.138210
    2 -656.578299 1504.958411 149.405063 0.040018 -0.031868 -1.062122
  time 235
    0 0.000000 0.000000 0.000000 0.000000 0.000000 -0.000001
    1 5708.000000 -598.500000 2458.000000 0.000000 0.000000 3.138210
    2 -650.665676 1495.022711 151.021429 0.040785 -0.030647 -1.062122
  time 236
    0 0.000000 0.000000 0.000000 0.000000 0.000000 -0.000001
    1 5708.000000 -598.500000 2458.000000 0.000000 0.000000 3.138210
    2 -644.660669 1484.953647 152.622253 0.041552 -0.029426 -1.062218
  time 237
    0 0.000000 0.000000 0.000000 0.000000 0.000000 -0.000001
    1 5708.000000 -598.500000 2458.000000 0.000000 0.000000 3.138210
    2 -638.748046 1474.884582 154.176451 0.042223 -0.028248 -1.062314
  time 238
    0 0.000000 0.000000 0.000000 0.000000 0.000000 -0.000001
    1 5708.000000 -598.500000 2458.000000 0.000000 0.000000 3.138210
    2 -632.650653 1464.748835 155.715107 0.042990 -0.027069 -1.062506
  time 239
    0 0.000000 0.000000 0.000000 0.000000 0.000000 -0.000001
    1 5708.000000 -598.500000 2458.000000 0.000000 0.000000 3.138210
    2 -626.553261 1454.479722 157.207138 0.043661 -0.025932 -1.062698
  time 240
    0 0.000000 0.000000 0.000000 0.000000 0.000000 -0.000001
    1 5708.000000 -598.500000 2458.000000 0.000000 0.000000 3.138210
    2 -620.548253 1444.210610 158.668084 0.044428 -0.024796 -1.062889
  time 241
    0 0.000000 0.000000 0.000000 0.000000 0.000000 -0.000001
    1 5708.000000 -598.500000 2458.000000 0.000000 0.000000 3.138210
    2 -614.358476 1433.874815 160.097946 0.045099 -0.023701 -1.063177
  time 242
    0 0.000000 0.000000 0.000000 0.000000 0.000000 -0.000001
    1 5708.000000 -598.500000 2458.000000 0.000000 0.000000 3.138210
    2 -608.168699 1423.405655 161.481182 0.045770 -0.022607 -1.063465
  time 243
    0 0.000000 0.000000 0.000000 0.000000 0.000000 -0.000001
    1 5708.000000 -598.500000 2458.000000 0.000000 0.000000 3.138210
    2 -601.978922 1413.003178 162.833335 0.046345 -0.021596 -1.063848
  time 244
    0 0.000000 0.000000 0.000000 0.000000 0.000000 -0.000001
    1 5708.000000 -598.500000 2458.000000 0.000000 0.000000 3.138210
    2 -595.696760 1402.467335 164.154403 0.047016 -0.020544 -1.064327
  time 245
    0 0.000000 0.000000 0.000000 0.000000 0.000000 -0.000001
    1 5708.000000 -598.500000 2458.000000 0.000000 0.000000 3.138210
    2 -589.414598 1391.864810 165.428845 0.047591 -0.019533 -1.064711
  time 246
    0 0.000000 0.000000 0.000000 0.000000 0.000000 -0.000001
    1 5708.000000 -598.500000 2458.000000 0.000000 0.000000 3.138210
    2 -583.132436 1381.262285 166.672204 0.048166 -0.018565 -1.065286
  time 247
    0 0.000000 0.000000 0.000000 0.000000 0.000000 -0.000001
    1 5708.000000 -598.500000 2458.000000 0.000000 0.000000 3.138210
    2 -576.757890 1370.593078 167.868937 0.048741 -0.017639 -1.065861
  time 248
    0 0.000000 0.000000 0.000000 0.000000 0.000000 -0.000001
    1 5708.000000 -598.500000 2458.000000 0.000000 0.000000 3.138210
    2 -570.383343 1359.790505 169.034585 0.049316 -0.016713 -1.066437
  time 249
    0 0.000000 0.000000 0.000000 0.000000 0.000000 -0.000001
    1 5708.000000 -598.500000 2458.000000 0.000000 0.000000 3.138210
    2 -564.008797 1349.054615 170.153608 0.049796 -0.015829 -1.067108
  time 250
    0 0.000000 0.000000 0.000000 0.000000 0.000000 -0.000001
    1 5708.000000 -598.500000 2458.000000 0.000000 0.000000 3.138210
    2 -557.634250 1338.185360 171.226004 0.050275 -0.014945 -1.067779
  time 251
    0 0.000000 0.000000 0.000000 0.000000 0.000000 -0.000001
    1 5708.000000 -598.500000 2458.000000 0.000000 0.000000 3.138210
    2 -551.167319 1327.316105 172.267317 0.050754 -0.014103 -1.068546
  time 252
    0 0.000000 0.000000 0.000000 0.000000 0.000000 -0.000001
    1 5708.000000 -598.500000 2458.000000 0.000000 0.000000 3.138210
    2 -544.700387 1316.380167 173.246462 0.051233 -0.013303 -1.069313
  time 253
    0 0.000000 0.000000 0.000000 0.000000 0.000000 -0.000001
    1 5708.000000 -598.500000 2458.000000 0.000000 0.000000 3.138210
    2 -538.141071 1305.444229 174.194523 0.051713 -0.012545 -1.070176
  time 254
    0 0.000000 0.000000 0.000000 0.000000 0.000000 -0.000001
    1 5708.000000 -598.500000 2458.000000 0.000000 0.000000 3.138210
    2 -531.674140 1294.374926 175.111500 0.052096 -0.011787 -1.071135
  time 255
    0 0.000000 0.000000 0.000000 0.000000 0.000000 -0.000001
    1 5708.000000 -598.500000 2458.000000 0.000000 0.000000 3.138210
    2 -525.114824 1283.372306 175.966309 0.052479 -0.011114 -1.072093
  time 256
    0 0.000000 0.000000 0.000000 0.000000 0.000000 -0.000001
    1 5708.000000 -598.500000 2458.000000 0.000000 0.000000 3.138210
    2 -518.555508 1272.303003 176.774492 0.052863 -0.010440 -1.073052
  time 257
    0 0.000000 0.000000 0.000000 0.000000 0.000000 -0.000001
    1 5708.000000 -598.500000 2458.000000 0.000000 0.000000 3.138210
    2 -511.903807 1261.167018 177.536049 0.053150 -0.009767 -1.074203
  time 258
    0 0.000000 0.000000 0.000000 0.000000 0.000000 -0.000001
    1 5708.000000 -598.500000 2458.000000 0.000000 0.000000 3.138210
    2 -505.344491 1250.031032 178.266522 0.053438 -0.009177 -1.075257
  time 259
    0 0.000000 0.000000 0.000000 0.000000 0.000000 -0.000001
    1 5708.000000 -598.500000 2458.000000 0.000000 0.000000 3.138210
    2 -498.692790 1238.895047 178.934827 0.053726 -0.008630 -1.076504
  time 260
    0 0.000000 0.000000 0.000000 0.000000 0.000000 -0.000001
    1 5708.000000 -598.500000 2458.000000 0.000000 0.000000 3.138210
    2 -492.041089 1227.625696 179.556506 0.054013 -0.008083 -1.077750
  time 261
    0 0.000000 0.000000 0.000000 0.000000 0.000000 -0.000001
    1 5708.000000 -598.500000 2458.000000 0.000000 0.000000 3.138210
    2 -485.389389 1216.423028 180.116018 0.054205 -0.007578 -1.079092
  time 262
    0 0.000000 0.000000 0.000000 0.000000 0.000000 -0.000001
    1 5708.000000 -598.500000 2458.000000 0.000000 0.000000 3.138210
    2 -478.737688 1205.153678 180.644445 0.054492 -0.007072 -1.080435
  time 263
    0 0.000000 0.000000 0.000000 0.000000 0.000000 -0.000001
    1 5708.000000 -598.500000 2458.000000 0.000000 0.000000 3.138210
    2 -472.085987 1193.884327 181.126246 0.054684 -0.006567 -1.082065
  time 264
    0 0.000000 0.000000 0.000000 0.000000 0.000000 -0.000001
    1 5708.000000 -598.500000 2458.000000 0.000000 0.000000 3.138210
    2 -465.341901 1182.614977 181.545880 0.054876 -0.006104 -1.083695
  time 265
    0 0.000000 0.000000 0.000000 0.000000 0.000000 -0.000001
    1 5708.000000 -598.500000 2458.000000 0.000000 0.000000 3.138210
    2 -458.690201 1171.278944 181.918887 0.054972 -0.005641 -1.085420
  time 266
    0 0.000000 0.000000 0.000000 0.000000 0.000000 -0.000001
    1 5708.000000 -598.500000 2458.000000 0.000000 0.000000 3.138210
    2 -451.946115 1159.876228 182.260811 0.055163 -0.005178 -1.087242
  time 267
    0 0.000000 0.000000 0.000000 0.000000 0.000000 -0.000001
    1 5708.000000 -598.500000 2458.000000 0.000000 0.000000 3.138210
    2 -445.202030 1148.540195 182.540567 0.055259 -0.004715 -1.089255
  time 268
    0 0.000000 0.000000 0.000000 0.000000 0.000000 -0.000001
    1 5708.000000 -598.500000 2458.000000 0.000000 0.000000 3.138210
    2 -438.457944 1137.204162 182.789238 0.055355 -0.004252 -1.091269
  time 269
    0 0.000000 0.000000 0.000000 0.000000 0.000000 -0.000001
    1 5708.000000 -598.500000 2458.000000 0.000000 0.000000 3.138210
    2 -431.713859 1125.734764 182.991284 0.055451 -0.003831 -1.093378
  time 270
    0 0.000000 0.000000 0.000000 0.000000 0.000000 -0.000001
    1 5708.000000 -598.500000 2458.000000 0.000000 0.000000 3.138210
    2 -424.969773 1114.398731 183.146704 0.055547 -0.003410 -1.095679
  time 271
    0 0.000000 0.000000 0.000000 0.000000 0.000000 -0.000001
    1 5708.000000 -598.500000 2458.000000 0.000000 0.000000 3.138210
    2 -418.225687 1102.996015 183.255498 0.055547 -0.002989 -1.097980
  time 272
    0 0.000000 0.000000 0.000000 0.000000 0.000000 -0.000001
    1 5708.000000 -598.500000 2458.000000 0.000000 0.000000 3.138210
    2 -411.389217 1091.526617 183.333208 0.055547 -0.002568 -1.100377
  time 273
    0 0.000000 0.000000 0.000000 0.000000 0.000000 -0.000001
    1 5708.000000 -598.500000 2458.000000 0.000000 0.000000 3.138210
    2 -404.645132 1080.123902 183.364292 0.055547 -0.002147 -1.102870
  time 274
    0 0.000000 0.000000 0.000000 0.000000 0.000000 -0.000001
    1 5708.000000 -598.500000 2458.000000 0.000000 0.000000 3.138210
    2 -397.901046 1068.721186 183.348750 0.055547 -0.001768 -1.105459
  time 275
    0 0.000000 0.000000 0.000000 0.000000 0.000000 -0.000001
    1 5708.000000 -598.500000 2458.000000 0.000000 0.000000 3.138210
    2 -391.064576 1057.251788 183.302124 0.055547 -0.001389 -1.108143
  time 276
    0 0.000000 0.000000 0.000000 0.000000 0.000000 -0.000001
    1 5708.000000 -598.500000 2458.000000 0.000000 0.000000 3.138210
    2 -384.320490 1045.849072 183.208872 0.055547 -0.001010 -1.110924
  time 277
    0 0.000000 0.000000 0.000000 0.000000 0.000000 -0.000001
    1 5708.000000 -598.500000 2458.000000 0.000000 0.000000 3.138210
    2 -377.576405 1034.379674 183.084536 0.055451 -0.000631 -1.113800
  time 278
    0 0.000000 0.000000 0.000000 0.000000 0.000000 -0.000001
    1 5708.000000 -598.500000 2458.000000 0.000000 0.000000 3.138210
    2 -370.739935 1022.910276 182.913574 0.055355 -0.000253 -1.116676
  time 279
    0 0.000000 0.000000 0.000000 0.000000 0.000000 -0.000001
    1 5708.000000 -598.500000 2458.000000 0.000000 0.000000 3.138210
    2 -363.995849 1011.507560 182.711528 0.055355 0.000042 -1.119648
  time 280
    0 0.000000 0.000000 0.000000 0.000000 0.000000 -0.000001
    1 5708.000000 -598.500000 2458.000000 0.000000 0.000000 3.138210
    2 -357.251764 1000.104845 182.478399 0.055163 0.000379 -1.122716
  time 281
    0 0.000000 0.000000 0.000000 0.000000 0.000000 -0.000001
    1 5708.000000 -598.500000 2458.000000 0.000000 0.000000 3.138210
    2 -350.507678 988.635447 182.198643 0.055067 0.000758 -1.125880
  time 282
    0 0.000000 0.000000 0.000000 0.000000 0.000000 -0.000001
    1 5708.000000 -598.500000 2458.000000 0.000000 0.000000 3.138210
    2 -343.763592 977.232731 181.887803 0.054972 0.001052 -1.129140
  time 283
    0 0.000000 0.000000 0.000000 0.000000 0.000000 -0.000001
    1 5708.000000 -598.500000 2458.000000 0.000000 0.000000 3.138210
    2 -337.019507 965.896698 181.545880 0.054780 0.001389 -1.132400
  time 284
    0 0.000000 0.000000 0.000000 0.000000 0.000000 -0.000001
    1 5708.000000 -598.500000 2458.000000 0.000000 0.000000 3.138210
    2 -330.275421 954.427300 181.157330 0.054684 0.001726 -1.135756
  time 285
    0 0.000000 0.000000 0.000000 0.000000 0.000000 -0.000001
    1 5708.000000 -598.500000 2458.000000 0.000000 0.000000 3.138210
    2 -323.531336 943.091267 180.753239 0.054492 0.002021 -1.139207
  time 286
    0 0.000000 0.000000 0.000000 0.000000 0.000000 -0.000001
    1 5708.000000 -598.500000 2458.000000 0.000000 0.000000 3.138210
    2 -316.787250 931.755234 180.302521 0.054301 0.002357 -1.142659
  time 287
    0 0.000000 0.000000 0.000000 0.000000 0.000000 -0.000001
    1 5708.000000 -598.500000 2458.000000 0.000000 0.000000 3.138210
    2 -310.043165 920.419201 179.836262 0.054109 0.002652 -1.146206
  time 288
    0 0.000000 0.000000 0.000000 0.000000 0.000000 -0.000001
    1 5708.000000 -598.500000 2458.000000 0.000000 0.000000 3.138210
    2 -303.391464 909.083168 179.323376 0.053821 0.002947 -1.149849
  time 289
    0 0.000000 0.000000 0.000000 0.000000 0.000000 -0.000001
    1 5708.000000 -598.500000 2458.000000 0.000000 0.000000 3.138210
    2 -296.739763 897.813817 178.794949 0.053630 0.003199 -1.153493
  time 290
    0 0.000000 0.000000 0.000000 0.000000 0.000000 -0.000001
    1 5708.000000 -598.500000 2458.000000 0.000000 0.000000 3.138210
    2 -289.995678 886.477784 178.219896 0.053342 0.003494 -1.157232
  time 291
    0 0.000000 0.000000 0.000000 0.000000 0.000000 -0.000001
    1 5708.000000 -598.500000 2458.000000 0.000000 0.000000 3.138210
    2 -283.343977 875.275116 177.629301 0.053055 0.003789 -1.160971
  time 292
    0 0.000000 0.000000 0.000000 0.000000 0.000000 -0.000001
    1 5708.000000 -598.500000 2458.000000 0.000000 0.000000 3.138210
    2 -276.692276 864.072448 177.007621 0.052863 0.004041 -1.164806
  time 293
    0 0.000000 0.000000 0.000000 0.000000 0.000000 -0.000001
    1 5708.000000 -598.500000 2458.000000 0.000000 0.000000 3.138210
    2 -270.132960 852.869780 176.354858 0.052575 0.004294 -1.168737
  time 294
    0 0.000000 0.000000 0.000000 0.000000 0.000000 -0.000001
    1 5708.000000 -598.500000 2458.000000 0.000000 0.000000 3.138210
    2 -263.481259 841.733795 175.686553 0.052288 0.004547 -1.172668
  time 295
    0 0.000000 0.000000 0.000000 0.000000 0.000000 -0.000001
    1 5708.000000 -598.500000 2458.000000 0.000000 0.000000 3.138210
    2 -256.921943 830.597810 174.987164 0.051904 0.004799 -1.176695
  time 296
    0 0.000000 0.000000 0.000000 0.000000 0.000000 -0.000001
    1 5708.000000 -598.500000 2458.000000 0.000000 0.000000 3.138210
    2 -250.362627 819.461824 174.256691 0.051617 0.005052 -1.180722
  time 297
    0 0.000000 0.000000 0.000000 0.000000 0.000000 -0.000001
    1 5708.000000 -598.500000 2458.000000 0.000000 0.000000 3.138210
    2 -243.803311 808.459204 173.495134 0.051329 0.005262 -1.184749
  time 298
    0 0.000000 0.000000 0.000000 0.000000 0.000000 -0.000001
    1 5708.000000 -598.500000 2458.000000 0.000000 0.000000 3.138210
    2 -237.243995 797.389901 172.733577 0.050946 0.005473 -1.188871
  time 299
    0 0.000000 0.000000 0.000000 0.000000 0.000000 -0.000001
    1 5708.000000 -598.500000 2458.000000 0.000000 0.000000 3.138210
    2 -230.777064 786.387281 171.925394 0.050562 0.005725 -1.193090
  time 300
    0 0.000000 0.000000 0.000000 0.000000 0.000000 -0.000001
    1 5708.000000 -598.500000 2458.000000 0.000000 0.000000 3.138210
    2 -224.310132 775.518025 171.101669 0.050275 0.005936 -1.197213
  time 301
    0 0.000000 0.000000 0.000000 0.000000 0.000000 -0.000001
    1 5708.000000 -598.500000 2458.000000 0.000000 0.000000 3.138210
    2 -217.843201 764.582088 170.262402 0.049891 0.006146 -1.201431
  time 302
    0 0.000000 0.000000 0.000000 0.000000 0.000000 -0.000001
    1 5708.000000 -598.500000 2458.000000 0.000000 0.000000 3.138210
    2 -211.376270 753.712832 169.392051 0.049508 0.006357 -1.205746
  time 303
    0 0.000000 0.000000 0.000000 0.000000 0.000000 -0.000001
    1 5708.000000 -598.500000 2458.000000 0.000000 0.000000 3.138210
    2 -205.001723 742.910260 168.506158 0.049125 0.006525 -1.210060
  time 304
    0 0.000000 0.000000 0.000000 0.000000 0.000000 -0.000001
    1 5708.000000 -598.500000 2458.000000 0.000000 0.000000 3.138210
    2 -198.627177 732.174370 167.604723 0.048741 0.006736 -1.214375
  time 305
    0 0.000000 0.000000 0.000000 0.000000 0.000000 -0.000001
    1 5708.000000 -598.500000 2458.000000 0.000000 0.000000 3.138210
    2 -192.345015 721.438480 166.672204 0.048262 0.006904 -1.218689
  time 306
    0 0.000000 0.000000 0.000000 0.000000 0.000000 -0.000001
    1 5708.000000 -598.500000 2458.000000 0.000000 0.000000 3.138210
    2 -185.970468 710.769272 165.739685 0.047878 0.007115 -1.223099
  time 307
    0 0.000000 0.000000 0.000000 0.000000 0.000000 -0.000001
    1 5708.000000 -598.500000 2458.000000 0.000000 0.000000 3.138210
    2 -179.688306 700.166747 164.776082 0.047495 0.007283 -1.227510
  time 308
    0 0.000000 0.000000 0.000000 0.000000 0.000000 -0.000001
    1 5708.000000 -598.500000 2458.000000 0.000000 0.000000 3.138210
    2 -173.498529 689.630904 163.796937 0.047016 0.007451 -1.231920
  time 309
    0 0.000000 0.000000 0.000000 0.000000 0.000000 -0.000001
    1 5708.000000 -598.500000 2458.000000 0.000000 0.000000 3.138210
    2 -167.308752 679.161745 162.802251 0.046632 0.007620 -1.236426
  time 310
    0 0.000000 0.000000 0.000000 0.000000 0.000000 -0.000001
    1 5708.000000 -598.500000 2458.000000 0.000000 0.000000 3.138210
    2 -161.118975 668.692585 161.792022 0.046153 0.007746 -1.240837
  time 311
    0 0.000000 0.000000 0.000000 0.000000 0.000000 -0.000001
    1 5708.000000 -598.500000 2458.000000 0.000000 0.000000 3.138210
    2 -154.929198 658.290107 160.766251 0.045674 0.007914 -1.245343
  time 312
    0 0.000000 0.000000 0.000000 0.000000 0.000000 -0.000001
    1 5708.000000 -598.500000 2458.000000 0.000000 0.000000 3.138210
    2 -148.831805 648.020995 159.724938 0.045290 0.008041 -1.249849
  time 313
    0 0.000000 0.000000 0.000000 0.000000 0.000000 -0.000001
    1 5708.000000 -598.500000 2458.000000 0.000000 0.000000 3.138210
    2 -142.826798 637.751883 158.683626 0.044811 0.008209 -1.254451
  time 314
    0 0.000000 0.000000 0.000000 0.000000 0.000000 -0.000001
    1 5708.000000 -598.500000 2458.000000 0.000000 0.000000 3.138210
    2 -136.729405 627.549453 157.611229 0.044332 0.008335 -1.258957
  time 315
    0 0.000000 0.000000 0.000000 0.000000 0.000000 -0.000001
    1 5708.000000 -598.500000 2458.000000 0.000000 0.000000 3.138210
    2 -130.816782 617.413706 156.538832 0.043853 0.008462 -1.263463
  time 316
    0 0.000000 0.000000 0.000000 0.000000 0.000000 -0.000001
    1 5708.000000 -598.500000 2458.000000 0.000000 0.000000 3.138210
    2 -124.811775 607.411324 155.450894 0.043373 0.008588 -1.268065
  time 317
    0 0.000000 0.000000 0.000000 0.000000 0.000000 -0.000001
    1 5708.000000 -598.500000 2458.000000 0.000000 0.000000 3.138210
    2 -118.899152 597.408942 154.347413 0.042894 0.008714 -1.272668
  time 318
    0 0.000000 0.000000 0.000000 0.000000 0.000000 -0.000001
    1 5708.000000 -598.500000 2458.000000 0.000000 0.000000 3.138210
    2 -113.078914 587.473242 153.228390 0.042415 0.008841 -1.277174
  time 319
    0 0.000000 0.000000 0.000000 0.000000 0.000000 -0.000001
    1 5708.000000 -598.500000 2458.000000 0.000000 0.000000 3.138210
    2 -107.258675 577.670908 152.109368 0.041936 0.008925 -1.281776
  time 320
    0 0.000000 0.000000 0.000000 0.000000 0.000000 -0.000001
    1 5708.000000 -598.500000 2458.000000 0.000000 0.000000 3.138210
    2 -101.438437 567.868573 150.990345 0.041456 0.009051 -1.286378
  time 321
    0 0.000000 0.000000 0.000000 0.000000 0.000000 -0.000001
    1 5708.000000 -598.500000 2458.000000 0.000000 0.000000 3.138210
    2 -95.710584 558.199604 149.855781 0.040977 0.009135 -1.290884
  time 322
    0 0.000000 0.000000 0.000000 0.000000 0.000000 -0.000001
    1 5708.000000 -598.500000 2458.000000 0.000000 0.000000 3.138210
    2 -90.075115 548.597317 148.705674 0.040498 0.009219 -1.295486
  time 323
    0 0.000000 0.000000 0.000000 0.000000 0.000000 -0.000001
    1 5708.000000 -598.500000 2458.000000 0.000000 0.000000 3.138210
    2 -84.439646 539.061713 147.555567 0.040018 0.009346 -1.300088
  time 324
    0 0.000000 0.000000 0.000000 0.000000 0.000000 -0.000001
    1 5708.000000 -598.500000 2458.000000 0.000000 0.000000 3.138210
    2 -78.804177 529.659473 146.405461 0.039443 0.009430 -1.304595
  time 325
    0 0.000000 0.000000 0.000000 0.000000 0.000000 -0.000001
    1 5708.000000 -598.500000 2458.000000 0.000000 0.000000 3.138210
    2 -73.353478 520.323917 145.239812 0.038964 0.009514 -1.309197
  time 326
    0 0.000000 0.000000 0.000000 0.000000 0.000000 -0.000001
    1 5708.000000 -598.500000 2458.000000 0.000000 0.000000 3.138210
    2 -67.810394 510.988360 144.074164 0.038485 0.009598 -1.313703
  time 327
    0 0.000000 0.000000 0.000000 0.000000 0.000000 -0.000001
    1 5708.000000 -598.500000 2458.000000 0.000000 0.000000 3.138210
    2 -62.359695 501.852851 142.908515 0.038006 0.009640 -1.318209
  time 328
    0 0.000000 0.000000 0.000000 0.000000 0.000000 -0.000001
    1 5708.000000 -598.500000 2458.000000 0.000000 0.000000 3.138210
    2 -57.001380 492.784025 141.727325 0.037430 0.009725 -1.322715
  time 329
    0 0.000000 0.000000 0.000000 0.000000 0.000000 -0.000001
    1 5708.000000 -598.500000 2458.000000 0.000000 0.000000 3.138210
    2 -51.643066 483.715198 140.546134 0.036951 0.009767 -1.327317
  time 330
    0 0.000000 0.000000 0.000000 0.000000 0.000000 -0.000001
    1 5708.000000 -598.500000 2458.000000 0.000000 0.000000 3.138210
    2 -46.469521 474.846420 139.380485 0.036472 0.009851 -1.331728
  time 331
    0 0.000000 0.000000 0.000000 0.000000 0.000000 -0.000001
    1 5708.000000 -598.500000 2458.000000 0.000000 0.000000 3.138210
    2 -41.203591 466.044323 138.199295 0.035897 0.009893 -1.336234
  time 332
    0 0.000000 0.000000 0.000000 0.000000 0.000000 -0.000001
    1 5708.000000 -598.500000 2458.000000 0.000000 0.000000 3.138210
    2 -36.030046 457.308910 137.018104 0.035418 0.009935 -1.340644
  time 333
    0 0.000000 0.000000 0.000000 0.000000 0.000000 -0.000001
    1 5708.000000 -598.500000 2458.000000 0.000000 0.000000 3.138210
    2 -30.948886 448.706861 135.836914 0.034938 0.010019 -1.345054
  time 334
    0 0.000000 0.000000 0.000000 0.000000 0.000000 -0.000001
    1 5708.000000 -598.500000 2458.000000 0.000000 0.000000 3.138210
    2 -25.960110 440.238177 134.655723 0.034459 0.010061 -1.349465
  time 335
    0 0.000000 0.000000 0.000000 0.000000 0.000000 -0.000001
    1 5708.000000 -598.500000 2458.000000 0.000000 0.000000 3.138210
    2 -20.971334 431.769494 133.474533 0.033884 0.010103 -1.353875
  time 336
    0 0.000000 0.000000 0.000000 0.000000 0.000000 -0.000001
    1 5708.000000 -598.500000 2458.000000 0.000000 0.000000 3.138210
    2 -16.074944 423.500858 132.308884 0.033405 0.010146 -1.358190
  time 337
    0 0.000000 0.000000 0.000000 0.000000 0.000000 -0.000001
    1 5708.000000 -598.500000 2458.000000 0.000000 0.000000 3.138210
    2 -11.178553 415.298905 131.143235 0.032925 0.010146 -1.362504
  time 338
    0 0.000000 0.000000 0.000000 0.000000 0.000000 -0.000001
    1 5708.000000 -598.500000 2458.000000 0.000000 0.000000 3.138210
    2 -6.374547 407.163634 129.962045 0.032446 0.010188 -1.366819
  time 339
    0 0.000000 0.000000 0.000000 0.000000 0.000000 -0.000001
    1 5708.000000 -598.500000 2458.000000 0.000000 0.000000 3.138210
    2 -1.662925 399.228411 128.811938 0.031967 0.010230 -1.371037
  time 340
    0 0.000000 0.000000 0.000000 0.000000 0.000000 -0.000001
    1 5708.000000 -598.500000 2458.000000 0.000000 0.000000 3.138210
    2 2.863927 391.359870 127.646290 0.031488 0.010230 -1.375256
  time 341
    0 0.000000 0.000000 0.000000 0.000000 0.000000 -0.000001
    1 5708.000000 -598.500000 2458.000000 0.000000 0.000000 3.138210
    2 7.483163 383.558012 126.496183 0.031008 0.010272 -1.379474
  time 342
    0 0.000000 0.000000 0.000000 0.000000 0.000000 -0.000001
    1 5708.000000 -598.500000 2458.000000 0.000000 0.000000 3.138210
    2 12.010015 375.956202 125.361619 0.030529 0.010272 -1.383597
  time 343
    0 0.000000 0.000000 0.000000 0.000000 0.000000 -0.000001
    1 5708.000000 -598.500000 2458.000000 0.000000 0.000000 3.138210
    2 16.444483 368.421074 124.211512 0.030050 0.010314 -1.387624
  time 344
    0 0.000000 0.000000 0.000000 0.000000 0.000000 -0.000001
    1 5708.000000 -598.500000 2458.000000 0.000000 0.000000 3.138210
    2 20.878950 360.952629 123.076947 0.029570 0.010314 -1.391746
  time 345
    0 0.000000 0.000000 0.000000 0.000000 0.000000 -0.000001
    1 5708.000000 -598.500000 2458.000000 0.000000 0.000000 3.138210
    2 25.128647 353.684231 121.957925 0.029091 0.010314 -1.395677
  time 346
    0 0.000000 0.000000 0.000000 0.000000 0.000000 -0.000001
    1 5708.000000 -598.500000 2458.000000 0.000000 0.000000 3.138210
    2 29.378345 346.482516 120.854444 0.028612 0.010314 -1.399704
  time 347
    0 0.000000 0.000000 0.000000 0.000000 0.000000 -0.000001
    1 5708.000000 -598.500000 2458.000000 0.000000 0.000000 3.138210
    2 33.535658 339.414166 119.750963 0.028133 0.010314 -1.403635
  time 348
    0 0.000000 0.000000 0.000000 0.000000 0.000000 -0.000001
    1 5708.000000 -598.500000 2458.000000 0.000000 0.000000 3.138210
    2 37.692971 332.545864 118.663025 0.027653 0.010356 -1.407470
  time 349
    0 0.000000 0.000000 0.000000 0.000000 0.000000 -0.000001
    1 5708.000000 -598.500000 2458.000000 0.000000 0.000000 3.138210
    2 41.665515 325.744244 117.575086 0.027270 0.010356 -1.411305
  time 350
    0 0.000000 0.000000 0.000000 0.000000 0.000000 -0.000001
    1 5708.000000 -598.500000 2458.000000 0.000000 0.000000 3.138210
    2 45.638058 319.009306 116.502689 0.026791 0.010314 -1.415045
  time 351
    0 0.000000 0.000000 0.000000 0.000000 0.000000 -0.000001
    1 5708.000000 -598.500000 2458.000000 0.000000 0.000000 3.138210
    2 49.518217 312.541099 115.461377 0.026311 0.010314 -1.418688
  time 352
    0 0.000000 0.000000 0.000000 0.000000 0.000000 -0.000001
    1 5708.000000 -598.500000 2458.000000 0.000000 0.000000 3.138210
    2 53.305991 306.139575 114.404522 0.025928 0.010314 -1.422331
  time 353
    0 0.000000 0.000000 0.000000 0.000000 0.000000 -0.000001
    1 5708.000000 -598.500000 2458.000000 0.000000 0.000000 3.138210
    2 57.001380 299.804733 113.378751 0.025449 0.010314 -1.425974
  time 354
    0 0.000000 0.000000 0.000000 0.000000 0.000000 -0.000001
    1 5708.000000 -598.500000 2458.000000 0.000000 0.000000 3.138210
    2 60.604385 293.669938 112.368522 0.025065 0.010314 -1.429426
  time 355
    0 0.000000 0.000000 0.000000 0.000000 0.000000 -0.000001
    1 5708.000000 -598.500000 2458.000000 0.000000 0.000000 3.138210
    2 64.115005 287.668509 111.373836 0.024682 0.010314 -1.432878
  time 356
    0 0.000000 0.000000 0.000000 0.000000 0.000000 -0.000001
    1 5708.000000 -598.500000 2458.000000 0.000000 0.000000 3.138210
    2 67.625625 281.800445 110.394691 0.024203 0.010272 -1.436329
  time 357
    0 0.000000 0.000000 0.000000 0.000000 0.000000 -0.000001
    1 5708.000000 -598.500000 2458.000000 0.000000 0.000000 3.138210
    2 71.043860 276.132428 109.431088 0.023819 0.010272 -1.439589
  time 358
    0 0.000000 0.000000 0.000000 0.000000 0.000000 -0.000001
    1 5708.000000 -598.500000 2458.000000 0.000000 0.000000 3.138210
    2 74.277326 270.531095 108.483027 0.023436 0.010230 -1.442849
  time 359
    0 0.000000 0.000000 0.000000 0.000000 0.000000 -0.000001
    1 5708.000000 -598.500000 2458.000000 0.000000 0.000000 3.138210
    2 77.510791 265.063126 107.550508 0.023052 0.010230 -1.446109
  time 360
    0 0.000000 0.000000 0.000000 0.000000 0.000000 -0.000001
    1 5708.000000 -598.500000 2458.000000 0.000000 0.000000 3.138210
    2 80.651872 259.795204 106.633531 0.022669 0.010230 -1.449177
  time 361
    0 0.000000 0.000000 0.000000 0.000000 0.000000 -0.000001
    1 5708.000000 -598.500000 2458.000000 0.000000 0.000000 3.138210
    2 83.700568 254.660648 105.747639 0.022381 0.010188 -1.452245
  time 362
    0 0.000000 0.000000 0.000000 0.000000 0.000000 -0.000001
    1 5708.000000 -598.500000 2458.000000 0.000000 0.000000 3.138210
    2 86.656880 249.659457 104.877288 0.021998 0.010188 -1.455121
  time 363
    0 0.000000 0.000000 0.000000 0.000000 0.000000 -0.000001
    1 5708.000000 -598.500000 2458.000000 0.000000 0.000000 3.138210
    2 89.520807 244.791631 104.022479 0.021615 0.010146 -1.457997
  time 364
    0 0.000000 0.000000 0.000000 0.000000 0.000000 -0.000001
    1 5708.000000 -598.500000 2458.000000 0.000000 0.000000 3.138210
    2 92.292349 240.123853 103.198754 0.021327 0.010146 -1.460874
  time 365
    0 0.000000 0.000000 0.000000 0.000000 0.000000 -0.000001
    1 5708.000000 -598.500000 2458.000000 0.000000 0.000000 3.138210
    2 94.971506 235.589440 102.390571 0.020944 0.010103 -1.463558
  time 366
    0 0.000000 0.000000 0.000000 0.000000 0.000000 -0.000001
    1 5708.000000 -598.500000 2458.000000 0.000000 0.000000 3.138210
    2 97.558278 231.188392 101.613472 0.020656 0.010103 -1.466147
  time 367
    0 0.000000 0.000000 0.000000 0.000000 0.000000 -0.000001
    1 5708.000000 -598.500000 2458.000000 0.000000 0.000000 3.138210
    2 100.052666 226.987391 100.851915 0.020369 0.010061 -1.468735
  time 368
    0 0.000000 0.000000 0.000000 0.000000 0.000000 -0.000001
    1 5708.000000 -598.500000 2458.000000 0.000000 0.000000 3.138210
    2 102.454669 222.919756 100.121441 0.020081 0.010019 -1.471228
  time 369
    0 0.000000 0.000000 0.000000 0.000000 0.000000 -0.000001
    1 5708.000000 -598.500000 2458.000000 0.000000 0.000000 3.138210
    2 104.764288 219.052168 99.406510 0.019793 0.010019 -1.473529
  time 370
    0 0.000000 0.000000 0.000000 0.000000 0.000000 -0.000001
    1 5708.000000 -598.500000 2458.000000 0.000000 0.000000 3.138210
    2 106.981521 215.317945 98.738205 0.019506 0.009977 -1.475830
  time 371
    0 0.000000 0.000000 0.000000 0.000000 0.000000 -0.000001
    1 5708.000000 -598.500000 2458.000000 0.000000 0.000000 3.138210
    2 109.106370 211.717088 98.069900 0.019218 0.009977 -1.478036
  time 372
    0 0.000000 0.000000 0.000000 0.000000 0.000000 -0.000001
    1 5708.000000 -598.500000 2458.000000 0.000000 0.000000 3.138210
    2 111.046449 208.316278 97.448221 0.019027 0.009935 -1.480145
  time 373
    0 0.000000 0.000000 0.000000 0.000000 0.000000 -0.000001
    1 5708.000000 -598.500000 2458.000000 0.000000 0.000000 3.138210
    2 112.986529 205.115516 96.842083 0.018739 0.009935 -1.482158
  time 374
    0 0.000000 0.000000 0.000000 0.000000 0.000000 -0.000001
    1 5708.000000 -598.500000 2458.000000 0.000000 0.000000 3.138210
    2 114.834223 202.048118 96.267030 0.018547 0.009893 -1.483980
  time 375
    0 0.000000 0.000000 0.000000 0.000000 0.000000 -0.000001
    1 5708.000000 -598.500000 2458.000000 0.000000 0.000000 3.138210
    2 116.497149 199.114086 95.723061 0.018356 0.009893 -1.485802
  time 376
    0 0.000000 0.000000 0.000000 0.000000 0.000000 -0.000001
    1 5708.000000 -598.500000 2458.000000 0.000000 0.000000 3.138210
    2 118.160074 196.446784 95.210175 0.018068 0.009851 -1.487527
  time 377
    0 0.000000 0.000000 0.000000 0.000000 0.000000 -0.000001
    1 5708.000000 -598.500000 2458.000000 0.000000 0.000000 3.138210
    2 119.638230 193.846165 94.728374 0.017876 0.009851 -1.489061
  time 378
    0 0.000000 0.000000 0.000000 0.000000 0.000000 -0.000001
    1 5708.000000 -598.500000 2458.000000 0.000000 0.000000 3.138210
    2 121.024001 191.512276 94.277657 0.017781 0.009809 -1.490595
  time 379
    0 0.000000 0.000000 0.000000 0.000000 0.000000 -0.000001
    1 5708.000000 -598.500000 2458.000000 0.000000 0.000000 3.138210
    2 122.317387 189.311752 93.858023 0.017589 0.009809 -1.491938
  time 380
    0 0.000000 0.000000 0.000000 0.000000 0.000000 -0.000001
    1 5708.000000 -598.500000 2458.000000 0.000000 0.000000 3.138210
    2 123.518388 187.311275 93.485016 0.017397 0.009767 -1.493184
  time 381
    0 0.000000 0.000000 0.000000 0.000000 0.000000 -0.000001
    1 5708.000000 -598.500000 2458.000000 0.000000 0.000000 3.138210
    2 124.534620 185.510847 93.127550 0.017301 0.009767 -1.494335
  time 382
    0 0.000000 0.000000 0.000000 0.000000 0.000000 -0.000001
    1 5708.000000 -598.500000 2458.000000 0.000000 0.000000 3.138210
    2 125.550852 183.843783 92.801168 0.017110 0.009725 -1.495389
  time 383
    0 0.000000 0.000000 0.000000 0.000000 0.000000 -0.000001
    1 5708.000000 -598.500000 2458.000000 0.000000 0.000000 3.138210
    2 126.382315 182.376767 92.521413 0.017014 0.009725 -1.496348
  time 384
    0 0.000000 0.000000 0.000000 0.000000 0.000000 -0.000001
    1 5708.000000 -598.500000 2458.000000 0.000000 0.000000 3.138210
    2 127.121393 181.109799 92.272741 0.016918 0.009725 -1.497115
  time 385
    0 0.000000 0.000000 0.000000 0.000000 0.000000 -0.000001
    1 5708.000000 -598.500000 2458.000000 0.000000 0.000000 3.138210
    2 127.768086 180.042878 92.070695 0.016822 0.009725 -1.497786
  time 386
    0 0.000000 0.000000 0.000000 0.000000 0.000000 -0.000001
    1 5708.000000 -598.500000 2458.000000 0.000000 0.000000 3.138210
    2 128.322394 179.176005 91.884192 0.016822 0.009682 -1.498361
  time 387
    0 0.000000 0.000000 0.000000 0.000000 0.000000 -0.000001
    1 5708.000000 -598.500000 2458.000000 0.000000 0.000000 3.138210
    2 128.691933 178.509179 91.759856 0.016726 0.009682 -1.498841
  time 388
    0 0.000000 0.000000 0.000000 0.000000 0.000000 -0.000001
    1 5708.000000 -598.500000 2458.000000 0.000000 0.000000 3.138210
    2 128.969088 177.975719 91.651062 0.016726 0.009682 -1.499128
  time 389
    0 0.000000 0.000000 0.000000 0.000000 0.000000 -0.000001
    1 5708.000000 -598.500000 2458.000000 0.000000 0.000000 3.138210
    2 129.153857 177.708989 91.588894 0.016630 0.009682 -1.499320
  time 390
    0 0.000000 0.000000 0.000000 0.000000 0.000000 -0.000001
    1 5708.000000 -598.500000 2458.000000 0.000000 0.000000 3.138210
    2 129.250000 177.625000 91.562500 0.016618 0.009701 -1.499468
end
