// Created by Crowbar 0.74
version 1
nodes
  0 "GhostAnim_reference" -1
  1 "Base" 0
  2 "Attachment_1" 0
end
skeleton
  time 0
    0 0.538086 0.243042 0.046295 0.000000 0.000000 -1.562070
    1 0.000000 0.000000 0.000000 1.570796 0.000000 0.000000
    2 304.038157 3.600858 40.719990 -0.011551 -0.031658 -3.029608
  time 1
    0 0.538086 0.243042 0.046295 0.000000 0.000000 -1.562070
    1 0.000000 0.000000 0.000000 1.570796 0.000000 0.000000
    2 304.038157 3.600858 40.782158 -0.011551 -0.031700 -3.029608
  time 2
    0 0.538086 0.243042 0.046295 0.000000 0.000000 -1.562070
    1 0.000000 0.000000 0.000000 1.570796 0.000000 0.000000
    2 303.945772 3.667540 40.844326 -0.011551 -0.031700 -3.029321
  time 3
    0 0.538086 0.243042 0.046295 0.000000 0.000000 -1.562070
    1 0.000000 0.000000 0.000000 1.570796 0.000000 0.000000
    2 303.945772 3.800905 40.906494 -0.011551 -0.031784 -3.028937
  time 4
    0 0.538086 0.243042 0.046295 0.000000 0.000000 -1.562070
    1 0.000000 0.000000 0.000000 1.570796 0.000000 0.000000
    2 303.853388 4.000953 40.984204 -0.011551 -0.031868 -3.028458
  time 5
    0 0.538086 0.243042 0.046295 0.000000 0.000000 -1.562070
    1 0.000000 0.000000 0.000000 1.570796 0.000000 0.000000
    2 303.668618 4.201000 41.046372 -0.011551 -0.031994 -3.027787
  time 6
    0 0.538086 0.243042 0.046295 0.000000 0.000000 -1.562070
    1 0.000000 0.000000 0.000000 1.570796 0.000000 0.000000
    2 303.576233 4.467731 41.108540 -0.011551 -0.032121 -3.026924
  time 7
    0 0.538086 0.243042 0.046295 0.000000 0.000000 -1.562070
    1 0.000000 0.000000 0.000000 1.570796 0.000000 0.000000
    2 303.391464 4.734461 41.170708 -0.011551 -0.032247 -3.025965
  time 8
    0 0.538086 0.243042 0.046295 0.000000 0.000000 -1.562070
    1 0.000000 0.000000 0.000000 1.570796 0.000000 0.000000
    2 303.206695 5.134556 41.232876 -0.011551 -0.032415 -3.024815
  time 9
    0 0.538086 0.243042 0.046295 0.000000 0.000000 -1.562070
    1 0.000000 0.000000 0.000000 1.570796 0.000000 0.000000
    2 303.021925 5.534651 41.295043 -0.011551 -0.032626 -3.023664
  time 10
    0 0.538086 0.243042 0.046295 0.000000 0.000000 -1.562070
    1 0.000000 0.000000 0.000000 1.570796 0.000000 0.000000
    2 302.837156 5.934747 41.357211 -0.011455 -0.032836 -3.022226
  time 11
    0 0.538086 0.243042 0.046295 0.000000 0.000000 -1.562070
    1 0.000000 0.000000 0.000000 1.570796 0.000000 0.000000
    2 302.560001 6.401525 41.419379 -0.011455 -0.033089 -3.020692
  time 12
    0 0.538086 0.243042 0.046295 0.000000 0.000000 -1.562070
    1 0.000000 0.000000 0.000000 1.570796 0.000000 0.000000
    2 302.282847 6.934985 41.497089 -0.011455 -0.033341 -3.019062
  time 13
    0 0.538086 0.243042 0.046295 0.000000 0.000000 -1.562070
    1 0.000000 0.000000 0.000000 1.570796 0.000000 0.000000
    2 302.005693 7.535128 41.559257 -0.011455 -0.033594 -3.017336
  time 14
    0 0.538086 0.243042 0.046295 0.000000 0.000000 -1.562070
    1 0.000000 0.000000 0.000000 1.570796 0.000000 0.000000
    2 301.728539 8.135271 41.621425 -0.011455 -0.033889 -3.015419
  time 15
    0 0.538086 0.243042 0.046295 0.000000 0.000000 -1.562070
    1 0.000000 0.000000 0.000000 1.570796 0.000000 0.000000
    2 301.359000 8.735414 41.683593 -0.011455 -0.034183 -3.013309
  time 16
    0 0.538086 0.243042 0.046295 0.000000 0.000000 -1.562070
    1 0.000000 0.000000 0.000000 1.570796 0.000000 0.000000
    2 301.081846 9.402239 41.745761 -0.011455 -0.034520 -3.011200
  time 17
    0 0.538086 0.243042 0.046295 0.000000 0.000000 -1.562070
    1 0.000000 0.000000 0.000000 1.570796 0.000000 0.000000
    2 300.712307 10.135747 41.807929 -0.011359 -0.034857 -3.008899
  time 18
    0 0.538086 0.243042 0.046295 0.000000 0.000000 -1.562070
    1 0.000000 0.000000 0.000000 1.570796 0.000000 0.000000
    2 300.342768 10.869255 41.870097 -0.011359 -0.035194 -3.006502
  time 19
    0 0.538086 0.243042 0.046295 0.000000 0.000000 -1.562070
    1 0.000000 0.000000 0.000000 1.570796 0.000000 0.000000
    2 299.880844 11.602763 41.932265 -0.011359 -0.035573 -3.004009
  time 20
    0 0.538086 0.243042 0.046295 0.000000 0.000000 -1.562070
    1 0.000000 0.000000 0.000000 1.570796 0.000000 0.000000
    2 299.511305 12.469636 41.994433 -0.011359 -0.035909 -3.001325
  time 21
    0 0.538086 0.243042 0.046295 0.000000 0.000000 -1.562070
    1 0.000000 0.000000 0.000000 1.570796 0.000000 0.000000
    2 299.049382 13.269827 42.056601 -0.011359 -0.036330 -2.998544
  time 22
    0 0.538086 0.243042 0.046295 0.000000 0.000000 -1.562070
    1 0.000000 0.000000 0.000000 1.570796 0.000000 0.000000
    2 298.587458 14.136700 42.118768 -0.011359 -0.036709 -2.995668
  time 23
    0 0.538086 0.243042 0.046295 0.000000 0.000000 -1.562070
    1 0.000000 0.000000 0.000000 1.570796 0.000000 0.000000
    2 298.125534 15.070256 42.165394 -0.011359 -0.037130 -2.992696
  time 24
    0 0.538086 0.243042 0.046295 0.000000 0.000000 -1.562070
    1 0.000000 0.000000 0.000000 1.570796 0.000000 0.000000
    2 297.571226 16.003811 42.227562 -0.011359 -0.037551 -2.989628
  time 25
    0 0.538086 0.243042 0.046295 0.000000 0.000000 -1.562070
    1 0.000000 0.000000 0.000000 1.570796 0.000000 0.000000
    2 297.109302 16.937367 42.289730 -0.011359 -0.037972 -2.986464
  time 26
    0 0.538086 0.243042 0.046295 0.000000 0.000000 -1.562070
    1 0.000000 0.000000 0.000000 1.570796 0.000000 0.000000
    2 296.554994 17.937605 42.351898 -0.011455 -0.038393 -2.983108
  time 27
    0 0.538086 0.243042 0.046295 0.000000 0.000000 -1.562070
    1 0.000000 0.000000 0.000000 1.570796 0.000000 0.000000
    2 296.000685 18.937843 42.414066 -0.011455 -0.038856 -2.979657
  time 28
    0 0.538086 0.243042 0.046295 0.000000 0.000000 -1.562070
    1 0.000000 0.000000 0.000000 1.570796 0.000000 0.000000
    2 295.446377 20.004764 42.476234 -0.011455 -0.039277 -2.976205
  time 29
    0 0.538086 0.243042 0.046295 0.000000 0.000000 -1.562070
    1 0.000000 0.000000 0.000000 1.570796 0.000000 0.000000
    2 294.892069 21.071685 42.538402 -0.011455 -0.039740 -2.972562
  time 30
    0 0.538086 0.243042 0.046295 0.000000 0.000000 -1.562070
    1 0.000000 0.000000 0.000000 1.570796 0.000000 0.000000
    2 294.337760 22.138606 42.600570 -0.011551 -0.040203 -2.968918
  time 31
    0 0.538086 0.243042 0.046295 0.000000 0.000000 -1.562070
    1 0.000000 0.000000 0.000000 1.570796 0.000000 0.000000
    2 293.691067 23.272209 42.662738 -0.011551 -0.040666 -2.965083
  time 32
    0 0.538086 0.243042 0.046295 0.000000 0.000000 -1.562070
    1 0.000000 0.000000 0.000000 1.570796 0.000000 0.000000
    2 293.044374 24.405812 42.724906 -0.011646 -0.041130 -2.961152
  time 33
    0 0.538086 0.243042 0.046295 0.000000 0.000000 -1.562070
    1 0.000000 0.000000 0.000000 1.570796 0.000000 0.000000
    2 292.397681 25.539416 42.787074 -0.011646 -0.041635 -2.957222
  time 34
    0 0.538086 0.243042 0.046295 0.000000 0.000000 -1.562070
    1 0.000000 0.000000 0.000000 1.570796 0.000000 0.000000
    2 291.750988 26.739701 42.849242 -0.011742 -0.042098 -2.953099
  time 35
    0 0.538086 0.243042 0.046295 0.000000 0.000000 -1.562070
    1 0.000000 0.000000 0.000000 1.570796 0.000000 0.000000
    2 291.104295 27.939987 42.911409 -0.011742 -0.042561 -2.948880
  time 36
    0 0.538086 0.243042 0.046295 0.000000 0.000000 -1.562070
    1 0.000000 0.000000 0.000000 1.570796 0.000000 0.000000
    2 290.457601 29.140273 42.973577 -0.011838 -0.043066 -2.944662
  time 37
    0 0.538086 0.243042 0.046295 0.000000 0.000000 -1.562070
    1 0.000000 0.000000 0.000000 1.570796 0.000000 0.000000
    2 289.718524 30.340559 43.035745 -0.011934 -0.043529 -2.940347
  time 38
    0 0.538086 0.243042 0.046295 0.000000 0.000000 -1.562070
    1 0.000000 0.000000 0.000000 1.570796 0.000000 0.000000
    2 289.071830 31.607527 43.097913 -0.012030 -0.043992 -2.935937
  time 39
    0 0.538086 0.243042 0.046295 0.000000 0.000000 -1.562070
    1 0.000000 0.000000 0.000000 1.570796 0.000000 0.000000
    2 288.332753 32.874496 43.160081 -0.012126 -0.044497 -2.931431
  time 40
    0 0.538086 0.243042 0.046295 0.000000 0.000000 -1.562070
    1 0.000000 0.000000 0.000000 1.570796 0.000000 0.000000
    2 287.593675 34.141464 43.222249 -0.012222 -0.044960 -2.926829
  time 41
    0 0.538086 0.243042 0.046295 0.000000 0.000000 -1.562070
    1 0.000000 0.000000 0.000000 1.570796 0.000000 0.000000
    2 286.854597 35.475115 43.284417 -0.012317 -0.045424 -2.922131
  time 42
    0 0.538086 0.243042 0.046295 0.000000 0.000000 -1.562070
    1 0.000000 0.000000 0.000000 1.570796 0.000000 0.000000
    2 286.115519 36.742084 43.346585 -0.012413 -0.045887 -2.917433
  time 43
    0 0.538086 0.243042 0.046295 0.000000 0.000000 -1.562070
    1 0.000000 0.000000 0.000000 1.570796 0.000000 0.000000
    2 285.284056 38.075735 43.408753 -0.012509 -0.046350 -2.912639
  time 44
    0 0.538086 0.243042 0.046295 0.000000 0.000000 -1.562070
    1 0.000000 0.000000 0.000000 1.570796 0.000000 0.000000
    2 284.544978 39.409385 43.470921 -0.012701 -0.046813 -2.907749
  time 45
    0 0.538086 0.243042 0.046295 0.000000 0.000000 -1.562070
    1 0.000000 0.000000 0.000000 1.570796 0.000000 0.000000
    2 283.713516 40.743036 43.533089 -0.012797 -0.047276 -2.902859
  time 46
    0 0.538086 0.243042 0.046295 0.000000 0.000000 -1.562070
    1 0.000000 0.000000 0.000000 1.570796 0.000000 0.000000
    2 282.974438 42.076687 43.595257 -0.012988 -0.047739 -2.897874
  time 47
    0 0.538086 0.243042 0.046295 0.000000 0.000000 -1.562070
    1 0.000000 0.000000 0.000000 1.570796 0.000000 0.000000
    2 282.142975 43.477021 43.657425 -0.013084 -0.048160 -2.892792
  time 48
    0 0.538086 0.243042 0.046295 0.000000 0.000000 -1.562070
    1 0.000000 0.000000 0.000000 1.570796 0.000000 0.000000
    2 281.311513 44.810672 43.719592 -0.013276 -0.048623 -2.887615
  time 49
    0 0.538086 0.243042 0.046295 0.000000 0.000000 -1.562070
    1 0.000000 0.000000 0.000000 1.570796 0.000000 0.000000
    2 280.480050 46.211005 43.781760 -0.013372 -0.049044 -2.882438
  time 50
    0 0.538086 0.243042 0.046295 0.000000 0.000000 -1.562070
    1 0.000000 0.000000 0.000000 1.570796 0.000000 0.000000
    2 279.648588 47.611339 43.843928 -0.013564 -0.049465 -2.877164
  time 51
    0 0.538086 0.243042 0.046295 0.000000 0.000000 -1.562070
    1 0.000000 0.000000 0.000000 1.570796 0.000000 0.000000
    2 278.817125 48.944990 43.921638 -0.013755 -0.049844 -2.871891
  time 52
    0 0.538086 0.243042 0.046295 0.000000 0.000000 -1.562070
    1 0.000000 0.000000 0.000000 1.570796 0.000000 0.000000
    2 277.985662 50.345323 43.983806 -0.013947 -0.050265 -2.866522
  time 53
    0 0.538086 0.243042 0.046295 0.000000 0.000000 -1.562070
    1 0.000000 0.000000 0.000000 1.570796 0.000000 0.000000
    2 277.061815 51.745657 44.045974 -0.014139 -0.050644 -2.861153
  time 54
    0 0.538086 0.243042 0.046295 0.000000 0.000000 -1.562070
    1 0.000000 0.000000 0.000000 1.570796 0.000000 0.000000
    2 276.230352 53.145990 44.108142 -0.014330 -0.051023 -2.855688
  time 55
    0 0.538086 0.243042 0.046295 0.000000 0.000000 -1.562070
    1 0.000000 0.000000 0.000000 1.570796 0.000000 0.000000
    2 275.306505 54.546324 44.170310 -0.014522 -0.051401 -2.850223
  time 56
    0 0.538086 0.243042 0.046295 0.000000 0.000000 -1.562070
    1 0.000000 0.000000 0.000000 1.570796 0.000000 0.000000
    2 274.475043 55.946657 44.248020 -0.014810 -0.051738 -2.844662
  time 57
    0 0.538086 0.243042 0.046295 0.000000 0.000000 -1.562070
    1 0.000000 0.000000 0.000000 1.570796 0.000000 0.000000
    2 273.551195 57.346991 44.310188 -0.015001 -0.052075 -2.839101
  time 58
    0 0.538086 0.243042 0.046295 0.000000 0.000000 -1.562070
    1 0.000000 0.000000 0.000000 1.570796 0.000000 0.000000
    2 272.627348 58.747324 44.372356 -0.015193 -0.052412 -2.833445
  time 59
    0 0.538086 0.243042 0.046295 0.000000 0.000000 -1.562070
    1 0.000000 0.000000 0.000000 1.570796 0.000000 0.000000
    2 271.703501 60.147658 44.450066 -0.015481 -0.052706 -2.827788
  time 60
    0 0.538086 0.243042 0.046295 0.000000 0.000000 -1.562070
    1 0.000000 0.000000 0.000000 1.570796 0.000000 0.000000
    2 270.872038 61.547991 44.512234 -0.015672 -0.053001 -2.822035
  time 61
    0 0.538086 0.243042 0.046295 0.000000 0.000000 -1.562070
    1 0.000000 0.000000 0.000000 1.570796 0.000000 0.000000
    2 269.948191 62.881642 44.574401 -0.015960 -0.053254 -2.816283
  time 62
    0 0.538086 0.243042 0.046295 0.000000 0.000000 -1.562070
    1 0.000000 0.000000 0.000000 1.570796 0.000000 0.000000
    2 269.024343 64.281976 44.652111 -0.016247 -0.053506 -2.810434
  time 63
    0 0.538086 0.243042 0.046295 0.000000 0.000000 -1.562070
    1 0.000000 0.000000 0.000000 1.570796 0.000000 0.000000
    2 268.100496 65.682309 44.714279 -0.016439 -0.053759 -2.804586
  time 64
    0 0.538086 0.243042 0.046295 0.000000 0.000000 -1.562070
    1 0.000000 0.000000 0.000000 1.570796 0.000000 0.000000
    2 267.084264 67.015960 44.791989 -0.016727 -0.054011 -2.798641
  time 65
    0 0.538086 0.243042 0.046295 0.000000 0.000000 -1.562070
    1 0.000000 0.000000 0.000000 1.570796 0.000000 0.000000
    2 266.160417 68.416294 44.854157 -0.017014 -0.054180 -2.792697
  time 66
    0 0.538086 0.243042 0.046295 0.000000 0.000000 -1.562070
    1 0.000000 0.000000 0.000000 1.570796 0.000000 0.000000
    2 265.236569 69.749945 44.931867 -0.017302 -0.054390 -2.786753
  time 67
    0 0.538086 0.243042 0.046295 0.000000 0.000000 -1.562070
    1 0.000000 0.000000 0.000000 1.570796 0.000000 0.000000
    2 264.312722 71.083595 44.994035 -0.017589 -0.054559 -2.780712
  time 68
    0 0.538086 0.243042 0.046295 0.000000 0.000000 -1.562070
    1 0.000000 0.000000 0.000000 1.570796 0.000000 0.000000
    2 263.296490 72.417246 45.071745 -0.017877 -0.054685 -2.774576
  time 69
    0 0.538086 0.243042 0.046295 0.000000 0.000000 -1.562070
    1 0.000000 0.000000 0.000000 1.570796 0.000000 0.000000
    2 262.372642 73.750897 45.149455 -0.018164 -0.054811 -2.768536
  time 70
    0 0.538086 0.243042 0.046295 0.000000 0.000000 -1.562070
    1 0.000000 0.000000 0.000000 1.570796 0.000000 0.000000
    2 261.448795 75.084548 45.211623 -0.018452 -0.054938 -2.762304
  time 71
    0 0.538086 0.243042 0.046295 0.000000 0.000000 -1.562070
    1 0.000000 0.000000 0.000000 1.570796 0.000000 0.000000
    2 260.432563 76.351517 45.289333 -0.018740 -0.055022 -2.756168
  time 72
    0 0.538086 0.243042 0.046295 0.000000 0.000000 -1.562070
    1 0.000000 0.000000 0.000000 1.570796 0.000000 0.000000
    2 259.508716 77.618485 45.367042 -0.019027 -0.055064 -2.749936
  time 73
    0 0.538086 0.243042 0.046295 0.000000 0.000000 -1.562070
    1 0.000000 0.000000 0.000000 1.570796 0.000000 0.000000
    2 258.584868 78.885453 45.429210 -0.019315 -0.055106 -2.743608
  time 74
    0 0.538086 0.243042 0.046295 0.000000 0.000000 -1.562070
    1 0.000000 0.000000 0.000000 1.570796 0.000000 0.000000
    2 257.568636 80.152422 45.506920 -0.019698 -0.055148 -2.737280
  time 75
    0 0.538086 0.243042 0.046295 0.000000 0.000000 -1.562070
    1 0.000000 0.000000 0.000000 1.570796 0.000000 0.000000
    2 256.644789 81.419390 45.584630 -0.019986 -0.055106 -2.730952
  time 76
    0 0.538086 0.243042 0.046295 0.000000 0.000000 -1.562070
    1 0.000000 0.000000 0.000000 1.570796 0.000000 0.000000
    2 255.628557 82.619676 45.662340 -0.020273 -0.055106 -2.724529
  time 77
    0 0.538086 0.243042 0.046295 0.000000 0.000000 -1.562070
    1 0.000000 0.000000 0.000000 1.570796 0.000000 0.000000
    2 254.704710 83.819962 45.740050 -0.020561 -0.055022 -2.718105
  time 78
    0 0.538086 0.243042 0.046295 0.000000 0.000000 -1.562070
    1 0.000000 0.000000 0.000000 1.570796 0.000000 0.000000
    2 253.688478 84.953565 45.817760 -0.020848 -0.054938 -2.711681
  time 79
    0 0.538086 0.243042 0.046295 0.000000 0.000000 -1.562070
    1 0.000000 0.000000 0.000000 1.570796 0.000000 0.000000
    2 252.764630 86.153851 45.895470 -0.021232 -0.054853 -2.705162
  time 80
    0 0.538086 0.243042 0.046295 0.000000 0.000000 -1.562070
    1 0.000000 0.000000 0.000000 1.570796 0.000000 0.000000
    2 251.748398 87.287454 45.973180 -0.021519 -0.054727 -2.698546
  time 81
    0 0.538086 0.243042 0.046295 0.000000 0.000000 -1.562070
    1 0.000000 0.000000 0.000000 1.570796 0.000000 0.000000
    2 250.824551 88.421058 46.050890 -0.021807 -0.054559 -2.692027
  time 82
    0 0.538086 0.243042 0.046295 0.000000 0.000000 -1.562070
    1 0.000000 0.000000 0.000000 1.570796 0.000000 0.000000
    2 249.808319 89.487979 46.128600 -0.022094 -0.054390 -2.685411
  time 83
    0 0.538086 0.243042 0.046295 0.000000 0.000000 -1.562070
    1 0.000000 0.000000 0.000000 1.570796 0.000000 0.000000
    2 248.884471 90.554899 46.221851 -0.022478 -0.054180 -2.678700
  time 84
    0 0.538086 0.243042 0.046295 0.000000 0.000000 -1.562070
    1 0.000000 0.000000 0.000000 1.570796 0.000000 0.000000
    2 247.868239 91.621820 46.299561 -0.022765 -0.053927 -2.672084
  time 85
    0 0.538086 0.243042 0.046295 0.000000 0.000000 -1.562070
    1 0.000000 0.000000 0.000000 1.570796 0.000000 0.000000
    2 246.944392 92.622058 46.377271 -0.023053 -0.053675 -2.665373
  time 86
    0 0.538086 0.243042 0.046295 0.000000 0.000000 -1.562070
    1 0.000000 0.000000 0.000000 1.570796 0.000000 0.000000
    2 245.928160 93.622296 46.470523 -0.023341 -0.053380 -2.658566
  time 87
    0 0.538086 0.243042 0.046295 0.000000 0.000000 -1.562070
    1 0.000000 0.000000 0.000000 1.570796 0.000000 0.000000
    2 245.004313 94.622535 46.548233 -0.023628 -0.053085 -2.651854
  time 88
    0 0.538086 0.243042 0.046295 0.000000 0.000000 -1.562070
    1 0.000000 0.000000 0.000000 1.570796 0.000000 0.000000
    2 243.988081 95.622773 46.641485 -0.023916 -0.052749 -2.645047
  time 89
    0 0.538086 0.243042 0.046295 0.000000 0.000000 -1.562070
    1 0.000000 0.000000 0.000000 1.570796 0.000000 0.000000
    2 242.971848 96.623011 46.719195 -0.024203 -0.052412 -2.638144
  time 90
    0 0.538086 0.243042 0.046295 0.000000 0.000000 -1.562070
    1 0.000000 0.000000 0.000000 1.570796 0.000000 0.000000
    2 241.955616 97.623249 46.812447 -0.024491 -0.052075 -2.631337
  time 91
    0 0.538086 0.243042 0.046295 0.000000 0.000000 -1.562070
    1 0.000000 0.000000 0.000000 1.570796 0.000000 0.000000
    2 240.847000 98.623488 46.905699 -0.024778 -0.051696 -2.624433
  time 92
    0 0.538086 0.243042 0.046295 0.000000 0.000000 -1.562070
    1 0.000000 0.000000 0.000000 1.570796 0.000000 0.000000
    2 239.830768 99.623726 46.998950 -0.024970 -0.051317 -2.617434
  time 93
    0 0.538086 0.243042 0.046295 0.000000 0.000000 -1.562070
    1 0.000000 0.000000 0.000000 1.570796 0.000000 0.000000
    2 238.722151 100.557281 47.092202 -0.025258 -0.050896 -2.610531
  time 94
    0 0.538086 0.243042 0.046295 0.000000 0.000000 -1.562070
    1 0.000000 0.000000 0.000000 1.570796 0.000000 0.000000
    2 237.613534 101.557520 47.185454 -0.025545 -0.050475 -2.603532
  time 95
    0 0.538086 0.243042 0.046295 0.000000 0.000000 -1.562070
    1 0.000000 0.000000 0.000000 1.570796 0.000000 0.000000
    2 236.597302 102.557758 47.278706 -0.025737 -0.050054 -2.596533
  time 96
    0 0.538086 0.243042 0.046295 0.000000 0.000000 -1.562070
    1 0.000000 0.000000 0.000000 1.570796 0.000000 0.000000
    2 235.488685 103.557996 47.371958 -0.026024 -0.049633 -2.589438
  time 97
    0 0.538086 0.243042 0.046295 0.000000 0.000000 -1.562070
    1 0.000000 0.000000 0.000000 1.570796 0.000000 0.000000
    2 234.287684 104.491552 47.465210 -0.026216 -0.049170 -2.582344
  time 98
    0 0.538086 0.243042 0.046295 0.000000 0.000000 -1.562070
    1 0.000000 0.000000 0.000000 1.570796 0.000000 0.000000
    2 233.179067 105.491790 47.558462 -0.026408 -0.048665 -2.575249
  time 99
    0 0.538086 0.243042 0.046295 0.000000 0.000000 -1.562070
    1 0.000000 0.000000 0.000000 1.570796 0.000000 0.000000
    2 232.070450 106.425346 47.667256 -0.026600 -0.048202 -2.568154
  time 100
    0 0.538086 0.243042 0.046295 0.000000 0.000000 -1.562070
    1 0.000000 0.000000 0.000000 1.570796 0.000000 0.000000
    2 230.869448 107.425584 47.760508 -0.026887 -0.047697 -2.560963
  time 101
    0 0.538086 0.243042 0.046295 0.000000 0.000000 -1.562070
    1 0.000000 0.000000 0.000000 1.570796 0.000000 0.000000
    2 229.668447 108.359139 47.869301 -0.027079 -0.047192 -2.553772
  time 102
    0 0.538086 0.243042 0.046295 0.000000 0.000000 -1.562070
    1 0.000000 0.000000 0.000000 1.570796 0.000000 0.000000
    2 228.467445 109.359378 47.962553 -0.027271 -0.046686 -2.546582
  time 103
    0 0.538086 0.243042 0.046295 0.000000 0.000000 -1.562070
    1 0.000000 0.000000 0.000000 1.570796 0.000000 0.000000
    2 227.266444 110.292933 48.071347 -0.027366 -0.046139 -2.539391
  time 104
    0 0.538086 0.243042 0.046295 0.000000 0.000000 -1.562070
    1 0.000000 0.000000 0.000000 1.570796 0.000000 0.000000
    2 226.065442 111.226489 48.164599 -0.027558 -0.045592 -2.532104
  time 105
    0 0.538086 0.243042 0.046295 0.000000 0.000000 -1.562070
    1 0.000000 0.000000 0.000000 1.570796 0.000000 0.000000
    2 224.864441 112.226727 48.273393 -0.027750 -0.045045 -2.524818
  time 106
    0 0.538086 0.243042 0.046295 0.000000 0.000000 -1.562070
    1 0.000000 0.000000 0.000000 1.570796 0.000000 0.000000
    2 223.663439 113.160283 48.382187 -0.027846 -0.044497 -2.517531
  time 107
    0 0.538086 0.243042 0.046295 0.000000 0.000000 -1.562070
    1 0.000000 0.000000 0.000000 1.570796 0.000000 0.000000
    2 222.370053 114.093838 48.475439 -0.028037 -0.043908 -2.510148
  time 108
    0 0.538086 0.243042 0.046295 0.000000 0.000000 -1.562070
    1 0.000000 0.000000 0.000000 1.570796 0.000000 0.000000
    2 221.169051 115.027394 48.584233 -0.028133 -0.043319 -2.502862
  time 109
    0 0.538086 0.243042 0.046295 0.000000 0.000000 -1.562070
    1 0.000000 0.000000 0.000000 1.570796 0.000000 0.000000
    2 219.875665 115.960950 48.693026 -0.028325 -0.042729 -2.495479
  time 110
    0 0.538086 0.243042 0.046295 0.000000 0.000000 -1.562070
    1 0.000000 0.000000 0.000000 1.570796 0.000000 0.000000
    2 218.582279 116.894505 48.801820 -0.028421 -0.042140 -2.488001
  time 111
    0 0.538086 0.243042 0.046295 0.000000 0.000000 -1.562070
    1 0.000000 0.000000 0.000000 1.570796 0.000000 0.000000
    2 217.381277 117.828061 48.910614 -0.028517 -0.041508 -2.480618
  time 112
    0 0.538086 0.243042 0.046295 0.000000 0.000000 -1.562070
    1 0.000000 0.000000 0.000000 1.570796 0.000000 0.000000
    2 216.087891 118.761617 49.019408 -0.028612 -0.040919 -2.473236
  time 113
    0 0.538086 0.243042 0.046295 0.000000 0.000000 -1.562070
    1 0.000000 0.000000 0.000000 1.570796 0.000000 0.000000
    2 214.794505 119.695172 49.112660 -0.028708 -0.040288 -2.465757
  time 114
    0 0.538086 0.243042 0.046295 0.000000 0.000000 -1.562070
    1 0.000000 0.000000 0.000000 1.570796 0.000000 0.000000
    2 213.501119 120.562046 49.221454 -0.028708 -0.039656 -2.458279
  time 115
    0 0.538086 0.243042 0.046295 0.000000 0.000000 -1.562070
    1 0.000000 0.000000 0.000000 1.570796 0.000000 0.000000
    2 212.115348 121.495601 49.330248 -0.028804 -0.039025 -2.450801
  time 116
    0 0.538086 0.243042 0.046295 0.000000 0.000000 -1.562070
    1 0.000000 0.000000 0.000000 1.570796 0.000000 0.000000
    2 210.821961 122.429157 49.439041 -0.028900 -0.038351 -2.443226
  time 117
    0 0.538086 0.243042 0.046295 0.000000 0.000000 -1.562070
    1 0.000000 0.000000 0.000000 1.570796 0.000000 0.000000
    2 209.528575 123.296030 49.547835 -0.028900 -0.037720 -2.435748
  time 118
    0 0.538086 0.243042 0.046295 0.000000 0.000000 -1.562070
    1 0.000000 0.000000 0.000000 1.570796 0.000000 0.000000
    2 208.142804 124.229586 49.656629 -0.028900 -0.037046 -2.428174
  time 119
    0 0.538086 0.243042 0.046295 0.000000 0.000000 -1.562070
    1 0.000000 0.000000 0.000000 1.570796 0.000000 0.000000
    2 206.849418 125.096459 49.765423 -0.028996 -0.036415 -2.420600
  time 120
    0 0.538086 0.243042 0.046295 0.000000 0.000000 -1.562070
    1 0.000000 0.000000 0.000000 1.570796 0.000000 0.000000
    2 205.463647 125.963332 49.889759 -0.028996 -0.035741 -2.413025
  time 121
    0 0.538086 0.243042 0.046295 0.000000 0.000000 -1.562070
    1 0.000000 0.000000 0.000000 1.570796 0.000000 0.000000
    2 204.170261 126.896888 49.998553 -0.028996 -0.035067 -2.405355
  time 122
    0 0.538086 0.243042 0.046295 0.000000 0.000000 -1.562070
    1 0.000000 0.000000 0.000000 1.570796 0.000000 0.000000
    2 202.784490 127.763761 50.107347 -0.028996 -0.034394 -2.397781
  time 123
    0 0.538086 0.243042 0.046295 0.000000 0.000000 -1.562070
    1 0.000000 0.000000 0.000000 1.570796 0.000000 0.000000
    2 201.398719 128.630634 50.216141 -0.028900 -0.033720 -2.390111
  time 124
    0 0.538086 0.243042 0.046295 0.000000 0.000000 -1.562070
    1 0.000000 0.000000 0.000000 1.570796 0.000000 0.000000
    2 200.105332 129.497507 50.324934 -0.028900 -0.033047 -2.382441
  time 125
    0 0.538086 0.243042 0.046295 0.000000 0.000000 -1.562070
    1 0.000000 0.000000 0.000000 1.570796 0.000000 0.000000
    2 198.719561 130.364380 50.433728 -0.028900 -0.032331 -2.374770
  time 126
    0 0.538086 0.243042 0.046295 0.000000 0.000000 -1.562070
    1 0.000000 0.000000 0.000000 1.570796 0.000000 0.000000
    2 197.333790 131.231253 50.542522 -0.028804 -0.031658 -2.367100
  time 127
    0 0.538086 0.243042 0.046295 0.000000 0.000000 -1.562070
    1 0.000000 0.000000 0.000000 1.570796 0.000000 0.000000
    2 195.948019 132.098126 50.651316 -0.028708 -0.030984 -2.359430
  time 128
    0 0.538086 0.243042 0.046295 0.000000 0.000000 -1.562070
    1 0.000000 0.000000 0.000000 1.570796 0.000000 0.000000
    2 194.562248 132.898317 50.760110 -0.028708 -0.030310 -2.351664
  time 129
    0 0.538086 0.243042 0.046295 0.000000 0.000000 -1.562070
    1 0.000000 0.000000 0.000000 1.570796 0.000000 0.000000
    2 193.176477 133.765190 50.868904 -0.028612 -0.029595 -2.343994
  time 130
    0 0.538086 0.243042 0.046295 0.000000 0.000000 -1.562070
    1 0.000000 0.000000 0.000000 1.570796 0.000000 0.000000
    2 191.790706 134.632063 50.977698 -0.028517 -0.028921 -2.336228
  time 131
    0 0.538086 0.243042 0.046295 0.000000 0.000000 -1.562070
    1 0.000000 0.000000 0.000000 1.570796 0.000000 0.000000
    2 190.404935 135.432254 51.086491 -0.028421 -0.028248 -2.328462
  time 132
    0 0.538086 0.243042 0.046295 0.000000 0.000000 -1.562070
    1 0.000000 0.000000 0.000000 1.570796 0.000000 0.000000
    2 189.019164 136.232444 51.195285 -0.028229 -0.027532 -2.320696
  time 133
    0 0.538086 0.243042 0.046295 0.000000 0.000000 -1.562070
    1 0.000000 0.000000 0.000000 1.570796 0.000000 0.000000
    2 187.541009 137.099317 51.304079 -0.028133 -0.026858 -2.312930
  time 134
    0 0.538086 0.243042 0.046295 0.000000 0.000000 -1.562070
    1 0.000000 0.000000 0.000000 1.570796 0.000000 0.000000
    2 186.155238 137.899508 51.412873 -0.028037 -0.026185 -2.305164
  time 135
    0 0.538086 0.243042 0.046295 0.000000 0.000000 -1.562070
    1 0.000000 0.000000 0.000000 1.570796 0.000000 0.000000
    2 184.769467 138.699698 51.521667 -0.027846 -0.025469 -2.297398
  time 136
    0 0.538086 0.243042 0.046295 0.000000 0.000000 -1.562070
    1 0.000000 0.000000 0.000000 1.570796 0.000000 0.000000
    2 183.383696 139.499889 51.630461 -0.027654 -0.024796 -2.289536
  time 137
    0 0.538086 0.243042 0.046295 0.000000 0.000000 -1.562070
    1 0.000000 0.000000 0.000000 1.570796 0.000000 0.000000
    2 181.905540 140.300080 51.739255 -0.027462 -0.024122 -2.281770
  time 138
    0 0.538086 0.243042 0.046295 0.000000 0.000000 -1.562070
    1 0.000000 0.000000 0.000000 1.570796 0.000000 0.000000
    2 180.519769 141.100270 51.848049 -0.027366 -0.023448 -2.273908
  time 139
    0 0.538086 0.243042 0.046295 0.000000 0.000000 -1.562070
    1 0.000000 0.000000 0.000000 1.570796 0.000000 0.000000
    2 179.133998 141.900461 51.956842 -0.027175 -0.022775 -2.266142
  time 140
    0 0.538086 0.243042 0.046295 0.000000 0.000000 -1.562070
    1 0.000000 0.000000 0.000000 1.570796 0.000000 0.000000
    2 177.748227 142.700651 52.050094 -0.026887 -0.022101 -2.258280
  time 141
    0 0.538086 0.243042 0.046295 0.000000 0.000000 -1.562070
    1 0.000000 0.000000 0.000000 1.570796 0.000000 0.000000
    2 176.270071 143.434159 52.158888 -0.026695 -0.021428 -2.250418
  time 142
    0 0.538086 0.243042 0.046295 0.000000 0.000000 -1.562070
    1 0.000000 0.000000 0.000000 1.570796 0.000000 0.000000
    2 174.884300 144.234350 52.267682 -0.026504 -0.020754 -2.242556
  time 143
    0 0.538086 0.243042 0.046295 0.000000 0.000000 -1.562070
    1 0.000000 0.000000 0.000000 1.570796 0.000000 0.000000
    2 173.498529 144.967858 52.360934 -0.026312 -0.020123 -2.234695
  time 144
    0 0.538086 0.243042 0.046295 0.000000 0.000000 -1.562070
    1 0.000000 0.000000 0.000000 1.570796 0.000000 0.000000
    2 172.020373 145.701366 52.469728 -0.026024 -0.019449 -2.226833
  time 145
    0 0.538086 0.243042 0.046295 0.000000 0.000000 -1.562070
    1 0.000000 0.000000 0.000000 1.570796 0.000000 0.000000
    2 170.634602 146.434874 52.578522 -0.025737 -0.018818 -2.218971
  time 146
    0 0.538086 0.243042 0.046295 0.000000 0.000000 -1.562070
    1 0.000000 0.000000 0.000000 1.570796 0.000000 0.000000
    2 169.248831 147.235065 52.671774 -0.025545 -0.018144 -2.211013
  time 147
    0 0.538086 0.243042 0.046295 0.000000 0.000000 -1.562070
    1 0.000000 0.000000 0.000000 1.570796 0.000000 0.000000
    2 167.863060 147.968573 52.780567 -0.025258 -0.017513 -2.203151
  time 148
    0 0.538086 0.243042 0.046295 0.000000 0.000000 -1.562070
    1 0.000000 0.000000 0.000000 1.570796 0.000000 0.000000
    2 166.384905 148.702081 52.873819 -0.024970 -0.016881 -2.195289
  time 149
    0 0.538086 0.243042 0.046295 0.000000 0.000000 -1.562070
    1 0.000000 0.000000 0.000000 1.570796 0.000000 0.000000
    2 164.999134 149.368906 52.967071 -0.024682 -0.016250 -2.187331
  time 150
    0 0.538086 0.243042 0.046295 0.000000 0.000000 -1.562070
    1 0.000000 0.000000 0.000000 1.570796 0.000000 0.000000
    2 163.613363 150.102414 53.075865 -0.024395 -0.015660 -2.179470
  time 151
    0 0.538086 0.243042 0.046295 0.000000 0.000000 -1.562070
    1 0.000000 0.000000 0.000000 1.570796 0.000000 0.000000
    2 162.227592 150.835922 53.169117 -0.024107 -0.015029 -2.171608
  time 152
    0 0.538086 0.243042 0.046295 0.000000 0.000000 -1.562070
    1 0.000000 0.000000 0.000000 1.570796 0.000000 0.000000
    2 160.841821 151.502748 53.262369 -0.023820 -0.014440 -2.163650
  time 153
    0 0.538086 0.243042 0.046295 0.000000 0.000000 -1.562070
    1 0.000000 0.000000 0.000000 1.570796 0.000000 0.000000
    2 159.456050 152.169573 53.355621 -0.023436 -0.013850 -2.155788
  time 154
    0 0.538086 0.243042 0.046295 0.000000 0.000000 -1.562070
    1 0.000000 0.000000 0.000000 1.570796 0.000000 0.000000
    2 158.070279 152.903081 53.448873 -0.023149 -0.013261 -2.147830
  time 155
    0 0.538086 0.243042 0.046295 0.000000 0.000000 -1.562070
    1 0.000000 0.000000 0.000000 1.570796 0.000000 0.000000
    2 156.592123 153.569907 53.542124 -0.022765 -0.012671 -2.139968
  time 156
    0 0.538086 0.243042 0.046295 0.000000 0.000000 -1.562070
    1 0.000000 0.000000 0.000000 1.570796 0.000000 0.000000
    2 155.206352 154.236732 53.635376 -0.022478 -0.012082 -2.132011
  time 157
    0 0.538086 0.243042 0.046295 0.000000 0.000000 -1.562070
    1 0.000000 0.000000 0.000000 1.570796 0.000000 0.000000
    2 153.912966 154.903557 53.728628 -0.022094 -0.011535 -2.124149
  time 158
    0 0.538086 0.243042 0.046295 0.000000 0.000000 -1.562070
    1 0.000000 0.000000 0.000000 1.570796 0.000000 0.000000
    2 152.527195 155.570383 53.821880 -0.021711 -0.010988 -2.116191
  time 159
    0 0.538086 0.243042 0.046295 0.000000 0.000000 -1.562070
    1 0.000000 0.000000 0.000000 1.570796 0.000000 0.000000
    2 151.141424 156.170526 53.899590 -0.021423 -0.010440 -2.108329
  time 160
    0 0.538086 0.243042 0.046295 0.000000 0.000000 -1.562070
    1 0.000000 0.000000 0.000000 1.570796 0.000000 0.000000
    2 149.755653 156.837351 53.992842 -0.021040 -0.009893 -2.100371
  time 161
    0 0.538086 0.243042 0.046295 0.000000 0.000000 -1.562070
    1 0.000000 0.000000 0.000000 1.570796 0.000000 0.000000
    2 148.369882 157.437494 54.086094 -0.020657 -0.009388 -2.092414
  time 162
    0 0.538086 0.243042 0.046295 0.000000 0.000000 -1.562070
    1 0.000000 0.000000 0.000000 1.570796 0.000000 0.000000
    2 146.984111 158.104320 54.163804 -0.020273 -0.008841 -2.084552
  time 163
    0 0.538086 0.243042 0.046295 0.000000 0.000000 -1.562070
    1 0.000000 0.000000 0.000000 1.570796 0.000000 0.000000
    2 145.690724 158.704463 54.241514 -0.019890 -0.008335 -2.076402
  time 164
    0 0.538086 0.243042 0.046295 0.000000 0.000000 -1.562070
    1 0.000000 0.000000 0.000000 1.570796 0.000000 0.000000
    2 144.304953 159.304606 54.334765 -0.019506 -0.007788 -2.068253
  time 165
    0 0.538086 0.243042 0.046295 0.000000 0.000000 -1.562070
    1 0.000000 0.000000 0.000000 1.570796 0.000000 0.000000
    2 143.011567 159.904748 54.412475 -0.019123 -0.007283 -2.059911
  time 166
    0 0.538086 0.243042 0.046295 0.000000 0.000000 -1.562070
    1 0.000000 0.000000 0.000000 1.570796 0.000000 0.000000
    2 141.625796 160.438209 54.505727 -0.018644 -0.006778 -2.051570
  time 167
    0 0.538086 0.243042 0.046295 0.000000 0.000000 -1.562070
    1 0.000000 0.000000 0.000000 1.570796 0.000000 0.000000
    2 140.332410 161.038352 54.583437 -0.018260 -0.006230 -2.043037
  time 168
    0 0.538086 0.243042 0.046295 0.000000 0.000000 -1.562070
    1 0.000000 0.000000 0.000000 1.570796 0.000000 0.000000
    2 138.946639 161.571812 54.661147 -0.017877 -0.005725 -2.034408
  time 169
    0 0.538086 0.243042 0.046295 0.000000 0.000000 -1.562070
    1 0.000000 0.000000 0.000000 1.570796 0.000000 0.000000
    2 137.653253 162.105273 54.754399 -0.017493 -0.005262 -2.025779
  time 170
    0 0.538086 0.243042 0.046295 0.000000 0.000000 -1.562070
    1 0.000000 0.000000 0.000000 1.570796 0.000000 0.000000
    2 136.267482 162.638733 54.832109 -0.017014 -0.004757 -2.016959
  time 171
    0 0.538086 0.243042 0.046295 0.000000 0.000000 -1.562070
    1 0.000000 0.000000 0.000000 1.570796 0.000000 0.000000
    2 134.974095 163.172193 54.925361 -0.016631 -0.004294 -2.008138
  time 172
    0 0.538086 0.243042 0.046295 0.000000 0.000000 -1.562070
    1 0.000000 0.000000 0.000000 1.570796 0.000000 0.000000
    2 133.588324 163.705654 55.003071 -0.016152 -0.003831 -1.999125
  time 173
    0 0.538086 0.243042 0.046295 0.000000 0.000000 -1.562070
    1 0.000000 0.000000 0.000000 1.570796 0.000000 0.000000
    2 132.294938 164.172432 55.080781 -0.015768 -0.003368 -1.990017
  time 174
    0 0.538086 0.243042 0.046295 0.000000 0.000000 -1.562070
    1 0.000000 0.000000 0.000000 1.570796 0.000000 0.000000
    2 130.909167 164.639209 55.174032 -0.015385 -0.002947 -1.981005
  time 175
    0 0.538086 0.243042 0.046295 0.000000 0.000000 -1.562070
    1 0.000000 0.000000 0.000000 1.570796 0.000000 0.000000
    2 129.615781 165.105987 55.251742 -0.014905 -0.002526 -1.971801
  time 176
    0 0.538086 0.243042 0.046295 0.000000 0.000000 -1.562070
    1 0.000000 0.000000 0.000000 1.570796 0.000000 0.000000
    2 128.230010 165.572765 55.329452 -0.014522 -0.002105 -1.962501
  time 177
    0 0.538086 0.243042 0.046295 0.000000 0.000000 -1.562070
    1 0.000000 0.000000 0.000000 1.570796 0.000000 0.000000
    2 126.936623 166.039543 55.422704 -0.014043 -0.001726 -1.953105
  time 178
    0 0.538086 0.243042 0.046295 0.000000 0.000000 -1.562070
    1 0.000000 0.000000 0.000000 1.570796 0.000000 0.000000
    2 125.550852 166.506321 55.500414 -0.013659 -0.001347 -1.943709
  time 179
    0 0.538086 0.243042 0.046295 0.000000 0.000000 -1.562070
    1 0.000000 0.000000 0.000000 1.570796 0.000000 0.000000
    2 124.257466 166.906416 55.578124 -0.013180 -0.001010 -1.934217
  time 180
    0 0.538086 0.243042 0.046295 0.000000 0.000000 -1.562070
    1 0.000000 0.000000 0.000000 1.570796 0.000000 0.000000
    2 122.871695 167.373194 55.671376 -0.012797 -0.000674 -1.924725
  time 181
    0 0.538086 0.243042 0.046295 0.000000 0.000000 -1.562070
    1 0.000000 0.000000 0.000000 1.570796 0.000000 0.000000
    2 121.578309 167.773289 55.749086 -0.012317 -0.000337 -1.915137
  time 182
    0 0.538086 0.243042 0.046295 0.000000 0.000000 -1.562070
    1 0.000000 0.000000 0.000000 1.570796 0.000000 0.000000
    2 120.192538 168.173384 55.826796 -0.011934 -0.000084 -1.905454
  time 183
    0 0.538086 0.243042 0.046295 0.000000 0.000000 -1.562070
    1 0.000000 0.000000 0.000000 1.570796 0.000000 0.000000
    2 118.806767 168.573480 55.904506 -0.011551 0.000168 -1.895770
  time 184
    0 0.538086 0.243042 0.046295 0.000000 0.000000 -1.562070
    1 0.000000 0.000000 0.000000 1.570796 0.000000 0.000000
    2 117.513381 168.906892 55.997757 -0.011071 0.000379 -1.885991
  time 185
    0 0.538086 0.243042 0.046295 0.000000 0.000000 -1.562070
    1 0.000000 0.000000 0.000000 1.570796 0.000000 0.000000
    2 116.127610 169.306988 56.075467 -0.010688 0.000631 -1.876116
  time 186
    0 0.538086 0.243042 0.046295 0.000000 0.000000 -1.562070
    1 0.000000 0.000000 0.000000 1.570796 0.000000 0.000000
    2 114.741839 169.640400 56.153177 -0.010305 0.000800 -1.866336
  time 187
    0 0.538086 0.243042 0.046295 0.000000 0.000000 -1.562070
    1 0.000000 0.000000 0.000000 1.570796 0.000000 0.000000
    2 113.356068 169.973813 56.230887 -0.009921 0.000968 -1.856461
  time 188
    0 0.538086 0.243042 0.046295 0.000000 0.000000 -1.562070
    1 0.000000 0.000000 0.000000 1.570796 0.000000 0.000000
    2 111.970297 170.307226 56.324139 -0.009538 0.001137 -1.846490
  time 189
    0 0.538086 0.243042 0.046295 0.000000 0.000000 -1.562070
    1 0.000000 0.000000 0.000000 1.570796 0.000000 0.000000
    2 110.584526 170.640639 56.401849 -0.009154 0.001263 -1.836614
  time 190
    0 0.538086 0.243042 0.046295 0.000000 0.000000 -1.562070
    1 0.000000 0.000000 0.000000 1.570796 0.000000 0.000000
    2 109.198755 170.974051 56.479559 -0.008771 0.001389 -1.826547
  time 191
    0 0.538086 0.243042 0.046295 0.000000 0.000000 -1.562070
    1 0.000000 0.000000 0.000000 1.570796 0.000000 0.000000
    2 107.812984 171.307464 56.557269 -0.008387 0.001473 -1.816576
  time 192
    0 0.538086 0.243042 0.046295 0.000000 0.000000 -1.562070
    1 0.000000 0.000000 0.000000 1.570796 0.000000 0.000000
    2 106.427213 171.574194 56.634979 -0.008100 0.001516 -1.806509
  time 193
    0 0.538086 0.243042 0.046295 0.000000 0.000000 -1.562070
    1 0.000000 0.000000 0.000000 1.570796 0.000000 0.000000
    2 105.041442 171.907607 56.728231 -0.007716 0.001558 -1.796442
  time 194
    0 0.538086 0.243042 0.046295 0.000000 0.000000 -1.562070
    1 0.000000 0.000000 0.000000 1.570796 0.000000 0.000000
    2 103.563286 172.174337 56.805940 -0.007429 0.001558 -1.786375
  time 195
    0 0.538086 0.243042 0.046295 0.000000 0.000000 -1.562070
    1 0.000000 0.000000 0.000000 1.570796 0.000000 0.000000
    2 102.177515 172.441067 56.883650 -0.007141 0.001558 -1.776308
  time 196
    0 0.538086 0.243042 0.046295 0.000000 0.000000 -1.562070
    1 0.000000 0.000000 0.000000 1.570796 0.000000 0.000000
    2 100.699359 172.707798 56.961360 -0.006854 0.001516 -1.766145
  time 197
    0 0.538086 0.243042 0.046295 0.000000 0.000000 -1.562070
    1 0.000000 0.000000 0.000000 1.570796 0.000000 0.000000
    2 99.313588 172.907845 57.039070 -0.006566 0.001473 -1.755982
  time 198
    0 0.538086 0.243042 0.046295 0.000000 0.000000 -1.562070
    1 0.000000 0.000000 0.000000 1.570796 0.000000 0.000000
    2 97.835433 173.174575 57.116780 -0.006279 0.001389 -1.745915
  time 199
    0 0.538086 0.243042 0.046295 0.000000 0.000000 -1.562070
    1 0.000000 0.000000 0.000000 1.570796 0.000000 0.000000
    2 96.357277 173.441306 57.210032 -0.006087 0.001305 -1.735752
  time 200
    0 0.538086 0.243042 0.046295 0.000000 0.000000 -1.562070
    1 0.000000 0.000000 0.000000 1.570796 0.000000 0.000000
    2 94.879121 173.641353 57.287742 -0.005895 0.001221 -1.725589
  time 201
    0 0.538086 0.243042 0.046295 0.000000 0.000000 -1.562070
    1 0.000000 0.000000 0.000000 1.570796 0.000000 0.000000
    2 93.400965 173.841401 57.365452 -0.005704 0.001095 -1.715522
  time 202
    0 0.538086 0.243042 0.046295 0.000000 0.000000 -1.562070
    1 0.000000 0.000000 0.000000 1.570796 0.000000 0.000000
    2 91.922810 174.041449 57.443162 -0.005512 0.000968 -1.705359
  time 203
    0 0.538086 0.243042 0.046295 0.000000 0.000000 -1.562070
    1 0.000000 0.000000 0.000000 1.570796 0.000000 0.000000
    2 90.352269 174.241496 57.520872 -0.005320 0.000800 -1.695196
  time 204
    0 0.538086 0.243042 0.046295 0.000000 0.000000 -1.562070
    1 0.000000 0.000000 0.000000 1.570796 0.000000 0.000000
    2 88.874113 174.441544 57.598581 -0.005224 0.000631 -1.685129
  time 205
    0 0.538086 0.243042 0.046295 0.000000 0.000000 -1.562070
    1 0.000000 0.000000 0.000000 1.570796 0.000000 0.000000
    2 87.303573 174.574909 57.676291 -0.005128 0.000463 -1.675062
  time 206
    0 0.538086 0.243042 0.046295 0.000000 0.000000 -1.562070
    1 0.000000 0.000000 0.000000 1.570796 0.000000 0.000000
    2 85.733032 174.774957 57.754001 -0.005033 0.000295 -1.664995
  time 207
    0 0.538086 0.243042 0.046295 0.000000 0.000000 -1.562070
    1 0.000000 0.000000 0.000000 1.570796 0.000000 0.000000
    2 84.162492 174.908322 57.847253 -0.004937 0.000084 -1.654928
  time 208
    0 0.538086 0.243042 0.046295 0.000000 0.000000 -1.562070
    1 0.000000 0.000000 0.000000 1.570796 0.000000 0.000000
    2 82.591952 175.108369 57.924963 -0.004937 -0.000084 -1.644861
  time 209
    0 0.538086 0.243042 0.046295 0.000000 0.000000 -1.562070
    1 0.000000 0.000000 0.000000 1.570796 0.000000 0.000000
    2 81.021411 175.241734 58.002673 -0.004937 -0.000295 -1.634890
  time 210
    0 0.538086 0.243042 0.046295 0.000000 0.000000 -1.562070
    1 0.000000 0.000000 0.000000 1.570796 0.000000 0.000000
    2 79.450871 175.375099 58.080383 -0.004937 -0.000505 -1.624919
  time 211
    0 0.538086 0.243042 0.046295 0.000000 0.000000 -1.562070
    1 0.000000 0.000000 0.000000 1.570796 0.000000 0.000000
    2 77.787945 175.508465 58.158093 -0.004937 -0.000716 -1.614947
  time 212
    0 0.538086 0.243042 0.046295 0.000000 0.000000 -1.562070
    1 0.000000 0.000000 0.000000 1.570796 0.000000 0.000000
    2 76.217405 175.575147 58.235803 -0.005033 -0.000926 -1.604976
  time 213
    0 0.538086 0.243042 0.046295 0.000000 0.000000 -1.562070
    1 0.000000 0.000000 0.000000 1.570796 0.000000 0.000000
    2 74.554480 175.708512 58.313513 -0.005128 -0.001137 -1.595197
  time 214
    0 0.538086 0.243042 0.046295 0.000000 0.000000 -1.562070
    1 0.000000 0.000000 0.000000 1.570796 0.000000 0.000000
    2 72.891555 175.841877 58.391223 -0.005320 -0.001347 -1.585322
  time 215
    0 0.538086 0.243042 0.046295 0.000000 0.000000 -1.562070
    1 0.000000 0.000000 0.000000 1.570796 0.000000 0.000000
    2 71.228629 175.908560 58.468932 -0.005416 -0.001558 -1.575542
  time 216
    0 0.538086 0.243042 0.046295 0.000000 0.000000 -1.562070
    1 0.000000 0.000000 0.000000 1.570796 0.000000 0.000000
    2 69.473319 175.975242 58.546642 -0.005608 -0.001726 -1.565859
  time 217
    0 0.538086 0.243042 0.046295 0.000000 0.000000 -1.562070
    1 0.000000 0.000000 0.000000 1.570796 0.000000 0.000000
    2 67.810394 176.041925 58.624352 -0.005799 -0.001936 -1.556079
  time 218
    0 0.538086 0.243042 0.046295 0.000000 0.000000 -1.562070
    1 0.000000 0.000000 0.000000 1.570796 0.000000 0.000000
    2 66.055084 176.108608 58.702062 -0.006087 -0.002105 -1.546491
  time 219
    0 0.538086 0.243042 0.046295 0.000000 0.000000 -1.562070
    1 0.000000 0.000000 0.000000 1.570796 0.000000 0.000000
    2 64.299774 176.175290 58.779772 -0.006375 -0.002273 -1.536904
  time 220
    0 0.538086 0.243042 0.046295 0.000000 0.000000 -1.562070
    1 0.000000 0.000000 0.000000 1.570796 0.000000 0.000000
    2 62.544464 176.108608 58.857482 -0.006662 -0.002400 -1.527220
  time 221
    0 0.538086 0.243042 0.046295 0.000000 0.000000 -1.562070
    1 0.000000 0.000000 0.000000 1.570796 0.000000 0.000000
    2 60.789154 176.041925 58.935192 -0.006950 -0.002568 -1.517345
  time 222
    0 0.538086 0.243042 0.046295 0.000000 0.000000 -1.562070
    1 0.000000 0.000000 0.000000 1.570796 0.000000 0.000000
    2 59.126229 175.908560 59.012902 -0.007237 -0.002736 -1.507374
  time 223
    0 0.538086 0.243042 0.046295 0.000000 0.000000 -1.562070
    1 0.000000 0.000000 0.000000 1.570796 0.000000 0.000000
    2 57.370919 175.641830 59.090612 -0.007525 -0.002863 -1.497115
  time 224
    0 0.538086 0.243042 0.046295 0.000000 0.000000 -1.562070
    1 0.000000 0.000000 0.000000 1.570796 0.000000 0.000000
    2 55.615609 175.375099 59.168322 -0.007908 -0.002989 -1.486569
  time 225
    0 0.538086 0.243042 0.046295 0.000000 0.000000 -1.562070
    1 0.000000 0.000000 0.000000 1.570796 0.000000 0.000000
    2 53.860299 175.108369 59.246031 -0.008196 -0.003115 -1.476022
  time 226
    0 0.538086 0.243042 0.046295 0.000000 0.000000 -1.562070
    1 0.000000 0.000000 0.000000 1.570796 0.000000 0.000000
    2 52.104990 174.708274 59.323741 -0.008579 -0.003242 -1.465188
  time 227
    0 0.538086 0.243042 0.046295 0.000000 0.000000 -1.562070
    1 0.000000 0.000000 0.000000 1.570796 0.000000 0.000000
    2 50.349680 174.241496 59.401451 -0.008867 -0.003368 -1.454162
  time 228
    0 0.538086 0.243042 0.046295 0.000000 0.000000 -1.562070
    1 0.000000 0.000000 0.000000 1.570796 0.000000 0.000000
    2 48.594370 173.774718 59.479161 -0.009250 -0.003452 -1.442945
  time 229
    0 0.538086 0.243042 0.046295 0.000000 0.000000 -1.562070
    1 0.000000 0.000000 0.000000 1.570796 0.000000 0.000000
    2 46.839060 173.241258 59.556871 -0.009634 -0.003578 -1.431631
  time 230
    0 0.538086 0.243042 0.046295 0.000000 0.000000 -1.562070
    1 0.000000 0.000000 0.000000 1.570796 0.000000 0.000000
    2 45.083750 172.641115 59.634581 -0.010017 -0.003663 -1.420126
  time 231
    0 0.538086 0.243042 0.046295 0.000000 0.000000 -1.562070
    1 0.000000 0.000000 0.000000 1.570796 0.000000 0.000000
    2 43.328440 171.974290 59.712291 -0.010400 -0.003705 -1.408429
  time 232
    0 0.538086 0.243042 0.046295 0.000000 0.000000 -1.562070
    1 0.000000 0.000000 0.000000 1.570796 0.000000 0.000000
    2 41.573130 171.307464 59.790001 -0.010784 -0.003789 -1.396636
  time 233
    0 0.538086 0.243042 0.046295 0.000000 0.000000 -1.562070
    1 0.000000 0.000000 0.000000 1.570796 0.000000 0.000000
    2 39.817820 170.573956 59.867711 -0.011167 -0.003831 -1.384556
  time 234
    0 0.538086 0.243042 0.046295 0.000000 0.000000 -1.562070
    1 0.000000 0.000000 0.000000 1.570796 0.000000 0.000000
    2 38.154895 169.773766 59.945421 -0.011551 -0.003873 -1.372475
  time 235
    0 0.538086 0.243042 0.046295 0.000000 0.000000 -1.562070
    1 0.000000 0.000000 0.000000 1.570796 0.000000 0.000000
    2 36.399585 168.906892 60.023131 -0.012030 -0.003873 -1.360203
  time 236
    0 0.538086 0.243042 0.046295 0.000000 0.000000 -1.562070
    1 0.000000 0.000000 0.000000 1.570796 0.000000 0.000000
    2 34.644275 168.040019 60.100840 -0.012413 -0.003915 -1.347739
  time 237
    0 0.538086 0.243042 0.046295 0.000000 0.000000 -1.562070
    1 0.000000 0.000000 0.000000 1.570796 0.000000 0.000000
    2 32.888965 167.106464 60.178550 -0.012893 -0.003873 -1.335275
  time 238
    0 0.538086 0.243042 0.046295 0.000000 0.000000 -1.562070
    1 0.000000 0.000000 0.000000 1.570796 0.000000 0.000000
    2 31.133655 166.172908 60.256260 -0.013276 -0.003873 -1.322523
  time 239
    0 0.538086 0.243042 0.046295 0.000000 0.000000 -1.562070
    1 0.000000 0.000000 0.000000 1.570796 0.000000 0.000000
    2 29.470730 165.172670 60.333970 -0.013755 -0.003831 -1.309676
  time 240
    0 0.538086 0.243042 0.046295 0.000000 0.000000 -1.562070
    1 0.000000 0.000000 0.000000 1.570796 0.000000 0.000000
    2 27.715420 164.105749 60.411680 -0.014139 -0.003747 -1.296829
  time 241
    0 0.538086 0.243042 0.046295 0.000000 0.000000 -1.562070
    1 0.000000 0.000000 0.000000 1.570796 0.000000 0.000000
    2 25.960110 163.038828 60.489390 -0.014618 -0.003705 -1.283693
  time 242
    0 0.538086 0.243042 0.046295 0.000000 0.000000 -1.562070
    1 0.000000 0.000000 0.000000 1.570796 0.000000 0.000000
    2 24.297185 161.905225 60.567100 -0.015097 -0.003578 -1.270462
  time 243
    0 0.538086 0.243042 0.046295 0.000000 0.000000 -1.562070
    1 0.000000 0.000000 0.000000 1.570796 0.000000 0.000000
    2 22.541875 160.704939 60.629268 -0.015481 -0.003494 -1.257231
  time 244
    0 0.538086 0.243042 0.046295 0.000000 0.000000 -1.562070
    1 0.000000 0.000000 0.000000 1.570796 0.000000 0.000000
    2 20.786565 159.504653 60.706978 -0.015960 -0.003368 -1.243809
  time 245
    0 0.538086 0.243042 0.046295 0.000000 0.000000 -1.562070
    1 0.000000 0.000000 0.000000 1.570796 0.000000 0.000000
    2 19.123640 158.304367 60.784688 -0.016439 -0.003199 -1.230290
  time 246
    0 0.538086 0.243042 0.046295 0.000000 0.000000 -1.562070
    1 0.000000 0.000000 0.000000 1.570796 0.000000 0.000000
    2 17.368330 157.037399 60.862397 -0.016823 -0.003031 -1.216771
  time 247
    0 0.538086 0.243042 0.046295 0.000000 0.000000 -1.562070
    1 0.000000 0.000000 0.000000 1.570796 0.000000 0.000000
    2 15.705405 155.703748 60.940107 -0.017302 -0.002863 -1.203061
  time 248
    0 0.538086 0.243042 0.046295 0.000000 0.000000 -1.562070
    1 0.000000 0.000000 0.000000 1.570796 0.000000 0.000000
    2 14.042479 154.370097 61.017817 -0.017781 -0.002652 -1.189255
  time 249
    0 0.538086 0.243042 0.046295 0.000000 0.000000 -1.562070
    1 0.000000 0.000000 0.000000 1.570796 0.000000 0.000000
    2 12.287170 153.036446 61.095527 -0.018164 -0.002400 -1.175449
  time 250
    0 0.538086 0.243042 0.046295 0.000000 0.000000 -1.562070
    1 0.000000 0.000000 0.000000 1.570796 0.000000 0.000000
    2 10.624244 151.636113 61.173237 -0.018644 -0.002147 -1.161451
  time 251
    0 0.538086 0.243042 0.046295 0.000000 0.000000 -1.562070
    1 0.000000 0.000000 0.000000 1.570796 0.000000 0.000000
    2 8.961319 150.169097 61.250947 -0.019027 -0.001894 -1.147453
  time 252
    0 0.538086 0.243042 0.046295 0.000000 0.000000 -1.562070
    1 0.000000 0.000000 0.000000 1.570796 0.000000 0.000000
    2 7.298394 148.702081 61.328657 -0.019506 -0.001600 -1.133359
  time 253
    0 0.538086 0.243042 0.046295 0.000000 0.000000 -1.562070
    1 0.000000 0.000000 0.000000 1.570796 0.000000 0.000000
    2 5.635469 147.235065 61.406367 -0.019890 -0.001263 -1.119169
  time 254
    0 0.538086 0.243042 0.046295 0.000000 0.000000 -1.562070
    1 0.000000 0.000000 0.000000 1.570796 0.000000 0.000000
    2 3.972544 145.768048 61.468535 -0.020369 -0.000926 -1.104883
  time 255
    0 0.538086 0.243042 0.046295 0.000000 0.000000 -1.562070
    1 0.000000 0.000000 0.000000 1.570796 0.000000 0.000000
    2 2.309618 144.234350 61.546245 -0.020753 -0.000589 -1.090694
  time 256
    0 0.538086 0.243042 0.046295 0.000000 0.000000 -1.562070
    1 0.000000 0.000000 0.000000 1.570796 0.000000 0.000000
    2 0.646693 142.633969 61.623955 -0.021136 -0.000210 -1.076312
  time 257
    0 0.538086 0.243042 0.046295 0.000000 0.000000 -1.562070
    1 0.000000 0.000000 0.000000 1.570796 0.000000 0.000000
    2 -0.923847 141.100270 61.701664 -0.021615 0.000168 -1.061931
  time 258
    0 0.538086 0.243042 0.046295 0.000000 0.000000 -1.562070
    1 0.000000 0.000000 0.000000 1.570796 0.000000 0.000000
    2 -2.586773 139.499889 61.779374 -0.021999 0.000589 -1.047453
  time 259
    0 0.538086 0.243042 0.046295 0.000000 0.000000 -1.562070
    1 0.000000 0.000000 0.000000 1.570796 0.000000 0.000000
    2 -4.157313 137.899508 61.857084 -0.022382 0.001052 -1.032976
  time 260
    0 0.538086 0.243042 0.046295 0.000000 0.000000 -1.562070
    1 0.000000 0.000000 0.000000 1.570796 0.000000 0.000000
    2 -5.820238 136.232444 61.934794 -0.022765 0.001516 -1.018403
  time 261
    0 0.538086 0.243042 0.046295 0.000000 0.000000 -1.562070
    1 0.000000 0.000000 0.000000 1.570796 0.000000 0.000000
    2 -7.390779 134.565381 62.012504 -0.023053 0.002021 -1.003925
  time 262
    0 0.538086 0.243042 0.046295 0.000000 0.000000 -1.562070
    1 0.000000 0.000000 0.000000 1.570796 0.000000 0.000000
    2 -8.961319 132.898317 62.090214 -0.023436 0.002526 -0.989352
  time 263
    0 0.538086 0.243042 0.046295 0.000000 0.000000 -1.562070
    1 0.000000 0.000000 0.000000 1.570796 0.000000 0.000000
    2 -10.624244 131.231253 62.152382 -0.023724 0.003073 -0.974683
  time 264
    0 0.538086 0.243042 0.046295 0.000000 0.000000 -1.562070
    1 0.000000 0.000000 0.000000 1.570796 0.000000 0.000000
    2 -12.194785 129.497507 62.230092 -0.024107 0.003620 -0.960109
  time 265
    0 0.538086 0.243042 0.046295 0.000000 0.000000 -1.562070
    1 0.000000 0.000000 0.000000 1.570796 0.000000 0.000000
    2 -13.765325 127.830443 62.307802 -0.024395 0.004210 -0.945440
  time 266
    0 0.538086 0.243042 0.046295 0.000000 0.000000 -1.562070
    1 0.000000 0.000000 0.000000 1.570796 0.000000 0.000000
    2 -15.335866 126.096697 62.385512 -0.024682 0.004841 -0.930771
  time 267
    0 0.538086 0.243042 0.046295 0.000000 0.000000 -1.562070
    1 0.000000 0.000000 0.000000 1.570796 0.000000 0.000000
    2 -16.906406 124.362951 62.463222 -0.024970 0.005431 -0.916102
  time 268
    0 0.538086 0.243042 0.046295 0.000000 0.000000 -1.562070
    1 0.000000 0.000000 0.000000 1.570796 0.000000 0.000000
    2 -18.476947 122.562522 62.540931 -0.025258 0.006104 -0.901433
  time 269
    0 0.538086 0.243042 0.046295 0.000000 0.000000 -1.562070
    1 0.000000 0.000000 0.000000 1.570796 0.000000 0.000000
    2 -19.955102 120.828776 62.618641 -0.025449 0.006778 -0.886764
  time 270
    0 0.538086 0.243042 0.046295 0.000000 0.000000 -1.562070
    1 0.000000 0.000000 0.000000 1.570796 0.000000 0.000000
    2 -21.525643 119.095030 62.696351 -0.025737 0.007451 -0.872095
  time 271
    0 0.538086 0.243042 0.046295 0.000000 0.000000 -1.562070
    1 0.000000 0.000000 0.000000 1.570796 0.000000 0.000000
    2 -23.003799 117.294601 62.758519 -0.025929 0.008167 -0.857426
  time 272
    0 0.538086 0.243042 0.046295 0.000000 0.000000 -1.562070
    1 0.000000 0.000000 0.000000 1.570796 0.000000 0.000000
    2 -24.574339 115.494172 62.836229 -0.026120 0.008883 -0.842756
  time 273
    0 0.538086 0.243042 0.046295 0.000000 0.000000 -1.562070
    1 0.000000 0.000000 0.000000 1.570796 0.000000 0.000000
    2 -26.052495 113.760426 62.913939 -0.026312 0.009640 -0.828183
  time 274
    0 0.538086 0.243042 0.046295 0.000000 0.000000 -1.562070
    1 0.000000 0.000000 0.000000 1.570796 0.000000 0.000000
    2 -27.530651 111.959997 62.991649 -0.026408 0.010398 -0.813514
  time 275
    0 0.538086 0.243042 0.046295 0.000000 0.000000 -1.562070
    1 0.000000 0.000000 0.000000 1.570796 0.000000 0.000000
    2 -29.008806 110.159568 63.069359 -0.026600 0.011156 -0.798941
  time 276
    0 0.538086 0.243042 0.046295 0.000000 0.000000 -1.562070
    1 0.000000 0.000000 0.000000 1.570796 0.000000 0.000000
    2 -30.486962 108.359139 63.147069 -0.026695 0.011956 -0.784367
  time 277
    0 0.538086 0.243042 0.046295 0.000000 0.000000 -1.562070
    1 0.000000 0.000000 0.000000 1.570796 0.000000 0.000000
    2 -31.965118 106.558711 63.224779 -0.026791 0.012798 -0.769890
  time 278
    0 0.538086 0.243042 0.046295 0.000000 0.000000 -1.562070
    1 0.000000 0.000000 0.000000 1.570796 0.000000 0.000000
    2 -33.350889 104.758282 63.286947 -0.026791 0.013640 -0.755317
  time 279
    0 0.538086 0.243042 0.046295 0.000000 0.000000 -1.562070
    1 0.000000 0.000000 0.000000 1.570796 0.000000 0.000000
    2 -34.829044 102.957853 63.364656 -0.026887 0.014482 -0.740935
  time 280
    0 0.538086 0.243042 0.046295 0.000000 0.000000 -1.562070
    1 0.000000 0.000000 0.000000 1.570796 0.000000 0.000000
    2 -36.214815 101.157424 63.442366 -0.026887 0.015324 -0.726554
  time 281
    0 0.538086 0.243042 0.046295 0.000000 0.000000 -1.562070
    1 0.000000 0.000000 0.000000 1.570796 0.000000 0.000000
    2 -37.600586 99.356996 63.520076 -0.026887 0.016208 -0.712172
  time 282
    0 0.538086 0.243042 0.046295 0.000000 0.000000 -1.562070
    1 0.000000 0.000000 0.000000 1.570796 0.000000 0.000000
    2 -38.986357 97.623249 63.597786 -0.026887 0.017092 -0.697887
  time 283
    0 0.538086 0.243042 0.046295 0.000000 0.000000 -1.562070
    1 0.000000 0.000000 0.000000 1.570796 0.000000 0.000000
    2 -40.372128 95.822821 63.675496 -0.026887 0.018018 -0.683697
  time 284
    0 0.538086 0.243042 0.046295 0.000000 0.000000 -1.562070
    1 0.000000 0.000000 0.000000 1.570796 0.000000 0.000000
    2 -41.757899 94.089074 63.753206 -0.026791 0.018944 -0.669507
  time 285
    0 0.538086 0.243042 0.046295 0.000000 0.000000 -1.562070
    1 0.000000 0.000000 0.000000 1.570796 0.000000 0.000000
    2 -43.143670 92.288646 63.830916 -0.026695 0.019870 -0.655413
  time 286
    0 0.538086 0.243042 0.046295 0.000000 0.000000 -1.562070
    1 0.000000 0.000000 0.000000 1.570796 0.000000 0.000000
    2 -44.437057 90.554899 63.893084 -0.026600 0.020796 -0.641415
  time 287
    0 0.538086 0.243042 0.046295 0.000000 0.000000 -1.562070
    1 0.000000 0.000000 0.000000 1.570796 0.000000 0.000000
    2 -45.730443 88.821153 63.970794 -0.026408 0.021765 -0.627417
  time 288
    0 0.538086 0.243042 0.046295 0.000000 0.000000 -1.562070
    1 0.000000 0.000000 0.000000 1.570796 0.000000 0.000000
    2 -47.116214 87.087407 64.048504 -0.026312 0.022733 -0.613611
  time 289
    0 0.538086 0.243042 0.046295 0.000000 0.000000 -1.562070
    1 0.000000 0.000000 0.000000 1.570796 0.000000 0.000000
    2 -48.409600 85.353661 64.126214 -0.026120 0.023701 -0.599805
  time 290
    0 0.538086 0.243042 0.046295 0.000000 0.000000 -1.562070
    1 0.000000 0.000000 0.000000 1.570796 0.000000 0.000000
    2 -49.610602 83.619914 64.203923 -0.025929 0.024669 -0.586094
  time 291
    0 0.538086 0.243042 0.046295 0.000000 0.000000 -1.562070
    1 0.000000 0.000000 0.000000 1.570796 0.000000 0.000000
    2 -50.903988 81.952851 64.281633 -0.025641 0.025638 -0.572480
  time 292
    0 0.538086 0.243042 0.046295 0.000000 0.000000 -1.562070
    1 0.000000 0.000000 0.000000 1.570796 0.000000 0.000000
    2 -52.197374 80.285787 64.359343 -0.025449 0.026648 -0.559057
  time 293
    0 0.538086 0.243042 0.046295 0.000000 0.000000 -1.562070
    1 0.000000 0.000000 0.000000 1.570796 0.000000 0.000000
    2 -53.398376 78.618723 64.421511 -0.025162 0.027658 -0.545539
  time 294
    0 0.538086 0.243042 0.046295 0.000000 0.000000 -1.562070
    1 0.000000 0.000000 0.000000 1.570796 0.000000 0.000000
    2 -54.599377 77.018342 64.499221 -0.024874 0.028669 -0.532308
  time 295
    0 0.538086 0.243042 0.046295 0.000000 0.000000 -1.562070
    1 0.000000 0.000000 0.000000 1.570796 0.000000 0.000000
    2 -55.800379 75.351278 64.576931 -0.024491 0.029679 -0.519172
  time 296
    0 0.538086 0.243042 0.046295 0.000000 0.000000 -1.562070
    1 0.000000 0.000000 0.000000 1.570796 0.000000 0.000000
    2 -57.001380 73.750897 64.654641 -0.024203 0.030689 -0.506037
  time 297
    0 0.538086 0.243042 0.046295 0.000000 0.000000 -1.562070
    1 0.000000 0.000000 0.000000 1.570796 0.000000 0.000000
    2 -58.202382 72.150516 64.732351 -0.023820 0.031700 -0.493094
  time 298
    0 0.538086 0.243042 0.046295 0.000000 0.000000 -1.562070
    1 0.000000 0.000000 0.000000 1.570796 0.000000 0.000000
    2 -59.310999 70.616818 64.810061 -0.023436 0.032752 -0.480246
  time 299
    0 0.538086 0.243042 0.046295 0.000000 0.000000 -1.562070
    1 0.000000 0.000000 0.000000 1.570796 0.000000 0.000000
    2 -60.419616 69.083119 64.887771 -0.022957 0.033762 -0.467591
  time 300
    0 0.538086 0.243042 0.046295 0.000000 0.000000 -1.562070
    1 0.000000 0.000000 0.000000 1.570796 0.000000 0.000000
    2 -61.528232 67.549420 64.965480 -0.022574 0.034815 -0.455031
  time 301
    0 0.538086 0.243042 0.046295 0.000000 0.000000 -1.562070
    1 0.000000 0.000000 0.000000 1.570796 0.000000 0.000000
    2 -62.636849 66.082404 65.027648 -0.022094 0.035825 -0.442567
  time 302
    0 0.538086 0.243042 0.046295 0.000000 0.000000 -1.562070
    1 0.000000 0.000000 0.000000 1.570796 0.000000 0.000000
    2 -63.745466 64.615388 65.105358 -0.021615 0.036878 -0.430295
  time 303
    0 0.538086 0.243042 0.046295 0.000000 0.000000 -1.562070
    1 0.000000 0.000000 0.000000 1.570796 0.000000 0.000000
    2 -64.854083 63.215055 65.183068 -0.021136 0.037888 -0.418118
  time 304
    0 0.538086 0.243042 0.046295 0.000000 0.000000 -1.562070
    1 0.000000 0.000000 0.000000 1.570796 0.000000 0.000000
    2 -65.870315 61.814721 65.260778 -0.020657 0.038940 -0.406134
  time 305
    0 0.538086 0.243042 0.046295 0.000000 0.000000 -1.562070
    1 0.000000 0.000000 0.000000 1.570796 0.000000 0.000000
    2 -66.886547 60.414388 65.338488 -0.020082 0.039951 -0.394149
  time 306
    0 0.538086 0.243042 0.046295 0.000000 0.000000 -1.562070
    1 0.000000 0.000000 0.000000 1.570796 0.000000 0.000000
    2 -67.718009 58.947372 65.416198 -0.019506 0.041003 -0.382069
  time 307
    0 0.538086 0.243042 0.046295 0.000000 0.000000 -1.562070
    1 0.000000 0.000000 0.000000 1.570796 0.000000 0.000000
    2 -68.457087 57.547038 65.493908 -0.018931 0.042014 -0.369892
  time 308
    0 0.538086 0.243042 0.046295 0.000000 0.000000 -1.562070
    1 0.000000 0.000000 0.000000 1.570796 0.000000 0.000000
    2 -69.011396 56.080022 65.571618 -0.018356 0.043066 -0.357716
  time 309
    0 0.538086 0.243042 0.046295 0.000000 0.000000 -1.562070
    1 0.000000 0.000000 0.000000 1.570796 0.000000 0.000000
    2 -69.565704 54.613006 65.649328 -0.017685 0.044076 -0.345540
  time 310
    0 0.538086 0.243042 0.046295 0.000000 0.000000 -1.562070
    1 0.000000 0.000000 0.000000 1.570796 0.000000 0.000000
    2 -69.935243 53.145990 65.727038 -0.017014 0.045129 -0.333267
  time 311
    0 0.538086 0.243042 0.046295 0.000000 0.000000 -1.562070
    1 0.000000 0.000000 0.000000 1.570796 0.000000 0.000000
    2 -70.212397 51.678974 65.789205 -0.016343 0.046139 -0.321091
  time 312
    0 0.538086 0.243042 0.046295 0.000000 0.000000 -1.562070
    1 0.000000 0.000000 0.000000 1.570796 0.000000 0.000000
    2 -70.397167 50.211958 65.866915 -0.015576 0.047150 -0.308915
  time 313
    0 0.538086 0.243042 0.046295 0.000000 0.000000 -1.562070
    1 0.000000 0.000000 0.000000 1.570796 0.000000 0.000000
    2 -70.581936 48.678260 65.944625 -0.014810 0.048202 -0.296930
  time 314
    0 0.538086 0.243042 0.046295 0.000000 0.000000 -1.562070
    1 0.000000 0.000000 0.000000 1.570796 0.000000 0.000000
    2 -70.581936 47.144561 66.022335 -0.014043 0.049212 -0.284946
  time 315
    0 0.538086 0.243042 0.046295 0.000000 0.000000 -1.562070
    1 0.000000 0.000000 0.000000 1.570796 0.000000 0.000000
    2 -70.489551 45.677545 66.100045 -0.013276 0.050181 -0.273153
  time 316
    0 0.538086 0.243042 0.046295 0.000000 0.000000 -1.562070
    1 0.000000 0.000000 0.000000 1.570796 0.000000 0.000000
    2 -70.397167 44.143846 66.177755 -0.012509 0.051191 -0.261456
  time 317
    0 0.538086 0.243042 0.046295 0.000000 0.000000 -1.562070
    1 0.000000 0.000000 0.000000 1.570796 0.000000 0.000000
    2 -70.212397 42.610148 66.255465 -0.011742 0.052201 -0.249951
  time 318
    0 0.538086 0.243042 0.046295 0.000000 0.000000 -1.562070
    1 0.000000 0.000000 0.000000 1.570796 0.000000 0.000000
    2 -70.027628 41.009767 66.333175 -0.010880 0.053170 -0.238637
  time 319
    0 0.538086 0.243042 0.046295 0.000000 0.000000 -1.562070
    1 0.000000 0.000000 0.000000 1.570796 0.000000 0.000000
    2 -69.658089 39.476068 66.410885 -0.010017 0.054138 -0.227611
  time 320
    0 0.538086 0.243042 0.046295 0.000000 0.000000 -1.562070
    1 0.000000 0.000000 0.000000 1.570796 0.000000 0.000000
    2 -69.380935 37.942369 66.488595 -0.009250 0.055106 -0.216777
  time 321
    0 0.538086 0.243042 0.046295 0.000000 0.000000 -1.562070
    1 0.000000 0.000000 0.000000 1.570796 0.000000 0.000000
    2 -69.011396 36.341988 66.566305 -0.008387 0.056074 -0.206327
  time 322
    0 0.538086 0.243042 0.046295 0.000000 0.000000 -1.562070
    1 0.000000 0.000000 0.000000 1.570796 0.000000 0.000000
    2 -68.549472 34.808290 66.644014 -0.007525 0.057000 -0.196068
  time 323
    0 0.538086 0.243042 0.046295 0.000000 0.000000 -1.562070
    1 0.000000 0.000000 0.000000 1.570796 0.000000 0.000000
    2 -68.087548 33.207909 66.706182 -0.006662 0.057969 -0.186193
  time 324
    0 0.538086 0.243042 0.046295 0.000000 0.000000 -1.562070
    1 0.000000 0.000000 0.000000 1.570796 0.000000 0.000000
    2 -67.625625 31.607527 66.783892 -0.005799 0.058895 -0.176701
  time 325
    0 0.538086 0.243042 0.046295 0.000000 0.000000 -1.562070
    1 0.000000 0.000000 0.000000 1.570796 0.000000 0.000000
    2 -67.071316 30.073829 66.861602 -0.004937 0.059779 -0.167497
  time 326
    0 0.538086 0.243042 0.046295 0.000000 0.000000 -1.562070
    1 0.000000 0.000000 0.000000 1.570796 0.000000 0.000000
    2 -66.517008 28.473448 66.939312 -0.004170 0.060705 -0.158772
  time 327
    0 0.538086 0.243042 0.046295 0.000000 0.000000 -1.562070
    1 0.000000 0.000000 0.000000 1.570796 0.000000 0.000000
    2 -66.055084 26.873067 67.017022 -0.003307 0.061589 -0.150431
  time 328
    0 0.538086 0.243042 0.046295 0.000000 0.000000 -1.562070
    1 0.000000 0.000000 0.000000 1.570796 0.000000 0.000000
    2 -65.500776 25.272685 67.094732 -0.002540 0.062473 -0.142665
  time 329
    0 0.538086 0.243042 0.046295 0.000000 0.000000 -1.562070
    1 0.000000 0.000000 0.000000 1.570796 0.000000 0.000000
    2 -64.946467 23.738987 67.172442 -0.001678 0.063357 -0.135282
  time 330
    0 0.538086 0.243042 0.046295 0.000000 0.000000 -1.562070
    1 0.000000 0.000000 0.000000 1.570796 0.000000 0.000000
    2 -64.392159 22.138606 67.250152 -0.000911 0.064241 -0.128379
  time 331
    0 0.538086 0.243042 0.046295 0.000000 0.000000 -1.562070
    1 0.000000 0.000000 0.000000 1.570796 0.000000 0.000000
    2 -63.837851 20.538225 67.327862 -0.000144 0.065083 -0.122051
  time 332
    0 0.538086 0.243042 0.046295 0.000000 0.000000 -1.562070
    1 0.000000 0.000000 0.000000 1.570796 0.000000 0.000000
    2 -63.375927 18.937843 67.405571 0.000527 0.065925 -0.116298
end
