// Created by Crowbar 0.74
version 1
nodes
  0 "GhostAnim_reference" -1
  1 "Base" 0
  2 "Attachment_1" 0
end
skeleton
  time 0
    0 0.000000 0.000000 0.000000 0.000000 0.000000 -0.000001
    1 0.000000 0.000000 0.000000 1.570796 0.000000 0.000000
    2 1001.912432 53.212673 239.937102 0.000048 0.133534 3.074479
  time 1
    0 0.000000 0.000000 0.000000 0.000000 0.000000 -0.000001
    1 0.000000 0.000000 0.000000 1.570796 0.000000 0.000000
    2 1001.912432 53.212673 239.937102 0.000048 0.133534 3.074479
  time 2
    0 0.000000 0.000000 0.000000 0.000000 0.000000 -0.000001
    1 0.000000 0.000000 0.000000 1.570796 0.000000 0.000000
    2 1001.912432 53.212673 239.937102 0.000048 0.133534 3.074479
  time 3
    0 0.000000 0.000000 0.000000 0.000000 0.000000 -0.000001
    1 0.000000 0.000000 0.000000 1.570796 0.000000 0.000000
    2 1001.912432 53.212673 239.937102 0.000048 0.133534 3.074479
  time 4
    0 0.000000 0.000000 0.000000 0.000000 0.000000 -0.000001
    1 0.000000 0.000000 0.000000 1.570796 0.000000 0.000000
    2 1001.912432 53.212673 239.937102 0.000048 0.133534 3.074479
  time 5
    0 0.000000 0.000000 0.000000 0.000000 0.000000 -0.000001
    1 0.000000 0.000000 0.000000 1.570796 0.000000 0.000000
    2 1001.912432 53.212673 239.937102 0.000048 0.133534 3.074479
  time 6
    0 0.000000 0.000000 0.000000 0.000000 0.000000 -0.000001
    1 0.000000 0.000000 0.000000 1.570796 0.000000 0.000000
    2 1001.912432 53.212673 239.937102 0.000048 0.133534 3.074479
  time 7
    0 0.000000 0.000000 0.000000 0.000000 0.000000 -0.000001
    1 0.000000 0.000000 0.000000 1.570796 0.000000 0.000000
    2 1001.912432 53.212673 239.937102 0.000048 0.133534 3.074479
  time 8
    0 0.000000 0.000000 0.000000 0.000000 0.000000 -0.000001
    1 0.000000 0.000000 0.000000 1.570796 0.000000 0.000000
    2 1001.912432 53.212673 239.937102 0.000048 0.133534 3.074479
  time 9
    0 0.000000 0.000000 0.000000 0.000000 0.000000 -0.000001
    1 0.000000 0.000000 0.000000 1.570796 0.000000 0.000000
    2 1001.912432 53.212673 239.937102 0.000048 0.133534 3.074479
  time 10
    0 0.000000 0.000000 0.000000 0.000000 0.000000 -0.000001
    1 0.000000 0.000000 0.000000 1.570796 0.000000 0.000000
    2 1001.912432 53.212673 239.937102 0.000048 0.133534 3.074479
  time 11
    0 0.000000 0.000000 0.000000 0.000000 0.000000 -0.000001
    1 0.000000 0.000000 0.000000 1.570796 0.000000 0.000000
    2 1001.912432 53.212673 239.937102 0.000048 0.133534 3.074479
  time 12
    0 0.000000 0.000000 0.000000 0.000000 0.000000 -0.000001
    1 0.000000 0.000000 0.000000 1.570796 0.000000 0.000000
    2 1001.912432 53.212673 239.937102 0.000048 0.133534 3.074479
  time 13
    0 0.000000 0.000000 0.000000 0.000000 0.000000 -0.000001
    1 0.000000 0.000000 0.000000 1.570796 0.000000 0.000000
    2 1001.912432 53.212673 239.937102 0.000048 0.133534 3.074479
  time 14
    0 0.000000 0.000000 0.000000 0.000000 0.000000 -0.000001
    1 0.000000 0.000000 0.000000 1.570796 0.000000 0.000000
    2 1001.912432 53.212673 239.937102 0.000048 0.133534 3.074479
  time 15
    0 0.000000 0.000000 0.000000 0.000000 0.000000 -0.000001
    1 0.000000 0.000000 0.000000 1.570796 0.000000 0.000000
    2 1001.912432 53.212673 239.937102 0.000048 0.133534 3.074479
  time 16
    0 0.000000 0.000000 0.000000 0.000000 0.000000 -0.000001
    1 0.000000 0.000000 0.000000 1.570796 0.000000 0.000000
    2 1001.912432 53.212673 239.937102 0.000048 0.133534 3.074479
  time 17
    0 0.000000 0.000000 0.000000 0.000000 0.000000 -0.000001
    1 0.000000 0.000000 0.000000 1.570796 0.000000 0.000000
    2 1001.912432 53.212673 239.937102 0.000048 0.133534 3.074479
  time 18
    0 0.000000 0.000000 0.000000 0.000000 0.000000 -0.000001
    1 0.000000 0.000000 0.000000 1.570796 0.000000 0.000000
    2 1001.912432 53.212673 239.937102 0.000048 0.133534 3.074479
  time 19
    0 0.000000 0.000000 0.000000 0.000000 0.000000 -0.000001
    1 0.000000 0.000000 0.000000 1.570796 0.000000 0.000000
    2 1001.912432 53.212673 239.937102 0.000048 0.133534 3.074479
  time 20
    0 0.000000 0.000000 0.000000 0.000000 0.000000 -0.000001
    1 0.000000 0.000000 0.000000 1.570796 0.000000 0.000000
    2 1001.912432 53.212673 239.937102 0.000048 0.133534 3.074479
  time 21
    0 0.000000 0.000000 0.000000 0.000000 0.000000 -0.000001
    1 0.000000 0.000000 0.000000 1.570796 0.000000 0.000000
    2 1001.912432 53.212673 239.937102 0.000048 0.133534 3.074479
  time 22
    0 0.000000 0.000000 0.000000 0.000000 0.000000 -0.000001
    1 0.000000 0.000000 0.000000 1.570796 0.000000 0.000000
    2 1001.912432 53.212673 239.937102 0.000048 0.133534 3.074479
  time 23
    0 0.000000 0.000000 0.000000 0.000000 0.000000 -0.000001
    1 0.000000 0.000000 0.000000 1.570796 0.000000 0.000000
    2 1001.912432 53.212673 239.937102 0.000048 0.133534 3.074479
  time 24
    0 0.000000 0.000000 0.000000 0.000000 0.000000 -0.000001
    1 0.000000 0.000000 0.000000 1.570796 0.000000 0.000000
    2 1001.912432 53.212673 239.937102 0.000048 0.133534 3.074479
  time 25
    0 0.000000 0.000000 0.000000 0.000000 0.000000 -0.000001
    1 0.000000 0.000000 0.000000 1.570796 0.000000 0.000000
    2 1001.912432 53.212673 239.937102 0.000048 0.133534 3.074479
  time 26
    0 0.000000 0.000000 0.000000 0.000000 0.000000 -0.000001
    1 0.000000 0.000000 0.000000 1.570796 0.000000 0.000000
    2 1001.912432 53.212673 239.937102 0.000048 0.133534 3.074479
  time 27
    0 0.000000 0.000000 0.000000 0.000000 0.000000 -0.000001
    1 0.000000 0.000000 0.000000 1.570796 0.000000 0.000000
    2 1001.912432 53.212673 239.937102 0.000048 0.133534 3.074479
  time 28
    0 0.000000 0.000000 0.000000 0.000000 0.000000 -0.000001
    1 0.000000 0.000000 0.000000 1.570796 0.000000 0.000000
    2 1001.912432 53.212673 239.937102 0.000048 0.133534 3.074479
  time 29
    0 0.000000 0.000000 0.000000 0.000000 0.000000 -0.000001
    1 0.000000 0.000000 0.000000 1.570796 0.000000 0.000000
    2 1001.912432 53.212673 239.937102 0.000048 0.133534 3.074479
  time 30
    0 0.000000 0.000000 0.000000 0.000000 0.000000 -0.000001
    1 0.000000 0.000000 0.000000 1.570796 0.000000 0.000000
    2 1001.820047 53.212673 239.937102 0.000048 0.133534 3.074575
  time 31
    0 0.000000 0.000000 0.000000 0.000000 0.000000 -0.000001
    1 0.000000 0.000000 0.000000 1.570796 0.000000 0.000000
    2 1001.727663 53.279355 239.937102 0.000048 0.133534 3.074575
  time 32
    0 0.000000 0.000000 0.000000 0.000000 0.000000 -0.000001
    1 0.000000 0.000000 0.000000 1.570796 0.000000 0.000000
    2 1001.635278 53.346038 239.937102 0.000048 0.133534 3.074671
  time 33
    0 0.000000 0.000000 0.000000 0.000000 0.000000 -0.000001
    1 0.000000 0.000000 0.000000 1.570796 0.000000 0.000000
    2 1001.358124 53.412720 239.937102 0.000048 0.133534 3.074671
  time 34
    0 0.000000 0.000000 0.000000 0.000000 0.000000 -0.000001
    1 0.000000 0.000000 0.000000 1.570796 0.000000 0.000000
    2 1001.080970 53.546086 239.937102 0.000048 0.133534 3.074862
  time 35
    0 0.000000 0.000000 0.000000 0.000000 0.000000 -0.000001
    1 0.000000 0.000000 0.000000 1.570796 0.000000 0.000000
    2 1000.803815 53.679451 239.952644 0.000048 0.133534 3.074958
  time 36
    0 0.000000 0.000000 0.000000 0.000000 0.000000 -0.000001
    1 0.000000 0.000000 0.000000 1.570796 0.000000 0.000000
    2 1000.434276 53.812816 239.952644 0.000048 0.133534 3.075150
  time 37
    0 0.000000 0.000000 0.000000 0.000000 0.000000 -0.000001
    1 0.000000 0.000000 0.000000 1.570796 0.000000 0.000000
    2 999.972353 54.012863 239.952644 0.000048 0.133534 3.075342
  time 38
    0 0.000000 0.000000 0.000000 0.000000 0.000000 -0.000001
    1 0.000000 0.000000 0.000000 1.570796 0.000000 0.000000
    2 999.418044 54.212911 239.952644 0.000048 0.133534 3.075533
  time 39
    0 0.000000 0.000000 0.000000 0.000000 0.000000 -0.000001
    1 0.000000 0.000000 0.000000 1.570796 0.000000 0.000000
    2 998.863736 54.479641 239.952644 0.000048 0.133534 3.075725
  time 40
    0 0.000000 0.000000 0.000000 0.000000 0.000000 -0.000001
    1 0.000000 0.000000 0.000000 1.570796 0.000000 0.000000
    2 998.309428 54.679689 239.952644 0.000048 0.133534 3.076013
  time 41
    0 0.000000 0.000000 0.000000 0.000000 0.000000 -0.000001
    1 0.000000 0.000000 0.000000 1.570796 0.000000 0.000000
    2 997.570350 55.013102 239.952644 0.000048 0.133534 3.076300
  time 42
    0 0.000000 0.000000 0.000000 0.000000 0.000000 -0.000001
    1 0.000000 0.000000 0.000000 1.570796 0.000000 0.000000
    2 996.831272 55.279832 239.952644 0.000048 0.133534 3.076588
  time 43
    0 0.000000 0.000000 0.000000 0.000000 0.000000 -0.000001
    1 0.000000 0.000000 0.000000 1.570796 0.000000 0.000000
    2 996.092194 55.613244 239.952644 0.000048 0.133534 3.076876
  time 44
    0 0.000000 0.000000 0.000000 0.000000 0.000000 -0.000001
    1 0.000000 0.000000 0.000000 1.570796 0.000000 0.000000
    2 995.260731 55.946657 239.952644 0.000048 0.133534 3.077259
  time 45
    0 0.000000 0.000000 0.000000 0.000000 0.000000 -0.000001
    1 0.000000 0.000000 0.000000 1.570796 0.000000 0.000000
    2 994.336884 56.346752 239.952644 0.000048 0.133534 3.077643
  time 46
    0 0.000000 0.000000 0.000000 0.000000 0.000000 -0.000001
    1 0.000000 0.000000 0.000000 1.570796 0.000000 0.000000
    2 993.413037 56.746848 239.968186 0.000048 0.133534 3.078026
  time 47
    0 0.000000 0.000000 0.000000 0.000000 0.000000 -0.000001
    1 0.000000 0.000000 0.000000 1.570796 0.000000 0.000000
    2 992.396805 57.146943 239.968186 0.000048 0.133534 3.078410
  time 48
    0 0.000000 0.000000 0.000000 0.000000 0.000000 -0.000001
    1 0.000000 0.000000 0.000000 1.570796 0.000000 0.000000
    2 991.380573 57.613721 239.968186 0.000048 0.133534 3.078889
  time 49
    0 0.000000 0.000000 0.000000 0.000000 0.000000 -0.000001
    1 0.000000 0.000000 0.000000 1.570796 0.000000 0.000000
    2 990.271956 58.080499 239.968186 0.000048 0.133534 3.079368
  time 50
    0 0.000000 0.000000 0.000000 0.000000 0.000000 -0.000001
    1 0.000000 0.000000 0.000000 1.570796 0.000000 0.000000
    2 989.070954 58.547277 239.968186 0.000048 0.133534 3.079848
  time 51
    0 0.000000 0.000000 0.000000 0.000000 0.000000 -0.000001
    1 0.000000 0.000000 0.000000 1.570796 0.000000 0.000000
    2 987.869953 59.014054 239.952644 0.000048 0.133534 3.080423
  time 52
    0 0.000000 0.000000 0.000000 0.000000 0.000000 -0.000001
    1 0.000000 0.000000 0.000000 1.570796 0.000000 0.000000
    2 986.576566 59.547515 239.952644 0.000048 0.133534 3.080903
  time 53
    0 0.000000 0.000000 0.000000 0.000000 0.000000 -0.000001
    1 0.000000 0.000000 0.000000 1.570796 0.000000 0.000000
    2 985.283180 60.080975 239.952644 0.000048 0.133534 3.081478
  time 54
    0 0.000000 0.000000 0.000000 0.000000 0.000000 -0.000001
    1 0.000000 0.000000 0.000000 1.570796 0.000000 0.000000
    2 983.897409 60.681118 239.952644 0.000048 0.133534 3.082053
  time 55
    0 0.000000 0.000000 0.000000 0.000000 0.000000 -0.000001
    1 0.000000 0.000000 0.000000 1.570796 0.000000 0.000000
    2 982.511638 61.214578 239.952644 0.000048 0.133534 3.082724
  time 56
    0 0.000000 0.000000 0.000000 0.000000 0.000000 -0.000001
    1 0.000000 0.000000 0.000000 1.570796 0.000000 0.000000
    2 981.033482 61.814721 239.952644 0.000048 0.133534 3.083299
  time 57
    0 0.000000 0.000000 0.000000 0.000000 0.000000 -0.000001
    1 0.000000 0.000000 0.000000 1.570796 0.000000 0.000000
    2 979.555327 62.481547 239.937102 0.000048 0.133534 3.083971
  time 58
    0 0.000000 0.000000 0.000000 0.000000 0.000000 -0.000001
    1 0.000000 0.000000 0.000000 1.570796 0.000000 0.000000
    2 977.984786 63.081690 239.937102 0.000048 0.133534 3.084642
  time 59
    0 0.000000 0.000000 0.000000 0.000000 0.000000 -0.000001
    1 0.000000 0.000000 0.000000 1.570796 0.000000 0.000000
    2 976.321861 63.748515 239.937102 0.000048 0.133534 3.085409
  time 60
    0 0.000000 0.000000 0.000000 0.000000 0.000000 -0.000001
    1 0.000000 0.000000 0.000000 1.570796 0.000000 0.000000
    2 974.751321 64.415341 239.921560 0.000048 0.133534 3.086080
  time 61
    0 0.000000 0.000000 0.000000 0.000000 0.000000 -0.000001
    1 0.000000 0.000000 0.000000 1.570796 0.000000 0.000000
    2 972.996011 65.148849 239.921560 0.000048 0.133534 3.086847
  time 62
    0 0.000000 0.000000 0.000000 0.000000 0.000000 -0.000001
    1 0.000000 0.000000 0.000000 1.570796 0.000000 0.000000
    2 971.240701 65.815674 239.906018 0.000048 0.133534 3.087614
  time 63
    0 0.000000 0.000000 0.000000 0.000000 0.000000 -0.000001
    1 0.000000 0.000000 0.000000 1.570796 0.000000 0.000000
    2 969.485391 66.549182 239.906018 0.000048 0.133534 3.088477
  time 64
    0 0.000000 0.000000 0.000000 0.000000 0.000000 -0.000001
    1 0.000000 0.000000 0.000000 1.570796 0.000000 0.000000
    2 967.637696 67.282690 239.890476 0.000048 0.133534 3.089244
  time 65
    0 0.000000 0.000000 0.000000 0.000000 0.000000 -0.000001
    1 0.000000 0.000000 0.000000 1.570796 0.000000 0.000000
    2 965.697617 68.082881 239.890476 0.000048 0.133534 3.090107
  time 66
    0 0.000000 0.000000 0.000000 0.000000 0.000000 -0.000001
    1 0.000000 0.000000 0.000000 1.570796 0.000000 0.000000
    2 963.757537 68.883071 239.874934 0.000048 0.133534 3.090970
  time 67
    0 0.000000 0.000000 0.000000 0.000000 0.000000 -0.000001
    1 0.000000 0.000000 0.000000 1.570796 0.000000 0.000000
    2 961.817458 69.616579 239.859392 0.000048 0.133534 3.091928
  time 68
    0 0.000000 0.000000 0.000000 0.000000 0.000000 -0.000001
    1 0.000000 0.000000 0.000000 1.570796 0.000000 0.000000
    2 959.784994 70.483453 239.843850 0.000048 0.133534 3.092791
  time 69
    0 0.000000 0.000000 0.000000 0.000000 0.000000 -0.000001
    1 0.000000 0.000000 0.000000 1.570796 0.000000 0.000000
    2 957.752530 71.283643 239.828308 0.000048 0.133534 3.093750
  time 70
    0 0.000000 0.000000 0.000000 0.000000 0.000000 -0.000001
    1 0.000000 0.000000 0.000000 1.570796 0.000000 0.000000
    2 955.627681 72.150516 239.812766 0.000048 0.133534 3.094709
  time 71
    0 0.000000 0.000000 0.000000 0.000000 0.000000 -0.000001
    1 0.000000 0.000000 0.000000 1.570796 0.000000 0.000000
    2 953.502832 73.017389 239.797224 0.000048 0.133534 3.095668
  time 72
    0 0.000000 0.000000 0.000000 0.000000 0.000000 -0.000001
    1 0.000000 0.000000 0.000000 1.570796 0.000000 0.000000
    2 951.285598 73.884262 239.781682 0.000048 0.133534 3.096722
  time 73
    0 0.000000 0.000000 0.000000 0.000000 0.000000 -0.000001
    1 0.000000 0.000000 0.000000 1.570796 0.000000 0.000000
    2 949.068365 74.751136 239.766140 0.000048 0.133534 3.097681
  time 74
    0 0.000000 0.000000 0.000000 0.000000 0.000000 -0.000001
    1 0.000000 0.000000 0.000000 1.570796 0.000000 0.000000
    2 946.758746 75.684691 239.750599 0.000048 0.133534 3.098736
  time 75
    0 0.000000 0.000000 0.000000 0.000000 0.000000 -0.000001
    1 0.000000 0.000000 0.000000 1.570796 0.000000 0.000000
    2 944.449128 76.618247 239.719515 0.000048 0.133534 3.099886
  time 76
    0 0.000000 0.000000 0.000000 0.000000 0.000000 -0.000001
    1 0.000000 0.000000 0.000000 1.570796 0.000000 0.000000
    2 942.139510 77.551803 239.703973 0.000048 0.133534 3.100941
  time 77
    0 0.000000 0.000000 0.000000 0.000000 0.000000 -0.000001
    1 0.000000 0.000000 0.000000 1.570796 0.000000 0.000000
    2 939.737507 78.485358 239.672889 0.000048 0.133534 3.102091
  time 78
    0 0.000000 0.000000 0.000000 0.000000 0.000000 -0.000001
    1 0.000000 0.000000 0.000000 1.570796 0.000000 0.000000
    2 937.335504 79.485596 239.657347 0.000048 0.133534 3.103242
  time 79
    0 0.000000 0.000000 0.000000 0.000000 0.000000 -0.000001
    1 0.000000 0.000000 0.000000 1.570796 0.000000 0.000000
    2 934.841116 80.419152 239.626263 0.000048 0.133534 3.104392
  time 80
    0 0.000000 0.000000 0.000000 0.000000 0.000000 -0.000001
    1 0.000000 0.000000 0.000000 1.570796 0.000000 0.000000
    2 932.346728 81.419390 239.595179 0.000048 0.133534 3.105543
  time 81
    0 0.000000 0.000000 0.000000 0.000000 0.000000 -0.000001
    1 0.000000 0.000000 0.000000 1.570796 0.000000 0.000000
    2 929.759956 82.486311 239.564095 0.000048 0.133534 3.106789
  time 82
    0 0.000000 0.000000 0.000000 0.000000 0.000000 -0.000001
    1 0.000000 0.000000 0.000000 1.570796 0.000000 0.000000
    2 927.173183 83.486549 239.548553 0.000048 0.133534 3.108036
  time 83
    0 0.000000 0.000000 0.000000 0.000000 0.000000 -0.000001
    1 0.000000 0.000000 0.000000 1.570796 0.000000 0.000000
    2 924.586410 84.486787 239.501927 0.000048 0.133534 3.109282
  time 84
    0 0.000000 0.000000 0.000000 0.000000 0.000000 -0.000001
    1 0.000000 0.000000 0.000000 1.570796 0.000000 0.000000
    2 921.907253 85.553708 239.470843 0.000048 0.133534 3.110528
  time 85
    0 0.000000 0.000000 0.000000 0.000000 0.000000 -0.000001
    1 0.000000 0.000000 0.000000 1.570796 0.000000 0.000000
    2 919.228096 86.620629 239.439759 0.000048 0.133534 3.111871
  time 86
    0 0.000000 0.000000 0.000000 0.000000 0.000000 -0.000001
    1 0.000000 0.000000 0.000000 1.570796 0.000000 0.000000
    2 916.456554 87.687550 239.408675 0.000048 0.133534 3.113213
  time 87
    0 0.000000 0.000000 0.000000 0.000000 0.000000 -0.000001
    1 0.000000 0.000000 0.000000 1.570796 0.000000 0.000000
    2 913.685012 88.754470 239.362049 0.000048 0.133534 3.114555
  time 88
    0 0.000000 0.000000 0.000000 0.000000 0.000000 -0.000001
    1 0.000000 0.000000 0.000000 1.570796 0.000000 0.000000
    2 910.913470 89.888074 239.315423 0.000048 0.133534 3.115898
  time 89
    0 0.000000 0.000000 0.000000 0.000000 0.000000 -0.000001
    1 0.000000 0.000000 0.000000 1.570796 0.000000 0.000000
    2 908.049543 90.954995 239.284339 0.000048 0.133534 3.117336
  time 90
    0 0.000000 0.000000 0.000000 0.000000 0.000000 -0.000001
    1 0.000000 0.000000 0.000000 1.570796 0.000000 0.000000
    2 905.185616 92.088598 239.237713 0.000048 0.133534 3.118678
  time 91
    0 0.000000 0.000000 0.000000 0.000000 0.000000 -0.000001
    1 0.000000 0.000000 0.000000 1.570796 0.000000 0.000000
    2 902.321690 93.222201 239.191087 0.000048 0.133534 3.120116
  time 92
    0 0.000000 0.000000 0.000000 0.000000 0.000000 -0.000001
    1 0.000000 0.000000 0.000000 1.570796 0.000000 0.000000
    2 899.365378 94.355804 239.144461 0.000048 0.133534 3.121554
  time 93
    0 0.000000 0.000000 0.000000 0.000000 0.000000 -0.000001
    1 0.000000 0.000000 0.000000 1.570796 0.000000 0.000000
    2 896.409067 95.489408 239.097835 0.000048 0.133534 3.123088
  time 94
    0 0.000000 0.000000 0.000000 0.000000 0.000000 -0.000001
    1 0.000000 0.000000 0.000000 1.570796 0.000000 0.000000
    2 893.360371 96.689694 239.035667 0.000048 0.133534 3.124622
  time 95
    0 0.000000 0.000000 0.000000 0.000000 0.000000 -0.000001
    1 0.000000 0.000000 0.000000 1.570796 0.000000 0.000000
    2 890.404059 97.823297 238.989041 0.000048 0.133534 3.126060
  time 96
    0 0.000000 0.000000 0.000000 0.000000 0.000000 -0.000001
    1 0.000000 0.000000 0.000000 1.570796 0.000000 0.000000
    2 887.262978 99.023583 238.926874 0.000048 0.133534 3.127690
  time 97
    0 0.000000 0.000000 0.000000 0.000000 0.000000 -0.000001
    1 0.000000 0.000000 0.000000 1.570796 0.000000 0.000000
    2 884.214282 100.223869 238.880248 0.000048 0.133534 3.129224
  time 98
    0 0.000000 0.000000 0.000000 0.000000 0.000000 -0.000001
    1 0.000000 0.000000 0.000000 1.570796 0.000000 0.000000
    2 881.073201 101.424154 238.818080 0.000048 0.133534 3.130758
  time 99
    0 0.000000 0.000000 0.000000 0.000000 0.000000 -0.000001
    1 0.000000 0.000000 0.000000 1.570796 0.000000 0.000000
    2 877.932120 102.624440 238.755912 0.000048 0.133534 3.132388
  time 100
    0 0.000000 0.000000 0.000000 0.000000 0.000000 -0.000001
    1 0.000000 0.000000 0.000000 1.570796 0.000000 0.000000
    2 874.791039 103.824726 238.693744 0.000048 0.133534 3.134018
  time 101
    0 0.000000 0.000000 0.000000 0.000000 0.000000 -0.000001
    1 0.000000 0.000000 0.000000 1.570796 0.000000 0.000000
    2 871.557574 105.025012 238.631576 0.000048 0.133534 3.135744
  time 102
    0 0.000000 0.000000 0.000000 0.000000 0.000000 -0.000001
    1 0.000000 0.000000 0.000000 1.570796 0.000000 0.000000
    2 868.324108 106.291980 238.553866 0.000048 0.133534 3.137374
  time 103
    0 0.000000 0.000000 0.000000 0.000000 0.000000 -0.000001
    1 0.000000 0.000000 0.000000 1.570796 0.000000 0.000000
    2 864.998258 107.492266 238.491698 0.000048 0.133534 3.139100
  time 104
    0 0.000000 0.000000 0.000000 0.000000 0.000000 -0.000001
    1 0.000000 0.000000 0.000000 1.570796 0.000000 0.000000
    2 861.764792 108.759235 238.413988 0.000048 0.133534 3.140825
  time 105
    0 0.000000 0.000000 0.000000 0.000000 0.000000 -0.000001
    1 0.000000 0.000000 0.000000 1.570796 0.000000 0.000000
    2 858.438941 110.026203 238.336278 0.000048 0.133534 -3.140538
  time 106
    0 0.000000 0.000000 0.000000 0.000000 0.000000 -0.000001
    1 0.000000 0.000000 0.000000 1.570796 0.000000 0.000000
    2 855.113091 111.293171 238.258568 0.000048 0.133534 -3.138812
  time 107
    0 0.000000 0.000000 0.000000 0.000000 0.000000 -0.000001
    1 0.000000 0.000000 0.000000 1.570796 0.000000 0.000000
    2 851.694856 112.560140 238.180858 0.000048 0.133534 -3.136990
  time 108
    0 0.000000 0.000000 0.000000 0.000000 0.000000 -0.000001
    1 0.000000 0.000000 0.000000 1.570796 0.000000 0.000000
    2 848.276621 113.827108 238.103149 0.000048 0.133534 -3.135169
  time 109
    0 0.000000 0.000000 0.000000 0.000000 0.000000 -0.000001
    1 0.000000 0.000000 0.000000 1.570796 0.000000 0.000000
    2 844.858386 115.094077 238.025439 0.000048 0.133534 -3.133347
  time 110
    0 0.000000 0.000000 0.000000 0.000000 0.000000 -0.000001
    1 0.000000 0.000000 0.000000 1.570796 0.000000 0.000000
    2 841.440151 116.427728 237.932187 0.000048 0.133534 -3.131525
  time 111
    0 0.000000 0.000000 0.000000 0.000000 0.000000 -0.000001
    1 0.000000 0.000000 0.000000 1.570796 0.000000 0.000000
    2 837.929531 117.694696 237.838935 0.000048 0.133534 -3.129704
  time 112
    0 0.000000 0.000000 0.000000 0.000000 0.000000 -0.000001
    1 0.000000 0.000000 0.000000 1.570796 0.000000 0.000000
    2 834.418911 119.028347 237.745683 0.000048 0.133534 -3.127786
  time 113
    0 0.000000 0.000000 0.000000 0.000000 0.000000 -0.000001
    1 0.000000 0.000000 0.000000 1.570796 0.000000 0.000000
    2 830.908291 120.295315 237.652431 0.000048 0.133534 -3.125869
  time 114
    0 0.000000 0.000000 0.000000 0.000000 0.000000 -0.000001
    1 0.000000 0.000000 0.000000 1.570796 0.000000 0.000000
    2 827.397671 121.628966 237.559179 0.000048 0.133534 -3.123951
  time 115
    0 0.000000 0.000000 0.000000 0.000000 0.000000 -0.000001
    1 0.000000 0.000000 0.000000 1.570796 0.000000 0.000000
    2 823.794666 122.962617 237.465927 0.000048 0.133534 -3.121938
  time 116
    0 0.000000 0.000000 0.000000 0.000000 0.000000 -0.000001
    1 0.000000 0.000000 0.000000 1.570796 0.000000 0.000000
    2 820.191662 124.229586 237.357133 0.000048 0.133534 -3.120020
  time 117
    0 0.000000 0.000000 0.000000 0.000000 0.000000 -0.000001
    1 0.000000 0.000000 0.000000 1.570796 0.000000 0.000000
    2 816.681042 125.563237 237.248340 0.000048 0.133534 -3.118007
  time 118
    0 0.000000 0.000000 0.000000 0.000000 0.000000 -0.000001
    1 0.000000 0.000000 0.000000 1.570796 0.000000 0.000000
    2 812.985653 126.896888 237.139546 0.000048 0.133534 -3.115993
  time 119
    0 0.000000 0.000000 0.000000 0.000000 0.000000 -0.000001
    1 0.000000 0.000000 0.000000 1.570796 0.000000 0.000000
    2 809.382648 128.230539 237.030752 0.000048 0.133534 -3.113980
  time 120
    0 0.000000 0.000000 0.000000 0.000000 0.000000 -0.000001
    1 0.000000 0.000000 0.000000 1.570796 0.000000 0.000000
    2 805.687259 129.564189 236.921958 0.000048 0.133534 -3.111871
  time 121
    0 0.000000 0.000000 0.000000 0.000000 0.000000 -0.000001
    1 0.000000 0.000000 0.000000 1.570796 0.000000 0.000000
    2 801.991869 130.897840 236.797622 0.000048 0.133534 -3.109761
  time 122
    0 0.000000 0.000000 0.000000 0.000000 0.000000 -0.000001
    1 0.000000 0.000000 0.000000 1.570796 0.000000 0.000000
    2 798.296480 132.298174 236.688828 0.000048 0.133534 -3.107652
  time 123
    0 0.000000 0.000000 0.000000 0.000000 0.000000 -0.000001
    1 0.000000 0.000000 0.000000 1.570796 0.000000 0.000000
    2 794.601091 133.631825 236.564492 0.000048 0.133534 -3.105543
  time 124
    0 0.000000 0.000000 0.000000 0.000000 0.000000 -0.000001
    1 0.000000 0.000000 0.000000 1.570796 0.000000 0.000000
    2 790.813317 134.965476 236.440157 0.000048 0.133534 -3.103434
  time 125
    0 0.000000 0.000000 0.000000 0.000000 0.000000 -0.000001
    1 0.000000 0.000000 0.000000 1.570796 0.000000 0.000000
    2 787.025543 136.299127 236.315821 0.000048 0.133534 -3.101228
  time 126
    0 0.000000 0.000000 0.000000 0.000000 0.000000 -0.000001
    1 0.000000 0.000000 0.000000 1.570796 0.000000 0.000000
    2 783.237769 137.699460 236.175943 0.000048 0.133534 -3.099119
  time 127
    0 0.000000 0.000000 0.000000 0.000000 0.000000 -0.000001
    1 0.000000 0.000000 0.000000 1.570796 0.000000 0.000000
    2 779.449995 139.033111 236.051607 0.000048 0.133534 -3.096914
  time 128
    0 0.000000 0.000000 0.000000 0.000000 0.000000 -0.000001
    1 0.000000 0.000000 0.000000 1.570796 0.000000 0.000000
    2 775.662220 140.433445 235.911729 0.000048 0.133534 -3.094613
  time 129
    0 0.000000 0.000000 0.000000 0.000000 0.000000 -0.000001
    1 0.000000 0.000000 0.000000 1.570796 0.000000 0.000000
    2 771.782062 141.767096 235.771851 0.000048 0.133534 -3.092408
  time 130
    0 0.000000 0.000000 0.000000 0.000000 0.000000 -0.000001
    1 0.000000 0.000000 0.000000 1.570796 0.000000 0.000000
    2 767.994288 143.100747 235.616432 0.000048 0.133534 -3.090107
  time 131
    0 0.000000 0.000000 0.000000 0.000000 0.000000 -0.000001
    1 0.000000 0.000000 0.000000 1.570796 0.000000 0.000000
    2 764.114129 144.501080 235.476554 0.000048 0.133534 -3.087806
  time 132
    0 0.000000 0.000000 0.000000 0.000000 0.000000 -0.000001
    1 0.000000 0.000000 0.000000 1.570796 0.000000 0.000000
    2 760.233970 145.834731 235.321134 0.000048 0.133534 -3.085505
  time 133
    0 0.000000 0.000000 0.000000 0.000000 0.000000 -0.000001
    1 0.000000 0.000000 0.000000 1.570796 0.000000 0.000000
    2 756.353811 147.235065 235.165714 0.000048 0.133534 -3.083204
  time 134
    0 0.000000 0.000000 0.000000 0.000000 0.000000 -0.000001
    1 0.000000 0.000000 0.000000 1.570796 0.000000 0.000000
    2 752.473652 148.568715 235.010294 0.000048 0.133534 -3.080903
  time 135
    0 0.000000 0.000000 0.000000 0.000000 0.000000 -0.000001
    1 0.000000 0.000000 0.000000 1.570796 0.000000 0.000000
    2 748.501109 149.969049 234.854875 0.000048 0.133534 -3.078506
  time 136
    0 0.000000 0.000000 0.000000 0.000000 0.000000 -0.000001
    1 0.000000 0.000000 0.000000 1.570796 0.000000 0.000000
    2 744.620950 151.302700 234.699455 0.000048 0.133534 -3.076109
  time 137
    0 0.000000 0.000000 0.000000 0.000000 0.000000 -0.000001
    1 0.000000 0.000000 0.000000 1.570796 0.000000 0.000000
    2 740.648407 152.703033 234.528493 0.000048 0.133534 -3.073712
  time 138
    0 0.000000 0.000000 0.000000 0.000000 0.000000 -0.000001
    1 0.000000 0.000000 0.000000 1.570796 0.000000 0.000000
    2 736.675863 154.036684 234.357531 0.000048 0.133534 -3.071219
  time 139
    0 0.000000 0.000000 0.000000 0.000000 0.000000 -0.000001
    1 0.000000 0.000000 0.000000 1.570796 0.000000 0.000000
    2 732.703319 155.437018 234.186569 0.000048 0.133534 -3.068822
  time 140
    0 0.000000 0.000000 0.000000 0.000000 0.000000 -0.000001
    1 0.000000 0.000000 0.000000 1.570796 0.000000 0.000000
    2 728.730776 156.770669 234.000066 0.000048 0.133534 -3.066329
  time 141
    0 0.000000 0.000000 0.000000 0.000000 0.000000 -0.000001
    1 0.000000 0.000000 0.000000 1.570796 0.000000 0.000000
    2 724.758232 158.171002 233.829104 0.000048 0.133534 -3.063836
  time 142
    0 0.000000 0.000000 0.000000 0.000000 0.000000 -0.000001
    1 0.000000 0.000000 0.000000 1.570796 0.000000 0.000000
    2 720.785689 159.504653 233.642600 0.000048 0.133534 -3.061344
  time 143
    0 0.000000 0.000000 0.000000 0.000000 0.000000 -0.000001
    1 0.000000 0.000000 0.000000 1.570796 0.000000 0.000000
    2 716.720761 160.838304 233.456096 0.000048 0.133534 -3.058755
  time 144
    0 0.000000 0.000000 0.000000 0.000000 0.000000 -0.000001
    1 0.000000 0.000000 0.000000 1.570796 0.000000 0.000000
    2 712.748217 162.238638 233.254050 0.000048 0.133534 -3.056262
  time 145
    0 0.000000 0.000000 0.000000 0.000000 0.000000 -0.000001
    1 0.000000 0.000000 0.000000 1.570796 0.000000 0.000000
    2 708.775674 163.572289 233.067547 0.000048 0.133534 -3.053674
  time 146
    0 0.000000 0.000000 0.000000 0.000000 0.000000 -0.000001
    1 0.000000 0.000000 0.000000 1.570796 0.000000 0.000000
    2 704.710745 164.905940 232.865501 0.000048 0.133534 -3.051085
  time 147
    0 0.000000 0.000000 0.000000 0.000000 0.000000 -0.000001
    1 0.000000 0.000000 0.000000 1.570796 0.000000 0.000000
    2 700.645817 166.239590 232.663455 0.000048 0.133534 -3.048496
  time 148
    0 0.000000 0.000000 0.000000 0.000000 0.000000 -0.000001
    1 0.000000 0.000000 0.000000 1.570796 0.000000 0.000000
    2 696.580889 167.639924 232.461409 0.000048 0.133534 -3.045812
  time 149
    0 0.000000 0.000000 0.000000 0.000000 0.000000 -0.000001
    1 0.000000 0.000000 0.000000 1.570796 0.000000 0.000000
    2 692.515961 168.973575 232.243822 0.000048 0.133534 -3.043223
  time 150
    0 0.000000 0.000000 0.000000 0.000000 0.000000 -0.000001
    1 0.000000 0.000000 0.000000 1.570796 0.000000 0.000000
    2 688.543417 170.307226 232.026234 0.000048 0.133534 -3.040538
  time 151
    0 0.000000 0.000000 0.000000 0.000000 0.000000 -0.000001
    1 0.000000 0.000000 0.000000 1.570796 0.000000 0.000000
    2 684.478489 171.640877 231.808646 0.000048 0.133534 -3.037854
  time 152
    0 0.000000 0.000000 0.000000 0.000000 0.000000 -0.000001
    1 0.000000 0.000000 0.000000 1.570796 0.000000 0.000000
    2 680.321176 172.974528 231.591058 0.000048 0.133534 -3.035073
  time 153
    0 0.000000 0.000000 0.000000 0.000000 0.000000 -0.000001
    1 0.000000 0.000000 0.000000 1.570796 0.000000 0.000000
    2 676.256247 174.308179 231.357929 0.000048 0.133534 -3.032389
  time 154
    0 0.000000 0.000000 0.000000 0.000000 0.000000 -0.000001
    1 0.000000 0.000000 0.000000 1.570796 0.000000 0.000000
    2 672.191319 175.641830 231.140341 0.000048 0.133534 -3.029608
  time 155
    0 0.000000 0.000000 0.000000 0.000000 0.000000 -0.000001
    1 0.000000 0.000000 0.000000 1.570796 0.000000 0.000000
    2 668.126391 176.908798 230.891669 0.000048 0.133534 -3.026828
  time 156
    0 0.000000 0.000000 0.000000 0.000000 0.000000 -0.000001
    1 0.000000 0.000000 0.000000 1.570796 0.000000 0.000000
    2 664.061463 178.242449 230.658540 0.000048 0.133534 -3.024048
  time 157
    0 0.000000 0.000000 0.000000 0.000000 0.000000 -0.000001
    1 0.000000 0.000000 0.000000 1.570796 0.000000 0.000000
    2 659.996534 179.509417 230.409868 0.000048 0.133534 -3.021267
  time 158
    0 0.000000 0.000000 0.000000 0.000000 0.000000 -0.000001
    1 0.000000 0.000000 0.000000 1.570796 0.000000 0.000000
    2 655.839221 180.843068 230.176738 0.000048 0.133534 -3.018487
  time 159
    0 0.000000 0.000000 0.000000 0.000000 0.000000 -0.000001
    1 0.000000 0.000000 0.000000 1.570796 0.000000 0.000000
    2 651.774293 182.110037 229.912525 0.000048 0.133534 -3.015610
  time 160
    0 0.000000 0.000000 0.000000 0.000000 0.000000 -0.000001
    1 0.000000 0.000000 0.000000 1.570796 0.000000 0.000000
    2 647.709365 183.310323 229.663853 0.000048 0.133534 -3.012734
  time 161
    0 0.000000 0.000000 0.000000 0.000000 0.000000 -0.000001
    1 0.000000 0.000000 0.000000 1.570796 0.000000 0.000000
    2 643.644437 184.577291 229.399639 0.000048 0.133534 -3.009858
  time 162
    0 0.000000 0.000000 0.000000 0.000000 0.000000 -0.000001
    1 0.000000 0.000000 0.000000 1.570796 0.000000 0.000000
    2 639.671893 185.777577 229.135426 0.000048 0.133534 -3.006982
  time 163
    0 0.000000 0.000000 0.000000 0.000000 0.000000 -0.000001
    1 0.000000 0.000000 0.000000 1.570796 0.000000 0.000000
    2 635.606965 187.044545 228.871212 0.000048 0.133534 -3.004009
  time 164
    0 0.000000 0.000000 0.000000 0.000000 0.000000 -0.000001
    1 0.000000 0.000000 0.000000 1.570796 0.000000 0.000000
    2 631.542037 188.244831 228.606998 0.000048 0.133534 -3.001037
  time 165
    0 0.000000 0.000000 0.000000 0.000000 0.000000 -0.000001
    1 0.000000 0.000000 0.000000 1.570796 0.000000 0.000000
    2 627.569493 189.378434 228.327242 0.000048 0.133534 -2.998161
  time 166
    0 0.000000 0.000000 0.000000 0.000000 0.000000 -0.000001
    1 0.000000 0.000000 0.000000 1.570796 0.000000 0.000000
    2 623.504565 190.578720 228.047487 0.000048 0.133534 -2.995093
  time 167
    0 0.000000 0.000000 0.000000 0.000000 0.000000 -0.000001
    1 0.000000 0.000000 0.000000 1.570796 0.000000 0.000000
    2 619.532021 191.779006 227.752189 0.000048 0.133534 -2.992121
  time 168
    0 0.000000 0.000000 0.000000 0.000000 0.000000 -0.000001
    1 0.000000 0.000000 0.000000 1.570796 0.000000 0.000000
    2 615.467093 192.912609 227.472434 0.000048 0.133534 -2.989148
  time 169
    0 0.000000 0.000000 0.000000 0.000000 0.000000 -0.000001
    1 0.000000 0.000000 0.000000 1.570796 0.000000 0.000000
    2 611.494549 194.046213 227.177136 0.000048 0.133534 -2.986080
  time 170
    0 0.000000 0.000000 0.000000 0.000000 0.000000 -0.000001
    1 0.000000 0.000000 0.000000 1.570796 0.000000 0.000000
    2 607.522006 195.179816 226.866296 0.000048 0.133534 -2.983012
  time 171
    0 0.000000 0.000000 0.000000 0.000000 0.000000 -0.000001
    1 0.000000 0.000000 0.000000 1.570796 0.000000 0.000000
    2 603.549462 196.246737 226.570999 0.000048 0.133534 -2.979944
  time 172
    0 0.000000 0.000000 0.000000 0.000000 0.000000 -0.000001
    1 0.000000 0.000000 0.000000 1.570796 0.000000 0.000000
    2 599.576919 197.380340 226.260159 0.000048 0.133534 -2.976876
  time 173
    0 0.000000 0.000000 0.000000 0.000000 0.000000 -0.000001
    1 0.000000 0.000000 0.000000 1.570796 0.000000 0.000000
    2 595.604375 198.447261 225.949319 0.000048 0.133534 -2.973712
  time 174
    0 0.000000 0.000000 0.000000 0.000000 0.000000 -0.000001
    1 0.000000 0.000000 0.000000 1.570796 0.000000 0.000000
    2 591.631832 199.514182 225.622938 0.000048 0.133534 -2.970548
  time 175
    0 0.000000 0.000000 0.000000 0.000000 0.000000 -0.000001
    1 0.000000 0.000000 0.000000 1.570796 0.000000 0.000000
    2 587.659288 200.581102 225.281014 0.000048 0.133534 -2.967480
  time 176
    0 0.000000 0.000000 0.000000 0.000000 0.000000 -0.000001
    1 0.000000 0.000000 0.000000 1.570796 0.000000 0.000000
    2 583.686745 201.648023 224.939091 0.000048 0.133534 -2.964221
  time 177
    0 0.000000 0.000000 0.000000 0.000000 0.000000 -0.000001
    1 0.000000 0.000000 0.000000 1.570796 0.000000 0.000000
    2 579.806586 202.648261 224.597167 0.000048 0.133534 -2.961057
  time 178
    0 0.000000 0.000000 0.000000 0.000000 0.000000 -0.000001
    1 0.000000 0.000000 0.000000 1.570796 0.000000 0.000000
    2 575.834042 203.715182 224.239701 0.000048 0.133534 -2.957893
  time 179
    0 0.000000 0.000000 0.000000 0.000000 0.000000 -0.000001
    1 0.000000 0.000000 0.000000 1.570796 0.000000 0.000000
    2 571.953884 204.715420 223.866694 0.000048 0.133534 -2.954633
  time 180
    0 0.000000 0.000000 0.000000 0.000000 0.000000 -0.000001
    1 0.000000 0.000000 0.000000 1.570796 0.000000 0.000000
    2 567.981340 205.715659 223.493686 0.000048 0.133534 -2.951373
  time 181
    0 0.000000 0.000000 0.000000 0.000000 0.000000 -0.000001
    1 0.000000 0.000000 0.000000 1.570796 0.000000 0.000000
    2 564.101181 206.649214 223.120679 0.000048 0.133534 -2.948113
  time 182
    0 0.000000 0.000000 0.000000 0.000000 0.000000 -0.000001
    1 0.000000 0.000000 0.000000 1.570796 0.000000 0.000000
    2 560.221022 207.649452 222.732129 0.000048 0.133534 -2.944853
  time 183
    0 0.000000 0.000000 0.000000 0.000000 0.000000 -0.000001
    1 0.000000 0.000000 0.000000 1.570796 0.000000 0.000000
    2 556.340864 208.583008 222.328038 0.000048 0.133534 -2.941498
  time 184
    0 0.000000 0.000000 0.000000 0.000000 0.000000 -0.000001
    1 0.000000 0.000000 0.000000 1.570796 0.000000 0.000000
    2 552.460705 209.583246 221.923946 0.000048 0.133534 -2.938238
  time 185
    0 0.000000 0.000000 0.000000 0.000000 0.000000 -0.000001
    1 0.000000 0.000000 0.000000 1.570796 0.000000 0.000000
    2 548.580546 210.516802 221.504313 0.000048 0.133534 -2.934882
  time 186
    0 0.000000 0.000000 0.000000 0.000000 0.000000 -0.000001
    1 0.000000 0.000000 0.000000 1.570796 0.000000 0.000000
    2 544.792772 211.450358 221.084679 0.000048 0.133534 -2.931527
  time 187
    0 0.000000 0.000000 0.000000 0.000000 0.000000 -0.000001
    1 0.000000 0.000000 0.000000 1.570796 0.000000 0.000000
    2 540.912613 212.317231 220.665046 0.000048 0.133534 -2.928171
  time 188
    0 0.000000 0.000000 0.000000 0.000000 0.000000 -0.000001
    1 0.000000 0.000000 0.000000 1.570796 0.000000 0.000000
    2 537.124839 213.250786 220.229870 0.000048 0.133534 -2.924719
  time 189
    0 0.000000 0.000000 0.000000 0.000000 0.000000 -0.000001
    1 0.000000 0.000000 0.000000 1.570796 0.000000 0.000000
    2 533.244680 214.117659 219.779153 0.000048 0.133534 -2.921364
  time 190
    0 0.000000 0.000000 0.000000 0.000000 0.000000 -0.000001
    1 0.000000 0.000000 0.000000 1.570796 0.000000 0.000000
    2 529.456906 214.984533 219.343977 0.000048 0.133534 -2.917912
  time 191
    0 0.000000 0.000000 0.000000 0.000000 0.000000 -0.000001
    1 0.000000 0.000000 0.000000 1.570796 0.000000 0.000000
    2 525.669132 215.851406 218.877718 0.000048 0.133534 -2.914461
  time 192
    0 0.000000 0.000000 0.000000 0.000000 0.000000 -0.000001
    1 0.000000 0.000000 0.000000 1.570796 0.000000 0.000000
    2 521.881358 216.718279 218.411459 0.000048 0.133534 -2.911009
  time 193
    0 0.000000 0.000000 0.000000 0.000000 0.000000 -0.000001
    1 0.000000 0.000000 0.000000 1.570796 0.000000 0.000000
    2 518.093584 217.518469 217.945199 0.000048 0.133534 -2.907557
  time 194
    0 0.000000 0.000000 0.000000 0.000000 0.000000 -0.000001
    1 0.000000 0.000000 0.000000 1.570796 0.000000 0.000000
    2 514.305810 218.385343 217.463398 0.000048 0.133534 -2.904010
  time 195
    0 0.000000 0.000000 0.000000 0.000000 0.000000 -0.000001
    1 0.000000 0.000000 0.000000 1.570796 0.000000 0.000000
    2 510.610421 219.185533 216.981596 0.000048 0.133534 -2.900463
  time 196
    0 0.000000 0.000000 0.000000 0.000000 0.000000 -0.000001
    1 0.000000 0.000000 0.000000 1.570796 0.000000 0.000000
    2 506.822647 219.985724 216.499795 0.000048 0.133534 -2.896915
  time 197
    0 0.000000 0.000000 0.000000 0.000000 0.000000 -0.000001
    1 0.000000 0.000000 0.000000 1.570796 0.000000 0.000000
    2 503.127257 220.785914 216.002452 0.000048 0.133534 -2.893368
  time 198
    0 0.000000 0.000000 0.000000 0.000000 0.000000 -0.000001
    1 0.000000 0.000000 0.000000 1.570796 0.000000 0.000000
    2 499.431868 221.519422 215.505108 0.000048 0.133534 -2.889820
  time 199
    0 0.000000 0.000000 0.000000 0.000000 0.000000 -0.000001
    1 0.000000 0.000000 0.000000 1.570796 0.000000 0.000000
    2 495.644094 222.319613 214.992223 0.000048 0.133534 -2.886273
  time 200
    0 0.000000 0.000000 0.000000 0.000000 0.000000 -0.000001
    1 0.000000 0.000000 0.000000 1.570796 0.000000 0.000000
    2 491.948705 223.053121 214.479337 0.000048 0.133534 -2.882629
  time 201
    0 0.000000 0.000000 0.000000 0.000000 0.000000 -0.000001
    1 0.000000 0.000000 0.000000 1.570796 0.000000 0.000000
    2 488.345700 223.786629 213.966452 0.000048 0.133534 -2.878986
  time 202
    0 0.000000 0.000000 0.000000 0.000000 0.000000 -0.000001
    1 0.000000 0.000000 0.000000 1.570796 0.000000 0.000000
    2 484.650311 224.520137 213.438025 0.000048 0.133534 -2.875343
  time 203
    0 0.000000 0.000000 0.000000 0.000000 0.000000 -0.000001
    1 0.000000 0.000000 0.000000 1.570796 0.000000 0.000000
    2 480.954921 225.253645 212.894055 0.000048 0.133534 -2.871700
  time 204
    0 0.000000 0.000000 0.000000 0.000000 0.000000 -0.000001
    1 0.000000 0.000000 0.000000 1.570796 0.000000 0.000000
    2 477.351917 225.987153 212.365628 0.000048 0.133534 -2.867960
  time 205
    0 0.000000 0.000000 0.000000 0.000000 0.000000 -0.000001
    1 0.000000 0.000000 0.000000 1.570796 0.000000 0.000000
    2 473.656527 226.653978 211.821659 0.000048 0.133492 -2.864317
  time 206
    0 0.000000 0.000000 0.000000 0.000000 0.000000 -0.000001
    1 0.000000 0.000000 0.000000 1.570796 0.000000 0.000000
    2 470.053523 227.387486 211.277689 0.000048 0.133492 -2.860578
  time 207
    0 0.000000 0.000000 0.000000 0.000000 0.000000 -0.000001
    1 0.000000 0.000000 0.000000 1.570796 0.000000 0.000000
    2 466.450518 228.054312 210.718178 0.000048 0.133450 -2.856839
  time 208
    0 0.000000 0.000000 0.000000 0.000000 0.000000 -0.000001
    1 0.000000 0.000000 0.000000 1.570796 0.000000 0.000000
    2 462.847514 228.721137 210.158667 0.000048 0.133408 -2.853099
  time 209
    0 0.000000 0.000000 0.000000 0.000000 0.000000 -0.000001
    1 0.000000 0.000000 0.000000 1.570796 0.000000 0.000000
    2 459.244509 229.321280 209.599155 0.000048 0.133324 -2.849360
  time 210
    0 0.000000 0.000000 0.000000 0.000000 0.000000 -0.000001
    1 0.000000 0.000000 0.000000 1.570796 0.000000 0.000000
    2 455.733889 229.988106 209.024102 0.000048 0.133239 -2.845525
  time 211
    0 0.000000 0.000000 0.000000 0.000000 0.000000 -0.000001
    1 0.000000 0.000000 0.000000 1.570796 0.000000 0.000000
    2 452.130885 230.588249 208.449049 0.000048 0.133155 -2.841786
  time 212
    0 0.000000 0.000000 0.000000 0.000000 0.000000 -0.000001
    1 0.000000 0.000000 0.000000 1.570796 0.000000 0.000000
    2 448.620265 231.255074 207.873996 0.000048 0.133071 -2.837951
  time 213
    0 0.000000 0.000000 0.000000 0.000000 0.000000 -0.000001
    1 0.000000 0.000000 0.000000 1.570796 0.000000 0.000000
    2 445.109645 231.855217 207.298942 0.000048 0.132945 -2.834116
  time 214
    0 0.000000 0.000000 0.000000 0.000000 0.000000 -0.000001
    1 0.000000 0.000000 0.000000 1.570796 0.000000 0.000000
    2 441.599025 232.455360 206.708347 0.000048 0.132819 -2.830281
  time 215
    0 0.000000 0.000000 0.000000 0.000000 0.000000 -0.000001
    1 0.000000 0.000000 0.000000 1.570796 0.000000 0.000000
    2 438.088405 233.055503 206.117752 0.000048 0.132650 -2.826350
  time 216
    0 0.000000 0.000000 0.000000 0.000000 0.000000 -0.000001
    1 0.000000 0.000000 0.000000 1.570796 0.000000 0.000000
    2 434.577785 233.588963 205.511614 0.000048 0.132524 -2.822515
  time 217
    0 0.000000 0.000000 0.000000 0.000000 0.000000 -0.000001
    1 0.000000 0.000000 0.000000 1.570796 0.000000 0.000000
    2 431.159550 234.189106 204.921019 0.000048 0.132313 -2.818584
  time 218
    0 0.000000 0.000000 0.000000 0.000000 0.000000 -0.000001
    1 0.000000 0.000000 0.000000 1.570796 0.000000 0.000000
    2 427.648930 234.722567 204.314882 0.000048 0.132145 -2.814653
  time 219
    0 0.000000 0.000000 0.000000 0.000000 0.000000 -0.000001
    1 0.000000 0.000000 0.000000 1.570796 0.000000 0.000000
    2 424.230695 235.256027 203.708745 0.000048 0.131934 -2.810722
  time 220
    0 0.000000 0.000000 0.000000 0.000000 0.000000 -0.000001
    1 0.000000 0.000000 0.000000 1.570796 0.000000 0.000000
    2 420.812460 235.789487 203.087065 0.000048 0.131724 -2.806791
  time 221
    0 0.000000 0.000000 0.000000 0.000000 0.000000 -0.000001
    1 0.000000 0.000000 0.000000 1.570796 0.000000 0.000000
    2 417.394225 236.322948 202.465386 0.000048 0.131513 -2.802764
  time 222
    0 0.000000 0.000000 0.000000 0.000000 0.000000 -0.000001
    1 0.000000 0.000000 0.000000 1.570796 0.000000 0.000000
    2 414.068374 236.789726 201.843707 0.000048 0.131261 -2.798737
  time 223
    0 0.000000 0.000000 0.000000 0.000000 0.000000 -0.000001
    1 0.000000 0.000000 0.000000 1.570796 0.000000 0.000000
    2 410.650139 237.323186 201.222028 0.000048 0.131008 -2.794806
  time 224
    0 0.000000 0.000000 0.000000 0.000000 0.000000 -0.000001
    1 0.000000 0.000000 0.000000 1.570796 0.000000 0.000000
    2 407.324289 237.789964 200.600348 0.000048 0.130756 -2.790780
  time 225
    0 0.000000 0.000000 0.000000 0.000000 0.000000 -0.000001
    1 0.000000 0.000000 0.000000 1.570796 0.000000 0.000000
    2 403.998439 238.256742 199.963127 0.000048 0.130461 -2.786657
  time 226
    0 0.000000 0.000000 0.000000 0.000000 0.000000 -0.000001
    1 0.000000 0.000000 0.000000 1.570796 0.000000 0.000000
    2 400.672588 238.723519 199.325906 0.000048 0.130166 -2.782630
  time 227
    0 0.000000 0.000000 0.000000 0.000000 0.000000 -0.000001
    1 0.000000 0.000000 0.000000 1.570796 0.000000 0.000000
    2 397.346738 239.190297 198.688685 0.000048 0.129872 -2.778507
  time 228
    0 0.000000 0.000000 0.000000 0.000000 0.000000 -0.000001
    1 0.000000 0.000000 0.000000 1.570796 0.000000 0.000000
    2 394.020887 239.657075 198.051464 0.000048 0.129577 -2.774481
  time 229
    0 0.000000 0.000000 0.000000 0.000000 0.000000 -0.000001
    1 0.000000 0.000000 0.000000 1.570796 0.000000 0.000000
    2 390.787422 240.057170 197.398700 0.000048 0.129240 -2.770358
  time 230
    0 0.000000 0.000000 0.000000 0.000000 0.000000 -0.000001
    1 0.000000 0.000000 0.000000 1.570796 0.000000 0.000000
    2 387.461571 240.457266 196.761479 0.000048 0.128903 -2.766235
  time 231
    0 0.000000 0.000000 0.000000 0.000000 0.000000 -0.000001
    1 0.000000 0.000000 0.000000 1.570796 0.000000 0.000000
    2 384.228106 240.924044 196.108716 0.000048 0.128525 -2.762112
  time 232
    0 0.000000 0.000000 0.000000 0.000000 0.000000 -0.000001
    1 0.000000 0.000000 0.000000 1.570796 0.000000 0.000000
    2 380.994640 241.324139 195.455953 0.000048 0.128146 -2.757894
  time 233
    0 0.000000 0.000000 0.000000 0.000000 0.000000 -0.000001
    1 0.000000 0.000000 0.000000 1.570796 0.000000 0.000000
    2 377.761174 241.657552 194.803190 0.000048 0.127767 -2.753771
  time 234
    0 0.000000 0.000000 0.000000 0.000000 0.000000 -0.000001
    1 0.000000 0.000000 0.000000 1.570796 0.000000 0.000000
    2 374.620093 242.057647 194.134884 0.000048 0.127388 -2.749553
  time 235
    0 0.000000 0.000000 0.000000 0.000000 0.000000 -0.000001
    1 0.000000 0.000000 0.000000 1.570796 0.000000 0.000000
    2 371.479012 242.457742 193.482121 0.000048 0.127009 -2.745334
  time 236
    0 0.000000 0.000000 0.000000 0.000000 0.000000 -0.000001
    1 0.000000 0.000000 0.000000 1.570796 0.000000 0.000000
    2 368.245547 242.791155 192.813816 0.000048 0.126588 -2.741115
  time 237
    0 0.000000 0.000000 0.000000 0.000000 0.000000 -0.000001
    1 0.000000 0.000000 0.000000 1.570796 0.000000 0.000000
    2 365.104466 243.124568 192.145511 0.000048 0.126167 -2.736897
  time 238
    0 0.000000 0.000000 0.000000 0.000000 0.000000 -0.000001
    1 0.000000 0.000000 0.000000 1.570796 0.000000 0.000000
    2 362.055770 243.457980 191.477206 0.000048 0.125704 -2.732678
  time 239
    0 0.000000 0.000000 0.000000 0.000000 0.000000 -0.000001
    1 0.000000 0.000000 0.000000 1.570796 0.000000 0.000000
    2 358.914689 243.791393 190.808900 0.000048 0.125241 -2.728364
  time 240
    0 0.000000 0.000000 0.000000 0.000000 0.000000 -0.000001
    1 0.000000 0.000000 0.000000 1.570796 0.000000 0.000000
    2 355.773608 244.124806 190.140595 0.000048 0.124778 -2.724049
  time 241
    0 0.000000 0.000000 0.000000 0.000000 0.000000 -0.000001
    1 0.000000 0.000000 0.000000 1.570796 0.000000 0.000000
    2 352.724912 244.458219 189.472290 0.000048 0.124315 -2.719735
  time 242
    0 0.000000 0.000000 0.000000 0.000000 0.000000 -0.000001
    1 0.000000 0.000000 0.000000 1.570796 0.000000 0.000000
    2 349.676215 244.724949 188.788443 0.000048 0.123810 -2.715420
  time 243
    0 0.000000 0.000000 0.000000 0.000000 0.000000 -0.000001
    1 0.000000 0.000000 0.000000 1.570796 0.000000 0.000000
    2 346.627519 245.058361 188.120138 0.000048 0.123347 -2.711106
  time 244
    0 0.000000 0.000000 0.000000 0.000000 0.000000 -0.000001
    1 0.000000 0.000000 0.000000 1.570796 0.000000 0.000000
    2 343.671208 245.325092 187.436291 0.000048 0.122841 -2.706792
  time 245
    0 0.000000 0.000000 0.000000 0.000000 0.000000 -0.000001
    1 0.000000 0.000000 0.000000 1.570796 0.000000 0.000000
    2 340.622512 245.591822 186.752443 0.000048 0.122294 -2.702381
  time 246
    0 0.000000 0.000000 0.000000 0.000000 0.000000 -0.000001
    1 0.000000 0.000000 0.000000 1.570796 0.000000 0.000000
    2 337.666200 245.858552 186.068596 0.000048 0.121789 -2.697971
  time 247
    0 0.000000 0.000000 0.000000 0.000000 0.000000 -0.000001
    1 0.000000 0.000000 0.000000 1.570796 0.000000 0.000000
    2 334.709889 246.058600 185.384749 0.000048 0.121242 -2.693561
  time 248
    0 0.000000 0.000000 0.000000 0.000000 0.000000 -0.000001
    1 0.000000 0.000000 0.000000 1.570796 0.000000 0.000000
    2 331.753577 246.325330 184.700902 0.000048 0.120652 -2.689150
  time 249
    0 0.000000 0.000000 0.000000 0.000000 0.000000 -0.000001
    1 0.000000 0.000000 0.000000 1.570796 0.000000 0.000000
    2 328.889650 246.592060 184.017055 0.000048 0.120105 -2.684740
  time 250
    0 0.000000 0.000000 0.000000 0.000000 0.000000 -0.000001
    1 0.000000 0.000000 0.000000 1.570796 0.000000 0.000000
    2 326.025724 246.792108 183.333208 0.000048 0.119516 -2.680330
  time 251
    0 0.000000 0.000000 0.000000 0.000000 0.000000 -0.000001
    1 0.000000 0.000000 0.000000 1.570796 0.000000 0.000000
    2 323.069412 246.992155 182.649360 0.000048 0.118926 -2.675823
  time 252
    0 0.000000 0.000000 0.000000 0.000000 0.000000 -0.000001
    1 0.000000 0.000000 0.000000 1.570796 0.000000 0.000000
    2 320.205485 247.192203 181.965513 0.000048 0.118337 -2.671317
  time 253
    0 0.000000 0.000000 0.000000 0.000000 0.000000 -0.000001
    1 0.000000 0.000000 0.000000 1.570796 0.000000 0.000000
    2 317.433943 247.392251 181.281666 0.000048 0.117705 -2.666811
  time 254
    0 0.000000 0.000000 0.000000 0.000000 0.000000 -0.000001
    1 0.000000 0.000000 0.000000 1.570796 0.000000 0.000000
    2 314.570017 247.592298 180.582277 0.000048 0.117116 -2.662305
  time 255
    0 0.000000 0.000000 0.000000 0.000000 0.000000 -0.000001
    1 0.000000 0.000000 0.000000 1.570796 0.000000 0.000000
    2 311.798475 247.725663 179.898430 0.000048 0.116485 -2.657799
  time 256
    0 0.000000 0.000000 0.000000 0.000000 0.000000 -0.000001
    1 0.000000 0.000000 0.000000 1.570796 0.000000 0.000000
    2 309.026933 247.925711 179.214583 0.000048 0.115811 -2.653292
  time 257
    0 0.000000 0.000000 0.000000 0.000000 0.000000 -0.000001
    1 0.000000 0.000000 0.000000 1.570796 0.000000 0.000000
    2 306.255391 248.059076 178.515193 0.000048 0.115180 -2.648690
  time 258
    0 0.000000 0.000000 0.000000 0.000000 0.000000 -0.000001
    1 0.000000 0.000000 0.000000 1.570796 0.000000 0.000000
    2 303.576233 248.192441 177.831346 0.000048 0.114506 -2.644088
  time 259
    0 0.000000 0.000000 0.000000 0.000000 0.000000 -0.000001
    1 0.000000 0.000000 0.000000 1.570796 0.000000 0.000000
    2 300.804691 248.325806 177.147499 0.000048 0.113832 -2.639582
  time 260
    0 0.000000 0.000000 0.000000 0.000000 0.000000 -0.000001
    1 0.000000 0.000000 0.000000 1.570796 0.000000 0.000000
    2 298.125534 248.459171 176.448110 0.000048 0.113159 -2.634884
  time 261
    0 0.000000 0.000000 0.000000 0.000000 0.000000 -0.000001
    1 0.000000 0.000000 0.000000 1.570796 0.000000 0.000000
    2 295.446377 248.592536 175.764263 0.000048 0.112443 -2.630282
  time 262
    0 0.000000 0.000000 0.000000 0.000000 0.000000 -0.000001
    1 0.000000 0.000000 0.000000 1.570796 0.000000 0.000000
    2 292.767220 248.659219 175.080416 0.000048 0.111770 -2.625680
  time 263
    0 0.000000 0.000000 0.000000 0.000000 0.000000 -0.000001
    1 0.000000 0.000000 0.000000 1.570796 0.000000 0.000000
    2 290.180447 248.792584 174.381027 0.000048 0.111012 -2.620982
  time 264
    0 0.000000 0.000000 0.000000 0.000000 0.000000 -0.000001
    1 0.000000 0.000000 0.000000 1.570796 0.000000 0.000000
    2 287.593675 248.859267 173.697179 0.000048 0.110296 -2.616380
  time 265
    0 0.000000 0.000000 0.000000 0.000000 0.000000 -0.000001
    1 0.000000 0.000000 0.000000 1.570796 0.000000 0.000000
    2 285.006902 248.925949 173.013332 0.000048 0.109581 -2.611682
  time 266
    0 0.000000 0.000000 0.000000 0.000000 0.000000 -0.000001
    1 0.000000 0.000000 0.000000 1.570796 0.000000 0.000000
    2 282.420130 248.992632 172.313943 0.000048 0.108823 -2.606984
  time 267
    0 0.000000 0.000000 0.000000 0.000000 0.000000 -0.000001
    1 0.000000 0.000000 0.000000 1.570796 0.000000 0.000000
    2 279.925742 249.059314 171.630096 0.000048 0.108065 -2.602286
  time 268
    0 0.000000 0.000000 0.000000 0.000000 0.000000 -0.000001
    1 0.000000 0.000000 0.000000 1.570796 0.000000 0.000000
    2 277.338969 249.125997 170.946249 0.000048 0.107307 -2.597492
  time 269
    0 0.000000 0.000000 0.000000 0.000000 0.000000 -0.000001
    1 0.000000 0.000000 0.000000 1.570796 0.000000 0.000000
    2 274.844581 249.192679 170.262402 0.000048 0.106507 -2.592794
  time 270
    0 0.000000 0.000000 0.000000 0.000000 0.000000 -0.000001
    1 0.000000 0.000000 0.000000 1.570796 0.000000 0.000000
    2 272.442578 249.192679 169.578554 0.000048 0.105750 -2.588000
  time 271
    0 0.000000 0.000000 0.000000 0.000000 0.000000 -0.000001
    1 0.000000 0.000000 0.000000 1.570796 0.000000 0.000000
    2 269.948191 249.259362 168.910249 0.000048 0.104950 -2.583302
  time 272
    0 0.000000 0.000000 0.000000 0.000000 0.000000 -0.000001
    1 0.000000 0.000000 0.000000 1.570796 0.000000 0.000000
    2 267.546188 249.259362 168.226402 0.000048 0.104150 -2.578508
  time 273
    0 0.000000 0.000000 0.000000 0.000000 0.000000 -0.000001
    1 0.000000 0.000000 0.000000 1.570796 0.000000 0.000000
    2 265.051800 249.326044 167.542555 0.000048 0.103308 -2.573715
  time 274
    0 0.000000 0.000000 0.000000 0.000000 0.000000 -0.000001
    1 0.000000 0.000000 0.000000 1.570796 0.000000 0.000000
    2 262.649797 249.326044 166.874250 0.000048 0.102508 -2.568825
  time 275
    0 0.000000 0.000000 0.000000 0.000000 0.000000 -0.000001
    1 0.000000 0.000000 0.000000 1.570796 0.000000 0.000000
    2 260.247794 249.392727 166.190403 0.000048 0.101666 -2.564031
  time 276
    0 0.000000 0.000000 0.000000 0.000000 0.000000 -0.000001
    1 0.000000 0.000000 0.000000 1.570796 0.000000 0.000000
    2 257.938175 249.459410 165.522097 0.000048 0.100824 -2.559141
  time 277
    0 0.000000 0.000000 0.000000 0.000000 0.000000 -0.000001
    1 0.000000 0.000000 0.000000 1.570796 0.000000 0.000000
    2 255.536172 249.526092 164.853792 0.000048 0.099982 -2.554348
  time 278
    0 0.000000 0.000000 0.000000 0.000000 0.000000 -0.000001
    1 0.000000 0.000000 0.000000 1.570796 0.000000 0.000000
    2 253.226554 249.592775 164.185487 0.000048 0.099098 -2.549458
  time 279
    0 0.000000 0.000000 0.000000 0.000000 0.000000 -0.000001
    1 0.000000 0.000000 0.000000 1.570796 0.000000 0.000000
    2 250.916936 249.659457 163.517182 0.000048 0.098256 -2.544568
  time 280
    0 0.000000 0.000000 0.000000 0.000000 0.000000 -0.000001
    1 0.000000 0.000000 0.000000 1.570796 0.000000 0.000000
    2 248.607317 249.792822 162.864419 0.000048 0.097372 -2.539678
  time 281
    0 0.000000 0.000000 0.000000 0.000000 0.000000 -0.000001
    1 0.000000 0.000000 0.000000 1.570796 0.000000 0.000000
    2 246.297699 249.859505 162.196113 0.000048 0.096488 -2.534693
  time 282
    0 0.000000 0.000000 0.000000 0.000000 0.000000 -0.000001
    1 0.000000 0.000000 0.000000 1.570796 0.000000 0.000000
    2 243.988081 249.992870 161.543350 0.000048 0.095562 -2.529803
  time 283
    0 0.000000 0.000000 0.000000 0.000000 0.000000 -0.000001
    1 0.000000 0.000000 0.000000 1.570796 0.000000 0.000000
    2 241.770847 250.059552 160.890587 0.000048 0.094678 -2.524818
  time 284
    0 0.000000 0.000000 0.000000 0.000000 0.000000 -0.000001
    1 0.000000 0.000000 0.000000 1.570796 0.000000 0.000000
    2 239.553613 250.192918 160.222282 0.000048 0.093752 -2.519832
  time 285
    0 0.000000 0.000000 0.000000 0.000000 0.000000 -0.000001
    1 0.000000 0.000000 0.000000 1.570796 0.000000 0.000000
    2 237.336380 250.326283 159.585061 0.000048 0.092826 -2.514846
  time 286
    0 0.000000 0.000000 0.000000 0.000000 0.000000 -0.000001
    1 0.000000 0.000000 0.000000 1.570796 0.000000 0.000000
    2 235.119146 250.459648 158.932297 0.000048 0.091899 -2.509861
  time 287
    0 0.000000 0.000000 0.000000 0.000000 0.000000 -0.000001
    1 0.000000 0.000000 0.000000 1.570796 0.000000 0.000000
    2 232.901913 250.593013 158.279534 0.000048 0.090973 -2.504875
  time 288
    0 0.000000 0.000000 0.000000 0.000000 0.000000 -0.000001
    1 0.000000 0.000000 0.000000 1.570796 0.000000 0.000000
    2 230.777064 250.726378 157.642313 0.000048 0.090005 -2.499890
  time 289
    0 0.000000 0.000000 0.000000 0.000000 0.000000 -0.000001
    1 0.000000 0.000000 0.000000 1.570796 0.000000 0.000000
    2 228.652215 250.926426 157.005092 0.000048 0.089079 -2.494808
  time 290
    0 0.000000 0.000000 0.000000 0.000000 0.000000 -0.000001
    1 0.000000 0.000000 0.000000 1.570796 0.000000 0.000000
    2 226.527366 251.059791 156.367871 0.000048 0.088111 -2.489727
  time 291
    0 0.000000 0.000000 0.000000 0.000000 0.000000 -0.000001
    1 0.000000 0.000000 0.000000 1.570796 0.000000 0.000000
    2 224.402517 251.259838 155.730649 0.000048 0.087100 -2.484741
  time 292
    0 0.000000 0.000000 0.000000 0.000000 0.000000 -0.000001
    1 0.000000 0.000000 0.000000 1.570796 0.000000 0.000000
    2 222.277668 251.393203 155.093428 0.000048 0.086132 -2.479660
  time 293
    0 0.000000 0.000000 0.000000 0.000000 0.000000 -0.000001
    1 0.000000 0.000000 0.000000 1.570796 0.000000 0.000000
    2 220.245204 251.593251 154.471749 0.000048 0.085164 -2.474578
  time 294
    0 0.000000 0.000000 0.000000 0.000000 0.000000 -0.000001
    1 0.000000 0.000000 0.000000 1.570796 0.000000 0.000000
    2 218.212740 251.793299 153.850070 0.000048 0.084153 -2.469401
  time 295
    0 0.000000 0.000000 0.000000 0.000000 0.000000 -0.000001
    1 0.000000 0.000000 0.000000 1.570796 0.000000 0.000000
    2 216.087891 251.926664 153.228390 0.000048 0.083143 -2.464319
  time 296
    0 0.000000 0.000000 0.000000 0.000000 0.000000 -0.000001
    1 0.000000 0.000000 0.000000 1.570796 0.000000 0.000000
    2 214.055427 252.126711 152.606711 0.000048 0.082133 -2.459142
  time 297
    0 0.000000 0.000000 0.000000 0.000000 0.000000 -0.000001
    1 0.000000 0.000000 0.000000 1.570796 0.000000 0.000000
    2 212.115348 252.326759 151.985032 0.000048 0.081122 -2.454061
  time 298
    0 0.000000 0.000000 0.000000 0.000000 0.000000 -0.000001
    1 0.000000 0.000000 0.000000 1.570796 0.000000 0.000000
    2 210.082883 252.593489 151.378895 0.000048 0.080070 -2.448883
  time 299
    0 0.000000 0.000000 0.000000 0.000000 0.000000 -0.000001
    1 0.000000 0.000000 0.000000 1.570796 0.000000 0.000000
    2 208.142804 252.793537 150.757215 0.000048 0.079060 -2.443706
  time 300
    0 0.000000 0.000000 0.000000 0.000000 0.000000 -0.000001
    1 0.000000 0.000000 0.000000 1.570796 0.000000 0.000000
    2 206.202725 252.993585 150.151078 0.000048 0.078007 -2.438528
  time 301
    0 0.000000 0.000000 0.000000 0.000000 0.000000 -0.000001
    1 0.000000 0.000000 0.000000 1.570796 0.000000 0.000000
    2 204.262645 253.193632 149.544941 0.000048 0.076955 -2.433255
  time 302
    0 0.000000 0.000000 0.000000 0.000000 0.000000 -0.000001
    1 0.000000 0.000000 0.000000 1.570796 0.000000 0.000000
    2 202.322566 253.460362 148.954346 0.000048 0.075902 -2.428078
  time 303
    0 0.000000 0.000000 0.000000 0.000000 0.000000 -0.000001
    1 0.000000 0.000000 0.000000 1.570796 0.000000 0.000000
    2 200.382486 253.660410 148.363750 0.000048 0.074808 -2.422901
  time 304
    0 0.000000 0.000000 0.000000 0.000000 0.000000 -0.000001
    1 0.000000 0.000000 0.000000 1.570796 0.000000 0.000000
    2 198.534792 253.927140 147.757613 0.000048 0.073755 -2.417627
  time 305
    0 0.000000 0.000000 0.000000 0.000000 0.000000 -0.000001
    1 0.000000 0.000000 0.000000 1.570796 0.000000 0.000000
    2 196.594712 254.193870 147.167018 0.000048 0.072661 -2.412354
  time 306
    0 0.000000 0.000000 0.000000 0.000000 0.000000 -0.000001
    1 0.000000 0.000000 0.000000 1.570796 0.000000 0.000000
    2 194.747018 254.393918 146.591965 0.000048 0.071566 -2.407081
  time 307
    0 0.000000 0.000000 0.000000 0.000000 0.000000 -0.000001
    1 0.000000 0.000000 0.000000 1.570796 0.000000 0.000000
    2 192.991708 254.660648 146.001369 0.000048 0.070472 -2.401808
  time 308
    0 0.000000 0.000000 0.000000 0.000000 0.000000 -0.000001
    1 0.000000 0.000000 0.000000 1.570796 0.000000 0.000000
    2 191.144013 254.927378 145.426316 0.000048 0.069377 -2.396439
  time 309
    0 0.000000 0.000000 0.000000 0.000000 0.000000 -0.000001
    1 0.000000 0.000000 0.000000 1.570796 0.000000 0.000000
    2 189.296318 255.194109 144.851263 0.000048 0.068283 -2.391165
  time 310
    0 0.000000 0.000000 0.000000 0.000000 0.000000 -0.000001
    1 0.000000 0.000000 0.000000 1.570796 0.000000 0.000000
    2 187.541009 255.460839 144.291751 0.000048 0.067146 -2.385892
  time 311
    0 0.000000 0.000000 0.000000 0.000000 0.000000 -0.000001
    1 0.000000 0.000000 0.000000 1.570796 0.000000 0.000000
    2 185.785699 255.727569 143.716698 0.000048 0.066009 -2.380523
  time 312
    0 0.000000 0.000000 0.000000 0.000000 0.000000 -0.000001
    1 0.000000 0.000000 0.000000 1.570796 0.000000 0.000000
    2 184.030389 255.994299 143.157187 0.000048 0.064915 -2.375154
  time 313
    0 0.000000 0.000000 0.000000 0.000000 0.000000 -0.000001
    1 0.000000 0.000000 0.000000 1.570796 0.000000 0.000000
    2 182.275079 256.327712 142.597675 0.000048 0.063778 -2.369785
  time 314
    0 0.000000 0.000000 0.000000 0.000000 0.000000 -0.000001
    1 0.000000 0.000000 0.000000 1.570796 0.000000 0.000000
    2 180.612154 256.594442 142.038164 0.000048 0.062599 -2.364416
  time 315
    0 0.000000 0.000000 0.000000 0.000000 0.000000 -0.000001
    1 0.000000 0.000000 0.000000 1.570796 0.000000 0.000000
    2 178.856844 256.861172 141.494195 0.000048 0.061463 -2.359047
  time 316
    0 0.000000 0.000000 0.000000 0.000000 0.000000 -0.000001
    1 0.000000 0.000000 0.000000 1.570796 0.000000 0.000000
    2 177.193918 257.194585 140.950225 0.000048 0.060326 -2.353582
  time 317
    0 0.000000 0.000000 0.000000 0.000000 0.000000 -0.000001
    1 0.000000 0.000000 0.000000 1.570796 0.000000 0.000000
    2 175.530993 257.461315 140.406256 0.000048 0.059147 -2.348117
  time 318
    0 0.000000 0.000000 0.000000 0.000000 0.000000 -0.000001
    1 0.000000 0.000000 0.000000 1.570796 0.000000 0.000000
    2 173.868068 257.794728 139.862287 0.000048 0.057969 -2.342652
  time 319
    0 0.000000 0.000000 0.000000 0.000000 0.000000 -0.000001
    1 0.000000 0.000000 0.000000 1.570796 0.000000 0.000000
    2 172.205143 258.061458 139.333859 0.000048 0.056790 -2.337091
  time 320
    0 0.000000 0.000000 0.000000 0.000000 0.000000 -0.000001
    1 0.000000 0.000000 0.000000 1.570796 0.000000 0.000000
    2 170.634602 258.394871 138.805432 0.000048 0.055611 -2.331530
  time 321
    0 0.000000 0.000000 0.000000 0.000000 0.000000 -0.000001
    1 0.000000 0.000000 0.000000 1.570796 0.000000 0.000000
    2 169.064062 258.728284 138.277005 0.000048 0.054432 -2.326065
  time 322
    0 0.000000 0.000000 0.000000 0.000000 0.000000 -0.000001
    1 0.000000 0.000000 0.000000 1.570796 0.000000 0.000000
    2 167.401137 259.061696 137.764119 0.000048 0.053254 -2.320408
  time 323
    0 0.000000 0.000000 0.000000 0.000000 0.000000 -0.000001
    1 0.000000 0.000000 0.000000 1.570796 0.000000 0.000000
    2 165.830596 259.328427 137.235692 0.000048 0.052033 -2.314848
  time 324
    0 0.000000 0.000000 0.000000 0.000000 0.000000 -0.000001
    1 0.000000 0.000000 0.000000 1.570796 0.000000 0.000000
    2 164.352440 259.661839 136.738349 0.000048 0.050854 -2.309191
  time 325
    0 0.000000 0.000000 0.000000 0.000000 0.000000 -0.000001
    1 0.000000 0.000000 0.000000 1.570796 0.000000 0.000000
    2 162.781900 259.995252 136.225463 0.000048 0.049633 -2.303630
  time 326
    0 0.000000 0.000000 0.000000 0.000000 0.000000 -0.000001
    1 0.000000 0.000000 0.000000 1.570796 0.000000 0.000000
    2 161.303744 260.328665 135.728120 0.000048 0.048412 -2.297877
  time 327
    0 0.000000 0.000000 0.000000 0.000000 0.000000 -0.000001
    1 0.000000 0.000000 0.000000 1.570796 0.000000 0.000000
    2 159.733204 260.662078 135.230776 0.000048 0.047192 -2.292221
  time 328
    0 0.000000 0.000000 0.000000 0.000000 0.000000 -0.000001
    1 0.000000 0.000000 0.000000 1.570796 0.000000 0.000000
    2 158.255048 260.995490 134.733433 0.000048 0.045971 -2.286564
  time 329
    0 0.000000 0.000000 0.000000 0.000000 0.000000 -0.000001
    1 0.000000 0.000000 0.000000 1.570796 0.000000 0.000000
    2 156.869277 261.328903 134.251632 0.000048 0.044708 -2.280907
  time 330
    0 0.000000 0.000000 0.000000 0.000000 0.000000 -0.000001
    1 0.000000 0.000000 0.000000 1.570796 0.000000 0.000000
    2 155.391121 261.662316 133.769830 0.000048 0.043487 -2.275155
  time 331
    0 0.000000 0.000000 0.000000 0.000000 0.000000 -0.000001
    1 0.000000 0.000000 0.000000 1.570796 0.000000 0.000000
    2 153.912966 262.062411 133.288029 0.000048 0.042224 -2.269402
  time 332
    0 0.000000 0.000000 0.000000 0.000000 0.000000 -0.000001
    1 0.000000 0.000000 0.000000 1.570796 0.000000 0.000000
    2 152.527195 262.395824 132.821769 0.000048 0.040961 -2.263745
  time 333
    0 0.000000 0.000000 0.000000 0.000000 0.000000 -0.000001
    1 0.000000 0.000000 0.000000 1.570796 0.000000 0.000000
    2 151.141424 262.729236 132.355510 0.000048 0.039740 -2.257993
  time 334
    0 0.000000 0.000000 0.000000 0.000000 0.000000 -0.000001
    1 0.000000 0.000000 0.000000 1.570796 0.000000 0.000000
    2 149.755653 263.062649 131.889251 0.000048 0.038477 -2.252240
  time 335
    0 0.000000 0.000000 0.000000 0.000000 0.000000 -0.000001
    1 0.000000 0.000000 0.000000 1.570796 0.000000 0.000000
    2 148.369882 263.462745 131.438533 0.000048 0.037214 -2.246487
  time 336
    0 0.000000 0.000000 0.000000 0.000000 0.000000 -0.000001
    1 0.000000 0.000000 0.000000 1.570796 0.000000 0.000000
    2 147.076495 263.796157 130.987816 0.000048 0.035909 -2.240735
  time 337
    0 0.000000 0.000000 0.000000 0.000000 0.000000 -0.000001
    1 0.000000 0.000000 0.000000 1.570796 0.000000 0.000000
    2 145.690724 264.129570 130.537098 0.000048 0.034646 -2.234982
  time 338
    0 0.000000 0.000000 0.000000 0.000000 0.000000 -0.000001
    1 0.000000 0.000000 0.000000 1.570796 0.000000 0.000000
    2 144.397338 264.529665 130.101923 0.000048 0.033384 -2.229230
  time 339
    0 0.000000 0.000000 0.000000 0.000000 0.000000 -0.000001
    1 0.000000 0.000000 0.000000 1.570796 0.000000 0.000000
    2 143.103952 264.863078 129.666747 0.000048 0.032079 -2.223477
  time 340
    0 0.000000 0.000000 0.000000 0.000000 0.000000 -0.000001
    1 0.000000 0.000000 0.000000 1.570796 0.000000 0.000000
    2 141.810566 265.263173 129.231572 0.000048 0.030816 -2.217724
  time 341
    0 0.000000 0.000000 0.000000 0.000000 0.000000 -0.000001
    1 0.000000 0.000000 0.000000 1.570796 0.000000 0.000000
    2 140.517179 265.596586 128.811938 0.000048 0.029511 -2.211876
  time 342
    0 0.000000 0.000000 0.000000 0.000000 0.000000 -0.000001
    1 0.000000 0.000000 0.000000 1.570796 0.000000 0.000000
    2 139.316178 265.996681 128.392305 0.000048 0.028248 -2.206219
  time 343
    0 0.000000 0.000000 0.000000 0.000000 0.000000 -0.000001
    1 0.000000 0.000000 0.000000 1.570796 0.000000 0.000000
    2 138.022791 266.330094 127.972671 0.000048 0.026985 -2.200467
  time 344
    0 0.000000 0.000000 0.000000 0.000000 0.000000 -0.000001
    1 0.000000 0.000000 0.000000 1.570796 0.000000 0.000000
    2 136.821790 266.730189 127.568580 0.000048 0.025722 -2.194618
  time 345
    0 0.000000 0.000000 0.000000 0.000000 0.000000 -0.000001
    1 0.000000 0.000000 0.000000 1.570796 0.000000 0.000000
    2 135.620788 267.130285 127.164488 0.000048 0.024459 -2.188961
  time 346
    0 0.000000 0.000000 0.000000 0.000000 0.000000 -0.000001
    1 0.000000 0.000000 0.000000 1.570796 0.000000 0.000000
    2 134.419787 267.463697 126.775939 0.000048 0.023238 -2.183209
  time 347
    0 0.000000 0.000000 0.000000 0.000000 0.000000 -0.000001
    1 0.000000 0.000000 0.000000 1.570796 0.000000 0.000000
    2 133.218785 267.863793 126.371847 0.000048 0.021975 -2.177456
  time 348
    0 0.000000 0.000000 0.000000 0.000000 0.000000 -0.000001
    1 0.000000 0.000000 0.000000 1.570796 0.000000 0.000000
    2 132.110169 268.197205 125.998840 0.000048 0.020754 -2.171799
  time 349
    0 0.000000 0.000000 0.000000 0.000000 0.000000 -0.000001
    1 0.000000 0.000000 0.000000 1.570796 0.000000 0.000000
    2 131.001552 268.597301 125.625832 0.000048 0.019533 -2.166047
  time 350
    0 0.000000 0.000000 0.000000 0.000000 0.000000 -0.000001
    1 0.000000 0.000000 0.000000 1.570796 0.000000 0.000000
    2 129.800550 268.997396 125.237283 0.000048 0.018313 -2.160390
  time 351
    0 0.000000 0.000000 0.000000 0.000000 0.000000 -0.000001
    1 0.000000 0.000000 0.000000 1.570796 0.000000 0.000000
    2 128.784318 269.330809 124.879817 0.000048 0.017134 -2.154733
  time 352
    0 0.000000 0.000000 0.000000 0.000000 0.000000 -0.000001
    1 0.000000 0.000000 0.000000 1.570796 0.000000 0.000000
    2 127.675701 269.730904 124.522352 0.000048 0.015955 -2.149077
  time 353
    0 0.000000 0.000000 0.000000 0.000000 0.000000 -0.000001
    1 0.000000 0.000000 0.000000 1.570796 0.000000 0.000000
    2 126.567085 270.130999 124.164886 0.000048 0.014734 -2.143420
  time 354
    0 0.000000 0.000000 0.000000 0.000000 0.000000 -0.000001
    1 0.000000 0.000000 0.000000 1.570796 0.000000 0.000000
    2 125.550852 270.531095 123.822962 0.000048 0.013555 -2.137763
  time 355
    0 0.000000 0.000000 0.000000 0.000000 0.000000 -0.000001
    1 0.000000 0.000000 0.000000 1.570796 0.000000 0.000000
    2 124.442236 270.864507 123.481039 0.000048 0.012419 -2.132202
  time 356
    0 0.000000 0.000000 0.000000 0.000000 0.000000 -0.000001
    1 0.000000 0.000000 0.000000 1.570796 0.000000 0.000000
    2 123.426004 271.264603 123.139115 0.000048 0.011240 -2.126546
  time 357
    0 0.000000 0.000000 0.000000 0.000000 0.000000 -0.000001
    1 0.000000 0.000000 0.000000 1.570796 0.000000 0.000000
    2 122.409772 271.664698 122.812734 0.000048 0.010103 -2.121081
  time 358
    0 0.000000 0.000000 0.000000 0.000000 0.000000 -0.000001
    1 0.000000 0.000000 0.000000 1.570796 0.000000 0.000000
    2 121.485924 272.064793 122.486352 0.000048 0.008967 -2.115520
  time 359
    0 0.000000 0.000000 0.000000 0.000000 0.000000 -0.000001
    1 0.000000 0.000000 0.000000 1.570796 0.000000 0.000000
    2 120.469692 272.398206 122.175512 0.000048 0.007830 -2.109959
  time 360
    0 0.000000 0.000000 0.000000 0.000000 0.000000 -0.000001
    1 0.000000 0.000000 0.000000 1.570796 0.000000 0.000000
    2 119.545845 272.798301 121.864673 0.000048 0.006694 -2.104494
  time 361
    0 0.000000 0.000000 0.000000 0.000000 0.000000 -0.000001
    1 0.000000 0.000000 0.000000 1.570796 0.000000 0.000000
    2 118.621998 273.198396 121.569375 0.000048 0.005599 -2.099029
  time 362
    0 0.000000 0.000000 0.000000 0.000000 0.000000 -0.000001
    1 0.000000 0.000000 0.000000 1.570796 0.000000 0.000000
    2 117.605765 273.598492 121.258536 0.000048 0.004462 -2.093564
  time 363
    0 0.000000 0.000000 0.000000 0.000000 0.000000 -0.000001
    1 0.000000 0.000000 0.000000 1.570796 0.000000 0.000000
    2 116.774303 273.931904 120.978780 0.000048 0.003368 -2.088195
  time 364
    0 0.000000 0.000000 0.000000 0.000000 0.000000 -0.000001
    1 0.000000 0.000000 0.000000 1.570796 0.000000 0.000000
    2 115.850456 274.332000 120.699024 0.000048 0.002315 -2.082826
  time 365
    0 0.000000 0.000000 0.000000 0.000000 0.000000 -0.000001
    1 0.000000 0.000000 0.000000 1.570796 0.000000 0.000000
    2 114.926608 274.732095 120.419269 0.000048 0.001221 -2.077457
  time 366
    0 0.000000 0.000000 0.000000 0.000000 0.000000 -0.000001
    1 0.000000 0.000000 0.000000 1.570796 0.000000 0.000000
    2 114.095146 275.065508 120.155055 0.000048 0.000168 -2.072184
  time 367
    0 0.000000 0.000000 0.000000 0.000000 0.000000 -0.000001
    1 0.000000 0.000000 0.000000 1.570796 0.000000 0.000000
    2 113.263683 275.465603 119.890841 0.000048 -0.000842 -2.066910
  time 368
    0 0.000000 0.000000 0.000000 0.000000 0.000000 -0.000001
    1 0.000000 0.000000 0.000000 1.570796 0.000000 0.000000
    2 112.432220 275.865698 119.626628 0.000048 -0.001894 -2.061637
  time 369
    0 0.000000 0.000000 0.000000 0.000000 0.000000 -0.000001
    1 0.000000 0.000000 0.000000 1.570796 0.000000 0.000000
    2 111.600758 276.265794 119.377956 0.000048 -0.002905 -2.056460
  time 370
    0 0.000000 0.000000 0.000000 0.000000 0.000000 -0.000001
    1 0.000000 0.000000 0.000000 1.570796 0.000000 0.000000
    2 110.769295 276.599206 119.144826 0.000048 -0.003915 -2.051282
  time 371
    0 0.000000 0.000000 0.000000 0.000000 0.000000 -0.000001
    1 0.000000 0.000000 0.000000 1.570796 0.000000 0.000000
    2 110.030217 276.999302 118.911696 0.000048 -0.004925 -2.046105
  time 372
    0 0.000000 0.000000 0.000000 0.000000 0.000000 -0.000001
    1 0.000000 0.000000 0.000000 1.570796 0.000000 0.000000
    2 109.198755 277.399397 118.678567 0.000048 -0.005936 -2.041024
  time 373
    0 0.000000 0.000000 0.000000 0.000000 0.000000 -0.000001
    1 0.000000 0.000000 0.000000 1.570796 0.000000 0.000000
    2 108.459677 277.732810 118.460979 0.000048 -0.006904 -2.035942
  time 374
    0 0.000000 0.000000 0.000000 0.000000 0.000000 -0.000001
    1 0.000000 0.000000 0.000000 1.570796 0.000000 0.000000
    2 107.720599 278.132905 118.243391 0.000048 -0.007872 -2.030957
  time 375
    0 0.000000 0.000000 0.000000 0.000000 0.000000 -0.000001
    1 0.000000 0.000000 0.000000 1.570796 0.000000 0.000000
    2 106.981521 278.466318 118.041346 0.000048 -0.008841 -2.026067
  time 376
    0 0.000000 0.000000 0.000000 0.000000 0.000000 -0.000001
    1 0.000000 0.000000 0.000000 1.570796 0.000000 0.000000
    2 106.334828 278.866413 117.854842 0.000048 -0.009767 -2.021081
  time 377
    0 0.000000 0.000000 0.000000 0.000000 0.000000 -0.000001
    1 0.000000 0.000000 0.000000 1.570796 0.000000 0.000000
    2 105.595750 279.199826 117.652796 0.000048 -0.010735 -2.016192
  time 378
    0 0.000000 0.000000 0.000000 0.000000 0.000000 -0.000001
    1 0.000000 0.000000 0.000000 1.570796 0.000000 0.000000
    2 104.949057 279.599921 117.481834 0.000048 -0.011619 -2.011398
  time 379
    0 0.000000 0.000000 0.000000 0.000000 0.000000 -0.000001
    1 0.000000 0.000000 0.000000 1.570796 0.000000 0.000000
    2 104.302364 279.933334 117.295330 0.000048 -0.012545 -2.006604
  time 380
    0 0.000000 0.000000 0.000000 0.000000 0.000000 -0.000001
    1 0.000000 0.000000 0.000000 1.570796 0.000000 0.000000
    2 103.655671 280.333429 117.139911 0.000048 -0.013429 -2.001906
  time 381
    0 0.000000 0.000000 0.000000 0.000000 0.000000 -0.000001
    1 0.000000 0.000000 0.000000 1.570796 0.000000 0.000000
    2 103.008978 280.666842 116.968949 0.000048 -0.014313 -1.997208
  time 382
    0 0.000000 0.000000 0.000000 0.000000 0.000000 -0.000001
    1 0.000000 0.000000 0.000000 1.570796 0.000000 0.000000
    2 102.454669 281.066937 116.813529 0.000048 -0.015197 -1.992606
  time 383
    0 0.000000 0.000000 0.000000 0.000000 0.000000 -0.000001
    1 0.000000 0.000000 0.000000 1.570796 0.000000 0.000000
    2 101.807976 281.400350 116.673651 0.000048 -0.016039 -1.988004
  time 384
    0 0.000000 0.000000 0.000000 0.000000 0.000000 -0.000001
    1 0.000000 0.000000 0.000000 1.570796 0.000000 0.000000
    2 101.253668 281.733762 116.533773 0.000048 -0.016881 -1.983593
  time 385
    0 0.000000 0.000000 0.000000 0.000000 0.000000 -0.000001
    1 0.000000 0.000000 0.000000 1.570796 0.000000 0.000000
    2 100.699359 282.133858 116.409437 0.000048 -0.017723 -1.979087
  time 386
    0 0.000000 0.000000 0.000000 0.000000 0.000000 -0.000001
    1 0.000000 0.000000 0.000000 1.570796 0.000000 0.000000
    2 100.145051 282.467270 116.285102 0.000048 -0.018565 -1.974677
  time 387
    0 0.000000 0.000000 0.000000 0.000000 0.000000 -0.000001
    1 0.000000 0.000000 0.000000 1.570796 0.000000 0.000000
    2 99.590742 282.800683 116.176308 0.000048 -0.019365 -1.970362
  time 388
    0 0.000000 0.000000 0.000000 0.000000 0.000000 -0.000001
    1 0.000000 0.000000 0.000000 1.570796 0.000000 0.000000
    2 99.036434 283.134096 116.067514 0.000048 -0.020123 -1.966048
  time 389
    0 0.000000 0.000000 0.000000 0.000000 0.000000 -0.000001
    1 0.000000 0.000000 0.000000 1.570796 0.000000 0.000000
    2 98.574510 283.534191 115.974262 0.000048 -0.020923 -1.961829
  time 390
    0 0.000000 0.000000 0.000000 0.000000 0.000000 -0.000001
    1 0.000000 0.000000 0.000000 1.570796 0.000000 0.000000
    2 98.020202 283.867604 115.881010 0.000048 -0.021680 -1.957707
  time 391
    0 0.000000 0.000000 0.000000 0.000000 0.000000 -0.000001
    1 0.000000 0.000000 0.000000 1.570796 0.000000 0.000000
    2 97.558278 284.201017 115.803300 0.000048 -0.022396 -1.953584
  time 392
    0 0.000000 0.000000 0.000000 0.000000 0.000000 -0.000001
    1 0.000000 0.000000 0.000000 1.570796 0.000000 0.000000
    2 97.096355 284.534429 115.741132 0.000048 -0.023154 -1.949557
  time 393
    0 0.000000 0.000000 0.000000 0.000000 0.000000 -0.000001
    1 0.000000 0.000000 0.000000 1.570796 0.000000 0.000000
    2 96.726816 284.867842 115.663422 0.000048 -0.023869 -1.945626
  time 394
    0 0.000000 0.000000 0.000000 0.000000 0.000000 -0.000001
    1 0.000000 0.000000 0.000000 1.570796 0.000000 0.000000
    2 96.264892 285.201255 115.616796 0.000048 -0.024543 -1.941695
  time 395
    0 0.000000 0.000000 0.000000 0.000000 0.000000 -0.000001
    1 0.000000 0.000000 0.000000 1.570796 0.000000 0.000000
    2 95.895353 285.467985 115.570171 0.000048 -0.025259 -1.937860
  time 396
    0 0.000000 0.000000 0.000000 0.000000 0.000000 -0.000001
    1 0.000000 0.000000 0.000000 1.570796 0.000000 0.000000
    2 95.433429 285.801398 115.523545 0.000048 -0.025932 -1.934121
  time 397
    0 0.000000 0.000000 0.000000 0.000000 0.000000 -0.000001
    1 0.000000 0.000000 0.000000 1.570796 0.000000 0.000000
    2 95.063891 286.134811 115.492461 0.000048 -0.026564 -1.930478
  time 398
    0 0.000000 0.000000 0.000000 0.000000 0.000000 -0.000001
    1 0.000000 0.000000 0.000000 1.570796 0.000000 0.000000
    2 94.694352 286.468223 115.476919 0.000048 -0.027195 -1.926834
  time 399
    0 0.000000 0.000000 0.000000 0.000000 0.000000 -0.000001
    1 0.000000 0.000000 0.000000 1.570796 0.000000 0.000000
    2 94.324813 286.734954 115.461377 0.000048 -0.027827 -1.923287
  time 400
    0 0.000000 0.000000 0.000000 0.000000 0.000000 -0.000001
    1 0.000000 0.000000 0.000000 1.570796 0.000000 0.000000
    2 94.047658 287.068366 115.461377 0.000048 -0.028416 -1.919835
  time 401
    0 0.000000 0.000000 0.000000 0.000000 0.000000 -0.000001
    1 0.000000 0.000000 0.000000 1.570796 0.000000 0.000000
    2 93.678120 287.401779 115.461377 0.000048 -0.029005 -1.916480
  time 402
    0 0.000000 0.000000 0.000000 0.000000 0.000000 -0.000001
    1 0.000000 0.000000 0.000000 1.570796 0.000000 0.000000
    2 93.400965 287.668509 115.461377 0.000048 -0.029595 -1.913220
  time 403
    0 0.000000 0.000000 0.000000 0.000000 0.000000 -0.000001
    1 0.000000 0.000000 0.000000 1.570796 0.000000 0.000000
    2 93.123811 287.935239 115.461377 0.000048 -0.030142 -1.909960
  time 404
    0 0.000000 0.000000 0.000000 0.000000 0.000000 -0.000001
    1 0.000000 0.000000 0.000000 1.570796 0.000000 0.000000
    2 92.754272 288.201970 115.461377 0.000048 -0.030689 -1.906796
  time 405
    0 0.000000 0.000000 0.000000 0.000000 0.000000 -0.000001
    1 0.000000 0.000000 0.000000 1.570796 0.000000 0.000000
    2 92.477118 288.468700 115.461377 0.000048 -0.031237 -1.903728
  time 406
    0 0.000000 0.000000 0.000000 0.000000 0.000000 -0.000001
    1 0.000000 0.000000 0.000000 1.570796 0.000000 0.000000
    2 92.199964 288.735430 115.461377 0.000048 -0.031742 -1.900756
  time 407
    0 0.000000 0.000000 0.000000 0.000000 0.000000 -0.000001
    1 0.000000 0.000000 0.000000 1.570796 0.000000 0.000000
    2 92.015194 289.002160 115.461377 0.000048 -0.032205 -1.897880
  time 408
    0 0.000000 0.000000 0.000000 0.000000 0.000000 -0.000001
    1 0.000000 0.000000 0.000000 1.570796 0.000000 0.000000
    2 91.738040 289.202208 115.461377 0.000048 -0.032710 -1.895003
  time 409
    0 0.000000 0.000000 0.000000 0.000000 0.000000 -0.000001
    1 0.000000 0.000000 0.000000 1.570796 0.000000 0.000000
    2 91.460886 289.468938 115.461377 0.000048 -0.033131 -1.892319
  time 410
    0 0.000000 0.000000 0.000000 0.000000 0.000000 -0.000001
    1 0.000000 0.000000 0.000000 1.570796 0.000000 0.000000
    2 91.276116 289.668986 115.461377 0.000048 -0.033594 -1.889634
  time 411
    0 0.000000 0.000000 0.000000 0.000000 0.000000 -0.000001
    1 0.000000 0.000000 0.000000 1.570796 0.000000 0.000000
    2 90.998962 289.869033 115.461377 0.000048 -0.034015 -1.887046
  time 412
    0 0.000000 0.000000 0.000000 0.000000 0.000000 -0.000001
    1 0.000000 0.000000 0.000000 1.570796 0.000000 0.000000
    2 90.814193 290.069081 115.461377 0.000048 -0.034394 -1.884649
  time 413
    0 0.000000 0.000000 0.000000 0.000000 0.000000 -0.000001
    1 0.000000 0.000000 0.000000 1.570796 0.000000 0.000000
    2 90.629423 290.269129 115.461377 0.000048 -0.034773 -1.882252
  time 414
    0 0.000000 0.000000 0.000000 0.000000 0.000000 -0.000001
    1 0.000000 0.000000 0.000000 1.570796 0.000000 0.000000
    2 90.444654 290.402494 115.461377 0.000048 -0.035152 -1.879951
  time 415
    0 0.000000 0.000000 0.000000 0.000000 0.000000 -0.000001
    1 0.000000 0.000000 0.000000 1.570796 0.000000 0.000000
    2 90.259884 290.602541 115.461377 0.000048 -0.035488 -1.877746
  time 416
    0 0.000000 0.000000 0.000000 0.000000 0.000000 -0.000001
    1 0.000000 0.000000 0.000000 1.570796 0.000000 0.000000
    2 90.075115 290.735906 115.461377 0.000048 -0.035825 -1.875636
  time 417
    0 0.000000 0.000000 0.000000 0.000000 0.000000 -0.000001
    1 0.000000 0.000000 0.000000 1.570796 0.000000 0.000000
    2 89.890345 290.869271 115.461377 0.000048 -0.036162 -1.873719
  time 418
    0 0.000000 0.000000 0.000000 0.000000 0.000000 -0.000001
    1 0.000000 0.000000 0.000000 1.570796 0.000000 0.000000
    2 89.797961 291.002637 115.461377 0.000048 -0.036415 -1.871801
  time 419
    0 0.000000 0.000000 0.000000 0.000000 0.000000 -0.000001
    1 0.000000 0.000000 0.000000 1.570796 0.000000 0.000000
    2 89.613191 291.136002 115.461377 0.000048 -0.036709 -1.869980
  time 420
    0 0.000000 0.000000 0.000000 0.000000 0.000000 -0.000001
    1 0.000000 0.000000 0.000000 1.570796 0.000000 0.000000
    2 89.520807 291.269367 115.461377 0.000048 -0.036962 -1.868254
  time 421
    0 0.000000 0.000000 0.000000 0.000000 0.000000 -0.000001
    1 0.000000 0.000000 0.000000 1.570796 0.000000 0.000000
    2 89.428422 291.402732 115.461377 0.000048 -0.037172 -1.866720
  time 422
    0 0.000000 0.000000 0.000000 0.000000 0.000000 -0.000001
    1 0.000000 0.000000 0.000000 1.570796 0.000000 0.000000
    2 89.336037 291.469414 115.461377 0.000048 -0.037425 -1.865186
  time 423
    0 0.000000 0.000000 0.000000 0.000000 0.000000 -0.000001
    1 0.000000 0.000000 0.000000 1.570796 0.000000 0.000000
    2 89.243652 291.536097 115.461377 0.000048 -0.037593 -1.863748
  time 424
    0 0.000000 0.000000 0.000000 0.000000 0.000000 -0.000001
    1 0.000000 0.000000 0.000000 1.570796 0.000000 0.000000
    2 89.151268 291.669462 115.461377 0.000048 -0.037762 -1.862501
  time 425
    0 0.000000 0.000000 0.000000 0.000000 0.000000 -0.000001
    1 0.000000 0.000000 0.000000 1.570796 0.000000 0.000000
    2 89.058883 291.736145 115.461377 0.000048 -0.037930 -1.861255
  time 426
    0 0.000000 0.000000 0.000000 0.000000 0.000000 -0.000001
    1 0.000000 0.000000 0.000000 1.570796 0.000000 0.000000
    2 88.966498 291.736145 115.461377 0.000048 -0.038056 -1.860200
  time 427
    0 0.000000 0.000000 0.000000 0.000000 0.000000 -0.000001
    1 0.000000 0.000000 0.000000 1.570796 0.000000 0.000000
    2 88.966498 291.802827 115.461377 0.000048 -0.038183 -1.859241
  time 428
    0 0.000000 0.000000 0.000000 0.000000 0.000000 -0.000001
    1 0.000000 0.000000 0.000000 1.570796 0.000000 0.000000
    2 88.874113 291.869510 115.461377 0.000048 -0.038267 -1.858378
  time 429
    0 0.000000 0.000000 0.000000 0.000000 0.000000 -0.000001
    1 0.000000 0.000000 0.000000 1.570796 0.000000 0.000000
    2 88.874113 291.869510 115.461377 0.000048 -0.038351 -1.857611
  time 430
    0 0.000000 0.000000 0.000000 0.000000 0.000000 -0.000001
    1 0.000000 0.000000 0.000000 1.570796 0.000000 0.000000
    2 88.874113 291.869510 115.461377 0.000048 -0.038393 -1.857036
  time 431
    0 0.000000 0.000000 0.000000 0.000000 0.000000 -0.000001
    1 0.000000 0.000000 0.000000 1.570796 0.000000 0.000000
    2 88.874113 291.869510 115.461377 0.000048 -0.038435 -1.856461
  time 432
    0 0.000000 0.000000 0.000000 0.000000 0.000000 -0.000001
    1 0.000000 0.000000 0.000000 1.570796 0.000000 0.000000
    2 88.874113 291.869510 115.461377 0.000048 -0.038435 -1.856077
  time 433
    0 0.000000 0.000000 0.000000 0.000000 0.000000 -0.000001
    1 0.000000 0.000000 0.000000 1.570796 0.000000 0.000000
    2 88.874113 291.869510 115.461377 0.000048 -0.038435 -1.855790
  time 434
    0 0.000000 0.000000 0.000000 0.000000 0.000000 -0.000001
    1 0.000000 0.000000 0.000000 1.570796 0.000000 0.000000
    2 88.874113 291.869510 115.461377 0.000048 -0.038435 -1.855598
  time 435
    0 0.000000 0.000000 0.000000 0.000000 0.000000 -0.000001
    1 0.000000 0.000000 0.000000 1.570796 0.000000 0.000000
    2 88.874113 291.869510 115.461377 0.000048 -0.038435 -1.855502
  time 436
    0 0.000000 0.000000 0.000000 0.000000 0.000000 -0.000001
    1 0.000000 0.000000 0.000000 1.570796 0.000000 0.000000
    2 88.874113 291.869510 115.461377 0.000048 -0.038435 -1.855502
  time 437
    0 0.000000 0.000000 0.000000 0.000000 0.000000 -0.000001
    1 0.000000 0.000000 0.000000 1.570796 0.000000 0.000000
    2 88.874113 291.869510 115.461377 0.000048 -0.038435 -1.855502
  time 438
    0 0.000000 0.000000 0.000000 0.000000 0.000000 -0.000001
    1 0.000000 0.000000 0.000000 1.570796 0.000000 0.000000
    2 88.874113 291.869510 115.461377 0.000048 -0.038435 -1.855502
  time 439
    0 0.000000 0.000000 0.000000 0.000000 0.000000 -0.000001
    1 0.000000 0.000000 0.000000 1.570796 0.000000 0.000000
    2 88.874113 291.869510 115.461377 0.000048 -0.038435 -1.855502
  time 440
    0 0.000000 0.000000 0.000000 0.000000 0.000000 -0.000001
    1 0.000000 0.000000 0.000000 1.570796 0.000000 0.000000
    2 88.874113 291.869510 115.461377 0.000048 -0.038435 -1.855502
  time 441
    0 0.000000 0.000000 0.000000 0.000000 0.000000 -0.000001
    1 0.000000 0.000000 0.000000 1.570796 0.000000 0.000000
    2 88.874113 291.869510 115.461377 0.000048 -0.038435 -1.855502
  time 442
    0 0.000000 0.000000 0.000000 0.000000 0.000000 -0.000001
    1 0.000000 0.000000 0.000000 1.570796 0.000000 0.000000
    2 88.874113 291.869510 115.461377 0.000048 -0.038435 -1.855502
  time 443
    0 0.000000 0.000000 0.000000 0.000000 0.000000 -0.000001
    1 0.000000 0.000000 0.000000 1.570796 0.000000 0.000000
    2 88.874113 291.869510 115.461377 0.000048 -0.038435 -1.855502
  time 444
    0 0.000000 0.000000 0.000000 0.000000 0.000000 -0.000001
    1 0.000000 0.000000 0.000000 1.570796 0.000000 0.000000
    2 88.874113 291.869510 115.461377 0.000048 -0.038435 -1.855502
  time 445
    0 0.000000 0.000000 0.000000 0.000000 0.000000 -0.000001
    1 0.000000 0.000000 0.000000 1.570796 0.000000 0.000000
    2 88.874113 291.869510 115.461377 0.000048 -0.038435 -1.855502
  time 446
    0 0.000000 0.000000 0.000000 0.000000 0.000000 -0.000001
    1 0.000000 0.000000 0.000000 1.570796 0.000000 0.000000
    2 88.874113 291.869510 115.461377 0.000048 -0.038435 -1.855502
  time 447
    0 0.000000 0.000000 0.000000 0.000000 0.000000 -0.000001
    1 0.000000 0.000000 0.000000 1.570796 0.000000 0.000000
    2 88.874113 291.869510 115.461377 0.000048 -0.038435 -1.855502
  time 448
    0 0.000000 0.000000 0.000000 0.000000 0.000000 -0.000001
    1 0.000000 0.000000 0.000000 1.570796 0.000000 0.000000
    2 88.874113 291.869510 115.461377 0.000048 -0.038435 -1.855502
  time 449
    0 0.000000 0.000000 0.000000 0.000000 0.000000 -0.000001
    1 0.000000 0.000000 0.000000 1.570796 0.000000 0.000000
    2 88.874113 291.869510 115.461377 0.000048 -0.038435 -1.855502
  time 450
    0 0.000000 0.000000 0.000000 0.000000 0.000000 -0.000001
    1 0.000000 0.000000 0.000000 1.570796 0.000000 0.000000
    2 88.875000 291.750000 115.437500 -0.000001 -0.038461 -1.855576
end
