// Created by Crowbar 0.74
version 1
nodes
  0 "GhostAnim_reference" -1
  1 "Base" 0
  2 "Attachment_1" 0
end
skeleton
  time 0
    0 0.000000 0.000000 0.000000 0.000000 0.000000 -0.000001
    1 0.000000 0.000000 0.000000 0.000000 0.000000 0.000000
    2 3027.170555 -1136.804067 24.136696 0.136064 -0.007030 -0.531541
  time 1
    0 0.000000 0.000000 0.000000 0.000000 0.000000 -0.000001
    1 0.000000 0.000000 0.000000 0.000000 0.000000 0.000000
    2 3027.170555 -1136.804067 24.136696 0.136064 -0.007030 -0.531541
  time 2
    0 0.000000 0.000000 0.000000 0.000000 0.000000 -0.000001
    1 0.000000 0.000000 0.000000 0.000000 0.000000 0.000000
    2 3027.170555 -1136.804067 24.136696 0.136064 -0.007030 -0.531541
  time 3
    0 0.000000 0.000000 0.000000 0.000000 0.000000 -0.000001
    1 0.000000 0.000000 0.000000 0.000000 0.000000 0.000000
    2 3027.170555 -1136.804067 24.136696 0.136064 -0.007030 -0.531541
  time 4
    0 0.000000 0.000000 0.000000 0.000000 0.000000 -0.000001
    1 0.000000 0.000000 0.000000 0.000000 0.000000 0.000000
    2 3027.170555 -1136.804067 24.136696 0.136064 -0.007030 -0.531541
  time 5
    0 0.000000 0.000000 0.000000 0.000000 0.000000 -0.000001
    1 0.000000 0.000000 0.000000 0.000000 0.000000 0.000000
    2 3027.170555 -1136.804067 24.136696 0.136064 -0.007030 -0.531541
  time 6
    0 0.000000 0.000000 0.000000 0.000000 0.000000 -0.000001
    1 0.000000 0.000000 0.000000 0.000000 0.000000 0.000000
    2 3027.170555 -1136.804067 24.136696 0.136064 -0.007030 -0.531541
  time 7
    0 0.000000 0.000000 0.000000 0.000000 0.000000 -0.000001
    1 0.000000 0.000000 0.000000 0.000000 0.000000 0.000000
    2 3027.170555 -1136.804067 24.136696 0.136064 -0.007030 -0.531541
  time 8
    0 0.000000 0.000000 0.000000 0.000000 0.000000 -0.000001
    1 0.000000 0.000000 0.000000 0.000000 0.000000 0.000000
    2 3027.170555 -1136.804067 24.136696 0.136064 -0.007030 -0.531541
  time 9
    0 0.000000 0.000000 0.000000 0.000000 0.000000 -0.000001
    1 0.000000 0.000000 0.000000 0.000000 0.000000 0.000000
    2 3027.170555 -1136.804067 24.136696 0.136064 -0.007030 -0.531541
  time 10
    0 0.000000 0.000000 0.000000 0.000000 0.000000 -0.000001
    1 0.000000 0.000000 0.000000 0.000000 0.000000 0.000000
    2 3027.170555 -1136.804067 24.136696 0.136064 -0.007030 -0.531541
  time 11
    0 0.000000 0.000000 0.000000 0.000000 0.000000 -0.000001
    1 0.000000 0.000000 0.000000 0.000000 0.000000 0.000000
    2 3027.170555 -1136.804067 24.136696 0.136064 -0.007030 -0.531541
  time 12
    0 0.000000 0.000000 0.000000 0.000000 0.000000 -0.000001
    1 0.000000 0.000000 0.000000 0.000000 0.000000 0.000000
    2 3027.170555 -1136.804067 24.136696 0.136064 -0.007030 -0.531541
  time 13
    0 0.000000 0.000000 0.000000 0.000000 0.000000 -0.000001
    1 0.000000 0.000000 0.000000 0.000000 0.000000 0.000000
    2 3027.170555 -1136.804067 24.136696 0.136064 -0.007030 -0.531541
  time 14
    0 0.000000 0.000000 0.000000 0.000000 0.000000 -0.000001
    1 0.000000 0.000000 0.000000 0.000000 0.000000 0.000000
    2 3027.170555 -1136.804067 24.136696 0.136064 -0.007030 -0.531541
  time 15
    0 0.000000 0.000000 0.000000 0.000000 0.000000 -0.000001
    1 0.000000 0.000000 0.000000 0.000000 0.000000 0.000000
    2 3027.170555 -1136.804067 24.136696 0.136064 -0.007030 -0.531541
  time 16
    0 0.000000 0.000000 0.000000 0.000000 0.000000 -0.000001
    1 0.000000 0.000000 0.000000 0.000000 0.000000 0.000000
    2 3027.170555 -1136.804067 24.136696 0.136064 -0.007030 -0.531541
  time 17
    0 0.000000 0.000000 0.000000 0.000000 0.000000 -0.000001
    1 0.000000 0.000000 0.000000 0.000000 0.000000 0.000000
    2 3027.170555 -1136.804067 24.136696 0.136064 -0.007030 -0.531541
  time 18
    0 0.000000 0.000000 0.000000 0.000000 0.000000 -0.000001
    1 0.000000 0.000000 0.000000 0.000000 0.000000 0.000000
    2 3027.170555 -1136.804067 24.136696 0.136064 -0.007030 -0.531541
  time 19
    0 0.000000 0.000000 0.000000 0.000000 0.000000 -0.000001
    1 0.000000 0.000000 0.000000 0.000000 0.000000 0.000000
    2 3027.170555 -1136.804067 24.136696 0.136064 -0.007030 -0.531541
  time 20
    0 0.000000 0.000000 0.000000 0.000000 0.000000 -0.000001
    1 0.000000 0.000000 0.000000 0.000000 0.000000 0.000000
    2 3027.170555 -1136.804067 24.136696 0.136064 -0.007030 -0.531541
  time 21
    0 0.000000 0.000000 0.000000 0.000000 0.000000 -0.000001
    1 0.000000 0.000000 0.000000 0.000000 0.000000 0.000000
    2 3027.170555 -1136.804067 24.136696 0.136064 -0.007030 -0.531541
  time 22
    0 0.000000 0.000000 0.000000 0.000000 0.000000 -0.000001
    1 0.000000 0.000000 0.000000 0.000000 0.000000 0.000000
    2 3027.170555 -1136.804067 24.136696 0.136064 -0.007030 -0.531541
  time 23
    0 0.000000 0.000000 0.000000 0.000000 0.000000 -0.000001
    1 0.000000 0.000000 0.000000 0.000000 0.000000 0.000000
    2 3027.170555 -1136.804067 24.136696 0.136064 -0.007030 -0.531541
  time 24
    0 0.000000 0.000000 0.000000 0.000000 0.000000 -0.000001
    1 0.000000 0.000000 0.000000 0.000000 0.000000 0.000000
    2 3027.170555 -1136.804067 24.136696 0.136064 -0.007030 -0.531541
  time 25
    0 0.000000 0.000000 0.000000 0.000000 0.000000 -0.000001
    1 0.000000 0.000000 0.000000 0.000000 0.000000 0.000000
    2 3027.170555 -1136.804067 24.136696 0.136064 -0.007030 -0.531541
  time 26
    0 0.000000 0.000000 0.000000 0.000000 0.000000 -0.000001
    1 0.000000 0.000000 0.000000 0.000000 0.000000 0.000000
    2 3027.170555 -1136.804067 24.136696 0.136064 -0.007030 -0.531541
  time 27
    0 0.000000 0.000000 0.000000 0.000000 0.000000 -0.000001
    1 0.000000 0.000000 0.000000 0.000000 0.000000 0.000000
    2 3027.170555 -1136.804067 24.136696 0.136064 -0.007030 -0.531541
  time 28
    0 0.000000 0.000000 0.000000 0.000000 0.000000 -0.000001
    1 0.000000 0.000000 0.000000 0.000000 0.000000 0.000000
    2 3027.170555 -1136.804067 24.136696 0.136064 -0.007030 -0.531541
  time 29
    0 0.000000 0.000000 0.000000 0.000000 0.000000 -0.000001
    1 0.000000 0.000000 0.000000 0.000000 0.000000 0.000000
    2 3027.170555 -1136.804067 24.136696 0.136064 -0.007030 -0.531541
  time 30
    0 0.000000 0.000000 0.000000 0.000000 0.000000 -0.000001
    1 0.000000 0.000000 0.000000 0.000000 0.000000 0.000000
    2 3027.078170 -1137.004115 24.105612 0.135584 -0.007115 -0.531157
  time 31
    0 0.000000 0.000000 0.000000 0.000000 0.000000 -0.000001
    1 0.000000 0.000000 0.000000 0.000000 0.000000 0.000000
    2 3027.078170 -1137.204162 24.090071 0.135105 -0.007241 -0.530774
  time 32
    0 0.000000 0.000000 0.000000 0.000000 0.000000 -0.000001
    1 0.000000 0.000000 0.000000 0.000000 0.000000 0.000000
    2 3027.078170 -1137.404210 24.074529 0.134626 -0.007325 -0.530390
  time 33
    0 0.000000 0.000000 0.000000 0.000000 0.000000 -0.000001
    1 0.000000 0.000000 0.000000 0.000000 0.000000 0.000000
    2 3027.078170 -1137.604257 24.058987 0.134242 -0.007451 -0.530102
  time 34
    0 0.000000 0.000000 0.000000 0.000000 0.000000 -0.000001
    1 0.000000 0.000000 0.000000 0.000000 0.000000 0.000000
    2 3026.985785 -1137.804305 24.043445 0.133763 -0.007536 -0.529815
  time 35
    0 0.000000 0.000000 0.000000 0.000000 0.000000 -0.000001
    1 0.000000 0.000000 0.000000 0.000000 0.000000 0.000000
    2 3026.985785 -1138.004353 24.027903 0.133284 -0.007662 -0.529527
  time 36
    0 0.000000 0.000000 0.000000 0.000000 0.000000 -0.000001
    1 0.000000 0.000000 0.000000 0.000000 0.000000 0.000000
    2 3026.893401 -1138.137718 24.027903 0.132804 -0.007788 -0.529335
  time 37
    0 0.000000 0.000000 0.000000 0.000000 0.000000 -0.000001
    1 0.000000 0.000000 0.000000 0.000000 0.000000 0.000000
    2 3026.801016 -1138.337765 24.027903 0.132421 -0.007914 -0.529144
  time 38
    0 0.000000 0.000000 0.000000 0.000000 0.000000 -0.000001
    1 0.000000 0.000000 0.000000 0.000000 0.000000 0.000000
    2 3026.708631 -1138.471131 24.027903 0.131942 -0.008041 -0.528952
  time 39
    0 0.000000 0.000000 0.000000 0.000000 0.000000 -0.000001
    1 0.000000 0.000000 0.000000 0.000000 0.000000 0.000000
    2 3026.616246 -1138.671178 24.027903 0.131463 -0.008167 -0.528760
  time 40
    0 0.000000 0.000000 0.000000 0.000000 0.000000 -0.000001
    1 0.000000 0.000000 0.000000 0.000000 0.000000 0.000000
    2 3026.523862 -1138.804543 24.027903 0.130983 -0.008335 -0.528568
  time 41
    0 0.000000 0.000000 0.000000 0.000000 0.000000 -0.000001
    1 0.000000 0.000000 0.000000 0.000000 0.000000 0.000000
    2 3026.339092 -1138.937908 24.027903 0.130600 -0.008462 -0.528472
  time 42
    0 0.000000 0.000000 0.000000 0.000000 0.000000 -0.000001
    1 0.000000 0.000000 0.000000 0.000000 0.000000 0.000000
    2 3026.154323 -1139.137956 24.043445 0.130121 -0.008588 -0.528281
  time 43
    0 0.000000 0.000000 0.000000 0.000000 0.000000 -0.000001
    1 0.000000 0.000000 0.000000 0.000000 0.000000 0.000000
    2 3025.969553 -1139.271321 24.043445 0.129641 -0.008756 -0.528185
  time 44
    0 0.000000 0.000000 0.000000 0.000000 0.000000 -0.000001
    1 0.000000 0.000000 0.000000 0.000000 0.000000 0.000000
    2 3025.784784 -1139.404686 24.058987 0.129258 -0.008883 -0.528089
  time 45
    0 0.000000 0.000000 0.000000 0.000000 0.000000 -0.000001
    1 0.000000 0.000000 0.000000 0.000000 0.000000 0.000000
    2 3025.507630 -1139.538051 24.058987 0.128779 -0.009051 -0.527993
  time 46
    0 0.000000 0.000000 0.000000 0.000000 0.000000 -0.000001
    1 0.000000 0.000000 0.000000 0.000000 0.000000 0.000000
    2 3025.230475 -1139.671416 24.074529 0.128299 -0.009219 -0.527897
  time 47
    0 0.000000 0.000000 0.000000 0.000000 0.000000 -0.000001
    1 0.000000 0.000000 0.000000 0.000000 0.000000 0.000000
    2 3024.953321 -1139.804782 24.090071 0.127916 -0.009346 -0.527897
  time 48
    0 0.000000 0.000000 0.000000 0.000000 0.000000 -0.000001
    1 0.000000 0.000000 0.000000 0.000000 0.000000 0.000000
    2 3024.676167 -1139.938147 24.105612 0.127437 -0.009514 -0.527801
  time 49
    0 0.000000 0.000000 0.000000 0.000000 0.000000 -0.000001
    1 0.000000 0.000000 0.000000 0.000000 0.000000 0.000000
    2 3024.306628 -1140.071512 24.121154 0.126957 -0.009682 -0.527801
  time 50
    0 0.000000 0.000000 0.000000 0.000000 0.000000 -0.000001
    1 0.000000 0.000000 0.000000 0.000000 0.000000 0.000000
    2 3023.937089 -1140.204877 24.136696 0.126574 -0.009851 -0.527705
  time 51
    0 0.000000 0.000000 0.000000 0.000000 0.000000 -0.000001
    1 0.000000 0.000000 0.000000 0.000000 0.000000 0.000000
    2 3023.567550 -1140.338242 24.152238 0.126095 -0.009977 -0.527705
  time 52
    0 0.000000 0.000000 0.000000 0.000000 0.000000 -0.000001
    1 0.000000 0.000000 0.000000 0.000000 0.000000 0.000000
    2 3023.105626 -1140.404924 24.167780 0.125615 -0.010146 -0.527705
  time 53
    0 0.000000 0.000000 0.000000 0.000000 0.000000 -0.000001
    1 0.000000 0.000000 0.000000 0.000000 0.000000 0.000000
    2 3022.643703 -1140.538290 24.183322 0.125136 -0.010314 -0.527705
  time 54
    0 0.000000 0.000000 0.000000 0.000000 0.000000 -0.000001
    1 0.000000 0.000000 0.000000 0.000000 0.000000 0.000000
    2 3022.089394 -1140.671655 24.214406 0.124753 -0.010440 -0.527610
  time 55
    0 0.000000 0.000000 0.000000 0.000000 0.000000 -0.000001
    1 0.000000 0.000000 0.000000 0.000000 0.000000 0.000000
    2 3021.535086 -1140.805020 24.229948 0.124274 -0.010609 -0.527610
  time 56
    0 0.000000 0.000000 0.000000 0.000000 0.000000 -0.000001
    1 0.000000 0.000000 0.000000 0.000000 0.000000 0.000000
    2 3020.980778 -1140.938385 24.245490 0.123794 -0.010777 -0.527610
  time 57
    0 0.000000 0.000000 0.000000 0.000000 0.000000 -0.000001
    1 0.000000 0.000000 0.000000 0.000000 0.000000 0.000000
    2 3020.334084 -1141.005067 24.261032 0.123411 -0.010903 -0.527610
  time 58
    0 0.000000 0.000000 0.000000 0.000000 0.000000 -0.000001
    1 0.000000 0.000000 0.000000 0.000000 0.000000 0.000000
    2 3019.687391 -1141.138432 24.276574 0.122932 -0.011072 -0.527514
  time 59
    0 0.000000 0.000000 0.000000 0.000000 0.000000 -0.000001
    1 0.000000 0.000000 0.000000 0.000000 0.000000 0.000000
    2 3018.948313 -1141.271798 24.307658 0.122452 -0.011198 -0.527514
  time 60
    0 0.000000 0.000000 0.000000 0.000000 0.000000 -0.000001
    1 0.000000 0.000000 0.000000 0.000000 0.000000 0.000000
    2 3018.209236 -1141.405163 24.323200 0.122069 -0.011366 -0.527514
  time 61
    0 0.000000 0.000000 0.000000 0.000000 0.000000 -0.000001
    1 0.000000 0.000000 0.000000 0.000000 0.000000 0.000000
    2 3017.377773 -1141.538528 24.338742 0.121590 -0.011493 -0.527418
  time 62
    0 0.000000 0.000000 0.000000 0.000000 0.000000 -0.000001
    1 0.000000 0.000000 0.000000 0.000000 0.000000 0.000000
    2 3016.546310 -1141.671893 24.354284 0.121110 -0.011661 -0.527418
  time 63
    0 0.000000 0.000000 0.000000 0.000000 0.000000 -0.000001
    1 0.000000 0.000000 0.000000 0.000000 0.000000 0.000000
    2 3015.622463 -1141.738575 24.369826 0.120727 -0.011787 -0.527322
  time 64
    0 0.000000 0.000000 0.000000 0.000000 0.000000 -0.000001
    1 0.000000 0.000000 0.000000 0.000000 0.000000 0.000000
    2 3014.698616 -1141.871940 24.385368 0.120248 -0.011914 -0.527322
  time 65
    0 0.000000 0.000000 0.000000 0.000000 0.000000 -0.000001
    1 0.000000 0.000000 0.000000 0.000000 0.000000 0.000000
    2 3013.682384 -1142.005306 24.385368 0.119768 -0.012040 -0.527226
  time 66
    0 0.000000 0.000000 0.000000 0.000000 0.000000 -0.000001
    1 0.000000 0.000000 0.000000 0.000000 0.000000 0.000000
    2 3012.666152 -1142.138671 24.400910 0.119289 -0.012166 -0.527130
  time 67
    0 0.000000 0.000000 0.000000 0.000000 0.000000 -0.000001
    1 0.000000 0.000000 0.000000 0.000000 0.000000 0.000000
    2 3011.557535 -1142.272036 24.416452 0.118906 -0.012293 -0.527034
  time 68
    0 0.000000 0.000000 0.000000 0.000000 0.000000 -0.000001
    1 0.000000 0.000000 0.000000 0.000000 0.000000 0.000000
    2 3010.448918 -1142.472083 24.431994 0.118426 -0.012419 -0.526938
  time 69
    0 0.000000 0.000000 0.000000 0.000000 0.000000 -0.000001
    1 0.000000 0.000000 0.000000 0.000000 0.000000 0.000000
    2 3009.247916 -1142.605449 24.431994 0.117947 -0.012545 -0.526843
  time 70
    0 0.000000 0.000000 0.000000 0.000000 0.000000 -0.000001
    1 0.000000 0.000000 0.000000 0.000000 0.000000 0.000000
    2 3007.954530 -1142.738814 24.431994 0.117468 -0.012629 -0.526747
  time 71
    0 0.000000 0.000000 0.000000 0.000000 0.000000 -0.000001
    1 0.000000 0.000000 0.000000 0.000000 0.000000 0.000000
    2 3006.661144 -1142.872179 24.447536 0.117085 -0.012756 -0.526555
  time 72
    0 0.000000 0.000000 0.000000 0.000000 0.000000 -0.000001
    1 0.000000 0.000000 0.000000 0.000000 0.000000 0.000000
    2 3005.275373 -1143.072226 24.447536 0.116605 -0.012840 -0.526363
  time 73
    0 0.000000 0.000000 0.000000 0.000000 0.000000 -0.000001
    1 0.000000 0.000000 0.000000 0.000000 0.000000 0.000000
    2 3003.797217 -1143.205591 24.447536 0.116126 -0.012924 -0.526171
  time 74
    0 0.000000 0.000000 0.000000 0.000000 0.000000 -0.000001
    1 0.000000 0.000000 0.000000 0.000000 0.000000 0.000000
    2 3002.319061 -1143.405639 24.447536 0.115647 -0.013008 -0.525980
  time 75
    0 0.000000 0.000000 0.000000 0.000000 0.000000 -0.000001
    1 0.000000 0.000000 0.000000 0.000000 0.000000 0.000000
    2 3000.840906 -1143.539004 24.431994 0.115263 -0.013092 -0.525788
  time 76
    0 0.000000 0.000000 0.000000 0.000000 0.000000 -0.000001
    1 0.000000 0.000000 0.000000 0.000000 0.000000 0.000000
    2 2999.177981 -1143.739052 24.431994 0.114784 -0.013177 -0.525500
  time 77
    0 0.000000 0.000000 0.000000 0.000000 0.000000 -0.000001
    1 0.000000 0.000000 0.000000 0.000000 0.000000 0.000000
    2 2997.515055 -1143.939099 24.416452 0.114305 -0.013261 -0.525213
  time 78
    0 0.000000 0.000000 0.000000 0.000000 0.000000 -0.000001
    1 0.000000 0.000000 0.000000 0.000000 0.000000 0.000000
    2 2995.759745 -1144.139147 24.400910 0.113826 -0.013303 -0.524925
  time 79
    0 0.000000 0.000000 0.000000 0.000000 0.000000 -0.000001
    1 0.000000 0.000000 0.000000 0.000000 0.000000 0.000000
    2 2993.912051 -1144.339195 24.385368 0.113346 -0.013387 -0.524637
  time 80
    0 0.000000 0.000000 0.000000 0.000000 0.000000 -0.000001
    1 0.000000 0.000000 0.000000 0.000000 0.000000 0.000000
    2 2992.064356 -1144.539242 24.369826 0.112963 -0.013429 -0.524254
  time 81
    0 0.000000 0.000000 0.000000 0.000000 0.000000 -0.000001
    1 0.000000 0.000000 0.000000 0.000000 0.000000 0.000000
    2 2990.124277 -1144.739290 24.354284 0.112484 -0.013471 -0.523870
  time 82
    0 0.000000 0.000000 0.000000 0.000000 0.000000 -0.000001
    1 0.000000 0.000000 0.000000 0.000000 0.000000 0.000000
    2 2988.091813 -1144.939338 24.323200 0.112004 -0.013513 -0.523487
  time 83
    0 0.000000 0.000000 0.000000 0.000000 0.000000 -0.000001
    1 0.000000 0.000000 0.000000 0.000000 0.000000 0.000000
    2 2985.966964 -1145.206068 24.292116 0.111525 -0.013513 -0.523008
  time 84
    0 0.000000 0.000000 0.000000 0.000000 0.000000 -0.000001
    1 0.000000 0.000000 0.000000 0.000000 0.000000 0.000000
    2 2983.842115 -1145.406116 24.261032 0.111046 -0.013555 -0.522528
  time 85
    0 0.000000 0.000000 0.000000 0.000000 0.000000 -0.000001
    1 0.000000 0.000000 0.000000 0.000000 0.000000 0.000000
    2 2981.532496 -1145.672846 24.229948 0.110567 -0.013555 -0.522049
  time 86
    0 0.000000 0.000000 0.000000 0.000000 0.000000 -0.000001
    1 0.000000 0.000000 0.000000 0.000000 0.000000 0.000000
    2 2979.222878 -1145.939576 24.198864 0.110087 -0.013555 -0.521473
  time 87
    0 0.000000 0.000000 0.000000 0.000000 0.000000 -0.000001
    1 0.000000 0.000000 0.000000 0.000000 0.000000 0.000000
    2 2976.820875 -1146.206306 24.152238 0.109608 -0.013555 -0.520898
  time 88
    0 0.000000 0.000000 0.000000 0.000000 0.000000 -0.000001
    1 0.000000 0.000000 0.000000 0.000000 0.000000 0.000000
    2 2974.418872 -1146.473036 24.105612 0.109225 -0.013555 -0.520323
  time 89
    0 0.000000 0.000000 0.000000 0.000000 0.000000 -0.000001
    1 0.000000 0.000000 0.000000 0.000000 0.000000 0.000000
    2 2971.832099 -1146.739766 24.058987 0.108745 -0.013513 -0.519652
  time 90
    0 0.000000 0.000000 0.000000 0.000000 0.000000 -0.000001
    1 0.000000 0.000000 0.000000 0.000000 0.000000 0.000000
    2 2969.152942 -1147.006497 23.996819 0.108266 -0.013513 -0.518981
  time 91
    0 0.000000 0.000000 0.000000 0.000000 0.000000 -0.000001
    1 0.000000 0.000000 0.000000 0.000000 0.000000 0.000000
    2 2966.473785 -1147.339909 23.934651 0.107787 -0.013471 -0.518310
  time 92
    0 0.000000 0.000000 0.000000 0.000000 0.000000 -0.000001
    1 0.000000 0.000000 0.000000 0.000000 0.000000 0.000000
    2 2963.702243 -1147.673322 23.872483 0.107308 -0.013429 -0.517543
  time 93
    0 0.000000 0.000000 0.000000 0.000000 0.000000 -0.000001
    1 0.000000 0.000000 0.000000 0.000000 0.000000 0.000000
    2 2960.745932 -1148.006735 23.810315 0.106828 -0.013387 -0.516680
  time 94
    0 0.000000 0.000000 0.000000 0.000000 0.000000 -0.000001
    1 0.000000 0.000000 0.000000 0.000000 0.000000 0.000000
    2 2957.789620 -1148.340148 23.732605 0.106349 -0.013303 -0.515913
  time 95
    0 0.000000 0.000000 0.000000 0.000000 0.000000 -0.000001
    1 0.000000 0.000000 0.000000 0.000000 0.000000 0.000000
    2 2954.740924 -1148.673560 23.654895 0.105870 -0.013219 -0.514954
  time 96
    0 0.000000 0.000000 0.000000 0.000000 0.000000 -0.000001
    1 0.000000 0.000000 0.000000 0.000000 0.000000 0.000000
    2 2951.599843 -1149.006973 23.577185 0.105390 -0.013135 -0.514091
  time 97
    0 0.000000 0.000000 0.000000 0.000000 0.000000 -0.000001
    1 0.000000 0.000000 0.000000 0.000000 0.000000 0.000000
    2 2948.366377 -1149.407068 23.483933 0.104911 -0.013050 -0.513036
  time 98
    0 0.000000 0.000000 0.000000 0.000000 0.000000 -0.000001
    1 0.000000 0.000000 0.000000 0.000000 0.000000 0.000000
    2 2945.040527 -1149.807164 23.390681 0.104432 -0.012966 -0.512078
  time 99
    0 0.000000 0.000000 0.000000 0.000000 0.000000 -0.000001
    1 0.000000 0.000000 0.000000 0.000000 0.000000 0.000000
    2 2941.622292 -1150.207259 23.297429 0.103857 -0.012840 -0.510927
  time 100
    0 0.000000 0.000000 0.000000 0.000000 0.000000 -0.000001
    1 0.000000 0.000000 0.000000 0.000000 0.000000 0.000000
    2 2938.111672 -1150.607354 23.188636 0.103378 -0.012714 -0.509872
  time 101
    0 0.000000 0.000000 0.000000 0.000000 0.000000 -0.000001
    1 0.000000 0.000000 0.000000 0.000000 0.000000 0.000000
    2 2934.508667 -1151.007449 23.079842 0.102898 -0.012587 -0.508626
  time 102
    0 0.000000 0.000000 0.000000 0.000000 0.000000 -0.000001
    1 0.000000 0.000000 0.000000 0.000000 0.000000 0.000000
    2 2930.813278 -1151.474227 22.971048 0.102419 -0.012461 -0.507475
  time 103
    0 0.000000 0.000000 0.000000 0.000000 0.000000 -0.000001
    1 0.000000 0.000000 0.000000 0.000000 0.000000 0.000000
    2 2927.025504 -1151.874323 22.846712 0.101940 -0.012293 -0.506133
  time 104
    0 0.000000 0.000000 0.000000 0.000000 0.000000 -0.000001
    1 0.000000 0.000000 0.000000 0.000000 0.000000 0.000000
    2 2923.145345 -1152.341100 22.722376 0.101460 -0.012166 -0.504791
  time 105
    0 0.000000 0.000000 0.000000 0.000000 0.000000 -0.000001
    1 0.000000 0.000000 0.000000 0.000000 0.000000 0.000000
    2 2919.080417 -1152.807878 22.582498 0.100885 -0.011998 -0.503449
  time 106
    0 0.000000 0.000000 0.000000 0.000000 0.000000 -0.000001
    1 0.000000 0.000000 0.000000 0.000000 0.000000 0.000000
    2 2915.015489 -1153.341339 22.442621 0.100406 -0.011787 -0.502011
  time 107
    0 0.000000 0.000000 0.000000 0.000000 0.000000 -0.000001
    1 0.000000 0.000000 0.000000 0.000000 0.000000 0.000000
    2 2910.858176 -1153.874799 22.302743 0.099927 -0.011619 -0.500476
  time 108
    0 0.000000 0.000000 0.000000 0.000000 0.000000 -0.000001
    1 0.000000 0.000000 0.000000 0.000000 0.000000 0.000000
    2 2906.516093 -1154.341577 22.147323 0.099448 -0.011408 -0.498942
  time 109
    0 0.000000 0.000000 0.000000 0.000000 0.000000 -0.000001
    1 0.000000 0.000000 0.000000 0.000000 0.000000 0.000000
    2 2901.896856 -1154.941720 21.976361 0.098872 -0.011156 -0.497408
  time 110
    0 0.000000 0.000000 0.000000 0.000000 0.000000 -0.000001
    1 0.000000 0.000000 0.000000 0.000000 0.000000 0.000000
    2 2896.630927 -1155.475180 21.805399 0.098393 -0.010861 -0.496066
  time 111
    0 0.000000 0.000000 0.000000 0.000000 0.000000 -0.000001
    1 0.000000 0.000000 0.000000 0.000000 0.000000 0.000000
    2 2890.903073 -1156.075323 21.603354 0.097914 -0.010482 -0.494916
  time 112
    0 0.000000 0.000000 0.000000 0.000000 0.000000 -0.000001
    1 0.000000 0.000000 0.000000 0.000000 0.000000 0.000000
    2 2884.620911 -1156.742149 21.401308 0.097435 -0.010061 -0.493861
  time 113
    0 0.000000 0.000000 0.000000 0.000000 0.000000 -0.000001
    1 0.000000 0.000000 0.000000 0.000000 0.000000 0.000000
    2 2877.692056 -1157.408974 21.183720 0.096860 -0.009556 -0.492998
  time 114
    0 0.000000 0.000000 0.000000 0.000000 0.000000 -0.000001
    1 0.000000 0.000000 0.000000 0.000000 0.000000 0.000000
    2 2870.393662 -1158.075799 20.950590 0.096380 -0.009009 -0.492327
  time 115
    0 0.000000 0.000000 0.000000 0.000000 0.000000 -0.000001
    1 0.000000 0.000000 0.000000 0.000000 0.000000 0.000000
    2 2862.540960 -1158.742625 20.717461 0.095901 -0.008377 -0.491752
  time 116
    0 0.000000 0.000000 0.000000 0.000000 0.000000 -0.000001
    1 0.000000 0.000000 0.000000 0.000000 0.000000 0.000000
    2 2854.133949 -1159.476133 20.453247 0.095326 -0.007746 -0.491272
  time 117
    0 0.000000 0.000000 0.000000 0.000000 0.000000 -0.000001
    1 0.000000 0.000000 0.000000 0.000000 0.000000 0.000000
    2 2845.357400 -1160.276324 20.189033 0.094847 -0.007030 -0.490985
  time 118
    0 0.000000 0.000000 0.000000 0.000000 0.000000 -0.000001
    1 0.000000 0.000000 0.000000 0.000000 0.000000 0.000000
    2 2836.118926 -1161.076514 19.924820 0.094367 -0.006273 -0.490793
  time 119
    0 0.000000 0.000000 0.000000 0.000000 0.000000 -0.000001
    1 0.000000 0.000000 0.000000 0.000000 0.000000 0.000000
    2 2826.418529 -1161.876705 19.629522 0.093792 -0.005515 -0.490793
  time 120
    0 0.000000 0.000000 0.000000 0.000000 0.000000 -0.000001
    1 0.000000 0.000000 0.000000 0.000000 0.000000 0.000000
    2 2816.348593 -1162.676895 19.334224 0.093217 -0.004673 -0.490889
  time 121
    0 0.000000 0.000000 0.000000 0.000000 0.000000 -0.000001
    1 0.000000 0.000000 0.000000 0.000000 0.000000 0.000000
    2 2805.816734 -1163.543768 19.023385 0.092738 -0.003831 -0.491176
  time 122
    0 0.000000 0.000000 0.000000 0.000000 0.000000 -0.000001
    1 0.000000 0.000000 0.000000 0.000000 0.000000 0.000000
    2 2794.915335 -1164.410641 18.712545 0.092163 -0.002947 -0.491464
  time 123
    0 0.000000 0.000000 0.000000 0.000000 0.000000 -0.000001
    1 0.000000 0.000000 0.000000 0.000000 0.000000 0.000000
    2 2783.644398 -1165.277515 18.386163 0.091588 -0.002021 -0.491943
  time 124
    0 0.000000 0.000000 0.000000 0.000000 0.000000 -0.000001
    1 0.000000 0.000000 0.000000 0.000000 0.000000 0.000000
    2 2772.003921 -1166.144388 18.059782 0.091012 -0.001095 -0.492519
  time 125
    0 0.000000 0.000000 0.000000 0.000000 0.000000 -0.000001
    1 0.000000 0.000000 0.000000 0.000000 0.000000 0.000000
    2 2759.993906 -1167.077943 17.717858 0.090437 -0.000126 -0.493286
  time 126
    0 0.000000 0.000000 0.000000 0.000000 0.000000 -0.000001
    1 0.000000 0.000000 0.000000 0.000000 0.000000 0.000000
    2 2747.706737 -1168.011499 17.375935 0.089766 0.000842 -0.494053
  time 127
    0 0.000000 0.000000 0.000000 0.000000 0.000000 -0.000001
    1 0.000000 0.000000 0.000000 0.000000 0.000000 0.000000
    2 2735.050028 -1168.945055 17.018469 0.089191 0.001810 -0.495012
  time 128
    0 0.000000 0.000000 0.000000 0.000000 0.000000 -0.000001
    1 0.000000 0.000000 0.000000 0.000000 0.000000 0.000000
    2 2722.116165 -1169.945293 16.661004 0.088520 0.002821 -0.495970
  time 129
    0 0.000000 0.000000 0.000000 0.000000 0.000000 -0.000001
    1 0.000000 0.000000 0.000000 0.000000 0.000000 0.000000
    2 2708.905149 -1170.945531 16.287996 0.087945 0.003873 -0.497121
  time 130
    0 0.000000 0.000000 0.000000 0.000000 0.000000 -0.000001
    1 0.000000 0.000000 0.000000 0.000000 0.000000 0.000000
    2 2695.416978 -1171.945769 15.914989 0.087274 0.004883 -0.498367
  time 131
    0 0.000000 0.000000 0.000000 0.000000 0.000000 -0.000001
    1 0.000000 0.000000 0.000000 0.000000 0.000000 0.000000
    2 2681.559268 -1172.946008 15.541981 0.086507 0.005936 -0.499614
  time 132
    0 0.000000 0.000000 0.000000 0.000000 0.000000 -0.000001
    1 0.000000 0.000000 0.000000 0.000000 0.000000 0.000000
    2 2667.609173 -1173.946246 15.153431 0.085836 0.006946 -0.501052
  time 133
    0 0.000000 0.000000 0.000000 0.000000 0.000000 -0.000001
    1 0.000000 0.000000 0.000000 0.000000 0.000000 0.000000
    2 2653.381924 -1174.946484 14.764882 0.085165 0.007999 -0.502490
  time 134
    0 0.000000 0.000000 0.000000 0.000000 0.000000 -0.000001
    1 0.000000 0.000000 0.000000 0.000000 0.000000 0.000000
    2 2638.969906 -1176.013405 14.376332 0.084399 0.009009 -0.504120
  time 135
    0 0.000000 0.000000 0.000000 0.000000 0.000000 -0.000001
    1 0.000000 0.000000 0.000000 0.000000 0.000000 0.000000
    2 2624.373118 -1177.080325 13.987783 0.083632 0.010061 -0.505750
  time 136
    0 0.000000 0.000000 0.000000 0.000000 0.000000 -0.000001
    1 0.000000 0.000000 0.000000 0.000000 0.000000 0.000000
    2 2609.499176 -1178.147246 13.583691 0.082961 0.011072 -0.507475
  time 137
    0 0.000000 0.000000 0.000000 0.000000 0.000000 -0.000001
    1 0.000000 0.000000 0.000000 0.000000 0.000000 0.000000
    2 2594.532849 -1179.214167 13.195142 0.082098 0.012082 -0.509297
  time 138
    0 0.000000 0.000000 0.000000 0.000000 0.000000 -0.000001
    1 0.000000 0.000000 0.000000 0.000000 0.000000 0.000000
    2 2579.474137 -1180.281088 12.791050 0.081331 0.013050 -0.511119
  time 139
    0 0.000000 0.000000 0.000000 0.000000 0.000000 -0.000001
    1 0.000000 0.000000 0.000000 0.000000 0.000000 0.000000
    2 2564.138272 -1181.348009 12.386959 0.080564 0.014019 -0.513132
  time 140
    0 0.000000 0.000000 0.000000 0.000000 0.000000 -0.000001
    1 0.000000 0.000000 0.000000 0.000000 0.000000 0.000000
    2 2548.710021 -1182.481612 11.982867 0.079702 0.014987 -0.515050
  time 141
    0 0.000000 0.000000 0.000000 0.000000 0.000000 -0.000001
    1 0.000000 0.000000 0.000000 0.000000 0.000000 0.000000
    2 2533.281771 -1183.548533 11.578776 0.078935 0.015955 -0.517159
  time 142
    0 0.000000 0.000000 0.000000 0.000000 0.000000 -0.000001
    1 0.000000 0.000000 0.000000 0.000000 0.000000 0.000000
    2 2517.668751 -1184.682136 11.174684 0.078072 0.016881 -0.519268
  time 143
    0 0.000000 0.000000 0.000000 0.000000 0.000000 -0.000001
    1 0.000000 0.000000 0.000000 0.000000 0.000000 0.000000
    2 2501.963346 -1185.749057 10.770593 0.077210 0.017765 -0.521473
  time 144
    0 0.000000 0.000000 0.000000 0.000000 0.000000 -0.000001
    1 0.000000 0.000000 0.000000 0.000000 0.000000 0.000000
    2 2486.350326 -1186.882660 10.366501 0.076347 0.018649 -0.523679
  time 145
    0 0.000000 0.000000 0.000000 0.000000 0.000000 -0.000001
    1 0.000000 0.000000 0.000000 0.000000 0.000000 0.000000
    2 2470.552537 -1188.016263 9.962410 0.075484 0.019491 -0.525884
  time 146
    0 0.000000 0.000000 0.000000 0.000000 0.000000 -0.000001
    1 0.000000 0.000000 0.000000 0.000000 0.000000 0.000000
    2 2454.662363 -1189.083184 9.558318 0.074622 0.020291 -0.528185
  time 147
    0 0.000000 0.000000 0.000000 0.000000 0.000000 -0.000001
    1 0.000000 0.000000 0.000000 0.000000 0.000000 0.000000
    2 2438.956958 -1190.216787 9.169769 0.073759 0.021091 -0.530582
  time 148
    0 0.000000 0.000000 0.000000 0.000000 0.000000 -0.000001
    1 0.000000 0.000000 0.000000 0.000000 0.000000 0.000000
    2 2423.066784 -1191.350391 8.765677 0.072800 0.021849 -0.532979
  time 149
    0 0.000000 0.000000 0.000000 0.000000 0.000000 -0.000001
    1 0.000000 0.000000 0.000000 0.000000 0.000000 0.000000
    2 2407.268995 -1192.483994 8.377128 0.071938 0.022564 -0.535376
  time 150
    0 0.000000 0.000000 0.000000 0.000000 0.000000 -0.000001
    1 0.000000 0.000000 0.000000 0.000000 0.000000 0.000000
    2 2391.563590 -1193.550915 7.973036 0.071075 0.023280 -0.537773
  time 151
    0 0.000000 0.000000 0.000000 0.000000 0.000000 -0.000001
    1 0.000000 0.000000 0.000000 0.000000 0.000000 0.000000
    2 2375.765801 -1194.684518 7.600029 0.070212 0.023912 -0.540265
  time 152
    0 0.000000 0.000000 0.000000 0.000000 0.000000 -0.000001
    1 0.000000 0.000000 0.000000 0.000000 0.000000 0.000000
    2 2360.060396 -1195.818121 7.211479 0.069254 0.024543 -0.542758
  time 153
    0 0.000000 0.000000 0.000000 0.000000 0.000000 -0.000001
    1 0.000000 0.000000 0.000000 0.000000 0.000000 0.000000
    2 2344.539761 -1196.885042 6.822930 0.068391 0.025132 -0.545251
  time 154
    0 0.000000 0.000000 0.000000 0.000000 0.000000 -0.000001
    1 0.000000 0.000000 0.000000 0.000000 0.000000 0.000000
    2 2329.019125 -1198.018645 6.449922 0.067528 0.025680 -0.547744
  time 155
    0 0.000000 0.000000 0.000000 0.000000 0.000000 -0.000001
    1 0.000000 0.000000 0.000000 0.000000 0.000000 0.000000
    2 2313.590875 -1199.085566 6.092457 0.066666 0.026227 -0.550332
  time 156
    0 0.000000 0.000000 0.000000 0.000000 0.000000 -0.000001
    1 0.000000 0.000000 0.000000 0.000000 0.000000 0.000000
    2 2298.347394 -1200.152487 5.719449 0.065707 0.026690 -0.552825
  time 157
    0 0.000000 0.000000 0.000000 0.000000 0.000000 -0.000001
    1 0.000000 0.000000 0.000000 0.000000 0.000000 0.000000
    2 2283.103913 -1201.286090 5.361983 0.064844 0.027111 -0.555414
  time 158
    0 0.000000 0.000000 0.000000 0.000000 0.000000 -0.000001
    1 0.000000 0.000000 0.000000 0.000000 0.000000 0.000000
    2 2268.137586 -1202.353011 5.020060 0.064078 0.027532 -0.557907
  time 159
    0 0.000000 0.000000 0.000000 0.000000 0.000000 -0.000001
    1 0.000000 0.000000 0.000000 0.000000 0.000000 0.000000
    2 2253.263644 -1203.419932 4.678136 0.063215 0.027869 -0.560495
  time 160
    0 0.000000 0.000000 0.000000 0.000000 0.000000 -0.000001
    1 0.000000 0.000000 0.000000 0.000000 0.000000 0.000000
    2 2238.666856 -1204.486852 4.336213 0.062352 0.028163 -0.562988
  time 161
    0 0.000000 0.000000 0.000000 0.000000 0.000000 -0.000001
    1 0.000000 0.000000 0.000000 0.000000 0.000000 0.000000
    2 2224.070068 -1205.487091 4.009831 0.061585 0.028458 -0.565481
  time 162
    0 0.000000 0.000000 0.000000 0.000000 0.000000 -0.000001
    1 0.000000 0.000000 0.000000 0.000000 0.000000 0.000000
    2 2209.935204 -1206.554011 3.698991 0.060723 0.028711 -0.567974
  time 163
    0 0.000000 0.000000 0.000000 0.000000 0.000000 -0.000001
    1 0.000000 0.000000 0.000000 0.000000 0.000000 0.000000
    2 2195.892725 -1207.554250 3.388152 0.059956 0.028879 -0.570466
  time 164
    0 0.000000 0.000000 0.000000 0.000000 0.000000 -0.000001
    1 0.000000 0.000000 0.000000 0.000000 0.000000 0.000000
    2 2182.035015 -1208.621170 3.092854 0.059189 0.029047 -0.572959
  time 165
    0 0.000000 0.000000 0.000000 0.000000 0.000000 -0.000001
    1 0.000000 0.000000 0.000000 0.000000 0.000000 0.000000
    2 2168.084920 -1209.554726 2.797557 0.058422 0.029174 -0.575452
  time 166
    0 0.000000 0.000000 0.000000 0.000000 0.000000 -0.000001
    1 0.000000 0.000000 0.000000 0.000000 0.000000 0.000000
    2 2153.488132 -1210.421599 2.548885 0.057751 0.029216 -0.577849
  time 167
    0 0.000000 0.000000 0.000000 0.000000 0.000000 -0.000001
    1 0.000000 0.000000 0.000000 0.000000 0.000000 0.000000
    2 2138.429421 -1211.288472 2.315755 0.056985 0.029258 -0.580246
  time 168
    0 0.000000 0.000000 0.000000 0.000000 0.000000 -0.000001
    1 0.000000 0.000000 0.000000 0.000000 0.000000 0.000000
    2 2122.908786 -1212.088663 2.098167 0.056314 0.029258 -0.582547
  time 169
    0 0.000000 0.000000 0.000000 0.000000 0.000000 -0.000001
    1 0.000000 0.000000 0.000000 0.000000 0.000000 0.000000
    2 2107.018611 -1212.888853 1.911664 0.055643 0.029216 -0.584848
  time 170
    0 0.000000 0.000000 0.000000 0.000000 0.000000 -0.000001
    1 0.000000 0.000000 0.000000 0.000000 0.000000 0.000000
    2 2090.666514 -1213.689044 1.740702 0.054972 0.029132 -0.587149
  time 171
    0 0.000000 0.000000 0.000000 0.000000 0.000000 -0.000001
    1 0.000000 0.000000 0.000000 0.000000 0.000000 0.000000
    2 2074.222031 -1214.489235 1.585282 0.054396 0.028963 -0.589354
  time 172
    0 0.000000 0.000000 0.000000 0.000000 0.000000 -0.000001
    1 0.000000 0.000000 0.000000 0.000000 0.000000 0.000000
    2 2057.408010 -1215.422790 1.445404 0.053821 0.028795 -0.591559
  time 173
    0 0.000000 0.000000 0.000000 0.000000 0.000000 -0.000001
    1 0.000000 0.000000 0.000000 0.000000 0.000000 0.000000
    2 2040.409219 -1216.356346 1.336610 0.053246 0.028584 -0.593669
  time 174
    0 0.000000 0.000000 0.000000 0.000000 0.000000 -0.000001
    1 0.000000 0.000000 0.000000 0.000000 0.000000 0.000000
    2 2023.410428 -1217.423267 1.227816 0.052671 0.028332 -0.595778
  time 175
    0 0.000000 0.000000 0.000000 0.000000 0.000000 -0.000001
    1 0.000000 0.000000 0.000000 0.000000 0.000000 0.000000
    2 2006.319252 -1218.623552 1.150107 0.052192 0.028079 -0.597791
  time 176
    0 0.000000 0.000000 0.000000 0.000000 0.000000 -0.000001
    1 0.000000 0.000000 0.000000 0.000000 0.000000 0.000000
    2 1989.135692 -1219.890521 1.072397 0.051713 0.027742 -0.599709
  time 177
    0 0.000000 0.000000 0.000000 0.000000 0.000000 -0.000001
    1 0.000000 0.000000 0.000000 0.000000 0.000000 0.000000
    2 1972.136901 -1221.424219 1.010229 0.051233 0.027364 -0.601531
  time 178
    0 0.000000 0.000000 0.000000 0.000000 0.000000 -0.000001
    1 0.000000 0.000000 0.000000 0.000000 0.000000 0.000000
    2 1955.138110 -1223.091283 0.963603 0.050754 0.026943 -0.603352
  time 179
    0 0.000000 0.000000 0.000000 0.000000 0.000000 -0.000001
    1 0.000000 0.000000 0.000000 0.000000 0.000000 0.000000
    2 1938.324089 -1224.958394 0.916977 0.050371 0.026522 -0.605078
  time 180
    0 0.000000 0.000000 0.000000 0.000000 0.000000 -0.000001
    1 0.000000 0.000000 0.000000 0.000000 0.000000 0.000000
    2 1921.879606 -1227.025553 0.901435 0.049987 0.026016 -0.606804
  time 181
    0 0.000000 0.000000 0.000000 0.000000 0.000000 -0.000001
    1 0.000000 0.000000 0.000000 0.000000 0.000000 0.000000
    2 1905.342739 -1229.292760 0.870351 0.049604 0.025427 -0.608434
  time 182
    0 0.000000 0.000000 0.000000 0.000000 0.000000 -0.000001
    1 0.000000 0.000000 0.000000 0.000000 0.000000 0.000000
    2 1888.713487 -1231.693332 0.839267 0.049316 0.024669 -0.610255
  time 183
    0 0.000000 0.000000 0.000000 0.000000 0.000000 -0.000001
    1 0.000000 0.000000 0.000000 0.000000 0.000000 0.000000
    2 1871.991850 -1234.227269 0.808183 0.049125 0.023785 -0.612269
  time 184
    0 0.000000 0.000000 0.000000 0.000000 0.000000 -0.000001
    1 0.000000 0.000000 0.000000 0.000000 0.000000 0.000000
    2 1855.177829 -1236.827888 0.792641 0.048837 0.022733 -0.614378
  time 185
    0 0.000000 0.000000 0.000000 0.000000 0.000000 -0.000001
    1 0.000000 0.000000 0.000000 0.000000 0.000000 0.000000
    2 1838.179038 -1239.561872 0.761557 0.048741 0.021596 -0.616583
  time 186
    0 0.000000 0.000000 0.000000 0.000000 0.000000 -0.000001
    1 0.000000 0.000000 0.000000 0.000000 0.000000 0.000000
    2 1821.087862 -1242.295857 0.730473 0.048549 0.020333 -0.618884
  time 187
    0 0.000000 0.000000 0.000000 0.000000 0.000000 -0.000001
    1 0.000000 0.000000 0.000000 0.000000 0.000000 0.000000
    2 1803.996686 -1245.163206 0.714931 0.048358 0.018944 -0.621281
  time 188
    0 0.000000 0.000000 0.000000 0.000000 0.000000 -0.000001
    1 0.000000 0.000000 0.000000 0.000000 0.000000 0.000000
    2 1786.720741 -1248.163921 0.683847 0.048166 0.017471 -0.623774
  time 189
    0 0.000000 0.000000 0.000000 0.000000 0.000000 -0.000001
    1 0.000000 0.000000 0.000000 0.000000 0.000000 0.000000
    2 1769.444796 -1251.164636 0.652763 0.048070 0.015913 -0.626267
  time 190
    0 0.000000 0.000000 0.000000 0.000000 0.000000 -0.000001
    1 0.000000 0.000000 0.000000 0.000000 0.000000 0.000000
    2 1752.076466 -1254.232033 0.637221 0.047783 0.014313 -0.628855
  time 191
    0 0.000000 0.000000 0.000000 0.000000 0.000000 -0.000001
    1 0.000000 0.000000 0.000000 0.000000 0.000000 0.000000
    2 1734.615752 -1257.366112 0.606137 0.047591 0.012629 -0.631540
  time 192
    0 0.000000 0.000000 0.000000 0.000000 0.000000 -0.000001
    1 0.000000 0.000000 0.000000 0.000000 0.000000 0.000000
    2 1717.247422 -1260.500192 0.590595 0.047303 0.010903 -0.634320
  time 193
    0 0.000000 0.000000 0.000000 0.000000 0.000000 -0.000001
    1 0.000000 0.000000 0.000000 0.000000 0.000000 0.000000
    2 1699.786707 -1263.700954 0.575053 0.046920 0.009177 -0.637101
  time 194
    0 0.000000 0.000000 0.000000 0.000000 0.000000 -0.000001
    1 0.000000 0.000000 0.000000 0.000000 0.000000 0.000000
    2 1682.233608 -1266.968399 0.543969 0.046537 0.007367 -0.639881
  time 195
    0 0.000000 0.000000 0.000000 0.000000 0.000000 -0.000001
    1 0.000000 0.000000 0.000000 0.000000 0.000000 0.000000
    2 1664.772893 -1270.235844 0.528427 0.046057 0.005599 -0.642662
  time 196
    0 0.000000 0.000000 0.000000 0.000000 0.000000 -0.000001
    1 0.000000 0.000000 0.000000 0.000000 0.000000 0.000000
    2 1647.219794 -1273.503289 0.512885 0.045578 0.003831 -0.645442
  time 197
    0 0.000000 0.000000 0.000000 0.000000 0.000000 -0.000001
    1 0.000000 0.000000 0.000000 0.000000 0.000000 0.000000
    2 1629.666695 -1276.837416 0.497343 0.045003 0.002021 -0.648223
  time 198
    0 0.000000 0.000000 0.000000 0.000000 0.000000 -0.000001
    1 0.000000 0.000000 0.000000 0.000000 0.000000 0.000000
    2 1612.205980 -1280.104861 0.497343 0.044332 0.000295 -0.651003
  time 199
    0 0.000000 0.000000 0.000000 0.000000 0.000000 -0.000001
    1 0.000000 0.000000 0.000000 0.000000 0.000000 0.000000
    2 1594.745266 -1283.372306 0.481801 0.043661 -0.001389 -0.653783
  time 200
    0 0.000000 0.000000 0.000000 0.000000 0.000000 -0.000001
    1 0.000000 0.000000 0.000000 0.000000 0.000000 0.000000
    2 1577.284551 -1286.706433 0.481801 0.042894 -0.003073 -0.656468
  time 201
    0 0.000000 0.000000 0.000000 0.000000 0.000000 -0.000001
    1 0.000000 0.000000 0.000000 0.000000 0.000000 0.000000
    2 1559.916221 -1289.907196 0.466259 0.042127 -0.004673 -0.659152
  time 202
    0 0.000000 0.000000 0.000000 0.000000 0.000000 -0.000001
    1 0.000000 0.000000 0.000000 0.000000 0.000000 0.000000
    2 1542.640276 -1293.174640 0.466259 0.041265 -0.006273 -0.661837
  time 203
    0 0.000000 0.000000 0.000000 0.000000 0.000000 -0.000001
    1 0.000000 0.000000 0.000000 0.000000 0.000000 0.000000
    2 1525.271946 -1296.375403 0.466259 0.040306 -0.007746 -0.664330
  time 204
    0 0.000000 0.000000 0.000000 0.000000 0.000000 -0.000001
    1 0.000000 0.000000 0.000000 0.000000 0.000000 0.000000
    2 1508.180770 -1299.509482 0.466259 0.039348 -0.009177 -0.666823
  time 205
    0 0.000000 0.000000 0.000000 0.000000 0.000000 -0.000001
    1 0.000000 0.000000 0.000000 0.000000 0.000000 0.000000
    2 1490.997210 -1302.643562 0.481801 0.038389 -0.010524 -0.669220
  time 206
    0 0.000000 0.000000 0.000000 0.000000 0.000000 -0.000001
    1 0.000000 0.000000 0.000000 0.000000 0.000000 0.000000
    2 1473.998419 -1305.710959 0.497343 0.037430 -0.011787 -0.671616
  time 207
    0 0.000000 0.000000 0.000000 0.000000 0.000000 -0.000001
    1 0.000000 0.000000 0.000000 0.000000 0.000000 0.000000
    2 1457.092013 -1308.711674 0.512885 0.036376 -0.013008 -0.673822
  time 208
    0 0.000000 0.000000 0.000000 0.000000 0.000000 -0.000001
    1 0.000000 0.000000 0.000000 0.000000 0.000000 0.000000
    2 1440.277992 -1311.645706 0.528427 0.035418 -0.014103 -0.675931
  time 209
    0 0.000000 0.000000 0.000000 0.000000 0.000000 -0.000001
    1 0.000000 0.000000 0.000000 0.000000 0.000000 0.000000
    2 1423.556355 -1314.446373 0.543969 0.034363 -0.015113 -0.677848
  time 210
    0 0.000000 0.000000 0.000000 0.000000 0.000000 -0.000001
    1 0.000000 0.000000 0.000000 0.000000 0.000000 0.000000
    2 1407.111872 -1317.247040 0.575053 0.033405 -0.016039 -0.679766
  time 211
    0 0.000000 0.000000 0.000000 0.000000 0.000000 -0.000001
    1 0.000000 0.000000 0.000000 0.000000 0.000000 0.000000
    2 1390.667390 -1319.914342 0.590595 0.032446 -0.016881 -0.681396
  time 212
    0 0.000000 0.000000 0.000000 0.000000 0.000000 -0.000001
    1 0.000000 0.000000 0.000000 0.000000 0.000000 0.000000
    2 1374.407677 -1322.514961 0.637221 0.031488 -0.017639 -0.683026
  time 213
    0 0.000000 0.000000 0.000000 0.000000 0.000000 -0.000001
    1 0.000000 0.000000 0.000000 0.000000 0.000000 0.000000
    2 1358.332733 -1324.982215 0.668305 0.030625 -0.018313 -0.684368
  time 214
    0 0.000000 0.000000 0.000000 0.000000 0.000000 -0.000001
    1 0.000000 0.000000 0.000000 0.000000 0.000000 0.000000
    2 1342.442559 -1327.316105 0.714931 0.029762 -0.018902 -0.685614
  time 215
    0 0.000000 0.000000 0.000000 0.000000 0.000000 -0.000001
    1 0.000000 0.000000 0.000000 0.000000 0.000000 0.000000
    2 1326.644770 -1329.583311 0.761557 0.028995 -0.019407 -0.686669
  time 216
    0 0.000000 0.000000 0.000000 0.000000 0.000000 -0.000001
    1 0.000000 0.000000 0.000000 0.000000 0.000000 0.000000
    2 1311.124134 -1331.717153 0.808183 0.028324 -0.019870 -0.687628
  time 217
    0 0.000000 0.000000 0.000000 0.000000 0.000000 -0.000001
    1 0.000000 0.000000 0.000000 0.000000 0.000000 0.000000
    2 1295.788269 -1333.650947 0.870351 0.027653 -0.020249 -0.688299
  time 218
    0 0.000000 0.000000 0.000000 0.000000 0.000000 -0.000001
    1 0.000000 0.000000 0.000000 0.000000 0.000000 0.000000
    2 1280.637172 -1335.518058 0.932519 0.027078 -0.020544 -0.688778
  time 219
    0 0.000000 0.000000 0.000000 0.000000 0.000000 -0.000001
    1 0.000000 0.000000 0.000000 0.000000 0.000000 0.000000
    2 1265.670846 -1337.185122 0.994687 0.026599 -0.020796 -0.688970
  time 220
    0 0.000000 0.000000 0.000000 0.000000 0.000000 -0.000001
    1 0.000000 0.000000 0.000000 0.000000 0.000000 0.000000
    2 1250.981673 -1338.785503 1.072397 0.026120 -0.020965 -0.689066
  time 221
    0 0.000000 0.000000 0.000000 0.000000 0.000000 -0.000001
    1 0.000000 0.000000 0.000000 0.000000 0.000000 0.000000
    2 1236.477270 -1340.119154 1.150107 0.025832 -0.021091 -0.688874
  time 222
    0 0.000000 0.000000 0.000000 0.000000 0.000000 -0.000001
    1 0.000000 0.000000 0.000000 0.000000 0.000000 0.000000
    2 1222.342406 -1341.319440 1.227816 0.025640 -0.021133 -0.688491
  time 223
    0 0.000000 0.000000 0.000000 0.000000 0.000000 -0.000001
    1 0.000000 0.000000 0.000000 0.000000 0.000000 0.000000
    2 1208.392311 -1342.386360 1.321068 0.025545 -0.021133 -0.687724
  time 224
    0 0.000000 0.000000 0.000000 0.000000 0.000000 -0.000001
    1 0.000000 0.000000 0.000000 0.000000 0.000000 0.000000
    2 1194.626986 -1343.253233 1.414320 0.025545 -0.021049 -0.686861
  time 225
    0 0.000000 0.000000 0.000000 0.000000 0.000000 -0.000001
    1 0.000000 0.000000 0.000000 0.000000 0.000000 0.000000
    2 1181.231199 -1343.920059 1.523114 0.025640 -0.020923 -0.685614
  time 226
    0 0.000000 0.000000 0.000000 0.000000 0.000000 -0.000001
    1 0.000000 0.000000 0.000000 0.000000 0.000000 0.000000
    2 1168.297337 -1344.453519 1.616366 0.025928 -0.020754 -0.684080
  time 227
    0 0.000000 0.000000 0.000000 0.000000 0.000000 -0.000001
    1 0.000000 0.000000 0.000000 0.000000 0.000000 0.000000
    2 1155.825398 -1344.986980 1.709618 0.026407 -0.020628 -0.682259
  time 228
    0 0.000000 0.000000 0.000000 0.000000 0.000000 -0.000001
    1 0.000000 0.000000 0.000000 0.000000 0.000000 0.000000
    2 1144.000152 -1345.453757 1.802870 0.027078 -0.020502 -0.680245
  time 229
    0 0.000000 0.000000 0.000000 0.000000 0.000000 -0.000001
    1 0.000000 0.000000 0.000000 0.000000 0.000000 0.000000
    2 1132.729214 -1345.920535 1.880580 0.027941 -0.020417 -0.677848
  time 230
    0 0.000000 0.000000 0.000000 0.000000 0.000000 -0.000001
    1 0.000000 0.000000 0.000000 0.000000 0.000000 0.000000
    2 1121.827816 -1346.253948 1.958290 0.028995 -0.020249 -0.675164
  time 231
    0 0.000000 0.000000 0.000000 0.000000 0.000000 -0.000001
    1 0.000000 0.000000 0.000000 0.000000 0.000000 0.000000
    2 1111.573111 -1346.587361 2.036000 0.030241 -0.020123 -0.672288
  time 232
    0 0.000000 0.000000 0.000000 0.000000 0.000000 -0.000001
    1 0.000000 0.000000 0.000000 0.000000 0.000000 0.000000
    2 1101.595559 -1346.920774 2.113709 0.031679 -0.019912 -0.669124
  time 233
    0 0.000000 0.000000 0.000000 0.000000 0.000000 -0.000001
    1 0.000000 0.000000 0.000000 0.000000 0.000000 0.000000
    2 1092.079932 -1347.054139 2.191419 0.033309 -0.019618 -0.665768
  time 234
    0 0.000000 0.000000 0.000000 0.000000 0.000000 -0.000001
    1 0.000000 0.000000 0.000000 0.000000 0.000000 0.000000
    2 1083.026228 -1347.187504 2.284671 0.035034 -0.019281 -0.662221
  time 235
    0 0.000000 0.000000 0.000000 0.000000 0.000000 -0.000001
    1 0.000000 0.000000 0.000000 0.000000 0.000000 0.000000
    2 1074.249678 -1347.254186 2.393465 0.036951 -0.018818 -0.658385
  time 236
    0 0.000000 0.000000 0.000000 0.000000 0.000000 -0.000001
    1 0.000000 0.000000 0.000000 0.000000 0.000000 0.000000
    2 1065.750283 -1347.187504 2.502259 0.038964 -0.018186 -0.654359
  time 237
    0 0.000000 0.000000 0.000000 0.000000 0.000000 -0.000001
    1 0.000000 0.000000 0.000000 0.000000 0.000000 0.000000
    2 1057.712811 -1347.054139 2.626595 0.041169 -0.017428 -0.650236
  time 238
    0 0.000000 0.000000 0.000000 0.000000 0.000000 -0.000001
    1 0.000000 0.000000 0.000000 0.000000 0.000000 0.000000
    2 1049.860109 -1346.787408 2.750931 0.043565 -0.016502 -0.645826
  time 239
    0 0.000000 0.000000 0.000000 0.000000 0.000000 -0.000001
    1 0.000000 0.000000 0.000000 0.000000 0.000000 0.000000
    2 1042.192176 -1346.387313 2.906350 0.045961 -0.015366 -0.641319
  time 240
    0 0.000000 0.000000 0.000000 0.000000 0.000000 -0.000001
    1 0.000000 0.000000 0.000000 0.000000 0.000000 0.000000
    2 1034.801397 -1345.920535 3.077312 0.048454 -0.014061 -0.636621
  time 241
    0 0.000000 0.000000 0.000000 0.000000 0.000000 -0.000001
    1 0.000000 0.000000 0.000000 0.000000 0.000000 0.000000
    2 1027.687773 -1345.253710 3.279358 0.051042 -0.012503 -0.631828
  time 242
    0 0.000000 0.000000 0.000000 0.000000 0.000000 -0.000001
    1 0.000000 0.000000 0.000000 0.000000 0.000000 0.000000
    2 1020.574148 -1344.520202 3.496946 0.053630 -0.010651 -0.626938
  time 243
    0 0.000000 0.000000 0.000000 0.000000 0.000000 -0.000001
    1 0.000000 0.000000 0.000000 0.000000 0.000000 0.000000
    2 1013.737678 -1343.653329 3.730075 0.056314 -0.008588 -0.621856
  time 244
    0 0.000000 0.000000 0.000000 0.000000 0.000000 -0.000001
    1 0.000000 0.000000 0.000000 0.000000 0.000000 0.000000
    2 1006.993593 -1342.586408 4.009831 0.058902 -0.006273 -0.616679
  time 245
    0 0.000000 0.000000 0.000000 0.000000 0.000000 -0.000001
    1 0.000000 0.000000 0.000000 0.000000 0.000000 0.000000
    2 1000.249507 -1341.386122 4.305129 0.061490 -0.003620 -0.611406
  time 246
    0 0.000000 0.000000 0.000000 0.000000 0.000000 -0.000001
    1 0.000000 0.000000 0.000000 0.000000 0.000000 0.000000
    2 993.690191 -1340.052471 4.631510 0.063982 -0.000758 -0.606037
  time 247
    0 0.000000 0.000000 0.000000 0.000000 0.000000 -0.000001
    1 0.000000 0.000000 0.000000 0.000000 0.000000 0.000000
    2 987.038490 -1338.518773 5.004518 0.066474 0.002357 -0.600668
  time 248
    0 0.000000 0.000000 0.000000 0.000000 0.000000 -0.000001
    1 0.000000 0.000000 0.000000 0.000000 0.000000 0.000000
    2 980.479174 -1336.785026 5.408609 0.068774 0.005809 -0.595107
  time 249
    0 0.000000 0.000000 0.000000 0.000000 0.000000 -0.000001
    1 0.000000 0.000000 0.000000 0.000000 0.000000 0.000000
    2 973.827473 -1334.917915 5.843785 0.070883 0.009514 -0.589642
  time 250
    0 0.000000 0.000000 0.000000 0.000000 0.000000 -0.000001
    1 0.000000 0.000000 0.000000 0.000000 0.000000 0.000000
    2 967.175772 -1332.850756 6.325586 0.072896 0.013471 -0.584081
  time 251
    0 0.000000 0.000000 0.000000 0.000000 0.000000 -0.000001
    1 0.000000 0.000000 0.000000 0.000000 0.000000 0.000000
    2 960.339302 -1330.583549 6.854014 0.074622 0.017681 -0.578424
  time 252
    0 0.000000 0.000000 0.000000 0.000000 0.000000 -0.000001
    1 0.000000 0.000000 0.000000 0.000000 0.000000 0.000000
    2 953.502832 -1328.049613 7.413525 0.076155 0.022101 -0.572863
  time 253
    0 0.000000 0.000000 0.000000 0.000000 0.000000 -0.000001
    1 0.000000 0.000000 0.000000 0.000000 0.000000 0.000000
    2 946.481592 -1325.382311 8.035204 0.077497 0.026690 -0.567207
  time 254
    0 0.000000 0.000000 0.000000 0.000000 0.000000 -0.000001
    1 0.000000 0.000000 0.000000 0.000000 0.000000 0.000000
    2 939.367968 -1322.514961 8.687967 0.078456 0.031489 -0.561646
  time 255
    0 0.000000 0.000000 0.000000 0.000000 0.000000 -0.000001
    1 0.000000 0.000000 0.000000 0.000000 0.000000 0.000000
    2 932.161959 -1319.380881 9.465066 0.079222 0.036372 -0.556085
  time 256
    0 0.000000 0.000000 0.000000 0.000000 0.000000 -0.000001
    1 0.000000 0.000000 0.000000 0.000000 0.000000 0.000000
    2 925.140719 -1316.046754 10.397585 0.079702 0.041382 -0.550620
  time 257
    0 0.000000 0.000000 0.000000 0.000000 0.000000 -0.000001
    1 0.000000 0.000000 0.000000 0.000000 0.000000 0.000000
    2 918.304249 -1312.512579 11.485524 0.079893 0.046518 -0.545155
  time 258
    0 0.000000 0.000000 0.000000 0.000000 0.000000 -0.000001
    1 0.000000 0.000000 0.000000 0.000000 0.000000 0.000000
    2 911.652548 -1308.845039 12.713340 0.079702 0.051612 -0.539882
  time 259
    0 0.000000 0.000000 0.000000 0.000000 0.000000 -0.000001
    1 0.000000 0.000000 0.000000 0.000000 0.000000 0.000000
    2 905.093232 -1304.977451 14.049951 0.079318 0.056790 -0.534609
  time 260
    0 0.000000 0.000000 0.000000 0.000000 0.000000 -0.000001
    1 0.000000 0.000000 0.000000 0.000000 0.000000 0.000000
    2 898.718685 -1300.843133 15.510897 0.078552 0.061926 -0.529431
  time 261
    0 0.000000 0.000000 0.000000 0.000000 0.000000 -0.000001
    1 0.000000 0.000000 0.000000 0.000000 0.000000 0.000000
    2 892.436523 -1296.642133 17.065095 0.077593 0.066978 -0.524446
  time 262
    0 0.000000 0.000000 0.000000 0.000000 0.000000 -0.000001
    1 0.000000 0.000000 0.000000 0.000000 0.000000 0.000000
    2 886.246746 -1292.174402 18.697003 0.076347 0.071987 -0.519652
  time 263
    0 0.000000 0.000000 0.000000 0.000000 0.000000 -0.000001
    1 0.000000 0.000000 0.000000 0.000000 0.000000 0.000000
    2 880.149354 -1287.573306 20.406621 0.074909 0.076871 -0.514954
  time 264
    0 0.000000 0.000000 0.000000 0.000000 0.000000 -0.000001
    1 0.000000 0.000000 0.000000 0.000000 0.000000 0.000000
    2 874.236731 -1282.772163 22.178407 0.073184 0.081586 -0.510448
  time 265
    0 0.000000 0.000000 0.000000 0.000000 0.000000 -0.000001
    1 0.000000 0.000000 0.000000 0.000000 0.000000 0.000000
    2 868.324108 -1277.837655 23.981277 0.071363 0.086132 -0.506037
  time 266
    0 0.000000 0.000000 0.000000 0.000000 0.000000 -0.000001
    1 0.000000 0.000000 0.000000 0.000000 0.000000 0.000000
    2 862.503870 -1272.703098 25.830772 0.069254 0.090552 -0.501915
  time 267
    0 0.000000 0.000000 0.000000 0.000000 0.000000 -0.000001
    1 0.000000 0.000000 0.000000 0.000000 0.000000 0.000000
    2 856.683632 -1267.435177 27.695810 0.067145 0.094678 -0.497984
  time 268
    0 0.000000 0.000000 0.000000 0.000000 0.000000 -0.000001
    1 0.000000 0.000000 0.000000 0.000000 0.000000 0.000000
    2 851.048163 -1262.033891 29.560848 0.064940 0.098635 -0.494340
  time 269
    0 0.000000 0.000000 0.000000 0.000000 0.000000 -0.000001
    1 0.000000 0.000000 0.000000 0.000000 0.000000 0.000000
    2 845.320309 -1256.432557 31.441428 0.062736 0.102298 -0.490793
  time 270
    0 0.000000 0.000000 0.000000 0.000000 0.000000 -0.000001
    1 0.000000 0.000000 0.000000 0.000000 0.000000 0.000000
    2 839.777225 -1250.697858 33.275381 0.060435 0.105750 -0.487629
  time 271
    0 0.000000 0.000000 0.000000 0.000000 0.000000 -0.000001
    1 0.000000 0.000000 0.000000 0.000000 0.000000 0.000000
    2 834.141757 -1244.829794 35.078251 0.058231 0.108907 -0.484657
  time 272
    0 0.000000 0.000000 0.000000 0.000000 0.000000 -0.000001
    1 0.000000 0.000000 0.000000 0.000000 0.000000 0.000000
    2 828.506288 -1238.761682 36.850037 0.056122 0.111812 -0.481972
  time 273
    0 0.000000 0.000000 0.000000 0.000000 0.000000 -0.000001
    1 0.000000 0.000000 0.000000 0.000000 0.000000 0.000000
    2 822.963204 -1232.626887 38.559655 0.054109 0.114422 -0.479479
  time 274
    0 0.000000 0.000000 0.000000 0.000000 0.000000 -0.000001
    1 0.000000 0.000000 0.000000 0.000000 0.000000 0.000000
    2 817.420120 -1226.358728 40.191563 0.052192 0.116779 -0.477370
  time 275
    0 0.000000 0.000000 0.000000 0.000000 0.000000 -0.000001
    1 0.000000 0.000000 0.000000 0.000000 0.000000 0.000000
    2 811.784651 -1219.890521 41.745761 0.050562 0.118842 -0.475453
  time 276
    0 0.000000 0.000000 0.000000 0.000000 0.000000 -0.000001
    1 0.000000 0.000000 0.000000 0.000000 0.000000 0.000000
    2 806.149182 -1213.355631 43.206707 0.049125 0.120610 -0.473919
  time 277
    0 0.000000 0.000000 0.000000 0.000000 0.000000 -0.000001
    1 0.000000 0.000000 0.000000 0.000000 0.000000 0.000000
    2 800.513714 -1206.687376 44.543317 0.047974 0.122084 -0.472672
  time 278
    0 0.000000 0.000000 0.000000 0.000000 0.000000 -0.000001
    1 0.000000 0.000000 0.000000 0.000000 0.000000 0.000000
    2 794.785860 -1199.819074 45.771134 0.047016 0.123262 -0.471713
  time 279
    0 0.000000 0.000000 0.000000 0.000000 0.000000 -0.000001
    1 0.000000 0.000000 0.000000 0.000000 0.000000 0.000000
    2 789.058007 -1192.950772 46.843531 0.046537 0.124146 -0.471042
  time 280
    0 0.000000 0.000000 0.000000 0.000000 0.000000 -0.000001
    1 0.000000 0.000000 0.000000 0.000000 0.000000 0.000000
    2 783.330153 -1185.882422 47.853759 0.046057 0.124862 -0.470659
  time 281
    0 0.000000 0.000000 0.000000 0.000000 0.000000 -0.000001
    1 0.000000 0.000000 0.000000 0.000000 0.000000 0.000000
    2 777.602300 -1178.747389 48.863988 0.045674 0.125493 -0.470371
  time 282
    0 0.000000 0.000000 0.000000 0.000000 0.000000 -0.000001
    1 0.000000 0.000000 0.000000 0.000000 0.000000 0.000000
    2 771.966831 -1171.545674 49.858675 0.045290 0.126125 -0.470179
  time 283
    0 0.000000 0.000000 0.000000 0.000000 0.000000 -0.000001
    1 0.000000 0.000000 0.000000 0.000000 0.000000 0.000000
    2 766.331362 -1164.143911 50.853362 0.044811 0.126672 -0.470084
  time 284
    0 0.000000 0.000000 0.000000 0.000000 0.000000 -0.000001
    1 0.000000 0.000000 0.000000 0.000000 0.000000 0.000000
    2 760.695894 -1156.675466 51.832507 0.044332 0.127135 -0.470179
  time 285
    0 0.000000 0.000000 0.000000 0.000000 0.000000 -0.000001
    1 0.000000 0.000000 0.000000 0.000000 0.000000 0.000000
    2 755.152810 -1149.140338 52.796109 0.043853 0.127598 -0.470275
  time 286
    0 0.000000 0.000000 0.000000 0.000000 0.000000 -0.000001
    1 0.000000 0.000000 0.000000 0.000000 0.000000 0.000000
    2 749.609726 -1141.538528 53.744170 0.043373 0.127977 -0.470467
  time 287
    0 0.000000 0.000000 0.000000 0.000000 0.000000 -0.000001
    1 0.000000 0.000000 0.000000 0.000000 0.000000 0.000000
    2 744.159026 -1133.736670 54.676689 0.042894 0.128356 -0.470851
  time 288
    0 0.000000 0.000000 0.000000 0.000000 0.000000 -0.000001
    1 0.000000 0.000000 0.000000 0.000000 0.000000 0.000000
    2 738.708327 -1125.934812 55.593666 0.042415 0.128651 -0.471234
  time 289
    0 0.000000 0.000000 0.000000 0.000000 0.000000 -0.000001
    1 0.000000 0.000000 0.000000 0.000000 0.000000 0.000000
    2 733.165243 -1118.066271 56.495101 0.041936 0.128903 -0.471809
  time 290
    0 0.000000 0.000000 0.000000 0.000000 0.000000 -0.000001
    1 0.000000 0.000000 0.000000 0.000000 0.000000 0.000000
    2 727.714544 -1110.064365 57.380994 0.041456 0.129114 -0.472385
  time 291
    0 0.000000 0.000000 0.000000 0.000000 0.000000 -0.000001
    1 0.000000 0.000000 0.000000 0.000000 0.000000 0.000000
    2 722.263845 -1101.995777 58.220261 0.040977 0.129240 -0.473056
  time 292
    0 0.000000 0.000000 0.000000 0.000000 0.000000 -0.000001
    1 0.000000 0.000000 0.000000 0.000000 0.000000 0.000000
    2 716.813145 -1093.927189 59.059528 0.040402 0.129366 -0.473919
  time 293
    0 0.000000 0.000000 0.000000 0.000000 0.000000 -0.000001
    1 0.000000 0.000000 0.000000 0.000000 0.000000 0.000000
    2 711.362446 -1085.658553 59.867711 0.039923 0.129451 -0.474782
  time 294
    0 0.000000 0.000000 0.000000 0.000000 0.000000 -0.000001
    1 0.000000 0.000000 0.000000 0.000000 0.000000 0.000000
    2 705.911747 -1077.456600 60.629268 0.039348 0.129493 -0.475740
  time 295
    0 0.000000 0.000000 0.000000 0.000000 0.000000 -0.000001
    1 0.000000 0.000000 0.000000 0.000000 0.000000 0.000000
    2 700.461048 -1069.121281 61.375283 0.038868 0.129493 -0.476795
  time 296
    0 0.000000 0.000000 0.000000 0.000000 0.000000 -0.000001
    1 0.000000 0.000000 0.000000 0.000000 0.000000 0.000000
    2 695.010348 -1060.719280 62.090214 0.038389 0.129451 -0.477945
  time 297
    0 0.000000 0.000000 0.000000 0.000000 0.000000 -0.000001
    1 0.000000 0.000000 0.000000 0.000000 0.000000 0.000000
    2 689.467264 -1052.317279 62.774061 0.037814 0.129366 -0.479096
  time 298
    0 0.000000 0.000000 0.000000 0.000000 0.000000 -0.000001
    1 0.000000 0.000000 0.000000 0.000000 0.000000 0.000000
    2 683.924180 -1043.848596 63.411282 0.037335 0.129282 -0.480438
  time 299
    0 0.000000 0.000000 0.000000 0.000000 0.000000 -0.000001
    1 0.000000 0.000000 0.000000 0.000000 0.000000 0.000000
    2 678.381096 -1035.313230 64.017420 0.036759 0.129114 -0.481781
  time 300
    0 0.000000 0.000000 0.000000 0.000000 0.000000 -0.000001
    1 0.000000 0.000000 0.000000 0.000000 0.000000 0.000000
    2 672.838012 -1026.777864 64.576931 0.036280 0.128946 -0.483219
  time 301
    0 0.000000 0.000000 0.000000 0.000000 0.000000 -0.000001
    1 0.000000 0.000000 0.000000 0.000000 0.000000 0.000000
    2 667.202544 -1018.175815 65.105358 0.035801 0.128735 -0.484753
  time 302
    0 0.000000 0.000000 0.000000 0.000000 0.000000 -0.000001
    1 0.000000 0.000000 0.000000 0.000000 0.000000 0.000000
    2 661.474690 -1009.507084 65.587160 0.035226 0.128525 -0.486383
  time 303
    0 0.000000 0.000000 0.000000 0.000000 0.000000 -0.000001
    1 0.000000 0.000000 0.000000 0.000000 0.000000 0.000000
    2 655.839221 -1000.838353 66.022335 0.034747 0.128230 -0.488013
  time 304
    0 0.000000 0.000000 0.000000 0.000000 0.000000 -0.000001
    1 0.000000 0.000000 0.000000 0.000000 0.000000 0.000000
    2 650.018983 -992.169622 66.410885 0.034267 0.127935 -0.489738
  time 305
    0 0.000000 0.000000 0.000000 0.000000 0.000000 -0.000001
    1 0.000000 0.000000 0.000000 0.000000 0.000000 0.000000
    2 644.198745 -983.367525 66.752808 0.033692 0.127598 -0.491560
  time 306
    0 0.000000 0.000000 0.000000 0.000000 0.000000 -0.000001
    1 0.000000 0.000000 0.000000 0.000000 0.000000 0.000000
    2 638.286122 -974.565429 67.063648 0.033213 0.127262 -0.493382
  time 307
    0 0.000000 0.000000 0.000000 0.000000 0.000000 -0.000001
    1 0.000000 0.000000 0.000000 0.000000 0.000000 0.000000
    2 632.003960 -965.496603 67.374488 0.032734 0.126883 -0.495299
  time 308
    0 0.000000 0.000000 0.000000 0.000000 0.000000 -0.000001
    1 0.000000 0.000000 0.000000 0.000000 0.000000 0.000000
    2 625.537029 -956.094364 67.685327 0.032254 0.126504 -0.497313
  time 309
    0 0.000000 0.000000 0.000000 0.000000 0.000000 -0.000001
    1 0.000000 0.000000 0.000000 0.000000 0.000000 0.000000
    2 618.885328 -946.625442 67.996167 0.031775 0.126083 -0.499326
  time 310
    0 0.000000 0.000000 0.000000 0.000000 0.000000 -0.000001
    1 0.000000 0.000000 0.000000 0.000000 0.000000 0.000000
    2 611.864088 -936.889790 68.291464 0.031296 0.125662 -0.501435
  time 311
    0 0.000000 0.000000 0.000000 0.000000 0.000000 -0.000001
    1 0.000000 0.000000 0.000000 0.000000 0.000000 0.000000
    2 604.750464 -926.887408 68.602304 0.030817 0.125199 -0.503640
  time 312
    0 0.000000 0.000000 0.000000 0.000000 0.000000 -0.000001
    1 0.000000 0.000000 0.000000 0.000000 0.000000 0.000000
    2 597.359685 -916.818343 68.897602 0.030337 0.124736 -0.505846
  time 313
    0 0.000000 0.000000 0.000000 0.000000 0.000000 -0.000001
    1 0.000000 0.000000 0.000000 0.000000 0.000000 0.000000
    2 589.784137 -906.549231 69.192899 0.029858 0.124231 -0.508147
  time 314
    0 0.000000 0.000000 0.000000 0.000000 0.000000 -0.000001
    1 0.000000 0.000000 0.000000 0.000000 0.000000 0.000000
    2 582.023820 -896.013388 69.503739 0.029475 0.123725 -0.510448
  time 315
    0 0.000000 0.000000 0.000000 0.000000 0.000000 -0.000001
    1 0.000000 0.000000 0.000000 0.000000 0.000000 0.000000
    2 574.078732 -885.410863 69.799037 0.028995 0.123220 -0.512749
  time 316
    0 0.000000 0.000000 0.000000 0.000000 0.000000 -0.000001
    1 0.000000 0.000000 0.000000 0.000000 0.000000 0.000000
    2 566.041261 -874.674973 70.094334 0.028516 0.122715 -0.515146
  time 317
    0 0.000000 0.000000 0.000000 0.000000 0.000000 -0.000001
    1 0.000000 0.000000 0.000000 0.000000 0.000000 0.000000
    2 557.726635 -863.739036 70.389632 0.028133 0.122168 -0.517638
  time 318
    0 0.000000 0.000000 0.000000 0.000000 0.000000 -0.000001
    1 0.000000 0.000000 0.000000 0.000000 0.000000 0.000000
    2 549.319624 -852.736415 70.700471 0.027653 0.121621 -0.520131
  time 319
    0 0.000000 0.000000 0.000000 0.000000 0.000000 -0.000001
    1 0.000000 0.000000 0.000000 0.000000 0.000000 0.000000
    2 540.820229 -841.533747 70.995769 0.027270 0.121073 -0.522624
  time 320
    0 0.000000 0.000000 0.000000 0.000000 0.000000 -0.000001
    1 0.000000 0.000000 0.000000 0.000000 0.000000 0.000000
    2 532.136064 -830.264397 71.291067 0.026887 0.120484 -0.525213
  time 321
    0 0.000000 0.000000 0.000000 0.000000 0.000000 -0.000001
    1 0.000000 0.000000 0.000000 0.000000 0.000000 0.000000
    2 523.359514 -818.928364 71.586364 0.026503 0.119937 -0.527897
  time 322
    0 0.000000 0.000000 0.000000 0.000000 0.000000 -0.000001
    1 0.000000 0.000000 0.000000 0.000000 0.000000 0.000000
    2 514.490580 -807.458966 71.897204 0.026120 0.119347 -0.530486
  time 323
    0 0.000000 0.000000 0.000000 0.000000 0.000000 -0.000001
    1 0.000000 0.000000 0.000000 0.000000 0.000000 0.000000
    2 505.436876 -795.856202 72.192502 0.025736 0.118800 -0.533170
  time 324
    0 0.000000 0.000000 0.000000 0.000000 0.000000 -0.000001
    1 0.000000 0.000000 0.000000 0.000000 0.000000 0.000000
    2 496.383172 -784.253439 72.503341 0.025353 0.118211 -0.535951
  time 325
    0 0.000000 0.000000 0.000000 0.000000 0.000000 -0.000001
    1 0.000000 0.000000 0.000000 0.000000 0.000000 0.000000
    2 487.237083 -772.583993 72.814181 0.024970 0.117621 -0.538635
  time 326
    0 0.000000 0.000000 0.000000 0.000000 0.000000 -0.000001
    1 0.000000 0.000000 0.000000 0.000000 0.000000 0.000000
    2 477.998610 -760.781182 73.125020 0.024586 0.117074 -0.541416
  time 327
    0 0.000000 0.000000 0.000000 0.000000 0.000000 -0.000001
    1 0.000000 0.000000 0.000000 0.000000 0.000000 0.000000
    2 468.760137 -749.045054 73.435860 0.024299 0.116485 -0.544292
  time 328
    0 0.000000 0.000000 0.000000 0.000000 0.000000 -0.000001
    1 0.000000 0.000000 0.000000 0.000000 0.000000 0.000000
    2 459.429279 -737.242243 73.746700 0.023915 0.115937 -0.547073
  time 329
    0 0.000000 0.000000 0.000000 0.000000 0.000000 -0.000001
    1 0.000000 0.000000 0.000000 0.000000 0.000000 0.000000
    2 450.006036 -725.372750 74.073081 0.023628 0.115348 -0.549949
  time 330
    0 0.000000 0.000000 0.000000 0.000000 0.000000 -0.000001
    1 0.000000 0.000000 0.000000 0.000000 0.000000 0.000000
    2 440.675178 -713.569939 74.383921 0.023244 0.114801 -0.552825
  time 331
    0 0.000000 0.000000 0.000000 0.000000 0.000000 -0.000001
    1 0.000000 0.000000 0.000000 0.000000 0.000000 0.000000
    2 431.251935 -701.700446 74.710303 0.022957 0.114253 -0.555701
  time 332
    0 0.000000 0.000000 0.000000 0.000000 0.000000 -0.000001
    1 0.000000 0.000000 0.000000 0.000000 0.000000 0.000000
    2 421.828692 -689.830952 75.036684 0.022669 0.113706 -0.558674
  time 333
    0 0.000000 0.000000 0.000000 0.000000 0.000000 -0.000001
    1 0.000000 0.000000 0.000000 0.000000 0.000000 0.000000
    2 412.497834 -678.028141 75.378608 0.022381 0.113201 -0.561550
  time 334
    0 0.000000 0.000000 0.000000 0.000000 0.000000 -0.000001
    1 0.000000 0.000000 0.000000 0.000000 0.000000 0.000000
    2 403.074591 -666.158648 75.720531 0.022094 0.112654 -0.564522
  time 335
    0 0.000000 0.000000 0.000000 0.000000 0.000000 -0.000001
    1 0.000000 0.000000 0.000000 0.000000 0.000000 0.000000
    2 393.651348 -654.355837 76.062455 0.021806 0.112148 -0.567494
  time 336
    0 0.000000 0.000000 0.000000 0.000000 0.000000 -0.000001
    1 0.000000 0.000000 0.000000 0.000000 0.000000 0.000000
    2 384.320490 -642.686391 76.404378 0.021519 0.111685 -0.570466
  time 337
    0 0.000000 0.000000 0.000000 0.000000 0.000000 -0.000001
    1 0.000000 0.000000 0.000000 0.000000 0.000000 0.000000
    2 375.082017 -630.950263 76.761844 0.021327 0.111180 -0.573439
  time 338
    0 0.000000 0.000000 0.000000 0.000000 0.000000 -0.000001
    1 0.000000 0.000000 0.000000 0.000000 0.000000 0.000000
    2 365.843544 -619.280817 77.119310 0.021040 0.110717 -0.576507
  time 339
    0 0.000000 0.000000 0.000000 0.000000 0.000000 -0.000001
    1 0.000000 0.000000 0.000000 0.000000 0.000000 0.000000
    2 356.697455 -607.744736 77.476775 0.020848 0.110296 -0.579479
  time 340
    0 0.000000 0.000000 0.000000 0.000000 0.000000 -0.000001
    1 0.000000 0.000000 0.000000 0.000000 0.000000 0.000000
    2 347.551367 -596.275338 77.849783 0.020560 0.109875 -0.582451
  time 341
    0 0.000000 0.000000 0.000000 0.000000 0.000000 -0.000001
    1 0.000000 0.000000 0.000000 0.000000 0.000000 0.000000
    2 338.497663 -584.872623 78.222790 0.020369 0.109496 -0.585519
  time 342
    0 0.000000 0.000000 0.000000 0.000000 0.000000 -0.000001
    1 0.000000 0.000000 0.000000 0.000000 0.000000 0.000000
    2 329.628728 -573.603272 78.611340 0.020177 0.109117 -0.588491
  time 343
    0 0.000000 0.000000 0.000000 0.000000 0.000000 -0.000001
    1 0.000000 0.000000 0.000000 0.000000 0.000000 0.000000
    2 320.759794 -562.467287 78.999889 0.019985 0.108739 -0.591559
  time 344
    0 0.000000 0.000000 0.000000 0.000000 0.000000 -0.000001
    1 0.000000 0.000000 0.000000 0.000000 0.000000 0.000000
    2 312.075629 -551.331301 79.403981 0.019793 0.108444 -0.594532
  time 345
    0 0.000000 0.000000 0.000000 0.000000 0.000000 -0.000001
    1 0.000000 0.000000 0.000000 0.000000 0.000000 0.000000
    2 303.483849 -540.462046 79.808072 0.019602 0.108107 -0.597600
  time 346
    0 0.000000 0.000000 0.000000 0.000000 0.000000 -0.000001
    1 0.000000 0.000000 0.000000 0.000000 0.000000 0.000000
    2 295.076838 -529.659473 80.212164 0.019410 0.107855 -0.600572
  time 347
    0 0.000000 0.000000 0.000000 0.000000 0.000000 -0.000001
    1 0.000000 0.000000 0.000000 0.000000 0.000000 0.000000
    2 286.669827 -518.990266 80.647339 0.019218 0.107602 -0.603544
  time 348
    0 0.000000 0.000000 0.000000 0.000000 0.000000 -0.000001
    1 0.000000 0.000000 0.000000 0.000000 0.000000 0.000000
    2 278.539971 -508.521106 81.066973 0.019122 0.107391 -0.606612
  time 349
    0 0.000000 0.000000 0.000000 0.000000 0.000000 -0.000001
    1 0.000000 0.000000 0.000000 0.000000 0.000000 0.000000
    2 270.594884 -498.185311 81.502148 0.018931 0.107223 -0.609584
  time 350
    0 0.000000 0.000000 0.000000 0.000000 0.000000 -0.000001
    1 0.000000 0.000000 0.000000 0.000000 0.000000 0.000000
    2 262.742181 -487.982881 81.952866 0.018835 0.107055 -0.612556
  time 351
    0 0.000000 0.000000 0.000000 0.000000 0.000000 -0.000001
    1 0.000000 0.000000 0.000000 0.000000 0.000000 0.000000
    2 255.166633 -478.047182 82.403583 0.018739 0.106928 -0.615433
  time 352
    0 0.000000 0.000000 0.000000 0.000000 0.000000 -0.000001
    1 0.000000 0.000000 0.000000 0.000000 0.000000 0.000000
    2 247.683470 -468.311530 82.869843 0.018643 0.106844 -0.618405
  time 353
    0 0.000000 0.000000 0.000000 0.000000 0.000000 -0.000001
    1 0.000000 0.000000 0.000000 0.000000 0.000000 0.000000
    2 240.477461 -458.709243 83.351644 0.018547 0.106802 -0.621377
  time 354
    0 0.000000 0.000000 0.000000 0.000000 0.000000 -0.000001
    1 0.000000 0.000000 0.000000 0.000000 0.000000 0.000000
    2 233.456221 -449.373686 83.833445 0.018451 0.106802 -0.624253
  time 355
    0 0.000000 0.000000 0.000000 0.000000 0.000000 -0.000001
    1 0.000000 0.000000 0.000000 0.000000 0.000000 0.000000
    2 226.619751 -440.238177 84.330789 0.018356 0.106844 -0.627130
  time 356
    0 0.000000 0.000000 0.000000 0.000000 0.000000 -0.000001
    1 0.000000 0.000000 0.000000 0.000000 0.000000 0.000000
    2 220.060435 -431.302716 84.828132 0.018260 0.106886 -0.630006
  time 357
    0 0.000000 0.000000 0.000000 0.000000 0.000000 -0.000001
    1 0.000000 0.000000 0.000000 0.000000 0.000000 0.000000
    2 213.685888 -422.567302 85.372101 0.018260 0.107055 -0.632786
  time 358
    0 0.000000 0.000000 0.000000 0.000000 0.000000 -0.000001
    1 0.000000 0.000000 0.000000 0.000000 0.000000 0.000000
    2 207.218957 -413.698524 85.947155 0.018164 0.107265 -0.635663
  time 359
    0 0.000000 0.000000 0.000000 0.000000 0.000000 -0.000001
    1 0.000000 0.000000 0.000000 0.000000 0.000000 0.000000
    2 200.844410 -404.829745 86.568834 0.018164 0.107518 -0.638443
  time 360
    0 0.000000 0.000000 0.000000 0.000000 0.000000 -0.000001
    1 0.000000 0.000000 0.000000 0.000000 0.000000 0.000000
    2 194.562248 -396.027649 87.221597 0.018164 0.107897 -0.641224
  time 361
    0 0.000000 0.000000 0.000000 0.000000 0.000000 -0.000001
    1 0.000000 0.000000 0.000000 0.000000 0.000000 0.000000
    2 188.372471 -387.158870 87.920986 0.018164 0.108318 -0.643908
  time 362
    0 0.000000 0.000000 0.000000 0.000000 0.000000 -0.000001
    1 0.000000 0.000000 0.000000 0.000000 0.000000 0.000000
    2 182.090309 -378.223408 88.651459 0.018164 0.108823 -0.646593
  time 363
    0 0.000000 0.000000 0.000000 0.000000 0.000000 -0.000001
    1 0.000000 0.000000 0.000000 0.000000 0.000000 0.000000
    2 175.900532 -369.421312 89.428559 0.018260 0.109370 -0.649277
  time 364
    0 0.000000 0.000000 0.000000 0.000000 0.000000 -0.000001
    1 0.000000 0.000000 0.000000 0.000000 0.000000 0.000000
    2 169.803140 -360.552533 90.221200 0.018260 0.110002 -0.651866
  time 365
    0 0.000000 0.000000 0.000000 0.000000 0.000000 -0.000001
    1 0.000000 0.000000 0.000000 0.000000 0.000000 0.000000
    2 163.705747 -351.683755 91.060467 0.018356 0.110675 -0.654454
  time 366
    0 0.000000 0.000000 0.000000 0.000000 0.000000 -0.000001
    1 0.000000 0.000000 0.000000 0.000000 0.000000 0.000000
    2 157.793124 -342.948341 91.915275 0.018356 0.111391 -0.656947
  time 367
    0 0.000000 0.000000 0.000000 0.000000 0.000000 -0.000001
    1 0.000000 0.000000 0.000000 0.000000 0.000000 0.000000
    2 151.788117 -334.146245 92.785626 0.018451 0.112148 -0.659536
  time 368
    0 0.000000 0.000000 0.000000 0.000000 0.000000 -0.000001
    1 0.000000 0.000000 0.000000 0.000000 0.000000 0.000000
    2 145.875494 -325.410831 93.702603 0.018547 0.112990 -0.661933
  time 369
    0 0.000000 0.000000 0.000000 0.000000 0.000000 -0.000001
    1 0.000000 0.000000 0.000000 0.000000 0.000000 0.000000
    2 140.147640 -316.808782 94.619580 0.018643 0.113832 -0.664330
  time 370
    0 0.000000 0.000000 0.000000 0.000000 0.000000 -0.000001
    1 0.000000 0.000000 0.000000 0.000000 0.000000 0.000000
    2 134.419787 -308.206734 95.567641 0.018739 0.114716 -0.666727
  time 371
    0 0.000000 0.000000 0.000000 0.000000 0.000000 -0.000001
    1 0.000000 0.000000 0.000000 0.000000 0.000000 0.000000
    2 128.691933 -299.671368 96.531244 0.018835 0.115685 -0.669028
  time 372
    0 0.000000 0.000000 0.000000 0.000000 0.000000 -0.000001
    1 0.000000 0.000000 0.000000 0.000000 0.000000 0.000000
    2 123.148849 -291.269367 97.510389 0.019027 0.116653 -0.671329
  time 373
    0 0.000000 0.000000 0.000000 0.000000 0.000000 -0.000001
    1 0.000000 0.000000 0.000000 0.000000 0.000000 0.000000
    2 117.605765 -282.867366 98.505075 0.019122 0.117663 -0.673534
  time 374
    0 0.000000 0.000000 0.000000 0.000000 0.000000 -0.000001
    1 0.000000 0.000000 0.000000 0.000000 0.000000 0.000000
    2 112.155066 -274.598730 99.515304 0.019218 0.118674 -0.675739
  time 375
    0 0.000000 0.000000 0.000000 0.000000 0.000000 -0.000001
    1 0.000000 0.000000 0.000000 0.000000 0.000000 0.000000
    2 106.796752 -266.463459 100.525533 0.019410 0.119726 -0.677848
  time 376
    0 0.000000 0.000000 0.000000 0.000000 0.000000 -0.000001
    1 0.000000 0.000000 0.000000 0.000000 0.000000 0.000000
    2 101.530822 -258.394871 101.535762 0.019506 0.120821 -0.679862
  time 377
    0 0.000000 0.000000 0.000000 0.000000 0.000000 -0.000001
    1 0.000000 0.000000 0.000000 0.000000 0.000000 0.000000
    2 96.357277 -250.392965 102.561532 0.019698 0.121915 -0.681875
  time 378
    0 0.000000 0.000000 0.000000 0.000000 0.000000 -0.000001
    1 0.000000 0.000000 0.000000 0.000000 0.000000 0.000000
    2 91.276116 -242.591107 103.587303 0.019889 0.123010 -0.683793
  time 379
    0 0.000000 0.000000 0.000000 0.000000 0.000000 -0.000001
    1 0.000000 0.000000 0.000000 0.000000 0.000000 0.000000
    2 86.379726 -234.922614 104.613074 0.019985 0.124104 -0.685710
  time 380
    0 0.000000 0.000000 0.000000 0.000000 0.000000 -0.000001
    1 0.000000 0.000000 0.000000 0.000000 0.000000 0.000000
    2 81.390950 -227.320804 105.638845 0.020177 0.125241 -0.687532
  time 381
    0 0.000000 0.000000 0.000000 0.000000 0.000000 -0.000001
    1 0.000000 0.000000 0.000000 0.000000 0.000000 0.000000
    2 76.679329 -219.919041 106.664615 0.020369 0.126378 -0.689258
  time 382
    0 0.000000 0.000000 0.000000 0.000000 0.000000 -0.000001
    1 0.000000 0.000000 0.000000 0.000000 0.000000 0.000000
    2 71.967707 -212.650643 107.674844 0.020560 0.127514 -0.690888
  time 383
    0 0.000000 0.000000 0.000000 0.000000 0.000000 -0.000001
    1 0.000000 0.000000 0.000000 0.000000 0.000000 0.000000
    2 67.440855 -205.582293 108.685073 0.020656 0.128609 -0.692518
  time 384
    0 0.000000 0.000000 0.000000 0.000000 0.000000 -0.000001
    1 0.000000 0.000000 0.000000 0.000000 0.000000 0.000000
    2 63.006388 -198.647308 109.679760 0.020848 0.129745 -0.694052
  time 385
    0 0.000000 0.000000 0.000000 0.000000 0.000000 -0.000001
    1 0.000000 0.000000 0.000000 0.000000 0.000000 0.000000
    2 58.664306 -191.912371 110.674447 0.021040 0.130840 -0.695586
  time 386
    0 0.000000 0.000000 0.000000 0.000000 0.000000 -0.000001
    1 0.000000 0.000000 0.000000 0.000000 0.000000 0.000000
    2 54.414608 -185.310799 111.653591 0.021231 0.131977 -0.696928
  time 387
    0 0.000000 0.000000 0.000000 0.000000 0.000000 -0.000001
    1 0.000000 0.000000 0.000000 0.000000 0.000000 0.000000
    2 50.257295 -178.975957 112.601652 0.021327 0.133029 -0.698270
  time 388
    0 0.000000 0.000000 0.000000 0.000000 0.000000 -0.000001
    1 0.000000 0.000000 0.000000 0.000000 0.000000 0.000000
    2 46.284751 -172.774480 113.534171 0.021519 0.134124 -0.699517
  time 389
    0 0.000000 0.000000 0.000000 0.000000 0.000000 -0.000001
    1 0.000000 0.000000 0.000000 0.000000 0.000000 0.000000
    2 42.404593 -166.773051 114.466690 0.021711 0.135176 -0.700667
  time 390
    0 0.000000 0.000000 0.000000 0.000000 0.000000 -0.000001
    1 0.000000 0.000000 0.000000 0.000000 0.000000 0.000000
    2 38.709203 -161.038352 115.352583 0.021902 0.136186 -0.701818
  time 391
    0 0.000000 0.000000 0.000000 0.000000 0.000000 -0.000001
    1 0.000000 0.000000 0.000000 0.000000 0.000000 0.000000
    2 35.106199 -155.503700 116.222934 0.021998 0.137155 -0.702776
  time 392
    0 0.000000 0.000000 0.000000 0.000000 0.000000 -0.000001
    1 0.000000 0.000000 0.000000 0.000000 0.000000 0.000000
    2 31.595579 -150.235779 117.062201 0.022190 0.138123 -0.703735
  time 393
    0 0.000000 0.000000 0.000000 0.000000 0.000000 -0.000001
    1 0.000000 0.000000 0.000000 0.000000 0.000000 0.000000
    2 28.269728 -145.167906 117.885926 0.022381 0.139049 -0.704598
  time 394
    0 0.000000 0.000000 0.000000 0.000000 0.000000 -0.000001
    1 0.000000 0.000000 0.000000 0.000000 0.000000 0.000000
    2 25.128647 -140.366762 118.663025 0.022477 0.139933 -0.705365
  time 395
    0 0.000000 0.000000 0.000000 0.000000 0.000000 -0.000001
    1 0.000000 0.000000 0.000000 0.000000 0.000000 0.000000
    2 21.987567 -135.765666 119.424582 0.022669 0.140775 -0.706036
  time 396
    0 0.000000 0.000000 0.000000 0.000000 0.000000 -0.000001
    1 0.000000 0.000000 0.000000 0.000000 0.000000 0.000000
    2 19.123640 -131.497983 120.139513 0.022765 0.141575 -0.706611
  time 397
    0 0.000000 0.000000 0.000000 0.000000 0.000000 -0.000001
    1 0.000000 0.000000 0.000000 0.000000 0.000000 0.000000
    2 16.352098 -127.430348 120.823360 0.022861 0.142333 -0.707091
  time 398
    0 0.000000 0.000000 0.000000 0.000000 0.000000 -0.000001
    1 0.000000 0.000000 0.000000 0.000000 0.000000 0.000000
    2 13.765325 -123.696125 121.460581 0.023052 0.143048 -0.707474
  time 399
    0 0.000000 0.000000 0.000000 0.000000 0.000000 -0.000001
    1 0.000000 0.000000 0.000000 0.000000 0.000000 0.000000
    2 11.270937 -120.228633 122.066719 0.023148 0.143680 -0.707762
  time 400
    0 0.000000 0.000000 0.000000 0.000000 0.000000 -0.000001
    1 0.000000 0.000000 0.000000 0.000000 0.000000 0.000000
    2 9.053704 -117.027871 122.610688 0.023244 0.144311 -0.708050
  time 401
    0 0.000000 0.000000 0.000000 0.000000 0.000000 -0.000001
    1 0.000000 0.000000 0.000000 0.000000 0.000000 0.000000
    2 6.836470 -114.160521 123.123573 0.023340 0.144816 -0.708145
  time 402
    0 0.000000 0.000000 0.000000 0.000000 0.000000 -0.000001
    1 0.000000 0.000000 0.000000 0.000000 0.000000 0.000000
    2 4.896391 -111.559902 123.589833 0.023436 0.145279 -0.708145
  time 403
    0 0.000000 0.000000 0.000000 0.000000 0.000000 -0.000001
    1 0.000000 0.000000 0.000000 0.000000 0.000000 0.000000
    2 3.048696 -109.292695 124.009466 0.023532 0.145700 -0.708050
  time 404
    0 0.000000 0.000000 0.000000 0.000000 0.000000 -0.000001
    1 0.000000 0.000000 0.000000 0.000000 0.000000 0.000000
    2 1.478156 -107.358901 124.366932 0.023628 0.146037 -0.707858
  time 405
    0 0.000000 0.000000 0.000000 0.000000 0.000000 -0.000001
    1 0.000000 0.000000 0.000000 0.000000 0.000000 0.000000
    2 0.000000 -105.758520 124.677771 0.023628 0.146290 -0.707570
  time 406
    0 0.000000 0.000000 0.000000 0.000000 0.000000 -0.000001
    1 0.000000 0.000000 0.000000 0.000000 0.000000 0.000000
    2 -1.293386 -104.358187 124.957527 0.023723 0.146500 -0.707283
  time 407
    0 0.000000 0.000000 0.000000 0.000000 0.000000 -0.000001
    1 0.000000 0.000000 0.000000 0.000000 0.000000 0.000000
    2 -2.586773 -102.957853 125.206199 0.023723 0.146711 -0.707091
  time 408
    0 0.000000 0.000000 0.000000 0.000000 0.000000 -0.000001
    1 0.000000 0.000000 0.000000 0.000000 0.000000 0.000000
    2 -3.880159 -101.624202 125.454870 0.023723 0.146879 -0.706995
  time 409
    0 0.000000 0.000000 0.000000 0.000000 0.000000 -0.000001
    1 0.000000 0.000000 0.000000 0.000000 0.000000 0.000000
    2 -4.988776 -100.357234 125.672458 0.023723 0.147090 -0.706995
  time 410
    0 0.000000 0.000000 0.000000 0.000000 0.000000 -0.000001
    1 0.000000 0.000000 0.000000 0.000000 0.000000 0.000000
    2 -6.189777 -99.090265 125.874504 0.023723 0.147258 -0.707091
  time 411
    0 0.000000 0.000000 0.000000 0.000000 0.000000 -0.000001
    1 0.000000 0.000000 0.000000 0.000000 0.000000 0.000000
    2 -7.206009 -97.956662 126.076550 0.023723 0.147426 -0.707283
  time 412
    0 0.000000 0.000000 0.000000 0.000000 0.000000 -0.000001
    1 0.000000 0.000000 0.000000 0.000000 0.000000 0.000000
    2 -8.222241 -96.756376 126.247511 0.023628 0.147553 -0.707474
  time 413
    0 0.000000 0.000000 0.000000 0.000000 0.000000 -0.000001
    1 0.000000 0.000000 0.000000 0.000000 0.000000 0.000000
    2 -9.238473 -95.622773 126.418473 0.023628 0.147721 -0.707762
  time 414
    0 0.000000 0.000000 0.000000 0.000000 0.000000 -0.000001
    1 0.000000 0.000000 0.000000 0.000000 0.000000 0.000000
    2 -10.162321 -94.622535 126.558351 0.023532 0.147847 -0.708145
  time 415
    0 0.000000 0.000000 0.000000 0.000000 0.000000 -0.000001
    1 0.000000 0.000000 0.000000 0.000000 0.000000 0.000000
    2 -10.993783 -93.555614 126.698229 0.023532 0.147974 -0.708529
  time 416
    0 0.000000 0.000000 0.000000 0.000000 0.000000 -0.000001
    1 0.000000 0.000000 0.000000 0.000000 0.000000 0.000000
    2 -11.825246 -92.555376 126.822565 0.023436 0.148100 -0.709008
  time 417
    0 0.000000 0.000000 0.000000 0.000000 0.000000 -0.000001
    1 0.000000 0.000000 0.000000 0.000000 0.000000 0.000000
    2 -12.564324 -91.621820 126.946901 0.023340 0.148226 -0.709584
  time 418
    0 0.000000 0.000000 0.000000 0.000000 0.000000 -0.000001
    1 0.000000 0.000000 0.000000 0.000000 0.000000 0.000000
    2 -13.303402 -90.754947 127.040152 0.023340 0.148310 -0.710063
  time 419
    0 0.000000 0.000000 0.000000 0.000000 0.000000 -0.000001
    1 0.000000 0.000000 0.000000 0.000000 0.000000 0.000000
    2 -13.950095 -89.888074 127.133404 0.023244 0.148437 -0.710734
  time 420
    0 0.000000 0.000000 0.000000 0.000000 0.000000 -0.000001
    1 0.000000 0.000000 0.000000 0.000000 0.000000 0.000000
    2 -14.596788 -89.087883 127.211114 0.023148 0.148521 -0.711309
  time 421
    0 0.000000 0.000000 0.000000 0.000000 0.000000 -0.000001
    1 0.000000 0.000000 0.000000 0.000000 0.000000 0.000000
    2 -15.151096 -88.287693 127.288824 0.023052 0.148605 -0.711981
  time 422
    0 0.000000 0.000000 0.000000 0.000000 0.000000 -0.000001
    1 0.000000 0.000000 0.000000 0.000000 0.000000 0.000000
    2 -15.705405 -87.554185 127.350992 0.022957 0.148689 -0.712556
  time 423
    0 0.000000 0.000000 0.000000 0.000000 0.000000 -0.000001
    1 0.000000 0.000000 0.000000 0.000000 0.000000 0.000000
    2 -16.259713 -86.887359 127.413160 0.022861 0.148731 -0.713227
  time 424
    0 0.000000 0.000000 0.000000 0.000000 0.000000 -0.000001
    1 0.000000 0.000000 0.000000 0.000000 0.000000 0.000000
    2 -16.721637 -86.287216 127.459786 0.022765 0.148816 -0.713898
  time 425
    0 0.000000 0.000000 0.000000 0.000000 0.000000 -0.000001
    1 0.000000 0.000000 0.000000 0.000000 0.000000 0.000000
    2 -17.183560 -85.687073 127.490870 0.022669 0.148858 -0.714569
  time 426
    0 0.000000 0.000000 0.000000 0.000000 0.000000 -0.000001
    1 0.000000 0.000000 0.000000 0.000000 0.000000 0.000000
    2 -17.553099 -85.086930 127.521954 0.022573 0.148942 -0.715240
  time 427
    0 0.000000 0.000000 0.000000 0.000000 0.000000 -0.000001
    1 0.000000 0.000000 0.000000 0.000000 0.000000 0.000000
    2 -17.922638 -84.620153 127.553038 0.022477 0.148984 -0.715911
  time 428
    0 0.000000 0.000000 0.000000 0.000000 0.000000 -0.000001
    1 0.000000 0.000000 0.000000 0.000000 0.000000 0.000000
    2 -18.199792 -84.086692 127.584122 0.022381 0.149026 -0.716487
  time 429
    0 0.000000 0.000000 0.000000 0.000000 0.000000 -0.000001
    1 0.000000 0.000000 0.000000 0.000000 0.000000 0.000000
    2 -18.476947 -83.686597 127.599664 0.022286 0.149068 -0.717062
  time 430
    0 0.000000 0.000000 0.000000 0.000000 0.000000 -0.000001
    1 0.000000 0.000000 0.000000 0.000000 0.000000 0.000000
    2 -18.754101 -83.286502 127.615206 0.022190 0.149068 -0.717637
  time 431
    0 0.000000 0.000000 0.000000 0.000000 0.000000 -0.000001
    1 0.000000 0.000000 0.000000 0.000000 0.000000 0.000000
    2 -19.031255 -82.953089 127.615206 0.022190 0.149110 -0.718213
  time 432
    0 0.000000 0.000000 0.000000 0.000000 0.000000 -0.000001
    1 0.000000 0.000000 0.000000 0.000000 0.000000 0.000000
    2 -19.216025 -82.619676 127.630748 0.022094 0.149110 -0.718692
  time 433
    0 0.000000 0.000000 0.000000 0.000000 0.000000 -0.000001
    1 0.000000 0.000000 0.000000 0.000000 0.000000 0.000000
    2 -19.308409 -82.352946 127.630748 0.021998 0.149152 -0.719075
  time 434
    0 0.000000 0.000000 0.000000 0.000000 0.000000 -0.000001
    1 0.000000 0.000000 0.000000 0.000000 0.000000 0.000000
    2 -19.493179 -82.152898 127.630748 0.021998 0.149152 -0.719459
  time 435
    0 0.000000 0.000000 0.000000 0.000000 0.000000 -0.000001
    1 0.000000 0.000000 0.000000 0.000000 0.000000 0.000000
    2 -19.585563 -81.952851 127.630748 0.021902 0.149195 -0.719842
  time 436
    0 0.000000 0.000000 0.000000 0.000000 0.000000 -0.000001
    1 0.000000 0.000000 0.000000 0.000000 0.000000 0.000000
    2 -19.677948 -81.819486 127.630748 0.021902 0.149195 -0.720130
  time 437
    0 0.000000 0.000000 0.000000 0.000000 0.000000 -0.000001
    1 0.000000 0.000000 0.000000 0.000000 0.000000 0.000000
    2 -19.677948 -81.686120 127.630748 0.021902 0.149195 -0.720322
  time 438
    0 0.000000 0.000000 0.000000 0.000000 0.000000 -0.000001
    1 0.000000 0.000000 0.000000 0.000000 0.000000 0.000000
    2 -19.770333 -81.686120 127.630748 0.021902 0.149195 -0.720418
  time 439
    0 0.000000 0.000000 0.000000 0.000000 0.000000 -0.000001
    1 0.000000 0.000000 0.000000 0.000000 0.000000 0.000000
    2 -19.770333 -81.619438 127.630748 0.021902 0.149195 -0.720418
end
