// Created by Crowbar 0.74
version 1
nodes
  0 "static_prop" -1
end
skeleton
  time 0
    0 0.000000 0.000000 0.000000 0.000000 0.000000 0.000000
end
triangles
  phy
    0 11.563573 1.003194 44.742987 -0.999207 -0.037609 -0.013074 0 0
    0 13.370439 0.890022 44.907120 0.932544 -0.354090 -0.070588 0 0
    0 16.731559 0.712305 45.044117 0.938863 -0.342498 0.035076 0 0
  phy
    0 11.563573 1.003194 44.742987 -0.999207 -0.037609 -0.013074 0 0
    0 16.731559 0.712305 45.044117 0.938863 -0.342498 0.035076 0 0
    0 19.452318 0.709751 44.429767 0.387716 -0.877160 0.283313 0 0
  phy
    0 11.563573 1.003194 44.742987 -0.999207 -0.037609 -0.013074 0 0
    0 19.452318 0.709751 44.429767 0.387716 -0.877160 0.283313 0 0
    0 33.938467 1.003195 39.582834 -0.999896 -0.006947 0.012672 0 0
  phy
    0 11.563573 1.003194 44.742987 -0.999207 -0.037609 -0.013074 0 0
    0 12.557064 -1.003165 39.694014 0.994476 -0.102306 -0.023494 0 0
    0 13.370439 0.890022 44.907120 0.932544 -0.354090 -0.070588 0 0
  phy
    0 11.563573 1.003194 44.742987 -0.999207 -0.037609 -0.013074 0 0
    0 10.700687 -1.003162 39.218021 0.997161 -0.027946 -0.069918 0 0
    0 12.557064 -1.003165 39.694014 0.994476 -0.102306 -0.023494 0 0
  phy
    0 12.557064 -1.003165 39.694014 0.994476 -0.102306 -0.023494 0 0
    0 14.715805 -1.003169 40.087357 0.994334 -0.106151 0.005712 0 0
    0 13.370439 0.890022 44.907120 0.932544 -0.354090 -0.070588 0 0
  phy
    0 14.715805 -1.003169 40.087357 0.994334 -0.106151 0.005712 0 0
    0 16.731559 0.712305 45.044117 0.938863 -0.342498 0.035076 0 0
    0 13.370439 0.890022 44.907120 0.932544 -0.354090 -0.070588 0 0
  phy
    0 33.820424 -1.003197 32.708051 0.853776 -0.103897 0.510168 0 0
    0 32.810505 -1.003196 36.513658 0.973420 -0.118337 0.196086 0 0
    0 35.221807 -1.003195 24.673383 0.998425 0.005586 0.055821 0 0
  phy
    0 32.810505 -1.003196 36.513658 0.973420 -0.118337 0.196086 0 0
    0 30.735250 -1.003194 37.820248 0.984562 -0.169026 0.045462 0 0
    0 35.221807 -1.003195 24.673383 0.998425 0.005586 0.055821 0 0
  phy
    0 30.735250 -1.003194 37.820248 0.984562 -0.169026 0.045462 0 0
    0 14.715805 -1.003169 40.087357 0.994334 -0.106151 0.005712 0 0
    0 35.221807 -1.003195 24.673383 0.998425 0.005586 0.055821 0 0
  phy
    0 14.715805 -1.003169 40.087357 0.994334 -0.106151 0.005712 0 0
    0 12.557064 -1.003165 39.694014 0.994476 -0.102306 -0.023494 0 0
    0 35.221807 -1.003195 24.673383 0.998425 0.005586 0.055821 0 0
  phy
    0 12.557064 -1.003165 39.694014 0.994476 -0.102306 -0.023494 0 0
    0 10.700687 -1.003162 39.218021 0.997161 -0.027946 -0.069918 0 0
    0 35.221807 -1.003195 24.673383 0.998425 0.005586 0.055821 0 0
  phy
    0 10.700687 -1.003162 39.218021 0.997161 -0.027946 -0.069918 0 0
    0 7.716611 -1.003150 21.642646 0.994280 -0.008917 -0.106432 0 0
    0 35.221807 -1.003195 24.673383 0.998425 0.005586 0.055821 0 0
  phy
    0 7.716611 -1.003150 21.642646 0.994280 -0.008917 -0.106432 0 0
    0 8.069678 -1.003148 17.009922 0.999071 0.004185 -0.042883 0 0
    0 35.221807 -1.003195 24.673383 0.998425 0.005586 0.055821 0 0
  phy
    0 8.069678 -1.003148 17.009922 0.999071 0.004185 -0.042883 0 0
    0 29.270898 -1.003179 7.807336 0.990194 0.106636 0.090244 0 0
    0 35.221807 -1.003195 24.673383 0.998425 0.005586 0.055821 0 0
  phy
    0 8.069678 -1.003148 17.009922 0.999071 0.004185 -0.042883 0 0
    0 13.155412 -1.003152 5.236310 0.999643 0.026515 0.003259 0 0
    0 29.270898 -1.003179 7.807336 0.990194 0.106636 0.090244 0 0
  phy
    0 8.069678 -1.003148 17.009922 0.999071 0.004185 -0.042883 0 0
    0 10.688869 -1.003149 7.607294 0.992696 0.041195 -0.113391 0 0
    0 13.155412 -1.003152 5.236310 0.999643 0.026515 0.003259 0 0
  phy
    0 10.688869 -1.003149 7.607294 0.992696 0.041195 -0.113391 0 0
    0 12.246693 -1.003150 5.713734 0.993198 0.083945 -0.080694 0 0
    0 13.155412 -1.003152 5.236310 0.999643 0.026515 0.003259 0 0
  phy
    0 7.716611 -1.003150 21.642646 0.994280 -0.008917 -0.106432 0 0
    0 7.185448 1.003536 24.044608 -0.998511 0.002079 -0.054510 0 0
    0 8.069678 -1.003148 17.009922 0.999071 0.004185 -0.042883 0 0
  phy
    0 8.069678 -1.003148 17.009922 0.999071 0.004185 -0.042883 0 0
    0 7.185448 1.003536 24.044608 -0.998511 0.002079 -0.054510 0 0
    0 8.692587 -0.625268 7.976247 0.628786 0.085366 -0.772878 0 0
  phy
    0 9.403142 -0.625268 5.425431 0.777561 0.225557 -0.586961 0 0
    0 10.688869 -1.003149 7.607294 0.992696 0.041195 -0.113391 0 0
    0 8.692587 -0.625268 7.976247 0.628786 0.085366 -0.772878 0 0
  phy
    0 10.688869 -1.003149 7.607294 0.992696 0.041195 -0.113391 0 0
    0 8.069678 -1.003148 17.009922 0.999071 0.004185 -0.042883 0 0
    0 8.692587 -0.625268 7.976247 0.628786 0.085366 -0.772878 0 0
  phy
    0 8.692584 0.625295 7.752715 -0.828757 0.149621 -0.539235 0 0
    0 8.692587 -0.214746 7.343996 0.020817 0.116451 -0.992978 0 0
    0 7.185448 1.003536 24.044608 -0.998511 0.002079 -0.054510 0 0
  phy
    0 8.692587 -0.214746 7.343996 0.020817 0.116451 -0.992978 0 0
    0 8.692587 -0.625268 7.976247 0.628786 0.085366 -0.772878 0 0
    0 7.185448 1.003536 24.044608 -0.998511 0.002079 -0.054510 0 0
  phy
    0 9.403142 -0.625268 5.425431 0.777561 0.225557 -0.586961 0 0
    0 8.692587 -0.214746 7.343996 0.020817 0.116451 -0.992978 0 0
    0 8.692584 0.625295 7.752715 -0.828757 0.149621 -0.539235 0 0
  phy
    0 8.692587 -0.214746 7.343996 0.020817 0.116451 -0.992978 0 0
    0 9.403142 -0.625268 5.425431 0.777561 0.225557 -0.586961 0 0
    0 8.692587 -0.625268 7.976247 0.628786 0.085366 -0.772878 0 0
  phy
    0 12.246693 -1.003150 5.713734 0.993198 0.083945 -0.080694 0 0
    0 10.210983 -0.625269 3.595789 0.306586 0.951353 0.030547 0 0
    0 13.155412 -1.003152 5.236310 0.999643 0.026515 0.003259 0 0
  phy
    0 10.688869 -1.003149 7.607294 0.992696 0.041195 -0.113391 0 0
    0 10.210983 -0.625269 3.595789 0.306586 0.951353 0.030547 0 0
    0 12.246693 -1.003150 5.713734 0.993198 0.083945 -0.080694 0 0
  phy
    0 35.217428 0.709624 38.770024 0.581676 -0.382217 0.718027 0 0
    0 33.938467 1.003195 39.582834 -0.999896 -0.006947 0.012672 0 0
    0 19.452318 0.709751 44.429767 0.387716 -0.877160 0.283313 0 0
  phy
    0 16.731559 0.712305 45.044117 0.938863 -0.342498 0.035076 0 0
    0 30.735250 -1.003194 37.820248 0.984562 -0.169026 0.045462 0 0
    0 19.452318 0.709751 44.429767 0.387716 -0.877160 0.283313 0 0
  phy
    0 19.452318 0.709751 44.429767 0.387716 -0.877160 0.283313 0 0
    0 30.735250 -1.003194 37.820248 0.984562 -0.169026 0.045462 0 0
    0 35.217428 0.709624 38.770024 0.581676 -0.382217 0.718027 0 0
  phy
    0 14.715805 -1.003169 40.087357 0.994334 -0.106151 0.005712 0 0
    0 30.735250 -1.003194 37.820248 0.984562 -0.169026 0.045462 0 0
    0 16.731559 0.712305 45.044117 0.938863 -0.342498 0.035076 0 0
  phy
    0 8.028076 0.709812 39.375180 0.593130 -0.106441 -0.798040 0 0
    0 8.852073 1.003194 41.335938 -0.895783 -0.209312 -0.392124 0 0
    0 7.185448 1.003536 24.044608 -0.998511 0.002079 -0.054510 0 0
  phy
    0 8.852073 1.003194 41.335938 -0.895783 -0.209312 -0.392124 0 0
    0 11.563573 1.003194 44.742987 -0.999207 -0.037609 -0.013074 0 0
    0 7.185448 1.003536 24.044608 -0.998511 0.002079 -0.054510 0 0
  phy
    0 8.028076 0.709812 39.375180 0.593130 -0.106441 -0.798040 0 0
    0 10.700687 -1.003162 39.218021 0.997161 -0.027946 -0.069918 0 0
    0 8.852073 1.003194 41.335938 -0.895783 -0.209312 -0.392124 0 0
  phy
    0 8.852073 1.003194 41.335938 -0.895783 -0.209312 -0.392124 0 0
    0 10.700687 -1.003162 39.218021 0.997161 -0.027946 -0.069918 0 0
    0 11.563573 1.003194 44.742987 -0.999207 -0.037609 -0.013074 0 0
  phy
    0 35.217428 0.709624 38.770024 0.581676 -0.382217 0.718027 0 0
    0 30.735250 -1.003194 37.820248 0.984562 -0.169026 0.045462 0 0
    0 32.810505 -1.003196 36.513658 0.973420 -0.118337 0.196086 0 0
  phy
    0 32.810505 -1.003196 36.513658 0.973420 -0.118337 0.196086 0 0
    0 33.820424 -1.003197 32.708051 0.853776 -0.103897 0.510168 0 0
    0 35.217428 0.709624 38.770024 0.581676 -0.382217 0.718027 0 0
  phy
    0 35.221807 -1.003195 24.673383 0.998425 0.005586 0.055821 0 0
    0 29.270898 -1.003179 7.807336 0.990194 0.106636 0.090244 0 0
    0 35.271077 0.709496 18.739710 -0.717085 0.149679 0.680724 0 0
  phy
    0 35.221807 -1.003195 24.673383 0.998425 0.005586 0.055821 0 0
    0 35.271077 0.709496 18.739710 -0.717085 0.149679 0.680724 0 0
    0 35.217428 0.709624 38.770024 0.581676 -0.382217 0.718027 0 0
  phy
    0 35.217428 0.709624 38.770024 0.581676 -0.382217 0.718027 0 0
    0 33.820424 -1.003197 32.708051 0.853776 -0.103897 0.510168 0 0
    0 35.221807 -1.003195 24.673383 0.998425 0.005586 0.055821 0 0
  phy
    0 11.044910 1.003195 5.730611 -0.976127 0.105815 -0.189679 0 0
    0 8.692584 0.625295 7.752715 -0.828757 0.149621 -0.539235 0 0
    0 7.185448 1.003536 24.044608 -0.998511 0.002079 -0.054510 0 0
  phy
    0 12.519843 1.003195 4.378226 -0.996886 0.078730 0.004563 0 0
    0 11.044910 1.003195 5.730611 -0.976127 0.105815 -0.189679 0 0
    0 7.185448 1.003536 24.044608 -0.998511 0.002079 -0.054510 0 0
  phy
    0 8.692584 0.625295 7.752715 -0.828757 0.149621 -0.539235 0 0
    0 11.044910 1.003195 5.730611 -0.976127 0.105815 -0.189679 0 0
    0 10.210983 -0.625269 3.595789 0.306586 0.951353 0.030547 0 0
  phy
    0 11.044910 1.003195 5.730611 -0.976127 0.105815 -0.189679 0 0
    0 12.519843 1.003195 4.378226 -0.996886 0.078730 0.004563 0 0
    0 10.210983 -0.625269 3.595789 0.306586 0.951353 0.030547 0 0
  phy
    0 7.716611 -1.003150 21.642646 0.994280 -0.008917 -0.106432 0 0
    0 8.028076 0.709812 39.375180 0.593130 -0.106441 -0.798040 0 0
    0 7.185448 1.003536 24.044608 -0.998511 0.002079 -0.054510 0 0
  phy
    0 7.716611 -1.003150 21.642646 0.994280 -0.008917 -0.106432 0 0
    0 10.700687 -1.003162 39.218021 0.997161 -0.027946 -0.069918 0 0
    0 8.028076 0.709812 39.375180 0.593130 -0.106441 -0.798040 0 0
  phy
    0 9.403142 -0.625268 5.425431 0.777561 0.225557 -0.586961 0 0
    0 8.692584 0.625295 7.752715 -0.828757 0.149621 -0.539235 0 0
    0 10.210983 -0.625269 3.595789 0.306586 0.951353 0.030547 0 0
  phy
    0 9.403142 -0.625268 5.425431 0.777561 0.225557 -0.586961 0 0
    0 10.210983 -0.625269 3.595789 0.306586 0.951353 0.030547 0 0
    0 10.688869 -1.003149 7.607294 0.992696 0.041195 -0.113391 0 0
  phy
    0 13.155412 -1.003152 5.236310 0.999643 0.026515 0.003259 0 0
    0 10.210983 -0.625269 3.595789 0.306586 0.951353 0.030547 0 0
    0 29.270898 -1.003179 7.807336 0.990194 0.106636 0.090244 0 0
  phy
    0 35.217428 0.709624 38.770024 0.581676 -0.382217 0.718027 0 0
    0 35.271077 0.709496 18.739710 -0.717085 0.149679 0.680724 0 0
    0 33.938467 1.003195 39.582834 -0.999896 -0.006947 0.012672 0 0
  phy
    0 12.519843 1.003195 4.378226 -0.996886 0.078730 0.004563 0 0
    0 7.185448 1.003536 24.044608 -0.998511 0.002079 -0.054510 0 0
    0 25.040493 1.003195 6.541727 -0.983116 0.178938 0.038251 0 0
  phy
    0 25.040493 1.003195 6.541727 -0.983116 0.178938 0.038251 0 0
    0 7.185448 1.003536 24.044608 -0.998511 0.002079 -0.054510 0 0
    0 30.016165 1.003196 7.952680 -0.999211 0.021584 0.033330 0 0
  phy
    0 30.016165 1.003196 7.952680 -0.999211 0.021584 0.033330 0 0
    0 7.185448 1.003536 24.044608 -0.998511 0.002079 -0.054510 0 0
    0 33.938467 1.003195 39.582834 -0.999896 -0.006947 0.012672 0 0
  phy
    0 29.270898 -1.003179 7.807336 0.990194 0.106636 0.090244 0 0
    0 25.040493 1.003195 6.541727 -0.983116 0.178938 0.038251 0 0
    0 30.016165 1.003196 7.952680 -0.999211 0.021584 0.033330 0 0
  phy
    0 25.040493 1.003195 6.541727 -0.983116 0.178938 0.038251 0 0
    0 29.270898 -1.003179 7.807336 0.990194 0.106636 0.090244 0 0
    0 10.210983 -0.625269 3.595789 0.306586 0.951353 0.030547 0 0
  phy
    0 12.519843 1.003195 4.378226 -0.996886 0.078730 0.004563 0 0
    0 25.040493 1.003195 6.541727 -0.983116 0.178938 0.038251 0 0
    0 10.210983 -0.625269 3.595789 0.306586 0.951353 0.030547 0 0
  phy
    0 11.563573 1.003194 44.742987 -0.999207 -0.037609 -0.013074 0 0
    0 33.938467 1.003195 39.582834 -0.999896 -0.006947 0.012672 0 0
    0 7.185448 1.003536 24.044608 -0.998511 0.002079 -0.054510 0 0
  phy
    0 29.270898 -1.003179 7.807336 0.990194 0.106636 0.090244 0 0
    0 30.016165 1.003196 7.952680 -0.999211 0.021584 0.033330 0 0
    0 35.271077 0.709496 18.739710 -0.717085 0.149679 0.680724 0 0
  phy
    0 33.938467 1.003195 39.582834 -0.999896 -0.006947 0.012672 0 0
    0 35.271077 0.709496 18.739710 -0.717085 0.149679 0.680724 0 0
    0 30.016165 1.003196 7.952680 -0.999211 0.021584 0.033330 0 0
end
