// Created by Crowbar 0.74
version 1
nodes
  0 "static_prop" -1
end
skeleton
  time 0
    0 0.000000 0.000000 0.000000 0.000000 0.000000 0.000000
end
triangles
  phy
    0 54.792691 -3.923827 -42.180198 0.402537 0.690601 -0.600861 0 0
    0 48.091534 -3.923828 -31.731185 0.856977 0.125782 -0.499770 0 0
    0 48.091534 4.000003 -31.731185 -0.836100 0.133890 -0.531987 0 0
  phy
    0 54.792691 -3.923827 -42.180198 0.402537 0.690601 -0.600861 0 0
    0 48.091534 4.000003 -31.731185 -0.836100 0.133890 -0.531987 0 0
    0 54.792691 4.000004 -42.180198 -0.969057 0.235206 -0.074883 0 0
  phy
    0 54.792691 -3.923827 -42.180198 0.402537 0.690601 -0.600861 0 0
    0 54.792691 4.000004 -42.180198 -0.969057 0.235206 -0.074883 0 0
    0 63.999990 -3.923828 -40.953779 0.892167 0.088279 0.442996 0 0
  phy
    0 63.999990 -3.923828 -40.953779 0.892167 0.088279 0.442996 0 0
    0 54.792691 4.000004 -42.180198 -0.969057 0.235206 -0.074883 0 0
    0 63.999990 4.000006 -40.953779 -0.742757 0.130855 0.656649 0 0
  phy
    0 54.792691 -3.923827 -42.180198 0.402537 0.690601 -0.600861 0 0
    0 63.999990 -3.923828 -40.953779 0.892167 0.088279 0.442996 0 0
    0 48.091534 -3.923828 -31.731185 0.856977 0.125782 -0.499770 0 0
  phy
    0 63.999990 -3.923828 -40.953779 0.892167 0.088279 0.442996 0 0
    0 44.076415 -3.923830 0.398952 0.935435 0.017899 -0.353045 0 0
    0 48.091534 -3.923828 -31.731185 0.856977 0.125782 -0.499770 0 0
  phy
    0 48.091534 4.000003 -31.731185 -0.836100 0.133890 -0.531987 0 0
    0 48.091534 -3.923828 -31.731185 0.856977 0.125782 -0.499770 0 0
    0 44.076415 -3.923830 0.398952 0.935435 0.017899 -0.353045 0 0
  phy
    0 63.999990 4.000005 4.023221 -0.904369 -0.071385 0.420739 0 0
    0 54.792691 4.000004 -42.180198 -0.969057 0.235206 -0.074883 0 0
    0 48.091534 4.000003 -31.731185 -0.836100 0.133890 -0.531987 0 0
  phy
    0 54.792691 4.000004 -42.180198 -0.969057 0.235206 -0.074883 0 0
    0 63.999990 4.000005 4.023221 -0.904369 -0.071385 0.420739 0 0
    0 63.999990 4.000006 -40.953779 -0.742757 0.130855 0.656649 0 0
  phy
    0 44.076415 4.000002 0.398952 -0.912345 -0.051022 -0.406231 0 0
    0 63.999990 4.000005 4.023221 -0.904369 -0.071385 0.420739 0 0
    0 48.091534 4.000003 -31.731185 -0.836100 0.133890 -0.531987 0 0
  phy
    0 63.999990 4.000005 4.023221 -0.904369 -0.071385 0.420739 0 0
    0 44.076415 4.000002 0.398952 -0.912345 -0.051022 -0.406231 0 0
    0 48.633955 4.000002 4.636430 -0.235184 -0.968432 -0.082631 0 0
  phy
    0 44.076415 4.000002 0.398952 -0.912345 -0.051022 -0.406231 0 0
    0 44.076415 -3.923830 0.398952 0.935435 0.017899 -0.353045 0 0
    0 48.633955 -3.923830 4.636430 0.316203 -0.903259 -0.290068 0 0
  phy
    0 48.633955 -3.923830 4.636430 0.316203 -0.903259 -0.290068 0 0
    0 48.633955 4.000002 4.636430 -0.235184 -0.968432 -0.082631 0 0
    0 44.076415 4.000002 0.398952 -0.912345 -0.051022 -0.406231 0 0
  phy
    0 44.076415 4.000002 0.398952 -0.912345 -0.051022 -0.406231 0 0
    0 48.091534 4.000003 -31.731185 -0.836100 0.133890 -0.531987 0 0
    0 44.076415 -3.923830 0.398952 0.935435 0.017899 -0.353045 0 0
  phy
    0 48.633955 -3.923830 4.636430 0.316203 -0.903259 -0.290068 0 0
    0 63.999990 -3.923830 4.023221 0.909828 -0.229829 0.345531 0 0
    0 48.633955 4.000002 4.636430 -0.235184 -0.968432 -0.082631 0 0
  phy
    0 63.999990 -3.923830 4.023221 0.909828 -0.229829 0.345531 0 0
    0 63.999990 4.000005 4.023221 -0.904369 -0.071385 0.420739 0 0
    0 48.633955 4.000002 4.636430 -0.235184 -0.968432 -0.082631 0 0
  phy
    0 48.633955 -3.923830 4.636430 0.316203 -0.903259 -0.290068 0 0
    0 44.076415 -3.923830 0.398952 0.935435 0.017899 -0.353045 0 0
    0 63.999990 -3.923830 4.023221 0.909828 -0.229829 0.345531 0 0
  phy
    0 63.999990 4.000005 4.023221 -0.904369 -0.071385 0.420739 0 0
    0 63.999990 -3.923828 -40.953779 0.892167 0.088279 0.442996 0 0
    0 63.999990 4.000006 -40.953779 -0.742757 0.130855 0.656649 0 0
  phy
    0 63.999990 4.000005 4.023221 -0.904369 -0.071385 0.420739 0 0
    0 63.999990 -3.923830 4.023221 0.909828 -0.229829 0.345531 0 0
    0 63.999990 -3.923828 -40.953779 0.892167 0.088279 0.442996 0 0
  phy
    0 63.999990 -3.923830 4.023221 0.909828 -0.229829 0.345531 0 0
    0 44.076415 -3.923830 0.398952 0.935435 0.017899 -0.353045 0 0
    0 63.999990 -3.923828 -40.953779 0.892167 0.088279 0.442996 0 0
  phy
    0 55.117485 -3.923830 21.881569 0.140121 0.193148 -0.971113 0 0
    0 55.117485 4.000001 21.881569 -0.107194 0.252099 -0.961746 0 0
    0 61.818652 -3.923829 -0.313793 0.830140 0.179227 -0.527963 0 0
  phy
    0 61.818652 -3.923829 -0.313793 0.830140 0.179227 -0.527963 0 0
    0 55.117485 4.000001 21.881569 -0.107194 0.252099 -0.961746 0 0
    0 61.818652 4.000003 -0.313793 -0.438255 0.361026 -0.823160 0 0
  phy
    0 55.117485 4.000001 21.881569 -0.107194 0.252099 -0.961746 0 0
    0 55.117485 -3.923830 21.881569 0.140121 0.193148 -0.971113 0 0
    0 54.301183 4.000001 31.734222 -0.833312 -0.055329 -0.550027 0 0
  phy
    0 54.301183 4.000001 31.734222 -0.833312 -0.055329 -0.550027 0 0
    0 55.117485 -3.923830 21.881569 0.140121 0.193148 -0.971113 0 0
    0 54.301183 -3.923831 31.734222 0.756306 -0.191754 -0.625485 0 0
  phy
    0 61.818652 -3.923829 -0.313793 0.830140 0.179227 -0.527963 0 0
    0 54.301183 -3.923831 31.734222 0.756306 -0.191754 -0.625485 0 0
    0 55.117485 -3.923830 21.881569 0.140121 0.193148 -0.971113 0 0
  phy
    0 61.818652 4.000003 -0.313793 -0.438255 0.361026 -0.823160 0 0
    0 55.117485 4.000001 21.881569 -0.107194 0.252099 -0.961746 0 0
    0 54.301183 4.000001 31.734222 -0.833312 -0.055329 -0.550027 0 0
  phy
    0 58.744484 -3.923832 39.970190 0.931840 -0.259276 -0.253871 0 0
    0 58.744484 4.000001 39.970190 -0.924460 -0.222534 -0.309601 0 0
    0 54.301183 -3.923831 31.734222 0.756306 -0.191754 -0.625485 0 0
  phy
    0 54.301183 -3.923831 31.734222 0.756306 -0.191754 -0.625485 0 0
    0 58.744484 4.000001 39.970190 -0.924460 -0.222534 -0.309601 0 0
    0 54.301183 4.000001 31.734222 -0.833312 -0.055329 -0.550027 0 0
  phy
    0 58.744484 -3.923832 39.970190 0.931840 -0.259276 -0.253871 0 0
    0 63.999985 4.000001 43.173465 -0.598034 -0.210597 0.773307 0 0
    0 58.744484 4.000001 39.970190 -0.924460 -0.222534 -0.309601 0 0
  phy
    0 58.744484 -3.923832 39.970190 0.931840 -0.259276 -0.253871 0 0
    0 63.999985 -3.923832 43.173465 0.420898 -0.054821 0.905450 0 0
    0 63.999985 4.000001 43.173465 -0.598034 -0.210597 0.773307 0 0
  phy
    0 61.818652 -3.923829 -0.313793 0.830140 0.179227 -0.527963 0 0
    0 63.999985 -3.923832 43.173465 0.420898 -0.054821 0.905450 0 0
    0 58.744484 -3.923832 39.970190 0.931840 -0.259276 -0.253871 0 0
  phy
    0 58.744484 -3.923832 39.970190 0.931840 -0.259276 -0.253871 0 0
    0 54.301183 -3.923831 31.734222 0.756306 -0.191754 -0.625485 0 0
    0 61.818652 -3.923829 -0.313793 0.830140 0.179227 -0.527963 0 0
  phy
    0 61.818652 -3.923829 -0.313793 0.830140 0.179227 -0.527963 0 0
    0 61.818652 4.000003 -0.313793 -0.438255 0.361026 -0.823160 0 0
    0 63.999985 -3.923829 -1.829206 0.281696 0.099199 0.954362 0 0
  phy
    0 63.999985 -3.923829 -1.829206 0.281696 0.099199 0.954362 0 0
    0 61.818652 4.000003 -0.313793 -0.438255 0.361026 -0.823160 0 0
    0 63.999985 4.000003 -1.829206 -0.598533 0.019742 0.800855 0 0
  phy
    0 61.818652 4.000003 -0.313793 -0.438255 0.361026 -0.823160 0 0
    0 54.301183 4.000001 31.734222 -0.833312 -0.055329 -0.550027 0 0
    0 63.999985 4.000003 -1.829206 -0.598533 0.019742 0.800855 0 0
  phy
    0 54.301183 4.000001 31.734222 -0.833312 -0.055329 -0.550027 0 0
    0 58.744484 4.000001 39.970190 -0.924460 -0.222534 -0.309601 0 0
    0 63.999985 4.000003 -1.829206 -0.598533 0.019742 0.800855 0 0
  phy
    0 58.744484 4.000001 39.970190 -0.924460 -0.222534 -0.309601 0 0
    0 63.999985 4.000001 43.173465 -0.598034 -0.210597 0.773307 0 0
    0 63.999985 4.000003 -1.829206 -0.598533 0.019742 0.800855 0 0
  phy
    0 63.999985 -3.923829 -1.829206 0.281696 0.099199 0.954362 0 0
    0 63.999985 -3.923832 43.173465 0.420898 -0.054821 0.905450 0 0
    0 61.818652 -3.923829 -0.313793 0.830140 0.179227 -0.527963 0 0
  phy
    0 63.999985 4.000003 -1.829206 -0.598533 0.019742 0.800855 0 0
    0 63.999985 -3.923832 43.173465 0.420898 -0.054821 0.905450 0 0
    0 63.999985 -3.923829 -1.829206 0.281696 0.099199 0.954362 0 0
  phy
    0 63.999985 4.000003 -1.829206 -0.598533 0.019742 0.800855 0 0
    0 63.999985 4.000001 43.173465 -0.598034 -0.210597 0.773307 0 0
    0 63.999985 -3.923832 43.173465 0.420898 -0.054821 0.905450 0 0
  phy
    0 59.228652 4.000001 40.053354 -0.618988 0.676478 -0.399037 0 0
    0 59.228652 -3.923831 40.053354 0.503096 0.667508 -0.548933 0 0
    0 50.559114 3.999999 48.594212 -0.272078 0.549460 -0.789980 0 0
  phy
    0 50.559114 3.999999 48.594212 -0.272078 0.549460 -0.789980 0 0
    0 59.228652 -3.923831 40.053354 0.503096 0.667508 -0.548933 0 0
    0 50.559114 -3.923832 48.594212 0.327036 0.302097 -0.895425 0 0
  phy
    0 59.228652 -3.923831 40.053354 0.503096 0.667508 -0.548933 0 0
    0 59.228652 4.000001 40.053354 -0.618988 0.676478 -0.399037 0 0
    0 63.999985 -3.923831 38.952335 0.710183 0.137130 0.690533 0 0
  phy
    0 63.999985 -3.923831 38.952335 0.710183 0.137130 0.690533 0 0
    0 59.228652 4.000001 40.053354 -0.618988 0.676478 -0.399037 0 0
    0 63.999985 4.000001 38.952335 -0.895977 0.086502 0.435594 0 0
  phy
    0 63.999985 -3.923831 38.952335 0.710183 0.137130 0.690533 0 0
    0 51.037801 -3.923832 55.753340 0.942395 -0.219261 -0.252620 0 0
    0 59.228652 -3.923831 40.053354 0.503096 0.667508 -0.548933 0 0
  phy
    0 59.228652 -3.923831 40.053354 0.503096 0.667508 -0.548933 0 0
    0 51.037801 -3.923832 55.753340 0.942395 -0.219261 -0.252620 0 0
    0 50.559114 -3.923832 48.594212 0.327036 0.302097 -0.895425 0 0
  phy
    0 50.559114 3.999999 48.594212 -0.272078 0.549460 -0.789980 0 0
    0 50.559114 -3.923832 48.594212 0.327036 0.302097 -0.895425 0 0
    0 51.037801 3.999999 55.753340 -0.815421 -0.379438 -0.437166 0 0
  phy
    0 51.037801 3.999999 55.753340 -0.815421 -0.379438 -0.437166 0 0
    0 50.559114 -3.923832 48.594212 0.327036 0.302097 -0.895425 0 0
    0 51.037801 -3.923832 55.753340 0.942395 -0.219261 -0.252620 0 0
  phy
    0 51.037801 3.999999 55.753340 -0.815421 -0.379438 -0.437166 0 0
    0 59.228652 4.000001 40.053354 -0.618988 0.676478 -0.399037 0 0
    0 50.559114 3.999999 48.594212 -0.272078 0.549460 -0.789980 0 0
  phy
    0 59.228652 4.000001 40.053354 -0.618988 0.676478 -0.399037 0 0
    0 51.037801 3.999999 55.753340 -0.815421 -0.379438 -0.437166 0 0
    0 63.999985 4.000001 38.952335 -0.895977 0.086502 0.435594 0 0
  phy
    0 63.999980 -3.923832 64.079968 0.833255 -0.525523 0.171788 0 0
    0 51.037801 3.999999 55.753340 -0.815421 -0.379438 -0.437166 0 0
    0 51.037801 -3.923832 55.753340 0.942395 -0.219261 -0.252620 0 0
  phy
    0 63.999980 -3.923832 64.079968 0.833255 -0.525523 0.171788 0 0
    0 63.999980 3.999999 64.079968 -0.683599 -0.215569 0.697297 0 0
    0 51.037801 3.999999 55.753340 -0.815421 -0.379438 -0.437166 0 0
  phy
    0 63.999980 -3.923832 64.079968 0.833255 -0.525523 0.171788 0 0
    0 63.999985 -3.923831 38.952335 0.710183 0.137130 0.690533 0 0
    0 63.999980 3.999999 64.079968 -0.683599 -0.215569 0.697297 0 0
  phy
    0 63.999985 -3.923831 38.952335 0.710183 0.137130 0.690533 0 0
    0 63.999985 4.000001 38.952335 -0.895977 0.086502 0.435594 0 0
    0 63.999980 3.999999 64.079968 -0.683599 -0.215569 0.697297 0 0
  phy
    0 63.999980 -3.923832 64.079968 0.833255 -0.525523 0.171788 0 0
    0 51.037801 -3.923832 55.753340 0.942395 -0.219261 -0.252620 0 0
    0 63.999985 -3.923831 38.952335 0.710183 0.137130 0.690533 0 0
  phy
    0 51.037801 3.999999 55.753340 -0.815421 -0.379438 -0.437166 0 0
    0 63.999980 3.999999 64.079968 -0.683599 -0.215569 0.697297 0 0
    0 63.999985 4.000001 38.952335 -0.895977 0.086502 0.435594 0 0
  phy
    0 15.602300 3.999999 54.147591 -0.984734 0.098409 -0.143578 0 0
    0 12.512944 3.999998 63.999990 -0.791435 -0.558918 -0.247470 0 0
    0 63.195435 4.000002 63.999990 -0.620786 -0.783784 0.017551 0 0
  phy
    0 19.443054 3.999999 53.889038 -0.442053 0.895595 0.049990 0 0
    0 15.602300 3.999999 54.147591 -0.984734 0.098409 -0.143578 0 0
    0 63.195435 4.000002 63.999990 -0.620786 -0.783784 0.017551 0 0
  phy
    0 15.602300 3.999999 54.147591 -0.984734 0.098409 -0.143578 0 0
    0 15.602300 -3.923833 54.147586 0.187307 0.555350 -0.810249 0 0
    0 12.512944 3.999998 63.999990 -0.791435 -0.558918 -0.247470 0 0
  phy
    0 15.602300 -3.923833 54.147586 0.187307 0.555350 -0.810249 0 0
    0 15.602300 3.999999 54.147591 -0.984734 0.098409 -0.143578 0 0
    0 19.443054 3.999999 53.889038 -0.442053 0.895595 0.049990 0 0
  phy
    0 19.443054 -3.923833 53.889038 0.938760 0.344036 0.019203 0 0
    0 51.390482 -3.923832 56.145205 0.316986 0.927774 0.196865 0 0
    0 63.195421 -3.923833 63.999985 0.927943 -0.359137 0.099714 0 0
  phy
    0 63.195421 -3.923833 63.999985 0.927943 -0.359137 0.099714 0 0
    0 12.512944 -3.923837 63.999990 0.574623 -0.814336 -0.081639 0 0
    0 19.443054 -3.923833 53.889038 0.938760 0.344036 0.019203 0 0
  phy
    0 19.443054 -3.923833 53.889038 0.938760 0.344036 0.019203 0 0
    0 12.512944 -3.923837 63.999990 0.574623 -0.814336 -0.081639 0 0
    0 15.602300 -3.923833 54.147586 0.187307 0.555350 -0.810249 0 0
  phy
    0 19.443054 -3.923833 53.889038 0.938760 0.344036 0.019203 0 0
    0 15.602300 -3.923833 54.147586 0.187307 0.555350 -0.810249 0 0
    0 19.443054 3.999999 53.889038 -0.442053 0.895595 0.049990 0 0
  phy
    0 51.390482 -3.923832 56.145205 0.316986 0.927774 0.196865 0 0
    0 19.443054 -3.923833 53.889038 0.938760 0.344036 0.019203 0 0
    0 19.443054 3.999999 53.889038 -0.442053 0.895595 0.049990 0 0
  phy
    0 60.571418 4.000002 61.788977 -0.706471 0.589227 0.392060 0 0
    0 63.195421 -3.923833 63.999985 0.927943 -0.359137 0.099714 0 0
    0 51.390482 -3.923832 56.145205 0.316986 0.927774 0.196865 0 0
  phy
    0 63.195421 -3.923833 63.999985 0.927943 -0.359137 0.099714 0 0
    0 60.571418 4.000002 61.788977 -0.706471 0.589227 0.392060 0 0
    0 63.195435 4.000002 63.999990 -0.620786 -0.783784 0.017551 0 0
  phy
    0 51.390477 4.000001 56.145205 -0.433396 0.885025 0.169996 0 0
    0 60.571418 4.000002 61.788977 -0.706471 0.589227 0.392060 0 0
    0 51.390482 -3.923832 56.145205 0.316986 0.927774 0.196865 0 0
  phy
    0 60.571418 4.000002 61.788977 -0.706471 0.589227 0.392060 0 0
    0 51.390477 4.000001 56.145205 -0.433396 0.885025 0.169996 0 0
    0 19.443054 3.999999 53.889038 -0.442053 0.895595 0.049990 0 0
  phy
    0 60.571418 4.000002 61.788977 -0.706471 0.589227 0.392060 0 0
    0 19.443054 3.999999 53.889038 -0.442053 0.895595 0.049990 0 0
    0 63.195435 4.000002 63.999990 -0.620786 -0.783784 0.017551 0 0
  phy
    0 12.512944 3.999998 63.999990 -0.791435 -0.558918 -0.247470 0 0
    0 15.602300 -3.923833 54.147586 0.187307 0.555350 -0.810249 0 0
    0 12.512944 -3.923837 63.999990 0.574623 -0.814336 -0.081639 0 0
  phy
    0 51.390477 4.000001 56.145205 -0.433396 0.885025 0.169996 0 0
    0 51.390482 -3.923832 56.145205 0.316986 0.927774 0.196865 0 0
    0 19.443054 3.999999 53.889038 -0.442053 0.895595 0.049990 0 0
  phy
    0 63.195421 -3.923833 63.999985 0.927943 -0.359137 0.099714 0 0
    0 63.195435 4.000002 63.999990 -0.620786 -0.783784 0.017551 0 0
    0 12.512944 -3.923837 63.999990 0.574623 -0.814336 -0.081639 0 0
  phy
    0 12.512944 -3.923837 63.999990 0.574623 -0.814336 -0.081639 0 0
    0 63.195435 4.000002 63.999990 -0.620786 -0.783784 0.017551 0 0
    0 12.512944 3.999998 63.999990 -0.791435 -0.558918 -0.247470 0 0
  phy
    0 -51.969637 -3.923837 55.830347 0.280985 0.862172 -0.421553 0 0
    0 -51.969637 3.999996 55.830347 -0.925186 0.361008 -0.117069 0 0
    0 -34.158239 -3.923836 52.286396 0.865437 0.500992 -0.005090 0 0
  phy
    0 -34.158239 -3.923836 52.286396 0.865437 0.500992 -0.005090 0 0
    0 -51.969637 3.999996 55.830347 -0.925186 0.361008 -0.117069 0 0
    0 -34.158239 3.999996 52.286396 -0.465822 0.880653 0.086374 0 0
  phy
    0 -51.969637 3.999996 55.830347 -0.925186 0.361008 -0.117069 0 0
    0 -51.969637 -3.923837 55.830347 0.280985 0.862172 -0.421553 0 0
    0 -63.396796 3.999996 63.999990 -0.854237 -0.500840 -0.139421 0 0
  phy
    0 -63.396796 3.999996 63.999990 -0.854237 -0.500840 -0.139421 0 0
    0 -51.969637 -3.923837 55.830347 0.280985 0.862172 -0.421553 0 0
    0 -63.396796 -3.923839 63.999990 0.686321 -0.726246 -0.039118 0 0
  phy
    0 -34.158239 -3.923836 52.286396 0.865437 0.500992 -0.005090 0 0
    0 -63.396796 -3.923839 63.999990 0.686321 -0.726246 -0.039118 0 0
    0 -51.969637 -3.923837 55.830347 0.280985 0.862172 -0.421553 0 0
  phy
    0 14.724412 3.999998 61.788949 -0.991531 0.119725 0.050313 0 0
    0 -51.969637 3.999996 55.830347 -0.925186 0.361008 -0.117069 0 0
    0 -63.396796 3.999996 63.999990 -0.854237 -0.500840 -0.139421 0 0
  phy
    0 -51.969637 3.999996 55.830347 -0.925186 0.361008 -0.117069 0 0
    0 14.724412 3.999998 61.788949 -0.991531 0.119725 0.050313 0 0
    0 -34.158239 3.999996 52.286396 -0.465822 0.880653 0.086374 0 0
  phy
    0 14.724412 3.999998 61.788949 -0.991531 0.119725 0.050313 0 0
    0 14.724412 -3.923834 61.788949 0.980665 0.185797 0.061438 0 0
    0 3.540159 3.999998 58.629297 -0.098554 0.973732 0.205264 0 0
  phy
    0 3.540159 3.999998 58.629297 -0.098554 0.973732 0.205264 0 0
    0 14.724412 -3.923834 61.788949 0.980665 0.185797 0.061438 0 0
    0 3.540159 -3.923834 58.629297 0.068906 0.981324 0.179595 0 0
  phy
    0 14.724412 -3.923834 61.788949 0.980665 0.185797 0.061438 0 0
    0 14.724412 3.999998 61.788949 -0.991531 0.119725 0.050313 0 0
    0 18.152965 -3.923834 63.999990 0.290963 -0.955062 0.056543 0 0
  phy
    0 18.152965 -3.923834 63.999990 0.290963 -0.955062 0.056543 0 0
    0 14.724412 3.999998 61.788949 -0.991531 0.119725 0.050313 0 0
    0 18.152965 3.999998 63.999990 -0.141075 -0.989904 0.013708 0 0
  phy
    0 14.724412 3.999998 61.788949 -0.991531 0.119725 0.050313 0 0
    0 3.540159 3.999998 58.629297 -0.098554 0.973732 0.205264 0 0
    0 -34.158239 3.999996 52.286396 -0.465822 0.880653 0.086374 0 0
  phy
    0 14.724412 3.999998 61.788949 -0.991531 0.119725 0.050313 0 0
    0 -63.396796 3.999996 63.999990 -0.854237 -0.500840 -0.139421 0 0
    0 18.152965 3.999998 63.999990 -0.141075 -0.989904 0.013708 0 0
  phy
    0 14.724412 -3.923834 61.788949 0.980665 0.185797 0.061438 0 0
    0 -63.396796 -3.923839 63.999990 0.686321 -0.726246 -0.039118 0 0
    0 -34.158239 -3.923836 52.286396 0.865437 0.500992 -0.005090 0 0
  phy
    0 -34.158239 -3.923836 52.286396 0.865437 0.500992 -0.005090 0 0
    0 3.540159 -3.923834 58.629297 0.068906 0.981324 0.179595 0 0
    0 14.724412 -3.923834 61.788949 0.980665 0.185797 0.061438 0 0
  phy
    0 18.152965 -3.923834 63.999990 0.290963 -0.955062 0.056543 0 0
    0 -63.396796 -3.923839 63.999990 0.686321 -0.726246 -0.039118 0 0
    0 14.724412 -3.923834 61.788949 0.980665 0.185797 0.061438 0 0
  phy
    0 -34.158239 -3.923836 52.286396 0.865437 0.500992 -0.005090 0 0
    0 -34.158239 3.999996 52.286396 -0.465822 0.880653 0.086374 0 0
    0 3.540159 -3.923834 58.629297 0.068906 0.981324 0.179595 0 0
  phy
    0 3.540159 -3.923834 58.629297 0.068906 0.981324 0.179595 0 0
    0 -34.158239 3.999996 52.286396 -0.465822 0.880653 0.086374 0 0
    0 3.540159 3.999998 58.629297 -0.098554 0.973732 0.205264 0 0
  phy
    0 18.152965 3.999998 63.999990 -0.141075 -0.989904 0.013708 0 0
    0 -63.396796 -3.923839 63.999990 0.686321 -0.726246 -0.039118 0 0
    0 18.152965 -3.923834 63.999990 0.290963 -0.955062 0.056543 0 0
  phy
    0 18.152965 3.999998 63.999990 -0.141075 -0.989904 0.013708 0 0
    0 -63.396796 3.999996 63.999990 -0.854237 -0.500840 -0.139421 0 0
    0 -63.396796 -3.923839 63.999990 0.686321 -0.726246 -0.039118 0 0
  phy
    0 -55.411538 3.999996 52.358710 -0.895229 -0.089227 0.436582 0 0
    0 -59.276012 3.999995 64.115923 -0.237241 -0.576727 0.781730 0 0
    0 -55.411538 -3.923836 52.358691 0.101644 -0.248149 0.963375 0 0
  phy
    0 -55.411538 -3.923836 52.358691 0.101644 -0.248149 0.963375 0 0
    0 -59.276012 3.999995 64.115923 -0.237241 -0.576727 0.781730 0 0
    0 -59.276021 -3.923838 64.115928 0.991026 -0.079355 0.107563 0 0
  phy
    0 -55.411538 -3.923836 52.358691 0.101644 -0.248149 0.963375 0 0
    0 -52.526795 -3.923836 34.668117 0.410712 -0.074871 0.908686 0 0
    0 -55.411538 3.999996 52.358710 -0.895229 -0.089227 0.436582 0 0
  phy
    0 -59.276021 -3.923838 64.115928 0.991026 -0.079355 0.107563 0 0
    0 -52.526795 -3.923836 34.668117 0.410712 -0.074871 0.908686 0 0
    0 -55.411538 -3.923836 52.358691 0.101644 -0.248149 0.963375 0 0
  phy
    0 -54.468104 -3.923836 23.587764 0.821835 0.261301 0.506270 0 0
    0 -63.999985 3.999998 12.438898 -0.769920 0.146496 -0.621098 0 0
    0 -54.468104 3.999997 23.587773 -0.390080 0.422311 0.818224 0 0
  phy
    0 -63.999985 -3.923837 12.438898 0.901042 0.099570 -0.422147 0 0
    0 -63.999985 3.999998 12.438898 -0.769920 0.146496 -0.621098 0 0
    0 -54.468104 -3.923836 23.587764 0.821835 0.261301 0.506270 0 0
  phy
    0 -54.468104 3.999997 23.587773 -0.390080 0.422311 0.818224 0 0
    0 -52.526795 3.999997 34.668117 -0.743384 0.016743 0.668655 0 0
    0 -54.468104 -3.923836 23.587764 0.821835 0.261301 0.506270 0 0
  phy
    0 -52.526795 3.999997 34.668117 -0.743384 0.016743 0.668655 0 0
    0 -52.526795 -3.923836 34.668117 0.410712 -0.074871 0.908686 0 0
    0 -54.468104 -3.923836 23.587764 0.821835 0.261301 0.506270 0 0
  phy
    0 -59.276021 -3.923838 64.115928 0.991026 -0.079355 0.107563 0 0
    0 -63.999985 -3.923837 12.438898 0.901042 0.099570 -0.422147 0 0
    0 -54.468104 -3.923836 23.587764 0.821835 0.261301 0.506270 0 0
  phy
    0 -54.468104 -3.923836 23.587764 0.821835 0.261301 0.506270 0 0
    0 -52.526795 -3.923836 34.668117 0.410712 -0.074871 0.908686 0 0
    0 -59.276021 -3.923838 64.115928 0.991026 -0.079355 0.107563 0 0
  phy
    0 -52.526795 3.999997 34.668117 -0.743384 0.016743 0.668655 0 0
    0 -54.468104 3.999997 23.587773 -0.390080 0.422311 0.818224 0 0
    0 -63.999985 3.999998 12.438898 -0.769920 0.146496 -0.621098 0 0
  phy
    0 -63.999980 3.999995 63.999985 -0.771630 -0.057904 -0.633431 0 0
    0 -55.411538 3.999996 52.358710 -0.895229 -0.089227 0.436582 0 0
    0 -63.999985 3.999998 12.438898 -0.769920 0.146496 -0.621098 0 0
  phy
    0 -55.411538 3.999996 52.358710 -0.895229 -0.089227 0.436582 0 0
    0 -52.526795 3.999997 34.668117 -0.743384 0.016743 0.668655 0 0
    0 -63.999985 3.999998 12.438898 -0.769920 0.146496 -0.621098 0 0
  phy
    0 -55.411538 3.999996 52.358710 -0.895229 -0.089227 0.436582 0 0
    0 -63.999980 3.999995 63.999985 -0.771630 -0.057904 -0.633431 0 0
    0 -59.276012 3.999995 64.115923 -0.237241 -0.576727 0.781730 0 0
  phy
    0 -55.411538 3.999996 52.358710 -0.895229 -0.089227 0.436582 0 0
    0 -52.526795 -3.923836 34.668117 0.410712 -0.074871 0.908686 0 0
    0 -52.526795 3.999997 34.668117 -0.743384 0.016743 0.668655 0 0
  phy
    0 -59.276021 -3.923838 64.115928 0.991026 -0.079355 0.107563 0 0
    0 -63.999985 -3.923838 63.999995 0.283987 -0.087286 -0.954847 0 0
    0 -63.999985 -3.923837 12.438898 0.901042 0.099570 -0.422147 0 0
  phy
    0 -59.276012 3.999995 64.115923 -0.237241 -0.576727 0.781730 0 0
    0 -63.999985 -3.923838 63.999995 0.283987 -0.087286 -0.954847 0 0
    0 -59.276021 -3.923838 64.115928 0.991026 -0.079355 0.107563 0 0
  phy
    0 -63.999980 3.999995 63.999985 -0.771630 -0.057904 -0.633431 0 0
    0 -63.999985 -3.923838 63.999995 0.283987 -0.087286 -0.954847 0 0
    0 -59.276012 3.999995 64.115923 -0.237241 -0.576727 0.781730 0 0
  phy
    0 -63.999985 -3.923838 63.999995 0.283987 -0.087286 -0.954847 0 0
    0 -63.999980 3.999995 63.999985 -0.771630 -0.057904 -0.633431 0 0
    0 -63.999985 3.999998 12.438898 -0.769920 0.146496 -0.621098 0 0
  phy
    0 -63.999985 -3.923837 12.438898 0.901042 0.099570 -0.422147 0 0
    0 -63.999985 -3.923838 63.999995 0.283987 -0.087286 -0.954847 0 0
    0 -63.999985 3.999998 12.438898 -0.769920 0.146496 -0.621098 0 0
  phy
    0 -55.246433 3.999999 -20.994051 -0.959119 -0.022554 0.282104 0 0
    0 -57.768568 3.999997 5.218175 -0.147077 -0.138694 0.979353 0 0
    0 -55.246433 -3.923834 -20.994051 0.342334 -0.074878 0.936590 0 0
  phy
    0 -57.768568 3.999997 5.218175 -0.147077 -0.138694 0.979353 0 0
    0 -57.768568 -3.923835 5.218175 0.382365 -0.194474 0.903315 0 0
    0 -55.246433 -3.923834 -20.994051 0.342334 -0.074878 0.936590 0 0
  phy
    0 -55.246433 -3.923834 -20.994051 0.342334 -0.074878 0.936590 0 0
    0 -54.649410 3.999999 -33.796847 -0.109624 0.089532 0.989933 0 0
    0 -55.246433 3.999999 -20.994051 -0.959119 -0.022554 0.282104 0 0
  phy
    0 -55.246433 -3.923834 -20.994051 0.342334 -0.074878 0.936590 0 0
    0 -54.649410 -3.923833 -33.796847 0.966874 0.022992 0.254217 0 0
    0 -54.649410 3.999999 -33.796847 -0.109624 0.089532 0.989933 0 0
  phy
    0 -55.246433 3.999999 -20.994051 -0.959119 -0.022554 0.282104 0 0
    0 -57.912985 4.000001 -50.477287 -0.634662 0.237093 0.735521 0 0
    0 -63.999990 4.000002 -62.804691 -0.620126 0.071487 -0.781238 0 0
  phy
    0 -63.999990 3.999997 16.043541 -0.778075 -0.018059 -0.627912 0 0
    0 -55.246433 3.999999 -20.994051 -0.959119 -0.022554 0.282104 0 0
    0 -63.999990 4.000002 -62.804691 -0.620126 0.071487 -0.781238 0 0
  phy
    0 -57.912985 4.000001 -50.477287 -0.634662 0.237093 0.735521 0 0
    0 -55.246433 3.999999 -20.994051 -0.959119 -0.022554 0.282104 0 0
    0 -54.649410 3.999999 -33.796847 -0.109624 0.089532 0.989933 0 0
  phy
    0 -55.246433 3.999999 -20.994051 -0.959119 -0.022554 0.282104 0 0
    0 -63.999990 3.999997 16.043541 -0.778075 -0.018059 -0.627912 0 0
    0 -61.723698 3.999997 16.340794 -0.634574 -0.385567 0.669816 0 0
  phy
    0 -57.768568 3.999997 5.218175 -0.147077 -0.138694 0.979353 0 0
    0 -55.246433 3.999999 -20.994051 -0.959119 -0.022554 0.282104 0 0
    0 -61.723698 3.999997 16.340794 -0.634574 -0.385567 0.669816 0 0
  phy
    0 -57.912985 -3.923833 -50.477287 0.125910 0.304359 0.944199 0 0
    0 -63.999990 4.000002 -62.804691 -0.620126 0.071487 -0.781238 0 0
    0 -57.912985 4.000001 -50.477287 -0.634662 0.237093 0.735521 0 0
  phy
    0 -57.912985 -3.923833 -50.477287 0.125910 0.304359 0.944199 0 0
    0 -63.999990 -3.923834 -62.804691 0.833533 0.050344 -0.550171 0 0
    0 -63.999990 4.000002 -62.804691 -0.620126 0.071487 -0.781238 0 0
  phy
    0 -57.912985 -3.923833 -50.477287 0.125910 0.304359 0.944199 0 0
    0 -54.649410 3.999999 -33.796847 -0.109624 0.089532 0.989933 0 0
    0 -54.649410 -3.923833 -33.796847 0.966874 0.022992 0.254217 0 0
  phy
    0 -57.912985 -3.923833 -50.477287 0.125910 0.304359 0.944199 0 0
    0 -57.912985 4.000001 -50.477287 -0.634662 0.237093 0.735521 0 0
    0 -54.649410 3.999999 -33.796847 -0.109624 0.089532 0.989933 0 0
  phy
    0 -57.912985 -3.923833 -50.477287 0.125910 0.304359 0.944199 0 0
    0 -54.649410 -3.923833 -33.796847 0.966874 0.022992 0.254217 0 0
    0 -63.999990 -3.923834 -62.804691 0.833533 0.050344 -0.550171 0 0
  phy
    0 -57.768568 3.999997 5.218175 -0.147077 -0.138694 0.979353 0 0
    0 -61.723698 3.999997 16.340794 -0.634574 -0.385567 0.669816 0 0
    0 -57.768568 -3.923835 5.218175 0.382365 -0.194474 0.903315 0 0
  phy
    0 -61.723698 3.999997 16.340794 -0.634574 -0.385567 0.669816 0 0
    0 -61.723698 -3.923836 16.340794 0.258581 -0.481915 0.837194 0 0
    0 -57.768568 -3.923835 5.218175 0.382365 -0.194474 0.903315 0 0
  phy
    0 -57.768568 -3.923835 5.218175 0.382365 -0.194474 0.903315 0 0
    0 -63.999990 -3.923837 16.043541 0.619313 -0.022572 -0.784820 0 0
    0 -55.246433 -3.923834 -20.994051 0.342334 -0.074878 0.936590 0 0
  phy
    0 -55.246433 -3.923834 -20.994051 0.342334 -0.074878 0.936590 0 0
    0 -63.999990 -3.923837 16.043541 0.619313 -0.022572 -0.784820 0 0
    0 -54.649410 -3.923833 -33.796847 0.966874 0.022992 0.254217 0 0
  phy
    0 -61.723698 3.999997 16.340794 -0.634574 -0.385567 0.669816 0 0
    0 -63.999990 -3.923837 16.043541 0.619313 -0.022572 -0.784820 0 0
    0 -61.723698 -3.923836 16.340794 0.258581 -0.481915 0.837194 0 0
  phy
    0 -61.723698 3.999997 16.340794 -0.634574 -0.385567 0.669816 0 0
    0 -63.999990 3.999997 16.043541 -0.778075 -0.018059 -0.627912 0 0
    0 -63.999990 -3.923837 16.043541 0.619313 -0.022572 -0.784820 0 0
  phy
    0 -61.723698 -3.923836 16.340794 0.258581 -0.481915 0.837194 0 0
    0 -63.999990 -3.923837 16.043541 0.619313 -0.022572 -0.784820 0 0
    0 -57.768568 -3.923835 5.218175 0.382365 -0.194474 0.903315 0 0
  phy
    0 -63.999990 3.999997 16.043541 -0.778075 -0.018059 -0.627912 0 0
    0 -63.999990 4.000002 -62.804691 -0.620126 0.071487 -0.781238 0 0
    0 -63.999990 -3.923837 16.043541 0.619313 -0.022572 -0.784820 0 0
  phy
    0 -63.999990 -3.923837 16.043541 0.619313 -0.022572 -0.784820 0 0
    0 -63.999990 4.000002 -62.804691 -0.620126 0.071487 -0.781238 0 0
    0 -63.999990 -3.923834 -62.804691 0.833533 0.050344 -0.550171 0 0
  phy
    0 -54.649410 -3.923833 -33.796847 0.966874 0.022992 0.254217 0 0
    0 -63.999990 -3.923837 16.043541 0.619313 -0.022572 -0.784820 0 0
    0 -63.999990 -3.923834 -62.804691 0.833533 0.050344 -0.550171 0 0
  phy
    0 54.792691 4.000005 -57.044686 -0.806891 0.336456 -0.485515 0 0
    0 54.792691 -3.923827 -57.044686 0.758735 0.158188 -0.631900 0 0
    0 54.792691 4.000004 -41.382533 -0.427627 -0.432692 -0.793670 0 0
  phy
    0 54.792691 4.000004 -41.382533 -0.427627 -0.432692 -0.793670 0 0
    0 54.792691 -3.923827 -57.044686 0.758735 0.158188 -0.631900 0 0
    0 54.792691 -3.923828 -41.382533 0.687269 -0.347704 -0.637780 0 0
  phy
    0 54.792691 -3.923827 -57.044686 0.758735 0.158188 -0.631900 0 0
    0 54.792691 4.000005 -57.044686 -0.806891 0.336456 -0.485515 0 0
    0 63.999985 -3.923826 -62.499985 0.559403 0.396764 0.727768 0 0
  phy
    0 63.999985 -3.923826 -62.499985 0.559403 0.396764 0.727768 0 0
    0 54.792691 4.000005 -57.044686 -0.806891 0.336456 -0.485515 0 0
    0 63.999985 4.000006 -62.499985 -0.803506 0.284948 0.522669 0 0
  phy
    0 54.792691 4.000005 -57.044686 -0.806891 0.336456 -0.485515 0 0
    0 54.792691 4.000004 -41.382533 -0.427627 -0.432692 -0.793670 0 0
    0 63.999990 4.000006 -40.156119 -0.704998 -0.146984 0.693811 0 0
  phy
    0 54.792691 4.000005 -57.044686 -0.806891 0.336456 -0.485515 0 0
    0 63.999990 4.000006 -40.156119 -0.704998 -0.146984 0.693811 0 0
    0 63.999985 4.000006 -62.499985 -0.803506 0.284948 0.522669 0 0
  phy
    0 63.999990 -3.923827 -40.156119 0.852264 -0.355375 0.383868 0 0
    0 54.792691 -3.923828 -41.382533 0.687269 -0.347704 -0.637780 0 0
    0 54.792691 -3.923827 -57.044686 0.758735 0.158188 -0.631900 0 0
  phy
    0 63.999985 -3.923826 -62.499985 0.559403 0.396764 0.727768 0 0
    0 63.999990 -3.923827 -40.156119 0.852264 -0.355375 0.383868 0 0
    0 54.792691 -3.923827 -57.044686 0.758735 0.158188 -0.631900 0 0
  phy
    0 54.792691 -3.923828 -41.382533 0.687269 -0.347704 -0.637780 0 0
    0 63.999990 -3.923827 -40.156119 0.852264 -0.355375 0.383868 0 0
    0 54.792691 4.000004 -41.382533 -0.427627 -0.432692 -0.793670 0 0
  phy
    0 63.999990 -3.923827 -40.156119 0.852264 -0.355375 0.383868 0 0
    0 63.999990 4.000006 -40.156119 -0.704998 -0.146984 0.693811 0 0
    0 54.792691 4.000004 -41.382533 -0.427627 -0.432692 -0.793670 0 0
  phy
    0 63.999985 4.000006 -62.499985 -0.803506 0.284948 0.522669 0 0
    0 63.999990 4.000006 -40.156119 -0.704998 -0.146984 0.693811 0 0
    0 63.999985 -3.923826 -62.499985 0.559403 0.396764 0.727768 0 0
  phy
    0 63.999990 4.000006 -40.156119 -0.704998 -0.146984 0.693811 0 0
    0 63.999990 -3.923827 -40.156119 0.852264 -0.355375 0.383868 0 0
    0 63.999985 -3.923826 -62.499985 0.559403 0.396764 0.727768 0 0
  phy
    0 48.750034 -2.887756 61.026783 0.135629 -0.008592 0.990722 0 0
    0 47.350019 -2.987966 61.025206 0.529087 -0.002021 -0.848565 0 0
    0 48.650034 -1.053947 -62.539634 0.507436 0.018400 0.861493 0 0
  phy
    0 48.650034 -1.053947 -62.539634 0.507436 0.018400 0.861493 0 0
    0 47.350019 -2.987966 61.025206 0.529087 -0.002021 -0.848565 0 0
    0 47.250029 -0.953975 -62.537006 0.147100 0.013223 -0.989033 0 0
  phy
    0 48.650034 -1.053947 -62.539634 0.507436 0.018400 0.861493 0 0
    0 48.650039 3.697628 -62.486543 -0.147360 0.008908 0.989043 0 0
    0 48.750034 -2.887756 61.026783 0.135629 -0.008592 0.990722 0 0
  phy
    0 48.650034 -1.053947 -62.539634 0.507436 0.018400 0.861493 0 0
    0 47.250029 -0.953975 -62.537006 0.147100 0.013223 -0.989033 0 0
    0 48.650039 3.697628 -62.486543 -0.147360 0.008908 0.989043 0 0
  phy
    0 47.350042 3.697600 -62.484441 -0.507700 0.001404 -0.861533 0 0
    0 47.250029 1.663598 61.078428 -0.147102 -0.013517 -0.989029 0 0
    0 48.650039 1.763582 61.079977 -0.523743 -0.018271 0.851681 0 0
  phy
    0 47.350042 3.697600 -62.484441 -0.507700 0.001404 -0.861533 0 0
    0 48.650039 1.763582 61.079977 -0.523743 -0.018271 0.851681 0 0
    0 48.650039 3.697628 -62.486543 -0.147360 0.008908 0.989043 0 0
  phy
    0 47.350042 3.697600 -62.484441 -0.507700 0.001404 -0.861533 0 0
    0 47.250029 -0.953975 -62.537006 0.147100 0.013223 -0.989033 0 0
    0 47.250029 1.663598 61.078428 -0.147102 -0.013517 -0.989029 0 0
  phy
    0 47.250029 -0.953975 -62.537006 0.147100 0.013223 -0.989033 0 0
    0 47.350042 3.697600 -62.484441 -0.507700 0.001404 -0.861533 0 0
    0 48.650039 3.697628 -62.486543 -0.147360 0.008908 0.989043 0 0
  phy
    0 48.750034 -2.887756 61.026783 0.135629 -0.008592 0.990722 0 0
    0 48.650039 1.763582 61.079977 -0.523743 -0.018271 0.851681 0 0
    0 47.250029 1.663598 61.078428 -0.147102 -0.013517 -0.989029 0 0
  phy
    0 47.250029 1.663598 61.078428 -0.147102 -0.013517 -0.989029 0 0
    0 47.350019 -2.987966 61.025206 0.529087 -0.002021 -0.848565 0 0
    0 48.750034 -2.887756 61.026783 0.135629 -0.008592 0.990722 0 0
  phy
    0 48.750034 -2.887756 61.026783 0.135629 -0.008592 0.990722 0 0
    0 48.650039 3.697628 -62.486543 -0.147360 0.008908 0.989043 0 0
    0 48.650039 1.763582 61.079977 -0.523743 -0.018271 0.851681 0 0
  phy
    0 47.250029 1.663598 61.078428 -0.147102 -0.013517 -0.989029 0 0
    0 47.250029 -0.953975 -62.537006 0.147100 0.013223 -0.989033 0 0
    0 47.350019 -2.987966 61.025206 0.529087 -0.002021 -0.848565 0 0
  phy
    0 -48.649978 -2.988399 61.079977 0.528902 -0.019482 -0.848459 0 0
    0 -47.249982 -2.888403 -62.499985 0.288162 0.011081 0.957518 0 0
    0 -47.349963 -2.988399 61.079977 0.288159 -0.010614 0.957524 0 0
  phy
    0 -48.649978 -2.988399 61.079977 0.528902 -0.019482 -0.848459 0 0
    0 -48.749968 -2.888403 -62.499985 0.159160 0.006120 -0.987234 0 0
    0 -47.249982 -2.888403 -62.499985 0.288162 0.011081 0.957518 0 0
  phy
    0 -47.349963 -2.988399 61.079977 0.288159 -0.010614 0.957524 0 0
    0 -47.249972 1.663672 61.079977 -0.159151 -0.011312 0.987189 0 0
    0 -48.649978 -2.988399 61.079977 0.528902 -0.019482 -0.848459 0 0
  phy
    0 -47.249972 1.663672 61.079977 -0.159151 -0.011312 0.987189 0 0
    0 -48.749973 1.663747 61.079977 -0.288174 -0.006044 -0.957559 0 0
    0 -48.649978 -2.988399 61.079977 0.528902 -0.019482 -0.848459 0 0
  phy
    0 -47.249982 -2.888403 -62.499985 0.288162 0.011081 0.957518 0 0
    0 -47.249972 1.663672 61.079977 -0.159151 -0.011312 0.987189 0 0
    0 -47.349963 -2.988399 61.079977 0.288159 -0.010614 0.957524 0 0
  phy
    0 -48.649982 1.763584 -62.499980 -0.288112 0.022233 -0.957339 0 0
    0 -47.349949 1.763584 -62.499980 -0.528987 0.009186 0.848580 0 0
    0 -47.249982 -2.888403 -62.499985 0.288162 0.011081 0.957518 0 0
  phy
    0 -48.649982 1.763584 -62.499980 -0.288112 0.022233 -0.957339 0 0
    0 -47.249982 -2.888403 -62.499985 0.288162 0.011081 0.957518 0 0
    0 -48.749968 -2.888403 -62.499985 0.159160 0.006120 -0.987234 0 0
  phy
    0 -47.249972 1.663672 61.079977 -0.159151 -0.011312 0.987189 0 0
    0 -47.349949 1.763584 -62.499980 -0.528987 0.009186 0.848580 0 0
    0 -48.749973 1.663747 61.079977 -0.288174 -0.006044 -0.957559 0 0
  phy
    0 -48.749973 1.663747 61.079977 -0.288174 -0.006044 -0.957559 0 0
    0 -47.349949 1.763584 -62.499980 -0.528987 0.009186 0.848580 0 0
    0 -48.649982 1.763584 -62.499980 -0.288112 0.022233 -0.957339 0 0
  phy
    0 -47.349949 1.763584 -62.499980 -0.528987 0.009186 0.848580 0 0
    0 -47.249972 1.663672 61.079977 -0.159151 -0.011312 0.987189 0 0
    0 -47.249982 -2.888403 -62.499985 0.288162 0.011081 0.957518 0 0
  phy
    0 -48.749973 1.663747 61.079977 -0.288174 -0.006044 -0.957559 0 0
    0 -48.749968 -2.888403 -62.499985 0.159160 0.006120 -0.987234 0 0
    0 -48.649978 -2.988399 61.079977 0.528902 -0.019482 -0.848459 0 0
  phy
    0 -48.749968 -2.888403 -62.499985 0.159160 0.006120 -0.987234 0 0
    0 -48.749973 1.663747 61.079977 -0.288174 -0.006044 -0.957559 0 0
    0 -48.649982 1.763584 -62.499980 -0.288112 0.022233 -0.957339 0 0
  phy
    0 -38.982076 1.473192 -20.878108 -0.495836 -0.082322 0.864506 0 0
    0 -38.328206 -3.177610 -20.376636 0.362057 -0.112928 0.925290 0 0
    0 -35.484541 -2.523783 -61.979378 -0.015829 -0.027120 0.999507 0 0
  phy
    0 -35.484541 -2.523783 -61.979378 -0.015829 -0.027120 0.999507 0 0
    0 -36.467372 2.127056 -61.979378 -0.527125 -0.021030 0.849527 0 0
    0 -38.982076 1.473192 -20.878108 -0.495836 -0.082322 0.864506 0 0
  phy
    0 -40.590833 0.974539 -19.329879 -0.196344 -0.016380 -0.980398 0 0
    0 -38.982076 1.473192 -20.878108 -0.495836 -0.082322 0.864506 0 0
    0 -38.060830 1.628225 -61.979378 -0.127457 0.095787 -0.987208 0 0
  phy
    0 -38.060830 1.628225 -61.979378 -0.127457 0.095787 -0.987208 0 0
    0 -38.982076 1.473192 -20.878108 -0.495836 -0.082322 0.864506 0 0
    0 -36.467372 2.127056 -61.979378 -0.527125 -0.021030 0.849527 0 0
  phy
    0 -38.982076 1.473192 -20.878108 -0.495836 -0.082322 0.864506 0 0
    0 -40.590833 0.974539 -19.329879 -0.196344 -0.016380 -0.980398 0 0
    0 -38.328206 -3.177610 -20.376636 0.362057 -0.112928 0.925290 0 0
  phy
    0 -38.060830 1.628225 -61.979378 -0.127457 0.095787 -0.987208 0 0
    0 -35.484541 -2.523783 -61.979378 -0.015829 -0.027120 0.999507 0 0
    0 -36.989476 -3.022564 -61.979374 0.737474 0.089493 -0.669420 0 0
  phy
    0 -35.484541 -2.523783 -61.979378 -0.015829 -0.027120 0.999507 0 0
    0 -38.060830 1.628225 -61.979378 -0.127457 0.095787 -0.987208 0 0
    0 -36.467372 2.127056 -61.979378 -0.527125 -0.021030 0.849527 0 0
  phy
    0 -38.328206 -3.177610 -20.376636 0.362057 -0.112928 0.925290 0 0
    0 -36.989476 -3.022564 -61.979374 0.737474 0.089493 -0.669420 0 0
    0 -35.484541 -2.523783 -61.979378 -0.015829 -0.027120 0.999507 0 0
  phy
    0 -40.590833 0.974539 -19.329879 -0.196344 -0.016380 -0.980398 0 0
    0 -39.979623 -3.676440 -18.857126 0.348981 0.046329 -0.935984 0 0
    0 -38.328206 -3.177610 -20.376636 0.362057 -0.112928 0.925290 0 0
  phy
    0 -38.328206 -3.177610 -20.376636 0.362057 -0.112928 0.925290 0 0
    0 -39.979623 -3.676440 -18.857126 0.348981 0.046329 -0.935984 0 0
    0 -36.989476 -3.022564 -61.979374 0.737474 0.089493 -0.669420 0 0
  phy
    0 -40.590833 0.974539 -19.329879 -0.196344 -0.016380 -0.980398 0 0
    0 -38.060830 1.628225 -61.979378 -0.127457 0.095787 -0.987208 0 0
    0 -39.979623 -3.676440 -18.857126 0.348981 0.046329 -0.935984 0 0
  phy
    0 -38.060830 1.628225 -61.979378 -0.127457 0.095787 -0.987208 0 0
    0 -36.989476 -3.022564 -61.979374 0.737474 0.089493 -0.669420 0 0
    0 -39.979623 -3.676440 -18.857126 0.348981 0.046329 -0.935984 0 0
  phy
    0 -14.760037 -2.923902 43.936151 0.301776 0.039337 -0.952567 0 0
    0 -14.760037 1.764987 43.936151 -0.482740 0.125852 -0.866674 0 0
    0 -13.274584 -2.923902 42.287168 0.170444 0.084975 0.981697 0 0
  phy
    0 -13.274584 -2.923902 42.287168 0.170444 0.084975 0.981697 0 0
    0 -14.760037 1.764987 43.936151 -0.482740 0.125852 -0.866674 0 0
    0 -13.274584 1.764987 42.287168 -0.326939 0.081498 0.941525 0 0
  phy
    0 -14.760037 1.764987 43.936151 -0.482740 0.125852 -0.866674 0 0
    0 -14.760037 -2.923902 43.936151 0.301776 0.039337 -0.952567 0 0
    0 -14.760037 1.764986 61.097201 -0.156308 -0.042708 -0.986785 0 0
  phy
    0 -14.760037 1.764986 61.097201 -0.156308 -0.042708 -0.986785 0 0
    0 -14.760037 -2.923902 43.936151 0.301776 0.039337 -0.952567 0 0
    0 -14.760037 -2.923903 61.097201 0.297979 -0.162833 -0.940582 0 0
  phy
    0 -13.274584 -2.923903 61.097201 0.516981 -0.067389 0.853340 0 0
    0 -14.760037 -2.923903 61.097201 0.297979 -0.162833 -0.940582 0 0
    0 -14.760037 -2.923902 43.936151 0.301776 0.039337 -0.952567 0 0
  phy
    0 -13.274584 -2.923902 42.287168 0.170444 0.084975 0.981697 0 0
    0 -13.274584 -2.923903 61.097201 0.516981 -0.067389 0.853340 0 0
    0 -14.760037 -2.923902 43.936151 0.301776 0.039337 -0.952567 0 0
  phy
    0 -14.760037 -2.923903 61.097201 0.297979 -0.162833 -0.940582 0 0
    0 -13.274584 1.764986 61.097201 -0.289083 -0.075365 0.954333 0 0
    0 -14.760037 1.764986 61.097201 -0.156308 -0.042708 -0.986785 0 0
  phy
    0 -14.760037 -2.923903 61.097201 0.297979 -0.162833 -0.940582 0 0
    0 -13.274584 -2.923903 61.097201 0.516981 -0.067389 0.853340 0 0
    0 -13.274584 1.764986 61.097201 -0.289083 -0.075365 0.954333 0 0
  phy
    0 -14.760037 1.764987 43.936151 -0.482740 0.125852 -0.866674 0 0
    0 -14.760037 1.764986 61.097201 -0.156308 -0.042708 -0.986785 0 0
    0 -13.274584 1.764986 61.097201 -0.289083 -0.075365 0.954333 0 0
  phy
    0 -14.760037 1.764987 43.936151 -0.482740 0.125852 -0.866674 0 0
    0 -13.274584 1.764986 61.097201 -0.289083 -0.075365 0.954333 0 0
    0 -13.274584 1.764987 42.287168 -0.326939 0.081498 0.941525 0 0
  phy
    0 -13.274584 1.764987 42.287168 -0.326939 0.081498 0.941525 0 0
    0 -13.274584 1.764986 61.097201 -0.289083 -0.075365 0.954333 0 0
    0 -13.274584 -2.923902 42.287168 0.170444 0.084975 0.981697 0 0
  phy
    0 -13.274584 1.764986 61.097201 -0.289083 -0.075365 0.954333 0 0
    0 -13.274584 -2.923903 61.097201 0.516981 -0.067389 0.853340 0 0
    0 -13.274584 -2.923902 42.287168 0.170444 0.084975 0.981697 0 0
  phy
    0 13.379952 -2.923902 61.097201 0.540304 -0.188686 0.820042 0 0
    0 11.894503 1.764986 61.097201 -0.165235 0.017524 -0.986099 0 0
    0 11.894503 -2.923902 61.097201 0.301469 0.059779 -0.951600 0 0
  phy
    0 13.379952 -2.923902 61.097201 0.540304 -0.188686 0.820042 0 0
    0 13.379957 1.764986 61.097201 -0.283860 -0.184880 0.940873 0 0
    0 11.894503 1.764986 61.097201 -0.165235 0.017524 -0.986099 0 0
  phy
    0 13.379952 -2.923902 61.097201 0.540304 -0.188686 0.820042 0 0
    0 13.955710 -1.226936 43.374159 0.281494 0.224090 -0.933030 0 0
    0 15.441168 -1.226946 44.198487 0.161254 -0.059225 0.985134 0 0
  phy
    0 13.379952 -2.923902 61.097201 0.540304 -0.188686 0.820042 0 0
    0 11.894503 -2.923902 61.097201 0.301469 0.059779 -0.951600 0 0
    0 13.955710 -1.226936 43.374159 0.281494 0.224090 -0.933030 0 0
  phy
    0 13.379952 -2.923902 61.097201 0.540304 -0.188686 0.820042 0 0
    0 15.441168 -1.226946 44.198487 0.161254 -0.059225 0.985134 0 0
    0 13.379957 1.764986 61.097201 -0.283860 -0.184880 0.940873 0 0
  phy
    0 15.441166 3.461945 44.198487 -0.304285 0.020429 0.952362 0 0
    0 15.441168 -1.226946 44.198487 0.161254 -0.059225 0.985134 0 0
    0 13.955710 -1.226936 43.374159 0.281494 0.224090 -0.933030 0 0
  phy
    0 15.441166 3.461945 44.198487 -0.304285 0.020429 0.952362 0 0
    0 13.955710 -1.226936 43.374159 0.281494 0.224090 -0.933030 0 0
    0 13.955691 3.461950 44.788301 -0.546267 0.119152 -0.829093 0 0
  phy
    0 13.379957 1.764986 61.097201 -0.283860 -0.184880 0.940873 0 0
    0 15.441168 -1.226946 44.198487 0.161254 -0.059225 0.985134 0 0
    0 15.441166 3.461945 44.198487 -0.304285 0.020429 0.952362 0 0
  phy
    0 13.379957 1.764986 61.097201 -0.283860 -0.184880 0.940873 0 0
    0 15.441166 3.461945 44.198487 -0.304285 0.020429 0.952362 0 0
    0 13.955691 3.461950 44.788301 -0.546267 0.119152 -0.829093 0 0
  phy
    0 11.894503 1.764986 61.097201 -0.165235 0.017524 -0.986099 0 0
    0 13.379957 1.764986 61.097201 -0.283860 -0.184880 0.940873 0 0
    0 13.955691 3.461950 44.788301 -0.546267 0.119152 -0.829093 0 0
  phy
    0 11.894503 1.764986 61.097201 -0.165235 0.017524 -0.986099 0 0
    0 13.955710 -1.226936 43.374159 0.281494 0.224090 -0.933030 0 0
    0 11.894503 -2.923902 61.097201 0.301469 0.059779 -0.951600 0 0
  phy
    0 13.955710 -1.226936 43.374159 0.281494 0.224090 -0.933030 0 0
    0 11.894503 1.764986 61.097201 -0.165235 0.017524 -0.986099 0 0
    0 13.955691 3.461950 44.788301 -0.546267 0.119152 -0.829093 0 0
  phy
    0 37.731864 -1.059027 -39.817386 0.534878 0.030670 -0.844372 0 0
    0 37.731864 3.629862 -39.817390 -0.301932 0.017629 -0.953167 0 0
    0 39.217315 -1.059027 -39.831193 0.156449 0.007872 0.987655 0 0
  phy
    0 39.217315 -1.059027 -39.831193 0.156449 0.007872 0.987655 0 0
    0 37.731864 3.629862 -39.817390 -0.301932 0.017629 -0.953167 0 0
    0 39.217315 3.630121 -39.831198 -0.302007 -0.000902 0.953305 0 0
  phy
    0 38.236208 1.736358 61.097197 -0.301890 -0.021943 0.953090 0 0
    0 37.731864 3.629862 -39.817390 -0.301932 0.017629 -0.953167 0 0
    0 36.750757 1.736358 61.097197 -0.301920 -0.024457 -0.953020 0 0
  phy
    0 37.731864 3.629862 -39.817390 -0.301932 0.017629 -0.953167 0 0
    0 38.236208 1.736358 61.097197 -0.301890 -0.021943 0.953090 0 0
    0 39.217315 3.630121 -39.831198 -0.302007 -0.000902 0.953305 0 0
  phy
    0 37.731864 3.629862 -39.817390 -0.301932 0.017629 -0.953167 0 0
    0 37.731864 -1.059027 -39.817386 0.534878 0.030670 -0.844372 0 0
    0 36.750753 -2.952530 61.097192 0.156444 0.005269 -0.987673 0 0
  phy
    0 36.750757 1.736358 61.097197 -0.301920 -0.024457 -0.953020 0 0
    0 37.731864 3.629862 -39.817390 -0.301932 0.017629 -0.953167 0 0
    0 36.750753 -2.952530 61.097192 0.156444 0.005269 -0.987673 0 0
  phy
    0 37.731864 -1.059027 -39.817386 0.534878 0.030670 -0.844372 0 0
    0 38.236204 -2.952789 61.097192 0.535052 -0.023031 0.844505 0 0
    0 36.750753 -2.952530 61.097192 0.156444 0.005269 -0.987673 0 0
  phy
    0 39.217315 -1.059027 -39.831193 0.156449 0.007872 0.987655 0 0
    0 38.236204 -2.952789 61.097192 0.535052 -0.023031 0.844505 0 0
    0 37.731864 -1.059027 -39.817386 0.534878 0.030670 -0.844372 0 0
  phy
    0 36.750757 1.736358 61.097197 -0.301920 -0.024457 -0.953020 0 0
    0 38.236204 -2.952789 61.097192 0.535052 -0.023031 0.844505 0 0
    0 38.236208 1.736358 61.097197 -0.301890 -0.021943 0.953090 0 0
  phy
    0 38.236208 1.736358 61.097197 -0.301890 -0.021943 0.953090 0 0
    0 38.236204 -2.952789 61.097192 0.535052 -0.023031 0.844505 0 0
    0 39.217315 -1.059027 -39.831193 0.156449 0.007872 0.987655 0 0
  phy
    0 39.217315 -1.059027 -39.831193 0.156449 0.007872 0.987655 0 0
    0 39.217315 3.630121 -39.831198 -0.302007 -0.000902 0.953305 0 0
    0 38.236208 1.736358 61.097197 -0.301890 -0.021943 0.953090 0 0
  phy
    0 36.750753 -2.952530 61.097192 0.156444 0.005269 -0.987673 0 0
    0 38.236204 -2.952789 61.097192 0.535052 -0.023031 0.844505 0 0
    0 36.750757 1.736358 61.097197 -0.301920 -0.024457 -0.953020 0 0
end
