version 1
nodes
0 "ValveBiped.Bip01_Pelvis" -1
1 "ValveBiped.Bip01_L_Thigh" 0
2 "ValveBiped.Bip01_L_Calf" 1
3 "ValveBiped.Bip01_L_Foot" 2
4 "ValveBiped.Bip01_L_Toe0" 3
5 "ValveBiped.Bip01_R_Thigh" 0
6 "ValveBiped.Bip01_R_Calf" 5
7 "ValveBiped.Bip01_R_Foot" 6
8 "ValveBiped.Bip01_R_Toe0" 7
9 "ValveBiped.Bip01_Spine" 0
10 "ValveBiped.Bip01_Spine1" 9
11 "ValveBiped.Bip01_Spine2" 10
12 "ValveBiped.Bip01_Spine4" 11
13 "ValveBiped.Bip01_Neck1" 12
14 "ValveBiped.Bip01_Head1" 13
15 "J_Adj_L_FaceEye" 14
16 "J_Adj_R_FaceEye" 14
17 "J_Sec_Hair1_01" 14
18 "J_Sec_Hair2_01" 17
19 "J_Sec_Hair3_01" 18
20 "J_Sec_Hair4_01" 19
21 "J_Sec_Hair1_02" 14
22 "J_Sec_Hair2_02" 21
23 "J_Sec_Hair3_02" 22
24 "J_Sec_Hair1_03" 14
25 "J_Sec_Hair2_03" 24
26 "J_Sec_Hair3_03" 25
27 "J_Sec_Hair1_04" 14
28 "J_Sec_Hair2_04" 27
29 "J_Sec_Hair3_04" 28
30 "J_Sec_Hair1_05" 14
31 "J_Sec_Hair2_05" 30
32 "J_Sec_Hair3_05" 31
33 "J_Sec_Hair1_06" 14
34 "J_Sec_Hair2_06" 33
35 "J_Sec_Hair3_06" 34
36 "J_Sec_Hair1_07" 14
37 "J_Sec_Hair2_07" 36
38 "J_Sec_Hair1_08" 14
39 "J_Sec_Hair2_08" 38
40 "J_Sec_Hair1_09" 14
41 "J_Sec_Hair2_09" 40
42 "J_Sec_Hair1_10" 14
43 "J_Sec_Hair2_10" 42
44 "J_Sec_Hair1_11" 14
45 "J_Sec_Hair2_11" 44
46 "J_Sec_Hair1_12" 14
47 "J_Sec_Hair2_12" 46
48 "J_Sec_Hair1_13" 14
49 "J_Sec_Hair2_13" 48
50 "J_Sec_Hair1_14" 14
51 "J_Sec_Hair2_14" 50
52 "J_Sec_Hair1_15" 14
53 "J_Sec_Hair2_15" 52
54 "J_Sec_Hair1_16" 14
55 "J_Sec_Hair2_16" 54
56 "J_Sec_Hair3_16" 55
57 "J_Sec_Hair1_17" 14
58 "J_Sec_Hair2_17" 57
59 "J_Sec_Hair3_17" 58
60 "J_Sec_Hair4_17" 59
61 "J_Sec_Hair5_17" 60
62 "J_Sec_Hair6_17" 61
63 "J_Sec_Hair7_17" 62
64 "J_Sec_Hair1_18" 14
65 "J_Sec_Hair2_18" 64
66 "J_Sec_Hair3_18" 65
67 "J_Sec_Hair4_18" 66
68 "J_Sec_Hair5_18" 67
69 "J_Sec_Hair6_18" 68
70 "J_Sec_Hair7_18" 69
71 "J_Sec_Hair1_19" 14
72 "J_Sec_Hair2_19" 71
73 "ValveBiped.Bip01_L_Clavicle" 12
74 "ValveBiped.Bip01_L_UpperArm" 73
75 "ValveBiped.Bip01_L_Forearm" 74
76 "ValveBiped.Bip01_L_Hand" 75
77 "ValveBiped.Bip01_L_Finger2" 76
78 "ValveBiped.Bip01_L_Finger21" 77
79 "ValveBiped.Bip01_L_Finger22" 78
80 "ValveBiped.Bip01_L_Finger1" 76
81 "ValveBiped.Bip01_L_Finger11" 80
82 "ValveBiped.Bip01_L_Finger12" 81
83 "ValveBiped.Bip01_L_Finger0" 76
84 "ValveBiped.Bip01_L_Finger01" 83
85 "ValveBiped.Bip01_L_Finger02" 84
86 "ValveBiped.Bip01_L_Finger4" 76
87 "ValveBiped.Bip01_L_Finger41" 86
88 "ValveBiped.Bip01_L_Finger42" 87
89 "ValveBiped.Bip01_L_Finger3" 76
90 "ValveBiped.Bip01_L_Finger31" 89
91 "ValveBiped.Bip01_L_Finger32" 90
92 "ValveBiped.L_weapon_bone" 76
93 "ValveBiped.L_weapon_bone_Clip2" 76
94 "ValveBiped.L_weapon_bone_Clip2_Bullets" 93
95 "ValveBiped.L_weapon_bone_bolt_l" 76
96 "ValveBiped.Bip01_R_Clavicle" 12
97 "ValveBiped.Bip01_R_UpperArm" 96
98 "ValveBiped.Bip01_R_Forearm" 97
99 "ValveBiped.Bip01_R_Hand" 98
100 "ValveBiped.Bip01_R_Finger2" 99
101 "ValveBiped.Bip01_R_Finger21" 100
102 "ValveBiped.Bip01_R_Finger22" 101
103 "ValveBiped.Bip01_R_Finger1" 99
104 "ValveBiped.Bip01_R_Finger11" 103
105 "ValveBiped.Bip01_R_Finger12" 104
106 "ValveBiped.Bip01_R_Finger0" 99
107 "ValveBiped.Bip01_R_Finger01" 106
108 "ValveBiped.Bip01_R_Finger02" 107
109 "ValveBiped.Bip01_R_Finger4" 99
110 "ValveBiped.Bip01_R_Finger41" 109
111 "ValveBiped.Bip01_R_Finger42" 110
112 "ValveBiped.Bip01_R_Finger3" 99
113 "ValveBiped.Bip01_R_Finger31" 112
114 "ValveBiped.Bip01_R_Finger32" 113
115 "J_Sec_L_Bust1" 12
116 "J_Sec_L_Bust2" 115
117 "J_Sec_R_Bust1" 12
118 "J_Sec_R_Bust2" 117
119 "blender_implicit" 0
120 "Root" 0
end
skeleton
time 0
0  0.000000 -0.215981 36.707813  1.570796 -0.000000 0.000000
1  2.763114 -1.442894 -0.132636  -1.570796 0.030938 -1.605921
2  13.843043 0.000211 -0.000040  -0.000000 -0.000000 0.009893
3  15.243619 0.000406 0.000002  -0.001614 -0.131067 -1.285352
4  6.179251 -0.686138 0.083717  0.009914 -0.018797 -0.327911
5  -2.763114 -1.442894 -0.132639  -1.570796 0.030938 -1.535672
6  13.843033 0.000209 0.000040  -0.000000 -0.000000 0.009893
7  15.243615 0.000126 -0.000000  0.013274 0.131067 -1.285352
8  6.178949 -0.687581 -0.093328  -0.100244 0.015040 -0.328098
9  0.000000 1.768078 0.438796  1.570796 0.013022 1.570796
10  3.683841 0.368758 -0.000020  0.000000 0.000000 -0.144096
11  -0.000003 -0.000000 -0.000000  -0.000000 0.000000 -0.134151
12  3.817240 -0.461758 -0.000185  -0.000000 0.000000 0.326149
13  4.474871 -2.223231 0.000020  3.141590 0.000000 0.327547
14  2.279965 1.033715 0.000039  0.000000 -0.000001 0.351470
15  2.508572 -0.230865 -0.711011  0.071826 -1.570745 -2.967572
16  2.508533 -0.230871 0.711138  -2.938101 -1.570775 0.000000
17  6.886663 -2.424952 0.198199  -2.411156 1.338201 -0.481176
18  0.000011 1.098120 -0.000002  0.193546 0.018691 0.014259
19  -0.000011 1.107234 -0.000003  -0.017485 -0.001684 -0.001255
20  0.000003 1.107050 0.000001  0.000000 0.000000 -0.000000
21  7.132429 -2.576564 0.548723  -2.467576 1.667529 -0.425182
22  0.000000 1.239928 -0.000008  0.220089 0.052265 -0.045720
23  -0.000000 1.257277 0.000001  0.000000 -0.000000 0.000000
24  3.907602 -1.788025 -3.252002  -2.438634 1.695712 -0.454116
25  0.000000 2.695917 -0.000010  0.000617 -0.084088 0.070945
26  0.000003 2.702163 -0.000002  0.000001 0.000002 -0.000001
27  3.939967 -1.773288 3.245661  -2.438564 1.451365 -0.453736
28  -0.000001 2.714024 0.000014  0.000632 0.087660 -0.073938
29  0.000002 2.720869 0.000001  -0.000000 -0.000000 0.000000
30  3.837191 -0.608686 4.267144  -2.457529 1.456175 -0.434691
31  -0.000017 2.088241 0.000019  -0.957008 0.886152 -1.662822
32  -0.000024 2.185416 -0.000008  0.000001 -0.000004 0.000000
33  3.296706 -0.737686 -4.332201  0.617038 1.236969 2.773602
34  0.000013 1.792668 0.000013  -0.718114 -1.054585 1.386086
35  -0.000013 1.912136 0.000016  -0.000000 0.000004 0.000001
36  3.530902 -2.750921 4.173767  1.271301 0.682548 2.119357
37  -0.000008 7.518758 0.000101  0.000001 -0.000000 -0.000005
38  4.095796 -3.058825 -3.881626  -1.962243 0.716074 -0.930184
39  0.000004 7.310967 0.000020  0.000000 -0.000001 0.000001
40  7.405882 -1.786758 2.590066  1.342509 0.486690 2.048159
41  0.000008 4.858871 -0.000001  0.000000 0.000001 -0.000002
42  7.203877 -1.701290 -3.170211  -1.798476 0.516225 -1.093961
43  -0.000037 4.253149 -0.000040  0.000001 -0.000001 0.000003
44  -1.458492 3.886370 0.907545  -2.344380 1.343645 -0.547974
45  -0.000008 2.055720 -0.000005  0.000000 0.000001 -0.000001
46  -1.346682 4.246810 -1.388177  -2.419352 1.769792 -0.473296
47  -0.000001 2.198923 -0.000007  -0.000004 0.000000 0.000000
48  1.376507 -0.592896 3.637507  -2.409587 1.261372 -0.482806
49  -0.000008 1.595861 0.000006  0.000001 -0.000001 -0.000003
50  -0.044103 1.982463 3.581083  -2.424548 1.574630 -0.617646
51  -0.000009 2.979945 0.000003  0.000001 0.000001 0.000002
52  1.652930 -0.647109 -3.747333  0.770154 1.102814 2.620468
53  0.000028 2.039981 -0.000002  0.000000 0.000002 0.000004
54  1.687964 1.858138 -3.942730  -2.389196 1.261540 -0.503205
55  0.000016 2.210029 0.000004  -0.003001 -0.002064 0.001289
56  0.000040 2.210086 -0.000005  -0.000000 0.000001 -0.000003
57  0.945231 -1.787082 -3.797904  -2.565915 1.528007 -0.326020
58  -0.000001 1.479282 0.000030  -0.000062 -0.049407 0.032070
59  0.000002 1.479221 0.000018  0.002827 -0.091867 0.059422
60  0.000001 1.479145 0.000013  0.009518 -0.104618 0.066682
61  0.000002 1.479648 -0.000003  0.009686 -0.061099 0.038433
62  0.000015 1.480359 0.000009  -0.001546 0.007903 -0.005011
63  -0.000016 1.480283 -0.000021  -0.000000 0.000000 0.000000
64  0.974114 -1.828232 3.794367  -2.574996 1.615189 -0.317786
65  0.000004 1.479014 -0.000017  0.006406 0.050641 -0.032199
66  -0.000001 1.478946 0.000010  0.015404 0.095113 -0.059843
67  -0.000005 1.478938 0.000023  0.023292 0.102085 -0.063144
68  -0.000005 1.479413 0.000013  0.016704 0.055958 -0.034391
69  -0.000014 1.480081 0.000020  -0.002846 -0.008475 0.005298
70  -0.000005 1.479998 0.000004  0.000000 -0.000000 0.000000
71  8.683631 0.579157 -0.120758  -0.737797 1.499783 -2.154126
72  -0.000010 5.278082 -0.000006  0.000004 0.000000 -0.000000
73  3.579355 -1.752088 0.802042  0.832763 -1.047437 -2.502937
74  2.665750 0.858533 0.008400  -1.243455 -0.153575 -0.884946
75  7.924997 -0.000015 -0.000006  0.000000 -0.000000 -0.136589
76  7.090799 0.184738 -0.472901  1.227939 0.166032 0.076869
77  2.177917 0.015784 0.359467  0.323090 0.091423 -0.184625
78  1.224079 0.000003 -0.000003  -0.051595 -0.064269 -0.677213
79  0.755173 0.000007 -0.000005  0.004073 0.029503 -0.137208
80  2.070955 0.027355 0.939562  0.318555 0.062569 -0.163990
81  1.098950 -0.000020 0.000010  0.061718 0.075999 -0.683161
82  0.676629 -0.000007 0.000008  0.001658 0.026316 -0.062909
83  0.008506 -0.337563 0.544979  1.892454 -0.324449 -0.255898
84  1.547761 -0.000014 -0.000000  0.000000 -0.094778 -0.333994
85  0.951513 0.000003 -0.000002  -0.000000 -0.040666 0.285682
86  2.144376 0.019092 -0.699181  0.343628 0.190590 -0.206088
87  1.038634 -0.000010 0.000007  -0.033841 -0.056553 -0.539645
88  0.598619 -0.000004 0.000002  -0.038850 -0.124039 -0.304402
89  2.222492 0.010886 -0.162379  0.315698 0.064495 -0.241172
90  1.135497 -0.000002 0.000002  -0.020360 -0.043876 -0.434642
91  0.655293 0.000010 -0.000003  0.002612 0.008298 -0.304949
92  2.698778 -1.274161 0.577847  -1.501147 -0.272558 -1.578261
93  2.794669 -1.205200 0.541044  -0.125700 -0.044824 1.121721
94  1.420460 -0.921874 0.482638  -0.000000 0.000000 -0.000001
95  0.019991 0.159056 0.012557  -0.125700 -0.044824 1.121720
96  3.579362 -1.752086 -0.802009  -0.909420 1.047437 -2.502937
97  2.667206 0.854020 0.004309  1.293095 0.212691 -0.875900
98  7.925004 0.000065 0.000000  -0.000000 0.000000 -0.136589
99  6.893471 -0.001988 0.369467  -1.230762 -0.166035 0.076867
100  2.179774 0.013296 -0.348166  -0.320266 -0.091425 -0.184622
101  1.224077 -0.000016 -0.000014  0.051595 0.064269 -0.677213
102  0.755171 0.000026 0.000002  -0.004073 -0.029503 -0.137208
103  2.075847 0.022192 -0.928859  -0.315731 -0.062571 -0.163986
104  1.098944 -0.000017 -0.000012  -0.061718 -0.075999 -0.683161
105  0.676623 0.000007 0.000010  -0.001658 -0.026316 -0.062909
106  0.011212 -0.340113 -0.543344  -1.889571 0.325162 -0.254974
107  1.547760 0.000016 -0.000003  -0.000000 0.094778 -0.333994
108  0.951511 0.000010 0.000001  0.000000 0.040666 0.285682
109  2.140714 0.021569 0.710266  -0.340804 -0.190592 -0.206085
110  1.038620 -0.000014 -0.000006  0.033841 0.056553 -0.539645
111  0.598608 0.000010 0.000003  0.038850 0.124039 -0.304402
112  2.221625 0.010818 0.173924  -0.312875 -0.064497 -0.241168
113  1.135488 -0.000015 -0.000005  0.020360 0.043876 -0.434642
114  0.655288 0.000005 -0.000001  -0.002612 -0.008298 -0.304949
115  0.186238 2.509302 1.925558  -0.806192 2.244219 -0.985088
116  0.000005 0.930897 -0.000008  0.000002 -0.000004 -0.000003
117  0.186253 2.509304 -1.925556  -0.806175 0.897373 -0.985076
118  0.000001 0.930899 0.000002  -0.000001 0.000002 -0.000002
119  -0.000000 -36.707809 -0.215981  -1.570796 -0.000001 0.000000
120  -0.000000 -36.707809 -0.215981  0.005884 -0.000001 -0.000000
time 1
0  0.000000 -1.442119 35.350025  1.570796 -0.000000 0.000000
1  3.455587 0.000003 0.000000  -1.570796 0.030938 -1.605921
2  16.572344 0.000000 -0.000000  -0.000000 -0.000000 0.009893
3  16.265831 -0.000000 0.000000  -0.001614 -0.131067 -1.285352
4  5.046458 -0.000001 0.000000  0.009914 -0.018797 -0.327911
5  -3.455586 -0.000000 0.000000  -1.570796 0.030938 -1.535672
6  16.572340 0.000000 0.000000  -0.000000 -0.000000 0.009893
7  16.265835 0.000000 0.000000  0.013274 0.131067 -1.285352
8  5.046457 -0.000000 0.000001  -0.100244 0.015040 -0.328098
9  -0.000000 3.703723 0.293189  1.570796 0.013022 1.570796
10  3.307844 -0.000000 -0.000000  0.000000 0.000000 -0.144096
11  3.297957 -0.000001 -0.000000  -0.000000 0.000000 -0.134151
12  6.040977 -0.000001 0.000000  -0.000000 0.000000 0.326149
13  5.065763 0.000002 0.000000  3.141590 0.000000 0.327547
14  3.993756 -0.000000 0.000000  0.000000 -0.000001 0.351470
15  2.508568 -0.230865 -0.711011  0.071826 -1.570745 -2.967572
16  2.508530 -0.230871 0.711138  -2.938101 -1.570775 0.000000
17  6.886659 -2.424952 0.198199  -2.411156 1.338201 -0.481176
18  0.000011 1.098118 -0.000005  0.193546 0.018691 0.014259
19  -0.000011 1.107232 -0.000001  -0.017485 -0.001684 -0.001255
20  0.000003 1.107053 -0.000001  0.000000 0.000000 -0.000000
21  7.132422 -2.576564 0.548723  -2.467576 1.667529 -0.425182
22  0.000000 1.239927 -0.000004  0.220089 0.052265 -0.045720
23  -0.000000 1.257275 -0.000002  0.000000 -0.000000 0.000000
24  3.907599 -1.788025 -3.252002  -2.438634 1.695712 -0.454116
25  0.000000 2.695918 -0.000010  0.000617 -0.084088 0.070945
26  0.000004 2.702168 -0.000003  0.000001 0.000002 -0.000001
27  3.939971 -1.773287 3.245661  -2.438564 1.451365 -0.453736
28  -0.000001 2.714025 0.000017  0.000632 0.087660 -0.073938
29  0.000002 2.720875 0.000001  -0.000000 -0.000000 0.000000
30  3.837188 -0.608686 4.267144  -2.457529 1.456175 -0.434691
31  -0.000017 2.088238 0.000020  -0.957008 0.886152 -1.662822
32  -0.000020 2.185413 -0.000009  0.000001 -0.000004 0.000000
33  3.296706 -0.737686 -4.332201  0.617038 1.236969 2.773602
34  0.000014 1.792660 0.000011  -0.718114 -1.054585 1.386086
35  -0.000011 1.912134 0.000016  -0.000000 0.000004 0.000001
36  3.530902 -2.750921 4.173767  1.271301 0.682548 2.119357
37  -0.000009 7.518750 0.000102  0.000001 -0.000000 -0.000005
38  4.095792 -3.058825 -3.881626  -1.962243 0.716074 -0.930184
39  0.000009 7.310966 0.000021  0.000000 -0.000001 0.000001
40  7.405883 -1.786758 2.590066  1.342509 0.486690 2.048159
41  0.000003 4.858874 -0.000005  0.000000 0.000001 -0.000002
42  7.203873 -1.701290 -3.170210  -1.798476 0.516225 -1.093961
43  -0.000034 4.253147 -0.000038  0.000001 -0.000001 0.000003
44  -1.458492 3.886370 0.907545  -2.344380 1.343645 -0.547974
45  -0.000007 2.055720 -0.000004  0.000000 0.000001 -0.000001
46  -1.346682 4.246811 -1.388177  -2.419352 1.769792 -0.473296
47  -0.000001 2.198920 -0.000005  -0.000004 0.000000 0.000000
48  1.376507 -0.592896 3.637507  -2.409587 1.261372 -0.482806
49  -0.000005 1.595864 0.000003  0.000001 -0.000001 -0.000003
50  -0.044103 1.982463 3.581083  -2.424548 1.574630 -0.617646
51  -0.000009 2.979942 0.000002  0.000001 0.000001 0.000002
52  1.652927 -0.647109 -3.747333  0.770154 1.102814 2.620468
53  0.000029 2.039980 -0.000001  0.000000 0.000002 0.000004
54  1.687960 1.858138 -3.942730  -2.389196 1.261540 -0.503205
55  0.000016 2.210033 0.000005  -0.003001 -0.002064 0.001289
56  0.000039 2.210085 -0.000003  -0.000000 0.000001 -0.000003
57  0.945231 -1.787082 -3.797904  -2.565915 1.528007 -0.326020
58  -0.000001 1.479282 0.000035  -0.000062 -0.049407 0.032070
59  0.000002 1.479220 0.000011  0.002827 -0.091867 0.059422
60  0.000001 1.479144 0.000013  0.009518 -0.104618 0.066682
61  0.000000 1.479651 -0.000003  0.009686 -0.061099 0.038433
62  0.000011 1.480357 0.000008  -0.001546 0.007903 -0.005011
63  -0.000016 1.480280 -0.000021  -0.000000 0.000000 0.000000
64  0.974111 -1.828232 3.794367  -2.574996 1.615189 -0.317786
65  0.000003 1.479016 -0.000023  0.006406 0.050641 -0.032199
66  -0.000000 1.478948 0.000016  0.015404 0.095113 -0.059843
67  -0.000005 1.478929 0.000020  0.023292 0.102085 -0.063144
68  -0.000005 1.479419 0.000010  0.016704 0.055958 -0.034391
69  -0.000014 1.480082 0.000014  -0.002846 -0.008475 0.005298
70  -0.000004 1.479995 0.000001  0.000000 -0.000000 0.000000
71  8.683628 0.579157 -0.120758  -0.737797 1.499783 -2.154126
72  -0.000010 5.278070 -0.000005  0.000004 0.000000 -0.000000
73  3.815869 1.385490 1.500000  0.832763 -1.047437 -2.502937
74  4.327094 0.000004 -0.000000  -1.243455 -0.153575 -0.884946
75  11.105120 0.000000 -0.000003  0.000000 -0.000000 -0.136589
76  9.862099 -0.000010 -0.000035  1.227939 0.166032 0.076869
77  3.265449 0.050008 0.415743  0.323090 0.091423 -0.184625
78  1.860468 -0.000001 0.000001  -0.051595 -0.064269 -0.677213
79  1.061482 -0.000001 0.000001  0.004073 0.029503 -0.137208
80  3.340379 -0.242390 1.285012  0.318555 0.062569 -0.163990
81  1.550750 0.000001 0.000000  0.061718 0.075999 -0.683161
82  0.904890 0.000004 -0.000000  0.001658 0.026316 -0.062909
83  1.219389 -1.063860 0.837141  1.892454 -0.324449 -0.255898
84  1.496970 -0.000005 -0.000002  0.000000 -0.094778 -0.333994
85  1.100086 -0.000001 0.000003  -0.000000 -0.040666 0.285682
86  2.641096 0.214619 -1.073587  0.343628 0.190590 -0.206088
87  1.361610 -0.000002 -0.000001  -0.033841 -0.056553 -0.539645
88  0.779606 0.000005 0.000000  -0.038850 -0.124039 -0.304402
89  2.908715 0.221761 -0.431869  0.315698 0.064495 -0.241172
90  1.597532 0.000004 -0.000001  -0.020360 -0.043876 -0.434642
91  0.912677 0.000004 0.000001  0.002612 0.008298 -0.304949
92  2.856892 -1.536200 -0.973802  -1.501147 -0.272558 -1.578261
93  2.794671 -1.205199 0.541042  -0.125700 -0.044824 1.121721
94  1.420460 -0.921873 0.482638  -0.000000 0.000000 -0.000001
95  0.019991 0.159055 0.012556  -0.125700 -0.044824 1.121720
96  3.815879 1.385488 -1.500001  -0.909420 1.047437 -2.502937
97  4.327084 0.000002 -0.000000  1.293095 0.212691 -0.875900
98  11.105109 -0.000000 0.000008  -0.000000 0.000000 -0.136589
99  9.862081 -0.000007 0.000015  -1.230762 -0.166035 0.076867
100  3.265468 0.051185 -0.415601  -0.320266 -0.091425 -0.184622
101  1.860466 0.000005 -0.000000  0.051595 0.064269 -0.677213
102  1.061488 0.000004 -0.000000  -0.004073 -0.029503 -0.137208
103  3.340401 -0.238763 -1.285691  -0.315731 -0.062571 -0.163986
104  1.550756 0.000003 -0.000000  -0.061718 -0.075999 -0.683161
105  0.904886 0.000001 0.000000  -0.001658 -0.026316 -0.062909
106  1.219404 -1.061498 -0.840143  -1.889571 0.325162 -0.254974
107  1.496972 0.000011 0.000002  -0.000000 0.094778 -0.333994
108  1.100091 0.000002 -0.000000  0.000000 0.040666 0.285682
109  2.641109 0.211589 1.074190  -0.340804 -0.190592 -0.206085
110  1.361593 0.000004 -0.000001  0.033841 0.056553 -0.539645
111  0.779602 0.000001 0.000001  0.038850 0.124039 -0.304402
112  2.908722 0.220544 0.432493  -0.312875 -0.064497 -0.241168
113  1.597526 -0.000002 -0.000001  0.020360 0.043876 -0.434642
114  0.912679 -0.000000 0.000001  -0.002612 -0.008298 -0.304949
115  0.186239 2.509302 1.925558  -0.806192 2.244219 -0.985088
116  0.000004 0.930897 -0.000004  0.000002 -0.000004 -0.000003
117  0.186253 2.509303 -1.925556  -0.806175 0.897373 -0.985076
118  0.000003 0.930899 -0.000003  -0.000001 0.000002 -0.000002
119  -0.000000 -36.707809 -0.215981  -1.570796 -0.000001 0.000000
120  -0.000000 -36.707809 -0.215981  0.005884 -0.000001 -0.000000
end
