// Created by Crowbar 0.74
version 1
nodes
  0 "static_prop" -1
end
skeleton
  time 0
    0 0.000000 0.000000 0.000000 0.000000 0.000000 0.000000
end
triangles
  phy
    0 -12.249999 -0.500004 24.000003 0.996411 -0.011801 -0.083820 0 0
    0 -12.249999 -0.000002 24.000003 -0.929094 0.011245 -0.369672 0 0
    0 -10.749999 -0.500002 15.999999 0.965761 0.104854 -0.237302 0 0
  phy
    0 -10.749999 -0.500002 15.999999 0.965761 0.104854 -0.237302 0 0
    0 -12.249999 -0.000002 24.000003 -0.929094 0.011245 -0.369672 0 0
    0 -10.749999 -0.000001 15.999999 -0.995857 0.055165 -0.072286 0 0
  phy
    0 -12.249999 -0.000002 24.000003 -0.929094 0.011245 -0.369672 0 0
    0 -12.249999 -0.500004 24.000003 0.996411 -0.011801 -0.083820 0 0
    0 -9.949923 -0.000001 31.009758 -0.998350 -0.051007 0.026383 0 0
  phy
    0 -9.949923 -0.000001 31.009758 -0.998350 -0.051007 0.026383 0 0
    0 -12.249999 -0.500004 24.000003 0.996411 -0.011801 -0.083820 0 0
    0 -9.949923 -0.500006 31.009758 0.999487 -0.028457 0.014719 0 0
  phy
    0 -4.250000 -0.500000 10.499999 0.999623 0.024161 -0.013031 0 0
    0 -9.949923 -0.500006 31.009758 0.999487 -0.028457 0.014719 0 0
    0 -12.249999 -0.500004 24.000003 0.996411 -0.011801 -0.083820 0 0
  phy
    0 -12.249999 -0.500004 24.000003 0.996411 -0.011801 -0.083820 0 0
    0 -10.749999 -0.500002 15.999999 0.965761 0.104854 -0.237302 0 0
    0 -4.250000 -0.500000 10.499999 0.999623 0.024161 -0.013031 0 0
  phy
    0 -12.249999 -0.000002 24.000003 -0.929094 0.011245 -0.369672 0 0
    0 -9.949923 -0.000001 31.009758 -0.998350 -0.051007 0.026383 0 0
    0 -10.749999 -0.000001 15.999999 -0.995857 0.055165 -0.072286 0 0
  phy
    0 -4.250000 0.000000 10.499999 -0.999543 0.028965 -0.008690 0 0
    0 -4.250000 -0.500000 10.499999 0.999623 0.024161 -0.013031 0 0
    0 -10.749999 -0.000001 15.999999 -0.995857 0.055165 -0.072286 0 0
  phy
    0 -10.749999 -0.000001 15.999999 -0.995857 0.055165 -0.072286 0 0
    0 -4.250000 -0.500000 10.499999 0.999623 0.024161 -0.013031 0 0
    0 -10.749999 -0.500002 15.999999 0.965761 0.104854 -0.237302 0 0
  phy
    0 -4.250000 -0.500000 10.499999 0.999623 0.024161 -0.013031 0 0
    0 -4.250000 0.000000 10.499999 -0.999543 0.028965 -0.008690 0 0
    0 5.000000 -0.500000 9.500000 0.948715 0.315667 0.017156 0 0
  phy
    0 5.000000 -0.500000 9.500000 0.948715 0.315667 0.017156 0 0
    0 -4.250000 0.000000 10.499999 -0.999543 0.028965 -0.008690 0 0
    0 5.000000 0.000002 9.500000 -0.964022 0.254517 0.076704 0 0
  phy
    0 -4.250000 -0.500000 10.499999 0.999623 0.024161 -0.013031 0 0
    0 5.000000 -0.500000 9.500000 0.948715 0.315667 0.017156 0 0
    0 9.500000 -0.500001 12.749999 0.996853 -0.045243 0.065096 0 0
  phy
    0 9.500000 -0.500001 12.749999 0.996853 -0.045243 0.065096 0 0
    0 -9.949923 -0.500006 31.009758 0.999487 -0.028457 0.014719 0 0
    0 -4.250000 -0.500000 10.499999 0.999623 0.024161 -0.013031 0 0
  phy
    0 5.000000 -0.500000 9.500000 0.948715 0.315667 0.017156 0 0
    0 5.000000 0.000002 9.500000 -0.964022 0.254517 0.076704 0 0
    0 9.500000 -0.500001 12.749999 0.996853 -0.045243 0.065096 0 0
  phy
    0 9.500000 -0.500001 12.749999 0.996853 -0.045243 0.065096 0 0
    0 5.000000 0.000002 9.500000 -0.964022 0.254517 0.076704 0 0
    0 9.500000 0.000003 12.749999 -0.999210 -0.022675 0.032624 0 0
  phy
    0 5.000000 0.000002 9.500000 -0.964022 0.254517 0.076704 0 0
    0 -4.250000 0.000000 10.499999 -0.999543 0.028965 -0.008690 0 0
    0 9.500000 0.000003 12.749999 -0.999210 -0.022675 0.032624 0 0
  phy
    0 9.500000 0.000003 12.749999 -0.999210 -0.022675 0.032624 0 0
    0 -9.949923 -0.000001 31.009758 -0.998350 -0.051007 0.026383 0 0
    0 9.500000 -0.500001 12.749999 0.996853 -0.045243 0.065096 0 0
  phy
    0 -9.949923 -0.000001 31.009758 -0.998350 -0.051007 0.026383 0 0
    0 -9.949923 -0.500006 31.009758 0.999487 -0.028457 0.014719 0 0
    0 9.500000 -0.500001 12.749999 0.996853 -0.045243 0.065096 0 0
  phy
    0 -9.949923 -0.000001 31.009758 -0.998350 -0.051007 0.026383 0 0
    0 -4.250000 0.000000 10.499999 -0.999543 0.028965 -0.008690 0 0
    0 -10.749999 -0.000001 15.999999 -0.995857 0.055165 -0.072286 0 0
  phy
    0 -4.250000 0.000000 10.499999 -0.999543 0.028965 -0.008690 0 0
    0 -9.949923 -0.000001 31.009758 -0.998350 -0.051007 0.026383 0 0
    0 9.500000 0.000003 12.749999 -0.999210 -0.022675 0.032624 0 0
  phy
    0 -10.000000 0.000000 1.000000 0.242464 -0.969857 -0.024246 0 0
    0 10.000000 4.000001 1.000000 -0.242464 -0.969857 0.024246 0 0
    0 -10.000000 3.999999 1.000000 -0.241402 -0.965609 -0.096561 0 0
  phy
    0 -10.000000 0.000000 1.000000 0.242464 -0.969857 -0.024246 0 0
    0 10.000000 0.000000 1.000000 0.241402 -0.965609 0.096561 0 0
    0 10.000000 4.000001 1.000000 -0.242464 -0.969857 0.024246 0 0
  phy
    0 -10.000000 0.000000 1.000000 0.242464 -0.969857 -0.024246 0 0
    0 -10.000000 3.999999 1.000000 -0.241402 -0.965609 -0.096561 0 0
    0 -10.000000 0.000000 0.000000 0.123882 0.991059 -0.049553 0 0
  phy
    0 -10.000000 0.000000 0.000000 0.123882 0.991059 -0.049553 0 0
    0 -10.000000 3.999999 1.000000 -0.241402 -0.965609 -0.096561 0 0
    0 -10.000000 3.999999 0.000000 -0.446767 0.893534 -0.044677 0 0
  phy
    0 -10.000000 0.000000 1.000000 0.242464 -0.969857 -0.024246 0 0
    0 10.000000 0.000000 0.000000 0.446767 0.893534 0.044677 0 0
    0 10.000000 0.000000 1.000000 0.241402 -0.965609 0.096561 0 0
  phy
    0 -10.000000 0.000000 1.000000 0.242464 -0.969857 -0.024246 0 0
    0 -10.000000 0.000000 0.000000 0.123882 0.991059 -0.049553 0 0
    0 10.000000 0.000000 0.000000 0.446767 0.893534 0.044677 0 0
  phy
    0 -10.000000 3.999999 1.000000 -0.241402 -0.965609 -0.096561 0 0
    0 10.000000 4.000001 1.000000 -0.242464 -0.969857 0.024246 0 0
    0 -10.000000 3.999999 0.000000 -0.446767 0.893534 -0.044677 0 0
  phy
    0 -10.000000 3.999999 0.000000 -0.446767 0.893534 -0.044677 0 0
    0 10.000000 4.000001 1.000000 -0.242464 -0.969857 0.024246 0 0
    0 10.000000 4.000001 0.000000 -0.123882 0.991059 0.049553 0 0
  phy
    0 10.000000 0.000000 1.000000 0.241402 -0.965609 0.096561 0 0
    0 10.000000 4.000001 0.000000 -0.123882 0.991059 0.049553 0 0
    0 10.000000 4.000001 1.000000 -0.242464 -0.969857 0.024246 0 0
  phy
    0 10.000000 0.000000 1.000000 0.241402 -0.965609 0.096561 0 0
    0 10.000000 0.000000 0.000000 0.446767 0.893534 0.044677 0 0
    0 10.000000 4.000001 0.000000 -0.123882 0.991059 0.049553 0 0
  phy
    0 -10.000000 3.999999 0.000000 -0.446767 0.893534 -0.044677 0 0
    0 10.000000 4.000001 0.000000 -0.123882 0.991059 0.049553 0 0
    0 -10.000000 0.000000 0.000000 0.123882 0.991059 -0.049553 0 0
  phy
    0 -10.000000 0.000000 0.000000 0.123882 0.991059 -0.049553 0 0
    0 10.000000 4.000001 0.000000 -0.123882 0.991059 0.049553 0 0
    0 10.000000 0.000000 0.000000 0.446767 0.893534 0.044677 0 0
  phy
    0 5.000000 0.000000 9.499999 -0.997780 -0.060471 0.027910 0 0
    0 -4.250000 -0.500000 10.500001 0.997919 -0.061255 -0.020160 0 0
    0 5.000000 -0.500000 9.499999 0.989359 -0.087296 0.116395 0 0
  phy
    0 5.000000 0.000000 9.499999 -0.997780 -0.060471 0.027910 0 0
    0 -4.250000 0.000000 10.500001 -0.992368 -0.072991 -0.099392 0 0
    0 -4.250000 -0.500000 10.500001 0.997919 -0.061255 -0.020160 0 0
  phy
    0 5.000000 -0.500000 9.499999 0.989359 -0.087296 0.116395 0 0
    0 5.999999 0.000000 2.500000 -0.994324 0.058309 0.088998 0 0
    0 5.000000 0.000000 9.499999 -0.997780 -0.060471 0.027910 0 0
  phy
    0 5.000000 -0.500000 9.499999 0.989359 -0.087296 0.116395 0 0
    0 5.999999 -0.500000 2.500000 0.997364 0.068196 0.024799 0 0
    0 5.999999 0.000000 2.500000 -0.994324 0.058309 0.088998 0 0
  phy
    0 -4.250000 0.000000 10.500001 -0.992368 -0.072991 -0.099392 0 0
    0 5.000000 0.000000 9.499999 -0.997780 -0.060471 0.027910 0 0
    0 -5.500000 0.000000 2.000000 -0.997453 0.067427 -0.023251 0 0
  phy
    0 -5.500000 0.000000 2.000000 -0.997453 0.067427 -0.023251 0 0
    0 5.000000 0.000000 9.499999 -0.997780 -0.060471 0.027910 0 0
    0 5.999999 0.000000 2.500000 -0.994324 0.058309 0.088998 0 0
  phy
    0 5.000000 -0.500000 9.499999 0.989359 -0.087296 0.116395 0 0
    0 -4.250000 -0.500000 10.500001 0.997919 -0.061255 -0.020160 0 0
    0 5.999999 -0.500000 2.500000 0.997364 0.068196 0.024799 0 0
  phy
    0 -4.250000 -0.500000 10.500001 0.997919 -0.061255 -0.020160 0 0
    0 -4.250000 0.000000 10.500001 -0.992368 -0.072991 -0.099392 0 0
    0 -5.500000 -0.500000 2.000000 0.995352 0.046117 -0.084547 0 0
  phy
    0 -5.500000 -0.500000 2.000000 0.995352 0.046117 -0.084547 0 0
    0 -4.250000 0.000000 10.500001 -0.992368 -0.072991 -0.099392 0 0
    0 -5.500000 0.000000 2.000000 -0.997453 0.067427 -0.023251 0 0
  phy
    0 5.999999 0.000000 2.500000 -0.994324 0.058309 0.088998 0 0
    0 5.999999 -0.500000 2.500000 0.997364 0.068196 0.024799 0 0
    0 -5.500000 0.000000 2.000000 -0.997453 0.067427 -0.023251 0 0
  phy
    0 -5.500000 0.000000 2.000000 -0.997453 0.067427 -0.023251 0 0
    0 5.999999 -0.500000 2.500000 0.997364 0.068196 0.024799 0 0
    0 -5.500000 -0.500000 2.000000 0.995352 0.046117 -0.084547 0 0
  phy
    0 -4.250000 -0.500000 10.500001 0.997919 -0.061255 -0.020160 0 0
    0 -5.500000 -0.500000 2.000000 0.995352 0.046117 -0.084547 0 0
    0 5.999999 -0.500000 2.500000 0.997364 0.068196 0.024799 0 0
  phy
    0 2.000000 1.000000 1.000000 -0.890489 0.093736 0.445245 0 0
    0 2.000000 0.000000 10.500000 0.965123 -0.101592 0.241281 0 0
    0 2.000000 0.000000 1.000000 0.950520 0.200109 0.237630 0 0
  phy
    0 2.000000 1.000000 1.000000 -0.890489 0.093736 0.445245 0 0
    0 2.000000 1.000000 10.500000 -0.950520 -0.200109 -0.237630 0 0
    0 2.000000 0.000000 10.500000 0.965123 -0.101592 0.241281 0 0
  phy
    0 2.000000 1.000000 1.000000 -0.890489 0.093736 0.445245 0 0
    0 2.000000 0.000000 1.000000 0.950520 0.200109 0.237630 0 0
    0 -2.000000 1.000000 1.000000 -0.965123 0.101592 -0.241281 0 0
  phy
    0 -2.000000 1.000000 1.000000 -0.965123 0.101592 -0.241281 0 0
    0 2.000000 0.000000 1.000000 0.950520 0.200109 0.237630 0 0
    0 -2.000000 0.000000 1.000000 0.890489 -0.093736 -0.445245 0 0
  phy
    0 2.000000 0.000000 10.500000 0.965123 -0.101592 0.241281 0 0
    0 -2.000000 0.000000 1.000000 0.890489 -0.093736 -0.445245 0 0
    0 2.000000 0.000000 1.000000 0.950520 0.200109 0.237630 0 0
  phy
    0 2.000000 0.000000 10.500000 0.965123 -0.101592 0.241281 0 0
    0 2.000000 1.000000 10.500000 -0.950520 -0.200109 -0.237630 0 0
    0 -2.000000 0.000000 1.000000 0.890489 -0.093736 -0.445245 0 0
  phy
    0 -2.000000 0.000000 1.000000 0.890489 -0.093736 -0.445245 0 0
    0 2.000000 1.000000 10.500000 -0.950520 -0.200109 -0.237630 0 0
    0 -2.000000 1.000000 1.000000 -0.965123 0.101592 -0.241281 0 0
  phy
    0 2.000000 1.000000 1.000000 -0.890489 0.093736 0.445245 0 0
    0 -2.000000 1.000000 1.000000 -0.965123 0.101592 -0.241281 0 0
    0 2.000000 1.000000 10.500000 -0.950520 -0.200109 -0.237630 0 0
  phy
    0 5.999999 14.000000 1.000001 -0.098743 -0.987429 -0.123429 0 0
    0 5.999999 14.000000 0.000001 -0.089087 0.890871 -0.445435 0 0
    0 6.000000 4.000000 1.000000 0.176090 -0.880451 -0.440225 0 0
  phy
    0 6.000000 4.000000 1.000000 0.176090 -0.880451 -0.440225 0 0
    0 5.999999 14.000000 0.000001 -0.089087 0.890871 -0.445435 0 0
    0 6.000000 4.000000 0.000000 0.049553 0.991059 -0.123882 0 0
  phy
    0 9.999999 14.000000 0.000001 -0.098743 0.987429 0.123429 0 0
    0 5.999999 14.000000 0.000001 -0.089087 0.890871 -0.445435 0 0
    0 5.999999 14.000000 1.000001 -0.098743 -0.987429 -0.123429 0 0
  phy
    0 9.999999 14.000000 0.000001 -0.098743 0.987429 0.123429 0 0
    0 5.999999 14.000000 1.000001 -0.098743 -0.987429 -0.123429 0 0
    0 10.000000 14.000000 1.000001 -0.089087 -0.890871 0.445435 0 0
  phy
    0 6.000000 4.000000 0.000000 0.049553 0.991059 -0.123882 0 0
    0 5.999999 14.000000 0.000001 -0.089087 0.890871 -0.445435 0 0
    0 9.999999 14.000000 0.000001 -0.098743 0.987429 0.123429 0 0
  phy
    0 5.999999 14.000000 1.000001 -0.098743 -0.987429 -0.123429 0 0
    0 10.000001 4.000000 1.000000 0.049553 -0.991059 0.123882 0 0
    0 10.000000 14.000000 1.000001 -0.089087 -0.890871 0.445435 0 0
  phy
    0 5.999999 14.000000 1.000001 -0.098743 -0.987429 -0.123429 0 0
    0 6.000000 4.000000 1.000000 0.176090 -0.880451 -0.440225 0 0
    0 10.000001 4.000000 1.000000 0.049553 -0.991059 0.123882 0 0
  phy
    0 10.000000 4.000000 0.000000 0.176090 0.880451 0.440225 0 0
    0 6.000000 4.000000 1.000000 0.176090 -0.880451 -0.440225 0 0
    0 6.000000 4.000000 0.000000 0.049553 0.991059 -0.123882 0 0
  phy
    0 10.000000 4.000000 0.000000 0.176090 0.880451 0.440225 0 0
    0 10.000001 4.000000 1.000000 0.049553 -0.991059 0.123882 0 0
    0 6.000000 4.000000 1.000000 0.176090 -0.880451 -0.440225 0 0
  phy
    0 10.000000 4.000000 0.000000 0.176090 0.880451 0.440225 0 0
    0 6.000000 4.000000 0.000000 0.049553 0.991059 -0.123882 0 0
    0 9.999999 14.000000 0.000001 -0.098743 0.987429 0.123429 0 0
  phy
    0 10.000001 4.000000 1.000000 0.049553 -0.991059 0.123882 0 0
    0 10.000000 4.000000 0.000000 0.176090 0.880451 0.440225 0 0
    0 10.000000 14.000000 1.000001 -0.089087 -0.890871 0.445435 0 0
  phy
    0 10.000000 4.000000 0.000000 0.176090 0.880451 0.440225 0 0
    0 9.999999 14.000000 0.000001 -0.098743 0.987429 0.123429 0 0
    0 10.000000 14.000000 1.000001 -0.089087 -0.890871 0.445435 0 0
end
