// Created by Crowbar 0.74
version 1
nodes
  0 "ValveBiped.Bip01_Pelvis" -1
  1 "ValveBiped.Bip01_R_Thigh" 0
  2 "ValveBiped.Bip01_R_Calf" 1
  3 "ValveBiped.Bip01_R_Foot" 2
  4 "ValveBiped.Bip01_R_Toe0" 3
  5 "ValveBiped.Bip01_L_Thigh" 0
  6 "ValveBiped.Bip01_L_Calf" 5
  7 "ValveBiped.Bip01_L_Foot" 6
  8 "ValveBiped.Bip01_L_Toe0" 7
  9 "ValveBiped.Bip01_Spine" 0
  10 "ValveBiped.Bip01_Spine1" 9
  11 "ValveBiped.Bip01_Spine2" 10
  12 "ValveBiped.Bip01_Spine4" 11
  13 "ValveBiped.Bip01_L_Clavicle" 12
  14 "ValveBiped.Bip01_L_UpperArm" 13
  15 "ValveBiped.Bip01_L_Forearm" 14
  16 "ValveBiped.Bip01_L_Hand" 15
  17 "ValveBiped.Bip01_L_Finger1" 16
  18 "ValveBiped.Bip01_L_Finger11" 17
  19 "ValveBiped.Bip01_L_Finger12" 18
  20 "ValveBiped.Bip01_L_Finger2" 16
  21 "ValveBiped.Bip01_L_Finger21" 20
  22 "ValveBiped.Bip01_L_Finger22" 21
  23 "ValveBiped.Bip01_L_Finger3" 16
  24 "ValveBiped.Bip01_L_Finger31" 23
  25 "ValveBiped.Bip01_L_Finger32" 24
  26 "ValveBiped.Bip01_L_Finger4" 16
  27 "ValveBiped.Bip01_L_Finger41" 26
  28 "ValveBiped.Bip01_L_Finger42" 27
  29 "ValveBiped.Bip01_L_Finger0" 16
  30 "ValveBiped.Bip01_L_Finger01" 29
  31 "ValveBiped.Bip01_L_Finger02" 30
  32 "ValveBiped.Bip01_L_Ulna" 15
  33 "ValveBiped.Bip01_L_Wrist" 15
  34 "ValveBiped.Bip01_R_Clavicle" 12
  35 "ValveBiped.Bip01_R_UpperArm" 34
  36 "ValveBiped.Bip01_R_Forearm" 35
  37 "ValveBiped.Bip01_R_Hand" 36
  38 "ValveBiped.Bip01_R_Finger1" 37
  39 "ValveBiped.Bip01_R_Finger11" 38
  40 "ValveBiped.Bip01_R_Finger12" 39
  41 "ValveBiped.Bip01_R_Finger2" 37
  42 "ValveBiped.Bip01_R_Finger21" 41
  43 "ValveBiped.Bip01_R_Finger22" 42
  44 "ValveBiped.Bip01_R_Finger3" 37
  45 "ValveBiped.Bip01_R_Finger31" 44
  46 "ValveBiped.Bip01_R_Finger32" 45
  47 "ValveBiped.Bip01_R_Finger4" 37
  48 "ValveBiped.Bip01_R_Finger41" 47
  49 "ValveBiped.Bip01_R_Finger42" 48
  50 "ValveBiped.Bip01_R_Finger0" 37
  51 "ValveBiped.Bip01_R_Finger01" 50
  52 "ValveBiped.Bip01_R_Finger02" 51
  53 "ValveBiped.Bip01_R_Wrist" 36
  54 "ValveBiped.Bip01_R_Ulna" 36
  55 "ValveBiped.Bip01_Neck1" 12
  56 "ValveBiped.Bip01_Head1" 55
  57 "ValveBiped.qzr2" 0
  58 "ValveBiped.qzl2" 0
  59 "ValveBiped.qzr1" 0
  60 "ValveBiped.qzl1" 0
  61 "ValveBiped.qzf3" 0
  62 "ValveBiped.qzf1" 0
  63 "ValveBiped.qzf2" 0
  64 "ValveBiped.attachment_bandage_armL" 15
  65 "ValveBiped.attachment_bandage_legL" 5
  66 "ValveBiped.attachment_bandage_legR" 1
  67 "ValveBiped.attachment_armL_T" 15
  68 "ValveBiped.attachment_armR_T" 36
  69 "ValveBiped.weapon_bone" 37
  70 "ValveBiped.weapon_bone_Clip" 69
  71 "ValveBiped.L_weapon_bone" 16
  72 "39" 15
  73 "40" 15
  74 "41" 15
  75 "42" 15
  76 "43" 15
  77 "44" 15
  78 "45" 36
  79 "46" 36
  80 "47" 36
  81 "48" 36
  82 "49" 36
  83 "50" 36
  84 "1" 56
  85 "2" 56
  86 "3" 56
  87 "4" 86
  88 "5" 87
  89 "6" 56
  90 "7" 89
  91 "8" 56
  92 "9" 56
  93 "10" 56
  94 "11" 56
  95 "12" 56
  96 "13" 56
  97 "14" 56
  98 "15" 56
  99 "16" 12
  100 "17" 99
  101 "18" 100
  102 "19" 12
  103 "20" 102
  104 "21" 12
  105 "22" 12
  106 "23" 12
  107 "24" 106
  108 "25" 12
  109 "26" 108
  110 "27" 0
  111 "28" 0
  112 "29" 0
  113 "30" 0
  114 "31" 0
  115 "32" 57
  116 "33" 58
  117 "34" 59
  118 "35" 60
  119 "36" 61
  120 "37" 62
  121 "38" 63
end
skeleton
  time 0
    0 0.000000 0.000000 0.000000 0.000000 0.000000 -1.570796
end
