// Created by Crowbar 0.74
version 1
nodes
  0 "ValveBiped.ValveBiped" -1
  1 "ValveBiped.Bip01" 0
  2 "ValveBiped.Bip01_Pelvis" 1
  3 "ValveBiped.Bip01_Spine" 1
  4 "ValveBiped.Bip01_Spine1" 3
  5 "ValveBiped.Bip01_Spine2" 4
  6 "ValveBiped.Bip01_Spine4" 5
  7 "ValveBiped.Bip01_Neck1" 6
  8 "ValveBiped.Bip01_L_Clavicle" 6
end
skeleton
  time 0
    0 0.000000 0.000000 0.000000 1.570792 0.000003 -0.000003
    1 0.000000 38.034000 -0.258115 0.000000 0.000000 0.000000
    2 0.000000 0.000000 0.000000 0.000000 0.000000 0.000000
    3 0.000000 3.859306 0.127612 1.570796 0.074842 1.570796
    4 4.399113 0.000000 0.000000 0.000000 0.000000 -0.180318
    5 3.698238 -0.000001 0.000000 0.000000 0.000000 0.014283
    6 5.656147 0.000000 0.000000 0.000000 0.000000 0.633643
    7 5.507969 -0.000002 0.000000 3.141590 0.000000 0.170759
    8 4.644871 1.703167 1.500000 0.742138 -1.202736 -2.450465
end
