// Created by Crowbar 0.74
version 1
nodes
  0 "ValveBiped.ValveBiped" -1
  1 "ValveBiped.Bip01" 0
  2 "ValveBiped.Camera" 0
  3 "ValveBiped.weapon_bone" 1
  4 "ValveBiped.attach_muzzle" 3
  5 "ValveBiped.attach_shell_eject" 3
  6 "ValveBiped.attach_camera" 2
  7 "ValveBiped.Bip01_Spine" 1
  8 "ValveBiped.Bip01_Spine1" 7
  9 "ValveBiped.Bip01_Spine2" 8
  10 "ValveBiped.Bip01_Spine4" 9
  11 "ValveBiped.Bip01_L_Clavicle" 10
  12 "ValveBiped.Bip01_L_UpperArm" 11
  13 "ValveBiped.Bip01_L_Forearm" 12
  14 "ValveBiped.Bip01_L_Hand" 13
  15 "ValveBiped.Bip01_L_Finger4" 14
  16 "ValveBiped.Bip01_L_Finger41" 15
  17 "ValveBiped.Bip01_L_Finger42" 16
  18 "ValveBiped.Bip01_L_Finger3" 14
  19 "ValveBiped.Bip01_L_Finger31" 18
  20 "ValveBiped.Bip01_L_Finger32" 19
  21 "ValveBiped.Bip01_L_Finger2" 14
  22 "ValveBiped.Bip01_L_Finger21" 21
  23 "ValveBiped.Bip01_L_Finger22" 22
  24 "ValveBiped.Bip01_L_Finger1" 14
  25 "ValveBiped.Bip01_L_Finger11" 24
  26 "ValveBiped.Bip01_L_Finger12" 25
  27 "ValveBiped.Bip01_L_Finger0" 14
  28 "ValveBiped.Bip01_L_Finger01" 27
  29 "ValveBiped.Bip01_L_Finger02" 28
  30 "ValveBiped.Bip01_R_Clavicle" 10
  31 "ValveBiped.Bip01_R_UpperArm" 30
  32 "ValveBiped.Bip01_R_Forearm" 31
  33 "ValveBiped.Bip01_R_Hand" 32
  34 "ValveBiped.Bip01_R_Finger4" 33
  35 "ValveBiped.Bip01_R_Finger41" 34
  36 "ValveBiped.Bip01_R_Finger42" 35
  37 "ValveBiped.Bip01_R_Finger3" 33
  38 "ValveBiped.Bip01_R_Finger31" 37
  39 "ValveBiped.Bip01_R_Finger32" 38
  40 "ValveBiped.Bip01_R_Finger2" 33
  41 "ValveBiped.Bip01_R_Finger21" 40
  42 "ValveBiped.Bip01_R_Finger22" 41
  43 "ValveBiped.Bip01_R_Finger1" 33
  44 "ValveBiped.Bip01_R_Finger11" 43
  45 "ValveBiped.Bip01_R_Finger12" 44
  46 "ValveBiped.Bip01_R_Finger0" 33
  47 "ValveBiped.Bip01_R_Finger01" 46
  48 "ValveBiped.Bip01_R_Finger02" 47
  49 "ValveBiped.weapon_charger_slide" 3
  50 "ValveBiped.weapon_stock_hammer" 3
  51 "ValveBiped.weapon_bolt" 3
  52 "ValveBiped.weapon_safety" 3
  53 "ValveBiped.weapon_trigger" 3
  54 "ValveBiped.weapon_clip_realease" 3
  55 "ValveBiped.weapon_clip" 3
  56 "ValveBiped.weapon_clip_bullets" 55
  57 "ValveBiped.Bip01_R_Forearm_driven" 32
  58 "ValveBiped.Bip01_R_Driven_ulna" 32
  59 "ValveBiped.Bip01_R_thumbroot" 33
  60 "ValveBiped.Bip01_L_Forearm_driven" 13
  61 "ValveBiped.Bip01_L_Driven_ulna" 13
  62 "ValveBiped.Bip01_L_thumbroot" 14
end
skeleton
  time 0
    0 0.000000 0.000000 0.000000 0.000000 0.000000 -1.570796
    1 0.000000 0.000000 0.000000 0.000000 0.000000 0.000000
    2 0.000000 0.000000 0.000000 0.000000 0.000000 0.000000
    3 5.066561 3.140721 -3.543077 0.028251 0.079573 -0.108806
    4 0.000000 0.000000 0.000000 0.000000 0.000000 0.000000
    5 0.000000 0.000000 0.000000 0.000000 0.000000 0.000000
    6 0.000000 0.000000 0.000000 0.000000 0.000000 0.000000
    7 0.000000 0.000000 0.000000 0.000000 0.000000 0.000000
    8 0.000000 0.000000 0.000000 0.000000 0.000000 0.000000
    9 0.000000 0.000000 0.000000 0.000000 0.000000 0.000000
    10 0.000000 0.000000 0.000000 0.000000 0.000000 0.000000
    11 0.000000 0.000000 0.000000 -0.227228 0.015571 0.060791
    12 0.000000 0.000000 0.000000 0.088300 0.305895 -0.109752
    13 0.000000 0.000000 0.000000 0.110693 -0.122255 -0.220623
    14 0.000000 0.000000 0.000000 0.150108 0.451993 0.095487
    15 0.000000 0.000000 0.000000 0.000000 0.000000 0.000000
    16 0.000000 0.000000 0.000000 0.000000 0.000000 0.000000
    17 0.000000 0.000000 0.000000 0.000000 0.000000 0.000000
    18 0.000000 0.000000 0.000000 0.000000 0.000000 0.000000
    19 0.000000 0.000000 0.000000 0.000000 0.000000 0.000000
    20 0.000000 0.000000 0.000000 0.000000 0.000000 0.000000
    21 0.000000 0.000000 0.000000 0.000000 0.000000 0.000000
    22 0.000000 0.000000 0.000000 0.000000 0.000000 0.000000
    23 0.000000 0.000000 0.000000 0.000000 0.000000 0.000000
    24 0.000000 0.000000 0.000000 0.000000 0.000000 0.000000
    25 0.000000 0.000000 0.000000 0.000000 0.000000 0.000000
    26 0.000000 0.000000 0.000000 0.000000 0.000000 0.000000
    27 0.000000 0.000000 0.000000 0.000000 0.000000 0.000000
    28 0.000000 0.000000 0.000000 0.000000 0.000000 0.000000
    29 0.000000 0.000000 0.000000 0.000000 0.000000 0.000000
    30 0.000000 0.000000 0.000000 0.000000 0.000000 0.000000
    31 0.000000 0.000000 0.000000 0.146512 0.749869 -0.149471
    32 0.000000 0.000000 0.000000 0.106722 -0.433393 0.722374
    33 0.000000 0.000000 0.000000 0.047495 -0.164230 -0.119732
    34 0.000000 0.000000 0.000000 -0.241688 -0.040136 -0.085127
    35 0.000000 0.000000 0.000000 0.004806 -0.060211 -0.079749
    36 0.000000 0.000000 0.000000 0.000000 0.000000 -0.086795
    37 0.000000 0.000000 0.000000 0.001977 -0.030009 0.112636
    38 0.000000 0.000000 0.000000 -0.118144 0.000000 0.000028
    39 0.000000 0.000000 0.000000 0.000000 0.000000 0.077961
    40 0.000000 0.000000 0.000000 0.000000 0.000000 -0.108734
    41 0.000000 0.000000 0.000000 -0.036253 0.084360 0.004483
    42 0.000000 0.000000 0.000000 0.000000 0.000000 -0.175226
    43 0.000000 0.000000 0.000000 0.031184 -0.047303 -0.220664
    44 0.000000 0.000000 0.000000 0.000000 0.000000 -0.042457
    45 0.000000 0.000000 0.000000 0.000000 0.000000 0.000000
    46 0.000000 0.000000 0.000000 0.968435 -0.045026 0.133120
    47 0.000000 0.000000 0.000000 -0.624600 -0.218015 0.143480
    48 0.000000 0.000000 0.000000 0.000000 0.000000 -0.079994
    49 0.000000 0.000000 0.000000 0.000000 0.000000 0.000000
    50 0.000000 0.000000 0.000000 0.000000 0.000000 0.000000
    51 0.000000 0.000000 0.000000 0.000000 0.000000 0.000000
    52 0.000000 0.000000 0.000000 0.000000 0.000000 0.000000
    53 7.640858 -9.924821 0.035157 0.051089 0.063795 0.113638
    54 0.000000 0.000000 0.000000 0.000000 0.000000 0.000000
    55 0.000000 0.000000 0.000000 0.000000 0.000000 0.000000
    56 0.000000 0.000000 0.000000 0.000000 0.000000 0.000000
    57 0.000000 0.000000 0.000000 -0.278249 0.000000 0.000000
    58 0.000000 0.000000 0.000000 -0.535043 0.000000 0.000000
    59 0.000000 0.000000 0.000000 0.059887 0.125395 0.098633
    60 0.000000 0.000000 0.000000 0.216947 0.000000 0.000000
    61 0.000000 0.000000 0.000000 0.375671 0.000000 0.000000
    62 0.000000 0.000000 0.000000 0.000000 0.000000 0.000000
  time 1
    0 0.000000 0.000000 0.000000 0.000000 0.000000 -1.570796
    1 0.000000 0.000000 0.000000 0.000000 0.000000 0.000000
    2 0.000000 0.000000 0.000000 0.000000 0.000000 0.000000
    3 2.609455 3.097751 -4.761864 0.015984 0.062694 -0.076199
    4 0.000000 0.000000 0.000000 0.000000 0.000000 0.000000
    5 0.000000 0.000000 0.000000 0.000000 0.000000 0.000000
    6 0.000000 0.000000 0.000000 0.000000 0.000000 0.000000
    7 0.000000 0.000000 0.000000 0.000000 0.000000 0.000000
    8 0.000000 0.000000 0.000000 0.000000 0.000000 0.000000
    9 0.000000 0.000000 0.000000 0.000000 0.000000 0.000000
    10 0.000000 0.000000 0.000000 0.000000 0.000000 0.000000
    11 0.000000 0.000000 0.000000 -0.098861 -0.166020 -0.064222
    12 0.000000 0.000000 0.000000 0.079307 0.206731 -0.079250
    13 0.000000 0.000000 0.000000 0.181468 -0.192176 -0.091133
    14 0.000000 0.000000 0.000000 0.130340 0.322094 0.104646
    15 0.000000 0.000000 0.000000 0.000000 0.000000 0.000000
    16 0.000000 0.000000 0.000000 0.000000 0.000000 0.000000
    17 0.000000 0.000000 0.000000 0.000000 0.000000 0.000000
    18 0.000000 0.000000 0.000000 0.000000 0.000000 0.000000
    19 0.000000 0.000000 0.000000 0.000000 0.000000 0.000000
    20 0.000000 0.000000 0.000000 0.000000 0.000000 0.000000
    21 0.000000 0.000000 0.000000 0.000000 0.000000 0.000000
    22 0.000000 0.000000 0.000000 0.000000 0.000000 0.000000
    23 0.000000 0.000000 0.000000 0.000000 0.000000 0.000000
    24 0.000000 0.000000 0.000000 0.000000 0.000000 0.000000
    25 0.000000 0.000000 0.000000 0.000000 0.000000 0.000000
    26 0.000000 0.000000 0.000000 0.000000 0.000000 0.000000
    27 0.000000 0.000000 0.000000 0.000000 0.000000 0.000000
    28 0.000000 0.000000 0.000000 0.000000 0.000000 0.000000
    29 0.000000 0.000000 0.000000 0.000000 0.000000 0.000000
    30 0.000000 0.000000 0.000000 0.000000 0.000000 0.000000
    31 0.000000 0.000000 0.000000 0.209559 0.632168 0.054927
    32 0.000000 0.000000 0.000000 0.129666 -0.421499 0.605782
    33 0.000000 0.000000 0.000000 0.040651 -0.132544 -0.231492
    34 0.000000 0.000000 0.000000 -0.238849 -0.044715 -0.096584
    35 0.000000 0.000000 0.000000 0.004806 -0.060211 -0.088653
    36 0.000000 0.000000 0.000000 -0.000899 0.000264 -0.095681
    37 0.000000 0.000000 0.000000 0.003775 -0.029890 0.103859
    38 0.000000 0.000000 0.000000 -0.118132 -0.001474 -0.012416
    39 0.000000 0.000000 0.000000 0.000000 0.000000 0.069053
    40 0.000000 0.000000 0.000000 0.001234 0.001534 -0.117430
    41 0.000000 0.000000 0.000000 -0.035918 0.084372 -0.004334
    42 0.000000 0.000000 0.000000 0.000000 0.000000 -0.184157
    43 0.000000 0.000000 0.000000 0.032526 -0.047890 -0.229516
    44 0.000000 0.000000 0.000000 0.000000 0.000000 -0.051357
    45 0.000000 0.000000 0.000000 0.000000 0.000000 -0.012524
    46 0.000000 0.000000 0.000000 0.968527 -0.050683 0.126231
    47 0.000000 0.000000 0.000000 -0.622877 -0.226770 0.143096
    48 0.000000 0.000000 0.000000 0.007814 -0.004267 -0.080035
    49 0.000000 0.000000 0.000000 0.000000 0.000000 0.000000
    50 0.000000 0.000000 0.000000 0.000000 0.000000 0.000000
    51 0.000000 0.000000 0.000000 0.000000 0.000000 0.000000
    52 0.000000 0.000000 0.000000 0.000000 0.000000 0.000000
    53 7.890866 -7.577601 -0.664083 0.042080 0.041144 0.082190
    54 0.000000 0.000000 0.000000 0.000000 0.000000 0.000000
    55 0.000000 0.000000 0.000000 0.000000 0.000000 0.000000
    56 0.000000 0.000000 0.000000 0.000000 0.000000 0.000000
    57 0.000000 0.000000 0.000000 -0.422380 0.000000 0.000000
    58 0.000000 0.000000 0.000000 -0.807728 0.000000 0.000000
    59 0.000000 0.000000 0.000000 0.056639 0.118300 0.096308
    60 0.000000 0.000000 0.000000 0.258549 0.000000 0.000000
    61 0.000000 0.000000 0.000000 0.447747 0.000000 0.000000
    62 0.000000 0.000000 0.000000 0.000000 0.000000 0.000000
  time 2
    0 0.000000 0.000000 0.000000 0.000000 0.000000 -1.570796
    1 0.000000 0.000000 0.000000 0.000000 0.000000 0.000000
    2 0.000000 0.000000 0.000000 0.000000 0.000000 0.000000
    3 1.085971 3.125095 -5.429853 -0.040797 0.075095 0.029061
    4 0.000000 0.000000 0.000000 0.000000 0.000000 0.000000
    5 0.000000 0.000000 0.000000 0.000000 0.000000 0.000000
    6 0.000000 0.000000 0.000000 0.000000 0.000000 0.000000
    7 0.000000 0.000000 0.000000 0.000000 0.000000 0.000000
    8 0.000000 0.000000 0.000000 0.000000 0.000000 0.000000
    9 0.000000 0.000000 0.000000 0.000000 0.000000 0.000000
    10 0.000000 0.000000 0.000000 0.000000 0.000000 0.000000
    11 0.000000 0.000000 0.000000 -0.030846 -0.276611 -0.139687
    12 0.000000 0.000000 0.000000 0.088597 0.117177 -0.043331
    13 0.000000 0.000000 0.000000 0.231595 -0.223594 0.010075
    14 0.000000 0.000000 0.000000 0.136050 0.220655 0.124660
    15 0.000000 0.000000 0.000000 -0.000395 -0.000036 -0.000085
    16 0.000000 0.000000 0.000000 0.000000 0.000000 0.000000
    17 0.000000 0.000000 0.000000 0.000000 0.000000 0.000000
    18 0.000000 0.000000 0.000000 -0.000395 -0.000060 -0.000080
    19 0.000000 0.000000 0.000000 0.000000 0.000000 0.000000
    20 0.000000 0.000000 0.000000 0.000000 0.000000 0.000000
    21 0.000000 0.000000 0.000000 -0.000360 -0.000180 -0.000075
    22 0.000000 0.000000 0.000000 0.000000 0.000000 0.000000
    23 0.000000 0.000000 0.000000 0.000000 0.000000 0.000000
    24 0.000000 0.000000 0.000000 -0.000360 -0.000144 -0.000146
    25 0.000000 0.000000 0.000000 0.000000 0.000000 0.000000
    26 0.000000 0.000000 0.000000 0.000000 0.000000 0.000000
    27 0.000000 0.000000 0.000000 -0.000406 0.000013 0.000000
    28 0.000000 0.000000 0.000000 0.000000 0.000000 0.000000
    29 0.000000 0.000000 0.000000 0.000000 0.000000 0.000000
    30 0.000000 0.000000 0.000000 0.000000 0.000000 0.000000
    31 0.000000 0.000000 0.000000 0.266462 0.521640 0.248704
    32 0.000000 0.000000 0.000000 0.177744 -0.417968 0.507311
    33 0.000000 0.000000 0.000000 0.064191 -0.054544 -0.383807
    34 0.000000 0.000000 0.000000 -0.235975 -0.049233 -0.107993
    35 0.000000 0.000000 0.000000 0.004806 -0.060211 -0.104792
    36 0.000000 0.000000 0.000000 -0.002529 0.000743 -0.111697
    37 0.000000 0.000000 0.000000 0.007023 -0.029614 0.087957
    38 0.000000 0.000000 0.000000 -0.118108 -0.002936 -0.024832
    39 0.000000 0.000000 0.000000 0.000000 0.000000 0.052931
    40 0.000000 0.000000 0.000000 0.003440 0.004326 -0.133154
    41 0.000000 0.000000 0.000000 -0.035319 0.084384 -0.020398
    42 0.000000 0.000000 0.000000 0.000000 0.000000 -0.200271
    43 0.000000 0.000000 0.000000 0.034983 -0.048933 -0.245543
    44 0.000000 0.000000 0.000000 0.000000 0.000000 -0.067496
    45 0.000000 0.000000 0.000000 0.000000 0.000000 -0.025000
    46 0.000000 0.000000 0.000000 0.968773 -0.060906 0.113736
    47 0.000000 0.000000 0.000000 -0.619739 -0.242610 0.142377
    48 0.000000 0.000000 0.000000 0.021968 -0.011997 -0.080159
    49 0.000000 0.000000 0.000000 0.000000 0.000000 0.000000
    50 0.000000 0.000000 0.000000 0.000000 0.000000 0.000000
    51 0.000000 0.000000 0.000000 0.000000 0.000000 0.000000
    52 0.000000 0.000000 0.000000 0.000000 0.000000 0.000000
    53 4.843898 -3.091582 -3.972777 0.060899 -0.063865 0.019293
    54 0.000000 0.000000 0.000000 0.000000 0.000000 0.000000
    55 0.000000 0.000000 0.000000 0.000000 0.000000 0.000000
    56 0.000000 0.000000 0.000000 0.000000 0.000000 0.000000
    57 0.000000 0.000000 0.000000 -0.581642 0.000000 0.000000
    58 0.000000 0.000000 0.000000 -1.101842 0.000000 0.000000
    59 0.000000 0.000000 0.000000 0.053415 0.111169 0.094007
    60 0.000000 0.000000 0.000000 0.322626 0.000000 0.000000
    61 0.000000 0.000000 0.000000 0.558771 0.000000 0.000000
    62 0.000000 0.000000 0.000000 0.000407 -0.000044 -0.000028
  time 3
    0 0.000000 0.000000 0.000000 0.000000 0.000000 -1.570796
    1 0.000000 0.000000 0.000000 0.000000 0.000000 0.000000
    2 0.000000 0.000000 0.000000 0.000000 0.000000 0.000000
    3 6.090030 2.605548 -2.386792 -0.153431 0.184580 0.269593
    4 0.000000 0.000000 0.000000 0.000000 0.000000 0.000000
    5 0.000000 0.000000 0.000000 0.000000 0.000000 0.000000
    6 0.000000 0.000000 0.000000 0.000000 0.000000 0.000000
    7 0.000000 0.000000 0.000000 0.000000 0.000000 0.000000
    8 0.000000 0.000000 0.000000 0.000000 0.000000 0.000000
    9 0.000000 0.000000 0.000000 0.000000 0.000000 0.000000
    10 0.000000 0.000000 0.000000 0.000000 0.000000 0.000000
    11 0.000000 0.000000 0.000000 -0.277521 0.114051 0.160268
    12 0.164068 -0.062502 0.015625 0.186040 0.221030 -0.082291
    13 0.000000 0.000000 0.000000 0.179703 -0.093494 -0.302328
    14 0.000000 0.000000 0.000000 0.246885 0.388937 0.035231
    15 0.000000 0.000000 0.000000 0.000000 0.000000 0.000000
    16 0.000000 0.000000 0.000000 0.000000 0.000000 0.000000
    17 0.000000 0.000000 0.000000 0.000000 0.000000 0.000000
    18 0.000000 0.000000 0.000000 0.000000 0.000000 0.000000
    19 0.000000 0.000000 0.000000 0.000000 0.000000 0.000000
    20 0.000000 0.000000 0.000000 0.000000 0.000000 0.000000
    21 0.000000 0.000000 0.000000 0.000000 0.000000 0.000000
    22 0.000000 0.000000 0.000000 0.000000 0.000000 0.000000
    23 0.000000 0.000000 0.000000 0.000000 0.000000 0.000000
    24 0.000000 0.000000 0.000000 0.000000 0.000000 0.000000
    25 0.000000 0.000000 0.000000 0.000000 0.000000 0.000000
    26 0.000000 0.000000 0.000000 0.000000 0.000000 0.000000
    27 0.000000 0.000000 0.000000 0.000000 0.000000 0.000000
    28 0.000000 0.000000 0.000000 0.000000 0.000000 0.000000
    29 0.000000 0.000000 0.000000 0.000000 0.000000 0.000000
    30 0.000000 0.000000 0.000000 0.000000 0.000000 0.000000
    31 -0.074221 0.562517 -0.070315 0.490105 0.359897 0.428701
    32 0.000000 0.000000 0.000000 0.480679 -0.645861 -0.105822
    33 0.000000 0.000000 0.000000 0.098153 0.068012 -0.091637
    34 0.000000 0.000000 0.000000 -0.233052 -0.053715 -0.119426
    35 0.000000 0.000000 0.000000 0.004806 -0.060211 -0.117257
    36 0.000000 0.000000 0.000000 -0.003799 0.001091 -0.124131
    37 0.000000 0.000000 0.000000 0.009528 -0.029362 0.075662
    38 0.000000 0.000000 0.000000 -0.118060 -0.004410 -0.037220
    39 0.000000 0.000000 0.000000 0.000000 0.000000 0.040453
    40 0.000000 0.000000 0.000000 0.005117 0.006520 -0.145319
    41 0.000000 0.000000 0.000000 -0.034851 0.084407 -0.032838
    42 0.000000 0.000000 0.000000 0.000000 0.000000 -0.212763
    43 0.000000 0.000000 0.000000 0.036889 -0.049712 -0.257945
    44 0.000000 0.000000 0.000000 0.000000 0.000000 -0.079973
    45 0.000000 0.000000 0.000000 0.000000 0.000000 -0.037476
    46 0.000000 0.000000 0.000000 0.969079 -0.068816 0.104066
    47 0.000000 0.000000 0.000000 -0.617285 -0.254864 0.141766
    48 0.000000 0.000000 0.000000 0.032922 -0.017989 -0.080323
    49 0.000000 0.000000 0.000000 0.000000 0.000000 0.000000
    50 0.000000 0.000000 0.000000 0.000000 0.000000 0.000000
    51 0.000000 0.000000 0.000000 0.000000 0.000000 0.000000
    52 0.000000 0.000000 0.000000 0.000000 0.000000 0.000000
    53 -7.547105 6.863013 -11.355815 0.153267 -0.331197 -0.098396
    54 0.000000 0.000000 0.000000 0.000000 0.000000 0.000000
    55 0.000000 0.000000 0.000000 0.000000 0.000000 0.000000
    56 0.000000 0.000000 0.000000 0.000000 0.000000 0.000000
    57 0.000000 0.000000 0.000000 -0.197339 0.000000 0.000000
    58 0.000000 0.000000 0.000000 -0.380196 0.000000 0.000000
    59 0.000000 0.000000 0.000000 0.050179 0.103990 0.091718
    60 0.000000 0.000000 0.000000 0.401455 0.000000 0.000000
    61 0.000000 0.000000 0.000000 0.695368 0.000000 0.000000
    62 0.000000 0.000000 0.000000 0.000000 0.000000 0.000000
  time 4
    0 0.000000 0.000000 0.000000 0.000000 0.000000 -1.570796
    1 0.000000 0.000000 0.000000 0.000000 0.000000 0.000000
    2 0.000000 0.000000 0.000000 0.000000 0.000000 0.000000
    3 12.433973 3.718863 0.804712 -0.270155 0.287003 0.495680
    4 0.000000 0.000000 0.000000 0.000000 0.000000 0.000000
    5 0.000000 0.000000 0.000000 0.000000 0.000000 0.000000
    6 0.000000 0.000000 0.000000 0.000000 0.000000 0.000000
    7 0.000000 0.000000 0.000000 0.000000 0.000000 0.000000
    8 0.000000 0.000000 0.000000 0.000000 0.000000 0.000000
    9 0.000000 0.000000 0.000000 0.000000 0.000000 0.000000
    10 0.000000 0.000000 0.000000 0.000000 0.000000 0.000000
    11 0.000000 0.000000 0.000000 -0.898757 0.493401 0.081849
    12 0.628925 -0.246101 0.058596 0.178681 0.150185 -0.126857
    13 0.000000 0.000000 0.000000 -0.163122 0.298069 -0.334770
    14 0.000000 0.000000 0.000000 0.208525 0.432346 -0.146801
    15 0.000000 0.000000 0.000000 0.000168 0.000180 -0.000254
    16 0.000000 0.000000 0.000000 0.000000 0.000000 0.000000
    17 0.000000 0.000000 0.000000 0.000000 0.000000 0.000000
    18 0.000000 0.000000 0.000000 0.000168 0.000156 -0.000268
    19 0.000000 0.000000 0.000000 0.000000 0.000000 0.000000
    20 0.000000 0.000000 0.000000 0.000000 0.000000 0.000000
    21 0.000000 0.000000 0.000000 0.000120 0.000204 -0.000264
    22 0.000000 0.000000 0.000000 0.000000 0.000000 0.000000
    23 0.000000 0.000000 0.000000 0.000000 0.000000 0.000000
    24 0.000000 0.000000 0.000000 0.000168 0.000228 -0.000219
    25 0.000000 0.000000 0.000000 0.000000 0.000000 0.000000
    26 0.000000 0.000000 0.000000 0.000000 0.000000 0.000000
    27 0.000000 0.000000 0.000000 0.000109 -0.000348 0.000000
    28 0.000000 0.000000 0.000000 0.000000 0.000000 0.000000
    29 0.000000 0.000000 0.000000 0.000000 0.000000 0.000000
    30 0.000000 0.000000 0.000000 0.000000 0.000000 0.000000
    31 -0.308603 2.246162 -0.312510 0.535476 -0.003733 0.112056
    32 0.000000 0.000000 0.000000 0.359676 -0.392646 -0.553213
    33 0.000000 0.000000 0.000000 0.023385 -0.009091 0.201926
    34 0.000000 0.000000 0.000000 -0.230057 -0.058197 -0.130932
    35 0.000000 0.000000 0.000000 0.004806 -0.060211 -0.129812
    36 0.000000 0.000000 0.000000 -0.005069 0.001426 -0.136599
    37 0.000000 0.000000 0.000000 0.012056 -0.029087 0.063291
    38 0.000000 0.000000 0.000000 -0.118000 -0.005884 -0.049664
    39 0.000000 0.000000 0.000000 0.000000 0.000000 0.027901
    40 0.000000 0.000000 0.000000 0.006783 0.008737 -0.157552
    41 0.000000 0.000000 0.000000 -0.034384 0.084431 -0.045353
    42 0.000000 0.000000 0.000000 0.000000 0.000000 -0.225316
    43 0.000000 0.000000 0.000000 0.038806 -0.050479 -0.270422
    44 0.000000 0.000000 0.000000 0.000000 0.000000 -0.092515
    45 0.000000 0.000000 0.000000 0.000000 0.000000 -0.050049
    46 0.000000 0.000000 0.000000 0.969447 -0.076773 0.094338
    47 0.000000 0.000000 0.000000 -0.614807 -0.267180 0.141131
    48 0.000000 0.000000 0.000000 0.043947 -0.024005 -0.080529
    49 0.000000 0.000000 0.000000 0.000000 0.000000 0.000000
    50 0.000000 0.000000 0.000000 0.000000 0.000000 0.000000
    51 0.000000 0.000000 0.000000 0.000000 0.000000 0.000000
    52 0.000000 0.000000 0.000000 0.000000 0.000000 0.000000
    53 -18.387280 22.082726 -19.524033 0.303325 -0.557385 -0.298275
    54 0.000000 0.000000 0.000000 0.000000 0.000000 0.000000
    55 0.000000 0.000000 0.000000 0.000000 0.000000 0.000000
    56 0.000000 0.000000 0.000000 0.000000 0.000000 0.000000
    57 0.000000 0.000000 0.000000 -0.011607 0.000000 0.000000
    58 0.000000 0.000000 0.000000 -0.022389 0.000000 0.000000
    59 0.000000 0.000000 0.000000 0.046920 0.096704 0.089417
    60 0.000000 0.000000 0.000000 0.349596 0.000000 0.000000
    61 0.000000 0.000000 0.000000 0.605505 0.000000 0.000000
    62 0.000000 0.000000 0.000000 -0.000108 0.000295 -0.000168
  time 5
    0 0.000000 0.000000 0.000000 0.000000 0.000000 -1.570796
    1 0.000000 0.000000 0.000000 0.000000 0.000000 0.000000
    2 0.000000 0.000000 0.000000 0.000000 0.000000 0.000000
    3 16.531754 10.586261 0.933622 -0.426374 0.328570 0.594539
    4 0.000000 0.000000 0.000000 0.000000 0.000000 0.000000
    5 0.000000 0.000000 0.000000 0.000000 0.000000 0.000000
    6 0.000000 0.000000 0.000000 0.000000 0.000000 0.000000
    7 0.000000 0.000000 0.000000 0.000000 0.000000 0.000000
    8 0.000000 0.000000 0.000000 0.000000 0.000000 0.000000
    9 0.000000 0.000000 0.000000 0.000000 0.000000 0.000000
    10 0.000000 0.000000 0.000000 0.000000 0.000000 0.000000
    11 0.000000 0.000000 0.000000 -1.309435 -0.042320 0.169987
    12 1.222694 -0.480483 0.117191 0.133491 -0.070984 -0.040575
    13 0.000000 0.000000 0.000000 0.001689 0.459543 0.277650
    14 0.000000 0.000000 0.000000 0.141184 0.213610 -0.312605
    15 0.000000 0.000000 0.000000 -0.000072 -0.000575 0.000057
    16 0.000000 0.000000 0.000000 0.000000 0.000000 0.000000
    17 0.000000 0.000000 0.000000 0.000000 0.000000 0.000000
    18 0.000000 0.000000 0.000000 -0.000060 -0.000575 0.000107
    19 0.000000 0.000000 0.000000 0.000000 0.000000 0.000000
    20 0.000000 0.000000 0.000000 0.000000 0.000000 0.000000
    21 0.000000 0.000000 0.000000 0.000108 -0.000563 0.000113
    22 0.000000 0.000000 0.000000 0.000000 0.000000 0.000000
    23 0.000000 0.000000 0.000000 0.000000 0.000000 0.000000
    24 0.000000 0.000000 0.000000 0.000048 -0.000575 0.000037
    25 0.000000 0.000000 0.000000 0.000000 0.000000 0.000000
    26 0.000000 0.000000 0.000000 0.000000 0.000000 0.000000
    27 0.000000 0.000000 0.000000 -0.000094 0.000322 0.000476
    28 0.000000 0.000000 0.000000 0.000000 0.000000 0.000000
    29 0.000000 0.000000 0.000000 0.000000 0.000000 0.000000
    30 0.000000 0.000000 0.000000 0.000000 0.000000 0.000000
    31 -0.660176 4.613422 -0.722678 0.779253 0.055662 -0.270426
    32 0.000000 0.000000 0.000000 0.026942 -0.241786 -0.187966
    33 0.000000 0.000000 0.000000 -0.120397 -0.004302 -0.002361
    34 0.000000 0.000000 0.000000 -0.227025 -0.062619 -0.142389
    35 0.000000 0.000000 0.000000 0.004806 -0.060211 -0.142299
    36 0.000000 0.000000 0.000000 -0.006352 0.001750 -0.149033
    37 0.000000 0.000000 0.000000 0.014561 -0.028775 0.050983
    38 0.000000 0.000000 0.000000 -0.117916 -0.007359 -0.062080
    39 0.000000 0.000000 0.000000 0.000000 0.000000 0.015386
    40 0.000000 0.000000 0.000000 0.008401 0.010978 -0.169695
    41 0.000000 0.000000 0.000000 -0.033916 0.084467 -0.057794
    42 0.000000 0.000000 0.000000 0.000000 0.000000 -0.237809
    43 0.000000 0.000000 0.000000 0.040736 -0.051210 -0.282839
    44 0.000000 0.000000 0.000000 0.000000 0.000000 -0.105013
    45 0.000000 0.000000 0.000000 0.000000 0.000000 -0.062524
    46 0.000000 0.000000 0.000000 0.969876 -0.084683 0.084639
    47 0.000000 0.000000 0.000000 -0.612329 -0.279447 0.140459
    48 0.000000 0.000000 0.000000 0.054913 -0.029985 -0.080817
    49 0.000000 0.000000 0.000000 0.000000 0.000000 0.000000
    50 0.000000 0.000000 0.000000 0.000000 0.000000 0.000000
    51 0.000000 0.000000 0.000000 0.000000 0.000000 0.000000
    52 0.000000 0.000000 0.000000 0.000000 0.000000 0.000000
    53 -22.449904 34.478827 -29.250893 0.488800 -0.608216 -0.537464
    54 0.000000 0.000000 0.000000 0.000000 0.000000 0.000000
    55 0.000000 0.000000 0.000000 0.000000 0.000000 0.000000
    56 0.000000 0.000000 0.000000 0.000000 0.000000 0.000000
    57 0.000000 0.000000 0.000000 -0.009049 0.000000 0.000000
    58 0.000000 0.000000 0.000000 -0.017454 0.000000 0.000000
    59 0.000000 0.000000 0.000000 0.043684 0.089393 0.087140
    60 0.000000 0.000000 0.000000 -0.005856 0.000000 0.000000
    61 0.000000 0.000000 0.000000 -0.010118 0.000000 0.000000
    62 0.000000 0.000000 0.000000 0.000168 -0.000044 0.000559
  time 6
    0 0.000000 0.000000 0.000000 0.000000 0.000000 -1.570796
    1 0.000000 0.000000 0.000000 0.000000 0.000000 0.000000
    2 0.000000 0.000000 0.000000 0.000000 0.000000 0.000000
    3 19.027924 16.582537 0.144536 -0.528042 0.359113 0.673073
    4 0.000000 0.000000 0.000000 0.000000 0.000000 0.000000
    5 0.000000 0.000000 0.000000 0.000000 0.000000 0.000000
    6 0.000000 0.000000 0.000000 0.000000 0.000000 0.000000
    7 0.000000 0.000000 0.000000 0.000000 0.000000 0.000000
    8 0.000000 0.000000 0.000000 0.000000 0.000000 0.000000
    9 0.000000 0.000000 0.000000 0.000000 0.000000 0.000000
    10 0.000000 0.000000 0.000000 0.000000 0.000000 0.000000
    11 0.000000 0.000000 0.000000 -1.619909 -0.630010 0.608199
    12 1.687551 -0.664083 0.160161 0.007730 -0.455477 0.291723
    13 0.000000 0.000000 0.000000 0.232285 0.361832 0.833968
    14 0.000000 0.000000 0.000000 0.153275 -0.139974 -0.463516
    15 0.000000 0.000000 0.000000 0.000000 0.000000 0.000000
    16 0.000000 0.000000 0.000000 0.000000 0.000000 0.000000
    17 0.000000 0.000000 0.000000 0.000000 0.000000 0.000000
    18 0.000000 0.000000 0.000000 0.000000 0.000000 0.000000
    19 0.000000 0.000000 0.000000 0.000000 0.000000 0.000000
    20 0.000000 0.000000 0.000000 0.000000 0.000000 0.000000
    21 0.000000 0.000000 0.000000 0.000000 0.000000 0.000000
    22 0.000000 0.000000 0.000000 0.000000 0.000000 0.000000
    23 0.000000 0.000000 0.000000 0.000000 0.000000 0.000000
    24 0.000000 0.000000 0.000000 0.000000 0.000000 0.000000
    25 0.000000 0.000000 0.000000 0.000000 0.000000 0.000000
    26 0.000000 0.000000 0.000000 0.000000 0.000000 0.000000
    27 0.000000 0.000000 0.000000 0.000000 0.000000 0.000000
    28 0.000000 0.000000 0.000000 0.000000 0.000000 0.000000
    29 0.000000 0.000000 0.000000 0.000000 0.000000 0.000000
    30 0.000000 0.000000 0.000000 0.000000 0.000000 0.000000
    31 -1.039094 6.894742 -1.238319 1.019910 0.259478 -0.436835
    32 0.000000 0.000000 0.000000 -0.152515 -0.143055 0.293275
    33 0.000000 0.000000 0.000000 -0.220106 0.121508 -0.301651
    34 0.000000 0.000000 0.000000 -0.223946 -0.067006 -0.153870
    35 0.000000 0.000000 0.000000 0.004806 -0.060211 -0.154787
    36 0.000000 0.000000 0.000000 -0.007634 0.002049 -0.161467
    37 0.000000 0.000000 0.000000 0.017066 -0.028439 0.038688
    38 0.000000 0.000000 0.000000 -0.117809 -0.008821 -0.074468
    39 0.000000 0.000000 0.000000 0.000000 0.000000 0.002908
    40 0.000000 0.000000 0.000000 0.010007 0.013231 -0.181861
    41 0.000000 0.000000 0.000000 -0.033449 0.084503 -0.070234
    42 0.000000 0.000000 0.000000 0.000000 0.000000 -0.250270
    43 0.000000 0.000000 0.000000 0.042677 -0.051917 -0.295256
    44 0.000000 0.000000 0.000000 0.000000 0.000000 -0.117490
    45 0.000000 0.000000 0.000000 0.000000 0.000000 -0.075049
    46 0.000000 0.000000 0.000000 0.970398 -0.092581 0.074955
    47 0.000000 0.000000 0.000000 -0.609828 -0.291701 0.139752
    48 0.000000 0.000000 0.000000 0.065879 -0.035966 -0.081187
    49 0.000000 0.000000 0.000000 0.000000 0.000000 0.000000
    50 0.000000 0.000000 0.000000 0.000000 0.000000 0.000000
    51 0.000000 0.000000 0.000000 0.000000 0.000000 0.000000
    52 0.000000 0.000000 0.000000 0.000000 0.000000 0.000000
    53 -24.500748 44.934625 -35.313578 0.619298 -0.627485 -0.718724
    54 0.000000 0.000000 0.000000 0.000000 0.000000 0.000000
    55 0.000000 0.000000 0.000000 0.000000 0.000000 0.000000
    56 0.000000 0.000000 0.000000 0.000000 0.000000 0.000000
    57 0.000000 0.000000 0.000000 0.006202 0.000000 0.000000
    58 0.000000 0.000000 0.000000 0.011971 0.000000 0.000000
    59 0.000000 0.000000 0.000000 0.040436 0.082047 0.084887
    60 0.000000 0.000000 0.000000 -0.190911 0.000000 0.000000
    61 0.000000 0.000000 0.000000 -0.330162 0.000000 0.000000
    62 0.000000 0.000000 0.000000 0.000000 0.000000 0.000000
  time 7
    0 0.000000 0.000000 0.000000 0.000000 0.000000 -1.570796
    1 0.000000 0.000000 0.000000 0.000000 0.000000 0.000000
    2 0.000000 0.000000 0.000000 0.000000 0.000000 0.000000
    3 19.594348 17.801324 -0.445326 -0.494494 0.377887 0.732579
    4 0.000000 0.000000 0.000000 0.000000 0.000000 0.000000
    5 0.000000 0.000000 0.000000 0.000000 0.000000 0.000000
    6 0.000000 0.000000 0.000000 0.000000 0.000000 0.000000
    7 0.000000 0.000000 0.000000 0.000000 0.000000 0.045706
    8 0.000000 0.000000 0.000000 0.000000 0.000000 0.036205
    9 0.000000 0.000000 0.000000 0.000000 0.000000 0.015005
    10 0.000000 0.000000 0.000000 0.000000 0.000000 -0.031067
    11 -0.394543 -0.339854 0.000000 -1.831618 -0.702806 0.825638
    12 1.851619 -0.730491 0.175787 -0.041326 -0.550602 0.412688
    13 0.000000 0.000000 0.000000 0.284792 0.333703 0.947191
    14 0.000000 0.000000 0.000000 0.172827 -0.183105 -0.491210
    15 0.000000 0.000000 0.000000 0.000000 0.000000 0.000000
    16 0.000000 0.000000 0.000000 0.000000 0.000000 0.000000
    17 0.000000 0.000000 0.000000 0.000000 0.000000 0.000000
    18 0.000000 0.000000 0.000000 0.000000 0.000000 0.000000
    19 0.000000 0.000000 0.000000 0.000000 0.000000 0.000000
    20 0.000000 0.000000 0.000000 0.000000 0.000000 0.000000
    21 0.000000 0.000000 0.000000 0.000000 0.000000 0.000000
    22 0.000000 0.000000 0.000000 0.000000 0.000000 0.000000
    23 0.000000 0.000000 0.000000 0.000000 0.000000 0.000000
    24 0.000000 0.000000 0.000000 0.000000 0.000000 0.000000
    25 0.000000 0.000000 0.000000 0.000000 0.000000 0.000000
    26 0.000000 0.000000 0.000000 0.000000 0.000000 0.000000
    27 0.000000 0.000000 0.000000 0.000000 0.000000 0.000000
    28 0.000000 0.000000 0.000000 0.000000 0.000000 0.000000
    29 0.000000 0.000000 0.000000 0.000000 0.000000 0.000000
    30 -0.523453 -0.507828 0.000000 0.056954 0.032424 0.007224
    31 -1.363323 8.488540 -1.781304 1.169258 0.223404 -0.417792
    32 0.000000 0.000000 0.000000 -0.152896 -0.205639 0.306866
    33 0.000000 0.000000 0.000000 -0.243024 0.090607 -0.332571
    34 0.000000 0.000000 0.000000 -0.226147 -0.063878 -0.145685
    35 0.000000 0.000000 0.000000 0.004806 -0.060211 -0.145883
    36 0.000000 0.000000 0.000000 -0.006711 0.001834 -0.152581
    37 0.000000 0.000000 0.000000 0.015280 -0.028679 0.047465
    38 0.000000 0.000000 0.000000 -0.117880 -0.007778 -0.065639
    39 0.000000 0.000000 0.000000 0.000000 0.000000 0.011816
    40 0.000000 0.000000 0.000000 0.008869 0.011613 -0.173187
    41 0.000000 0.000000 0.000000 -0.033785 0.084479 -0.061343
    42 0.000000 0.000000 0.000000 0.000000 0.000000 -0.237747
    43 0.000000 0.000000 0.000000 0.040724 -0.051198 -0.282778
    44 0.000000 0.000000 0.000000 0.000000 0.000000 -0.108590
    45 0.000000 0.000000 0.000000 0.000000 0.000000 -0.066131
    46 0.000000 0.000000 0.000000 0.969999 -0.086948 0.081872
    47 0.000000 0.000000 0.000000 -0.612329 -0.279372 0.140459
    48 0.000000 0.000000 0.000000 0.054853 -0.029949 -0.080817
    49 0.000000 0.000000 0.000000 0.000000 0.000000 0.000000
    50 0.000000 0.000000 0.000000 0.000000 0.000000 0.000000
    51 0.000000 0.000000 0.000000 0.000000 0.000000 0.000000
    52 0.000000 0.000000 0.000000 0.000000 0.000000 0.000000
    53 -25.211707 46.388612 -36.192511 0.626764 -0.683918 -0.742407
    54 0.000000 0.000000 0.000000 0.000000 0.000000 0.000000
    55 0.000000 0.000000 0.000000 0.000000 0.000000 0.000000
    56 0.000000 0.000000 0.000000 0.000000 0.000000 0.000000
    57 0.000000 0.000000 0.000000 0.052966 0.000000 0.000000
    58 0.000000 0.000000 0.000000 0.102074 0.000000 0.000000
    59 0.000000 0.000000 0.000000 0.043696 0.089441 0.087152
    60 0.000000 0.000000 0.000000 -0.215240 0.000000 0.000000
    61 0.000000 0.000000 0.000000 -0.372206 0.000000 0.000000
    62 0.000000 0.000000 0.000000 0.000000 0.000000 0.000000
  time 8
    0 0.000000 0.000000 0.000000 0.000000 0.000000 -1.570796
    1 0.000000 0.000000 0.000000 0.000000 0.000000 0.000000
    2 0.000000 0.000000 0.000000 0.000000 0.000000 0.000000
    3 19.254494 18.281808 -1.085971 -0.410204 0.379896 0.776257
    4 0.000000 0.000000 0.000000 0.000000 0.000000 0.000000
    5 0.000000 0.000000 0.000000 0.000000 0.000000 0.000000
    6 0.000000 0.000000 0.000000 0.000000 0.000000 0.000000
    7 0.000000 0.000000 0.000000 0.000000 0.000000 0.130023
    8 0.000000 0.000000 0.000000 0.000000 0.000000 0.102936
    9 0.000000 0.000000 0.000000 0.000000 0.000000 0.042665
    10 0.000000 0.000000 0.000000 0.000000 0.000000 -0.088341
    11 -1.136753 -0.917997 0.000000 -1.979144 -0.649440 0.917968
    12 1.832087 -0.722678 0.175787 -0.026386 -0.551763 0.419910
    13 0.000000 0.000000 0.000000 0.313347 0.326956 0.980464
    14 0.000000 0.000000 0.000000 0.174458 -0.112070 -0.464346
    15 0.000000 0.000000 0.000000 0.000000 0.000000 0.000000
    16 0.000000 0.000000 0.000000 0.000000 0.000000 0.000000
    17 0.000000 0.000000 0.000000 0.000000 0.000000 0.000000
    18 0.000000 0.000000 0.000000 0.000000 0.000000 0.000000
    19 0.000000 0.000000 0.000000 0.000000 0.000000 0.000000
    20 0.000000 0.000000 0.000000 0.000000 0.000000 0.000000
    21 0.000000 0.000000 0.000000 0.000000 0.000000 0.000000
    22 0.000000 0.000000 0.000000 0.000000 0.000000 0.000000
    23 0.000000 0.000000 0.000000 0.000000 0.000000 0.000000
    24 0.000000 0.000000 0.000000 0.000000 0.000000 0.000000
    25 0.000000 0.000000 0.000000 0.000000 0.000000 0.000000
    26 0.000000 0.000000 0.000000 0.000000 0.000000 0.000000
    27 0.000000 0.000000 0.000000 0.000000 0.000000 0.000000
    28 0.000000 0.000000 0.000000 0.000000 0.000000 0.000000
    29 0.000000 0.000000 0.000000 0.000000 0.000000 0.000000
    30 -1.535203 -1.378948 0.000000 0.162892 0.090966 0.025612
    31 -1.703177 9.379192 -2.433668 1.234384 0.246265 -0.345066
    32 0.000000 0.000000 0.000000 -0.115195 -0.228358 0.389266
    33 0.000000 0.000000 0.000000 -0.205588 0.027945 -0.340117
    34 0.000000 0.000000 0.000000 -0.230081 -0.058173 -0.130872
    35 0.000000 0.000000 0.000000 0.004806 -0.060211 -0.129744
    36 0.000000 0.000000 0.000000 -0.005069 0.001426 -0.136530
    37 0.000000 0.000000 0.000000 0.012045 -0.029087 0.063354
    38 0.000000 0.000000 0.000000 -0.118000 -0.005884 -0.049609
    39 0.000000 0.000000 0.000000 0.000000 0.000000 0.027975
    40 0.000000 0.000000 0.000000 0.006771 0.008737 -0.157485
    41 0.000000 0.000000 0.000000 -0.034384 0.084431 -0.045279
    42 0.000000 0.000000 0.000000 0.000000 0.000000 -0.225255
    43 0.000000 0.000000 0.000000 0.038806 -0.050467 -0.270361
    44 0.000000 0.000000 0.000000 0.000000 0.000000 -0.092451
    45 0.000000 0.000000 0.000000 0.000000 0.000000 -0.050000
    46 0.000000 0.000000 0.000000 0.969417 -0.076725 0.094396
    47 0.000000 0.000000 0.000000 -0.614807 -0.267118 0.141131
    48 0.000000 0.000000 0.000000 0.043888 -0.023969 -0.080529
    49 0.000000 0.000000 0.000000 0.000000 0.000000 0.000000
    50 0.000000 0.000000 0.000000 0.000000 0.000000 0.000000
    51 0.000000 0.000000 0.000000 0.000000 0.000000 0.000000
    52 0.000000 0.000000 0.000000 0.000000 0.000000 0.000000
    53 -25.606250 43.267256 -36.204230 0.570554 -0.748945 -0.689109
    54 0.000000 0.000000 0.000000 0.000000 0.000000 0.000000
    55 0.000000 0.000000 0.000000 0.000000 0.000000 0.000000
    56 0.000000 0.000000 0.000000 0.000000 0.000000 0.000000
    57 0.000000 0.000000 0.000000 0.096884 0.000000 0.000000
    58 0.000000 0.000000 0.000000 0.186557 0.000000 0.000000
    59 0.000000 0.000000 0.000000 0.046944 0.096740 0.089429
    60 0.000000 0.000000 0.000000 -0.196473 0.000000 0.000000
    61 0.000000 0.000000 0.000000 -0.339795 0.000000 0.000000
    62 0.000000 0.000000 0.000000 0.000000 0.000000 0.000000
  time 9
    0 0.000000 0.000000 0.000000 0.000000 0.000000 -1.570796
    1 0.000000 0.000000 0.000000 0.000000 0.000000 0.000000
    2 0.000000 0.000000 0.000000 0.000000 0.000000 0.000000
    3 18.758385 18.231025 -1.371136 -0.327773 0.367954 0.804886
    4 0.000000 0.000000 0.000000 0.000000 0.000000 0.000000
    5 0.000000 0.000000 0.000000 0.000000 0.000000 0.000000
    6 0.000000 0.000000 0.000000 0.000000 0.000000 0.000000
    7 0.000000 0.000000 0.000000 0.000000 0.000000 0.175369
    8 0.000000 0.000000 0.000000 0.000000 0.000000 0.138830
    9 0.000000 0.000000 0.000000 0.000000 0.000000 0.057538
    10 0.000000 0.000000 0.000000 0.000000 0.000000 -0.119144
    11 -1.543016 -1.203162 0.000000 -2.001081 -0.585893 0.888906
    12 1.777398 -0.699240 0.167974 0.017690 -0.502505 0.361375
    13 0.000000 0.000000 0.000000 0.320333 0.334716 0.967710
    14 0.000000 0.000000 0.000000 0.170380 -0.007020 -0.435209
    15 0.000000 0.000000 0.000000 0.000000 0.000000 0.000000
    16 0.000000 0.000000 0.000000 0.000000 0.000000 0.000000
    17 0.000000 0.000000 0.000000 0.000000 0.000000 0.000000
    18 0.000000 0.000000 0.000000 0.000000 0.000000 0.000000
    19 0.000000 0.000000 0.000000 0.000000 0.000000 0.000000
    20 0.000000 0.000000 0.000000 0.000000 0.000000 0.000000
    21 0.000000 0.000000 0.000000 0.000000 0.000000 0.000000
    22 0.000000 0.000000 0.000000 0.000000 0.000000 0.000000
    23 0.000000 0.000000 0.000000 0.000000 0.000000 0.000000
    24 0.000000 0.000000 0.000000 0.000000 0.000000 0.000000
    25 0.000000 0.000000 0.000000 0.000000 0.000000 0.000000
    26 0.000000 0.000000 0.000000 0.000000 0.000000 0.000000
    27 0.000000 0.000000 0.000000 0.000000 0.000000 0.000000
    28 0.000000 0.000000 0.000000 0.000000 0.000000 0.000000
    29 0.000000 0.000000 0.000000 0.000000 0.000000 0.000000
    30 -2.097720 -1.808649 0.000000 0.220564 0.121539 0.038008
    31 -1.941465 9.773736 -3.195410 1.261702 0.252934 -0.291670
    32 0.000000 0.000000 0.000000 -0.083017 -0.258837 0.420551
    33 0.000000 0.000000 0.000000 -0.176240 -0.031275 -0.304902
    34 0.000000 0.000000 0.000000 -0.233052 -0.053727 -0.119426
    35 0.000000 0.000000 0.000000 0.004806 -0.060211 -0.117257
    36 0.000000 0.000000 0.000000 -0.003799 0.001091 -0.124131
    37 0.000000 0.000000 0.000000 0.009528 -0.029362 0.075662
    38 0.000000 0.000000 0.000000 -0.118060 -0.004410 -0.037220
    39 0.000000 0.000000 0.000000 0.000000 0.000000 0.040453
    40 0.000000 0.000000 0.000000 0.005117 0.006520 -0.145319
    41 0.000000 0.000000 0.000000 -0.034851 0.084407 -0.032838
    42 0.000000 0.000000 0.000000 0.000000 0.000000 -0.212763
    43 0.000000 0.000000 0.000000 0.036889 -0.049712 -0.257960
    44 0.000000 0.000000 0.000000 0.000000 0.000000 -0.079973
    45 0.000000 0.000000 0.000000 0.000000 0.000000 -0.037524
    46 0.000000 0.000000 0.000000 0.969079 -0.068816 0.104066
    47 0.000000 0.000000 0.000000 -0.617285 -0.254864 0.141766
    48 0.000000 0.000000 0.000000 0.032922 -0.017989 -0.080323
    49 0.000000 0.000000 0.000000 0.000000 0.000000 0.000000
    50 0.000000 0.000000 0.000000 0.000000 0.000000 0.000000
    51 0.000000 0.000000 0.000000 0.000000 0.000000 0.000000
    52 0.000000 0.000000 0.000000 0.000000 0.000000 0.000000
    53 -26.387524 39.471012 -35.172948 0.490651 -0.797452 -0.612997
    54 0.000000 0.000000 0.000000 0.000000 0.000000 0.000000
    55 0.000000 0.000000 0.000000 0.000000 0.000000 0.000000
    56 0.000000 0.000000 0.000000 0.000000 0.000000 0.000000
    57 0.000000 0.000000 0.000000 0.125213 0.000000 0.000000
    58 0.000000 0.000000 0.000000 0.240929 0.000000 0.000000
    59 0.000000 0.000000 0.000000 0.050179 0.103990 0.091718
    60 0.000000 0.000000 0.000000 -0.170890 0.000000 0.000000
    61 0.000000 0.000000 0.000000 -0.295556 0.000000 0.000000
    62 0.000000 0.000000 0.000000 0.000000 0.000000 0.000000
  time 10
    0 0.000000 0.000000 0.000000 0.000000 0.000000 -1.570796
    1 0.000000 0.000000 0.000000 0.000000 0.000000 0.000000
    2 0.000000 0.000000 0.000000 0.000000 0.000000 0.000000
    3 18.320872 17.848201 -0.972686 -0.260861 0.355037 0.823654
    4 0.000000 0.000000 0.000000 0.000000 0.000000 0.000000
    5 0.000000 0.000000 0.000000 0.000000 0.000000 0.000000
    6 0.000000 0.000000 0.000000 0.000000 0.000000 0.000000
    7 0.000000 0.000000 0.000000 0.000000 0.000000 0.175369
    8 0.000000 0.000000 0.000000 0.000000 0.000000 0.138830
    9 0.000000 0.000000 0.000000 0.000000 0.000000 0.057538
    10 0.000000 0.000000 0.000000 0.000000 0.000000 -0.119144
    11 -1.543016 -1.203162 0.000000 -1.942263 -0.542908 0.815156
    12 1.687551 -0.664083 0.160161 0.050319 -0.450741 0.304456
    13 0.000000 0.000000 0.000000 0.316572 0.349391 0.946266
    14 0.000000 0.000000 0.000000 0.166110 0.065934 -0.414402
    15 0.000000 0.000000 0.000000 0.000000 0.000000 0.000000
    16 0.000000 0.000000 0.000000 0.000000 0.000000 0.000000
    17 0.000000 0.000000 0.000000 0.000000 0.000000 0.000000
    18 0.000000 0.000000 0.000000 0.000000 0.000000 0.000000
    19 0.000000 0.000000 0.000000 0.000000 0.000000 0.000000
    20 0.000000 0.000000 0.000000 0.000000 0.000000 0.000000
    21 0.000000 0.000000 0.000000 0.000000 0.000000 0.000000
    22 0.000000 0.000000 0.000000 0.000000 0.000000 0.000000
    23 0.000000 0.000000 0.000000 0.000000 0.000000 0.000000
    24 0.000000 0.000000 0.000000 0.000000 0.000000 0.000000
    25 0.000000 0.000000 0.000000 0.000000 0.000000 0.000000
    26 0.000000 0.000000 0.000000 0.000000 0.000000 0.000000
    27 0.000000 0.000000 0.000000 0.000000 0.000000 0.000000
    28 0.000000 0.000000 0.000000 0.000000 0.000000 0.000000
    29 0.000000 0.000000 0.000000 0.000000 0.000000 0.000000
    30 -2.097720 -1.808649 0.000000 0.220564 0.121539 0.038008
    31 -2.031312 10.054994 -4.015748 1.284765 0.200334 -0.287747
    32 0.000000 0.000000 0.000000 -0.066071 -0.320677 0.370547
    33 0.000000 0.000000 0.000000 -0.180492 -0.066141 -0.244456
    34 0.000000 0.000000 0.000000 -0.235999 -0.049209 -0.107933
    35 0.000000 0.000000 0.000000 0.004806 -0.060211 -0.104724
    36 0.000000 0.000000 0.000000 -0.002517 0.000743 -0.111663
    37 0.000000 0.000000 0.000000 0.007011 -0.029614 0.088020
    38 0.000000 0.000000 0.000000 -0.118108 -0.002936 -0.024749
    39 0.000000 0.000000 0.000000 0.000000 0.000000 0.053004
    40 0.000000 0.000000 0.000000 0.003428 0.004314 -0.133087
    41 0.000000 0.000000 0.000000 -0.035319 0.084384 -0.020360
    42 0.000000 0.000000 0.000000 0.000000 0.000000 -0.200210
    43 0.000000 0.000000 0.000000 0.034971 -0.048933 -0.245482
    44 0.000000 0.000000 0.000000 0.000000 0.000000 -0.067432
    45 0.000000 0.000000 0.000000 0.000000 0.000000 -0.024951
    46 0.000000 0.000000 0.000000 0.968773 -0.060870 0.113794
    47 0.000000 0.000000 0.000000 -0.619739 -0.242536 0.142377
    48 0.000000 0.000000 0.000000 0.021908 -0.011973 -0.080159
    49 0.000000 0.000000 0.000000 0.000000 0.000000 0.000000
    50 0.000000 0.000000 0.000000 0.000000 0.000000 0.000000
    51 0.000000 0.000000 0.000000 0.000000 0.000000 0.000000
    52 0.000000 0.000000 0.000000 0.000000 0.000000 0.000000
    53 -27.118015 36.831009 -33.794000 0.415128 -0.830529 -0.539827
    54 0.000000 0.000000 0.000000 0.000000 0.000000 0.000000
    55 0.000000 0.000000 0.000000 0.000000 0.000000 0.000000
    56 0.000000 0.000000 0.000000 0.000000 0.000000 0.000000
    57 0.000000 0.000000 0.000000 0.137665 0.000000 0.000000
    58 0.000000 0.000000 0.000000 0.264780 0.000000 0.000000
    59 0.000000 0.000000 0.000000 0.053427 0.111205 0.094019
    60 0.000000 0.000000 0.000000 -0.149589 0.000000 0.000000
    61 0.000000 0.000000 0.000000 -0.258756 0.000000 0.000000
    62 0.000000 0.000000 0.000000 0.000000 0.000000 0.000000
  time 11
    0 0.000000 0.000000 0.000000 0.000000 0.000000 -1.570796
    1 0.000000 0.000000 0.000000 0.000000 0.000000 0.000000
    2 0.000000 0.000000 0.000000 0.000000 0.000000 0.000000
    3 17.727103 17.324747 -0.222663 -0.195437 0.352281 0.833255
    4 0.000000 0.000000 0.000000 0.000000 0.000000 0.000000
    5 0.000000 0.000000 0.000000 0.000000 0.000000 0.000000
    6 0.000000 0.000000 0.000000 0.000000 0.000000 0.000000
    7 0.000000 0.000000 0.000000 0.000000 0.000000 0.175369
    8 0.000000 0.000000 0.000000 0.000000 0.000000 0.138830
    9 0.000000 0.000000 0.000000 0.000000 0.000000 0.057538
    10 0.000000 0.000000 0.000000 0.000000 0.000000 -0.119144
    11 -1.543016 -1.203162 0.000000 -1.874152 -0.492403 0.731401
    12 1.558641 -0.613300 0.148442 0.077225 -0.397770 0.250958
    13 0.000000 0.000000 0.000000 0.313194 0.363940 0.927781
    14 0.000000 0.000000 0.000000 0.164886 0.119065 -0.378595
    15 0.000000 0.000000 0.000000 0.000000 0.000000 0.000000
    16 0.000000 0.000000 0.000000 0.000000 0.000000 0.000000
    17 0.000000 0.000000 0.000000 0.000000 0.000000 0.000000
    18 0.000000 0.000000 0.000000 0.000000 0.000000 0.000000
    19 0.000000 0.000000 0.000000 0.000000 0.000000 0.000000
    20 0.000000 0.000000 0.000000 0.000000 0.000000 0.000000
    21 0.000000 0.000000 0.000000 0.000000 0.000000 0.000000
    22 0.000000 0.000000 0.000000 0.000000 0.000000 0.000000
    23 0.000000 0.000000 0.000000 0.000000 0.000000 0.000000
    24 0.000000 0.000000 0.000000 0.000000 0.000000 0.000000
    25 0.000000 0.000000 0.000000 0.000000 0.000000 0.000000
    26 0.000000 0.000000 0.000000 0.000000 0.000000 0.000000
    27 0.000000 0.000000 0.000000 0.000000 0.000000 0.000000
    28 0.000000 0.000000 0.000000 0.000000 0.000000 0.000000
    29 0.000000 0.000000 0.000000 0.000000 0.000000 0.000000
    30 -2.097720 -1.808649 0.000000 0.220564 0.121539 0.038008
    31 -2.046937 10.179998 -4.929838 1.309625 0.144252 -0.304971
    32 0.000000 0.000000 0.000000 -0.060739 -0.378847 0.334561
    33 0.000000 0.000000 0.000000 -0.197343 -0.090533 -0.203939
    34 0.000000 0.000000 0.000000 -0.238873 -0.044691 -0.096512
    35 0.000000 0.000000 0.000000 0.004806 -0.060211 -0.092237
    36 0.000000 0.000000 0.000000 -0.001258 0.000372 -0.099229
    37 0.000000 0.000000 0.000000 0.004494 -0.029830 0.100328
    38 0.000000 0.000000 0.000000 -0.118132 -0.001462 -0.012333
    39 0.000000 0.000000 0.000000 0.000000 0.000000 0.065482
    40 0.000000 0.000000 0.000000 0.001726 0.002145 -0.120899
    41 0.000000 0.000000 0.000000 -0.035786 0.084372 -0.007883
    42 0.000000 0.000000 0.000000 0.000000 0.000000 -0.187718
    43 0.000000 0.000000 0.000000 0.033065 -0.048130 -0.233066
    44 0.000000 0.000000 0.000000 0.000000 0.000000 -0.054934
    45 0.000000 0.000000 0.000000 0.000000 0.000000 -0.012476
    46 0.000000 0.000000 0.000000 0.968589 -0.052948 0.123464
    47 0.000000 0.000000 0.000000 -0.622169 -0.230282 0.142940
    48 0.000000 0.000000 0.000000 0.010954 -0.005980 -0.080035
    49 0.000000 0.000000 0.000000 0.000000 0.000000 0.000000
    50 0.000000 0.000000 0.000000 0.000000 0.000000 0.000000
    51 0.000000 0.000000 0.000000 0.000000 0.000000 0.000000
    52 0.000000 0.000000 0.000000 0.000000 0.000000 0.000000
    53 -26.918790 34.300180 -32.817408 0.342875 -0.857195 -0.455467
    54 0.000000 0.000000 0.000000 0.000000 0.000000 0.000000
    55 0.000000 0.000000 0.000000 0.000000 0.000000 0.000000
    56 0.000000 0.000000 0.000000 0.000000 0.000000 0.000000
    57 0.000000 0.000000 0.000000 0.146641 0.000000 0.000000
    58 0.000000 0.000000 0.000000 0.281960 0.000000 0.000000
    59 0.000000 0.000000 0.000000 0.056663 0.118336 0.096320
    60 0.000000 0.000000 0.000000 -0.117724 0.000000 0.000000
    61 0.000000 0.000000 0.000000 -0.203660 0.000000 0.000000
    62 0.000000 0.000000 0.000000 0.000000 0.000000 0.000000
  time 12
    0 0.000000 0.000000 0.000000 0.000000 0.000000 -1.570796
    1 0.000000 0.000000 0.000000 0.000000 0.000000 0.000000
    2 0.000000 0.000000 0.000000 0.000000 0.000000 0.000000
    3 17.066927 16.863796 0.289071 -0.142280 0.367495 0.825470
    4 0.000000 0.000000 0.000000 0.000000 0.000000 0.000000
    5 0.000000 0.000000 0.000000 0.000000 0.000000 0.000000
    6 0.000000 0.000000 0.000000 0.000000 0.000000 0.000000
    7 0.000000 0.000000 0.000000 0.000000 0.000000 0.175369
    8 0.000000 0.000000 0.000000 0.000000 0.000000 0.138830
    9 0.000000 0.000000 0.000000 0.000000 0.000000 0.057538
    10 0.000000 0.000000 0.000000 0.000000 0.000000 -0.119144
    11 -1.543016 -1.203162 0.000000 -1.807573 -0.457802 0.660224
    12 1.402387 -0.550798 0.132817 0.094767 -0.351113 0.207722
    13 0.000000 0.000000 0.000000 0.305364 0.356518 0.898112
    14 0.000000 0.000000 0.000000 0.167597 0.167247 -0.330887
    15 0.000000 0.000000 0.000000 0.000000 0.000000 0.000000
    16 0.000000 0.000000 0.000000 0.000000 0.000000 0.000000
    17 0.000000 0.000000 0.000000 0.000000 0.000000 0.000000
    18 0.000000 0.000000 0.000000 0.000000 0.000000 0.000000
    19 0.000000 0.000000 0.000000 0.000000 0.000000 0.000000
    20 0.000000 0.000000 0.000000 0.000000 0.000000 0.000000
    21 0.000000 0.000000 0.000000 0.000000 0.000000 0.000000
    22 0.000000 0.000000 0.000000 0.000000 0.000000 0.000000
    23 0.000000 0.000000 0.000000 0.000000 0.000000 0.000000
    24 0.000000 0.000000 0.000000 0.000000 0.000000 0.000000
    25 0.000000 0.000000 0.000000 0.000000 0.000000 0.000000
    26 0.000000 0.000000 0.000000 0.000000 0.000000 0.000000
    27 0.000000 0.000000 0.000000 0.000000 0.000000 0.000000
    28 0.000000 0.000000 0.000000 0.000000 0.000000 0.000000
    29 0.000000 0.000000 0.000000 0.000000 0.000000 0.000000
    30 -2.097720 -1.808649 0.000000 0.220564 0.121539 0.038008
    31 -1.929746 10.109684 -5.660329 1.336754 0.132717 -0.315784
    32 0.000000 0.000000 0.000000 -0.076067 -0.415412 0.366615
    33 0.000000 0.000000 0.000000 -0.216943 -0.111744 -0.205603
    34 0.000000 0.000000 0.000000 -0.241688 -0.040136 -0.085127
    35 0.000000 0.000000 0.000000 0.004806 -0.060211 -0.079749
    36 0.000000 0.000000 0.000000 0.000000 0.000000 -0.086830
    37 0.000000 0.000000 0.000000 0.001977 -0.030009 0.112636
    38 0.000000 0.000000 0.000000 -0.118144 0.000000 0.000028
    39 0.000000 0.000000 0.000000 0.000000 0.000000 0.077961
    40 0.000000 0.000000 0.000000 0.000000 0.000000 -0.108734
    41 0.000000 0.000000 0.000000 -0.036241 0.084360 0.004483
    42 0.000000 0.000000 0.000000 0.000000 0.000000 -0.175226
    43 0.000000 0.000000 0.000000 0.031184 -0.047303 -0.220664
    44 0.000000 0.000000 0.000000 0.000000 0.000000 -0.042457
    45 0.000000 0.000000 0.000000 0.000000 0.000000 0.000000
    46 0.000000 0.000000 0.000000 0.968435 -0.045026 0.133120
    47 0.000000 0.000000 0.000000 -0.624600 -0.218015 0.143480
    48 0.000000 0.000000 0.000000 0.000000 0.000000 -0.079994
    49 0.000000 0.000000 0.000000 0.000000 0.000000 0.000000
    50 0.000000 0.000000 0.000000 0.000000 0.000000 0.000000
    51 0.000000 0.000000 0.000000 0.000000 0.000000 0.000000
    52 0.000000 0.000000 0.000000 0.000000 0.000000 0.000000
    53 -25.301553 31.322734 -32.809595 0.292095 -0.870264 -0.370432
    54 0.000000 0.000000 0.000000 0.000000 0.000000 0.000000
    55 0.000000 0.000000 0.000000 0.000000 0.000000 0.000000
    56 0.000000 0.000000 0.000000 0.000000 0.000000 0.000000
    57 0.000000 0.000000 0.000000 0.152987 0.000000 0.000000
    58 0.000000 0.000000 0.000000 0.294160 0.000000 0.000000
    59 0.000000 0.000000 0.000000 0.059887 0.125395 0.098633
    60 0.000000 0.000000 0.000000 -0.084085 0.000000 0.000000
    61 0.000000 0.000000 0.000000 -0.145491 0.000000 0.000000
    62 0.000000 0.000000 0.000000 0.000000 0.000000 0.000000
  time 13
    0 0.000000 0.000000 0.000000 0.000000 0.000000 -1.570796
    1 0.000000 0.000000 0.000000 0.000000 0.000000 0.000000
    2 0.000000 0.000000 0.000000 0.000000 0.000000 0.000000
    3 16.453627 16.070803 0.343760 -0.112541 0.443796 0.775998
    4 0.000000 0.000000 0.000000 0.000000 0.000000 0.000000
    5 0.000000 0.000000 0.000000 0.000000 0.000000 0.000000
    6 0.000000 0.000000 0.000000 0.000000 0.000000 0.000000
    7 0.000000 0.000000 0.000000 0.000000 0.000000 0.175369
    8 0.000000 0.000000 0.000000 0.000000 0.000000 0.138830
    9 0.000000 0.000000 0.000000 0.000000 0.000000 0.057538
    10 0.000000 0.000000 0.000000 0.000000 0.000000 -0.119144
    11 -1.543016 -1.203162 0.000000 -1.707658 -0.399446 0.538642
    12 1.222694 -0.480483 0.117191 0.123159 -0.253853 0.124101
    13 0.000000 0.000000 0.000000 0.284638 0.315696 0.810399
    14 0.000000 0.000000 0.000000 0.186813 0.237196 -0.227287
    15 0.000000 0.000000 0.000000 0.000048 -0.000180 0.000000
    16 0.000000 0.000000 0.000000 0.000000 0.000000 0.000000
    17 0.000000 0.000000 0.000000 0.000000 0.000000 0.000000
    18 0.000000 0.000000 0.000000 0.000048 -0.000180 0.000000
    19 0.000000 0.000000 0.000000 0.000000 0.000000 0.000000
    20 0.000000 0.000000 0.000000 0.000000 0.000000 0.000000
    21 0.000000 0.000000 0.000000 0.000108 -0.000144 0.000000
    22 0.000000 0.000000 0.000000 0.000000 0.000000 0.000000
    23 0.000000 0.000000 0.000000 0.000000 0.000000 0.000000
    24 0.000000 0.000000 0.000000 0.000096 -0.000156 0.000000
    25 0.000000 0.000000 0.000000 0.000000 0.000000 0.000000
    26 0.000000 0.000000 0.000000 0.000000 0.000000 0.000000
    27 0.000000 0.000000 0.000000 0.000031 0.000052 0.000149
    28 0.000000 0.000000 0.000000 0.000000 0.000000 0.000000
    29 0.000000 0.000000 0.000000 0.000000 0.000000 0.000000
    30 -2.097720 -1.808649 0.000000 0.220564 0.121539 0.038008
    31 -1.687551 9.887020 -6.019715 1.359439 0.149454 -0.283919
    32 0.000000 0.000000 0.000000 -0.087777 -0.495930 0.430638
    33 0.000000 0.000000 0.000000 -0.234883 -0.131160 -0.249332
    34 0.000000 0.000000 0.000000 -0.241688 -0.040136 -0.085127
    35 0.000000 0.000000 0.000000 0.004806 -0.060211 -0.079749
    36 0.000000 0.000000 0.000000 0.000000 0.000000 -0.086830
    37 0.000000 0.000000 0.000000 0.001977 -0.030009 0.112636
    38 0.000000 0.000000 0.000000 -0.118144 0.000000 0.000028
    39 0.000000 0.000000 0.000000 0.000000 0.000000 0.077961
    40 0.000000 0.000000 0.000000 0.000000 0.000000 -0.108734
    41 0.000000 0.000000 0.000000 -0.036241 0.084360 0.004483
    42 0.000000 0.000000 0.000000 0.000000 0.000000 -0.175226
    43 0.000000 0.000000 0.000000 0.031184 -0.047303 -0.220664
    44 0.000000 0.000000 0.000000 0.000000 0.000000 -0.042457
    45 0.000000 0.000000 0.000000 0.000000 0.000000 0.000000
    46 0.000000 0.000000 0.000000 0.968435 -0.045026 0.133120
    47 0.000000 0.000000 0.000000 -0.624600 -0.218015 0.143480
    48 0.000000 0.000000 0.000000 0.000000 0.000000 -0.079994
    49 0.000000 0.000000 0.000000 0.000000 0.000000 0.000000
    50 0.000000 0.000000 0.000000 0.000000 0.000000 0.000000
    51 0.000000 0.000000 0.000000 0.000000 0.000000 0.000000
    52 0.000000 0.000000 0.000000 0.000000 0.000000 0.000000
    53 -19.356059 26.980625 -35.133885 0.310235 -0.866671 -0.283467
    54 0.000000 0.000000 0.000000 0.000000 0.000000 0.000000
    55 0.000000 0.000000 0.000000 0.000000 0.000000 0.000000
    56 0.000000 0.000000 0.000000 0.000000 0.000000 0.000000
    57 0.000000 0.000000 0.000000 0.151129 0.000000 0.000000
    58 0.000000 0.000000 0.000000 0.290596 0.000000 0.000000
    59 0.000000 0.000000 0.000000 0.059887 0.125395 0.098633
    60 0.000000 0.000000 0.000000 -0.049965 0.000000 0.000000
    61 0.000000 0.000000 0.000000 -0.086468 0.000000 0.000000
    62 0.000000 0.000000 0.000000 0.000000 0.000029 0.000168
  time 14
    0 0.000000 0.000000 0.000000 0.000000 0.000000 -1.570796
    1 0.000000 0.000000 0.000000 0.000000 0.000000 0.000000
    2 0.000000 0.000000 0.000000 0.000000 0.000000 0.000000
    3 15.777825 14.734825 0.164068 -0.107616 0.553166 0.686825
    4 0.000000 0.000000 0.000000 0.000000 0.000000 0.000000
    5 0.000000 0.000000 0.000000 0.000000 0.000000 0.000000
    6 0.000000 0.000000 0.000000 0.000000 0.000000 0.000000
    7 0.000000 0.000000 0.000000 0.000000 0.000000 0.175369
    8 0.000000 0.000000 0.000000 0.000000 0.000000 0.138830
    9 0.000000 0.000000 0.000000 0.000000 0.000000 0.057538
    10 0.000000 0.000000 0.000000 0.000000 0.000000 -0.119144
    11 -1.543016 -1.203162 0.000000 -1.570479 -0.315338 0.378469
    12 1.027375 -0.402356 0.097659 0.153039 -0.117734 0.023946
    13 0.000000 0.000000 0.000000 0.263221 0.221527 0.658911
    14 0.000000 0.000000 0.000000 0.230932 0.314645 -0.103781
    15 0.000000 0.000000 0.000000 0.000156 0.000419 0.000028
    16 0.000000 0.000000 0.000000 0.000000 0.000000 0.000000
    17 0.000000 0.000000 0.000000 0.000000 0.000000 0.000000
    18 0.000000 0.000000 0.000000 0.000144 0.000419 0.000000
    19 0.000000 0.000000 0.000000 0.000000 0.000000 0.000000
    20 0.000000 0.000000 0.000000 0.000000 0.000000 0.000000
    21 0.000000 0.000000 0.000000 0.000000 0.000455 0.000000
    22 0.000000 0.000000 0.000000 0.000000 0.000000 0.000000
    23 0.000000 0.000000 0.000000 0.000000 0.000000 0.000000
    24 0.000000 0.000000 0.000000 0.000036 0.000443 0.000037
    25 0.000000 0.000000 0.000000 0.000000 0.000000 0.000000
    26 0.000000 0.000000 0.000000 0.000000 0.000000 0.000000
    27 0.000000 0.000000 0.000000 0.000187 -0.000167 -0.000357
    28 0.000000 0.000000 0.000000 0.000000 0.000000 0.000000
    29 0.000000 0.000000 0.000000 0.000000 0.000000 0.000000
    30 -2.097720 -1.808649 0.000000 0.220564 0.121539 0.038008
    31 -1.398480 9.387005 -5.992370 1.349420 0.175502 -0.220762
    32 0.000000 0.000000 0.000000 -0.079304 -0.613896 0.470727
    33 0.000000 0.000000 0.000000 -0.242039 -0.145900 -0.295189
    34 0.000000 0.000000 0.000000 -0.241688 -0.040136 -0.085127
    35 0.000000 0.000000 0.000000 0.004806 -0.060211 -0.079749
    36 0.000000 0.000000 0.000000 0.000000 0.000000 -0.086830
    37 0.000000 0.000000 0.000000 0.001977 -0.030009 0.112636
    38 0.000000 0.000000 0.000000 -0.118144 0.000000 0.000028
    39 0.000000 0.000000 0.000000 0.000000 0.000000 0.077961
    40 0.000000 0.000000 0.000000 0.000000 0.000000 -0.108734
    41 0.000000 0.000000 0.000000 -0.036241 0.084360 0.004483
    42 0.000000 0.000000 0.000000 0.000000 0.000000 -0.175226
    43 0.000000 0.000000 0.000000 0.031184 -0.047303 -0.220664
    44 0.000000 0.000000 0.000000 0.000000 0.000000 -0.042457
    45 0.000000 0.000000 0.000000 0.000000 0.000000 0.000000
    46 0.000000 0.000000 0.000000 0.968435 -0.045026 0.133120
    47 0.000000 0.000000 0.000000 -0.624600 -0.218015 0.143480
    48 0.000000 0.000000 0.000000 0.000000 0.000000 -0.079994
    49 0.000000 0.000000 0.000000 0.000000 0.000000 0.000000
    50 0.000000 0.000000 0.000000 0.000000 0.000000 0.000000
    51 0.000000 0.000000 0.000000 0.000000 0.000000 0.000000
    52 0.000000 0.000000 0.000000 0.000000 0.000000 0.000000
    53 -10.410474 21.745282 -37.372234 0.367371 -0.846134 -0.190522
    54 0.000000 0.000000 0.000000 0.000000 0.000000 0.000000
    55 0.000000 0.000000 0.000000 0.000000 0.000000 0.000000
    56 0.000000 0.000000 0.000000 0.000000 0.000000 0.000000
    57 0.000000 0.000000 0.000000 0.139474 0.000000 0.000000
    58 0.000000 0.000000 0.000000 0.268253 0.000000 0.000000
    59 0.000000 0.000000 0.000000 0.059887 0.125395 0.098633
    60 0.000000 0.000000 0.000000 -0.002241 0.000000 0.000000
    61 0.000000 0.000000 0.000000 -0.003881 0.000000 0.000000
    62 0.000000 0.000000 0.000000 -0.000240 0.000000 -0.000363
  time 15
    0 0.000000 0.000000 0.000000 0.000000 0.000000 -1.570796
    1 0.000000 0.000000 0.000000 0.000000 0.000000 0.000000
    2 0.000000 0.000000 0.000000 0.000000 0.000000 0.000000
    3 14.809046 13.281655 -0.167974 -0.108080 0.601736 0.600334
    4 0.000000 0.000000 0.000000 0.000000 0.000000 0.000000
    5 0.000000 0.000000 0.000000 0.000000 0.000000 0.000000
    6 0.000000 0.000000 0.000000 0.000000 0.000000 0.000000
    7 0.000000 0.000000 0.000000 0.000000 0.000000 0.175369
    8 0.000000 0.000000 0.000000 0.000000 0.000000 0.138830
    9 0.000000 0.000000 0.000000 0.000000 0.000000 0.057538
    10 0.000000 0.000000 0.000000 0.000000 0.000000 -0.119144
    11 -1.543016 -1.203162 0.000000 -1.438376 -0.231895 0.260698
    12 0.824244 -0.324229 0.078127 0.169985 0.002368 -0.045706
    13 0.000000 0.000000 0.000000 0.255007 0.123057 0.513431
    14 0.000000 0.000000 0.000000 0.267445 0.380857 -0.024737
    15 0.000000 0.000000 0.000000 0.000000 0.000000 0.000000
    16 0.000000 0.000000 0.000000 0.000000 0.000000 0.000000
    17 0.000000 0.000000 0.000000 0.000000 0.000000 0.000000
    18 0.000000 0.000000 0.000000 0.000000 0.000000 0.000000
    19 0.000000 0.000000 0.000000 0.000000 0.000000 0.000000
    20 0.000000 0.000000 0.000000 0.000000 0.000000 0.000000
    21 0.000000 0.000000 0.000000 0.000000 0.000000 0.000000
    22 0.000000 0.000000 0.000000 0.000000 0.000000 0.000000
    23 0.000000 0.000000 0.000000 0.000000 0.000000 0.000000
    24 0.000000 0.000000 0.000000 0.000000 0.000000 0.000000
    25 0.000000 0.000000 0.000000 0.000000 0.000000 0.000000
    26 0.000000 0.000000 0.000000 0.000000 0.000000 0.000000
    27 0.000000 0.000000 0.000000 0.000000 0.000000 0.000000
    28 0.000000 0.000000 0.000000 0.000000 0.000000 0.000000
    29 0.000000 0.000000 0.000000 0.000000 0.000000 0.000000
    30 -2.097720 -1.808649 0.000000 0.220564 0.121539 0.038008
    31 -1.109409 8.433851 -5.586108 1.249792 0.240309 -0.143156
    32 0.000000 0.000000 0.000000 -0.036272 -0.658081 0.490216
    33 0.000000 0.000000 0.000000 -0.201854 -0.139577 -0.325915
    34 0.000000 0.000000 0.000000 -0.241688 -0.040136 -0.085127
    35 0.000000 0.000000 0.000000 0.004806 -0.060211 -0.079749
    36 0.000000 0.000000 0.000000 0.000000 0.000000 -0.086795
    37 0.000000 0.000000 0.000000 0.001977 -0.030009 0.112636
    38 0.000000 0.000000 0.000000 -0.118144 0.000000 0.000028
    39 0.000000 0.000000 0.000000 0.000000 0.000000 0.077961
    40 0.000000 0.000000 0.000000 0.000000 0.000000 -0.108734
    41 0.000000 0.000000 0.000000 -0.036241 0.084360 0.004483
    42 0.000000 0.000000 0.000000 0.000000 0.000000 -0.175226
    43 0.000000 0.000000 0.000000 0.031184 -0.047303 -0.220664
    44 0.000000 0.000000 0.000000 0.000000 0.000000 -0.042457
    45 0.000000 0.000000 0.000000 0.000000 0.000000 0.000000
    46 0.000000 0.000000 0.000000 0.968435 -0.045026 0.133120
    47 0.000000 0.000000 0.000000 -0.624600 -0.218015 0.143480
    48 0.000000 0.000000 0.000000 0.000000 0.000000 -0.079994
    49 0.000000 0.000000 0.000000 0.000000 0.000000 0.000000
    50 0.000000 0.000000 0.000000 0.000000 0.000000 0.000000
    51 0.000000 0.000000 0.000000 0.000000 0.000000 0.000000
    52 0.000000 0.000000 0.000000 0.000000 0.000000 0.000000
    53 -4.890774 17.021067 -36.426893 0.375577 -0.806117 -0.106161
    54 0.000000 0.000000 0.000000 0.000000 0.000000 0.000000
    55 0.000000 0.000000 0.000000 0.000000 0.000000 0.000000
    56 0.000000 0.000000 0.000000 0.000000 0.000000 0.000000
    57 0.000000 0.000000 0.000000 0.124610 0.000000 0.000000
    58 0.000000 0.000000 0.000000 0.239741 0.000000 0.000000
    59 0.000000 0.000000 0.000000 0.059887 0.125395 0.098633
    60 0.000000 0.000000 0.000000 0.063944 0.000000 0.000000
    61 0.000000 0.000000 0.000000 0.110701 0.000000 0.000000
    62 0.000000 0.000000 0.000000 0.000000 0.000000 0.000000
  time 16
    0 0.000000 0.000000 0.000000 0.000000 0.000000 -1.570796
    1 0.000000 0.000000 0.000000 0.000000 0.000000 0.000000
    2 0.000000 0.000000 0.000000 0.000000 0.000000 0.000000
    3 13.379315 11.707389 -0.636738 -0.098508 0.566026 0.513238
    4 0.000000 0.000000 0.000000 0.000000 0.000000 0.000000
    5 0.000000 0.000000 0.000000 0.000000 0.000000 0.000000
    6 0.000000 0.000000 0.000000 0.000000 0.000000 0.000000
    7 0.000000 0.000000 0.000000 0.000000 0.000000 0.175369
    8 0.000000 0.000000 0.000000 0.000000 0.000000 0.138806
    9 0.000000 0.000000 0.000000 0.000000 0.000000 0.057538
    10 0.000000 0.000000 0.000000 0.000000 0.000000 -0.119144
    11 -1.543016 -1.203162 0.000000 -1.305507 -0.137607 0.179325
    12 0.625019 -0.246101 0.058596 0.171843 0.117966 -0.098730
    13 0.000000 0.000000 0.000000 0.242725 0.046557 0.373497
    14 0.000000 0.000000 0.000000 0.284550 0.451639 0.016804
    15 0.000000 0.000000 0.000000 0.000000 0.000000 0.000000
    16 0.000000 0.000000 0.000000 0.000000 0.000000 0.000000
    17 0.000000 0.000000 0.000000 0.000000 0.000000 0.000000
    18 0.000000 0.000000 0.000000 0.000000 0.000000 0.000000
    19 0.000000 0.000000 0.000000 0.000000 0.000000 0.000000
    20 0.000000 0.000000 0.000000 0.000000 0.000000 0.000000
    21 0.000000 0.000000 0.000000 0.000000 0.000000 0.000000
    22 0.000000 0.000000 0.000000 0.000000 0.000000 0.000000
    23 0.000000 0.000000 0.000000 0.000000 0.000000 0.000000
    24 0.000000 0.000000 0.000000 0.000000 0.000000 0.000000
    25 0.000000 0.000000 0.000000 0.000000 0.000000 0.000000
    26 0.000000 0.000000 0.000000 0.000000 0.000000 0.000000
    27 0.000000 0.000000 0.000000 0.000000 0.000000 0.000000
    28 0.000000 0.000000 0.000000 0.000000 0.000000 0.000000
    29 0.000000 0.000000 0.000000 0.000000 0.000000 0.000000
    30 -2.097720 -1.808649 0.000000 0.220564 0.121539 0.038008
    31 -0.828150 7.074435 -4.820460 1.028417 0.351675 -0.056267
    32 0.000000 0.000000 0.000000 0.053885 -0.619471 0.485857
    33 0.000000 0.000000 0.000000 -0.105879 -0.108489 -0.335822
    34 0.000000 0.000000 0.000000 -0.241688 -0.040136 -0.085127
    35 0.000000 0.000000 0.000000 0.004806 -0.060211 -0.079749
    36 0.000000 0.000000 0.000000 0.000000 0.000000 -0.086795
    37 0.000000 0.000000 0.000000 0.001977 -0.030009 0.112636
    38 0.000000 0.000000 0.000000 -0.118144 0.000000 0.000028
    39 0.000000 0.000000 0.000000 0.000000 0.000000 0.077961
    40 0.000000 0.000000 0.000000 0.000000 0.000000 -0.108734
    41 0.000000 0.000000 0.000000 -0.036241 0.084360 0.004483
    42 0.000000 0.000000 0.000000 0.000000 0.000000 -0.175226
    43 0.000000 0.000000 0.000000 0.031184 -0.047303 -0.220664
    44 0.000000 0.000000 0.000000 0.000000 0.000000 -0.042457
    45 0.000000 0.000000 0.000000 0.000000 0.000000 0.000000
    46 0.000000 0.000000 0.000000 0.968435 -0.045026 0.133120
    47 0.000000 0.000000 0.000000 -0.624600 -0.218015 0.143480
    48 0.000000 0.000000 0.000000 0.000000 0.000000 -0.079994
    49 0.000000 0.000000 0.000000 0.000000 0.000000 0.000000
    50 0.000000 0.000000 0.000000 0.000000 0.000000 0.000000
    51 0.000000 0.000000 0.000000 0.000000 0.000000 0.000000
    52 0.000000 0.000000 0.000000 0.000000 0.000000 0.000000
    53 -3.812616 11.894898 -32.227546 0.317023 -0.724111 -0.028651
    54 0.000000 0.000000 0.000000 0.000000 0.000000 0.000000
    55 0.000000 0.000000 0.000000 0.000000 0.000000 0.000000
    56 0.000000 0.000000 0.000000 0.000000 0.000000 0.000000
    57 0.000000 0.000000 0.000000 0.103785 0.000000 0.000000
    58 0.000000 0.000000 0.000000 0.199807 0.000000 0.000000
    59 0.000000 0.000000 0.000000 0.059887 0.125395 0.098633
    60 0.000000 0.000000 0.000000 0.130462 0.000000 0.000000
    61 0.000000 0.000000 0.000000 0.225860 0.000000 0.000000
    62 0.000000 0.000000 0.000000 0.000000 0.000000 0.000000
  time 17
    0 0.000000 0.000000 0.000000 0.000000 0.000000 -1.570796
    1 0.000000 0.000000 0.000000 0.000000 0.000000 0.000000
    2 0.000000 0.000000 0.000000 0.000000 0.000000 0.000000
    3 11.648793 9.867489 -1.230506 -0.085033 0.490587 0.393880
    4 0.000000 0.000000 0.000000 0.000000 0.000000 0.000000
    5 0.000000 0.000000 0.000000 0.000000 0.000000 0.000000
    6 0.000000 0.000000 0.000000 0.000000 0.000000 0.000000
    7 0.000000 0.000000 0.000000 0.000000 0.000000 0.167812
    8 0.000000 0.000000 0.000000 0.000000 0.000000 0.132837
    9 0.000000 0.000000 0.000000 0.000000 0.000000 0.055057
    10 0.000000 0.000000 0.000000 0.000000 0.000000 -0.114001
    11 -1.476608 -1.156285 0.000000 -1.132883 -0.051902 0.124346
    12 0.445326 -0.175787 0.039064 0.163147 0.227297 -0.136739
    13 0.000000 0.000000 0.000000 0.232516 -0.039093 0.215355
    14 0.000000 0.000000 0.000000 0.290932 0.514063 0.052756
    15 0.000000 0.000000 0.000000 -0.000084 -0.000048 0.000028
    16 0.000000 0.000000 0.000000 0.000000 0.000000 0.000000
    17 0.000000 0.000000 0.000000 0.000000 0.000000 0.000000
    18 0.000000 0.000000 0.000000 -0.000084 -0.000048 0.000054
    19 0.000000 0.000000 0.000000 0.000000 0.000000 0.000000
    20 0.000000 0.000000 0.000000 0.000000 0.000000 0.000000
    21 0.000000 0.000000 0.000000 -0.000060 -0.000072 0.000038
    22 0.000000 0.000000 0.000000 0.000000 0.000000 0.000000
    23 0.000000 0.000000 0.000000 0.000000 0.000000 0.000000
    24 0.000000 0.000000 0.000000 -0.000072 -0.000072 0.000000
    25 0.000000 0.000000 0.000000 0.000000 0.000000 0.000000
    26 0.000000 0.000000 0.000000 0.000000 0.000000 0.000000
    27 0.000000 0.000000 0.000000 -0.000062 0.000077 0.000000
    28 0.000000 0.000000 0.000000 0.000000 0.000000 0.000000
    29 0.000000 0.000000 0.000000 0.000000 0.000000 0.000000
    30 -2.000061 -1.738334 0.000000 0.210963 0.116535 0.035792
    31 -0.574236 5.445479 -3.793085 0.755717 0.499703 0.008134
    32 0.000000 0.000000 0.000000 0.143185 -0.561394 0.499106
    33 0.000000 0.000000 0.000000 -0.001504 -0.084023 -0.333964
    34 0.000000 0.000000 0.000000 -0.241688 -0.040136 -0.085127
    35 0.000000 0.000000 0.000000 0.004806 -0.060211 -0.079749
    36 0.000000 0.000000 0.000000 0.000000 0.000000 -0.086795
    37 0.000000 0.000000 0.000000 0.001977 -0.030009 0.112636
    38 0.000000 0.000000 0.000000 -0.118144 0.000000 0.000028
    39 0.000000 0.000000 0.000000 0.000000 0.000000 0.077961
    40 0.000000 0.000000 0.000000 0.000000 0.000000 -0.108734
    41 0.000000 0.000000 0.000000 -0.036241 0.084360 0.004483
    42 0.000000 0.000000 0.000000 0.000000 0.000000 -0.175226
    43 0.000000 0.000000 0.000000 0.031184 -0.047303 -0.220664
    44 0.000000 0.000000 0.000000 0.000000 0.000000 -0.042457
    45 0.000000 0.000000 0.000000 0.000000 0.000000 0.000000
    46 0.000000 0.000000 0.000000 0.968435 -0.045026 0.133120
    47 0.000000 0.000000 0.000000 -0.624600 -0.218015 0.143480
    48 0.000000 0.000000 0.000000 0.000000 0.000000 -0.079994
    49 0.000000 0.000000 0.000000 0.000000 0.000000 0.000000
    50 0.000000 0.000000 0.000000 0.000000 0.000000 0.000000
    51 0.000000 0.000000 0.000000 0.000000 0.000000 0.000000
    52 0.000000 0.000000 0.000000 0.000000 0.000000 0.000000
    53 -2.972747 5.652185 -25.969543 0.245325 -0.591096 0.044278
    54 0.000000 0.000000 0.000000 0.000000 0.000000 0.000000
    55 0.000000 0.000000 0.000000 0.000000 0.000000 0.000000
    56 0.000000 0.000000 0.000000 0.000000 0.000000 0.000000
    57 0.000000 0.000000 0.000000 0.069834 0.000000 0.000000
    58 0.000000 0.000000 0.000000 0.134515 0.000000 0.000000
    59 0.000000 0.000000 0.000000 0.059887 0.125395 0.098633
    60 0.000000 0.000000 0.000000 0.186549 0.000000 0.000000
    61 0.000000 0.000000 0.000000 0.323024 0.000000 0.000000
    62 0.000000 0.000000 0.000000 0.000060 -0.000059 0.000028
  time 18
    0 0.000000 0.000000 0.000000 0.000000 0.000000 -1.570796
    1 0.000000 0.000000 0.000000 0.000000 0.000000 0.000000
    2 0.000000 0.000000 0.000000 0.000000 0.000000 0.000000
    3 9.797174 7.945555 -1.871151 -0.064030 0.389254 0.258608
    4 0.000000 0.000000 0.000000 0.000000 0.000000 0.000000
    5 0.000000 0.000000 0.000000 0.000000 0.000000 0.000000
    6 0.000000 0.000000 0.000000 0.000000 0.000000 0.000000
    7 0.000000 0.000000 0.000000 0.000000 0.000000 0.147966
    8 0.000000 0.000000 0.000000 0.000000 0.000000 0.117137
    9 0.000000 0.000000 0.000000 0.000000 0.000000 0.048550
    10 0.000000 0.000000 0.000000 0.000000 0.000000 -0.100538
    11 -1.296915 -1.035188 0.000000 -0.922132 0.000266 0.104241
    12 0.289071 -0.113285 0.027345 0.146647 0.306499 -0.151183
    13 0.000000 0.000000 0.000000 0.222460 -0.112387 0.059246
    14 0.000000 0.000000 0.000000 0.280496 0.546563 0.083155
    15 0.000000 0.000000 0.000000 -0.000084 -0.000048 0.000028
    16 0.000000 0.000000 0.000000 0.000000 0.000000 0.000000
    17 0.000000 0.000000 0.000000 0.000000 0.000000 0.000000
    18 0.000000 0.000000 0.000000 -0.000084 -0.000048 0.000054
    19 0.000000 0.000000 0.000000 0.000000 0.000000 0.000000
    20 0.000000 0.000000 0.000000 0.000000 0.000000 0.000000
    21 0.000000 0.000000 0.000000 -0.000060 -0.000072 0.000038
    22 0.000000 0.000000 0.000000 0.000000 0.000000 0.000000
    23 0.000000 0.000000 0.000000 0.000000 0.000000 0.000000
    24 0.000000 0.000000 0.000000 -0.000072 -0.000072 0.000000
    25 0.000000 0.000000 0.000000 0.000000 0.000000 0.000000
    26 0.000000 0.000000 0.000000 0.000000 0.000000 0.000000
    27 0.000000 0.000000 0.000000 -0.000062 0.000077 0.000000
    28 0.000000 0.000000 0.000000 0.000000 0.000000 0.000000
    29 0.000000 0.000000 0.000000 0.000000 0.000000 0.000000
    30 -1.753960 -1.554735 0.000000 0.185687 0.103168 0.030292
    31 -0.359386 3.738395 -2.652425 0.531790 0.632168 0.009474
    32 0.000000 0.000000 0.000000 0.170128 -0.508521 0.563983
    33 0.000000 0.000000 0.000000 0.054495 -0.096556 -0.319298
    34 0.000000 0.000000 0.000000 -0.241688 -0.040136 -0.085127
    35 0.000000 0.000000 0.000000 0.004806 -0.060211 -0.079749
    36 0.000000 0.000000 0.000000 0.000000 0.000000 -0.086795
    37 0.000000 0.000000 0.000000 0.001977 -0.030009 0.112636
    38 0.000000 0.000000 0.000000 -0.118144 0.000000 0.000028
    39 0.000000 0.000000 0.000000 0.000000 0.000000 0.077961
    40 0.000000 0.000000 0.000000 0.000000 0.000000 -0.108734
    41 0.000000 0.000000 0.000000 -0.036241 0.084360 0.004483
    42 0.000000 0.000000 0.000000 0.000000 0.000000 -0.175226
    43 0.000000 0.000000 0.000000 0.031184 -0.047303 -0.220664
    44 0.000000 0.000000 0.000000 0.000000 0.000000 -0.042457
    45 0.000000 0.000000 0.000000 0.000000 0.000000 0.000000
    46 0.000000 0.000000 0.000000 0.968435 -0.045026 0.133120
    47 0.000000 0.000000 0.000000 -0.624600 -0.218015 0.143480
    48 0.000000 0.000000 0.000000 0.000000 0.000000 -0.079994
    49 0.000000 0.000000 0.000000 0.000000 0.000000 0.000000
    50 0.000000 0.000000 0.000000 0.000000 0.000000 0.000000
    51 0.000000 0.000000 0.000000 0.000000 0.000000 0.000000
    52 0.000000 0.000000 0.000000 0.000000 0.000000 0.000000
    53 -1.418012 -0.352331 -18.543535 0.179922 -0.424335 0.094827
    54 0.000000 0.000000 0.000000 0.000000 0.000000 0.000000
    55 0.000000 0.000000 0.000000 0.000000 0.000000 0.000000
    56 0.000000 0.000000 0.000000 0.000000 0.000000 0.000000
    57 0.000000 0.000000 0.000000 0.027967 0.000000 0.000000
    58 0.000000 0.000000 0.000000 0.053916 0.000000 0.000000
    59 0.000000 0.000000 0.000000 0.059887 0.125395 0.098633
    60 0.000000 0.000000 0.000000 0.229365 0.000000 0.000000
    61 0.000000 0.000000 0.000000 0.397178 0.000000 0.000000
    62 0.000000 0.000000 0.000000 0.000060 -0.000059 0.000028
  time 19
    0 0.000000 0.000000 0.000000 0.000000 0.000000 -1.570796
    1 0.000000 0.000000 0.000000 0.000000 0.000000 0.000000
    2 0.000000 0.000000 0.000000 0.000000 0.000000 0.000000
    3 8.011963 6.121281 -2.500076 -0.035872 0.278564 0.123336
    4 0.000000 0.000000 0.000000 0.000000 0.000000 0.000000
    5 0.000000 0.000000 0.000000 0.000000 0.000000 0.000000
    6 0.000000 0.000000 0.000000 0.000000 0.000000 0.000000
    7 0.000000 0.000000 0.000000 0.000000 0.000000 0.119792
    8 0.000000 0.000000 0.000000 0.000000 0.000000 0.094810
    9 0.000000 0.000000 0.000000 0.000000 0.000000 0.039297
    10 0.000000 0.000000 0.000000 0.000000 0.000000 -0.081364
    11 -1.046907 -0.851588 0.000000 -0.697394 0.014240 0.100239
    12 0.164068 -0.062502 0.015625 0.125686 0.343917 -0.146241
    13 0.000000 0.000000 0.000000 0.201427 -0.151733 -0.071816
    14 0.000000 0.000000 0.000000 0.248277 0.541058 0.104069
    15 0.000000 0.000000 0.000000 -0.000084 -0.000048 0.000028
    16 0.000000 0.000000 0.000000 0.000000 0.000000 0.000000
    17 0.000000 0.000000 0.000000 0.000000 0.000000 0.000000
    18 0.000000 0.000000 0.000000 -0.000084 -0.000048 0.000054
    19 0.000000 0.000000 0.000000 0.000000 0.000000 0.000000
    20 0.000000 0.000000 0.000000 0.000000 0.000000 0.000000
    21 0.000000 0.000000 0.000000 -0.000060 -0.000072 0.000038
    22 0.000000 0.000000 0.000000 0.000000 0.000000 0.000000
    23 0.000000 0.000000 0.000000 0.000000 0.000000 0.000000
    24 0.000000 0.000000 0.000000 -0.000072 -0.000072 0.000000
    25 0.000000 0.000000 0.000000 0.000000 0.000000 0.000000
    26 0.000000 0.000000 0.000000 0.000000 0.000000 0.000000
    27 0.000000 0.000000 0.000000 -0.000062 0.000077 0.000000
    28 0.000000 0.000000 0.000000 0.000000 0.000000 0.000000
    29 0.000000 0.000000 0.000000 0.000000 0.000000 0.000000
    30 -1.410199 -1.281289 0.000000 0.149960 0.083974 0.022985
    31 -0.195318 2.187567 -1.570360 0.356732 0.715683 -0.041243
    32 0.000000 0.000000 0.000000 0.149754 -0.464801 0.641939
    33 0.000000 0.000000 0.000000 0.062480 -0.128990 -0.284508
    34 0.000000 0.000000 0.000000 -0.241688 -0.040136 -0.085127
    35 0.000000 0.000000 0.000000 0.004806 -0.060211 -0.079749
    36 0.000000 0.000000 0.000000 0.000000 0.000000 -0.086830
    37 0.000000 0.000000 0.000000 0.001977 -0.030009 0.112636
    38 0.000000 0.000000 0.000000 -0.118144 0.000000 0.000028
    39 0.000000 0.000000 0.000000 0.000000 0.000000 0.077961
    40 0.000000 0.000000 0.000000 0.000000 0.000000 -0.108734
    41 0.000000 0.000000 0.000000 -0.036241 0.084360 0.004483
    42 0.000000 0.000000 0.000000 0.000000 0.000000 -0.175226
    43 0.000000 0.000000 0.000000 0.031184 -0.047303 -0.220664
    44 0.000000 0.000000 0.000000 0.000000 0.000000 -0.042457
    45 0.000000 0.000000 0.000000 0.000000 0.000000 0.000000
    46 0.000000 0.000000 0.000000 0.968435 -0.045026 0.133120
    47 0.000000 0.000000 0.000000 -0.624600 -0.218015 0.143480
    48 0.000000 0.000000 0.000000 0.000000 0.000000 -0.079994
    49 0.000000 0.000000 0.000000 0.000000 0.000000 0.000000
    50 0.000000 0.000000 0.000000 0.000000 0.000000 0.000000
    51 0.000000 0.000000 0.000000 0.000000 0.000000 0.000000
    52 0.000000 0.000000 0.000000 0.000000 0.000000 0.000000
    53 1.144566 -5.081508 -11.180029 0.126982 -0.247429 0.119474
    54 0.000000 0.000000 0.000000 0.000000 0.000000 0.000000
    55 0.000000 0.000000 0.000000 0.000000 0.000000 0.000000
    56 0.000000 0.000000 0.000000 0.000000 0.000000 0.000000
    57 0.000000 0.000000 0.000000 -0.011462 0.000000 0.000000
    58 0.000000 0.000000 0.000000 -0.022069 0.000000 0.000000
    59 0.000000 0.000000 0.000000 0.059887 0.125395 0.098633
    60 0.000000 0.000000 0.000000 0.251827 0.000000 0.000000
    61 0.000000 0.000000 0.000000 0.436104 0.000000 0.000000
    62 0.000000 0.000000 0.000000 0.000060 -0.000059 0.000028
  time 20
    0 0.000000 0.000000 0.000000 0.000000 0.000000 -1.570796
    1 0.000000 0.000000 0.000000 0.000000 0.000000 0.000000
    2 0.000000 0.000000 0.000000 0.000000 0.000000 0.000000
    3 6.504105 4.589984 -3.031343 -0.005762 0.178494 0.005622
    4 0.000000 0.000000 0.000000 0.000000 0.000000 0.000000
    5 0.000000 0.000000 0.000000 0.000000 0.000000 0.000000
    6 0.000000 0.000000 0.000000 0.000000 0.000000 0.000000
    7 0.000000 0.000000 0.000000 0.000000 0.000000 0.087608
    8 0.000000 0.000000 0.000000 0.000000 0.000000 0.069355
    9 0.000000 0.000000 0.000000 0.000000 0.000000 0.028751
    10 0.000000 0.000000 0.000000 0.000000 0.000000 -0.059525
    11 -0.761742 -0.636738 0.000000 -0.492870 0.006588 0.089758
    12 0.070315 -0.027345 0.003906 0.104355 0.341967 -0.131893
    13 0.000000 0.000000 0.000000 0.165348 -0.155065 -0.160730
    14 0.000000 0.000000 0.000000 0.202575 0.507321 0.110308
    15 0.000000 0.000000 0.000000 -0.000084 -0.000048 0.000028
    16 0.000000 0.000000 0.000000 0.000000 0.000000 0.000000
    17 0.000000 0.000000 0.000000 0.000000 0.000000 0.000000
    18 0.000000 0.000000 0.000000 -0.000084 -0.000048 0.000054
    19 0.000000 0.000000 0.000000 0.000000 0.000000 0.000000
    20 0.000000 0.000000 0.000000 0.000000 0.000000 0.000000
    21 0.000000 0.000000 0.000000 -0.000060 -0.000072 0.000038
    22 0.000000 0.000000 0.000000 0.000000 0.000000 0.000000
    23 0.000000 0.000000 0.000000 0.000000 0.000000 0.000000
    24 0.000000 0.000000 0.000000 -0.000072 -0.000072 0.000000
    25 0.000000 0.000000 0.000000 0.000000 0.000000 0.000000
    26 0.000000 0.000000 0.000000 0.000000 0.000000 0.000000
    27 0.000000 0.000000 0.000000 -0.000062 0.000077 0.000000
    28 0.000000 0.000000 0.000000 0.000000 0.000000 0.000000
    29 0.000000 0.000000 0.000000 0.000000 0.000000 0.000000
    30 -1.019562 -0.953154 0.000000 0.109400 0.061763 0.015597
    31 -0.082034 0.984405 -0.714866 0.222603 0.749701 -0.102582
    32 0.000000 0.000000 0.000000 0.117861 -0.435484 0.692970
    33 0.000000 0.000000 0.000000 0.047391 -0.155514 -0.231337
    34 0.000000 0.000000 0.000000 -0.241688 -0.040136 -0.085127
    35 0.000000 0.000000 0.000000 0.004806 -0.060211 -0.079749
    36 0.000000 0.000000 0.000000 0.000000 0.000000 -0.086830
    37 0.000000 0.000000 0.000000 0.001977 -0.030009 0.112636
    38 0.000000 0.000000 0.000000 -0.118144 0.000000 0.000028
    39 0.000000 0.000000 0.000000 0.000000 0.000000 0.077961
    40 0.000000 0.000000 0.000000 0.000000 0.000000 -0.108734
    41 0.000000 0.000000 0.000000 -0.036241 0.084360 0.004483
    42 0.000000 0.000000 0.000000 0.000000 0.000000 -0.175226
    43 0.000000 0.000000 0.000000 0.031184 -0.047303 -0.220664
    44 0.000000 0.000000 0.000000 0.000000 0.000000 -0.042457
    45 0.000000 0.000000 0.000000 0.000000 0.000000 0.000000
    46 0.000000 0.000000 0.000000 0.968435 -0.045026 0.133120
    47 0.000000 0.000000 0.000000 -0.624600 -0.218015 0.143480
    48 0.000000 0.000000 0.000000 0.000000 0.000000 -0.079994
    49 0.000000 0.000000 0.000000 0.000000 0.000000 0.000000
    50 0.000000 0.000000 0.000000 0.000000 0.000000 0.000000
    51 0.000000 0.000000 0.000000 0.000000 0.000000 0.000000
    52 0.000000 0.000000 0.000000 0.000000 0.000000 0.000000
    53 4.164190 -8.063917 -5.183752 0.087246 -0.089862 0.123622
    54 0.000000 0.000000 0.000000 0.000000 0.000000 0.000000
    55 0.000000 0.000000 0.000000 0.000000 0.000000 0.000000
    56 0.000000 0.000000 0.000000 0.000000 0.000000 0.000000
    57 0.000000 0.000000 0.000000 -0.037499 0.000000 0.000000
    58 0.000000 0.000000 0.000000 -0.072329 0.000000 0.000000
    59 0.000000 0.000000 0.000000 0.059887 0.125395 0.098633
    60 0.000000 0.000000 0.000000 0.249653 0.000000 0.000000
    61 0.000000 0.000000 0.000000 0.432338 0.000000 0.000000
    62 0.000000 0.000000 0.000000 0.000060 -0.000059 0.000028
  time 21
    0 0.000000 0.000000 0.000000 0.000000 0.000000 -1.570796
    1 0.000000 0.000000 0.000000 0.000000 0.000000 0.000000
    2 0.000000 0.000000 0.000000 0.000000 0.000000 0.000000
    3 5.457198 3.535264 -3.406354 0.018494 0.106787 -0.077496
    4 0.000000 0.000000 0.000000 0.000000 0.000000 0.000000
    5 0.000000 0.000000 0.000000 0.000000 0.000000 0.000000
    6 0.000000 0.000000 0.000000 0.000000 0.000000 0.000000
    7 0.000000 0.000000 0.000000 0.000000 0.000000 0.055474
    8 0.000000 0.000000 0.000000 0.000000 0.000000 0.043924
    9 0.000000 0.000000 0.000000 0.000000 0.000000 0.018205
    10 0.000000 0.000000 0.000000 0.000000 0.000000 -0.037685
    11 -0.480483 -0.410169 0.000000 -0.339405 0.000399 0.072416
    12 0.015625 -0.003906 0.000000 0.088449 0.321865 -0.117924
    13 0.000000 0.000000 0.000000 0.127888 -0.139841 -0.206851
    14 0.000000 0.000000 0.000000 0.161887 0.468533 0.105079
    15 0.000000 0.000000 0.000000 -0.000084 -0.000048 0.000028
    16 0.000000 0.000000 0.000000 0.000000 0.000000 0.000000
    17 0.000000 0.000000 0.000000 0.000000 0.000000 0.000000
    18 0.000000 0.000000 0.000000 -0.000084 -0.000048 0.000054
    19 0.000000 0.000000 0.000000 0.000000 0.000000 0.000000
    20 0.000000 0.000000 0.000000 0.000000 0.000000 0.000000
    21 0.000000 0.000000 0.000000 -0.000060 -0.000072 0.000038
    22 0.000000 0.000000 0.000000 0.000000 0.000000 0.000000
    23 0.000000 0.000000 0.000000 0.000000 0.000000 0.000000
    24 0.000000 0.000000 0.000000 -0.000072 -0.000072 0.000000
    25 0.000000 0.000000 0.000000 0.000000 0.000000 0.000000
    26 0.000000 0.000000 0.000000 0.000000 0.000000 0.000000
    27 0.000000 0.000000 0.000000 -0.000062 0.000077 0.000000
    28 0.000000 0.000000 0.000000 0.000000 0.000000 0.000000
    29 0.000000 0.000000 0.000000 0.000000 0.000000 0.000000
    30 -0.636738 -0.617206 0.000000 0.069167 0.039279 0.009030
    31 -0.015625 0.242195 -0.179693 0.140651 0.753812 -0.140093
    32 0.000000 0.000000 0.000000 0.094251 -0.426238 0.708441
    33 0.000000 0.000000 0.000000 0.029555 -0.167747 -0.175380
    34 0.000000 0.000000 0.000000 -0.241688 -0.040136 -0.085127
    35 0.000000 0.000000 0.000000 0.004806 -0.060211 -0.079749
    36 0.000000 0.000000 0.000000 0.000000 0.000000 -0.086830
    37 0.000000 0.000000 0.000000 0.001977 -0.030009 0.112636
    38 0.000000 0.000000 0.000000 -0.118144 0.000000 0.000028
    39 0.000000 0.000000 0.000000 0.000000 0.000000 0.077961
    40 0.000000 0.000000 0.000000 0.000000 0.000000 -0.108734
    41 0.000000 0.000000 0.000000 -0.036241 0.084360 0.004483
    42 0.000000 0.000000 0.000000 0.000000 0.000000 -0.175226
    43 0.000000 0.000000 0.000000 0.031184 -0.047303 -0.220664
    44 0.000000 0.000000 0.000000 0.000000 0.000000 -0.042457
    45 0.000000 0.000000 0.000000 0.000000 0.000000 0.000000
    46 0.000000 0.000000 0.000000 0.968435 -0.045026 0.133120
    47 0.000000 0.000000 0.000000 -0.624600 -0.218015 0.143480
    48 0.000000 0.000000 0.000000 0.000000 0.000000 -0.079994
    49 0.000000 0.000000 0.000000 0.000000 0.000000 0.000000
    50 0.000000 0.000000 0.000000 0.000000 0.000000 0.000000
    51 0.000000 0.000000 0.000000 0.000000 0.000000 0.000000
    52 0.000000 0.000000 0.000000 0.000000 0.000000 0.000000
    53 6.652547 -9.517903 -1.320353 0.060961 0.021840 0.117786
    54 0.000000 0.000000 0.000000 0.000000 0.000000 0.000000
    55 0.000000 0.000000 0.000000 0.000000 0.000000 0.000000
    56 0.000000 0.000000 0.000000 0.000000 0.000000 0.000000
    57 0.000000 0.000000 0.000000 -0.047127 0.000000 0.000000
    58 0.000000 0.000000 0.000000 -0.090925 0.000000 0.000000
    59 0.000000 0.000000 0.000000 0.059887 0.125395 0.098633
    60 0.000000 0.000000 0.000000 0.233220 0.000000 0.000000
    61 0.000000 0.000000 0.000000 0.403878 0.000000 0.000000
    62 0.000000 0.000000 0.000000 0.000060 -0.000059 0.000028
  time 22
    0 0.000000 0.000000 0.000000 0.000000 0.000000 -1.570796
    1 0.000000 0.000000 0.000000 0.000000 0.000000 0.000000
    2 0.000000 0.000000 0.000000 0.000000 0.000000 0.000000
    3 5.066561 3.140721 -3.543077 0.028251 0.079573 -0.108806
    4 0.000000 0.000000 0.000000 0.000000 0.000000 0.000000
    5 0.000000 0.000000 0.000000 0.000000 0.000000 0.000000
    6 0.000000 0.000000 0.000000 0.000000 0.000000 0.000000
    7 0.000000 0.000000 0.000000 0.000000 0.000000 0.027403
    8 0.000000 0.000000 0.000000 0.000000 0.000000 0.021692
    9 0.000000 0.000000 0.000000 0.000000 0.000000 0.008988
    10 0.000000 0.000000 0.000000 0.000000 0.000000 -0.018606
    11 -0.234382 -0.203131 0.000000 -0.262289 0.004924 0.062602
    12 0.000000 0.000000 0.000000 0.084435 0.309145 -0.111273
    13 0.000000 0.000000 0.000000 0.111076 -0.127738 -0.220531
    14 0.000000 0.000000 0.000000 0.146797 0.451286 0.098985
    15 0.000000 0.000000 0.000000 -0.000084 -0.000048 0.000028
    16 0.000000 0.000000 0.000000 0.000000 0.000000 0.000000
    17 0.000000 0.000000 0.000000 0.000000 0.000000 0.000000
    18 0.000000 0.000000 0.000000 -0.000084 -0.000048 0.000054
    19 0.000000 0.000000 0.000000 0.000000 0.000000 0.000000
    20 0.000000 0.000000 0.000000 0.000000 0.000000 0.000000
    21 0.000000 0.000000 0.000000 -0.000060 -0.000072 0.000038
    22 0.000000 0.000000 0.000000 0.000000 0.000000 0.000000
    23 0.000000 0.000000 0.000000 0.000000 0.000000 0.000000
    24 0.000000 0.000000 0.000000 -0.000072 -0.000072 0.000000
    25 0.000000 0.000000 0.000000 0.000000 0.000000 0.000000
    26 0.000000 0.000000 0.000000 0.000000 0.000000 0.000000
    27 0.000000 0.000000 0.000000 -0.000062 0.000077 0.000000
    28 0.000000 0.000000 0.000000 0.000000 0.000000 0.000000
    29 0.000000 0.000000 0.000000 0.000000 0.000000 0.000000
    30 -0.312510 -0.308603 0.000000 0.034094 0.019468 0.004105
    31 0.000000 0.000000 0.000000 0.116642 0.750875 -0.148610
    32 0.000000 0.000000 0.000000 0.085683 -0.428514 0.706048
    33 0.000000 0.000000 0.000000 0.021051 -0.170328 -0.147362
    34 0.000000 0.000000 0.000000 -0.241688 -0.040136 -0.085127
    35 0.000000 0.000000 0.000000 0.004806 -0.060211 -0.079749
    36 0.000000 0.000000 0.000000 0.000000 0.000000 -0.086795
    37 0.000000 0.000000 0.000000 0.001977 -0.030009 0.112636
    38 0.000000 0.000000 0.000000 -0.118144 0.000000 0.000028
    39 0.000000 0.000000 0.000000 0.000000 0.000000 0.077961
    40 0.000000 0.000000 0.000000 0.000000 0.000000 -0.108734
    41 0.000000 0.000000 0.000000 -0.036241 0.084360 0.004483
    42 0.000000 0.000000 0.000000 0.000000 0.000000 -0.175226
    43 0.000000 0.000000 0.000000 0.031184 -0.047303 -0.220664
    44 0.000000 0.000000 0.000000 0.000000 0.000000 -0.042457
    45 0.000000 0.000000 0.000000 0.000000 0.000000 0.000000
    46 0.000000 0.000000 0.000000 0.968435 -0.045026 0.133120
    47 0.000000 0.000000 0.000000 -0.624600 -0.218015 0.143480
    48 0.000000 0.000000 0.000000 0.000000 0.000000 -0.079994
    49 0.000000 0.000000 0.000000 0.000000 0.000000 0.000000
    50 0.000000 0.000000 0.000000 0.000000 0.000000 0.000000
    51 0.000000 0.000000 0.000000 0.000000 0.000000 0.000000
    52 0.000000 0.000000 0.000000 0.000000 0.000000 0.000000
    53 7.640858 -9.924821 0.035157 0.051089 0.063795 0.113638
    54 0.000000 0.000000 0.000000 0.000000 0.000000 0.000000
    55 0.000000 0.000000 0.000000 0.000000 0.000000 0.000000
    56 0.000000 0.000000 0.000000 0.000000 0.000000 0.000000
    57 0.000000 0.000000 0.000000 -0.047127 0.000000 0.000000
    58 0.000000 0.000000 0.000000 -0.090697 0.000000 0.000000
    59 0.000000 0.000000 0.000000 0.059887 0.125395 0.098633
    60 0.000000 0.000000 0.000000 0.221335 0.000000 0.000000
    61 0.000000 0.000000 0.000000 0.383271 0.000000 0.000000
    62 0.000000 0.000000 0.000000 0.000060 -0.000059 0.000028
end
