// Created by Crowbar 0.74
version 1
nodes
  0 "airliner_primary_debris_4" -1
  1 "fuselage_debris_primary_21" 0
  2 "fuselage_debris_primary_22" 0
  3 "fuselage_debris_primary_23" 0
  4 "fuselage_debris_primary_24" 0
  5 "fuselage_debris_primary_25" 0
  6 "fuselage_debris_primary_26" 0
  7 "fuselage_debris_primary_27" 0
  8 "fuselage_debris_primary_28" 0
  9 "fuselage_debris_primary_29" 0
  10 "fuselage_debris_primary_30" 0
  11 "fuselage_debris_primary_31" 0
  12 "fuselage_debris_primary_32" 0
  13 "fuselage_debris_primary_33" 0
  14 "fuselage_debris_primary_34" 0
  15 "fuselage_debris_primary_35" 0
  16 "fuselage_debris_primaryENDBIT" 0
  17 "RTW_debris_primary_1" 0
  18 "RTW_debris_primary_2" 0
  19 "LTW_debris_primary_2" 0
  20 "LTW_debris_primary_1" 0
  21 "TAIL_debris_primary_5" 0
  22 "TAIL_debris_primary_3" 0
  23 "TAIL_debris_primary_4" 0
  24 "TAIL_debris_primary_2" 0
  25 "TAIL_debris_primary_1" 0
  26 "nurbsToPoly39" 0
end
skeleton
  time 0
    0 -2560.000000 5824.000000 -729.000000 1.570674 0.000183 -0.000183
    1 58.213379 -116.757202 530.475830 0.000000 0.000000 0.000000
    2 -35.706055 -78.034302 530.665771 0.000000 0.000000 0.000000
    3 75.250977 -189.298462 414.827393 0.000000 0.000000 0.000000
    4 47.532227 -117.371948 393.700439 0.000000 0.000000 0.000000
    5 -79.359375 -162.440063 438.932861 0.000000 0.000000 0.000000
    6 -27.817383 -104.447632 373.945068 0.000000 0.000000 0.000000
    7 29.594238 -231.840149 363.937500 0.000000 0.000000 0.000000
    8 -51.353516 -229.870300 354.208252 0.000000 0.000000 0.000000
    9 -61.663086 -149.021851 219.654053 0.000000 0.000000 0.000000
    10 12.062988 -228.880554 140.247559 0.000000 0.000000 0.000000
    11 64.242188 -219.751587 283.634521 0.000000 0.000000 0.000000
    12 50.000977 -138.670776 256.013916 0.000000 0.000000 0.000000
    13 -37.770996 -62.283813 233.305908 0.000000 0.000000 0.000000
    14 27.839355 -136.912354 99.489990 0.000000 0.000000 0.000000
    15 -1.928223 -142.226685 -76.326904 0.000000 0.000000 0.000000
    16 -3.088867 -125.401855 -254.947266 0.000000 0.000000 0.000000
    17 -57.872070 237.024536 -467.152100 0.000000 0.000000 0.000000
    18 -186.697266 236.538208 -520.099365 0.000000 0.000000 0.000000
    19 105.997070 237.024536 -477.755615 0.000000 0.000000 0.000000
    20 226.359863 235.956055 -546.336182 0.000000 0.000000 0.000000
    21 0.000000 -58.173462 -264.908691 0.000000 0.000000 0.000000
    22 0.832520 -2.308716 -137.534424 0.000000 0.000000 0.000000
    23 0.000000 -52.865479 -85.296387 0.000000 0.000000 0.000000
    24 0.607422 72.864380 -353.571045 0.000000 0.000000 0.000000
    25 0.087891 213.189575 -440.538818 0.000000 0.000000 0.000000
    26 0.000000 236.379517 -479.303223 0.000000 0.000000 0.000000
end
