version 1
nodes
0 "ValveBiped.Bip01_Pelvis" -1
1 "ValveBiped.Bip01_L_Thigh" 0
2 "ValveBiped.Bip01_L_Calf" 1
3 "ValveBiped.Bip01_L_Foot" 2
4 "ValveBiped.Bip01_L_Toe0" 3
5 "Skirt.L.Back" 1
6 "Skirt.L.Back.End" 5
7 "Skirt.L.Front" 1
8 "Skirt.L.Front.End" 7
9 "Skirt.L.Side" 1
10 "Skirt.L.Side.End" 9
11 "ValveBiped.Bip01_R_Thigh" 0
12 "ValveBiped.Bip01_R_Calf" 11
13 "ValveBiped.Bip01_R_Foot" 12
14 "ValveBiped.Bip01_R_Toe0" 13
15 "Skirt.R.Back" 11
16 "Skirt.R.Back.End" 15
17 "Skirt.R.Front" 11
18 "Skirt.R.Front.End" 17
19 "Skirt.R.Side" 11
20 "Skirt.R.Side.End" 19
21 "ValveBiped.Bip01_Spine" 0
22 "ValveBiped.Bip01_Spine1" 21
23 "ValveBiped.Bip01_Spine2" 22
24 "ValveBiped.Bip01_Spine4" 23
25 "ValveBiped.Bip01_Neck1" 24
26 "ValveBiped.Bip01_Head1" 25
27 "Eye.L" 26
28 "Eye.R" 26
29 "CatEar.L.1" 26
30 "CatEar.L.2" 29
31 "CatEar.L.2.End" 30
32 "CatEar.R.1" 26
33 "CatEar.R.2" 32
34 "CatEar.R.2.End" 33
35 "ValveBiped.Bip01_L_Clavicle" 24
36 "ValveBiped.Bip01_L_UpperArm" 35
37 "ValveBiped.Bip01_L_Forearm" 36
38 "ValveBiped.Bip01_L_Hand" 37
39 "ValveBiped.Bip01_L_Finger2" 38
40 "ValveBiped.Bip01_L_Finger21" 39
41 "ValveBiped.Bip01_L_Finger22" 40
42 "ValveBiped.Bip01_L_Finger1" 38
43 "ValveBiped.Bip01_L_Finger11" 42
44 "ValveBiped.Bip01_L_Finger12" 43
45 "ValveBiped.Bip01_L_Finger0" 38
46 "ValveBiped.Bip01_L_Finger01" 45
47 "ValveBiped.Bip01_L_Finger02" 46
48 "ValveBiped.Bip01_L_Finger4" 38
49 "ValveBiped.Bip01_L_Finger41" 48
50 "ValveBiped.Bip01_L_Finger42" 49
51 "ValveBiped.Bip01_L_Finger3" 38
52 "ValveBiped.Bip01_L_Finger31" 51
53 "ValveBiped.Bip01_L_Finger32" 52
54 "ValveBiped.Bip01_R_Clavicle" 24
55 "ValveBiped.Bip01_R_UpperArm" 54
56 "ValveBiped.Bip01_R_Forearm" 55
57 "ValveBiped.Bip01_R_Hand" 56
58 "ValveBiped.Bip01_R_Finger2" 57
59 "ValveBiped.Bip01_R_Finger21" 58
60 "ValveBiped.Bip01_R_Finger22" 59
61 "ValveBiped.Bip01_R_Finger1" 57
62 "ValveBiped.Bip01_R_Finger11" 61
63 "ValveBiped.Bip01_R_Finger12" 62
64 "ValveBiped.Bip01_R_Finger0" 57
65 "ValveBiped.Bip01_R_Finger01" 64
66 "ValveBiped.Bip01_R_Finger02" 65
67 "ValveBiped.Bip01_R_Finger4" 57
68 "ValveBiped.Bip01_R_Finger41" 67
69 "ValveBiped.Bip01_R_Finger42" 68
70 "ValveBiped.Bip01_R_Finger3" 57
71 "ValveBiped.Bip01_R_Finger31" 70
72 "ValveBiped.Bip01_R_Finger32" 71
73 "Bust.L.1" 24
74 "Bust.L.2" 73
75 "Bust.R.1" 24
76 "Bust.R.2" 75
77 "Hood" 24
78 "Hood.End" 77
79 "HoodString.L.1" 24
80 "HoodString.L.2" 79
81 "HoodString.L.2.End" 80
82 "HoodString.R.1" 24
83 "HoodString.R.2" 82
84 "HoodString.R.2.End" 83
85 "blender_implicit" 0
86 "Root" 0
end
skeleton
time 0
0  0.000000 -0.136421 34.636204  1.570796 -0.000000 0.000001
1  2.943177 -1.517220 -0.139469  -1.571056 0.020920 -1.570794
2  13.464819 0.000061 -0.000034  -0.004957 -0.000008 0.039137
3  15.849338 -0.000027 -0.000000  0.008799 0.017186 -1.002424
4  4.829279 -0.535844 0.064976  -0.001050 -0.003488 -0.555365
5  1.576557 4.417010 -0.078444  0.868101 -1.439530 -2.291758
6  0.000001 3.282204 0.000003  0.000000 -0.000000 0.000000
7  2.049801 -4.710804 -0.320958  0.789194 -1.443378 -2.370367
8  -0.000002 3.547775 -0.000018  -0.000004 -0.000000 -0.000000
9  1.475520 -0.168625 3.869985  0.860762 -1.202984 -2.300805
10  -0.000004 3.657035 -0.000004  0.000000 -0.000002 0.000000
11  -2.943177 -1.517220 -0.139473  -1.570566 0.020920 -1.570799
12  13.464815 0.000061 0.000036  0.004948 0.000006 0.039137
13  15.849338 -0.000022 0.000001  -0.002132 -0.019446 -1.002277
14  4.829046 -0.536953 -0.072488  -0.061129 0.006497 -0.556037
15  1.576555 4.417006 0.078579  -2.272593 -1.470274 0.851121
16  -0.000001 3.282213 -0.000018  -0.000008 0.000000 0.000001
17  2.050543 -4.713928 0.329253  -2.352900 -1.447247 0.770462
18  0.000000 3.547786 0.000003  0.000001 0.000000 -0.000000
19  1.475516 -0.168506 -3.869992  -2.280771 -1.203009 0.840732
20  0.000008 3.657018 -0.000008  0.000000 0.000001 -0.000000
21  -0.000000 1.986286 0.477487  1.570795 0.086294 1.570791
22  4.284898 0.487452 -0.000024  -0.000000 0.000001 -0.029234
23  0.000003 -0.000000 -0.000000  0.000000 -0.000044 0.100330
24  4.114184 -0.496244 -0.000199  0.000009 0.000052 0.194099
25  4.705324 -2.337752 0.000021  3.141588 -0.000020 0.372981
26  2.559856 1.166281 0.000042  -0.000004 0.000010 0.302762
27  2.517382 -0.203306 -0.660682  -3.003378 -1.570822 0.082772
28  2.517348 -0.203310 0.660810  -3.003378 -1.570822 0.082772
29  6.167437 1.545429 -3.137556  1.528139 1.570769 0.110650
30  -0.000000 0.000001 -0.000000  0.256623 -0.649880 -0.753998
31  -0.000002 3.235561 -0.000000  -0.000000 0.000001 -0.000001
32  6.167277 1.545409 3.137881  1.528137 1.570769 0.110732
33  -0.000000 0.000004 -0.000000  0.256623 0.649881 0.753996
34  -0.000013 3.235537 -0.000002  0.000000 -0.000001 0.000001
35  3.763706 -1.842343 0.854307  -1.577191 -2.025534 -0.171567
36  3.158072 1.023395 0.009970  -1.573133 -0.002806 0.454723
37  8.386457 -0.000009 -0.000001  -0.000201 -0.000012 -0.001749
38  8.189342 -0.000023 0.000003  1.573458 -0.106739 0.134898
39  2.514871 0.014681 0.413746  0.037528 -0.133433 -0.106394
40  1.413581 -0.000001 -0.000000  -0.033167 0.000001 0.000001
41  0.872060 0.000003 -0.000000  0.000000 0.003076 -0.216395
42  2.392592 0.028902 1.074986  0.273431 -0.114007 -0.106423
43  1.269056 0.000001 -0.000000  -0.037080 0.010546 -0.032995
44  0.781339 0.000007 -0.000001  -0.000004 0.002593 -0.244316
45  0.011407 -0.384110 0.622055  -1.720111 -0.840128 -0.171090
46  1.777525 0.000001 0.000005  -0.098613 -0.018736 0.040992
47  1.093382 -0.000003 -0.000001  0.000017 0.011266 0.362861
48  2.473935 0.016991 -0.793441  -0.467561 -0.133432 -0.106394
49  1.199411 -0.000005 -0.000000  0.000509 0.000001 -0.000009
50  0.691271 0.000004 0.000001  -0.000010 0.004979 -0.244270
51  2.565223 0.008271 -0.181201  -0.189757 -0.133431 -0.106392
52  1.311277 -0.000004 -0.000000  0.008096 0.000001 -0.000010
53  0.756733 0.000008 -0.000000  -0.000001 0.007356 -0.430824
54  3.763715 -1.842342 -0.854273  1.567159 2.023840 -0.181980
55  3.159798 1.018094 0.005138  1.570041 -0.001590 0.453046
56  8.386458 0.000002 -0.000006  -0.000419 0.000013 -0.001749
57  8.189341 -0.000012 -0.000002  -1.563663 0.106371 0.130252
58  2.516851 0.011597 -0.401616  -0.033465 0.127743 -0.107298
59  1.413579 -0.000005 -0.000000  0.031988 -0.000001 -0.000001
60  0.872056 0.000002 -0.000000  -0.000000 -0.004460 -0.216349
61  2.397789 0.020512 -1.063534  -0.272981 0.108315 -0.107187
62  1.269060 0.000004 -0.000001  0.039336 -0.010806 -0.032911
63  0.781339 0.000005 0.000001  0.000005 -0.004203 -0.244310
64  0.014453 -0.389079 -0.618897  2.009748 0.833947 -0.178818
65  1.777529 0.000004 -0.000005  0.140531 0.030012 0.033629
66  1.093379 -0.000002 0.000001  -0.000006 -0.009622 0.362886
67  2.470042 0.023570 0.805302  0.467702 0.127741 -0.107299
68  1.199410 -0.000004 -0.000002  -0.013929 -0.000002 -0.000009
69  0.691268 0.000005 -0.000001  0.000006 -0.006134 -0.244284
70  2.564311 0.009956 0.193603  0.181005 0.127741 -0.107299
71  1.311275 -0.000002 -0.000000  -0.005394 -0.000002 -0.000009
72  0.756729 0.000003 -0.000001  0.000005 -0.009661 -0.430790
73  0.195833 2.638547 2.051040  -0.817658 2.243732 -0.996559
74  0.000010 2.190265 -0.000024  0.000000 -0.000004 -0.000000
75  0.195852 2.638548 -2.051037  -0.817641 0.897858 -0.996544
76  -0.000003 2.190265 -0.000020  -0.000002 0.000007 -0.000001
77  4.451306 -4.920602 0.000019  1.372480 -1.570801 0.111605
78  -0.000000 3.107622 -0.000004  -0.000002 0.000000 0.000000
79  4.651332 1.229739 1.307682  0.539455 -1.469590 0.360587
80  0.000004 4.594257 -0.000022  0.447172 -0.036773 0.035679
81  0.000002 4.890029 -0.000005  0.000000 0.000000 0.000000
82  4.651345 1.229742 -1.307637  0.539468 -1.672014 0.360576
83  -0.000005 4.594246 -0.000035  0.447166 0.036773 -0.035679
84  -0.000001 4.890023 0.000010  0.000003 -0.000000 0.000000
85  0.000000 -34.636200 -0.136421  -1.570796 -0.000001 0.000000
86  0.000000 -34.636200 -0.136421  0.003939 -0.000001 0.000000
time 1
0  0.000000 -0.136421 34.636204  1.570796 -0.000000 0.000001
1  2.943177 -1.517220 -0.139469  -1.571056 0.020920 -1.570794
2  13.464819 0.000061 -0.000034  -0.004957 -0.000008 0.039137
3  15.849338 -0.000027 -0.000000  0.008799 0.017186 -1.002424
4  4.829279 -0.535844 0.064976  -0.001050 -0.003488 -0.555365
5  1.576557 4.417010 -0.078444  0.868101 -1.439530 -2.291758
6  0.000001 3.282204 0.000003  0.000000 -0.000000 0.000000
7  2.049801 -4.710804 -0.320958  0.789194 -1.443378 -2.370367
8  -0.000002 3.547775 -0.000018  -0.000004 -0.000000 -0.000000
9  1.475520 -0.168625 3.869985  0.860762 -1.202984 -2.300805
10  -0.000004 3.657035 -0.000004  0.000000 -0.000002 0.000000
11  -2.943177 -1.517220 -0.139473  -1.570566 0.020920 -1.570799
12  13.464815 0.000061 0.000036  0.004948 0.000006 0.039137
13  15.849338 -0.000022 0.000001  -0.002132 -0.019446 -1.002277
14  4.829046 -0.536953 -0.072488  -0.061129 0.006497 -0.556037
15  1.576555 4.417006 0.078579  -2.272593 -1.470274 0.851121
16  -0.000001 3.282213 -0.000018  -0.000008 0.000000 0.000001
17  2.050543 -4.713928 0.329253  -2.352900 -1.447247 0.770462
18  0.000000 3.547786 0.000003  0.000001 0.000000 -0.000000
19  1.475516 -0.168506 -3.869992  -2.280771 -1.203009 0.840732
20  0.000008 3.657018 -0.000008  0.000000 0.000001 -0.000000
21  -0.000000 1.986286 0.477487  1.570795 0.086294 1.570791
22  4.284898 0.487452 -0.000024  -0.000000 0.000001 -0.029234
23  0.000003 -0.000000 -0.000000  0.000000 -0.000044 0.100330
24  4.114184 -0.496244 -0.000199  0.000009 0.000052 0.194099
25  4.705324 -2.337752 0.000021  3.141588 -0.000020 0.372981
26  2.559856 1.166281 0.000042  -0.000004 0.000010 0.302762
27  2.517382 -0.203306 -0.660682  -3.003378 -1.570822 0.082772
28  2.517348 -0.203310 0.660810  -3.003378 -1.570822 0.082772
29  6.167437 1.545429 -3.137556  1.528139 1.570769 0.110650
30  -0.000000 0.000001 -0.000000  0.256623 -0.649880 -0.753998
31  -0.000002 3.235561 -0.000000  -0.000000 0.000001 -0.000001
32  6.167277 1.545409 3.137881  1.528137 1.570769 0.110732
33  -0.000000 0.000004 -0.000000  0.256623 0.649881 0.753996
34  -0.000013 3.235537 -0.000002  0.000000 -0.000001 0.000001
35  3.763706 -1.842343 0.854307  -1.577191 -2.025534 -0.171567
36  3.158072 1.023395 0.009970  -1.573133 -0.002806 0.454723
37  8.386457 -0.000009 -0.000001  -0.000201 -0.000012 -0.001749
38  8.189342 -0.000023 0.000003  1.573458 -0.106739 0.134898
39  2.514871 0.014681 0.413746  0.037528 -0.133433 -0.106394
40  1.413581 -0.000001 -0.000000  -0.033167 0.000001 0.000001
41  0.872060 0.000003 -0.000000  0.000000 0.003076 -0.216395
42  2.392592 0.028902 1.074986  0.273431 -0.114007 -0.106423
43  1.269056 0.000001 -0.000000  -0.037080 0.010546 -0.032995
44  0.781339 0.000007 -0.000001  -0.000004 0.002593 -0.244316
45  0.011407 -0.384110 0.622055  -1.720111 -0.840128 -0.171090
46  1.777525 0.000001 0.000005  -0.098613 -0.018736 0.040992
47  1.093382 -0.000003 -0.000001  0.000017 0.011266 0.362861
48  2.473935 0.016991 -0.793441  -0.467561 -0.133432 -0.106394
49  1.199411 -0.000005 -0.000000  0.000509 0.000001 -0.000009
50  0.691271 0.000004 0.000001  -0.000010 0.004979 -0.244270
51  2.565223 0.008271 -0.181201  -0.189757 -0.133431 -0.106392
52  1.311277 -0.000004 -0.000000  0.008096 0.000001 -0.000010
53  0.756733 0.000008 -0.000000  -0.000001 0.007356 -0.430824
54  3.763715 -1.842342 -0.854273  1.567159 2.023840 -0.181980
55  3.159798 1.018094 0.005138  1.570041 -0.001590 0.453046
56  8.386458 0.000002 -0.000006  -0.000419 0.000013 -0.001749
57  8.189341 -0.000012 -0.000002  -1.563663 0.106371 0.130252
58  2.516851 0.011597 -0.401616  -0.033465 0.127743 -0.107298
59  1.413579 -0.000005 -0.000000  0.031988 -0.000001 -0.000001
60  0.872056 0.000002 -0.000000  -0.000000 -0.004460 -0.216349
61  2.397789 0.020512 -1.063534  -0.272981 0.108315 -0.107187
62  1.269060 0.000004 -0.000001  0.039336 -0.010806 -0.032911
63  0.781339 0.000005 0.000001  0.000005 -0.004203 -0.244310
64  0.014453 -0.389079 -0.618897  2.009748 0.833947 -0.178818
65  1.777529 0.000004 -0.000005  0.140531 0.030012 0.033629
66  1.093379 -0.000002 0.000001  -0.000006 -0.009622 0.362886
67  2.470042 0.023570 0.805302  0.467702 0.127741 -0.107299
68  1.199410 -0.000004 -0.000002  -0.013929 -0.000002 -0.000009
69  0.691268 0.000005 -0.000001  0.000006 -0.006134 -0.244284
70  2.564311 0.009956 0.193603  0.181005 0.127741 -0.107299
71  1.311275 -0.000002 -0.000000  -0.005394 -0.000002 -0.000009
72  0.756729 0.000003 -0.000001  0.000005 -0.009661 -0.430790
73  0.195833 2.638547 2.051040  -0.817658 2.243732 -0.996559
74  0.000010 2.190265 -0.000024  0.000000 -0.000004 -0.000000
75  0.195852 2.638548 -2.051037  -0.817641 0.897858 -0.996544
76  -0.000003 2.190265 -0.000020  -0.000002 0.000007 -0.000001
77  4.451306 -4.920602 0.000019  1.372480 -1.570801 0.111605
78  -0.000000 3.107622 -0.000004  -0.000002 0.000000 0.000000
79  4.651332 1.229739 1.307682  0.539455 -1.469590 0.360587
80  0.000004 4.594257 -0.000022  0.447172 -0.036773 0.035679
81  0.000002 4.890029 -0.000005  0.000000 0.000000 0.000000
82  4.651345 1.229742 -1.307637  0.539468 -1.672014 0.360576
83  -0.000005 4.594246 -0.000035  0.447166 0.036773 -0.035679
84  -0.000001 4.890023 0.000010  0.000003 -0.000000 0.000000
85  0.000000 -34.636200 -0.136421  -1.570796 -0.000001 0.000000
86  0.000000 -34.636200 -0.136421  0.003939 -0.000001 0.000000
end
