version 1
nodes
0 "ValveBiped.Bip01_Pelvis" -1
1 "ValveBiped.Bip01_Spine" 0
2 "ValveBiped.Bip01_Spine1" 1
3 "ValveBiped.Bip01_Spine2" 2
4 "ValveBiped.Bip01_Spine4" 3
5 "ValveBiped.Bip01_Neck1" 4
6 "ValveBiped.Bip01_Head1" 5
7 "ValveBiped.forward" 6
8 "ValveBiped.Bip01_L_Clavicle" 4
9 "ValveBiped.Bip01_L_UpperArm" 8
10 "ValveBiped.Bip01_L_Forearm" 9
11 "ValveBiped.Bip01_L_Hand" 10
12 "ValveBiped.Anim_Attachment_LH" 11
13 "ValveBiped.Bip01_L_Finger4" 11
14 "ValveBiped.Bip01_L_Finger41" 13
15 "ValveBiped.Bip01_L_Finger42" 14
16 "ValveBiped.Bip01_L_Finger3" 11
17 "ValveBiped.Bip01_L_Finger31" 16
18 "ValveBiped.Bip01_L_Finger32" 17
19 "ValveBiped.Bip01_L_Finger2" 11
20 "ValveBiped.Bip01_L_Finger21" 19
21 "ValveBiped.Bip01_L_Finger22" 20
22 "ValveBiped.Bip01_L_Finger1" 11
23 "ValveBiped.Bip01_L_Finger11" 22
24 "ValveBiped.Bip01_L_Finger12" 23
25 "ValveBiped.Bip01_L_Finger0" 11
26 "ValveBiped.Bip01_L_Finger01" 25
27 "ValveBiped.Bip01_L_Finger02" 26
28 "ValveBiped.Bip01_R_Clavicle" 4
29 "ValveBiped.Bip01_R_UpperArm" 28
30 "ValveBiped.Bip01_R_Forearm" 29
31 "ValveBiped.Bip01_R_Hand" 30
32 "ValveBiped.Anim_Attachment_RH" 31
33 "ValveBiped.Bip01_R_Finger4" 31
34 "ValveBiped.Bip01_R_Finger41" 33
35 "ValveBiped.Bip01_R_Finger42" 34
36 "ValveBiped.Bip01_R_Finger3" 31
37 "ValveBiped.Bip01_R_Finger31" 36
38 "ValveBiped.Bip01_R_Finger32" 37
39 "ValveBiped.Bip01_R_Finger2" 31
40 "ValveBiped.Bip01_R_Finger21" 39
41 "ValveBiped.Bip01_R_Finger22" 40
42 "ValveBiped.Bip01_R_Finger1" 31
43 "ValveBiped.Bip01_R_Finger11" 42
44 "ValveBiped.Bip01_R_Finger12" 43
45 "ValveBiped.Bip01_R_Finger0" 31
46 "ValveBiped.Bip01_R_Finger01" 45
47 "ValveBiped.Bip01_R_Finger02" 46
48 "ValveBiped.Bip01_L_Thigh" 0
49 "ValveBiped.Bip01_L_Calf" 48
50 "ValveBiped.Bip01_L_Foot" 49
51 "ValveBiped.Bip01_L_Toe0" 50
52 "ValveBiped.Bip01_R_Thigh" 0
53 "ValveBiped.Bip01_R_Calf" 52
54 "ValveBiped.Bip01_R_Foot" 53
55 "ValveBiped.Bip01_R_Toe0" 54
end
skeleton
time 0
0  -0.000005 -0.788460 38.481480  1.570796 -0.000000 0.000001
1  0.000005 4.212788 -1.689856  1.570795 0.086294 1.570791
2  3.837404 0.000028 0.000001  -0.000000 0.000001 -0.029233
3  3.617858 0.000024 -0.000003  -0.000000 -0.000044 0.100330
4  7.539772 0.000026 -0.000000  0.000010 0.000052 0.194099
5  3.178294 -0.000031 0.000003  3.141588 -0.000020 0.372981
6  2.970291 -0.000016 -0.000000  -0.000004 0.000010 0.302761
7  -0.000003 0.000001 -0.000000  -1.570796 -0.000000 -1.326447
8  2.023712 0.907440 0.852581  -1.577190 -2.025534 -0.171568
9  4.983671 -0.000010 0.000008  -1.573133 -0.002806 0.454723
10  11.123065 -0.000036 -0.000006  -0.000201 -0.000012 -0.001749
11  11.208264 -0.000034 -0.000040  1.573458 -0.106739 0.134898
12  2.676091 -1.712438 -0.000000  1.570795 0.000002 1.570888
13  3.549249 0.198828 -1.489473  -0.467561 -0.133432 -0.106394
14  1.219007 -0.000000 -0.000002  0.000509 0.000001 -0.000009
15  0.680005 0.000000 -0.000003  -0.000010 0.004979 -0.244270
16  3.698014 0.267560 -0.728982  -0.189757 -0.133431 -0.106392
17  1.749005 0.000003 -0.000003  0.008096 0.000001 -0.000010
18  0.959999 -0.000009 0.000003  -0.000001 0.007356 -0.430824
19  3.768510 0.152547 0.071382  0.037527 -0.133433 -0.106394
20  2.038001 -0.000010 0.000005  -0.033167 0.000001 0.000001
21  1.067011 0.000001 -0.000003  0.000000 0.003076 -0.216395
22  3.783931 -0.017255 0.794554  0.273431 -0.114007 -0.106423
23  1.628997 -0.000003 -0.000002  -0.037080 0.010546 -0.032995
24  0.956004 0.000010 -0.000011  -0.000004 0.002593 -0.244316
25  1.258969 -0.297981 1.252593  -1.720112 -0.840128 -0.171090
26  1.393002 -0.000005 0.000002  -0.098613 -0.018736 0.040992
27  1.100005 -0.000000 -0.000007  0.000017 0.011266 0.362862
28  2.023716 0.907443 -0.852526  1.567160 2.023840 -0.181980
29  4.983669 -0.000011 -0.000002  1.570041 -0.001590 0.453046
30  11.123065 -0.000034 0.000010  -0.000419 0.000013 -0.001749
31  11.208316 -0.000030 0.000016  -1.563663 0.106371 0.130252
32  2.676092 -1.712457 -0.000001  -1.570805 0.000002 -1.570600
33  3.549282 0.211394 1.487670  0.467702 0.127741 -0.107299
34  1.219009 -0.000012 -0.000004  -0.013929 -0.000002 -0.000009
35  0.680000 -0.000001 0.000003  0.000006 -0.006134 -0.244284
36  3.698034 0.273704 0.726622  0.181005 0.127741 -0.107299
37  1.749005 0.000008 0.000007  -0.005393 -0.000001 -0.000009
38  0.960001 -0.000003 -0.000005  0.000005 -0.009661 -0.430790
39  3.768515 0.151939 -0.072743  -0.033464 0.127743 -0.107298
40  2.038007 0.000008 0.000013  0.031988 -0.000001 -0.000000
41  1.066997 0.000004 0.000000  -0.000000 -0.004460 -0.216349
42  3.783919 -0.023967 -0.794456  -0.272981 0.108315 -0.107187
43  1.629000 0.000002 0.000013  0.039336 -0.010806 -0.032910
44  0.955998 0.000014 0.000010  0.000005 -0.004203 -0.244310
45  1.258945 -0.308548 -1.250057  2.009748 0.833947 -0.178818
46  1.393005 -0.000006 -0.000001  0.140531 0.030012 0.033629
47  1.100007 0.000003 0.000002  -0.000007 -0.009622 0.362886
48  3.984014 -0.000000 -0.000003  -1.571056 0.020920 -1.570794
49  15.940023 0.000153 0.000005  -0.004957 -0.000008 0.039137
50  17.709564 -0.000014 -0.000004  0.008799 0.017186 -1.002424
51  6.203997 0.000014 -0.000001  -0.001050 -0.003488 -0.555365
52  -3.984013 0.000008 0.000007  -1.570566 0.020920 -1.570799
53  15.940018 0.000155 0.000001  0.004948 0.000006 0.039137
54  17.709566 -0.000012 0.000001  -0.002132 -0.019446 -1.002277
55  6.203996 -0.000012 -0.000003  -0.061128 0.006497 -0.556037
time 1
0  -0.000005 -0.788460 38.481480  1.570796 -0.000000 0.000001
1  0.000005 4.212788 -1.689856  1.570795 0.086294 1.570791
2  3.837404 0.000028 0.000001  -0.000000 0.000001 -0.029233
3  3.617858 0.000024 -0.000003  -0.000000 -0.000044 0.100330
4  7.539772 0.000026 -0.000000  0.000010 0.000052 0.194099
5  3.178294 -0.000031 0.000003  3.141588 -0.000020 0.372981
6  2.970291 -0.000016 -0.000000  -0.000004 0.000010 0.302761
7  -0.000003 0.000001 -0.000000  -1.570796 -0.000000 -1.326447
8  2.023712 0.907440 0.852581  -1.577190 -2.025534 -0.171568
9  4.983671 -0.000010 0.000008  -1.573133 -0.002806 0.454723
10  11.123065 -0.000036 -0.000006  -0.000201 -0.000012 -0.001749
11  11.208264 -0.000034 -0.000040  1.573458 -0.106739 0.134898
12  2.676091 -1.712438 -0.000000  1.570795 0.000002 1.570888
13  3.549249 0.198828 -1.489473  -0.467561 -0.133432 -0.106394
14  1.219007 -0.000000 -0.000002  0.000509 0.000001 -0.000009
15  0.680005 0.000000 -0.000003  -0.000010 0.004979 -0.244270
16  3.698014 0.267560 -0.728982  -0.189757 -0.133431 -0.106392
17  1.749005 0.000003 -0.000003  0.008096 0.000001 -0.000010
18  0.959999 -0.000009 0.000003  -0.000001 0.007356 -0.430824
19  3.768510 0.152547 0.071382  0.037527 -0.133433 -0.106394
20  2.038001 -0.000010 0.000005  -0.033167 0.000001 0.000001
21  1.067011 0.000001 -0.000003  0.000000 0.003076 -0.216395
22  3.783931 -0.017255 0.794554  0.273431 -0.114007 -0.106423
23  1.628997 -0.000003 -0.000002  -0.037080 0.010546 -0.032995
24  0.956004 0.000010 -0.000011  -0.000004 0.002593 -0.244316
25  1.258969 -0.297981 1.252593  -1.720112 -0.840128 -0.171090
26  1.393002 -0.000005 0.000002  -0.098613 -0.018736 0.040992
27  1.100005 -0.000000 -0.000007  0.000017 0.011266 0.362862
28  2.023716 0.907443 -0.852526  1.567160 2.023840 -0.181980
29  4.983669 -0.000011 -0.000002  1.570041 -0.001590 0.453046
30  11.123065 -0.000034 0.000010  -0.000419 0.000013 -0.001749
31  11.208316 -0.000030 0.000016  -1.563663 0.106371 0.130252
32  2.676092 -1.712457 -0.000001  -1.570805 0.000002 -1.570600
33  3.549282 0.211394 1.487670  0.467702 0.127741 -0.107299
34  1.219009 -0.000012 -0.000004  -0.013929 -0.000002 -0.000009
35  0.680000 -0.000001 0.000003  0.000006 -0.006134 -0.244284
36  3.698034 0.273704 0.726622  0.181005 0.127741 -0.107299
37  1.749005 0.000008 0.000007  -0.005393 -0.000001 -0.000009
38  0.960001 -0.000003 -0.000005  0.000005 -0.009661 -0.430790
39  3.768515 0.151939 -0.072743  -0.033464 0.127743 -0.107298
40  2.038007 0.000008 0.000013  0.031988 -0.000001 -0.000000
41  1.066997 0.000004 0.000000  -0.000000 -0.004460 -0.216349
42  3.783919 -0.023967 -0.794456  -0.272981 0.108315 -0.107187
43  1.629000 0.000002 0.000013  0.039336 -0.010806 -0.032910
44  0.955998 0.000014 0.000010  0.000005 -0.004203 -0.244310
45  1.258945 -0.308548 -1.250057  2.009748 0.833947 -0.178818
46  1.393005 -0.000006 -0.000001  0.140531 0.030012 0.033629
47  1.100007 0.000003 0.000002  -0.000007 -0.009622 0.362886
48  3.984014 -0.000000 -0.000003  -1.571056 0.020920 -1.570794
49  15.940023 0.000153 0.000005  -0.004957 -0.000008 0.039137
50  17.709564 -0.000014 -0.000004  0.008799 0.017186 -1.002424
51  6.203997 0.000014 -0.000001  -0.001050 -0.003488 -0.555365
52  -3.984013 0.000008 0.000007  -1.570566 0.020920 -1.570799
53  15.940018 0.000155 0.000001  0.004948 0.000006 0.039137
54  17.709566 -0.000012 0.000001  -0.002132 -0.019446 -1.002277
55  6.203996 -0.000012 -0.000003  -0.061128 0.006497 -0.556037
end
