version 1
nodes
  0 "airliner_primary_debris_1" -1
  1 "fuselage_debris_primary_1" 0
  2 "fuselage_debris_primary_2" 0
  3 "fuselage_debris_primary_3" 0
  4 "fuselage_debris_primary_4" 0
  5 "fuselage_debris_primary_5" 0
  6 "fuselage_debris_primary_6" 0
  7 "fuselage_debris_primary_7" 0
  8 "fuselage_debris_primary_8" 0
  9 "fuselage_debris_primary_9" 0
  10 "fuselage_debris_primary_10" 0
  11 "fuselage_debris_primary_11" 0
  12 "fuselage_debris_primary_12" 0
  13 "fuselage_debris_primary_13" 0
  14 "fuselage_debris_primary_14" 0
  15 "fuselage_debris_primary_15" 0
  16 "fuselage_debris_primary_16" 0
  17 "fuselage_debris_primary_17" 0
  18 "fuselage_debris_primary_18" 0
  19 "fuselage_debris_primary_19" 0
  20 "fuselage_debris_primary_20" 0
  21 "FireFinger_1" 0
  22 "FireFinger_2" 0
  23 "FireFinger_3" 0
  24 "FireFinger_4" 0
  25 "FireFinger_5" 0
  26 "FireFinger_6" 0
  27 "FireFinger_7" 0
  28 "FireFinger_8" 0
  29 "FireEngine_1" 0
  30 "FireEngine_2" 0
  31 "FireTail_1" 0
  32 "FireTail_2" 0
  33 "HullDebris1" 0
  34 "LESparkEmitter" 0
  35 "LWFirstImpact" 0
  36 "rubbleEmit" 0
  37 "leftEngineFire" 0
end
skeleton
  time 0
    0 -2560.000000 5376.000000 192.000000 1.570674 0.000183 -0.000183
    1 4058.000000 -278.500000 7000.000000 2.874860 0.126146 -2.858278
    2 4512.000000 -588.000000 6948.000000 -3.139840 0.746623 -0.695534
    3 3456.000000 137.000000 6640.000000 -2.431923 0.856205 -2.551956
    4 3456.000000 137.500000 6640.000000 -2.430524 0.855009 -2.550214
    5 3456.000000 137.250000 6640.000000 -2.431838 0.856690 -2.551675
    6 3292.000000 309.500000 6412.000000 -1.732349 0.503008 -2.177921
    7 3458.000000 138.875000 6640.000000 -2.428802 0.854956 -2.552509
    8 3468.000000 64.312500 6700.000000 -2.143730 -0.428802 -1.636760
    9 3392.000000 85.500000 6548.000000 -2.074361 0.554520 -2.019965
    10 3458.000000 141.750000 6640.000000 -2.419103 0.853863 -2.552349
    11 3458.000000 139.500000 6640.000000 -2.423162 0.853697 -2.549716
    12 3450.000000 145.750000 6608.000000 -2.289449 0.906437 -2.451150
    13 3462.000000 144.250000 6640.000000 -2.422176 0.856372 -2.566165
    14 3216.000000 -143.375000 6488.000000 0.661037 0.081888 1.507262
    15 3396.000000 78.312500 6588.000000 -2.148768 0.504895 -1.930718
    16 3472.000000 -111.687500 6648.000000 -2.181576 -0.265590 -1.285387
    17 3574.000000 -202.125000 6300.000000 0.441049 0.920693 1.445535
    18 3378.000000 109.250000 6752.000000 -2.979409 0.985225 -2.662092
    19 3380.000000 108.875000 6744.000000 -2.920983 0.945833 -2.629822
    20 3386.000000 111.875000 6748.000000 -2.916683 0.945500 -2.636320
    21 4832.000000 -146.250000 6252.000000 0.000000 0.000000 0.000000
    22 3954.000000 -101.562500 5352.000000 0.000000 0.000000 0.000000
    23 3188.000000 -173.125000 5440.000000 0.000000 0.000000 0.000000
    24 5048.000000 -126.437500 6516.000000 0.000000 0.000000 0.000000
    25 5400.000000 -193.000000 4856.000000 0.000000 0.000000 0.000000
    26 4720.000000 -193.125000 4368.000000 0.000000 0.000000 0.000000
    27 3330.000000 -156.750000 5380.000000 0.000000 0.000000 0.000000
    28 3152.000000 -284.250000 3596.000000 0.000000 0.000000 0.000000
    29 3422.000000 -118.812500 5560.000000 0.000000 0.000000 0.000000
    30 4082.000000 -158.500000 6476.000000 0.000000 0.000000 0.000000
    31 3570.000000 50.218750 7392.000000 0.000000 0.000000 0.000000
    32 3200.000000 -51.812500 6880.000000 -0.383927 0.551683 0.209405
    33 2856.000000 -123.000000 6476.000000 -1.583566 -0.447434 -1.536969
    34 1582.000000 -805.000000 9960.000000 -2.386155 0.634892 -2.678009
    35 171.750000 -184.125000 11240.000000 -0.077006 0.188761 -0.119014
    36 4152.000000 -200.375000 6212.000000 -0.610767 1.349826 1.341664
    37 3560.000000 -155.250000 5532.000000 0.000000 0.000000 0.000000
end
