version 1
nodes
0 "ValveBiped.Bip01_Pelvis" -1
1 "ValveBiped.Bip01_Spine" 0
2 "ValveBiped.Bip01_Spine1" 1
3 "ValveBiped.Bip01_Spine2" 2
4 "ValveBiped.Bip01_Spine4" 3
5 "ValveBiped.Bip01_Neck1" 4
6 "ValveBiped.Bip01_Head1" 5
7 "Eye_L" 6
8 "Eye_R" 6
9 "Teeth" 6
10 "Tongue1" 6
11 "Tongue2" 10
12 "Tongue3" 11
13 "FrontHair1" 6
14 "FrontHair2" 13
15 "FrontHair_L" 6
16 "FrontHair_R" 6
17 "SideHair1_L" 6
18 "SideHair2_L" 17
19 "SideHair3_L" 18
20 "SideHair1_R" 6
21 "SideHair2_R" 20
22 "SideHair3_R" 21
23 "BackSideHair1_L" 6
24 "BackSideHair2_L" 23
25 "BackSideHair1_R" 6
26 "BackSideHair2_R" 25
27 "BackInsideHair" 6
28 "BackHair" 6
29 "ValveBiped.Bip01_L_Clavicle" 4
30 "SleeveRibbon_L" 29
31 "ValveBiped.Bip01_L_UpperArm" 29
32 "ValveBiped.Bip01_L_Forearm" 31
33 "ValveBiped.Bip01_L_Hand" 32
34 "ValveBiped.Bip01_L_Finger0" 33
35 "ValveBiped.Bip01_L_Finger01" 34
36 "ValveBiped.Bip01_L_Finger02" 35
37 "ValveBiped.Bip01_L_Finger1" 33
38 "ValveBiped.Bip01_L_Finger11" 37
39 "ValveBiped.Bip01_L_Finger12" 38
40 "ValveBiped.Bip01_L_Finger2" 33
41 "ValveBiped.Bip01_L_Finger21" 40
42 "ValveBiped.Bip01_L_Finger22" 41
43 "ValveBiped.Bip01_L_Finger3" 33
44 "ValveBiped.Bip01_L_Finger31" 43
45 "ValveBiped.Bip01_L_Finger32" 44
46 "ValveBiped.Bip01_L_Finger4" 33
47 "ValveBiped.Bip01_L_Finger41" 46
48 "ValveBiped.Bip01_L_Finger42" 47
49 "BackArmKA_L" 31
50 "FrontArmKA_L" 31
51 "BackKA1_L" 29
52 "BackKA2_L" 51
53 "SideKA1_L" 4
54 "SideKA2_L" 53
55 "FrontKA1_L" 4
56 "FrontKA2_L" 55
57 "ValveBiped.Bip01_R_Clavicle" 4
58 "SleeveRibbon_R" 57
59 "ValveBiped.Bip01_R_UpperArm" 57
60 "ValveBiped.Bip01_R_Forearm" 59
61 "ValveBiped.Bip01_R_Hand" 60
62 "ValveBiped.Bip01_R_Finger0" 61
63 "ValveBiped.Bip01_R_Finger01" 62
64 "ValveBiped.Bip01_R_Finger02" 63
65 "ValveBiped.Bip01_R_Finger1" 61
66 "ValveBiped.Bip01_R_Finger11" 65
67 "ValveBiped.Bip01_R_Finger12" 66
68 "ValveBiped.Bip01_R_Finger2" 61
69 "ValveBiped.Bip01_R_Finger21" 68
70 "ValveBiped.Bip01_R_Finger22" 69
71 "ValveBiped.Bip01_R_Finger3" 61
72 "ValveBiped.Bip01_R_Finger31" 71
73 "ValveBiped.Bip01_R_Finger32" 72
74 "ValveBiped.Bip01_R_Finger4" 61
75 "ValveBiped.Bip01_R_Finger41" 74
76 "ValveBiped.Bip01_R_Finger42" 75
77 "BackArmKA_R" 59
78 "FrontArmKA_R" 59
79 "BackKA1_R" 57
80 "BackKA2_R" 79
81 "SideKA1_R" 4
82 "SideKA2_R" 81
83 "FrontKA1_R" 4
84 "FrontKA2_R" 83
85 "BackMiddleKA1" 4
86 "BackMiddleKA2" 85
87 "Tie1" 4
88 "Tie2" 87
89 "Tie3" 88
90 "Tie4" 89
91 "Tie5" 90
92 "Tie6" 91
93 "ValveBiped.Bip01_L_Thigh" 0
94 "ValveBiped.Bip01_L_Calf" 93
95 "ValveBiped.Bip01_L_Foot" 94
96 "ValveBiped.Bip01_R_Thigh" 0
97 "ValveBiped.Bip01_R_Calf" 96
98 "ValveBiped.Bip01_R_Foot" 97
99 "Belt1" 0
100 "Belt2" 99
101 "Belt3" 100
102 "Belt4" 101
103 "Belt5" 102
104 "root" -1
end
skeleton
time 0
0  0.000000 -2.087236 35.214973  1.570796 -0.000000 0.000000
1  0.000003 3.958523 -1.379566  1.570796 -0.074097 1.570801
2  3.543994 0.000050 0.000017  0.000001 -0.000006 -0.112608
3  3.341241 0.000025 -0.000005  0.000000 0.000004 -0.012631
4  6.963290 0.000026 0.000020  -0.000000 -0.000004 0.155824
5  2.935251 -0.000236 -0.000006  -3.141592 0.000001 0.224048
6  2.189415 0.080295 0.000001  0.000000 0.000001 0.100568
7  2.523136 -0.334464 -1.152895  -2.838601 -0.054527 -0.074835
8  2.523140 -0.334462 1.152904  0.303009 -0.054547 3.066767
9  0.249538 -1.665980 0.000000  -2.933630 1.570794 0.000000
10  0.238734 -1.261396 0.000000  -2.901132 1.570789 0.000000
11  0.000000 0.645904 -0.000001  0.005264 0.000000 -0.000000
12  -0.000000 0.483726 -0.000008  -0.005183 0.000000 -0.000000
13  5.935234 -3.225029 0.000010  0.244071 -1.570795 0.000000
14  -0.000000 0.033809 2.125088  -0.005243 -0.000000 0.000000
15  5.935236 -3.225029 -2.082909  -0.244072 1.570783 0.000000
16  5.935222 -3.225028 2.082934  0.244076 -1.570783 0.000000
17  5.365278 0.301702 -4.434361  0.195597 -1.570795 0.000000
18  -0.000000 -0.100057 3.071199  0.009526 0.000000 -0.000001
19  0.000001 -0.047036 2.040987  0.016272 0.000000 0.000000
20  5.365264 0.301709 4.434372  0.195597 -1.570795 0.000000
21  0.000000 -0.100057 3.071192  0.009526 0.000000 -0.000001
22  0.000000 -0.047038 2.040969  0.016272 0.000000 0.000000
23  4.607569 3.495626 -5.170744  0.195596 -1.570795 0.000000
24  -0.000006 -0.166049 5.096714  0.000143 -0.000022 0.001360
25  4.607528 3.495621 5.170754  0.195597 -1.570795 0.000000
26  -0.000006 -0.166041 5.096736  0.000141 0.000022 -0.001361
27  0.605920 4.565644 0.000001  0.183578 -1.570795 0.000000
28  0.339731 5.719987 0.000001  0.183577 -1.570795 0.000000
29  1.620507 0.585389 0.906229  -1.744282 -1.902580 -0.080469
30  8.683124 -0.055900 -0.805790  -1.092022 1.738744 -1.298086
31  4.017077 -0.343716 -0.838147  -1.424298 0.049767 -0.291220
32  9.653361 -0.000036 0.000018  0.000009 0.001787 -0.013706
33  9.700518 0.000004 0.173660  1.570793 -0.058850 -0.000004
34  0.255152 -0.280400 0.786741  -1.627753 -0.392897 -0.330934
35  1.293725 0.000006 0.000012  -0.056161 0.001272 -0.043725
36  1.033813 0.026753 0.086325  -0.001555 -0.078123 -0.261986
37  2.478043 -0.225291 0.803176  -0.000001 0.000004 -0.090666
38  1.164509 -0.027370 0.008879  0.000001 -0.000002 -0.023502
39  0.793106 0.009372 -0.015790  0.000000 -0.000004 0.011814
40  2.609583 -0.172762 0.167400  -0.000000 0.000001 -0.066108
41  1.203957 0.021439 0.008546  0.000000 0.000009 0.017809
42  0.809975 -0.023349 0.000003  0.000000 -0.000005 -0.028821
43  2.495252 -0.287551 -0.444693  -0.000001 0.000005 -0.114732
44  1.024572 0.059878 0.017761  0.000000 0.000004 0.058383
45  0.752829 -0.013725 0.027301  0.000000 -0.000014 -0.018239
46  2.354770 -0.462545 -1.022910  0.000001 0.000007 -0.193953
47  0.807178 0.074560 0.035852  -0.000002 -0.000011 0.092090
48  0.590863 0.010333 0.023017  0.000000 0.000007 0.017477
49  0.140941 1.465827 1.656845  -0.037039 -0.653277 -1.463124
50  -0.074825 -0.930150 1.653086  0.145511 -0.483075 -1.732814
51  2.275750 1.061659 -2.923031  -2.592894 -0.707335 0.649708
52  -0.000005 1.650695 -0.000031  -0.503393 -0.223889 0.141361
53  1.750281 1.309224 2.431595  1.012002 0.210459 0.907313
54  0.000004 2.839316 -0.000018  -0.415799 -0.535953 0.456335
55  1.246714 2.549735 1.387321  0.860360 0.095126 0.755676
56  -0.000027 3.089654 0.000031  -0.353454 -0.556294 0.514158
57  1.620536 0.585402 -0.906207  1.680661 1.903075 -0.071865
58  8.685406 -0.111857 0.775062  -1.212523 1.486552 -1.477545
59  4.019473 -0.402157 0.799957  1.492229 -0.026338 -0.293712
60  9.653352 0.000022 0.000007  0.000007 -0.001794 -0.013689
61  9.700525 -0.000122 -0.173668  -1.570805 0.059150 -0.000016
62  0.255081 -0.280460 -0.786743  1.627755 0.392899 -0.331230
63  1.293741 -0.000002 0.000003  0.063512 -0.003851 -0.043920
64  1.033586 0.026148 -0.089212  0.000851 0.076727 -0.262618
65  2.477999 -0.226017 -0.803182  0.000000 -0.000004 -0.090962
66  1.164514 -0.027366 -0.008881  0.000000 0.000004 -0.023501
67  0.793108 0.009376 0.015791  -0.000000 0.000001 0.011813
68  2.609535 -0.173515 -0.167406  0.000000 0.000001 -0.066404
69  1.203957 0.021439 -0.008547  0.000000 -0.000009 0.017808
70  0.809977 -0.023361 -0.000005  -0.000000 0.000004 -0.028820
71  2.495172 -0.288267 0.444689  0.000001 -0.000003 -0.115028
72  1.024571 0.059879 -0.017761  -0.000000 -0.000004 0.058383
73  0.752823 -0.013726 -0.027303  -0.000000 0.000012 -0.018239
74  2.354617 -0.463204 1.022905  -0.000001 -0.000006 -0.194250
75  0.807182 0.074553 -0.035854  0.000002 0.000011 0.092090
76  0.590853 0.010331 -0.023019  -0.000000 -0.000009 0.017476
77  0.140933 1.465837 -1.656837  -0.037040 -2.488312 -1.463120
78  -0.074834 -0.930144 -1.653080  0.145509 -2.658513 -1.732804
79  2.284101 0.849783 2.985168  0.473908 -0.664782 -2.444386
80  -0.000003 1.650675 -0.000021  -0.503389 0.223883 -0.141364
81  1.750274 1.309221 -2.431607  -2.129604 0.210473 -2.234280
82  0.000037 2.839325 -0.000004  -0.415796 0.535966 -0.456346
83  1.246649 2.549738 -1.387329  0.860367 3.046472 0.755685
84  -0.000009 3.089652 0.000008  -0.353462 0.556295 -0.514155
85  0.209561 -2.528921 -0.000001  -3.001087 1.570788 0.000000
86  0.000000 0.488067 1.833446  0.035870 0.000000 -0.000000
87  0.794473 3.282165 -0.000002  -0.637860 -1.570795 0.000000
88  0.000000 0.091845 0.779436  0.120741 -0.000000 0.000000
89  0.000000 0.167428 0.697981  0.088961 -0.000036 -0.000003
90  0.000041 0.226928 1.110525  0.034318 0.000032 0.000000
91  0.000008 0.112383 1.553919  0.017750 0.000002 0.000000
92  0.000005 -0.150712 1.708766  0.276277 0.000059 0.000016
93  2.982521 0.000004 0.000002  -1.570796 -0.000000 -1.570796
94  13.441393 -0.116438 -0.318385  0.000000 -0.000000 0.122988
95  17.962406 0.000063 -0.000003  0.000001 0.000000 -1.083488
96  -2.982520 0.000004 0.000002  -1.570796 -0.000000 -1.570796
97  13.441389 -0.116438 0.318377  0.000000 -0.000000 0.122988
98  17.962410 0.000063 -0.000003  -0.000000 -0.000000 -1.086515
99  2.795703 6.788696 3.734681  0.869069 -0.000000 0.000000
100  -0.000001 -0.562541 3.198036  0.317564 -0.000000 0.000000
101  0.000001 0.136853 4.045186  0.008175 0.000001 0.000000
102  -0.000004 0.182436 4.048161  0.092436 0.000001 0.000000
103  -0.000005 0.549181 4.012954  0.022275 0.000000 0.000000
104  0.000000 0.000000 0.000000  0.000000 -0.000000 0.000000
time 1
0  0.000000 -2.087236 35.214973  1.570796 -0.000000 0.000000
1  0.000003 3.958523 -1.379566  1.570796 -0.074097 1.570801
2  3.543994 0.000050 0.000017  0.000001 -0.000006 -0.112608
3  3.341241 0.000025 -0.000005  0.000000 0.000004 -0.012631
4  6.963290 0.000026 0.000020  -0.000000 -0.000004 0.155824
5  2.935251 -0.000236 -0.000006  -3.141592 0.000001 0.224048
6  2.189415 0.080295 0.000001  0.000000 0.000001 0.100568
7  2.523136 -0.334464 -1.152895  -2.838601 -0.054527 -0.074835
8  2.523140 -0.334462 1.152904  0.303009 -0.054547 3.066767
9  0.249538 -1.665980 0.000000  -2.933630 1.570794 0.000000
10  0.238734 -1.261396 0.000000  -2.901132 1.570789 0.000000
11  0.000000 0.645904 -0.000001  0.005264 0.000000 -0.000000
12  -0.000000 0.483726 -0.000008  -0.005183 0.000000 -0.000000
13  5.935234 -3.225029 0.000010  0.244071 -1.570795 0.000000
14  -0.000000 0.033809 2.125088  -0.005243 -0.000000 0.000000
15  5.935236 -3.225029 -2.082909  -0.244072 1.570783 0.000000
16  5.935222 -3.225028 2.082934  0.244076 -1.570783 0.000000
17  5.365278 0.301702 -4.434361  0.195597 -1.570795 0.000000
18  -0.000000 -0.100057 3.071199  0.009526 0.000000 -0.000001
19  0.000001 -0.047036 2.040987  0.016272 0.000000 0.000000
20  5.365264 0.301709 4.434372  0.195597 -1.570795 0.000000
21  0.000000 -0.100057 3.071192  0.009526 0.000000 -0.000001
22  0.000000 -0.047038 2.040969  0.016272 0.000000 0.000000
23  4.607569 3.495626 -5.170744  0.195596 -1.570795 0.000000
24  -0.000006 -0.166049 5.096714  0.000143 -0.000022 0.001360
25  4.607528 3.495621 5.170754  0.195597 -1.570795 0.000000
26  -0.000006 -0.166041 5.096736  0.000141 0.000022 -0.001361
27  0.605920 4.565644 0.000001  0.183578 -1.570795 0.000000
28  0.339731 5.719987 0.000001  0.183577 -1.570795 0.000000
29  1.620507 0.585389 0.906229  -1.744282 -1.902580 -0.080469
30  8.683124 -0.055900 -0.805790  -1.092022 1.738744 -1.298086
31  4.017077 -0.343716 -0.838147  -1.424298 0.049767 -0.291220
32  9.653361 -0.000036 0.000018  0.000009 0.001787 -0.013706
33  9.700518 0.000004 0.173660  1.570793 -0.058850 -0.000004
34  0.255152 -0.280400 0.786741  -1.627753 -0.392897 -0.330934
35  1.293725 0.000006 0.000012  -0.056161 0.001272 -0.043725
36  1.033813 0.026753 0.086325  -0.001555 -0.078123 -0.261986
37  2.478043 -0.225291 0.803176  -0.000001 0.000004 -0.090666
38  1.164509 -0.027370 0.008879  0.000001 -0.000002 -0.023502
39  0.793106 0.009372 -0.015790  0.000000 -0.000004 0.011814
40  2.609583 -0.172762 0.167400  -0.000000 0.000001 -0.066108
41  1.203957 0.021439 0.008546  0.000000 0.000009 0.017809
42  0.809975 -0.023349 0.000003  0.000000 -0.000005 -0.028821
43  2.495252 -0.287551 -0.444693  -0.000001 0.000005 -0.114732
44  1.024572 0.059878 0.017761  0.000000 0.000004 0.058383
45  0.752829 -0.013725 0.027301  0.000000 -0.000014 -0.018239
46  2.354770 -0.462545 -1.022910  0.000001 0.000007 -0.193953
47  0.807178 0.074560 0.035852  -0.000002 -0.000011 0.092090
48  0.590863 0.010333 0.023017  0.000000 0.000007 0.017477
49  0.140941 1.465827 1.656845  -0.037039 -0.653277 -1.463124
50  -0.074825 -0.930150 1.653086  0.145511 -0.483075 -1.732814
51  2.275750 1.061659 -2.923031  -2.592894 -0.707335 0.649708
52  -0.000005 1.650695 -0.000031  -0.503393 -0.223889 0.141361
53  1.750281 1.309224 2.431595  1.012002 0.210459 0.907313
54  0.000004 2.839316 -0.000018  -0.415799 -0.535953 0.456335
55  1.246714 2.549735 1.387321  0.860360 0.095126 0.755676
56  -0.000027 3.089654 0.000031  -0.353454 -0.556294 0.514158
57  1.620536 0.585402 -0.906207  1.680661 1.903075 -0.071865
58  8.685406 -0.111857 0.775062  -1.212523 1.486552 -1.477545
59  4.019473 -0.402157 0.799957  1.492229 -0.026338 -0.293712
60  9.653352 0.000022 0.000007  0.000007 -0.001794 -0.013689
61  9.700525 -0.000122 -0.173668  -1.570805 0.059150 -0.000016
62  0.255081 -0.280460 -0.786743  1.627755 0.392899 -0.331230
63  1.293741 -0.000002 0.000003  0.063512 -0.003851 -0.043920
64  1.033586 0.026148 -0.089212  0.000851 0.076727 -0.262618
65  2.477999 -0.226017 -0.803182  0.000000 -0.000004 -0.090962
66  1.164514 -0.027366 -0.008881  0.000000 0.000004 -0.023501
67  0.793108 0.009376 0.015791  -0.000000 0.000001 0.011813
68  2.609535 -0.173515 -0.167406  0.000000 0.000001 -0.066404
69  1.203957 0.021439 -0.008547  0.000000 -0.000009 0.017808
70  0.809977 -0.023361 -0.000005  -0.000000 0.000004 -0.028820
71  2.495172 -0.288267 0.444689  0.000001 -0.000003 -0.115028
72  1.024571 0.059879 -0.017761  -0.000000 -0.000004 0.058383
73  0.752823 -0.013726 -0.027303  -0.000000 0.000012 -0.018239
74  2.354617 -0.463204 1.022905  -0.000001 -0.000006 -0.194250
75  0.807182 0.074553 -0.035854  0.000002 0.000011 0.092090
76  0.590853 0.010331 -0.023019  -0.000000 -0.000009 0.017476
77  0.140933 1.465837 -1.656837  -0.037040 -2.488312 -1.463120
78  -0.074834 -0.930144 -1.653080  0.145509 -2.658513 -1.732804
79  2.284101 0.849783 2.985168  0.473908 -0.664782 -2.444386
80  -0.000003 1.650675 -0.000021  -0.503389 0.223883 -0.141364
81  1.750274 1.309221 -2.431607  -2.129604 0.210473 -2.234280
82  0.000037 2.839325 -0.000004  -0.415796 0.535966 -0.456346
83  1.246649 2.549738 -1.387329  0.860367 3.046472 0.755685
84  -0.000009 3.089652 0.000008  -0.353462 0.556295 -0.514155
85  0.209561 -2.528921 -0.000001  -3.001087 1.570788 0.000000
86  0.000000 0.488067 1.833446  0.035870 0.000000 -0.000000
87  0.794473 3.282165 -0.000002  -0.637860 -1.570795 0.000000
88  0.000000 0.091845 0.779436  0.120741 -0.000000 0.000000
89  0.000000 0.167428 0.697981  0.088961 -0.000036 -0.000003
90  0.000041 0.226928 1.110525  0.034318 0.000032 0.000000
91  0.000008 0.112383 1.553919  0.017750 0.000002 0.000000
92  0.000005 -0.150712 1.708766  0.276277 0.000059 0.000016
93  2.982521 0.000004 0.000002  -1.570796 -0.000000 -1.570796
94  13.441393 -0.116438 -0.318385  0.000000 -0.000000 0.122988
95  17.962406 0.000063 -0.000003  0.000001 0.000000 -1.083488
96  -2.982520 0.000004 0.000002  -1.570796 -0.000000 -1.570796
97  13.441389 -0.116438 0.318377  0.000000 -0.000000 0.122988
98  17.962410 0.000063 -0.000003  -0.000000 -0.000000 -1.086515
99  2.795703 6.788696 3.734681  0.869069 -0.000000 0.000000
100  -0.000001 -0.562541 3.198036  0.317564 -0.000000 0.000000
101  0.000001 0.136853 4.045186  0.008175 0.000001 0.000000
102  -0.000004 0.182436 4.048161  0.092436 0.000001 0.000000
103  -0.000005 0.549181 4.012954  0.022275 0.000000 0.000000
104  0.000000 0.000000 0.000000  0.000000 -0.000000 0.000000
end
