// Created by Crowbar 0.74
version 1
nodes
  0 "static_prop" -1
end
skeleton
  time 0
    0 0.000000 0.000000 0.000000 0.000000 0.000000 0.000000
end
triangles
  phy
    0 -4.395058 -1.928179 17.999998 -0.987648 0.000001 -0.156689 0 0
    0 -5.996498 -7.904844 17.999995 0.457799 0.000001 -0.889056 0 0
    0 -3.335197 -2.212166 20.648994 -0.317276 -0.599650 -0.734681 0 0
  phy
    0 -3.335197 -2.212166 20.648994 -0.317276 -0.599650 -0.734681 0 0
    0 -5.996498 -7.904844 17.999995 0.457799 0.000001 -0.889056 0 0
    0 -4.936636 -8.188836 20.648994 -0.042847 -0.791764 -0.609322 0 0
  phy
    0 -5.996498 -7.904844 17.999995 0.457799 0.000001 -0.889056 0 0
    0 -2.377900 -8.874446 21.746243 0.391484 -0.919801 0.026580 0 0
    0 -4.936636 -8.188836 20.648994 -0.042847 -0.791764 -0.609322 0 0
  phy
    0 -5.996498 -7.904844 17.999995 0.457799 0.000001 -0.889056 0 0
    0 0.180837 -9.560059 20.648992 0.714964 -0.498657 0.490069 0 0
    0 -2.377900 -8.874446 21.746243 0.391484 -0.919801 0.026580 0 0
  phy
    0 -5.996498 -7.904844 17.999995 0.457799 0.000001 -0.889056 0 0
    0 1.240699 -9.844045 17.999995 0.959373 0.000001 0.282142 0 0
    0 0.180837 -9.560059 20.648992 0.714964 -0.498657 0.490069 0 0
  phy
    0 -5.996498 -7.904844 17.999995 0.457799 0.000001 -0.889056 0 0
    0 -4.936635 -8.188831 15.350998 0.628252 0.450259 -0.634481 0 0
    0 1.240699 -9.844045 17.999995 0.959373 0.000001 0.282142 0 0
  phy
    0 -4.936635 -8.188831 15.350998 0.628252 0.450259 -0.634481 0 0
    0 0.180838 -9.560052 15.350998 0.455031 0.676776 0.578724 0 0
    0 1.240699 -9.844045 17.999995 0.959373 0.000001 0.282142 0 0
  phy
    0 -4.936635 -8.188831 15.350998 0.628252 0.450259 -0.634481 0 0
    0 -2.377899 -8.874441 14.253751 0.077194 0.983878 -0.161321 0 0
    0 0.180838 -9.560052 15.350998 0.455031 0.676776 0.578724 0 0
  phy
    0 -4.936635 -8.188831 15.350998 0.628252 0.450259 -0.634481 0 0
    0 -5.996498 -7.904844 17.999995 0.457799 0.000001 -0.889056 0 0
    0 -3.335193 -2.212171 15.350997 -0.455032 0.676775 -0.578724 0 0
  phy
    0 -3.335193 -2.212171 15.350997 -0.455032 0.676775 -0.578724 0 0
    0 -5.996498 -7.904844 17.999995 0.457799 0.000001 -0.889056 0 0
    0 -4.395058 -1.928179 17.999998 -0.987648 0.000001 -0.156689 0 0
  phy
    0 -4.936636 -8.188836 20.648994 -0.042847 -0.791764 -0.609322 0 0
    0 -0.776461 -2.897775 21.746243 -0.391484 -0.919801 -0.026580 0 0
    0 -3.335197 -2.212166 20.648994 -0.317276 -0.599650 -0.734681 0 0
  phy
    0 -4.936636 -8.188836 20.648994 -0.042847 -0.791764 -0.609322 0 0
    0 -2.377900 -8.874446 21.746243 0.391484 -0.919801 0.026580 0 0
    0 -0.776461 -2.897775 21.746243 -0.391484 -0.919801 -0.026580 0 0
  phy
    0 0.180837 -9.560059 20.648992 0.714964 -0.498657 0.490069 0 0
    0 1.782281 -3.583387 20.648992 -0.415491 -0.658416 0.627579 0 0
    0 -2.377900 -8.874446 21.746243 0.391484 -0.919801 0.026580 0 0
  phy
    0 1.782281 -3.583387 20.648992 -0.415491 -0.658416 0.627579 0 0
    0 -0.776461 -2.897775 21.746243 -0.391484 -0.919801 -0.026580 0 0
    0 -2.377900 -8.874446 21.746243 0.391484 -0.919801 0.026580 0 0
  phy
    0 1.240699 -9.844045 17.999995 0.959373 0.000001 0.282142 0 0
    0 2.842141 -3.867378 17.999995 -0.278874 0.000000 0.960328 0 0
    0 0.180837 -9.560059 20.648992 0.714964 -0.498657 0.490069 0 0
  phy
    0 2.842141 -3.867378 17.999995 -0.278874 0.000000 0.960328 0 0
    0 1.782281 -3.583387 20.648992 -0.415491 -0.658416 0.627579 0 0
    0 0.180837 -9.560059 20.648992 0.714964 -0.498657 0.490069 0 0
  phy
    0 -4.395058 -1.928179 17.999998 -0.987648 0.000001 -0.156689 0 0
    0 -3.335197 -2.212166 20.648994 -0.317276 -0.599650 -0.734681 0 0
    0 -0.776461 -2.897775 21.746243 -0.391484 -0.919801 -0.026580 0 0
  phy
    0 -4.395058 -1.928179 17.999998 -0.987648 0.000001 -0.156689 0 0
    0 -0.776461 -2.897775 21.746243 -0.391484 -0.919801 -0.026580 0 0
    0 1.782281 -3.583387 20.648992 -0.415491 -0.658416 0.627579 0 0
  phy
    0 -4.395058 -1.928179 17.999998 -0.987648 0.000001 -0.156689 0 0
    0 1.782281 -3.583387 20.648992 -0.415491 -0.658416 0.627579 0 0
    0 2.842141 -3.867378 17.999995 -0.278874 0.000000 0.960328 0 0
  phy
    0 -4.395058 -1.928179 17.999998 -0.987648 0.000001 -0.156689 0 0
    0 2.842141 -3.867378 17.999995 -0.278874 0.000000 0.960328 0 0
    0 1.782280 -3.583391 15.351001 -0.628252 0.450259 0.634481 0 0
  phy
    0 -4.395058 -1.928179 17.999998 -0.987648 0.000001 -0.156689 0 0
    0 1.782280 -3.583391 15.351001 -0.628252 0.450259 0.634481 0 0
    0 -3.335193 -2.212171 15.350997 -0.455032 0.676775 -0.578724 0 0
  phy
    0 -3.335193 -2.212171 15.350997 -0.455032 0.676775 -0.578724 0 0
    0 1.782280 -3.583391 15.351001 -0.628252 0.450259 0.634481 0 0
    0 -0.776461 -2.897780 14.253749 -0.077194 0.983878 0.161321 0 0
  phy
    0 -2.377899 -8.874441 14.253751 0.077194 0.983878 -0.161321 0 0
    0 -0.776461 -2.897780 14.253749 -0.077194 0.983878 0.161321 0 0
    0 0.180838 -9.560052 15.350998 0.455031 0.676776 0.578724 0 0
  phy
    0 0.180838 -9.560052 15.350998 0.455031 0.676776 0.578724 0 0
    0 -0.776461 -2.897780 14.253749 -0.077194 0.983878 0.161321 0 0
    0 1.782280 -3.583391 15.351001 -0.628252 0.450259 0.634481 0 0
  phy
    0 -3.335193 -2.212171 15.350997 -0.455032 0.676775 -0.578724 0 0
    0 -0.776461 -2.897780 14.253749 -0.077194 0.983878 0.161321 0 0
    0 -2.377899 -8.874441 14.253751 0.077194 0.983878 -0.161321 0 0
  phy
    0 -3.335193 -2.212171 15.350997 -0.455032 0.676775 -0.578724 0 0
    0 -2.377899 -8.874441 14.253751 0.077194 0.983878 -0.161321 0 0
    0 -4.936635 -8.188831 15.350998 0.628252 0.450259 -0.634481 0 0
  phy
    0 0.180838 -9.560052 15.350998 0.455031 0.676776 0.578724 0 0
    0 2.842141 -3.867378 17.999995 -0.278874 0.000000 0.960328 0 0
    0 1.240699 -9.844045 17.999995 0.959373 0.000001 0.282142 0 0
  phy
    0 0.180838 -9.560052 15.350998 0.455031 0.676776 0.578724 0 0
    0 1.782280 -3.583391 15.351001 -0.628252 0.450259 0.634481 0 0
    0 2.842141 -3.867378 17.999995 -0.278874 0.000000 0.960328 0 0
  phy
    0 7.999999 0.000000 25.999992 0.000000 -0.294086 0.955779 0 0
    0 5.656854 -5.656853 0.000000 0.698884 0.152057 0.698884 0 0
    0 7.999999 0.000002 0.000000 0.000000 0.465017 0.885302 0 0
  phy
    0 7.999999 0.000000 25.999992 0.000000 -0.294086 0.955779 0 0
    0 5.656855 -5.656854 25.999992 0.602213 -0.524097 0.602213 0 0
    0 5.656854 -5.656853 0.000000 0.698884 0.152057 0.698884 0 0
  phy
    0 5.656854 5.656852 0.000000 -0.559323 0.376497 0.738517 0 0
    0 7.999999 0.000000 25.999992 0.000000 -0.294086 0.955779 0 0
    0 7.999999 0.000002 0.000000 0.000000 0.465017 0.885302 0 0
  phy
    0 5.656854 5.656852 0.000000 -0.559323 0.376497 0.738517 0 0
    0 5.656854 5.656851 25.999992 -0.795767 -0.059411 0.602682 0 0
    0 7.999999 0.000000 25.999992 0.000000 -0.294086 0.955779 0 0
  phy
    0 -0.000001 7.999998 25.999992 -0.970763 -0.199131 -0.134034 0 0
    0 7.999999 0.000000 25.999992 0.000000 -0.294086 0.955779 0 0
    0 5.656854 5.656851 25.999992 -0.795767 -0.059411 0.602682 0 0
  phy
    0 -0.000001 7.999998 25.999992 -0.970763 -0.199131 -0.134034 0 0
    0 -5.656854 5.656852 25.999992 -0.482237 -0.601678 -0.636734 0 0
    0 7.999999 0.000000 25.999992 0.000000 -0.294086 0.955779 0 0
  phy
    0 -5.656854 5.656852 25.999992 -0.482237 -0.601678 -0.636734 0 0
    0 5.656855 -5.656854 25.999992 0.602213 -0.524097 0.602213 0 0
    0 7.999999 0.000000 25.999992 0.000000 -0.294086 0.955779 0 0
  phy
    0 -5.656854 5.656852 25.999992 -0.482237 -0.601678 -0.636734 0 0
    0 0.000002 -7.999999 25.999992 0.935894 -0.327727 0.129220 0 0
    0 5.656855 -5.656854 25.999992 0.602213 -0.524097 0.602213 0 0
  phy
    0 -5.656854 5.656852 25.999992 -0.482237 -0.601678 -0.636734 0 0
    0 -5.656853 -5.656854 25.999992 0.698885 -0.152057 -0.698884 0 0
    0 0.000002 -7.999999 25.999992 0.935894 -0.327727 0.129220 0 0
  phy
    0 -5.656854 5.656852 25.999992 -0.482237 -0.601678 -0.636734 0 0
    0 -8.000000 -0.000002 25.999992 0.000000 -0.089757 -0.995964 0 0
    0 -5.656853 -5.656854 25.999992 0.698885 -0.152057 -0.698884 0 0
  phy
    0 5.656854 5.656852 0.000000 -0.559323 0.376497 0.738517 0 0
    0 -0.000001 7.999999 0.000000 -0.935894 0.327727 0.129220 0 0
    0 5.656854 5.656851 25.999992 -0.795767 -0.059411 0.602682 0 0
  phy
    0 5.656854 5.656851 25.999992 -0.795767 -0.059411 0.602682 0 0
    0 -0.000001 7.999999 0.000000 -0.935894 0.327727 0.129220 0 0
    0 -0.000001 7.999998 25.999992 -0.970763 -0.199131 -0.134034 0 0
  phy
    0 -5.656854 5.656852 25.999992 -0.482237 -0.601678 -0.636734 0 0
    0 -0.000001 7.999998 25.999992 -0.970763 -0.199131 -0.134034 0 0
    0 -5.656854 5.656853 0.000000 -0.781210 0.199131 -0.591657 0 0
  phy
    0 -5.656854 5.656853 0.000000 -0.781210 0.199131 -0.591657 0 0
    0 -0.000001 7.999998 25.999992 -0.970763 -0.199131 -0.134034 0 0
    0 -0.000001 7.999999 0.000000 -0.935894 0.327727 0.129220 0 0
  phy
    0 0.000002 -7.999998 0.000000 0.988853 0.059411 -0.136532 0 0
    0 -5.656853 -5.656853 0.000000 0.445896 0.776114 -0.445896 0 0
    0 5.656854 -5.656853 0.000000 0.698884 0.152057 0.698884 0 0
  phy
    0 5.656854 -5.656853 0.000000 0.698884 0.152057 0.698884 0 0
    0 -5.656853 -5.656853 0.000000 0.445896 0.776114 -0.445896 0 0
    0 7.999999 0.000002 0.000000 0.000000 0.465017 0.885302 0 0
  phy
    0 7.999999 0.000002 0.000000 0.000000 0.465017 0.885302 0 0
    0 -5.656853 -5.656853 0.000000 0.445896 0.776114 -0.445896 0 0
    0 5.656854 5.656852 0.000000 -0.559323 0.376497 0.738517 0 0
  phy
    0 5.656854 5.656852 0.000000 -0.559323 0.376497 0.738517 0 0
    0 -5.656853 -5.656853 0.000000 0.445896 0.776114 -0.445896 0 0
    0 -0.000001 7.999999 0.000000 -0.935894 0.327727 0.129220 0 0
  phy
    0 -0.000001 7.999999 0.000000 -0.935894 0.327727 0.129220 0 0
    0 -5.656853 -5.656853 0.000000 0.445896 0.776114 -0.445896 0 0
    0 -5.656854 5.656853 0.000000 -0.781210 0.199131 -0.591657 0 0
  phy
    0 -5.656854 5.656853 0.000000 -0.781210 0.199131 -0.591657 0 0
    0 -5.656853 -5.656853 0.000000 0.445896 0.776114 -0.445896 0 0
    0 -8.000000 -0.000002 0.000000 0.000000 0.045015 -0.998986 0 0
  phy
    0 -5.656853 -5.656853 0.000000 0.445896 0.776114 -0.445896 0 0
    0 -5.656853 -5.656854 25.999992 0.698885 -0.152057 -0.698884 0 0
    0 -8.000000 -0.000002 0.000000 0.000000 0.045015 -0.998986 0 0
  phy
    0 -8.000000 -0.000002 0.000000 0.000000 0.045015 -0.998986 0 0
    0 -5.656853 -5.656854 25.999992 0.698885 -0.152057 -0.698884 0 0
    0 -8.000000 -0.000002 25.999992 0.000000 -0.089757 -0.995964 0 0
  phy
    0 -5.656853 -5.656854 25.999992 0.698885 -0.152057 -0.698884 0 0
    0 0.000002 -7.999998 0.000000 0.988853 0.059411 -0.136532 0 0
    0 0.000002 -7.999999 25.999992 0.935894 -0.327727 0.129220 0 0
  phy
    0 -5.656853 -5.656854 25.999992 0.698885 -0.152057 -0.698884 0 0
    0 -5.656853 -5.656853 0.000000 0.445896 0.776114 -0.445896 0 0
    0 0.000002 -7.999998 0.000000 0.988853 0.059411 -0.136532 0 0
  phy
    0 5.656854 -5.656853 0.000000 0.698884 0.152057 0.698884 0 0
    0 0.000002 -7.999999 25.999992 0.935894 -0.327727 0.129220 0 0
    0 0.000002 -7.999998 0.000000 0.988853 0.059411 -0.136532 0 0
  phy
    0 5.656854 -5.656853 0.000000 0.698884 0.152057 0.698884 0 0
    0 5.656855 -5.656854 25.999992 0.602213 -0.524097 0.602213 0 0
    0 0.000002 -7.999999 25.999992 0.935894 -0.327727 0.129220 0 0
  phy
    0 -8.000000 -0.000002 25.999992 0.000000 -0.089757 -0.995964 0 0
    0 -5.656854 5.656852 25.999992 -0.482237 -0.601678 -0.636734 0 0
    0 -8.000000 -0.000002 0.000000 0.000000 0.045015 -0.998986 0 0
  phy
    0 -8.000000 -0.000002 0.000000 0.000000 0.045015 -0.998986 0 0
    0 -5.656854 5.656852 25.999992 -0.482237 -0.601678 -0.636734 0 0
    0 -5.656854 5.656853 0.000000 -0.781210 0.199131 -0.591657 0 0
  phy
    0 -0.000001 -6.000000 25.999994 0.972575 0.189907 -0.134285 0 0
    0 -4.242640 -4.242642 31.999993 0.632455 -0.447214 -0.632456 0 0
    0 -4.242640 -4.242641 25.999994 0.500000 0.707107 -0.500000 0 0
  phy
    0 -0.000001 -6.000000 25.999994 0.972575 0.189907 -0.134285 0 0
    0 0.000000 -6.000001 31.999993 0.972575 -0.189907 0.134285 0 0
    0 -4.242640 -4.242642 31.999993 0.632455 -0.447214 -0.632456 0 0
  phy
    0 -4.242640 -4.242641 25.999994 0.500000 0.707107 -0.500000 0 0
    0 -4.242640 -4.242642 31.999993 0.632455 -0.447214 -0.632456 0 0
    0 -5.999999 0.000000 25.999994 0.000000 0.649216 -0.760604 0 0
  phy
    0 -5.999999 0.000000 25.999994 0.000000 0.649216 -0.760604 0 0
    0 -4.242640 -4.242642 31.999993 0.632455 -0.447214 -0.632456 0 0
    0 -5.999999 0.000000 31.999993 0.000000 -0.862856 -0.505449 0 0
  phy
    0 -0.000001 -6.000000 25.999994 0.972575 0.189907 -0.134285 0 0
    0 -4.242640 -4.242641 25.999994 0.500000 0.707107 -0.500000 0 0
    0 4.242639 -4.242640 25.999994 0.335742 0.880088 0.335742 0 0
  phy
    0 4.242639 -4.242640 25.999994 0.335742 0.880088 0.335742 0 0
    0 -4.242640 -4.242641 25.999994 0.500000 0.707107 -0.500000 0 0
    0 -5.999999 0.000000 25.999994 0.000000 0.649216 -0.760604 0 0
  phy
    0 4.242639 -4.242640 25.999994 0.335742 0.880088 0.335742 0 0
    0 -5.999999 0.000000 25.999994 0.000000 0.649216 -0.760604 0 0
    0 -4.242640 4.242638 25.999994 -0.389160 0.872746 -0.294734 0 0
  phy
    0 4.242639 -4.242640 25.999994 0.335742 0.880088 0.335742 0 0
    0 -4.242640 4.242638 25.999994 -0.389160 0.872746 -0.294734 0 0
    0 4.242640 4.242637 25.999994 -0.316228 0.894427 0.316228 0 0
  phy
    0 4.242639 -4.242640 25.999994 0.335742 0.880088 0.335742 0 0
    0 4.242640 4.242637 25.999994 -0.316228 0.894427 0.316228 0 0
    0 5.999999 0.000001 25.999994 -0.134285 0.189907 0.972575 0 0
  phy
    0 4.242640 4.242637 25.999994 -0.316228 0.894427 0.316228 0 0
    0 -4.242640 4.242638 25.999994 -0.389160 0.872746 -0.294734 0 0
    0 -0.000001 5.999998 25.999994 -0.972575 0.189907 0.134285 0 0
  phy
    0 5.999999 0.000001 25.999994 -0.134285 0.189907 0.972575 0 0
    0 5.999999 0.000000 31.999993 0.134285 -0.189907 0.972575 0 0
    0 4.242639 -4.242640 25.999994 0.335742 0.880088 0.335742 0 0
  phy
    0 5.999999 0.000000 31.999993 0.134285 -0.189907 0.972575 0 0
    0 4.242638 -4.242642 31.999993 0.184161 -0.965489 0.184161 0 0
    0 4.242639 -4.242640 25.999994 0.335742 0.880088 0.335742 0 0
  phy
    0 0.000000 -6.000001 31.999993 0.972575 -0.189907 0.134285 0 0
    0 4.242639 -4.242640 25.999994 0.335742 0.880088 0.335742 0 0
    0 4.242638 -4.242642 31.999993 0.184161 -0.965489 0.184161 0 0
  phy
    0 0.000000 -6.000001 31.999993 0.972575 -0.189907 0.134285 0 0
    0 -0.000001 -6.000000 25.999994 0.972575 0.189907 -0.134285 0 0
    0 4.242639 -4.242640 25.999994 0.335742 0.880088 0.335742 0 0
  phy
    0 4.242638 -4.242642 31.999993 0.184161 -0.965489 0.184161 0 0
    0 -4.242640 -4.242642 31.999993 0.632455 -0.447214 -0.632456 0 0
    0 0.000000 -6.000001 31.999993 0.972575 -0.189907 0.134285 0 0
  phy
    0 4.242638 -4.242642 31.999993 0.184161 -0.965489 0.184161 0 0
    0 -5.999999 0.000000 31.999993 0.000000 -0.862856 -0.505449 0 0
    0 -4.242640 -4.242642 31.999993 0.632455 -0.447214 -0.632456 0 0
  phy
    0 4.242638 -4.242642 31.999993 0.184161 -0.965489 0.184161 0 0
    0 -4.242640 4.242638 31.999993 -0.294734 -0.872746 -0.389160 0 0
    0 -5.999999 0.000000 31.999993 0.000000 -0.862856 -0.505449 0 0
  phy
    0 4.242638 -4.242642 31.999993 0.184161 -0.965489 0.184161 0 0
    0 4.242640 4.242637 31.999993 -0.500000 -0.707107 0.500000 0 0
    0 -4.242640 4.242638 31.999993 -0.294734 -0.872746 -0.389160 0 0
  phy
    0 4.242638 -4.242642 31.999993 0.184161 -0.965489 0.184161 0 0
    0 5.999999 0.000000 31.999993 0.134285 -0.189907 0.972575 0 0
    0 4.242640 4.242637 31.999993 -0.500000 -0.707107 0.500000 0 0
  phy
    0 4.242640 4.242637 31.999993 -0.500000 -0.707107 0.500000 0 0
    0 -0.000001 5.999998 31.999993 -0.972575 -0.189907 -0.134285 0 0
    0 -4.242640 4.242638 31.999993 -0.294734 -0.872746 -0.389160 0 0
  phy
    0 -5.999999 0.000000 31.999993 0.000000 -0.862856 -0.505449 0 0
    0 -4.242640 4.242638 31.999993 -0.294734 -0.872746 -0.389160 0 0
    0 -5.999999 0.000000 25.999994 0.000000 0.649216 -0.760604 0 0
  phy
    0 -5.999999 0.000000 25.999994 0.000000 0.649216 -0.760604 0 0
    0 -4.242640 4.242638 31.999993 -0.294734 -0.872746 -0.389160 0 0
    0 -4.242640 4.242638 25.999994 -0.389160 0.872746 -0.294734 0 0
  phy
    0 -4.242640 4.242638 31.999993 -0.294734 -0.872746 -0.389160 0 0
    0 -0.000001 5.999998 31.999993 -0.972575 -0.189907 -0.134285 0 0
    0 -4.242640 4.242638 25.999994 -0.389160 0.872746 -0.294734 0 0
  phy
    0 -4.242640 4.242638 25.999994 -0.389160 0.872746 -0.294734 0 0
    0 -0.000001 5.999998 31.999993 -0.972575 -0.189907 -0.134285 0 0
    0 -0.000001 5.999998 25.999994 -0.972575 0.189907 0.134285 0 0
  phy
    0 -0.000001 5.999998 31.999993 -0.972575 -0.189907 -0.134285 0 0
    0 4.242640 4.242637 31.999993 -0.500000 -0.707107 0.500000 0 0
    0 -0.000001 5.999998 25.999994 -0.972575 0.189907 0.134285 0 0
  phy
    0 -0.000001 5.999998 25.999994 -0.972575 0.189907 0.134285 0 0
    0 4.242640 4.242637 31.999993 -0.500000 -0.707107 0.500000 0 0
    0 4.242640 4.242637 25.999994 -0.316228 0.894427 0.316228 0 0
  phy
    0 4.242640 4.242637 25.999994 -0.316228 0.894427 0.316228 0 0
    0 4.242640 4.242637 31.999993 -0.500000 -0.707107 0.500000 0 0
    0 5.999999 0.000001 25.999994 -0.134285 0.189907 0.972575 0 0
  phy
    0 4.242640 4.242637 31.999993 -0.500000 -0.707107 0.500000 0 0
    0 5.999999 0.000000 31.999993 0.134285 -0.189907 0.972575 0 0
    0 5.999999 0.000001 25.999994 -0.134285 0.189907 0.972575 0 0
  phy
    0 2.545585 -2.545589 38.999997 0.623301 -0.472221 0.623300 0 0
    0 5.999998 -0.000006 32.000004 0.000000 0.496293 0.868155 0 0
    0 3.600000 -0.000005 38.999997 0.000000 -0.773595 0.633680 0 0
  phy
    0 2.545585 -2.545589 38.999997 0.623301 -0.472221 0.623300 0 0
    0 4.242640 -4.242643 32.000004 0.628822 0.457348 0.628821 0 0
    0 5.999998 -0.000006 32.000004 0.000000 0.496293 0.868155 0 0
  phy
    0 0.000000 -3.600004 38.999997 0.896751 -0.442536 0.000000 0 0
    0 -0.000002 -6.000002 32.000004 0.983147 -0.182816 0.000000 0 0
    0 2.545585 -2.545589 38.999997 0.623301 -0.472221 0.623300 0 0
  phy
    0 -0.000002 -6.000002 32.000004 0.983147 -0.182816 0.000000 0 0
    0 4.242640 -4.242643 32.000004 0.628822 0.457348 0.628821 0 0
    0 2.545585 -2.545589 38.999997 0.623301 -0.472221 0.623300 0 0
  phy
    0 -3.600001 -0.000005 38.999997 0.000000 -0.808008 -0.589172 0 0
    0 -0.000002 3.600000 38.999997 -0.759256 -0.650792 0.000001 0 0
    0 -2.545582 2.545586 38.999997 -0.656680 -0.370865 -0.656681 0 0
  phy
    0 -3.600001 -0.000005 38.999997 0.000000 -0.808008 -0.589172 0 0
    0 2.545585 2.545582 38.999997 -0.534809 -0.654186 0.534809 0 0
    0 -0.000002 3.600000 38.999997 -0.759256 -0.650792 0.000001 0 0
  phy
    0 -3.600001 -0.000005 38.999997 0.000000 -0.808008 -0.589172 0 0
    0 -2.545581 -2.545590 38.999997 0.520011 -0.677626 -0.520011 0 0
    0 2.545585 2.545582 38.999997 -0.534809 -0.654186 0.534809 0 0
  phy
    0 -2.545581 -2.545590 38.999997 0.520011 -0.677626 -0.520011 0 0
    0 3.600000 -0.000005 38.999997 0.000000 -0.773595 0.633680 0 0
    0 2.545585 2.545582 38.999997 -0.534809 -0.654186 0.534809 0 0
  phy
    0 -2.545581 -2.545590 38.999997 0.520011 -0.677626 -0.520011 0 0
    0 2.545585 -2.545589 38.999997 0.623301 -0.472221 0.623300 0 0
    0 3.600000 -0.000005 38.999997 0.000000 -0.773595 0.633680 0 0
  phy
    0 -2.545581 -2.545590 38.999997 0.520011 -0.677626 -0.520011 0 0
    0 0.000000 -3.600004 38.999997 0.896751 -0.442536 0.000000 0 0
    0 2.545585 -2.545589 38.999997 0.623301 -0.472221 0.623300 0 0
  phy
    0 -2.545581 -2.545590 38.999997 0.520011 -0.677626 -0.520011 0 0
    0 -3.600001 -0.000005 38.999997 0.000000 -0.808008 -0.589172 0 0
    0 -5.999999 -0.000004 32.000004 0.000000 0.496293 -0.868155 0 0
  phy
    0 -2.545581 -2.545590 38.999997 0.520011 -0.677626 -0.520011 0 0
    0 -5.999999 -0.000004 32.000004 0.000000 0.496293 -0.868155 0 0
    0 -4.242637 -4.242643 32.000004 0.289483 0.912359 -0.289483 0 0
  phy
    0 -2.545581 -2.545590 38.999997 0.520011 -0.677626 -0.520011 0 0
    0 -0.000002 -6.000002 32.000004 0.983147 -0.182816 0.000000 0 0
    0 0.000000 -3.600004 38.999997 0.896751 -0.442536 0.000000 0 0
  phy
    0 -2.545581 -2.545590 38.999997 0.520011 -0.677626 -0.520011 0 0
    0 -4.242637 -4.242643 32.000004 0.289483 0.912359 -0.289483 0 0
    0 -0.000002 -6.000002 32.000004 0.983147 -0.182816 0.000000 0 0
  phy
    0 -3.600001 -0.000005 38.999997 0.000000 -0.808008 -0.589172 0 0
    0 -2.545582 2.545586 38.999997 -0.656680 -0.370865 -0.656681 0 0
    0 -5.999999 -0.000004 32.000004 0.000000 0.496293 -0.868155 0 0
  phy
    0 -5.999999 -0.000004 32.000004 0.000000 0.496293 -0.868155 0 0
    0 -2.545582 2.545586 38.999997 -0.656680 -0.370865 -0.656681 0 0
    0 -4.242638 4.242640 32.000004 -0.628821 0.457349 -0.628821 0 0
  phy
    0 -2.545582 2.545586 38.999997 -0.656680 -0.370865 -0.656681 0 0
    0 -0.000002 3.600000 38.999997 -0.759256 -0.650792 0.000001 0 0
    0 -0.000002 5.999997 32.000004 -0.983147 -0.182816 0.000001 0 0
  phy
    0 -2.545582 2.545586 38.999997 -0.656680 -0.370865 -0.656681 0 0
    0 -0.000002 5.999997 32.000004 -0.983147 -0.182816 0.000001 0 0
    0 -4.242638 4.242640 32.000004 -0.628821 0.457349 -0.628821 0 0
  phy
    0 3.600000 -0.000005 38.999997 0.000000 -0.773595 0.633680 0 0
    0 5.999998 -0.000006 32.000004 0.000000 0.496293 0.868155 0 0
    0 2.545585 2.545582 38.999997 -0.534809 -0.654186 0.534809 0 0
  phy
    0 5.999998 -0.000006 32.000004 0.000000 0.496293 0.868155 0 0
    0 4.242640 4.242635 32.000004 -0.289483 0.912359 0.289484 0 0
    0 2.545585 2.545582 38.999997 -0.534809 -0.654186 0.534809 0 0
  phy
    0 -0.000002 3.600000 38.999997 -0.759256 -0.650792 0.000001 0 0
    0 2.545585 2.545582 38.999997 -0.534809 -0.654186 0.534809 0 0
    0 -0.000002 5.999997 32.000004 -0.983147 -0.182816 0.000001 0 0
  phy
    0 -0.000002 5.999997 32.000004 -0.983147 -0.182816 0.000001 0 0
    0 2.545585 2.545582 38.999997 -0.534809 -0.654186 0.534809 0 0
    0 4.242640 4.242635 32.000004 -0.289483 0.912359 0.289484 0 0
  phy
    0 4.242640 -4.242643 32.000004 0.628822 0.457348 0.628821 0 0
    0 -0.000002 -6.000002 32.000004 0.983147 -0.182816 0.000000 0 0
    0 -4.242637 -4.242643 32.000004 0.289483 0.912359 -0.289483 0 0
  phy
    0 4.242640 -4.242643 32.000004 0.628822 0.457348 0.628821 0 0
    0 -4.242637 -4.242643 32.000004 0.289483 0.912359 -0.289483 0 0
    0 5.999998 -0.000006 32.000004 0.000000 0.496293 0.868155 0 0
  phy
    0 5.999998 -0.000006 32.000004 0.000000 0.496293 0.868155 0 0
    0 -4.242637 -4.242643 32.000004 0.289483 0.912359 -0.289483 0 0
    0 4.242640 4.242635 32.000004 -0.289483 0.912359 0.289484 0 0
  phy
    0 4.242640 4.242635 32.000004 -0.289483 0.912359 0.289484 0 0
    0 -4.242637 -4.242643 32.000004 0.289483 0.912359 -0.289483 0 0
    0 -5.999999 -0.000004 32.000004 0.000000 0.496293 -0.868155 0 0
  phy
    0 4.242640 4.242635 32.000004 -0.289483 0.912359 0.289484 0 0
    0 -5.999999 -0.000004 32.000004 0.000000 0.496293 -0.868155 0 0
    0 -4.242638 4.242640 32.000004 -0.628821 0.457349 -0.628821 0 0
  phy
    0 4.242640 4.242635 32.000004 -0.289483 0.912359 0.289484 0 0
    0 -4.242638 4.242640 32.000004 -0.628821 0.457349 -0.628821 0 0
    0 -0.000002 5.999997 32.000004 -0.983147 -0.182816 0.000001 0 0
  phy
    0 -0.000001 2.699998 39.000000 -0.695353 0.712226 0.096008 0 0
    0 -1.909188 1.909186 39.000000 -0.513179 0.765238 -0.388661 0 0
    0 -0.000001 2.699998 41.999995 -0.851545 -0.510928 -0.117574 0 0
  phy
    0 -0.000001 2.699998 41.999995 -0.851545 -0.510928 -0.117574 0 0
    0 -1.909188 1.909186 39.000000 -0.513179 0.765238 -0.388661 0 0
    0 -1.909188 1.909186 41.999995 -0.423801 -0.712226 -0.559577 0 0
  phy
    0 -1.909188 1.909186 39.000000 -0.513179 0.765238 -0.388661 0 0
    0 -2.699999 -0.000002 39.000000 -0.096008 0.712226 -0.695353 0 0
    0 -1.909188 1.909186 41.999995 -0.423801 -0.712226 -0.559577 0 0
  phy
    0 -1.909188 1.909186 41.999995 -0.423801 -0.712226 -0.559577 0 0
    0 -2.699999 -0.000002 39.000000 -0.096008 0.712226 -0.695353 0 0
    0 -2.699999 -0.000002 41.999995 0.072198 -0.849330 -0.522901 0 0
  phy
    0 2.699999 -0.000001 39.000000 0.134747 0.171505 0.975925 0 0
    0 1.909188 -1.909190 39.000000 0.309079 0.921778 0.234084 0 0
    0 1.909188 1.909186 39.000000 -0.518996 0.510928 0.685271 0 0
  phy
    0 1.909188 1.909186 39.000000 -0.518996 0.510928 0.685271 0 0
    0 1.909188 -1.909190 39.000000 0.309079 0.921778 0.234084 0 0
    0 -0.000001 2.699998 39.000000 -0.695353 0.712226 0.096008 0 0
  phy
    0 -0.000001 2.699998 39.000000 -0.695353 0.712226 0.096008 0 0
    0 1.909188 -1.909190 39.000000 0.309079 0.921778 0.234084 0 0
    0 -1.909188 1.909186 39.000000 -0.513179 0.765238 -0.388661 0 0
  phy
    0 -1.909188 1.909186 39.000000 -0.513179 0.765238 -0.388661 0 0
    0 1.909188 -1.909190 39.000000 0.309079 0.921778 0.234084 0 0
    0 -2.699999 -0.000002 39.000000 -0.096008 0.712226 -0.695353 0 0
  phy
    0 -2.699999 -0.000002 39.000000 -0.096008 0.712226 -0.695353 0 0
    0 1.909188 -1.909190 39.000000 0.309079 0.921778 0.234084 0 0
    0 -1.909188 -1.909190 39.000000 0.518996 0.510928 -0.685271 0 0
  phy
    0 -1.909188 -1.909190 39.000000 0.518996 0.510928 -0.685271 0 0
    0 1.909188 -1.909190 39.000000 0.309079 0.921778 0.234084 0 0
    0 0.000000 -2.700002 39.000000 0.975925 0.171505 -0.134747 0 0
  phy
    0 1.909188 1.909186 39.000000 -0.518996 0.510928 0.685271 0 0
    0 -0.000001 2.699998 39.000000 -0.695353 0.712226 0.096008 0 0
    0 1.909188 1.909186 41.999995 -0.785364 -0.171505 0.594802 0 0
  phy
    0 1.909188 1.909186 41.999995 -0.785364 -0.171505 0.594802 0 0
    0 -0.000001 2.699998 39.000000 -0.695353 0.712226 0.096008 0 0
    0 -0.000001 2.699998 41.999995 -0.851545 -0.510928 -0.117574 0 0
  phy
    0 1.909188 1.909186 39.000000 -0.518996 0.510928 0.685271 0 0
    0 2.699999 -0.000001 41.999995 -0.066903 -0.872199 0.484554 0 0
    0 2.699999 -0.000001 39.000000 0.134747 0.171505 0.975925 0 0
  phy
    0 1.909188 1.909186 39.000000 -0.518996 0.510928 0.685271 0 0
    0 1.909188 1.909186 41.999995 -0.785364 -0.171505 0.594802 0 0
    0 2.699999 -0.000001 41.999995 -0.066903 -0.872199 0.484554 0 0
  phy
    0 -1.909188 -1.909190 41.999995 0.685271 -0.510928 -0.518996 0 0
    0 -2.699999 -0.000002 41.999995 0.072198 -0.849330 -0.522901 0 0
    0 -1.909188 -1.909190 39.000000 0.518996 0.510928 -0.685271 0 0
  phy
    0 -1.909188 -1.909190 39.000000 0.518996 0.510928 -0.685271 0 0
    0 -2.699999 -0.000002 41.999995 0.072198 -0.849330 -0.522901 0 0
    0 -2.699999 -0.000002 39.000000 -0.096008 0.712226 -0.695353 0 0
  phy
    0 -1.909188 -1.909190 41.999995 0.685271 -0.510928 -0.518996 0 0
    0 0.000000 -2.700002 39.000000 0.975925 0.171505 -0.134747 0 0
    0 0.000000 -2.700002 41.999995 0.975925 -0.171505 0.134747 0 0
  phy
    0 -1.909188 -1.909190 41.999995 0.685271 -0.510928 -0.518996 0 0
    0 -1.909188 -1.909190 39.000000 0.518996 0.510928 -0.685271 0 0
    0 0.000000 -2.700002 39.000000 0.975925 0.171505 -0.134747 0 0
  phy
    0 -0.000001 2.699998 41.999995 -0.851545 -0.510928 -0.117574 0 0
    0 2.699999 -0.000001 41.999995 -0.066903 -0.872199 0.484554 0 0
    0 1.909188 1.909186 41.999995 -0.785364 -0.171505 0.594802 0 0
  phy
    0 -0.000001 2.699998 41.999995 -0.851545 -0.510928 -0.117574 0 0
    0 -1.909188 1.909186 41.999995 -0.423801 -0.712226 -0.559577 0 0
    0 2.699999 -0.000001 41.999995 -0.066903 -0.872199 0.484554 0 0
  phy
    0 -1.909188 1.909186 41.999995 -0.423801 -0.712226 -0.559577 0 0
    0 -2.699999 -0.000002 41.999995 0.072198 -0.849330 -0.522901 0 0
    0 2.699999 -0.000001 41.999995 -0.066903 -0.872199 0.484554 0 0
  phy
    0 -2.699999 -0.000002 41.999995 0.072198 -0.849330 -0.522901 0 0
    0 1.909188 -1.909190 41.999995 0.388661 -0.765238 0.513180 0 0
    0 2.699999 -0.000001 41.999995 -0.066903 -0.872199 0.484554 0 0
  phy
    0 -2.699999 -0.000002 41.999995 0.072198 -0.849330 -0.522901 0 0
    0 -1.909188 -1.909190 41.999995 0.685271 -0.510928 -0.518996 0 0
    0 1.909188 -1.909190 41.999995 0.388661 -0.765238 0.513180 0 0
  phy
    0 -1.909188 -1.909190 41.999995 0.685271 -0.510928 -0.518996 0 0
    0 0.000000 -2.700002 41.999995 0.975925 -0.171505 0.134747 0 0
    0 1.909188 -1.909190 41.999995 0.388661 -0.765238 0.513180 0 0
  phy
    0 1.909188 -1.909190 41.999995 0.388661 -0.765238 0.513180 0 0
    0 2.699999 -0.000001 39.000000 0.134747 0.171505 0.975925 0 0
    0 2.699999 -0.000001 41.999995 -0.066903 -0.872199 0.484554 0 0
  phy
    0 1.909188 -1.909190 41.999995 0.388661 -0.765238 0.513180 0 0
    0 1.909188 -1.909190 39.000000 0.309079 0.921778 0.234084 0 0
    0 2.699999 -0.000001 39.000000 0.134747 0.171505 0.975925 0 0
  phy
    0 0.000000 -2.700002 41.999995 0.975925 -0.171505 0.134747 0 0
    0 1.909188 -1.909190 39.000000 0.309079 0.921778 0.234084 0 0
    0 1.909188 -1.909190 41.999995 0.388661 -0.765238 0.513180 0 0
  phy
    0 0.000000 -2.700002 41.999995 0.975925 -0.171505 0.134747 0 0
    0 0.000000 -2.700002 39.000000 0.975925 0.171505 -0.134747 0 0
    0 1.909188 -1.909190 39.000000 0.309079 0.921778 0.234084 0 0
  phy
    0 11.499995 3.531998 14.468000 -0.402857 0.531923 0.744825 0 0
    0 11.499995 0.000000 13.004999 0.000000 0.684211 0.729284 0 0
    0 3.500001 -0.000001 13.004999 0.000000 0.848237 -0.529617 0 0
  phy
    0 11.499995 3.531998 14.468000 -0.402857 0.531923 0.744825 0 0
    0 3.500001 -0.000001 13.004999 0.000000 0.848237 -0.529617 0 0
    0 3.500000 3.531998 14.468000 -0.531923 0.402857 -0.744825 0 0
  phy
    0 3.500002 -3.531999 14.468001 0.695571 0.695571 -0.179892 0 0
    0 3.500001 -0.000001 13.004999 0.000000 0.848237 -0.529617 0 0
    0 11.499995 -3.531999 14.468001 0.674979 0.674979 0.298003 0 0
  phy
    0 11.499995 -3.531999 14.468001 0.674979 0.674979 0.298003 0 0
    0 3.500001 -0.000001 13.004999 0.000000 0.848237 -0.529617 0 0
    0 11.499995 0.000000 13.004999 0.000000 0.684211 0.729284 0 0
  phy
    0 11.499995 0.000000 22.994998 0.105520 -0.764246 0.636234 0 0
    0 11.499995 4.994999 17.999997 -0.954565 0.000000 0.298003 0 0
    0 11.499995 3.532001 21.531988 -0.599393 -0.791424 0.119899 0 0
  phy
    0 11.499995 0.000000 22.994998 0.105520 -0.764246 0.636234 0 0
    0 11.499995 3.531998 14.468000 -0.402857 0.531923 0.744825 0 0
    0 11.499995 4.994999 17.999997 -0.954565 0.000000 0.298003 0 0
  phy
    0 11.499995 0.000000 22.994998 0.105520 -0.764246 0.636234 0 0
    0 11.499995 -3.532000 21.531990 0.501159 -0.379558 0.777673 0 0
    0 11.499995 3.531998 14.468000 -0.402857 0.531923 0.744825 0 0
  phy
    0 11.499995 -3.532000 21.531990 0.501159 -0.379558 0.777673 0 0
    0 11.499995 0.000000 13.004999 0.000000 0.684211 0.729284 0 0
    0 11.499995 3.531998 14.468000 -0.402857 0.531923 0.744825 0 0
  phy
    0 11.499995 -3.532000 21.531990 0.501159 -0.379558 0.777673 0 0
    0 11.499995 -3.531999 14.468001 0.674979 0.674979 0.298003 0 0
    0 11.499995 0.000000 13.004999 0.000000 0.684211 0.729284 0 0
  phy
    0 11.499995 -3.532000 21.531990 0.501159 -0.379558 0.777673 0 0
    0 11.499995 -4.994998 18.000000 0.983686 0.000000 0.179892 0 0
    0 11.499995 -3.531999 14.468001 0.674979 0.674979 0.298003 0 0
  phy
    0 3.500002 -3.531999 14.468001 0.695571 0.695571 -0.179892 0 0
    0 11.499995 -3.531999 14.468001 0.674979 0.674979 0.298003 0 0
    0 3.500001 -4.994999 17.999997 0.954565 0.000000 -0.298003 0 0
  phy
    0 11.499995 -3.531999 14.468001 0.674979 0.674979 0.298003 0 0
    0 11.499995 -4.994998 18.000000 0.983686 0.000000 0.179892 0 0
    0 3.500001 -4.994999 17.999997 0.954565 0.000000 -0.298003 0 0
  phy
    0 3.500001 -0.000001 13.004999 0.000000 0.848237 -0.529617 0 0
    0 3.500002 -3.531999 14.468001 0.695571 0.695571 -0.179892 0 0
    0 3.500001 -4.994999 17.999997 0.954565 0.000000 -0.298003 0 0
  phy
    0 3.500001 -0.000001 13.004999 0.000000 0.848237 -0.529617 0 0
    0 3.500001 -4.994999 17.999997 0.954565 0.000000 -0.298003 0 0
    0 3.500000 -3.532000 21.531990 0.349629 -0.461641 -0.815259 0 0
  phy
    0 3.500001 -0.000001 13.004999 0.000000 0.848237 -0.529617 0 0
    0 3.500000 -3.532000 21.531990 0.349629 -0.461641 -0.815259 0 0
    0 3.500000 3.531998 14.468000 -0.531923 0.402857 -0.744825 0 0
  phy
    0 3.500000 3.531998 14.468000 -0.531923 0.402857 -0.744825 0 0
    0 3.500000 -3.532000 21.531990 0.349629 -0.461641 -0.815259 0 0
    0 3.499998 3.532000 21.531988 -0.615017 -0.465789 -0.636235 0 0
  phy
    0 3.500000 3.531998 14.468000 -0.531923 0.402857 -0.744825 0 0
    0 3.499998 3.532000 21.531988 -0.615017 -0.465789 -0.636235 0 0
    0 3.499999 4.994998 17.999997 -0.983686 0.000000 -0.179892 0 0
  phy
    0 3.499998 3.532000 21.531988 -0.615017 -0.465789 -0.636235 0 0
    0 3.500000 -3.532000 21.531990 0.349629 -0.461641 -0.815259 0 0
    0 3.499999 0.000000 22.994998 -0.135788 -0.983456 -0.119900 0 0
  phy
    0 11.499995 -3.532000 21.531990 0.501159 -0.379558 0.777673 0 0
    0 3.500001 -4.994999 17.999997 0.954565 0.000000 -0.298003 0 0
    0 11.499995 -4.994998 18.000000 0.983686 0.000000 0.179892 0 0
  phy
    0 11.499995 -3.532000 21.531990 0.501159 -0.379558 0.777673 0 0
    0 3.500000 -3.532000 21.531990 0.349629 -0.461641 -0.815259 0 0
    0 3.500001 -4.994999 17.999997 0.954565 0.000000 -0.298003 0 0
  phy
    0 3.500000 -3.532000 21.531990 0.349629 -0.461641 -0.815259 0 0
    0 11.499995 0.000000 22.994998 0.105520 -0.764246 0.636234 0 0
    0 3.499999 0.000000 22.994998 -0.135788 -0.983456 -0.119900 0 0
  phy
    0 3.500000 -3.532000 21.531990 0.349629 -0.461641 -0.815259 0 0
    0 11.499995 -3.532000 21.531990 0.501159 -0.379558 0.777673 0 0
    0 11.499995 0.000000 22.994998 0.105520 -0.764246 0.636234 0 0
  phy
    0 11.499995 3.531998 14.468000 -0.402857 0.531923 0.744825 0 0
    0 3.500000 3.531998 14.468000 -0.531923 0.402857 -0.744825 0 0
    0 11.499995 4.994999 17.999997 -0.954565 0.000000 0.298003 0 0
  phy
    0 11.499995 4.994999 17.999997 -0.954565 0.000000 0.298003 0 0
    0 3.500000 3.531998 14.468000 -0.531923 0.402857 -0.744825 0 0
    0 3.499999 4.994998 17.999997 -0.983686 0.000000 -0.179892 0 0
  phy
    0 3.499999 4.994998 17.999997 -0.983686 0.000000 -0.179892 0 0
    0 3.499998 3.532000 21.531988 -0.615017 -0.465789 -0.636235 0 0
    0 11.499995 4.994999 17.999997 -0.954565 0.000000 0.298003 0 0
  phy
    0 11.499995 4.994999 17.999997 -0.954565 0.000000 0.298003 0 0
    0 3.499998 3.532000 21.531988 -0.615017 -0.465789 -0.636235 0 0
    0 11.499995 3.532001 21.531988 -0.599393 -0.791424 0.119899 0 0
  phy
    0 3.499999 0.000000 22.994998 -0.135788 -0.983456 -0.119900 0 0
    0 11.499995 3.532001 21.531988 -0.599393 -0.791424 0.119899 0 0
    0 3.499998 3.532000 21.531988 -0.615017 -0.465789 -0.636235 0 0
  phy
    0 3.499999 0.000000 22.994998 -0.135788 -0.983456 -0.119900 0 0
    0 11.499995 0.000000 22.994998 0.105520 -0.764246 0.636234 0 0
    0 11.499995 3.532001 21.531988 -0.599393 -0.791424 0.119899 0 0
end
