// Created by Crowbar 0.74
version 1
nodes
  0 "bip_pelvis" -1
  1 "bip_spine_0" 0
  2 "bip_spine_1" 1
  3 "bip_spine_2" 2
  4 "bip_spine_3" 3
  5 "bip_collar_R" 4
  6 "bip_upperArm_R" 5
  7 "bip_lowerArm_R" 6
  8 "bip_hand_R" 7
  9 "bip_hip_L" 0
  10 "bip_knee_L" 9
  11 "bip_foot_L" 10
  12 "bip_hip_R" 0
  13 "bip_knee_R" 12
  14 "bip_foot_R" 13
  15 "bip_neck" 4
  16 "bip_head" 15
  17 "bip_collar_L" 4
  18 "bip_upperArm_L" 17
  19 "bip_lowerArm_L" 18
  20 "bip_hand_L" 19
  21 "bip_thumb_0_R" 8
  22 "bip_thumb_1_R" 21
  23 "bip_thumb_2_R" 22
  24 "bip_index_0_R" 8
  25 "bip_index_1_R" 24
  26 "bip_index_2_R" 25
  27 "bip_middle_0_R" 8
  28 "bip_middle_1_R" 27
  29 "bip_middle_2_R" 28
  30 "bip_ring_0_R" 8
  31 "bip_ring_1_R" 30
  32 "bip_ring_2_R" 31
  33 "bip_pinky_0_R" 8
  34 "bip_pinky_1_R" 33
  35 "bip_pinky_2_R" 34
  36 "bip_toe_L" 11
  37 "bip_toe_R" 14
end
skeleton
  time 0
    0 -0.236938 -0.302490 40.687500 -0.872564 -0.175618 0.728389
    1 0.000000 -5.355259 0.000000 -0.256876 -0.149402 -0.375760
    2 0.000000 -7.488277 -0.000001 0.108455 0.010397 -0.033897
    3 0.000000 -5.597980 0.000000 0.268406 0.013411 -0.064163
    4 0.000000 -6.565113 -0.000001 0.794304 -0.031792 -0.142059
    5 -1.549380 -5.102886 -4.074768 2.677304 -0.804916 -1.474706
    6 -0.000061 11.987243 0.000028 -0.244510 -0.525394 2.150658
    7 20.109310 0.000004 -0.000002 -1.511822 -0.373672 -0.030832
    8 19.941734 0.000001 -0.000008 -0.361773 -0.658596 -1.476339
    9 6.938272 1.999413 -1.014580 2.712156 0.793227 1.247178
    10 20.710249 0.000000 0.000000 0.000000 0.388233 0.000000
    11 18.105982 0.000001 0.000000 -1.027568 0.189834 1.349999
    12 -6.938270 1.999409 -1.014579 2.471513 1.168982 2.496108
    13 20.710224 0.000000 0.000000 0.000000 0.000000 1.055773
    14 18.106007 0.000000 -0.000001 1.573179 -1.288778 1.816587
    15 0.000000 -6.555973 0.000000 0.244328 0.657665 -0.225581
    16 0.000000 -3.252140 0.000004 -1.136904 -0.207551 -0.331705
    17 1.548545 -4.925743 -4.285366 -2.653113 -0.771102 -1.651585
    18 1.190170 -10.472042 -0.306139 1.353248 -0.238019 -0.934260
    19 0.000008 0.000000 15.020969 -0.201994 -0.066154 0.008339
    20 0.000000 -0.000001 8.039616 0.000000 0.000000 0.318947
    21 2.899849 -0.471045 -4.331210 -0.449452 -0.559880 -0.709305
    22 -0.000025 2.543312 0.000027 0.221028 0.000000 0.000000
    23 0.000059 2.315281 -0.000039 0.100872 0.000000 0.000000
    24 1.551407 3.956633 -3.900798 2.695900 -1.367576 -3.120852
    25 0.000000 2.741438 -0.000004 -0.256296 0.000000 0.000000
    26 0.000011 2.668507 0.000050 -0.190586 0.000000 0.000000
    27 1.401100 3.639807 -1.202109 2.031148 -1.355830 -2.447084
    28 0.000003 2.810953 0.000004 -0.256296 0.000000 0.000000
    29 -0.000004 2.736198 -0.000031 -0.190586 0.000000 0.000000
    30 1.335663 3.182100 1.418086 0.980184 -1.251585 -1.415249
    31 -0.000003 2.663269 0.000042 -0.256296 0.000000 0.000000
    32 0.000002 2.592525 -0.000031 -0.190586 0.000000 0.000000
    33 1.344765 1.881124 3.809589 1.120332 -1.203080 -1.477339
    34 0.000011 2.315664 -0.000084 -0.256296 0.000000 0.000000
    35 -0.000006 2.254017 0.000076 -0.190586 0.000000 0.000000
    36 0.000000 -4.648438 0.000000 -0.607868 0.000000 0.000000
    37 0.000018 4.648438 -0.000009 -0.607868 0.000000 0.000000
  time 1
    0 -0.236938 -0.302490 40.687500 -0.872564 -0.175618 0.728389
    1 0.000000 -5.355259 0.000000 -0.256876 -0.149402 -0.375760
    2 0.000000 -7.488277 -0.000001 0.108455 0.010397 -0.033897
    3 0.000000 -5.597980 0.000000 0.268406 0.013411 -0.064163
    4 0.000000 -6.565113 -0.000001 0.794304 -0.031792 -0.142059
    5 -1.549380 -5.102886 -4.074768 2.677304 -0.804916 -1.474706
    6 -0.000061 11.987243 0.000028 -0.244510 -0.525394 2.150658
    7 20.109310 0.000004 -0.000002 -1.511822 -0.373672 -0.030832
    8 19.941734 0.000001 -0.000008 -0.361773 -0.658596 -1.476339
    9 6.938272 1.999413 -1.014580 2.712156 0.793227 1.247178
    10 20.710249 0.000000 0.000000 0.000000 0.388233 0.000000
    11 18.105982 0.000001 0.000000 -1.027568 0.189834 1.349999
    12 -6.938270 1.999409 -1.014579 2.471513 1.168982 2.496108
    13 20.710224 0.000000 0.000000 0.000000 0.000000 1.055773
    14 18.106007 0.000000 -0.000001 1.573179 -1.288778 1.816587
    15 0.000000 -6.555973 0.000000 0.244328 0.657665 -0.225581
    16 0.000000 -3.252140 0.000004 -1.136904 -0.207551 -0.331705
    17 1.548545 -4.925743 -4.285366 -2.653113 -0.771102 -1.651585
    18 1.190170 -10.472042 -0.306139 1.353248 -0.238019 -0.934260
    19 0.000008 0.000000 15.020969 -0.201994 -0.066154 0.008339
    20 0.000000 -0.000001 8.039616 0.000000 0.000000 0.318947
    21 2.899849 -0.471045 -4.331210 -0.449452 -0.559880 -0.709305
    22 -0.000025 2.543312 0.000027 0.221028 0.000000 0.000000
    23 0.000059 2.315281 -0.000039 0.100872 0.000000 0.000000
    24 1.551407 3.956633 -3.900798 2.695900 -1.367576 -3.120852
    25 0.000000 2.741438 -0.000004 -0.256296 0.000000 0.000000
    26 0.000011 2.668507 0.000050 -0.190586 0.000000 0.000000
    27 1.401100 3.639807 -1.202109 2.031148 -1.355830 -2.447084
    28 0.000003 2.810953 0.000004 -0.256296 0.000000 0.000000
    29 -0.000004 2.736198 -0.000031 -0.190586 0.000000 0.000000
    30 1.335663 3.182100 1.418086 0.980184 -1.251585 -1.415249
    31 -0.000003 2.663269 0.000042 -0.256296 0.000000 0.000000
    32 0.000002 2.592525 -0.000031 -0.190586 0.000000 0.000000
    33 1.344765 1.881124 3.809589 1.120332 -1.203080 -1.477339
    34 0.000011 2.315664 -0.000084 -0.256296 0.000000 0.000000
    35 -0.000006 2.254017 0.000076 -0.190586 0.000000 0.000000
    36 0.000000 -4.648438 0.000000 -0.607868 0.000000 0.000000
    37 0.000018 4.648438 -0.000009 -0.607868 0.000000 0.000000
  time 2
    0 -0.236938 -0.302490 40.687500 -0.872564 -0.175618 0.728389
    1 0.000000 -5.355259 0.000000 -0.256876 -0.149402 -0.375760
    2 0.000000 -7.488277 -0.000001 0.108455 0.010397 -0.033897
    3 0.000000 -5.597980 0.000000 0.268406 0.013411 -0.064163
    4 0.000000 -6.565113 -0.000001 0.794304 -0.031792 -0.142059
    5 -1.549380 -5.102886 -4.074768 2.677304 -0.804916 -1.474706
    6 -0.000061 11.987243 0.000028 -0.244510 -0.525394 2.150658
    7 20.109310 0.000004 -0.000002 -1.511822 -0.373672 -0.030832
    8 19.941734 0.000001 -0.000008 -0.361773 -0.658596 -1.476339
    9 6.938272 1.999413 -1.014580 2.712156 0.793227 1.247178
    10 20.710249 0.000000 0.000000 0.000000 0.388233 0.000000
    11 18.105982 0.000001 0.000000 -1.027568 0.189834 1.349999
    12 -6.938270 1.999409 -1.014579 2.471513 1.168982 2.496108
    13 20.710224 0.000000 0.000000 0.000000 0.000000 1.055773
    14 18.106007 0.000000 -0.000001 1.573179 -1.288778 1.816587
    15 0.000000 -6.555973 0.000000 0.244328 0.657665 -0.225581
    16 0.000000 -3.252140 0.000004 -1.136904 -0.207551 -0.331705
    17 1.548545 -4.925743 -4.285366 -2.653113 -0.771102 -1.651585
    18 1.190170 -10.472042 -0.306139 1.353248 -0.238019 -0.934260
    19 0.000008 0.000000 15.020969 -0.201994 -0.066154 0.008339
    20 0.000000 -0.000001 8.039616 0.000000 0.000000 0.318947
    21 2.899849 -0.471045 -4.331210 -0.449452 -0.559880 -0.709305
    22 -0.000025 2.543312 0.000027 0.221028 0.000000 0.000000
    23 0.000059 2.315281 -0.000039 0.100872 0.000000 0.000000
    24 1.551407 3.956633 -3.900798 2.695900 -1.367576 -3.120852
    25 0.000000 2.741438 -0.000004 -0.256296 0.000000 0.000000
    26 0.000011 2.668507 0.000050 -0.190586 0.000000 0.000000
    27 1.401100 3.639807 -1.202109 2.031148 -1.355830 -2.447084
    28 0.000003 2.810953 0.000004 -0.256296 0.000000 0.000000
    29 -0.000004 2.736198 -0.000031 -0.190586 0.000000 0.000000
    30 1.335663 3.182100 1.418086 0.980184 -1.251585 -1.415249
    31 -0.000003 2.663269 0.000042 -0.256296 0.000000 0.000000
    32 0.000002 2.592525 -0.000031 -0.190586 0.000000 0.000000
    33 1.344765 1.881124 3.809589 1.120332 -1.203080 -1.477339
    34 0.000011 2.315664 -0.000084 -0.256296 0.000000 0.000000
    35 -0.000006 2.254017 0.000076 -0.190586 0.000000 0.000000
    36 0.000000 -4.648438 0.000000 -0.607868 0.000000 0.000000
    37 0.000018 4.648438 -0.000009 -0.607868 0.000000 0.000000
  time 3
    0 -0.236938 -0.302490 40.687500 -0.872564 -0.175618 0.728389
    1 0.000000 -5.355259 0.000000 -0.256876 -0.149402 -0.375760
    2 0.000000 -7.488277 -0.000001 0.108455 0.010397 -0.033897
    3 0.000000 -5.597980 0.000000 0.268406 0.013411 -0.064163
    4 0.000000 -6.565113 -0.000001 0.794304 -0.031792 -0.142059
    5 -1.549380 -5.102886 -4.074768 2.677304 -0.804916 -1.474706
    6 -0.000061 11.987243 0.000028 -0.244510 -0.525394 2.150658
    7 20.109310 0.000004 -0.000002 -1.511822 -0.373672 -0.030832
    8 19.941734 0.000001 -0.000008 -0.361773 -0.658596 -1.476339
    9 6.938272 1.999413 -1.014580 2.712156 0.793227 1.247178
    10 20.710249 0.000000 0.000000 0.000000 0.388233 0.000000
    11 18.105982 0.000001 0.000000 -1.027568 0.189834 1.349999
    12 -6.938270 1.999409 -1.014579 2.471513 1.168982 2.496108
    13 20.710224 0.000000 0.000000 0.000000 0.000000 1.055773
    14 18.106007 0.000000 -0.000001 1.573179 -1.288778 1.816587
    15 0.000000 -6.555973 0.000000 0.244328 0.657665 -0.225581
    16 0.000000 -3.252140 0.000004 -1.136904 -0.207551 -0.331705
    17 1.548545 -4.925743 -4.285366 -2.653113 -0.771102 -1.651585
    18 1.190170 -10.472042 -0.306139 1.353248 -0.238019 -0.934260
    19 0.000008 0.000000 15.020969 -0.201994 -0.066154 0.008339
    20 0.000000 -0.000001 8.039616 0.000000 0.000000 0.318947
    21 2.899849 -0.471045 -4.331210 -0.449452 -0.559880 -0.709305
    22 -0.000025 2.543312 0.000027 0.221028 0.000000 0.000000
    23 0.000059 2.315281 -0.000039 0.100872 0.000000 0.000000
    24 1.551407 3.956633 -3.900798 2.695900 -1.367576 -3.120852
    25 0.000000 2.741438 -0.000004 -0.256296 0.000000 0.000000
    26 0.000011 2.668507 0.000050 -0.190586 0.000000 0.000000
    27 1.401100 3.639807 -1.202109 2.031148 -1.355830 -2.447084
    28 0.000003 2.810953 0.000004 -0.256296 0.000000 0.000000
    29 -0.000004 2.736198 -0.000031 -0.190586 0.000000 0.000000
    30 1.335663 3.182100 1.418086 0.980184 -1.251585 -1.415249
    31 -0.000003 2.663269 0.000042 -0.256296 0.000000 0.000000
    32 0.000002 2.592525 -0.000031 -0.190586 0.000000 0.000000
    33 1.344765 1.881124 3.809589 1.120332 -1.203080 -1.477339
    34 0.000011 2.315664 -0.000084 -0.256296 0.000000 0.000000
    35 -0.000006 2.254017 0.000076 -0.190586 0.000000 0.000000
    36 0.000000 -4.648438 0.000000 -0.607868 0.000000 0.000000
    37 0.000018 4.648438 -0.000009 -0.607868 0.000000 0.000000
  time 4
    0 -0.236938 -0.302490 40.687500 -0.872564 -0.175618 0.728389
    1 0.000000 -5.355259 0.000000 -0.256876 -0.149402 -0.375760
    2 0.000000 -7.488277 -0.000001 0.108455 0.010397 -0.033897
    3 0.000000 -5.597980 0.000000 0.268406 0.013411 -0.064163
    4 0.000000 -6.565113 -0.000001 0.794304 -0.031792 -0.142059
    5 -1.549380 -5.102886 -4.074768 2.677304 -0.804916 -1.474706
    6 -0.000061 11.987243 0.000028 -0.244510 -0.525394 2.150658
    7 20.109310 0.000004 -0.000002 -1.511822 -0.373672 -0.030832
    8 19.941734 0.000001 -0.000008 -0.361773 -0.658596 -1.476339
    9 6.938272 1.999413 -1.014580 2.712156 0.793227 1.247178
    10 20.710249 0.000000 0.000000 0.000000 0.388233 0.000000
    11 18.105982 0.000001 0.000000 -1.027568 0.189834 1.349999
    12 -6.938270 1.999409 -1.014579 2.471513 1.168982 2.496108
    13 20.710224 0.000000 0.000000 0.000000 0.000000 1.055773
    14 18.106007 0.000000 -0.000001 1.573179 -1.288778 1.816587
    15 0.000000 -6.555973 0.000000 0.244328 0.657665 -0.225581
    16 0.000000 -3.252140 0.000004 -1.136904 -0.207551 -0.331705
    17 1.548545 -4.925743 -4.285366 -2.653113 -0.771102 -1.651585
    18 1.190170 -10.472042 -0.306139 1.353248 -0.238019 -0.934260
    19 0.000008 0.000000 15.020969 -0.201994 -0.066154 0.008339
    20 0.000000 -0.000001 8.039616 0.000000 0.000000 0.318947
    21 2.899849 -0.471045 -4.331210 -0.449452 -0.559880 -0.709305
    22 -0.000025 2.543312 0.000027 0.221028 0.000000 0.000000
    23 0.000059 2.315281 -0.000039 0.100872 0.000000 0.000000
    24 1.551407 3.956633 -3.900798 2.695900 -1.367576 -3.120852
    25 0.000000 2.741438 -0.000004 -0.256296 0.000000 0.000000
    26 0.000011 2.668507 0.000050 -0.190586 0.000000 0.000000
    27 1.401100 3.639807 -1.202109 2.031148 -1.355830 -2.447084
    28 0.000003 2.810953 0.000004 -0.256296 0.000000 0.000000
    29 -0.000004 2.736198 -0.000031 -0.190586 0.000000 0.000000
    30 1.335663 3.182100 1.418086 0.980184 -1.251585 -1.415249
    31 -0.000003 2.663269 0.000042 -0.256296 0.000000 0.000000
    32 0.000002 2.592525 -0.000031 -0.190586 0.000000 0.000000
    33 1.344765 1.881124 3.809589 1.120332 -1.203080 -1.477339
    34 0.000011 2.315664 -0.000084 -0.256296 0.000000 0.000000
    35 -0.000006 2.254017 0.000076 -0.190586 0.000000 0.000000
    36 0.000000 -4.648438 0.000000 -0.607868 0.000000 0.000000
    37 0.000018 4.648438 -0.000009 -0.607868 0.000000 0.000000
  time 5
    0 -0.236938 -0.302490 40.687500 -0.872564 -0.175618 0.728389
    1 0.000000 -5.355259 0.000000 -0.256876 -0.149402 -0.375760
    2 0.000000 -7.488277 -0.000001 0.108455 0.010397 -0.033897
    3 0.000000 -5.597980 0.000000 0.268406 0.013411 -0.064163
    4 0.000000 -6.565113 -0.000001 0.794304 -0.031792 -0.142059
    5 -1.549380 -5.102886 -4.074768 2.677304 -0.804916 -1.474706
    6 -0.000061 11.987243 0.000028 -0.244510 -0.525394 2.150658
    7 20.109310 0.000004 -0.000002 -1.511822 -0.373672 -0.030832
    8 19.941734 0.000001 -0.000008 -0.361773 -0.658596 -1.476339
    9 6.938272 1.999413 -1.014580 2.712156 0.793227 1.247178
    10 20.710249 0.000000 0.000000 0.000000 0.388233 0.000000
    11 18.105982 0.000001 0.000000 -1.027568 0.189834 1.349999
    12 -6.938270 1.999409 -1.014579 2.471513 1.168982 2.496108
    13 20.710224 0.000000 0.000000 0.000000 0.000000 1.055773
    14 18.106007 0.000000 -0.000001 1.573179 -1.288778 1.816587
    15 0.000000 -6.555973 0.000000 0.244328 0.657665 -0.225581
    16 0.000000 -3.252140 0.000004 -1.136904 -0.207551 -0.331705
    17 1.548545 -4.925743 -4.285366 -2.653113 -0.771102 -1.651585
    18 1.190170 -10.472042 -0.306139 1.353248 -0.238019 -0.934260
    19 0.000008 0.000000 15.020969 -0.201994 -0.066154 0.008339
    20 0.000000 -0.000001 8.039616 0.000000 0.000000 0.318947
    21 2.899849 -0.471045 -4.331210 -0.449452 -0.559880 -0.709305
    22 -0.000025 2.543312 0.000027 0.221028 0.000000 0.000000
    23 0.000059 2.315281 -0.000039 0.100872 0.000000 0.000000
    24 1.551407 3.956633 -3.900798 2.695900 -1.367576 -3.120852
    25 0.000000 2.741438 -0.000004 -0.256296 0.000000 0.000000
    26 0.000011 2.668507 0.000050 -0.190586 0.000000 0.000000
    27 1.401100 3.639807 -1.202109 2.031148 -1.355830 -2.447084
    28 0.000003 2.810953 0.000004 -0.256296 0.000000 0.000000
    29 -0.000004 2.736198 -0.000031 -0.190586 0.000000 0.000000
    30 1.335663 3.182100 1.418086 0.980184 -1.251585 -1.415249
    31 -0.000003 2.663269 0.000042 -0.256296 0.000000 0.000000
    32 0.000002 2.592525 -0.000031 -0.190586 0.000000 0.000000
    33 1.344765 1.881124 3.809589 1.120332 -1.203080 -1.477339
    34 0.000011 2.315664 -0.000084 -0.256296 0.000000 0.000000
    35 -0.000006 2.254017 0.000076 -0.190586 0.000000 0.000000
    36 0.000000 -4.648438 0.000000 -0.607868 0.000000 0.000000
    37 0.000018 4.648438 -0.000009 -0.607868 0.000000 0.000000
  time 6
    0 -0.236938 -0.302490 40.687500 -0.872564 -0.175618 0.728389
    1 0.000000 -5.355259 0.000000 -0.256876 -0.149402 -0.375760
    2 0.000000 -7.488277 -0.000001 0.108455 0.010397 -0.033897
    3 0.000000 -5.597980 0.000000 0.268406 0.013411 -0.064163
    4 0.000000 -6.565113 -0.000001 0.794304 -0.031792 -0.142059
    5 -1.549380 -5.102886 -4.074768 2.677304 -0.804916 -1.474706
    6 -0.000061 11.987243 0.000028 -0.244510 -0.525394 2.150658
    7 20.109310 0.000004 -0.000002 -1.511822 -0.373672 -0.030832
    8 19.941734 0.000001 -0.000008 -0.361773 -0.658596 -1.476339
    9 6.938272 1.999413 -1.014580 2.712156 0.793227 1.247178
    10 20.710249 0.000000 0.000000 0.000000 0.388233 0.000000
    11 18.105982 0.000001 0.000000 -1.027568 0.189834 1.349999
    12 -6.938270 1.999409 -1.014579 2.471513 1.168982 2.496108
    13 20.710224 0.000000 0.000000 0.000000 0.000000 1.055773
    14 18.106007 0.000000 -0.000001 1.573179 -1.288778 1.816587
    15 0.000000 -6.555973 0.000000 0.244328 0.657665 -0.225581
    16 0.000000 -3.252140 0.000004 -1.136904 -0.207551 -0.331705
    17 1.548545 -4.925743 -4.285366 -2.653113 -0.771102 -1.651585
    18 1.190170 -10.472042 -0.306139 1.353248 -0.238019 -0.934260
    19 0.000008 0.000000 15.020969 -0.201994 -0.066154 0.008339
    20 0.000000 -0.000001 8.039616 0.000000 0.000000 0.318947
    21 2.899849 -0.471045 -4.331210 -0.449452 -0.559880 -0.709305
    22 -0.000025 2.543312 0.000027 0.221028 0.000000 0.000000
    23 0.000059 2.315281 -0.000039 0.100872 0.000000 0.000000
    24 1.551407 3.956633 -3.900798 2.695900 -1.367576 -3.120852
    25 0.000000 2.741438 -0.000004 -0.256296 0.000000 0.000000
    26 0.000011 2.668507 0.000050 -0.190586 0.000000 0.000000
    27 1.401100 3.639807 -1.202109 2.031148 -1.355830 -2.447084
    28 0.000003 2.810953 0.000004 -0.256296 0.000000 0.000000
    29 -0.000004 2.736198 -0.000031 -0.190586 0.000000 0.000000
    30 1.335663 3.182100 1.418086 0.980184 -1.251585 -1.415249
    31 -0.000003 2.663269 0.000042 -0.256296 0.000000 0.000000
    32 0.000002 2.592525 -0.000031 -0.190586 0.000000 0.000000
    33 1.344765 1.881124 3.809589 1.120332 -1.203080 -1.477339
    34 0.000011 2.315664 -0.000084 -0.256296 0.000000 0.000000
    35 -0.000006 2.254017 0.000076 -0.190586 0.000000 0.000000
    36 0.000000 -4.648438 0.000000 -0.607868 0.000000 0.000000
    37 0.000018 4.648438 -0.000009 -0.607868 0.000000 0.000000
  time 7
    0 -0.236938 -0.302490 40.687500 -0.872564 -0.175618 0.728389
    1 0.000000 -5.355259 0.000000 -0.256876 -0.149402 -0.375760
    2 0.000000 -7.488277 -0.000001 0.108455 0.010397 -0.033897
    3 0.000000 -5.597980 0.000000 0.268406 0.013411 -0.064163
    4 0.000000 -6.565113 -0.000001 0.794304 -0.031792 -0.142059
    5 -1.549380 -5.102886 -4.074768 2.677304 -0.804916 -1.474706
    6 -0.000061 11.987243 0.000028 -0.244510 -0.525394 2.150658
    7 20.109310 0.000004 -0.000002 -1.511822 -0.373672 -0.030832
    8 19.941734 0.000001 -0.000008 -0.361773 -0.658596 -1.476339
    9 6.938272 1.999413 -1.014580 2.712156 0.793227 1.247178
    10 20.710249 0.000000 0.000000 0.000000 0.388233 0.000000
    11 18.105982 0.000001 0.000000 -1.027568 0.189834 1.349999
    12 -6.938270 1.999409 -1.014579 2.471513 1.168982 2.496108
    13 20.710224 0.000000 0.000000 0.000000 0.000000 1.055773
    14 18.106007 0.000000 -0.000001 1.573179 -1.288778 1.816587
    15 0.000000 -6.555973 0.000000 0.244328 0.657665 -0.225581
    16 0.000000 -3.252140 0.000004 -1.136904 -0.207551 -0.331705
    17 1.548545 -4.925743 -4.285366 -2.653113 -0.771102 -1.651585
    18 1.190170 -10.472042 -0.306139 1.353248 -0.238019 -0.934260
    19 0.000008 0.000000 15.020969 -0.201994 -0.066154 0.008339
    20 0.000000 -0.000001 8.039616 0.000000 0.000000 0.318947
    21 2.899849 -0.471045 -4.331210 -0.449452 -0.559880 -0.709305
    22 -0.000025 2.543312 0.000027 0.221028 0.000000 0.000000
    23 0.000059 2.315281 -0.000039 0.100872 0.000000 0.000000
    24 1.551407 3.956633 -3.900798 2.695900 -1.367576 -3.120852
    25 0.000000 2.741438 -0.000004 -0.256296 0.000000 0.000000
    26 0.000011 2.668507 0.000050 -0.190586 0.000000 0.000000
    27 1.401100 3.639807 -1.202109 2.031148 -1.355830 -2.447084
    28 0.000003 2.810953 0.000004 -0.256296 0.000000 0.000000
    29 -0.000004 2.736198 -0.000031 -0.190586 0.000000 0.000000
    30 1.335663 3.182100 1.418086 0.980184 -1.251585 -1.415249
    31 -0.000003 2.663269 0.000042 -0.256296 0.000000 0.000000
    32 0.000002 2.592525 -0.000031 -0.190586 0.000000 0.000000
    33 1.344765 1.881124 3.809589 1.120332 -1.203080 -1.477339
    34 0.000011 2.315664 -0.000084 -0.256296 0.000000 0.000000
    35 -0.000006 2.254017 0.000076 -0.190586 0.000000 0.000000
    36 0.000000 -4.648438 0.000000 -0.607868 0.000000 0.000000
    37 0.000018 4.648438 -0.000009 -0.607868 0.000000 0.000000
  time 8
    0 -0.236938 -0.302490 40.687500 -0.872564 -0.175618 0.728389
    1 0.000000 -5.355259 0.000000 -0.256876 -0.149402 -0.375760
    2 0.000000 -7.488277 -0.000001 0.108455 0.010397 -0.033897
    3 0.000000 -5.597980 0.000000 0.268406 0.013411 -0.064163
    4 0.000000 -6.565113 -0.000001 0.794304 -0.031792 -0.142059
    5 -1.549380 -5.102886 -4.074768 2.677304 -0.804916 -1.474706
    6 -0.000061 11.987243 0.000028 -0.244510 -0.525394 2.150658
    7 20.109310 0.000004 -0.000002 -1.511822 -0.373672 -0.030832
    8 19.941734 0.000001 -0.000008 -0.361773 -0.658596 -1.476339
    9 6.938272 1.999413 -1.014580 2.712156 0.793227 1.247178
    10 20.710249 0.000000 0.000000 0.000000 0.388233 0.000000
    11 18.105982 0.000001 0.000000 -1.027568 0.189834 1.349999
    12 -6.938270 1.999409 -1.014579 2.471513 1.168982 2.496108
    13 20.710224 0.000000 0.000000 0.000000 0.000000 1.055773
    14 18.106007 0.000000 -0.000001 1.573179 -1.288778 1.816587
    15 0.000000 -6.555973 0.000000 0.244328 0.657665 -0.225581
    16 0.000000 -3.252140 0.000004 -1.136904 -0.207551 -0.331705
    17 1.548545 -4.925743 -4.285366 -2.653113 -0.771102 -1.651585
    18 1.190170 -10.472042 -0.306139 1.353248 -0.238019 -0.934260
    19 0.000008 0.000000 15.020969 -0.201994 -0.066154 0.008339
    20 0.000000 -0.000001 8.039616 0.000000 0.000000 0.318947
    21 2.899849 -0.471045 -4.331210 -0.449452 -0.559880 -0.709305
    22 -0.000025 2.543312 0.000027 0.221028 0.000000 0.000000
    23 0.000059 2.315281 -0.000039 0.100872 0.000000 0.000000
    24 1.551407 3.956633 -3.900798 2.695900 -1.367576 -3.120852
    25 0.000000 2.741438 -0.000004 -0.256296 0.000000 0.000000
    26 0.000011 2.668507 0.000050 -0.190586 0.000000 0.000000
    27 1.401100 3.639807 -1.202109 2.031148 -1.355830 -2.447084
    28 0.000003 2.810953 0.000004 -0.256296 0.000000 0.000000
    29 -0.000004 2.736198 -0.000031 -0.190586 0.000000 0.000000
    30 1.335663 3.182100 1.418086 0.980184 -1.251585 -1.415249
    31 -0.000003 2.663269 0.000042 -0.256296 0.000000 0.000000
    32 0.000002 2.592525 -0.000031 -0.190586 0.000000 0.000000
    33 1.344765 1.881124 3.809589 1.120332 -1.203080 -1.477339
    34 0.000011 2.315664 -0.000084 -0.256296 0.000000 0.000000
    35 -0.000006 2.254017 0.000076 -0.190586 0.000000 0.000000
    36 0.000000 -4.648438 0.000000 -0.607868 0.000000 0.000000
    37 0.000018 4.648438 -0.000009 -0.607868 0.000000 0.000000
  time 9
    0 -0.236938 -0.302490 40.687500 -0.872564 -0.175618 0.728389
    1 0.000000 -5.355259 0.000000 -0.256876 -0.149402 -0.375760
    2 0.000000 -7.488277 -0.000001 0.108455 0.010397 -0.033897
    3 0.000000 -5.597980 0.000000 0.268406 0.013411 -0.064163
    4 0.000000 -6.565113 -0.000001 0.794304 -0.031792 -0.142059
    5 -1.549380 -5.102886 -4.074768 2.677304 -0.804916 -1.474706
    6 -0.000061 11.987243 0.000028 -0.244510 -0.525394 2.150658
    7 20.109310 0.000004 -0.000002 -1.511822 -0.373672 -0.030832
    8 19.941734 0.000001 -0.000008 -0.361773 -0.658596 -1.476339
    9 6.938272 1.999413 -1.014580 2.712156 0.793227 1.247178
    10 20.710249 0.000000 0.000000 0.000000 0.388233 0.000000
    11 18.105982 0.000001 0.000000 -1.027568 0.189834 1.349999
    12 -6.938270 1.999409 -1.014579 2.471513 1.168982 2.496108
    13 20.710224 0.000000 0.000000 0.000000 0.000000 1.055773
    14 18.106007 0.000000 -0.000001 1.573179 -1.288778 1.816587
    15 0.000000 -6.555973 0.000000 0.244328 0.657665 -0.225581
    16 0.000000 -3.252140 0.000004 -1.136904 -0.207551 -0.331705
    17 1.548545 -4.925743 -4.285366 -2.653113 -0.771102 -1.651585
    18 1.190170 -10.472042 -0.306139 1.353248 -0.238019 -0.934260
    19 0.000008 0.000000 15.020969 -0.201994 -0.066154 0.008339
    20 0.000000 -0.000001 8.039616 0.000000 0.000000 0.318947
    21 2.899849 -0.471045 -4.331210 -0.449452 -0.559880 -0.709305
    22 -0.000025 2.543312 0.000027 0.221028 0.000000 0.000000
    23 0.000059 2.315281 -0.000039 0.100872 0.000000 0.000000
    24 1.551407 3.956633 -3.900798 2.695900 -1.367576 -3.120852
    25 0.000000 2.741438 -0.000004 -0.256296 0.000000 0.000000
    26 0.000011 2.668507 0.000050 -0.190586 0.000000 0.000000
    27 1.401100 3.639807 -1.202109 2.031148 -1.355830 -2.447084
    28 0.000003 2.810953 0.000004 -0.256296 0.000000 0.000000
    29 -0.000004 2.736198 -0.000031 -0.190586 0.000000 0.000000
    30 1.335663 3.182100 1.418086 0.980184 -1.251585 -1.415249
    31 -0.000003 2.663269 0.000042 -0.256296 0.000000 0.000000
    32 0.000002 2.592525 -0.000031 -0.190586 0.000000 0.000000
    33 1.344765 1.881124 3.809589 1.120332 -1.203080 -1.477339
    34 0.000011 2.315664 -0.000084 -0.256296 0.000000 0.000000
    35 -0.000006 2.254017 0.000076 -0.190586 0.000000 0.000000
    36 0.000000 -4.648438 0.000000 -0.607868 0.000000 0.000000
    37 0.000018 4.648438 -0.000009 -0.607868 0.000000 0.000000
  time 10
    0 -0.236938 -0.302490 40.687500 -0.872564 -0.175618 0.728389
    1 0.000000 -5.355259 0.000000 -0.256876 -0.149402 -0.375760
    2 0.000000 -7.488277 -0.000001 0.108455 0.010397 -0.033897
    3 0.000000 -5.597980 0.000000 0.268406 0.013411 -0.064163
    4 0.000000 -6.565113 -0.000001 0.794304 -0.031792 -0.142059
    5 -1.549380 -5.102886 -4.074768 2.677304 -0.804916 -1.474706
    6 -0.000061 11.987243 0.000028 -0.244510 -0.525394 2.150658
    7 20.109310 0.000004 -0.000002 -1.511822 -0.373672 -0.030832
    8 19.941734 0.000001 -0.000008 -0.361773 -0.658596 -1.476339
    9 6.938272 1.999413 -1.014580 2.712156 0.793227 1.247178
    10 20.710249 0.000000 0.000000 0.000000 0.388233 0.000000
    11 18.105982 0.000001 0.000000 -1.027568 0.189834 1.349999
    12 -6.938270 1.999409 -1.014579 2.471513 1.168982 2.496108
    13 20.710224 0.000000 0.000000 0.000000 0.000000 1.055773
    14 18.106007 0.000000 -0.000001 1.573179 -1.288778 1.816587
    15 0.000000 -6.555973 0.000000 0.244328 0.657665 -0.225581
    16 0.000000 -3.252140 0.000004 -1.136904 -0.207551 -0.331705
    17 1.548545 -4.925743 -4.285366 -2.653113 -0.771102 -1.651585
    18 1.190170 -10.472042 -0.306139 1.353248 -0.238019 -0.934260
    19 0.000008 0.000000 15.020969 -0.201994 -0.066154 0.008339
    20 0.000000 -0.000001 8.039616 0.000000 0.000000 0.318947
    21 2.899849 -0.471045 -4.331210 -0.449452 -0.559880 -0.709305
    22 -0.000025 2.543312 0.000027 0.221028 0.000000 0.000000
    23 0.000059 2.315281 -0.000039 0.100872 0.000000 0.000000
    24 1.551407 3.956633 -3.900798 2.695900 -1.367576 -3.120852
    25 0.000000 2.741438 -0.000004 -0.256296 0.000000 0.000000
    26 0.000011 2.668507 0.000050 -0.190586 0.000000 0.000000
    27 1.401100 3.639807 -1.202109 2.031148 -1.355830 -2.447084
    28 0.000003 2.810953 0.000004 -0.256296 0.000000 0.000000
    29 -0.000004 2.736198 -0.000031 -0.190586 0.000000 0.000000
    30 1.335663 3.182100 1.418086 0.980184 -1.251585 -1.415249
    31 -0.000003 2.663269 0.000042 -0.256296 0.000000 0.000000
    32 0.000002 2.592525 -0.000031 -0.190586 0.000000 0.000000
    33 1.344765 1.881124 3.809589 1.120332 -1.203080 -1.477339
    34 0.000011 2.315664 -0.000084 -0.256296 0.000000 0.000000
    35 -0.000006 2.254017 0.000076 -0.190586 0.000000 0.000000
    36 0.000000 -4.648438 0.000000 -0.607868 0.000000 0.000000
    37 0.000018 4.648438 -0.000009 -0.607868 0.000000 0.000000
  time 11
    0 -0.236938 -0.302490 40.687500 -0.872564 -0.175618 0.728389
    1 0.000000 -5.355259 0.000000 -0.256876 -0.149402 -0.375760
    2 0.000000 -7.488277 -0.000001 0.108455 0.010397 -0.033897
    3 0.000000 -5.597980 0.000000 0.268406 0.013411 -0.064163
    4 0.000000 -6.565113 -0.000001 0.794304 -0.031792 -0.142059
    5 -1.549380 -5.102886 -4.074768 2.677304 -0.804916 -1.474706
    6 -0.000061 11.987243 0.000028 -0.244510 -0.525394 2.150658
    7 20.109310 0.000004 -0.000002 -1.511822 -0.373672 -0.030832
    8 19.941734 0.000001 -0.000008 -0.361773 -0.658596 -1.476339
    9 6.938272 1.999413 -1.014580 2.712156 0.793227 1.247178
    10 20.710249 0.000000 0.000000 0.000000 0.388233 0.000000
    11 18.105982 0.000001 0.000000 -1.027568 0.189834 1.349999
    12 -6.938270 1.999409 -1.014579 2.471513 1.168982 2.496108
    13 20.710224 0.000000 0.000000 0.000000 0.000000 1.055773
    14 18.106007 0.000000 -0.000001 1.573179 -1.288778 1.816587
    15 0.000000 -6.555973 0.000000 0.244328 0.657665 -0.225581
    16 0.000000 -3.252140 0.000004 -1.136904 -0.207551 -0.331705
    17 1.548545 -4.925743 -4.285366 -2.653113 -0.771102 -1.651585
    18 1.190170 -10.472042 -0.306139 1.353248 -0.238019 -0.934260
    19 0.000008 0.000000 15.020969 -0.201994 -0.066154 0.008339
    20 0.000000 -0.000001 8.039616 0.000000 0.000000 0.318947
    21 2.899849 -0.471045 -4.331210 -0.449452 -0.559880 -0.709305
    22 -0.000025 2.543312 0.000027 0.221028 0.000000 0.000000
    23 0.000059 2.315281 -0.000039 0.100872 0.000000 0.000000
    24 1.551407 3.956633 -3.900798 2.695900 -1.367576 -3.120852
    25 0.000000 2.741438 -0.000004 -0.256296 0.000000 0.000000
    26 0.000011 2.668507 0.000050 -0.190586 0.000000 0.000000
    27 1.401100 3.639807 -1.202109 2.031148 -1.355830 -2.447084
    28 0.000003 2.810953 0.000004 -0.256296 0.000000 0.000000
    29 -0.000004 2.736198 -0.000031 -0.190586 0.000000 0.000000
    30 1.335663 3.182100 1.418086 0.980184 -1.251585 -1.415249
    31 -0.000003 2.663269 0.000042 -0.256296 0.000000 0.000000
    32 0.000002 2.592525 -0.000031 -0.190586 0.000000 0.000000
    33 1.344765 1.881124 3.809589 1.120332 -1.203080 -1.477339
    34 0.000011 2.315664 -0.000084 -0.256296 0.000000 0.000000
    35 -0.000006 2.254017 0.000076 -0.190586 0.000000 0.000000
    36 0.000000 -4.648438 0.000000 -0.607868 0.000000 0.000000
    37 0.000018 4.648438 -0.000009 -0.607868 0.000000 0.000000
  time 12
    0 -0.236938 -0.302490 40.687500 -0.872564 -0.175618 0.728389
    1 0.000000 -5.355259 0.000000 -0.256876 -0.149402 -0.375760
    2 0.000000 -7.488277 -0.000001 0.108455 0.010397 -0.033897
    3 0.000000 -5.597980 0.000000 0.268406 0.013411 -0.064163
    4 0.000000 -6.565113 -0.000001 0.794304 -0.031792 -0.142059
    5 -1.549380 -5.102886 -4.074768 2.677304 -0.804916 -1.474706
    6 -0.000061 11.987243 0.000028 -0.244510 -0.525394 2.150658
    7 20.109310 0.000004 -0.000002 -1.511822 -0.373672 -0.030832
    8 19.941734 0.000001 -0.000008 -0.361773 -0.658596 -1.476339
    9 6.938272 1.999413 -1.014580 2.712156 0.793227 1.247178
    10 20.710249 0.000000 0.000000 0.000000 0.388233 0.000000
    11 18.105982 0.000001 0.000000 -1.027568 0.189834 1.349999
    12 -6.938270 1.999409 -1.014579 2.471513 1.168982 2.496108
    13 20.710224 0.000000 0.000000 0.000000 0.000000 1.055773
    14 18.106007 0.000000 -0.000001 1.573179 -1.288778 1.816587
    15 0.000000 -6.555973 0.000000 0.244328 0.657665 -0.225581
    16 0.000000 -3.252140 0.000004 -1.136904 -0.207551 -0.331705
    17 1.548545 -4.925743 -4.285366 -2.653113 -0.771102 -1.651585
    18 1.190170 -10.472042 -0.306139 1.353248 -0.238019 -0.934260
    19 0.000008 0.000000 15.020969 -0.201994 -0.066154 0.008339
    20 0.000000 -0.000001 8.039616 0.000000 0.000000 0.318947
    21 2.899849 -0.471045 -4.331210 -0.449452 -0.559880 -0.709305
    22 -0.000025 2.543312 0.000027 0.221028 0.000000 0.000000
    23 0.000059 2.315281 -0.000039 0.100872 0.000000 0.000000
    24 1.551407 3.956633 -3.900798 2.695900 -1.367576 -3.120852
    25 0.000000 2.741438 -0.000004 -0.256296 0.000000 0.000000
    26 0.000011 2.668507 0.000050 -0.190586 0.000000 0.000000
    27 1.401100 3.639807 -1.202109 2.031148 -1.355830 -2.447084
    28 0.000003 2.810953 0.000004 -0.256296 0.000000 0.000000
    29 -0.000004 2.736198 -0.000031 -0.190586 0.000000 0.000000
    30 1.335663 3.182100 1.418086 0.980184 -1.251585 -1.415249
    31 -0.000003 2.663269 0.000042 -0.256296 0.000000 0.000000
    32 0.000002 2.592525 -0.000031 -0.190586 0.000000 0.000000
    33 1.344765 1.881124 3.809589 1.120332 -1.203080 -1.477339
    34 0.000011 2.315664 -0.000084 -0.256296 0.000000 0.000000
    35 -0.000006 2.254017 0.000076 -0.190586 0.000000 0.000000
    36 0.000000 -4.648438 0.000000 -0.607868 0.000000 0.000000
    37 0.000018 4.648438 -0.000009 -0.607868 0.000000 0.000000
  time 13
    0 -0.236938 -0.302490 40.687500 -0.872564 -0.175618 0.728389
    1 0.000000 -5.355259 0.000000 -0.256876 -0.149402 -0.375760
    2 0.000000 -7.488277 -0.000001 0.108455 0.010397 -0.033897
    3 0.000000 -5.597980 0.000000 0.268406 0.013411 -0.064163
    4 0.000000 -6.565113 -0.000001 0.794304 -0.031792 -0.142059
    5 -1.549380 -5.102886 -4.074768 2.677304 -0.804916 -1.474706
    6 -0.000061 11.987243 0.000028 -0.244510 -0.525394 2.150658
    7 20.109310 0.000004 -0.000002 -1.511822 -0.373672 -0.030832
    8 19.941734 0.000001 -0.000008 -0.361773 -0.658596 -1.476339
    9 6.938272 1.999413 -1.014580 2.712156 0.793227 1.247178
    10 20.710249 0.000000 0.000000 0.000000 0.388233 0.000000
    11 18.105982 0.000001 0.000000 -1.027568 0.189834 1.349999
    12 -6.938270 1.999409 -1.014579 2.471513 1.168982 2.496108
    13 20.710224 0.000000 0.000000 0.000000 0.000000 1.055773
    14 18.106007 0.000000 -0.000001 1.573179 -1.288778 1.816587
    15 0.000000 -6.555973 0.000000 0.244328 0.657665 -0.225581
    16 0.000000 -3.252140 0.000004 -1.136904 -0.207551 -0.331705
    17 1.548545 -4.925743 -4.285366 -2.653113 -0.771102 -1.651585
    18 1.190170 -10.472042 -0.306139 1.353248 -0.238019 -0.934260
    19 0.000008 0.000000 15.020969 -0.201994 -0.066154 0.008339
    20 0.000000 -0.000001 8.039616 0.000000 0.000000 0.318947
    21 2.899849 -0.471045 -4.331210 -0.449452 -0.559880 -0.709305
    22 -0.000025 2.543312 0.000027 0.221028 0.000000 0.000000
    23 0.000059 2.315281 -0.000039 0.100872 0.000000 0.000000
    24 1.551407 3.956633 -3.900798 2.695900 -1.367576 -3.120852
    25 0.000000 2.741438 -0.000004 -0.256296 0.000000 0.000000
    26 0.000011 2.668507 0.000050 -0.190586 0.000000 0.000000
    27 1.401100 3.639807 -1.202109 2.031148 -1.355830 -2.447084
    28 0.000003 2.810953 0.000004 -0.256296 0.000000 0.000000
    29 -0.000004 2.736198 -0.000031 -0.190586 0.000000 0.000000
    30 1.335663 3.182100 1.418086 0.980184 -1.251585 -1.415249
    31 -0.000003 2.663269 0.000042 -0.256296 0.000000 0.000000
    32 0.000002 2.592525 -0.000031 -0.190586 0.000000 0.000000
    33 1.344765 1.881124 3.809589 1.120332 -1.203080 -1.477339
    34 0.000011 2.315664 -0.000084 -0.256296 0.000000 0.000000
    35 -0.000006 2.254017 0.000076 -0.190586 0.000000 0.000000
    36 0.000000 -4.648438 0.000000 -0.607868 0.000000 0.000000
    37 0.000018 4.648438 -0.000009 -0.607868 0.000000 0.000000
  time 14
    0 -0.236938 -0.302490 40.687500 -0.872564 -0.175618 0.728389
    1 0.000000 -5.355259 0.000000 -0.256876 -0.149402 -0.375760
    2 0.000000 -7.488277 -0.000001 0.108455 0.010397 -0.033897
    3 0.000000 -5.597980 0.000000 0.268406 0.013411 -0.064163
    4 0.000000 -6.565113 -0.000001 0.794304 -0.031792 -0.142059
    5 -1.549380 -5.102886 -4.074768 2.677304 -0.804916 -1.474706
    6 -0.000061 11.987243 0.000028 -0.244510 -0.525394 2.150658
    7 20.109310 0.000004 -0.000002 -1.511822 -0.373672 -0.030832
    8 19.941734 0.000001 -0.000008 -0.361773 -0.658596 -1.476339
    9 6.938272 1.999413 -1.014580 2.712156 0.793227 1.247178
    10 20.710249 0.000000 0.000000 0.000000 0.388233 0.000000
    11 18.105982 0.000001 0.000000 -1.027568 0.189834 1.349999
    12 -6.938270 1.999409 -1.014579 2.471513 1.168982 2.496108
    13 20.710224 0.000000 0.000000 0.000000 0.000000 1.055773
    14 18.106007 0.000000 -0.000001 1.573179 -1.288778 1.816587
    15 0.000000 -6.555973 0.000000 0.244328 0.657665 -0.225581
    16 0.000000 -3.252140 0.000004 -1.136904 -0.207551 -0.331705
    17 1.548545 -4.925743 -4.285366 -2.653113 -0.771102 -1.651585
    18 1.190170 -10.472042 -0.306139 1.353248 -0.238019 -0.934260
    19 0.000008 0.000000 15.020969 -0.201994 -0.066154 0.008339
    20 0.000000 -0.000001 8.039616 0.000000 0.000000 0.318947
    21 2.899849 -0.471045 -4.331210 -0.449452 -0.559880 -0.709305
    22 -0.000025 2.543312 0.000027 0.221028 0.000000 0.000000
    23 0.000059 2.315281 -0.000039 0.100872 0.000000 0.000000
    24 1.551407 3.956633 -3.900798 2.695900 -1.367576 -3.120852
    25 0.000000 2.741438 -0.000004 -0.256296 0.000000 0.000000
    26 0.000011 2.668507 0.000050 -0.190586 0.000000 0.000000
    27 1.401100 3.639807 -1.202109 2.031148 -1.355830 -2.447084
    28 0.000003 2.810953 0.000004 -0.256296 0.000000 0.000000
    29 -0.000004 2.736198 -0.000031 -0.190586 0.000000 0.000000
    30 1.335663 3.182100 1.418086 0.980184 -1.251585 -1.415249
    31 -0.000003 2.663269 0.000042 -0.256296 0.000000 0.000000
    32 0.000002 2.592525 -0.000031 -0.190586 0.000000 0.000000
    33 1.344765 1.881124 3.809589 1.120332 -1.203080 -1.477339
    34 0.000011 2.315664 -0.000084 -0.256296 0.000000 0.000000
    35 -0.000006 2.254017 0.000076 -0.190586 0.000000 0.000000
    36 0.000000 -4.648438 0.000000 -0.607868 0.000000 0.000000
    37 0.000018 4.648438 -0.000009 -0.607868 0.000000 0.000000
  time 15
    0 -0.236938 -0.302490 40.687500 -0.872564 -0.175618 0.728389
    1 0.000000 -5.355259 0.000000 -0.256876 -0.149402 -0.375760
    2 0.000000 -7.488277 -0.000001 0.108455 0.010397 -0.033897
    3 0.000000 -5.597980 0.000000 0.268406 0.013411 -0.064163
    4 0.000000 -6.565113 -0.000001 0.794304 -0.031792 -0.142059
    5 -1.549380 -5.102886 -4.074768 2.677304 -0.804916 -1.474706
    6 -0.000061 11.987243 0.000028 -0.244510 -0.525394 2.150658
    7 20.109310 0.000004 -0.000002 -1.511822 -0.373672 -0.030832
    8 19.941734 0.000001 -0.000008 -0.361773 -0.658596 -1.476339
    9 6.938272 1.999413 -1.014580 2.712156 0.793227 1.247178
    10 20.710249 0.000000 0.000000 0.000000 0.388233 0.000000
    11 18.105982 0.000001 0.000000 -1.027568 0.189834 1.349999
    12 -6.938270 1.999409 -1.014579 2.471513 1.168982 2.496108
    13 20.710224 0.000000 0.000000 0.000000 0.000000 1.055773
    14 18.106007 0.000000 -0.000001 1.573179 -1.288778 1.816587
    15 0.000000 -6.555973 0.000000 0.244328 0.657665 -0.225581
    16 0.000000 -3.252140 0.000004 -1.136904 -0.207551 -0.331705
    17 1.548545 -4.925743 -4.285366 -2.653113 -0.771102 -1.651585
    18 1.190170 -10.472042 -0.306139 1.353248 -0.238019 -0.934260
    19 0.000008 0.000000 15.020969 -0.201994 -0.066154 0.008339
    20 0.000000 -0.000001 8.039616 0.000000 0.000000 0.318947
    21 2.899849 -0.471045 -4.331210 -0.449452 -0.559880 -0.709305
    22 -0.000025 2.543312 0.000027 0.221028 0.000000 0.000000
    23 0.000059 2.315281 -0.000039 0.100872 0.000000 0.000000
    24 1.551407 3.956633 -3.900798 2.695900 -1.367576 -3.120852
    25 0.000000 2.741438 -0.000004 -0.256296 0.000000 0.000000
    26 0.000011 2.668507 0.000050 -0.190586 0.000000 0.000000
    27 1.401100 3.639807 -1.202109 2.031148 -1.355830 -2.447084
    28 0.000003 2.810953 0.000004 -0.256296 0.000000 0.000000
    29 -0.000004 2.736198 -0.000031 -0.190586 0.000000 0.000000
    30 1.335663 3.182100 1.418086 0.980184 -1.251585 -1.415249
    31 -0.000003 2.663269 0.000042 -0.256296 0.000000 0.000000
    32 0.000002 2.592525 -0.000031 -0.190586 0.000000 0.000000
    33 1.344765 1.881124 3.809589 1.120332 -1.203080 -1.477339
    34 0.000011 2.315664 -0.000084 -0.256296 0.000000 0.000000
    35 -0.000006 2.254017 0.000076 -0.190586 0.000000 0.000000
    36 0.000000 -4.648438 0.000000 -0.607868 0.000000 0.000000
    37 0.000018 4.648438 -0.000009 -0.607868 0.000000 0.000000
  time 16
    0 -0.236938 -0.302490 40.687500 -0.872564 -0.175618 0.728389
    1 0.000000 -5.355259 0.000000 -0.256876 -0.149402 -0.375760
    2 0.000000 -7.488277 -0.000001 0.108455 0.010397 -0.033897
    3 0.000000 -5.597980 0.000000 0.268406 0.013411 -0.064163
    4 0.000000 -6.565113 -0.000001 0.794304 -0.031792 -0.142059
    5 -1.549380 -5.102886 -4.074768 2.677304 -0.804916 -1.474706
    6 -0.000061 11.987243 0.000028 -0.244510 -0.525394 2.150658
    7 20.109310 0.000004 -0.000002 -1.511822 -0.373672 -0.030832
    8 19.941734 0.000001 -0.000008 -0.361773 -0.658596 -1.476339
    9 6.938272 1.999413 -1.014580 2.712156 0.793227 1.247178
    10 20.710249 0.000000 0.000000 0.000000 0.388233 0.000000
    11 18.105982 0.000001 0.000000 -1.027568 0.189834 1.349999
    12 -6.938270 1.999409 -1.014579 2.471513 1.168982 2.496108
    13 20.710224 0.000000 0.000000 0.000000 0.000000 1.055773
    14 18.106007 0.000000 -0.000001 1.573179 -1.288778 1.816587
    15 0.000000 -6.555973 0.000000 0.244328 0.657665 -0.225581
    16 0.000000 -3.252140 0.000004 -1.136904 -0.207551 -0.331705
    17 1.548545 -4.925743 -4.285366 -2.653113 -0.771102 -1.651585
    18 1.190170 -10.472042 -0.306139 1.353248 -0.238019 -0.934260
    19 0.000008 0.000000 15.020969 -0.201994 -0.066154 0.008339
    20 0.000000 -0.000001 8.039616 0.000000 0.000000 0.318947
    21 2.899849 -0.471045 -4.331210 -0.449452 -0.559880 -0.709305
    22 -0.000025 2.543312 0.000027 0.221028 0.000000 0.000000
    23 0.000059 2.315281 -0.000039 0.100872 0.000000 0.000000
    24 1.551407 3.956633 -3.900798 2.695900 -1.367576 -3.120852
    25 0.000000 2.741438 -0.000004 -0.256296 0.000000 0.000000
    26 0.000011 2.668507 0.000050 -0.190586 0.000000 0.000000
    27 1.401100 3.639807 -1.202109 2.031148 -1.355830 -2.447084
    28 0.000003 2.810953 0.000004 -0.256296 0.000000 0.000000
    29 -0.000004 2.736198 -0.000031 -0.190586 0.000000 0.000000
    30 1.335663 3.182100 1.418086 0.980184 -1.251585 -1.415249
    31 -0.000003 2.663269 0.000042 -0.256296 0.000000 0.000000
    32 0.000002 2.592525 -0.000031 -0.190586 0.000000 0.000000
    33 1.344765 1.881124 3.809589 1.120332 -1.203080 -1.477339
    34 0.000011 2.315664 -0.000084 -0.256296 0.000000 0.000000
    35 -0.000006 2.254017 0.000076 -0.190586 0.000000 0.000000
    36 0.000000 -4.648438 0.000000 -0.607868 0.000000 0.000000
    37 0.000018 4.648438 -0.000009 -0.607868 0.000000 0.000000
  time 17
    0 -0.236938 -0.302490 40.687500 -0.872564 -0.175618 0.728389
    1 0.000000 -5.355259 0.000000 -0.256876 -0.149402 -0.375760
    2 0.000000 -7.488277 -0.000001 0.108455 0.010397 -0.033897
    3 0.000000 -5.597980 0.000000 0.268406 0.013411 -0.064163
    4 0.000000 -6.565113 -0.000001 0.794304 -0.031792 -0.142059
    5 -1.549380 -5.102886 -4.074768 2.677304 -0.804916 -1.474706
    6 -0.000061 11.987243 0.000028 -0.244510 -0.525394 2.150658
    7 20.109310 0.000004 -0.000002 -1.511822 -0.373672 -0.030832
    8 19.941734 0.000001 -0.000008 -0.361773 -0.658596 -1.476339
    9 6.938272 1.999413 -1.014580 2.712156 0.793227 1.247178
    10 20.710249 0.000000 0.000000 0.000000 0.388233 0.000000
    11 18.105982 0.000001 0.000000 -1.027568 0.189834 1.349999
    12 -6.938270 1.999409 -1.014579 2.471513 1.168982 2.496108
    13 20.710224 0.000000 0.000000 0.000000 0.000000 1.055773
    14 18.106007 0.000000 -0.000001 1.573179 -1.288778 1.816587
    15 0.000000 -6.555973 0.000000 0.244328 0.657665 -0.225581
    16 0.000000 -3.252140 0.000004 -1.136904 -0.207551 -0.331705
    17 1.548545 -4.925743 -4.285366 -2.653113 -0.771102 -1.651585
    18 1.190170 -10.472042 -0.306139 1.353248 -0.238019 -0.934260
    19 0.000008 0.000000 15.020969 -0.201994 -0.066154 0.008339
    20 0.000000 -0.000001 8.039616 0.000000 0.000000 0.318947
    21 2.899849 -0.471045 -4.331210 -0.449452 -0.559880 -0.709305
    22 -0.000025 2.543312 0.000027 0.221028 0.000000 0.000000
    23 0.000059 2.315281 -0.000039 0.100872 0.000000 0.000000
    24 1.551407 3.956633 -3.900798 2.695900 -1.367576 -3.120852
    25 0.000000 2.741438 -0.000004 -0.256296 0.000000 0.000000
    26 0.000011 2.668507 0.000050 -0.190586 0.000000 0.000000
    27 1.401100 3.639807 -1.202109 2.031148 -1.355830 -2.447084
    28 0.000003 2.810953 0.000004 -0.256296 0.000000 0.000000
    29 -0.000004 2.736198 -0.000031 -0.190586 0.000000 0.000000
    30 1.335663 3.182100 1.418086 0.980184 -1.251585 -1.415249
    31 -0.000003 2.663269 0.000042 -0.256296 0.000000 0.000000
    32 0.000002 2.592525 -0.000031 -0.190586 0.000000 0.000000
    33 1.344765 1.881124 3.809589 1.120332 -1.203080 -1.477339
    34 0.000011 2.315664 -0.000084 -0.256296 0.000000 0.000000
    35 -0.000006 2.254017 0.000076 -0.190586 0.000000 0.000000
    36 0.000000 -4.648438 0.000000 -0.607868 0.000000 0.000000
    37 0.000018 4.648438 -0.000009 -0.607868 0.000000 0.000000
  time 18
    0 -0.236938 -0.302490 40.687500 -0.872564 -0.175618 0.728389
    1 0.000000 -5.355259 0.000000 -0.256876 -0.149402 -0.375760
    2 0.000000 -7.488277 -0.000001 0.108455 0.010397 -0.033897
    3 0.000000 -5.597980 0.000000 0.268406 0.013411 -0.064163
    4 0.000000 -6.565113 -0.000001 0.794304 -0.031792 -0.142059
    5 -1.549380 -5.102886 -4.074768 2.677304 -0.804916 -1.474706
    6 -0.000061 11.987243 0.000028 -0.244510 -0.525394 2.150658
    7 20.109310 0.000004 -0.000002 -1.511822 -0.373672 -0.030832
    8 19.941734 0.000001 -0.000008 -0.361773 -0.658596 -1.476339
    9 6.938272 1.999413 -1.014580 2.712156 0.793227 1.247178
    10 20.710249 0.000000 0.000000 0.000000 0.388233 0.000000
    11 18.105982 0.000001 0.000000 -1.027568 0.189834 1.349999
    12 -6.938270 1.999409 -1.014579 2.471513 1.168982 2.496108
    13 20.710224 0.000000 0.000000 0.000000 0.000000 1.055773
    14 18.106007 0.000000 -0.000001 1.573179 -1.288778 1.816587
    15 0.000000 -6.555973 0.000000 0.244328 0.657665 -0.225581
    16 0.000000 -3.252140 0.000004 -1.136904 -0.207551 -0.331705
    17 1.548545 -4.925743 -4.285366 -2.653113 -0.771102 -1.651585
    18 1.190170 -10.472042 -0.306139 1.353248 -0.238019 -0.934260
    19 0.000008 0.000000 15.020969 -0.201994 -0.066154 0.008339
    20 0.000000 -0.000001 8.039616 0.000000 0.000000 0.318947
    21 2.899849 -0.471045 -4.331210 -0.449452 -0.559880 -0.709305
    22 -0.000025 2.543312 0.000027 0.221028 0.000000 0.000000
    23 0.000059 2.315281 -0.000039 0.100872 0.000000 0.000000
    24 1.551407 3.956633 -3.900798 2.695900 -1.367576 -3.120852
    25 0.000000 2.741438 -0.000004 -0.256296 0.000000 0.000000
    26 0.000011 2.668507 0.000050 -0.190586 0.000000 0.000000
    27 1.401100 3.639807 -1.202109 2.031148 -1.355830 -2.447084
    28 0.000003 2.810953 0.000004 -0.256296 0.000000 0.000000
    29 -0.000004 2.736198 -0.000031 -0.190586 0.000000 0.000000
    30 1.335663 3.182100 1.418086 0.980184 -1.251585 -1.415249
    31 -0.000003 2.663269 0.000042 -0.256296 0.000000 0.000000
    32 0.000002 2.592525 -0.000031 -0.190586 0.000000 0.000000
    33 1.344765 1.881124 3.809589 1.120332 -1.203080 -1.477339
    34 0.000011 2.315664 -0.000084 -0.256296 0.000000 0.000000
    35 -0.000006 2.254017 0.000076 -0.190586 0.000000 0.000000
    36 0.000000 -4.648438 0.000000 -0.607868 0.000000 0.000000
    37 0.000018 4.648438 -0.000009 -0.607868 0.000000 0.000000
  time 19
    0 -0.236938 -0.302490 40.687500 -0.872564 -0.175618 0.728389
    1 0.000000 -5.355259 0.000000 -0.256876 -0.149402 -0.375760
    2 0.000000 -7.488277 -0.000001 0.108455 0.010397 -0.033897
    3 0.000000 -5.597980 0.000000 0.268406 0.013411 -0.064163
    4 0.000000 -6.565113 -0.000001 0.794304 -0.031792 -0.142059
    5 -1.549380 -5.102886 -4.074768 2.677304 -0.804916 -1.474706
    6 -0.000061 11.987243 0.000028 -0.244510 -0.525394 2.150658
    7 20.109310 0.000004 -0.000002 -1.511822 -0.373672 -0.030832
    8 19.941734 0.000001 -0.000008 -0.361773 -0.658596 -1.476339
    9 6.938272 1.999413 -1.014580 2.712156 0.793227 1.247178
    10 20.710249 0.000000 0.000000 0.000000 0.388233 0.000000
    11 18.105982 0.000001 0.000000 -1.027568 0.189834 1.349999
    12 -6.938270 1.999409 -1.014579 2.471513 1.168982 2.496108
    13 20.710224 0.000000 0.000000 0.000000 0.000000 1.055773
    14 18.106007 0.000000 -0.000001 1.573179 -1.288778 1.816587
    15 0.000000 -6.555973 0.000000 0.244328 0.657665 -0.225581
    16 0.000000 -3.252140 0.000004 -1.136904 -0.207551 -0.331705
    17 1.548545 -4.925743 -4.285366 -2.653113 -0.771102 -1.651585
    18 1.190170 -10.472042 -0.306139 1.353248 -0.238019 -0.934260
    19 0.000008 0.000000 15.020969 -0.201994 -0.066154 0.008339
    20 0.000000 -0.000001 8.039616 0.000000 0.000000 0.318947
    21 2.899849 -0.471045 -4.331210 -0.449452 -0.559880 -0.709305
    22 -0.000025 2.543312 0.000027 0.221028 0.000000 0.000000
    23 0.000059 2.315281 -0.000039 0.100872 0.000000 0.000000
    24 1.551407 3.956633 -3.900798 2.695900 -1.367576 -3.120852
    25 0.000000 2.741438 -0.000004 -0.256296 0.000000 0.000000
    26 0.000011 2.668507 0.000050 -0.190586 0.000000 0.000000
    27 1.401100 3.639807 -1.202109 2.031148 -1.355830 -2.447084
    28 0.000003 2.810953 0.000004 -0.256296 0.000000 0.000000
    29 -0.000004 2.736198 -0.000031 -0.190586 0.000000 0.000000
    30 1.335663 3.182100 1.418086 0.980184 -1.251585 -1.415249
    31 -0.000003 2.663269 0.000042 -0.256296 0.000000 0.000000
    32 0.000002 2.592525 -0.000031 -0.190586 0.000000 0.000000
    33 1.344765 1.881124 3.809589 1.120332 -1.203080 -1.477339
    34 0.000011 2.315664 -0.000084 -0.256296 0.000000 0.000000
    35 -0.000006 2.254017 0.000076 -0.190586 0.000000 0.000000
    36 0.000000 -4.648438 0.000000 -0.607868 0.000000 0.000000
    37 0.000018 4.648438 -0.000009 -0.607868 0.000000 0.000000
  time 20
    0 -0.236938 -0.302490 40.687500 -0.872564 -0.175618 0.728389
    1 0.000000 -5.355259 0.000000 -0.256876 -0.149402 -0.375760
    2 0.000000 -7.488277 -0.000001 0.108455 0.010397 -0.033897
    3 0.000000 -5.597980 0.000000 0.268406 0.013411 -0.064163
    4 0.000000 -6.565113 -0.000001 0.794304 -0.031792 -0.142059
    5 -1.549380 -5.102886 -4.074768 2.677304 -0.804916 -1.474706
    6 -0.000061 11.987243 0.000028 -0.244510 -0.525394 2.150658
    7 20.109310 0.000004 -0.000002 -1.511822 -0.373672 -0.030832
    8 19.941734 0.000001 -0.000008 -0.361773 -0.658596 -1.476339
    9 6.938272 1.999413 -1.014580 2.712156 0.793227 1.247178
    10 20.710249 0.000000 0.000000 0.000000 0.388233 0.000000
    11 18.105982 0.000001 0.000000 -1.027568 0.189834 1.349999
    12 -6.938270 1.999409 -1.014579 2.471513 1.168982 2.496108
    13 20.710224 0.000000 0.000000 0.000000 0.000000 1.055773
    14 18.106007 0.000000 -0.000001 1.573179 -1.288778 1.816587
    15 0.000000 -6.555973 0.000000 0.244328 0.657665 -0.225581
    16 0.000000 -3.252140 0.000004 -1.136904 -0.207551 -0.331705
    17 1.548545 -4.925743 -4.285366 -2.653113 -0.771102 -1.651585
    18 1.190170 -10.472042 -0.306139 1.353248 -0.238019 -0.934260
    19 0.000008 0.000000 15.020969 -0.201994 -0.066154 0.008339
    20 0.000000 -0.000001 8.039616 0.000000 0.000000 0.318947
    21 2.899849 -0.471045 -4.331210 -0.449452 -0.559880 -0.709305
    22 -0.000025 2.543312 0.000027 0.221028 0.000000 0.000000
    23 0.000059 2.315281 -0.000039 0.100872 0.000000 0.000000
    24 1.551407 3.956633 -3.900798 2.695900 -1.367576 -3.120852
    25 0.000000 2.741438 -0.000004 -0.256296 0.000000 0.000000
    26 0.000011 2.668507 0.000050 -0.190586 0.000000 0.000000
    27 1.401100 3.639807 -1.202109 2.031148 -1.355830 -2.447084
    28 0.000003 2.810953 0.000004 -0.256296 0.000000 0.000000
    29 -0.000004 2.736198 -0.000031 -0.190586 0.000000 0.000000
    30 1.335663 3.182100 1.418086 0.980184 -1.251585 -1.415249
    31 -0.000003 2.663269 0.000042 -0.256296 0.000000 0.000000
    32 0.000002 2.592525 -0.000031 -0.190586 0.000000 0.000000
    33 1.344765 1.881124 3.809589 1.120332 -1.203080 -1.477339
    34 0.000011 2.315664 -0.000084 -0.256296 0.000000 0.000000
    35 -0.000006 2.254017 0.000076 -0.190586 0.000000 0.000000
    36 0.000000 -4.648438 0.000000 -0.607868 0.000000 0.000000
    37 0.000018 4.648438 -0.000009 -0.607868 0.000000 0.000000
  time 21
    0 -0.236938 -0.302490 40.687500 -0.872564 -0.175618 0.728389
    1 0.000000 -5.355259 0.000000 -0.256876 -0.149402 -0.375760
    2 0.000000 -7.488277 -0.000001 0.108455 0.010397 -0.033897
    3 0.000000 -5.597980 0.000000 0.268406 0.013411 -0.064163
    4 0.000000 -6.565113 -0.000001 0.794304 -0.031792 -0.142059
    5 -1.549380 -5.102886 -4.074768 2.677304 -0.804916 -1.474706
    6 -0.000061 11.987243 0.000028 -0.244510 -0.525394 2.150658
    7 20.109310 0.000004 -0.000002 -1.511822 -0.373672 -0.030832
    8 19.941734 0.000001 -0.000008 -0.361773 -0.658596 -1.476339
    9 6.938272 1.999413 -1.014580 2.712156 0.793227 1.247178
    10 20.710249 0.000000 0.000000 0.000000 0.388233 0.000000
    11 18.105982 0.000001 0.000000 -1.027568 0.189834 1.349999
    12 -6.938270 1.999409 -1.014579 2.471513 1.168982 2.496108
    13 20.710224 0.000000 0.000000 0.000000 0.000000 1.055773
    14 18.106007 0.000000 -0.000001 1.573179 -1.288778 1.816587
    15 0.000000 -6.555973 0.000000 0.244328 0.657665 -0.225581
    16 0.000000 -3.252140 0.000004 -1.136904 -0.207551 -0.331705
    17 1.548545 -4.925743 -4.285366 -2.653113 -0.771102 -1.651585
    18 1.190170 -10.472042 -0.306139 1.353248 -0.238019 -0.934260
    19 0.000008 0.000000 15.020969 -0.201994 -0.066154 0.008339
    20 0.000000 -0.000001 8.039616 0.000000 0.000000 0.318947
    21 2.899849 -0.471045 -4.331210 -0.449452 -0.559880 -0.709305
    22 -0.000025 2.543312 0.000027 0.221028 0.000000 0.000000
    23 0.000059 2.315281 -0.000039 0.100872 0.000000 0.000000
    24 1.551407 3.956633 -3.900798 2.695900 -1.367576 -3.120852
    25 0.000000 2.741438 -0.000004 -0.256296 0.000000 0.000000
    26 0.000011 2.668507 0.000050 -0.190586 0.000000 0.000000
    27 1.401100 3.639807 -1.202109 2.031148 -1.355830 -2.447084
    28 0.000003 2.810953 0.000004 -0.256296 0.000000 0.000000
    29 -0.000004 2.736198 -0.000031 -0.190586 0.000000 0.000000
    30 1.335663 3.182100 1.418086 0.980184 -1.251585 -1.415249
    31 -0.000003 2.663269 0.000042 -0.256296 0.000000 0.000000
    32 0.000002 2.592525 -0.000031 -0.190586 0.000000 0.000000
    33 1.344765 1.881124 3.809589 1.120332 -1.203080 -1.477339
    34 0.000011 2.315664 -0.000084 -0.256296 0.000000 0.000000
    35 -0.000006 2.254017 0.000076 -0.190586 0.000000 0.000000
    36 0.000000 -4.648438 0.000000 -0.607868 0.000000 0.000000
    37 0.000018 4.648438 -0.000009 -0.607868 0.000000 0.000000
  time 22
    0 -0.236938 -0.302490 40.687500 -0.872564 -0.175618 0.728389
    1 0.000000 -5.355259 0.000000 -0.256876 -0.149402 -0.375760
    2 0.000000 -7.488277 -0.000001 0.108455 0.010397 -0.033897
    3 0.000000 -5.597980 0.000000 0.268406 0.013411 -0.064163
    4 0.000000 -6.565113 -0.000001 0.794304 -0.031792 -0.142059
    5 -1.549380 -5.102886 -4.074768 2.677304 -0.804916 -1.474706
    6 -0.000061 11.987243 0.000028 -0.244510 -0.525394 2.150658
    7 20.109310 0.000004 -0.000002 -1.511822 -0.373672 -0.030832
    8 19.941734 0.000001 -0.000008 -0.361773 -0.658596 -1.476339
    9 6.938272 1.999413 -1.014580 2.712156 0.793227 1.247178
    10 20.710249 0.000000 0.000000 0.000000 0.388233 0.000000
    11 18.105982 0.000001 0.000000 -1.027568 0.189834 1.349999
    12 -6.938270 1.999409 -1.014579 2.471513 1.168982 2.496108
    13 20.710224 0.000000 0.000000 0.000000 0.000000 1.055773
    14 18.106007 0.000000 -0.000001 1.573179 -1.288778 1.816587
    15 0.000000 -6.555973 0.000000 0.244328 0.657665 -0.225581
    16 0.000000 -3.252140 0.000004 -1.136904 -0.207551 -0.331705
    17 1.548545 -4.925743 -4.285366 -2.653113 -0.771102 -1.651585
    18 1.190170 -10.472042 -0.306139 1.353248 -0.238019 -0.934260
    19 0.000008 0.000000 15.020969 -0.201994 -0.066154 0.008339
    20 0.000000 -0.000001 8.039616 0.000000 0.000000 0.318947
    21 2.899849 -0.471045 -4.331210 -0.449452 -0.559880 -0.709305
    22 -0.000025 2.543312 0.000027 0.221028 0.000000 0.000000
    23 0.000059 2.315281 -0.000039 0.100872 0.000000 0.000000
    24 1.551407 3.956633 -3.900798 2.695900 -1.367576 -3.120852
    25 0.000000 2.741438 -0.000004 -0.256296 0.000000 0.000000
    26 0.000011 2.668507 0.000050 -0.190586 0.000000 0.000000
    27 1.401100 3.639807 -1.202109 2.031148 -1.355830 -2.447084
    28 0.000003 2.810953 0.000004 -0.256296 0.000000 0.000000
    29 -0.000004 2.736198 -0.000031 -0.190586 0.000000 0.000000
    30 1.335663 3.182100 1.418086 0.980184 -1.251585 -1.415249
    31 -0.000003 2.663269 0.000042 -0.256296 0.000000 0.000000
    32 0.000002 2.592525 -0.000031 -0.190586 0.000000 0.000000
    33 1.344765 1.881124 3.809589 1.120332 -1.203080 -1.477339
    34 0.000011 2.315664 -0.000084 -0.256296 0.000000 0.000000
    35 -0.000006 2.254017 0.000076 -0.190586 0.000000 0.000000
    36 0.000000 -4.648438 0.000000 -0.607868 0.000000 0.000000
    37 0.000018 4.648438 -0.000009 -0.607868 0.000000 0.000000
  time 23
    0 -0.236938 -0.302490 40.687500 -0.872564 -0.175618 0.728389
    1 0.000000 -5.355259 0.000000 -0.256876 -0.149402 -0.375760
    2 0.000000 -7.488277 -0.000001 0.108455 0.010397 -0.033897
    3 0.000000 -5.597980 0.000000 0.268406 0.013411 -0.064163
    4 0.000000 -6.565113 -0.000001 0.794304 -0.031792 -0.142059
    5 -1.549380 -5.102886 -4.074768 2.677304 -0.804916 -1.474706
    6 -0.000061 11.987243 0.000028 -0.244510 -0.525394 2.150658
    7 20.109310 0.000004 -0.000002 -1.511822 -0.373672 -0.030832
    8 19.941734 0.000001 -0.000008 -0.361773 -0.658596 -1.476339
    9 6.938272 1.999413 -1.014580 2.712156 0.793227 1.247178
    10 20.710249 0.000000 0.000000 0.000000 0.388233 0.000000
    11 18.105982 0.000001 0.000000 -1.027568 0.189834 1.349999
    12 -6.938270 1.999409 -1.014579 2.471513 1.168982 2.496108
    13 20.710224 0.000000 0.000000 0.000000 0.000000 1.055773
    14 18.106007 0.000000 -0.000001 1.573179 -1.288778 1.816587
    15 0.000000 -6.555973 0.000000 0.244328 0.657665 -0.225581
    16 0.000000 -3.252140 0.000004 -1.136904 -0.207551 -0.331705
    17 1.548545 -4.925743 -4.285366 -2.653113 -0.771102 -1.651585
    18 1.190170 -10.472042 -0.306139 1.353248 -0.238019 -0.934260
    19 0.000008 0.000000 15.020969 -0.201994 -0.066154 0.008339
    20 0.000000 -0.000001 8.039616 0.000000 0.000000 0.318947
    21 2.899849 -0.471045 -4.331210 -0.449452 -0.559880 -0.709305
    22 -0.000025 2.543312 0.000027 0.221028 0.000000 0.000000
    23 0.000059 2.315281 -0.000039 0.100872 0.000000 0.000000
    24 1.551407 3.956633 -3.900798 2.695900 -1.367576 -3.120852
    25 0.000000 2.741438 -0.000004 -0.256296 0.000000 0.000000
    26 0.000011 2.668507 0.000050 -0.190586 0.000000 0.000000
    27 1.401100 3.639807 -1.202109 2.031148 -1.355830 -2.447084
    28 0.000003 2.810953 0.000004 -0.256296 0.000000 0.000000
    29 -0.000004 2.736198 -0.000031 -0.190586 0.000000 0.000000
    30 1.335663 3.182100 1.418086 0.980184 -1.251585 -1.415249
    31 -0.000003 2.663269 0.000042 -0.256296 0.000000 0.000000
    32 0.000002 2.592525 -0.000031 -0.190586 0.000000 0.000000
    33 1.344765 1.881124 3.809589 1.120332 -1.203080 -1.477339
    34 0.000011 2.315664 -0.000084 -0.256296 0.000000 0.000000
    35 -0.000006 2.254017 0.000076 -0.190586 0.000000 0.000000
    36 0.000000 -4.648438 0.000000 -0.607868 0.000000 0.000000
    37 0.000018 4.648438 -0.000009 -0.607868 0.000000 0.000000
  time 24
    0 -0.236938 -0.302490 40.687500 -0.872564 -0.175618 0.728389
    1 0.000000 -5.355259 0.000000 -0.256876 -0.149402 -0.375760
    2 0.000000 -7.488277 -0.000001 0.108455 0.010397 -0.033897
    3 0.000000 -5.597980 0.000000 0.268406 0.013411 -0.064163
    4 0.000000 -6.565113 -0.000001 0.794304 -0.031792 -0.142059
    5 -1.549380 -5.102886 -4.074768 2.677304 -0.804916 -1.474706
    6 -0.000061 11.987243 0.000028 -0.244510 -0.525394 2.150658
    7 20.109310 0.000004 -0.000002 -1.511822 -0.373672 -0.030832
    8 19.941734 0.000001 -0.000008 -0.361773 -0.658596 -1.476339
    9 6.938272 1.999413 -1.014580 2.712156 0.793227 1.247178
    10 20.710249 0.000000 0.000000 0.000000 0.388233 0.000000
    11 18.105982 0.000001 0.000000 -1.027568 0.189834 1.349999
    12 -6.938270 1.999409 -1.014579 2.471513 1.168982 2.496108
    13 20.710224 0.000000 0.000000 0.000000 0.000000 1.055773
    14 18.106007 0.000000 -0.000001 1.573179 -1.288778 1.816587
    15 0.000000 -6.555973 0.000000 0.244328 0.657665 -0.225581
    16 0.000000 -3.252140 0.000004 -1.136904 -0.207551 -0.331705
    17 1.548545 -4.925743 -4.285366 -2.653113 -0.771102 -1.651585
    18 1.190170 -10.472042 -0.306139 1.353248 -0.238019 -0.934260
    19 0.000008 0.000000 15.020969 -0.201994 -0.066154 0.008339
    20 0.000000 -0.000001 8.039616 0.000000 0.000000 0.318947
    21 2.899849 -0.471045 -4.331210 -0.449452 -0.559880 -0.709305
    22 -0.000025 2.543312 0.000027 0.221028 0.000000 0.000000
    23 0.000059 2.315281 -0.000039 0.100872 0.000000 0.000000
    24 1.551407 3.956633 -3.900798 2.695900 -1.367576 -3.120852
    25 0.000000 2.741438 -0.000004 -0.256296 0.000000 0.000000
    26 0.000011 2.668507 0.000050 -0.190586 0.000000 0.000000
    27 1.401100 3.639807 -1.202109 2.031148 -1.355830 -2.447084
    28 0.000003 2.810953 0.000004 -0.256296 0.000000 0.000000
    29 -0.000004 2.736198 -0.000031 -0.190586 0.000000 0.000000
    30 1.335663 3.182100 1.418086 0.980184 -1.251585 -1.415249
    31 -0.000003 2.663269 0.000042 -0.256296 0.000000 0.000000
    32 0.000002 2.592525 -0.000031 -0.190586 0.000000 0.000000
    33 1.344765 1.881124 3.809589 1.120332 -1.203080 -1.477339
    34 0.000011 2.315664 -0.000084 -0.256296 0.000000 0.000000
    35 -0.000006 2.254017 0.000076 -0.190586 0.000000 0.000000
    36 0.000000 -4.648438 0.000000 -0.607868 0.000000 0.000000
    37 0.000018 4.648438 -0.000009 -0.607868 0.000000 0.000000
  time 25
    0 -0.236938 -0.302490 40.687500 -0.872564 -0.175618 0.728389
    1 0.000000 -5.355259 0.000000 -0.256876 -0.149402 -0.375760
    2 0.000000 -7.488277 -0.000001 0.108455 0.010397 -0.033897
    3 0.000000 -5.597980 0.000000 0.268406 0.013411 -0.064163
    4 0.000000 -6.565113 -0.000001 0.794304 -0.031792 -0.142059
    5 -1.549380 -5.102886 -4.074768 2.677304 -0.804916 -1.474706
    6 -0.000061 11.987243 0.000028 -0.244510 -0.525394 2.150658
    7 20.109310 0.000004 -0.000002 -1.511822 -0.373672 -0.030832
    8 19.941734 0.000001 -0.000008 -0.361773 -0.658596 -1.476339
    9 6.938272 1.999413 -1.014580 2.712156 0.793227 1.247178
    10 20.710249 0.000000 0.000000 0.000000 0.388233 0.000000
    11 18.105982 0.000001 0.000000 -1.027568 0.189834 1.349999
    12 -6.938270 1.999409 -1.014579 2.471513 1.168982 2.496108
    13 20.710224 0.000000 0.000000 0.000000 0.000000 1.055773
    14 18.106007 0.000000 -0.000001 1.573179 -1.288778 1.816587
    15 0.000000 -6.555973 0.000000 0.244328 0.657665 -0.225581
    16 0.000000 -3.252140 0.000004 -1.136904 -0.207551 -0.331705
    17 1.548545 -4.925743 -4.285366 -2.653113 -0.771102 -1.651585
    18 1.190170 -10.472042 -0.306139 1.353248 -0.238019 -0.934260
    19 0.000008 0.000000 15.020969 -0.201994 -0.066154 0.008339
    20 0.000000 -0.000001 8.039616 0.000000 0.000000 0.318947
    21 2.899849 -0.471045 -4.331210 -0.449452 -0.559880 -0.709305
    22 -0.000025 2.543312 0.000027 0.221028 0.000000 0.000000
    23 0.000059 2.315281 -0.000039 0.100872 0.000000 0.000000
    24 1.551407 3.956633 -3.900798 2.695900 -1.367576 -3.120852
    25 0.000000 2.741438 -0.000004 -0.256296 0.000000 0.000000
    26 0.000011 2.668507 0.000050 -0.190586 0.000000 0.000000
    27 1.401100 3.639807 -1.202109 2.031148 -1.355830 -2.447084
    28 0.000003 2.810953 0.000004 -0.256296 0.000000 0.000000
    29 -0.000004 2.736198 -0.000031 -0.190586 0.000000 0.000000
    30 1.335663 3.182100 1.418086 0.980184 -1.251585 -1.415249
    31 -0.000003 2.663269 0.000042 -0.256296 0.000000 0.000000
    32 0.000002 2.592525 -0.000031 -0.190586 0.000000 0.000000
    33 1.344765 1.881124 3.809589 1.120332 -1.203080 -1.477339
    34 0.000011 2.315664 -0.000084 -0.256296 0.000000 0.000000
    35 -0.000006 2.254017 0.000076 -0.190586 0.000000 0.000000
    36 0.000000 -4.648438 0.000000 -0.607868 0.000000 0.000000
    37 0.000018 4.648438 -0.000009 -0.607868 0.000000 0.000000
  time 26
    0 -0.236938 -0.302490 40.687500 -0.872564 -0.175618 0.728389
    1 0.000000 -5.355259 0.000000 -0.256876 -0.149402 -0.375760
    2 0.000000 -7.488277 -0.000001 0.108455 0.010397 -0.033897
    3 0.000000 -5.597980 0.000000 0.268406 0.013411 -0.064163
    4 0.000000 -6.565113 -0.000001 0.794304 -0.031792 -0.142059
    5 -1.549380 -5.102886 -4.074768 2.677304 -0.804916 -1.474706
    6 -0.000061 11.987243 0.000028 -0.244510 -0.525394 2.150658
    7 20.109310 0.000004 -0.000002 -1.511822 -0.373672 -0.030832
    8 19.941734 0.000001 -0.000008 -0.361773 -0.658596 -1.476339
    9 6.938272 1.999413 -1.014580 2.712156 0.793227 1.247178
    10 20.710249 0.000000 0.000000 0.000000 0.388233 0.000000
    11 18.105982 0.000001 0.000000 -1.027568 0.189834 1.349999
    12 -6.938270 1.999409 -1.014579 2.471513 1.168982 2.496108
    13 20.710224 0.000000 0.000000 0.000000 0.000000 1.055773
    14 18.106007 0.000000 -0.000001 1.573179 -1.288778 1.816587
    15 0.000000 -6.555973 0.000000 0.244328 0.657665 -0.225581
    16 0.000000 -3.252140 0.000004 -1.136904 -0.207551 -0.331705
    17 1.548545 -4.925743 -4.285366 -2.653113 -0.771102 -1.651585
    18 1.190170 -10.472042 -0.306139 1.353248 -0.238019 -0.934260
    19 0.000008 0.000000 15.020969 -0.201994 -0.066154 0.008339
    20 0.000000 -0.000001 8.039616 0.000000 0.000000 0.318947
    21 2.899849 -0.471045 -4.331210 -0.449452 -0.559880 -0.709305
    22 -0.000025 2.543312 0.000027 0.221028 0.000000 0.000000
    23 0.000059 2.315281 -0.000039 0.100872 0.000000 0.000000
    24 1.551407 3.956633 -3.900798 2.695900 -1.367576 -3.120852
    25 0.000000 2.741438 -0.000004 -0.256296 0.000000 0.000000
    26 0.000011 2.668507 0.000050 -0.190586 0.000000 0.000000
    27 1.401100 3.639807 -1.202109 2.031148 -1.355830 -2.447084
    28 0.000003 2.810953 0.000004 -0.256296 0.000000 0.000000
    29 -0.000004 2.736198 -0.000031 -0.190586 0.000000 0.000000
    30 1.335663 3.182100 1.418086 0.980184 -1.251585 -1.415249
    31 -0.000003 2.663269 0.000042 -0.256296 0.000000 0.000000
    32 0.000002 2.592525 -0.000031 -0.190586 0.000000 0.000000
    33 1.344765 1.881124 3.809589 1.120332 -1.203080 -1.477339
    34 0.000011 2.315664 -0.000084 -0.256296 0.000000 0.000000
    35 -0.000006 2.254017 0.000076 -0.190586 0.000000 0.000000
    36 0.000000 -4.648438 0.000000 -0.607868 0.000000 0.000000
    37 0.000018 4.648438 -0.000009 -0.607868 0.000000 0.000000
  time 27
    0 -0.236938 -0.302490 40.687500 -0.872564 -0.175618 0.728389
    1 0.000000 -5.355259 0.000000 -0.256876 -0.149402 -0.375760
    2 0.000000 -7.488277 -0.000001 0.108455 0.010397 -0.033897
    3 0.000000 -5.597980 0.000000 0.268406 0.013411 -0.064163
    4 0.000000 -6.565113 -0.000001 0.794304 -0.031792 -0.142059
    5 -1.549380 -5.102886 -4.074768 2.677304 -0.804916 -1.474706
    6 -0.000061 11.987243 0.000028 -0.244510 -0.525394 2.150658
    7 20.109310 0.000004 -0.000002 -1.511822 -0.373672 -0.030832
    8 19.941734 0.000001 -0.000008 -0.361773 -0.658596 -1.476339
    9 6.938272 1.999413 -1.014580 2.712156 0.793227 1.247178
    10 20.710249 0.000000 0.000000 0.000000 0.388233 0.000000
    11 18.105982 0.000001 0.000000 -1.027568 0.189834 1.349999
    12 -6.938270 1.999409 -1.014579 2.471513 1.168982 2.496108
    13 20.710224 0.000000 0.000000 0.000000 0.000000 1.055773
    14 18.106007 0.000000 -0.000001 1.573179 -1.288778 1.816587
    15 0.000000 -6.555973 0.000000 0.244328 0.657665 -0.225581
    16 0.000000 -3.252140 0.000004 -1.136904 -0.207551 -0.331705
    17 1.548545 -4.925743 -4.285366 -2.653113 -0.771102 -1.651585
    18 1.190170 -10.472042 -0.306139 1.353248 -0.238019 -0.934260
    19 0.000008 0.000000 15.020969 -0.201994 -0.066154 0.008339
    20 0.000000 -0.000001 8.039616 0.000000 0.000000 0.318947
    21 2.899849 -0.471045 -4.331210 -0.449452 -0.559880 -0.709305
    22 -0.000025 2.543312 0.000027 0.221028 0.000000 0.000000
    23 0.000059 2.315281 -0.000039 0.100872 0.000000 0.000000
    24 1.551407 3.956633 -3.900798 2.695900 -1.367576 -3.120852
    25 0.000000 2.741438 -0.000004 -0.256296 0.000000 0.000000
    26 0.000011 2.668507 0.000050 -0.190586 0.000000 0.000000
    27 1.401100 3.639807 -1.202109 2.031148 -1.355830 -2.447084
    28 0.000003 2.810953 0.000004 -0.256296 0.000000 0.000000
    29 -0.000004 2.736198 -0.000031 -0.190586 0.000000 0.000000
    30 1.335663 3.182100 1.418086 0.980184 -1.251585 -1.415249
    31 -0.000003 2.663269 0.000042 -0.256296 0.000000 0.000000
    32 0.000002 2.592525 -0.000031 -0.190586 0.000000 0.000000
    33 1.344765 1.881124 3.809589 1.120332 -1.203080 -1.477339
    34 0.000011 2.315664 -0.000084 -0.256296 0.000000 0.000000
    35 -0.000006 2.254017 0.000076 -0.190586 0.000000 0.000000
    36 0.000000 -4.648438 0.000000 -0.607868 0.000000 0.000000
    37 0.000018 4.648438 -0.000009 -0.607868 0.000000 0.000000
  time 28
    0 -0.236938 -0.302490 40.687500 -0.872564 -0.175618 0.728389
    1 0.000000 -5.355259 0.000000 -0.256876 -0.149402 -0.375760
    2 0.000000 -7.488277 -0.000001 0.108455 0.010397 -0.033897
    3 0.000000 -5.597980 0.000000 0.268406 0.013411 -0.064163
    4 0.000000 -6.565113 -0.000001 0.794304 -0.031792 -0.142059
    5 -1.549380 -5.102886 -4.074768 2.677304 -0.804916 -1.474706
    6 -0.000061 11.987243 0.000028 -0.244510 -0.525394 2.150658
    7 20.109310 0.000004 -0.000002 -1.511822 -0.373672 -0.030832
    8 19.941734 0.000001 -0.000008 -0.361773 -0.658596 -1.476339
    9 6.938272 1.999413 -1.014580 2.712156 0.793227 1.247178
    10 20.710249 0.000000 0.000000 0.000000 0.388233 0.000000
    11 18.105982 0.000001 0.000000 -1.027568 0.189834 1.349999
    12 -6.938270 1.999409 -1.014579 2.471513 1.168982 2.496108
    13 20.710224 0.000000 0.000000 0.000000 0.000000 1.055773
    14 18.106007 0.000000 -0.000001 1.573179 -1.288778 1.816587
    15 0.000000 -6.555973 0.000000 0.244328 0.657665 -0.225581
    16 0.000000 -3.252140 0.000004 -1.136904 -0.207551 -0.331705
    17 1.548545 -4.925743 -4.285366 -2.653113 -0.771102 -1.651585
    18 1.190170 -10.472042 -0.306139 1.353248 -0.238019 -0.934260
    19 0.000008 0.000000 15.020969 -0.201994 -0.066154 0.008339
    20 0.000000 -0.000001 8.039616 0.000000 0.000000 0.318947
    21 2.899849 -0.471045 -4.331210 -0.449452 -0.559880 -0.709305
    22 -0.000025 2.543312 0.000027 0.221028 0.000000 0.000000
    23 0.000059 2.315281 -0.000039 0.100872 0.000000 0.000000
    24 1.551407 3.956633 -3.900798 2.695900 -1.367576 -3.120852
    25 0.000000 2.741438 -0.000004 -0.256296 0.000000 0.000000
    26 0.000011 2.668507 0.000050 -0.190586 0.000000 0.000000
    27 1.401100 3.639807 -1.202109 2.031148 -1.355830 -2.447084
    28 0.000003 2.810953 0.000004 -0.256296 0.000000 0.000000
    29 -0.000004 2.736198 -0.000031 -0.190586 0.000000 0.000000
    30 1.335663 3.182100 1.418086 0.980184 -1.251585 -1.415249
    31 -0.000003 2.663269 0.000042 -0.256296 0.000000 0.000000
    32 0.000002 2.592525 -0.000031 -0.190586 0.000000 0.000000
    33 1.344765 1.881124 3.809589 1.120332 -1.203080 -1.477339
    34 0.000011 2.315664 -0.000084 -0.256296 0.000000 0.000000
    35 -0.000006 2.254017 0.000076 -0.190586 0.000000 0.000000
    36 0.000000 -4.648438 0.000000 -0.607868 0.000000 0.000000
    37 0.000018 4.648438 -0.000009 -0.607868 0.000000 0.000000
  time 29
    0 -0.236938 -0.302490 40.687500 -0.872564 -0.175618 0.728389
    1 0.000000 -5.355259 0.000000 -0.256876 -0.149402 -0.375760
    2 0.000000 -7.488277 -0.000001 0.108455 0.010397 -0.033897
    3 0.000000 -5.597980 0.000000 0.268406 0.013411 -0.064163
    4 0.000000 -6.565113 -0.000001 0.794304 -0.031792 -0.142059
    5 -1.549380 -5.102886 -4.074768 2.677304 -0.804916 -1.474706
    6 -0.000061 11.987243 0.000028 -0.244510 -0.525394 2.150658
    7 20.109310 0.000004 -0.000002 -1.511822 -0.373672 -0.030832
    8 19.941734 0.000001 -0.000008 -0.361773 -0.658596 -1.476339
    9 6.938272 1.999413 -1.014580 2.712156 0.793227 1.247178
    10 20.710249 0.000000 0.000000 0.000000 0.388233 0.000000
    11 18.105982 0.000001 0.000000 -1.027568 0.189834 1.349999
    12 -6.938270 1.999409 -1.014579 2.471513 1.168982 2.496108
    13 20.710224 0.000000 0.000000 0.000000 0.000000 1.055773
    14 18.106007 0.000000 -0.000001 1.573179 -1.288778 1.816587
    15 0.000000 -6.555973 0.000000 0.244328 0.657665 -0.225581
    16 0.000000 -3.252140 0.000004 -1.136904 -0.207551 -0.331705
    17 1.548545 -4.925743 -4.285366 -2.653113 -0.771102 -1.651585
    18 1.190170 -10.472042 -0.306139 1.353248 -0.238019 -0.934260
    19 0.000008 0.000000 15.020969 -0.201994 -0.066154 0.008339
    20 0.000000 -0.000001 8.039616 0.000000 0.000000 0.318947
    21 2.899849 -0.471045 -4.331210 -0.449452 -0.559880 -0.709305
    22 -0.000025 2.543312 0.000027 0.221028 0.000000 0.000000
    23 0.000059 2.315281 -0.000039 0.100872 0.000000 0.000000
    24 1.551407 3.956633 -3.900798 2.695900 -1.367576 -3.120852
    25 0.000000 2.741438 -0.000004 -0.256296 0.000000 0.000000
    26 0.000011 2.668507 0.000050 -0.190586 0.000000 0.000000
    27 1.401100 3.639807 -1.202109 2.031148 -1.355830 -2.447084
    28 0.000003 2.810953 0.000004 -0.256296 0.000000 0.000000
    29 -0.000004 2.736198 -0.000031 -0.190586 0.000000 0.000000
    30 1.335663 3.182100 1.418086 0.980184 -1.251585 -1.415249
    31 -0.000003 2.663269 0.000042 -0.256296 0.000000 0.000000
    32 0.000002 2.592525 -0.000031 -0.190586 0.000000 0.000000
    33 1.344765 1.881124 3.809589 1.120332 -1.203080 -1.477339
    34 0.000011 2.315664 -0.000084 -0.256296 0.000000 0.000000
    35 -0.000006 2.254017 0.000076 -0.190586 0.000000 0.000000
    36 0.000000 -4.648438 0.000000 -0.607868 0.000000 0.000000
    37 0.000018 4.648438 -0.000009 -0.607868 0.000000 0.000000
end
