version 1
nodes
0 "ValveBiped.Bip01_Pelvis" -1
1 "ValveBiped.Bip01_Spine" 0
2 "ValveBiped.Bip01_Spine1" 1
3 "ValveBiped.Bip01_Spine2" 2
4 "ValveBiped.Bip01_Spine4" 3
5 "ValveBiped.Bip01_Neck1" 4
6 "ValveBiped.Bip01_Head1" 5
7 "ValveBiped.forward" 6
8 "j_hair_r_01" 6
9 "j_hair_r_02" 8
10 "j_hair_r_03" 9
11 "j_hair_l_01" 6
12 "j_hair_l_02" 11
13 "j_hair_l_03" 12
14 "j_hair_f_01" 6
15 "j_hair_f_02" 14
16 "j_hair_b_01" 6
17 "j_hair_b_02" 16
18 "j_hair_b_03" 17
19 "j_hair_b_04" 18
20 "j_hair_bl_01" 16
21 "j_hair_bl_02" 20
22 "j_hair_br_01" 16
23 "j_hair_br_02" 22
24 "ValveBiped.Bip01_L_Clavicle" 4
25 "ValveBiped.Bip01_L_UpperArm" 24
26 "ValveBiped.Bip01_L_Forearm" 25
27 "ValveBiped.Bip01_L_Wrist" 26
28 "ValveBiped.Bip01_L_Hand" 26
29 "ValveBiped.Anim_Attachment_LH" 28
30 "ValveBiped.Bip01_L_Finger3" 28
31 "ValveBiped.Bip01_L_Finger31" 30
32 "ValveBiped.Bip01_L_Finger32" 31
33 "ValveBiped.Bip01_L_Finger2" 28
34 "ValveBiped.Bip01_L_Finger21" 33
35 "ValveBiped.Bip01_L_Finger22" 34
36 "ValveBiped.Bip01_L_Finger1" 28
37 "ValveBiped.Bip01_L_Finger11" 36
38 "ValveBiped.Bip01_L_Finger12" 37
39 "ValveBiped.Bip01_L_Finger4" 28
40 "ValveBiped.Bip01_L_Finger41" 39
41 "ValveBiped.Bip01_L_Finger42" 40
42 "ValveBiped.Bip01_L_Finger0" 28
43 "ValveBiped.Bip01_L_Finger01" 42
44 "ValveBiped.Bip01_L_Finger02" 43
45 "ValveBiped.Bip01_L_Elbow" 25
46 "ValveBiped.Bip01_L_Shoulder" 25
47 "ValveBiped.Bip01_L_Trapezius" 24
48 "ValveBiped.Bip01_R_Clavicle" 4
49 "ValveBiped.Bip01_R_UpperArm" 48
50 "ValveBiped.Bip01_R_Forearm" 49
51 "ValveBiped.Bip01_R_Hand" 50
52 "ValveBiped.Anim_Attachment_RH" 51
53 "ValveBiped.Bip01_R_Finger2" 51
54 "ValveBiped.Bip01_R_Finger21" 53
55 "ValveBiped.Bip01_R_Finger22" 54
56 "ValveBiped.Bip01_R_Finger1" 51
57 "ValveBiped.Bip01_R_Finger11" 56
58 "ValveBiped.Bip01_R_Finger12" 57
59 "ValveBiped.Bip01_R_Finger3" 51
60 "ValveBiped.Bip01_R_Finger31" 59
61 "ValveBiped.Bip01_R_Finger32" 60
62 "ValveBiped.Bip01_R_Finger4" 51
63 "ValveBiped.Bip01_R_Finger41" 62
64 "ValveBiped.Bip01_R_Finger42" 63
65 "ValveBiped.Bip01_R_Finger0" 51
66 "ValveBiped.Bip01_R_Finger01" 65
67 "ValveBiped.Bip01_R_Finger02" 66
68 "ValveBiped.Bip01_R_Wrist" 50
69 "ValveBiped.Bip01_R_Shoulder" 49
70 "ValveBiped.Bip01_R_Trapezius" 48
71 "p_bowknot_01" 4
72 "p_bowknot_02" 2
73 "ValveBiped.Bip01_L_Thigh" 0
74 "ValveBiped.Bip01_L_Calf" 73
75 "ValveBiped.Bip01_L_Foot" 74
76 "ValveBiped.Bip01_L_Toe0" 75
77 "ValveBiped.Bip01_L_Ankle" 74
78 "p_skirt_e_helper" 73
79 "p_skirt_e_01" 78
80 "p_skirt_e_02" 79
81 "p_skirt_se_helper" 73
82 "p_skirt_se_01" 81
83 "p_skirt_se_02" 82
84 "ValveBiped.Bip01_R_Thigh" 0
85 "ValveBiped.Bip01_R_Calf" 84
86 "ValveBiped.Bip01_R_Foot" 85
87 "ValveBiped.Bip01_R_Toe0" 86
88 "ValveBiped.Bip01_R_Ankle" 85
89 "p_skirt_w_helper" 84
90 "p_skirt_w_01" 89
91 "p_skirt_w_02" 90
92 "p_skirt_sw_helper" 84
93 "p_skirt_sw_01" 92
94 "p_skirt_sw_02" 93
95 "p_skirt_n_helper" 0
96 "p_skirt_n_01" 95
97 "p_skirt_n_02" 96
98 "p_skirt_nw_helper" 0
99 "p_skirt_nw_01" 98
100 "p_skirt_nw_02" 99
101 "p_skirt_ne_helper" 0
102 "p_skirt_ne_01" 101
103 "p_skirt_ne_02" 102
104 "root" -1
end
skeleton
time 0
0  0.005735 -0.710612 35.671192  1.570796 -0.000000 0.000000
1  0.000004 3.939247 -1.580135  1.570796 -0.027982 1.570796
2  3.588203 -0.000018 0.000000  0.000000 0.000000 -0.112613
3  3.382976 -0.000020 0.000000  0.000000 -0.000000 -0.012644
4  7.050211 0.000021 -0.000001  0.000000 0.000000 0.155823
5  2.971944 -0.000021 0.000000  3.141590 -0.000000 0.227029
6  3.226831 -0.000028 0.000000  -0.000000 -0.000000 0.110986
7  0.000001 0.000001 0.000000  -1.570795 0.000000 -1.323624
8  4.439456 -1.917293 3.679858  -0.000001 3.029286 0.072046
9  4.703284 0.000027 -0.000005  -0.000335 0.105293 -0.572816
10  5.480249 -0.000022 0.000006  0.000000 -0.000000 0.166862
11  4.674913 -2.010223 -3.449564  -0.000005 -0.093378 -3.059263
12  5.115871 0.000021 -0.000064  0.000401 0.126510 0.557915
13  5.213441 0.000090 -0.000010  -0.000001 -0.000011 -0.158237
14  7.148785 -3.165122 0.000008  -0.000002 0.000003 -2.462165
15  2.826143 -0.000058 0.000001  0.000000 -0.000000 -0.707615
16  2.002640 4.890165 0.000036  -0.000003 -0.000001 3.044799
17  5.923582 -0.000050 0.000001  -0.000000 -0.000000 0.173252
18  5.653115 0.000074 0.000000  -0.000000 -0.000001 0.094648
19  6.246217 0.000092 -0.000003  -0.000000 0.000000 -0.064078
20  8.798079 1.402199 -4.517011  -0.000000 0.000014 0.150788
21  7.837481 -0.000081 0.000100  -0.000003 -0.000020 0.299012
22  8.809435 1.405302 4.524814  0.000005 0.000005 0.154602
23  7.681227 -0.000004 0.000029  -0.000005 -0.000010 0.278245
24  1.892323 0.848527 0.797221  -1.503226 -1.807456 -0.241490
25  4.660079 0.000003 -0.000008  -1.433351 0.086977 -0.426649
26  9.017754 0.000078 -0.000000  0.000701 0.008712 -0.040946
27  9.086883 0.000076 0.000000  -0.057546 0.000000 0.000005
28  9.086883 0.000076 0.000000  1.505416 -0.038605 0.036312
29  2.211568 -1.415164 0.000001  1.570801 0.000003 1.569942
30  3.056111 0.221117 -0.602437  0.068894 -0.004809 -0.258013
31  1.445402 -0.000012 0.000010  0.042611 0.057689 0.125582
32  0.793350 0.000011 0.000003  0.249854 -0.099398 -0.203728
33  3.114341 0.126092 0.058994  0.142337 -0.026312 -0.171483
34  1.684238 -0.000012 -0.000008  -0.036122 0.039227 0.053680
35  0.881784 0.000008 -0.000007  -0.001249 -0.005664 -0.098986
36  3.127104 -0.014262 0.656631  0.302883 -0.149215 -0.102523
37  1.346234 -0.000023 0.000010  -0.020778 0.084725 -0.150780
38  0.790055 0.000005 -0.000001  0.022996 0.020242 0.074290
39  3.147800 -0.110987 -1.428879  0.214224 -0.096995 -0.106195
40  1.007397 -0.000002 -0.000011  -0.409247 0.077802 -0.086154
41  0.561952 -0.000013 0.000000  0.194179 -0.012836 -0.056706
42  1.172193 -0.371779 0.695803  -0.074753 -0.766358 -0.527888
43  1.151197 0.000004 -0.000004  -0.169041 0.043724 0.104420
44  0.909060 0.000001 0.000000  -0.319714 0.108347 -0.014844
45  9.017762 0.000079 -0.000023  -0.000007 -0.000001 -0.100050
46  1.216093 0.000011 -0.000001  -0.157241 0.000000 0.000008
47  3.994337 0.000020 -0.000006  -0.000001 0.000001 -0.000005
48  1.892323 0.848534 -0.797174  1.431457 1.807463 -0.241520
49  4.660079 0.000021 0.000032  1.498788 -0.056960 -0.431354
50  9.010713 0.000057 0.000001  -0.000723 -0.008667 -0.041731
51  9.079781 0.000076 0.000018  -1.501985 0.039100 0.029842
52  2.230808 -1.427516 0.000005  -1.570792 -0.000005 -1.570769
53  3.080541 0.081705 -0.057914  -0.093260 0.021087 -0.119199
54  1.774382 -0.000056 -0.000021  0.084532 0.001885 -0.292357
55  0.911786 0.000004 0.000003  -0.007848 -0.008330 0.252469
56  3.090347 -0.067160 -0.659402  -0.299484 0.127597 -0.118574
57  1.423206 0.000013 0.000011  0.001271 -0.064998 -0.155375
58  0.821629 -0.000027 -0.000001  0.041270 -0.100693 0.112505
59  3.025166 0.184669 0.764044  -0.175261 0.052496 -0.179096
60  1.509720 -0.000029 -0.000017  -0.004432 -0.045734 -0.074537
61  0.818398 -0.000016 0.000004  -0.081632 0.016462 -0.018062
62  2.898111 0.049760 1.316754  -0.144883 -0.001360 -0.248828
63  1.037358 0.000000 0.000005  -0.275139 0.134556 0.055074
64  0.580746 -0.000022 0.000012  -0.005641 -0.131244 -0.068390
65  1.158321 -0.442907 -0.732246  1.804309 0.719472 -0.503166
66  1.161231 0.000006 0.000011  0.227043 0.055397 0.089631
67  0.916970 0.000004 -0.000012  0.020420 0.073844 -0.178596
68  9.079781 0.000076 0.000010  0.065190 -0.000001 0.000014
69  1.215143 0.000008 0.000004  0.000002 0.000000 0.000002
70  3.994340 0.000022 0.000027  -0.000001 -0.000005 0.000008
71  2.452636 4.138936 0.000845  -3.141592 -0.000000 1.165708
72  1.609285 -0.975741 0.000843  0.000001 3.141593 1.042227
73  3.725333 -0.000004 -0.000003  -1.570796 0.031092 -1.611082
74  15.193455 -0.000134 -0.000000  0.000001 -0.017306 0.051645
75  17.025633 0.052294 0.003149  0.008989 -0.076839 -1.230080
76  5.913434 0.000006 0.000005  -0.011146 0.000934 -0.500517
77  15.867345 -0.000002 0.000001  -0.000000 -0.000000 -0.000000
78  -0.044471 0.742046 3.222854  -1.570799 -0.134134 -0.031099
79  6.531513 0.000041 0.000047  0.000003 -0.000007 -0.124821
80  4.937208 -0.000002 -0.000000  -0.000000 -0.000003 -0.035450
81  -0.459117 -3.221062 1.004061  -3.139299 -0.203287 -0.042432
82  6.550061 -0.000058 -0.002532  0.000019 0.000375 0.047576
83  5.690497 -0.000010 -0.000058  0.000002 0.000023 0.100848
84  -3.725332 0.000007 0.000006  -1.571278 0.031097 -1.528219
85  15.193434 0.000043 0.000000  0.000000 0.017924 0.051650
86  17.025576 0.052402 -0.003061  -0.013288 0.048301 -1.233151
87  5.913438 0.000014 0.000006  -0.078651 -0.006185 -0.498940
88  15.867304 0.000113 -0.000002  -0.000001 0.000000 -0.000023
89  0.265637 0.733834 -2.956548  -1.570306 0.159703 -0.031020
90  6.547432 0.000025 -0.000004  -0.000001 0.000004 0.131585
91  4.972831 0.000030 0.000019  -0.000000 -0.000003 0.035691
92  -0.643183 -2.929194 -1.114204  -3.136176 0.209357 -0.086322
93  6.324715 0.000011 -0.000111  -0.000006 0.000035 0.001372
94  6.095510 0.000010 0.000099  -0.000002 -0.000033 0.100192
95  0.000850 0.159143 -5.185493  1.570797 0.025313 -1.570797
96  6.049822 0.000008 0.000001  0.000000 -0.000000 -0.093178
97  6.476078 0.000006 -0.000001  -0.000000 0.000000 -0.035049
98  -4.416689 0.011899 -4.249946  1.568943 -0.031838 -1.672843
99  5.955617 -0.000036 0.000344  0.000005 -0.000054 -0.099923
100  6.432491 0.000028 0.000028  0.000001 -0.000025 -0.008491
101  3.827445 -0.150500 -4.392723  1.582029 0.010750 -1.423310
102  5.646537 0.000049 0.003509  0.000016 -0.000615 -0.029018
103  6.151293 0.000011 0.000033  -0.000001 0.000048 0.001415
104  0.000000 0.000000 0.000000  0.000000 -0.000000 0.000000
end
