// Created by Crowbar 0.74
version 1
nodes
  0 "airliner_tail_secondary" -1
  1 "baked_TAIL_debris_secondary_1" 0
  2 "baked_TAIL_debris_secondary_2" 0
  3 "baked_TAIL_debris_secondary_3" 0
  4 "baked_TAIL_debris_secondary_4" 0
  5 "baked_TAIL_debris_secondary_5" 0
  6 "baked_TAIL_debris_secondary_6" 0
  7 "baked_TAIL_debris_secondary_7" 0
  8 "baked_TAIL_debris_secondary_8" 0
  9 "baked_TAIL_debris_secondary_9" 0
  10 "baked_TAIL_debris_secondary_10" 0
  11 "baked_TAIL_debris_secondary_11" 0
  12 "baked_TAIL_debris_secondary_12" 0
  13 "baked_TAIL_debris_secondary_13" 0
  14 "baked_TAIL_debris_secondary_14" 0
  15 "baked_TAIL_debris_secondary_15" 0
  16 "baked_TAIL_debris_secondary_16" 0
  17 "baked_TAIL_debris_secondary_17" 0
  18 "baked_TAIL_debris_secondary_18" 0
  19 "baked_TAIL_debris_secondary_19" 0
  20 "baked_TAIL_debris_secondary_20" 0
  21 "baked_TAIL_debris_secondary_21" 0
  22 "baked_TAIL_debris_secondary_22" 0
  23 "baked_TAIL_debris_secondary_23" 0
  24 "baked_TAIL_debris_secondary_24" 0
  25 "baked_TAIL_debris_secondary_25" 0
  26 "baked_TAIL_debris_secondary_26" 0
  27 "baked_TAIL_debris_secondary_27" 0
  28 "baked_TAIL_debris_secondary_28" 0
  29 "baked_TAIL_debris_secondary_29" 0
  30 "baked_TAIL_debris_secondary_30" 0
  31 "baked_TAIL_debris_secondary_31" 0
  32 "baked_TAIL_debris_secondary_32" 0
  33 "baked_TAIL_debris_secondary_33" 0
  34 "baked_TAIL_debris_secondary_34" 0
  35 "baked_TAIL_debris_secondary_35" 0
  36 "baked_TAIL_debris_secondary_36" 0
  37 "baked_TAIL_debris_secondary_37" 0
  38 "baked_TAIL_debris_secondary_38" 0
  39 "baked_TAIL_debris_secondary_39" 0
  40 "baked_TAIL_debris_secondary_40" 0
  41 "baked_TAIL_debris_secondary_41" 0
  42 "baked_TAIL_debris_secondary_42" 0
  43 "baked_TAIL_debris_secondary_43" 0
  44 "baked_TAIL_debris_secondary_44" 0
  45 "baked_TAIL_debris_secondary_45" 0
  46 "baked_TAIL_debris_secondary_46" 0
  47 "baked_TAIL_debris_secondary_47" 0
  48 "baked_TAIL_debris_secondary_48" 0
  49 "baked_TAIL_debris_secondary_49" 0
  50 "baked_TAIL_debris_secondary_50" 0
  51 "baked_TAIL_debris_secondary_51" 0
  52 "baked_TAIL_debris_secondary_52" 0
  53 "baked_LTW_debris_secondary_1" 0
  54 "baked_LTW_debris_secondary_2" 0
  55 "baked_LTW_debris_secondary_3" 0
  56 "baked_LTW_debris_secondary_4" 0
  57 "baked_LTW_debris_secondary_5" 0
  58 "baked_LTW_debris_secondary_6" 0
  59 "baked_LTW_debris_secondary_7" 0
  60 "baked_LTW_debris_secondary_8" 0
  61 "baked_LTW_debris_secondary_9" 0
  62 "baked_LTW_debris_secondary_10" 0
  63 "baked_LTW_debris_secondary_11" 0
  64 "baked_LTW_debris_secondary_12" 0
  65 "baked_LTW_debris_secondary_13" 0
  66 "baked_LTW_debris_secondary_14" 0
  67 "baked_LTW_debris_secondary_15" 0
  68 "baked_LTW_debris_secondary_16" 0
  69 "baked_LTW_debris_secondary_17" 0
  70 "baked_LTW_debris_secondary_18" 0
  71 "baked_LTW_debris_secondary_19" 0
  72 "baked_LTW_debris_secondary_20" 0
  73 "baked_RTW_debris_secondary_1" 0
  74 "baked_RTW_debris_secondary_2" 0
  75 "baked_RTW_debris_secondary_3" 0
  76 "baked_RTW_debris_secondary_4" 0
  77 "baked_RTW_debris_secondary_5" 0
  78 "baked_RTW_debris_secondary_6" 0
  79 "baked_RTW_debris_secondary_7" 0
  80 "baked_RTW_debris_secondary_8" 0
  81 "baked_RTW_debris_secondary_9" 0
  82 "baked_RTW_debris_secondary_10" 0
  83 "baked_RTW_debris_secondary_11" 0
  84 "baked_RTW_debris_secondary_12" 0
  85 "baked_RTW_debris_secondary_13" 0
  86 "baked_RTW_debris_secondary_14" 0
  87 "baked_RTW_debris_secondary_15" 0
  88 "baked_RTW_debris_secondary_16" 0
  89 "baked_RTW_debris_secondary_17" 0
  90 "baked_RTW_debris_secondary_18" 0
end
skeleton
  time 0
    0 2288.000000 2356.000000 1451.000000 1.570674 0.000183 -0.000183
    1 -31.938477 -127.500977 232.289551 0.000000 0.000000 0.000000
    2 -39.302734 -125.066895 246.949707 0.000000 0.000000 0.000000
    3 -27.210938 -135.157471 208.551514 0.000000 0.000000 0.000000
    4 -26.762695 -139.521484 167.317139 0.000000 0.000000 0.000000
    5 -30.897949 -86.656372 133.332031 0.000000 0.000000 0.000000
    6 -34.795898 -142.932129 62.021973 0.000000 0.000000 0.000000
    7 -35.729004 82.382324 -48.621582 0.000000 0.000000 0.000000
    8 -40.165039 87.087891 -114.453613 0.000000 0.000000 0.000000
    9 -29.819336 -105.672607 136.916016 0.000000 0.000000 0.000000
    10 -27.323242 -143.139771 144.844727 0.000000 0.000000 0.000000
    11 -39.559570 -146.226318 18.819336 0.000000 0.000000 0.000000
    12 -43.516602 87.302002 -140.378906 0.000000 0.000000 0.000000
    13 -48.264160 -50.250488 142.753418 0.000000 0.000000 0.000000
    14 -47.798340 99.255859 -17.822998 0.000000 0.000000 0.000000
    15 -69.663574 -140.858765 178.915527 0.000000 0.000000 0.000000
    16 -49.000000 -122.565552 263.053955 0.000000 0.000000 0.000000
    17 -48.499023 -137.280396 -47.392090 0.000000 0.000000 0.000000
    18 -48.131348 94.471924 -177.877441 0.000000 0.000000 0.000000
    19 -56.611328 91.853271 -112.373047 0.000000 0.000000 0.000000
    20 -60.280762 96.627808 -64.617188 0.000000 0.000000 0.000000
    21 -62.409180 -122.928711 218.468262 0.000000 0.000000 0.000000
    22 -67.283691 -130.729492 122.510742 0.000000 0.000000 0.000000
    23 -54.896484 -151.988525 6.990479 0.000000 0.000000 0.000000
    24 -60.067383 -141.333008 48.211426 0.000000 0.000000 0.000000
    25 -38.376953 -123.618286 239.532715 0.000000 0.000000 0.000000
    26 -36.231445 95.955444 -32.319824 0.000000 0.000000 0.000000
    27 -51.582031 113.218140 -163.687988 0.000000 0.000000 0.000000
    28 -64.790039 -73.656006 120.661865 0.000000 0.000000 0.000000
    29 -67.982422 -122.321777 135.693848 0.000000 0.000000 0.000000
    30 -59.824219 106.208618 -50.556152 0.000000 0.000000 0.000000
    31 -27.348633 -133.440674 225.373535 0.000000 0.000000 0.000000
    32 -42.733887 -124.579834 254.375000 0.000000 0.000000 0.000000
    33 -38.016602 -60.307739 134.571289 0.000000 0.000000 0.000000
    34 -27.885742 -128.461914 141.576660 0.000000 0.000000 0.000000
    35 -27.324707 -135.071533 191.833008 0.000000 0.000000 0.000000
    36 -31.337891 -140.610352 99.870117 0.000000 0.000000 0.000000
    37 -44.003906 -146.595215 -16.873047 0.000000 0.000000 0.000000
    38 -37.612305 86.633057 -86.615234 0.000000 0.000000 0.000000
    39 -46.151367 66.585815 -155.702881 0.000000 0.000000 0.000000
    40 -35.239746 62.535034 -18.737549 0.000000 0.000000 0.000000
    41 -59.467285 88.838379 -79.085938 0.000000 0.000000 0.000000
    42 -55.134766 -122.746338 246.945068 0.000000 0.000000 0.000000
    43 -67.748047 -125.663330 195.030762 0.000000 0.000000 0.000000
    44 -62.376953 -148.004639 76.420410 0.000000 0.000000 0.000000
    45 -51.316406 -147.465576 -24.549561 0.000000 0.000000 0.000000
    46 -57.891602 -149.942993 33.963135 0.000000 0.000000 0.000000
    47 -56.225586 -65.350098 144.039063 0.000000 0.000000 0.000000
    48 -51.139648 73.288818 -149.780273 0.000000 0.000000 0.000000
    49 -57.973633 98.000488 -26.454834 0.000000 0.000000 0.000000
    50 -68.254395 -127.904297 153.859863 0.000000 0.000000 0.000000
    51 -65.889648 -93.749512 120.183838 0.000000 0.000000 0.000000
    52 -64.837891 -141.904663 96.741211 0.000000 0.000000 0.000000
    53 116.917969 161.015747 -176.787109 0.000000 0.000000 0.000000
    54 120.080078 149.200317 -149.258789 0.000000 0.000000 0.000000
    55 74.761719 150.272949 -258.790039 0.000000 -0.000001 0.000000
    56 107.016602 147.861084 -217.720703 0.000000 0.000000 0.000000
    57 95.809082 158.651489 -215.004883 0.000000 0.000000 0.000000
    58 120.785156 146.272705 -191.251953 0.000000 0.000000 0.000000
    59 93.790039 149.280884 -236.950195 0.000000 0.000000 0.000000
    60 127.739746 157.584961 -166.500732 0.000000 0.000000 0.000000
    61 100.727051 159.713989 -206.546387 0.000000 0.000000 0.000000
    62 84.625488 156.609497 -229.861084 0.000000 0.000000 0.000000
    63 83.133789 151.348877 -264.295410 0.000000 -0.000001 0.000000
    64 53.307617 156.436646 -224.248779 0.000000 0.000000 0.000000
    65 116.863281 155.612305 -152.264648 0.000000 0.000000 0.000000
    66 144.156250 146.230103 -198.966064 0.000000 0.000000 0.000000
    67 116.119141 159.713989 -202.552490 0.000000 0.000000 0.000000
    68 61.976074 159.807129 -199.241211 0.000000 0.000000 0.000000
    69 78.738770 154.265991 -244.419678 0.000000 0.000000 0.000000
    70 99.551758 149.809570 -253.011963 0.000000 0.000000 0.000000
    71 79.029297 148.805176 -229.698486 0.000000 0.000000 0.000000
    72 117.343262 145.122559 -170.959961 0.000000 0.000000 0.000000
    73 -118.742188 163.173828 -108.701416 0.000000 0.000000 0.000000
    74 -122.236328 164.025635 -143.691406 0.000000 0.000000 0.000000
    75 -113.964355 160.569580 -186.106445 0.000000 0.000000 0.000000
    76 -103.694336 152.876221 -235.026855 0.000000 -0.000002 0.000000
    77 -110.305176 145.640869 -157.299316 0.000000 0.000000 0.000000
    78 -117.458496 151.299683 -92.661865 0.000000 0.000000 0.000000
    79 -124.604004 143.512817 -123.780273 0.000000 0.000000 0.000000
    80 -94.001465 150.308594 -242.143555 0.000000 -0.000003 0.000000
    81 -120.980957 144.935181 -107.288574 0.000000 0.000000 0.000000
    82 -115.646484 144.310303 -139.154785 0.000000 0.000000 0.000000
    83 -126.872070 147.055664 -179.130371 0.000000 0.000000 0.000000
    84 -115.610840 163.261353 -159.781738 0.000000 0.000000 0.000000
    85 -103.702148 157.611084 -207.480957 0.000000 0.000000 0.000000
    86 -109.041992 148.891357 -213.029785 0.000000 0.000000 0.000000
    87 -116.889648 164.080688 -123.596924 0.000000 0.000000 0.000000
    88 -128.596680 158.841064 -105.039551 0.000000 0.000000 0.000000
    89 -103.067383 149.692749 -228.932129 0.000000 -0.000001 0.000000
    90 -105.287109 148.439697 -201.968018 0.000000 0.000000 0.000000
end
