// Created by Crowbar 0.74
version 1
nodes
  0 "ROOT" -1
  1 "PJ_1" 0
  2 "PJ_2" 0
  3 "PJ_3" 0
  4 "PJ_4" 0
  5 "PJ_5" 0
  6 "PJ_6" 0
  7 "PJ_7" 0
  8 "PJ_8" 0
  9 "PJ_9" 0
  10 "PJ_10" 0
  11 "PJ_11" 0
  12 "PJ_12" 0
  13 "PJ_13" 0
  14 "PJ_14" 0
  15 "PJ_15" 0
  16 "PJ_16" 0
  17 "PJ_17" 0
  18 "PJ_18" 0
  19 "PJ_19" 0
  20 "PJ_20" 0
  21 "PJ_21" 0
  22 "PJ_22" 0
  23 "PJ_23" 0
  24 "PJ_24" 0
  25 "PJ_25" 0
  26 "PJ_26" 0
  27 "PJ_27" 0
  28 "PJ_28" 0
  29 "PJ_29" 0
  30 "PJ_30" 0
  31 "PJ_31" 0
  32 "PJ_32" 0
  33 "PJ_33" 0
  34 "PJ_34" 0
  35 "PJ_35" 0
  36 "PJ_36" 0
  37 "PJ_37" 0
  38 "PJ_38" 0
  39 "PJ_39" 0
  40 "PJ_40" 0
  41 "PJ_41" 0
  42 "PJ_42" 0
  43 "PJ_43" 0
  44 "PJ_44" 0
  45 "PJ_45" 0
  46 "PJ_46" 0
  47 "PJ_47" 0
  48 "PJ_48" 0
  49 "PJ_49" 0
  50 "PJ_50" 0
  51 "PJ_51" 0
  52 "PJ_52" 0
  53 "PJ_53" 0
  54 "PJ_54" 0
  55 "PJ_55" 0
  56 "PJ_56" 0
  57 "PJ_57" 0
  58 "PJ_58" 0
  59 "PJ_59" 0
  60 "PJ_60" 0
  61 "PJ_61" 0
  62 "PJ_62" 0
  63 "PJ_63" 0
  64 "PJ_64" 0
  65 "PJ_65" 0
  66 "PJ_66" 0
  67 "PJ_67" 0
  68 "PJ_68" 0
  69 "PJ_69" 0
  70 "PJ_70" 0
  71 "PJ_71" 0
  72 "PJ_72" 0
  73 "PJ_73" 0
  74 "PJ_74" 0
  75 "PJ_75" 0
  76 "PJ_76" 0
  77 "PJ_77" 0
  78 "PJ_78" 0
  79 "PJ_79" 0
  80 "PJ_80" 0
  81 "PJ_81" 0
  82 "PJ_82" 0
  83 "PJ_83" 0
  84 "PJ_84" 0
  85 "PJ_85" 0
  86 "PJ_86" 0
  87 "PJ_87" 0
  88 "PJ_88" 0
  89 "PJ_89" 0
  90 "PJ_90" 0
  91 "PJ_91" 0
  92 "PJ_92" 0
  93 "PJ_93" 0
  94 "PJ_94" 0
  95 "PJ_95" 0
  96 "PJ_96" 0
  97 "PJ_97" 0
  98 "PJ_98" 0
  99 "PJ_99" 0
  100 "PJ_100" 0
  101 "PJ_101" 0
  102 "PJ_102" 0
  103 "PJ_103" 0
  104 "PJ_104" 0
  105 "PJ_105" 0
  106 "PJ_106" 0
  107 "PJ_107" 0
  108 "PJ_108" 0
  109 "PJ_109" 0
  110 "PJ_110" 0
  111 "PJ_111" 0
  112 "PJ_112" 0
  113 "PJ_113" 0
  114 "PJ_114" 0
  115 "PJ_115" 0
  116 "PJ_116" 0
  117 "PJ_117" 0
  118 "PJ_118" 0
  119 "PJ_119" 0
  120 "PJ_120" 0
  121 "PJ_121" 0
  122 "PJ_122" 0
  123 "PJ_123" 0
  124 "PJ_124" 0
  125 "PJ_125" 0
  126 "PJ_126" 0
end
skeleton
  time 0
    0 0.000000 0.000000 0.000000 0.000000 0.000000 0.000000
    1 502.511841 -120.594696 11272.708008 0.000000 0.000000 0.000000
    2 432.553589 -134.381424 11305.440430 0.000000 0.000000 0.000000
    3 653.337036 -96.067062 11142.831055 0.000000 0.000000 0.000000
    4 362.089569 -145.001740 11284.695313 0.000000 0.000000 0.000000
    5 194.883713 -161.918320 11278.204102 0.000000 0.000000 0.000000
    6 456.456696 -135.930557 11165.194336 0.000000 0.000000 0.000000
    7 461.735992 -156.329926 11127.858398 0.000000 0.000000 0.000000
    8 362.785767 -153.222916 11058.958984 0.000000 0.000000 0.000000
    9 503.025574 -167.698898 11084.936523 0.000000 0.000000 0.000000
    10 673.742554 -137.617691 10944.635742 0.000000 0.000000 0.000000
    11 520.856445 -156.998230 10918.646484 0.000000 0.000000 0.000000
    12 546.040649 -160.553375 10884.711914 0.000000 0.000000 0.000000
    13 859.798889 -148.691818 10741.291992 0.000000 0.000000 0.000000
    14 678.374451 -154.655731 10819.849609 0.000000 0.000000 0.000000
    15 493.864807 -176.540146 10967.952148 0.000000 0.000000 0.000000
    16 605.221680 -168.636719 10891.791992 0.000000 0.000000 0.000000
    17 714.037964 -176.852097 10809.887695 0.000000 0.000000 0.000000
    18 420.174957 -186.384827 10795.911133 0.000000 0.000000 0.000000
    19 730.030273 -168.450211 10802.261719 0.000000 0.000000 0.000000
    20 653.727966 -154.852844 10767.242188 0.000000 0.000000 0.000000
    21 601.983215 -179.332306 10652.180664 0.000000 0.000000 0.000000
    22 614.112305 -159.119156 10631.587891 0.000000 0.000000 0.000000
    23 816.056519 -156.808624 10513.745117 0.000000 0.000000 0.000000
    24 658.671204 -148.721802 10559.430664 0.000000 0.000000 0.000000
    25 1041.574951 -107.318222 10372.744141 0.000000 0.000000 0.000000
    26 829.542664 -143.640732 10497.486328 0.000000 0.000000 0.000000
    27 736.018677 -153.931274 10463.452148 0.000000 0.000000 0.000000
    28 803.723389 -127.023186 10457.100586 0.000000 0.000000 0.000000
    29 782.044800 -151.674423 10367.658203 0.000000 0.000000 0.000000
    30 1050.720459 -117.322762 10290.116211 0.000000 0.000000 0.000000
    31 647.474304 -148.003067 10403.278320 0.000000 0.000000 0.000000
    32 953.587463 -101.003334 10314.827148 0.000000 0.000000 0.000000
    33 851.712830 -123.816071 10352.843750 0.000000 0.000000 0.000000
    34 942.930054 -111.752350 10323.643555 0.000000 0.000000 0.000000
    35 1103.402466 -95.198166 10132.782227 0.000000 0.000000 0.000000
    36 1286.203857 -102.695007 10108.619141 0.000000 0.000000 0.000000
    37 795.438965 -126.232674 10194.008789 0.000000 0.000000 0.000000
    38 833.656006 -107.138397 10243.872070 0.000000 0.000000 0.000000
    39 894.802246 -106.757248 10154.343750 0.000000 0.000000 0.000000
    40 1150.570923 -82.551903 10110.565430 0.000000 0.000000 0.000000
    41 1220.118042 -105.748528 10010.935547 0.000000 0.000000 0.000000
    42 906.595093 -84.226891 10001.809570 0.000000 0.000000 0.000000
    43 1226.400391 -97.309410 10001.824219 0.000000 0.000000 0.000000
    44 1122.929565 -83.681580 9915.600586 0.000000 0.000000 0.000000
    45 1091.205933 -96.345093 9945.060547 0.000000 0.000000 0.000000
    46 991.055542 -79.374313 9936.775391 0.000000 0.000000 0.000000
    47 1468.503052 -105.851631 9681.218750 0.000000 0.000000 0.000000
    48 1033.228638 -90.511993 9876.404297 0.000000 0.000000 0.000000
    49 1216.785889 -98.348618 9811.115234 0.000000 0.000000 0.000000
    50 1178.997681 -74.701515 9719.514648 0.000000 0.000000 0.000000
    51 1287.187134 -97.786751 9745.081055 0.000000 0.000000 0.000000
    52 1335.874268 -96.281624 9784.641602 0.000000 0.000000 0.000000
    53 1143.555176 -70.558922 9649.185547 0.000000 0.000000 0.000000
    54 1154.531616 -65.501793 9641.868164 0.000000 0.000000 0.000000
    55 1207.456543 -86.898994 9569.833984 0.000000 0.000000 0.000000
    56 1282.577515 -71.236206 9582.896484 0.000000 0.000000 0.000000
    57 1329.484985 -80.093285 9623.291016 0.000000 0.000000 0.000000
    58 1296.020386 -90.088425 9467.340820 0.000000 0.000000 0.000000
    59 1674.440430 -136.598511 9357.094727 0.000000 0.000000 0.000000
    60 1360.100220 -92.806740 9490.116211 0.000000 0.000000 0.000000
    61 1339.130005 -79.432739 9366.440430 0.000000 0.000000 0.000000
    62 1326.693848 -71.690865 9488.282227 0.000000 0.000000 0.000000
    63 1379.427368 -86.271179 9423.000000 0.000000 0.000000 0.000000
    64 1336.955566 -62.964108 9302.379883 0.000000 0.000000 0.000000
    65 1273.131958 -72.203476 9314.769531 0.000000 0.000000 0.000000
    66 1382.439453 -66.566116 9265.480469 0.000000 0.000000 0.000000
    67 1529.383423 -105.427910 9294.914063 0.000000 0.000000 0.000000
    68 1627.845215 -120.724518 9291.140625 0.000000 0.000000 0.000000
    69 1846.233032 -124.640869 9107.441406 0.000000 0.000000 0.000000
    70 1696.395020 -132.936905 9196.406250 0.000000 0.000000 0.000000
    71 1555.219971 -106.764244 9283.264648 0.000000 0.000000 0.000000
    72 1588.298340 -96.531792 9066.346680 0.000000 0.000000 0.000000
    73 1698.030029 -112.542740 9027.143555 0.000000 0.000000 0.000000
    74 1817.218262 -144.112869 9047.165039 0.000000 0.000000 0.000000
    75 1524.155518 -101.813736 9036.076172 0.000000 0.000000 0.000000
    76 1707.208496 -134.839767 9090.066406 0.000000 0.000000 0.000000
    77 1747.178101 -116.650215 8920.710938 0.000000 0.000000 0.000000
    78 1761.127441 -141.338867 8872.034180 0.000000 0.000000 0.000000
    79 1762.034302 -144.025101 8890.934570 0.000000 0.000000 0.000000
    80 1978.854980 -139.869217 8807.924805 0.000000 0.000000 0.000000
    81 1819.480957 -156.935135 8860.120117 0.000000 0.000000 0.000000
    82 1776.577881 -151.914368 8916.658203 0.000000 0.000000 0.000000
    83 1751.107788 -142.533813 8804.908203 0.000000 0.000000 0.000000
    84 1710.985962 -148.902191 8924.591797 0.000000 0.000000 0.000000
    85 1739.090210 -140.256531 8723.449219 0.000000 0.000000 0.000000
    86 2016.170898 -189.192398 8624.401367 0.000000 0.000000 0.000000
    87 1746.620239 -160.836304 8700.269531 0.000000 0.000000 0.000000
    88 1791.093262 -138.359482 8662.970703 0.000000 0.000000 0.000000
    89 1998.252441 -158.864349 8613.057617 0.000000 0.000000 0.000000
    90 2023.691406 -182.730316 8549.562500 0.000000 0.000000 0.000000
    91 2207.250977 -127.128433 8522.698242 0.000000 0.000000 0.000000
    92 2067.168945 -191.298172 8651.152344 0.000000 0.000000 0.000000
    93 2000.227783 -204.714600 8654.525391 0.000000 0.000000 0.000000
    94 1776.653931 -186.811081 8592.879883 0.000000 0.000000 0.000000
    95 1885.927002 -196.393738 8442.165039 0.000000 0.000000 0.000000
    96 1940.353638 -197.221085 8473.222656 0.000000 0.000000 0.000000
    97 2109.505859 -181.335526 8550.190430 0.000000 0.000000 0.000000
    98 2003.691040 -194.008179 8366.826172 0.000000 0.000000 0.000000
    99 2171.840820 -185.070236 8477.387695 0.000000 0.000000 0.000000
    100 1858.453735 -191.613785 8441.097656 0.000000 0.000000 0.000000
    101 1927.180420 -171.664780 8350.813477 0.000000 0.000000 0.000000
    102 2415.129395 -184.450470 8208.979492 0.000000 0.000000 0.000000
    103 2199.349365 -189.590775 8216.095703 0.000000 0.000000 0.000000
    104 2151.149658 -189.603653 8234.344727 0.000000 0.000000 0.000000
    105 1960.022339 -171.679245 8302.246094 0.000000 0.000000 0.000000
    106 1971.804688 -173.380722 8198.785156 0.000000 0.000000 0.000000
    107 2249.036865 -160.002625 8277.400391 0.000000 0.000000 0.000000
    108 2106.945801 -168.373764 8144.596680 0.000000 0.000000 0.000000
    109 2187.206299 -193.516022 8064.284668 0.000000 0.000000 0.000000
    110 2303.579102 -172.487732 8131.133301 0.000000 0.000000 0.000000
    111 2020.686890 -187.628067 8120.025879 0.000000 0.000000 0.000000
    112 2575.593506 -146.545471 7956.085449 0.000000 0.000000 0.000000
    113 2136.804199 -193.515640 7989.738770 0.000000 0.000000 0.000000
    114 2077.680420 -200.471481 7970.006348 0.000000 0.000000 0.000000
    115 2411.147949 -181.376663 7947.577637 0.000000 0.000000 0.000000
    116 2395.705322 -165.837143 7859.523926 0.000000 0.000000 0.000000
    117 2456.772705 -172.542984 7909.043945 0.000000 0.000000 0.000000
    118 2377.972412 -184.414368 7762.171875 0.000000 0.000000 0.000000
    119 2609.191895 -150.792908 7736.437988 0.000000 0.000000 0.000000
    120 2800.418701 -175.025406 7651.632324 0.000000 0.000000 0.000000
    121 2622.511719 -173.156540 7477.404297 0.000000 0.000000 0.000000
    122 2940.356201 -101.476395 7270.881348 0.000000 0.000000 0.000000
    123 1692.271118 -91.866966 10517.202148 0.000000 0.000000 0.000000
    124 1807.791382 -110.201927 10597.006836 0.000000 0.000000 0.000000
    125 1782.847534 -138.362411 10612.444336 0.000000 0.000000 0.000000
    126 1713.864868 -88.041100 10276.376953 0.000000 0.000000 0.000000
end
triangles
crashliner_cmap
  0 -8.212447 -62.393280 0.000000 0.000000 0.000000 1.000000 0.437500 1.000000 1 0 1.000000
  0 -25.323927 -87.327148 0.000000 0.000000 0.000000 1.000000 0.000000 0.000000 1 0 1.000000
  0 13.788027 -87.327148 0.000000 0.000000 0.000000 1.000000 0.999900 0.000000 1 0 1.000000
end
