// Created by Crowbar 0.74
version 1
nodes
  0 "ValveBiped.Bip01_Pelvis" -1
  1 "ValveBiped.Bip01_Spine" 0
  2 "ValveBiped.Bip01_Spine1" 1
  3 "ValveBiped.Bip01_Spine2" 2
  4 "ValveBiped.Bip01_Spine4" 3
  5 "ValveBiped.Bip01_Neck1" 4
  6 "ValveBiped.Bip01_Head1" 5
  7 "ValveBiped.Bip01_L_Clavicle" 4
  8 "ValveBiped.Bip01_L_UpperArm" 7
  9 "ValveBiped.Bip01_L_Forearm" 8
  10 "ValveBiped.Bip01_L_Hand" 9
  11 "ValveBiped.Bip01_R_Clavicle" 4
  12 "ValveBiped.Bip01_R_UpperArm" 11
  13 "ValveBiped.Bip01_R_Forearm" 12
  14 "ValveBiped.Bip01_R_Hand" 13
  15 "ValveBiped.Bip01_L_Thigh" 0
  16 "ValveBiped.Bip01_L_Calf" 15
  17 "ValveBiped.Bip01_L_Foot" 16
  18 "ValveBiped.Bip01_R_Thigh" 0
  19 "ValveBiped.Bip01_R_Calf" 18
  20 "ValveBiped.Bip01_R_Foot" 19
  21 "y_hair_fr_01" 6
  22 "y_hair_fl_01" 6
  23 "y_ear_r_01" 6
  24 "y_ear_l_01" 6
  25 "y_hair_f_01" 6
  26 "y_hair_br_01" 6
  27 "y_hair_br_02" 26
  28 "y_hair_br_03" 27
  29 "y_hair_br_04" 28
  30 "y_hair_bl_01" 6
  31 "y_hair_bl_02" 30
  32 "y_hair_bl_03" 31
  33 "y_hair_bl_04" 32
  34 "ValveBiped.Bip01_L_Finger3" 10
  35 "ValveBiped.Bip01_L_Finger31" 34
  36 "ValveBiped.Bip01_L_Finger32" 35
  37 "ValveBiped.Bip01_L_Finger2" 10
  38 "ValveBiped.Bip01_L_Finger21" 37
  39 "ValveBiped.Bip01_L_Finger22" 38
  40 "ValveBiped.Bip01_L_Finger1" 10
  41 "ValveBiped.Bip01_L_Finger11" 40
  42 "ValveBiped.Bip01_L_Finger12" 41
  43 "ValveBiped.Bip01_L_Finger4" 10
  44 "ValveBiped.Bip01_L_Finger41" 43
  45 "ValveBiped.Bip01_L_Finger42" 44
  46 "ValveBiped.Bip01_L_Finger0" 10
  47 "ValveBiped.Bip01_L_Finger01" 46
  48 "ValveBiped.Bip01_L_Finger02" 47
  49 "ValveBiped.Bip01_L_Wrist" 9
  50 "ValveBiped.Bip01_L_Shoulder" 8
  51 "ValveBiped.Bip01_L_Elbow" 8
  52 "ValveBiped.Bip01_L_Trapezius" 7
  53 "ValveBiped.Bip01_R_Finger2" 14
  54 "ValveBiped.Bip01_R_Finger21" 53
  55 "ValveBiped.Bip01_R_Finger22" 54
  56 "ValveBiped.Bip01_R_Finger1" 14
  57 "ValveBiped.Bip01_R_Finger11" 56
  58 "ValveBiped.Bip01_R_Finger12" 57
  59 "ValveBiped.Bip01_R_Finger3" 14
  60 "ValveBiped.Bip01_R_Finger31" 59
  61 "ValveBiped.Bip01_R_Finger32" 60
  62 "ValveBiped.Bip01_R_Finger4" 14
  63 "ValveBiped.Bip01_R_Finger41" 62
  64 "ValveBiped.Bip01_R_Finger42" 63
  65 "ValveBiped.Bip01_R_Finger0" 14
  66 "ValveBiped.Bip01_R_Finger01" 65
  67 "ValveBiped.Bip01_R_Finger02" 66
  68 "ValveBiped.Bip01_R_Wrist" 13
  69 "ValveBiped.Bip01_R_Shoulder" 12
  70 "ValveBiped.Bip01_R_Elbow" 12
  71 "ValveBiped.Bip01_R_Trapezius" 11
  72 "z_skirt_sw_helper" 0
  73 "z_skirt_sw_01" 72
  74 "z_skirt_sw_02" 73
  75 "z_skirt_sw_03" 74
  76 "z_skirt_sw_12" 72
  77 "z_skirt_sw_13" 76
  78 "z_skirt_sw_14" 77
  79 "z_skirt_se_helper" 0
  80 "z_skirt_se_01" 79
  81 "z_skirt_se_02" 80
  82 "z_skirt_se_03" 81
  83 "z_skirt_se_12" 79
  84 "z_skirt_se_13" 83
  85 "z_skirt_se_14" 84
  86 "z_skirt_nw_helper" 0
  87 "z_skirt_nw_01" 86
  88 "z_skirt_nw_02" 87
  89 "z_skirt_nw_03" 88
  90 "z_skirt_nw_12" 86
  91 "z_skirt_nw_13" 90
  92 "z_skirt_nw_14" 91
  93 "z_skirt_ne_helper" 0
  94 "z_skirt_ne_01" 93
  95 "z_skirt_ne_02" 94
  96 "z_skirt_ne_03" 95
  97 "z_skirt_ne_12" 93
  98 "z_skirt_ne_13" 97
  99 "z_skirt_ne_14" 98
  100 "z_skirt_w_helper" 0
  101 "z_skirt_w_01" 100
  102 "z_skirt_w_02" 101
  103 "z_skirt_w_03" 102
  104 "z_skirt_e_helper" 0
  105 "z_skirt_e_01" 104
  106 "z_skirt_e_02" 105
  107 "z_skirt_e_03" 106
  108 "z_tail_r_01" 0
  109 "z_tail_r_02" 108
  110 "z_tail_r_03" 109
  111 "z_tail_r_04" 110
  112 "z_tail_l_01" 0
  113 "z_tail_l_02" 112
  114 "z_tail_l_03" 113
  115 "z_tail_l_04" 114
  116 "ValveBiped.Bip01_L_Toe0" 17
  117 "ValveBiped.Bip01_R_Toe0" 20
end
skeleton
  time 0
    0 -0.010216 -0.722168 37.531250 1.570784 0.000010 -0.000010
    1 0.000004 1.761753 -1.555851 1.570796 -0.010522 1.570812
    2 3.533043 0.000007 0.000054 0.000002 -0.000018 -0.112607
    3 3.330963 -0.000014 -0.000010 0.000000 0.000003 -0.012644
    4 7.537796 0.068706 -0.000002 0.000000 0.000002 0.155812
    5 2.326900 0.024652 0.000004 3.141590 -0.000004 0.227056
    6 3.177223 0.000011 0.000007 0.000000 0.000004 0.110999
    7 1.863258 0.835509 1.880380 1.638349 -1.334135 2.900133
    8 2.942321 0.045448 0.083363 -1.436979 0.087735 -0.466779
    9 8.615929 0.000000 0.000008 0.002964 -0.045846 -0.039702
    10 7.707872 0.000059 -0.000011 1.505406 -0.038597 0.036303
    11 1.863243 0.835515 -1.906407 -1.710133 1.334135 2.900094
    12 2.819201 0.005547 -0.083089 1.498011 -0.052434 -0.414743
    13 8.579309 -0.007269 0.391819 -0.000704 -0.008665 -0.041731
    14 7.634524 0.000071 0.000011 -1.502003 0.039028 0.029843
    15 3.668082 -0.000004 -0.000003 -1.570796 -0.058583 -1.611085
    16 15.561377 -0.008395 0.010998 -0.000975 -0.048613 0.101003
    17 19.007450 -0.101996 0.046082 0.029982 -0.030327 -1.230008
    18 -3.668080 0.000008 0.000006 -1.571276 -0.058774 -1.528219
    19 15.524685 -0.008571 -0.011739 0.001016 0.044208 0.101101
    20 18.963591 -0.102895 -0.049608 -0.016314 0.041538 -1.233103
    21 5.289349 -3.661155 3.685810 3.130912 1.557868 0.044861
    22 5.207664 -3.145226 -2.901474 3.130912 1.557868 0.044861
    23 9.371277 1.136434 3.848694 1.201817 0.970091 -1.017867
    24 9.371346 1.136446 -3.868011 1.886704 -0.858495 -0.998352
    25 5.497177 -4.972577 0.176952 3.130912 1.557868 0.044861
    26 5.453007 0.985941 4.067791 1.365589 -1.041456 -1.442627
    27 -0.002943 0.216333 7.990704 0.008138 -0.014412 0.000861
    28 -0.685873 -0.000006 6.069992 0.000001 0.000000 0.000000
    29 -0.433297 -0.300091 6.052818 0.000000 0.000000 0.000000
    30 5.506149 1.026246 -4.087021 1.774577 1.068153 -1.458457
    31 0.000002 0.000000 8.001541 0.000001 0.000000 0.000000
    32 -0.702790 -0.000006 6.069988 0.000001 0.000000 0.000000
    33 -0.253699 0.306545 6.066830 0.000000 0.000000 0.000000
    34 3.015914 0.164658 -0.438460 0.068895 -0.044917 -0.258021
    35 1.187225 -0.050320 -0.073548 0.042615 0.057692 0.125586
    36 0.692485 -0.000011 -0.000005 0.156422 -0.040108 -0.202636
    37 3.066758 0.081707 0.138879 0.142335 -0.052334 -0.171462
    38 1.391513 -0.049274 -0.069796 -0.036119 0.039214 0.053667
    39 0.769670 0.000015 -0.000005 -0.001248 -0.005676 -0.098996
    40 3.077893 -0.040810 0.660534 0.302879 -0.149214 -0.102527
    41 1.087004 -0.052319 -0.054646 -0.020784 0.084747 -0.150765
    42 0.840656 0.022694 -0.030910 0.022996 0.020221 0.074277
    43 2.812361 -0.118828 -1.128734 0.215367 -0.094112 -0.105754
    44 0.850278 -0.043564 -0.019354 -0.409256 0.077782 -0.086168
    45 0.490496 0.000000 -0.000006 0.194187 -0.012833 -0.056701
    46 1.023177 -0.324509 0.607333 -0.122720 -0.443776 -0.412700
    47 1.004847 0.000008 -0.000017 -0.169025 0.043735 0.104422
    48 0.793467 0.000008 0.000000 -0.319728 0.108344 -0.014836
    49 7.707870 0.000061 -0.000015 -0.057558 -0.000001 0.000007
    50 1.029993 0.001333 0.056297 -0.157228 -0.054606 0.001289
    51 8.615938 -0.000001 0.000004 0.005469 -0.054331 -0.098913
    52 2.286816 0.045483 0.083364 -0.000001 -0.000002 0.000002
    53 3.018550 0.037022 -0.068410 -0.093571 0.056361 -0.120094
    54 1.265308 0.012604 -0.045645 0.084561 0.001868 -0.292336
    55 0.939938 0.039646 0.056123 -0.007848 -0.008324 0.252469
    56 3.027467 -0.097397 -0.604041 -0.299683 0.165178 -0.119528
    57 1.270782 -0.016781 0.061933 0.001275 -0.065005 -0.155369
    58 0.741529 -0.000019 -0.000010 0.041279 -0.100705 0.112505
    59 2.968135 0.130024 0.663551 -0.175290 0.080300 -0.179112
    60 1.149612 -0.001553 -0.000512 -0.004427 -0.045748 -0.074528
    61 0.738747 0.000008 0.000002 -0.081651 0.016452 -0.018054
    62 2.852451 0.008175 1.155743 -0.143770 0.012348 -0.249749
    63 0.722635 -0.020130 0.021523 -0.275152 0.134573 0.055072
    64 0.592884 0.006638 -0.016769 -0.005666 -0.131234 -0.068402
    65 1.054646 -0.399986 -0.652076 1.825122 0.344790 -0.432038
    66 1.037100 0.000011 0.000015 0.227154 0.055420 0.089629
    67 0.819962 0.000010 -0.000025 0.020418 0.073867 -0.178570
    68 7.634521 0.000071 0.000008 0.065178 0.000000 0.000005
    69 1.021736 0.000007 0.000019 0.000004 0.000001 0.000005
    70 8.579315 -0.007269 0.391830 -0.000009 0.000001 -0.100055
    71 2.163692 0.005543 -0.083091 0.000002 -0.000003 0.000006
    72 -4.086957 2.956184 3.846998 0.000003 0.000003 0.000001
    73 -1.285402 -3.121380 -0.531798 1.311425 -0.604639 -0.157555
    74 -0.158534 -0.324366 5.858704 0.064079 0.012559 0.008651
    75 -0.000001 0.000000 6.013279 0.000000 0.000000 0.000000
    76 1.193130 -4.812443 1.940006 1.345521 -0.330545 -0.036153
    77 0.036775 0.239867 5.280918 -0.085448 0.000000 0.000000
    78 0.000003 -0.000004 5.148767 0.000000 0.000000 0.000000
    79 4.106623 2.956165 3.846973 0.000003 0.000003 0.000001
    80 1.579911 -3.021729 -0.932437 -1.343166 -0.827827 -2.854629
    81 -0.000004 0.002155 5.953651 -0.047161 0.000000 0.000000
    82 -0.000004 0.000006 5.988947 0.000000 0.000000 0.000000
    83 -1.532234 -4.798183 2.037930 -1.131781 -0.271139 -3.136353
    84 -0.286060 0.659389 5.226978 -0.113444 -0.026251 0.008238
    85 0.000005 0.000004 5.139378 0.000000 0.000001 0.000000
    86 -4.086968 2.956181 -2.142162 0.000003 0.000003 0.000001
    87 -0.908943 -2.608849 -0.495593 -2.048249 -0.935046 -3.101717
    88 0.117528 -0.359871 6.587814 0.045207 0.086373 -0.038361
    89 -0.000003 0.000011 5.959805 -0.000001 0.000000 0.000000
    90 2.050313 -4.665520 -2.534485 -1.961664 -0.334632 -3.107347
    91 0.036264 -0.230862 5.142847 0.010260 0.000000 0.000000
    92 -0.000001 0.000002 5.515692 0.000000 0.000000 0.000000
    93 4.106607 2.956169 -2.142174 0.000003 0.000003 0.000001
    94 0.955132 -2.764797 -0.517164 1.974958 -0.724893 0.074290
    95 0.067097 0.350595 6.591652 -0.032764 -0.068853 0.050600
    96 0.094577 -0.151272 5.951447 0.079362 0.050220 -0.004310
    97 -2.012655 -4.615166 -2.675921 1.980407 -0.332730 -0.036487
    98 0.036267 0.236448 5.142773 -0.023014 0.000000 0.000000
    99 0.000000 0.000006 5.515696 0.000000 0.000000 0.000000
    100 -5.662958 2.125881 0.649193 2.987640 -1.553646 -1.986143
    101 0.000562 -0.069164 4.349964 0.073474 0.000000 0.000000
    102 0.000001 -0.101276 5.486506 0.039747 0.000000 0.000000
    103 0.000000 0.121325 5.825466 -0.059659 0.000000 0.000000
    104 5.529521 2.031204 1.268112 2.975391 1.527232 1.826167
    105 -0.000593 0.166468 4.345978 -0.080129 0.000000 0.000000
    106 -0.000001 -0.082373 5.487183 -0.007226 0.000000 0.000000
    107 -0.000002 0.131084 5.824844 -0.064464 0.000000 0.000000
    108 -1.534528 3.520233 -5.752520 1.136056 0.162464 -0.019725
    109 0.220988 -7.102924 3.128906 -0.335433 -0.042951 -0.051066
    110 0.163290 -6.451637 2.841841 -0.252253 -0.025581 -0.046408
    111 -0.062995 -7.370375 3.245842 0.000001 -0.000002 -0.000002
    112 0.591880 3.520226 -5.945685 1.136543 -0.145686 0.002803
    113 -0.066005 -6.878703 3.029243 -0.331049 0.032979 0.062984
    114 0.150038 -6.494524 2.860821 -0.243867 0.023091 0.046368
    115 0.128091 -7.390401 3.255213 0.000000 0.000000 -0.000003
    116 5.890891 -0.000036 -0.000001 -0.011148 0.000933 -0.500539
    117 5.935231 -0.000033 0.000001 -0.078651 -0.006187 -0.498958
end
