version 1
nodes
0 "ValveBiped.Bip01_Pelvis" -1
1 "ValveBiped.Bip01_L_Thigh" 0
2 "ValveBiped.Bip01_L_Calf" 1
3 "ValveBiped.Bip01_L_Foot" 2
4 "ValveBiped.Bip01_L_Toe0" 3
5 "ValveBiped.Bip01_R_Thigh" 0
6 "ValveBiped.Bip01_R_Calf" 5
7 "ValveBiped.Bip01_R_Foot" 6
8 "ValveBiped.Bip01_R_Toe0" 7
9 "ValveBiped.Bip01_Spine" 0
10 "ValveBiped.Bip01_Spine1" 9
11 "ValveBiped.Bip01_Spine2" 10
12 "ValveBiped.Bip01_Spine4" 11
13 "ValveBiped.Bip01_Neck1" 12
14 "ValveBiped.Bip01_Head1" 13
15 "J_Adj_L_FaceEye" 14
16 "J_Adj_R_FaceEye" 14
17 "J_Sec_Hair1_01" 14
18 "J_Sec_Hair2_01" 17
19 "J_Sec_Hair3_01" 18
20 "J_Sec_Hair4_01" 19
21 "J_Sec_Hair1_02" 14
22 "J_Sec_Hair2_02" 21
23 "J_Sec_Hair3_02" 22
24 "J_Sec_Hair1_03" 14
25 "J_Sec_Hair2_03" 24
26 "J_Sec_Hair3_03" 25
27 "J_Sec_Hair1_04" 14
28 "J_Sec_Hair2_04" 27
29 "J_Sec_Hair3_04" 28
30 "J_Sec_Hair1_05" 14
31 "J_Sec_Hair2_05" 30
32 "J_Sec_Hair3_05" 31
33 "J_Sec_Hair1_06" 14
34 "J_Sec_Hair2_06" 33
35 "J_Sec_Hair3_06" 34
36 "J_Sec_Hair1_07" 14
37 "J_Sec_Hair2_07" 36
38 "J_Sec_Hair1_08" 14
39 "J_Sec_Hair2_08" 38
40 "J_Sec_Hair1_09" 14
41 "J_Sec_Hair2_09" 40
42 "J_Sec_Hair1_10" 14
43 "J_Sec_Hair2_10" 42
44 "J_Sec_Hair1_11" 14
45 "J_Sec_Hair2_11" 44
46 "J_Sec_Hair1_12" 14
47 "J_Sec_Hair2_12" 46
48 "J_Sec_Hair1_13" 14
49 "J_Sec_Hair2_13" 48
50 "J_Sec_Hair1_14" 14
51 "J_Sec_Hair2_14" 50
52 "J_Sec_Hair1_15" 14
53 "J_Sec_Hair2_15" 52
54 "J_Sec_Hair1_16" 14
55 "J_Sec_Hair2_16" 54
56 "J_Sec_Hair3_16" 55
57 "J_Sec_Hair1_17" 14
58 "J_Sec_Hair2_17" 57
59 "J_Sec_Hair3_17" 58
60 "J_Sec_Hair4_17" 59
61 "J_Sec_Hair5_17" 60
62 "J_Sec_Hair6_17" 61
63 "J_Sec_Hair7_17" 62
64 "J_Sec_Hair1_18" 14
65 "J_Sec_Hair2_18" 64
66 "J_Sec_Hair3_18" 65
67 "J_Sec_Hair4_18" 66
68 "J_Sec_Hair5_18" 67
69 "J_Sec_Hair6_18" 68
70 "J_Sec_Hair7_18" 69
71 "J_Sec_Hair1_19" 14
72 "J_Sec_Hair2_19" 71
73 "ValveBiped.Bip01_L_Clavicle" 12
74 "ValveBiped.Bip01_L_UpperArm" 73
75 "ValveBiped.Bip01_L_Forearm" 74
76 "ValveBiped.Bip01_L_Hand" 75
77 "ValveBiped.Bip01_L_Finger2" 76
78 "ValveBiped.Bip01_L_Finger21" 77
79 "ValveBiped.Bip01_L_Finger22" 78
80 "ValveBiped.Bip01_L_Finger1" 76
81 "ValveBiped.Bip01_L_Finger11" 80
82 "ValveBiped.Bip01_L_Finger12" 81
83 "ValveBiped.Bip01_L_Finger0" 76
84 "ValveBiped.Bip01_L_Finger01" 83
85 "ValveBiped.Bip01_L_Finger02" 84
86 "ValveBiped.Bip01_L_Finger4" 76
87 "ValveBiped.Bip01_L_Finger41" 86
88 "ValveBiped.Bip01_L_Finger42" 87
89 "ValveBiped.Bip01_L_Finger3" 76
90 "ValveBiped.Bip01_L_Finger31" 89
91 "ValveBiped.Bip01_L_Finger32" 90
92 "ValveBiped.L_weapon_bone" 76
93 "ValveBiped.L_weapon_bone_Clip2" 76
94 "ValveBiped.L_weapon_bone_Clip2_Bullets" 93
95 "ValveBiped.L_weapon_bone_bolt_l" 76
96 "ValveBiped.Bip01_R_Clavicle" 12
97 "ValveBiped.Bip01_R_UpperArm" 96
98 "ValveBiped.Bip01_R_Forearm" 97
99 "ValveBiped.Bip01_R_Hand" 98
100 "ValveBiped.Bip01_R_Finger2" 99
101 "ValveBiped.Bip01_R_Finger21" 100
102 "ValveBiped.Bip01_R_Finger22" 101
103 "ValveBiped.Bip01_R_Finger1" 99
104 "ValveBiped.Bip01_R_Finger11" 103
105 "ValveBiped.Bip01_R_Finger12" 104
106 "ValveBiped.Bip01_R_Finger0" 99
107 "ValveBiped.Bip01_R_Finger01" 106
108 "ValveBiped.Bip01_R_Finger02" 107
109 "ValveBiped.Bip01_R_Finger4" 99
110 "ValveBiped.Bip01_R_Finger41" 109
111 "ValveBiped.Bip01_R_Finger42" 110
112 "ValveBiped.Bip01_R_Finger3" 99
113 "ValveBiped.Bip01_R_Finger31" 112
114 "ValveBiped.Bip01_R_Finger32" 113
115 "J_Sec_L_Bust1" 12
116 "J_Sec_L_Bust2" 115
117 "J_Sec_R_Bust1" 12
118 "J_Sec_R_Bust2" 117
119 "blender_implicit" 0
120 "Root" 0
end
skeleton
time 0
0  0.000000 -0.215981 36.707813  1.570796 -0.000000 0.000000
1  2.763114 -1.442894 -0.132636  -1.670471 0.058055 -1.519283
2  13.843035 0.000211 -0.000041  -0.000000 0.000000 -0.000000
3  15.243617 0.000406 0.000003  -0.077030 -0.068757 -1.299215
4  6.179252 -0.686137 0.083717  0.020295 -0.027709 -0.336371
5  -2.763114 -1.442894 -0.132639  -1.471122 0.058055 -1.622309
6  13.843029 0.000209 0.000040  0.000000 -0.000000 -0.000000
7  15.243614 0.000126 -0.000000  0.088733 0.068757 -1.299215
8  6.178950 -0.687581 -0.093328  -0.111841 0.023845 -0.336656
9  0.000000 1.768078 0.438796  1.570796 0.083193 1.570796
10  3.683838 0.368758 -0.000020  -0.000000 0.000000 -0.171967
11  -0.000007 0.000000 -0.000000  -0.000000 0.000000 -0.015830
12  3.817234 -0.461758 -0.000185  0.000000 0.000000 0.495179
13  4.474869 -2.223231 0.000020  3.141590 -0.000000 0.250601
14  2.279963 1.033716 0.000039  0.000000 -0.000001 0.463832
15  2.508573 -0.230865 -0.711011  0.071826 -1.570745 -2.967572
16  2.508530 -0.230871 0.711138  -2.938101 -1.570775 0.000000
17  6.886662 -2.424952 0.198199  -2.411156 1.338201 -0.481176
18  0.000012 1.098116 -0.000004  0.193546 0.018691 0.014259
19  -0.000010 1.107238 -0.000002  -0.017485 -0.001684 -0.001255
20  0.000003 1.107049 0.000001  0.000000 0.000000 -0.000000
21  7.132429 -2.576565 0.548723  -2.467576 1.667529 -0.425182
22  0.000000 1.239931 -0.000003  0.220089 0.052265 -0.045720
23  -0.000000 1.257277 0.000000  0.000000 -0.000000 0.000000
24  3.907602 -1.788025 -3.252001  -2.438634 1.695712 -0.454116
25  0.000001 2.695926 -0.000008  0.000617 -0.084088 0.070945
26  0.000003 2.702167 -0.000000  0.000001 0.000002 -0.000001
27  3.939973 -1.773288 3.245661  -2.438564 1.451365 -0.453736
28  -0.000001 2.714025 0.000013  0.000632 0.087660 -0.073938
29  0.000001 2.720874 0.000002  -0.000000 -0.000000 -0.000000
30  3.837192 -0.608686 4.267144  -2.457530 1.456175 -0.434691
31  -0.000017 2.088240 0.000019  -0.957008 0.886152 -1.662821
32  -0.000019 2.185414 -0.000008  0.000001 -0.000004 0.000000
33  3.296705 -0.737686 -4.332201  0.617038 1.236969 2.773602
34  0.000012 1.792658 0.000009  -0.718114 -1.054585 1.386086
35  -0.000010 1.912134 0.000016  -0.000000 0.000004 0.000001
36  3.530905 -2.750921 4.173767  1.271301 0.682548 2.119357
37  -0.000004 7.518760 0.000104  0.000001 -0.000000 -0.000005
38  4.095801 -3.058826 -3.881627  -1.962243 0.716074 -0.930184
39  0.000006 7.310965 0.000019  0.000000 -0.000001 0.000002
40  7.405885 -1.786758 2.590066  1.342509 0.486689 2.048159
41  0.000004 4.858871 -0.000001  0.000000 0.000001 -0.000002
42  7.203876 -1.701290 -3.170211  -1.798476 0.516225 -1.093961
43  -0.000035 4.253152 -0.000045  0.000001 -0.000001 0.000003
44  -1.458492 3.886370 0.907545  -2.344380 1.343645 -0.547974
45  -0.000009 2.055716 -0.000004  0.000000 0.000001 -0.000001
46  -1.346678 4.246810 -1.388177  -2.419352 1.769792 -0.473296
47  -0.000002 2.198926 -0.000010  -0.000004 0.000000 0.000000
48  1.376507 -0.592896 3.637507  -2.409587 1.261372 -0.482806
49  -0.000006 1.595858 0.000002  0.000001 -0.000001 -0.000003
50  -0.044106 1.982463 3.581082  -2.424548 1.574630 -0.617646
51  -0.000009 2.979940 0.000003  0.000001 0.000001 0.000002
52  1.652933 -0.647109 -3.747333  0.770154 1.102814 2.620468
53  0.000028 2.039988 -0.000001  0.000000 0.000002 0.000004
54  1.687963 1.858138 -3.942730  -2.389196 1.261540 -0.503205
55  0.000016 2.210039 0.000004  -0.003001 -0.002064 0.001289
56  0.000038 2.210083 -0.000004  -0.000000 0.000001 -0.000003
57  0.945234 -1.787082 -3.797905  -2.565915 1.528007 -0.326020
58  -0.000001 1.479287 0.000027  -0.000062 -0.049407 0.032070
59  0.000002 1.479217 0.000020  0.002827 -0.091867 0.059422
60  0.000001 1.479130 0.000012  0.009518 -0.104618 0.066682
61  -0.000000 1.479650 -0.000001  0.009686 -0.061099 0.038433
62  0.000013 1.480359 0.000014  -0.001546 0.007904 -0.005011
63  -0.000017 1.480280 -0.000018  -0.000000 0.000000 0.000000
64  0.974116 -1.828232 3.794367  -2.574996 1.615189 -0.317786
65  0.000003 1.479016 -0.000018  0.006406 0.050641 -0.032199
66  -0.000001 1.478950 0.000017  0.015404 0.095113 -0.059843
67  -0.000005 1.478925 0.000024  0.023292 0.102085 -0.063144
68  -0.000006 1.479417 0.000011  0.016704 0.055959 -0.034391
69  -0.000012 1.480082 0.000018  -0.002845 -0.008475 0.005297
70  -0.000004 1.479996 0.000006  0.000000 -0.000000 0.000000
71  8.683632 0.579157 -0.120758  -0.737797 1.499783 -2.154126
72  -0.000010 5.278079 -0.000004  0.000004 0.000000 -0.000000
73  3.579357 -1.752088 0.802042  0.877508 -1.114834 -2.566259
74  2.665754 0.858526 0.008400  -1.384889 -0.344361 -0.770833
75  7.924997 -0.000015 -0.000002  -0.000000 0.000000 -0.125707
76  7.090798 0.184737 -0.472899  1.373047 0.113574 0.124314
77  2.177915 0.015783 0.359467  0.167658 -0.010871 -0.244807
78  1.224079 0.000002 -0.000003  -0.016155 -0.027746 -0.527363
79  0.755173 0.000007 -0.000005  0.006306 0.039026 -0.160247
80  2.070956 0.027356 0.939562  0.161481 -0.040123 -0.235706
81  1.098946 -0.000019 0.000010  0.054658 0.111147 -0.458246
82  0.676630 -0.000012 0.000008  0.010224 0.062688 -0.161773
83  0.008503 -0.337564 0.544979  1.733824 -0.409917 -0.254739
84  1.547757 -0.000014 0.000000  -0.000000 -0.080904 -0.254439
85  0.951514 0.000003 -0.000002  -0.000000 -0.013495 0.192922
86  2.144377 0.019091 -0.699181  0.204342 0.133221 -0.254834
87  1.038632 -0.000010 0.000007  0.003869 0.008714 -0.417895
88  0.598616 -0.000003 0.000001  -0.059758 -0.161209 -0.356786
89  2.222493 0.010885 -0.162379  0.197630 0.103023 -0.293436
90  1.135493 -0.000002 0.000003  -0.062725 -0.156470 -0.383131
91  0.655290 0.000008 -0.000003  0.017616 0.068473 -0.252015
92  2.698779 -1.274162 0.577847  1.977842 -0.088017 1.557794
93  2.794671 -1.205200 0.541044  -0.125700 -0.044824 1.121721
94  1.420460 -0.921878 0.482638  -0.000000 0.000000 -0.000001
95  0.019990 0.159054 0.012557  -0.125700 -0.044824 1.121720
96  3.579365 -1.752086 -0.802009  -0.952658 1.114834 -2.566259
97  2.667207 0.854021 0.004309  1.443300 0.396163 -0.749684
98  7.925006 0.000065 0.000001  0.000000 -0.000000 -0.125707
99  6.893467 -0.001989 0.369468  -1.376663 -0.113578 0.124313
100  2.179776 0.013298 -0.348166  -0.164042 0.010870 -0.244804
101  1.224075 -0.000015 -0.000015  0.016155 0.027746 -0.527363
102  0.755176 0.000026 0.000003  -0.006306 -0.039026 -0.160247
103  2.075852 0.022193 -0.928859  -0.157864 0.040122 -0.235702
104  1.098946 -0.000016 -0.000011  -0.054658 -0.111147 -0.458246
105  0.676622 0.000011 0.000011  -0.010224 -0.062688 -0.161773
106  0.011215 -0.340113 -0.543344  -1.730007 0.410825 -0.253212
107  1.547756 0.000014 -0.000003  -0.000000 0.080904 -0.254439
108  0.951507 0.000009 0.000001  -0.000000 0.013495 0.192922
109  2.140716 0.021570 0.710266  -0.200725 -0.133222 -0.254830
110  1.038628 -0.000013 -0.000006  -0.003869 -0.008714 -0.417895
111  0.598607 0.000008 0.000003  0.059758 0.161209 -0.356786
112  2.221625 0.010818 0.173923  -0.194013 -0.103024 -0.293432
113  1.135488 -0.000016 -0.000005  0.062725 0.156470 -0.383131
114  0.655288 0.000006 -0.000001  -0.017616 -0.068473 -0.252015
115  0.186238 2.509302 1.925558  -0.806192 2.244219 -0.985088
116  0.000007 0.930897 -0.000002  0.000002 -0.000004 -0.000003
117  0.186257 2.509304 -1.925556  -0.806175 0.897373 -0.985076
118  0.000004 0.930899 -0.000010  -0.000001 0.000002 -0.000002
119  -0.000000 -36.707809 -0.215981  -1.570796 -0.000001 0.000000
120  -0.000000 -36.707809 -0.215981  0.005884 -0.000001 -0.000000
time 1
0  0.000000 0.542624 40.233574  1.570796 -0.000000 0.000000
1  3.806942 0.000000 0.000000  -1.670471 0.058055 -1.519283
2  19.263103 0.000000 0.000000  -0.000000 0.000000 -0.000000
3  17.589100 -0.000001 0.000000  -0.077030 -0.068757 -1.299215
4  6.240662 -0.000000 0.000000  0.020295 -0.027709 -0.336371
5  -3.806942 0.000000 0.000000  -1.471122 0.058055 -1.622309
6  19.263105 -0.000000 0.000000  0.000000 -0.000000 -0.000000
7  17.589098 -0.000000 0.000000  0.088733 0.068757 -1.299215
8  6.240661 0.000000 -0.000000  -0.111841 0.023845 -0.336656
9  -0.000000 4.246159 -0.018825  1.570796 0.083193 1.570796
10  4.195629 -0.000001 -0.000000  -0.000000 0.000000 -0.171967
11  3.883148 0.000001 0.000000  -0.000000 0.000000 -0.015830
12  5.985940 0.000003 0.000000  0.000000 0.000000 0.495179
13  5.620500 -0.000000 0.000000  3.141590 -0.000000 0.250601
14  4.684908 -0.000001 -0.000000  0.000000 -0.000001 0.463832
15  2.508572 -0.230865 -0.711011  0.071826 -1.570745 -2.967572
16  2.508533 -0.230871 0.711138  -2.938101 -1.570775 0.000000
17  6.886670 -2.424952 0.198199  -2.411156 1.338201 -0.481176
18  0.000009 1.098125 -0.000005  0.193546 0.018691 0.014259
19  -0.000011 1.107249 -0.000002  -0.017485 -0.001684 -0.001255
20  0.000003 1.107042 -0.000000  0.000000 0.000000 -0.000000
21  7.132440 -2.576564 0.548723  -2.467576 1.667529 -0.425182
22  0.000001 1.239943 0.000003  0.220089 0.052265 -0.045720
23  -0.000000 1.257284 0.000000  0.000000 -0.000000 0.000000
24  3.907609 -1.788025 -3.252002  -2.438634 1.695712 -0.454116
25  -0.000000 2.695917 -0.000012  0.000617 -0.084088 0.070945
26  0.000002 2.702169 -0.000001  0.000001 0.000002 -0.000001
27  3.939973 -1.773288 3.245661  -2.438564 1.451365 -0.453736
28  -0.000003 2.714037 0.000016  0.000632 0.087660 -0.073938
29  0.000000 2.720874 -0.000000  -0.000000 -0.000000 -0.000000
30  3.837195 -0.608686 4.267144  -2.457530 1.456175 -0.434691
31  -0.000016 2.088236 0.000018  -0.957008 0.886152 -1.662821
32  -0.000012 2.185413 -0.000011  0.000001 -0.000004 0.000000
33  3.296715 -0.737686 -4.332201  0.617038 1.236969 2.773602
34  0.000014 1.792668 0.000008  -0.718114 -1.054585 1.386086
35  -0.000015 1.912137 0.000018  -0.000000 0.000004 0.000001
36  3.530904 -2.750921 4.173767  1.271301 0.682548 2.119357
37  -0.000008 7.518758 0.000105  0.000001 -0.000000 -0.000005
38  4.095804 -3.058826 -3.881627  -1.962243 0.716074 -0.930184
39  0.000010 7.310966 0.000014  0.000000 -0.000001 0.000002
40  7.405891 -1.786758 2.590066  1.342509 0.486689 2.048159
41  -0.000000 4.858876 0.000003  0.000000 0.000001 -0.000002
42  7.203884 -1.701290 -3.170211  -1.798476 0.516225 -1.093961
43  -0.000034 4.253149 -0.000047  0.000001 -0.000001 0.000003
44  -1.458489 3.886370 0.907545  -2.344380 1.343645 -0.547974
45  -0.000008 2.055707 -0.000004  0.000000 0.000001 -0.000001
46  -1.346679 4.246811 -1.388177  -2.419352 1.769792 -0.473296
47  -0.000000 2.198925 -0.000006  -0.000004 0.000000 0.000000
48  1.376514 -0.592896 3.637507  -2.409587 1.261372 -0.482806
49  -0.000008 1.595867 0.000005  0.000001 -0.000001 -0.000003
50  -0.044103 1.982463 3.581082  -2.424548 1.574630 -0.617646
51  -0.000009 2.979940 0.000002  0.000001 0.000001 0.000002
52  1.652940 -0.647109 -3.747334  0.770154 1.102814 2.620468
53  0.000027 2.039977 0.000001  0.000000 0.000002 0.000004
54  1.687970 1.858138 -3.942730  -2.389196 1.261540 -0.503205
55  0.000014 2.210026 0.000003  -0.003001 -0.002064 0.001289
56  0.000038 2.210086 -0.000004  -0.000000 0.000001 -0.000003
57  0.945238 -1.787082 -3.797905  -2.565915 1.528007 -0.326020
58  0.000000 1.479280 0.000029  -0.000062 -0.049407 0.032070
59  0.000002 1.479221 0.000012  0.002827 -0.091867 0.059422
60  0.000002 1.479138 0.000013  0.009518 -0.104618 0.066682
61  -0.000002 1.479644 -0.000001  0.009686 -0.061099 0.038433
62  0.000012 1.480359 0.000009  -0.001546 0.007904 -0.005011
63  -0.000017 1.480281 -0.000022  -0.000000 0.000000 0.000000
64  0.974123 -1.828232 3.794367  -2.574996 1.615189 -0.317786
65  0.000004 1.479010 -0.000027  0.006406 0.050641 -0.032199
66  -0.000000 1.478944 0.000013  0.015404 0.095113 -0.059843
67  -0.000006 1.478933 0.000024  0.023292 0.102085 -0.063144
68  -0.000005 1.479421 0.000007  0.016704 0.055959 -0.034391
69  -0.000012 1.480074 0.000017  -0.002845 -0.008475 0.005297
70  -0.000006 1.480002 0.000005  0.000000 -0.000000 0.000000
71  8.683635 0.579157 -0.120758  -0.737797 1.499783 -2.154126
72  -0.000010 5.278072 -0.000004  0.000004 0.000000 -0.000000
73  4.268650 1.531892 1.575000  0.877508 -1.114834 -2.566259
74  5.782735 0.000004 0.000001  -1.384889 -0.344361 -0.770833
75  11.452765 -0.000000 0.000000  -0.000000 0.000000 -0.125707
76  10.945537 -0.000008 -0.000038  1.373047 0.113574 0.124314
77  3.750081 0.114771 0.430060  0.167658 -0.010871 -0.244807
78  2.258191 -0.000003 -0.000000  -0.016155 -0.027746 -0.527363
79  1.210390 0.000001 -0.000000  0.006306 0.039026 -0.160247
80  3.868290 -0.166636 1.490143  0.161481 -0.040123 -0.235706
81  1.786065 0.000000 -0.000000  0.054658 0.111147 -0.458246
82  1.044444 0.000000 -0.000000  0.010224 0.062688 -0.161773
83  1.121470 -1.351566 1.031000  1.733824 -0.409917 -0.254739
84  1.928115 -0.000002 0.000005  -0.000000 -0.080904 -0.254439
85  1.285139 -0.000003 -0.000001  -0.000000 -0.013495 0.192922
86  3.147134 0.005678 -1.551345  0.204342 0.133221 -0.254834
87  1.585904 -0.000001 -0.000001  0.003869 0.008714 -0.417895
88  0.849093 0.000001 0.000001  -0.059758 -0.161209 -0.356786
89  3.471082 0.213266 -0.574065  0.197630 0.103023 -0.293436
90  1.897530 -0.000001 -0.000000  -0.062725 -0.156470 -0.383131
91  1.014448 0.000003 0.000001  0.017616 0.068473 -0.252015
92  3.348997 -1.370997 0.725001  1.977842 -0.088017 1.557794
93  2.794667 -1.205200 0.541044  -0.125700 -0.044824 1.121721
94  1.420462 -0.921878 0.482638  -0.000000 0.000000 -0.000001
95  0.019987 0.159055 0.012557  -0.125700 -0.044824 1.121720
96  4.268653 1.531893 -1.575000  -0.952658 1.114834 -2.566259
97  5.782720 0.000006 0.000000  1.443300 0.396163 -0.749684
98  11.452768 0.000001 0.000000  0.000000 -0.000000 -0.125707
99  10.945511 -0.000004 0.000014  -1.376663 -0.113578 0.124313
100  3.750106 0.116328 -0.429640  -0.164042 0.010870 -0.244804
101  2.258192 -0.000002 0.000000  0.016155 0.027746 -0.527363
102  1.210399 0.000002 0.000001  -0.006306 -0.039026 -0.160247
103  3.868324 -0.161241 -1.490733  -0.157864 0.040122 -0.235702
104  1.786062 -0.000002 0.000000  -0.054658 -0.111147 -0.458246
105  1.044439 -0.000001 0.000000  -0.010224 -0.062688 -0.161773
106  1.121500 -1.347832 -1.035883  -1.730007 0.410825 -0.253212
107  1.928121 -0.000000 -0.000001  -0.000000 0.080904 -0.254439
108  1.285141 0.000002 -0.000000  -0.000000 0.013495 0.192922
109  3.147155 0.000078 1.551356  -0.200725 -0.133222 -0.254830
110  1.585909 0.000004 -0.000000  -0.003869 -0.008714 -0.417895
111  0.849084 -0.000004 0.000000  0.059758 0.161209 -0.356786
112  3.471107 0.211192 0.574832  -0.194013 -0.103024 -0.293432
113  1.897531 -0.000002 0.000000  0.062725 0.156470 -0.383131
114  1.014448 -0.000001 -0.000000  -0.017616 -0.068473 -0.252015
115  0.186237 2.509301 1.925558  -0.806192 2.244219 -0.985088
116  0.000008 0.930896 -0.000002  0.000002 -0.000004 -0.000003
117  0.186252 2.509303 -1.925556  -0.806175 0.897373 -0.985076
118  0.000005 0.930899 -0.000005  -0.000001 0.000002 -0.000002
119  -0.000000 -36.707809 -0.215981  -1.570796 -0.000001 0.000000
120  -0.000000 -36.707809 -0.215981  0.005884 -0.000001 -0.000000
end
