// Created by Crowbar 0.74
version 1
nodes
  0 "static_prop" -1
end
skeleton
  time 0
    0 0.000000 0.000000 0.000000 0.000000 0.000000 0.000000
end
triangles
  phy
    0 0.951066 -35.079539 -24.708329 0.040409 0.024905 0.998873 0 0
    0 -0.446149 -35.079539 -24.708329 0.010110 0.024924 -0.999638 0 0
    0 0.951063 33.996255 -24.708315 -0.010110 0.024924 0.999638 0 0
  phy
    0 0.951063 33.996255 -24.708315 -0.010110 0.024924 0.999638 0 0
    0 -0.446149 -35.079539 -24.708329 0.010110 0.024924 -0.999638 0 0
    0 -0.446152 33.996255 -24.708315 -0.040409 0.024905 -0.998873 0 0
  phy
    0 0.951066 -35.079539 -24.708329 0.040409 0.024905 0.998873 0 0
    0 -0.446149 -35.079556 31.331121 0.040371 -0.049763 -0.997945 0 0
    0 -0.446149 -35.079539 -24.708329 0.010110 0.024924 -0.999638 0 0
  phy
    0 0.951066 -35.079539 -24.708329 0.040409 0.024905 0.998873 0 0
    0 0.951066 -35.079556 31.331121 0.010112 -0.012465 0.999871 0 0
    0 -0.446149 -35.079556 31.331121 0.040371 -0.049763 -0.997945 0 0
  phy
    0 -0.446152 33.996255 -24.708315 -0.040409 0.024905 -0.998873 0 0
    0 -0.446149 -35.079539 -24.708329 0.010110 0.024924 -0.999638 0 0
    0 -0.446152 33.996237 31.331135 -0.010112 -0.012465 -0.999871 0 0
  phy
    0 -0.446149 -35.079539 -24.708329 0.010110 0.024924 -0.999638 0 0
    0 -0.446149 -35.079556 31.331121 0.040371 -0.049763 -0.997945 0 0
    0 -0.446152 33.996237 31.331135 -0.010112 -0.012465 -0.999871 0 0
  phy
    0 0.951063 33.996255 -24.708315 -0.010110 0.024924 0.999638 0 0
    0 -0.446152 33.996255 -24.708315 -0.040409 0.024905 -0.998873 0 0
    0 0.951063 33.996237 31.331135 -0.040371 -0.049763 0.997945 0 0
  phy
    0 0.951063 33.996237 31.331135 -0.040371 -0.049763 0.997945 0 0
    0 -0.446152 33.996255 -24.708315 -0.040409 0.024905 -0.998873 0 0
    0 -0.446152 33.996237 31.331135 -0.010112 -0.012465 -0.999871 0 0
  phy
    0 0.951063 33.996237 31.331135 -0.040371 -0.049763 0.997945 0 0
    0 -0.446149 -35.079556 31.331121 0.040371 -0.049763 -0.997945 0 0
    0 0.951066 -35.079556 31.331121 0.010112 -0.012465 0.999871 0 0
  phy
    0 0.951063 33.996237 31.331135 -0.040371 -0.049763 0.997945 0 0
    0 -0.446152 33.996237 31.331135 -0.010112 -0.012465 -0.999871 0 0
    0 -0.446149 -35.079556 31.331121 0.040371 -0.049763 -0.997945 0 0
  phy
    0 0.951066 -35.079556 31.331121 0.010112 -0.012465 0.999871 0 0
    0 0.951063 33.996255 -24.708315 -0.010110 0.024924 0.999638 0 0
    0 0.951063 33.996237 31.331135 -0.040371 -0.049763 0.997945 0 0
  phy
    0 0.951066 -35.079539 -24.708329 0.040409 0.024905 0.998873 0 0
    0 0.951063 33.996255 -24.708315 -0.010110 0.024924 0.999638 0 0
    0 0.951066 -35.079556 31.331121 0.010112 -0.012465 0.999871 0 0
end
