version 1
nodes
0 "ValveBiped.Bip01_Pelvis" -1
1 "ValveBiped.Bip01_Spine" 0
2 "ValveBiped.Bip01_Spine1" 1
3 "ValveBiped.Bip01_Spine2" 2
4 "ValveBiped.Bip01_Spine4" 3
5 "ValveBiped.Bip01_Neck1" 4
6 "ValveBiped.Bip01_Head1" 5
7 "Eye_L" 6
8 "Eye_R" 6
9 "Teeth" 6
10 "Tongue1" 6
11 "Tongue2" 10
12 "Tongue3" 11
13 "FrontHair1" 6
14 "FrontHair2" 13
15 "FrontHair_L" 6
16 "FrontHair_R" 6
17 "SideHair1_L" 6
18 "SideHair2_L" 17
19 "SideHair3_L" 18
20 "SideHair1_R" 6
21 "SideHair2_R" 20
22 "SideHair3_R" 21
23 "BackSideHair1_L" 6
24 "BackSideHair2_L" 23
25 "BackSideHair1_R" 6
26 "BackSideHair2_R" 25
27 "BackInsideHair" 6
28 "BackHair" 6
29 "ValveBiped.Bip01_L_Clavicle" 4
30 "SleeveRibbon_L" 29
31 "ValveBiped.Bip01_L_UpperArm" 29
32 "ValveBiped.Bip01_L_Forearm" 31
33 "ValveBiped.Bip01_L_Hand" 32
34 "ValveBiped.Bip01_L_Finger0" 33
35 "ValveBiped.Bip01_L_Finger01" 34
36 "ValveBiped.Bip01_L_Finger02" 35
37 "ValveBiped.Bip01_L_Finger1" 33
38 "ValveBiped.Bip01_L_Finger11" 37
39 "ValveBiped.Bip01_L_Finger12" 38
40 "ValveBiped.Bip01_L_Finger2" 33
41 "ValveBiped.Bip01_L_Finger21" 40
42 "ValveBiped.Bip01_L_Finger22" 41
43 "ValveBiped.Bip01_L_Finger3" 33
44 "ValveBiped.Bip01_L_Finger31" 43
45 "ValveBiped.Bip01_L_Finger32" 44
46 "ValveBiped.Bip01_L_Finger4" 33
47 "ValveBiped.Bip01_L_Finger41" 46
48 "ValveBiped.Bip01_L_Finger42" 47
49 "BackArmKA_L" 31
50 "FrontArmKA_L" 31
51 "BackKA1_L" 29
52 "BackKA2_L" 51
53 "SideKA1_L" 4
54 "SideKA2_L" 53
55 "FrontKA1_L" 4
56 "FrontKA2_L" 55
57 "ValveBiped.Bip01_R_Clavicle" 4
58 "SleeveRibbon_R" 57
59 "ValveBiped.Bip01_R_UpperArm" 57
60 "ValveBiped.Bip01_R_Forearm" 59
61 "ValveBiped.Bip01_R_Hand" 60
62 "ValveBiped.Bip01_R_Finger0" 61
63 "ValveBiped.Bip01_R_Finger01" 62
64 "ValveBiped.Bip01_R_Finger02" 63
65 "ValveBiped.Bip01_R_Finger1" 61
66 "ValveBiped.Bip01_R_Finger11" 65
67 "ValveBiped.Bip01_R_Finger12" 66
68 "ValveBiped.Bip01_R_Finger2" 61
69 "ValveBiped.Bip01_R_Finger21" 68
70 "ValveBiped.Bip01_R_Finger22" 69
71 "ValveBiped.Bip01_R_Finger3" 61
72 "ValveBiped.Bip01_R_Finger31" 71
73 "ValveBiped.Bip01_R_Finger32" 72
74 "ValveBiped.Bip01_R_Finger4" 61
75 "ValveBiped.Bip01_R_Finger41" 74
76 "ValveBiped.Bip01_R_Finger42" 75
77 "BackArmKA_R" 59
78 "FrontArmKA_R" 59
79 "BackKA1_R" 57
80 "BackKA2_R" 79
81 "SideKA1_R" 4
82 "SideKA2_R" 81
83 "FrontKA1_R" 4
84 "FrontKA2_R" 83
85 "BackMiddleKA1" 4
86 "BackMiddleKA2" 85
87 "Tie1" 4
88 "Tie2" 87
89 "Tie3" 88
90 "Tie4" 89
91 "Tie5" 90
92 "Tie6" 91
93 "ValveBiped.Bip01_L_Thigh" 0
94 "ValveBiped.Bip01_L_Calf" 93
95 "ValveBiped.Bip01_L_Foot" 94
96 "ValveBiped.Bip01_R_Thigh" 0
97 "ValveBiped.Bip01_R_Calf" 96
98 "ValveBiped.Bip01_R_Foot" 97
99 "Belt1" 0
100 "Belt2" 99
101 "Belt3" 100
102 "Belt4" 101
103 "Belt5" 102
104 "root" -1
end
skeleton
time 0
0  0.000000 -2.087236 35.214973  1.570796 -0.000000 0.000000
1  0.000003 3.958523 -1.379566  1.570796 -0.074097 1.570801
2  3.543994 0.000050 0.000017  0.000001 -0.000006 -0.112608
3  3.341241 0.000025 -0.000005  0.000000 0.000004 -0.012631
4  6.963290 0.000026 0.000020  -0.000000 -0.000004 0.155824
5  2.935251 -0.000236 -0.000006  -3.141592 0.000001 0.224048
6  2.189415 0.080295 0.000001  0.000000 0.000001 0.100568
7  2.523136 -0.334464 -1.152895  -2.838601 -0.054527 -0.074835
8  2.523140 -0.334462 1.152904  0.303009 -0.054547 3.066767
9  0.249538 -1.665980 0.000000  -2.933630 1.570794 0.000000
10  0.238734 -1.261396 0.000000  -2.901132 1.570789 0.000000
11  0.000000 0.645904 -0.000001  0.005264 0.000000 -0.000000
12  -0.000000 0.483726 -0.000008  -0.005183 0.000000 -0.000000
13  5.935234 -3.225029 0.000010  0.244071 -1.570795 0.000000
14  -0.000000 0.033809 2.125088  -0.005243 -0.000000 0.000000
15  5.935236 -3.225029 -2.082909  -0.244072 1.570783 0.000000
16  5.935222 -3.225028 2.082934  0.244076 -1.570783 0.000000
17  5.365278 0.301702 -4.434361  0.195597 -1.570795 0.000000
18  -0.000000 -0.100057 3.071199  0.009526 0.000000 -0.000001
19  0.000001 -0.047036 2.040987  0.016272 0.000000 0.000000
20  5.365264 0.301709 4.434372  0.195597 -1.570795 0.000000
21  0.000000 -0.100057 3.071192  0.009526 0.000000 -0.000001
22  0.000000 -0.047038 2.040969  0.016272 0.000000 0.000000
23  4.607569 3.495626 -5.170744  0.195596 -1.570795 0.000000
24  -0.000006 -0.166049 5.096714  0.000143 -0.000022 0.001360
25  4.607528 3.495621 5.170754  0.195597 -1.570795 0.000000
26  -0.000006 -0.166041 5.096736  0.000141 0.000022 -0.001361
27  0.605920 4.565644 0.000001  0.183578 -1.570795 0.000000
28  0.339731 5.719987 0.000001  0.183577 -1.570795 0.000000
29  1.620507 0.585389 0.906229  -1.744282 -1.902580 -0.080469
30  8.683124 -0.055900 -0.805790  -1.092022 1.738744 -1.298086
31  4.017077 -0.343716 -0.838147  -1.424298 0.049767 -0.291220
32  9.653361 -0.000036 0.000018  0.000009 0.001787 -0.013706
33  9.700518 0.000004 0.173660  1.570793 -0.058850 -0.000004
34  0.255152 -0.280400 0.786741  -1.627753 -0.392897 -0.330934
35  1.293725 0.000006 0.000012  -0.056161 0.001272 -0.043725
36  1.033813 0.026753 0.086325  -0.001555 -0.078123 -0.261986
37  2.478043 -0.225291 0.803176  -0.000001 0.000004 -0.090666
38  1.164509 -0.027370 0.008879  0.000001 -0.000002 -0.023502
39  0.793106 0.009372 -0.015790  0.000000 -0.000004 0.011814
40  2.609583 -0.172762 0.167400  -0.000000 0.000001 -0.066108
41  1.203957 0.021439 0.008546  0.000000 0.000009 0.017809
42  0.809975 -0.023349 0.000003  0.000000 -0.000005 -0.028821
43  2.495252 -0.287551 -0.444693  -0.000001 0.000005 -0.114732
44  1.024572 0.059878 0.017761  0.000000 0.000004 0.058383
45  0.752829 -0.013725 0.027301  0.000000 -0.000014 -0.018239
46  2.354770 -0.462545 -1.022910  0.000001 0.000007 -0.193953
47  0.807178 0.074560 0.035852  -0.000002 -0.000011 0.092090
48  0.590863 0.010333 0.023017  0.000000 0.000007 0.017477
49  0.140941 1.465827 1.656845  -0.037039 -0.653277 -1.463124
50  -0.074825 -0.930150 1.653086  0.145511 -0.483075 -1.732814
51  2.275750 1.061659 -2.923031  -2.592894 -0.707335 0.649708
52  -0.000005 1.650695 -0.000031  -0.503393 -0.223889 0.141361
53  1.750281 1.309224 2.431595  1.012002 0.210459 0.907313
54  0.000004 2.839316 -0.000018  -0.415799 -0.535953 0.456335
55  1.246714 2.549735 1.387321  0.860360 0.095126 0.755676
56  -0.000027 3.089654 0.000031  -0.353454 -0.556294 0.514158
57  1.620536 0.585402 -0.906207  1.680661 1.903075 -0.071865
58  8.685406 -0.111857 0.775062  -1.212523 1.486552 -1.477545
59  4.019473 -0.402157 0.799957  1.492229 -0.026338 -0.293712
60  9.653352 0.000022 0.000007  0.000007 -0.001794 -0.013689
61  9.700525 -0.000122 -0.173668  -1.570805 0.059150 -0.000016
62  0.255081 -0.280460 -0.786743  1.627755 0.392899 -0.331230
63  1.293741 -0.000002 0.000003  0.063512 -0.003851 -0.043920
64  1.033586 0.026148 -0.089212  0.000851 0.076727 -0.262618
65  2.477999 -0.226017 -0.803182  0.000000 -0.000004 -0.090962
66  1.164514 -0.027366 -0.008881  0.000000 0.000004 -0.023501
67  0.793108 0.009376 0.015791  -0.000000 0.000001 0.011813
68  2.609535 -0.173515 -0.167406  0.000000 0.000001 -0.066404
69  1.203957 0.021439 -0.008547  0.000000 -0.000009 0.017808
70  0.809977 -0.023361 -0.000005  -0.000000 0.000004 -0.028820
71  2.495172 -0.288267 0.444689  0.000001 -0.000003 -0.115028
72  1.024571 0.059879 -0.017761  -0.000000 -0.000004 0.058383
73  0.752823 -0.013726 -0.027303  -0.000000 0.000012 -0.018239
74  2.354617 -0.463204 1.022905  -0.000001 -0.000006 -0.194250
75  0.807182 0.074553 -0.035854  0.000002 0.000011 0.092090
76  0.590853 0.010331 -0.023019  -0.000000 -0.000009 0.017476
77  0.140933 1.465837 -1.656837  -0.037040 -2.488312 -1.463120
78  -0.074834 -0.930144 -1.653080  0.145509 -2.658513 -1.732804
79  2.284101 0.849783 2.985168  0.473908 -0.664782 -2.444386
80  -0.000003 1.650675 -0.000021  -0.503389 0.223883 -0.141364
81  1.750274 1.309221 -2.431607  -2.129604 0.210473 -2.234280
82  0.000037 2.839325 -0.000004  -0.415796 0.535966 -0.456346
83  1.246649 2.549738 -1.387329  0.860367 3.046472 0.755685
84  -0.000009 3.089652 0.000008  -0.353462 0.556295 -0.514155
85  0.209561 -2.528921 -0.000001  -3.001087 1.570788 0.000000
86  0.000000 0.488067 1.833446  0.035870 0.000000 -0.000000
87  0.794473 3.282165 -0.000002  -0.637860 -1.570795 0.000000
88  0.000000 0.091845 0.779436  0.120741 -0.000000 0.000000
89  0.000000 0.167428 0.697981  0.088961 -0.000036 -0.000003
90  0.000041 0.226928 1.110525  0.034318 0.000032 0.000000
91  0.000008 0.112383 1.553919  0.017750 0.000002 0.000000
92  0.000005 -0.150712 1.708766  0.276277 0.000059 0.000016
93  2.982521 0.000004 0.000002  -1.570796 -0.000000 -1.570796
94  13.441393 -0.116438 -0.318385  0.000000 -0.000000 0.122988
95  17.962406 0.000063 -0.000003  0.000001 0.000000 -1.083488
96  -2.982520 0.000004 0.000002  -1.570796 -0.000000 -1.570796
97  13.441389 -0.116438 0.318377  0.000000 -0.000000 0.122988
98  17.962410 0.000063 -0.000003  -0.000000 -0.000000 -1.086515
99  2.795703 6.788696 3.734681  0.869069 -0.000000 0.000000
100  -0.000001 -0.562541 3.198036  0.317564 -0.000000 0.000000
101  0.000001 0.136853 4.045186  0.008175 0.000001 0.000000
102  -0.000004 0.182436 4.048161  0.092436 0.000001 0.000000
103  -0.000005 0.549181 4.012954  0.022275 0.000000 0.000000
104  0.000000 0.000000 0.000000  0.000000 -0.000000 0.000000
end
triangles
frill
0  1.947793 -5.449787 64.093506  0.732231 -0.626369 -0.267393  0.819160 0.528240 1 6 1.000000
0  2.327780 -4.726211 63.781040  0.917281 -0.358492 0.173434  0.890350 0.557730 1 6 1.000000
0  2.374842 -4.606785 63.731155  0.915013 -0.280725 0.289732  0.942980 0.587290 1 6 1.000000
frill
0  1.977225 -5.458224 64.121956  0.741818 -0.552190 0.380515  0.815400 0.533660 1 6 1.000000
0  2.374842 -4.606785 63.731155  0.915013 -0.280725 0.289732  0.942980 0.587290 1 6 1.000000
0  2.366149 -4.556572 63.729214  0.826859 -0.149814 0.542089  0.945770 0.596740 1 6 1.000000
frill
0  2.374842 -4.606785 63.731155  0.915013 -0.280725 0.289732  0.942980 0.587290 1 6 1.000000
0  1.977225 -5.458224 64.121956  0.741818 -0.552190 0.380515  0.815400 0.533660 1 6 1.000000
0  1.947793 -5.449787 64.093506  0.732231 -0.626369 -0.267393  0.819160 0.528240 1 6 1.000000
frill
0  1.426174 -5.843010 64.267715  0.228458 -0.770614 -0.594946  0.730730 0.493630 1 6 1.000000
0  1.947793 -5.449787 64.093506  0.732231 -0.626369 -0.267393  0.819160 0.528240 1 6 1.000000
0  1.977225 -5.458224 64.121956  0.741818 -0.552190 0.380515  0.815400 0.533660 1 6 1.000000
frill
0  1.977225 -5.458224 64.121956  0.741818 -0.552190 0.380515  0.815400 0.533660 1 6 1.000000
0  1.451847 -5.867532 64.304398  0.509737 -0.813256 0.280683  0.727350 0.500620 1 6 1.000000
0  1.426174 -5.843010 64.267715  0.228458 -0.770614 -0.594946  0.730730 0.493630 1 6 1.000000
frill
0  0.800490 -6.044119 64.419769  0.087072 -0.865213 -0.493786  0.628700 0.470860 1 6 1.000000
0  1.426174 -5.843010 64.267715  0.228458 -0.770614 -0.594946  0.730730 0.493630 1 6 1.000000
0  1.451847 -5.867532 64.304398  0.509737 -0.813256 0.280683  0.727350 0.500620 1 6 1.000000
frill
0  1.451847 -5.867532 64.304398  0.509737 -0.813256 0.280683  0.727350 0.500620 1 6 1.000000
0  0.814805 -6.066584 64.461845  0.250282 -0.876042 0.412200  0.627680 0.478710 1 6 1.000000
0  0.800490 -6.044119 64.419769  0.087072 -0.865213 -0.493786  0.628700 0.470860 1 6 1.000000
frill
0  -0.000028 -6.122571 64.487526  -0.000002 -0.902342 -0.431020  0.500130 0.460370 1 6 1.000000
0  0.800490 -6.044119 64.419769  0.087072 -0.865213 -0.493786  0.628700 0.470860 1 6 1.000000
0  0.814805 -6.066584 64.461845  0.250282 -0.876042 0.412200  0.627680 0.478710 1 6 1.000000
frill
0  0.814805 -6.066584 64.461845  0.250282 -0.876042 0.412200  0.627680 0.478710 1 6 1.000000
0  -0.000028 -6.142180 64.535316  -0.000064 -0.884500 0.466541  0.500130 0.468830 1 6 1.000000
0  -0.000028 -6.122571 64.487526  -0.000002 -0.902342 -0.431020  0.500130 0.460370 1 6 1.000000
frill
0  -0.000028 -6.122571 64.487526  -0.000002 -0.902342 -0.431020  0.500130 0.460370 1 6 1.000000
0  -0.000028 -6.142180 64.535316  -0.000064 -0.884500 0.466541  0.500130 0.468830 1 6 1.000000
0  -0.814861 -6.066576 64.461845  -0.250308 -0.876056 0.412155  0.372580 0.478710 1 6 1.000000
frill
0  -0.829176 -6.038762 64.549576  -0.250292 -0.876070 0.412135  0.374310 0.493410 1 6 1.000000
0  -0.814861 -6.066576 64.461845  -0.250267 -0.876102 0.412083  0.372580 0.478710 1 6 1.000000
0  -0.000028 -6.142180 64.535316  0.000004 -0.884586 0.466376  0.500130 0.468830 1 6 1.000000
frill
0  -0.814861 -6.066576 64.461845  -0.250267 -0.876102 0.412083  0.372580 0.478710 1 6 1.000000
0  -0.829176 -6.038762 64.549576  -0.250292 -0.876070 0.412135  0.374310 0.493410 1 6 1.000000
0  -1.480166 -5.839285 64.373352  -0.535992 -0.748740 0.390002  0.275550 0.511940 1 6 1.000000
frill
0  -1.503523 -5.709121 64.508057  -0.565294 -0.585300 0.581263  0.279030 0.539060 1 6 1.000000
0  -1.480166 -5.839285 64.373352  -0.535992 -0.748740 0.390002  0.275550 0.511940 1 6 1.000000
0  -0.829176 -6.038762 64.549576  -0.250292 -0.876070 0.412135  0.374310 0.493410 1 6 1.000000
frill
0  -1.480166 -5.839285 64.373352  -0.535992 -0.748740 0.390002  0.275550 0.511940 1 6 1.000000
0  -1.503523 -5.709121 64.508057  -0.565294 -0.585300 0.581263  0.279030 0.539060 1 6 1.000000
0  -2.016865 -5.287355 64.222878  -0.800500 -0.264161 0.537977  0.182990 0.561480 1 6 1.000000
frill
0  -2.011072 -5.119012 64.297318  -0.815078 -0.203317 0.542504  0.179630 0.586630 1 6 1.000000
0  -2.016865 -5.287355 64.222878  -0.800500 -0.264161 0.537977  0.182990 0.561480 1 6 1.000000
0  -1.503523 -5.709121 64.508057  -0.565294 -0.585300 0.581263  0.279030 0.539060 1 6 1.000000
frill
0  -2.016865 -5.287355 64.222878  -0.800500 -0.264161 0.537977  0.182990 0.561480 1 6 1.000000
0  -2.011072 -5.119012 64.297318  -0.815078 -0.203317 0.542504  0.179630 0.586630 1 6 1.000000
0  -2.338889 -4.478876 63.762314  -0.874882 -0.030644 0.483366  0.048720 0.615660 1 6 1.000000
frill
0  -2.296284 -4.387433 63.809837  -0.879961 0.016119 0.474772  0.046080 0.629310 1 6 1.000000
0  -2.338889 -4.478876 63.762314  -0.874882 -0.030644 0.483366  0.048720 0.615660 1 6 1.000000
0  -2.011072 -5.119012 64.297318  -0.815078 -0.203317 0.542504  0.179630 0.586630 1 6 1.000000
frill
0  -2.011072 -5.119012 64.297318  -0.815078 -0.203317 0.542504  0.179630 0.586630 1 6 1.000000
0  -1.991441 -4.967415 64.390755  -0.826844 -0.149815 0.542111  0.177050 0.609880 1 6 1.000000
0  -2.296284 -4.387433 63.809837  -0.879961 0.016119 0.474772  0.046080 0.629310 1 6 1.000000
frill
0  -2.232305 -4.263316 63.882191  -0.868222 0.090730 0.487810  0.042600 0.648380 1 6 1.000000
0  -2.296284 -4.387433 63.809837  -0.879961 0.016119 0.474772  0.046080 0.629310 1 6 1.000000
0  -1.991441 -4.967415 64.390755  -0.826844 -0.149815 0.542111  0.177050 0.609880 1 6 1.000000
frill
0  -0.814861 -6.066576 64.461845  -0.250308 -0.876056 0.412155  0.372580 0.478710 1 6 1.000000
0  -0.800546 -6.044113 64.419769  -0.087094 -0.865209 -0.493789  0.371560 0.470860 1 6 1.000000
0  -0.000028 -6.122571 64.487526  -0.000002 -0.902342 -0.431020  0.500130 0.460370 1 6 1.000000
frill
0  -1.480166 -5.839285 64.373352  -0.535992 -0.748740 0.390002  0.275550 0.511940 1 6 1.000000
0  -1.451903 -5.867521 64.304398  -0.509744 -0.813276 0.280614  0.272910 0.500620 1 6 1.000000
0  -0.814861 -6.066576 64.461845  -0.250267 -0.876102 0.412083  0.372580 0.478710 1 6 1.000000
frill
0  -0.800546 -6.044113 64.419769  -0.087094 -0.865209 -0.493789  0.371560 0.470860 1 6 1.000000
0  -0.814861 -6.066576 64.461845  -0.250308 -0.876056 0.412155  0.372580 0.478710 1 6 1.000000
0  -1.451903 -5.867521 64.304398  -0.509764 -0.813235 0.280696  0.272910 0.500620 1 6 1.000000
frill
0  -1.451903 -5.867521 64.304398  -0.509764 -0.813235 0.280696  0.272910 0.500620 1 6 1.000000
0  -1.426230 -5.842999 64.267715  -0.228491 -0.770616 -0.594931  0.269530 0.493630 1 6 1.000000
0  -0.800546 -6.044113 64.419769  -0.087094 -0.865209 -0.493789  0.371560 0.470860 1 6 1.000000
frill
0  -2.016865 -5.287355 64.222878  -0.800500 -0.264161 0.537977  0.182990 0.561480 1 6 1.000000
0  -2.002962 -5.419096 64.161232  -0.814296 -0.403364 0.417396  0.185420 0.541670 1 6 1.000000
0  -1.480166 -5.839285 64.373352  -0.535992 -0.748740 0.390002  0.275550 0.511940 1 6 1.000000
frill
0  -1.451903 -5.867521 64.304398  -0.509744 -0.813276 0.280614  0.272910 0.500620 1 6 1.000000
0  -1.480166 -5.839285 64.373352  -0.535992 -0.748740 0.390002  0.275550 0.511940 1 6 1.000000
0  -2.002962 -5.419096 64.161232  -0.814296 -0.403364 0.417396  0.185420 0.541670 1 6 1.000000
frill
0  -2.002962 -5.419096 64.161232  -0.814296 -0.403364 0.417396  0.185420 0.541670 1 6 1.000000
0  -1.977281 -5.458210 64.121956  -0.741832 -0.552133 0.380572  0.184860 0.533660 1 6 1.000000
0  -1.451903 -5.867521 64.304398  -0.509744 -0.813276 0.280614  0.272910 0.500620 1 6 1.000000
frill
0  -1.426230 -5.842999 64.267715  -0.228491 -0.770616 -0.594931  0.269530 0.493630 1 6 1.000000
0  -1.451903 -5.867521 64.304398  -0.509764 -0.813235 0.280696  0.272910 0.500620 1 6 1.000000
0  -1.977281 -5.458210 64.121956  -0.741822 -0.552125 0.380602  0.184860 0.533660 1 6 1.000000
frill
0  -1.977281 -5.458210 64.121956  -0.741822 -0.552125 0.380602  0.184860 0.533660 1 6 1.000000
0  -1.947849 -5.449775 64.093506  -0.732340 -0.626286 -0.267289  0.181100 0.528240 1 6 1.000000
0  -1.426230 -5.842999 64.267715  -0.228491 -0.770616 -0.594931  0.269530 0.493630 1 6 1.000000
frill
0  -2.374890 -4.606768 63.731155  -0.915009 -0.280721 0.289747  0.057280 0.587290 1 6 1.000000
0  -2.327828 -4.726195 63.781040  -0.917251 -0.358623 0.173321  0.109910 0.557730 1 6 1.000000
0  -1.947849 -5.449775 64.093506  -0.732340 -0.626286 -0.267289  0.181100 0.528240 1 6 1.000000
frill
0  -1.947849 -5.449775 64.093506  -0.732340 -0.626286 -0.267289  0.181100 0.528240 1 6 1.000000
0  -1.977281 -5.458210 64.121956  -0.741822 -0.552125 0.380602  0.184860 0.533660 1 6 1.000000
0  -2.374890 -4.606768 63.731155  -0.915009 -0.280721 0.289747  0.057280 0.587290 1 6 1.000000
frill
0  -2.366196 -4.556554 63.729214  -0.826858 -0.149781 0.542100  0.054490 0.596740 1 6 1.000000
0  -2.374890 -4.606768 63.731155  -0.915009 -0.280721 0.289747  0.057280 0.587290 1 6 1.000000
0  -1.977281 -5.458210 64.121956  -0.741822 -0.552125 0.380602  0.184860 0.533660 1 6 1.000000
frill
0  -1.977281 -5.458210 64.121956  -0.741832 -0.552133 0.380572  0.184860 0.533660 1 6 1.000000
0  -2.002962 -5.419096 64.161232  -0.814296 -0.403364 0.417396  0.185420 0.541670 1 6 1.000000
0  -2.366196 -4.556554 63.729214  -0.826821 -0.149746 0.542165  0.054490 0.596740 1 6 1.000000
frill
0  -2.361411 -4.530842 63.734119  -0.875001 -0.077583 0.477864  0.050690 0.606910 1 6 1.000000
0  -2.366196 -4.556554 63.729214  -0.826821 -0.149746 0.542165  0.054490 0.596740 1 6 1.000000
0  -2.002962 -5.419096 64.161232  -0.814296 -0.403364 0.417396  0.185420 0.541670 1 6 1.000000
frill
0  -2.002962 -5.419096 64.161232  -0.814296 -0.403364 0.417396  0.185420 0.541670 1 6 1.000000
0  -2.016865 -5.287355 64.222878  -0.800500 -0.264161 0.537977  0.182990 0.561480 1 6 1.000000
0  -2.361411 -4.530842 63.734119  -0.875001 -0.077583 0.477864  0.050690 0.606910 1 6 1.000000
frill
0  -2.338889 -4.478876 63.762314  -0.874882 -0.030644 0.483366  0.048720 0.615660 1 6 1.000000
0  -2.361411 -4.530842 63.734119  -0.875001 -0.077583 0.477864  0.050690 0.606910 1 6 1.000000
0  -2.016865 -5.287355 64.222878  -0.800500 -0.264161 0.537977  0.182990 0.561480 1 6 1.000000
frill
0  1.451847 -5.867532 64.304398  0.509717 -0.813288 0.280627  0.727350 0.500620 1 6 1.000000
0  1.977225 -5.458224 64.121956  0.741872 -0.552125 0.380505  0.815400 0.533660 1 6 1.000000
0  2.002906 -5.419111 64.161232  0.814302 -0.403373 0.417376  0.814840 0.541670 1 6 1.000000
frill
0  2.002906 -5.419111 64.161232  0.814302 -0.403373 0.417376  0.814840 0.541670 1 6 1.000000
0  1.480110 -5.839295 64.373352  0.535987 -0.748744 0.390000  0.724710 0.511940 1 6 1.000000
0  1.451847 -5.867532 64.304398  0.509717 -0.813288 0.280627  0.727350 0.500620 1 6 1.000000
frill
0  0.814805 -6.066584 64.461845  0.250250 -0.876085 0.412129  0.627680 0.478710 1 6 1.000000
0  1.451847 -5.867532 64.304398  0.509717 -0.813288 0.280627  0.727350 0.500620 1 6 1.000000
0  1.480110 -5.839295 64.373352  0.535987 -0.748744 0.390000  0.724710 0.511940 1 6 1.000000
frill
0  1.480110 -5.839295 64.373352  0.535987 -0.748744 0.390000  0.724710 0.511940 1 6 1.000000
0  0.829120 -6.038767 64.549576  0.250281 -0.876066 0.412151  0.625950 0.493410 1 6 1.000000
0  0.814805 -6.066584 64.461845  0.250250 -0.876085 0.412129  0.627680 0.478710 1 6 1.000000
frill
0  -0.000028 -6.142180 64.535316  0.000004 -0.884586 0.466376  0.500130 0.468830 1 6 1.000000
0  0.814805 -6.066584 64.461845  0.250250 -0.876085 0.412129  0.627680 0.478710 1 6 1.000000
0  0.829120 -6.038767 64.549576  0.250281 -0.876066 0.412151  0.625950 0.493410 1 6 1.000000
frill
0  0.829120 -6.038767 64.549576  0.250281 -0.876066 0.412151  0.625950 0.493410 1 6 1.000000
0  -0.000028 -6.111868 64.630524  -0.000005 -0.905638 0.424052  0.500130 0.485010 1 6 1.000000
0  -0.000028 -6.142180 64.535316  0.000004 -0.884586 0.466376  0.500130 0.468830 1 6 1.000000
frill
0  -0.000028 -6.142180 64.535316  0.000004 -0.884586 0.466376  0.500130 0.468830 1 6 1.000000
0  -0.000028 -6.111868 64.630524  -0.000005 -0.905638 0.424052  0.500130 0.485010 1 6 1.000000
0  -0.829176 -6.038762 64.549576  -0.250292 -0.876070 0.412135  0.374310 0.493410 1 6 1.000000
frill
0  -0.842738 -5.917161 64.730736  -0.278181 -0.773495 0.569491  0.378330 0.526720 1 6 1.000000
0  -0.829176 -6.038762 64.549576  -0.250292 -0.876070 0.412135  0.374310 0.493410 1 6 1.000000
0  -0.000028 -6.111868 64.630524  -0.000005 -0.905638 0.424052  0.500130 0.485010 1 6 1.000000
frill
0  -0.829176 -6.038762 64.549576  -0.250292 -0.876070 0.412135  0.374310 0.493410 1 6 1.000000
0  -0.842738 -5.917161 64.730736  -0.278181 -0.773495 0.569491  0.378330 0.526720 1 6 1.000000
0  -1.503523 -5.709121 64.508057  -0.565294 -0.585300 0.581263  0.279030 0.539060 1 6 1.000000
frill
0  -1.511258 -5.543535 64.661392  -0.607375 -0.517740 0.602529  0.282430 0.571170 1 6 1.000000
0  -1.503523 -5.709121 64.508057  -0.565294 -0.585300 0.581263  0.279030 0.539060 1 6 1.000000
0  -0.842738 -5.917161 64.730736  -0.278181 -0.773495 0.569491  0.378330 0.526720 1 6 1.000000
frill
0  -1.503523 -5.709121 64.508057  -0.565294 -0.585300 0.581263  0.279030 0.539060 1 6 1.000000
0  -1.511258 -5.543535 64.661392  -0.607375 -0.517740 0.602529  0.282430 0.571170 1 6 1.000000
0  -2.011072 -5.119012 64.297318  -0.815078 -0.203317 0.542504  0.179630 0.586630 1 6 1.000000
frill
0  -1.991441 -4.967415 64.390755  -0.826844 -0.149815 0.542111  0.177050 0.609880 1 6 1.000000
0  -2.011072 -5.119012 64.297318  -0.815078 -0.203317 0.542504  0.179630 0.586630 1 6 1.000000
0  -1.511258 -5.543535 64.661392  -0.607375 -0.517740 0.602529  0.282430 0.571170 1 6 1.000000
frill
0  -1.511258 -5.543535 64.661392  -0.607375 -0.517740 0.602529  0.282430 0.571170 1 6 1.000000
0  -1.505081 -5.398191 64.782310  -0.638412 -0.441901 0.630202  0.284500 0.597770 1 6 1.000000
0  -1.991441 -4.967415 64.390755  -0.826844 -0.149815 0.542111  0.177050 0.609880 1 6 1.000000
frill
0  -1.951524 -4.819847 64.492630  -0.818760 -0.066637 0.570256  0.175030 0.633220 1 6 1.000000
0  -1.991441 -4.967415 64.390755  -0.826844 -0.149815 0.542111  0.177050 0.609880 1 6 1.000000
0  -1.505081 -5.398191 64.782310  -0.638412 -0.441901 0.630202  0.284500 0.597770 1 6 1.000000
frill
0  -1.505081 -5.398191 64.782310  -0.638412 -0.441901 0.630202  0.284500 0.597770 1 6 1.000000
0  -1.485998 -5.256242 64.883003  -0.648221 -0.337421 0.682610  0.285740 0.622390 1 6 1.000000
0  -1.951524 -4.819847 64.492630  -0.818760 -0.066637 0.570256  0.175030 0.633220 1 6 1.000000
frill
0  -1.882908 -4.678545 64.590080  -0.798280 0.019824 0.601960  0.173460 0.658710 1 6 1.000000
0  -1.951524 -4.819847 64.492630  -0.818760 -0.066637 0.570256  0.175030 0.633220 1 6 1.000000
0  -1.485998 -5.256242 64.883003  -0.648221 -0.337421 0.682610  0.285740 0.622390 1 6 1.000000
frill
0  -1.485998 -5.256242 64.883003  -0.648221 -0.337421 0.682610  0.285740 0.622390 1 6 1.000000
0  -1.450101 -5.101845 64.978912  -0.642522 -0.226902 0.731903  0.286780 0.648270 1 6 1.000000
0  -1.882908 -4.678545 64.590080  -0.798280 0.019824 0.601960  0.173460 0.658710 1 6 1.000000
frill
0  -1.799398 -4.525955 64.687752  -0.779960 0.083734 0.620202  0.171920 0.685020 1 6 1.000000
0  -1.882908 -4.678545 64.590080  -0.798280 0.019824 0.601960  0.173460 0.658710 1 6 1.000000
0  -1.450101 -5.101845 64.978912  -0.642522 -0.226902 0.731903  0.286780 0.648270 1 6 1.000000
frill
0  -0.000028 -6.111868 64.630524  -0.000005 -0.905638 0.424052  0.500130 0.485010 1 6 1.000000
0  0.829120 -6.038767 64.549576  0.250281 -0.876066 0.412151  0.625950 0.493410 1 6 1.000000
0  0.842682 -5.917167 64.730736  0.278175 -0.773501 0.569487  0.621930 0.526720 1 6 1.000000
frill
0  0.842682 -5.917167 64.730736  0.278175 -0.773501 0.569487  0.621930 0.526720 1 6 1.000000
0  -0.000028 -5.988129 64.823090  -0.000002 -0.825933 0.563768  0.500130 0.520980 1 6 1.000000
0  -0.000028 -6.111868 64.630524  -0.000005 -0.905638 0.424052  0.500130 0.485010 1 6 1.000000
frill
0  -0.000028 -6.111868 64.630524  -0.000005 -0.905638 0.424052  0.500130 0.485010 1 6 1.000000
0  -0.000028 -5.988129 64.823090  -0.000002 -0.825933 0.563768  0.500130 0.520980 1 6 1.000000
0  -0.842738 -5.917161 64.730736  -0.278181 -0.773495 0.569491  0.378330 0.526720 1 6 1.000000
frill
0  -0.855170 -5.767387 64.933640  -0.306862 -0.727784 0.613324  0.382500 0.563760 1 6 1.000000
0  -0.842738 -5.917161 64.730736  -0.278181 -0.773495 0.569491  0.378330 0.526720 1 6 1.000000
0  -0.000028 -5.988129 64.823090  -0.000002 -0.825933 0.563768  0.500130 0.520980 1 6 1.000000
frill
0  -0.842738 -5.917161 64.730736  -0.278181 -0.773495 0.569491  0.378330 0.526720 1 6 1.000000
0  -0.855170 -5.767387 64.933640  -0.306862 -0.727784 0.613324  0.382500 0.563760 1 6 1.000000
0  -1.511258 -5.543535 64.661392  -0.607375 -0.517740 0.602529  0.282430 0.571170 1 6 1.000000
frill
0  -1.505081 -5.398191 64.782310  -0.638412 -0.441901 0.630202  0.284500 0.597770 1 6 1.000000
0  -1.511258 -5.543535 64.661392  -0.607375 -0.517740 0.602529  0.282430 0.571170 1 6 1.000000
0  -0.855170 -5.767387 64.933640  -0.306862 -0.727784 0.613324  0.382500 0.563760 1 6 1.000000
frill
0  -0.855170 -5.767387 64.933640  -0.306862 -0.727784 0.613324  0.382500 0.563760 1 6 1.000000
0  -0.863834 -5.641149 65.082695  -0.333977 -0.645899 0.686494  0.384910 0.591830 1 6 1.000000
0  -1.505081 -5.398191 64.782310  -0.638412 -0.441901 0.630202  0.284500 0.597770 1 6 1.000000
frill
0  -1.485998 -5.256242 64.883003  -0.648221 -0.337421 0.682610  0.285740 0.622390 1 6 1.000000
0  -1.505081 -5.398191 64.782310  -0.638412 -0.441901 0.630202  0.284500 0.597770 1 6 1.000000
0  -0.863834 -5.641149 65.082695  -0.333977 -0.645899 0.686494  0.384910 0.591830 1 6 1.000000
frill
0  -0.863834 -5.641149 65.082695  -0.333977 -0.645899 0.686494  0.384910 0.591830 1 6 1.000000
0  -0.866471 -5.510277 65.195381  -0.349234 -0.525125 0.776066  0.386210 0.616290 1 6 1.000000
0  -1.485998 -5.256242 64.883003  -0.648221 -0.337421 0.682610  0.285740 0.622390 1 6 1.000000
frill
0  -1.450101 -5.101845 64.978912  -0.642522 -0.226902 0.731903  0.286780 0.648270 1 6 1.000000
0  -1.485998 -5.256242 64.883003  -0.648221 -0.337421 0.682610  0.285740 0.622390 1 6 1.000000
0  -0.866471 -5.510277 65.195381  -0.349234 -0.525125 0.776066  0.386210 0.616290 1 6 1.000000
frill
0  -0.866471 -5.510277 65.195381  -0.349234 -0.525125 0.776066  0.386210 0.616290 1 6 1.000000
0  -0.861574 -5.350517 65.291313  -0.353417 -0.397687 0.846724  0.387020 0.642300 1 6 1.000000
0  -1.450101 -5.101845 64.978912  -0.642522 -0.226902 0.731903  0.286780 0.648270 1 6 1.000000
frill
0  -1.398024 -4.935118 65.059296  -0.632994 -0.146155 0.760235  0.287080 0.674960 1 6 1.000000
0  -1.450101 -5.101845 64.978912  -0.642522 -0.226902 0.731903  0.286780 0.648270 1 6 1.000000
0  -0.861574 -5.350517 65.291313  -0.353417 -0.397687 0.846724  0.387020 0.642300 1 6 1.000000
frill
0  -0.861574 -5.350517 65.291313  -0.353417 -0.397687 0.846724  0.387020 0.642300 1 6 1.000000
0  -0.848012 -5.169009 65.369049  -0.351411 -0.280912 0.893084  0.387410 0.669640 1 6 1.000000
0  -1.398024 -4.935118 65.059296  -0.632994 -0.146155 0.760235  0.287080 0.674960 1 6 1.000000
frill
0  -1.330751 -4.754332 65.140800  -0.624041 -0.110233 0.773577  0.285960 0.702740 1 6 1.000000
0  -1.398024 -4.935118 65.059296  -0.632994 -0.146155 0.760235  0.287080 0.674960 1 6 1.000000
0  -0.848012 -5.169009 65.369049  -0.351411 -0.280912 0.893084  0.387410 0.669640 1 6 1.000000
frill
0  -0.848012 -5.169009 65.369049  -0.351411 -0.280912 0.893084  0.387410 0.669640 1 6 1.000000
0  -0.826912 -4.971447 65.426117  -0.343599 -0.197541 0.918105  0.387410 0.698010 1 6 1.000000
0  -1.330751 -4.754332 65.140800  -0.624041 -0.110233 0.773577  0.285960 0.702740 1 6 1.000000
frill
0  -1.271791 -4.588428 65.217087  -0.607989 -0.081269 0.789775  0.284220 0.727750 1 6 1.000000
0  -1.330751 -4.754332 65.140800  -0.624041 -0.110233 0.773577  0.285960 0.702740 1 6 1.000000
0  -0.826912 -4.971447 65.426117  -0.343599 -0.197541 0.918105  0.387410 0.698010 1 6 1.000000
frill
0  -0.826912 -4.971447 65.426117  -0.343599 -0.197541 0.918105  0.387410 0.698010 1 6 1.000000
0  -0.803556 -4.793148 65.460350  -0.323048 -0.130441 0.937350  0.387260 0.723360 1 6 1.000000
0  -1.271791 -4.588428 65.217087  -0.607989 -0.081269 0.789775  0.284220 0.727750 1 6 1.000000
frill
0  -1.234902 -4.487325 65.275604  -0.484659 0.173224 0.857379  0.282500 0.745190 1 6 1.000000
0  -1.271791 -4.588428 65.217087  -0.607989 -0.081269 0.789775  0.284220 0.727750 1 6 1.000000
0  -0.803556 -4.793148 65.460350  -0.323048 -0.130441 0.937350  0.387260 0.723360 1 6 1.000000
frill
0  -0.000028 -5.988129 64.823090  -0.000002 -0.825933 0.563768  0.500130 0.520980 1 6 1.000000
0  -0.000028 -5.839425 65.034912  -0.000004 -0.791433 0.611255  0.500130 0.560190 1 6 1.000000
0  -0.855170 -5.767387 64.933640  -0.306862 -0.727784 0.613324  0.382500 0.563760 1 6 1.000000
frill
0  -0.863834 -5.641149 65.082695  -0.333977 -0.645899 0.686494  0.384910 0.591830 1 6 1.000000
0  -0.855170 -5.767387 64.933640  -0.306862 -0.727784 0.613324  0.382500 0.563760 1 6 1.000000
0  -0.000028 -5.839425 65.034912  -0.000004 -0.791433 0.611255  0.500130 0.560190 1 6 1.000000
frill
0  -0.000028 -5.839425 65.034912  -0.000004 -0.791433 0.611255  0.500130 0.560190 1 6 1.000000
0  -0.000028 -5.717108 65.182190  -0.000001 -0.712689 0.701481  0.500130 0.588600 1 6 1.000000
0  -0.863834 -5.641149 65.082695  -0.333977 -0.645899 0.686494  0.384910 0.591830 1 6 1.000000
frill
0  -0.866471 -5.510277 65.195381  -0.349234 -0.525125 0.776066  0.386210 0.616290 1 6 1.000000
0  -0.863834 -5.641149 65.082695  -0.333977 -0.645899 0.686494  0.384910 0.591830 1 6 1.000000
0  -0.000028 -5.717108 65.182190  -0.000001 -0.712689 0.701481  0.500130 0.588600 1 6 1.000000
frill
0  -0.000028 -5.717108 65.182190  -0.000001 -0.712689 0.701481  0.500130 0.588600 1 6 1.000000
0  -0.000028 -5.589804 65.291313  0.000001 -0.587455 0.809257  0.500130 0.613080 1 6 1.000000
0  -0.866471 -5.510277 65.195381  -0.349234 -0.525125 0.776066  0.386210 0.616290 1 6 1.000000
frill
0  -0.861574 -5.350517 65.291313  -0.353417 -0.397687 0.846724  0.387020 0.642300 1 6 1.000000
0  -0.866471 -5.510277 65.195381  -0.349234 -0.525125 0.776066  0.386210 0.616290 1 6 1.000000
0  -0.000028 -5.589804 65.291313  0.000001 -0.587455 0.809257  0.500130 0.613080 1 6 1.000000
frill
0  -0.000028 -5.589804 65.291313  0.000001 -0.587455 0.809257  0.500130 0.613080 1 6 1.000000
0  -0.000028 -5.430044 65.389732  -0.000002 -0.457947 0.888980  0.500130 0.639940 1 6 1.000000
0  -0.861574 -5.350517 65.291313  -0.353417 -0.397687 0.846724  0.387020 0.642300 1 6 1.000000
frill
0  -0.848012 -5.169009 65.369049  -0.351411 -0.280912 0.893084  0.387410 0.669640 1 6 1.000000
0  -0.861574 -5.350517 65.291313  -0.353417 -0.397687 0.846724  0.387020 0.642300 1 6 1.000000
0  -0.000028 -5.430044 65.389732  -0.000002 -0.457947 0.888980  0.500130 0.639940 1 6 1.000000
frill
0  -0.000028 -5.430044 65.389732  -0.000002 -0.457947 0.888980  0.500130 0.639940 1 6 1.000000
0  -0.000028 -5.246748 65.471397  0.000002 -0.334229 0.942492  0.500130 0.668330 1 6 1.000000
0  -0.848012 -5.169009 65.369049  -0.351411 -0.280912 0.893084  0.387410 0.669640 1 6 1.000000
frill
0  -0.826912 -4.971447 65.426117  -0.343599 -0.197541 0.918105  0.387410 0.698010 1 6 1.000000
0  -0.848012 -5.169009 65.369049  -0.351411 -0.280912 0.893084  0.387410 0.669640 1 6 1.000000
0  -0.000028 -5.246748 65.471397  0.000002 -0.334229 0.942492  0.500130 0.668330 1 6 1.000000
frill
0  -0.000028 -5.246748 65.471397  0.000002 -0.334229 0.942492  0.500130 0.668330 1 6 1.000000
0  -0.000024 -5.045626 65.529892  -0.000002 -0.227720 0.973727  0.500130 0.697530 1 6 1.000000
0  -0.826912 -4.971447 65.426117  -0.343599 -0.197541 0.918105  0.387410 0.698010 1 6 1.000000
frill
0  -0.803556 -4.793148 65.460350  -0.323048 -0.130441 0.937350  0.387260 0.723360 1 6 1.000000
0  -0.826912 -4.971447 65.426117  -0.343599 -0.197541 0.918105  0.387410 0.698010 1 6 1.000000
0  -0.000024 -5.045626 65.529892  -0.000002 -0.227720 0.973727  0.500130 0.697530 1 6 1.000000
frill
0  -0.000024 -5.045626 65.529892  -0.000002 -0.227720 0.973727  0.500130 0.697530 1 6 1.000000
0  -0.000024 -4.864114 65.566254  0.000007 -0.115676 0.993287  0.500130 0.723480 1 6 1.000000
0  -0.803556 -4.793148 65.460350  -0.323048 -0.130441 0.937350  0.387260 0.723360 1 6 1.000000
frill
0  -0.782460 -4.669403 65.465698  -0.252578 0.096255 0.962777  0.387050 0.741000 1 6 1.000000
0  -0.803556 -4.793148 65.460350  -0.323048 -0.130441 0.937350  0.387260 0.723360 1 6 1.000000
0  -0.000024 -4.864114 65.566254  0.000007 -0.115676 0.993287  0.500130 0.723480 1 6 1.000000
frill
0  -0.000024 -4.864114 65.566254  0.000007 -0.115676 0.993287  0.500130 0.723480 1 6 1.000000
0  -0.000024 -4.738589 65.575539  -0.000002 0.095776 0.995403  0.500130 0.741120 1 6 1.000000
0  -0.782460 -4.669403 65.465698  -0.252578 0.096255 0.962777  0.387050 0.741000 1 6 1.000000
frill
0  0.782412 -4.669411 65.465698  0.252581 0.096261 0.962776  0.613210 0.741000 1 6 1.000000
0  -0.000024 -4.738589 65.575539  -0.000002 0.095776 0.995403  0.500130 0.741120 1 6 1.000000
0  -0.000024 -4.864114 65.566254  0.000007 -0.115676 0.993287  0.500130 0.723480 1 6 1.000000
frill
0  -0.000024 -4.864114 65.566254  0.000007 -0.115676 0.993287  0.500130 0.723480 1 6 1.000000
0  0.803508 -4.793152 65.460350  0.323048 -0.130434 0.937351  0.613000 0.723360 1 6 1.000000
0  0.782412 -4.669411 65.465698  0.252581 0.096261 0.962776  0.613210 0.741000 1 6 1.000000
frill
0  0.803508 -4.793152 65.460350  0.323048 -0.130434 0.937351  0.613000 0.723360 1 6 1.000000
0  -0.000024 -4.864114 65.566254  0.000007 -0.115676 0.993287  0.500130 0.723480 1 6 1.000000
0  -0.000024 -5.045626 65.529892  -0.000002 -0.227720 0.973727  0.500130 0.697530 1 6 1.000000
frill
0  -0.000024 -5.045626 65.529892  -0.000002 -0.227720 0.973727  0.500130 0.697530 1 6 1.000000
0  0.826864 -4.971454 65.426117  0.343600 -0.197544 0.918104  0.612850 0.698010 1 6 1.000000
0  0.803508 -4.793152 65.460350  0.323048 -0.130434 0.937351  0.613000 0.723360 1 6 1.000000
frill
0  0.826864 -4.971454 65.426117  0.343600 -0.197544 0.918104  0.612850 0.698010 1 6 1.000000
0  -0.000024 -5.045626 65.529892  -0.000002 -0.227720 0.973727  0.500130 0.697530 1 6 1.000000
0  -0.000028 -5.246748 65.471397  0.000002 -0.334229 0.942492  0.500130 0.668330 1 6 1.000000
frill
0  -0.000028 -5.246748 65.471397  0.000002 -0.334229 0.942492  0.500130 0.668330 1 6 1.000000
0  0.847956 -5.169014 65.369049  0.351414 -0.280913 0.893082  0.612850 0.669640 1 6 1.000000
0  0.826864 -4.971454 65.426117  0.343600 -0.197544 0.918104  0.612850 0.698010 1 6 1.000000
frill
0  0.847956 -5.169014 65.369049  0.351414 -0.280913 0.893082  0.612850 0.669640 1 6 1.000000
0  -0.000028 -5.246748 65.471397  0.000002 -0.334229 0.942492  0.500130 0.668330 1 6 1.000000
0  -0.000028 -5.430044 65.389732  -0.000002 -0.457947 0.888980  0.500130 0.639940 1 6 1.000000
frill
0  -0.000028 -5.430044 65.389732  -0.000002 -0.457947 0.888980  0.500130 0.639940 1 6 1.000000
0  0.861518 -5.350524 65.291313  0.353409 -0.397689 0.846727  0.613240 0.642300 1 6 1.000000
0  0.847956 -5.169014 65.369049  0.351414 -0.280913 0.893082  0.612850 0.669640 1 6 1.000000
frill
0  0.861518 -5.350524 65.291313  0.353409 -0.397689 0.846727  0.613240 0.642300 1 6 1.000000
0  -0.000028 -5.430044 65.389732  -0.000002 -0.457947 0.888980  0.500130 0.639940 1 6 1.000000
0  -0.000028 -5.589804 65.291313  0.000001 -0.587455 0.809257  0.500130 0.613080 1 6 1.000000
frill
0  -0.000028 -5.589804 65.291313  0.000001 -0.587455 0.809257  0.500130 0.613080 1 6 1.000000
0  0.866415 -5.510285 65.195381  0.349227 -0.525131 0.776066  0.614050 0.616290 1 6 1.000000
0  0.861518 -5.350524 65.291313  0.353409 -0.397689 0.846727  0.613240 0.642300 1 6 1.000000
frill
0  0.866415 -5.510285 65.195381  0.349227 -0.525131 0.776066  0.614050 0.616290 1 6 1.000000
0  -0.000028 -5.589804 65.291313  0.000001 -0.587455 0.809257  0.500130 0.613080 1 6 1.000000
0  -0.000028 -5.717108 65.182190  -0.000001 -0.712689 0.701481  0.500130 0.588600 1 6 1.000000
frill
0  -0.000028 -5.717108 65.182190  -0.000001 -0.712689 0.701481  0.500130 0.588600 1 6 1.000000
0  0.863778 -5.641153 65.082695  0.333974 -0.645898 0.686497  0.615350 0.591830 1 6 1.000000
0  0.866415 -5.510285 65.195381  0.349227 -0.525131 0.776066  0.614050 0.616290 1 6 1.000000
frill
0  0.863778 -5.641153 65.082695  0.333974 -0.645898 0.686497  0.615350 0.591830 1 6 1.000000
0  -0.000028 -5.717108 65.182190  -0.000001 -0.712689 0.701481  0.500130 0.588600 1 6 1.000000
0  -0.000028 -5.839425 65.034912  -0.000004 -0.791433 0.611255  0.500130 0.560190 1 6 1.000000
frill
0  -0.000028 -5.839425 65.034912  -0.000004 -0.791433 0.611255  0.500130 0.560190 1 6 1.000000
0  0.855114 -5.767396 64.933640  0.306864 -0.727779 0.613329  0.617760 0.563760 1 6 1.000000
0  0.863778 -5.641153 65.082695  0.333974 -0.645898 0.686497  0.615350 0.591830 1 6 1.000000
frill
0  0.855114 -5.767396 64.933640  0.306864 -0.727779 0.613329  0.617760 0.563760 1 6 1.000000
0  -0.000028 -5.839425 65.034912  -0.000004 -0.791433 0.611255  0.500130 0.560190 1 6 1.000000
0  -0.000028 -5.988129 64.823090  -0.000002 -0.825933 0.563768  0.500130 0.520980 1 6 1.000000
frill
0  -0.000028 -5.988129 64.823090  -0.000002 -0.825933 0.563768  0.500130 0.520980 1 6 1.000000
0  0.842682 -5.917167 64.730736  0.278175 -0.773501 0.569487  0.621930 0.526720 1 6 1.000000
0  0.855114 -5.767396 64.933640  0.306864 -0.727779 0.613329  0.617760 0.563760 1 6 1.000000
frill
0  -0.803556 -4.793148 65.460350  -0.323048 -0.130441 0.937350  0.387260 0.723360 1 6 1.000000
0  -0.782460 -4.669403 65.465698  -0.252578 0.096255 0.962777  0.387050 0.741000 1 6 1.000000
0  -1.234902 -4.487325 65.275604  -0.484659 0.173224 0.857379  0.282500 0.745190 1 6 1.000000
frill
0  -1.203605 -4.424611 65.260185  -0.574638 0.275319 0.770707  0.281240 0.756050 1 6 1.000000
0  -1.234902 -4.487325 65.275604  -0.484659 0.173224 0.857379  0.282500 0.745190 1 6 1.000000
0  -0.782460 -4.669403 65.465698  -0.252578 0.096255 0.962777  0.387050 0.741000 1 6 1.000000
frill
0  -0.782460 -4.669403 65.465698  -0.252578 0.096255 0.962777  0.387050 0.741000 1 6 1.000000
0  -0.764001 -4.598083 65.447868  -0.262775 -0.230527 0.936913  0.386850 0.751950 1 6 1.000000
0  -1.203605 -4.424611 65.260185  -0.574638 0.275319 0.770707  0.281240 0.756050 1 6 1.000000
frill
0  -0.764001 -4.598083 65.447868  -0.262775 -0.230527 0.936913  0.386850 0.751950 1 6 1.000000
0  -0.782460 -4.669403 65.465698  -0.252578 0.096255 0.962777  0.387050 0.741000 1 6 1.000000
0  -0.000024 -4.738589 65.575539  -0.000002 0.095776 0.995403  0.500130 0.741120 1 6 1.000000
frill
0  -0.000024 -4.738589 65.575539  -0.000002 0.095776 0.995403  0.500130 0.741120 1 6 1.000000
0  -0.000024 -4.666200 65.560555  -0.000040 -0.334236 0.942490  0.500130 0.751690 1 6 1.000000
0  -0.764001 -4.598083 65.447868  -0.262775 -0.230527 0.936913  0.386850 0.751950 1 6 1.000000
frill
0  0.763953 -4.598089 65.447868  0.262699 -0.230542 0.936931  0.613410 0.751950 1 6 1.000000
0  -0.000024 -4.666200 65.560555  -0.000040 -0.334236 0.942490  0.500130 0.751690 1 6 1.000000
0  -0.000024 -4.738589 65.575539  -0.000002 0.095776 0.995403  0.500130 0.741120 1 6 1.000000
frill
0  -0.000024 -4.738589 65.575539  -0.000002 0.095776 0.995403  0.500130 0.741120 1 6 1.000000
0  0.782412 -4.669411 65.465698  0.252581 0.096261 0.962776  0.613210 0.741000 1 6 1.000000
0  0.763953 -4.598089 65.447868  0.262699 -0.230542 0.936931  0.613410 0.751950 1 6 1.000000
frill
0  1.203557 -4.424617 65.260185  0.574654 0.275324 0.770694  0.719020 0.756050 1 6 1.000000
0  0.763953 -4.598089 65.447868  0.262699 -0.230542 0.936931  0.613410 0.751950 1 6 1.000000
0  0.782412 -4.669411 65.465698  0.252581 0.096261 0.962776  0.613210 0.741000 1 6 1.000000
frill
0  0.782412 -4.669411 65.465698  0.252581 0.096261 0.962776  0.613210 0.741000 1 6 1.000000
0  1.234854 -4.487334 65.275604  0.484631 0.173254 0.857389  0.717760 0.745190 1 6 1.000000
0  1.203557 -4.424617 65.260185  0.574654 0.275324 0.770694  0.719020 0.756050 1 6 1.000000
frill
0  1.234854 -4.487334 65.275604  0.484631 0.173254 0.857389  0.717760 0.745190 1 6 1.000000
0  0.782412 -4.669411 65.465698  0.252581 0.096261 0.962776  0.613210 0.741000 1 6 1.000000
0  0.803508 -4.793152 65.460350  0.323048 -0.130434 0.937351  0.613000 0.723360 1 6 1.000000
frill
0  0.803508 -4.793152 65.460350  0.323048 -0.130434 0.937351  0.613000 0.723360 1 6 1.000000
0  1.271743 -4.588436 65.217087  0.607988 -0.081275 0.789776  0.716040 0.727750 1 6 1.000000
0  1.234854 -4.487334 65.275604  0.484631 0.173254 0.857389  0.717760 0.745190 1 6 1.000000
frill
0  1.271743 -4.588436 65.217087  0.607988 -0.081275 0.789776  0.716040 0.727750 1 6 1.000000
0  0.803508 -4.793152 65.460350  0.323048 -0.130434 0.937351  0.613000 0.723360 1 6 1.000000
0  0.826864 -4.971454 65.426117  0.343600 -0.197544 0.918104  0.612850 0.698010 1 6 1.000000
frill
0  0.826864 -4.971454 65.426117  0.343600 -0.197544 0.918104  0.612850 0.698010 1 6 1.000000
0  1.330703 -4.754341 65.140800  0.624041 -0.110237 0.773577  0.714300 0.702740 1 6 1.000000
0  1.271743 -4.588436 65.217087  0.607988 -0.081275 0.789776  0.716040 0.727750 1 6 1.000000
frill
0  1.330703 -4.754341 65.140800  0.624041 -0.110237 0.773577  0.714300 0.702740 1 6 1.000000
0  0.826864 -4.971454 65.426117  0.343600 -0.197544 0.918104  0.612850 0.698010 1 6 1.000000
0  0.847956 -5.169014 65.369049  0.351414 -0.280913 0.893082  0.612850 0.669640 1 6 1.000000
frill
0  0.847956 -5.169014 65.369049  0.351414 -0.280913 0.893082  0.612850 0.669640 1 6 1.000000
0  1.397976 -4.935128 65.059296  0.632995 -0.146161 0.760233  0.713180 0.674960 1 6 1.000000
0  1.330703 -4.754341 65.140800  0.624041 -0.110237 0.773577  0.714300 0.702740 1 6 1.000000
frill
0  1.397976 -4.935128 65.059296  0.632995 -0.146161 0.760233  0.713180 0.674960 1 6 1.000000
0  0.847956 -5.169014 65.369049  0.351414 -0.280913 0.893082  0.612850 0.669640 1 6 1.000000
0  0.861518 -5.350524 65.291313  0.353409 -0.397689 0.846727  0.613240 0.642300 1 6 1.000000
frill
0  0.861518 -5.350524 65.291313  0.353409 -0.397689 0.846727  0.613240 0.642300 1 6 1.000000
0  1.450045 -5.101854 64.978912  0.642500 -0.226881 0.731928  0.713480 0.648270 1 6 1.000000
0  1.397976 -4.935128 65.059296  0.632995 -0.146161 0.760233  0.713180 0.674960 1 6 1.000000
frill
0  1.450045 -5.101854 64.978912  0.642500 -0.226881 0.731928  0.713480 0.648270 1 6 1.000000
0  0.861518 -5.350524 65.291313  0.353409 -0.397689 0.846727  0.613240 0.642300 1 6 1.000000
0  0.866415 -5.510285 65.195381  0.349227 -0.525131 0.776066  0.614050 0.616290 1 6 1.000000
frill
0  0.866415 -5.510285 65.195381  0.349227 -0.525131 0.776066  0.614050 0.616290 1 6 1.000000
0  1.485942 -5.256252 64.883003  0.648260 -0.337414 0.682577  0.714520 0.622390 1 6 1.000000
0  1.450045 -5.101854 64.978912  0.642500 -0.226881 0.731928  0.713480 0.648270 1 6 1.000000
frill
0  1.485942 -5.256252 64.883003  0.648260 -0.337414 0.682577  0.714520 0.622390 1 6 1.000000
0  0.866415 -5.510285 65.195381  0.349227 -0.525131 0.776066  0.614050 0.616290 1 6 1.000000
0  0.863778 -5.641153 65.082695  0.333974 -0.645898 0.686497  0.615350 0.591830 1 6 1.000000
frill
0  0.863778 -5.641153 65.082695  0.333974 -0.645898 0.686497  0.615350 0.591830 1 6 1.000000
0  1.505025 -5.398203 64.782310  0.638410 -0.441903 0.630202  0.715760 0.597770 1 6 1.000000
0  1.485942 -5.256252 64.883003  0.648260 -0.337414 0.682577  0.714520 0.622390 1 6 1.000000
frill
0  1.505025 -5.398203 64.782310  0.638410 -0.441903 0.630202  0.715760 0.597770 1 6 1.000000
0  0.863778 -5.641153 65.082695  0.333974 -0.645898 0.686497  0.615350 0.591830 1 6 1.000000
0  0.855114 -5.767396 64.933640  0.306864 -0.727779 0.613329  0.617760 0.563760 1 6 1.000000
frill
0  0.855114 -5.767396 64.933640  0.306864 -0.727779 0.613329  0.617760 0.563760 1 6 1.000000
0  1.511202 -5.543545 64.661392  0.607370 -0.517746 0.602529  0.717830 0.571170 1 6 1.000000
0  1.505025 -5.398203 64.782310  0.638410 -0.441903 0.630202  0.715760 0.597770 1 6 1.000000
frill
0  1.511202 -5.543545 64.661392  0.607370 -0.517746 0.602529  0.717830 0.571170 1 6 1.000000
0  0.855114 -5.767396 64.933640  0.306864 -0.727779 0.613329  0.617760 0.563760 1 6 1.000000
0  0.842682 -5.917167 64.730736  0.278175 -0.773501 0.569487  0.621930 0.526720 1 6 1.000000
frill
0  0.842682 -5.917167 64.730736  0.278175 -0.773501 0.569487  0.621930 0.526720 1 6 1.000000
0  1.503467 -5.709133 64.508057  0.565293 -0.585300 0.581264  0.721230 0.539060 1 6 1.000000
0  1.511202 -5.543545 64.661392  0.607370 -0.517746 0.602529  0.717830 0.571170 1 6 1.000000
frill
0  1.503467 -5.709133 64.508057  0.565293 -0.585300 0.581264  0.721230 0.539060 1 6 1.000000
0  0.842682 -5.917167 64.730736  0.278175 -0.773501 0.569487  0.621930 0.526720 1 6 1.000000
0  0.829120 -6.038767 64.549576  0.250281 -0.876066 0.412151  0.625950 0.493410 1 6 1.000000
frill
0  0.829120 -6.038767 64.549576  0.250281 -0.876066 0.412151  0.625950 0.493410 1 6 1.000000
0  1.480110 -5.839295 64.373352  0.535987 -0.748744 0.390000  0.724710 0.511940 1 6 1.000000
0  1.503467 -5.709133 64.508057  0.565293 -0.585300 0.581264  0.721230 0.539060 1 6 1.000000
frill
0  0.763953 -4.598089 65.447868  0.262730 -0.230455 0.936944  0.613410 0.751950 1 6 1.000000
0  1.203557 -4.424617 65.260185  0.574722 0.275363 0.770629  0.719020 0.756050 1 6 1.000000
0  1.180453 -4.403813 65.164970  -0.438116 0.872534 0.216193  0.719110 0.762100 1 6 1.000000
frill
0  1.462099 -4.112199 64.827744  -0.862966 0.505208 -0.007408  0.835640 0.771120 1 6 1.000000
0  1.180453 -4.403813 65.164970  -0.438116 0.872534 0.216193  0.719110 0.762100 1 6 1.000000
0  1.203557 -4.424617 65.260185  0.574722 0.275363 0.770629  0.719020 0.756050 1 6 1.000000
frill
0  1.203557 -4.424617 65.260185  0.574722 0.275363 0.770629  0.719020 0.756050 1 6 1.000000
0  1.498946 -4.111209 64.913673  0.562112 0.460007 0.687330  0.835390 0.764550 1 6 1.000000
0  1.462099 -4.112199 64.827744  -0.862966 0.505208 -0.007408  0.835640 0.771120 1 6 1.000000
frill
0  1.498946 -4.111209 64.913673  0.562054 0.460109 0.687310  0.835390 0.764550 1 6 1.000000
0  1.203557 -4.424617 65.260185  0.574654 0.275324 0.770694  0.719020 0.756050 1 6 1.000000
0  1.234854 -4.487334 65.275604  0.484631 0.173254 0.857389  0.717760 0.745190 1 6 1.000000
frill
0  1.234854 -4.487334 65.275604  0.484631 0.173254 0.857389  0.717760 0.745190 1 6 1.000000
0  1.553652 -4.168286 64.923790  0.592860 0.438501 0.675451  0.834110 0.752530 1 6 1.000000
0  1.498946 -4.111209 64.913673  0.562054 0.460109 0.687310  0.835390 0.764550 1 6 1.000000
frill
0  1.553652 -4.168286 64.923790  0.592860 0.438501 0.675451  0.834110 0.752530 1 6 1.000000
0  1.234854 -4.487334 65.275604  0.484631 0.173254 0.857389  0.717760 0.745190 1 6 1.000000
0  1.271743 -4.588436 65.217087  0.607988 -0.081275 0.789776  0.716040 0.727750 1 6 1.000000
frill
0  1.271743 -4.588436 65.217087  0.607988 -0.081275 0.789776  0.716040 0.727750 1 6 1.000000
0  1.635320 -4.272470 64.871307  0.738676 0.221119 0.636761  0.832310 0.734570 1 6 1.000000
0  1.553652 -4.168286 64.923790  0.592860 0.438501 0.675451  0.834110 0.752530 1 6 1.000000
frill
0  1.635320 -4.272470 64.871307  0.738676 0.221119 0.636761  0.832310 0.734570 1 6 1.000000
0  1.271743 -4.588436 65.217087  0.607988 -0.081275 0.789776  0.716040 0.727750 1 6 1.000000
0  1.330703 -4.754341 65.140800  0.624041 -0.110237 0.773577  0.714300 0.702740 1 6 1.000000
frill
0  1.330703 -4.754341 65.140800  0.624041 -0.110237 0.773577  0.714300 0.702740 1 6 1.000000
0  1.720586 -4.402946 64.780647  0.765589 0.137642 0.628434  0.830300 0.711160 1 6 1.000000
0  1.635320 -4.272470 64.871307  0.738676 0.221119 0.636761  0.832310 0.734570 1 6 1.000000
frill
0  1.720586 -4.402946 64.780647  0.765589 0.137642 0.628434  0.830300 0.711160 1 6 1.000000
0  1.330703 -4.754341 65.140800  0.624041 -0.110237 0.773577  0.714300 0.702740 1 6 1.000000
0  1.397976 -4.935128 65.059296  0.632995 -0.146161 0.760233  0.713180 0.674960 1 6 1.000000
frill
0  1.397976 -4.935128 65.059296  0.632995 -0.146161 0.760233  0.713180 0.674960 1 6 1.000000
0  1.799350 -4.525970 64.687752  0.779961 0.083731 0.620202  0.828340 0.685020 1 6 1.000000
0  1.720586 -4.402946 64.780647  0.765589 0.137642 0.628434  0.830300 0.711160 1 6 1.000000
frill
0  1.799350 -4.525970 64.687752  0.779961 0.083731 0.620202  0.828340 0.685020 1 6 1.000000
0  1.397976 -4.935128 65.059296  0.632995 -0.146161 0.760233  0.713180 0.674960 1 6 1.000000
0  1.450045 -5.101854 64.978912  0.642500 -0.226881 0.731928  0.713480 0.648270 1 6 1.000000
frill
0  1.450045 -5.101854 64.978912  0.642500 -0.226881 0.731928  0.713480 0.648270 1 6 1.000000
0  1.882860 -4.678559 64.590080  0.798304 0.019789 0.601929  0.826800 0.658710 1 6 1.000000
0  1.799350 -4.525970 64.687752  0.779961 0.083731 0.620202  0.828340 0.685020 1 6 1.000000
frill
0  1.882860 -4.678559 64.590080  0.798304 0.019789 0.601929  0.826800 0.658710 1 6 1.000000
0  1.450045 -5.101854 64.978912  0.642500 -0.226881 0.731928  0.713480 0.648270 1 6 1.000000
0  1.485942 -5.256252 64.883003  0.648260 -0.337414 0.682577  0.714520 0.622390 1 6 1.000000
frill
0  1.485942 -5.256252 64.883003  0.648260 -0.337414 0.682577  0.714520 0.622390 1 6 1.000000
0  1.951476 -4.819860 64.492630  0.818758 -0.066645 0.570258  0.825230 0.633220 1 6 1.000000
0  1.882860 -4.678559 64.590080  0.798304 0.019789 0.601929  0.826800 0.658710 1 6 1.000000
frill
0  1.951476 -4.819860 64.492630  0.818758 -0.066645 0.570258  0.825230 0.633220 1 6 1.000000
0  1.485942 -5.256252 64.883003  0.648260 -0.337414 0.682577  0.714520 0.622390 1 6 1.000000
0  1.505025 -5.398203 64.782310  0.638410 -0.441903 0.630202  0.715760 0.597770 1 6 1.000000
frill
0  1.505025 -5.398203 64.782310  0.638410 -0.441903 0.630202  0.715760 0.597770 1 6 1.000000
0  1.991393 -4.967429 64.390755  0.826846 -0.149835 0.542102  0.823210 0.609880 1 6 1.000000
0  1.951476 -4.819860 64.492630  0.818758 -0.066645 0.570258  0.825230 0.633220 1 6 1.000000
frill
0  1.991393 -4.967429 64.390755  0.826846 -0.149835 0.542102  0.823210 0.609880 1 6 1.000000
0  1.505025 -5.398203 64.782310  0.638410 -0.441903 0.630202  0.715760 0.597770 1 6 1.000000
0  1.511202 -5.543545 64.661392  0.607370 -0.517746 0.602529  0.717830 0.571170 1 6 1.000000
frill
0  1.511202 -5.543545 64.661392  0.607370 -0.517746 0.602529  0.717830 0.571170 1 6 1.000000
0  2.011016 -5.119025 64.297318  0.815080 -0.203331 0.542496  0.820630 0.586630 1 6 1.000000
0  1.991393 -4.967429 64.390755  0.826846 -0.149835 0.542102  0.823210 0.609880 1 6 1.000000
frill
0  2.011016 -5.119025 64.297318  0.815080 -0.203331 0.542496  0.820630 0.586630 1 6 1.000000
0  1.511202 -5.543545 64.661392  0.607370 -0.517746 0.602529  0.717830 0.571170 1 6 1.000000
0  1.503467 -5.709133 64.508057  0.565293 -0.585300 0.581264  0.721230 0.539060 1 6 1.000000
frill
0  1.503467 -5.709133 64.508057  0.565293 -0.585300 0.581264  0.721230 0.539060 1 6 1.000000
0  2.016808 -5.287370 64.222878  0.800496 -0.264164 0.537981  0.817270 0.561480 1 6 1.000000
0  2.011016 -5.119025 64.297318  0.815080 -0.203331 0.542496  0.820630 0.586630 1 6 1.000000
frill
0  2.016808 -5.287370 64.222878  0.800496 -0.264164 0.537981  0.817270 0.561480 1 6 1.000000
0  1.503467 -5.709133 64.508057  0.565293 -0.585300 0.581264  0.721230 0.539060 1 6 1.000000
0  1.480110 -5.839295 64.373352  0.535987 -0.748744 0.390000  0.724710 0.511940 1 6 1.000000
frill
0  1.480110 -5.839295 64.373352  0.535987 -0.748744 0.390000  0.724710 0.511940 1 6 1.000000
0  2.002906 -5.419111 64.161232  0.814302 -0.403373 0.417376  0.814840 0.541670 1 6 1.000000
0  2.016808 -5.287370 64.222878  0.800496 -0.264164 0.537981  0.817270 0.561480 1 6 1.000000
frill
0  1.635320 -4.272470 64.871307  0.738676 0.221119 0.636761  0.832310 0.734570 1 6 1.000000
0  1.800307 -3.727674 64.183792  0.721297 0.448145 0.528107  0.974590 0.743820 1 6 1.000000
0  1.700050 -3.666781 64.206398  0.574190 0.605192 0.551405  0.973470 0.760650 1 6 1.000000
frill
0  1.800307 -3.727674 64.183792  0.721297 0.448145 0.528107  0.974590 0.743820 1 6 1.000000
0  1.635320 -4.272470 64.871307  0.738676 0.221119 0.636761  0.832310 0.734570 1 6 1.000000
0  1.720586 -4.402946 64.780647  0.765589 0.137642 0.628434  0.830300 0.711160 1 6 1.000000
frill
0  1.720586 -4.402946 64.780647  0.765589 0.137642 0.628434  0.830300 0.711160 1 6 1.000000
0  1.917629 -3.832088 64.137688  0.786683 0.326793 0.523771  0.971390 0.722280 1 6 1.000000
0  1.800307 -3.727674 64.183792  0.721297 0.448145 0.528107  0.974590 0.743820 1 6 1.000000
frill
0  1.917629 -3.832088 64.137688  0.786683 0.326793 0.523771  0.971390 0.722280 1 6 1.000000
0  1.720586 -4.402946 64.780647  0.765589 0.137642 0.628434  0.830300 0.711160 1 6 1.000000
0  1.799350 -4.525970 64.687752  0.779961 0.083731 0.620202  0.828340 0.685020 1 6 1.000000
frill
0  1.799350 -4.525970 64.687752  0.779961 0.083731 0.620202  0.828340 0.685020 1 6 1.000000
0  2.037331 -3.966590 64.069397  0.820006 0.237539 0.520736  0.966280 0.697730 1 6 1.000000
0  1.917629 -3.832088 64.137688  0.786683 0.326793 0.523771  0.971390 0.722280 1 6 1.000000
frill
0  2.037331 -3.966590 64.069397  0.820006 0.237539 0.520736  0.966280 0.697730 1 6 1.000000
0  1.799350 -4.525970 64.687752  0.779961 0.083731 0.620202  0.828340 0.685020 1 6 1.000000
0  1.882860 -4.678559 64.590080  0.798304 0.019789 0.601929  0.826800 0.658710 1 6 1.000000
frill
0  1.882860 -4.678559 64.590080  0.798304 0.019789 0.601929  0.826800 0.658710 1 6 1.000000
0  2.144874 -4.115679 63.970306  0.845416 0.165383 0.507858  0.961720 0.672190 1 6 1.000000
0  2.037331 -3.966590 64.069397  0.820006 0.237539 0.520736  0.966280 0.697730 1 6 1.000000
frill
0  2.144874 -4.115679 63.970306  0.845416 0.165383 0.507858  0.961720 0.672190 1 6 1.000000
0  1.882860 -4.678559 64.590080  0.798304 0.019789 0.601929  0.826800 0.658710 1 6 1.000000
0  1.951476 -4.819860 64.492630  0.818758 -0.066645 0.570258  0.825230 0.633220 1 6 1.000000
frill
0  1.951476 -4.819860 64.492630  0.818758 -0.066645 0.570258  0.825230 0.633220 1 6 1.000000
0  2.232257 -4.263331 63.882191  0.868243 0.090701 0.487779  0.957660 0.648380 1 6 1.000000
0  2.144874 -4.115679 63.970306  0.845416 0.165383 0.507858  0.961720 0.672190 1 6 1.000000
frill
0  2.232257 -4.263331 63.882191  0.868243 0.090701 0.487779  0.957660 0.648380 1 6 1.000000
0  1.951476 -4.819860 64.492630  0.818758 -0.066645 0.570258  0.825230 0.633220 1 6 1.000000
0  1.991393 -4.967429 64.390755  0.826846 -0.149835 0.542102  0.823210 0.609880 1 6 1.000000
frill
0  1.991393 -4.967429 64.390755  0.826846 -0.149835 0.542102  0.823210 0.609880 1 6 1.000000
0  2.296236 -4.387448 63.809837  0.879962 0.016118 0.474771  0.954180 0.629310 1 6 1.000000
0  2.232257 -4.263331 63.882191  0.868243 0.090701 0.487779  0.957660 0.648380 1 6 1.000000
frill
0  2.296236 -4.387448 63.809837  0.879962 0.016118 0.474771  0.954180 0.629310 1 6 1.000000
0  1.991393 -4.967429 64.390755  0.826846 -0.149835 0.542102  0.823210 0.609880 1 6 1.000000
0  2.011016 -5.119025 64.297318  0.815080 -0.203331 0.542496  0.820630 0.586630 1 6 1.000000
frill
0  2.011016 -5.119025 64.297318  0.815080 -0.203331 0.542496  0.820630 0.586630 1 6 1.000000
0  2.338841 -4.478889 63.762314  0.874881 -0.030634 0.483367  0.951540 0.615660 1 6 1.000000
0  2.296236 -4.387448 63.809837  0.879962 0.016118 0.474771  0.954180 0.629310 1 6 1.000000
frill
0  2.338841 -4.478889 63.762314  0.874881 -0.030634 0.483367  0.951540 0.615660 1 6 1.000000
0  2.011016 -5.119025 64.297318  0.815080 -0.203331 0.542496  0.820630 0.586630 1 6 1.000000
0  2.016808 -5.287370 64.222878  0.800496 -0.264164 0.537981  0.817270 0.561480 1 6 1.000000
frill
0  2.016808 -5.287370 64.222878  0.800496 -0.264164 0.537981  0.817270 0.561480 1 6 1.000000
0  2.361364 -4.530858 63.734119  0.874999 -0.077607 0.477863  0.949570 0.606910 1 6 1.000000
0  2.338841 -4.478889 63.762314  0.874881 -0.030634 0.483367  0.951540 0.615660 1 6 1.000000
frill
0  2.361364 -4.530858 63.734119  0.874999 -0.077607 0.477863  0.949570 0.606910 1 6 1.000000
0  2.016808 -5.287370 64.222878  0.800496 -0.264164 0.537981  0.817270 0.561480 1 6 1.000000
0  2.002906 -5.419111 64.161232  0.814302 -0.403373 0.417376  0.814840 0.541670 1 6 1.000000
frill
0  2.002906 -5.419111 64.161232  0.814302 -0.403373 0.417376  0.814840 0.541670 1 6 1.000000
0  2.366149 -4.556572 63.729214  0.826827 -0.149775 0.542148  0.945770 0.596740 1 6 1.000000
0  2.361364 -4.530858 63.734119  0.874999 -0.077607 0.477863  0.949570 0.606910 1 6 1.000000
frill
0  2.366149 -4.556572 63.729214  0.826827 -0.149775 0.542148  0.945770 0.596740 1 6 1.000000
0  2.002906 -5.419111 64.161232  0.814302 -0.403373 0.417376  0.814840 0.541670 1 6 1.000000
0  1.977225 -5.458224 64.121956  0.741872 -0.552125 0.380505  0.815400 0.533660 1 6 1.000000
frill
0  -1.180501 -4.403808 65.164970  0.438129 0.872524 0.216204  0.281150 0.762100 1 6 1.000000
0  -1.171574 -4.406021 65.136246  0.522301 0.851085 0.053442  0.281850 0.767870 1 6 1.000000
0  -1.457373 -4.120479 64.800179  0.900862 0.415433 -0.125949  0.165110 0.776850 1 6 1.000000
frill
0  -1.171574 -4.406021 65.136246  0.522301 0.851085 0.053442  0.281850 0.767870 1 6 1.000000
0  -1.180501 -4.403808 65.164970  0.438129 0.872524 0.216204  0.281150 0.762100 1 6 1.000000
0  -0.750062 -4.573834 65.417915  0.132961 0.937879 0.320475  0.386850 0.757920 1 6 1.000000
frill
0  -0.750062 -4.573834 65.417915  0.132961 0.937879 0.320475  0.386850 0.757920 1 6 1.000000
0  -0.738761 -4.573481 65.382248  0.205061 0.976790 0.061898  0.387010 0.763760 1 6 1.000000
0  -1.171574 -4.406021 65.136246  0.522301 0.851085 0.053442  0.281850 0.767870 1 6 1.000000
frill
0  -0.738761 -4.573481 65.382248  0.205061 0.976790 0.061898  0.387010 0.763760 1 6 1.000000
0  -0.750062 -4.573834 65.417915  0.132961 0.937879 0.320475  0.386850 0.757920 1 6 1.000000
0  -0.000024 -4.640522 65.531311  0.000032 0.930689 0.365813  0.500130 0.757600 1 6 1.000000
frill
0  -0.000024 -4.640522 65.531311  0.000032 0.930689 0.365813  0.500130 0.757600 1 6 1.000000
0  -0.000024 -4.638027 65.494583  0.000017 0.998655 0.051837  0.500130 0.763510 1 6 1.000000
0  -0.738761 -4.573481 65.382248  0.205061 0.976790 0.061898  0.387010 0.763760 1 6 1.000000
frill
0  0.738713 -4.573484 65.382248  -0.205090 0.976785 0.061886  0.613250 0.763760 1 6 1.000000
0  -0.000024 -4.638027 65.494583  0.000017 0.998655 0.051837  0.500130 0.763510 1 6 1.000000
0  -0.000024 -4.640522 65.531311  0.000032 0.930689 0.365813  0.500130 0.757600 1 6 1.000000
frill
0  -0.000024 -4.640522 65.531311  0.000032 0.930689 0.365813  0.500130 0.757600 1 6 1.000000
0  0.750014 -4.573842 65.417915  -0.132964 0.937883 0.320463  0.613410 0.757920 1 6 1.000000
0  0.738713 -4.573484 65.382248  -0.205090 0.976785 0.061886  0.613250 0.763760 1 6 1.000000
frill
0  1.171526 -4.406028 65.136246  -0.522309 0.851081 0.053435  0.718410 0.767870 1 6 1.000000
0  0.738713 -4.573484 65.382248  -0.205090 0.976785 0.061886  0.613250 0.763760 1 6 1.000000
0  0.750014 -4.573842 65.417915  -0.132964 0.937883 0.320463  0.613410 0.757920 1 6 1.000000
frill
0  0.750014 -4.573842 65.417915  -0.132964 0.937883 0.320463  0.613410 0.757920 1 6 1.000000
0  1.180453 -4.403813 65.164970  -0.438116 0.872534 0.216193  0.719110 0.762100 1 6 1.000000
0  1.171526 -4.406028 65.136246  -0.522309 0.851081 0.053435  0.718410 0.767870 1 6 1.000000
frill
0  1.457325 -4.120492 64.800179  -0.900848 0.415458 -0.125966  0.835150 0.776850 1 6 1.000000
0  1.171526 -4.406028 65.136246  -0.522309 0.851081 0.053435  0.718410 0.767870 1 6 1.000000
0  1.180453 -4.403813 65.164970  -0.438116 0.872534 0.216193  0.719110 0.762100 1 6 1.000000
frill
0  1.180453 -4.403813 65.164970  -0.438116 0.872534 0.216193  0.719110 0.762100 1 6 1.000000
0  1.462099 -4.112199 64.827744  -0.862966 0.505208 -0.007408  0.835640 0.771120 1 6 1.000000
0  1.457325 -4.120492 64.800179  -0.900848 0.415458 -0.125966  0.835150 0.776850 1 6 1.000000
frill
0  1.627815 -3.742095 64.285683  -0.963369 0.043436 -0.264639  0.938990 0.782300 1 6 1.000000
0  1.457325 -4.120492 64.800179  -0.900848 0.415458 -0.125966  0.835150 0.776850 1 6 1.000000
0  1.462099 -4.112199 64.827744  -0.862966 0.505208 -0.007408  0.835640 0.771120 1 6 1.000000
frill
0  1.462099 -4.112199 64.827744  -0.862966 0.505208 -0.007408  0.835640 0.771120 1 6 1.000000
0  1.645526 -3.679783 64.210930  -0.973291 0.160242 -0.164402  0.968890 0.778590 1 6 1.000000
0  1.627815 -3.742095 64.285683  -0.963369 0.043436 -0.264639  0.938990 0.782300 1 6 1.000000
frill
0  1.645526 -3.679783 64.210930  -0.973291 0.160242 -0.164402  0.968890 0.778590 1 6 1.000000
0  1.462099 -4.112199 64.827744  -0.862966 0.505208 -0.007408  0.835640 0.771120 1 6 1.000000
0  1.498946 -4.111209 64.913673  0.562112 0.460007 0.687330  0.835390 0.764550 1 6 1.000000
frill
0  1.498946 -4.111209 64.913673  0.562112 0.460007 0.687330  0.835390 0.764550 1 6 1.000000
0  1.634485 -3.640718 64.217865  0.544083 0.693894 0.471684  0.970930 0.771640 1 6 1.000000
0  1.645526 -3.679783 64.210930  -0.973291 0.160242 -0.164402  0.968890 0.778590 1 6 1.000000
frill
0  1.634485 -3.640718 64.217865  0.544049 0.693855 0.471780  0.970930 0.771640 1 6 1.000000
0  1.498946 -4.111209 64.913673  0.562054 0.460109 0.687310  0.835390 0.764550 1 6 1.000000
0  1.553652 -4.168286 64.923790  0.592860 0.438501 0.675451  0.834110 0.752530 1 6 1.000000
frill
0  1.553652 -4.168286 64.923790  0.592860 0.438501 0.675451  0.834110 0.752530 1 6 1.000000
0  1.700050 -3.666781 64.206398  0.574190 0.605192 0.551405  0.973470 0.760650 1 6 1.000000
0  1.634485 -3.640718 64.217865  0.544049 0.693855 0.471780  0.970930 0.771640 1 6 1.000000
frill
0  1.700050 -3.666781 64.206398  0.574190 0.605192 0.551405  0.973470 0.760650 1 6 1.000000
0  1.553652 -4.168286 64.923790  0.592860 0.438501 0.675451  0.834110 0.752530 1 6 1.000000
0  1.635320 -4.272470 64.871307  0.738676 0.221119 0.636761  0.832310 0.734570 1 6 1.000000
frill
0  -1.450101 -5.101845 64.978912  -0.642522 -0.226902 0.731903  0.286780 0.648270 1 6 1.000000
0  -1.398024 -4.935118 65.059296  -0.632994 -0.146155 0.760235  0.287080 0.674960 1 6 1.000000
0  -1.799398 -4.525955 64.687752  -0.779960 0.083734 0.620202  0.171920 0.685020 1 6 1.000000
frill
0  -1.720634 -4.402934 64.780647  -0.765588 0.137659 0.628431  0.169960 0.711160 1 6 1.000000
0  -1.799398 -4.525955 64.687752  -0.779960 0.083734 0.620202  0.171920 0.685020 1 6 1.000000
0  -1.398024 -4.935118 65.059296  -0.632994 -0.146155 0.760235  0.287080 0.674960 1 6 1.000000
frill
0  -1.398024 -4.935118 65.059296  -0.632994 -0.146155 0.760235  0.287080 0.674960 1 6 1.000000
0  -1.330751 -4.754332 65.140800  -0.624041 -0.110233 0.773577  0.285960 0.702740 1 6 1.000000
0  -1.720634 -4.402934 64.780647  -0.765588 0.137659 0.628431  0.169960 0.711160 1 6 1.000000
frill
0  -1.635368 -4.272457 64.871307  -0.738672 0.221122 0.636765  0.167950 0.734570 1 6 1.000000
0  -1.720634 -4.402934 64.780647  -0.765588 0.137659 0.628431  0.169960 0.711160 1 6 1.000000
0  -1.330751 -4.754332 65.140800  -0.624041 -0.110233 0.773577  0.285960 0.702740 1 6 1.000000
frill
0  -1.330751 -4.754332 65.140800  -0.624041 -0.110233 0.773577  0.285960 0.702740 1 6 1.000000
0  -1.271791 -4.588428 65.217087  -0.607989 -0.081269 0.789775  0.284220 0.727750 1 6 1.000000
0  -1.635368 -4.272457 64.871307  -0.738672 0.221122 0.636765  0.167950 0.734570 1 6 1.000000
frill
0  -1.553700 -4.168278 64.923790  -0.592852 0.438500 0.675458  0.166150 0.752530 1 6 1.000000
0  -1.635368 -4.272457 64.871307  -0.738672 0.221122 0.636765  0.167950 0.734570 1 6 1.000000
0  -1.271791 -4.588428 65.217087  -0.607989 -0.081269 0.789775  0.284220 0.727750 1 6 1.000000
frill
0  -1.271791 -4.588428 65.217087  -0.607989 -0.081269 0.789775  0.284220 0.727750 1 6 1.000000
0  -1.234902 -4.487325 65.275604  -0.484659 0.173224 0.857379  0.282500 0.745190 1 6 1.000000
0  -1.553700 -4.168278 64.923790  -0.592852 0.438500 0.675458  0.166150 0.752530 1 6 1.000000
frill
0  -1.498994 -4.111198 64.913673  -0.562078 0.460131 0.687276  0.164870 0.764550 1 6 1.000000
0  -1.553700 -4.168278 64.923790  -0.592852 0.438500 0.675458  0.166150 0.752530 1 6 1.000000
0  -1.234902 -4.487325 65.275604  -0.484659 0.173224 0.857379  0.282500 0.745190 1 6 1.000000
frill
0  -1.234902 -4.487325 65.275604  -0.484659 0.173224 0.857379  0.282500 0.745190 1 6 1.000000
0  -1.203605 -4.424611 65.260185  -0.574638 0.275319 0.770707  0.281240 0.756050 1 6 1.000000
0  -1.498994 -4.111198 64.913673  -0.562078 0.460131 0.687276  0.164870 0.764550 1 6 1.000000
frill
0  -1.462147 -4.112191 64.827744  0.862958 0.505221 -0.007402  0.164620 0.771120 1 6 1.000000
0  -1.498994 -4.111198 64.913673  -0.562137 0.460052 0.687280  0.164870 0.764550 1 6 1.000000
0  -1.203605 -4.424611 65.260185  -0.574696 0.275366 0.770647  0.281240 0.756050 1 6 1.000000
frill
0  -1.203605 -4.424611 65.260185  -0.574696 0.275366 0.770647  0.281240 0.756050 1 6 1.000000
0  -1.180501 -4.403808 65.164970  0.438129 0.872524 0.216204  0.281150 0.762100 1 6 1.000000
0  -1.462147 -4.112191 64.827744  0.862958 0.505221 -0.007402  0.164620 0.771120 1 6 1.000000
frill
0  -1.180501 -4.403808 65.164970  0.438129 0.872524 0.216204  0.281150 0.762100 1 6 1.000000
0  -1.203605 -4.424611 65.260185  -0.574696 0.275366 0.770647  0.281240 0.756050 1 6 1.000000
0  -0.764001 -4.598083 65.447868  -0.262803 -0.230433 0.936929  0.386850 0.751950 1 6 1.000000
frill
0  -0.764001 -4.598083 65.447868  -0.262803 -0.230433 0.936929  0.386850 0.751950 1 6 1.000000
0  -0.750062 -4.573834 65.417915  0.132961 0.937879 0.320475  0.386850 0.757920 1 6 1.000000
0  -1.180501 -4.403808 65.164970  0.438129 0.872524 0.216204  0.281150 0.762100 1 6 1.000000
frill
0  -0.750062 -4.573834 65.417915  0.132961 0.937879 0.320475  0.386850 0.757920 1 6 1.000000
0  -0.764001 -4.598083 65.447868  -0.262803 -0.230433 0.936929  0.386850 0.751950 1 6 1.000000
0  -0.000024 -4.666200 65.560555  -0.000029 -0.334126 0.942529  0.500130 0.751690 1 6 1.000000
frill
0  -0.000024 -4.666200 65.560555  -0.000029 -0.334126 0.942529  0.500130 0.751690 1 6 1.000000
0  -0.000024 -4.640522 65.531311  0.000032 0.930689 0.365813  0.500130 0.757600 1 6 1.000000
0  -0.750062 -4.573834 65.417915  0.132961 0.937879 0.320475  0.386850 0.757920 1 6 1.000000
frill
0  0.750014 -4.573842 65.417915  -0.132964 0.937883 0.320463  0.613410 0.757920 1 6 1.000000
0  -0.000024 -4.640522 65.531311  0.000032 0.930689 0.365813  0.500130 0.757600 1 6 1.000000
0  -0.000024 -4.666200 65.560555  -0.000029 -0.334126 0.942529  0.500130 0.751690 1 6 1.000000
frill
0  -0.000024 -4.666200 65.560555  -0.000029 -0.334126 0.942529  0.500130 0.751690 1 6 1.000000
0  0.763953 -4.598089 65.447868  0.262730 -0.230455 0.936944  0.613410 0.751950 1 6 1.000000
0  0.750014 -4.573842 65.417915  -0.132964 0.937883 0.320463  0.613410 0.757920 1 6 1.000000
frill
0  1.180453 -4.403813 65.164970  -0.438116 0.872534 0.216193  0.719110 0.762100 1 6 1.000000
0  0.750014 -4.573842 65.417915  -0.132964 0.937883 0.320463  0.613410 0.757920 1 6 1.000000
0  0.763953 -4.598089 65.447868  0.262730 -0.230455 0.936944  0.613410 0.751950 1 6 1.000000
frill
0  -1.991441 -4.967415 64.390755  -0.826844 -0.149815 0.542111  0.177050 0.609880 1 6 1.000000
0  -1.951524 -4.819847 64.492630  -0.818760 -0.066637 0.570256  0.175030 0.633220 1 6 1.000000
0  -2.232305 -4.263316 63.882191  -0.868222 0.090730 0.487810  0.042600 0.648380 1 6 1.000000
frill
0  -2.144922 -4.115665 63.970306  -0.845416 0.165387 0.507858  0.038540 0.672190 1 6 1.000000
0  -2.232305 -4.263316 63.882191  -0.868222 0.090730 0.487810  0.042600 0.648380 1 6 1.000000
0  -1.951524 -4.819847 64.492630  -0.818760 -0.066637 0.570256  0.175030 0.633220 1 6 1.000000
frill
0  -1.951524 -4.819847 64.492630  -0.818760 -0.066637 0.570256  0.175030 0.633220 1 6 1.000000
0  -1.882908 -4.678545 64.590080  -0.798280 0.019824 0.601960  0.173460 0.658710 1 6 1.000000
0  -2.144922 -4.115665 63.970306  -0.845416 0.165387 0.507858  0.038540 0.672190 1 6 1.000000
frill
0  -2.037379 -3.966575 64.069397  -0.819999 0.237555 0.520738  0.033980 0.697730 1 6 1.000000
0  -2.144922 -4.115665 63.970306  -0.845416 0.165387 0.507858  0.038540 0.672190 1 6 1.000000
0  -1.882908 -4.678545 64.590080  -0.798280 0.019824 0.601960  0.173460 0.658710 1 6 1.000000
frill
0  -1.882908 -4.678545 64.590080  -0.798280 0.019824 0.601960  0.173460 0.658710 1 6 1.000000
0  -1.799398 -4.525955 64.687752  -0.779960 0.083734 0.620202  0.171920 0.685020 1 6 1.000000
0  -2.037379 -3.966575 64.069397  -0.819999 0.237555 0.520738  0.033980 0.697730 1 6 1.000000
frill
0  -1.917670 -3.832075 64.137688  -0.786653 0.326829 0.523794  0.028870 0.722280 1 6 1.000000
0  -2.037379 -3.966575 64.069397  -0.819999 0.237555 0.520738  0.033980 0.697730 1 6 1.000000
0  -1.799398 -4.525955 64.687752  -0.779960 0.083734 0.620202  0.171920 0.685020 1 6 1.000000
frill
0  -1.799398 -4.525955 64.687752  -0.779960 0.083734 0.620202  0.171920 0.685020 1 6 1.000000
0  -1.720634 -4.402934 64.780647  -0.765588 0.137659 0.628431  0.169960 0.711160 1 6 1.000000
0  -1.917670 -3.832075 64.137688  -0.786653 0.326829 0.523794  0.028870 0.722280 1 6 1.000000
frill
0  -1.800347 -3.727660 64.183792  -0.721275 0.448167 0.528118  0.025670 0.743820 1 6 1.000000
0  -1.917670 -3.832075 64.137688  -0.786653 0.326829 0.523794  0.028870 0.722280 1 6 1.000000
0  -1.720634 -4.402934 64.780647  -0.765588 0.137659 0.628431  0.169960 0.711160 1 6 1.000000
frill
0  -1.720634 -4.402934 64.780647  -0.765588 0.137659 0.628431  0.169960 0.711160 1 6 1.000000
0  -1.635368 -4.272457 64.871307  -0.738672 0.221122 0.636765  0.167950 0.734570 1 6 1.000000
0  -1.800347 -3.727660 64.183792  -0.721275 0.448167 0.528118  0.025670 0.743820 1 6 1.000000
frill
0  -1.700090 -3.666768 64.206398  -0.574170 0.605197 0.551421  0.026790 0.760650 1 6 1.000000
0  -1.800347 -3.727660 64.183792  -0.721275 0.448167 0.528118  0.025670 0.743820 1 6 1.000000
0  -1.635368 -4.272457 64.871307  -0.738672 0.221122 0.636765  0.167950 0.734570 1 6 1.000000
frill
0  -1.635368 -4.272457 64.871307  -0.738672 0.221122 0.636765  0.167950 0.734570 1 6 1.000000
0  -1.553700 -4.168278 64.923790  -0.592852 0.438500 0.675458  0.166150 0.752530 1 6 1.000000
0  -1.700090 -3.666768 64.206398  -0.574170 0.605197 0.551421  0.026790 0.760650 1 6 1.000000
frill
0  -1.634525 -3.640705 64.217865  -0.544026 0.693873 0.471780  0.029330 0.771640 1 6 1.000000
0  -1.700090 -3.666768 64.206398  -0.574170 0.605197 0.551421  0.026790 0.760650 1 6 1.000000
0  -1.553700 -4.168278 64.923790  -0.592852 0.438500 0.675458  0.166150 0.752530 1 6 1.000000
frill
0  -1.553700 -4.168278 64.923790  -0.592852 0.438500 0.675458  0.166150 0.752530 1 6 1.000000
0  -1.498994 -4.111198 64.913673  -0.562078 0.460131 0.687276  0.164870 0.764550 1 6 1.000000
0  -1.634525 -3.640705 64.217865  -0.544026 0.693873 0.471780  0.029330 0.771640 1 6 1.000000
frill
0  -1.645566 -3.679772 64.210930  0.973288 0.160219 -0.164439  0.031370 0.778590 1 6 1.000000
0  -1.634525 -3.640705 64.217865  -0.544079 0.693861 0.471736  0.029330 0.771640 1 6 1.000000
0  -1.498994 -4.111198 64.913673  -0.562137 0.460052 0.687280  0.164870 0.764550 1 6 1.000000
frill
0  -1.498994 -4.111198 64.913673  -0.562137 0.460052 0.687280  0.164870 0.764550 1 6 1.000000
0  -1.462147 -4.112191 64.827744  0.862958 0.505221 -0.007402  0.164620 0.771120 1 6 1.000000
0  -1.645566 -3.679772 64.210930  0.973288 0.160219 -0.164439  0.031370 0.778590 1 6 1.000000
frill
0  -1.627856 -3.742082 64.285683  0.963407 0.043498 -0.264489  0.061270 0.782300 1 6 1.000000
0  -1.645566 -3.679772 64.210930  0.973288 0.160219 -0.164439  0.031370 0.778590 1 6 1.000000
0  -1.462147 -4.112191 64.827744  0.862958 0.505221 -0.007402  0.164620 0.771120 1 6 1.000000
frill
0  -1.462147 -4.112191 64.827744  0.862958 0.505221 -0.007402  0.164620 0.771120 1 6 1.000000
0  -1.457373 -4.120479 64.800179  0.900862 0.415433 -0.125949  0.165110 0.776850 1 6 1.000000
0  -1.627856 -3.742082 64.285683  0.963407 0.043498 -0.264489  0.061270 0.782300 1 6 1.000000
frill
0  -1.457373 -4.120479 64.800179  0.900862 0.415433 -0.125949  0.165110 0.776850 1 6 1.000000
0  -1.462147 -4.112191 64.827744  0.862958 0.505221 -0.007402  0.164620 0.771120 1 6 1.000000
0  -1.180501 -4.403808 65.164970  0.438129 0.872524 0.216204  0.281150 0.762100 1 6 1.000000
frill2
0  1.498946 -4.111209 64.913673  0.562173 0.459989 0.687293  0.844920 0.991930 1 6 1.000000
0  1.319821 -3.666773 64.935959  0.764112 0.399939 0.506143  0.908610 0.920670 1 6 1.000000
0  1.276331 -3.793932 65.010887  0.722390 0.318858 0.613581  0.876770 0.920670 1 6 1.000000
frill2
0  1.498946 -4.111209 64.913673  0.562173 0.459989 0.687293  0.844920 0.991930 1 6 1.000000
0  1.634485 -3.640718 64.217865  0.544205 0.693800 0.471681  0.972300 0.991930 1 6 1.000000
0  1.319821 -3.666773 64.935959  0.764112 0.399939 0.506143  0.908610 0.920670 1 6 1.000000
frill2
0  1.319821 -3.666773 64.935959  0.764112 0.399939 0.506143  0.908610 0.920670 1 6 1.000000
0  1.634485 -3.640718 64.217865  0.544205 0.693800 0.471681  0.972300 0.991930 1 6 1.000000
0  1.334507 -3.564679 64.718849  0.749598 0.552132 0.365038  0.940450 0.920670 1 6 1.000000
frill2
0  1.634485 -3.640718 64.217865  0.544205 0.693800 0.471681  0.972300 0.991930 1 6 1.000000
0  1.341701 -3.433514 64.540741  0.778823 0.489632 0.392039  0.972300 0.920670 1 6 1.000000
0  1.334507 -3.564679 64.718849  0.749598 0.552132 0.365038  0.940450 0.920670 1 6 1.000000
frill2
0  -0.380882 -4.376993 65.714607  -0.153329 -0.788846 0.595158  0.437480 0.920670 1 6 1.000000
0  -0.000024 -4.666200 65.560555  0.000030 -0.334223 0.942494  0.500260 0.991930 1 6 1.000000
0  -0.190641 -4.394824 65.859390  -0.294988 -0.793444 0.532381  0.468870 0.920670 1 6 1.000000
frill2
0  -0.000024 -4.666200 65.560555  0.000030 -0.334223 0.942494  0.500260 0.991930 1 6 1.000000
0  -0.000024 -4.412652 65.888985  -0.000002 -0.791564 0.611087  0.500260 0.920670 1 6 1.000000
0  -0.190641 -4.394824 65.859390  -0.294988 -0.793444 0.532381  0.468870 0.920670 1 6 1.000000
frill2
0  -0.000024 -4.412652 65.888985  -0.000002 -0.791564 0.611087  0.500260 0.920670 1 6 1.000000
0  -0.000024 -4.666200 65.560555  0.000030 -0.334223 0.942494  0.500260 0.991930 1 6 1.000000
0  0.190594 -4.394824 65.859390  0.294985 -0.793446 0.532379  0.531650 0.920670 1 6 1.000000
frill2
0  -0.000024 -4.666200 65.560555  0.000030 -0.334223 0.942494  0.500260 0.991930 1 6 1.000000
0  0.380834 -4.376995 65.714607  0.153320 -0.788845 0.595161  0.563040 0.920670 1 6 1.000000
0  0.190594 -4.394824 65.859390  0.294985 -0.793446 0.532379  0.531650 0.920670 1 6 1.000000
frill2
0  -0.000024 -4.666200 65.560555  0.000030 -0.334223 0.942494  0.500260 0.991930 1 6 1.000000
0  0.763953 -4.598089 65.447868  0.262735 -0.230509 0.936929  0.625820 0.991930 1 6 1.000000
0  0.380834 -4.376995 65.714607  0.153320 -0.788845 0.595161  0.563040 0.920670 1 6 1.000000
frill2
0  0.380834 -4.376995 65.714607  0.153320 -0.788845 0.595161  0.563040 0.920670 1 6 1.000000
0  0.763953 -4.598089 65.447868  0.262735 -0.230509 0.936929  0.625820 0.991930 1 6 1.000000
0  0.571452 -4.359163 65.799835  -0.000007 -0.825931 0.563771  0.594430 0.920670 1 6 1.000000
frill2
0  0.763953 -4.598089 65.447868  0.262735 -0.230509 0.936929  0.625820 0.991930 1 6 1.000000
0  0.761316 -4.341334 65.770241  0.489876 -0.679979 0.545573  0.625820 0.920670 1 6 1.000000
0  0.571452 -4.359163 65.799835  -0.000007 -0.825931 0.563771  0.594430 0.920670 1 6 1.000000
frill2
0  0.761316 -4.341334 65.770241  0.489876 -0.679979 0.545573  0.625820 0.920670 1 6 1.000000
0  0.763953 -4.598089 65.447868  0.262735 -0.230509 0.936929  0.625820 0.991930 1 6 1.000000
0  0.901077 -4.293551 65.573746  0.495602 -0.512881 0.700950  0.651920 0.920670 1 6 1.000000
frill2
0  0.763953 -4.598089 65.447868  0.262735 -0.230509 0.936929  0.625820 0.991930 1 6 1.000000
0  1.053761 -4.291601 65.546692  0.638391 -0.286748 0.714305  0.678020 0.920670 1 6 1.000000
0  0.901077 -4.293551 65.573746  0.495602 -0.512881 0.700950  0.651920 0.920670 1 6 1.000000
frill2
0  0.763953 -4.598089 65.447868  0.262735 -0.230509 0.936929  0.625820 0.991930 1 6 1.000000
0  1.203557 -4.424617 65.260185  0.574683 0.275286 0.770686  0.730230 0.991930 1 6 1.000000
0  1.053761 -4.291601 65.546692  0.638391 -0.286748 0.714305  0.678020 0.920670 1 6 1.000000
frill2
0  1.053761 -4.291601 65.546692  0.638391 -0.286748 0.714305  0.678020 0.920670 1 6 1.000000
0  1.203557 -4.424617 65.260185  0.574683 0.275286 0.770686  0.730230 0.991930 1 6 1.000000
0  1.026611 -4.207205 65.508507  0.879612 0.263897 0.395778  0.704130 0.920670 1 6 1.000000
frill2
0  1.203557 -4.424617 65.260185  0.574683 0.275286 0.770686  0.730230 0.991930 1 6 1.000000
0  1.074990 -4.126536 65.408859  0.733272 -0.022687 0.679557  0.730230 0.920670 1 6 1.000000
0  1.026611 -4.207205 65.508507  0.879612 0.263897 0.395778  0.704130 0.920670 1 6 1.000000
frill2
0  1.074990 -4.126536 65.408859  0.733272 -0.022687 0.679557  0.730230 0.920670 1 6 1.000000
0  1.203557 -4.424617 65.260185  0.574683 0.275286 0.770686  0.730230 0.991930 1 6 1.000000
0  1.123312 -4.112099 65.377846  0.673688 -0.102568 0.731864  0.758900 0.920670 1 6 1.000000
frill2
0  1.203557 -4.424617 65.260185  0.574683 0.275286 0.770686  0.730230 0.991930 1 6 1.000000
0  1.184234 -4.033733 65.310249  0.735316 -0.231961 0.636793  0.787570 0.920670 1 6 1.000000
0  1.123312 -4.112099 65.377846  0.673688 -0.102568 0.731864  0.758900 0.920670 1 6 1.000000
frill2
0  1.203557 -4.424617 65.260185  0.574683 0.275286 0.770686  0.730230 0.991930 1 6 1.000000
0  1.498946 -4.111209 64.913673  0.562173 0.459989 0.687293  0.844920 0.991930 1 6 1.000000
0  1.184234 -4.033733 65.310249  0.735316 -0.231961 0.636793  0.787570 0.920670 1 6 1.000000
frill2
0  1.184234 -4.033733 65.310249  0.735316 -0.231961 0.636793  0.787570 0.920670 1 6 1.000000
0  1.498946 -4.111209 64.913673  0.562173 0.459989 0.687293  0.844920 0.991930 1 6 1.000000
0  1.232440 -3.971520 65.325150  0.837286 -0.012665 0.546618  0.816250 0.920670 1 6 1.000000
frill2
0  1.498946 -4.111209 64.913673  0.562173 0.459989 0.687293  0.844920 0.991930 1 6 1.000000
0  1.239756 -3.890029 65.156631  0.778839 0.489615 0.392030  0.844920 0.920670 1 6 1.000000
0  1.232440 -3.971520 65.325150  0.837286 -0.012665 0.546618  0.816250 0.920670 1 6 1.000000
frill2
0  1.239756 -3.890029 65.156631  0.778839 0.489615 0.392030  0.844920 0.920670 1 6 1.000000
0  1.498946 -4.111209 64.913673  0.562173 0.459989 0.687293  0.844920 0.991930 1 6 1.000000
0  1.276331 -3.793932 65.010887  0.722390 0.318858 0.613581  0.876770 0.920670 1 6 1.000000
frill2
0  -1.341741 -3.433505 64.540741  -0.778828 0.489624 0.392040  0.028220 0.920670 1 6 1.000000
0  -1.634525 -3.640705 64.217865  -0.544148 0.693795 0.471753  0.028220 0.991930 1 6 1.000000
0  -1.334547 -3.564672 64.718849  -0.749595 0.552140 0.365033  0.060070 0.920670 1 6 1.000000
frill2
0  -1.634525 -3.640705 64.217865  -0.544148 0.693795 0.471753  0.028220 0.991930 1 6 1.000000
0  -1.319862 -3.666765 64.935959  -0.764110 0.399952 0.506137  0.091910 0.920670 1 6 1.000000
0  -1.334547 -3.564672 64.718849  -0.749595 0.552140 0.365033  0.060070 0.920670 1 6 1.000000
frill2
0  -1.634525 -3.640705 64.217865  -0.544148 0.693795 0.471753  0.028220 0.991930 1 6 1.000000
0  -1.498994 -4.111198 64.913673  -0.562168 0.460004 0.687287  0.155600 0.991930 1 6 1.000000
0  -1.319862 -3.666765 64.935959  -0.764110 0.399952 0.506137  0.091910 0.920670 1 6 1.000000
frill2
0  -1.319862 -3.666765 64.935959  -0.764110 0.399952 0.506137  0.091910 0.920670 1 6 1.000000
0  -1.498994 -4.111198 64.913673  -0.562168 0.460004 0.687287  0.155600 0.991930 1 6 1.000000
0  -1.276370 -3.793922 65.010887  -0.722389 0.318858 0.613583  0.123750 0.920670 1 6 1.000000
frill2
0  -1.498994 -4.111198 64.913673  -0.562168 0.460004 0.687287  0.155600 0.991930 1 6 1.000000
0  -1.239797 -3.890019 65.156631  -0.778836 0.489632 0.392014  0.155600 0.920670 1 6 1.000000
0  -1.276370 -3.793922 65.010887  -0.722389 0.318858 0.613583  0.123750 0.920670 1 6 1.000000
frill2
0  -1.239797 -3.890019 65.156631  -0.778836 0.489632 0.392014  0.155600 0.920670 1 6 1.000000
0  -1.498994 -4.111198 64.913673  -0.562168 0.460004 0.687287  0.155600 0.991930 1 6 1.000000
0  -1.232488 -3.971510 65.325150  -0.837292 -0.012699 0.546609  0.184270 0.920670 1 6 1.000000
frill2
0  -1.498994 -4.111198 64.913673  -0.562168 0.460004 0.687287  0.155600 0.991930 1 6 1.000000
0  -1.184282 -4.033726 65.310249  -0.735327 -0.231961 0.636780  0.212950 0.920670 1 6 1.000000
0  -1.232488 -3.971510 65.325150  -0.837292 -0.012699 0.546609  0.184270 0.920670 1 6 1.000000
frill2
0  -1.498994 -4.111198 64.913673  -0.562168 0.460004 0.687287  0.155600 0.991930 1 6 1.000000
0  -1.203605 -4.424611 65.260185  -0.574692 0.275294 0.770677  0.270290 0.991930 1 6 1.000000
0  -1.184282 -4.033726 65.310249  -0.735327 -0.231961 0.636780  0.212950 0.920670 1 6 1.000000
frill2
0  -1.184282 -4.033726 65.310249  -0.735327 -0.231961 0.636780  0.212950 0.920670 1 6 1.000000
0  -1.203605 -4.424611 65.260185  -0.574692 0.275294 0.770677  0.270290 0.991930 1 6 1.000000
0  -1.123360 -4.112091 65.377846  -0.673691 -0.102565 0.731862  0.241620 0.920670 1 6 1.000000
frill2
0  -1.203605 -4.424611 65.260185  -0.574692 0.275294 0.770677  0.270290 0.991930 1 6 1.000000
0  -1.075038 -4.126528 65.408859  -0.733281 -0.022664 0.679548  0.270290 0.920670 1 6 1.000000
0  -1.123360 -4.112091 65.377846  -0.673691 -0.102565 0.731862  0.241620 0.920670 1 6 1.000000
frill2
0  -1.075038 -4.126528 65.408859  -0.733281 -0.022664 0.679548  0.270290 0.920670 1 6 1.000000
0  -1.203605 -4.424611 65.260185  -0.574692 0.275294 0.770677  0.270290 0.991930 1 6 1.000000
0  -1.026659 -4.207200 65.508507  -0.879608 0.263903 0.395784  0.296390 0.920670 1 6 1.000000
frill2
0  -1.203605 -4.424611 65.260185  -0.574692 0.275294 0.770677  0.270290 0.991930 1 6 1.000000
0  -1.053809 -4.291593 65.546692  -0.638396 -0.286735 0.714307  0.322500 0.920670 1 6 1.000000
0  -1.026659 -4.207200 65.508507  -0.879608 0.263903 0.395784  0.296390 0.920670 1 6 1.000000
frill2
0  -1.203605 -4.424611 65.260185  -0.574692 0.275294 0.770677  0.270290 0.991930 1 6 1.000000
0  -0.764001 -4.598083 65.447868  -0.262849 -0.230531 0.936891  0.374700 0.991930 1 6 1.000000
0  -1.053809 -4.291593 65.546692  -0.638396 -0.286735 0.714307  0.322500 0.920670 1 6 1.000000
frill2
0  -1.053809 -4.291593 65.546692  -0.638396 -0.286735 0.714307  0.322500 0.920670 1 6 1.000000
0  -0.764001 -4.598083 65.447868  -0.262849 -0.230531 0.936891  0.374700 0.991930 1 6 1.000000
0  -0.901125 -4.293546 65.573746  -0.495613 -0.512873 0.700949  0.348600 0.920670 1 6 1.000000
frill2
0  -0.764001 -4.598083 65.447868  -0.262849 -0.230531 0.936891  0.374700 0.991930 1 6 1.000000
0  -0.761364 -4.341331 65.770241  -0.489879 -0.679971 0.545580  0.374700 0.920670 1 6 1.000000
0  -0.901125 -4.293546 65.573746  -0.495613 -0.512873 0.700949  0.348600 0.920670 1 6 1.000000
frill2
0  -0.761364 -4.341331 65.770241  -0.489879 -0.679971 0.545580  0.374700 0.920670 1 6 1.000000
0  -0.764001 -4.598083 65.447868  -0.262849 -0.230531 0.936891  0.374700 0.991930 1 6 1.000000
0  -0.571500 -4.359161 65.799835  -0.000002 -0.825930 0.563773  0.406090 0.920670 1 6 1.000000
frill2
0  -0.764001 -4.598083 65.447868  -0.262849 -0.230531 0.936891  0.374700 0.991930 1 6 1.000000
0  -0.380882 -4.376993 65.714607  -0.153329 -0.788846 0.595158  0.437480 0.920670 1 6 1.000000
0  -0.571500 -4.359161 65.799835  -0.000002 -0.825930 0.563773  0.406090 0.920670 1 6 1.000000
frill2
0  -0.764001 -4.598083 65.447868  -0.262849 -0.230531 0.936891  0.374700 0.991930 1 6 1.000000
0  -0.000024 -4.666200 65.560555  0.000030 -0.334223 0.942494  0.500260 0.991930 1 6 1.000000
0  -0.380882 -4.376993 65.714607  -0.153329 -0.788846 0.595158  0.437480 0.920670 1 6 1.000000
frill2
0  2.343569 -5.484237 63.531769  0.713242 -0.333706 0.616382  0.894700 0.920670 1 6 1.000000
0  1.977225 -5.458224 64.121956  0.741856 -0.552037 0.380664  0.817110 0.991930 1 6 1.000000
0  2.150297 -5.664154 63.554680  0.814285 -0.403327 0.417454  0.855910 0.920670 1 6 1.000000
frill2
0  2.366149 -4.556572 63.729214  0.826848 -0.149812 0.542106  0.972300 0.991930 1 6 1.000000
0  1.977225 -5.458224 64.121956  0.741856 -0.552037 0.380664  0.817110 0.991930 1 6 1.000000
0  2.343569 -5.484237 63.531769  0.713242 -0.333706 0.616382  0.894700 0.920670 1 6 1.000000
frill2
0  2.366149 -4.556572 63.729214  0.826848 -0.149812 0.542106  0.972300 0.991930 1 6 1.000000
0  2.343569 -5.484237 63.531769  0.713242 -0.333706 0.616382  0.894700 0.920670 1 6 1.000000
0  2.494877 -5.174172 63.498650  0.734553 -0.097598 0.671495  0.933500 0.920670 1 6 1.000000
frill2
0  2.588278 -4.746542 63.337933  0.879991 0.016081 0.474718  0.972300 0.920670 1 6 1.000000
0  2.366149 -4.556572 63.729214  0.826848 -0.149812 0.542106  0.972300 0.991930 1 6 1.000000
0  2.494877 -5.174172 63.498650  0.734553 -0.097598 0.671495  0.933500 0.920670 1 6 1.000000
frill2
0  -0.000028 -6.142180 64.535316  -0.000014 -0.884504 0.466533  0.500260 0.991930 1 6 1.000000
0  -0.411027 -6.355785 64.113098  -0.116282 -0.603403 0.788913  0.437480 0.920670 1 6 1.000000
0  -0.207225 -6.524815 64.194038  -0.374592 -0.495911 0.783424  0.468870 0.920670 1 6 1.000000
frill2
0  -0.000032 -6.543002 64.218300  -0.000010 -0.620341 0.784332  0.500260 0.920670 1 6 1.000000
0  -0.000028 -6.142180 64.535316  -0.000014 -0.884504 0.466533  0.500260 0.991930 1 6 1.000000
0  -0.207225 -6.524815 64.194038  -0.374592 -0.495911 0.783424  0.468870 0.920670 1 6 1.000000
frill2
0  -0.000028 -6.142180 64.535316  -0.000014 -0.884504 0.466533  0.500260 0.991930 1 6 1.000000
0  -0.000032 -6.543002 64.218300  -0.000010 -0.620341 0.784332  0.500260 0.920670 1 6 1.000000
0  0.207161 -6.524818 64.194038  0.374596 -0.495911 0.783422  0.531650 0.920670 1 6 1.000000
frill2
0  0.410963 -6.355785 64.113098  0.116280 -0.603407 0.788910  0.563040 0.920670 1 6 1.000000
0  -0.000028 -6.142180 64.535316  -0.000014 -0.884504 0.466533  0.500260 0.991930 1 6 1.000000
0  0.207161 -6.524818 64.194038  0.374596 -0.495911 0.783422  0.531650 0.920670 1 6 1.000000
frill2
0  0.814805 -6.066584 64.461845  0.250306 -0.876000 0.412275  0.625820 0.991930 1 6 1.000000
0  -0.000028 -6.142180 64.535316  -0.000014 -0.884504 0.466533  0.500260 0.991930 1 6 1.000000
0  0.410963 -6.355785 64.113098  0.116280 -0.603407 0.788910  0.563040 0.920670 1 6 1.000000
frill2
0  0.814805 -6.066584 64.461845  0.250306 -0.876000 0.412275  0.625820 0.991930 1 6 1.000000
0  0.410963 -6.355785 64.113098  0.116280 -0.603407 0.788910  0.563040 0.920670 1 6 1.000000
0  0.619663 -6.488089 64.145546  -0.131391 -0.555367 0.821160  0.594430 0.920670 1 6 1.000000
frill2
0  0.825349 -6.469544 64.121643  0.271733 -0.616659 0.738846  0.625820 0.920670 1 6 1.000000
0  0.814805 -6.066584 64.461845  0.250306 -0.876000 0.412275  0.625820 0.991930 1 6 1.000000
0  0.619663 -6.488089 64.145546  -0.131391 -0.555367 0.821160  0.594430 0.920670 1 6 1.000000
frill2
0  0.814805 -6.066584 64.461845  0.250306 -0.876000 0.412275  0.625820 0.991930 1 6 1.000000
0  0.825349 -6.469544 64.121643  0.271733 -0.616659 0.738846  0.625820 0.920670 1 6 1.000000
0  0.976412 -6.426755 64.073151  0.662869 -0.391404 0.638285  0.651920 0.920670 1 6 1.000000
frill2
0  1.078882 -6.206729 63.962963  0.343704 -0.577533 0.740488  0.678030 0.920670 1 6 1.000000
0  0.814805 -6.066584 64.461845  0.250306 -0.876000 0.412275  0.625820 0.991930 1 6 1.000000
0  0.976412 -6.426755 64.073151  0.662869 -0.391404 0.638285  0.651920 0.920670 1 6 1.000000
frill2
0  1.451847 -5.867532 64.304398  0.509759 -0.813216 0.280757  0.730230 0.991930 1 6 1.000000
0  0.814805 -6.066584 64.461845  0.250306 -0.876000 0.412275  0.625820 0.991930 1 6 1.000000
0  1.078882 -6.206729 63.962963  0.343704 -0.577533 0.740488  0.678030 0.920670 1 6 1.000000
frill2
0  1.451847 -5.867532 64.304398  0.509759 -0.813216 0.280757  0.730230 0.991930 1 6 1.000000
0  1.078882 -6.206729 63.962963  0.343704 -0.577533 0.740488  0.678030 0.920670 1 6 1.000000
0  1.258417 -6.340811 63.989128  0.008815 -0.556862 0.830558  0.704130 0.920670 1 6 1.000000
frill2
0  1.386667 -6.296950 63.947941  0.503739 -0.595733 0.625579  0.730230 0.920670 1 6 1.000000
0  1.451847 -5.867532 64.304398  0.509759 -0.813216 0.280757  0.730230 0.991930 1 6 1.000000
0  1.258417 -6.340811 63.989128  0.008815 -0.556862 0.830558  0.704130 0.920670 1 6 1.000000
frill2
0  1.451847 -5.867532 64.304398  0.509759 -0.813216 0.280757  0.730230 0.991930 1 6 1.000000
0  1.386667 -6.296950 63.947941  0.503739 -0.595733 0.625579  0.730230 0.920670 1 6 1.000000
0  1.504349 -6.225814 63.900574  0.823124 -0.367405 0.432991  0.751950 0.920670 1 6 1.000000
frill2
0  1.563912 -5.961143 63.787552  0.631982 -0.547968 0.548024  0.773670 0.920670 1 6 1.000000
0  1.451847 -5.867532 64.304398  0.509759 -0.813216 0.280757  0.730230 0.991930 1 6 1.000000
0  1.504349 -6.225814 63.900574  0.823124 -0.367405 0.432991  0.751950 0.920670 1 6 1.000000
frill2
0  1.977225 -5.458224 64.121956  0.741856 -0.552037 0.380664  0.817110 0.991930 1 6 1.000000
0  1.451847 -5.867532 64.304398  0.509759 -0.813216 0.280757  0.730230 0.991930 1 6 1.000000
0  1.563912 -5.961143 63.787552  0.631982 -0.547968 0.548024  0.773670 0.920670 1 6 1.000000
frill2
0  1.977225 -5.458224 64.121956  0.741856 -0.552037 0.380664  0.817110 0.991930 1 6 1.000000
0  1.563912 -5.961143 63.787552  0.631982 -0.547968 0.548024  0.773670 0.920670 1 6 1.000000
0  1.865469 -6.023377 63.768879  0.216976 -0.547724 0.808034  0.795390 0.920670 1 6 1.000000
frill2
0  2.055894 -5.916288 63.721985  0.753263 -0.354421 0.554058  0.817110 0.920670 1 6 1.000000
0  1.977225 -5.458224 64.121956  0.741856 -0.552037 0.380664  0.817110 0.991930 1 6 1.000000
0  1.865469 -6.023377 63.768879  0.216976 -0.547724 0.808034  0.795390 0.920670 1 6 1.000000
frill2
0  1.977225 -5.458224 64.121956  0.741856 -0.552037 0.380664  0.817110 0.991930 1 6 1.000000
0  2.055894 -5.916288 63.721985  0.753263 -0.354421 0.554058  0.817110 0.920670 1 6 1.000000
0  2.150297 -5.664154 63.554680  0.814285 -0.403327 0.417454  0.855910 0.920670 1 6 1.000000
frill2
0  -2.366196 -4.556554 63.729214  -0.826843 -0.149806 0.542115  0.028220 0.991930 1 6 1.000000
0  -2.588328 -4.746525 63.337933  -0.879991 0.016093 0.474718  0.028220 0.920670 1 6 1.000000
0  -2.494933 -5.174154 63.498650  -0.734574 -0.097588 0.671474  0.067020 0.920670 1 6 1.000000
frill2
0  -2.343624 -5.484221 63.531769  -0.713267 -0.333717 0.616346  0.105820 0.920670 1 6 1.000000
0  -2.366196 -4.556554 63.729214  -0.826843 -0.149806 0.542115  0.028220 0.991930 1 6 1.000000
0  -2.494933 -5.174154 63.498650  -0.734574 -0.097588 0.671474  0.067020 0.920670 1 6 1.000000
frill2
0  -1.977281 -5.458210 64.121956  -0.741807 -0.552055 0.380733  0.183410 0.991930 1 6 1.000000
0  -2.366196 -4.556554 63.729214  -0.826843 -0.149806 0.542115  0.028220 0.991930 1 6 1.000000
0  -2.343624 -5.484221 63.531769  -0.713267 -0.333717 0.616346  0.105820 0.920670 1 6 1.000000
frill2
0  -1.977281 -5.458210 64.121956  -0.741807 -0.552055 0.380733  0.183410 0.991930 1 6 1.000000
0  -2.343624 -5.484221 63.531769  -0.713267 -0.333717 0.616346  0.105820 0.920670 1 6 1.000000
0  -2.150353 -5.664136 63.554680  -0.814283 -0.403330 0.417453  0.144610 0.920670 1 6 1.000000
frill2
0  -2.055950 -5.916274 63.721985  -0.753264 -0.354421 0.554057  0.183410 0.920670 1 6 1.000000
0  -1.977281 -5.458210 64.121956  -0.741807 -0.552055 0.380733  0.183410 0.991930 1 6 1.000000
0  -2.150353 -5.664136 63.554680  -0.814283 -0.403330 0.417453  0.144610 0.920670 1 6 1.000000
frill2
0  -1.977281 -5.458210 64.121956  -0.741807 -0.552055 0.380733  0.183410 0.991930 1 6 1.000000
0  -2.055950 -5.916274 63.721985  -0.753264 -0.354421 0.554057  0.183410 0.920670 1 6 1.000000
0  -1.865525 -6.023365 63.768879  -0.217012 -0.547725 0.808024  0.205130 0.920670 1 6 1.000000
frill2
0  -1.563968 -5.961132 63.787548  -0.631983 -0.547965 0.548026  0.226850 0.920670 1 6 1.000000
0  -1.977281 -5.458210 64.121956  -0.741807 -0.552055 0.380733  0.183410 0.991930 1 6 1.000000
0  -1.865525 -6.023365 63.768879  -0.217012 -0.547725 0.808024  0.205130 0.920670 1 6 1.000000
frill2
0  -1.451903 -5.867521 64.304398  -0.509774 -0.813208 0.280757  0.270290 0.991930 1 6 1.000000
0  -1.977281 -5.458210 64.121956  -0.741807 -0.552055 0.380733  0.183410 0.991930 1 6 1.000000
0  -1.563968 -5.961132 63.787548  -0.631983 -0.547965 0.548026  0.226850 0.920670 1 6 1.000000
frill2
0  -1.451903 -5.867521 64.304398  -0.509774 -0.813208 0.280757  0.270290 0.991930 1 6 1.000000
0  -1.563968 -5.961132 63.787548  -0.631983 -0.547965 0.548026  0.226850 0.920670 1 6 1.000000
0  -1.504411 -6.225801 63.900574  -0.823129 -0.367399 0.432986  0.248570 0.920670 1 6 1.000000
frill2
0  -1.386729 -6.296940 63.947941  -0.503711 -0.595741 0.625594  0.270290 0.920670 1 6 1.000000
0  -1.451903 -5.867521 64.304398  -0.509774 -0.813208 0.280757  0.270290 0.991930 1 6 1.000000
0  -1.504411 -6.225801 63.900574  -0.823129 -0.367399 0.432986  0.248570 0.920670 1 6 1.000000
frill2
0  -1.451903 -5.867521 64.304398  -0.509774 -0.813208 0.280757  0.270290 0.991930 1 6 1.000000
0  -1.386729 -6.296940 63.947941  -0.503711 -0.595741 0.625594  0.270290 0.920670 1 6 1.000000
0  -1.258481 -6.340804 63.989128  0.008840 -0.556879 0.830547  0.296390 0.920670 1 6 1.000000
frill2
0  -1.078938 -6.206724 63.962967  -0.343692 -0.577529 0.740497  0.322490 0.920670 1 6 1.000000
0  -1.451903 -5.867521 64.304398  -0.509774 -0.813208 0.280757  0.270290 0.991930 1 6 1.000000
0  -1.258481 -6.340804 63.989128  0.008840 -0.556879 0.830547  0.296390 0.920670 1 6 1.000000
frill2
0  -0.814861 -6.066576 64.461845  -0.250308 -0.876018 0.412237  0.374700 0.991930 1 6 1.000000
0  -1.451903 -5.867521 64.304398  -0.509774 -0.813208 0.280757  0.270290 0.991930 1 6 1.000000
0  -1.078938 -6.206724 63.962967  -0.343692 -0.577529 0.740497  0.322490 0.920670 1 6 1.000000
frill2
0  -0.814861 -6.066576 64.461845  -0.250308 -0.876018 0.412237  0.374700 0.991930 1 6 1.000000
0  -1.078938 -6.206724 63.962967  -0.343692 -0.577529 0.740497  0.322490 0.920670 1 6 1.000000
0  -0.976476 -6.426744 64.073151  -0.662876 -0.391392 0.638285  0.348600 0.920670 1 6 1.000000
frill2
0  -0.825413 -6.469540 64.121643  -0.271833 -0.616637 0.738827  0.374700 0.920670 1 6 1.000000
0  -0.814861 -6.066576 64.461845  -0.250308 -0.876018 0.412237  0.374700 0.991930 1 6 1.000000
0  -0.976476 -6.426744 64.073151  -0.662876 -0.391392 0.638285  0.348600 0.920670 1 6 1.000000
frill2
0  -0.814861 -6.066576 64.461845  -0.250308 -0.876018 0.412237  0.374700 0.991930 1 6 1.000000
0  -0.825413 -6.469540 64.121643  -0.271833 -0.616637 0.738827  0.374700 0.920670 1 6 1.000000
0  -0.619727 -6.488083 64.145546  0.131364 -0.555380 0.821156  0.406090 0.920670 1 6 1.000000
frill2
0  -0.411027 -6.355785 64.113098  -0.116282 -0.603403 0.788913  0.437480 0.920670 1 6 1.000000
0  -0.814861 -6.066576 64.461845  -0.250308 -0.876018 0.412237  0.374700 0.991930 1 6 1.000000
0  -0.619727 -6.488083 64.145546  0.131364 -0.555380 0.821156  0.406090 0.920670 1 6 1.000000
frill2
0  -0.000028 -6.142180 64.535316  -0.000014 -0.884504 0.466533  0.500260 0.991930 1 6 1.000000
0  -0.814861 -6.066576 64.461845  -0.250308 -0.876018 0.412237  0.374700 0.991930 1 6 1.000000
0  -0.411027 -6.355785 64.113098  -0.116282 -0.603403 0.788913  0.437480 0.920670 1 6 1.000000
end
