// Created by Crowbar 0.74
version 1
nodes
  0 "ValveBiped.Bip01_Pelvis" -1
  1 "ValveBiped.Bip01_L_Thigh" 0
  2 "ValveBiped.Bip01_L_Calf" 1
  3 "ValveBiped.Bip01_L_Foot" 2
  4 "ValveBiped.Bip01_L_Toe0" 3
  5 "ValveBiped.Bip01_R_Thigh" 0
  6 "ValveBiped.Bip01_R_Calf" 5
  7 "ValveBiped.Bip01_R_Foot" 6
  8 "ValveBiped.Bip01_R_Toe0" 7
  9 "ValveBiped.Bip01_Spine" 0
  10 "ValveBiped.Bip01_Spine1" 9
  11 "ValveBiped.Bip01_Spine2" 10
  12 "ValveBiped.Bip01_Spine4" 11
  13 "ValveBiped.Bip01_Neck1" 12
  14 "ValveBiped.Bip01_Head1" 13
  15 "ValveBiped.Bip01_L_Clavicle" 12
  16 "ValveBiped.Bip01_L_UpperArm" 15
  17 "ValveBiped.Bip01_L_Forearm" 16
  18 "ValveBiped.Bip01_L_Hand" 17
  19 "ValveBiped.Bip01_L_Finger4" 18
  20 "ValveBiped.Bip01_L_Finger41" 19
  21 "ValveBiped.Bip01_L_Finger42" 20
  22 "ValveBiped.Bip01_L_Finger3" 18
  23 "ValveBiped.Bip01_L_Finger31" 22
  24 "ValveBiped.Bip01_L_Finger32" 23
  25 "ValveBiped.Bip01_L_Finger2" 18
  26 "ValveBiped.Bip01_L_Finger21" 25
  27 "ValveBiped.Bip01_L_Finger22" 26
  28 "ValveBiped.Bip01_L_Finger1" 18
  29 "ValveBiped.Bip01_L_Finger11" 28
  30 "ValveBiped.Bip01_L_Finger12" 29
  31 "ValveBiped.Bip01_L_Finger0" 18
  32 "ValveBiped.Bip01_L_Finger01" 31
  33 "ValveBiped.Bip01_L_Finger02" 32
  34 "ValveBiped.Bip01_R_Clavicle" 12
  35 "ValveBiped.Bip01_R_UpperArm" 34
  36 "ValveBiped.Bip01_R_Forearm" 35
  37 "ValveBiped.Bip01_R_Hand" 36
  38 "ValveBiped.Bip01_R_Finger4" 37
  39 "ValveBiped.Bip01_R_Finger41" 38
  40 "ValveBiped.Bip01_R_Finger42" 39
  41 "ValveBiped.Bip01_R_Finger3" 37
  42 "ValveBiped.Bip01_R_Finger31" 41
  43 "ValveBiped.Bip01_R_Finger32" 42
  44 "ValveBiped.Bip01_R_Finger2" 37
  45 "ValveBiped.Bip01_R_Finger21" 44
  46 "ValveBiped.Bip01_R_Finger22" 45
  47 "ValveBiped.Bip01_R_Finger1" 37
  48 "ValveBiped.Bip01_R_Finger11" 47
  49 "ValveBiped.Bip01_R_Finger12" 48
  50 "ValveBiped.Bip01_R_Finger0" 37
  51 "ValveBiped.Bip01_R_Finger01" 50
  52 "ValveBiped.Bip01_R_Finger02" 51
  53 "ValveBiped.attachment_bandage_legL" 2
  54 "ValveBiped.attachment_bandage_armL" 17
  55 "ValveBiped.attachment_armL_T" 17
  56 "ValveBiped.attachment_armR_T" 36
  57 "ValveBiped.weapon_bone" 37
  58 "ValveBiped.forward" 14
  59 "ValveBiped.L_weapon_bone" 18
  60 "ValveBiped.weapon_bone_Clip" 57
  61 "ValveBiped.weapon_bone_extra" 57
  62 "ValveBiped.weapon_bone_Clip2" 18
  63 "ValveBiped.weapon_bone_Clip2_Bullets" 62
  64 "ValveBiped.weapon_bolt_l" 18
  65 "ValveBiped.weapon_bone_Clip_Bullets" 60
  66 "ValveBiped.weapon_bolt" 57
  67 "ValveBiped.weapon_bolt_opposite" 57
  68 "ValveBiped.weapon_charger" 57
  69 "ValveBiped.Bip01_L_Knee" 1
  70 "ValveBiped.Bip01_R_Knee" 5
  71 "ValveBiped.Bip01_L_Ulna" 17
  72 "ValveBiped.Bip01_L_Wrist" 17
  73 "ValveBiped.Bip01_L_Elbow" 16
  74 "ValveBiped.Bip01_L_Bicep" 16
  75 "ValveBiped.hlp_jacket_arm_front1_L" 15
  76 "ValveBiped.hlp_jacket_arm_top_L" 15
  77 "ValveBiped.hlp_jacket_arm_back_L" 15
  78 "ValveBiped.Bip01_R_Wrist" 36
  79 "ValveBiped.Bip01_R_Ulna" 36
  80 "ValveBiped.Bip01_R_Elbow" 35
  81 "ValveBiped.Bip01_R_Bicep" 35
  82 "ValveBiped.hlp_jacket_arm_front1_R" 34
  83 "ValveBiped.hlp_jacket_arm_top_R" 34
  84 "ValveBiped.hlp_jacket_arm_back_R" 34
  85 "ValveBiped.hlp_jacket_armpit_R" 11
  86 "ValveBiped.jiggy_jacket_right" 9
  87 "ValveBiped.jiggy_jacket_left" 9
end
skeleton
  time 0
    0 1.367188 0.000000 0.000000 0.007040 -0.077374 -1.556360
    1 0.000000 0.000000 0.000000 -0.063782 -0.005362 0.002948
    2 0.000000 0.000000 0.000000 -0.000032 0.000010 -0.000200
    3 0.000000 0.000000 0.000000 0.025207 -0.032530 -0.007095
    4 0.000000 0.000000 0.000000 0.000000 0.000000 0.000000
    5 0.000000 0.000000 0.000000 -0.062010 0.080574 -0.023367
    6 0.000000 0.000000 0.000000 0.000040 -0.000018 0.017317
    7 0.000000 0.000000 0.000000 -0.024057 -0.052736 0.012709
    8 0.000000 0.000000 0.000000 0.000000 0.000000 0.000000
    9 0.000000 0.000000 0.000000 -0.442788 -0.071758 -0.044120
    10 0.000000 0.000000 0.000000 -0.185652 0.046790 0.031816
    11 0.000000 0.000000 0.000000 -0.170715 0.020443 0.155998
    12 0.000000 0.000000 0.000000 0.025012 0.061833 0.028971
    13 0.000000 0.000000 0.000000 -0.339751 -0.247477 0.003519
    14 0.000000 0.000000 0.000000 -0.253423 -0.094422 0.004288
    15 0.000000 0.000000 0.000000 -0.023051 -0.367443 0.090613
    16 0.000000 0.000000 0.000000 0.040845 0.149817 -0.452247
    17 0.000000 0.000000 0.000000 -0.006630 0.039026 0.576594
    18 0.000000 0.000000 0.000000 0.188300 0.192741 0.071007
    19 0.000000 0.000000 0.000000 0.000000 0.000000 0.000000
    20 0.000000 0.000000 0.000000 0.000000 0.000000 0.000000
    21 0.000000 0.000000 0.000000 0.000000 0.000000 0.000000
    22 0.000000 0.000000 0.000000 0.000000 0.000000 0.000000
    23 0.000000 0.000000 0.000000 0.000000 0.000000 0.000000
    24 0.000000 0.000000 0.000000 0.000000 0.000000 0.000000
    25 0.000000 0.000000 0.000000 0.000000 0.000000 0.000000
    26 0.000000 0.000000 0.000000 0.000000 0.000000 0.000000
    27 0.000000 0.000000 0.000000 0.000000 0.000000 0.000000
    28 0.000000 0.000000 0.000000 0.000000 0.000000 0.000000
    29 0.000000 0.000000 0.000000 0.000000 0.000000 0.000000
    30 0.000000 0.000000 0.000000 0.000000 0.000000 0.000000
    31 0.000000 0.000000 0.000000 0.000000 0.000000 0.000000
    32 0.000000 0.000000 0.000000 0.000000 0.000000 0.000000
    33 0.000000 0.000000 0.000000 0.000000 0.000000 0.000000
    34 0.000000 0.000000 0.000000 -0.016565 -0.067258 0.000550
    35 0.000000 0.000000 0.000000 0.154547 -0.295799 0.425325
    36 0.000000 0.000000 0.000000 -0.037338 0.086345 -0.189881
    37 0.000000 0.000000 0.000000 0.110920 0.138349 0.183036
    38 0.000000 0.000000 0.000000 0.000000 0.000000 0.000000
    39 0.000000 0.000000 0.000000 0.000000 0.000000 0.000000
    40 0.000000 0.000000 0.000000 0.000000 0.000000 0.000000
    41 0.000000 0.000000 0.000000 0.000000 0.000000 0.000000
    42 0.000000 0.000000 0.000000 0.000000 0.000000 0.000000
    43 0.000000 0.000000 0.000000 0.000000 0.000000 0.000000
    44 0.000000 0.000000 0.000000 0.000000 0.000000 0.000000
    45 0.000000 0.000000 0.000000 0.000000 0.000000 0.000000
    46 0.000000 0.000000 0.000000 0.000000 0.000000 0.000000
    47 0.000000 0.000000 0.000000 0.000000 0.000000 0.000000
    48 0.000000 0.000000 0.000000 0.000000 0.000000 0.000000
    49 0.000000 0.000000 0.000000 0.000000 0.000000 0.000000
    50 0.000000 0.000000 0.000000 0.000000 0.000000 0.000000
    51 0.000000 0.000000 0.000000 0.000000 0.000000 0.000000
    52 0.000000 0.000000 0.000000 0.000000 0.000000 0.000000
    53 0.000000 0.000000 0.000000 0.000000 0.000000 0.000000
    54 0.000000 0.000000 0.000000 0.000000 0.000000 0.000000
    55 0.000000 0.000000 0.000000 0.000000 0.000000 0.000000
    56 0.000000 0.000000 0.000000 0.000000 0.000000 0.000000
    57 0.000000 0.000000 0.000000 0.000000 0.000000 0.000000
    58 0.000000 0.000000 0.000000 0.000000 0.000000 0.000000
    59 0.000000 0.000000 0.000000 0.000000 0.000000 0.000000
    60 0.000000 0.000000 0.000000 0.000000 0.000000 0.000000
    61 0.000000 0.000000 0.000000 0.000000 0.000000 0.000000
    62 0.000000 0.000000 0.000000 0.000000 0.000000 0.000000
    63 0.000000 0.000000 0.000000 0.000000 0.000000 0.000000
    64 0.000000 0.000000 0.000000 0.000000 0.000000 0.000000
    65 0.000000 0.000000 0.000000 0.000000 0.000000 0.000000
    66 0.000000 0.000000 0.000000 0.000000 0.000000 0.000000
    67 0.000000 0.000000 0.000000 0.000000 0.000000 0.000000
    68 0.000000 0.000000 0.000000 0.000000 0.000000 0.000000
    69 0.000000 0.000000 0.000000 0.000000 0.000000 0.000000
    70 0.000000 0.000000 0.000000 0.000000 0.000000 0.000000
    71 0.000000 0.000000 0.000000 0.000000 0.000000 0.000000
    72 0.000000 0.000000 0.000000 0.000000 0.000000 0.000000
    73 0.000000 0.000000 0.000000 0.000000 0.000000 0.000000
    74 0.000000 0.000000 0.000000 0.000000 0.000000 0.000000
    75 0.000000 0.000000 0.000000 0.000000 0.000000 0.000000
    76 0.000000 0.000000 0.000000 0.000000 0.000000 0.000000
    77 0.000000 0.000000 0.000000 0.000000 0.000000 0.000000
    78 0.000000 0.000000 0.000000 0.000000 0.000000 0.000000
    79 0.000000 0.000000 0.000000 0.000000 0.000000 0.000000
    80 0.000000 0.000000 0.000000 0.000000 0.000000 0.000000
    81 0.000000 0.000000 0.000000 0.000000 0.000000 0.000000
    82 0.000000 0.000000 0.000000 0.000000 0.000000 0.000000
    83 0.000000 0.000000 0.000000 0.000000 0.000000 0.000000
    84 0.000000 0.000000 0.000000 0.000000 0.000000 0.000000
    85 0.000000 0.000000 0.000000 0.000000 0.000000 0.000000
    86 0.000000 0.000000 0.000000 0.000000 0.000000 0.000000
    87 0.000000 0.000000 0.000000 0.000000 0.000000 0.000000
end
