// Created by Crowbar 0.74
version 1
nodes
  0 "ValveBiped.Bip01_Pelvis" -1
  1 "ValveBiped.Bip01_L_Thigh" 0
  2 "ValveBiped.Bip01_L_Calf" 1
  3 "ValveBiped.Bip01_L_Foot" 2
  4 "ValveBiped.Bip01_L_Toe0" 3
  5 "ValveBiped.Bip01_R_Thigh" 0
  6 "ValveBiped.Bip01_R_Calf" 5
  7 "ValveBiped.Bip01_R_Foot" 6
  8 "ValveBiped.Bip01_R_Toe0" 7
  9 "ValveBiped.Bip01_Spine" 0
  10 "ValveBiped.Bip01_Spine1" 9
  11 "ValveBiped.Bip01_Spine2" 10
  12 "ValveBiped.Bip01_Spine4" 11
  13 "ValveBiped.Bip01_Neck1" 12
  14 "ValveBiped.Bip01_Head1" 13
  15 "ValveBiped.Bip01_L_Clavicle" 12
  16 "ValveBiped.Bip01_L_UpperArm" 15
  17 "ValveBiped.Bip01_L_Forearm" 16
  18 "ValveBiped.Bip01_L_Hand" 17
  19 "ValveBiped.Bip01_L_Finger4" 18
  20 "ValveBiped.Bip01_L_Finger41" 19
  21 "ValveBiped.Bip01_L_Finger42" 20
  22 "ValveBiped.Bip01_L_Finger3" 18
  23 "ValveBiped.Bip01_L_Finger31" 22
  24 "ValveBiped.Bip01_L_Finger32" 23
  25 "ValveBiped.Bip01_L_Finger2" 18
  26 "ValveBiped.Bip01_L_Finger21" 25
  27 "ValveBiped.Bip01_L_Finger22" 26
  28 "ValveBiped.Bip01_L_Finger1" 18
  29 "ValveBiped.Bip01_L_Finger11" 28
  30 "ValveBiped.Bip01_L_Finger12" 29
  31 "ValveBiped.Bip01_L_Finger0" 18
  32 "ValveBiped.Bip01_L_Finger01" 31
  33 "ValveBiped.Bip01_L_Finger02" 32
  34 "ValveBiped.Bip01_R_Clavicle" 12
  35 "ValveBiped.Bip01_R_UpperArm" 34
  36 "ValveBiped.Bip01_R_Forearm" 35
  37 "ValveBiped.Bip01_R_Hand" 36
  38 "ValveBiped.Bip01_R_Finger4" 37
  39 "ValveBiped.Bip01_R_Finger41" 38
  40 "ValveBiped.Bip01_R_Finger42" 39
  41 "ValveBiped.Bip01_R_Finger3" 37
  42 "ValveBiped.Bip01_R_Finger31" 41
  43 "ValveBiped.Bip01_R_Finger32" 42
  44 "ValveBiped.Bip01_R_Finger2" 37
  45 "ValveBiped.Bip01_R_Finger21" 44
  46 "ValveBiped.Bip01_R_Finger22" 45
  47 "ValveBiped.Bip01_R_Finger1" 37
  48 "ValveBiped.Bip01_R_Finger11" 47
  49 "ValveBiped.Bip01_R_Finger12" 48
  50 "ValveBiped.Bip01_R_Finger0" 37
  51 "ValveBiped.Bip01_R_Finger01" 50
  52 "ValveBiped.Bip01_R_Finger02" 51
  53 "ValveBiped.attachment_bandage_legL" 2
  54 "ValveBiped.attachment_bandage_armL" 17
  55 "ValveBiped.attachment_armL_T" 17
  56 "ValveBiped.attachment_armR_T" 36
  57 "ValveBiped.weapon_bone" 37
  58 "ValveBiped.forward" 14
  59 "ValveBiped.L_weapon_bone" 18
  60 "ValveBiped.weapon_bone_Clip" 57
  61 "ValveBiped.weapon_bone_extra" 57
  62 "ValveBiped.weapon_bone_Clip2" 18
  63 "ValveBiped.weapon_bone_Clip2_Bullets" 62
  64 "ValveBiped.weapon_bolt_l" 18
  65 "ValveBiped.weapon_bone_Clip_Bullets" 60
  66 "ValveBiped.weapon_bolt" 57
  67 "ValveBiped.weapon_bolt_opposite" 57
  68 "ValveBiped.weapon_charger" 57
  69 "ValveBiped.Bip01_L_Knee" 1
  70 "ValveBiped.Bip01_R_Knee" 5
  71 "ValveBiped.Bip01_L_Ulna" 17
  72 "ValveBiped.Bip01_L_Wrist" 17
  73 "ValveBiped.Bip01_L_Elbow" 16
  74 "ValveBiped.Bip01_L_Bicep" 16
  75 "ValveBiped.hlp_jacket_arm_front1_L" 15
  76 "ValveBiped.hlp_jacket_arm_top_L" 15
  77 "ValveBiped.hlp_jacket_arm_back_L" 15
  78 "ValveBiped.Bip01_R_Wrist" 36
  79 "ValveBiped.Bip01_R_Ulna" 36
  80 "ValveBiped.Bip01_R_Elbow" 35
  81 "ValveBiped.Bip01_R_Bicep" 35
  82 "ValveBiped.hlp_jacket_arm_front1_R" 34
  83 "ValveBiped.hlp_jacket_arm_top_R" 34
  84 "ValveBiped.hlp_jacket_arm_back_R" 34
  85 "ValveBiped.hlp_jacket_armpit_R" 11
  86 "ValveBiped.jiggy_jacket_right" 9
  87 "ValveBiped.jiggy_jacket_left" 9
end
skeleton
  time 0
    0 -0.848145 0.006527 39.281250 1.499907 -0.000421 -0.186932
    1 3.806942 0.000000 0.000000 -1.595992 -0.057957 -1.411062
    2 19.263105 0.000000 0.000000 0.000000 0.000000 0.374099
    3 17.589100 0.000000 0.000000 -0.291206 -0.094006 -1.383221
    4 6.240662 0.000000 0.000000 0.020293 -0.027707 -0.397237
    5 -3.806942 0.000000 0.000000 -1.228515 -0.054061 -1.793136
    6 19.263098 0.000000 0.000000 0.000000 0.000000 0.292355
    7 17.589096 0.000000 0.000000 0.201498 -0.164150 -1.314419
    8 6.240662 0.000000 0.000000 -0.111840 0.023843 -0.370705
    9 0.000000 4.246162 -0.018825 1.500439 0.083748 1.595182
    10 4.195629 0.000000 0.000000 -0.065959 -0.035417 -0.060944
    11 3.883152 0.000001 0.000000 -0.033674 -0.023796 0.121170
    12 5.985943 0.000002 0.000000 -0.026801 0.080757 0.503176
    13 5.620499 0.000002 0.000000 -2.990138 -0.143373 0.216917
    14 4.684906 0.000002 0.000000 0.193991 0.027749 0.508336
    15 4.268658 1.531894 1.575000 0.860614 -1.434776 -2.437952
    16 5.782729 -0.000008 0.000001 -1.151889 -0.650366 -1.350286
    17 11.452765 0.000001 -0.000004 0.000000 0.000000 -0.839043
    18 10.945532 -0.000006 -0.000031 -0.595344 -0.021404 0.079301
    19 3.147137 0.005676 -1.551344 0.018637 -0.094289 -0.791394
    20 1.585899 0.000000 0.000000 -0.130191 -0.206854 -0.567539
    21 0.849079 0.000000 0.000000 -0.054473 -0.175380 -0.302889
    22 3.471083 0.213272 -0.574067 0.123378 0.009627 -0.786314
    23 1.897537 -0.000008 0.000000 -0.098477 -0.176680 -0.512089
    24 1.014450 0.000004 0.000000 0.002414 0.009757 -0.566955
    25 3.750084 0.114773 0.430058 0.174782 0.047054 -0.472914
    26 2.258194 0.000000 0.000000 -0.126733 -0.068634 -1.077032
    27 1.210388 0.000008 0.000000 0.001897 -0.087220 -0.692811
    28 3.868299 -0.166634 1.490139 0.187548 0.033957 -0.039240
    29 1.786062 0.000000 0.000000 0.048663 0.060672 -0.676684
    30 1.044445 -0.000004 0.000000 0.001277 0.038559 -0.916719
    31 1.121477 -1.351563 1.030997 1.693867 -0.344560 -0.124114
    32 1.928114 0.000000 -0.000004 0.000000 -0.188117 0.123985
    33 1.285139 0.000000 0.000008 0.000000 -0.040646 0.196333
    34 4.268658 1.531896 -1.575000 -0.983063 1.393407 -2.525135
    35 5.782726 0.000000 0.000000 1.147127 0.181672 -0.905183
    36 11.452768 -0.000001 0.000000 0.000000 0.000000 -1.798365
    37 10.945511 -0.000005 0.000015 -1.188162 -0.423963 0.117977
    38 3.147156 0.000069 1.551353 -0.323009 -0.149789 -1.078844
    39 1.585901 -0.000008 0.000000 -0.128616 0.004990 -1.609347
    40 0.849083 0.000004 0.000000 0.054472 0.175377 -0.910373
    41 3.471104 0.211185 0.574834 -0.338335 -0.158825 -1.076444
    42 1.897535 0.000000 0.000000 0.047190 0.006501 -1.433989
    43 1.014454 0.000000 0.000000 -0.002415 -0.009755 -0.901518
    44 3.750103 0.116325 -0.429640 -0.351994 -0.189782 -0.975696
    45 2.258196 0.000008 0.000000 0.066384 -0.000264 -1.574762
    46 1.210384 0.000004 0.000000 -0.001896 -0.012017 -0.834506
    47 3.868322 -0.161243 -1.490732 -0.166118 0.024251 -0.192960
    48 1.786062 -0.000008 0.000000 -0.013285 -0.016469 -0.678804
    49 1.044445 0.000004 -0.000001 -0.001277 -0.038560 -0.033101
    50 1.121500 -1.347832 -1.035882 -1.801955 0.200199 -0.546471
    51 1.928120 -0.000001 0.000000 0.000000 -0.225049 -0.494084
    52 1.285143 0.000000 0.000000 -0.000001 0.040644 -0.404248
    53 7.023272 -6.880002 4.339547 2.620672 -1.456011 -1.105365
    54 3.813803 -3.870654 0.998558 1.570796 -1.069638 0.199892
    55 0.000000 -0.000007 -0.000031 1.373047 0.113574 0.124314
    56 0.000000 -0.000007 -0.000034 1.373047 0.113574 0.124314
    57 2.998047 -1.612305 -1.022461 -1.501138 -0.273316 -1.578264
    58 2.000008 -3.000000 0.000000 -1.570796 0.000000 -1.326450
    59 3.349001 -1.370995 0.724999 1.977842 -0.088017 1.557794
    60 0.000004 0.000000 10.000004 0.000000 0.000000 0.000000
    61 0.018898 0.665158 9.395884 0.000000 0.000000 0.000000
    62 3.028212 -0.923409 -2.009451 1.574082 -0.012974 1.587244
    63 0.116951 4.311603 0.061861 0.000010 0.000000 0.000000
    64 0.000000 0.000000 0.000000 0.000000 0.000000 0.000000
    65 0.000000 1.000000 0.000008 0.000000 0.000000 0.000000
    66 0.000000 0.000000 0.000000 0.000000 0.000000 0.000000
    67 0.000000 0.000000 0.000000 0.000000 0.000000 0.000000
    68 0.000000 0.000000 0.000000 0.000000 0.000000 0.000000
    69 19.253853 0.000000 -0.000001 0.000000 0.000000 0.025253
    70 19.253841 0.000000 0.000000 0.000000 0.000000 0.025250
    71 5.884354 0.000000 0.000004 -0.126310 0.000000 0.000000
    72 11.768705 -0.000001 0.000000 -0.238428 0.000000 0.000000
    73 11.679201 0.000000 -0.000004 0.000000 0.000000 -0.161658
    74 5.837998 -0.735000 -0.525002 0.000000 0.000000 0.000000
    75 5.825531 2.661388 2.409388 -0.001945 -0.016320 -0.024506
    76 6.752561 4.039024 -0.341453 0.001435 0.018681 -0.019052
    77 7.652452 1.954227 -2.880674 0.034288 0.011731 0.007773
    78 11.768707 0.000001 0.000004 0.242666 0.000000 0.000000
    79 5.884352 0.000001 0.000000 0.128617 0.000000 0.000000
    80 11.679197 0.000000 0.000008 0.000000 0.000000 -0.161657
    81 5.837997 -0.641044 0.525002 -0.049483 0.000000 0.000000
    82 5.625286 3.107059 -2.433369 0.110853 0.082458 -0.006869
    83 6.677644 4.114117 0.449763 -0.008964 0.010245 -0.007166
    84 7.673524 1.768635 2.985535 -0.031931 0.006501 0.012462
    85 4.902687 0.655644 -8.954903 0.081942 0.003890 0.000160
    86 2.649670 8.412623 -3.003099 -1.828871 -1.111184 1.884926
    87 2.538502 8.321048 3.447679 1.536390 -1.079904 -1.522285
end
