// Created by Crowbar 0.74
version 1
nodes
  0 "ValveBiped.ValveBiped" -1
  1 "ValveBiped.Bip01" 0
  2 "ValveBiped.Camera" 0
  3 "ValveBiped.weapon_bone" 1
  4 "ValveBiped.attach_muzzle" 3
  5 "ValveBiped.attach_shell_eject" 3
  6 "ValveBiped.attach_camera" 2
  7 "ValveBiped.Bip01_Spine" 1
  8 "ValveBiped.Bip01_Spine1" 7
  9 "ValveBiped.Bip01_Spine2" 8
  10 "ValveBiped.Bip01_Spine4" 9
  11 "ValveBiped.Bip01_L_Clavicle" 10
  12 "ValveBiped.Bip01_L_UpperArm" 11
  13 "ValveBiped.Bip01_L_Forearm" 12
  14 "ValveBiped.Bip01_L_Hand" 13
  15 "ValveBiped.Bip01_L_Finger4" 14
  16 "ValveBiped.Bip01_L_Finger41" 15
  17 "ValveBiped.Bip01_L_Finger42" 16
  18 "ValveBiped.Bip01_L_Finger3" 14
  19 "ValveBiped.Bip01_L_Finger31" 18
  20 "ValveBiped.Bip01_L_Finger32" 19
  21 "ValveBiped.Bip01_L_Finger2" 14
  22 "ValveBiped.Bip01_L_Finger21" 21
  23 "ValveBiped.Bip01_L_Finger22" 22
  24 "ValveBiped.Bip01_L_Finger1" 14
  25 "ValveBiped.Bip01_L_Finger11" 24
  26 "ValveBiped.Bip01_L_Finger12" 25
  27 "ValveBiped.Bip01_L_Finger0" 14
  28 "ValveBiped.Bip01_L_Finger01" 27
  29 "ValveBiped.Bip01_L_Finger02" 28
  30 "ValveBiped.Bip01_R_Clavicle" 10
  31 "ValveBiped.Bip01_R_UpperArm" 30
  32 "ValveBiped.Bip01_R_Forearm" 31
  33 "ValveBiped.Bip01_R_Hand" 32
  34 "ValveBiped.Bip01_R_Finger4" 33
  35 "ValveBiped.Bip01_R_Finger41" 34
  36 "ValveBiped.Bip01_R_Finger42" 35
  37 "ValveBiped.Bip01_R_Finger3" 33
  38 "ValveBiped.Bip01_R_Finger31" 37
  39 "ValveBiped.Bip01_R_Finger32" 38
  40 "ValveBiped.Bip01_R_Finger2" 33
  41 "ValveBiped.Bip01_R_Finger21" 40
  42 "ValveBiped.Bip01_R_Finger22" 41
  43 "ValveBiped.Bip01_R_Finger1" 33
  44 "ValveBiped.Bip01_R_Finger11" 43
  45 "ValveBiped.Bip01_R_Finger12" 44
  46 "ValveBiped.Bip01_R_Finger0" 33
  47 "ValveBiped.Bip01_R_Finger01" 46
  48 "ValveBiped.Bip01_R_Finger02" 47
  49 "ValveBiped.weapon_charger_slide" 3
  50 "ValveBiped.weapon_stock_hammer" 3
  51 "ValveBiped.weapon_bolt" 3
  52 "ValveBiped.weapon_safety" 3
  53 "ValveBiped.weapon_trigger" 3
  54 "ValveBiped.weapon_clip_realease" 3
  55 "ValveBiped.weapon_clip" 3
  56 "ValveBiped.weapon_clip_bullets" 55
  57 "ValveBiped.Bip01_R_Forearm_driven" 32
  58 "ValveBiped.Bip01_R_Driven_ulna" 32
  59 "ValveBiped.Bip01_R_thumbroot" 33
  60 "ValveBiped.Bip01_L_Forearm_driven" 13
  61 "ValveBiped.Bip01_L_Driven_ulna" 13
  62 "ValveBiped.Bip01_L_thumbroot" 14
  63 "ValveBiped.hlp_wrist01_L" 14
  64 "ValveBiped.hlp_ulna02_L" 13
  65 "ValveBiped.hlp_ulna01_L" 13
  66 "ValveBiped.hlp_wrist01_R" 33
  67 "ValveBiped.hlp_ulna01_R" 32
end
skeleton
  time 0
    0 0.000000 0.000000 0.000000 0.000000 0.000000 -1.570796
    1 0.000000 0.000000 0.000000 0.000000 0.000088 0.000000
    2 0.000000 0.000000 0.000000 0.000000 0.000000 0.000000
    3 0.827148 0.003588 0.116150 -0.066367 0.011560 -0.076608
    4 0.000000 0.000000 0.000000 0.000000 0.000000 0.000000
    5 0.000000 0.000000 0.000000 0.000000 0.000000 0.000000
    6 0.000000 0.000000 0.000000 0.000000 0.000000 0.000000
    7 0.000000 0.000000 0.000000 0.000006 -0.000086 0.000004
    8 0.000000 0.000000 0.000000 0.000000 0.000059 -0.000006
    9 0.000000 0.000000 0.000000 -0.000013 -0.000055 0.000006
    10 0.000000 0.000000 0.000000 0.000000 0.000000 0.000000
    11 0.000000 0.000000 0.000000 0.000000 0.000000 0.000000
    12 0.000000 0.000000 0.000000 0.000582 -0.007775 0.003294
    13 0.000000 0.000000 0.000000 0.000000 0.000000 0.000000
    14 0.000000 0.000000 0.000000 -0.083094 -0.061112 0.018586
    15 0.000000 0.000000 0.000000 0.000000 0.000000 0.000000
    16 0.000000 0.000000 0.000000 -0.000002 -0.000017 0.000000
    17 0.000000 0.000000 0.000000 -0.000017 0.000015 0.000006
    18 0.000000 0.000000 0.000000 -0.000002 -0.000013 -0.000006
    19 0.000000 0.000000 0.000000 0.000000 0.000017 0.000011
    20 0.000000 0.000000 0.000000 0.000013 -0.000027 -0.000002
    21 0.000000 0.000000 0.000000 -0.000006 -0.000036 -0.000006
    22 0.000000 0.000000 0.000000 -0.000017 0.000015 0.000010
    23 0.000000 0.000000 0.000000 0.000000 0.000000 0.000000
    24 0.000000 0.000000 0.000000 0.000000 0.000000 0.000000
    25 0.000000 0.000000 0.000000 0.000000 0.000000 0.000000
    26 0.000000 0.000000 0.000000 0.000000 0.000000 0.000000
    27 0.000000 0.000000 0.000000 0.000000 0.000000 0.000000
    28 0.000000 0.000000 0.000000 0.000010 0.000015 -0.000004
    29 0.000000 0.000000 0.000000 0.000000 0.000000 0.000000
    30 0.000000 -50.000000 0.000000 0.000000 0.000000 0.000000
    31 0.000000 50.000000 0.000000 0.027759 0.047083 -0.061177
    32 0.000000 50.000000 0.000000 0.000002 -0.000004 -0.135225
    33 0.000000 50.000000 0.000000 -0.149667 -0.046517 0.130619
    34 0.000000 50.000000 0.000000 0.000000 0.000000 0.000000
    35 0.000000 50.000000 0.000000 0.000000 0.000000 0.000000
    36 0.000000 50.000000 0.000000 0.000000 0.000000 0.000000
    37 0.000000 50.000000 0.000000 -0.000010 -0.000021 -0.000013
    38 0.000000 50.000000 0.000000 -0.000019 0.000015 0.000004
    39 0.000000 50.000000 0.000000 0.000000 0.000000 0.000000
    40 0.000000 50.000000 0.000000 0.000008 0.000031 0.000002
    41 0.000000 50.000000 0.000000 0.000042 -0.000006 0.000000
    42 0.000000 50.000000 0.000000 -0.000011 0.000000 -0.000008
    43 0.000000 50.000000 0.000000 0.000000 0.000000 0.000000
    44 0.000000 50.000000 0.000000 0.000000 0.000000 0.000000
    45 0.000000 50.000000 0.000000 0.000000 0.000000 0.000000
    46 0.000000 50.000000 0.000000 0.000000 0.000000 0.000000
    47 0.000000 50.000000 0.000000 0.000000 0.000000 0.000000
    48 0.000000 50.000000 0.000000 0.000000 0.000000 0.000000
    49 0.000000 0.000000 0.000000 0.000000 0.000000 0.000000
    50 0.000000 0.000000 0.000000 0.000000 0.000000 0.000000
    51 0.000000 0.000000 0.000000 0.000000 0.000000 0.000000
    52 0.000000 0.000000 0.000000 0.000000 0.000000 0.000000
    53 0.000000 0.000000 0.000000 0.000010 0.000023 0.000006
    54 0.000000 0.000000 0.000000 0.000000 0.000000 0.000000
    55 0.000000 0.000000 0.000000 0.000000 0.000000 0.000000
    56 0.000000 0.000000 0.000000 0.000000 0.000000 0.000000
    57 0.000000 50.000000 0.000000 -0.028106 0.000008 -0.000002
    58 0.000000 50.000000 0.000000 -0.054217 0.000010 0.000000
    59 0.000000 50.000000 0.000000 0.000000 0.000000 0.000000
    60 0.000000 0.000000 0.000000 -0.013315 0.000019 0.000009
    61 0.000000 0.000000 0.000000 -0.023043 0.000029 0.000015
    62 0.000000 0.000000 0.000000 0.000000 0.000000 0.000000
    63 0.000000 0.000000 0.000000 0.000000 0.000000 0.000000
    64 0.000000 0.000000 0.000000 0.000000 0.000000 0.000000
    65 0.000000 0.000000 0.000000 0.000000 0.000000 0.000000
    66 0.000000 50.000000 0.000000 0.000000 0.000000 0.000000
    67 0.000000 50.000000 0.000000 0.000000 0.000000 0.000000
end

