// Created by Crowbar 0.74
version 1
nodes
  0 "ValveBiped.ValveBiped" -1
  1 "ValveBiped.Bip01" 0
  2 "ValveBiped.Camera" 0
  3 "ValveBiped.weapon_bone" 1
  4 "ValveBiped.attach_muzzle" 3
  5 "ValveBiped.attach_shell_eject" 3
  6 "ValveBiped.attach_camera" 2
  7 "ValveBiped.Bip01_Spine" 1
  8 "ValveBiped.Bip01_Spine1" 7
  9 "ValveBiped.Bip01_Spine2" 8
  10 "ValveBiped.Bip01_Spine4" 9
  11 "ValveBiped.Bip01_L_Clavicle" 10
  12 "ValveBiped.Bip01_L_UpperArm" 11
  13 "ValveBiped.Bip01_L_Forearm" 12
  14 "ValveBiped.Bip01_L_Hand" 13
  15 "ValveBiped.Bip01_L_Finger4" 14
  16 "ValveBiped.Bip01_L_Finger41" 15
  17 "ValveBiped.Bip01_L_Finger42" 16
  18 "ValveBiped.Bip01_L_Finger3" 14
  19 "ValveBiped.Bip01_L_Finger31" 18
  20 "ValveBiped.Bip01_L_Finger32" 19
  21 "ValveBiped.Bip01_L_Finger2" 14
  22 "ValveBiped.Bip01_L_Finger21" 21
  23 "ValveBiped.Bip01_L_Finger22" 22
  24 "ValveBiped.Bip01_L_Finger1" 14
  25 "ValveBiped.Bip01_L_Finger11" 24
  26 "ValveBiped.Bip01_L_Finger12" 25
  27 "ValveBiped.Bip01_L_Finger0" 14
  28 "ValveBiped.Bip01_L_Finger01" 27
  29 "ValveBiped.Bip01_L_Finger02" 28
  30 "ValveBiped.Bip01_R_Clavicle" 10
  31 "ValveBiped.Bip01_R_UpperArm" 30
  32 "ValveBiped.Bip01_R_Forearm" 31
  33 "ValveBiped.Bip01_R_Hand" 32
  34 "ValveBiped.Bip01_R_Finger4" 33
  35 "ValveBiped.Bip01_R_Finger41" 34
  36 "ValveBiped.Bip01_R_Finger42" 35
  37 "ValveBiped.Bip01_R_Finger3" 33
  38 "ValveBiped.Bip01_R_Finger31" 37
  39 "ValveBiped.Bip01_R_Finger32" 38
  40 "ValveBiped.Bip01_R_Finger2" 33
  41 "ValveBiped.Bip01_R_Finger21" 40
  42 "ValveBiped.Bip01_R_Finger22" 41
  43 "ValveBiped.Bip01_R_Finger1" 33
  44 "ValveBiped.Bip01_R_Finger11" 43
  45 "ValveBiped.Bip01_R_Finger12" 44
  46 "ValveBiped.Bip01_R_Finger0" 33
  47 "ValveBiped.Bip01_R_Finger01" 46
  48 "ValveBiped.Bip01_R_Finger02" 47
  49 "ValveBiped.weapon_charger_slide" 3
  50 "ValveBiped.weapon_stock_hammer" 3
  51 "ValveBiped.weapon_bolt" 3
  52 "ValveBiped.weapon_safety" 3
  53 "ValveBiped.weapon_trigger" 3
  54 "ValveBiped.weapon_clip_realease" 3
  55 "ValveBiped.weapon_clip" 3
  56 "ValveBiped.weapon_clip_bullets" 55
  57 "ValveBiped.Bip01_R_Forearm_driven" 32
  58 "ValveBiped.Bip01_R_Driven_ulna" 32
  59 "ValveBiped.Bip01_R_thumbroot" 33
  60 "ValveBiped.Bip01_L_Forearm_driven" 13
  61 "ValveBiped.Bip01_L_Driven_ulna" 13
  62 "ValveBiped.Bip01_L_thumbroot" 14
  63 "ValveBiped.hlp_wrist01_L" 14
  64 "ValveBiped.hlp_ulna02_L" 13
  65 "ValveBiped.hlp_ulna01_L" 13
  66 "ValveBiped.hlp_wrist01_R" 33
  67 "ValveBiped.hlp_ulna01_R" 32
end
skeleton
  time 0
    0 0.000000 0.000000 0.000000 0.000000 0.000000 -1.570796
    1 0.000000 0.000000 0.000000 0.000000 -0.000059 0.000000
    2 0.000000 0.000000 0.000000 0.000000 0.000000 0.000000
    3 5.082186 3.183691 -3.418073 0.045077 0.082914 -0.107082
    4 0.000000 0.000000 0.000000 0.000000 0.000000 0.000000
    5 0.003233 -0.004498 -0.005451 0.000086 0.000002 0.000000
    6 0.000000 0.000000 0.000000 0.000000 0.000000 0.000000
    7 0.000000 0.000000 0.000000 0.000000 0.000060 0.000000
    8 0.000000 0.000000 0.000000 0.000000 -0.000036 0.000000
    9 0.000000 0.000000 0.000000 0.000000 0.000036 0.000000
    10 0.000000 0.000000 0.000000 0.000000 0.000000 0.000000
    11 2.117252 -1.851619 4.097781 0.732808 -0.637254 -0.054540
    12 0.000000 0.000000 0.000000 -0.982710 0.098676 -0.017329
    13 0.000000 0.000000 0.000000 0.000000 0.000012 -0.570172
    14 0.000000 0.000000 0.000000 0.600038 0.039727 0.061357
    15 0.000000 0.000000 0.000000 0.000000 0.000000 0.000000
    16 0.000000 0.000000 0.000000 0.000000 0.000000 0.000000
    17 0.000000 0.000000 0.000000 0.000002 0.000013 -0.000019
    18 0.000000 0.000000 0.000000 0.000000 0.000000 0.000000
    19 0.000000 0.000000 0.000000 0.000000 0.000000 0.000000
    20 0.000000 0.000000 0.000000 0.000000 0.000000 0.000000
    21 0.000000 0.000000 0.000000 0.000000 0.000000 0.000000
    22 0.000000 0.000000 0.000000 0.000000 0.000000 0.000000
    23 0.000000 0.000000 0.000000 0.000000 0.000000 0.000000
    24 0.000000 0.000000 0.000000 0.000000 0.000000 0.000000
    25 0.000000 0.000000 0.000000 0.000000 0.000000 0.000000
    26 0.000000 0.000000 0.000000 0.000000 0.000000 0.000000
    27 0.000000 0.000000 0.000000 0.000000 0.000000 0.000000
    28 0.000000 0.000000 0.000000 0.000000 0.000000 0.000000
    29 0.000000 0.000000 0.000000 0.000000 0.000000 0.000000
    30 -3.957152 4.011841 -53.629017 0.000000 0.000000 0.000000
    31 0.000000 0.000000 0.000000 0.915832 -0.279514 -0.783529
    32 0.000000 0.000000 0.000000 0.000000 0.000000 -0.382099
    33 0.000000 0.000000 0.000000 -1.441976 -0.595669 1.015862
    34 0.000000 0.000000 0.000000 -0.241688 -0.040148 -0.085115
    35 0.000000 0.000000 0.000000 0.004818 -0.060199 -0.079727
    36 0.000000 0.000000 0.000000 0.000000 0.000000 -0.086795
    37 0.000000 0.000000 0.000000 0.001965 -0.030021 0.112634
    38 0.000000 0.000000 0.000000 -0.118144 0.000000 0.000028
    39 0.000000 0.000000 0.000000 0.000000 0.000000 0.077961
    40 0.000000 0.000000 0.000000 0.000000 0.000000 -0.108734
    41 0.000000 0.000000 0.000000 -0.036241 0.084360 0.004483
    42 0.000000 0.000000 0.000000 0.000000 0.000000 -0.175226
    43 0.000000 0.000000 0.000000 0.031172 -0.047303 -0.220650
    44 0.000000 0.000000 0.000000 0.000000 0.000000 -0.042435
    45 0.000000 0.000000 0.000000 0.000000 0.000000 0.000000
    46 0.000000 0.000000 0.000000 0.968436 -0.045038 0.133115
    47 0.000000 0.000000 0.000000 -0.624579 -0.218006 0.143492
    48 0.000000 0.000000 0.000000 0.000000 0.000000 -0.079994
    49 0.000000 0.000000 0.000000 0.000000 0.000000 0.000000
    50 0.000000 0.000000 0.000000 0.000000 0.000000 0.000000
    51 0.000000 0.000000 0.000000 0.000000 0.000000 0.000000
    52 0.000000 0.000000 0.000000 0.000000 0.000000 0.000000
    53 -92.312500 -76.687500 24.890625 -1.031132 -0.000001 -0.000002
    54 0.000000 0.000000 0.000000 0.000000 0.000000 0.000000
    55 0.000000 0.000000 0.000000 0.000000 0.000000 0.000000
    56 0.000000 0.000000 0.000000 0.000000 0.000000 0.000000
    57 0.000000 0.000000 0.000000 -0.278234 0.000000 0.000000
    58 0.000000 0.000000 0.000000 -0.535015 0.000000 0.000000
    59 0.000000 0.000000 0.000000 0.059887 0.125395 0.098621
    60 0.000000 0.000000 0.000000 0.216948 0.000000 0.000000
    61 0.000000 0.000000 0.000000 0.375665 0.000000 0.000000
    62 0.000000 0.000000 0.000000 0.000000 0.000000 0.000000
    63 0.000000 0.000000 0.000000 0.000000 0.000000 0.000000
    64 0.000000 0.000000 0.000000 0.000000 0.000000 0.000000
    65 0.000000 0.000000 0.000000 0.000000 0.000000 0.000000
    66 0.000000 0.000000 0.000000 0.000000 0.000000 0.000000
    67 0.000000 0.000000 0.000000 0.000000 0.000000 0.000000
  time 1
    0 0.000000 0.000000 0.000000 0.000000 0.000000 -1.570796
    1 0.000000 0.000000 0.000000 0.000000 -0.000059 0.000000
    2 0.000000 0.000000 0.000000 0.000000 0.000000 0.000000
    3 2.632893 3.140721 -4.632954 0.032995 0.065516 -0.075104
    4 0.000000 0.000000 0.000000 0.000000 0.000000 0.000000
    5 0.003233 -0.004498 -0.005451 0.000086 0.000002 0.000000
    6 0.000000 0.000000 0.000000 0.000000 0.000000 0.000000
    7 0.000000 0.000000 0.000000 0.000000 0.000060 0.000000
    8 0.000000 0.000000 0.000000 0.000000 -0.000036 0.000000
    9 0.000000 0.000000 0.000000 0.000000 0.000036 0.000000
    10 0.000000 0.000000 0.000000 0.000000 0.000000 0.000000
    11 2.117252 -1.851619 4.097781 0.732808 -0.637254 -0.054540
    12 0.000000 0.000000 0.000000 -0.982352 -0.081791 -0.171052
    13 0.000000 0.000000 0.000000 0.000000 0.000000 -0.052360
    14 0.000000 0.000000 0.000000 0.416869 -0.149048 0.051792
    15 0.000000 0.000000 0.000000 0.000000 0.000000 0.000000
    16 0.000000 0.000000 0.000000 0.000000 0.000000 0.000000
    17 0.000000 0.000000 0.000000 0.000002 0.000013 -0.000019
    18 0.000000 0.000000 0.000000 0.000000 0.000000 0.000000
    19 0.000000 0.000000 0.000000 0.000000 0.000000 0.000000
    20 0.000000 0.000000 0.000000 0.000000 0.000000 0.000000
    21 0.000000 0.000000 0.000000 0.000000 0.000000 0.000000
    22 0.000000 0.000000 0.000000 0.000000 0.000000 0.000000
    23 0.000000 0.000000 0.000000 0.000000 0.000000 0.000000
    24 0.000000 0.000000 0.000000 0.000000 0.000000 0.000000
    25 0.000000 0.000000 0.000000 0.000000 0.000000 0.000000
    26 0.000000 0.000000 0.000000 0.000000 0.000000 0.000000
    27 0.000000 0.000000 0.000000 0.000000 0.000000 0.000000
    28 0.000000 0.000000 0.000000 0.000000 0.000000 0.000000
    29 0.000000 0.000000 0.000000 0.000000 0.000000 0.000000
    30 -3.957152 4.011841 -53.629017 -0.072422 0.038431 0.092906
    31 0.000000 0.000000 0.000000 1.234837 -0.355857 -0.740594
    32 0.000000 0.000000 0.000000 0.000000 0.000000 -0.431185
    33 0.000000 0.000000 0.000000 -1.595727 -0.788025 0.927534
    34 0.000000 0.000000 0.000000 -0.238873 -0.044703 -0.096536
    35 0.000000 0.000000 0.000000 0.004818 -0.060211 -0.092259
    36 0.000000 0.000000 0.000000 -0.001246 0.000384 -0.099229
    37 0.000000 0.000000 0.000000 0.004494 -0.029830 0.100308
    38 0.000000 0.000000 0.000000 -0.118120 -0.001474 -0.012333
    39 0.000000 0.000000 0.000000 0.000000 0.000000 0.065446
    40 0.000000 0.000000 0.000000 0.001726 0.002133 -0.120922
    41 0.000000 0.000000 0.000000 -0.035774 0.084372 -0.007883
    42 0.000000 0.000000 0.000000 0.000000 0.000000 -0.187748
    43 0.000000 0.000000 0.000000 0.033065 -0.048142 -0.233082
    44 0.000000 0.000000 0.000000 0.000000 0.000000 -0.054934
    45 0.000000 0.000000 0.000000 0.000000 0.000000 -0.012475
    46 0.000000 0.000000 0.000000 0.968589 -0.052972 0.123446
    47 0.000000 0.000000 0.000000 -0.622149 -0.230285 0.142940
    48 0.000000 0.000000 0.000000 0.010978 -0.005980 -0.080035
    49 0.000000 0.000000 0.000000 0.000000 0.000000 0.000000
    50 0.000000 0.000000 0.000000 0.000000 0.000000 0.000000
    51 0.000000 0.000000 0.000000 0.000000 0.000000 0.000000
    52 0.000000 0.000000 0.000000 0.000000 0.000000 0.000000
    53 -92.312500 -76.687500 24.890625 -1.031132 -0.000001 -0.000002
    54 0.000000 0.000000 0.000000 0.000000 0.000000 0.000000
    55 0.000000 0.000000 0.000000 0.000000 0.000000 0.000000
    56 0.000000 0.000000 0.000000 0.000000 0.000000 0.000000
    57 0.000000 0.000000 0.000000 -0.421847 0.000000 0.000000
    58 0.000000 0.000000 0.000000 -0.806686 0.000000 0.000000
    59 0.000000 0.000000 0.000000 0.056663 0.118312 0.096308
    60 0.000000 0.000000 0.000000 0.258341 0.000000 0.000000
    61 0.000000 0.000000 0.000000 0.447391 0.000000 0.000000
    62 0.000000 0.000000 0.000000 0.000000 0.000000 0.000000
    63 0.000000 0.000000 0.000000 0.000000 0.000000 0.000000
    64 0.000000 0.000000 0.000000 0.000000 0.000000 0.000000
    65 0.000000 0.000000 0.000000 0.000000 0.000000 0.000000
    66 0.000000 0.000000 0.000000 0.000000 0.000000 0.000000
    67 0.000000 0.000000 0.000000 0.000000 0.000000 0.000000
  time 2
    0 0.000000 0.000000 0.000000 0.000000 0.000000 -1.570796
    1 0.000000 0.000000 0.000000 0.000000 -0.000059 0.000000
    2 0.000000 0.000000 0.000000 0.000000 0.000000 0.000000
    3 1.117222 3.164159 -5.297037 -0.023886 0.076253 0.031027
    4 0.000000 0.000000 0.000000 0.000000 0.000000 0.000000
    5 0.003233 -0.004498 -0.005451 0.000086 0.000002 0.000000
    6 0.000000 0.000000 0.000000 0.000000 0.000000 0.000000
    7 0.000000 0.000000 0.000000 0.000000 0.000060 0.000000
    8 0.000000 0.000000 0.000000 0.000000 -0.000036 0.000000
    9 0.000000 0.000000 0.000000 0.000000 0.000036 0.000000
    10 0.000000 0.000000 0.000000 0.000000 0.000000 0.000000
    11 2.117252 -1.851619 4.097781 0.732808 -0.637254 -0.054540
    12 0.000000 0.000000 0.000000 -0.938106 -0.360663 -0.374082
    13 0.000000 0.000000 0.000000 0.000000 0.000000 0.665294
    14 0.000000 0.000000 0.000000 0.205521 -0.424925 0.119785
    15 0.000000 0.000000 0.000000 0.000000 0.000000 0.000000
    16 0.000000 0.000000 0.000000 0.000000 0.000000 0.000000
    17 0.000000 0.000000 0.000000 0.000002 0.000013 -0.000019
    18 0.000000 0.000000 0.000000 0.000000 0.000000 0.000000
    19 0.000000 0.000000 0.000000 0.000000 0.000000 0.000000
    20 0.000000 0.000000 0.000000 0.000000 0.000000 0.000000
    21 0.000000 0.000000 0.000000 0.000000 0.000000 0.000000
    22 0.000000 0.000000 0.000000 0.000000 0.000000 0.000000
    23 0.000000 0.000000 0.000000 0.000000 0.000000 0.000000
    24 0.000000 0.000000 0.000000 0.000000 0.000000 0.000000
    25 0.000000 0.000000 0.000000 0.000000 0.000000 0.000000
    26 0.000000 0.000000 0.000000 -0.000012 0.000000 0.000000
    27 0.000000 0.000000 0.000000 0.000000 0.000000 0.000000
    28 0.000000 0.000000 0.000000 0.000000 0.000000 0.000000
    29 0.000000 0.000000 0.000000 0.000000 0.000000 0.000000
    30 -3.957152 4.011841 -53.629017 -0.157161 0.085896 0.196582
    31 0.000000 0.000000 0.000000 1.733311 -0.370190 -0.857283
    32 0.000000 0.000000 0.000000 0.000000 0.000000 -0.469409
    33 0.000000 0.000000 0.000000 -1.878167 -1.077447 0.983253
    34 0.000000 0.000000 0.000000 -0.235986 -0.049245 -0.108005
    35 0.000000 0.000000 0.000000 0.004818 -0.060211 -0.104792
    36 0.000000 0.000000 0.000000 -0.002517 0.000743 -0.111697
    37 0.000000 0.000000 0.000000 0.007023 -0.029614 0.087943
    38 0.000000 0.000000 0.000000 -0.118108 -0.002948 -0.024804
    39 0.000000 0.000000 0.000000 0.000000 0.000000 0.052931
    40 0.000000 0.000000 0.000000 0.003452 0.004326 -0.133154
    41 0.000000 0.000000 0.000000 -0.035307 0.084372 -0.020398
    42 0.000000 0.000000 0.000000 0.000000 0.000000 -0.200302
    43 0.000000 0.000000 0.000000 0.034983 -0.048945 -0.245544
    44 0.000000 0.000000 0.000000 0.000000 0.000000 -0.067496
    45 0.000000 0.000000 0.000000 0.000000 0.000000 -0.024999
    46 0.000000 0.000000 0.000000 0.968773 -0.060918 0.113732
    47 0.000000 0.000000 0.000000 -0.619719 -0.242614 0.142377
    48 0.000000 0.000000 0.000000 0.021980 -0.011997 -0.080118
    49 0.000000 0.000000 0.000000 0.000000 0.000000 0.000000
    50 0.000000 0.000000 0.000000 0.000000 0.000000 0.000000
    51 0.000000 0.000000 0.000000 0.000000 0.000000 0.000000
    52 0.000000 0.000000 0.000000 0.000000 0.000000 0.000000
    53 -92.312500 -76.687500 24.890625 -1.031132 -0.000001 -0.000002
    54 0.000000 0.000000 0.000000 0.000000 0.000000 0.000000
    55 0.000000 0.000000 0.000000 0.000000 0.000000 0.000000
    56 0.000000 0.000000 0.000000 0.000000 0.000000 0.000000
    57 0.000000 0.000000 0.000000 -0.580451 0.000000 0.000000
    58 0.000000 0.000000 0.000000 -1.099633 0.000000 0.000000
    59 0.000000 0.000000 0.000000 0.053415 0.111157 0.093995
    60 0.000000 0.000000 0.000000 0.322716 0.000000 0.000000
    61 0.000000 0.000000 0.000000 0.558937 0.000000 0.000000
    62 0.000000 0.000000 0.000000 0.000000 0.000000 0.000000
    63 0.000000 0.000000 0.000000 0.000000 0.000000 0.000000
    64 0.000000 0.000000 0.000000 0.000000 0.000000 0.000000
    65 0.000000 0.000000 0.000000 0.000000 0.000000 0.000000
    66 0.000000 0.000000 0.000000 0.000000 0.000000 0.000000
    67 0.000000 0.000000 0.000000 0.000000 0.000000 0.000000
  time 3
    0 0.000000 0.000000 0.000000 0.000000 0.000000 -1.570796
    1 0.000000 0.000000 0.000000 0.000000 -0.000059 0.000000
    2 0.000000 0.000000 0.000000 0.000000 0.000000 0.000000
    3 6.105655 2.648518 -2.261788 -0.136347 0.181504 0.273106
    4 0.000000 0.000000 0.000000 0.000000 0.000000 0.000000
    5 0.003233 -0.004498 -0.005451 0.000086 0.000002 0.000000
    6 0.000000 0.000000 0.000000 0.000000 0.000000 0.000000
    7 0.000000 0.000000 0.000000 0.000000 0.000060 0.000000
    8 0.000000 0.000000 0.000000 0.000000 -0.000036 0.000000
    9 0.000000 0.000000 0.000000 0.000000 0.000036 0.000000
    10 0.000000 0.000000 0.000000 0.000000 0.000000 0.000000
    11 2.117252 -1.851619 4.097781 0.732808 -0.637254 -0.054540
    12 0.000000 0.000000 0.000000 -0.977883 0.198707 0.124515
    13 0.000000 0.000000 0.000000 0.000000 0.000012 -0.816980
    14 0.000000 0.000000 0.000000 1.009253 -0.033667 -0.097293
    15 0.000000 0.000000 0.000000 0.000000 0.000000 0.000000
    16 0.000000 0.000000 0.000000 0.000000 0.000000 0.000000
    17 0.000000 0.000000 0.000000 0.000002 0.000013 -0.000019
    18 0.000000 0.000000 0.000000 0.000000 0.000000 0.000000
    19 0.000000 0.000000 0.000000 0.000000 0.000000 0.000000
    20 0.000000 0.000000 0.000000 0.000000 0.000000 0.000000
    21 0.000000 0.000000 0.000000 0.000000 0.000000 0.000000
    22 0.000000 0.000000 0.000000 0.000000 0.000000 0.000000
    23 0.000000 0.000000 0.000000 0.000000 0.000000 0.000000
    24 0.000000 0.000000 0.000000 0.000000 0.000000 0.000000
    25 0.000000 0.000000 0.000000 0.000000 0.000000 0.000000
    26 0.000000 0.000000 0.000000 -0.000012 0.000000 0.000000
    27 0.000000 0.000000 0.000000 0.000000 0.000000 0.000000
    28 0.000000 0.000000 0.000000 0.000000 0.000000 0.000000
    29 0.000000 0.000000 0.000000 0.000000 0.000000 0.000000
    30 -3.957152 4.011841 -53.629017 -0.245349 0.138269 0.299154
    31 0.000000 0.000000 0.000000 1.428384 -0.450426 -0.672087
    32 0.000000 0.000000 0.000000 0.000000 -0.000012 -0.813147
    33 0.000000 0.000000 0.000000 -0.980583 -0.927367 0.535474
    34 0.000000 0.000000 0.000000 -0.233063 -0.053727 -0.119414
    35 0.000000 0.000000 0.000000 0.004818 -0.060211 -0.117257
    36 0.000000 0.000000 0.000000 -0.003787 0.001091 -0.124131
    37 0.000000 0.000000 0.000000 0.009528 -0.029374 0.075655
    38 0.000000 0.000000 0.000000 -0.118060 -0.004410 -0.037193
    39 0.000000 0.000000 0.000000 0.000000 0.000000 0.040453
    40 0.000000 0.000000 0.000000 0.005117 0.006520 -0.145320
    41 0.000000 0.000000 0.000000 -0.034839 0.084407 -0.032838
    42 0.000000 0.000000 0.000000 0.000000 0.000000 -0.212763
    43 0.000000 0.000000 0.000000 0.036877 -0.049712 -0.257946
    44 0.000000 0.000000 0.000000 0.000000 0.000000 -0.079952
    45 0.000000 0.000000 0.000000 0.000000 0.000000 -0.037475
    46 0.000000 0.000000 0.000000 0.969049 -0.068828 0.104077
    47 0.000000 0.000000 0.000000 -0.617265 -0.254856 0.141778
    48 0.000000 0.000000 0.000000 0.032934 -0.017977 -0.080282
    49 0.000000 0.000000 0.000000 0.000000 0.000000 0.000000
    50 0.000000 0.000000 0.000000 0.000000 0.000000 0.000000
    51 0.000000 0.000000 0.000000 0.000000 0.000000 0.000000
    52 0.000000 0.000000 0.000000 0.000000 0.000000 0.000000
    53 -92.312500 -76.687500 24.890625 -1.031132 -0.000001 -0.000002
    54 0.000000 0.000000 0.000000 0.000000 0.000000 0.000000
    55 0.000000 0.000000 0.000000 0.000000 0.000000 0.000000
    56 0.000000 0.000000 0.000000 0.000000 0.000000 0.000000
    57 0.000000 0.000000 0.000000 -0.197336 0.000000 0.000000
    58 0.000000 0.000000 0.000000 -0.380177 0.000000 0.000000
    59 0.000000 0.000000 0.000000 0.050179 0.103978 0.091706
    60 0.000000 0.000000 0.000000 0.401431 0.000000 0.000000
    61 0.000000 0.000000 0.000000 0.695340 0.000000 0.000000
    62 0.000000 0.000000 0.000000 0.000000 -0.000012 0.000000
    63 0.000000 0.000000 0.000000 0.000000 0.000000 0.000000
    64 0.000000 0.000000 0.000000 0.000000 0.000000 0.000000
    65 0.000000 0.000000 0.000000 0.000000 0.000000 0.000000
    66 0.000000 0.000000 0.000000 0.000000 0.000000 0.000000
    67 0.000000 0.000000 0.000000 0.000000 0.000000 0.000000
  time 4
    0 0.000000 0.000000 0.000000 0.000000 0.000000 -1.570796
    1 0.000000 0.000000 0.000000 0.000000 -0.000059 0.000000
    2 0.000000 0.000000 0.000000 0.000000 0.000000 0.000000
    3 12.433973 3.742302 0.929716 -0.253270 0.280093 0.500234
    4 0.000000 0.000000 0.000000 0.000000 0.000000 0.000000
    5 0.003233 -0.004498 -0.005451 0.000086 0.000002 0.000000
    6 0.000000 0.000000 0.000000 0.000000 0.000000 0.000000
    7 0.000000 0.000000 0.000000 0.000000 0.000060 0.000000
    8 0.000000 0.000000 0.000000 0.000000 -0.000036 0.000000
    9 0.000000 0.000000 0.000000 0.000000 0.000036 0.000000
    10 0.000000 0.000000 0.000000 0.000000 0.000000 0.000000
    11 2.117252 -1.851619 4.097781 0.732808 -0.637254 -0.054540
    12 0.000000 0.000000 0.000000 -1.048677 0.226629 0.519499
    13 0.000000 0.000000 0.000000 0.000000 0.000036 -1.554784
    14 0.000000 0.000000 0.000000 1.349063 0.473502 -0.095655
    15 0.000000 0.000000 0.000000 0.000000 0.000000 0.000000
    16 0.000000 0.000000 0.000000 0.000000 0.000000 0.000000
    17 0.000000 0.000000 0.000000 0.000002 0.000013 -0.000019
    18 0.000000 0.000000 0.000000 0.000000 0.000000 0.000000
    19 0.000000 0.000000 0.000000 0.000000 0.000000 0.000000
    20 0.000000 0.000000 0.000000 0.000000 0.000000 0.000000
    21 0.000000 0.000000 0.000000 0.000000 0.000000 0.000000
    22 0.000000 0.000000 0.000000 0.000000 0.000000 0.000000
    23 0.000000 0.000000 0.000000 0.000000 0.000000 0.000000
    24 0.000000 0.000000 0.000000 0.000000 0.000000 0.000000
    25 0.000000 0.000000 0.000000 0.000000 0.000000 0.000000
    26 0.000000 0.000000 0.000000 -0.000012 0.000000 0.000000
    27 0.000000 0.000000 0.000000 0.000000 0.000000 0.000000
    28 0.000000 0.000000 0.000000 0.000000 0.000000 0.000000
    29 0.000000 0.000000 0.000000 0.000000 0.000000 0.000000
    30 -3.957152 4.011841 -53.629017 -0.329596 0.190927 0.391866
    31 0.000000 0.000000 0.000000 0.913821 -0.114702 -0.450825
    32 0.000000 0.000000 0.000000 0.000000 -0.000012 -0.967485
    33 0.000000 0.000000 0.000000 -0.526582 -0.245793 0.585495
    34 0.000000 0.000000 0.000000 -0.230068 -0.058197 -0.130884
    35 0.000000 0.000000 0.000000 0.004818 -0.060211 -0.129767
    36 0.000000 0.000000 0.000000 -0.005057 0.001426 -0.136565
    37 0.000000 0.000000 0.000000 0.012045 -0.029087 0.063328
    38 0.000000 0.000000 0.000000 -0.117988 -0.005884 -0.049609
    39 0.000000 0.000000 0.000000 0.000000 0.000000 0.027938
    40 0.000000 0.000000 0.000000 0.006771 0.008725 -0.157485
    41 0.000000 0.000000 0.000000 -0.034384 0.084431 -0.045279
    42 0.000000 0.000000 0.000000 0.000000 0.000000 -0.225255
    43 0.000000 0.000000 0.000000 0.038794 -0.050479 -0.270378
    44 0.000000 0.000000 0.000000 0.000000 0.000000 -0.092472
    45 0.000000 0.000000 0.000000 0.000000 0.000000 -0.049999
    46 0.000000 0.000000 0.000000 0.969417 -0.076749 0.094378
    47 0.000000 0.000000 0.000000 -0.614811 -0.267135 0.141131
    48 0.000000 0.000000 0.000000 0.043900 -0.023981 -0.080488
    49 0.000000 0.000000 0.000000 0.000000 0.000000 0.000000
    50 0.000000 0.000000 0.000000 0.000000 0.000000 0.000000
    51 0.000000 0.000000 0.000000 0.000000 0.000000 0.000000
    52 0.000000 0.000000 0.000000 0.000000 0.000000 0.000000
    53 -92.312500 -76.687500 24.890625 -1.031132 -0.000001 -0.000002
    54 0.000000 0.000000 0.000000 0.000000 0.000000 0.000000
    55 0.000000 0.000000 0.000000 0.000000 0.000000 0.000000
    56 0.000000 0.000000 0.000000 0.000000 0.000000 0.000000
    57 0.000000 0.000000 0.000000 -0.011597 0.000000 0.000000
    58 0.000000 0.000000 0.000000 -0.022395 0.000000 0.000000
    59 0.000000 0.000000 0.000000 0.046944 0.096728 0.089429
    60 0.000000 0.000000 0.000000 0.350555 0.000000 0.000000
    61 0.000000 0.000000 0.000000 0.607198 0.000000 0.000000
    62 0.000000 0.000000 0.000000 0.000000 0.000000 0.000000
    63 0.000000 0.000000 0.000000 0.000000 0.000000 0.000000
    64 0.000000 0.000000 0.000000 0.000000 0.000000 0.000000
    65 0.000000 0.000000 0.000000 0.000000 0.000000 0.000000
    66 0.000000 0.000000 0.000000 0.000000 0.000000 0.000000
    67 0.000000 0.000000 0.000000 0.000000 0.000000 0.000000
  time 5
    0 0.000000 0.000000 0.000000 0.000000 0.000000 -1.570796
    1 0.000000 0.000000 0.000000 0.000000 -0.000059 0.000000
    2 0.000000 0.000000 0.000000 0.000000 0.000000 0.000000
    3 16.543474 10.633137 1.058626 -0.410715 0.320344 0.599969
    4 0.000000 0.000000 0.000000 0.000000 0.000000 0.000000
    5 0.003233 -0.004498 -0.005451 0.000086 0.000002 0.000000
    6 0.000000 0.000000 0.000000 0.000000 0.000000 0.000000
    7 0.000000 0.000000 0.000000 0.000000 0.000060 0.000000
    8 0.000000 0.000000 0.000000 0.000000 -0.000036 0.000000
    9 0.000000 0.000000 0.000000 0.000000 0.000036 0.000000
    10 0.000000 0.000000 0.000000 0.000000 0.000000 0.000000
    11 2.117252 -1.851619 4.097781 0.732808 -0.637254 -0.054540
    12 0.000000 0.000000 0.000000 -1.413014 -0.575132 1.092324
    13 0.000000 0.000000 0.000000 0.000000 0.000024 -1.253395
    14 0.000000 0.000000 0.000000 1.068831 1.045359 0.108065
    15 0.000000 0.000000 0.000000 0.000000 0.000000 0.000000
    16 0.000000 0.000000 0.000000 0.000000 0.000000 -0.000014
    17 0.000000 0.000000 0.000000 0.000002 0.000013 -0.000019
    18 0.000000 0.000000 0.000000 0.000000 0.000000 0.000000
    19 0.000000 0.000000 0.000000 0.000000 0.000000 0.000000
    20 0.000000 0.000000 0.000000 0.000000 0.000000 0.000000
    21 0.000000 0.000000 0.000000 0.000000 0.000000 0.000000
    22 0.000000 0.000000 0.000000 0.000000 0.000000 -0.000016
    23 0.000000 0.000000 0.000000 0.000000 0.000000 0.000000
    24 0.000000 0.000000 0.000000 0.000000 0.000000 0.000000
    25 0.000000 0.000000 0.000000 0.000000 0.000000 0.000000
    26 0.000000 0.000000 0.000000 -0.000012 0.000000 0.000000
    27 0.000000 0.000000 0.000000 0.000000 0.000000 0.000000
    28 0.000000 0.000000 0.000000 0.000000 0.000000 0.000000
    29 0.000000 0.000000 0.000000 0.000000 0.000000 0.000000
    30 -3.957152 4.011841 -53.629017 -0.401115 0.237485 0.466476
    31 0.000000 0.000000 0.000000 1.170768 0.360236 -0.672564
    32 0.000000 0.000000 0.000000 0.000000 0.000000 -0.611991
    33 0.000000 0.000000 0.000000 -0.515107 -0.267227 0.554849
    34 0.000000 0.000000 0.000000 -0.227025 -0.062631 -0.142401
    35 0.000000 0.000000 0.000000 0.004806 -0.060199 -0.142322
    36 0.000000 0.000000 0.000000 -0.006340 0.001750 -0.149033
    37 0.000000 0.000000 0.000000 0.014561 -0.028775 0.050989
    38 0.000000 0.000000 0.000000 -0.117904 -0.007371 -0.062080
    39 0.000000 0.000000 0.000000 0.000000 0.000000 0.015386
    40 0.000000 0.000000 0.000000 0.008413 0.010966 -0.169695
    41 0.000000 0.000000 0.000000 -0.033916 0.084467 -0.057794
    42 0.000000 0.000000 0.000000 0.000000 0.000000 -0.237809
    43 0.000000 0.000000 0.000000 0.040736 -0.051222 -0.282840
    44 0.000000 0.000000 0.000000 0.000000 0.000000 -0.105013
    45 0.000000 0.000000 0.000000 0.000000 0.000000 -0.062523
    46 0.000000 0.000000 0.000000 0.969846 -0.084695 0.084636
    47 0.000000 0.000000 0.000000 -0.612310 -0.279451 0.140459
    48 0.000000 0.000000 0.000000 0.054913 -0.029985 -0.080817
    49 0.000000 0.000000 0.000000 0.000000 0.000000 0.000000
    50 0.000000 0.000000 0.000000 0.000000 0.000000 0.000000
    51 0.000000 0.000000 0.000000 0.000000 0.000000 0.000000
    52 0.000000 0.000000 0.000000 0.000000 0.000000 0.000000
    53 -92.312500 -76.687500 24.890625 -1.031132 -0.000001 -0.000002
    54 0.000000 0.000000 0.000000 0.000000 0.000000 0.000000
    55 0.000000 0.000000 0.000000 0.000000 0.000000 0.000000
    56 0.000000 0.000000 0.000000 0.000000 0.000000 0.000000
    57 0.000000 0.000000 0.000000 -0.009011 0.000000 0.000000
    58 0.000000 0.000000 0.000000 -0.017384 0.000000 0.000000
    59 0.000000 0.000000 0.000000 0.043684 0.089381 0.087128
    60 0.000000 0.000000 0.000000 -0.005857 0.000000 0.000000
    61 0.000000 0.000000 0.000000 -0.010141 0.000000 0.000000
    62 0.000000 0.000000 0.000000 0.000000 -0.000012 0.000000
    63 0.000000 0.000000 0.000000 0.000000 0.000000 0.000000
    64 0.000000 0.000000 0.000000 0.000000 0.000000 0.000000
    65 0.000000 0.000000 0.000000 0.000000 0.000000 0.000000
    66 0.000000 0.000000 0.000000 0.000000 0.000000 0.000000
    67 0.000000 0.000000 0.000000 0.000000 0.000000 0.000000
  time 6
    0 0.000000 0.000000 0.000000 0.000000 0.000000 -1.570796
    1 0.000000 0.000000 0.000000 0.000000 -0.000059 0.000000
    2 0.000000 0.000000 0.000000 0.000000 0.000000 0.000000
    3 19.039644 16.625507 0.273446 -0.512860 0.349686 0.678617
    4 0.000000 0.000000 0.000000 0.000000 0.000000 0.000000
    5 0.003233 -0.004498 -0.005451 0.000086 0.000002 0.000000
    6 0.000000 0.000000 0.000000 0.000000 0.000000 0.000000
    7 0.000000 0.000000 0.000000 0.000000 0.000060 0.000000
    8 0.000000 0.000000 0.000000 0.000000 -0.000036 0.000000
    9 0.000000 0.000000 0.000000 0.000000 0.000036 0.000000
    10 0.000000 0.000000 0.000000 0.000000 0.000000 0.000000
    11 2.117252 -1.851619 4.097781 0.732808 -0.637254 -0.054540
    12 0.000000 0.000000 0.000000 -1.793351 -1.009608 1.747146
    13 0.000000 0.000000 0.000000 0.000000 0.000012 -0.506943
    14 0.000000 0.000000 0.000000 0.166730 0.931468 -0.444927
    15 0.000000 0.000000 0.000000 0.000000 0.000000 0.000000
    16 0.000000 0.000000 0.000000 0.000000 0.000000 0.000000
    17 0.000000 0.000000 0.000000 0.000002 0.000013 -0.000019
    18 0.000000 0.000000 0.000000 0.000000 0.000000 0.000000
    19 0.000000 0.000000 0.000000 0.000000 0.000000 0.000000
    20 0.000000 0.000000 0.000000 0.000000 0.000000 0.000000
    21 0.000000 0.000000 0.000000 0.000000 0.000000 0.000000
    22 0.000000 0.000000 0.000000 0.000000 0.000000 0.000000
    23 0.000000 0.000000 0.000000 0.000000 0.000000 0.000000
    24 0.000000 0.000000 0.000000 0.000000 0.000000 0.000000
    25 0.000000 0.000000 0.000000 0.000000 0.000000 0.000000
    26 0.000000 0.000000 0.000000 -0.000012 0.000000 0.000000
    27 0.000000 0.000000 0.000000 0.000000 0.000000 0.000000
    28 0.000000 0.000000 0.000000 0.000000 0.000000 0.000000
    29 0.000000 0.000000 0.000000 0.000000 0.000000 0.000000
    30 -3.957152 4.011841 -53.629017 -0.450382 0.270545 0.515718
    31 0.000000 0.000000 0.000000 1.315761 0.754639 -0.685922
    32 0.000000 0.000000 0.000000 0.000000 0.000000 -0.137701
    33 0.000000 0.000000 0.000000 -0.340870 -0.259533 0.345775
    34 0.000000 0.000000 0.000000 -0.223946 -0.067006 -0.153858
    35 0.000000 0.000000 0.000000 0.004818 -0.060199 -0.154810
    36 0.000000 0.000000 0.000000 -0.007622 0.002049 -0.161467
    37 0.000000 0.000000 0.000000 0.017054 -0.028439 0.038688
    38 0.000000 0.000000 0.000000 -0.117809 -0.008833 -0.074468
    39 0.000000 0.000000 0.000000 0.000000 0.000000 0.002871
    40 0.000000 0.000000 0.000000 0.010007 0.013219 -0.181861
    41 0.000000 0.000000 0.000000 -0.033437 0.084503 -0.070234
    42 0.000000 0.000000 0.000000 0.000000 0.000000 -0.250301
    43 0.000000 0.000000 0.000000 0.042665 -0.051917 -0.295257
    44 0.000000 0.000000 0.000000 0.000000 0.000000 -0.117491
    45 0.000000 0.000000 0.000000 0.000000 0.000000 -0.074998
    46 0.000000 0.000000 0.000000 0.970367 -0.092593 0.074952
    47 0.000000 0.000000 0.000000 -0.609808 -0.291682 0.139764
    48 0.000000 0.000000 0.000000 0.065867 -0.035954 -0.081187
    49 0.000000 0.000000 0.000000 0.000000 0.000000 0.000000
    50 0.000000 0.000000 0.000000 0.000000 0.000000 0.000000
    51 0.000000 0.000000 0.000000 0.000000 0.000000 0.000000
    52 0.000000 0.000000 0.000000 0.000000 0.000000 0.000000
    53 -92.312500 -76.687500 24.890625 -1.031132 -0.000001 -0.000002
    54 0.000000 0.000000 0.000000 0.000000 0.000000 0.000000
    55 0.000000 0.000000 0.000000 0.000000 0.000000 0.000000
    56 0.000000 0.000000 0.000000 0.000000 0.000000 0.000000
    57 0.000000 0.000000 0.000000 0.006223 0.000000 0.000000
    58 0.000000 0.000000 0.000000 0.011988 0.000000 0.000000
    59 0.000000 0.000000 0.000000 0.040436 0.082035 0.084875
    60 0.000000 0.000000 0.000000 -0.190894 0.000000 0.000000
    61 0.000000 0.000000 0.000000 -0.330156 0.000000 0.000000
    62 0.000000 0.000000 0.000000 0.000000 0.000000 0.000000
    63 0.000000 0.000000 0.000000 0.000000 0.000000 0.000000
    64 0.000000 0.000000 0.000000 0.000000 0.000000 0.000000
    65 0.000000 0.000000 0.000000 0.000000 0.000000 0.000000
    66 0.000000 0.000000 0.000000 0.000000 0.000000 0.000000
    67 0.000000 0.000000 0.000000 0.000000 0.000000 0.000000
  time 7
    0 0.000000 0.000000 0.000000 0.000000 0.000000 -1.570796
    1 0.000000 0.000000 0.000000 0.000000 -0.000059 0.000000
    2 0.000000 0.000000 0.000000 0.000000 0.000000 0.000000
    3 19.606067 17.840388 -0.316416 -0.480051 0.367658 0.738078
    4 0.000000 0.000000 0.000000 0.000000 0.000000 0.000000
    5 0.003233 -0.004498 -0.005451 0.000086 0.000002 0.000000
    6 0.000000 0.000000 0.000000 0.000000 0.000000 0.000000
    7 0.000000 0.000000 0.000000 0.000000 0.000060 0.045499
    8 0.000000 0.000000 0.000000 0.000000 -0.000036 0.035990
    9 0.000000 0.000000 0.000000 0.000000 0.000036 0.014909
    10 0.000000 0.000000 0.000000 0.000000 0.000000 -0.030872
    11 2.117252 -1.851619 4.097781 0.732808 -0.637234 -0.054540
    12 0.000000 0.000000 0.000000 -2.059900 -1.012164 2.044054
    13 0.000000 0.000000 0.000000 0.000000 0.000012 -0.459105
    14 0.000000 0.000000 0.000000 0.070015 0.988798 -0.547045
    15 0.000000 0.000000 0.000000 0.000000 0.000000 0.000000
    16 0.000000 0.000000 0.000000 0.000000 0.000000 0.000000
    17 0.000000 0.000000 0.000000 0.000002 0.000013 -0.000019
    18 0.000000 0.000000 0.000000 0.000000 0.000000 0.000000
    19 0.000000 0.000000 0.000000 0.000000 0.000000 0.000000
    20 0.000000 0.000000 0.000000 0.000000 0.000000 0.000000
    21 0.000000 0.000000 0.000000 0.000000 0.000000 0.000000
    22 0.000000 0.000000 0.000000 0.000000 0.000000 0.000000
    23 0.000000 0.000000 0.000000 0.000000 0.000000 0.000000
    24 0.000000 0.000000 0.000000 0.000000 0.000000 0.000000
    25 0.000000 0.000000 0.000000 0.000000 0.000000 0.000000
    26 0.000000 0.000000 0.000000 -0.000012 0.000000 0.000000
    27 0.000000 0.000000 0.000000 0.000000 0.000000 0.000000
    28 0.000000 0.000000 0.000000 0.000000 0.000000 0.000000
    29 0.000000 0.000000 0.000000 0.000000 0.000000 0.000000
    30 -3.957152 4.007935 -53.629017 -0.468939 0.283100 0.533690
    31 0.000000 0.000000 0.000000 1.358474 0.912564 -0.634495
    32 0.000000 0.000000 0.000000 0.000000 0.000000 -0.068335
    33 0.000000 0.000000 0.000000 -0.235132 -0.287012 0.368886
    34 0.000000 0.000000 0.000000 -0.227037 -0.062608 -0.142365
    35 0.000000 0.000000 0.000000 0.004818 -0.060199 -0.142277
    36 0.000000 0.000000 0.000000 -0.006340 0.001738 -0.148998
    37 0.000000 0.000000 0.000000 0.014549 -0.028787 0.051015
    38 0.000000 0.000000 0.000000 -0.117916 -0.007359 -0.062025
    39 0.000000 0.000000 0.000000 0.000000 0.000000 0.015423
    40 0.000000 0.000000 0.000000 0.008413 0.010954 -0.169673
    41 0.000000 0.000000 0.000000 -0.033916 0.084455 -0.057756
    42 0.000000 0.000000 0.000000 0.000000 0.000000 -0.237778
    43 0.000000 0.000000 0.000000 0.040736 -0.051210 -0.282810
    44 0.000000 0.000000 0.000000 0.000000 0.000000 -0.104971
    45 0.000000 0.000000 0.000000 0.000000 0.000000 -0.062474
    46 0.000000 0.000000 0.000000 0.969877 -0.084671 0.084680
    47 0.000000 0.000000 0.000000 -0.612333 -0.279415 0.140471
    48 0.000000 0.000000 0.000000 0.054889 -0.029961 -0.080817
    49 0.000000 0.000000 0.000000 0.000000 0.000000 0.000000
    50 0.000000 0.000000 0.000000 0.000000 0.000000 0.000000
    51 0.000000 0.000000 0.000000 0.000000 0.000000 0.000000
    52 0.000000 0.000000 0.000000 0.000000 0.000000 0.000000
    53 -92.312500 -76.687500 24.890625 -1.031132 -0.000001 -0.000002
    54 0.000000 0.000000 0.000000 0.000000 0.000000 0.000000
    55 0.000000 0.000000 0.000000 0.000000 0.000000 0.000000
    56 0.000000 0.000000 0.000000 0.000000 0.000000 0.000000
    57 0.000000 0.000000 0.000000 0.052834 0.000000 0.000000
    58 0.000000 0.000000 0.000000 0.101799 0.000000 0.000000
    59 0.000000 0.000000 0.000000 0.043684 0.089405 0.087140
    60 0.000000 0.000000 0.000000 -0.215269 0.000000 0.000000
    61 0.000000 0.000000 0.000000 -0.372264 0.000000 0.000000
    62 0.000000 0.000000 0.000000 0.000000 0.000000 0.000000
    63 0.000000 0.000000 0.000000 0.000000 0.000000 0.000000
    64 0.000000 0.000000 0.000000 0.000000 0.000000 0.000000
    65 0.000000 0.000000 0.000000 0.000000 0.000000 0.000000
    66 0.000000 0.000000 0.000000 0.000000 0.000000 0.000000
    67 0.000000 0.000000 0.000000 0.000000 0.000000 0.000000
  time 8
    0 0.000000 0.000000 0.000000 0.000000 0.000000 -1.570796
    1 0.000000 0.000000 0.000000 0.000000 -0.000059 0.000000
    2 0.000000 0.000000 0.000000 0.000000 0.000000 0.000000
    3 19.266213 18.324778 -0.960967 -0.396030 0.369036 0.781723
    4 0.000000 0.000000 0.000000 0.000000 0.000000 0.000000
    5 0.003233 -0.004498 -0.005451 0.000086 0.000002 0.000000
    6 0.000000 0.000000 0.000000 0.000000 0.000000 0.000000
    7 0.000000 0.000000 0.000000 0.000000 0.000060 0.130070
    8 0.000000 0.000000 0.000000 0.000000 -0.000036 0.102936
    9 0.000000 0.000000 0.000000 0.000000 0.000036 0.042665
    10 0.000000 0.000000 0.000000 0.000000 0.000000 -0.088338
    11 2.117252 -1.851619 4.097781 0.732808 -0.637234 -0.054540
    12 0.000000 0.000000 0.000000 -2.296326 -0.914108 2.184469
    13 0.000000 0.000000 0.000000 0.000000 0.000012 -0.634353
    14 0.000000 0.000000 0.000000 0.132114 1.203930 -0.587979
    15 0.000000 0.000000 0.000000 0.000000 0.000000 0.000000
    16 0.000000 0.000000 0.000000 0.000000 0.000000 0.000000
    17 0.000000 0.000000 0.000000 0.000002 0.000013 -0.000019
    18 0.000000 0.000000 0.000000 0.000000 0.000000 0.000000
    19 0.000000 0.000000 0.000000 0.000000 0.000000 0.000000
    20 0.000000 0.000000 0.000000 0.000000 0.000000 0.000000
    21 0.000000 0.000000 0.000000 0.000000 0.000000 0.000000
    22 0.000000 0.000000 0.000000 0.000000 0.000000 0.000000
    23 0.000000 0.000000 0.000000 0.000000 0.000000 0.000000
    24 0.000000 0.000000 0.000000 0.000000 0.000000 0.000000
    25 0.000000 0.000000 0.000000 0.000000 0.000000 0.000000
    26 0.000000 0.000000 0.000000 0.000000 0.000000 0.000000
    27 0.000000 0.000000 0.000000 0.000000 0.000000 0.000000
    28 0.000000 0.000000 0.000000 0.000000 0.000000 0.000000
    29 0.000000 0.000000 0.000000 0.000000 0.000000 0.000000
    30 -3.957152 4.007935 -53.629017 -0.451942 0.271647 0.517340
    31 0.000000 0.000000 0.000000 1.308291 1.054735 -0.701856
    32 0.000000 0.000000 0.000000 0.000000 0.000000 -0.036917
    33 0.000000 0.000000 0.000000 -0.203523 -0.386657 0.437079
    34 0.000000 0.000000 0.000000 -0.230080 -0.058173 -0.130848
    35 0.000000 0.000000 0.000000 0.004818 -0.060211 -0.129722
    36 0.000000 0.000000 0.000000 -0.005057 0.001426 -0.136530
    37 0.000000 0.000000 0.000000 0.012033 -0.029099 0.063366
    38 0.000000 0.000000 0.000000 -0.118000 -0.005884 -0.049581
    39 0.000000 0.000000 0.000000 0.000000 0.000000 0.027975
    40 0.000000 0.000000 0.000000 0.006783 0.008725 -0.157463
    41 0.000000 0.000000 0.000000 -0.034372 0.084431 -0.045241
    42 0.000000 0.000000 0.000000 0.000000 0.000000 -0.225224
    43 0.000000 0.000000 0.000000 0.038794 -0.050467 -0.270333
    44 0.000000 0.000000 0.000000 0.000000 0.000000 -0.092430
    45 0.000000 0.000000 0.000000 0.000000 0.000000 -0.049950
    46 0.000000 0.000000 0.000000 0.969417 -0.076725 0.094407
    47 0.000000 0.000000 0.000000 -0.614811 -0.267099 0.141131
    48 0.000000 0.000000 0.000000 0.043864 -0.023957 -0.080488
    49 0.000000 0.000000 0.000000 0.000000 0.000000 0.000000
    50 0.000000 0.000000 0.000000 0.000000 0.000000 0.000000
    51 0.000000 0.000000 0.000000 0.000000 0.000000 0.000000
    52 0.000000 0.000000 0.000000 0.000000 0.000000 0.000000
    53 -92.312500 -76.687500 24.890625 -1.031132 -0.000001 -0.000002
    54 0.000000 0.000000 0.000000 0.000000 0.000000 0.000000
    55 0.000000 0.000000 0.000000 0.000000 0.000000 0.000000
    56 0.000000 0.000000 0.000000 0.000000 0.000000 0.000000
    57 0.000000 0.000000 0.000000 0.096900 0.000000 0.000000
    58 0.000000 0.000000 0.000000 0.186600 0.000000 0.000000
    59 0.000000 0.000000 0.000000 0.046944 0.096752 0.089441
    60 0.000000 0.000000 0.000000 -0.196430 0.000000 0.000000
    61 0.000000 0.000000 0.000000 -0.339709 0.000000 0.000000
    62 0.000000 0.000000 0.000000 0.000000 0.000000 0.000000
    63 0.000000 0.000000 0.000000 0.000000 0.000000 0.000000
    64 0.000000 0.000000 0.000000 0.000000 0.000000 0.000000
    65 0.000000 0.000000 0.000000 0.000000 0.000000 0.000000
    66 0.000000 0.000000 0.000000 0.000000 0.000000 0.000000
    67 0.000000 0.000000 0.000000 0.000000 0.000000 0.000000
  time 9
    0 0.000000 0.000000 0.000000 0.000000 0.000000 -1.570796
    1 0.000000 0.000000 0.000000 0.000000 -0.000059 0.000000
    2 0.000000 0.000000 0.000000 0.000000 0.000000 0.000000
    3 18.770104 18.273995 -1.246132 -0.314054 0.356806 0.810071
    4 0.000000 0.000000 0.000000 0.000000 0.000000 0.000000
    5 0.003233 -0.004498 -0.005451 0.000086 0.000002 0.000000
    6 0.000000 0.000000 0.000000 0.000000 0.000000 0.000000
    7 0.000000 0.000000 0.000000 0.000000 0.000060 0.175415
    8 0.000000 0.000000 0.000000 0.000000 -0.000036 0.138818
    9 0.000000 0.000000 0.000000 0.000000 0.000036 0.057538
    10 0.000000 0.000000 0.000000 0.000000 0.000000 -0.119139
    11 2.117252 -1.851619 4.097781 0.732808 -0.637254 -0.054540
    12 0.000000 0.000000 0.000000 -2.397243 -0.876930 2.203137
    13 0.000000 0.000000 0.000000 0.000000 0.000012 -0.754227
    14 0.000000 0.000000 0.000000 0.257619 1.372986 -0.546787
    15 0.000000 0.000000 0.000000 0.000000 0.000000 0.000000
    16 0.000000 0.000000 0.000000 0.000000 0.000000 0.000000
    17 0.000000 0.000000 0.000000 0.000002 0.000013 -0.000019
    18 0.000000 0.000000 0.000000 0.000000 0.000000 0.000000
    19 0.000000 0.000000 0.000000 0.000000 0.000000 0.000000
    20 0.000000 0.000000 0.000000 0.000000 0.000000 0.000000
    21 0.000000 0.000000 0.000000 0.000000 0.000000 0.000000
    22 0.000000 0.000000 0.000000 0.000000 0.000000 0.000000
    23 0.000000 0.000000 0.000000 0.000000 0.000000 0.000000
    24 0.000000 0.000000 0.000000 0.000000 0.000000 0.000000
    25 0.000000 0.000000 0.000000 0.000000 0.000000 0.000000
    26 0.000000 0.000000 0.000000 0.000000 0.000000 0.000000
    27 0.000000 0.000000 0.000000 0.000000 0.000000 0.000000
    28 0.000000 0.000000 0.000000 0.000000 0.000000 0.000000
    29 0.000000 0.000000 0.000000 0.000000 0.000000 0.000000
    30 -3.957152 4.007935 -53.629017 -0.407520 0.241806 0.473093
    31 0.000000 0.000000 0.000000 1.186091 1.095938 -0.820645
    32 0.000000 0.000000 0.000000 0.000000 0.000000 0.046680
    33 0.000000 0.000000 0.000000 -0.163395 -0.470152 0.448413
    34 0.000000 0.000000 0.000000 -0.233063 -0.053727 -0.119414
    35 0.000000 0.000000 0.000000 0.004818 -0.060211 -0.117257
    36 0.000000 0.000000 0.000000 -0.003787 0.001091 -0.124131
    37 0.000000 0.000000 0.000000 0.009528 -0.029374 0.075655
    38 0.000000 0.000000 0.000000 -0.118060 -0.004410 -0.037193
    39 0.000000 0.000000 0.000000 0.000000 0.000000 0.040453
    40 0.000000 0.000000 0.000000 0.005117 0.006508 -0.145320
    41 0.000000 0.000000 0.000000 -0.034839 0.084407 -0.032838
    42 0.000000 0.000000 0.000000 0.000000 0.000000 -0.212763
    43 0.000000 0.000000 0.000000 0.036877 -0.049712 -0.257946
    44 0.000000 0.000000 0.000000 0.000000 0.000000 -0.079952
    45 0.000000 0.000000 0.000000 0.000000 0.000000 -0.037475
    46 0.000000 0.000000 0.000000 0.969080 -0.068816 0.104077
    47 0.000000 0.000000 0.000000 -0.617265 -0.254856 0.141778
    48 0.000000 0.000000 0.000000 0.032934 -0.017977 -0.080282
    49 0.000000 0.000000 0.000000 0.000000 0.000000 0.000000
    50 0.000000 0.000000 0.000000 0.000000 0.000000 0.000000
    51 0.000000 0.000000 0.000000 0.000000 0.000000 0.000000
    52 0.000000 0.000000 0.000000 0.000000 0.000000 0.000000
    53 -92.312500 -76.687500 24.890625 -1.031132 -0.000001 -0.000002
    54 0.000000 0.000000 0.000000 0.000000 0.000000 0.000000
    55 0.000000 0.000000 0.000000 0.000000 0.000000 0.000000
    56 0.000000 0.000000 0.000000 0.000000 0.000000 0.000000
    57 0.000000 0.000000 0.000000 0.125227 0.000000 0.000000
    58 0.000000 0.000000 0.000000 0.240950 0.000000 0.000000
    59 0.000000 0.000000 0.000000 0.050179 0.103978 0.091706
    60 0.000000 0.000000 0.000000 -0.170894 0.000000 0.000000
    61 0.000000 0.000000 0.000000 -0.295561 0.000000 0.000000
    62 0.000000 0.000000 0.000000 0.000000 0.000000 0.000000
    63 0.000000 0.000000 0.000000 0.000000 0.000000 0.000000
    64 0.000000 0.000000 0.000000 0.000000 0.000000 0.000000
    65 0.000000 0.000000 0.000000 0.000000 0.000000 0.000000
    66 0.000000 0.000000 0.000000 0.000000 0.000000 0.000000
    67 0.000000 0.000000 0.000000 0.000000 0.000000 0.000000
  time 10
    0 0.000000 0.000000 0.000000 0.000000 0.000000 -1.570796
    1 0.000000 0.000000 0.000000 0.000000 -0.000059 0.000000
    2 0.000000 0.000000 0.000000 0.000000 0.000000 0.000000
    3 18.332591 17.891171 -0.847682 -0.247600 0.343657 0.828652
    4 0.000000 0.000000 0.000000 0.000000 0.000000 0.000000
    5 0.003233 -0.004498 -0.005451 0.000086 0.000002 0.000000
    6 0.000000 0.000000 0.000000 0.000000 0.000000 0.000000
    7 0.000000 0.000000 0.000000 0.000000 0.000060 0.175415
    8 0.000000 0.000000 0.000000 0.000000 -0.000036 0.138818
    9 0.000000 0.000000 0.000000 0.000000 0.000036 0.057538
    10 0.000000 0.000000 0.000000 0.000000 0.000000 -0.119139
    11 2.117252 -1.851619 4.097781 0.732808 -0.637254 -0.054540
    12 0.000000 0.000000 0.000000 -2.341288 -0.877085 2.108187
    13 0.000000 0.000000 0.000000 0.000000 0.000012 -0.823009
    14 0.000000 0.000000 0.000000 0.575511 1.443687 -0.278348
    15 0.000000 0.000000 0.000000 0.000000 0.000000 0.000000
    16 0.000000 0.000000 0.000000 0.000000 0.000000 0.000000
    17 0.000000 0.000000 0.000000 0.000002 0.000013 -0.000019
    18 0.000000 0.000000 0.000000 0.000000 0.000000 0.000000
    19 0.000000 0.000000 0.000000 0.000000 0.000000 0.000000
    20 0.000000 0.000000 0.000000 0.000000 0.000000 0.000000
    21 0.000000 0.000000 0.000000 0.000000 0.000000 0.000000
    22 0.000000 0.000000 0.000000 0.000000 0.000000 0.000000
    23 0.000000 0.000000 0.000000 0.000000 0.000000 0.000000
    24 0.000000 0.000000 0.000000 0.000000 0.000000 0.000000
    25 0.000000 0.000000 0.000000 0.000000 0.000000 0.000000
    26 0.000000 0.000000 0.000000 0.000000 0.000000 0.000000
    27 0.000000 0.000000 0.000000 0.000000 0.000000 0.000000
    28 0.000000 0.000000 0.000000 0.000000 0.000000 0.000000
    29 0.000000 0.000000 0.000000 0.000000 0.000000 0.000000
    30 -3.957152 4.007935 -53.629017 -0.343637 0.199943 0.406788
    31 0.000000 0.000000 0.000000 1.050961 1.023674 -0.930560
    32 0.000000 0.000000 0.000000 0.000000 0.000000 0.180394
    33 0.000000 0.000000 0.000000 -0.092363 -0.510568 0.367557
    34 0.000000 0.000000 0.000000 -0.235986 -0.049233 -0.107969
    35 0.000000 0.000000 0.000000 0.004818 -0.060211 -0.104769
    36 0.000000 0.000000 0.000000 -0.002517 0.000743 -0.111663
    37 0.000000 0.000000 0.000000 0.006999 -0.029626 0.087981
    38 0.000000 0.000000 0.000000 -0.118096 -0.002948 -0.024777
    39 0.000000 0.000000 0.000000 0.000000 0.000000 0.052968
    40 0.000000 0.000000 0.000000 0.003452 0.004314 -0.133110
    41 0.000000 0.000000 0.000000 -0.035307 0.084384 -0.020360
    42 0.000000 0.000000 0.000000 0.000000 0.000000 -0.200240
    43 0.000000 0.000000 0.000000 0.034971 -0.048933 -0.245514
    44 0.000000 0.000000 0.000000 -0.000012 0.000000 -0.067454
    45 0.000000 0.000000 0.000000 0.000000 0.000000 -0.024999
    46 0.000000 0.000000 0.000000 0.968773 -0.060894 0.113761
    47 0.000000 0.000000 0.000000 -0.619719 -0.242577 0.142377
    48 0.000000 0.000000 0.000000 0.021944 -0.011985 -0.080118
    49 0.000000 0.000000 0.000000 0.000000 0.000000 0.000000
    50 0.000000 0.000000 0.000000 0.000000 0.000000 0.000000
    51 0.000000 0.000000 0.000000 0.000000 0.000000 0.000000
    52 0.000000 0.000000 0.000000 0.000000 0.000000 0.000000
    53 -92.312500 -76.687500 24.890625 -1.031132 -0.000001 -0.000002
    54 0.000000 0.000000 0.000000 0.000000 0.000000 0.000000
    55 0.000000 0.000000 0.000000 0.000000 0.000000 0.000000
    56 0.000000 0.000000 0.000000 0.000000 0.000000 0.000000
    57 0.000000 0.000000 0.000000 0.137632 0.000000 0.000000
    58 0.000000 0.000000 0.000000 0.264732 0.000000 0.000000
    59 0.000000 0.000000 0.000000 0.053427 0.111181 0.094007
    60 0.000000 0.000000 0.000000 -0.149697 0.000000 0.000000
    61 0.000000 0.000000 0.000000 -0.258956 0.000000 0.000000
    62 0.000000 0.000000 0.000000 0.000000 0.000000 0.000000
    63 0.000000 0.000000 0.000000 0.000000 0.000000 0.000000
    64 0.000000 0.000000 0.000000 0.000000 0.000000 0.000000
    65 0.000000 0.000000 0.000000 0.000000 0.000000 0.000000
    66 0.000000 0.000000 0.000000 0.000000 0.000000 0.000000
    67 0.000000 0.000000 0.000000 0.000000 0.000000 0.000000
  time 11
    0 0.000000 0.000000 0.000000 0.000000 0.000000 -1.570796
    1 0.000000 0.000000 0.000000 0.000000 -0.000059 0.000000
    2 0.000000 0.000000 0.000000 0.000000 0.000000 0.000000
    3 17.734916 17.363811 -0.093753 -0.182075 0.340786 0.838073
    4 0.000000 0.000000 0.000000 0.000000 0.000000 0.000000
    5 0.003233 -0.004498 -0.005451 0.000086 0.000002 0.000000
    6 0.000000 0.000000 0.000000 0.000000 0.000000 0.000000
    7 0.000000 0.000000 0.000000 0.000000 0.000060 0.175415
    8 0.000000 0.000000 0.000000 0.000000 -0.000036 0.138818
    9 0.000000 0.000000 0.000000 0.000000 0.000036 0.057538
    10 0.000000 0.000000 0.000000 0.000000 0.000000 -0.119139
    11 2.117252 -1.851619 4.097781 0.732808 -0.637254 -0.054540
    12 0.000000 0.000000 0.000000 -2.243768 -0.861440 1.952320
    13 0.000000 0.000000 0.000000 0.000000 0.000012 -0.912815
    14 0.000000 0.000000 0.000000 1.286702 1.453402 0.371418
    15 0.000000 0.000000 0.000000 0.000000 0.000000 0.000000
    16 0.000000 0.000000 0.000000 0.000000 0.000000 0.000000
    17 0.000000 0.000000 0.000000 0.000002 0.000013 -0.000019
    18 0.000000 0.000000 0.000000 0.000000 0.000000 0.000000
    19 0.000000 0.000000 0.000000 0.000000 0.000000 0.000000
    20 0.000000 0.000000 0.000000 0.000000 0.000000 0.000000
    21 0.000000 0.000000 0.000000 0.000000 0.000000 0.000000
    22 0.000000 0.000000 0.000000 0.000000 0.000000 0.000000
    23 0.000000 0.000000 0.000000 0.000000 0.000000 0.000000
    24 0.000000 0.000000 0.000000 0.000000 0.000000 0.000000
    25 0.000000 0.000000 0.000000 0.000000 0.000000 0.000000
    26 0.000000 0.000000 0.000000 0.000000 0.000000 0.000000
    27 0.000000 0.000000 0.000000 0.000000 0.000000 0.000000
    28 0.000000 0.000000 0.000000 0.000000 0.000000 0.000000
    29 0.000000 0.000000 0.000000 0.000000 0.000000 0.000000
    30 -3.957152 4.007935 -53.629017 -0.268505 0.152443 0.325041
    31 0.000000 0.000000 0.000000 0.894668 0.928095 -1.051544
    32 0.000000 0.000000 0.000000 0.000000 0.000000 0.347519
    33 0.000000 0.000000 0.000000 0.002112 -0.533143 0.240732
    34 0.000000 0.000000 0.000000 -0.238873 -0.044691 -0.096500
    35 0.000000 0.000000 0.000000 0.004818 -0.060211 -0.092214
    36 0.000000 0.000000 0.000000 -0.001246 0.000372 -0.099195
    37 0.000000 0.000000 0.000000 0.004482 -0.029842 0.100346
    38 0.000000 0.000000 0.000000 -0.118132 -0.001462 -0.012306
    39 0.000000 0.000000 0.000000 0.000000 0.000000 0.065482
    40 0.000000 0.000000 0.000000 0.001726 0.002133 -0.120900
    41 0.000000 0.000000 0.000000 -0.035774 0.084360 -0.007845
    42 0.000000 0.000000 0.000000 0.000000 0.000000 -0.187718
    43 0.000000 0.000000 0.000000 0.033065 -0.048130 -0.233052
    44 0.000000 0.000000 0.000000 -0.000012 0.000000 -0.054913
    45 0.000000 0.000000 0.000000 0.000000 0.000000 -0.012427
    46 0.000000 0.000000 0.000000 0.968558 -0.052948 0.123474
    47 0.000000 0.000000 0.000000 -0.622173 -0.230249 0.142952
    48 0.000000 0.000000 0.000000 0.010930 -0.005968 -0.080035
    49 0.000000 0.000000 0.000000 0.000000 0.000000 0.000000
    50 0.000000 0.000000 0.000000 0.000000 0.000000 0.000000
    51 0.000000 0.000000 0.000000 0.000000 0.000000 0.000000
    52 0.000000 0.000000 0.000000 0.000000 0.000000 0.000000
    53 -92.312500 -76.687500 24.890625 -1.031132 -0.000001 -0.000002
    54 0.000000 0.000000 0.000000 0.000000 0.000000 0.000000
    55 0.000000 0.000000 0.000000 0.000000 0.000000 0.000000
    56 0.000000 0.000000 0.000000 0.000000 0.000000 0.000000
    57 0.000000 0.000000 0.000000 0.146643 0.000000 0.000000
    58 0.000000 0.000000 0.000000 0.282001 0.000000 0.000000
    59 0.000000 0.000000 0.000000 0.056663 0.118336 0.096320
    60 0.000000 0.000000 0.000000 -0.117697 0.000000 0.000000
    61 0.000000 0.000000 0.000000 -0.203615 0.000000 0.000000
    62 0.000000 0.000000 0.000000 0.000000 0.000000 0.000000
    63 0.000000 0.000000 0.000000 0.000000 0.000000 0.000000
    64 0.000000 0.000000 0.000000 0.000000 0.000000 0.000000
    65 0.000000 0.000000 0.000000 0.000000 0.000000 0.000000
    66 0.000000 0.000000 0.000000 0.000000 0.000000 0.000000
    67 0.000000 0.000000 0.000000 0.000000 0.000000 0.000000
  time 12
    0 0.000000 0.000000 0.000000 0.000000 0.000000 -1.570796
    1 0.000000 0.000000 0.000000 0.000000 -0.000059 0.000000
    2 0.000000 0.000000 0.000000 0.000000 0.000000 0.000000
    3 17.078646 16.902860 0.417982 -0.128726 0.356002 0.830554
    4 0.000000 0.000000 0.000000 0.000000 0.000000 0.000000
    5 0.003233 -0.004498 -0.005451 0.000086 0.000002 0.000000
    6 0.000000 0.000000 0.000000 0.000000 0.000000 0.000000
    7 0.000000 0.000000 0.000000 0.000000 0.000060 0.175415
    8 0.000000 0.000000 0.000000 0.000000 -0.000036 0.138818
    9 0.000000 0.000000 0.000000 0.000000 0.000036 0.057538
    10 0.000000 0.000000 0.000000 0.000000 0.000000 -0.119139
    11 2.117252 -1.851619 4.097781 0.732808 -0.637254 -0.054540
    12 0.000000 0.000000 0.000000 -2.142225 -0.861517 1.789485
    13 0.000000 0.000000 0.000000 0.000000 0.000024 -0.983502
    14 0.000000 0.000000 0.000000 1.740188 1.378806 0.760331
    15 0.000000 0.000000 0.000000 0.000000 0.000000 0.000000
    16 0.000000 0.000000 0.000000 0.000000 0.000000 0.000000
    17 0.000000 0.000000 0.000000 0.000002 0.000013 -0.000019
    18 0.000000 0.000000 0.000000 0.000000 0.000000 0.000000
    19 0.000000 0.000000 0.000000 0.000000 0.000000 0.000000
    20 0.000000 0.000000 0.000000 0.000000 0.000000 0.000000
    21 0.000000 0.000000 0.000000 0.000000 0.000000 0.000000
    22 0.000000 0.000000 0.000000 0.000000 0.000000 0.000000
    23 0.000000 0.000000 0.000000 0.000000 0.000000 0.000000
    24 0.000000 0.000000 0.000000 0.000000 0.000000 0.000000
    25 0.000000 0.000000 0.000000 0.000000 0.000000 0.000000
    26 0.000000 0.000000 0.000000 0.000000 0.000000 0.000000
    27 0.000000 0.000000 0.000000 0.000000 0.000000 0.000000
    28 0.000000 0.000000 0.000000 0.000000 0.000000 0.000000
    29 0.000000 0.000000 0.000000 0.000000 0.000000 0.000000
    30 -3.957152 4.007935 -53.629017 -0.190827 0.105529 0.236352
    31 0.000000 0.000000 0.000000 0.757719 0.848646 -1.168424
    32 0.000000 0.000000 0.000000 0.000000 0.000000 0.553075
    33 0.000000 0.000000 0.000000 0.108625 -0.555845 0.069712
    34 0.000000 0.000000 0.000000 -0.241688 -0.040148 -0.085115
    35 0.000000 0.000000 0.000000 0.004818 -0.060199 -0.079727
    36 0.000000 0.000000 0.000000 0.000000 0.000000 -0.086795
    37 0.000000 0.000000 0.000000 0.001965 -0.030021 0.112634
    38 0.000000 0.000000 0.000000 -0.118144 0.000000 0.000028
    39 0.000000 0.000000 0.000000 0.000000 0.000000 0.077961
    40 0.000000 0.000000 0.000000 0.000000 0.000000 -0.108734
    41 0.000000 0.000000 0.000000 -0.036241 0.084360 0.004483
    42 0.000000 0.000000 0.000000 0.000000 0.000000 -0.175226
    43 0.000000 0.000000 0.000000 0.031172 -0.047303 -0.220650
    44 0.000000 0.000000 0.000000 0.000000 0.000000 -0.042435
    45 0.000000 0.000000 0.000000 0.000000 0.000000 0.000000
    46 0.000000 0.000000 0.000000 0.968436 -0.045038 0.133115
    47 0.000000 0.000000 0.000000 -0.624579 -0.218006 0.143492
    48 0.000000 0.000000 0.000000 0.000000 0.000000 -0.079994
    49 0.000000 0.000000 0.000000 0.000000 0.000000 0.000000
    50 0.000000 0.000000 0.000000 0.000000 0.000000 0.000000
    51 0.000000 0.000000 0.000000 0.000000 0.000000 0.000000
    52 0.000000 0.000000 0.000000 0.000000 0.000000 0.000000
    53 -92.312500 -76.687500 24.890625 -1.031132 -0.000001 -0.000002
    54 0.000000 0.000000 0.000000 0.000000 0.000000 0.000000
    55 0.000000 0.000000 0.000000 0.000000 0.000000 0.000000
    56 0.000000 0.000000 0.000000 0.000000 0.000000 0.000000
    57 0.000000 0.000000 0.000000 0.152988 0.000000 0.000000
    58 0.000000 0.000000 0.000000 0.294181 0.000000 0.000000
    59 0.000000 0.000000 0.000000 0.059887 0.125395 0.098621
    60 0.000000 0.000000 0.000000 -0.084108 0.000000 0.000000
    61 0.000000 0.000000 0.000000 -0.145492 0.000000 0.000000
    62 0.000000 0.000000 0.000000 0.000000 0.000000 0.000000
    63 0.000000 0.000000 0.000000 0.000000 0.000000 0.000000
    64 0.000000 0.000000 0.000000 0.000000 0.000000 0.000000
    65 0.000000 0.000000 0.000000 0.000000 0.000000 0.000000
    66 0.000000 0.000000 0.000000 0.000000 0.000000 0.000000
    67 0.000000 0.000000 0.000000 0.000000 0.000000 0.000000
  time 13
    0 0.000000 0.000000 0.000000 0.000000 0.000000 -1.570796
    1 0.000000 0.000000 0.000000 0.000000 -0.000059 0.000000
    2 0.000000 0.000000 0.000000 0.000000 0.000000 0.000000
    3 16.465346 16.117679 0.472671 -0.097962 0.432657 0.782847
    4 0.000000 0.000000 0.000000 0.000000 0.000000 0.000000
    5 0.003233 -0.004498 -0.005451 0.000086 0.000002 0.000000
    6 0.000000 0.000000 0.000000 0.000000 0.000000 0.000000
    7 0.000000 0.000000 0.000000 0.000000 0.000060 0.175415
    8 0.000000 0.000000 0.000000 0.000000 -0.000036 0.138818
    9 0.000000 0.000000 0.000000 0.000000 0.000036 0.057538
    10 0.000000 0.000000 0.000000 0.000000 0.000000 -0.119139
    11 2.117252 -1.851619 4.097781 0.732808 -0.637254 -0.054540
    12 0.000000 0.000000 0.000000 -1.997598 -0.878286 1.566268
    13 0.000000 0.000000 0.000000 0.000000 0.000024 -1.084017
    14 0.000000 0.000000 0.000000 1.909005 1.192387 0.841336
    15 0.000000 0.000000 0.000000 0.000000 0.000000 0.000000
    16 0.000000 0.000000 0.000000 0.000000 0.000000 0.000000
    17 0.000000 0.000000 0.000000 0.000002 0.000013 -0.000019
    18 0.000000 0.000000 0.000000 0.000000 0.000000 0.000000
    19 0.000000 0.000000 0.000000 0.000000 0.000000 0.000000
    20 0.000000 0.000000 0.000000 0.000000 0.000000 0.000000
    21 0.000000 0.000000 0.000000 0.000000 0.000000 0.000000
    22 0.000000 0.000000 0.000000 0.000000 0.000000 0.000000
    23 0.000000 0.000000 0.000000 0.000000 0.000000 0.000000
    24 0.000000 0.000000 0.000000 0.000000 0.000000 0.000000
    25 0.000000 0.000000 0.000000 0.000000 0.000000 0.000000
    26 0.000000 0.000000 0.000000 0.000000 0.000000 0.000000
    27 0.000000 0.000000 0.000000 0.000000 0.000000 0.000000
    28 0.000000 0.000000 0.000000 0.000000 0.000000 0.000000
    29 0.000000 0.000000 0.000000 0.000000 0.000000 0.000000
    30 -3.957152 4.007935 -53.629017 -0.117748 0.063470 0.149026
    31 0.000000 0.000000 0.000000 0.672772 0.769683 -1.243514
    32 0.000000 0.000000 0.000000 0.000000 0.000000 0.683420
    33 0.000000 0.000000 0.000000 0.198876 -0.593513 -0.121442
    34 0.000000 0.000000 0.000000 -0.241688 -0.040148 -0.085115
    35 0.000000 0.000000 0.000000 0.004818 -0.060199 -0.079727
    36 0.000000 0.000000 0.000000 0.000000 0.000000 -0.086795
    37 0.000000 0.000000 0.000000 0.001965 -0.030021 0.112634
    38 0.000000 0.000000 0.000000 -0.118144 0.000000 0.000028
    39 0.000000 0.000000 0.000000 0.000000 0.000000 0.077961
    40 0.000000 0.000000 0.000000 0.000000 0.000000 -0.108734
    41 0.000000 0.000000 0.000000 -0.036241 0.084360 0.004483
    42 0.000000 0.000000 0.000000 0.000000 0.000000 -0.175226
    43 0.000000 0.000000 0.000000 0.031172 -0.047303 -0.220650
    44 0.000000 0.000000 0.000000 0.000000 0.000000 -0.042435
    45 0.000000 0.000000 0.000000 0.000000 0.000000 0.000000
    46 0.000000 0.000000 0.000000 0.968436 -0.045038 0.133115
    47 0.000000 0.000000 0.000000 -0.624579 -0.218006 0.143492
    48 0.000000 0.000000 0.000000 0.000000 0.000000 -0.079994
    49 0.000000 0.000000 0.000000 0.000000 0.000000 0.000000
    50 0.000000 0.000000 0.000000 0.000000 0.000000 0.000000
    51 0.000000 0.000000 0.000000 0.000000 0.000000 0.000000
    52 0.000000 0.000000 0.000000 0.000000 0.000000 0.000000
    53 -92.312500 -76.687500 24.890625 -1.031132 -0.000001 -0.000002
    54 0.000000 0.000000 0.000000 0.000000 0.000000 0.000000
    55 0.000000 0.000000 0.000000 0.000000 0.000000 0.000000
    56 0.000000 0.000000 0.000000 0.000000 0.000000 0.000000
    57 0.000000 0.000000 0.000000 0.151169 0.000000 0.000000
    58 0.000000 0.000000 0.000000 0.290674 0.000000 0.000000
    59 0.000000 0.000000 0.000000 0.059887 0.125395 0.098621
    60 0.000000 0.000000 0.000000 -0.050143 0.000000 0.000000
    61 0.000000 0.000000 0.000000 -0.086751 0.000000 0.000000
    62 0.000000 0.000000 0.000000 0.000000 0.000000 0.000000
    63 0.000000 0.000000 0.000000 0.000000 0.000000 0.000000
    64 0.000000 0.000000 0.000000 0.000000 0.000000 0.000000
    65 0.000000 0.000000 0.000000 0.000000 0.000000 0.000000
    66 0.000000 0.000000 0.000000 0.000000 0.000000 0.000000
    67 0.000000 0.000000 0.000000 0.000000 0.000000 0.000000
  time 14
    0 0.000000 0.000000 0.000000 0.000000 0.000000 -1.570796
    1 0.000000 0.000000 0.000000 0.000000 -0.000059 0.000000
    2 0.000000 0.000000 0.000000 0.000000 0.000000 0.000000
    3 15.789544 14.777795 0.289071 -0.091084 0.543477 0.695643
    4 0.000000 0.000000 0.000000 0.000000 0.000000 0.000000
    5 0.003233 -0.004498 -0.005451 0.000086 0.000002 0.000000
    6 0.000000 0.000000 0.000000 0.000000 0.000000 0.000000
    7 0.000000 0.000000 0.000000 0.000000 0.000060 0.175415
    8 0.000000 0.000000 0.000000 0.000000 -0.000036 0.138818
    9 0.000000 0.000000 0.000000 0.000000 0.000036 0.057538
    10 0.000000 0.000000 0.000000 0.000000 0.000000 -0.119139
    11 2.117252 -1.851619 4.097781 0.732808 -0.637254 -0.054540
    12 0.000000 0.000000 0.000000 -1.755094 -0.872089 1.215678
    13 0.000000 0.000000 0.000000 0.000000 0.000024 -1.221820
    14 0.000000 0.000000 0.000000 1.946665 0.929641 0.737063
    15 0.000000 0.000000 0.000000 0.000000 0.000000 0.000000
    16 0.000000 0.000000 0.000000 0.000000 0.000000 0.000000
    17 0.000000 0.000000 0.000000 0.000002 0.000013 -0.000019
    18 0.000000 0.000000 0.000000 0.000000 0.000000 0.000000
    19 0.000000 0.000000 0.000000 0.000000 0.000000 0.000000
    20 0.000000 0.000000 0.000000 0.000000 0.000000 0.000000
    21 0.000000 0.000000 0.000000 0.000000 0.000000 0.000000
    22 0.000000 0.000000 0.000000 0.000000 0.000000 0.000000
    23 0.000000 0.000000 0.000000 0.000000 0.000000 0.000000
    24 0.000000 0.000000 0.000000 0.000000 0.000000 0.000000
    25 0.000000 0.000000 0.000000 0.000000 0.000000 0.000000
    26 0.000000 0.000000 0.000000 0.000000 0.000000 0.000000
    27 0.000000 0.000000 0.000000 0.000000 0.000000 0.000000
    28 0.000000 0.000000 0.000000 0.000000 0.000000 0.000000
    29 0.000000 0.000000 0.000000 0.000000 0.000000 0.000000
    30 -3.957152 4.007935 -53.629017 -0.056821 0.029948 0.073183
    31 0.000000 0.000000 0.000000 0.659556 0.657600 -1.223096
    32 0.000000 0.000000 0.000000 0.000000 0.000000 0.606698
    33 0.000000 0.000000 0.000000 0.230204 -0.660943 -0.227309
    34 0.000000 0.000000 0.000000 -0.241688 -0.040148 -0.085115
    35 0.000000 0.000000 0.000000 0.004818 -0.060199 -0.079727
    36 0.000000 0.000000 0.000000 0.000000 0.000000 -0.086795
    37 0.000000 0.000000 0.000000 0.001965 -0.030021 0.112634
    38 0.000000 0.000000 0.000000 -0.118144 0.000000 0.000028
    39 0.000000 0.000000 0.000000 0.000000 0.000000 0.077961
    40 0.000000 0.000000 0.000000 0.000000 0.000000 -0.108734
    41 0.000000 0.000000 0.000000 -0.036241 0.084360 0.004483
    42 0.000000 0.000000 0.000000 0.000000 0.000000 -0.175226
    43 0.000000 0.000000 0.000000 0.031172 -0.047303 -0.220650
    44 0.000000 0.000000 0.000000 0.000000 0.000000 -0.042435
    45 0.000000 0.000000 0.000000 0.000000 0.000000 0.000000
    46 0.000000 0.000000 0.000000 0.968436 -0.045038 0.133115
    47 0.000000 0.000000 0.000000 -0.624579 -0.218006 0.143492
    48 0.000000 0.000000 0.000000 0.000000 0.000000 -0.079994
    49 0.000000 0.000000 0.000000 0.000000 0.000000 0.000000
    50 0.000000 0.000000 0.000000 0.000000 0.000000 0.000000
    51 0.000000 0.000000 0.000000 0.000000 0.000000 0.000000
    52 0.000000 0.000000 0.000000 0.000000 0.000000 0.000000
    53 -92.312500 -76.687500 24.890625 -1.031132 -0.000001 -0.000002
    54 0.000000 0.000000 0.000000 0.000000 0.000000 0.000000
    55 0.000000 0.000000 0.000000 0.000000 0.000000 0.000000
    56 0.000000 0.000000 0.000000 0.000000 0.000000 0.000000
    57 0.000000 0.000000 0.000000 0.139471 0.000000 0.000000
    58 0.000000 0.000000 0.000000 0.268278 0.000000 0.000000
    59 0.000000 0.000000 0.000000 0.059887 0.125395 0.098621
    60 0.000000 0.000000 0.000000 -0.002161 0.000000 0.000000
    61 0.000000 0.000000 0.000000 -0.003710 0.000000 0.000000
    62 0.000000 0.000000 0.000000 0.000000 -0.000012 0.000000
    63 0.000000 0.000000 0.000000 0.000000 0.000000 0.000000
    64 0.000000 0.000000 0.000000 0.000000 0.000000 0.000000
    65 0.000000 0.000000 0.000000 0.000000 0.000000 0.000000
    66 0.000000 0.000000 0.000000 0.000000 0.000000 0.000000
    67 0.000000 0.000000 0.000000 0.000000 0.000000 0.000000
  time 15
    0 0.000000 0.000000 0.000000 0.000000 0.000000 -1.570796
    1 0.000000 0.000000 0.000000 0.000000 -0.000059 0.000000
    2 0.000000 0.000000 0.000000 0.000000 0.000000 0.000000
    3 14.816858 13.324625 -0.039064 -0.090062 0.593317 0.610773
    4 0.000000 0.000000 0.000000 0.000000 0.000000 0.000000
    5 0.003233 -0.004498 -0.005451 0.000086 0.000002 0.000000
    6 0.000000 0.000000 0.000000 0.000000 0.000000 0.000000
    7 0.000000 0.000000 0.000000 0.000000 0.000060 0.175415
    8 0.000000 0.000000 0.000000 0.000000 -0.000036 0.138818
    9 0.000000 0.000000 0.000000 0.000000 0.000036 0.057538
    10 0.000000 0.000000 0.000000 0.000000 0.000000 -0.119139
    11 2.117252 -1.851619 4.097781 0.732808 -0.637254 -0.054540
    12 0.000000 0.000000 0.000000 -1.471741 -0.799477 0.818104
    13 0.000000 0.000000 0.000000 0.000000 0.000024 -1.327890
    14 0.000000 0.000000 0.000000 1.942229 0.711094 0.564366
    15 0.000000 0.000000 0.000000 0.000000 0.000000 0.000000
    16 0.000000 0.000000 0.000000 0.000000 0.000000 0.000000
    17 0.000000 0.000000 0.000000 0.000002 0.000013 -0.000019
    18 0.000000 0.000000 0.000000 0.000000 0.000000 0.000000
    19 0.000000 0.000000 0.000000 0.000000 0.000000 0.000000
    20 0.000000 0.000000 0.000000 0.000000 0.000000 0.000000
    21 0.000000 0.000000 0.000000 0.000000 0.000000 0.000000
    22 0.000000 0.000000 0.000000 0.000000 0.000000 0.000000
    23 0.000000 0.000000 0.000000 0.000000 0.000000 0.000000
    24 0.000000 0.000000 0.000000 0.000000 0.000000 0.000000
    25 0.000000 0.000000 0.000000 0.000000 0.000000 0.000000
    26 0.000000 0.000000 0.000000 0.000000 0.000000 0.000000
    27 0.000000 0.000000 0.000000 0.000000 0.000000 0.000000
    28 0.000000 0.000000 0.000000 0.000000 0.000000 0.000000
    29 0.000000 0.000000 0.000000 0.000000 0.000000 0.000000
    30 -3.957152 4.007935 -53.629017 -0.015355 0.007967 0.020047
    31 0.000000 0.000000 0.000000 0.682637 0.543347 -1.146765
    32 0.000000 0.000000 0.000000 0.000000 0.000000 0.423829
    33 0.000000 0.000000 0.000000 0.192681 -0.750907 -0.203502
    34 0.000000 0.000000 0.000000 -0.241688 -0.040148 -0.085115
    35 0.000000 0.000000 0.000000 0.004818 -0.060199 -0.079727
    36 0.000000 0.000000 0.000000 0.000000 0.000000 -0.086795
    37 0.000000 0.000000 0.000000 0.001965 -0.030021 0.112634
    38 0.000000 0.000000 0.000000 -0.118144 0.000000 0.000028
    39 0.000000 0.000000 0.000000 0.000000 0.000000 0.077961
    40 0.000000 0.000000 0.000000 0.000000 0.000000 -0.108734
    41 0.000000 0.000000 0.000000 -0.036241 0.084360 0.004483
    42 0.000000 0.000000 0.000000 0.000000 0.000000 -0.175226
    43 0.000000 0.000000 0.000000 0.031172 -0.047303 -0.220650
    44 0.000000 0.000000 0.000000 0.000000 0.000000 -0.042435
    45 0.000000 0.000000 0.000000 0.000000 0.000000 0.000000
    46 0.000000 0.000000 0.000000 0.968436 -0.045038 0.133115
    47 0.000000 0.000000 0.000000 -0.624579 -0.218006 0.143492
    48 0.000000 0.000000 0.000000 0.000000 0.000000 -0.079994
    49 0.000000 0.000000 0.000000 0.000000 0.000000 0.000000
    50 0.000000 0.000000 0.000000 0.000000 0.000000 0.000000
    51 0.000000 0.000000 0.000000 0.000000 0.000000 0.000000
    52 0.000000 0.000000 0.000000 0.000000 0.000000 0.000000
    53 -92.312500 -76.687500 24.890625 -1.031132 -0.000001 -0.000002
    54 0.000000 0.000000 0.000000 0.000000 0.000000 0.000000
    55 0.000000 0.000000 0.000000 0.000000 0.000000 0.000000
    56 0.000000 0.000000 0.000000 0.000000 0.000000 0.000000
    57 0.000000 0.000000 0.000000 0.124621 0.000000 0.000000
    58 0.000000 0.000000 0.000000 0.239755 0.000000 0.000000
    59 0.000000 0.000000 0.000000 0.059887 0.125395 0.098621
    60 0.000000 0.000000 0.000000 0.063947 0.000000 0.000000
    61 0.000000 0.000000 0.000000 0.110712 0.000000 0.000000
    62 0.000000 0.000000 0.000000 0.000000 0.000000 0.000000
    63 0.000000 0.000000 0.000000 0.000000 0.000000 0.000000
    64 0.000000 0.000000 0.000000 0.000000 0.000000 0.000000
    65 0.000000 0.000000 0.000000 0.000000 0.000000 0.000000
    66 0.000000 0.000000 0.000000 0.000000 0.000000 0.000000
    67 0.000000 0.000000 0.000000 0.000000 0.000000 0.000000
  time 16
    0 0.000000 0.000000 0.000000 0.000000 0.000000 -1.570796
    1 0.000000 0.000000 0.000000 0.000000 -0.000059 0.000000
    2 0.000000 0.000000 0.000000 0.000000 0.000000 0.000000
    3 13.402753 11.754265 -0.507828 -0.080117 0.559153 0.523742
    4 0.000000 0.000000 0.000000 0.000000 0.000000 0.000000
    5 0.003233 -0.004498 -0.005451 0.000086 0.000002 0.000000
    6 0.000000 0.000000 0.000000 0.000000 0.000000 0.000000
    7 0.000000 0.000000 0.000000 0.000000 0.000060 0.175415
    8 0.000000 0.000000 0.000000 0.000000 -0.000036 0.138818
    9 0.000000 0.000000 0.000000 0.000000 0.000036 0.057538
    10 0.000000 0.000000 0.000000 0.000000 0.000000 -0.119139
    11 2.117252 -1.851619 4.097781 0.732808 -0.637254 -0.054540
    12 0.000000 0.000000 0.000000 -1.233348 -0.624702 0.477518
    13 0.000000 0.000000 0.000000 0.000000 0.000024 -1.391515
    14 0.000000 0.000000 0.000000 1.886131 0.538719 0.384345
    15 0.000000 0.000000 0.000000 0.000000 0.000000 0.000000
    16 0.000000 0.000000 0.000000 0.000000 0.000000 0.000000
    17 0.000000 0.000000 0.000000 0.000002 0.000013 -0.000019
    18 0.000000 0.000000 0.000000 0.000000 0.000000 0.000000
    19 0.000000 0.000000 0.000000 0.000000 0.000000 0.000000
    20 0.000000 0.000000 0.000000 0.000000 0.000000 0.000000
    21 0.000000 0.000000 0.000000 0.000000 0.000000 0.000000
    22 0.000000 0.000000 0.000000 0.000000 0.000000 0.000000
    23 0.000000 0.000000 0.000000 0.000000 0.000000 0.000000
    24 0.000000 0.000000 0.000000 0.000000 0.000000 0.000000
    25 0.000000 0.000000 0.000000 0.000000 0.000000 0.000000
    26 0.000000 0.000000 0.000000 -0.000012 0.000000 0.000000
    27 0.000000 0.000000 0.000000 0.000000 0.000000 0.000000
    28 0.000000 0.000000 0.000000 0.000000 0.000000 0.000000
    29 0.000000 0.000000 0.000000 0.000000 0.000000 0.000000
    30 -3.957152 4.007935 -53.629017 0.000000 0.000000 0.000000
    31 0.000000 0.000000 0.000000 0.722859 0.445598 -1.045055
    32 0.000000 0.000000 0.000000 0.000000 0.000000 0.195174
    33 0.000000 0.000000 0.000000 0.037593 -0.856047 -0.027416
    34 0.000000 0.000000 0.000000 -0.241688 -0.040148 -0.085115
    35 0.000000 0.000000 0.000000 0.004818 -0.060199 -0.079727
    36 0.000000 0.000000 0.000000 0.000000 0.000000 -0.086795
    37 0.000000 0.000000 0.000000 0.001965 -0.030021 0.112634
    38 0.000000 0.000000 0.000000 -0.118144 0.000000 0.000028
    39 0.000000 0.000000 0.000000 0.000000 0.000000 0.077961
    40 0.000000 0.000000 0.000000 0.000000 0.000000 -0.108734
    41 0.000000 0.000000 0.000000 -0.036241 0.084360 0.004483
    42 0.000000 0.000000 0.000000 0.000000 0.000000 -0.175226
    43 0.000000 0.000000 0.000000 0.031172 -0.047303 -0.220650
    44 0.000000 0.000000 0.000000 0.000000 0.000000 -0.042435
    45 0.000000 0.000000 0.000000 0.000000 0.000000 0.000000
    46 0.000000 0.000000 0.000000 0.968436 -0.045038 0.133115
    47 0.000000 0.000000 0.000000 -0.624579 -0.218006 0.143492
    48 0.000000 0.000000 0.000000 0.000000 0.000000 -0.079994
    49 0.000000 0.000000 0.000000 0.000000 0.000000 0.000000
    50 0.000000 0.000000 0.000000 0.000000 0.000000 0.000000
    51 0.000000 0.000000 0.000000 0.000000 0.000000 0.000000
    52 0.000000 0.000000 0.000000 0.000000 0.000000 0.000000
    53 -92.312500 -76.687500 24.890625 -1.031132 -0.000001 -0.000002
    54 0.000000 0.000000 0.000000 0.000000 0.000000 0.000000
    55 0.000000 0.000000 0.000000 0.000000 0.000000 0.000000
    56 0.000000 0.000000 0.000000 0.000000 0.000000 0.000000
    57 0.000000 0.000000 0.000000 0.103911 0.000000 0.000000
    58 0.000000 0.000000 0.000000 0.200052 0.000000 0.000000
    59 0.000000 0.000000 0.000000 0.059887 0.125395 0.098621
    60 0.000000 0.000000 0.000000 0.130251 0.000000 0.000000
    61 0.000000 0.000000 0.000000 0.225535 0.000000 0.000000
    62 0.000000 0.000000 0.000000 0.000000 0.000000 0.000000
    63 0.000000 0.000000 0.000000 0.000000 0.000000 0.000000
    64 0.000000 0.000000 0.000000 0.000000 0.000000 0.000000
    65 0.000000 0.000000 0.000000 0.000000 0.000000 0.000000
    66 0.000000 0.000000 0.000000 0.000000 0.000000 0.000000
    67 0.000000 0.000000 0.000000 0.000000 0.000000 0.000000
  time 17
    0 0.000000 0.000000 0.000000 0.000000 0.000000 -1.570796
    1 0.000000 0.000000 0.000000 0.000000 -0.000059 0.000000
    2 0.000000 0.000000 0.000000 0.000000 0.000000 0.000000
    3 11.660512 9.906552 -1.101596 -0.066547 0.485368 0.402659
    4 0.000000 0.000000 0.000000 0.000000 0.000000 0.000000
    5 0.003233 -0.004498 -0.005451 0.000086 0.000002 0.000000
    6 0.000000 0.000000 0.000000 0.000000 0.000000 0.000000
    7 0.000000 0.000000 0.000000 0.000000 0.000060 0.167806
    8 0.000000 0.000000 0.000000 0.000000 -0.000036 0.132813
    9 0.000000 0.000000 0.000000 0.000000 0.000036 0.055045
    10 0.000000 0.000000 0.000000 0.000000 0.000000 -0.113985
    11 2.117252 -1.851619 4.097781 0.732808 -0.637234 -0.054540
    12 0.000000 0.000000 0.000000 -1.080051 -0.371816 0.267878
    13 0.000000 0.000000 0.000000 0.000000 0.000024 -1.385883
    14 0.000000 0.000000 0.000000 1.719140 0.351146 0.234657
    15 0.000000 0.000000 0.000000 0.000000 0.000000 0.000000
    16 0.000000 0.000000 0.000000 0.000000 0.000000 0.000000
    17 0.000000 0.000000 0.000000 0.000002 0.000013 -0.000019
    18 0.000000 0.000000 0.000000 0.000000 0.000000 0.000000
    19 0.000000 0.000000 0.000000 0.000000 0.000000 0.000000
    20 0.000000 0.000000 0.000000 0.000000 0.000000 0.000000
    21 0.000000 0.000000 0.000000 0.000000 0.000000 0.000000
    22 0.000000 0.000000 0.000000 0.000000 0.000000 0.000000
    23 0.000000 0.000000 0.000000 0.000000 0.000000 0.000000
    24 0.000000 0.000000 0.000000 0.000000 0.000000 0.000000
    25 0.000000 0.000000 0.000000 0.000000 0.000000 0.000000
    26 0.000000 0.000000 0.000000 -0.000012 0.000000 0.000000
    27 0.000000 0.000000 0.000000 0.000000 0.000000 0.000000
    28 0.000000 0.000000 0.000000 0.000000 0.000000 0.000000
    29 0.000000 0.000000 0.000000 0.000000 0.000000 0.000000
    30 -3.957152 4.007935 -53.629017 0.000000 0.000000 0.000000
    31 0.000000 0.000000 0.000000 0.753409 0.354398 -0.944395
    32 0.000000 0.000000 0.000000 0.000000 0.000000 -0.036230
    33 0.000000 0.000000 0.000000 -0.254914 -0.939881 0.274290
    34 0.000000 0.000000 0.000000 -0.241688 -0.040148 -0.085115
    35 0.000000 0.000000 0.000000 0.004818 -0.060199 -0.079727
    36 0.000000 0.000000 0.000000 0.000000 0.000000 -0.086795
    37 0.000000 0.000000 0.000000 0.001965 -0.030021 0.112634
    38 0.000000 0.000000 0.000000 -0.118144 0.000000 0.000028
    39 0.000000 0.000000 0.000000 0.000000 0.000000 0.077961
    40 0.000000 0.000000 0.000000 0.000000 0.000000 -0.108734
    41 0.000000 0.000000 0.000000 -0.036241 0.084360 0.004483
    42 0.000000 0.000000 0.000000 0.000000 0.000000 -0.175226
    43 0.000000 0.000000 0.000000 0.031172 -0.047303 -0.220650
    44 0.000000 0.000000 0.000000 0.000000 0.000000 -0.042435
    45 0.000000 0.000000 0.000000 0.000000 0.000000 0.000000
    46 0.000000 0.000000 0.000000 0.968436 -0.045038 0.133115
    47 0.000000 0.000000 0.000000 -0.624579 -0.218006 0.143492
    48 0.000000 0.000000 0.000000 0.000000 0.000000 -0.079994
    49 0.000000 0.000000 0.000000 0.000000 0.000000 0.000000
    50 0.000000 0.000000 0.000000 0.000000 0.000000 0.000000
    51 0.000000 0.000000 0.000000 0.000000 0.000000 0.000000
    52 0.000000 0.000000 0.000000 0.000000 0.000000 0.000000
    53 -92.312500 -76.687500 24.890625 -1.031132 -0.000001 -0.000002
    54 0.000000 0.000000 0.000000 0.000000 0.000000 0.000000
    55 0.000000 0.000000 0.000000 0.000000 0.000000 0.000000
    56 0.000000 0.000000 0.000000 0.000000 0.000000 0.000000
    57 0.000000 0.000000 0.000000 0.069786 0.000000 0.000000
    58 0.000000 0.000000 0.000000 0.134448 0.000000 0.000000
    59 0.000000 0.000000 0.000000 0.059887 0.125395 0.098621
    60 0.000000 0.000000 0.000000 0.186572 0.000000 0.000000
    61 0.000000 0.000000 0.000000 0.323076 0.000000 0.000000
    62 0.000000 0.000000 0.000000 0.000000 0.000000 0.000000
    63 0.000000 0.000000 0.000000 0.000000 0.000000 0.000000
    64 0.000000 0.000000 0.000000 0.000000 0.000000 0.000000
    65 0.000000 0.000000 0.000000 0.000000 0.000000 0.000000
    66 0.000000 0.000000 0.000000 0.000000 0.000000 0.000000
    67 0.000000 0.000000 0.000000 0.000000 0.000000 0.000000
  time 18
    0 0.000000 0.000000 0.000000 0.000000 0.000000 -1.570796
    1 0.000000 0.000000 0.000000 0.000000 -0.000059 0.000000
    2 0.000000 0.000000 0.000000 0.000000 0.000000 0.000000
    3 9.812799 7.984619 -1.746147 -0.045821 0.386320 0.265846
    4 0.000000 0.000000 0.000000 0.000000 0.000000 0.000000
    5 0.003233 -0.004498 -0.005451 0.000086 0.000002 0.000000
    6 0.000000 0.000000 0.000000 0.000000 0.000000 0.000000
    7 0.000000 0.000000 0.000000 0.000000 0.000060 0.148013
    8 0.000000 0.000000 0.000000 0.000000 -0.000036 0.117125
    9 0.000000 0.000000 0.000000 0.000000 0.000036 0.048550
    10 0.000000 0.000000 0.000000 0.000000 0.000000 -0.100539
    11 2.117252 -1.851619 4.097781 0.732808 -0.637234 -0.054540
    12 0.000000 0.000000 0.000000 -0.996922 -0.147898 0.174804
    13 0.000000 0.000000 0.000000 0.000000 0.000024 -1.284097
    14 0.000000 0.000000 0.000000 1.461521 0.191757 0.168388
    15 0.000000 0.000000 0.000000 0.000000 0.000000 0.000000
    16 0.000000 0.000000 0.000000 0.000000 0.000000 0.000000
    17 0.000000 0.000000 0.000000 0.000002 0.000013 -0.000019
    18 0.000000 0.000000 0.000000 0.000000 0.000000 0.000000
    19 0.000000 0.000000 0.000000 0.000000 0.000000 0.000000
    20 0.000000 0.000000 0.000000 0.000000 0.000000 0.000000
    21 0.000000 0.000000 0.000000 0.000000 0.000000 0.000000
    22 0.000000 0.000000 0.000000 0.000000 0.000000 -0.000016
    23 0.000000 0.000000 0.000000 0.000000 0.000000 0.000000
    24 0.000000 0.000000 0.000000 0.000000 0.000000 0.000000
    25 0.000000 0.000000 0.000000 0.000000 0.000000 0.000000
    26 0.000000 0.000000 0.000000 -0.000012 0.000000 0.000000
    27 0.000000 0.000000 0.000000 0.000000 0.000000 0.000000
    28 0.000000 0.000000 0.000000 0.000000 0.000000 0.000000
    29 0.000000 0.000000 0.000000 0.000000 0.000000 0.000000
    30 -3.957152 4.007935 -53.629017 0.000000 0.000000 0.000000
    31 0.000000 0.000000 0.000000 0.751590 0.255526 -0.852990
    32 0.000000 0.000000 0.000000 0.000000 0.000000 -0.221092
    33 0.000000 0.000000 0.000000 -0.605570 -0.942502 0.613924
    34 0.000000 0.000000 0.000000 -0.241688 -0.040148 -0.085115
    35 0.000000 0.000000 0.000000 0.004818 -0.060199 -0.079727
    36 0.000000 0.000000 0.000000 0.000000 0.000000 -0.086795
    37 0.000000 0.000000 0.000000 0.001965 -0.030021 0.112634
    38 0.000000 0.000000 0.000000 -0.118144 0.000000 0.000028
    39 0.000000 0.000000 0.000000 0.000000 0.000000 0.077961
    40 0.000000 0.000000 0.000000 0.000000 0.000000 -0.108734
    41 0.000000 0.000000 0.000000 -0.036241 0.084360 0.004483
    42 0.000000 0.000000 0.000000 0.000000 0.000000 -0.175226
    43 0.000000 0.000000 0.000000 0.031172 -0.047303 -0.220650
    44 0.000000 0.000000 0.000000 0.000000 0.000000 -0.042435
    45 0.000000 0.000000 0.000000 0.000000 0.000000 0.000000
    46 0.000000 0.000000 0.000000 0.968436 -0.045038 0.133115
    47 0.000000 0.000000 0.000000 -0.624579 -0.218006 0.143492
    48 0.000000 0.000000 0.000000 0.000000 0.000000 -0.079994
    49 0.000000 0.000000 0.000000 0.000000 0.000000 0.000000
    50 0.000000 0.000000 0.000000 0.000000 0.000000 0.000000
    51 0.000000 0.000000 0.000000 0.000000 0.000000 0.000000
    52 0.000000 0.000000 0.000000 0.000000 0.000000 0.000000
    53 -92.312500 -76.687500 24.890625 -1.031132 -0.000001 -0.000002
    54 0.000000 0.000000 0.000000 0.000000 0.000000 0.000000
    55 0.000000 0.000000 0.000000 0.000000 0.000000 0.000000
    56 0.000000 0.000000 0.000000 0.000000 0.000000 0.000000
    57 0.000000 0.000000 0.000000 0.027983 0.000000 0.000000
    58 0.000000 0.000000 0.000000 0.053926 0.000000 0.000000
    59 0.000000 0.000000 0.000000 0.059887 0.125395 0.098621
    60 0.000000 0.000000 0.000000 0.229358 0.000000 0.000000
    61 0.000000 0.000000 0.000000 0.397183 0.000000 0.000000
    62 0.000000 0.000000 0.000000 0.000000 0.000000 0.000000
    63 0.000000 0.000000 0.000000 0.000000 0.000000 0.000000
    64 0.000000 0.000000 0.000000 0.000000 0.000000 0.000000
    65 0.000000 0.000000 0.000000 0.000000 0.000000 0.000000
    66 0.000000 0.000000 0.000000 0.000000 0.000000 0.000000
    67 0.000000 0.000000 0.000000 0.000000 0.000000 0.000000
  time 19
    0 0.000000 0.000000 0.000000 0.000000 0.000000 -1.570796
    1 0.000000 0.000000 0.000000 0.000000 -0.000059 0.000000
    2 0.000000 0.000000 0.000000 0.000000 0.000000 0.000000
    3 8.031495 6.168157 -2.371166 -0.018310 0.278256 0.128948
    4 0.000000 0.000000 0.000000 0.000000 0.000000 0.000000
    5 0.003233 -0.004498 -0.005451 0.000086 0.000002 0.000000
    6 0.000000 0.000000 0.000000 0.000000 0.000000 0.000000
    7 0.000000 0.000000 0.000000 0.000000 0.000060 0.119891
    8 0.000000 0.000000 0.000000 0.000000 -0.000036 0.094894
    9 0.000000 0.000000 0.000000 0.000000 0.000036 0.039333
    10 0.000000 0.000000 0.000000 0.000000 0.000000 -0.081435
    11 2.117252 -1.851619 4.097781 0.732808 -0.637234 -0.054540
    12 0.000000 0.000000 0.000000 -0.954285 -0.001743 0.121746
    13 0.000000 0.000000 0.000000 0.000000 0.000024 -1.111070
    14 0.000000 0.000000 0.000000 1.167808 0.096480 0.148998
    15 0.000000 0.000000 0.000000 0.000000 0.000000 0.000000
    16 0.000000 0.000000 0.000000 0.000000 0.000000 0.000000
    17 0.000000 0.000000 0.000000 0.000002 0.000013 -0.000019
    18 0.000000 0.000000 0.000000 0.000000 0.000000 0.000000
    19 0.000000 0.000000 0.000000 0.000000 0.000000 0.000000
    20 0.000000 0.000000 0.000000 0.000000 0.000000 0.000000
    21 0.000000 0.000000 0.000000 0.000000 0.000000 0.000000
    22 0.000000 0.000000 0.000000 0.000000 0.000000 0.000000
    23 0.000000 0.000000 0.000000 0.000000 0.000000 0.000000
    24 0.000000 0.000000 0.000000 0.000000 0.000000 0.000000
    25 0.000000 0.000000 0.000000 0.000000 0.000000 0.000000
    26 0.000000 0.000000 0.000000 -0.000012 0.000000 0.000000
    27 0.000000 0.000000 0.000000 0.000000 0.000000 0.000000
    28 0.000000 0.000000 0.000000 0.000000 0.000000 0.000000
    29 0.000000 0.000000 0.000000 0.000000 0.000000 0.000000
    30 -3.957152 4.011841 -53.629017 0.000000 0.000000 0.000000
    31 0.000000 0.000000 0.000000 0.710314 0.156354 -0.765305
    32 0.000000 0.000000 0.000000 0.000000 0.000000 -0.353775
    33 0.000000 0.000000 0.000000 -0.878083 -0.860529 0.863584
    34 0.000000 0.000000 0.000000 -0.241688 -0.040148 -0.085115
    35 0.000000 0.000000 0.000000 0.004818 -0.060199 -0.079727
    36 0.000000 0.000000 0.000000 0.000000 0.000000 -0.086795
    37 0.000000 0.000000 0.000000 0.001965 -0.030021 0.112634
    38 0.000000 0.000000 0.000000 -0.118144 0.000000 0.000028
    39 0.000000 0.000000 0.000000 0.000000 0.000000 0.077961
    40 0.000000 0.000000 0.000000 0.000000 0.000000 -0.108734
    41 0.000000 0.000000 0.000000 -0.036241 0.084360 0.004483
    42 0.000000 0.000000 0.000000 0.000000 0.000000 -0.175226
    43 0.000000 0.000000 0.000000 0.031172 -0.047303 -0.220650
    44 0.000000 0.000000 0.000000 0.000000 0.000000 -0.042435
    45 0.000000 0.000000 0.000000 0.000000 0.000000 0.000000
    46 0.000000 0.000000 0.000000 0.968436 -0.045038 0.133115
    47 0.000000 0.000000 0.000000 -0.624579 -0.218006 0.143492
    48 0.000000 0.000000 0.000000 0.000000 0.000000 -0.079994
    49 0.000000 0.000000 0.000000 0.000000 0.000000 0.000000
    50 0.000000 0.000000 0.000000 0.000000 0.000000 0.000000
    51 0.000000 0.000000 0.000000 0.000000 0.000000 0.000000
    52 0.000000 0.000000 0.000000 0.000000 0.000000 0.000000
    53 -92.312500 -76.687500 24.890625 -1.031132 -0.000001 -0.000002
    54 0.000000 0.000000 0.000000 0.000000 0.000000 0.000000
    55 0.000000 0.000000 0.000000 0.000000 0.000000 0.000000
    56 0.000000 0.000000 0.000000 0.000000 0.000000 0.000000
    57 0.000000 0.000000 0.000000 -0.011375 0.000000 0.000000
    58 0.000000 0.000000 0.000000 -0.021894 0.000000 0.000000
    59 0.000000 0.000000 0.000000 0.059887 0.125395 0.098621
    60 0.000000 0.000000 0.000000 0.251823 0.000000 0.000000
    61 0.000000 0.000000 0.000000 0.436106 0.000000 0.000000
    62 0.000000 0.000000 0.000000 0.000000 0.000000 0.000000
    63 0.000000 0.000000 0.000000 0.000000 0.000000 0.000000
    64 0.000000 0.000000 0.000000 0.000000 0.000000 0.000000
    65 0.000000 0.000000 0.000000 0.000000 0.000000 0.000000
    66 0.000000 0.000000 0.000000 0.000000 0.000000 0.000000
    67 0.000000 0.000000 0.000000 0.000000 0.000000 0.000000
  time 20
    0 0.000000 0.000000 0.000000 0.000000 0.000000 -1.570796
    1 0.000000 0.000000 0.000000 0.000000 -0.000059 0.000000
    2 0.000000 0.000000 0.000000 0.000000 0.000000 0.000000
    3 6.519730 4.629048 -2.906339 0.011432 0.179838 0.008988
    4 0.000000 0.000000 0.000000 0.000000 0.000000 0.000000
    5 0.003233 -0.004498 -0.005451 0.000086 0.000002 0.000000
    6 0.000000 0.000000 0.000000 0.000000 0.000000 0.000000
    7 0.000000 0.000000 0.000000 0.000000 0.000060 0.087605
    8 0.000000 0.000000 0.000000 0.000000 -0.000036 0.069331
    9 0.000000 0.000000 0.000000 0.000000 0.000036 0.028739
    10 0.000000 0.000000 0.000000 0.000000 0.000000 -0.059492
    11 2.117252 -1.851619 4.097781 0.732808 -0.637234 -0.054540
    12 0.000000 0.000000 0.000000 -0.941771 0.073775 0.072887
    13 0.000000 0.000000 0.000000 0.000000 0.000012 -0.908928
    14 0.000000 0.000000 0.000000 0.896534 0.053242 0.128144
    15 0.000000 0.000000 0.000000 0.000000 0.000000 0.000000
    16 0.000000 0.000000 0.000000 0.000000 0.000000 -0.000014
    17 0.000000 0.000000 0.000000 0.000002 0.000013 -0.000019
    18 0.000000 0.000000 0.000000 0.000000 0.000000 0.000000
    19 0.000000 0.000000 0.000000 0.000000 0.000000 0.000000
    20 0.000000 0.000000 0.000000 0.000000 0.000000 0.000000
    21 0.000000 0.000000 0.000000 0.000000 0.000000 0.000000
    22 0.000000 0.000000 0.000000 0.000000 0.000000 0.000000
    23 0.000000 0.000000 0.000000 0.000000 0.000000 0.000000
    24 0.000000 0.000000 0.000000 0.000000 0.000000 0.000000
    25 0.000000 0.000000 0.000000 0.000000 0.000000 0.000000
    26 0.000000 0.000000 0.000000 -0.000012 0.000000 0.000000
    27 0.000000 0.000000 0.000000 0.000000 0.000000 0.000000
    28 0.000000 0.000000 0.000000 0.000000 0.000000 0.000000
    29 0.000000 0.000000 0.000000 0.000000 0.000000 0.000000
    30 -3.957152 4.011841 -53.629017 0.000000 0.000000 0.000000
    31 0.000000 0.000000 0.000000 0.638392 0.073125 -0.680006
    32 0.000000 0.000000 0.000000 0.000000 0.000000 -0.428641
    33 0.000000 0.000000 0.000000 -1.013952 -0.746299 0.979138
    34 0.000000 0.000000 0.000000 -0.241688 -0.040148 -0.085115
    35 0.000000 0.000000 0.000000 0.004818 -0.060199 -0.079727
    36 0.000000 0.000000 0.000000 0.000000 0.000000 -0.086795
    37 0.000000 0.000000 0.000000 0.001965 -0.030021 0.112634
    38 0.000000 0.000000 0.000000 -0.118144 0.000000 0.000028
    39 0.000000 0.000000 0.000000 0.000000 0.000000 0.077961
    40 0.000000 0.000000 0.000000 0.000000 0.000000 -0.108734
    41 0.000000 0.000000 0.000000 -0.036241 0.084360 0.004483
    42 0.000000 0.000000 0.000000 0.000000 0.000000 -0.175226
    43 0.000000 0.000000 0.000000 0.031172 -0.047303 -0.220650
    44 0.000000 0.000000 0.000000 0.000000 0.000000 -0.042435
    45 0.000000 0.000000 0.000000 0.000000 0.000000 0.000000
    46 0.000000 0.000000 0.000000 0.968436 -0.045038 0.133115
    47 0.000000 0.000000 0.000000 -0.624579 -0.218006 0.143492
    48 0.000000 0.000000 0.000000 0.000000 0.000000 -0.079994
    49 0.000000 0.000000 0.000000 0.000000 0.000000 0.000000
    50 0.000000 0.000000 0.000000 0.000000 0.000000 0.000000
    51 0.000000 0.000000 0.000000 0.000000 0.000000 0.000000
    52 0.000000 0.000000 0.000000 0.000000 0.000000 0.000000
    53 -92.312500 -76.687500 24.890625 -1.031132 -0.000001 -0.000002
    54 0.000000 0.000000 0.000000 0.000000 0.000000 0.000000
    55 0.000000 0.000000 0.000000 0.000000 0.000000 0.000000
    56 0.000000 0.000000 0.000000 0.000000 0.000000 0.000000
    57 0.000000 0.000000 0.000000 -0.037520 0.000000 0.000000
    58 0.000000 0.000000 0.000000 -0.072312 0.000000 0.000000
    59 0.000000 0.000000 0.000000 0.059887 0.125395 0.098621
    60 0.000000 0.000000 0.000000 0.249608 0.000000 0.000000
    61 0.000000 0.000000 0.000000 0.432273 0.000000 0.000000
    62 0.000000 0.000000 0.000000 0.000000 0.000000 0.000000
    63 0.000000 0.000000 0.000000 0.000000 0.000000 0.000000
    64 0.000000 0.000000 0.000000 0.000000 0.000000 0.000000
    65 0.000000 0.000000 0.000000 0.000000 0.000000 0.000000
    66 0.000000 0.000000 0.000000 0.000000 0.000000 0.000000
    67 0.000000 0.000000 0.000000 0.000000 0.000000 0.000000
  time 21
    0 0.000000 0.000000 0.000000 0.000000 0.000000 -1.570796
    1 0.000000 0.000000 0.000000 0.000000 -0.000059 0.000000
    2 0.000000 0.000000 0.000000 0.000000 0.000000 0.000000
    3 5.472823 3.578234 -3.277444 0.035411 0.109614 -0.075277
    4 0.000000 0.000000 0.000000 0.000000 0.000000 0.000000
    5 0.003233 -0.004498 -0.005451 0.000086 0.000002 0.000000
    6 0.000000 0.000000 0.000000 0.000000 0.000000 0.000000
    7 0.000000 0.000000 0.000000 0.000000 0.000060 0.055473
    8 0.000000 0.000000 0.000000 0.000000 -0.000036 0.043924
    9 0.000000 0.000000 0.000000 0.000000 0.000036 0.018205
    10 0.000000 0.000000 0.000000 0.000000 0.000000 -0.037680
    11 2.117252 -1.851619 4.097781 0.732808 -0.637234 -0.054540
    12 0.000000 0.000000 0.000000 -0.949190 0.101619 0.027511
    13 0.000000 0.000000 0.000000 0.000000 0.000012 -0.728443
    14 0.000000 0.000000 0.000000 0.699015 0.033811 0.097120
    15 0.000000 0.000000 0.000000 0.000000 0.000000 0.000000
    16 0.000000 0.000000 0.000000 0.000000 0.000000 0.000000
    17 0.000000 0.000000 0.000000 0.000002 0.000013 -0.000019
    18 0.000000 0.000000 0.000000 0.000000 0.000000 0.000000
    19 0.000000 0.000000 0.000000 0.000000 0.000000 0.000000
    20 0.000000 0.000000 0.000000 0.000000 0.000000 0.000000
    21 0.000000 0.000000 0.000000 0.000000 0.000000 0.000000
    22 0.000000 0.000000 0.000000 0.000000 0.000000 0.000000
    23 0.000000 0.000000 0.000000 0.000000 0.000000 0.000000
    24 0.000000 0.000000 0.000000 0.000000 0.000000 0.000000
    25 0.000000 0.000000 0.000000 0.000000 0.000000 0.000000
    26 0.000000 0.000000 0.000000 0.000000 0.000000 0.000000
    27 0.000000 0.000000 0.000000 0.000000 0.000000 0.000000
    28 0.000000 0.000000 0.000000 0.000000 0.000000 0.000000
    29 0.000000 0.000000 0.000000 0.000000 0.000000 0.000000
    30 -3.957152 4.011841 -53.629017 0.000000 0.000000 0.000000
    31 0.000000 0.000000 0.000000 0.566374 0.019909 -0.608351
    32 0.000000 0.000000 0.000000 0.000000 0.000000 -0.449334
    33 0.000000 0.000000 0.000000 -1.049997 -0.657477 1.007884
    34 0.000000 0.000000 0.000000 -0.241688 -0.040148 -0.085115
    35 0.000000 0.000000 0.000000 0.004818 -0.060199 -0.079727
    36 0.000000 0.000000 0.000000 0.000000 0.000000 -0.086795
    37 0.000000 0.000000 0.000000 0.001965 -0.030021 0.112634
    38 0.000000 0.000000 0.000000 -0.118144 0.000000 0.000028
    39 0.000000 0.000000 0.000000 0.000000 0.000000 0.077961
    40 0.000000 0.000000 0.000000 0.000000 0.000000 -0.108734
    41 0.000000 0.000000 0.000000 -0.036241 0.084360 0.004483
    42 0.000000 0.000000 0.000000 0.000000 0.000000 -0.175226
    43 0.000000 0.000000 0.000000 0.031172 -0.047303 -0.220650
    44 0.000000 0.000000 0.000000 0.000000 0.000000 -0.042435
    45 0.000000 0.000000 0.000000 0.000000 0.000000 0.000000
    46 0.000000 0.000000 0.000000 0.968436 -0.045038 0.133115
    47 0.000000 0.000000 0.000000 -0.624579 -0.218006 0.143492
    48 0.000000 0.000000 0.000000 0.000000 0.000000 -0.079994
    49 0.000000 0.000000 0.000000 0.000000 0.000000 0.000000
    50 0.000000 0.000000 0.000000 0.000000 0.000000 0.000000
    51 0.000000 0.000000 0.000000 0.000000 0.000000 0.000000
    52 0.000000 0.000000 0.000000 0.000000 0.000000 0.000000
    53 -92.312500 -76.687500 24.890625 -1.031132 -0.000001 -0.000002
    54 0.000000 0.000000 0.000000 0.000000 0.000000 0.000000
    55 0.000000 0.000000 0.000000 0.000000 0.000000 0.000000
    56 0.000000 0.000000 0.000000 0.000000 0.000000 0.000000
    57 0.000000 0.000000 0.000000 -0.047137 0.000000 0.000000
    58 0.000000 0.000000 0.000000 -0.090891 0.000000 0.000000
    59 0.000000 0.000000 0.000000 0.059887 0.125395 0.098621
    60 0.000000 0.000000 0.000000 0.233215 0.000000 0.000000
    61 0.000000 0.000000 0.000000 0.403861 0.000000 0.000000
    62 0.000000 0.000000 0.000000 0.000000 0.000000 0.000000
    63 0.000000 0.000000 0.000000 0.000000 0.000000 0.000000
    64 0.000000 0.000000 0.000000 0.000000 0.000000 0.000000
    65 0.000000 0.000000 0.000000 0.000000 0.000000 0.000000
    66 0.000000 0.000000 0.000000 0.000000 0.000000 0.000000
    67 0.000000 0.000000 0.000000 0.000000 0.000000 0.000000
  time 22
    0 0.000000 0.000000 0.000000 0.000000 0.000000 -1.570796
    1 0.000000 0.000000 0.000000 0.000000 -0.000059 0.000000
    2 0.000000 0.000000 0.000000 0.000000 0.000000 0.000000
    3 5.082186 3.183691 -3.418073 0.045077 0.082914 -0.107082
    4 0.000000 0.000000 0.000000 0.000000 0.000000 0.000000
    5 0.003233 -0.004498 -0.005451 0.000086 0.000002 0.000000
    6 0.000000 0.000000 0.000000 0.000000 0.000000 0.000000
    7 0.000000 0.000000 0.000000 0.000000 0.000060 0.027402
    8 0.000000 0.000000 0.000000 0.000000 -0.000036 0.021680
    9 0.000000 0.000000 0.000000 0.000000 0.000036 0.008988
    10 0.000000 0.000000 0.000000 0.000000 0.000000 -0.018600
    11 2.117252 -1.851619 4.097781 0.732808 -0.637234 -0.054540
    12 0.000000 0.000000 0.000000 -0.964654 0.104214 -0.000983
    13 0.000000 0.000000 0.000000 0.000000 0.000012 -0.623881
    14 0.000000 0.000000 0.000000 0.615345 0.030781 0.074198
    15 0.000000 0.000000 0.000000 0.000000 0.000000 0.000000
    16 0.000000 0.000000 0.000000 0.000000 0.000000 0.000000
    17 0.000000 0.000000 0.000000 0.000002 0.000013 -0.000019
    18 0.000000 0.000000 0.000000 0.000000 0.000000 0.000000
    19 0.000000 0.000000 0.000000 0.000000 0.000000 0.000000
    20 0.000000 0.000000 0.000000 0.000000 0.000000 0.000000
    21 0.000000 0.000000 0.000000 0.000000 0.000000 0.000000
    22 0.000000 0.000000 0.000000 0.000000 0.000000 0.000000
    23 0.000000 0.000000 0.000000 0.000000 0.000000 0.000000
    24 0.000000 0.000000 0.000000 0.000000 0.000000 0.000000
    25 0.000000 0.000000 0.000000 0.000000 0.000000 0.000000
    26 0.000000 0.000000 0.000000 -0.000012 0.000000 0.000000
    27 0.000000 0.000000 0.000000 0.000000 0.000000 0.000000
    28 0.000000 0.000000 0.000000 0.000000 0.000000 0.000000
    29 0.000000 0.000000 0.000000 0.000000 0.000000 0.000000
    30 -3.957152 4.011841 -53.629017 0.000000 0.000000 0.000000
    31 0.000000 0.000000 0.000000 0.538122 -0.004304 -0.567706
    32 0.000000 0.000000 0.000000 0.000000 0.000000 -0.427679
    33 0.000000 0.000000 0.000000 -1.037254 -0.633718 0.991485
    34 0.000000 0.000000 0.000000 -0.241688 -0.040148 -0.085115
    35 0.000000 0.000000 0.000000 0.004818 -0.060199 -0.079727
    36 0.000000 0.000000 0.000000 0.000000 0.000000 -0.086795
    37 0.000000 0.000000 0.000000 0.001965 -0.030021 0.112634
    38 0.000000 0.000000 0.000000 -0.118144 0.000000 0.000028
    39 0.000000 0.000000 0.000000 0.000000 0.000000 0.077961
    40 0.000000 0.000000 0.000000 0.000000 0.000000 -0.108734
    41 0.000000 0.000000 0.000000 -0.036241 0.084360 0.004483
    42 0.000000 0.000000 0.000000 0.000000 0.000000 -0.175226
    43 0.000000 0.000000 0.000000 0.031172 -0.047303 -0.220650
    44 0.000000 0.000000 0.000000 0.000000 0.000000 -0.042435
    45 0.000000 0.000000 0.000000 0.000000 0.000000 0.000000
    46 0.000000 0.000000 0.000000 0.968436 -0.045038 0.133115
    47 0.000000 0.000000 0.000000 -0.624579 -0.218006 0.143492
    48 0.000000 0.000000 0.000000 0.000000 0.000000 -0.079994
    49 0.000000 0.000000 0.000000 0.000000 0.000000 0.000000
    50 0.000000 0.000000 0.000000 0.000000 0.000000 0.000000
    51 0.000000 0.000000 0.000000 0.000000 0.000000 0.000000
    52 0.000000 0.000000 0.000000 0.000000 0.000000 0.000000
    53 -92.312500 -76.687500 24.890625 -1.031132 -0.000001 -0.000002
    54 0.000000 0.000000 0.000000 0.000000 0.000000 0.000000
    55 0.000000 0.000000 0.000000 0.000000 0.000000 0.000000
    56 0.000000 0.000000 0.000000 0.000000 0.000000 0.000000
    57 0.000000 0.000000 0.000000 -0.047036 0.000000 0.000000
    58 0.000000 0.000000 0.000000 -0.090698 0.000000 0.000000
    59 0.000000 0.000000 0.000000 0.059887 0.125395 0.098621
    60 0.000000 0.000000 0.000000 0.221323 0.000000 0.000000
    61 0.000000 0.000000 0.000000 0.383270 0.000000 0.000000
    62 0.000000 0.000000 0.000000 0.000000 0.000000 0.000000
    63 0.000000 0.000000 0.000000 0.000000 0.000000 0.000000
    64 0.000000 0.000000 0.000000 0.000000 0.000000 0.000000
    65 0.000000 0.000000 0.000000 0.000000 0.000000 0.000000
    66 0.000000 0.000000 0.000000 0.000000 0.000000 0.000000
    67 0.000000 0.000000 0.000000 0.000000 0.000000 0.000000
end

