version 1
nodes
0 "ValveBiped.Bip01_Pelvis" -1
1 "ValveBiped.Bip01_Spine" 0
2 "ValveBiped.Bip01_Spine1" 1
3 "ValveBiped.Bip01_Spine2" 2
4 "ValveBiped.Bip01_Spine4" 3
5 "ValveBiped.Bip01_Neck1" 4
6 "ValveBiped.Bip01_Head1" 5
7 "Eye_L" 6
8 "Eye_R" 6
9 "Teeth" 6
10 "Tongue1" 6
11 "Tongue2" 10
12 "Tongue3" 11
13 "FrontHair1" 6
14 "FrontHair2" 13
15 "FrontHair_L" 6
16 "FrontHair_R" 6
17 "SideHair1_L" 6
18 "SideHair2_L" 17
19 "SideHair3_L" 18
20 "SideHair1_R" 6
21 "SideHair2_R" 20
22 "SideHair3_R" 21
23 "BackSideHair1_L" 6
24 "BackSideHair2_L" 23
25 "BackSideHair1_R" 6
26 "BackSideHair2_R" 25
27 "BackInsideHair" 6
28 "BackHair" 6
29 "Side_L1" 6
30 "Side_L2" 29
31 "Side_L3" 30
32 "Side_L4" 31
33 "Side_R1" 6
34 "Side_R2" 33
35 "Side_R3" 34
36 "Side_R4" 35
37 "ValveBiped.Bip01_L_Clavicle" 4
38 "ValveBiped.Bip01_L_UpperArm" 37
39 "ValveBiped.Bip01_L_Forearm" 38
40 "ValveBiped.Bip01_L_Hand" 39
41 "ValveBiped.Bip01_L_Finger0" 40
42 "ValveBiped.Bip01_L_Finger01" 41
43 "ValveBiped.Bip01_L_Finger02" 42
44 "ValveBiped.Bip01_L_Finger1" 40
45 "ValveBiped.Bip01_L_Finger11" 44
46 "ValveBiped.Bip01_L_Finger12" 45
47 "ValveBiped.Bip01_L_Finger2" 40
48 "ValveBiped.Bip01_L_Finger21" 47
49 "ValveBiped.Bip01_L_Finger22" 48
50 "ValveBiped.Bip01_L_Finger3" 40
51 "ValveBiped.Bip01_L_Finger31" 50
52 "ValveBiped.Bip01_L_Finger32" 51
53 "ValveBiped.Bip01_L_Finger4" 40
54 "ValveBiped.Bip01_L_Finger41" 53
55 "ValveBiped.Bip01_L_Finger42" 54
56 "ValveBiped.Bip01_R_Clavicle" 4
57 "ValveBiped.Bip01_R_UpperArm" 56
58 "ValveBiped.Bip01_R_Forearm" 57
59 "ValveBiped.Bip01_R_Hand" 58
60 "ValveBiped.Bip01_R_Finger0" 59
61 "ValveBiped.Bip01_R_Finger01" 60
62 "ValveBiped.Bip01_R_Finger02" 61
63 "ValveBiped.Bip01_R_Finger1" 59
64 "ValveBiped.Bip01_R_Finger11" 63
65 "ValveBiped.Bip01_R_Finger12" 64
66 "ValveBiped.Bip01_R_Finger2" 59
67 "ValveBiped.Bip01_R_Finger21" 66
68 "ValveBiped.Bip01_R_Finger22" 67
69 "ValveBiped.Bip01_R_Finger3" 59
70 "ValveBiped.Bip01_R_Finger31" 69
71 "ValveBiped.Bip01_R_Finger32" 70
72 "ValveBiped.Bip01_R_Finger4" 59
73 "ValveBiped.Bip01_R_Finger41" 72
74 "ValveBiped.Bip01_R_Finger42" 73
75 "RibbonL" 4
76 "RibbonR" 4
77 "ValveBiped.Bip01_L_Thigh" 0
78 "ValveBiped.Bip01_L_Calf" 77
79 "ValveBiped.Bip01_L_Foot" 78
80 "ValveBiped.Bip01_R_Thigh" 0
81 "ValveBiped.Bip01_R_Calf" 80
82 "ValveBiped.Bip01_R_Foot" 81
83 "root" -1
end
skeleton
time 0
0  0.000000 -2.073153 34.977371  1.570796 -0.000000 0.000000
1  0.000003 3.931816 -1.370258  1.570797 -0.074107 1.570795
2  3.520097 0.000015 -0.000005  -0.000000 0.000006 -0.112626
3  3.318690 0.000053 0.000015  -0.000000 -0.000002 -0.012631
4  6.916326 0.000084 0.000017  0.000000 -0.000004 0.155829
5  2.915460 -0.000225 -0.000006  -3.141592 0.000000 0.224047
6  2.229748 -0.081773 0.000003  0.000000 -0.000004 0.059068
7  2.253926 -0.074005 -1.091765  -2.838591 -0.054464 -0.033344
8  2.253942 -0.074007 1.091757  0.303009 -0.054408 3.108267
9  0.003003 -1.393599 -0.000000  0.000110 1.570729 3.090000
10  -0.067044 -1.009805 0.000000  -3.055256 1.570765 0.000000
11  -0.000000 0.622601 0.000006  0.004925 -0.000000 -0.000000
12  -0.000000 0.466433 -0.000005  -0.004825 -0.000000 0.000000
13  5.801991 -2.705404 -0.000014  0.267523 -1.570794 0.000000
14  -0.000000 -0.004379 2.049233  -0.014643 -0.000000 -0.000000
15  5.801990 -2.705410 -2.008741  0.267521 -1.570794 0.000000
16  5.801985 -2.705407 2.008720  0.267523 -1.570794 0.000000
17  5.111876 0.669817 -4.276175  0.277592 -1.570794 0.000000
18  -0.000001 0.023509 2.963130  -0.008270 -0.000000 0.000001
19  -0.000000 -0.000663 1.968715  -0.000131 0.000000 0.000000
20  5.111919 0.669819 4.276144  0.277590 -1.570794 0.000000
21  -0.000001 0.023500 2.963134  -0.008267 -0.000000 0.000001
22  -0.000001 -0.000663 1.968715  -0.000131 0.000000 0.000000
23  4.254033 3.716813 -4.986283  0.283929 -1.570794 0.000000
24  -0.000000 0.070169 4.916997  -0.011118 0.000016 0.001250
25  4.254053 3.716825 4.986264  0.283929 -1.570794 0.000000
26  0.000000 0.070167 4.917010  -0.011118 -0.000016 -0.001248
27  0.355685 4.587685 -0.000001  0.224966 -1.570794 0.000000
28  0.053010 5.689240 -0.000000  0.233485 -1.570794 0.000000
29  6.417437 2.459538 -3.591179  -0.003784 -2.048229 0.282209
30  0.022152 0.019194 2.589834  -0.030600 0.309322 -0.027721
31  0.145250 -0.028323 2.437301  0.018926 0.166500 0.084010
32  -0.109311 -0.002356 2.414487  -0.010481 0.000085 -0.050628
33  6.417458 2.459546 3.591154  -0.003787 -1.093364 0.282212
34  -0.022142 0.019195 2.589824  -0.030597 -0.309318 0.027716
35  -0.145256 -0.028319 2.437287  0.018924 -0.166501 -0.084005
36  0.109308 -0.002357 2.414515  -0.010481 -0.000084 0.050623
37  1.634997 0.559472 0.920084  -1.768142 -1.904687 -0.071544
38  4.017205 -0.185429 -0.915146  -1.408079 0.034928 -0.275196
39  9.517356 0.000003 -0.000027  0.000000 0.001549 -0.000000
40  9.636600 0.000003 0.014892  1.570797 -0.042493 -0.000000
41  0.253441 -0.278502 0.781435  -1.627765 -0.392908 -0.330928
42  1.285002 0.000010 0.000004  -0.056150 0.001275 -0.043722
43  1.026854 0.026591 0.085736  -0.001558 -0.078098 -0.261968
44  2.461361 -0.223797 0.797767  -0.000001 0.000002 -0.090675
45  1.156636 -0.027142 0.008820  0.000001 -0.000008 -0.023476
46  0.787785 0.009279 -0.015687  0.000000 0.000011 0.011774
47  2.592001 -0.171617 0.166281  -0.000000 0.000005 -0.066109
48  1.195825 0.021295 0.008498  -0.000000 -0.000007 0.017803
49  0.804495 -0.023163 -0.000002  -0.000000 0.000008 -0.028775
50  2.478437 -0.285638 -0.441682  -0.000001 0.000001 -0.114745
51  1.017639 0.059523 0.017641  0.000000 0.000005 0.058423
52  0.747766 -0.013674 0.027118  0.000000 -0.000004 -0.018289
53  2.338893 -0.459403 -1.015998  -0.000001 0.000006 -0.193948
54  0.801726 0.074050 0.035612  -0.000000 -0.000009 0.092084
55  0.586870 0.010265 0.022866  0.000000 0.000002 0.017477
56  1.635004 0.559487 -0.920062  1.704510 1.905236 -0.062932
57  4.019845 -0.249853 0.887977  1.476366 -0.012598 -0.276751
58  9.517378 -0.000002 -0.000012  0.000000 -0.001550 -0.000000
59  9.636604 0.000002 -0.014951  -1.570797 0.042798 -0.000001
60  0.253349 -0.278572 -0.781434  1.627766 0.392906 -0.331227
61  1.285006 0.000008 0.000003  0.063499 -0.003853 -0.043913
62  1.026641 0.025993 -0.088574  0.000854 0.076706 -0.262611
63  2.461288 -0.224538 -0.797766  0.000001 0.000000 -0.090973
64  1.156638 -0.027157 -0.008819  -0.000001 0.000008 -0.023476
65  0.787779 0.009272 0.015688  -0.000000 -0.000010 0.011774
66  2.591942 -0.172391 -0.166280  -0.000000 -0.000003 -0.066407
67  1.195826 0.021295 -0.008497  -0.000000 0.000007 0.017803
68  0.804495 -0.023157 0.000004  0.000000 -0.000009 -0.028775
69  2.478349 -0.286377 0.441683  0.000000 -0.000001 -0.115042
70  1.017633 0.059514 -0.017641  -0.000000 0.000003 0.058414
71  0.747764 -0.013673 -0.027113  0.000000 -0.000003 -0.018281
72  2.338751 -0.460104 1.016000  -0.000002 -0.000004 -0.194247
73  0.801732 0.074041 -0.035612  0.000002 0.000010 0.092085
74  0.586871 0.010260 -0.022865  -0.000000 -0.000003 0.017478
75  1.526982 2.709393 0.406722  0.823132 -1.074312 -1.381138
76  1.526985 2.709395 -0.406728  0.823117 -2.067288 -1.381116
77  2.962398 0.000004 0.000002  -1.570796 -0.000000 -1.570796
78  13.350702 -0.115652 -0.316237  0.000000 -0.000000 0.122993
79  17.841208 -0.000032 -0.000003  -0.000000 -0.000001 -1.083511
80  -2.962397 0.000004 0.000002  -1.570796 -0.000000 -1.570796
81  13.350695 -0.115652 0.316229  0.000000 -0.000000 0.122993
82  17.841196 -0.000033 -0.000003  -0.000000 -0.000000 -1.086572
83  0.000000 0.000000 0.000000  0.000000 -0.000000 0.000000
time 1
0  0.000000 -2.073153 34.977371  1.570796 -0.000000 0.000000
1  0.000003 3.931816 -1.370258  1.570797 -0.074107 1.570795
2  3.520097 0.000015 -0.000005  -0.000000 0.000006 -0.112626
3  3.318690 0.000053 0.000015  -0.000000 -0.000002 -0.012631
4  6.916326 0.000084 0.000017  0.000000 -0.000004 0.155829
5  2.915460 -0.000225 -0.000006  -3.141592 0.000000 0.224047
6  2.229748 -0.081773 0.000003  0.000000 -0.000004 0.059068
7  2.253926 -0.074005 -1.091765  -2.838591 -0.054464 -0.033344
8  2.253942 -0.074007 1.091757  0.303009 -0.054408 3.108267
9  0.003003 -1.393599 -0.000000  0.000110 1.570729 3.090000
10  -0.067044 -1.009805 0.000000  -3.055256 1.570765 0.000000
11  -0.000000 0.622601 0.000006  0.004925 -0.000000 -0.000000
12  -0.000000 0.466433 -0.000005  -0.004825 -0.000000 0.000000
13  5.801991 -2.705404 -0.000014  0.267523 -1.570794 0.000000
14  -0.000000 -0.004379 2.049233  -0.014643 -0.000000 -0.000000
15  5.801990 -2.705410 -2.008741  0.267521 -1.570794 0.000000
16  5.801985 -2.705407 2.008720  0.267523 -1.570794 0.000000
17  5.111876 0.669817 -4.276175  0.277592 -1.570794 0.000000
18  -0.000001 0.023509 2.963130  -0.008270 -0.000000 0.000001
19  -0.000000 -0.000663 1.968715  -0.000131 0.000000 0.000000
20  5.111919 0.669819 4.276144  0.277590 -1.570794 0.000000
21  -0.000001 0.023500 2.963134  -0.008267 -0.000000 0.000001
22  -0.000001 -0.000663 1.968715  -0.000131 0.000000 0.000000
23  4.254033 3.716813 -4.986283  0.283929 -1.570794 0.000000
24  -0.000000 0.070169 4.916997  -0.011118 0.000016 0.001250
25  4.254053 3.716825 4.986264  0.283929 -1.570794 0.000000
26  0.000000 0.070167 4.917010  -0.011118 -0.000016 -0.001248
27  0.355685 4.587685 -0.000001  0.224966 -1.570794 0.000000
28  0.053010 5.689240 -0.000000  0.233485 -1.570794 0.000000
29  6.417437 2.459538 -3.591179  -0.003784 -2.048229 0.282209
30  0.022152 0.019194 2.589834  -0.030600 0.309322 -0.027721
31  0.145250 -0.028323 2.437301  0.018926 0.166500 0.084010
32  -0.109311 -0.002356 2.414487  -0.010481 0.000085 -0.050628
33  6.417458 2.459546 3.591154  -0.003787 -1.093364 0.282212
34  -0.022142 0.019195 2.589824  -0.030597 -0.309318 0.027716
35  -0.145256 -0.028319 2.437287  0.018924 -0.166501 -0.084005
36  0.109308 -0.002357 2.414515  -0.010481 -0.000084 0.050623
37  1.634997 0.559472 0.920084  -1.768142 -1.904687 -0.071544
38  4.017205 -0.185429 -0.915146  -1.408079 0.034928 -0.275196
39  9.517356 0.000003 -0.000027  0.000000 0.001549 -0.000000
40  9.636600 0.000003 0.014892  1.570797 -0.042493 -0.000000
41  0.253441 -0.278502 0.781435  -1.627765 -0.392908 -0.330928
42  1.285002 0.000010 0.000004  -0.056150 0.001275 -0.043722
43  1.026854 0.026591 0.085736  -0.001558 -0.078098 -0.261968
44  2.461361 -0.223797 0.797767  -0.000001 0.000002 -0.090675
45  1.156636 -0.027142 0.008820  0.000001 -0.000008 -0.023476
46  0.787785 0.009279 -0.015687  0.000000 0.000011 0.011774
47  2.592001 -0.171617 0.166281  -0.000000 0.000005 -0.066109
48  1.195825 0.021295 0.008498  -0.000000 -0.000007 0.017803
49  0.804495 -0.023163 -0.000002  -0.000000 0.000008 -0.028775
50  2.478437 -0.285638 -0.441682  -0.000001 0.000001 -0.114745
51  1.017639 0.059523 0.017641  0.000000 0.000005 0.058423
52  0.747766 -0.013674 0.027118  0.000000 -0.000004 -0.018289
53  2.338893 -0.459403 -1.015998  -0.000001 0.000006 -0.193948
54  0.801726 0.074050 0.035612  -0.000000 -0.000009 0.092084
55  0.586870 0.010265 0.022866  0.000000 0.000002 0.017477
56  1.635004 0.559487 -0.920062  1.704510 1.905236 -0.062932
57  4.019845 -0.249853 0.887977  1.476366 -0.012598 -0.276751
58  9.517378 -0.000002 -0.000012  0.000000 -0.001550 -0.000000
59  9.636604 0.000002 -0.014951  -1.570797 0.042798 -0.000001
60  0.253349 -0.278572 -0.781434  1.627766 0.392906 -0.331227
61  1.285006 0.000008 0.000003  0.063499 -0.003853 -0.043913
62  1.026641 0.025993 -0.088574  0.000854 0.076706 -0.262611
63  2.461288 -0.224538 -0.797766  0.000001 0.000000 -0.090973
64  1.156638 -0.027157 -0.008819  -0.000001 0.000008 -0.023476
65  0.787779 0.009272 0.015688  -0.000000 -0.000010 0.011774
66  2.591942 -0.172391 -0.166280  -0.000000 -0.000003 -0.066407
67  1.195826 0.021295 -0.008497  -0.000000 0.000007 0.017803
68  0.804495 -0.023157 0.000004  0.000000 -0.000009 -0.028775
69  2.478349 -0.286377 0.441683  0.000000 -0.000001 -0.115042
70  1.017633 0.059514 -0.017641  -0.000000 0.000003 0.058414
71  0.747764 -0.013673 -0.027113  0.000000 -0.000003 -0.018281
72  2.338751 -0.460104 1.016000  -0.000002 -0.000004 -0.194247
73  0.801732 0.074041 -0.035612  0.000002 0.000010 0.092085
74  0.586871 0.010260 -0.022865  -0.000000 -0.000003 0.017478
75  1.526982 2.709393 0.406722  0.823132 -1.074312 -1.381138
76  1.526985 2.709395 -0.406728  0.823117 -2.067288 -1.381116
77  2.962398 0.000004 0.000002  -1.570796 -0.000000 -1.570796
78  13.350702 -0.115652 -0.316237  0.000000 -0.000000 0.122993
79  17.841208 -0.000032 -0.000003  -0.000000 -0.000001 -1.083511
80  -2.962397 0.000004 0.000002  -1.570796 -0.000000 -1.570796
81  13.350695 -0.115652 0.316229  0.000000 -0.000000 0.122993
82  17.841196 -0.000033 -0.000003  -0.000000 -0.000000 -1.086572
83  0.000000 0.000000 0.000000  0.000000 -0.000000 0.000000
end
