version 1
nodes
0 "root" -1
end
skeleton
time 0
0  0.000000 0.000000 0.000000  0.000000 -0.000000 0.000000
end
triangles
dummy
0  20.000000 -2.000000 -4.000000  -0.250347 0.433249 0.865807  -4.796880 -3.753910 1 0 1.000000
0  20.000000 -1.000000 -4.000000  -0.250020 0.432969 0.866041  -4.796880 -3.750000 1 0 1.000000
0  -20.000000 -1.000000 -4.000000  -0.250047 0.432988 0.866024  -4.953130 -3.750000 1 0 1.000000
dummy
0  -20.000000 -2.000000 -4.000000  -0.250246 0.432651 0.866135  -4.953130 -3.753910 1 0 1.000000
0  20.000000 -2.000000 -4.000000  -0.250347 0.433249 0.865807  -4.796880 -3.753910 1 0 1.000000
0  -20.000000 -1.000000 -4.000000  -0.250047 0.432988 0.866024  -4.953130 -3.750000 1 0 1.000000
dummy
0  20.000000 -1.000000 -12.000000  -0.250228 0.432613 0.866159  -4.796880 -3.750000 1 0 1.000000
0  20.000000 -2.000000 -12.000000  -0.250012 0.433037 0.866010  -4.796880 -3.753910 1 0 1.000000
0  -20.000000 -2.000000 -12.000000  -0.249969 0.433024 0.866029  -4.953130 -3.753910 1 0 1.000000
dummy
0  -20.000000 -1.000000 -12.000000  -0.250291 0.433251 0.865822  -4.953130 -3.750000 1 0 1.000000
0  20.000000 -1.000000 -12.000000  -0.250228 0.432613 0.866159  -4.796880 -3.750000 1 0 1.000000
0  -20.000000 -2.000000 -12.000000  -0.249969 0.433024 0.866029  -4.953130 -3.753910 1 0 1.000000
dummy
0  -20.000000 -2.000000 -12.000000  -0.249969 0.433024 0.866029  -3.753910 0.453125 1 0 1.000000
0  -20.000000 -2.000000 -4.000000  -0.250246 0.432651 0.866135  -3.753910 0.484375 1 0 1.000000
0  -20.000000 -1.000000 -4.000000  -0.250047 0.432988 0.866024  -3.750000 0.484375 1 0 1.000000
dummy
0  -20.000000 -1.000000 -12.000000  -0.250291 0.433251 0.865822  -3.750000 0.453125 1 0 1.000000
0  -20.000000 -2.000000 -12.000000  -0.249969 0.433024 0.866029  -3.753910 0.453125 1 0 1.000000
0  -20.000000 -1.000000 -4.000000  -0.250047 0.432988 0.866024  -3.750000 0.484375 1 0 1.000000
dummy
0  20.000000 -2.000000 -4.000000  -0.250347 0.433249 0.865807  -3.753910 0.484375 1 0 1.000000
0  20.000000 -2.000000 -12.000000  -0.250012 0.433037 0.866010  -3.753910 0.453125 1 0 1.000000
0  20.000000 -1.000000 -12.000000  -0.250228 0.432613 0.866159  -3.750000 0.453125 1 0 1.000000
dummy
0  20.000000 -1.000000 -4.000000  -0.250020 0.432969 0.866041  -3.750000 0.484375 1 0 1.000000
0  20.000000 -2.000000 -4.000000  -0.250347 0.433249 0.865807  -3.753910 0.484375 1 0 1.000000
0  20.000000 -1.000000 -12.000000  -0.250228 0.432613 0.866159  -3.750000 0.453125 1 0 1.000000
dummy
0  -20.000000 -1.000000 -12.000000  -0.250291 0.433251 0.865822  -4.953130 0.453125 1 0 1.000000
0  -20.000000 -1.000000 -4.000000  -0.250047 0.432988 0.866024  -4.953130 0.484375 1 0 1.000000
0  20.000000 -1.000000 -4.000000  -0.250020 0.432969 0.866041  -4.796880 0.484375 1 0 1.000000
dummy
0  20.000000 -1.000000 -12.000000  -0.250228 0.432613 0.866159  -4.796880 0.453125 1 0 1.000000
0  -20.000000 -1.000000 -12.000000  -0.250291 0.433251 0.865822  -4.953130 0.453125 1 0 1.000000
0  20.000000 -1.000000 -4.000000  -0.250020 0.432969 0.866041  -4.796880 0.484375 1 0 1.000000
dummy
0  -20.000000 -2.000000 -4.000000  -0.250246 0.432651 0.866135  -4.953130 0.484375 1 0 1.000000
0  -20.000000 -2.000000 -12.000000  -0.249969 0.433024 0.866029  -4.953130 0.453125 1 0 1.000000
0  20.000000 -2.000000 -12.000000  -0.250012 0.433037 0.866010  -4.796880 0.453125 1 0 1.000000
dummy
0  20.000000 -2.000000 -4.000000  -0.250347 0.433249 0.865807  -4.796880 0.484375 1 0 1.000000
0  -20.000000 -2.000000 -4.000000  -0.250246 0.432651 0.866135  -4.953130 0.484375 1 0 1.000000
0  20.000000 -2.000000 -12.000000  -0.250012 0.433037 0.866010  -4.796880 0.453125 1 0 1.000000
end
