version 1
nodes
0 "root" -1
1 "camera" -1
end
skeleton
time 0
1 0 0 0 0 0.183865 -0.267503
time 1
1 23.3428 -6.4502 -4.88725 -0.000136008 0.12242 -0.282101
time 2
1 27.0986 -7.50781 -5.59241 -0.00015141 0.11888 -0.282912
time 3
1 30.7222 -8.53516 -6.24504 -0.000171599 0.115561 -0.283764
time 4
1 34.2241 -9.53613 -6.84982 -0.000196947 0.112357 -0.284694
time 5
1 37.6123 -10.5088 -7.41074 -0.000228854 0.1092 -0.285741
time 6
1 40.8931 -11.457 -7.93123 -0.000268603 0.106062 -0.286935
time 7
1 44.0728 -12.3799 -8.41412 -0.000316636 0.102939 -0.288295
time 8
1 47.1582 -13.2793 -8.86189 -0.000373989 0.0998294 -0.289843
time 9
1 50.1548 -14.1582 -9.27673 -0.000439631 0.096732 -0.291565
time 10
1 53.0669 -15.0156 -9.66057 -0.000512705 0.093646 -0.293463
time 11
1 95.8267 -27.1797 -17.1689 -0.000555763 0.0861188 -0.296871
time 12
1 104.134 -29.6152 -18.3298 -0.000650856 0.0811985 -0.300024
time 13
1 112.66 -32.126 -19.4801 -0.000755929 0.0761757 -0.303595
time 14
1 121.417 -34.7197 -20.6211 -0.000869789 0.071069 -0.307603
time 15
1 130.425 -37.4033 -21.7537 -0.000990633 0.0658962 -0.31207
time 16
1 139.698 -40.1846 -22.8787 -0.00111708 0.0606914 -0.317021
time 17
1 149.253 -43.0723 -23.9972 -0.00124759 0.0554792 -0.322487
time 18
1 159.108 -46.0732 -25.1102 -0.00137909 0.0502713 -0.328476
time 19
1 169.279 -49.2012 -26.2193 -0.00150792 0.0450896 -0.334987
time 20
1 179.785 -52.4619 -27.3261 -0.0016316 0.0399428 -0.342052
time 21
1 190.644 -55.8662 -28.4323 -0.00174805 0.0348386 -0.349712
time 22
1 199.973 -58.8857 -29.199 -0.00186438 0.0300081 -0.357926
time 23
1 209.341 -61.9678 -29.9131 -0.00197187 0.0253569 -0.366703
time 24
1 218.735 -65.1143 -30.5734 -0.00206817 0.0209063 -0.376031
time 25
1 228.146 -68.3281 -31.1791 -0.0021508 0.0166721 -0.385895
time 26
1 237.56 -71.6104 -31.7298 -0.00221811 0.0126691 -0.396287
time 27
1 246.961 -74.9629 -32.2251 -0.00226758 0.00890457 -0.407163
time 28
1 256.334 -78.3877 -32.6644 -0.00229658 0.00539043 -0.418464
time 29
1 265.662 -81.8838 -33.0476 -0.00230532 0.00213564 -0.430195
time 30
1 274.926 -85.4512 -33.3739 -0.00229345 -0.000854807 -0.442336
time 31
1 284.103 -89.0918 -33.6428 -0.00226154 -0.00356805 -0.454876
time 32
1 293.17 -92.8047 -33.8533 -0.00220947 -0.00598471 -0.467786
time 33
1 302.195 -96.6123 -34.0207 -0.0021368 -0.00810463 -0.481034
time 34
1 311.17 -100.519 -34.1474 -0.00204437 -0.00993051 -0.494603
time 35
1 320.091 -104.525 -34.236 -0.00193247 -0.0114583 -0.508487
time 36
1 328.953 -108.638 -34.2892 -0.00180026 -0.0126805 -0.522707
time 37
1 337.75 -112.854 -34.3098 -0.00164735 -0.0135918 -0.537266
time 38
1 346.48 -117.181 -34.3009 -0.00147477 -0.0141933 -0.552181
time 39
1 355.141 -121.616 -34.2655 -0.00128414 -0.0144911 -0.567449
time 40
1 363.728 -126.162 -34.2069 -0.00107667 -0.0144837 -0.583032
time 41
1 372.238 -130.822 -34.1283 -0.000853613 -0.0141717 -0.59894
time 42
1 380.672 -135.599 -34.0332 -0.000616876 -0.0135585 -0.615138
time 43
1 389.03 -140.493 -33.9254 -0.000369103 -0.0126581 -0.631589
time 44
1 397.307 -145.507 -33.8079 -0.000112158 -0.0114772 -0.648288
time 45
1 405.5 -150.642 -33.6838 0.000151937 -0.0100203 -0.665234
time 46
1 413.607 -155.899 -33.5565 0.000421978 -0.00829471 -0.682425
time 47
1 421.622 -161.281 -33.4293 0.000694215 -0.00632862 -0.699803
time 48
1 429.542 -166.788 -33.3056 0.000965489 -0.00414434 -0.717319
time 49
1 437.363 -172.422 -33.1884 0.00123419 -0.00175299 -0.734939
time 50
1 445.083 -178.182 -33.0809 0.00149729 0.000829966 -0.752644
time 51
1 452.697 -184.07 -32.986 0.0017546 0.00359623 -0.770442
time 52
1 460.203 -190.085 -32.9066 0.00200558 0.00653497 -0.78829
time 53
1 467.598 -196.227 -32.8451 0.00225127 0.00963933 -0.806206
time 54
1 474.878 -202.494 -32.8041 0.00249228 0.0129079 -0.824204
time 55
1 482.042 -208.887 -32.7859 0.00273009 0.0163356 -0.84229
time 56
1 489.086 -215.404 -32.7927 0.00296461 0.0199112 -0.860452
time 57
1 496.006 -222.045 -32.8265 0.00319595 0.0236212 -0.878674
time 58
1 502.802 -228.807 -32.8888 0.00342325 0.0274669 -0.896953
time 59
1 509.472 -235.688 -32.9813 0.00364555 0.0314455 -0.915301
time 60
1 516.012 -242.685 -33.1052 0.00386016 0.0355439 -0.933704
time 61
1 522.421 -249.798 -33.2619 0.00406678 0.0397646 -0.952166
time 62
1 528.699 -257.024 -33.4528 0.0042631 0.0440911 -0.970659
time 63
1 534.841 -264.361 -33.6793 0.004448 0.0485151 -0.989175
time 64
1 540.846 -271.807 -33.9429 0.00462004 0.0530233 -1.00767
time 65
1 546.709 -279.356 -34.2452 0.00477902 0.0576034 -1.02613
time 66
1 552.431 -287.013 -34.5875 0.00492427 0.0622421 -1.0445
time 67
1 558.006 -294.769 -34.971 0.0050595 0.0669433 -1.0628
time 68
1 563.433 -302.625 -35.397 0.00518412 0.0716995 -1.08101
time 69
1 568.709 -310.578 -35.8663 0.00530093 0.0765091 -1.09916
time 70
1 573.832 -318.624 -36.3799 0.00541213 0.0813726 -1.11726
time 71
1 578.802 -326.762 -36.9385 0.00552116 0.0862984 -1.13535
time 72
1 583.616 -334.987 -37.5425 0.00562922 0.0912787 -1.15345
time 73
1 588.275 -343.297 -38.1926 0.00573743 0.0963169 -1.1716
time 74
1 592.78 -351.688 -38.8891 0.00584563 0.101405 -1.18983
time 75
1 597.127 -360.156 -39.6323 0.00595271 0.106537 -1.20816
time 76
1 601.32 -368.701 -40.4226 0.00605429 0.111697 -1.22657
time 77
1 605.356 -377.314 -41.2606 0.00614618 0.116868 -1.24507
time 78
1 609.236 -385.997 -42.1467 0.0062241 0.122022 -1.26361
time 79
1 612.958 -394.743 -43.0813 0.00628567 0.127144 -1.28221
time 80
1 616.52 -403.55 -44.0651 0.00632725 0.132215 -1.3008
time 81
1 619.92 -412.414 -45.0987 0.00634627 0.137209 -1.31934
time 82
1 623.157 -421.333 -46.1827 0.00634073 0.142102 -1.33779
time 83
1 626.227 -430.304 -47.3176 0.00631026 0.146877 -1.35607
time 84
1 629.127 -439.322 -48.5037 0.00625377 0.151512 -1.37414
time 85
1 631.855 -448.386 -49.741 0.00617273 0.155999 -1.39192
time 86
1 634.41 -457.491 -51.0294 0.00606965 0.160327 -1.40941
time 87
1 636.791 -466.635 -52.368 0.00594875 0.164502 -1.42661
time 88
1 638.999 -475.815 -53.756 0.00581495 0.168534 -1.44355
time 89
1 641.032 -485.027 -55.1921 0.00567132 0.172435 -1.46022
time 90
1 642.894 -494.271 -56.6749 0.0055219 0.176213 -1.47664
time 91
1 644.585 -503.539 -58.2028 0.0053715 0.179889 -1.49283
time 92
1 646.108 -512.832 -59.7743 0.00522407 0.183478 -1.50881
time 93
1 647.466 -522.146 -61.3876 0.00508396 0.187002 -1.52464
time 94
1 648.663 -531.479 -63.041 0.00495497 0.190478 -1.54038
time 95
1 649.7 -540.827 -64.7327 0.00484037 0.193935 -1.5561
time 96
1 650.583 -550.188 -66.4612 0.00474067 0.197383 -1.57185
time 97
1 651.315 -559.563 -68.2251 0.00465597 0.200838 -1.58763
time 98
1 651.896 -568.944 -70.0231 0.00458727 0.20432 -1.60348
time 99
1 652.329 -578.331 -71.8544 0.00453374 0.207835 -1.61937
time 100
1 652.616 -587.724 -73.7183 0.00449367 0.211388 -1.63533
time 101
1 652.757 -597.116 -75.6142 0.00446572 0.214986 -1.65136
time 102
1 652.755 -606.507 -77.542 0.0044473 0.218624 -1.66745
time 103
1 652.607 -615.894 -79.5016 0.0044365 0.222302 -1.68359
time 104
1 652.314 -625.272 -81.4934 0.00443168 0.226018 -1.69978
time 105
1 651.876 -634.641 -83.5176 0.00443179 0.22977 -1.71597
time 106
1 651.29 -643.995 -85.5746 0.00443563 0.23355 -1.73216
time 107
1 650.556 -653.333 -87.665 0.00444222 0.237357 -1.74834
time 108
1 649.674 -662.65 -89.7891 0.00445097 0.241187 -1.76452
time 109
1 648.642 -671.944 -91.9478 0.00446028 0.245026 -1.78069
time 110
1 647.461 -681.213 -94.1413 0.00446781 0.248861 -1.79684
time 111
1 646.132 -690.453 -96.3702 0.00447271 0.252688 -1.81298
time 112
1 644.655 -699.663 -98.6348 0.00447347 0.256495 -1.82909
time 113
1 643.031 -708.84 -100.935 0.0044694 0.260277 -1.84519
time 114
1 641.26 -717.98 -103.272 0.00445892 0.264024 -1.86127
time 115
1 639.345 -727.082 -105.644 0.00443982 0.267718 -1.8773
time 116
1 637.285 -736.144 -108.054 0.00440877 0.27134 -1.89323
time 117
1 635.083 -745.162 -110.5 0.00436436 0.274877 -1.90902
time 118
1 632.738 -754.135 -112.982 0.00430548 0.278314 -1.92461
time 119
1 630.25 -763.059 -115.501 0.0042312 0.281638 -1.93992
time 120
1 627.622 -771.933 -118.056 0.00414077 0.284831 -1.95493
time 121
1 624.854 -780.754 -120.646 0.00403463 0.287883 -1.96962
time 122
1 621.948 -789.52 -123.272 0.0039127 0.290771 -1.98393
time 123
1 618.904 -798.229 -125.933 0.00377454 0.293472 -1.99786
time 124
1 615.724 -806.882 -128.627 0.00362058 0.295964 -2.01133
time 125
1 612.411 -815.474 -131.354 0.00345192 0.298227 -2.02432
time 126
1 608.966 -824.005 -134.113 0.00327066 0.300254 -2.0368
time 127
1 605.394 -832.477 -136.902 0.00307915 0.302037 -2.04878
time 128
1 601.699 -840.889 -139.721 0.00287898 0.303552 -2.06027
time 129
1 597.885 -849.242 -142.566 0.00267185 0.304781 -2.07127
time 130
1 593.955 -857.537 -145.438 0.00245916 0.305697 -2.0818
time 131
1 589.916 -865.776 -148.334 0.00224343 0.306286 -2.09184
time 132
1 585.772 -873.961 -151.251 0.00202702 0.30653 -2.10137
time 133
1 581.526 -882.091 -154.188 0.00181293 0.306424 -2.11037
time 134
1 577.183 -890.17 -157.142 0.00160418 0.305967 -2.1188
time 135
1 572.747 -898.2 -160.11 0.001404 0.305156 -2.12664
time 136
1 568.224 -906.184 -163.09 0.00121546 0.303986 -2.13387
time 137
1 563.615 -914.121 -166.078 0.00104081 0.302438 -2.14049
time 138
1 558.927 -922.018 -169.072 0.000882214 0.300487 -2.14647
time 139
1 554.163 -929.872 -172.069 0.000743261 0.298129 -2.15176
time 140
1 549.325 -937.689 -175.064 0.000627746 0.295348 -2.15631
time 141
1 544.419 -945.472 -178.056 0.000540156 0.292147 -2.16008
time 142
1 539.449 -953.221 -181.039 0.000483582 0.288514 -2.16303
time 143
1 534.417 -960.943 -184.01 0.000461404 0.284446 -2.16516
time 144
1 529.33 -968.641 -186.965 0.000475971 0.279935 -2.16645
time 145
1 524.192 -976.315 -189.902 0.000530686 0.274979 -2.16685
time 146
1 519.008 -983.973 -192.816 0.000628727 0.269568 -2.16634
time 147
1 513.783 -991.619 -195.704 0.000772351 0.263702 -2.1649
time 148
1 508.524 -999.257 -198.561 0.00096506 0.257383 -2.16248
time 149
1 503.235 -1006.89 -201.384 0.00121136 0.250625 -2.15899
time 150
1 497.923 -1014.53 -204.167 0.0015112 0.243455 -2.15443
time 151
1 492.594 -1022.17 -206.907 0.00186913 0.235895 -2.14873
time 152
1 487.255 -1029.82 -209.598 0.00229078 0.227959 -2.14184
time 153
1 481.913 -1037.49 -212.237 0.00278209 0.219668 -2.13366
time 154
1 476.574 -1045.18 -214.818 0.00334138 0.211052 -2.12414
time 155
1 471.247 -1052.9 -217.337 0.00396731 0.202132 -2.11322
time 156
1 465.941 -1060.65 -219.79 0.00465779 0.19292 -2.10088
time 157
1 460.662 -1068.44 -222.172 0.00541159 0.183435 -2.08706
time 158
1 455.421 -1076.27 -224.48 0.00621969 0.173707 -2.07178
time 159
1 450.228 -1084.15 -226.709 0.00707007 0.163769 -2.05505
time 160
1 445.094 -1092.09 -228.856 0.00795189 0.153651 -2.03695
time 161
1 440.03 -1100.08 -230.917 0.00885016 0.143364 -2.01753
time 162
1 435.051 -1108.13 -232.89 0.00974672 0.132939 -1.9969
time 163
1 430.17 -1116.25 -234.771 0.0106203 0.122415 -1.97523
time 164
1 425.403 -1124.44 -236.558 0.0114474 0.111836 -1.95275
time 165
1 420.767 -1132.71 -238.25 0.012215 0.101229 -1.92958
time 166
1 416.275 -1141.05 -239.842 0.0129153 0.0906159 -1.90585
time 167
1 411.945 -1149.47 -241.334 0.0135372 0.0800434 -1.88173
time 168
1 407.792 -1157.97 -242.724 0.0140694 0.0695598 -1.85738
time 169
1 403.828 -1166.55 -244.011 0.014511 0.0591892 -1.83294
time 170
1 400.066 -1175.21 -245.192 0.0148626 0.0489562 -1.8085
time 171
1 396.519 -1183.95 -246.268 0.0151214 0.0388994 -1.78417
time 172
1 393.192 -1192.76 -247.239 0.0152958 0.0290381 -1.76002
time 173
1 390.096 -1201.64 -248.104 0.0153908 0.0193934 -1.73607
time 174
1 387.23 -1210.59 -248.865 0.0154117 0.00998164 -1.71235
time 175
1 384.598 -1219.61 -249.523 0.0153664 0.000802483 -1.68881
time 176
1 382.201 -1228.68 -250.078 0.0152609 -0.0081313 -1.66549
time 177
1 380.039 -1237.8 -250.533 0.0150978 -0.0167885 -1.64244
time 178
1 378.11 -1246.97 -250.89 0.014882 -0.0251611 -1.61967
time 179
1 376.412 -1256.19 -251.15 0.0146196 -0.0332471 -1.59716
time 180
1 374.944 -1265.44 -251.315 0.0143153 -0.0410348 -1.57493
time 181
1 373.703 -1274.73 -251.389 0.0139742 -0.0485176 -1.553
time 182
1 372.686 -1284.04 -251.374 0.0136042 -0.055707 -1.53134
time 183
1 371.891 -1293.38 -251.272 0.0132101 -0.0625948 -1.50995
time 184
1 371.315 -1302.74 -251.087 0.0127957 -0.0691799 -1.48883
time 185
1 370.957 -1312.11 -250.82 0.0123662 -0.0754689 -1.46798
time 186
1 370.814 -1321.48 -250.474 0.0119265 -0.0814618 -1.44739
time 187
1 370.883 -1330.86 -250.054 0.0114798 -0.0871574 -1.42705
time 188
1 371.16 -1340.24 -249.561 0.0110299 -0.0925742 -1.40696
time 189
1 371.643 -1349.61 -248.999 0.0105808 -0.0977263 -1.38708
time 190
1 372.326 -1358.98 -248.372 0.0101355 -0.102624 -1.3674
time 191
1 373.207 -1368.33 -247.681 0.00969772 -0.107283 -1.34786
time 192
1 374.281 -1377.67 -246.931 0.00926983 -0.111714 -1.32844
time 193
1 375.547 -1386.99 -246.124 0.0088522 -0.115917 -1.30914
time 194
1 377 -1396.28 -245.264 0.00844573 -0.119903 -1.28995
time 195
1 378.64 -1405.54 -244.351 0.00805053 -0.12368 -1.27088
time 196
1 380.462 -1414.78 -243.391 0.00766607 -0.127255 -1.25195
time 197
1 382.466 -1423.98 -242.384 0.00729231 -0.130636 -1.23318
time 198
1 384.646 -1433.14 -241.333 0.00692869 -0.133831 -1.21457
time 199
1 387.002 -1442.26 -240.242 0.00657427 -0.136838 -1.1961
time 200
1 389.532 -1451.34 -239.111 0.00622804 -0.139651 -1.17776
time 201
1 392.233 -1460.37 -237.943 0.00588843 -0.142268 -1.15959
time 202
1 395.104 -1469.34 -236.74 0.00555138 -0.144662 -1.14162
time 203
1 398.144 -1478.27 -235.503 0.00521338 -0.146809 -1.12389
time 204
1 401.349 -1487.13 -234.235 0.00487128 -0.148689 -1.10641
time 205
1 404.72 -1495.94 -232.937 0.00452326 -0.150283 -1.08923
time 206
1 408.252 -1504.68 -231.611 0.00416814 -0.151569 -1.07235
time 207
1 411.944 -1513.36 -230.258 0.00380493 -0.152523 -1.05575
time 208
1 415.792 -1521.97 -228.881 0.00343342 -0.153118 -1.03942
time 209
1 419.793 -1530.51 -227.481 0.00305526 -0.153341 -1.02335
time 210
1 423.944 -1538.99 -226.06 0.00267132 -0.153178 -1.00753
time 211
1 428.245 -1547.39 -224.621 0.00228177 -0.152608 -0.991979
time 212
1 432.689 -1555.71 -223.166 0.00188769 -0.151616 -0.976666
time 213
1 437.274 -1563.97 -221.697 0.00149039 -0.150208 -0.961565
time 214
1 441.998 -1572.15 -220.219 0.00109164 -0.148391 -0.946672
time 215
1 446.855 -1580.26 -218.736 0.00069336 -0.146177 -0.93197
time 216
1 451.844 -1588.29 -217.25 0.000294837 -0.143558 -0.917406
time 217
1 456.959 -1596.25 -215.767 -0.000103971 -0.140535 -0.902934
time 218
1 462.199 -1604.13 -214.29 -0.000501886 -0.137115 -0.888548
time 219
1 467.56 -1611.95 -212.823 -0.000898572 -0.133305 -0.87424
time 220
1 473.04 -1619.68 -211.371 -0.00129401 -0.129097 -0.860005
time 221
1 478.637 -1627.34 -209.938 -0.00168656 -0.124494 -0.845855
time 222
1 484.349 -1634.93 -208.528 -0.00207641 -0.119497 -0.831775
time 223
1 490.173 -1642.44 -207.144 -0.00246474 -0.114102 -0.817763
time 224
1 496.11 -1649.87 -205.791 -0.00284984 -0.108307 -0.80384
time 225
1 502.154 -1657.22 -204.473 -0.00322802 -0.102115 -0.790013
time 226
1 508.306 -1664.49 -203.193 -0.00359589 -0.0955282 -0.776297
time 227
1 514.564 -1671.68 -201.956 -0.0039503 -0.0885574 -0.762736
time 228
1 520.927 -1678.79 -200.764 -0.00428779 -0.0812162 -0.74938
time 229
1 527.393 -1685.81 -199.623 -0.00460522 -0.0735092 -0.736262
time 230
1 533.96 -1692.75 -198.535 -0.00489986 -0.0654408 -0.723424
time 231
1 540.628 -1699.6 -197.505 -0.00517183 -0.0570037 -0.710897
time 232
1 547.394 -1706.36 -196.537 -0.00542024 -0.0481849 -0.698704
time 233
1 554.257 -1713.03 -195.635 -0.00564196 -0.0389852 -0.686902
time 234
1 561.213 -1719.62 -194.802 -0.00583233 -0.0294148 -0.675559
time 235
1 568.263 -1726.11 -194.043 -0.00598633 -0.0194803 -0.664724
time 236
1 575.401 -1732.51 -193.362 -0.00610028 -0.00918459 -0.654441
time 237
1 582.625 -1738.83 -192.761 -0.00617131 0.00145438 -0.644751
time 238
1 589.933 -1745.05 -192.244 -0.00619494 0.0124159 -0.635698
time 239
1 597.318 -1751.19 -191.814 -0.00616644 0.0236915 -0.627344
time 240
1 604.78 -1757.24 -191.475 -0.00608342 0.0352573 -0.619739
time 241
1 612.313 -1763.21 -191.23 -0.00594188 0.0470876 -0.61295
time 242
1 619.911 -1769.1 -191.082 -0.0057369 0.0591185 -0.607061
time 243
1 627.573 -1774.92 -191.036 -0.00546547 0.0712793 -0.602159
time 244
1 635.291 -1780.65 -191.096 -0.00512742 0.0835017 -0.598302
time 245
1 643.061 -1786.32 -191.265 -0.00472284 0.0957102 -0.595549
time 246
1 650.876 -1791.91 -191.547 -0.00425392 0.107841 -0.593965
time 247
1 658.732 -1797.45 -191.944 -0.00372811 0.119837 -0.593593
time 248
1 666.622 -1802.93 -192.459 -0.00315218 0.131662 -0.594498
time 249
1 674.54 -1808.36 -193.093 -0.00253565 0.14327 -0.59671
time 250
1 682.479 -1813.75 -193.849 -0.0018895 0.154602 -0.600234
time 251
1 690.43 -1819.09 -194.727 -0.00122312 0.165619 -0.605098
time 252
1 698.39 -1824.42 -195.728 -0.000547882 0.176272 -0.611291
time 253
1 706.349 -1829.72 -196.85 0.000126537 0.186533 -0.618811
time 254
1 714.297 -1835.01 -198.092 0.000790564 0.196384 -0.627644
time 255
1 722.229 -1840.3 -199.452 0.00143412 0.205804 -0.637793
time 256
1 730.135 -1845.6 -200.926 0.00204419 0.214779 -0.649215
time 257
1 738.006 -1850.93 -202.511 0.00260634 0.223286 -0.661839
time 258
1 745.833 -1856.28 -204.204 0.00310959 0.231295 -0.675648
time 259
1 753.608 -1861.67 -206.001 0.00354441 0.238764 -0.690588
time 260
1 761.323 -1867.12 -207.897 0.0039008 0.245658 -0.706634
time 261
1 768.967 -1872.62 -209.888 0.00416489 0.251923 -0.723762
time 262
1 776.535 -1878.19 -211.971 0.00432654 0.257507 -0.741925
time 263
1 784.016 -1883.84 -214.141 0.00437789 0.262369 -0.761079
time 264
1 791.403 -1889.57 -216.392 0.00431239 0.266468 -0.781133
time 265
1 798.687 -1895.39 -218.72 0.00412633 0.269763 -0.801993
time 266
1 805.858 -1901.3 -221.12 0.00381816 0.272222 -0.823553
time 267
1 812.909 -1907.32 -223.585 0.00338987 0.273814 -0.845736
time 268
1 819.831 -1913.45 -226.111 0.00284427 0.274508 -0.868515
time 269
1 826.618 -1919.69 -228.691 0.00218782 0.27429 -0.891813
time 270
1 833.261 -1926.05 -231.318 0.00142708 0.273139 -0.915581
time 271
1 839.752 -1932.53 -233.985 0.000575058 0.271059 -0.939732
time 272
1 846.086 -1939.14 -236.683 -0.000350014 0.268094 -0.964166
time 273
1 852.255 -1945.88 -239.403 -0.00133065 0.264276 -0.988788
time 274
1 858.254 -1952.74 -242.137 -0.00234918 0.259636 -1.0135
time 275
1 864.078 -1959.74 -244.876 -0.00338639 0.254211 -1.03823
time 276
1 869.722 -1966.87 -247.611 -0.00442294 0.248037 -1.06288
time 277
1 875.182 -1974.13 -250.332 -0.00543796 0.241162 -1.08737
time 278
1 880.455 -1981.52 -253.031 -0.00641261 0.233634 -1.1116
time 279
1 885.538 -1989.05 -255.698 -0.00732735 0.225519 -1.13541
time 280
1 890.426 -1996.7 -258.325 -0.00816257 0.216878 -1.15866
time 281
1 895.116 -2004.48 -260.903 -0.00890133 0.207796 -1.18119
time 282
1 899.605 -2012.38 -263.423 -0.00953379 0.198326 -1.20288
time 283
1 903.891 -2020.41 -265.88 -0.010051 0.18851 -1.22361
time 284
1 907.974 -2028.54 -268.266 -0.0104482 0.178402 -1.24329
time 285
1 911.854 -2036.8 -270.574 -0.0107243 0.168056 -1.26184
time 286
1 915.533 -2045.16 -272.8 -0.0108824 0.157515 -1.27919
time 287
1 919.014 -2053.63 -274.938 -0.0109282 0.146821 -1.29531
time 288
1 922.3 -2062.19 -276.984 -0.0108687 0.136 -1.31014
time 289
1 925.399 -2070.85 -278.933 -0.0107109 0.125081 -1.32365
time 290
1 928.317 -2079.59 -280.783 -0.0104606 0.114081 -1.33581
time 291
1 931.064 -2088.42 -282.53 -0.0101269 0.103014 -1.34664
time 292
1 933.65 -2097.33 -284.173 -0.00971754 0.0918648 -1.35614
time 293
1 936.086 -2106.3 -285.711 -0.00924157 0.080653 -1.36435
time 294
1 938.385 -2115.34 -287.141 -0.00870848 0.0693971 -1.37129
time 295
1 940.556 -2124.45 -288.464 -0.00812705 0.0580963 -1.37699
time 296
1 942.613 -2133.61 -289.679 -0.00750574 0.0467601 -1.38148
time 297
1 944.566 -2142.81 -290.785 -0.00685389 0.0354158 -1.38478
time 298
1 946.429 -2152.07 -291.782 -0.00618108 0.0240925 -1.38694
time 299
1 948.212 -2161.36 -292.669 -0.00549652 0.0128334 -1.388
time 300
1 949.93 -2170.7 -293.445 -0.00481101 0.00169301 -1.38803
time 301
1 951.592 -2180.06 -294.111 -0.00413451 -0.00926535 -1.38712
time 302
1 953.213 -2189.45 -294.665 -0.00347465 -0.0199903 -1.38531
time 303
1 954.802 -2198.86 -295.107 -0.00284085 -0.0303976 -1.38266
time 304
1 956.371 -2208.29 -295.437 -0.00224014 -0.0404318 -1.37922
time 305
1 957.932 -2217.74 -295.654 -0.00168001 -0.0500402 -1.37505
time 306
1 959.493 -2227.19 -295.76 -0.00116706 -0.0591527 -1.37021
time 307
1 961.064 -2236.66 -295.754 -0.00070669 -0.0677089 -1.36477
time 308
1 962.656 -2246.12 -295.637 -0.00030179 -0.0756637 -1.35879
time 309
1 964.275 -2255.59 -295.413 4.6408e-005 -0.0829757 -1.3523
time 310
1 965.93 -2265.05 -295.084 0.000337439 -0.0896154 -1.34538
time 311
1 967.626 -2274.5 -294.654 0.000572522 -0.0955679 -1.33805
time 312
1 969.371 -2283.95 -294.128 0.000751769 -0.100824 -1.33037
time 313
1 971.169 -2293.39 -293.511 0.000876885 -0.105373 -1.32243
time 314
1 973.027 -2302.82 -292.808 0.000950684 -0.109221 -1.31429
time 315
1 974.951 -2312.23 -292.027 0.000976148 -0.112358 -1.30601
time 316
1 976.943 -2321.62 -291.174 0.000956609 -0.114768 -1.29765
time 317
1 979.007 -2330.99 -290.257 0.000895372 -0.116439 -1.28924
time 318
1 981.147 -2340.35 -289.281 0.000795435 -0.117345 -1.28083
time 319
1 983.365 -2349.69 -288.256 0.000661469 -0.117471 -1.27249
time 320
1 985.666 -2359 -287.187 0.000497913 -0.116796 -1.26427
time 321
1 988.048 -2368.3 -286.083 0.000308682 -0.115279 -1.25622
time 322
1 990.516 -2377.57 -284.95 9.79671e-005 -0.112887 -1.24837
time 323
1 993.067 -2386.83 -283.795 -0.000128979 -0.109593 -1.24077
time 324
1 995.703 -2396.05 -282.626 -0.000367787 -0.105358 -1.23341
time 325
1 998.422 -2405.26 -281.449 -0.000613374 -0.100168 -1.22631
time 326
1 1001.22 -2414.44 -280.271 -0.000860597 -0.0940256 -1.21948
time 327
1 1004.1 -2423.61 -279.101 -0.00110482 -0.086954 -1.21295
time 328
1 1007.07 -2432.75 -277.947 -0.00134164 -0.0789901 -1.20672
time 329
1 1010.1 -2441.87 -276.818 -0.00156629 -0.070204 -1.2008
time 330
1 1013.22 -2450.98 -275.721 -0.00177606 -0.0606483 -1.19517
time 331
1 1016.4 -2460.06 -274.668 -0.00196804 -0.0504038 -1.18982
time 332
1 1019.65 -2469.13 -273.667 -0.00214048 -0.0395822 -1.18471
time 333
1 1022.97 -2478.17 -272.729 -0.00229248 -0.0282866 -1.17983
time 334
1 1026.35 -2487.2 -271.864 -0.0024252 -0.0166077 -1.17516
time 335
1 1029.79 -2496.22 -271.082 -0.00253889 -0.00465536 -1.17066
time 336
1 1033.28 -2505.21 -270.392 -0.00263472 0.00748487 -1.16634
time 337
1 1036.82 -2514.2 -269.802 -0.00271429 0.0197458 -1.16216
time 338
1 1040.41 -2523.16 -269.32 -0.00277912 0.0320714 -1.1581
time 339
1 1044.05 -2532.11 -268.951 -0.00283069 0.0443995 -1.15414
time 340
1 1047.73 -2541.04 -268.7 -0.00287022 0.0566864 -1.15025
time 341
1 1051.45 -2549.95 -268.572 -0.00289816 0.0688735 -1.14644
time 342
1 1055.21 -2558.85 -268.567 -0.0029156 0.080926 -1.14269
time 343
1 1059 -2567.72 -268.688 -0.00292315 0.0928219 -1.13899
time 344
1 1062.83 -2576.58 -268.933 -0.00292151 0.104537 -1.13535
time 345
1 1066.68 -2585.42 -269.304 -0.00291053 0.116022 -1.13176
time 346
1 1070.57 -2594.23 -269.798 -0.00289008 0.127245 -1.12822
time 347
1 1074.49 -2603.03 -270.416 -0.00285963 0.138168 -1.12474
time 348
1 1078.44 -2611.8 -271.155 -0.00281826 0.148736 -1.12132
time 349
1 1082.41 -2620.55 -272.016 -0.00276526 0.158897 -1.11797
time 350
1 1086.39 -2629.22 -272.977 -0.00270016 0.168617 -1.11471
time 351
1 1090.33 -2637.77 -274.021 -0.00262364 0.177871 -1.11156
time 352
1 1094.22 -2646.14 -275.129 -0.00253718 0.186648 -1.10852
time 353
1 1098.03 -2654.29 -276.28 -0.00244252 0.19494 -1.10559
time 354
1 1101.73 -2662.15 -277.456 -0.00234143 0.202743 -1.10277
time 355
1 1105.28 -2669.67 -278.634 -0.00223529 0.210047 -1.10007
time 356
1 1108.65 -2676.79 -279.792 -0.00212487 0.216865 -1.09752
time 357
1 1111.82 -2683.44 -280.906 -0.00201134 0.223203 -1.0951
time 358
1 1114.75 -2689.59 -281.957 -0.00189624 0.229077 -1.09283
time 359
1 1117.43 -2695.2 -282.93 -0.00178101 0.234512 -1.09071
time 360
1 1119.85 -2700.26 -283.812 -0.00166684 0.239539 -1.08871
time 361
1 1122.01 -2704.8 -284.606 -0.00155503 0.244182 -1.08685
time 362
1 1123.95 -2708.84 -285.315 -0.00144644 0.248467 -1.08511
time 363
1 1125.66 -2712.42 -285.942 -0.00134176 0.252412 -1.08349
time 364
1 1127.16 -2715.57 -286.494 -0.00124144 0.256034 -1.08198
time 365
1 1128.48 -2718.33 -286.977 -0.00114572 0.25935 -1.0806
time 366
1 1129.64 -2720.75 -287.398 -0.00105486 0.262382 -1.07933
time 367
1 1130.65 -2722.87 -287.766 -0.000969172 0.265153 -1.07816
time 368
1 1131.55 -2724.74 -288.093 -0.000888688 0.267684 -1.07708
time 369
1 1132.35 -2726.42 -288.385 -0.000813408 0.269994 -1.07609
time 370
1 1133.06 -2727.9 -288.645 -0.000743227 0.272102 -1.07519
time 371
1 1133.69 -2729.22 -288.875 -0.000678066 0.274022 -1.07436
time 372
1 1134.24 -2730.38 -289.078 -0.000617758 0.27577 -1.0736
time 373
1 1134.73 -2731.41 -289.258 -0.000562041 0.27736 -1.0729
time 374
1 1135.16 -2732.31 -289.416 -0.000510691 0.278803 -1.07227
time 375
1 1135.55 -2733.11 -289.555 -0.000463525 0.280113 -1.07169
time 376
1 1135.88 -2733.81 -289.677 -0.000420269 0.2813 -1.07117
time 377
1 1136.18 -2734.44 -289.786 -0.000380659 0.282377 -1.07069
time 378
1 1136.44 -2734.99 -289.882 -0.000344455 0.283352 -1.07025
time 379
1 1136.68 -2735.48 -289.967 -0.000311455 0.284236 -1.06986
time 380
1 1136.88 -2735.91 -290.043 -0.000281361 0.285036 -1.0695
time 381
1 1137.06 -2736.29 -290.109 -0.000254021 0.285759 -1.06918
time 382
1 1137.22 -2736.62 -290.168 -0.000229161 0.286413 -1.06888
time 383
1 1137.37 -2736.92 -290.22 -0.000206574 0.287004 -1.06862
time 384
1 1137.49 -2737.18 -290.266 -0.000186137 0.287537 -1.06838
time 385
1 1137.6 -2737.42 -290.306 -0.000167621 0.288018 -1.06816
time 386
1 1137.7 -2737.62 -290.342 -0.000150886 0.288452 -1.06796
time 387
1 1137.79 -2737.8 -290.374 -0.000135826 0.288842 -1.06778
time 388
1 1137.86 -2737.96 -290.402 -0.000122239 0.289192 -1.06762
time 389
1 1137.93 -2738.1 -290.426 -0.000109987 0.289506 -1.06748
time 390
1 1137.99 -2738.23 -290.448 -9.90229e-005 0.289788 -1.06735
time 391
1 1138.04 -2738.34 -290.468 -8.91617e-005 0.29004 -1.06723
time 392
1 1138.09 -2738.44 -290.485 -8.03724e-005 0.290266 -1.06713
time 393
1 1138.13 -2738.52 -290.5 -7.25466e-005 0.290466 -1.06704
time 394
1 1138.17 -2738.6 -290.513 -6.55446e-005 0.290645 -1.06696
time 395
1 1138.3 -2738.87 -290.561 -5.87908e-005 0.290818 -1.06688
time 396
1 1138.32 -2738.91 -290.566 -5.53669e-005 0.290906 -1.06684
time 397
1 1138.33 -2738.94 -290.572 -5.23476e-005 0.290983 -1.0668
time 398
1 1138.34 -2738.97 -290.577 -4.97016e-005 0.29105 -1.06677
time 399
1 1138.36 -2738.99 -290.581 -4.7507e-005 0.291106 -1.06675
time 400
1 1138.37 -2739.01 -290.585 -4.56858e-005 0.291152 -1.06672
time 401
1 1138.38 -2739.04 -290.589 -4.43627e-005 0.291187 -1.06671
time 402
1 1138.39 -2739.06 -290.592 -4.34443e-005 0.29121 -1.0667
time 403
1 1138.39 -2739.08 -290.596 -4.30241e-005 0.291222 -1.06669
time 404
1 1138.4 -2739.09 -290.599 -4.31486e-005 0.291219 -1.06669
time 405
1 1138.45 -2739.18 -290.614 0 0.292338 -1.06617
end
 