// Created by Crowbar 0.74
version 1
nodes
  0 "GhostAnim_reference" -1
  1 "Base" 0
  2 "Attachment_1" 0
end
skeleton
  time 0
    0 0.000000 0.000000 0.000000 0.000000 0.000000 0.000000
    1 0.000000 0.000000 0.000000 1.570796 0.000000 0.000000
    2 0.000000 0.000000 0.000000 1.570796 0.000000 0.000000
end
triangles
C130_propeller
  1 -4.000000 4.000000 -4.000000 0.000000 1.000000 0.000000 0.000000 0.000000 1 1 1.000000
  1 4.000000 4.000000 4.000000 0.000000 1.000000 0.000000 1.000000 1.000000 1 1 1.000000
  1 4.000000 4.000000 -4.000000 0.000000 1.000000 0.000000 1.000000 0.000000 1 1 1.000000
C130_propeller
  1 -4.000000 4.000000 -4.000000 0.000000 1.000000 0.000000 0.000000 0.000000 1 1 1.000000
  1 -4.000000 4.000000 4.000000 0.000000 1.000000 0.000000 0.000000 1.000000 1 1 1.000000
  1 4.000000 4.000000 4.000000 0.000000 1.000000 0.000000 1.000000 1.000000 1 1 1.000000
C130_propeller
  1 -4.000000 4.000000 -4.000000 0.000000 0.000000 -1.000000 0.000000 0.000000 1 1 1.000000
  1 4.000000 -4.000000 -4.000000 0.000000 0.000000 -1.000000 1.000000 0.000000 1 1 1.000000
  1 -4.000000 -4.000000 -4.000000 0.000000 0.000000 -1.000000 0.000000 0.000000 1 1 1.000000
C130_propeller
  1 -4.000000 4.000000 -4.000000 0.000000 0.000000 -1.000000 0.000000 0.000000 1 1 1.000000
  1 4.000000 4.000000 -4.000000 0.000000 0.000000 -1.000000 1.000000 0.000000 1 1 1.000000
  1 4.000000 -4.000000 -4.000000 0.000000 0.000000 -1.000000 1.000000 0.000000 1 1 1.000000
C130_propeller
  1 -4.000000 4.000000 -4.000000 -1.000000 0.000000 0.000000 0.000000 0.000000 1 1 1.000000
  1 -4.000000 -4.000000 4.000000 -1.000000 0.000000 0.000000 0.000000 1.000000 1 1 1.000000
  1 -4.000000 4.000000 4.000000 -1.000000 0.000000 0.000000 0.000000 1.000000 1 1 1.000000
C130_propeller
  1 -4.000000 4.000000 -4.000000 -1.000000 0.000000 0.000000 0.000000 0.000000 1 1 1.000000
  1 -4.000000 -4.000000 -4.000000 -1.000000 0.000000 0.000000 0.000000 0.000000 1 1 1.000000
  1 -4.000000 -4.000000 4.000000 -1.000000 0.000000 0.000000 0.000000 1.000000 1 1 1.000000
C130_propeller
  1 4.000000 4.000000 -4.000000 1.000000 0.000000 0.000000 1.000000 0.000000 1 1 1.000000
  1 4.000000 -4.000000 4.000000 1.000000 0.000000 0.000000 1.000000 1.000000 1 1 1.000000
  1 4.000000 -4.000000 -4.000000 1.000000 0.000000 0.000000 1.000000 0.000000 1 1 1.000000
C130_propeller
  1 4.000000 4.000000 -4.000000 1.000000 0.000000 0.000000 1.000000 0.000000 1 1 1.000000
  1 4.000000 4.000000 4.000000 1.000000 0.000000 0.000000 1.000000 1.000000 1 1 1.000000
  1 4.000000 -4.000000 4.000000 1.000000 0.000000 0.000000 1.000000 1.000000 1 1 1.000000
C130_propeller
  1 -4.000000 4.000000 4.000000 0.000000 0.000000 1.000000 0.000000 1.000000 1 1 1.000000
  1 4.000000 -4.000000 4.000000 0.000000 0.000000 1.000000 1.000000 1.000000 1 1 1.000000
  1 4.000000 4.000000 4.000000 0.000000 0.000000 1.000000 1.000000 1.000000 1 1 1.000000
C130_propeller
  1 -4.000000 4.000000 4.000000 0.000000 0.000000 1.000000 0.000000 1.000000 1 1 1.000000
  1 -4.000000 -4.000000 4.000000 0.000000 0.000000 1.000000 0.000000 1.000000 1 1 1.000000
  1 4.000000 -4.000000 4.000000 0.000000 0.000000 1.000000 1.000000 1.000000 1 1 1.000000
C130_propeller
  1 -4.000000 -4.000000 -4.000000 0.000000 -1.000000 0.000000 0.000000 0.000000 1 1 1.000000
  1 4.000000 -4.000000 4.000000 0.000000 -1.000000 0.000000 1.000000 1.000000 1 1 1.000000
  1 -4.000000 -4.000000 4.000000 0.000000 -1.000000 0.000000 0.000000 1.000000 1 1 1.000000
C130_propeller
  1 -4.000000 -4.000000 -4.000000 0.000000 -1.000000 0.000000 0.000000 0.000000 1 1 1.000000
  1 4.000000 -4.000000 -4.000000 0.000000 -1.000000 0.000000 1.000000 0.000000 1 1 1.000000
  1 4.000000 -4.000000 4.000000 0.000000 -1.000000 0.000000 1.000000 1.000000 1 1 1.000000
C130_propeller
  2 -0.040000 0.040000 -0.040000 0.000000 1.000000 0.000000 0.000000 0.000000 1 2 1.000000
  2 0.040000 0.040000 0.040000 0.000000 1.000000 0.000000 1.000000 1.000000 1 2 1.000000
  2 0.040000 0.040000 -0.040000 0.000000 1.000000 0.000000 1.000000 0.000000 1 2 1.000000
C130_propeller
  2 -0.040000 0.040000 -0.040000 0.000000 1.000000 0.000000 0.000000 0.000000 1 2 1.000000
  2 -0.040000 0.040000 0.040000 0.000000 1.000000 0.000000 0.000000 1.000000 1 2 1.000000
  2 0.040000 0.040000 0.040000 0.000000 1.000000 0.000000 1.000000 1.000000 1 2 1.000000
C130_propeller
  2 -0.040000 0.040000 -0.040000 0.000000 0.000000 -1.000000 0.000000 0.000000 1 2 1.000000
  2 0.040000 -0.040000 -0.040000 0.000000 0.000000 -1.000000 1.000000 0.000000 1 2 1.000000
  2 -0.040000 -0.040000 -0.040000 0.000000 0.000000 -1.000000 0.000000 0.000000 1 2 1.000000
C130_propeller
  2 -0.040000 0.040000 -0.040000 0.000000 0.000000 -1.000000 0.000000 0.000000 1 2 1.000000
  2 0.040000 0.040000 -0.040000 0.000000 0.000000 -1.000000 1.000000 0.000000 1 2 1.000000
  2 0.040000 -0.040000 -0.040000 0.000000 0.000000 -1.000000 1.000000 0.000000 1 2 1.000000
C130_propeller
  2 -0.040000 0.040000 -0.040000 -1.000000 0.000000 0.000000 0.000000 0.000000 1 2 1.000000
  2 -0.040000 -0.040000 0.040000 -1.000000 0.000000 0.000000 0.000000 1.000000 1 2 1.000000
  2 -0.040000 0.040000 0.040000 -1.000000 0.000000 0.000000 0.000000 1.000000 1 2 1.000000
C130_propeller
  2 -0.040000 0.040000 -0.040000 -1.000000 0.000000 0.000000 0.000000 0.000000 1 2 1.000000
  2 -0.040000 -0.040000 -0.040000 -1.000000 0.000000 0.000000 0.000000 0.000000 1 2 1.000000
  2 -0.040000 -0.040000 0.040000 -1.000000 0.000000 0.000000 0.000000 1.000000 1 2 1.000000
C130_propeller
  2 0.040000 0.040000 -0.040000 1.000000 0.000000 0.000000 1.000000 0.000000 1 2 1.000000
  2 0.040000 -0.040000 0.040000 1.000000 0.000000 0.000000 1.000000 1.000000 1 2 1.000000
  2 0.040000 -0.040000 -0.040000 1.000000 0.000000 0.000000 1.000000 0.000000 1 2 1.000000
C130_propeller
  2 0.040000 0.040000 -0.040000 1.000000 0.000000 0.000000 1.000000 0.000000 1 2 1.000000
  2 0.040000 0.040000 0.040000 1.000000 0.000000 0.000000 1.000000 1.000000 1 2 1.000000
  2 0.040000 -0.040000 0.040000 1.000000 0.000000 0.000000 1.000000 1.000000 1 2 1.000000
C130_propeller
  2 -0.040000 0.040000 0.040000 0.000000 0.000000 1.000000 0.000000 1.000000 1 2 1.000000
  2 0.040000 -0.040000 0.040000 0.000000 0.000000 1.000000 1.000000 1.000000 1 2 1.000000
  2 0.040000 0.040000 0.040000 0.000000 0.000000 1.000000 1.000000 1.000000 1 2 1.000000
C130_propeller
  2 -0.040000 0.040000 0.040000 0.000000 0.000000 1.000000 0.000000 1.000000 1 2 1.000000
  2 -0.040000 -0.040000 0.040000 0.000000 0.000000 1.000000 0.000000 1.000000 1 2 1.000000
  2 0.040000 -0.040000 0.040000 0.000000 0.000000 1.000000 1.000000 1.000000 1 2 1.000000
C130_propeller
  2 -0.040000 -0.040000 -0.040000 0.000000 -1.000000 0.000000 0.000000 0.000000 1 2 1.000000
  2 0.040000 -0.040000 0.040000 0.000000 -1.000000 0.000000 1.000000 1.000000 1 2 1.000000
  2 -0.040000 -0.040000 0.040000 0.000000 -1.000000 0.000000 0.000000 1.000000 1 2 1.000000
C130_propeller
  2 -0.040000 -0.040000 -0.040000 0.000000 -1.000000 0.000000 0.000000 0.000000 1 2 1.000000
  2 0.040000 -0.040000 -0.040000 0.000000 -1.000000 0.000000 1.000000 0.000000 1 2 1.000000
  2 0.040000 -0.040000 0.040000 0.000000 -1.000000 0.000000 1.000000 1.000000 1 2 1.000000
end
