// Created by Crowbar 0.74
version 1
nodes
  0 "static_prop" -1
end
skeleton
  time 0
    0 0.000000 0.000000 0.000000 0.000000 0.000000 0.000000
end
triangles
  phy
    0 13.206632 -13.206632 -0.000001 0.750547 -0.336989 0.568434 0 0
    0 18.676998 0.000000 0.000000 0.086618 -0.773908 0.627346 0 0
    0 0.000000 -18.676998 -0.000001 0.213526 -0.976492 -0.029482 0 0
  phy
    0 13.206634 -13.206632 -10.093311 0.533034 0.571887 0.623554 0 0
    0 18.676998 0.000000 0.000000 0.086618 -0.773908 0.627346 0 0
    0 13.206632 -13.206632 -0.000001 0.750547 -0.336989 0.568434 0 0
  phy
    0 0.000000 -18.676998 -0.000001 0.213526 -0.976492 -0.029482 0 0
    0 0.000000 -18.676999 -10.093310 0.817832 0.571887 0.064008 0 0
    0 13.206632 -13.206632 -0.000001 0.750547 -0.336989 0.568434 0 0
  phy
    0 13.206632 -13.206632 -0.000001 0.750547 -0.336989 0.568434 0 0
    0 0.000000 -18.676999 -10.093310 0.817832 0.571887 0.064008 0 0
    0 13.206634 -13.206632 -10.093311 0.533034 0.571887 0.623554 0 0
  phy
    0 -13.206632 13.206632 0.000001 -0.262191 -0.928715 -0.262192 0 0
    0 -18.676998 0.000000 0.000000 0.000000 -0.879753 -0.475431 0 0
    0 0.000000 -18.676998 -0.000001 0.213526 -0.976492 -0.029482 0 0
  phy
    0 0.000000 -18.676998 -0.000001 0.213526 -0.976492 -0.029482 0 0
    0 13.206632 13.206632 0.000001 -0.262191 -0.928715 0.262192 0 0
    0 -13.206632 13.206632 0.000001 -0.262191 -0.928715 -0.262192 0 0
  phy
    0 13.206632 13.206632 0.000001 -0.262191 -0.928715 0.262192 0 0
    0 0.000000 18.676998 0.000001 -0.879177 -0.476496 0.000000 0 0
    0 -13.206632 13.206632 0.000001 -0.262191 -0.928715 -0.262192 0 0
  phy
    0 -13.206632 13.206632 -10.093313 -0.535541 0.652987 -0.535541 0 0
    0 -13.206632 13.206632 0.000001 -0.262191 -0.928715 -0.262192 0 0
    0 0.000000 18.676999 -10.093309 -0.861969 0.506961 0.000000 0 0
  phy
    0 -13.206632 13.206632 0.000001 -0.262191 -0.928715 -0.262192 0 0
    0 0.000000 18.676998 0.000001 -0.879177 -0.476496 0.000000 0 0
    0 0.000000 18.676999 -10.093309 -0.861969 0.506961 0.000000 0 0
  phy
    0 -18.676998 0.000000 0.000000 0.000000 -0.879753 -0.475431 0 0
    0 -13.206632 13.206632 0.000001 -0.262191 -0.928715 -0.262192 0 0
    0 -18.676999 0.000000 -10.093309 0.000000 0.506961 -0.861969 0 0
  phy
    0 -13.206632 13.206632 0.000001 -0.262191 -0.928715 -0.262192 0 0
    0 -13.206632 13.206632 -10.093313 -0.535541 0.652987 -0.535541 0 0
    0 -18.676999 0.000000 -10.093309 0.000000 0.506961 -0.861969 0 0
  phy
    0 -18.676998 0.000000 0.000000 0.000000 -0.879753 -0.475431 0 0
    0 -13.206632 -13.206632 -0.000001 0.568434 -0.336989 -0.750547 0 0
    0 0.000000 -18.676998 -0.000001 0.213526 -0.976492 -0.029482 0 0
  phy
    0 0.000000 -18.676998 -0.000001 0.213526 -0.976492 -0.029482 0 0
    0 18.676998 0.000000 0.000000 0.086618 -0.773908 0.627346 0 0
    0 13.206632 13.206632 0.000001 -0.262191 -0.928715 0.262192 0 0
  phy
    0 -13.206632 -13.206632 -0.000001 0.568434 -0.336989 -0.750547 0 0
    0 -13.206632 -13.206634 -10.093311 0.623554 0.571887 -0.533034 0 0
    0 0.000000 -18.676998 -0.000001 0.213526 -0.976492 -0.029482 0 0
  phy
    0 -13.206632 -13.206634 -10.093311 0.623554 0.571887 -0.533034 0 0
    0 0.000000 -18.676999 -10.093310 0.817832 0.571887 0.064008 0 0
    0 0.000000 -18.676998 -0.000001 0.213526 -0.976492 -0.029482 0 0
  phy
    0 -13.206632 -13.206632 -0.000001 0.568434 -0.336989 -0.750547 0 0
    0 -18.676998 0.000000 0.000000 0.000000 -0.879753 -0.475431 0 0
    0 -18.676999 0.000000 -10.093309 0.000000 0.506961 -0.861969 0 0
  phy
    0 -13.206632 -13.206634 -10.093311 0.623554 0.571887 -0.533034 0 0
    0 -13.206632 -13.206632 -0.000001 0.568434 -0.336989 -0.750547 0 0
    0 -18.676999 0.000000 -10.093309 0.000000 0.506961 -0.861969 0 0
  phy
    0 18.676999 0.000000 -10.093309 -0.064008 0.571886 0.817832 0 0
    0 13.206632 13.206632 -10.093313 -0.535541 0.652987 0.535541 0 0
    0 13.206632 13.206632 0.000001 -0.262191 -0.928715 0.262192 0 0
  phy
    0 13.206632 13.206632 0.000001 -0.262191 -0.928715 0.262192 0 0
    0 18.676998 0.000000 0.000000 0.086618 -0.773908 0.627346 0 0
    0 18.676999 0.000000 -10.093309 -0.064008 0.571886 0.817832 0 0
  phy
    0 0.000000 18.676998 0.000001 -0.879177 -0.476496 0.000000 0 0
    0 13.206632 13.206632 0.000001 -0.262191 -0.928715 0.262192 0 0
    0 0.000000 18.676999 -10.093309 -0.861969 0.506961 0.000000 0 0
  phy
    0 13.206632 13.206632 0.000001 -0.262191 -0.928715 0.262192 0 0
    0 13.206632 13.206632 -10.093313 -0.535541 0.652987 0.535541 0 0
    0 0.000000 18.676999 -10.093309 -0.861969 0.506961 0.000000 0 0
  phy
    0 -18.676999 0.000000 -10.093309 0.000000 0.506961 -0.861969 0 0
    0 -13.206632 13.206632 -10.093313 -0.535541 0.652987 -0.535541 0 0
    0 0.000009 0.000009 -21.662557 0.000000 1.000000 0.000000 0 0
  phy
    0 0.000009 0.000009 -21.662557 0.000000 1.000000 0.000000 0 0
    0 -13.206632 13.206632 -10.093313 -0.535541 0.652987 -0.535541 0 0
    0 0.000000 18.676999 -10.093309 -0.861969 0.506961 0.000000 0 0
  phy
    0 18.676999 0.000000 -10.093309 -0.064008 0.571886 0.817832 0 0
    0 13.206634 -13.206632 -10.093311 0.533034 0.571887 0.623554 0 0
    0 0.000009 0.000009 -21.662557 0.000000 1.000000 0.000000 0 0
  phy
    0 13.206632 13.206632 -10.093313 -0.535541 0.652987 0.535541 0 0
    0 18.676999 0.000000 -10.093309 -0.064008 0.571886 0.817832 0 0
    0 0.000009 0.000009 -21.662557 0.000000 1.000000 0.000000 0 0
  phy
    0 18.676999 0.000000 -10.093309 -0.064008 0.571886 0.817832 0 0
    0 18.676998 0.000000 0.000000 0.086618 -0.773908 0.627346 0 0
    0 13.206634 -13.206632 -10.093311 0.533034 0.571887 0.623554 0 0
  phy
    0 -13.206632 -13.206634 -10.093311 0.623554 0.571887 -0.533034 0 0
    0 -18.676999 0.000000 -10.093309 0.000000 0.506961 -0.861969 0 0
    0 0.000009 0.000009 -21.662557 0.000000 1.000000 0.000000 0 0
  phy
    0 -13.206632 -13.206634 -10.093311 0.623554 0.571887 -0.533034 0 0
    0 0.000009 0.000009 -21.662557 0.000000 1.000000 0.000000 0 0
    0 0.000000 -18.676999 -10.093310 0.817832 0.571887 0.064008 0 0
  phy
    0 0.000009 0.000009 -21.662557 0.000000 1.000000 0.000000 0 0
    0 13.206634 -13.206632 -10.093311 0.533034 0.571887 0.623554 0 0
    0 0.000000 -18.676999 -10.093310 0.817832 0.571887 0.064008 0 0
  phy
    0 13.206632 13.206632 -10.093313 -0.535541 0.652987 0.535541 0 0
    0 0.000009 0.000009 -21.662557 0.000000 1.000000 0.000000 0 0
    0 0.000000 18.676999 -10.093309 -0.861969 0.506961 0.000000 0 0
end
