// Created by Crowbar 0.74
version 1
nodes
  0 "ValveBiped.Bip01_Pelvis" -1
  1 "ValveBiped.Bip01_Spine" 0
  2 "ValveBiped.Bip01_Spine1" 1
  3 "ValveBiped.Bip01_Spine2" 2
  4 "ValveBiped.Bip01_Spine4" 3
  5 "ValveBiped.Bip01_Neck1" 4
  6 "ValveBiped.Bip01_Head1" 5
  7 "ValveBiped.forward" 6
  8 "ValveBiped.Bip01_L_Clavicle" 4
  9 "ValveBiped.Bip01_L_UpperArm" 8
  10 "ValveBiped.Bip01_L_Forearm" 9
  11 "ValveBiped.Bip01_L_Wrist" 10
  12 "ValveBiped.Bip01_L_Hand" 10
  13 "ValveBiped.Anim_Attachment_LH" 12
  14 "ValveBiped.Bip01_L_Finger3" 12
  15 "ValveBiped.Bip01_L_Finger31" 14
  16 "ValveBiped.Bip01_L_Finger32" 15
  17 "ValveBiped.Bip01_L_Finger2" 12
  18 "ValveBiped.Bip01_L_Finger21" 17
  19 "ValveBiped.Bip01_L_Finger22" 18
  20 "ValveBiped.Bip01_L_Finger1" 12
  21 "ValveBiped.Bip01_L_Finger11" 20
  22 "ValveBiped.Bip01_L_Finger12" 21
  23 "ValveBiped.Bip01_L_Finger4" 12
  24 "ValveBiped.Bip01_L_Finger41" 23
  25 "ValveBiped.Bip01_L_Finger42" 24
  26 "ValveBiped.Bip01_L_Finger0" 12
  27 "ValveBiped.Bip01_L_Finger01" 26
  28 "ValveBiped.Bip01_L_Finger02" 27
  29 "ValveBiped.Bip01_L_Elbow" 9
  30 "ValveBiped.Bip01_R_Clavicle" 4
  31 "ValveBiped.Bip01_R_UpperArm" 30
  32 "ValveBiped.Bip01_R_Forearm" 31
  33 "ValveBiped.Bip01_R_Hand" 32
  34 "ValveBiped.Anim_Attachment_RH" 33
  35 "ValveBiped.Bip01_R_Finger2" 33
  36 "ValveBiped.Bip01_R_Finger21" 35
  37 "ValveBiped.Bip01_R_Finger22" 36
  38 "ValveBiped.Bip01_R_Finger1" 33
  39 "ValveBiped.Bip01_R_Finger11" 38
  40 "ValveBiped.Bip01_R_Finger12" 39
  41 "ValveBiped.Bip01_R_Finger3" 33
  42 "ValveBiped.Bip01_R_Finger31" 41
  43 "ValveBiped.Bip01_R_Finger32" 42
  44 "ValveBiped.Bip01_R_Finger4" 33
  45 "ValveBiped.Bip01_R_Finger41" 44
  46 "ValveBiped.Bip01_R_Finger42" 45
  47 "ValveBiped.Bip01_R_Finger0" 33
  48 "ValveBiped.Bip01_R_Finger01" 47
  49 "ValveBiped.Bip01_R_Finger02" 48
  50 "ValveBiped.Bip01_R_Wrist" 32
  51 "ValveBiped.Bip01_L_Thigh" 0
  52 "ValveBiped.Bip01_L_Calf" 51
  53 "ValveBiped.Bip01_L_Foot" 52
  54 "ValveBiped.Bip01_R_Thigh" 0
  55 "ValveBiped.Bip01_R_Calf" 54
  56 "ValveBiped.Bip01_R_Foot" 55
  57 "p_skirt_n_helper" 0
  58 "p_skirt_nw_helper" 0
  59 "j_hair_r_01" 6
  60 "j_hair_r_02" 59
  61 "j_hair_r_03" 60
  62 "j_hair_l_01" 6
  63 "j_hair_l_02" 62
  64 "j_hair_l_03" 63
  65 "j_hair_f_01" 6
  66 "j_hair_f_02" 65
  67 "j_hair_b_01" 6
  68 "j_hair_b_02" 67
  69 "j_hair_b_03" 68
  70 "j_hair_b_04" 69
  71 "j_hair_bl_01" 67
  72 "j_hair_bl_02" 71
  73 "j_hair_br_01" 67
  74 "j_hair_br_02" 73
  75 "ValveBiped.Bip01_L_Toe0" 53
  76 "ValveBiped.Bip01_L_Ankle" 52
  77 "ValveBiped.Bip01_R_Toe0" 56
  78 "ValveBiped.Bip01_R_Ankle" 55
  79 "ValveBiped.Bip01_L_Shoulder" 9
  80 "ValveBiped.Bip01_L_Trapezius" 8
  81 "ValveBiped.Bip01_R_Shoulder" 31
  82 "ValveBiped.Bip01_R_Trapezius" 30
  83 "p_bowknot_01" 4
  84 "p_bowknot_02" 2
  85 "p_skirt_e_helper" 51
  86 "p_skirt_e_01" 85
  87 "p_skirt_e_02" 86
  88 "p_skirt_se_helper" 51
  89 "p_skirt_se_01" 88
  90 "p_skirt_se_02" 89
  91 "p_skirt_w_helper" 54
  92 "p_skirt_w_01" 91
  93 "p_skirt_w_02" 92
  94 "p_skirt_sw_helper" 54
  95 "p_skirt_sw_01" 94
  96 "p_skirt_sw_02" 95
  97 "p_skirt_n_01" 57
  98 "p_skirt_n_02" 97
  99 "p_skirt_nw_01" 58
  100 "p_skirt_nw_02" 99
  101 "p_skirt_ne_helper" 0
  102 "p_skirt_ne_01" 101
  103 "p_skirt_ne_02" 102
end
skeleton
  time 0
    0 0.005735 -0.710612 35.671192 1.570796 0.000000 0.000000
    1 0.000004 3.939247 -1.580135 1.570796 -0.027977 1.570796
    2 3.588203 0.000000 0.000000 0.000000 0.000000 -0.112614
    3 3.382980 0.000000 0.000000 0.000000 0.000000 -0.012635
    4 7.050217 0.000000 0.000000 0.000000 0.000000 0.155813
    5 2.971947 0.000000 0.000000 3.141590 0.000000 0.227046
    6 3.226833 0.000002 0.000000 0.000000 0.000000 0.110997
    7 0.000000 0.000000 0.000000 -1.570796 0.000000 -1.323624
    8 1.892315 0.848540 0.797221 1.638361 -1.334137 2.900117
    9 4.660078 0.000004 0.000000 -1.433362 0.086984 -0.426647
    10 9.017756 -0.000001 -0.000011 0.000710 0.008713 -0.040946
    11 9.086874 0.000000 0.000004 -0.057543 0.000000 0.000000
    12 9.086874 0.000000 0.000004 1.505417 -0.038605 0.036303
    13 2.211563 -1.415165 0.000000 1.570797 0.000001 1.570797
    14 3.056105 0.221104 -0.602438 0.068895 -0.004815 -0.258023
    15 1.445406 0.000000 0.000000 0.042612 0.057691 0.125585
    16 0.793354 0.000015 0.000000 0.249852 -0.099386 -0.203716
    17 3.114340 0.126087 0.058993 0.142339 -0.026307 -0.171479
    18 1.684240 -0.000019 0.000000 -0.036126 0.039230 0.053682
    19 0.881786 0.000004 0.000000 -0.001245 -0.005672 -0.098994
    20 3.127102 -0.014267 0.656630 0.302889 -0.149222 -0.102536
    21 1.346233 -0.000008 -0.000004 -0.020792 0.084741 -0.150769
    22 0.790057 0.000000 0.000004 0.023006 0.020222 0.074277
    23 3.147793 -0.110989 -1.428880 0.214225 -0.096989 -0.106190
    24 1.007400 -0.000011 -0.000004 -0.409252 0.077799 -0.086157
    25 0.561950 -0.000015 0.000001 0.194183 -0.012833 -0.056701
    26 1.172184 -0.371784 0.695803 -0.074752 -0.766363 -0.527894
    27 1.151196 0.000008 -0.000010 -0.169036 0.043733 0.104429
    28 0.909058 -0.000006 0.000002 -0.319712 0.108349 -0.014843
    29 9.017769 0.000000 -0.000031 0.000000 0.000000 -0.100052
    30 1.892315 0.848547 -0.797174 -1.710116 1.334140 2.900104
    31 4.660077 -0.000015 0.000000 1.498785 -0.056959 -0.431363
    32 9.010712 -0.000001 0.000008 -0.000703 -0.008667 -0.041729
    33 9.079771 -0.000001 0.000019 -1.502003 0.039102 0.029835
    34 2.230804 -1.427517 0.000000 -1.570796 0.000000 -1.570796
    35 3.080542 0.081699 -0.057919 -0.093261 0.021099 -0.119215
    36 1.774378 -0.000031 0.000000 0.084537 0.001870 -0.292341
    37 0.911787 -0.000004 0.000000 -0.007847 -0.008330 0.252469
    38 3.090347 -0.067162 -0.659407 -0.299485 0.127595 -0.118571
    39 1.423207 0.000008 0.000004 0.001265 -0.064989 -0.155381
    40 0.821628 -0.000023 0.000002 0.041271 -0.100697 0.112507
    41 3.025173 0.184662 0.764039 -0.175264 0.052506 -0.179109
    42 1.509716 -0.000015 -0.000001 -0.004429 -0.045750 -0.074522
    43 0.818399 -0.000019 -0.000002 -0.081631 0.016462 -0.018062
    44 2.898108 0.049751 1.316749 -0.144881 -0.001363 -0.248825
    45 1.037357 0.000000 0.000000 -0.275127 0.134561 0.055074
    46 0.580746 -0.000023 0.000010 -0.005654 -0.131234 -0.068398
    47 1.158314 -0.442905 -0.732248 1.804303 0.719467 -0.503171
    48 1.161232 -0.000002 0.000010 0.227050 0.055399 0.089612
    49 0.916969 0.000015 -0.000011 0.020412 0.073845 -0.178575
    50 9.079771 -0.000001 0.000011 0.065171 0.000000 0.000000
    51 3.725333 -0.000004 -0.000003 -1.570796 0.031083 -1.611082
    52 15.193455 0.000000 0.000000 0.000000 -0.017306 0.051654
    53 17.025600 0.052295 0.003148 0.008989 -0.076839 -1.230078
    54 -3.725332 0.000008 0.000006 -1.571277 0.031100 -1.528219
    55 15.193434 0.000000 0.000000 0.000000 0.017924 0.051654
    56 17.025562 0.052282 -0.003058 -0.013289 0.048300 -1.233156
    57 0.000850 0.159142 -5.185494 1.570797 0.025312 -1.570797
    58 -4.416689 0.011898 -4.249946 1.568944 -0.031832 -1.672901
    59 4.439457 -1.917301 3.679860 -3.141593 0.112307 -3.069556
    60 4.703285 -0.000008 -0.000005 -0.000337 0.105292 -0.572828
    61 5.480251 0.000002 0.000002 0.000000 0.000000 0.166867
    62 4.674915 -2.010233 -3.449562 -0.000004 -0.093366 -3.059263
    63 5.115940 0.000010 -0.000001 0.000394 0.126501 0.557926
    64 5.213482 -0.000008 0.000003 0.000000 0.000000 -0.158244
    65 7.148788 -3.165135 0.000008 -0.000002 0.000003 -2.462183
    66 2.826138 -0.000015 0.000001 0.000000 0.000000 -0.707605
    67 2.002647 4.890163 0.000036 -0.000003 -0.000001 3.044791
    68 5.923714 -0.000011 0.000000 0.000000 0.000000 0.173268
    69 5.653236 -0.000002 0.000000 0.000000 0.000000 0.094648
    70 6.246349 -0.000008 0.000000 0.000000 0.000000 -0.064082
    71 8.798267 1.402256 -4.517012 0.000001 0.000001 0.150785
    72 7.837658 -0.000035 0.000000 0.000000 0.000000 0.299021
    73 8.809624 1.405354 4.524812 0.000005 0.000001 0.154610
    74 7.681396 -0.000042 0.000000 -0.000004 0.000001 0.278252
    75 5.913433 -0.000002 0.000000 -0.011146 0.000934 -0.500515
    76 15.867319 0.000000 0.000000 0.000000 0.000000 0.000000
    77 5.913435 -0.000003 0.000000 -0.078651 -0.006185 -0.498943
    78 15.867306 0.000000 0.000000 0.000000 0.000000 0.000000
    79 1.216091 0.000000 0.000000 -0.157232 0.000000 0.000000
    80 3.994339 0.000019 0.000001 0.000000 0.000000 0.000000
    81 1.215141 0.000000 0.000008 0.000000 0.000000 0.000000
    82 3.994339 -0.000008 0.000000 0.000000 0.000000 0.000000
    83 2.452606 4.138953 0.000845 -3.141592 0.000000 1.165714
    84 1.609295 -0.975732 0.000843 -3.141592 0.000000 -2.099368
    85 -0.044476 0.742047 3.222854 -1.570798 -0.134127 -0.031083
    86 6.531517 -0.000002 0.000000 0.000000 0.000000 -0.124828
    87 4.937210 0.000000 0.000001 0.000000 0.000000 -0.035455
    88 -0.459084 -3.221061 1.004059 -3.139300 -0.203673 -0.042415
    89 6.550079 0.000000 0.000000 0.000000 0.000000 0.047583
    90 5.690502 0.000000 0.000002 0.000000 0.000000 0.100852
    91 0.265640 0.733831 -2.956548 -1.570307 0.159702 -0.031023
    92 6.547434 0.000029 0.000000 -0.000001 0.000000 0.131591
    93 4.972834 0.000003 0.000000 0.000000 0.000000 0.035685
    94 -0.643188 -2.929194 -1.114202 -3.136176 0.209339 -0.086327
    95 6.324804 0.000001 0.000000 -0.000007 0.000001 0.001372
    96 6.095600 0.000000 0.000001 0.000000 0.000000 0.100190
    97 6.049822 0.000001 0.000000 0.000000 0.000000 -0.093178
    98 6.476076 -0.000002 0.000000 0.000000 0.000000 -0.035054
    99 5.955616 0.000000 -0.000002 0.000000 0.000000 -0.099912
    100 6.432493 0.000001 0.000000 0.000000 0.000000 -0.008500
    101 3.827445 -0.150501 -4.392723 1.582021 0.010749 -1.423931
    102 5.646536 0.000000 0.000002 0.000000 0.000000 -0.029026
    103 6.151291 0.000013 0.000000 0.000000 0.000000 0.001414
end
triangles
mochite
  33 -21.993378 -3.225355 40.364117 0.027853 -0.000001 -0.999612 0.417032 0.600376 1 33 1.000000
  33 -21.993380 -2.798189 40.364117 0.027853 -0.000001 -0.999612 0.460455 0.600376 1 33 1.000000
  33 -21.473839 -2.798189 40.378593 0.027853 -0.000001 -0.999612 0.460455 0.646103 1 33 1.000000
mochite
  33 -21.473839 -2.798189 40.378593 0.027853 -0.000001 -0.999612 0.460455 0.646103 1 33 1.000000
  33 -21.473839 -3.225357 40.378593 0.027853 -0.000001 -0.999612 0.417032 0.646103 1 33 1.000000
  33 -21.993378 -3.225355 40.364117 0.027853 -0.000001 -0.999612 0.417032 0.600376 1 33 1.000000
mochite
  33 -20.978327 4.762922 41.295418 0.000000 1.000000 -0.000001 0.350330 0.822320 1 33 1.000000
  33 -20.971672 4.762923 41.088314 0.000000 1.000000 -0.000001 0.323594 0.845315 1 33 1.000000
  33 -21.184093 4.762923 41.319828 0.000000 1.000000 -0.000001 0.377067 0.845315 1 33 1.000000
mochite
  33 -21.554243 4.762922 40.980209 0.000000 1.000000 -0.000001 0.377067 0.930808 1 33 1.000000
  33 -21.184093 4.762923 41.319828 0.000000 1.000000 -0.000001 0.377067 0.845315 1 33 1.000000
  33 -20.971672 4.762923 41.088314 0.000000 1.000000 -0.000001 0.323594 0.845315 1 33 1.000000
mochite
  33 -20.971672 4.762923 41.088314 0.000000 1.000000 -0.000001 0.323594 0.845315 1 33 1.000000
  33 -21.341824 4.762922 40.748699 0.000000 1.000000 -0.000001 0.323594 0.930808 1 33 1.000000
  33 -21.554243 4.762922 40.980209 0.000000 1.000000 -0.000001 0.377067 0.930808 1 33 1.000000
mochite
  33 -21.554243 4.762922 40.980209 0.000000 1.000000 -0.000001 0.377067 0.930808 1 33 1.000000
  33 -21.341824 4.762922 40.748699 0.000000 1.000000 -0.000001 0.323594 0.930808 1 33 1.000000
  33 -21.547596 4.762921 40.773109 0.000000 1.000000 -0.000001 0.350330 0.953802 1 33 1.000000
mochite
  33 -21.767288 -3.225354 40.771736 0.000000 -1.000000 0.000001 0.386841 0.553404 1 33 1.000000
  33 -21.934336 -3.225355 40.880497 0.000000 -1.000000 0.000001 0.417032 0.553403 1 33 1.000000
  33 -21.993378 -3.225355 40.364117 0.000000 -1.000000 0.000001 0.417032 0.600376 1 33 1.000000
mochite
  33 -21.993378 -3.225355 40.364117 0.000000 -1.000000 0.000001 0.417032 0.600376 1 33 1.000000
  33 -21.844084 -3.225356 40.501099 0.000000 -1.000000 0.000001 0.394604 0.600376 1 33 1.000000
  33 -21.767288 -3.225354 40.771736 0.000000 -1.000000 0.000001 0.386841 0.553404 1 33 1.000000
mochite
  33 -21.844084 -3.225356 40.501099 0.000000 -1.000000 0.000001 0.394604 0.600376 1 33 1.000000
  33 -21.993378 -3.225355 40.364117 0.000000 -1.000000 0.000001 0.417032 0.600376 1 33 1.000000
  33 -21.473839 -3.225357 40.378593 0.000000 -1.000000 0.000001 0.417032 0.646103 1 33 1.000000
mochite
  33 -21.473839 -3.225357 40.378593 0.000000 -1.000000 0.000001 0.417032 0.646103 1 33 1.000000
  33 -21.567846 -3.225355 40.554363 0.000000 -1.000000 0.000001 0.386841 0.646103 1 33 1.000000
  33 -21.844084 -3.225356 40.501099 0.000000 -1.000000 0.000001 0.394604 0.600376 1 33 1.000000
mochite
  33 -21.567846 -3.225355 40.554363 0.000000 -1.000000 0.000001 0.386841 0.646103 1 33 1.000000
  33 -21.473839 -3.225357 40.378593 0.000000 -1.000000 0.000001 0.417032 0.646103 1 33 1.000000
  33 -20.591600 -3.225355 41.188053 0.000000 -1.000000 0.000001 0.417032 0.761185 1 33 1.000000
mochite
  33 -20.591600 -3.225355 41.188053 0.000000 -1.000000 0.000001 0.417032 0.761185 1 33 1.000000
  33 -20.758644 -3.225354 41.296810 0.000000 -1.000000 0.000001 0.386841 0.761185 1 33 1.000000
  33 -21.567846 -3.225355 40.554363 0.000000 -1.000000 0.000001 0.386841 0.646103 1 33 1.000000
mochite
  33 -20.758644 -3.225354 41.296810 0.000000 -1.000000 0.000001 0.386841 0.761185 1 33 1.000000
  33 -20.591600 -3.225355 41.188053 0.000000 -1.000000 0.000001 0.417032 0.761185 1 33 1.000000
  33 -20.532557 -3.225353 41.704430 0.000000 -1.000000 0.000001 0.417032 0.820184 1 33 1.000000
mochite
  33 -20.532557 -3.225353 41.704430 0.000000 -1.000000 0.000001 0.417032 0.820184 1 33 1.000000
  33 -20.681849 -3.225354 41.567451 0.000000 -1.000000 0.000001 0.394604 0.820184 1 33 1.000000
  33 -20.758644 -3.225354 41.296810 0.000000 -1.000000 0.000001 0.386841 0.761185 1 33 1.000000
mochite
  33 -20.681849 -3.225354 41.567451 0.000000 -1.000000 0.000001 0.394604 0.820184 1 33 1.000000
  33 -20.532557 -3.225353 41.704430 0.000000 -1.000000 0.000001 0.417032 0.820184 1 33 1.000000
  33 -21.052095 -3.225354 41.689957 0.000000 -1.000000 0.000001 0.417031 0.873378 1 33 1.000000
mochite
  33 -21.052095 -3.225354 41.689957 0.000000 -1.000000 0.000001 0.417031 0.873378 1 33 1.000000
  33 -20.958086 -3.225353 41.514187 0.000000 -1.000000 0.000001 0.386841 0.873378 1 33 1.000000
  33 -20.681849 -3.225354 41.567451 0.000000 -1.000000 0.000001 0.394604 0.820184 1 33 1.000000
mochite
  33 -20.958086 -3.225353 41.514187 0.000000 -1.000000 0.000001 0.386841 0.873378 1 33 1.000000
  33 -21.052095 -3.225354 41.689957 0.000000 -1.000000 0.000001 0.417031 0.873378 1 33 1.000000
  33 -21.934336 -3.225355 40.880497 0.000000 -1.000000 0.000001 0.417031 0.988342 1 33 1.000000
mochite
  33 -21.934336 -3.225355 40.880497 0.000000 -1.000000 0.000001 0.417031 0.988342 1 33 1.000000
  33 -21.767288 -3.225354 40.771736 0.000000 -1.000000 0.000001 0.386841 0.988343 1 33 1.000000
  33 -20.958086 -3.225353 41.514187 0.000000 -1.000000 0.000001 0.386841 0.873378 1 33 1.000000
mochite
  33 -21.993380 -2.798189 40.364117 0.000000 1.000000 -0.000001 0.460455 0.600376 1 33 1.000000
  33 -21.934334 -2.798189 40.880497 0.000000 1.000000 -0.000001 0.460455 0.553403 1 33 1.000000
  33 -21.662651 -2.798189 40.960114 0.000000 1.000000 -0.000001 0.484659 0.553403 1 33 1.000000
mochite
  33 -21.662651 -2.798189 40.960114 0.000000 1.000000 -0.000001 0.484659 0.553403 1 33 1.000000
  33 -21.653522 -2.798189 40.675938 0.000000 1.000000 -0.000001 0.489414 0.600376 1 33 1.000000
  33 -21.993380 -2.798189 40.364117 0.000000 1.000000 -0.000001 0.460455 0.600376 1 33 1.000000
mochite
  33 -21.993380 -2.798189 40.364117 0.000000 1.000000 -0.000001 0.460455 0.600376 1 33 1.000000
  33 -21.653522 -2.798189 40.675938 0.000000 1.000000 -0.000001 0.489414 0.600376 1 33 1.000000
  33 -21.371181 -2.798189 40.642433 0.000000 1.000000 -0.000001 0.484659 0.646103 1 33 1.000000
mochite
  33 -21.371181 -2.798189 40.642433 0.000000 1.000000 -0.000001 0.484659 0.646103 1 33 1.000000
  33 -21.473839 -2.798189 40.378593 0.000000 1.000000 -0.000001 0.460455 0.646103 1 33 1.000000
  33 -21.993380 -2.798189 40.364117 0.000000 1.000000 -0.000001 0.460455 0.600376 1 33 1.000000
mochite
  33 -20.591600 -2.798189 41.188049 0.000000 1.000000 -0.000001 0.460455 0.761185 1 33 1.000000
  33 -21.473839 -2.798189 40.378593 0.000000 1.000000 -0.000001 0.460455 0.646103 1 33 1.000000
  33 -21.371181 -2.798189 40.642433 0.000000 1.000000 -0.000001 0.484659 0.646103 1 33 1.000000
mochite
  33 -21.371181 -2.798189 40.642433 0.000000 1.000000 -0.000001 0.484659 0.646103 1 33 1.000000
  33 -20.863279 -2.798190 41.108437 0.000000 1.000000 -0.000001 0.484659 0.761185 1 33 1.000000
  33 -20.591600 -2.798189 41.188049 0.000000 1.000000 -0.000001 0.460455 0.761185 1 33 1.000000
mochite
  33 -20.532557 -2.798189 41.704430 0.000000 1.000000 -0.000001 0.460456 0.820184 1 33 1.000000
  33 -20.591600 -2.798189 41.188049 0.000000 1.000000 -0.000001 0.460455 0.761185 1 33 1.000000
  33 -20.863279 -2.798190 41.108437 0.000000 1.000000 -0.000001 0.484659 0.761185 1 33 1.000000
mochite
  33 -20.863279 -2.798190 41.108437 0.000000 1.000000 -0.000001 0.484659 0.761185 1 33 1.000000
  33 -20.872408 -2.798190 41.392616 0.000000 1.000000 -0.000001 0.489414 0.820183 1 33 1.000000
  33 -20.532557 -2.798189 41.704430 0.000000 1.000000 -0.000001 0.460456 0.820184 1 33 1.000000
mochite
  33 -20.532557 -2.798189 41.704430 0.000000 1.000000 -0.000001 0.460456 0.820184 1 33 1.000000
  33 -20.872408 -2.798190 41.392616 0.000000 1.000000 -0.000001 0.489414 0.820183 1 33 1.000000
  33 -21.154747 -2.798187 41.426117 0.000000 1.000000 -0.000001 0.484659 0.873378 1 33 1.000000
mochite
  33 -21.154747 -2.798187 41.426117 0.000000 1.000000 -0.000001 0.484659 0.873378 1 33 1.000000
  33 -21.052095 -2.798189 41.689957 0.000000 1.000000 -0.000001 0.460455 0.873378 1 33 1.000000
  33 -20.532557 -2.798189 41.704430 0.000000 1.000000 -0.000001 0.460456 0.820184 1 33 1.000000
mochite
  33 -21.052095 -2.798189 41.689957 0.000000 1.000000 -0.000001 0.460455 0.873378 1 33 1.000000
  33 -21.154747 -2.798187 41.426117 0.000000 1.000000 -0.000001 0.484659 0.873378 1 33 1.000000
  33 -21.662651 -2.798189 40.960114 0.000000 1.000000 -0.000001 0.484659 0.988343 1 33 1.000000
mochite
  33 -21.662651 -2.798189 40.960114 0.000000 1.000000 -0.000001 0.484659 0.988343 1 33 1.000000
  33 -21.934334 -2.798189 40.880497 0.000000 1.000000 -0.000001 0.460455 0.988342 1 33 1.000000
  33 -21.052095 -2.798189 41.689957 0.000000 1.000000 -0.000001 0.460455 0.873378 1 33 1.000000
mochite
  33 -21.473839 -3.225357 40.378593 0.675933 -0.000001 -0.736963 0.417032 0.646103 1 33 1.000000
  33 -21.473839 -2.798189 40.378593 0.675933 -0.000001 -0.736963 0.460455 0.646103 1 33 1.000000
  33 -20.591600 -2.798189 41.188049 0.675933 -0.000001 -0.736963 0.460455 0.761185 1 33 1.000000
mochite
  33 -20.591600 -2.798189 41.188049 0.675933 -0.000001 -0.736963 0.460455 0.761185 1 33 1.000000
  33 -20.591600 -3.225355 41.188053 0.675933 -0.000001 -0.736963 0.417032 0.761185 1 33 1.000000
  33 -21.473839 -3.225357 40.378593 0.675933 -0.000001 -0.736963 0.417032 0.646103 1 33 1.000000
mochite
  33 -20.591600 -3.225355 41.188053 0.993518 0.000000 -0.113675 0.417032 0.761185 1 33 1.000000
  33 -20.591600 -2.798189 41.188049 0.993518 0.000000 -0.113675 0.460455 0.761185 1 33 1.000000
  33 -20.532557 -2.798189 41.704430 0.993518 0.000000 -0.113675 0.460456 0.820184 1 33 1.000000
mochite
  33 -20.532557 -2.798189 41.704430 0.993518 0.000000 -0.113675 0.460456 0.820184 1 33 1.000000
  33 -20.532557 -3.225353 41.704430 0.993518 0.000000 -0.113675 0.417032 0.820184 1 33 1.000000
  33 -20.591600 -3.225355 41.188053 0.993518 0.000000 -0.113675 0.417032 0.761185 1 33 1.000000
mochite
  33 -21.934336 -3.225355 40.880497 -0.993518 0.000000 0.113675 0.417032 0.553403 1 33 1.000000
  33 -21.934334 -2.798189 40.880497 -0.993518 0.000000 0.113675 0.460455 0.553403 1 33 1.000000
  33 -21.993380 -2.798189 40.364117 -0.993518 0.000000 0.113675 0.460455 0.600376 1 33 1.000000
mochite
  33 -21.993380 -2.798189 40.364117 -0.993518 0.000000 0.113675 0.460455 0.600376 1 33 1.000000
  33 -21.993378 -3.225355 40.364117 -0.993518 0.000000 0.113675 0.417032 0.600376 1 33 1.000000
  33 -21.934336 -3.225355 40.880497 -0.993518 0.000000 0.113675 0.417032 0.553403 1 33 1.000000
mochite
  33 -21.052095 -3.225354 41.689957 -0.675933 0.000001 0.736963 0.417031 0.873378 1 33 1.000000
  33 -21.052095 -2.798189 41.689957 -0.675933 0.000001 0.736963 0.460455 0.873378 1 33 1.000000
  33 -21.934334 -2.798189 40.880497 -0.675933 0.000001 0.736963 0.460455 0.988342 1 33 1.000000
mochite
  33 -21.934334 -2.798189 40.880497 -0.675933 0.000001 0.736963 0.460455 0.988342 1 33 1.000000
  33 -21.934336 -3.225355 40.880497 -0.675933 0.000001 0.736963 0.417031 0.988342 1 33 1.000000
  33 -21.052095 -3.225354 41.689957 -0.675933 0.000001 0.736963 0.417031 0.873378 1 33 1.000000
mochite
  33 -20.532557 -3.225353 41.704430 -0.027853 0.000001 0.999612 0.417032 0.820184 1 33 1.000000
  33 -20.532557 -2.798189 41.704430 -0.027853 0.000001 0.999612 0.460456 0.820184 1 33 1.000000
  33 -21.052095 -2.798189 41.689957 -0.027853 0.000001 0.999612 0.460455 0.873378 1 33 1.000000
mochite
  33 -21.052095 -2.798189 41.689957 -0.027853 0.000001 0.999612 0.460455 0.873378 1 33 1.000000
  33 -21.052095 -3.225354 41.689957 -0.027853 0.000001 0.999612 0.417031 0.873378 1 33 1.000000
  33 -20.532557 -3.225353 41.704430 -0.027853 0.000001 0.999612 0.417032 0.820184 1 33 1.000000
mochite
  33 -20.863279 -2.798190 41.108437 0.999486 0.000000 0.032046 0.370506 0.541066 1 33 1.000000
  33 -20.863276 3.998903 41.108429 0.999486 0.000000 0.032046 0.370506 0.012647 1 33 1.000000
  33 -20.872404 3.998903 41.392605 0.999486 0.000000 0.032046 0.392399 0.012646 1 33 1.000000
mochite
  33 -20.872404 3.998903 41.392605 0.999486 0.000000 0.032046 0.392399 0.012646 1 33 1.000000
  33 -20.872408 -2.798190 41.392616 0.999486 0.000000 0.032046 0.392399 0.541066 1 33 1.000000
  33 -20.863279 -2.798190 41.108437 0.999486 0.000000 0.032046 0.370506 0.541066 1 33 1.000000
mochite
  33 -21.371181 -2.798189 40.642433 0.675933 -0.000001 -0.736963 0.317431 0.541071 1 33 1.000000
  33 -21.371174 3.998902 40.642422 0.675933 -0.000001 -0.736963 0.317430 0.012651 1 33 1.000000
  33 -20.863276 3.998903 41.108429 0.675933 -0.000001 -0.736963 0.370506 0.012647 1 33 1.000000
mochite
  33 -20.863276 3.998903 41.108429 0.675933 -0.000001 -0.736963 0.370506 0.012647 1 33 1.000000
  33 -20.863279 -2.798190 41.108437 0.675933 -0.000001 -0.736963 0.370506 0.541066 1 33 1.000000
  33 -21.371181 -2.798189 40.642433 0.675933 -0.000001 -0.736963 0.317431 0.541071 1 33 1.000000
mochite
  33 -21.653522 -2.798189 40.675938 -0.117880 -0.000001 -0.993028 0.295538 0.541073 1 33 1.000000
  33 -21.653519 3.998901 40.675919 -0.117880 -0.000001 -0.993028 0.295537 0.012652 1 33 1.000000
  33 -21.371174 3.998902 40.642422 -0.117880 -0.000001 -0.993028 0.317430 0.012651 1 33 1.000000
mochite
  33 -21.371174 3.998902 40.642422 -0.117880 -0.000001 -0.993028 0.317430 0.012651 1 33 1.000000
  33 -21.371181 -2.798189 40.642433 -0.117880 -0.000001 -0.993028 0.317431 0.541071 1 33 1.000000
  33 -21.653522 -2.798189 40.675938 -0.117880 -0.000001 -0.993028 0.295538 0.541073 1 33 1.000000
mochite
  33 -21.662651 -2.798189 40.960114 -0.999486 0.000000 -0.032046 0.467366 0.541071 1 33 1.000000
  33 -21.662643 3.998901 40.960094 -0.999486 0.000000 -0.032046 0.467370 0.012651 1 33 1.000000
  33 -21.653519 3.998901 40.675919 -0.999486 0.000000 -0.032046 0.489263 0.012652 1 33 1.000000
mochite
  33 -21.653519 3.998901 40.675919 -0.999486 0.000000 -0.032046 0.489263 0.012652 1 33 1.000000
  33 -21.653522 -2.798189 40.675938 -0.999486 0.000000 -0.032046 0.489259 0.541073 1 33 1.000000
  33 -21.662651 -2.798189 40.960114 -0.999486 0.000000 -0.032046 0.467366 0.541071 1 33 1.000000
mochite
  33 -21.154747 -2.798187 41.426117 -0.675933 0.000001 0.736963 0.414291 0.541066 1 33 1.000000
  33 -21.154745 3.998902 41.426105 -0.675933 0.000001 0.736963 0.414293 0.012647 1 33 1.000000
  33 -21.662643 3.998901 40.960094 -0.675933 0.000001 0.736963 0.467370 0.012651 1 33 1.000000
mochite
  33 -21.662643 3.998901 40.960094 -0.675933 0.000001 0.736963 0.467370 0.012651 1 33 1.000000
  33 -21.662651 -2.798189 40.960114 -0.675933 0.000001 0.736963 0.467366 0.541071 1 33 1.000000
  33 -21.154747 -2.798187 41.426117 -0.675933 0.000001 0.736963 0.414291 0.541066 1 33 1.000000
mochite
  33 -20.872408 -2.798190 41.392616 0.117880 0.000001 0.993028 0.392399 0.541066 1 33 1.000000
  33 -20.872404 3.998903 41.392605 0.117880 0.000001 0.993028 0.392399 0.012646 1 33 1.000000
  33 -21.154745 3.998902 41.426105 0.117880 0.000001 0.993028 0.414293 0.012647 1 33 1.000000
mochite
  33 -21.154745 3.998902 41.426105 0.117880 0.000001 0.993028 0.414293 0.012647 1 33 1.000000
  33 -21.154747 -2.798187 41.426117 0.117880 0.000001 0.993028 0.414291 0.541066 1 33 1.000000
  33 -20.872408 -2.798190 41.392616 0.117880 0.000001 0.993028 0.392399 0.541066 1 33 1.000000
mochite
  33 -20.822292 4.036422 41.091190 0.985110 0.168985 0.031662 0.301237 0.741498 1 33 1.000000
  33 -20.941811 4.735577 41.075748 0.985110 0.168985 0.031662 0.372976 0.741498 1 33 1.000000
  33 -20.949707 4.735576 41.321678 0.985110 0.168985 0.031662 0.372976 0.712741 1 33 1.000000
mochite
  33 -20.949707 4.735576 41.321678 0.985110 0.168985 0.031662 0.372976 0.712741 1 33 1.000000
  33 -20.833134 4.036423 41.428631 0.985110 0.168985 0.031662 0.301237 0.712741 1 33 1.000000
  33 -20.822292 4.036422 41.091190 0.985110 0.168985 0.031662 0.301237 0.741498 1 33 1.000000
mochite
  33 -21.357521 4.036422 40.600109 0.672765 0.098806 -0.733229 0.301237 0.814110 1 33 1.000000
  33 -21.331877 4.735576 40.717861 0.672764 0.098806 -0.733230 0.372976 0.814109 1 33 1.000000
  33 -20.941811 4.735577 41.075748 0.672765 0.098806 -0.733229 0.372976 0.741498 1 33 1.000000
mochite
  33 -20.941811 4.735577 41.075748 0.672765 0.098806 -0.733229 0.372976 0.741498 1 33 1.000000
  33 -20.822292 4.036422 41.091190 0.672764 0.098806 -0.733230 0.301237 0.741498 1 33 1.000000
  33 -21.357521 4.036422 40.600109 0.672765 0.098806 -0.733229 0.301237 0.814110 1 33 1.000000
mochite
  33 -21.692787 4.036421 40.639893 -0.116144 0.168950 -0.978758 0.301237 0.588758 1 33 1.000000
  33 -21.576214 4.735577 40.746849 -0.116145 0.168973 -0.978754 0.372976 0.588758 1 33 1.000000
  33 -21.331877 4.735576 40.717861 -0.116145 0.168973 -0.978754 0.372976 0.557256 1 33 1.000000
mochite
  33 -21.331877 4.735576 40.717861 -0.116145 0.168973 -0.978754 0.372976 0.557256 1 33 1.000000
  33 -21.357521 4.036422 40.600109 -0.116144 0.168950 -0.978758 0.301237 0.557256 1 33 1.000000
  33 -21.692787 4.036421 40.639893 -0.116144 0.168950 -0.978758 0.301237 0.588758 1 33 1.000000
mochite
  33 -21.703625 4.036422 40.977333 -0.985110 0.168985 -0.031663 0.301237 0.617958 1 33 1.000000
  33 -21.584110 4.735577 40.992775 -0.985110 0.168985 -0.031663 0.372976 0.617958 1 33 1.000000
  33 -21.576214 4.735577 40.746849 -0.985110 0.168985 -0.031663 0.372976 0.588758 1 33 1.000000
mochite
  33 -21.576214 4.735577 40.746849 -0.985110 0.168985 -0.031663 0.372976 0.588758 1 33 1.000000
  33 -21.692787 4.036421 40.639893 -0.985110 0.168985 -0.031663 0.301237 0.588758 1 33 1.000000
  33 -21.703625 4.036422 40.977333 -0.985110 0.168985 -0.031663 0.301237 0.617958 1 33 1.000000
mochite
  33 -21.168398 4.036423 41.468414 -0.672765 0.098808 0.733229 0.301237 0.683050 1 33 1.000000
  33 -21.194046 4.735577 41.350666 -0.672764 0.098808 0.733229 0.372976 0.683050 1 33 1.000000
  33 -21.584110 4.735577 40.992775 -0.672765 0.098808 0.733229 0.372976 0.617958 1 33 1.000000
mochite
  33 -21.584110 4.735577 40.992775 -0.672765 0.098808 0.733229 0.372976 0.617958 1 33 1.000000
  33 -21.703625 4.036422 40.977333 -0.672764 0.098808 0.733229 0.301237 0.617958 1 33 1.000000
  33 -21.168398 4.036423 41.468414 -0.672765 0.098808 0.733229 0.301237 0.683050 1 33 1.000000
mochite
  33 -20.833134 4.036423 41.428631 0.116144 0.168952 0.978757 0.301237 0.712741 1 33 1.000000
  33 -20.949707 4.735576 41.321678 0.116145 0.168975 0.978753 0.372976 0.712741 1 33 1.000000
  33 -21.194046 4.735577 41.350666 0.116145 0.168975 0.978753 0.372976 0.683050 1 33 1.000000
mochite
  33 -21.194046 4.735577 41.350666 0.116145 0.168975 0.978753 0.372976 0.683050 1 33 1.000000
  33 -21.168398 4.036423 41.468414 0.116144 0.168952 0.978757 0.301237 0.683050 1 33 1.000000
  33 -20.833134 4.036423 41.428631 0.116144 0.168952 0.978757 0.301237 0.712741 1 33 1.000000
mochite
  33 -20.863276 3.998903 41.108429 0.680141 -0.732759 0.021745 0.295136 0.741498 1 33 1.000000
  33 -20.822292 4.036422 41.091190 0.680141 -0.732759 0.021745 0.301237 0.741498 1 33 1.000000
  33 -20.833134 4.036423 41.428631 0.680141 -0.732759 0.021745 0.301237 0.712741 1 33 1.000000
mochite
  33 -20.833134 4.036423 41.428631 0.680141 -0.732759 0.021745 0.301237 0.712741 1 33 1.000000
  33 -20.872404 3.998903 41.392605 0.680141 -0.732759 0.021745 0.295136 0.712741 1 33 1.000000
  33 -20.863276 3.998903 41.108429 0.680141 -0.732759 0.021745 0.295136 0.741498 1 33 1.000000
mochite
  33 -20.978327 4.762922 41.295418 0.680153 0.732748 0.021744 0.379652 0.712741 1 33 1.000000
  33 -20.949707 4.735576 41.321678 0.680153 0.732748 0.021744 0.372976 0.712741 1 33 1.000000
  33 -20.941811 4.735577 41.075748 0.680153 0.732748 0.021744 0.372976 0.741498 1 33 1.000000
mochite
  33 -20.941811 4.735577 41.075748 0.680153 0.732748 0.021744 0.372976 0.741498 1 33 1.000000
  33 -20.971672 4.762923 41.088314 0.680153 0.732748 0.021744 0.379652 0.741498 1 33 1.000000
  33 -20.978327 4.762922 41.295418 0.680153 0.732748 0.021744 0.379652 0.712741 1 33 1.000000
mochite
  33 -21.371174 3.998902 40.642422 0.460068 -0.732851 -0.501266 0.295136 0.814110 1 33 1.000000
  33 -21.357521 4.036422 40.600109 0.460068 -0.732851 -0.501266 0.301237 0.814110 1 33 1.000000
  33 -20.822292 4.036422 41.091190 0.460068 -0.732851 -0.501266 0.301237 0.741498 1 33 1.000000
mochite
  33 -20.822292 4.036422 41.091190 0.460068 -0.732851 -0.501266 0.301237 0.741498 1 33 1.000000
  33 -20.863276 3.998903 41.108429 0.460060 -0.732862 -0.501257 0.295136 0.741498 1 33 1.000000
  33 -21.371174 3.998902 40.642422 0.460068 -0.732851 -0.501266 0.295136 0.814110 1 33 1.000000
mochite
  33 -20.971672 4.762923 41.088314 0.460060 0.732861 -0.501258 0.379652 0.741498 1 33 1.000000
  33 -20.941811 4.735577 41.075748 0.460060 0.732861 -0.501258 0.372976 0.741498 1 33 1.000000
  33 -21.331877 4.735576 40.717861 0.460076 0.732839 -0.501276 0.372976 0.814109 1 33 1.000000
mochite
  33 -21.331877 4.735576 40.717861 0.460076 0.732839 -0.501276 0.372976 0.814109 1 33 1.000000
  33 -21.341824 4.762922 40.748699 0.460076 0.732839 -0.501276 0.379652 0.814110 1 33 1.000000
  33 -20.971672 4.762923 41.088314 0.460060 0.732861 -0.501258 0.379652 0.741498 1 33 1.000000
mochite
  33 -21.653519 3.998901 40.675919 -0.080110 -0.732899 -0.675604 0.295136 0.588757 1 33 1.000000
  33 -21.692787 4.036421 40.639893 -0.080110 -0.732899 -0.675604 0.301237 0.588758 1 33 1.000000
  33 -21.357521 4.036422 40.600109 -0.080110 -0.732899 -0.675604 0.301237 0.557256 1 33 1.000000
mochite
  33 -21.357521 4.036422 40.600109 -0.080110 -0.732899 -0.675604 0.301237 0.557256 1 33 1.000000
  33 -21.371174 3.998902 40.642422 -0.080110 -0.732899 -0.675604 0.295136 0.557256 1 33 1.000000
  33 -21.653519 3.998901 40.675919 -0.080110 -0.732899 -0.675604 0.295136 0.588757 1 33 1.000000
mochite
  33 -21.341824 4.762922 40.748699 -0.080112 0.732886 -0.675618 0.379652 0.557256 1 33 1.000000
  33 -21.331877 4.735576 40.717861 -0.080112 0.732886 -0.675618 0.372976 0.557256 1 33 1.000000
  33 -21.576214 4.735577 40.746849 -0.080112 0.732886 -0.675618 0.372976 0.588758 1 33 1.000000
mochite
  33 -21.576214 4.735577 40.746849 -0.080112 0.732886 -0.675618 0.372976 0.588758 1 33 1.000000
  33 -21.547596 4.762921 40.773109 -0.080112 0.732886 -0.675618 0.379652 0.588758 1 33 1.000000
  33 -21.341824 4.762922 40.748699 -0.080112 0.732886 -0.675618 0.379652 0.557256 1 33 1.000000
mochite
  33 -21.662643 3.998901 40.960094 -0.680141 -0.732759 -0.021743 0.295136 0.617958 1 33 1.000000
  33 -21.703625 4.036422 40.977333 -0.680141 -0.732759 -0.021743 0.301237 0.617958 1 33 1.000000
  33 -21.692787 4.036421 40.639893 -0.680141 -0.732759 -0.021743 0.301237 0.588758 1 33 1.000000
mochite
  33 -21.692787 4.036421 40.639893 -0.680141 -0.732759 -0.021743 0.301237 0.588758 1 33 1.000000
  33 -21.653519 3.998901 40.675919 -0.680141 -0.732759 -0.021743 0.295136 0.588757 1 33 1.000000
  33 -21.662643 3.998901 40.960094 -0.680141 -0.732759 -0.021743 0.295136 0.617958 1 33 1.000000
mochite
  33 -21.547596 4.762921 40.773109 -0.680153 0.732748 -0.021746 0.379652 0.588758 1 33 1.000000
  33 -21.576214 4.735577 40.746849 -0.680153 0.732748 -0.021746 0.372976 0.588758 1 33 1.000000
  33 -21.584110 4.735577 40.992775 -0.680153 0.732748 -0.021746 0.372976 0.617958 1 33 1.000000
mochite
  33 -21.584110 4.735577 40.992775 -0.680153 0.732748 -0.021746 0.372976 0.617958 1 33 1.000000
  33 -21.554243 4.762922 40.980209 -0.680153 0.732748 -0.021746 0.379652 0.617958 1 33 1.000000
  33 -21.547596 4.762921 40.773109 -0.680153 0.732748 -0.021746 0.379652 0.588758 1 33 1.000000
mochite
  33 -21.154745 3.998902 41.426105 -0.460068 -0.732850 0.501267 0.295136 0.683050 1 33 1.000000
  33 -21.168398 4.036423 41.468414 -0.460068 -0.732850 0.501267 0.301237 0.683050 1 33 1.000000
  33 -21.703625 4.036422 40.977333 -0.460068 -0.732850 0.501267 0.301237 0.617958 1 33 1.000000
mochite
  33 -21.703625 4.036422 40.977333 -0.460068 -0.732850 0.501267 0.301237 0.617958 1 33 1.000000
  33 -21.662643 3.998901 40.960094 -0.460068 -0.732850 0.501267 0.295136 0.617958 1 33 1.000000
  33 -21.154745 3.998902 41.426105 -0.460068 -0.732850 0.501267 0.295136 0.683050 1 33 1.000000
mochite
  33 -21.554243 4.762922 40.980209 -0.460060 0.732862 0.501257 0.379652 0.617958 1 33 1.000000
  33 -21.584110 4.735577 40.992775 -0.460060 0.732862 0.501257 0.372976 0.617958 1 33 1.000000
  33 -21.194046 4.735577 41.350666 -0.460076 0.732840 0.501275 0.372976 0.683050 1 33 1.000000
mochite
  33 -21.194046 4.735577 41.350666 -0.460076 0.732840 0.501275 0.372976 0.683050 1 33 1.000000
  33 -21.184093 4.762923 41.319828 -0.460076 0.732840 0.501275 0.379652 0.683050 1 33 1.000000
  33 -21.554243 4.762922 40.980209 -0.460060 0.732862 0.501257 0.379652 0.617958 1 33 1.000000
mochite
  33 -20.872404 3.998903 41.392605 0.080110 -0.732898 0.675606 0.295136 0.712741 1 33 1.000000
  33 -20.833134 4.036423 41.428631 0.080110 -0.732898 0.675606 0.301237 0.712741 1 33 1.000000
  33 -21.168398 4.036423 41.468414 0.080110 -0.732898 0.675606 0.301237 0.683050 1 33 1.000000
mochite
  33 -21.168398 4.036423 41.468414 0.080110 -0.732898 0.675606 0.301237 0.683050 1 33 1.000000
  33 -21.154745 3.998902 41.426105 0.080110 -0.732898 0.675606 0.295136 0.683050 1 33 1.000000
  33 -20.872404 3.998903 41.392605 0.080110 -0.732898 0.675606 0.295136 0.712741 1 33 1.000000
mochite
  33 -21.184093 4.762923 41.319828 0.080112 0.732889 0.675615 0.379652 0.683050 1 33 1.000000
  33 -21.194046 4.735577 41.350666 0.080112 0.732889 0.675615 0.372976 0.683050 1 33 1.000000
  33 -20.949707 4.735576 41.321678 0.080112 0.732889 0.675615 0.372976 0.712741 1 33 1.000000
mochite
  33 -20.949707 4.735576 41.321678 0.080112 0.732889 0.675615 0.372976 0.712741 1 33 1.000000
  33 -20.978327 4.762922 41.295418 0.080112 0.732889 0.675615 0.379652 0.712741 1 33 1.000000
  33 -21.184093 4.762923 41.319828 0.080112 0.732889 0.675615 0.379652 0.683050 1 33 1.000000
mochite
  33 -21.163242 -28.940842 40.925613 0.973460 -0.114816 -0.197971 0.213858 0.090774 1 33 1.000000
  33 -20.993032 -27.541744 41.081783 0.955362 -0.084684 -0.283040 0.261262 0.262389 1 33 1.000000
  33 -20.916237 -27.580551 41.352421 0.957927 -0.088125 -0.273147 0.286536 0.262389 1 33 1.000000
mochite
  33 -20.916237 -27.580551 41.352421 0.957927 -0.088125 -0.273147 0.286536 0.262389 1 33 1.000000
  33 -21.262962 -29.950977 41.034302 0.974524 -0.116737 -0.191507 0.213859 0.012926 1 33 1.000000
  33 -21.163242 -28.940842 40.925613 0.973460 -0.114816 -0.197971 0.213858 0.090774 1 33 1.000000
mochite
  33 -21.362682 -28.940842 41.142990 -0.675933 0.000001 0.736963 0.213854 0.090774 1 33 1.000000
  33 -21.192474 -27.541739 41.299152 -0.675933 0.000001 0.736963 0.166450 0.262389 1 33 1.000000
  33 -21.532894 -27.541744 40.986816 -0.675933 0.000001 0.736963 0.261260 0.262389 1 33 1.000000
mochite
  33 -21.532894 -27.541744 40.986816 -0.675933 0.000001 0.736963 0.261260 0.262389 1 33 1.000000
  33 -21.192474 -27.541739 41.299152 -0.675933 0.000001 0.736963 0.166450 0.262389 1 33 1.000000
  33 -21.026512 -11.023829 41.451408 -0.675933 0.000001 0.736963 0.166449 0.291817 1 33 1.000000
mochite
  33 -21.026512 -11.023829 41.451408 -0.675933 0.000001 0.736963 0.166449 0.291817 1 33 1.000000
  33 -21.698860 -11.023830 40.834530 -0.675933 0.000001 0.736963 0.261260 0.291817 1 33 1.000000
  33 -21.532894 -27.541744 40.986816 -0.675933 0.000001 0.736963 0.261260 0.262389 1 33 1.000000
mochite
  33 -21.767288 -4.213137 40.771736 -0.675933 0.000001 0.736963 0.261261 0.902747 1 33 1.000000
  33 -21.698860 -11.023830 40.834530 -0.675933 0.000001 0.736963 0.261260 0.291817 1 33 1.000000
  33 -21.026512 -11.023829 41.451408 -0.675933 0.000001 0.736963 0.166449 0.291817 1 33 1.000000
mochite
  33 -21.026512 -11.023829 41.451408 -0.675933 0.000001 0.736963 0.166449 0.291817 1 33 1.000000
  33 -20.958086 -4.213137 41.514187 -0.675933 0.000001 0.736963 0.166447 0.902747 1 33 1.000000
  33 -21.767288 -4.213137 40.771736 -0.675933 0.000001 0.736963 0.261261 0.902747 1 33 1.000000
mochite
  33 -22.039101 -3.761487 40.522346 -0.675933 0.000001 0.736963 0.293008 0.943278 1 33 1.000000
  33 -21.767288 -4.213137 40.771736 -0.675933 0.000001 0.736963 0.261261 0.902747 1 33 1.000000
  33 -20.958086 -4.213137 41.514187 -0.675933 0.000001 0.736963 0.166447 0.902747 1 33 1.000000
mochite
  33 -20.958086 -4.213137 41.514187 -0.675933 0.000001 0.736963 0.166447 0.902747 1 33 1.000000
  33 -20.686274 -3.761486 41.763580 -0.675933 0.000001 0.736963 0.134703 0.943278 1 33 1.000000
  33 -22.039101 -3.761487 40.522346 -0.675933 0.000001 0.736963 0.293008 0.943278 1 33 1.000000
mochite
  33 -21.767288 -3.225354 40.771736 -0.675933 0.000001 0.736963 0.261261 0.983595 1 33 1.000000
  33 -22.039101 -3.761487 40.522346 -0.675933 0.000001 0.736963 0.293008 0.943278 1 33 1.000000
  33 -20.686274 -3.761486 41.763580 -0.675933 0.000001 0.736963 0.134703 0.943278 1 33 1.000000
mochite
  33 -20.686274 -3.761486 41.763580 -0.675933 0.000001 0.736963 0.134703 0.943278 1 33 1.000000
  33 -20.958086 -3.225353 41.514187 -0.675933 0.000001 0.736963 0.166447 0.983595 1 33 1.000000
  33 -21.767288 -3.225354 40.771736 -0.675933 0.000001 0.736963 0.261261 0.983595 1 33 1.000000
mochite
  33 -20.411385 -3.761486 41.815605 -0.175842 0.340025 0.923830 0.106618 0.943278 1 33 1.000000
  33 -20.681849 -3.225354 41.567451 -0.178134 0.337742 0.924228 0.141299 0.983595 1 33 1.000000
  33 -20.958086 -3.225353 41.514187 -0.177211 0.338827 0.924009 0.166447 0.983595 1 33 1.000000
mochite
  33 -20.958086 -3.225353 41.514187 -0.177211 0.338827 0.924009 0.166447 0.983595 1 33 1.000000
  33 -20.686274 -3.761486 41.763580 -0.174919 0.341087 0.923614 0.134703 0.943278 1 33 1.000000
  33 -20.411385 -3.761486 41.815605 -0.175842 0.340025 0.923830 0.106618 0.943278 1 33 1.000000
mochite
  33 -20.486834 -3.761488 41.546204 0.905556 0.339464 -0.254424 0.293013 0.943278 1 33 1.000000
  33 -20.758644 -3.225354 41.296810 0.904982 0.339273 -0.256713 0.261264 0.983595 1 33 1.000000
  33 -20.681849 -3.225354 41.567451 0.905172 0.339344 -0.255949 0.286412 0.983595 1 33 1.000000
mochite
  33 -20.681849 -3.225354 41.567451 0.905172 0.339344 -0.255949 0.286412 0.983595 1 33 1.000000
  33 -20.411385 -3.761486 41.815605 0.905766 0.339471 -0.253667 0.321097 0.943278 1 33 1.000000
  33 -20.486834 -3.761488 41.546204 0.905556 0.339464 -0.254424 0.293013 0.943278 1 33 1.000000
mochite
  33 -21.567846 -3.225355 40.554363 0.177211 0.338825 -0.924010 0.166450 0.983595 1 33 1.000000
  33 -21.839659 -3.761490 40.304974 0.174919 0.341085 -0.923615 0.134704 0.943278 1 33 1.000000
  33 -22.114550 -3.761488 40.252941 0.175842 0.340023 -0.923831 0.106621 0.943278 1 33 1.000000
mochite
  33 -22.114550 -3.761488 40.252941 0.175842 0.340023 -0.923831 0.106621 0.943278 1 33 1.000000
  33 -21.844084 -3.225356 40.501099 0.178134 0.337740 -0.924229 0.141303 0.983595 1 33 1.000000
  33 -21.567846 -3.225355 40.554363 0.177211 0.338825 -0.924010 0.166450 0.983595 1 33 1.000000
mochite
  33 -22.114550 -3.761488 40.252941 -0.905297 0.340130 0.254457 0.321093 0.943278 1 33 1.000000
  33 -22.039101 -3.761487 40.522346 -0.905193 0.340997 0.253666 0.293008 0.943278 1 33 1.000000
  33 -21.767288 -3.225354 40.771736 -0.905396 0.338737 0.255958 0.261261 0.983595 1 33 1.000000
mochite
  33 -21.767288 -3.225354 40.771736 -0.905396 0.338737 0.255958 0.261261 0.983595 1 33 1.000000
  33 -21.844084 -3.225356 40.501099 -0.905422 0.337793 0.257110 0.286408 0.983595 1 33 1.000000
  33 -22.114550 -3.761488 40.252941 -0.905297 0.340130 0.254457 0.321093 0.943278 1 33 1.000000
mochite
  33 -20.411385 -3.761486 41.815605 -0.171873 -0.394533 0.902664 0.106618 0.943278 1 33 1.000000
  33 -20.686274 -3.761486 41.763580 -0.170693 -0.395476 0.902476 0.134703 0.943278 1 33 1.000000
  33 -20.958086 -4.213137 41.514187 -0.173202 -0.393158 0.903010 0.166447 0.902747 1 33 1.000000
mochite
  33 -20.958086 -4.213137 41.514187 -0.173202 -0.393158 0.903010 0.166447 0.902747 1 33 1.000000
  33 -20.681849 -4.213137 41.567455 -0.174147 -0.391970 0.903345 0.141299 0.902747 1 33 1.000000
  33 -20.411385 -3.761486 41.815605 -0.171873 -0.394533 0.902664 0.106618 0.943278 1 33 1.000000
mochite
  33 -21.844084 -4.213137 40.501099 -0.884561 -0.393623 0.250224 0.286408 0.902747 1 33 1.000000
  33 -21.767288 -4.213137 40.771736 -0.884292 -0.393721 0.251019 0.261261 0.902747 1 33 1.000000
  33 -22.039101 -3.761487 40.522346 -0.884890 -0.393827 0.248737 0.293008 0.943278 1 33 1.000000
mochite
  33 -22.039101 -3.761487 40.522346 -0.884890 -0.393827 0.248737 0.293008 0.943278 1 33 1.000000
  33 -22.114550 -3.761488 40.252941 -0.885132 -0.393789 0.247935 0.321093 0.943278 1 33 1.000000
  33 -21.844084 -4.213137 40.501099 -0.884561 -0.393623 0.250224 0.286408 0.902747 1 33 1.000000
mochite
  33 -21.262962 -29.950977 41.034302 -0.975789 -0.105666 0.191495 0.213853 0.012926 1 33 1.000000
  33 -21.362682 -28.940842 41.142990 -0.988684 -0.108710 0.103368 0.213854 0.090774 1 33 1.000000
  33 -21.532894 -27.541744 40.986816 -0.956134 -0.101850 0.274652 0.261260 0.262389 1 33 1.000000
mochite
  33 -21.532894 -27.541744 40.986816 -0.956134 -0.101850 0.274652 0.261260 0.262389 1 33 1.000000
  33 -21.609694 -27.580551 40.716179 -0.953186 -0.101098 0.284982 0.286535 0.262389 1 33 1.000000
  33 -21.262962 -29.950977 41.034302 -0.975789 -0.105666 0.191495 0.213853 0.012926 1 33 1.000000
mochite
  33 -20.916237 -27.580551 41.352421 -0.189995 -0.088129 0.977822 0.141176 0.262389 1 33 1.000000
  33 -21.192474 -27.541739 41.299152 -0.200069 -0.084680 0.976115 0.166450 0.262389 1 33 1.000000
  33 -21.362682 -28.940842 41.142990 -0.113490 -0.114824 0.986881 0.213854 0.090774 1 33 1.000000
mochite
  33 -21.362682 -28.940842 41.142990 -0.113490 -0.114824 0.986881 0.213854 0.090774 1 33 1.000000
  33 -21.262962 -29.950977 41.034302 -0.107207 -0.116742 0.987359 0.213853 0.012926 1 33 1.000000
  33 -20.916237 -27.580551 41.352421 -0.189995 -0.088129 0.977822 0.141176 0.262389 1 33 1.000000
mochite
  33 -20.758644 -4.213137 41.296810 0.884794 -0.393094 -0.250235 0.261264 0.902747 1 33 1.000000
  33 -20.486834 -3.761488 41.546204 0.884442 -0.395562 -0.247573 0.293013 0.943278 1 33 1.000000
  33 -20.411385 -3.761486 41.815605 0.884624 -0.394439 -0.248714 0.321097 0.943278 1 33 1.000000
mochite
  33 -20.411385 -3.761486 41.815605 0.884624 -0.394439 -0.248714 0.321097 0.943278 1 33 1.000000
  33 -20.681849 -4.213137 41.567455 0.885055 -0.392004 -0.251018 0.286412 0.902747 1 33 1.000000
  33 -20.758644 -4.213137 41.296810 0.884794 -0.393094 -0.250235 0.261264 0.902747 1 33 1.000000
mochite
  33 -21.839659 -3.761490 40.304974 0.171671 -0.393889 -0.902984 0.134704 0.943278 1 33 1.000000
  33 -21.567846 -4.213138 40.554363 0.174148 -0.393714 -0.902586 0.166450 0.902747 1 33 1.000000
  33 -21.844084 -4.213137 40.501099 0.173354 -0.393550 -0.902810 0.141303 0.902747 1 33 1.000000
mochite
  33 -21.844084 -4.213137 40.501099 0.173354 -0.393550 -0.902810 0.141303 0.902747 1 33 1.000000
  33 -22.114550 -3.761488 40.252941 0.170876 -0.393744 -0.903198 0.106621 0.943278 1 33 1.000000
  33 -21.839659 -3.761490 40.304974 0.171671 -0.393889 -0.902984 0.134704 0.943278 1 33 1.000000
mochite
  33 -21.333456 -27.541742 40.769444 0.191501 -0.101855 -0.976193 0.166452 0.262389 1 33 1.000000
  33 -21.163242 -28.940842 40.925613 0.018124 -0.108739 -0.993905 0.213858 0.090774 1 33 1.000000
  33 -21.262962 -29.950977 41.034302 0.106988 -0.105653 -0.988631 0.213859 0.012926 1 33 1.000000
mochite
  33 -21.262962 -29.950977 41.034302 0.106988 -0.105653 -0.988631 0.213859 0.012926 1 33 1.000000
  33 -21.609694 -27.580551 40.716179 0.201966 -0.101079 -0.974162 0.141178 0.262389 1 33 1.000000
  33 -21.333456 -27.541742 40.769444 0.191501 -0.101855 -0.976193 0.166452 0.262389 1 33 1.000000
mochite
  33 -21.775768 -11.023831 40.563782 -0.961945 -0.007153 0.273151 0.286443 0.291817 1 33 1.000000
  33 -21.609694 -27.580551 40.716179 -0.961729 -0.007248 0.273907 0.286535 0.262389 1 33 1.000000
  33 -21.532894 -27.541744 40.986816 -0.961729 -0.007248 0.273907 0.261260 0.262389 1 33 1.000000
mochite
  33 -21.532894 -27.541744 40.986816 -0.961729 -0.007248 0.273907 0.261260 0.262389 1 33 1.000000
  33 -21.698860 -11.023830 40.834530 -0.961945 -0.007153 0.273151 0.261260 0.291817 1 33 1.000000
  33 -21.775768 -11.023831 40.563782 -0.961945 -0.007153 0.273151 0.286443 0.291817 1 33 1.000000
mochite
  33 -21.844084 -4.213137 40.501099 -0.961945 -0.007058 0.273151 0.286408 0.902747 1 33 1.000000
  33 -21.775768 -11.023831 40.563782 -0.961945 -0.007153 0.273151 0.286443 0.291817 1 33 1.000000
  33 -21.698860 -11.023830 40.834530 -0.961945 -0.007153 0.273151 0.261260 0.291817 1 33 1.000000
mochite
  33 -21.698860 -11.023830 40.834530 -0.961945 -0.007153 0.273151 0.261260 0.291817 1 33 1.000000
  33 -21.767288 -4.213137 40.771736 -0.961945 -0.007058 0.273151 0.261261 0.902747 1 33 1.000000
  33 -21.844084 -4.213137 40.501099 -0.961945 -0.007058 0.273151 0.286408 0.902747 1 33 1.000000
mochite
  33 -21.499416 -11.023833 40.617157 0.189579 -0.007153 -0.981839 0.166451 0.291817 1 33 1.000000
  33 -21.333456 -27.541742 40.769444 0.190386 -0.007250 -0.981682 0.166452 0.262389 1 33 1.000000
  33 -21.609694 -27.580551 40.716179 0.190386 -0.007250 -0.981682 0.141178 0.262389 1 33 1.000000
mochite
  33 -21.609694 -27.580551 40.716179 0.190386 -0.007250 -0.981682 0.141178 0.262389 1 33 1.000000
  33 -21.775768 -11.023831 40.563782 0.189579 -0.007153 -0.981839 0.141267 0.291817 1 33 1.000000
  33 -21.499416 -11.023833 40.617157 0.189579 -0.007153 -0.981839 0.166451 0.291817 1 33 1.000000
mochite
  33 -21.567846 -4.213138 40.554363 0.189395 -0.007058 -0.981875 0.166450 0.902747 1 33 1.000000
  33 -21.499416 -11.023833 40.617157 0.189579 -0.007153 -0.981839 0.166451 0.291817 1 33 1.000000
  33 -21.775768 -11.023831 40.563782 0.189579 -0.007153 -0.981839 0.141267 0.291817 1 33 1.000000
mochite
  33 -21.775768 -11.023831 40.563782 0.189579 -0.007153 -0.981839 0.141267 0.291817 1 33 1.000000
  33 -21.844084 -4.213137 40.501099 0.189395 -0.007058 -0.981875 0.141303 0.902747 1 33 1.000000
  33 -21.567846 -4.213138 40.554363 0.189395 -0.007058 -0.981875 0.166450 0.902747 1 33 1.000000
mochite
  33 -20.750164 -11.023829 41.504780 0.961945 -0.007153 -0.273151 0.286448 0.291817 1 33 1.000000
  33 -20.916237 -27.580551 41.352421 0.961729 -0.007248 -0.273907 0.286536 0.262389 1 33 1.000000
  33 -20.993032 -27.541744 41.081783 0.961729 -0.007248 -0.273907 0.261262 0.262389 1 33 1.000000
mochite
  33 -20.993032 -27.541744 41.081783 0.961729 -0.007248 -0.273907 0.261262 0.262389 1 33 1.000000
  33 -20.827072 -11.023829 41.234035 0.961945 -0.007153 -0.273151 0.261264 0.291817 1 33 1.000000
  33 -20.750164 -11.023829 41.504780 0.961945 -0.007153 -0.273151 0.286448 0.291817 1 33 1.000000
mochite
  33 -20.681849 -4.213137 41.567455 0.961945 -0.007058 -0.273151 0.286412 0.902747 1 33 1.000000
  33 -20.750164 -11.023829 41.504780 0.961945 -0.007153 -0.273151 0.286448 0.291817 1 33 1.000000
  33 -20.827072 -11.023829 41.234035 0.961945 -0.007153 -0.273151 0.261264 0.291817 1 33 1.000000
mochite
  33 -20.827072 -11.023829 41.234035 0.961945 -0.007153 -0.273151 0.261264 0.291817 1 33 1.000000
  33 -20.758644 -4.213137 41.296810 0.961945 -0.007058 -0.273151 0.261264 0.902747 1 33 1.000000
  33 -20.681849 -4.213137 41.567455 0.961945 -0.007058 -0.273151 0.286412 0.902747 1 33 1.000000
mochite
  33 -21.567846 -3.225355 40.554363 0.675933 -0.000001 -0.736963 0.166450 0.983595 1 33 1.000000
  33 -20.758644 -3.225354 41.296810 0.675933 -0.000001 -0.736963 0.261264 0.983595 1 33 1.000000
  33 -20.486834 -3.761488 41.546204 0.675933 -0.000001 -0.736963 0.293013 0.943278 1 33 1.000000
mochite
  33 -20.486834 -3.761488 41.546204 0.675933 -0.000001 -0.736963 0.293013 0.943278 1 33 1.000000
  33 -21.839659 -3.761490 40.304974 0.675933 -0.000001 -0.736963 0.134704 0.943278 1 33 1.000000
  33 -21.567846 -3.225355 40.554363 0.675933 -0.000001 -0.736963 0.166450 0.983595 1 33 1.000000
mochite
  33 -21.839659 -3.761490 40.304974 0.675933 -0.000001 -0.736963 0.134704 0.943278 1 33 1.000000
  33 -20.486834 -3.761488 41.546204 0.675933 -0.000001 -0.736963 0.293013 0.943278 1 33 1.000000
  33 -20.758644 -4.213137 41.296810 0.675933 -0.000001 -0.736963 0.261264 0.902747 1 33 1.000000
mochite
  33 -20.758644 -4.213137 41.296810 0.675933 -0.000001 -0.736963 0.261264 0.902747 1 33 1.000000
  33 -21.567846 -4.213138 40.554363 0.675933 -0.000001 -0.736963 0.166450 0.902747 1 33 1.000000
  33 -21.839659 -3.761490 40.304974 0.675933 -0.000001 -0.736963 0.134704 0.943278 1 33 1.000000
mochite
  33 -21.499416 -11.023833 40.617157 0.675933 -0.000001 -0.736963 0.166451 0.291817 1 33 1.000000
  33 -21.567846 -4.213138 40.554363 0.675933 -0.000001 -0.736963 0.166450 0.902747 1 33 1.000000
  33 -20.758644 -4.213137 41.296810 0.675933 -0.000001 -0.736963 0.261264 0.902747 1 33 1.000000
mochite
  33 -20.758644 -4.213137 41.296810 0.675933 -0.000001 -0.736963 0.261264 0.902747 1 33 1.000000
  33 -20.827072 -11.023829 41.234035 0.675933 -0.000001 -0.736963 0.261264 0.291817 1 33 1.000000
  33 -21.499416 -11.023833 40.617157 0.675933 -0.000001 -0.736963 0.166451 0.291817 1 33 1.000000
mochite
  33 -21.333456 -27.541742 40.769444 0.675933 -0.000001 -0.736963 0.166452 0.262389 1 33 1.000000
  33 -21.499416 -11.023833 40.617157 0.675933 -0.000001 -0.736963 0.166451 0.291817 1 33 1.000000
  33 -20.827072 -11.023829 41.234035 0.675933 -0.000001 -0.736963 0.261264 0.291817 1 33 1.000000
mochite
  33 -20.827072 -11.023829 41.234035 0.675933 -0.000001 -0.736963 0.261264 0.291817 1 33 1.000000
  33 -20.993032 -27.541744 41.081783 0.675933 -0.000001 -0.736963 0.261262 0.262389 1 33 1.000000
  33 -21.333456 -27.541742 40.769444 0.675933 -0.000001 -0.736963 0.166452 0.262389 1 33 1.000000
mochite
  33 -21.163242 -28.940842 40.925613 0.675933 -0.000001 -0.736963 0.213858 0.090774 1 33 1.000000
  33 -21.333456 -27.541742 40.769444 0.675933 -0.000001 -0.736963 0.166452 0.262389 1 33 1.000000
  33 -20.993032 -27.541744 41.081783 0.675933 -0.000001 -0.736963 0.261262 0.262389 1 33 1.000000
mochite
  33 -21.026512 -11.023829 41.451408 -0.189579 -0.007151 0.981839 0.166449 0.291817 1 33 1.000000
  33 -21.192474 -27.541739 41.299152 -0.190386 -0.007248 0.981682 0.166450 0.262389 1 33 1.000000
  33 -20.916237 -27.580551 41.352421 -0.190386 -0.007248 0.981682 0.141176 0.262389 1 33 1.000000
mochite
  33 -20.916237 -27.580551 41.352421 -0.190386 -0.007248 0.981682 0.141176 0.262389 1 33 1.000000
  33 -20.750164 -11.023829 41.504780 -0.189579 -0.007151 0.981839 0.141265 0.291817 1 33 1.000000
  33 -21.026512 -11.023829 41.451408 -0.189579 -0.007151 0.981839 0.166449 0.291817 1 33 1.000000
mochite
  33 -21.026512 -11.023829 41.451408 -0.189579 -0.007151 0.981839 0.166449 0.291817 1 33 1.000000
  33 -20.750164 -11.023829 41.504780 -0.189579 -0.007151 0.981839 0.141265 0.291817 1 33 1.000000
  33 -20.681849 -4.213137 41.567455 -0.189395 -0.007056 0.981875 0.141299 0.902747 1 33 1.000000
mochite
  33 -20.681849 -4.213137 41.567455 -0.189395 -0.007056 0.981875 0.141299 0.902747 1 33 1.000000
  33 -20.958086 -4.213137 41.514187 -0.189395 -0.007056 0.981875 0.166447 0.902747 1 33 1.000000
  33 -21.026512 -11.023829 41.451408 -0.189579 -0.007151 0.981839 0.166449 0.291817 1 33 1.000000
end
