// Created by Crowbar 0.74
version 1
nodes
  0 "ValveBiped.Bip01_Pelvis" -1
  1 "ValveBiped.Bip01_L_Thigh" 0
  2 "ValveBiped.Bip01_L_Calf" 1
  3 "ValveBiped.Bip01_L_Foot" 2
  4 "ValveBiped.Bip01_L_Toe0" 3
  5 "ValveBiped.Bip01_R_Thigh" 0
  6 "ValveBiped.Bip01_R_Calf" 5
  7 "ValveBiped.Bip01_R_Foot" 6
  8 "ValveBiped.Bip01_R_Toe0" 7
  9 "ValveBiped.Bip01_Spine" 0
  10 "ValveBiped.Bip01_Spine1" 9
  11 "ValveBiped.Bip01_Spine2" 10
  12 "ValveBiped.Bip01_Spine4" 11
  13 "ValveBiped.Bip01_Neck1" 12
  14 "ValveBiped.Bip01_Head1" 13
  15 "ValveBiped.Bip01_L_Clavicle" 12
  16 "ValveBiped.Bip01_L_UpperArm" 15
  17 "ValveBiped.Bip01_L_Forearm" 16
  18 "ValveBiped.Bip01_L_Hand" 17
  19 "ValveBiped.Bip01_L_Finger2" 18
  20 "ValveBiped.Bip01_L_Finger1" 18
  21 "ValveBiped.Bip01_L_Finger0" 18
  22 "ValveBiped.Bip01_R_Clavicle" 12
  23 "ValveBiped.Bip01_R_UpperArm" 22
  24 "ValveBiped.Bip01_R_Forearm" 23
  25 "ValveBiped.Bip01_R_Hand" 24
  26 "ValveBiped.Bip01_R_Finger2" 25
  27 "ValveBiped.Bip01_R_Finger1" 25
  28 "ValveBiped.Bip01_R_Finger0" 25
  29 "ValveBiped.forward" 14
end
skeleton
  time 0
    0 0.000000 0.000000 0.000000 0.000000 0.000000 0.000000
    1 3.455587 0.000000 0.000000 -1.570796 0.006529 -1.605936
    2 16.572348 0.000000 0.000000 0.000000 0.000000 0.059201
    3 16.265833 0.000000 0.000000 0.000779 -0.114620 -1.283018
    4 5.897430 0.000002 0.000000 0.028685 -0.036200 -0.354952
    5 -3.455587 0.000000 0.000000 -1.570796 0.006529 -1.535657
    6 16.572348 0.000000 0.000000 0.000000 0.000000 0.059201
    7 16.265835 0.000000 0.000000 0.010735 0.114620 -1.283018
    8 5.897430 0.000000 0.000000 -0.118266 0.032197 -0.355321
    9 0.000000 3.703727 0.293189 1.570796 0.013022 1.570796
    10 3.307843 0.000000 0.000000 0.000000 0.000000 -0.144096
    11 3.297958 0.000000 0.000000 0.000000 0.000000 -0.134151
    12 6.040987 0.000000 0.000000 0.000000 0.000000 0.326149
    13 5.065755 0.000000 0.000000 3.141590 0.000000 0.327547
    14 3.993757 0.000000 0.000000 0.000000 -0.000001 0.351470
    15 3.815876 1.385489 1.500000 0.832763 -1.047437 -2.502937
    16 4.327090 0.000002 0.000000 -1.243455 -0.153575 -0.884946
    17 11.105112 0.000000 0.000002 0.000000 0.000000 -0.136589
    18 9.862101 -0.000010 -0.000030 1.227939 0.166032 0.076869
    19 3.242848 0.068627 0.420582 0.324082 0.096499 -0.179449
    20 3.377785 -0.289670 1.262100 0.318970 0.064136 -0.160211
    21 1.183641 -1.320207 0.786028 1.843605 -0.321508 -0.089830
    22 3.815875 1.385489 -1.500000 -0.909420 1.047437 -2.502937
    23 4.327091 -0.000003 0.000000 1.293095 0.212691 -0.875900
    24 11.105106 0.000000 0.000000 0.000000 0.000000 -0.136589
    25 9.862079 -0.000007 0.000017 -1.230762 -0.166035 0.076867
    26 3.242868 0.069815 -0.420387 -0.321258 -0.096501 -0.179445
    27 3.377807 -0.286105 -1.262912 -0.316147 -0.064138 -0.160207
    28 1.183670 -1.317990 -0.789751 -1.840640 0.321759 -0.088889
    29 1.999999 -3.000000 0.000000 -1.570796 0.000000 -1.326450
end
triangles
  phy
    0 2.854863 5.125880 2.860040 0.652156 -0.565253 0.505155 0 0
    0 2.854863 5.084297 -1.234345 0.690435 0.566668 0.449652 0 0
    0 2.207466 5.107033 -1.472514 0.285499 0.755571 0.589579 0 0
  phy
    0 2.207466 5.107033 -1.472514 0.285499 0.755571 0.589579 0 0
    0 2.276741 5.149344 2.958631 0.083334 -0.483399 0.871425 0 0
    0 2.854863 5.125880 2.860040 0.652156 -0.565253 0.505155 0 0
  phy
    0 4.162198 5.054851 0.867748 0.971168 -0.000399 0.238394 0 0
    0 2.854863 5.084297 -1.234345 0.690435 0.566668 0.449652 0 0
    0 2.854863 5.125880 2.860040 0.652156 -0.565253 0.505155 0 0
  phy
    0 2.854863 5.125880 2.860040 0.652156 -0.565253 0.505155 0 0
    0 4.302234 -3.246335 3.014200 0.497195 -0.867291 -0.024562 0 0
    0 4.162198 5.054851 0.867748 0.971168 -0.000399 0.238394 0 0
  phy
    0 2.854863 5.125880 2.860040 0.652156 -0.565253 0.505155 0 0
    0 2.276741 5.149344 2.958631 0.083334 -0.483399 0.871425 0 0
    0 4.302234 -3.246335 3.014200 0.497195 -0.867291 -0.024562 0 0
  phy
    0 0.002683 5.089513 -2.298632 -0.015099 0.885481 0.464431 0 0
    0 2.207466 5.107033 -1.472514 0.285499 0.755571 0.589579 0 0
    0 4.313216 -3.246333 -2.006448 0.569907 0.820675 0.041221 0 0
  phy
    0 4.313216 -3.246333 -2.006448 0.569907 0.820675 0.041221 0 0
    0 2.207466 5.107033 -1.472514 0.285499 0.755571 0.589579 0 0
    0 2.854863 5.084297 -1.234345 0.690435 0.566668 0.449652 0 0
  phy
    0 0.002683 5.089513 -2.298632 -0.015099 0.885481 0.464431 0 0
    0 2.276741 5.149344 2.958631 0.083334 -0.483399 0.871425 0 0
    0 2.207466 5.107033 -1.472514 0.285499 0.755571 0.589579 0 0
  phy
    0 4.313216 -3.246333 -2.006448 0.569907 0.820675 0.041221 0 0
    0 2.854863 5.084297 -1.234345 0.690435 0.566668 0.449652 0 0
    0 4.162198 5.054851 0.867748 0.971168 -0.000399 0.238394 0 0
  phy
    0 4.162198 5.054851 0.867748 0.971168 -0.000399 0.238394 0 0
    0 5.391856 -3.246334 0.545664 0.649920 -0.001421 -0.760001 0 0
    0 4.313216 -3.246333 -2.006448 0.569907 0.820675 0.041221 0 0
  phy
    0 4.302234 -3.246335 3.014200 0.497195 -0.867291 -0.024562 0 0
    0 5.391856 -3.246334 0.545664 0.649920 -0.001421 -0.760001 0 0
    0 4.162198 5.054851 0.867748 0.971168 -0.000399 0.238394 0 0
  phy
    0 0.002683 5.089513 -2.298632 -0.015099 0.885481 0.464431 0 0
    0 -2.768601 5.087143 -1.264104 -0.529468 0.690133 0.493336 0 0
    0 -2.849497 5.125884 2.860031 -0.329762 -0.532916 0.779268 0 0
  phy
    0 -2.849497 5.125884 2.860031 -0.329762 -0.532916 0.779268 0 0
    0 2.276741 5.149344 2.958631 0.083334 -0.483399 0.871425 0 0
    0 0.002683 5.089513 -2.298632 -0.015099 0.885481 0.464431 0 0
  phy
    0 0.002683 5.089513 -2.298632 -0.015099 0.885481 0.464431 0 0
    0 4.313216 -3.246333 -2.006448 0.569907 0.820675 0.041221 0 0
    0 0.003011 -3.246333 -2.921305 0.000000 0.648343 -0.761348 0 0
  phy
    0 0.002683 5.089513 -2.298632 -0.015099 0.885481 0.464431 0 0
    0 -4.307192 -3.246333 -2.006448 -0.570027 0.820528 0.042463 0 0
    0 -2.768601 5.087143 -1.264104 -0.529468 0.690133 0.493336 0 0
  phy
    0 -4.307192 -3.246333 -2.006448 -0.570027 0.820528 0.042463 0 0
    0 0.002683 5.089513 -2.298632 -0.015099 0.885481 0.464431 0 0
    0 0.003011 -3.246333 -2.921305 0.000000 0.648343 -0.761348 0 0
  phy
    0 0.003011 -3.246333 -2.921305 0.000000 0.648343 -0.761348 0 0
    0 4.313216 -3.246333 -2.006448 0.569907 0.820675 0.041221 0 0
    0 5.391856 -3.246334 0.545664 0.649920 -0.001421 -0.760001 0 0
  phy
    0 0.002683 5.143073 3.351196 -0.007195 -0.998617 0.052074 0 0
    0 -2.849497 5.125884 2.860031 -0.329762 -0.532916 0.779268 0 0
    0 -4.296208 -3.246335 3.014200 -0.497381 -0.867182 -0.024644 0 0
  phy
    0 -4.296208 -3.246335 3.014200 -0.497381 -0.867182 -0.024644 0 0
    0 0.003012 -3.246336 3.548010 0.000000 -0.633547 -0.773705 0 0
    0 0.002683 5.143073 3.351196 -0.007195 -0.998617 0.052074 0 0
  phy
    0 0.002683 5.143073 3.351196 -0.007195 -0.998617 0.052074 0 0
    0 0.003012 -3.246336 3.548010 0.000000 -0.633547 -0.773705 0 0
    0 4.302234 -3.246335 3.014200 0.497195 -0.867291 -0.024562 0 0
  phy
    0 4.302234 -3.246335 3.014200 0.497195 -0.867291 -0.024562 0 0
    0 2.276741 5.149344 2.958631 0.083334 -0.483399 0.871425 0 0
    0 0.002683 5.143073 3.351196 -0.007195 -0.998617 0.052074 0 0
  phy
    0 0.002683 5.143073 3.351196 -0.007195 -0.998617 0.052074 0 0
    0 2.276741 5.149344 2.958631 0.083334 -0.483399 0.871425 0 0
    0 -2.849497 5.125884 2.860031 -0.329762 -0.532916 0.779268 0 0
  phy
    0 -4.156813 5.054851 0.867746 -0.970048 0.008152 0.242775 0 0
    0 -4.296208 -3.246335 3.014200 -0.497381 -0.867182 -0.024644 0 0
    0 -2.849497 5.125884 2.860031 -0.329762 -0.532916 0.779268 0 0
  phy
    0 -4.296208 -3.246335 3.014200 -0.497381 -0.867182 -0.024644 0 0
    0 -4.156813 5.054851 0.867746 -0.970048 0.008152 0.242775 0 0
    0 -5.385838 -3.246334 0.545664 -0.649896 -0.001422 -0.760022 0 0
  phy
    0 0.003012 -3.246336 3.548010 0.000000 -0.633547 -0.773705 0 0
    0 -4.296208 -3.246335 3.014200 -0.497381 -0.867182 -0.024644 0 0
    0 -5.385838 -3.246334 0.545664 -0.649896 -0.001422 -0.760022 0 0
  phy
    0 -4.307192 -3.246333 -2.006448 -0.570027 0.820528 0.042463 0 0
    0 -4.156813 5.054851 0.867746 -0.970048 0.008152 0.242775 0 0
    0 -2.768601 5.087143 -1.264104 -0.529468 0.690133 0.493336 0 0
  phy
    0 -4.156813 5.054851 0.867746 -0.970048 0.008152 0.242775 0 0
    0 -4.307192 -3.246333 -2.006448 -0.570027 0.820528 0.042463 0 0
    0 -5.385838 -3.246334 0.545664 -0.649896 -0.001422 -0.760022 0 0
  phy
    0 -2.849497 5.125884 2.860031 -0.329762 -0.532916 0.779268 0 0
    0 -2.768601 5.087143 -1.264104 -0.529468 0.690133 0.493336 0 0
    0 -4.156813 5.054851 0.867746 -0.970048 0.008152 0.242775 0 0
  phy
    0 4.302234 -3.246335 3.014200 0.497195 -0.867291 -0.024562 0 0
    0 0.003012 -3.246336 3.548010 0.000000 -0.633547 -0.773705 0 0
    0 5.391856 -3.246334 0.545664 0.649920 -0.001421 -0.760001 0 0
  phy
    0 -4.307192 -3.246333 -2.006448 -0.570027 0.820528 0.042463 0 0
    0 0.003011 -3.246333 -2.921305 0.000000 0.648343 -0.761348 0 0
    0 -5.385838 -3.246334 0.545664 -0.649896 -0.001422 -0.760022 0 0
  phy
    0 0.003012 -3.246336 3.548010 0.000000 -0.633547 -0.773705 0 0
    0 -5.385838 -3.246334 0.545664 -0.649896 -0.001422 -0.760022 0 0
    0 0.003011 -3.246333 -2.921305 0.000000 0.648343 -0.761348 0 0
  phy
    0 0.003012 -3.246336 3.548010 0.000000 -0.633547 -0.773705 0 0
    0 0.003011 -3.246333 -2.921305 0.000000 0.648343 -0.761348 0 0
    0 5.391856 -3.246334 0.545664 0.649920 -0.001421 -0.760001 0 0
  phy
    9 0.000078 12.872965 -3.465834 0.401038 0.048569 -0.914773 0 0
    9 -2.768429 14.240855 2.145996 0.537174 0.580437 0.611994 0 0
    9 1.366610 12.930254 -3.249180 0.834421 -0.061480 -0.547688 0 0
  phy
    9 -2.768429 14.240855 2.145996 0.537174 0.580437 0.611994 0 0
    9 0.000037 14.425177 2.863242 0.675083 0.025502 0.737301 0 0
    9 1.366610 12.930254 -3.249180 0.834421 -0.061480 -0.547688 0 0
  phy
    9 1.366610 12.930254 -3.249180 0.834421 -0.061480 -0.547688 0 0
    9 0.000037 14.425177 2.863242 0.675083 0.025502 0.737301 0 0
    9 2.257445 14.288341 2.277313 0.371600 -0.560647 0.739992 0 0
  phy
    9 0.000078 12.872965 -3.465834 0.401038 0.048569 -0.914773 0 0
    9 1.366610 12.930254 -3.249180 0.834421 -0.061480 -0.547688 0 0
    9 0.000341 5.620648 -1.646222 -0.536345 -0.000026 -0.843999 0 0
  phy
    9 0.000341 5.620648 -1.646222 -0.536345 -0.000026 -0.843999 0 0
    9 1.366610 12.930254 -3.249180 0.834421 -0.061480 -0.547688 0 0
    9 2.708225 12.947595 -3.026715 -0.126380 -0.701772 -0.701102 0 0
  phy
    9 2.257445 14.288341 2.277313 0.371600 -0.560647 0.739992 0 0
    9 3.824695 13.712372 0.155616 0.206038 -0.964514 0.165107 0 0
    9 1.366610 12.930254 -3.249180 0.834421 -0.061480 -0.547688 0 0
  phy
    9 3.824695 13.712372 0.155616 0.206038 -0.964514 0.165107 0 0
    9 2.708225 12.947595 -3.026715 -0.126380 -0.701772 -0.701102 0 0
    9 1.366610 12.930254 -3.249180 0.834421 -0.061480 -0.547688 0 0
  phy
    9 2.274789 5.619610 -0.887532 -0.512820 -0.473228 -0.716290 0 0
    9 2.708225 12.947595 -3.026715 -0.126380 -0.701772 -0.701102 0 0
    9 3.371314 5.621806 0.601164 -0.162917 -0.972498 -0.166449 0 0
  phy
    9 2.274789 5.619610 -0.887532 -0.512820 -0.473228 -0.716290 0 0
    9 0.000341 5.620648 -1.646222 -0.536345 -0.000026 -0.843999 0 0
    9 2.708225 12.947595 -3.026715 -0.126380 -0.701772 -0.701102 0 0
  phy
    9 2.274789 5.619610 -0.887532 -0.512820 -0.473228 -0.716290 0 0
    9 3.371314 5.621806 0.601164 -0.162917 -0.972498 -0.166449 0 0
    9 2.333080 5.618010 2.116359 -0.581997 -0.585879 0.563938 0 0
  phy
    9 2.274789 5.619610 -0.887532 -0.512820 -0.473228 -0.716290 0 0
    9 2.333080 5.618010 2.116359 -0.581997 -0.585879 0.563938 0 0
    9 0.000341 5.620648 -1.646222 -0.536345 -0.000026 -0.843999 0 0
  phy
    9 -2.708080 12.947594 -3.026715 0.070900 0.622598 -0.779323 0 0
    9 0.000078 12.872965 -3.465834 0.401038 0.048569 -0.914773 0 0
    9 0.000341 5.620648 -1.646222 -0.536345 -0.000026 -0.843999 0 0
  phy
    9 -2.708080 12.947594 -3.026715 0.070900 0.622598 -0.779323 0 0
    9 -2.768429 14.240855 2.145996 0.537174 0.580437 0.611994 0 0
    9 0.000078 12.872965 -3.465834 0.401038 0.048569 -0.914773 0 0
  phy
    9 3.371314 5.621806 0.601164 -0.162917 -0.972498 -0.166449 0 0
    9 3.824695 13.712372 0.155616 0.206038 -0.964514 0.165107 0 0
    9 2.333080 5.618010 2.116359 -0.581997 -0.585879 0.563938 0 0
  phy
    9 3.371314 5.621806 0.601164 -0.162917 -0.972498 -0.166449 0 0
    9 2.708225 12.947595 -3.026715 -0.126380 -0.701772 -0.701102 0 0
    9 3.824695 13.712372 0.155616 0.206038 -0.964514 0.165107 0 0
  phy
    9 2.333080 5.618010 2.116359 -0.581997 -0.585879 0.563938 0 0
    9 0.000350 5.617895 3.575465 -0.062562 0.013234 0.997953 0 0
    9 -2.332451 5.619319 2.116364 -0.375705 0.615685 0.692660 0 0
  phy
    9 2.333080 5.618010 2.116359 -0.581997 -0.585879 0.563938 0 0
    9 -2.332451 5.619319 2.116364 -0.375705 0.615685 0.692660 0 0
    9 -3.370406 5.620409 0.601381 -0.451621 0.892178 0.007566 0 0
  phy
    9 2.333080 5.618010 2.116359 -0.581997 -0.585879 0.563938 0 0
    9 -3.370406 5.620409 0.601381 -0.451621 0.892178 0.007566 0 0
    9 0.000341 5.620648 -1.646222 -0.536345 -0.000026 -0.843999 0 0
  phy
    9 -3.370406 5.620409 0.601381 -0.451621 0.892178 0.007566 0 0
    9 -2.332451 5.619319 2.116364 -0.375705 0.615685 0.692660 0 0
    9 -2.768429 14.240855 2.145996 0.537174 0.580437 0.611994 0 0
  phy
    9 -2.332451 5.619319 2.116364 -0.375705 0.615685 0.692660 0 0
    9 0.000350 5.617895 3.575465 -0.062562 0.013234 0.997953 0 0
    9 -2.768429 14.240855 2.145996 0.537174 0.580437 0.611994 0 0
  phy
    9 2.257445 14.288341 2.277313 0.371600 -0.560647 0.739992 0 0
    9 0.000350 5.617895 3.575465 -0.062562 0.013234 0.997953 0 0
    9 2.333080 5.618010 2.116359 -0.581997 -0.585879 0.563938 0 0
  phy
    9 0.000037 14.425177 2.863242 0.675083 0.025502 0.737301 0 0
    9 0.000350 5.617895 3.575465 -0.062562 0.013234 0.997953 0 0
    9 2.257445 14.288341 2.277313 0.371600 -0.560647 0.739992 0 0
  phy
    9 2.333080 5.618010 2.116359 -0.581997 -0.585879 0.563938 0 0
    9 3.824695 13.712372 0.155616 0.206038 -0.964514 0.165107 0 0
    9 2.257445 14.288341 2.277313 0.371600 -0.560647 0.739992 0 0
  phy
    9 -2.708080 12.947594 -3.026715 0.070900 0.622598 -0.779323 0 0
    9 0.000341 5.620648 -1.646222 -0.536345 -0.000026 -0.843999 0 0
    9 -2.274182 5.620886 -0.887904 -0.330025 0.521660 -0.786737 0 0
  phy
    9 -3.370406 5.620409 0.601381 -0.451621 0.892178 0.007566 0 0
    9 -2.708080 12.947594 -3.026715 0.070900 0.622598 -0.779323 0 0
    9 -2.274182 5.620886 -0.887904 -0.330025 0.521660 -0.786737 0 0
  phy
    9 -2.708080 12.947594 -3.026715 0.070900 0.622598 -0.779323 0 0
    9 -3.370406 5.620409 0.601381 -0.451621 0.892178 0.007566 0 0
    9 -3.824580 13.712372 0.155616 0.075437 0.996717 -0.029411 0 0
  phy
    9 -2.708080 12.947594 -3.026715 0.070900 0.622598 -0.779323 0 0
    9 -3.824580 13.712372 0.155616 0.075437 0.996717 -0.029411 0 0
    9 -2.768429 14.240855 2.145996 0.537174 0.580437 0.611994 0 0
  phy
    9 0.000341 5.620648 -1.646222 -0.536345 -0.000026 -0.843999 0 0
    9 -3.370406 5.620409 0.601381 -0.451621 0.892178 0.007566 0 0
    9 -2.274182 5.620886 -0.887904 -0.330025 0.521660 -0.786737 0 0
  phy
    9 -3.370406 5.620409 0.601381 -0.451621 0.892178 0.007566 0 0
    9 -2.768429 14.240855 2.145996 0.537174 0.580437 0.611994 0 0
    9 -3.824580 13.712372 0.155616 0.075437 0.996717 -0.029411 0 0
  phy
    9 -2.768429 14.240855 2.145996 0.537174 0.580437 0.611994 0 0
    9 0.000350 5.617895 3.575465 -0.062562 0.013234 0.997953 0 0
    9 0.000037 14.425177 2.863242 0.675083 0.025502 0.737301 0 0
  phy
    11 1.723437 22.529717 -2.972600 0.740437 -0.386508 -0.549877 0 0
    11 -2.592765 22.156093 -1.223090 0.508728 0.725391 0.463685 0 0
    11 2.592765 22.156093 -1.223090 0.462458 -0.764917 0.448369 0 0
  phy
    11 -2.592765 22.156093 -1.223090 0.508728 0.725391 0.463685 0 0
    11 0.000000 21.916075 -0.099198 0.200275 0.000000 0.979740 0 0
    11 2.592765 22.156093 -1.223090 0.462458 -0.764917 0.448369 0 0
  phy
    11 0.000000 21.916075 -0.099198 0.200275 0.000000 0.979740 0 0
    11 4.100998 14.127775 2.483028 0.016628 -0.517677 0.855415 0 0
    11 2.592765 22.156093 -1.223090 0.462458 -0.764917 0.448369 0 0
  phy
    11 2.592765 22.156093 -1.223090 0.462458 -0.764917 0.448369 0 0
    11 4.100998 14.127775 2.483028 0.016628 -0.517677 0.855415 0 0
    11 5.031353 15.125152 -0.447819 0.063592 -0.996058 -0.061844 0 0
  phy
    11 5.031353 15.125152 -0.447819 0.063592 -0.996058 -0.061844 0 0
    11 3.724536 16.654568 -3.758014 0.299530 -0.705183 -0.642649 0 0
    11 2.592765 22.156093 -1.223090 0.462458 -0.764917 0.448369 0 0
  phy
    11 2.592765 22.156093 -1.223090 0.462458 -0.764917 0.448369 0 0
    11 3.724536 16.654568 -3.758014 0.299530 -0.705183 -0.642649 0 0
    11 1.723437 22.529717 -2.972600 0.740437 -0.386508 -0.549877 0 0
  phy
    11 -1.723437 22.529716 -2.972599 0.577546 0.412818 -0.704289 0 0
    11 -3.724536 16.654568 -3.758014 0.299530 0.705184 -0.642649 0 0
    11 -2.592765 22.156093 -1.223090 0.508728 0.725391 0.463685 0 0
  phy
    11 -2.592765 22.156093 -1.223090 0.508728 0.725391 0.463685 0 0
    11 -3.724536 16.654568 -3.758014 0.299530 0.705184 -0.642649 0 0
    11 -5.031353 15.125152 -0.447819 0.063591 0.996058 -0.061844 0 0
  phy
    11 -3.724536 16.654568 -3.758014 0.299530 0.705184 -0.642649 0 0
    11 -2.911761 11.874824 -2.902744 -0.112806 0.677752 -0.726586 0 0
    11 -5.031353 15.125152 -0.447819 0.063591 0.996058 -0.061844 0 0
  phy
    11 0.000000 16.933690 -4.677375 0.284234 0.000158 -0.958755 0 0
    11 -3.724536 16.654568 -3.758014 0.299530 0.705184 -0.642649 0 0
    11 -1.723437 22.529716 -2.972599 0.577546 0.412818 -0.704289 0 0
  phy
    11 -3.724536 16.654568 -3.758014 0.299530 0.705184 -0.642649 0 0
    11 0.000000 16.933690 -4.677375 0.284234 0.000158 -0.958755 0 0
    11 -2.911761 11.874824 -2.902744 -0.112806 0.677752 -0.726586 0 0
  phy
    11 -2.460358 11.846642 -2.970638 -0.715181 0.063375 -0.696060 0 0
    11 -2.855086 10.633470 2.659710 -0.860746 0.362774 0.357088 0 0
    11 -3.955694 11.094366 1.060175 -0.466538 0.868278 -0.168628 0 0
  phy
    11 -2.460358 11.846642 -2.970638 -0.715181 0.063375 -0.696060 0 0
    11 -3.955694 11.094366 1.060175 -0.466538 0.868278 -0.168628 0 0
    11 -2.911761 11.874824 -2.902744 -0.112806 0.677752 -0.726586 0 0
  phy
    11 -2.855086 10.633470 2.659710 -0.860746 0.362774 0.357088 0 0
    11 -2.460358 11.846642 -2.970638 -0.715181 0.063375 -0.696060 0 0
    11 0.000000 10.429357 3.499180 -0.994667 -0.071671 0.074173 0 0
  phy
    11 0.000000 13.735089 3.683288 -0.019410 0.026842 0.999451 0 0
    11 -4.100998 14.127775 2.483029 0.048605 0.534893 0.843521 0 0
    11 -2.855086 10.633470 2.659710 -0.860746 0.362774 0.357088 0 0
  phy
    11 -2.855086 10.633470 2.659710 -0.860746 0.362774 0.357088 0 0
    11 0.000000 10.429357 3.499180 -0.994667 -0.071671 0.074173 0 0
    11 0.000000 13.735089 3.683288 -0.019410 0.026842 0.999451 0 0
  phy
    11 -3.955694 11.094366 1.060175 -0.466538 0.868278 -0.168628 0 0
    11 -2.855086 10.633470 2.659710 -0.860746 0.362774 0.357088 0 0
    11 -4.100998 14.127775 2.483029 0.048605 0.534893 0.843521 0 0
  phy
    11 5.031353 15.125152 -0.447819 0.063592 -0.996058 -0.061844 0 0
    11 2.911761 11.874824 -2.902744 -0.319717 -0.498040 -0.806063 0 0
    11 3.724536 16.654568 -3.758014 0.299530 -0.705183 -0.642649 0 0
  phy
    11 3.955694 11.094366 1.060175 -0.420761 -0.896412 -0.139303 0 0
    11 2.911761 11.874824 -2.902744 -0.319717 -0.498040 -0.806063 0 0
    11 5.031353 15.125152 -0.447819 0.063592 -0.996058 -0.061844 0 0
  phy
    11 5.031353 15.125152 -0.447819 0.063592 -0.996058 -0.061844 0 0
    11 4.100998 14.127775 2.483028 0.016628 -0.517677 0.855415 0 0
    11 3.955694 11.094366 1.060175 -0.420761 -0.896412 -0.139303 0 0
  phy
    11 0.000000 11.959316 -3.408611 -0.649900 -0.010768 -0.759943 0 0
    11 2.855086 10.633470 2.659710 -0.957721 -0.204001 -0.202862 0 0
    11 0.000000 10.429357 3.499180 -0.994667 -0.071671 0.074173 0 0
  phy
    11 -2.460358 11.846642 -2.970638 -0.715181 0.063375 -0.696060 0 0
    11 0.000000 11.959316 -3.408611 -0.649900 -0.010768 -0.759943 0 0
    11 0.000000 10.429357 3.499180 -0.994667 -0.071671 0.074173 0 0
  phy
    11 0.000000 16.933690 -4.677375 0.284234 0.000158 -0.958755 0 0
    11 0.000000 11.959316 -3.408611 -0.649900 -0.010768 -0.759943 0 0
    11 -2.460358 11.846642 -2.970638 -0.715181 0.063375 -0.696060 0 0
  phy
    11 0.000000 11.959316 -3.408611 -0.649900 -0.010768 -0.759943 0 0
    11 0.000000 16.933690 -4.677375 0.284234 0.000158 -0.958755 0 0
    11 2.911761 11.874824 -2.902744 -0.319717 -0.498040 -0.806063 0 0
  phy
    11 2.855086 10.633470 2.659710 -0.957721 -0.204001 -0.202862 0 0
    11 0.000000 11.959316 -3.408611 -0.649900 -0.010768 -0.759943 0 0
    11 2.911761 11.874824 -2.902744 -0.319717 -0.498040 -0.806063 0 0
  phy
    11 0.000000 16.933690 -4.677375 0.284234 0.000158 -0.958755 0 0
    11 1.723437 22.529717 -2.972600 0.740437 -0.386508 -0.549877 0 0
    11 3.724536 16.654568 -3.758014 0.299530 -0.705183 -0.642649 0 0
  phy
    11 1.723437 22.529717 -2.972600 0.740437 -0.386508 -0.549877 0 0
    11 0.000000 16.933690 -4.677375 0.284234 0.000158 -0.958755 0 0
    11 0.000000 22.561367 -3.120805 0.767955 0.000001 -0.640504 0 0
  phy
    11 0.000000 16.933690 -4.677375 0.284234 0.000158 -0.958755 0 0
    11 -2.460358 11.846642 -2.970638 -0.715181 0.063375 -0.696060 0 0
    11 -2.911761 11.874824 -2.902744 -0.112806 0.677752 -0.726586 0 0
  phy
    11 0.000000 16.933690 -4.677375 0.284234 0.000158 -0.958755 0 0
    11 -1.723437 22.529716 -2.972599 0.577546 0.412818 -0.704289 0 0
    11 0.000000 22.561367 -3.120805 0.767955 0.000001 -0.640504 0 0
  phy
    11 0.000000 16.933690 -4.677375 0.284234 0.000158 -0.958755 0 0
    11 3.724536 16.654568 -3.758014 0.299530 -0.705183 -0.642649 0 0
    11 2.911761 11.874824 -2.902744 -0.319717 -0.498040 -0.806063 0 0
  phy
    11 -2.592765 22.156093 -1.223090 0.508728 0.725391 0.463685 0 0
    11 0.000000 22.561367 -3.120805 0.767955 0.000001 -0.640504 0 0
    11 -1.723437 22.529716 -2.972599 0.577546 0.412818 -0.704289 0 0
  phy
    11 0.000000 13.735089 3.683288 -0.019410 0.026842 0.999451 0 0
    11 0.000000 10.429357 3.499180 -0.994667 -0.071671 0.074173 0 0
    11 4.100998 14.127775 2.483028 0.016628 -0.517677 0.855415 0 0
  phy
    11 0.000000 13.735089 3.683288 -0.019410 0.026842 0.999451 0 0
    11 0.000000 21.916075 -0.099198 0.200275 0.000000 0.979740 0 0
    11 -4.100998 14.127775 2.483029 0.048605 0.534893 0.843521 0 0
  phy
    11 0.000000 13.735089 3.683288 -0.019410 0.026842 0.999451 0 0
    11 4.100998 14.127775 2.483028 0.016628 -0.517677 0.855415 0 0
    11 0.000000 21.916075 -0.099198 0.200275 0.000000 0.979740 0 0
  phy
    11 -3.955694 11.094366 1.060175 -0.466538 0.868278 -0.168628 0 0
    11 -4.100998 14.127775 2.483029 0.048605 0.534893 0.843521 0 0
    11 -5.031353 15.125152 -0.447819 0.063591 0.996058 -0.061844 0 0
  phy
    11 -2.911761 11.874824 -2.902744 -0.112806 0.677752 -0.726586 0 0
    11 -3.955694 11.094366 1.060175 -0.466538 0.868278 -0.168628 0 0
    11 -5.031353 15.125152 -0.447819 0.063591 0.996058 -0.061844 0 0
  phy
    11 1.723437 22.529717 -2.972600 0.740437 -0.386508 -0.549877 0 0
    11 0.000000 22.561367 -3.120805 0.767955 0.000001 -0.640504 0 0
    11 -2.592765 22.156093 -1.223090 0.508728 0.725391 0.463685 0 0
  phy
    11 3.955694 11.094366 1.060175 -0.420761 -0.896412 -0.139303 0 0
    11 4.100998 14.127775 2.483028 0.016628 -0.517677 0.855415 0 0
    11 2.855086 10.633470 2.659710 -0.957721 -0.204001 -0.202862 0 0
  phy
    11 4.100998 14.127775 2.483028 0.016628 -0.517677 0.855415 0 0
    11 0.000000 10.429357 3.499180 -0.994667 -0.071671 0.074173 0 0
    11 2.855086 10.633470 2.659710 -0.957721 -0.204001 -0.202862 0 0
  phy
    11 3.955694 11.094366 1.060175 -0.420761 -0.896412 -0.139303 0 0
    11 2.855086 10.633470 2.659710 -0.957721 -0.204001 -0.202862 0 0
    11 2.911761 11.874824 -2.902744 -0.319717 -0.498040 -0.806063 0 0
  phy
    11 -4.100998 14.127775 2.483029 0.048605 0.534893 0.843521 0 0
    11 0.000000 21.916075 -0.099198 0.200275 0.000000 0.979740 0 0
    11 -2.592765 22.156093 -1.223090 0.508728 0.725391 0.463685 0 0
  phy
    11 -4.100998 14.127775 2.483029 0.048605 0.534893 0.843521 0 0
    11 -2.592765 22.156093 -1.223090 0.508728 0.725391 0.463685 0 0
    11 -5.031353 15.125152 -0.447819 0.063591 0.996058 -0.061844 0 0
  phy
    15 5.736098 19.287461 -3.299972 0.503532 0.642297 0.577849 0 0
    15 5.736098 19.287460 -0.607322 0.163797 -0.777163 0.607609 0 0
    15 4.944211 16.985680 -3.299972 0.806606 0.351499 -0.475221 0 0
  phy
    15 5.736098 19.287460 -0.607322 0.163797 -0.777163 0.607609 0 0
    15 4.944211 16.985679 -0.607323 0.136312 -0.349923 -0.926808 0 0
    15 4.944211 16.985680 -3.299972 0.806606 0.351499 -0.475221 0 0
  phy
    15 5.736098 19.287461 -3.299972 0.503532 0.642297 0.577849 0 0
    15 1.852015 20.942189 -3.299971 -0.136312 0.349923 0.926808 0 0
    15 5.736098 19.287460 -0.607322 0.163797 -0.777163 0.607609 0 0
  phy
    15 1.852015 20.942189 -3.299971 -0.136312 0.349923 0.926808 0 0
    15 1.852015 20.942188 -0.607321 -0.806606 -0.351499 0.475221 0 0
    15 5.736098 19.287460 -0.607322 0.163797 -0.777163 0.607609 0 0
  phy
    15 5.736098 19.287460 -0.607322 0.163797 -0.777163 0.607609 0 0
    15 1.060126 18.640407 -0.607322 -0.503532 -0.642297 -0.577849 0 0
    15 4.944211 16.985679 -0.607323 0.136312 -0.349923 -0.926808 0 0
  phy
    15 5.736098 19.287460 -0.607322 0.163797 -0.777163 0.607609 0 0
    15 1.852015 20.942188 -0.607321 -0.806606 -0.351499 0.475221 0 0
    15 1.060126 18.640407 -0.607322 -0.503532 -0.642297 -0.577849 0 0
  phy
    15 4.944211 16.985680 -3.299972 0.806606 0.351499 -0.475221 0 0
    15 4.944211 16.985679 -0.607323 0.136312 -0.349923 -0.926808 0 0
    15 1.060126 18.640408 -3.299972 -0.163797 0.777163 -0.607609 0 0
  phy
    15 1.060126 18.640408 -3.299972 -0.163797 0.777163 -0.607609 0 0
    15 4.944211 16.985679 -0.607323 0.136312 -0.349923 -0.926808 0 0
    15 1.060126 18.640407 -0.607322 -0.503532 -0.642297 -0.577849 0 0
  phy
    15 1.852015 20.942188 -0.607321 -0.806606 -0.351499 0.475221 0 0
    15 1.852015 20.942189 -3.299971 -0.136312 0.349923 0.926808 0 0
    15 1.060126 18.640408 -3.299972 -0.163797 0.777163 -0.607609 0 0
  phy
    15 1.852015 20.942188 -0.607321 -0.806606 -0.351499 0.475221 0 0
    15 1.060126 18.640408 -3.299972 -0.163797 0.777163 -0.607609 0 0
    15 1.060126 18.640407 -0.607322 -0.503532 -0.642297 -0.577849 0 0
  phy
    15 1.852015 20.942189 -3.299971 -0.136312 0.349923 0.926808 0 0
    15 5.736098 19.287461 -3.299972 0.503532 0.642297 0.577849 0 0
    15 1.060126 18.640408 -3.299972 -0.163797 0.777163 -0.607609 0 0
  phy
    15 1.060126 18.640408 -3.299972 -0.163797 0.777163 -0.607609 0 0
    15 5.736098 19.287461 -3.299972 0.503532 0.642297 0.577849 0 0
    15 4.944211 16.985680 -3.299972 0.806606 0.351499 -0.475221 0 0
  phy
    16 5.285787 17.028723 -2.993199 -0.069982 0.471978 0.878828 0 0
    16 7.826765 7.559934 -2.069565 0.021743 0.899611 0.436150 0 0
    16 5.285790 17.028719 -1.291205 -0.165788 0.670983 -0.722700 0 0
  phy
    16 5.285790 17.028719 -1.291205 -0.165788 0.670983 -0.722700 0 0
    16 7.826765 7.559934 -2.069565 0.021743 0.899611 0.436150 0 0
    16 7.826768 7.559929 -0.958981 0.148796 0.635849 -0.757335 0 0
  phy
    16 7.826765 7.559934 -2.069565 0.021743 0.899611 0.436150 0 0
    16 9.130302 7.951410 -2.069567 0.165788 -0.670983 0.722700 0 0
    16 7.826768 7.559929 -0.958981 0.148796 0.635849 -0.757335 0 0
  phy
    16 9.130302 7.951410 -2.069567 0.165788 -0.670983 0.722700 0 0
    16 9.130305 7.951406 -0.941150 0.089144 -0.334007 -0.938346 0 0
    16 7.826768 7.559929 -0.958981 0.148796 0.635849 -0.757335 0 0
  phy
    16 7.826765 7.559934 -2.069565 0.021743 0.899611 0.436150 0 0
    16 5.285787 17.028723 -2.993199 -0.069982 0.471978 0.878828 0 0
    16 9.130302 7.951410 -2.069567 0.165788 -0.670983 0.722700 0 0
  phy
    16 5.285790 17.028719 -1.291205 -0.165788 0.670983 -0.722700 0 0
    16 7.826768 7.559929 -0.958981 0.148796 0.635849 -0.757335 0 0
    16 9.130305 7.951406 -0.941150 0.089144 -0.334007 -0.938346 0 0
  phy
    16 5.285790 17.028719 -1.291205 -0.165788 0.670983 -0.722700 0 0
    16 9.130305 7.951406 -0.941150 0.089144 -0.334007 -0.938346 0 0
    16 6.845453 18.230947 -1.291204 -0.001443 -0.833068 -0.553168 0 0
  phy
    16 6.845453 18.230947 -1.291204 -0.001443 -0.833068 -0.553168 0 0
    16 9.130302 7.951410 -2.069567 0.165788 -0.670983 0.722700 0 0
    16 6.845449 18.230951 -2.993199 -0.148511 -0.649055 0.746105 0 0
  phy
    16 6.845453 18.230947 -1.291204 -0.001443 -0.833068 -0.553168 0 0
    16 9.130305 7.951406 -0.941150 0.089144 -0.334007 -0.938346 0 0
    16 9.130302 7.951410 -2.069567 0.165788 -0.670983 0.722700 0 0
  phy
    16 5.285790 17.028719 -1.291205 -0.165788 0.670983 -0.722700 0 0
    16 6.845453 18.230947 -1.291204 -0.001443 -0.833068 -0.553168 0 0
    16 6.845449 18.230951 -2.993199 -0.148511 -0.649055 0.746105 0 0
  phy
    16 5.285787 17.028723 -2.993199 -0.069982 0.471978 0.878828 0 0
    16 6.845449 18.230951 -2.993199 -0.148511 -0.649055 0.746105 0 0
    16 9.130302 7.951410 -2.069567 0.165788 -0.670983 0.722700 0 0
  phy
    16 5.285787 17.028723 -2.993199 -0.069982 0.471978 0.878828 0 0
    16 5.285790 17.028719 -1.291205 -0.165788 0.670983 -0.722700 0 0
    16 6.845449 18.230951 -2.993199 -0.148511 -0.649055 0.746105 0 0
  phy
    17 7.832733 7.164144 -2.158079 -0.150540 0.693675 0.704381 0 0
    17 9.274311 7.601735 -2.158088 -0.031723 -0.529588 0.847662 0 0
    17 11.047206 -0.817817 -0.049469 0.128550 0.678483 0.723282 0 0
  phy
    17 9.274311 7.601735 -2.158088 -0.031723 -0.529588 0.847662 0 0
    17 11.802213 -0.599681 -0.046873 0.065750 -0.935580 0.346938 0 0
    17 11.047206 -0.817817 -0.049469 0.128550 0.678483 0.723282 0 0
  phy
    17 11.802272 -0.599861 0.740828 0.150583 -0.706756 -0.691246 0 0
    17 11.047206 -0.817817 -0.049469 0.128550 0.678483 0.723282 0 0
    17 11.802213 -0.599681 -0.046873 0.065750 -0.935580 0.346938 0 0
  phy
    17 11.802272 -0.599861 0.740828 0.150583 -0.706756 -0.691246 0 0
    17 11.047266 -0.817997 0.739050 0.064769 0.321611 -0.944654 0 0
    17 11.047206 -0.817817 -0.049469 0.128550 0.678483 0.723282 0 0
  phy
    17 11.047206 -0.817817 -0.049469 0.128550 0.678483 0.723282 0 0
    17 11.047266 -0.817997 0.739050 0.064769 0.321611 -0.944654 0 0
    17 7.832841 7.163816 -0.706055 -0.029756 0.821705 -0.569136 0 0
  phy
    17 11.047206 -0.817817 -0.049469 0.128550 0.678483 0.723282 0 0
    17 7.832841 7.163816 -0.706055 -0.029756 0.821705 -0.569136 0 0
    17 7.832733 7.164144 -2.158079 -0.150540 0.693675 0.704381 0 0
  phy
    17 11.047266 -0.817997 0.739050 0.064769 0.321611 -0.944654 0 0
    17 11.802272 -0.599861 0.740828 0.150583 -0.706756 -0.691246 0 0
    17 9.274419 7.601407 -0.706063 -0.128550 -0.678483 -0.723282 0 0
  phy
    17 11.047266 -0.817997 0.739050 0.064769 0.321611 -0.944654 0 0
    17 9.274419 7.601407 -0.706063 -0.128550 -0.678483 -0.723282 0 0
    17 7.832841 7.163816 -0.706055 -0.029756 0.821705 -0.569136 0 0
  phy
    17 11.802213 -0.599681 -0.046873 0.065750 -0.935580 0.346938 0 0
    17 9.274419 7.601407 -0.706063 -0.128550 -0.678483 -0.723282 0 0
    17 11.802272 -0.599861 0.740828 0.150583 -0.706756 -0.691246 0 0
  phy
    17 11.802213 -0.599681 -0.046873 0.065750 -0.935580 0.346938 0 0
    17 9.274311 7.601735 -2.158088 -0.031723 -0.529588 0.847662 0 0
    17 9.274419 7.601407 -0.706063 -0.128550 -0.678483 -0.723282 0 0
  phy
    17 7.832733 7.164144 -2.158079 -0.150540 0.693675 0.704381 0 0
    17 7.832841 7.163816 -0.706055 -0.029756 0.821705 -0.569136 0 0
    17 9.274419 7.601407 -0.706063 -0.128550 -0.678483 -0.723282 0 0
  phy
    17 7.832733 7.164144 -2.158079 -0.150540 0.693675 0.704381 0 0
    17 9.274419 7.601407 -0.706063 -0.128550 -0.678483 -0.723282 0 0
    17 9.274311 7.601735 -2.158088 -0.031723 -0.529588 0.847662 0 0
  phy
    22 -5.736099 19.287460 -3.299972 0.341431 -0.248956 0.906336 0 0
    22 -1.852016 20.942187 -0.607321 -0.585578 0.245536 0.772535 0 0
    22 -1.852016 20.942188 -3.299971 -0.001509 -0.868318 0.496006 0 0
  phy
    22 -5.736099 19.287460 -3.299972 0.341431 -0.248956 0.906336 0 0
    22 -5.736098 19.287459 -0.607322 0.212277 0.886123 0.411975 0 0
    22 -1.852016 20.942187 -0.607321 -0.585578 0.245536 0.772535 0 0
  phy
    22 -5.736098 19.287459 -0.607322 0.212277 0.886123 0.411975 0 0
    22 -4.944210 16.985678 -0.607323 0.197930 0.687194 -0.698991 0 0
    22 -1.060127 18.640406 -0.607322 -0.383612 0.513367 -0.767656 0 0
  phy
    22 -5.736098 19.287459 -0.607322 0.212277 0.886123 0.411975 0 0
    22 -1.060127 18.640406 -0.607322 -0.383612 0.513367 -0.767656 0 0
    22 -1.852016 20.942187 -0.607321 -0.585578 0.245536 0.772535 0 0
  phy
    22 -5.736099 19.287460 -3.299972 0.341431 -0.248956 0.906336 0 0
    22 -4.944211 16.985679 -3.299972 0.589332 -0.503839 -0.631533 0 0
    22 -5.736098 19.287459 -0.607322 0.212277 0.886123 0.411975 0 0
  phy
    22 -5.736098 19.287459 -0.607322 0.212277 0.886123 0.411975 0 0
    22 -4.944211 16.985679 -3.299972 0.589332 -0.503839 -0.631533 0 0
    22 -4.944210 16.985678 -0.607323 0.197930 0.687194 -0.698991 0 0
  phy
    22 -4.944210 16.985678 -0.607323 0.197930 0.687194 -0.698991 0 0
    22 -4.944211 16.985679 -3.299972 0.589332 -0.503839 -0.631533 0 0
    22 -1.060127 18.640406 -0.607322 -0.383612 0.513367 -0.767656 0 0
  phy
    22 -1.060127 18.640406 -0.607322 -0.383612 0.513367 -0.767656 0 0
    22 -4.944211 16.985679 -3.299972 0.589332 -0.503839 -0.631533 0 0
    22 -1.060127 18.640407 -3.299972 -0.434387 -0.697685 -0.569687 0 0
  phy
    22 -1.852016 20.942187 -0.607321 -0.585578 0.245536 0.772535 0 0
    22 -1.060127 18.640406 -0.607322 -0.383612 0.513367 -0.767656 0 0
    22 -1.060127 18.640407 -3.299972 -0.434387 -0.697685 -0.569687 0 0
  phy
    22 -1.852016 20.942187 -0.607321 -0.585578 0.245536 0.772535 0 0
    22 -1.060127 18.640407 -3.299972 -0.434387 -0.697685 -0.569687 0 0
    22 -1.852016 20.942188 -3.299971 -0.001509 -0.868318 0.496006 0 0
  phy
    22 -1.852016 20.942188 -3.299971 -0.001509 -0.868318 0.496006 0 0
    22 -4.944211 16.985679 -3.299972 0.589332 -0.503839 -0.631533 0 0
    22 -5.736099 19.287460 -3.299972 0.341431 -0.248956 0.906336 0 0
  phy
    22 -1.060127 18.640407 -3.299972 -0.434387 -0.697685 -0.569687 0 0
    22 -4.944211 16.985679 -3.299972 0.589332 -0.503839 -0.631533 0 0
    22 -1.852016 20.942188 -3.299971 -0.001509 -0.868318 0.496006 0 0
  phy
    23 -7.764158 7.543255 -2.147104 0.173659 -0.621424 0.763986 0 0
    23 -9.160969 7.955929 -0.958880 0.238939 0.616150 -0.750511 0 0
    23 -9.159650 7.959957 -2.147240 0.126889 0.671492 0.730067 0 0
  phy
    23 -7.765476 7.539226 -0.958744 0.007139 -0.653290 -0.757074 0 0
    23 -9.160969 7.955929 -0.958880 0.238939 0.616150 -0.750511 0 0
    23 -7.764158 7.543255 -2.147104 0.173659 -0.621424 0.763986 0 0
  phy
    23 -9.159650 7.959957 -2.147240 0.126889 0.671492 0.730067 0 0
    23 -5.299561 17.045421 -2.978659 -0.081612 -0.656416 0.749972 0 0
    23 -7.764158 7.543255 -2.147104 0.173659 -0.621424 0.763986 0 0
  phy
    23 -7.764158 7.543255 -2.147104 0.173659 -0.621424 0.763986 0 0
    23 -5.299561 17.045421 -2.978659 -0.081612 -0.656416 0.749972 0 0
    23 -7.765476 7.539226 -0.958744 0.007139 -0.653290 -0.757074 0 0
  phy
    23 -6.829418 18.213777 -1.310949 0.001997 0.657856 -0.753141 0 0
    23 -7.765476 7.539226 -0.958744 0.007139 -0.653290 -0.757074 0 0
    23 -5.301408 17.039774 -1.313233 -0.259162 -0.700071 -0.665384 0 0
  phy
    23 -7.765476 7.539226 -0.958744 0.007139 -0.653290 -0.757074 0 0
    23 -6.829418 18.213777 -1.310949 0.001997 0.657856 -0.753141 0 0
    23 -9.160969 7.955929 -0.958880 0.238939 0.616150 -0.750511 0 0
  phy
    23 -6.829418 18.213777 -1.310949 0.001997 0.657856 -0.753141 0 0
    23 -9.159650 7.959957 -2.147240 0.126889 0.671492 0.730067 0 0
    23 -9.160969 7.955929 -0.958880 0.238939 0.616150 -0.750511 0 0
  phy
    23 -9.159650 7.959957 -2.147240 0.126889 0.671492 0.730067 0 0
    23 -6.829418 18.213777 -1.310949 0.001997 0.657856 -0.753141 0 0
    23 -6.827570 18.219424 -2.976374 -0.153415 0.648339 0.745734 0 0
  phy
    23 -6.829418 18.213777 -1.310949 0.001997 0.657856 -0.753141 0 0
    23 -5.301408 17.039774 -1.313233 -0.259162 -0.700071 -0.665384 0 0
    23 -6.827570 18.219424 -2.976374 -0.153415 0.648339 0.745734 0 0
  phy
    23 -9.159650 7.959957 -2.147240 0.126889 0.671492 0.730067 0 0
    23 -6.827570 18.219424 -2.976374 -0.153415 0.648339 0.745734 0 0
    23 -5.299561 17.045421 -2.978659 -0.081612 -0.656416 0.749972 0 0
  phy
    23 -7.765476 7.539226 -0.958744 0.007139 -0.653290 -0.757074 0 0
    23 -5.299561 17.045421 -2.978659 -0.081612 -0.656416 0.749972 0 0
    23 -5.301408 17.039774 -1.313233 -0.259162 -0.700071 -0.665384 0 0
  phy
    23 -5.301408 17.039774 -1.313233 -0.259162 -0.700071 -0.665384 0 0
    23 -5.299561 17.045421 -2.978659 -0.081612 -0.656416 0.749972 0 0
    23 -6.827570 18.219424 -2.976374 -0.153415 0.648339 0.745734 0 0
  phy
    24 -10.977045 -0.845200 -0.028388 0.103444 -0.683506 0.722578 0 0
    24 -7.864160 7.174894 -0.794035 -0.040068 -0.832346 -0.552806 0 0
    24 -10.975992 -0.841981 0.802904 0.082566 -0.346637 -0.934359 0 0
  phy
    24 -10.977045 -0.845200 -0.028388 0.103444 -0.683506 0.722578 0 0
    24 -7.865876 7.169648 -2.148002 -0.142068 -0.693804 0.706012 0 0
    24 -7.864160 7.174894 -0.794035 -0.040068 -0.832346 -0.552806 0 0
  phy
    24 -11.773406 -0.616461 -0.025556 0.100577 0.921595 0.374897 0 0
    24 -9.210753 7.575578 -2.147868 -0.023594 0.512358 0.858448 0 0
    24 -10.977045 -0.845200 -0.028388 0.103444 -0.683506 0.722578 0 0
  phy
    24 -9.210753 7.575578 -2.147868 -0.023594 0.512358 0.858448 0 0
    24 -7.865876 7.169648 -2.148002 -0.142068 -0.693804 0.706012 0 0
    24 -10.977045 -0.845200 -0.028388 0.103444 -0.683506 0.722578 0 0
  phy
    24 -10.975992 -0.841981 0.802904 0.082566 -0.346637 -0.934359 0 0
    24 -11.773406 -0.616461 -0.025556 0.100577 0.921595 0.374897 0 0
    24 -10.977045 -0.845200 -0.028388 0.103444 -0.683506 0.722578 0 0
  phy
    24 -11.772353 -0.613245 0.805056 0.074763 0.707372 -0.702876 0 0
    24 -10.975992 -0.841981 0.802904 0.082566 -0.346637 -0.934359 0 0
    24 -9.209035 7.580823 -0.793902 -0.127066 0.679915 -0.722198 0 0
  phy
    24 -9.209035 7.580823 -0.793902 -0.127066 0.679915 -0.722198 0 0
    24 -10.975992 -0.841981 0.802904 0.082566 -0.346637 -0.934359 0 0
    24 -7.864160 7.174894 -0.794035 -0.040068 -0.832346 -0.552806 0 0
  phy
    24 -10.975992 -0.841981 0.802904 0.082566 -0.346637 -0.934359 0 0
    24 -11.772353 -0.613245 0.805056 0.074763 0.707372 -0.702876 0 0
    24 -11.773406 -0.616461 -0.025556 0.100577 0.921595 0.374897 0 0
  phy
    24 -11.773406 -0.616461 -0.025556 0.100577 0.921595 0.374897 0 0
    24 -11.772353 -0.613245 0.805056 0.074763 0.707372 -0.702876 0 0
    24 -9.209035 7.580823 -0.793902 -0.127066 0.679915 -0.722198 0 0
  phy
    24 -11.773406 -0.616461 -0.025556 0.100577 0.921595 0.374897 0 0
    24 -9.209035 7.580823 -0.793902 -0.127066 0.679915 -0.722198 0 0
    24 -9.210753 7.575578 -2.147868 -0.023594 0.512358 0.858448 0 0
  phy
    24 -9.210753 7.575578 -2.147868 -0.023594 0.512358 0.858448 0 0
    24 -9.209035 7.580823 -0.793902 -0.127066 0.679915 -0.722198 0 0
    24 -7.865876 7.169648 -2.148002 -0.142068 -0.693804 0.706012 0 0
  phy
    24 -7.865876 7.169648 -2.148002 -0.142068 -0.693804 0.706012 0 0
    24 -9.209035 7.580823 -0.793902 -0.127066 0.679915 -0.722198 0 0
    24 -7.864160 7.174894 -0.794035 -0.040068 -0.832346 -0.552806 0 0
  phy
    5 -1.738011 -16.316064 -2.178443 0.136269 -0.146686 0.979752 0 0
    5 -4.237886 -16.297949 -1.432594 0.093653 0.921133 0.377815 0 0
    5 -5.452891 -3.258148 -0.383691 -0.319044 0.518779 0.793145 0 0
  phy
    5 -5.452891 -3.258148 -0.383691 -0.319044 0.518779 0.793145 0 0
    5 -1.341185 -4.290834 -1.663264 -0.153276 -0.850551 0.503060 0 0
    5 -1.738011 -16.316064 -2.178443 0.136269 -0.146686 0.979752 0 0
  phy
    5 -4.219488 -16.495402 0.946007 0.280948 0.416732 -0.864525 0 0
    5 -4.237886 -16.297949 -1.432594 0.093653 0.921133 0.377815 0 0
    5 -1.738011 -16.316064 -2.178443 0.136269 -0.146686 0.979752 0 0
  phy
    5 -1.738011 -16.316064 -2.178443 0.136269 -0.146686 0.979752 0 0
    5 -1.738011 -16.511965 0.946007 0.189285 -0.935176 -0.299361 0 0
    5 -4.219488 -16.495402 0.946007 0.280948 0.416732 -0.864525 0 0
  phy
    5 -1.341185 -4.290834 -1.663264 -0.153276 -0.850551 0.503060 0 0
    5 -1.738011 -16.511965 0.946007 0.189285 -0.935176 -0.299361 0 0
    5 -1.738011 -16.316064 -2.178443 0.136269 -0.146686 0.979752 0 0
  phy
    5 -1.341185 -4.290834 -1.663264 -0.153276 -0.850551 0.503060 0 0
    5 -5.452891 -3.258148 -0.383691 -0.319044 0.518779 0.793145 0 0
    5 -1.341185 -4.290835 2.952398 -0.152554 -0.564114 -0.811482 0 0
  phy
    5 -1.341185 -4.290835 2.952398 -0.152554 -0.564114 -0.811482 0 0
    5 -5.452891 -3.258148 -0.383691 -0.319044 0.518779 0.793145 0 0
    5 -5.452891 -3.258149 2.565973 -0.015268 0.812211 -0.583164 0 0
  phy
    5 -5.452891 -3.258148 -0.383691 -0.319044 0.518779 0.793145 0 0
    5 -4.237886 -16.297949 -1.432594 0.093653 0.921133 0.377815 0 0
    5 -5.452891 -3.258149 2.565973 -0.015268 0.812211 -0.583164 0 0
  phy
    5 -4.237886 -16.297949 -1.432594 0.093653 0.921133 0.377815 0 0
    5 -4.219488 -16.495402 0.946007 0.280948 0.416732 -0.864525 0 0
    5 -5.452891 -3.258149 2.565973 -0.015268 0.812211 -0.583164 0 0
  phy
    5 -1.341185 -4.290835 2.952398 -0.152554 -0.564114 -0.811482 0 0
    5 -4.219488 -16.495402 0.946007 0.280948 0.416732 -0.864525 0 0
    5 -1.738011 -16.511965 0.946007 0.189285 -0.935176 -0.299361 0 0
  phy
    5 -4.219488 -16.495402 0.946007 0.280948 0.416732 -0.864525 0 0
    5 -1.341185 -4.290835 2.952398 -0.152554 -0.564114 -0.811482 0 0
    5 -5.452891 -3.258149 2.565973 -0.015268 0.812211 -0.583164 0 0
  phy
    5 -1.341185 -4.290835 2.952398 -0.152554 -0.564114 -0.811482 0 0
    5 -1.738011 -16.511965 0.946007 0.189285 -0.935176 -0.299361 0 0
    5 -1.341185 -4.290834 -1.663264 -0.153276 -0.850551 0.503060 0 0
  phy
    6 -1.762241 -16.557189 -2.392932 -0.062767 -0.902280 0.426557 0 0
    6 -1.360542 -31.452224 -0.047970 0.100140 -0.939133 -0.328634 0 0
    6 -1.354551 -31.452223 -2.681372 0.128549 -0.247539 0.960312 0 0
  phy
    6 -1.762241 -16.557189 -2.392932 -0.062767 -0.902280 0.426557 0 0
    6 -1.763275 -16.777265 0.704932 -0.168612 -0.577206 -0.799002 0 0
    6 -1.360542 -31.452224 -0.047970 0.100140 -0.939133 -0.328634 0 0
  phy
    6 -1.360542 -31.452224 -0.047970 0.100140 -0.939133 -0.328634 0 0
    6 -1.763275 -16.777265 0.704932 -0.168612 -0.577206 -0.799002 0 0
    6 -3.317877 -31.452223 -0.048671 0.047374 0.399479 -0.915518 0 0
  phy
    6 -3.317877 -31.452223 -0.048671 0.047374 0.399479 -0.915518 0 0
    6 -1.763275 -16.777265 0.704932 -0.168612 -0.577206 -0.799002 0 0
    6 -4.136311 -16.760702 0.704932 -0.066920 0.871642 -0.485554 0 0
  phy
    6 -1.360542 -31.452224 -0.047970 0.100140 -0.939133 -0.328634 0 0
    6 -3.317877 -31.452223 -0.048671 0.047374 0.399479 -0.915518 0 0
    6 -3.306827 -31.452223 -1.921927 0.144839 0.922497 0.357800 0 0
  phy
    6 -3.306827 -31.452223 -1.921927 0.144839 0.922497 0.357800 0 0
    6 -1.354551 -31.452223 -2.681372 0.128549 -0.247539 0.960312 0 0
    6 -1.360542 -31.452224 -0.047970 0.100140 -0.939133 -0.328634 0 0
  phy
    6 -4.136311 -16.760702 0.704932 -0.066920 0.871642 -0.485554 0 0
    6 -3.306827 -31.452223 -1.921927 0.144839 0.922497 0.357800 0 0
    6 -3.317877 -31.452223 -0.048671 0.047374 0.399479 -0.915518 0 0
  phy
    6 -3.306827 -31.452223 -1.921927 0.144839 0.922497 0.357800 0 0
    6 -4.136311 -16.760702 0.704932 -0.066920 0.871642 -0.485554 0 0
    6 -4.134699 -16.540626 -1.635399 -0.105053 0.658653 0.745077 0 0
  phy
    6 -4.136311 -16.760702 0.704932 -0.066920 0.871642 -0.485554 0 0
    6 -1.763275 -16.777265 0.704932 -0.168612 -0.577206 -0.799002 0 0
    6 -4.134699 -16.540626 -1.635399 -0.105053 0.658653 0.745077 0 0
  phy
    6 -3.306827 -31.452223 -1.921927 0.144839 0.922497 0.357800 0 0
    6 -4.134699 -16.540626 -1.635399 -0.105053 0.658653 0.745077 0 0
    6 -1.354551 -31.452223 -2.681372 0.128549 -0.247539 0.960312 0 0
  phy
    6 -1.763275 -16.777265 0.704932 -0.168612 -0.577206 -0.799002 0 0
    6 -1.762241 -16.557189 -2.392932 -0.062767 -0.902280 0.426557 0 0
    6 -4.134699 -16.540626 -1.635399 -0.105053 0.658653 0.745077 0 0
  phy
    6 -1.354551 -31.452223 -2.681372 0.128549 -0.247539 0.960312 0 0
    6 -4.134699 -16.540626 -1.635399 -0.105053 0.658653 0.745077 0 0
    6 -1.762241 -16.557189 -2.392932 -0.062767 -0.902280 0.426557 0 0
  phy
    7 -2.800466 -32.557027 -2.006734 -0.518020 0.855366 0.002157 0 0
    7 -3.423084 -32.424168 1.163236 -0.071864 0.816132 -0.573380 0 0
    7 -1.391307 -32.551636 -2.805063 -0.359158 -0.883026 -0.302109 0 0
  phy
    7 -3.423084 -32.424168 1.163236 -0.071864 0.816132 -0.573380 0 0
    7 -1.488010 -32.418541 1.163236 -0.008466 -0.612889 -0.790124 0 0
    7 -1.391307 -32.551636 -2.805063 -0.359158 -0.883026 -0.302109 0 0
  phy
    7 -3.423084 -32.424168 1.163236 -0.071864 0.816132 -0.573380 0 0
    7 -2.800466 -32.557027 -2.006734 -0.518020 0.855366 0.002157 0 0
    7 -2.864418 -34.985246 -1.505317 0.144156 0.768769 0.623068 0 0
  phy
    7 -3.423084 -32.424168 1.163236 -0.071864 0.816132 -0.573380 0 0
    7 -2.864418 -34.985246 -1.505317 0.144156 0.768769 0.623068 0 0
    7 -3.501247 -34.987319 6.312303 0.609558 0.781953 -0.130341 0 0
  phy
    7 -1.488010 -32.418541 1.163236 -0.008466 -0.612889 -0.790124 0 0
    7 -3.423084 -32.424168 1.163236 -0.071864 0.816132 -0.573380 0 0
    7 -3.501247 -34.987319 6.312303 0.609558 0.781953 -0.130341 0 0
  phy
    7 -2.800466 -32.557027 -2.006734 -0.518020 0.855366 0.002157 0 0
    7 -1.468343 -34.979618 -2.296289 -0.233249 -0.614181 0.753907 0 0
    7 -2.864418 -34.985246 -1.505317 0.144156 0.768769 0.623068 0 0
  phy
    7 -1.468343 -34.979618 -2.296289 -0.233249 -0.614181 0.753907 0 0
    7 -2.800466 -32.557027 -2.006734 -0.518020 0.855366 0.002157 0 0
    7 -1.391307 -32.551636 -2.805063 -0.359158 -0.883026 -0.302109 0 0
  phy
    7 -1.468343 -34.979618 -2.296289 -0.233249 -0.614181 0.753907 0 0
    7 -1.566111 -34.979620 3.688860 0.215730 -0.874701 0.434003 0 0
    7 -2.864418 -34.985246 -1.505317 0.144156 0.768769 0.623068 0 0
  phy
    7 -1.468343 -34.979618 -2.296289 -0.233249 -0.614181 0.753907 0 0
    7 -1.391307 -32.551636 -2.805063 -0.359158 -0.883026 -0.302109 0 0
    7 -1.566111 -34.979620 3.688860 0.215730 -0.874701 0.434003 0 0
  phy
    7 -1.488010 -32.418541 1.163236 -0.008466 -0.612889 -0.790124 0 0
    7 -3.501247 -34.987319 6.312303 0.609558 0.781953 -0.130341 0 0
    7 -1.566111 -34.979620 3.688860 0.215730 -0.874701 0.434003 0 0
  phy
    7 -1.566111 -34.979620 3.688860 0.215730 -0.874701 0.434003 0 0
    7 -1.391307 -32.551636 -2.805063 -0.359158 -0.883026 -0.302109 0 0
    7 -1.488010 -32.418541 1.163236 -0.008466 -0.612889 -0.790124 0 0
  phy
    7 -1.566111 -34.979620 3.688860 0.215730 -0.874701 0.434003 0 0
    7 -3.501247 -34.987319 6.312303 0.609558 0.781953 -0.130341 0 0
    7 -2.864418 -34.985246 -1.505317 0.144156 0.768769 0.623068 0 0
  phy
    1 1.829989 -16.294389 -2.323599 0.346068 0.636109 0.689639 0 0
    1 4.573640 -16.276077 -1.562327 0.023553 -0.585325 0.810457 0 0
    1 4.560167 -16.491700 1.113992 0.240778 -0.683851 -0.688748 0 0
  phy
    1 4.560167 -16.491700 1.113992 0.240778 -0.683851 -0.688748 0 0
    1 1.829989 -16.509923 1.113992 0.192745 0.929474 -0.314527 0 0
    1 1.829989 -16.294389 -2.323599 0.346068 0.636109 0.689639 0 0
  phy
    1 1.829989 -16.294389 -2.323599 0.346068 0.636109 0.689639 0 0
    1 1.517896 -4.290834 -1.663264 -0.152601 0.681470 0.715760 0 0
    1 4.573640 -16.276077 -1.562327 0.023553 -0.585325 0.810457 0 0
  phy
    1 1.517896 -4.290834 -1.663264 -0.152601 0.681470 0.715760 0 0
    1 1.829989 -16.294389 -2.323599 0.346068 0.636109 0.689639 0 0
    1 1.829989 -16.509923 1.113992 0.192745 0.929474 -0.314527 0 0
  phy
    1 4.560167 -16.491700 1.113992 0.240778 -0.683851 -0.688748 0 0
    1 4.573640 -16.276077 -1.562327 0.023553 -0.585325 0.810457 0 0
    1 5.387033 -3.258148 -0.383691 -0.307978 -0.810003 0.499044 0 0
  phy
    1 5.387033 -3.258148 -0.383691 -0.307978 -0.810003 0.499044 0 0
    1 5.387033 -3.258149 2.565973 -0.073606 -0.643237 -0.762121 0 0
    1 4.560167 -16.491700 1.113992 0.240778 -0.683851 -0.688748 0 0
  phy
    1 5.387033 -3.258148 -0.383691 -0.307978 -0.810003 0.499044 0 0
    1 1.517896 -4.290834 -1.663264 -0.152601 0.681470 0.715760 0 0
    1 1.517896 -4.290835 2.952398 -0.149411 0.564359 -0.811896 0 0
  phy
    1 5.387033 -3.258148 -0.383691 -0.307978 -0.810003 0.499044 0 0
    1 1.517896 -4.290835 2.952398 -0.149411 0.564359 -0.811896 0 0
    1 5.387033 -3.258149 2.565973 -0.073606 -0.643237 -0.762121 0 0
  phy
    1 4.573640 -16.276077 -1.562327 0.023553 -0.585325 0.810457 0 0
    1 1.517896 -4.290834 -1.663264 -0.152601 0.681470 0.715760 0 0
    1 5.387033 -3.258148 -0.383691 -0.307978 -0.810003 0.499044 0 0
  phy
    1 4.560167 -16.491700 1.113992 0.240778 -0.683851 -0.688748 0 0
    1 1.517896 -4.290835 2.952398 -0.149411 0.564359 -0.811896 0 0
    1 1.829989 -16.509923 1.113992 0.192745 0.929474 -0.314527 0 0
  phy
    1 1.517896 -4.290835 2.952398 -0.149411 0.564359 -0.811896 0 0
    1 4.560167 -16.491700 1.113992 0.240778 -0.683851 -0.688748 0 0
    1 5.387033 -3.258149 2.565973 -0.073606 -0.643237 -0.762121 0 0
  phy
    1 1.517896 -4.290835 2.952398 -0.149411 0.564359 -0.811896 0 0
    1 1.517896 -4.290834 -1.663264 -0.152601 0.681470 0.715760 0 0
    1 1.829989 -16.509923 1.113992 0.192745 0.929474 -0.314527 0 0
  phy
    2 1.472045 -31.452225 -2.656367 0.107055 0.696543 0.709483 0 0
    2 1.477646 -31.452224 -0.072688 0.111750 0.480795 -0.869683 0 0
    2 1.857786 -16.801814 0.848755 -0.153562 0.906505 -0.393278 0 0
  phy
    2 1.472045 -31.452225 -2.656367 0.107055 0.696543 0.709483 0 0
    2 1.857786 -16.801814 0.848755 -0.153562 0.906505 -0.393278 0 0
    2 1.856648 -16.559679 -2.559585 -0.111451 0.715645 0.689515 0 0
  phy
    2 4.468654 -16.783592 0.848755 -0.050541 -0.703492 -0.708904 0 0
    2 1.477646 -31.452224 -0.072688 0.111750 0.480795 -0.869683 0 0
    2 3.426117 -31.452224 -0.073544 0.111314 -0.680390 -0.724347 0 0
  phy
    2 1.477646 -31.452224 -0.072688 0.111750 0.480795 -0.869683 0 0
    2 4.468654 -16.783592 0.848755 -0.050541 -0.703492 -0.708904 0 0
    2 1.857786 -16.801814 0.848755 -0.153562 0.906505 -0.393278 0 0
  phy
    2 3.413133 -31.452225 -1.897056 0.154886 -0.927548 0.340096 0 0
    2 3.426117 -31.452224 -0.073544 0.111314 -0.680390 -0.724347 0 0
    2 1.477646 -31.452224 -0.072688 0.111750 0.480795 -0.869683 0 0
  phy
    2 1.477646 -31.452224 -0.072688 0.111750 0.480795 -0.869683 0 0
    2 1.472045 -31.452225 -2.656367 0.107055 0.696543 0.709483 0 0
    2 3.413133 -31.452225 -1.897056 0.154886 -0.927548 0.340096 0 0
  phy
    2 4.468654 -16.783592 0.848755 -0.050541 -0.703492 -0.708904 0 0
    2 3.426117 -31.452224 -0.073544 0.111314 -0.680390 -0.724347 0 0
    2 3.413133 -31.452225 -1.897056 0.154886 -0.927548 0.340096 0 0
  phy
    2 3.413133 -31.452225 -1.897056 0.154886 -0.927548 0.340096 0 0
    2 4.466881 -16.541457 -1.802051 -0.110057 -0.667965 0.736010 0 0
    2 4.468654 -16.783592 0.848755 -0.050541 -0.703492 -0.708904 0 0
  phy
    2 1.857786 -16.801814 0.848755 -0.153562 0.906505 -0.393278 0 0
    2 4.468654 -16.783592 0.848755 -0.050541 -0.703492 -0.708904 0 0
    2 4.466881 -16.541457 -1.802051 -0.110057 -0.667965 0.736010 0 0
  phy
    2 1.472045 -31.452225 -2.656367 0.107055 0.696543 0.709483 0 0
    2 4.466881 -16.541457 -1.802051 -0.110057 -0.667965 0.736010 0 0
    2 3.413133 -31.452225 -1.897056 0.154886 -0.927548 0.340096 0 0
  phy
    2 1.856648 -16.559679 -2.559585 -0.111451 0.715645 0.689515 0 0
    2 1.857786 -16.801814 0.848755 -0.153562 0.906505 -0.393278 0 0
    2 4.466881 -16.541457 -1.802051 -0.110057 -0.667965 0.736010 0 0
  phy
    2 1.856648 -16.559679 -2.559585 -0.111451 0.715645 0.689515 0 0
    2 4.466881 -16.541457 -1.802051 -0.110057 -0.667965 0.736010 0 0
    2 1.472045 -31.452225 -2.656367 0.107055 0.696543 0.709483 0 0
  phy
    3 3.447326 -32.412237 1.163235 -0.073380 -0.818943 -0.569165 0 0
    3 2.825303 -32.545095 -2.006735 -0.520145 -0.854022 0.009747 0 0
    3 1.419539 -32.564376 -2.797706 -0.356449 0.881958 -0.308373 0 0
  phy
    3 1.512271 -32.431518 1.163235 -0.008660 0.611116 -0.791494 0 0
    3 3.447326 -32.412237 1.163235 -0.073380 -0.818943 -0.569165 0 0
    3 1.419539 -32.564376 -2.797706 -0.356449 0.881958 -0.308373 0 0
  phy
    3 3.447326 -32.412237 1.163235 -0.073380 -0.818943 -0.569165 0 0
    3 2.894631 -34.972267 -1.505319 0.143030 -0.766533 0.626075 0 0
    3 2.825303 -32.545095 -2.006735 -0.520145 -0.854022 0.009747 0 0
  phy
    3 3.447326 -32.412237 1.163235 -0.073380 -0.818943 -0.569165 0 0
    3 3.531992 -34.972269 6.308140 0.607700 -0.784503 -0.123512 0 0
    3 2.894631 -34.972267 -1.505319 0.143030 -0.766533 0.626075 0 0
  phy
    3 3.447326 -32.412237 1.163235 -0.073380 -0.818943 -0.569165 0 0
    3 1.512271 -32.431518 1.163235 -0.008660 0.611116 -0.791494 0 0
    3 3.531992 -34.972269 6.308140 0.607700 -0.784503 -0.123512 0 0
  phy
    3 1.498965 -34.991547 -2.296291 -0.233758 0.617155 0.751316 0 0
    3 2.825303 -32.545095 -2.006735 -0.520145 -0.854022 0.009747 0 0
    3 2.894631 -34.972267 -1.505319 0.143030 -0.766533 0.626075 0 0
  phy
    3 2.825303 -32.545095 -2.006735 -0.520145 -0.854022 0.009747 0 0
    3 1.498965 -34.991547 -2.296291 -0.233758 0.617155 0.751316 0 0
    3 1.419539 -32.564376 -2.797706 -0.356449 0.881958 -0.308373 0 0
  phy
    3 2.894631 -34.972267 -1.505319 0.143030 -0.766533 0.626075 0 0
    3 1.597196 -34.997205 3.694535 0.218106 0.876899 0.428344 0 0
    3 1.498965 -34.991547 -2.296291 -0.233758 0.617155 0.751316 0 0
  phy
    3 1.498965 -34.991547 -2.296291 -0.233758 0.617155 0.751316 0 0
    3 1.597196 -34.997205 3.694535 0.218106 0.876899 0.428344 0 0
    3 1.419539 -32.564376 -2.797706 -0.356449 0.881958 -0.308373 0 0
  phy
    3 1.512271 -32.431518 1.163235 -0.008660 0.611116 -0.791494 0 0
    3 1.597196 -34.997205 3.694535 0.218106 0.876899 0.428344 0 0
    3 3.531992 -34.972269 6.308140 0.607700 -0.784503 -0.123512 0 0
  phy
    3 1.597196 -34.997205 3.694535 0.218106 0.876899 0.428344 0 0
    3 1.512271 -32.431518 1.163235 -0.008660 0.611116 -0.791494 0 0
    3 1.419539 -32.564376 -2.797706 -0.356449 0.881958 -0.308373 0 0
  phy
    3 2.894631 -34.972267 -1.505319 0.143030 -0.766533 0.626075 0 0
    3 3.531992 -34.972269 6.308140 0.607700 -0.784503 -0.123512 0 0
    3 1.597196 -34.997205 3.694535 0.218106 0.876899 0.428344 0 0
  phy
    14 -2.524268 30.138063 -2.465772 0.426499 -0.792005 0.436836 0 0
    14 -0.007473 30.308420 -3.892129 0.466686 -0.000002 0.884423 0 0
    14 -2.688046 27.714212 -3.158832 -0.060384 -0.851488 0.520886 0 0
  phy
    14 -0.007473 30.308420 -3.892129 0.466686 -0.000002 0.884423 0 0
    14 -0.007473 28.026468 -4.472660 -0.141936 -0.000003 0.989876 0 0
    14 -2.688046 27.714212 -3.158832 -0.060384 -0.851488 0.520886 0 0
  phy
    14 -2.688046 27.714212 -3.158832 -0.060384 -0.851488 0.520886 0 0
    14 -0.007473 28.026468 -4.472660 -0.141936 -0.000003 0.989876 0 0
    14 -1.638354 22.348272 -2.419673 -0.501416 -0.489636 0.713330 0 0
  phy
    14 -2.688046 27.714212 -3.158832 -0.060384 -0.851488 0.520886 0 0
    14 -2.992479 29.706859 0.791057 0.208263 -0.952306 -0.223025 0 0
    14 -2.524268 30.138063 -2.465772 0.426499 -0.792005 0.436836 0 0
  phy
    14 -3.176824 26.963715 -0.001055 -0.152682 -0.978927 -0.135609 0 0
    14 -2.992479 29.706859 0.791057 0.208263 -0.952306 -0.223025 0 0
    14 -2.688046 27.714212 -3.158832 -0.060384 -0.851488 0.520886 0 0
  phy
    14 -2.688046 27.714212 -3.158832 -0.060384 -0.851488 0.520886 0 0
    14 -1.954411 21.869813 -0.642219 -0.579783 -0.795242 -0.177319 0 0
    14 -3.176824 26.963715 -0.001055 -0.152682 -0.978927 -0.135609 0 0
  phy
    14 -1.638354 22.348272 -2.419673 -0.501416 -0.489636 0.713330 0 0
    14 -1.954411 21.869813 -0.642219 -0.579783 -0.795242 -0.177319 0 0
    14 -2.688046 27.714212 -3.158832 -0.060384 -0.851488 0.520886 0 0
  phy
    14 -1.160667 32.287721 -1.348340 0.686020 -0.471626 0.554027 0 0
    14 -0.007473 30.308420 -3.892129 0.466686 -0.000002 0.884423 0 0
    14 -2.524268 30.138063 -2.465772 0.426499 -0.792005 0.436836 0 0
  phy
    14 -2.524268 30.138063 -2.465772 0.426499 -0.792005 0.436836 0 0
    14 -1.638519 32.069462 -0.254347 0.848274 -0.512067 -0.134975 0 0
    14 -1.160667 32.287721 -1.348340 0.686020 -0.471626 0.554027 0 0
  phy
    14 -2.524268 30.138063 -2.465772 0.426499 -0.792005 0.436836 0 0
    14 -2.992479 29.706859 0.791057 0.208263 -0.952306 -0.223025 0 0
    14 -1.638519 32.069462 -0.254347 0.848274 -0.512067 -0.134975 0 0
  phy
    14 1.624593 32.069413 -0.254404 0.862102 0.483994 -0.150098 0 0
    14 -1.638519 32.069462 -0.254347 0.848274 -0.512067 -0.134975 0 0
    14 -1.160667 31.459137 2.040332 0.795315 -0.282784 -0.536197 0 0
  phy
    14 -1.160667 31.459137 2.040332 0.795315 -0.282784 -0.536197 0 0
    14 1.146718 31.459091 2.040332 0.729732 0.457417 -0.508193 0 0
    14 1.624593 32.069413 -0.254404 0.862102 0.483994 -0.150098 0 0
  phy
    14 1.146718 32.287721 -1.348340 0.834004 0.382739 0.397427 0 0
    14 -1.638519 32.069462 -0.254347 0.848274 -0.512067 -0.134975 0 0
    14 1.624593 32.069413 -0.254404 0.862102 0.483994 -0.150098 0 0
  phy
    14 2.968235 29.726784 0.811657 0.225015 0.931438 -0.285994 0 0
    14 1.624593 32.069413 -0.254404 0.862102 0.483994 -0.150098 0 0
    14 1.146718 31.459091 2.040332 0.729732 0.457417 -0.508193 0 0
  phy
    14 1.624593 32.069413 -0.254404 0.862102 0.483994 -0.150098 0 0
    14 2.968235 29.726784 0.811657 0.225015 0.931438 -0.285994 0 0
    14 2.509321 30.138063 -2.465772 0.359267 0.855581 0.372704 0 0
  phy
    14 1.146718 32.287721 -1.348340 0.834004 0.382739 0.397427 0 0
    14 1.624593 32.069413 -0.254404 0.862102 0.483994 -0.150098 0 0
    14 2.509321 30.138063 -2.465772 0.359267 0.855581 0.372704 0 0
  phy
    14 -1.160667 32.287721 -1.348340 0.686020 -0.471626 0.554027 0 0
    14 -0.006974 32.378147 -1.801461 0.895251 -0.000001 0.445562 0 0
    14 -0.007473 30.308420 -3.892129 0.466686 -0.000002 0.884423 0 0
  phy
    14 -1.638519 32.069462 -0.254347 0.848274 -0.512067 -0.134975 0 0
    14 -0.006974 32.378147 -1.801461 0.895251 -0.000001 0.445562 0 0
    14 -1.160667 32.287721 -1.348340 0.686020 -0.471626 0.554027 0 0
  phy
    14 2.968235 29.726784 0.811657 0.225015 0.931438 -0.285994 0 0
    14 1.495757 29.956489 2.823989 0.205543 0.364956 -0.908052 0 0
    14 1.593567 26.006402 2.768819 -0.159717 0.521599 -0.838108 0 0
  phy
    14 1.495757 29.956489 2.823989 0.205543 0.364956 -0.908052 0 0
    14 2.968235 29.726784 0.811657 0.225015 0.931438 -0.285994 0 0
    14 1.146718 31.459091 2.040332 0.729732 0.457417 -0.508193 0 0
  phy
    14 -1.160667 31.459137 2.040332 0.795315 -0.282784 -0.536197 0 0
    14 1.495757 29.956489 2.823989 0.205543 0.364956 -0.908052 0 0
    14 1.146718 31.459091 2.040332 0.729732 0.457417 -0.508193 0 0
  phy
    14 1.495757 29.956489 2.823989 0.205543 0.364956 -0.908052 0 0
    14 -1.160667 31.459137 2.040332 0.795315 -0.282784 -0.536197 0 0
    14 -1.510346 29.956489 2.823989 0.113338 -0.289693 -0.950385 0 0
  phy
    14 1.593567 26.006402 2.768819 -0.159717 0.521599 -0.838108 0 0
    14 1.495757 29.956489 2.823989 0.205543 0.364956 -0.908052 0 0
    14 -1.510346 29.956489 2.823989 0.113338 -0.289693 -0.950385 0 0
  phy
    14 -1.121360 23.196941 2.010638 -0.454043 -0.270994 -0.848768 0 0
    14 1.593567 26.006402 2.768819 -0.159717 0.521599 -0.838108 0 0
    14 -1.608156 26.006405 2.768819 -0.159339 -0.659139 -0.734947 0 0
  phy
    14 1.593567 26.006402 2.768819 -0.159717 0.521599 -0.838108 0 0
    14 -1.121360 23.196941 2.010638 -0.454043 -0.270994 -0.848768 0 0
    14 0.834532 23.196941 2.010638 -0.724267 0.238220 -0.647061 0 0
  phy
    14 -1.608156 26.006405 2.768819 -0.159339 -0.659139 -0.734947 0 0
    14 -1.954411 21.869813 -0.642219 -0.579783 -0.795242 -0.177319 0 0
    14 -1.121360 23.196941 2.010638 -0.454043 -0.270994 -0.848768 0 0
  phy
    14 0.834532 23.196941 2.010638 -0.724267 0.238220 -0.647061 0 0
    14 -1.121360 23.196941 2.010638 -0.454043 -0.270994 -0.848768 0 0
    14 -1.954411 21.869813 -0.642219 -0.579783 -0.795242 -0.177319 0 0
  phy
    14 1.921473 21.869813 -0.642219 -0.628609 0.769826 -0.110535 0 0
    14 -1.954411 21.869813 -0.642219 -0.579783 -0.795242 -0.177319 0 0
    14 -1.638354 22.348272 -2.419673 -0.501416 -0.489636 0.713330 0 0
  phy
    14 1.921473 21.869813 -0.642219 -0.628609 0.769826 -0.110535 0 0
    14 -1.638354 22.348272 -2.419673 -0.501416 -0.489636 0.713330 0 0
    14 -0.016469 22.550279 -3.170120 -0.537537 -0.000002 0.843240 0 0
  phy
    14 -1.638354 22.348272 -2.419673 -0.501416 -0.489636 0.713330 0 0
    14 -0.007473 28.026468 -4.472660 -0.141936 -0.000003 0.989876 0 0
    14 -0.016469 22.550279 -3.170120 -0.537537 -0.000002 0.843240 0 0
  phy
    14 -1.638519 32.069462 -0.254347 0.848274 -0.512067 -0.134975 0 0
    14 -2.992479 29.706859 0.791057 0.208263 -0.952306 -0.223025 0 0
    14 -1.160667 31.459137 2.040332 0.795315 -0.282784 -0.536197 0 0
  phy
    14 -2.992479 29.706859 0.791057 0.208263 -0.952306 -0.223025 0 0
    14 -1.510346 29.956489 2.823989 0.113338 -0.289693 -0.950385 0 0
    14 -1.160667 31.459137 2.040332 0.795315 -0.282784 -0.536197 0 0
  phy
    14 2.673099 27.714212 -3.158832 -0.087319 0.813736 0.574638 0 0
    14 1.921473 21.869813 -0.642219 -0.628609 0.769826 -0.110535 0 0
    14 1.605416 22.348272 -2.419673 -0.304762 0.572295 0.761314 0 0
  phy
    14 1.921473 21.869813 -0.642219 -0.628609 0.769826 -0.110535 0 0
    14 2.673099 27.714212 -3.158832 -0.087319 0.813736 0.574638 0 0
    14 3.161877 26.963715 -0.001055 -0.118273 0.988060 -0.098737 0 0
  phy
    14 2.673099 27.714212 -3.158832 -0.087319 0.813736 0.574638 0 0
    14 2.509321 30.138063 -2.465772 0.359267 0.855581 0.372704 0 0
    14 3.161877 26.963715 -0.001055 -0.118273 0.988060 -0.098737 0 0
  phy
    14 -0.007473 30.308420 -3.892129 0.466686 -0.000002 0.884423 0 0
    14 2.509321 30.138063 -2.465772 0.359267 0.855581 0.372704 0 0
    14 2.673099 27.714212 -3.158832 -0.087319 0.813736 0.574638 0 0
  phy
    14 2.673099 27.714212 -3.158832 -0.087319 0.813736 0.574638 0 0
    14 -0.007473 28.026468 -4.472660 -0.141936 -0.000003 0.989876 0 0
    14 -0.007473 30.308420 -3.892129 0.466686 -0.000002 0.884423 0 0
  phy
    14 1.605416 22.348272 -2.419673 -0.304762 0.572295 0.761314 0 0
    14 -0.007473 28.026468 -4.472660 -0.141936 -0.000003 0.989876 0 0
    14 2.673099 27.714212 -3.158832 -0.087319 0.813736 0.574638 0 0
  phy
    14 2.968235 29.726784 0.811657 0.225015 0.931438 -0.285994 0 0
    14 1.593567 26.006402 2.768819 -0.159717 0.521599 -0.838108 0 0
    14 3.161877 26.963715 -0.001055 -0.118273 0.988060 -0.098737 0 0
  phy
    14 2.509321 30.138063 -2.465772 0.359267 0.855581 0.372704 0 0
    14 2.968235 29.726784 0.811657 0.225015 0.931438 -0.285994 0 0
    14 3.161877 26.963715 -0.001055 -0.118273 0.988060 -0.098737 0 0
  phy
    14 1.146718 32.287721 -1.348340 0.834004 0.382739 0.397427 0 0
    14 2.509321 30.138063 -2.465772 0.359267 0.855581 0.372704 0 0
    14 -0.007473 30.308420 -3.892129 0.466686 -0.000002 0.884423 0 0
  phy
    14 -0.007473 30.308420 -3.892129 0.466686 -0.000002 0.884423 0 0
    14 -0.006974 32.378147 -1.801461 0.895251 -0.000001 0.445562 0 0
    14 1.146718 32.287721 -1.348340 0.834004 0.382739 0.397427 0 0
  phy
    14 1.146718 32.287721 -1.348340 0.834004 0.382739 0.397427 0 0
    14 -0.006974 32.378147 -1.801461 0.895251 -0.000001 0.445562 0 0
    14 -1.638519 32.069462 -0.254347 0.848274 -0.512067 -0.134975 0 0
  phy
    14 1.921473 21.869813 -0.642219 -0.628609 0.769826 -0.110535 0 0
    14 -0.016469 22.550279 -3.170120 -0.537537 -0.000002 0.843240 0 0
    14 1.605416 22.348272 -2.419673 -0.304762 0.572295 0.761314 0 0
  phy
    14 1.921473 21.869813 -0.642219 -0.628609 0.769826 -0.110535 0 0
    14 0.834532 23.196941 2.010638 -0.724267 0.238220 -0.647061 0 0
    14 -1.954411 21.869813 -0.642219 -0.579783 -0.795242 -0.177319 0 0
  phy
    14 1.921473 21.869813 -0.642219 -0.628609 0.769826 -0.110535 0 0
    14 1.593567 26.006402 2.768819 -0.159717 0.521599 -0.838108 0 0
    14 0.834532 23.196941 2.010638 -0.724267 0.238220 -0.647061 0 0
  phy
    14 1.593567 26.006402 2.768819 -0.159717 0.521599 -0.838108 0 0
    14 1.921473 21.869813 -0.642219 -0.628609 0.769826 -0.110535 0 0
    14 3.161877 26.963715 -0.001055 -0.118273 0.988060 -0.098737 0 0
  phy
    14 -0.016469 22.550279 -3.170120 -0.537537 -0.000002 0.843240 0 0
    14 -0.007473 28.026468 -4.472660 -0.141936 -0.000003 0.989876 0 0
    14 1.605416 22.348272 -2.419673 -0.304762 0.572295 0.761314 0 0
  phy
    14 -1.608156 26.006405 2.768819 -0.159339 -0.659139 -0.734947 0 0
    14 1.593567 26.006402 2.768819 -0.159717 0.521599 -0.838108 0 0
    14 -1.510346 29.956489 2.823989 0.113338 -0.289693 -0.950385 0 0
  phy
    14 -1.608156 26.006405 2.768819 -0.159339 -0.659139 -0.734947 0 0
    14 -2.992479 29.706859 0.791057 0.208263 -0.952306 -0.223025 0 0
    14 -3.176824 26.963715 -0.001055 -0.152682 -0.978927 -0.135609 0 0
  phy
    14 -1.608156 26.006405 2.768819 -0.159339 -0.659139 -0.734947 0 0
    14 -1.510346 29.956489 2.823989 0.113338 -0.289693 -0.950385 0 0
    14 -2.992479 29.706859 0.791057 0.208263 -0.952306 -0.223025 0 0
  phy
    14 -3.176824 26.963715 -0.001055 -0.152682 -0.978927 -0.135609 0 0
    14 -1.954411 21.869813 -0.642219 -0.579783 -0.795242 -0.177319 0 0
    14 -1.608156 26.006405 2.768819 -0.159339 -0.659139 -0.734947 0 0
end
