// Created by Crowbar 0.74
version 1
nodes
  0 "ValveBiped.Bip01_Pelvis" -1
  1 "ValveBiped.Bip01_Spine" 0
  2 "ValveBiped.Bip01_Spine1" 1
  3 "ValveBiped.Bip01_Spine2" 2
  4 "ValveBiped.Bip01_Spine4" 3
  5 "ValveBiped.Bip01_Neck1" 4
  6 "ValveBiped.Bip01_Head1" 5
  7 "ValveBiped.forward" 6
  8 "ValveBiped.Bip01_R_Eye" 6
  9 "ValveBiped.Bip01_L_Eye" 6
  10 "ValveBiped.Bip01_L_Clavicle" 4
  11 "ValveBiped.Bip01_L_UpperArm" 10
  12 "ValveBiped.Bip01_L_Forearm" 11
  13 "ValveBiped.Bip01_L_Ulna" 12
  14 "ValveBiped.Bip01_L_Wrist" 12
  15 "ValveBiped.Bip01_L_Hand" 12
  16 "ValveBiped.Bip01_L_Finger3" 15
  17 "ValveBiped.Bip01_L_Finger31" 16
  18 "ValveBiped.Bip01_L_Finger32" 17
  19 "ValveBiped.Bip01_L_Finger2" 15
  20 "ValveBiped.Bip01_L_Finger21" 19
  21 "ValveBiped.Bip01_L_Finger22" 20
  22 "ValveBiped.Bip01_L_Finger1" 15
  23 "ValveBiped.Bip01_L_Finger11" 22
  24 "ValveBiped.Bip01_L_Finger12" 23
  25 "ValveBiped.Bip01_L_Finger4" 15
  26 "ValveBiped.Bip01_L_Finger41" 25
  27 "ValveBiped.Bip01_L_Finger42" 26
  28 "ValveBiped.Bip01_L_Finger0" 15
  29 "ValveBiped.Bip01_L_Finger01" 28
  30 "ValveBiped.Bip01_L_Finger02" 29
  31 "ValveBiped.Bip01_L_Trapezius" 10
  32 "ValveBiped.Bip01_R_Clavicle" 4
  33 "ValveBiped.Bip01_R_UpperArm" 32
  34 "ValveBiped.Bip01_R_Forearm" 33
  35 "ValveBiped.Bip01_R_Hand" 34
  36 "ValveBiped.Bip01_R_Finger2" 35
  37 "ValveBiped.Bip01_R_Finger21" 36
  38 "ValveBiped.Bip01_R_Finger22" 37
  39 "ValveBiped.Bip01_R_Finger1" 35
  40 "ValveBiped.Bip01_R_Finger11" 39
  41 "ValveBiped.Bip01_R_Finger12" 40
  42 "ValveBiped.Bip01_R_Finger3" 35
  43 "ValveBiped.Bip01_R_Finger31" 42
  44 "ValveBiped.Bip01_R_Finger32" 43
  45 "ValveBiped.Bip01_R_Finger4" 35
  46 "ValveBiped.Bip01_R_Finger41" 45
  47 "ValveBiped.Bip01_R_Finger42" 46
  48 "ValveBiped.Bip01_R_Finger0" 35
  49 "ValveBiped.Bip01_R_Finger01" 48
  50 "ValveBiped.Bip01_R_Finger02" 49
  51 "ValveBiped.Bip01_R_Wrist" 34
  52 "ValveBiped.Bip01_R_Ulna" 34
  53 "ValveBiped.Bip01_R_Trapezius" 32
  54 "ValveBiped.Bip01_L_Thigh" 0
  55 "ValveBiped.Bip01_L_Calf" 54
  56 "ValveBiped.Bip01_L_Foot" 55
  57 "ValveBiped.Bip01_L_Toe0" 56
  58 "ValveBiped.Bip01_L_Ankle" 55
  59 "ValveBiped.Bip01_R_Thigh" 0
  60 "ValveBiped.Bip01_R_Calf" 59
  61 "ValveBiped.Bip01_R_Foot" 60
  62 "ValveBiped.Bip01_R_Toe0" 61
  63 "ValveBiped.Bip01_R_Ankle" 60
  64 "j_hair_r_01" 6
  65 "j_hair_r_02" 64
  66 "j_hair_r_03" 65
  67 "j_hair_l_01" 6
  68 "j_hair_l_02" 67
  69 "j_hair_l_03" 68
  70 "j_hair_l_04" 69
  71 "j_hair_l_05" 70
  72 "j_hair_f_01" 6
  73 "j_hair_f_02" 72
  74 "j_hair_b_01" 6
  75 "j_hair_b_02" 74
  76 "j_hair_b_03" 75
  77 "j_hair_b_04" 76
  78 "j_hair_bl_01" 74
  79 "j_hair_bl_02" 78
  80 "j_hair_br_01" 74
  81 "j_hair_br_02" 80
  82 "j_hair_br_03" 74
  83 "j_hair_br_04" 82
  84 "j_hair_bl_03" 74
  85 "j_hair_bl_04" 84
  86 "p_skirt_e_helper" 54
  87 "p_skirt_e_01" 86
  88 "p_skirt_e_02" 87
  89 "p_skirt_se_helper" 54
  90 "p_skirt_se_01" 89
  91 "p_skirt_se_02" 90
  92 "p_skirt_w_helper" 59
  93 "p_skirt_w_01" 92
  94 "p_skirt_w_02" 93
  95 "p_skirt_sw_helper" 59
  96 "p_skirt_sw_01" 95
  97 "p_skirt_sw_02" 96
  98 "p_skirt_n_helper" 0
  99 "p_skirt_n_01" 98
  100 "p_skirt_n_02" 99
  101 "p_skirt_nw_helper" 0
  102 "p_skirt_nw_01" 101
  103 "p_skirt_nw_02" 102
  104 "p_skirt_ne_helper" 0
  105 "p_skirt_ne_01" 104
  106 "p_skirt_ne_02" 105
  107 "p_sleeve_l_01" 12
  108 "p_sleeve_l_02" 107
  109 "p_sleeve_l_03" 108
  110 "ValveBiped.Bip01_L_Elbow" 11
  111 "p_sleeve_r_01" 34
  112 "p_sleeve_r_02" 111
  113 "p_sleeve_r_03" 112
  114 "ValveBiped.Bip01_R_Elbow" 33
end
skeleton
  time 0
    0 -0.000005 -0.788086 37.906250 1.570780 0.000012 -0.000012
    1 0.000005 4.210938 -1.688477 1.570785 -0.027963 1.570785
    2 3.833984 0.000000 0.000000 0.000000 0.000000 -0.112606
    3 3.613281 0.000000 0.000000 0.000000 0.000003 -0.012644
    4 7.539063 0.000000 0.000000 0.000000 0.000002 0.155812
    5 3.173828 0.000000 0.000000 3.135847 0.000647 0.224123
    6 2.964844 -0.000004 0.000000 0.000000 0.000000 0.109877
    7 -0.000004 0.000000 0.000000 -1.570790 -0.000001 -1.323624
    8 2.942585 -0.168736 1.373597 1.570896 -1.554009 0.174494
    9 2.951080 -0.167234 -1.326224 -1.570799 -1.507879 -2.967001
    10 2.021484 0.907227 0.852051 1.638349 -1.334134 2.900133
    11 4.976563 0.000000 0.000000 -1.393675 0.090116 -0.432329
    12 11.085938 0.014297 0.605957 -0.142585 -0.039723 -0.004119
    13 4.197487 0.000034 0.000008 -0.030886 -0.000001 0.000005
    14 8.394957 0.000068 -0.000004 -0.057558 -0.000001 0.000007
    15 11.195313 0.000000 -0.000004 1.505406 -0.038597 0.036303
    16 3.695313 0.266846 -0.728516 0.175148 -0.032049 -0.125563
    17 1.746094 -0.000011 0.000000 0.053873 -0.025060 0.059257
    18 0.958496 0.000008 0.000000 0.002323 0.039402 -0.237873
    19 3.763672 0.152344 0.071289 0.142309 -0.045478 -0.041599
    20 2.033203 0.000004 0.000000 0.004516 0.013250 -0.022959
    21 1.066406 0.000000 0.000000 -0.001239 -0.005668 -0.098970
    22 3.779297 -0.017242 0.794434 0.179642 -0.000011 -0.041982
    23 1.627930 0.000004 -0.000001 -0.056518 0.000362 -0.020757
    24 0.955566 0.000000 0.000000 0.000002 -0.069720 -0.170028
    25 3.544922 0.198364 -1.489258 0.069606 -0.030798 -0.119315
    26 1.217773 0.000004 0.000000 0.128583 -0.025189 0.112311
    27 0.678711 0.000004 0.000001 0.011366 0.086979 -0.172878
    28 1.257813 -0.297607 1.250977 -1.496268 -0.629810 -0.354675
    29 1.392578 0.000009 0.000004 -0.153284 -0.111626 0.114334
    30 1.098633 0.000002 -0.000008 -0.000033 0.013121 -0.286835
    31 2.311729 0.045979 0.084272 -0.000001 -0.000002 0.000002
    32 2.019531 0.907227 -0.851563 -1.710131 1.334135 2.900095
    33 4.976563 0.000015 0.000000 1.465015 -0.055029 -0.380644
    34 11.117188 0.000000 0.000019 0.140188 -0.016971 -0.006197
    35 11.195313 0.000000 0.000004 -1.496986 0.038622 0.036299
    36 3.767578 0.151611 -0.072632 -0.142726 0.036710 -0.094638
    37 2.037109 0.000000 0.000000 -0.006580 -0.004720 -0.025628
    38 1.064453 0.000000 0.000000 0.001241 0.005666 -0.098970
    39 3.781250 -0.023926 -0.794434 -0.188817 0.014285 -0.109137
    40 1.627930 -0.000008 0.000000 0.013744 0.015534 -0.022278
    41 0.954590 0.000000 0.000000 -0.000004 0.069708 -0.170007
    42 3.697266 0.273438 0.726563 -0.179378 0.042658 -0.080204
    43 1.746094 -0.000015 0.000000 -0.015772 -0.021252 0.022578
    44 0.959473 -0.000004 -0.000002 -0.002326 -0.039404 -0.237894
    45 3.548828 0.211304 1.485352 -0.069985 0.039384 -0.068533
    46 1.216797 0.000004 0.000000 -0.033488 -0.037785 0.012102
    47 0.679688 0.000004 0.000001 -0.011373 -0.086974 -0.172876
    48 1.258789 -0.308350 -1.248047 1.369830 0.505090 -0.289915
    49 1.391602 0.000002 0.000000 0.120217 0.052811 0.100832
    50 1.098633 0.000004 0.000000 -0.000011 -0.013124 -0.286777
    51 8.464422 0.000078 0.000027 0.065178 0.000000 0.000005
    52 4.232210 0.000040 0.000031 0.034933 -0.000001 0.000012
    53 2.187280 0.005615 -0.083997 0.000002 -0.000003 0.000006
    54 3.982422 -0.000011 -0.000003 -1.568247 -0.022559 -1.604902
    55 15.929688 0.000000 0.000000 -0.007871 -0.039511 0.161743
    56 17.687500 0.000000 -0.000001 0.082056 0.030864 -1.186862
    57 6.199219 0.000000 0.000000 -0.011136 0.000936 -0.500438
    58 17.653549 -0.154161 0.043002 0.000000 0.000000 0.000009
    59 -3.982422 0.000011 0.000007 -1.573780 -0.022540 -1.530549
    60 15.929688 0.000000 0.000000 0.008872 0.042655 0.161713
    61 17.703125 0.000001 0.000000 -0.056660 -0.006357 -1.188252
    62 6.203125 -0.000002 0.000000 -0.078647 -0.006188 -0.498939
    63 17.653444 -0.154087 -0.046152 0.000000 0.000000 0.000018
    64 4.421238 -1.909434 3.664769 3.141592 0.112307 -3.069556
    65 4.683990 -0.000006 -0.000004 -0.134755 0.028067 -0.819478
    66 5.457756 0.000000 0.000001 0.000000 0.000000 0.166867
    67 4.655739 -2.001987 -3.435415 -0.000004 -0.093366 -3.059263
    68 5.094975 0.000010 -0.000001 0.015926 0.131738 1.259732
    69 5.192093 0.000008 0.000001 -0.231381 0.186719 -0.577358
    70 5.436024 -0.000027 0.000000 0.000000 0.000000 -0.345645
    71 4.731812 0.000050 0.000013 0.000000 0.000004 0.024226
    72 7.119461 -3.152152 0.000008 -0.000002 0.000003 -2.873253
    73 2.814526 -0.000011 0.000001 0.000000 0.000000 -0.299676
    74 1.994446 4.870109 0.000036 -0.000003 -0.000001 2.703586
    75 5.899410 -0.000004 0.000000 0.000000 0.000000 0.173268
    76 5.630047 0.000004 0.000000 0.000000 0.000000 0.094648
    77 6.220745 -0.000008 0.000000 0.000000 0.000000 -0.064082
    78 8.762154 1.396511 -4.498487 -0.088179 0.175130 0.143039
    79 7.805508 -0.000038 0.000004 0.000000 0.000000 0.299021
    80 8.773476 1.399586 4.506257 0.066745 -0.134472 0.150114
    81 7.649891 -0.000040 0.000000 -0.000004 0.000001 0.278252
    82 7.634960 2.571785 8.971974 0.080538 -0.180654 0.172939
    83 9.289848 0.000004 0.000000 0.000000 0.000000 0.000000
    84 7.430500 2.693256 -9.271918 -0.092283 0.194275 0.148132
    85 8.829098 0.000004 0.000000 0.000000 0.000000 0.000000
    86 2.092995 0.672164 3.294092 -1.570799 -0.134118 -0.031070
    87 6.501240 -0.000061 -0.000051 -0.000001 0.000012 -0.124840
    88 4.914310 0.000014 0.000019 0.000000 -0.000006 -0.035448
    89 1.680313 -3.272567 1.085591 -3.139300 -0.203519 -0.042396
    90 6.521078 0.000082 -0.001007 0.000006 0.000326 0.047597
    91 5.665318 -0.000062 0.000978 -0.000018 -0.000008 0.100873
    92 2.401436 0.663985 -3.033963 -1.570310 0.159703 -0.031025
    93 6.517076 0.000027 0.000003 0.000001 0.000001 0.131589
    94 4.949772 0.000008 0.000008 0.000000 -0.000002 0.035688
    95 1.496822 -2.982049 -1.200154 -3.136176 0.209743 -0.086320
    96 6.295319 0.000034 -0.002542 -0.000006 0.000218 0.001380
    97 6.067179 -0.000014 -0.001135 0.000019 0.000194 0.100187
    98 0.000846 -1.981617 -5.161445 1.570798 0.025309 -1.570759
    99 6.021765 -0.000009 0.000225 0.000004 -0.000037 -0.093177
    100 6.446045 -0.000024 0.000004 0.000000 0.000000 -0.035055
    101 -4.396205 -2.128181 -4.230237 1.568945 -0.031832 -1.672958
    102 5.928001 0.000000 -0.000340 -0.000004 0.000021 -0.099913
    103 6.402657 0.000010 -0.000234 -0.000001 0.000034 -0.008503
    104 3.809694 -2.289825 -4.372346 1.582016 0.010754 -1.424340
    105 5.620352 0.000001 -0.002300 -0.000012 0.000438 -0.029025
    106 6.122751 0.000008 0.000180 0.000001 0.000111 0.001410
    107 2.997192 -0.699812 -1.344616 1.477404 1.101221 -0.034163
    108 4.303497 -0.000018 0.000016 0.000000 -0.000003 0.039016
    109 4.050240 0.000000 0.000002 0.000000 0.000004 -0.046205
    110 9.383974 0.000000 -0.000008 0.005469 -0.054332 -0.098913
    111 2.772806 -0.707625 1.379478 1.664898 -1.105226 -0.034011
    112 4.426392 0.000004 -0.000006 0.000000 0.000006 -0.070528
    113 4.084995 -0.000033 0.000020 0.000000 -0.000001 0.002461
    114 9.511889 -0.008060 0.434433 -0.000009 0.000001 -0.100055
end
