// Created by Crowbar 0.74
version 1
nodes
  0 "ValveBiped.Bip01_Pelvis" -1
  1 "ValveBiped.Bip01_Spine" 0
  2 "ValveBiped.Bip01_Spine1" 1
  3 "ValveBiped.Bip01_Spine2" 2
  4 "ValveBiped.Bip01_Spine4" 3
  5 "ValveBiped.Bip01_Neck1" 4
  6 "ValveBiped.Bip01_Head1" 5
  7 "ValveBiped.forward" 6
  8 "ValveBiped.Bip01_R_Eye" 6
  9 "ValveBiped.Bip01_L_Eye" 6
  10 "ValveBiped.Bip01_L_Clavicle" 4
  11 "ValveBiped.Bip01_L_UpperArm" 10
  12 "ValveBiped.Bip01_L_Forearm" 11
  13 "ValveBiped.Bip01_L_Ulna" 12
  14 "ValveBiped.Bip01_L_Wrist" 12
  15 "ValveBiped.Bip01_L_Hand" 12
  16 "ValveBiped.Bip01_L_Finger3" 15
  17 "ValveBiped.Bip01_L_Finger31" 16
  18 "ValveBiped.Bip01_L_Finger32" 17
  19 "ValveBiped.Bip01_L_Finger2" 15
  20 "ValveBiped.Bip01_L_Finger21" 19
  21 "ValveBiped.Bip01_L_Finger22" 20
  22 "ValveBiped.Bip01_L_Finger1" 15
  23 "ValveBiped.Bip01_L_Finger11" 22
  24 "ValveBiped.Bip01_L_Finger12" 23
  25 "ValveBiped.Bip01_L_Finger4" 15
  26 "ValveBiped.Bip01_L_Finger41" 25
  27 "ValveBiped.Bip01_L_Finger42" 26
  28 "ValveBiped.Bip01_L_Finger0" 15
  29 "ValveBiped.Bip01_L_Finger01" 28
  30 "ValveBiped.Bip01_L_Finger02" 29
  31 "ValveBiped.Bip01_L_Shoulder" 11
  32 "ValveBiped.Bip01_L_Elbow" 11
  33 "ValveBiped.Bip01_L_Trapezius" 10
  34 "ValveBiped.Bip01_R_Clavicle" 4
  35 "ValveBiped.Bip01_R_UpperArm" 34
  36 "ValveBiped.Bip01_R_Forearm" 35
  37 "ValveBiped.Bip01_R_Hand" 36
  38 "ValveBiped.Bip01_R_Finger2" 37
  39 "ValveBiped.Bip01_R_Finger21" 38
  40 "ValveBiped.Bip01_R_Finger22" 39
  41 "ValveBiped.Bip01_R_Finger1" 37
  42 "ValveBiped.Bip01_R_Finger11" 41
  43 "ValveBiped.Bip01_R_Finger12" 42
  44 "ValveBiped.Bip01_R_Finger3" 37
  45 "ValveBiped.Bip01_R_Finger31" 44
  46 "ValveBiped.Bip01_R_Finger32" 45
  47 "ValveBiped.Bip01_R_Finger4" 37
  48 "ValveBiped.Bip01_R_Finger41" 47
  49 "ValveBiped.Bip01_R_Finger42" 48
  50 "ValveBiped.Bip01_R_Finger0" 37
  51 "ValveBiped.Bip01_R_Finger01" 50
  52 "ValveBiped.Bip01_R_Finger02" 51
  53 "ValveBiped.Bip01_R_Wrist" 36
  54 "ValveBiped.Bip01_R_Ulna" 36
  55 "ValveBiped.Bip01_R_Shoulder" 35
  56 "ValveBiped.Bip01_R_Elbow" 35
  57 "ValveBiped.Bip01_R_Trapezius" 34
  58 "ValveBiped.Bip01_L_Thigh" 0
  59 "ValveBiped.Bip01_L_Calf" 58
  60 "ValveBiped.Bip01_L_Foot" 59
  61 "ValveBiped.Bip01_R_Thigh" 0
  62 "ValveBiped.Bip01_R_Calf" 61
  63 "ValveBiped.Bip01_R_Foot" 62
  64 "j_hair_b_01" 6
  65 "j_hair_b_011" 64
  66 "j_hair_b_012" 65
  67 "j_hair_b_013" 66
  68 "j_hair_b_014" 67
  69 "j_hair_b_015" 68
  70 "j_hair_b_021" 64
  71 "j_hair_b_022" 70
  72 "j_hair_b_023" 71
  73 "j_hair_b_024" 72
  74 "j_hair_b_025" 73
  75 "j_hair_b_041" 64
  76 "j_hair_b_042" 75
  77 "j_hair_b_043" 76
  78 "j_hair_b_044" 77
  79 "j_hair_b_045" 78
  80 "j_hair_b_051" 64
  81 "j_hair_b_052" 80
  82 "j_hair_b_053" 81
  83 "j_hair_b_054" 82
  84 "j_hair_b_055" 83
  85 "j_hair_b_061" 64
  86 "j_hair_b_062" 85
  87 "j_hair_b_063" 86
  88 "j_hair_b_064" 87
  89 "j_hair_b_065" 88
  90 "j_hair_b_071" 64
  91 "j_hair_b_072" 90
  92 "j_hair_b_073" 91
  93 "j_hair_b_074" 92
  94 "j_hair_b_075" 93
  95 "j_hair_b_031" 64
  96 "j_hair_b_032" 95
  97 "j_hair_b_033" 96
  98 "j_hair_b_034" 97
  99 "j_hair_b_035" 98
  100 "j_hair_f_01" 6
  101 "j_hair_f_02" 100
  102 "j_hair_fr_01" 6
  103 "j_hair_fl_01" 6
  104 "j_hair_r_01" 6
  105 "j_hair_l_01" 6
  106 "p_wing_c_01" 4
  107 "p_wing_r_01" 106
  108 "p_wing_l_01" 106
  109 "ValveBiped.Bip01_L_Ankle" 59
  110 "ValveBiped.Bip01_L_Knee" 58
  111 "ValveBiped.Bip01_R_Toe0" 63
  112 "ValveBiped.Bip01_R_Ankle" 62
  113 "ValveBiped.Bip01_R_Knee" 61
  114 "ValveBiped.Bip01_L_Toe0" 60
end
skeleton
  time 0
    0 -0.010628 0.047211 -0.162354 0.000000 0.000000 -1.570796
    1 -0.000001 -2.431641 0.118347 0.000002 0.000011 -0.017451
    2 -0.268555 0.000007 0.000055 0.000002 -0.000011 0.000004
    3 -0.253418 -0.000014 -0.000010 0.000000 0.000000 0.000000
    4 0.071472 0.069336 -0.000002 0.000000 0.000000 0.000000
    5 -0.827637 0.024872 0.000004 0.003141 0.000367 -0.002921
    6 0.239136 0.000017 0.000007 0.000000 0.000004 0.001120
    7 0.000000 0.000000 0.000000 0.000000 0.000000 0.000000
    8 0.000000 0.000000 0.000000 0.000000 0.000000 0.000000
    9 0.000000 0.000000 0.000000 0.000000 0.000000 0.000000
    10 -0.142090 -0.063599 1.044922 0.000000 0.000000 0.000000
    11 -2.007813 0.045807 0.083984 -0.040463 0.083851 -0.008243
    12 -2.400391 -0.014313 -0.605469 0.144043 -0.001031 -0.036053
    13 0.000000 0.000000 0.000000 0.000000 0.000000 0.000000
    14 0.000000 0.000000 0.000000 0.000000 0.000000 0.000000
    15 -3.417969 0.000061 0.000031 0.000000 0.000000 0.000000
    16 -0.737793 -0.105774 0.298096 -0.109045 -0.035940 -0.128055
    17 -0.582520 -0.049286 -0.072144 -0.009666 0.086154 0.061891
    18 -0.280029 -0.000019 -0.000004 0.152700 -0.079404 0.035509
    19 -0.757813 -0.072266 0.064697 -0.004708 -0.025500 -0.127366
    20 -0.671387 -0.048340 -0.068298 -0.041637 0.026340 0.076473
    21 -0.311035 0.000015 -0.000005 -0.000004 -0.000002 -0.000023
    22 -0.763184 -0.022751 -0.145874 0.121288 -0.157595 -0.032711
    23 -0.560547 -0.051331 -0.053589 0.035539 0.091574 -0.125051
    24 -0.130615 0.022217 -0.030304 0.039904 0.087863 0.245212
    25 -0.789063 -0.315186 0.381592 0.148015 -0.021072 0.015784
    26 -0.383789 -0.042725 -0.018982 -0.531342 0.112573 -0.111671
    27 -0.198120 0.000000 -0.000003 0.172719 -0.097886 0.117858
    28 -0.254395 -0.020508 -0.655762 0.652473 0.046652 -0.242773
    29 -0.406006 0.000008 -0.000011 -0.014985 0.155045 0.014004
    30 -0.320801 0.000009 0.000008 -0.323237 0.095689 0.271644
    31 0.000000 0.000000 0.000000 0.000000 0.000000 0.000000
    32 0.000000 0.000000 0.000000 0.000000 0.000000 0.000000
    33 0.000000 0.000000 0.000000 0.000000 0.000000 0.000000
    34 -0.142090 -0.063599 -1.072266 0.000000 0.000000 0.000000
    35 -2.132813 0.005608 -0.083679 0.031181 -0.084698 -0.005613
    36 -2.447266 -0.007336 0.395508 -0.141407 0.003252 -0.036333
    37 -3.490234 0.000072 0.000015 -0.004753 0.006464 -0.000071
    38 -0.804688 -0.115479 0.005566 0.050077 0.023074 -0.022358
    39 -0.794922 0.012360 -0.044739 0.089660 0.008162 -0.266661
    40 -0.143921 0.038910 0.055054 -0.010964 -0.013218 0.351473
    41 -0.812012 -0.071472 0.201416 -0.108549 0.150127 0.018356
    42 -0.381592 -0.016434 0.060730 -0.010325 -0.082223 -0.132122
    43 -0.227661 -0.000019 -0.000010 0.021581 -0.167630 0.285145
    44 -0.784668 -0.145996 -0.075256 0.007698 0.054820 -0.090353
    45 -0.619629 -0.001521 -0.000502 0.009210 -0.023063 -0.097408
    46 -0.234741 0.000004 0.000003 -0.070772 0.054398 0.220275
    47 -0.750000 -0.203247 -0.352539 -0.068853 -0.060658 -0.185271
    48 -0.509277 -0.019730 0.021103 -0.239544 0.170775 0.049014
    49 -0.097778 0.006516 -0.016434 0.014723 -0.045898 0.103159
    50 -0.223755 -0.083923 0.608887 0.576290 -0.098590 -0.290654
    51 -0.374756 0.000012 0.000004 0.107524 0.001249 -0.011416
    52 -0.294922 0.000004 -0.000025 0.021844 0.086915 0.108319
    53 0.000000 0.000000 0.000000 0.000000 0.000000 0.000000
    54 0.000000 0.000000 0.000000 0.000000 0.000000 0.000000
    55 0.000000 0.000000 0.000000 0.000000 0.000000 0.000000
    56 0.000000 0.000000 0.000000 0.000000 0.000000 0.000000
    57 0.000000 0.000000 0.000000 0.000000 0.000000 0.000000
    58 -0.278809 0.000000 0.000000 -0.002342 0.006298 0.053634
    59 -0.225464 -0.008469 0.011101 0.003484 0.022827 -0.109913
    60 1.487305 -0.102783 0.046509 -0.050834 -0.064488 -0.038034
    61 0.278809 0.000000 -0.000001 0.002433 -0.002490 0.053642
    62 -0.262207 -0.008652 -0.011841 -0.004132 -0.025439 -0.109862
    63 1.442383 -0.103882 -0.050049 0.040073 0.050350 -0.042073
    64 0.000000 0.000000 0.000000 0.000000 0.000000 0.000000
    65 0.000000 0.000000 0.000000 0.000000 0.000000 0.000000
    66 0.000000 0.000000 0.000000 0.000000 0.000000 0.000000
    67 0.000000 0.000000 0.000000 0.000000 0.000000 0.000000
    68 0.000000 0.000000 0.000000 0.000000 0.000000 0.000000
    69 0.000000 0.000000 0.000000 0.000000 0.000000 0.000000
    70 0.000000 0.000000 0.000000 0.000000 0.000000 0.000000
    71 0.000000 0.000000 0.000000 0.000000 0.000000 0.000000
    72 0.000000 0.000000 0.000000 0.000000 0.000000 0.000000
    73 0.000000 0.000000 0.000000 0.000000 0.000000 0.000000
    74 0.000000 0.000000 0.000000 0.000000 0.000000 0.000000
    75 0.000000 0.000000 0.000000 0.000000 0.000000 0.000000
    76 0.000000 0.000000 0.000000 0.000000 0.000000 0.000000
    77 0.000000 0.000000 0.000000 0.000000 0.000000 0.000000
    78 0.000000 0.000000 0.000000 0.000000 0.000000 0.000000
    79 0.000000 0.000000 0.000000 0.000000 0.000000 0.000000
    80 0.000000 0.000000 0.000000 0.000000 0.000000 0.000000
    81 0.000000 0.000000 0.000000 0.000000 0.000000 0.000000
    82 0.000000 0.000000 0.000000 0.000000 0.000000 0.000000
    83 0.000000 0.000000 0.000000 0.000000 0.000000 0.000000
    84 0.000000 0.000000 0.000000 0.000000 0.000000 0.000000
    85 0.000000 0.000000 0.000000 0.000000 0.000000 0.000000
    86 0.000000 0.000000 0.000000 0.000000 0.000000 0.000000
    87 0.000000 0.000000 0.000000 0.000000 0.000000 0.000000
    88 0.000000 0.000000 0.000000 0.000000 0.000000 0.000000
    89 0.000000 0.000000 0.000000 0.000000 0.000000 0.000000
    90 0.000000 0.000000 0.000000 0.000000 0.000000 0.000000
    91 0.000000 0.000000 0.000000 0.000000 0.000000 0.000000
    92 0.000000 0.000000 0.000000 0.000000 0.000000 0.000000
    93 0.000000 0.000000 0.000000 0.000000 0.000000 0.000000
    94 0.000000 0.000000 0.000000 0.000000 0.000000 0.000000
    95 0.000000 0.000000 0.000000 0.000000 0.000000 0.000000
    96 0.000000 0.000000 0.000000 0.000000 0.000000 0.000000
    97 0.000000 0.000000 0.000000 0.000000 0.000000 0.000000
    98 0.000000 0.000000 0.000000 0.000000 0.000000 0.000000
    99 0.000000 0.000000 0.000000 0.000000 0.000000 0.000000
    100 0.000000 0.000000 0.000000 0.000000 0.000000 0.000000
    101 0.000000 0.000000 0.000000 0.000000 0.000000 0.000000
    102 0.000000 0.000000 0.000000 0.000000 0.000000 0.000000
    103 0.000000 0.000000 0.000000 0.000000 0.000000 0.000000
    104 0.000000 0.000000 0.000000 0.000000 0.000000 0.000000
    105 0.000000 0.000000 0.000000 0.000000 0.000000 0.000000
    106 0.000000 0.000000 0.000000 0.000000 0.000000 0.000000
    107 0.000000 0.000000 0.000000 0.000000 0.000000 0.000000
    108 0.000000 0.000000 0.000000 0.000000 0.000000 0.000000
    109 0.000000 0.000000 0.000000 0.000000 0.000000 0.000000
    110 0.000000 0.000000 0.000000 0.000000 0.000000 0.000000
    111 -0.210205 -0.000026 0.000001 0.000000 0.000000 0.000000
    112 0.000000 0.000000 0.000000 0.000000 0.000000 0.000000
    113 0.000000 0.000000 0.000000 0.000000 0.000000 0.000000
    114 -0.255127 -0.000037 -0.000001 -0.000006 -0.000004 -0.000092
end
