// Created by Crowbar 0.74
version 1
nodes
  0 "ValveBiped.Bip01_Pelvis" -1
  1 "ValveBiped.Bip01_Spine" 0
  2 "ValveBiped.Bip01_Spine1" 1
  3 "ValveBiped.Bip01_Spine2" 2
  4 "ValveBiped.Bip01_Spine4" 3
  5 "BreastUpper2_L" 4
  6 "BreastUpper2_R" 4
  7 "BeAA1" 4
  8 "BeAA2_L" 4
  9 "BeAA3_L" 4
  10 "BeAA2_R" 4
  11 "BeAA3_R" 4
  12 "ValveBiped.Bip01_R_Clavicle" 4
  13 "ValveBiped.Bip01_R_UpperArm" 12
  14 "ValveBiped.Bip01_R_Forearm" 13
  15 "ValveBiped.Bip01_R_Hand" 14
  16 "ValveBiped.Bip01_R_Finger0" 15
  17 "ValveBiped.Bip01_R_Finger01" 16
  18 "ValveBiped.Bip01_R_Finger1" 15
  19 "ValveBiped.Bip01_R_Finger11" 18
  20 "ValveBiped.Bip01_R_Finger12" 19
  21 "ValveBiped.Bip01_R_Finger2" 15
  22 "ValveBiped.Bip01_R_Finger21" 21
  23 "ValveBiped.Bip01_R_Finger22" 22
  24 "ValveBiped.Bip01_R_Finger3" 15
  25 "ValveBiped.Bip01_R_Finger31" 24
  26 "ValveBiped.Bip01_R_Finger32" 25
  27 "ValveBiped.Bip01_R_Finger4" 15
  28 "ValveBiped.Bip01_R_Finger41" 27
  29 "ValveBiped.Bip01_R_Finger42" 28
  30 "ValveBiped.Bip01_L_Clavicle" 4
  31 "ValveBiped.Bip01_L_UpperArm" 30
  32 "ValveBiped.Bip01_L_Forearm" 31
  33 "ValveBiped.Bip01_L_Hand" 32
  34 "ValveBiped.Bip01_L_Finger0" 33
  35 "ValveBiped.Bip01_L_Finger01" 34
  36 "ValveBiped.Bip01_L_Finger1" 33
  37 "ValveBiped.Bip01_L_Finger11" 36
  38 "ValveBiped.Bip01_L_Finger12" 37
  39 "ValveBiped.Bip01_L_Finger2" 33
  40 "ValveBiped.Bip01_L_Finger21" 39
  41 "ValveBiped.Bip01_L_Finger22" 40
  42 "ValveBiped.Bip01_L_Finger3" 33
  43 "ValveBiped.Bip01_L_Finger31" 42
  44 "ValveBiped.Bip01_L_Finger32" 43
  45 "ValveBiped.Bip01_L_Finger4" 33
  46 "ValveBiped.Bip01_L_Finger41" 45
  47 "ValveBiped.Bip01_L_Finger42" 46
  48 "ValveBiped.Bip01_Neck1" 4
  49 "ValveBiped.Bip01_Head1" 48
  50 "Eye_R" 49
  51 "Eye_L" 49
  52 "Tongue" 49
  53 "TeethLower" 49
  54 "TeethUpper" 49
  55 "OutsideHair5A_R" 49
  56 "OutsideHair6_R" 49
  57 "OutsideHair4A_R" 49
  58 "OutsideHair4B_R" 57
  59 "OutsideHair3A_R" 49
  60 "OutsideHair3B_R" 59
  61 "OutsideHair2A_R" 49
  62 "OutsideHair2B_R" 61
  63 "LowerLe1_R" 49
  64 "LowerLe2_R" 63
  65 "LowerLe3_R" 64
  66 "LowerLe4_R" 65
  67 "FrontHair1_R" 49
  68 "OutsideHair5A_L" 49
  69 "OutsideHair6_L" 49
  70 "OutsideHair4A_L" 49
  71 "OutsideHair4B_L" 70
  72 "OutsideHair3A_L" 49
  73 "OutsideHair3B_L" 72
  74 "OutsideHair2A_L" 49
  75 "OutsideHair2B_L" 74
  76 "OutsideHair1A" 49
  77 "OutsideHair1B" 76
  78 "OutsideHair1C" 77
  79 "LowerLe1_L" 49
  80 "LowerLe2_L" 79
  81 "LowerLe3_L" 80
  82 "LowerLe4_L" 81
  83 "FrontHair1_L" 49
  84 "FrontHair2" 49
  85 "ValveBiped.Bip01_R_Thigh" 0
  86 "ValveBiped.Bip01_R_Calf" 85
  87 "ValveBiped.Bip01_R_Foot" 86
  88 "ValveBiped.Bip01_L_Thigh" 0
  89 "ValveBiped.Bip01_L_Calf" 88
  90 "ValveBiped.Bip01_L_Foot" 89
  91 "HairConnectionEye" 49
  92 "UpKicking1_R" 49
  93 "UpKicking2_R" 92
  94 "UpKicking1_L" 49
  95 "UpKicking2_L" 94
  96 "WingClothes" 2
  97 "WaistWingClothes1_R" 96
  98 "WaistWingClothes2_R" 97
  99 "WaistWingClothes3_R" 98
  100 "WaistWingClothes4_R" 99
  101 "WaistWingClothes5_R" 100
  102 "WaistWingClothes6_R" 101
  103 "WaistWingClothes7_R" 102
  104 "WaistWingClothes8_R" 103
  105 "WaistWingClothes9_R" 104
  106 "WaistWingClothes10_R" 105
  107 "WaistWingClothes11_R" 106
  108 "WaistWingClothes1_L" 96
  109 "WaistWingClothes2_L" 108
  110 "WaistWingClothes3_L" 109
  111 "WaistWingClothes4_L" 110
  112 "WaistWingClothes5_L" 111
  113 "WaistWingClothes6_L" 112
  114 "WaistWingClothes7_L" 113
  115 "WaistWingClothes8_L" 114
  116 "WaistWingClothes9_L" 115
  117 "WaistWingClothes10_L" 116
  118 "WaistWingClothes11_L" 117
  119 "ValveBiped.Exp_Jaw" 49
  120 "ValveBiped.Exp_Eyebrows" 49
  121 "ValveBiped.Exp_Eyelids_Upper" 49
  122 "ValveBiped.Exp_LipsUpper" 49
end
skeleton
  time 0
    0 0.000000 -0.492360 35.174164 1.570796 0.000000 0.000000
    1 0.000002 3.696480 -1.136777 1.570796 -0.018319 1.570797
    2 3.255432 0.302921 0.000000 0.000000 0.000000 -0.019837
    3 3.082455 0.000022 0.000000 0.000000 0.000000 -0.012635
    4 6.423965 0.000044 0.000000 0.000000 0.000000 0.155831
    5 -0.648911 4.497382 2.867939 1.570681 0.010771 2.989143
    6 -0.648911 4.497380 -2.867940 -1.570912 0.010771 -0.152451
    7 -4.043316 -1.713767 -0.000001 0.000000 1.570780 3.033295
    8 -4.209068 0.167570 4.656291 1.601124 0.163312 -1.702392
    9 -5.028244 4.782017 4.635705 1.551557 -0.007465 -1.688503
    10 -4.209072 0.167570 -4.656292 -1.540468 0.163312 1.439204
    11 -5.028248 4.782018 -4.635706 -1.590037 -0.007465 1.453084
    12 1.768345 0.346586 -0.819416 -1.408725 1.306630 2.986008
    13 3.420089 0.756577 1.219547 1.407216 -0.052113 -0.348790
    14 8.884674 0.000000 -0.000004 0.001482 -0.110434 -0.001744
    15 8.509779 0.000000 0.000000 -1.570797 0.040275 0.013368
    16 2.616555 -0.421555 -1.302933 1.538258 0.296788 -0.418071
    17 1.419880 0.000001 0.000004 0.036325 -0.005045 -0.043806
    18 4.438509 -0.068119 -0.750376 0.000000 0.000000 -0.015346
    19 0.663845 0.062096 -0.084954 0.000000 -0.000001 0.093269
    20 0.969561 -0.021038 0.000001 0.000000 0.000000 -0.021694
    21 4.455383 0.039261 -0.134980 0.000000 -0.000001 0.008811
    22 1.052469 0.057579 0.004971 0.000000 0.000002 0.054651
    23 0.969765 -0.007011 0.000001 0.000000 -0.000002 -0.007229
    24 4.217670 -0.008194 0.542873 0.000000 -0.000001 -0.001944
    25 0.983795 -0.013123 0.019439 0.000000 -0.000001 -0.013328
    26 0.919048 0.070984 0.000000 0.000000 0.000000 0.077088
    27 4.006802 -0.152481 1.137269 0.000000 0.000000 -0.038038
    28 1.082683 0.054264 0.036105 0.000000 -0.000001 0.050078
    29 0.829247 0.056049 0.000000 0.000000 0.000001 0.067484
    30 1.768349 0.346567 0.819440 1.347278 -1.307270 2.975333
    31 3.416723 0.842072 -1.171919 -1.340559 0.079187 -0.344510
    32 8.884674 0.000000 0.000000 -0.001483 0.110434 -0.001744
    33 8.509784 0.000000 0.000000 1.570797 -0.040091 0.013371
    34 2.616635 -0.421082 1.302942 -1.538258 -0.296791 -0.417888
    35 1.419891 0.000001 -0.000004 -0.029105 0.002456 -0.043676
    36 4.438519 -0.067307 0.750389 0.000000 -0.000003 -0.015162
    37 0.663845 0.062099 0.084954 0.000000 0.000000 0.093269
    38 0.969561 -0.021042 -0.000001 0.000000 0.000001 -0.021694
    39 4.455378 0.040077 0.134994 0.000000 -0.000002 0.008995
    40 1.052471 0.057575 -0.004971 0.000000 -0.000001 0.054652
    41 0.969763 -0.007004 -0.000001 0.000000 0.000002 -0.007229
    42 4.217680 -0.007423 -0.542860 0.000000 -0.000002 -0.001760
    43 0.983791 -0.013115 -0.019438 0.000000 0.000001 -0.013328
    44 0.919048 0.070984 0.000000 0.000000 0.000000 0.077088
    45 4.006838 -0.151752 -1.137257 0.000000 -0.000003 -0.037854
    46 1.082675 0.054268 -0.036105 0.000000 0.000001 0.050078
    47 0.829247 0.056046 0.000000 0.000000 -0.000001 0.067485
    48 2.707935 0.000007 0.000000 3.141593 0.000000 0.224126
    49 3.023521 0.594992 0.000000 0.000000 -0.000001 0.209705
    50 2.685654 -0.523826 0.930485 1.570791 -1.057047 1.726900
    51 2.685658 -0.523826 -0.930489 -1.570803 -1.057049 -1.414694
    52 0.200581 -1.131062 0.000000 0.000000 -1.570782 -2.985499
    53 0.339642 -1.646533 0.000000 0.000000 -1.570777 -2.985532
    54 0.631950 -1.600529 0.000000 0.000000 -1.570787 -2.985474
    55 3.417385 3.368795 2.323852 0.007851 0.175221 -2.973809
    56 2.940769 4.449759 1.086405 3.129343 0.084223 -3.033415
    57 4.476883 1.030538 3.864545 -3.136448 1.341252 -2.960716
    58 0.081324 0.487088 -2.822746 0.013715 -0.886476 0.043786
    59 4.438885 1.994720 3.926556 3.017901 1.265244 -3.110550
    60 -0.357891 1.239716 -2.634289 0.034165 -0.159277 -0.011890
    61 3.606319 3.578274 3.261864 2.990471 1.392509 3.132086
    62 -0.071815 1.105649 -2.386044 -0.009875 -0.273594 0.051566
    63 6.191956 -0.038257 3.550536 2.730608 1.448567 2.880539
    64 0.140751 0.362261 -2.375797 -0.039676 -0.515594 0.036530
    65 -0.448891 -0.690934 -1.389339 0.017450 0.019479 -0.081081
    66 -0.305315 -0.406434 -1.731853 -0.003009 -0.160533 0.034274
    67 7.526562 -1.705317 1.828083 -3.036729 1.292923 -2.891510
    68 3.417377 3.368793 -2.323858 -3.133741 0.175223 0.167783
    69 2.940773 4.449759 -1.086410 -0.012249 0.084224 0.108178
    70 4.476875 1.030536 -3.864552 0.005145 1.341254 0.180877
    71 -0.081326 0.487088 -2.822750 0.013716 0.886476 -0.043785
    72 4.438877 1.994720 -3.926564 -0.123692 1.265246 0.031041
    73 0.357897 1.239714 -2.634289 0.034165 0.159277 0.011890
    74 3.606308 3.578273 -3.261870 -0.151123 1.392511 -0.009508
    75 0.071815 1.105649 -2.386032 -0.009876 0.273594 -0.051566
    76 3.987167 4.611635 -0.000003 0.000000 1.570796 0.148948
    77 0.000000 1.048001 -2.093582 -0.013839 0.000000 0.000000
    78 0.000000 1.102415 -2.362724 0.003413 0.000000 0.000000
    79 6.191952 -0.038255 -3.550546 -0.410990 1.448569 -0.261059
    80 -0.140752 0.362261 -2.375797 -0.039676 0.515594 -0.036529
    81 0.448889 -0.690934 -1.389339 0.017450 -0.019479 0.081081
    82 0.305313 -0.406434 -1.731853 -0.033945 0.044421 0.014028
    83 7.526569 -1.705315 -1.828094 0.104865 1.292925 0.250085
    84 7.312023 -2.808115 0.083643 2.331033 1.549304 2.496884
    85 -3.084310 0.000004 0.000002 -1.570796 -0.014187 -1.521236
    86 15.611660 0.000000 0.000000 0.002555 0.049497 0.065776
    87 15.879448 0.000000 0.000000 0.000002 -0.000001 -1.086507
    88 3.084311 0.000004 0.000002 -1.570796 -0.014187 -1.620357
    89 15.611660 0.000000 0.000000 -0.002576 -0.049902 0.065777
    90 15.879447 0.000000 0.000000 -0.000349 0.000209 -1.083457
    91 7.331951 5.389594 -0.000006 0.000000 -1.570796 -1.432443
    92 6.849758 5.620837 0.546273 0.087533 0.421161 0.189504
    93 0.052246 1.011392 3.116848 -0.106369 0.149351 -0.014003
    94 6.849766 5.620838 -0.546284 -3.053358 0.438545 -2.950403
    95 0.002151 1.011392 3.117283 -0.106122 -0.131899 0.013970
    96 -5.434696 -4.764359 -0.000002 0.000000 -1.570697 3.103418
    97 -0.325001 2.656087 0.000004 0.129094 -0.187324 1.675433
    98 0.000001 5.967076 -0.000008 0.583028 -0.588433 -0.080225
    99 0.000004 4.506813 0.000005 1.338883 -0.751019 -1.333215
    100 0.000004 5.988791 0.000004 -0.049103 -0.480582 -0.235483
    101 -0.000006 9.535488 0.000008 -1.232434 1.252004 0.109690
    102 -0.000003 7.945229 -0.000015 -0.329362 -0.167215 -0.526037
    103 0.000000 6.310169 -0.000011 0.052775 -0.274514 -1.133257
    104 0.000000 4.818149 0.000008 0.057857 -0.027283 -0.287032
    105 -0.000008 4.725517 -0.000004 1.100623 -0.273077 2.147562
    106 0.000008 4.475430 0.000004 -0.636812 1.098433 0.142582
    107 0.000001 7.508235 0.000023 -0.583371 0.636234 -0.345964
    108 0.325001 2.656085 -0.000011 0.129093 0.187324 -1.675441
    109 0.000000 5.967082 -0.000008 0.583025 0.588433 0.080224
    110 -0.000004 4.506824 0.000004 1.338882 0.751021 1.333214
    111 -0.000004 5.988802 0.000002 -0.049103 0.480588 0.235484
    112 0.000008 9.535480 0.000000 -1.232428 -1.252007 -0.109693
    113 0.000003 7.945229 0.000000 -0.329362 0.167216 0.526040
    114 0.000003 6.310158 -0.000011 0.052772 0.274516 1.133254
    115 -0.000004 4.818168 0.000004 0.057855 0.027281 0.287029
    116 -0.000004 4.725527 -0.000015 1.100623 0.273081 -2.147561
    117 0.000000 4.475433 -0.000002 -0.636813 -1.098436 -0.142580
    118 -0.000005 7.508256 0.000015 -0.583369 -0.636232 0.345963
    119 1.548061 0.004415 0.000000 0.000000 1.570795 -1.724259
    120 3.806156 0.213600 0.000000 0.000000 1.570795 -3.010492
    121 3.561836 -3.655074 -0.015467 0.000000 1.570795 2.971113
    122 1.108356 -0.293481 0.000000 0.000000 1.570795 3.002910
end
triangles
skirt
  1 0.400411 -5.264178 42.453392 0.252754 -0.459852 0.851265 0.896100 0.368290 1 1 1.000000
  1 0.810928 -5.078387 42.431873 0.171937 -0.430766 0.885934 0.858300 0.428070 1 1 1.000000
  1 0.326921 -5.094510 42.566864 0.339688 -0.422264 0.840420 0.925730 0.385940 1 1 1.000000
skirt
  1 1.077715 -4.142391 43.701454 0.818483 -0.573544 0.033647 0.938420 0.650170 1 1 1.000000
  1 1.105734 -4.046180 43.769131 0.746379 -0.623966 0.231483 0.956740 0.656460 1 1 1.000000
  1 0.867582 -4.287487 43.847553 0.687741 -0.636053 0.349926 0.939460 0.602850 1 1 1.000000
skirt
  1 1.077715 -4.142391 43.701454 0.818483 -0.573544 0.033647 0.938420 0.650170 1 1 1.000000
  1 0.867582 -4.287487 43.847553 0.687741 -0.636053 0.349926 0.939460 0.602850 1 1 1.000000
  1 0.840409 -4.480132 43.684883 0.789012 -0.613561 0.031660 0.899100 0.597320 1 1 1.000000
skirt
  1 0.883606 -4.283195 43.531013 0.718533 -0.617586 -0.319839 0.939460 0.602850 1 1 1.000000
  1 1.077715 -4.142391 43.701454 0.818483 -0.573544 0.033647 0.938420 0.650170 1 1 1.000000
  1 0.840409 -4.480132 43.684883 0.789012 -0.613561 0.031660 0.899100 0.597320 1 1 1.000000
skirt
  1 0.592408 -4.520698 43.383602 0.718533 -0.617586 -0.319839 0.923130 0.541090 1 1 1.000000
  1 0.883606 -4.283195 43.531013 0.718533 -0.617586 -0.319839 0.939460 0.602850 1 1 1.000000
  1 0.840409 -4.480132 43.684883 0.789012 -0.613561 0.031660 0.899100 0.597320 1 1 1.000000
skirt
  1 0.883606 -4.283195 43.531013 0.718533 -0.617586 -0.319839 0.939460 0.602850 1 1 1.000000
  1 0.592408 -4.520698 43.383602 0.718533 -0.617586 -0.319839 0.923130 0.541090 1 1 1.000000
  1 0.699767 -4.360294 43.129658 0.466487 -0.865272 0.183560 0.973030 0.539610 1 1 1.000000
skirt
  1 0.699767 -4.360294 43.129658 0.466487 -0.865272 0.183560 0.973030 0.539610 1 1 1.000000
  1 0.592408 -4.520698 43.383602 0.718533 -0.617586 -0.319839 0.923130 0.541090 1 1 1.000000
  1 0.456545 -4.558043 42.897976 0.555408 -0.784711 0.275228 0.971050 0.478340 1 1 1.000000
skirt
  1 0.943444 -4.426633 42.934837 0.032737 -0.811529 0.583394 0.923130 0.541090 1 1 1.000000
  1 0.699767 -4.360294 43.129658 0.466487 -0.865272 0.183560 0.973030 0.539610 1 1 1.000000
  1 0.456545 -4.558043 42.897976 0.555408 -0.784711 0.275228 0.971050 0.478340 1 1 1.000000
skirt
  1 0.742054 -4.636701 42.683132 0.115217 -0.658162 0.744007 0.914930 0.482790 1 1 1.000000
  1 0.943444 -4.426633 42.934837 0.032737 -0.811529 0.583394 0.923130 0.541090 1 1 1.000000
  1 0.456545 -4.558043 42.897976 0.555408 -0.784711 0.275228 0.971050 0.478340 1 1 1.000000
skirt
  1 0.943444 -4.426633 42.934837 0.032737 -0.811529 0.583394 0.923130 0.541090 1 1 1.000000
  1 0.742054 -4.636701 42.683132 0.115217 -0.658162 0.744007 0.914930 0.482790 1 1 1.000000
  1 1.262789 -4.630687 42.777161 0.359004 -0.696620 0.621157 0.859270 0.542150 1 1 1.000000
skirt
  1 0.742054 -4.636701 42.683132 0.115217 -0.658162 0.744007 0.914930 0.482790 1 1 1.000000
  1 1.131151 -4.873747 42.516125 -0.020395 -0.597996 0.801240 0.840440 0.485980 1 1 1.000000
  1 1.262789 -4.630687 42.777161 0.359004 -0.696620 0.621157 0.859270 0.542150 1 1 1.000000
skirt
  1 0.810928 -5.078387 42.431873 0.171937 -0.430766 0.885934 0.858300 0.428070 1 1 1.000000
  1 1.131151 -4.873747 42.516125 -0.020395 -0.597996 0.801240 0.840440 0.485980 1 1 1.000000
  1 0.742054 -4.636701 42.683132 0.115217 -0.658162 0.744007 0.914930 0.482790 1 1 1.000000
skirt
  1 0.533772 -4.860877 42.578922 0.355342 -0.470025 0.807965 0.917360 0.433780 1 1 1.000000
  1 0.810928 -5.078387 42.431873 0.171937 -0.430766 0.885934 0.858300 0.428070 1 1 1.000000
  1 0.742054 -4.636701 42.683132 0.115217 -0.658162 0.744007 0.914930 0.482790 1 1 1.000000
skirt
  1 0.326921 -5.094510 42.566864 0.339688 -0.422264 0.840420 0.925730 0.385940 1 1 1.000000
  1 0.810928 -5.078387 42.431873 0.171937 -0.430766 0.885934 0.858300 0.428070 1 1 1.000000
  1 0.533772 -4.860877 42.578922 0.355342 -0.470025 0.807965 0.917360 0.433780 1 1 1.000000
skirt
  1 0.326921 -5.094510 42.566864 0.339688 -0.422264 0.840420 0.925730 0.385940 1 1 1.000000
  1 0.533772 -4.860877 42.578922 0.355342 -0.470025 0.807965 0.917360 0.433780 1 1 1.000000
  1 0.271861 -5.027293 42.655178 0.754607 -0.422928 0.501697 0.944530 0.392240 1 1 1.000000
skirt
  1 0.271861 -5.027293 42.655178 0.754607 -0.422928 0.501697 0.944530 0.392240 1 1 1.000000
  1 0.533772 -4.860877 42.578922 0.355342 -0.470025 0.807965 0.917360 0.433780 1 1 1.000000
  1 0.327409 -4.784071 42.749599 0.709438 -0.550959 0.439480 0.960750 0.431730 1 1 1.000000
skirt
  1 0.235197 -4.940867 42.960609 0.949196 -0.310879 0.048791 0.917360 0.433780 1 1 1.000000
  1 0.271861 -5.027293 42.655178 0.754607 -0.422928 0.501697 0.944530 0.392240 1 1 1.000000
  1 0.327409 -4.784071 42.749599 0.709438 -0.550959 0.439480 0.960750 0.431730 1 1 1.000000
skirt
  1 0.343628 -4.743443 43.192490 0.863338 -0.457716 -0.212469 0.914930 0.482790 1 1 1.000000
  1 0.235197 -4.940867 42.960609 0.949196 -0.310879 0.048791 0.917360 0.433780 1 1 1.000000
  1 0.327409 -4.784071 42.749599 0.709438 -0.550959 0.439480 0.960750 0.431730 1 1 1.000000
skirt
  1 0.211697 -5.238955 43.197983 0.967227 -0.217598 -0.130851 0.858300 0.428070 1 1 1.000000
  1 0.235197 -4.940867 42.960609 0.949196 -0.310879 0.048791 0.917360 0.433780 1 1 1.000000
  1 0.343628 -4.743443 43.192490 0.863338 -0.457716 -0.212469 0.914930 0.482790 1 1 1.000000
skirt
  1 0.592408 -4.520698 43.383602 0.718533 -0.617586 -0.319839 0.923130 0.541090 1 1 1.000000
  1 0.343628 -4.743443 43.192490 0.863338 -0.457716 -0.212469 0.914930 0.482790 1 1 1.000000
  1 0.456545 -4.558043 42.897976 0.555408 -0.784711 0.275228 0.971050 0.478340 1 1 1.000000
skirt
  1 0.343628 -4.743443 43.192490 0.863338 -0.457716 -0.212469 0.914930 0.482790 1 1 1.000000
  1 0.327409 -4.784071 42.749599 0.709438 -0.550959 0.439480 0.960750 0.431730 1 1 1.000000
  1 0.456545 -4.558043 42.897976 0.555408 -0.784711 0.275228 0.971050 0.478340 1 1 1.000000
skirt
  1 0.327409 -4.784071 42.749599 0.709438 -0.550959 0.439480 0.960750 0.431730 1 1 1.000000
  1 0.742054 -4.636701 42.683132 0.115217 -0.658162 0.744007 0.914930 0.482790 1 1 1.000000
  1 0.456545 -4.558043 42.897976 0.555408 -0.784711 0.275228 0.971050 0.478340 1 1 1.000000
skirt
  1 0.533772 -4.860877 42.578922 0.355342 -0.470025 0.807965 0.917360 0.433780 1 1 1.000000
  1 0.742054 -4.636701 42.683132 0.115217 -0.658162 0.744007 0.914930 0.482790 1 1 1.000000
  1 0.327409 -4.784071 42.749599 0.709438 -0.550959 0.439480 0.960750 0.431730 1 1 1.000000
skirt
  1 1.105734 -4.046180 43.769131 0.746379 -0.623966 0.231483 0.956740 0.656460 1 1 1.000000
  1 0.933498 -4.185587 44.012775 0.529934 -0.825629 -0.193664 0.973030 0.604980 1 1 1.000000
  1 0.867582 -4.287487 43.847553 0.687741 -0.636053 0.349926 0.939460 0.602850 1 1 1.000000
skirt
  1 0.235197 -4.940867 42.960609 0.949196 -0.310879 0.048791 0.917360 0.433780 1 1 1.000000
  1 0.216085 -5.124185 42.708546 0.966312 -0.254352 0.039317 0.925730 0.385940 1 1 1.000000
  1 0.271861 -5.027293 42.655178 0.754607 -0.422928 0.501697 0.944530 0.392240 1 1 1.000000
skirt
  1 0.211697 -5.238955 43.197983 0.967227 -0.217598 -0.130851 0.858300 0.428070 1 1 1.000000
  1 0.216085 -5.124185 42.708546 0.966312 -0.254352 0.039317 0.925730 0.385940 1 1 1.000000
  1 0.235197 -4.940867 42.960609 0.949196 -0.310879 0.048791 0.917360 0.433780 1 1 1.000000
skirt
  1 0.211697 -5.238955 43.197983 0.967227 -0.217598 -0.130851 0.858300 0.428070 1 1 1.000000
  1 0.161675 -5.328144 42.758602 0.961342 -0.269876 -0.054666 0.896100 0.368290 1 1 1.000000
  1 0.216085 -5.124185 42.708546 0.966312 -0.254352 0.039317 0.925730 0.385940 1 1 1.000000
skirt
  1 0.883606 -4.283195 43.531013 0.718533 -0.617586 -0.319839 0.939460 0.602850 1 1 1.000000
  1 0.699767 -4.360294 43.129658 0.466487 -0.865272 0.183560 0.973030 0.539610 1 1 1.000000
  1 0.965742 -4.176942 43.376129 0.508823 -0.831273 0.223796 0.973030 0.604980 1 1 1.000000
skirt
  1 0.965742 -4.176942 43.376129 0.508823 -0.831273 0.223796 0.973030 0.604980 1 1 1.000000
  1 0.699767 -4.360294 43.129658 0.466487 -0.865272 0.183560 0.973030 0.539610 1 1 1.000000
  1 1.111681 -4.222090 43.239456 0.032737 -0.811529 0.583394 0.939460 0.602850 1 1 1.000000
skirt
  1 0.699767 -4.360294 43.129658 0.466487 -0.865272 0.183560 0.973030 0.539610 1 1 1.000000
  1 0.943444 -4.426633 42.934837 0.032737 -0.811529 0.583394 0.923130 0.541090 1 1 1.000000
  1 1.111681 -4.222090 43.239456 0.032737 -0.811529 0.583394 0.939460 0.602850 1 1 1.000000
skirt
  1 1.111681 -4.222090 43.239456 0.032737 -0.811529 0.583394 0.939460 0.602850 1 1 1.000000
  1 0.943444 -4.426633 42.934837 0.032737 -0.811529 0.583394 0.923130 0.541090 1 1 1.000000
  1 1.284762 -4.361073 43.116787 0.357276 -0.729278 0.583531 0.899100 0.597320 1 1 1.000000
skirt
  1 0.943444 -4.426633 42.934837 0.032737 -0.811529 0.583394 0.923130 0.541090 1 1 1.000000
  1 1.262789 -4.630687 42.777161 0.359004 -0.696620 0.621157 0.859270 0.542150 1 1 1.000000
  1 1.284762 -4.361073 43.116787 0.357276 -0.729278 0.583531 0.899100 0.597320 1 1 1.000000
skirt
  1 1.226678 -4.013775 43.493370 0.160072 -0.780971 0.603705 0.956740 0.656460 1 1 1.000000
  1 0.965742 -4.176942 43.376129 0.508823 -0.831273 0.223796 0.973030 0.604980 1 1 1.000000
  1 1.111681 -4.222090 43.239456 0.032737 -0.811529 0.583394 0.939460 0.602850 1 1 1.000000
skirt
  1 1.226678 -4.013775 43.493370 0.160072 -0.780971 0.603705 0.956740 0.656460 1 1 1.000000
  1 1.111681 -4.222090 43.239456 0.032737 -0.811529 0.583394 0.939460 0.602850 1 1 1.000000
  1 1.295488 -4.084047 43.423069 0.359004 -0.696620 0.621157 0.938420 0.650170 1 1 1.000000
skirt
  1 1.295488 -4.084047 43.423069 0.359004 -0.696620 0.621157 0.938420 0.650170 1 1 1.000000
  1 1.111681 -4.222090 43.239456 0.032737 -0.811529 0.583394 0.939460 0.602850 1 1 1.000000
  1 1.284762 -4.361073 43.116787 0.357276 -0.729278 0.583531 0.899100 0.597320 1 1 1.000000
skirt
  1 1.639730 -4.856291 42.201946 0.501405 -0.342485 0.794542 0.858300 0.428070 1 1 1.000000
  1 1.814664 -4.517674 42.223598 0.355342 -0.470025 0.807965 0.917360 0.433780 1 1 1.000000
  1 1.606057 -4.405180 42.443447 0.580981 -0.533382 0.614788 0.914930 0.482790 1 1 1.000000
skirt
  1 1.347656 -4.815728 42.456059 0.681081 -0.410034 0.606630 0.840440 0.485980 1 1 1.000000
  1 1.639730 -4.856291 42.201946 0.501405 -0.342485 0.794542 0.858300 0.428070 1 1 1.000000
  1 1.606057 -4.405180 42.443447 0.580981 -0.533382 0.614788 0.914930 0.482790 1 1 1.000000
skirt
  1 1.262789 -4.630687 42.777161 0.359004 -0.696620 0.621157 0.859270 0.542150 1 1 1.000000
  1 1.347656 -4.815728 42.456059 0.681081 -0.410034 0.606630 0.840440 0.485980 1 1 1.000000
  1 1.606057 -4.405180 42.443447 0.580981 -0.533382 0.614788 0.914930 0.482790 1 1 1.000000
skirt
  1 1.480399 -4.282771 42.785873 0.655820 -0.634383 0.409216 0.923130 0.541090 1 1 1.000000
  1 1.262789 -4.630687 42.777161 0.359004 -0.696620 0.621157 0.859270 0.542150 1 1 1.000000
  1 1.606057 -4.405180 42.443447 0.580981 -0.533382 0.614788 0.914930 0.482790 1 1 1.000000
skirt
  1 1.262789 -4.630687 42.777161 0.359004 -0.696620 0.621157 0.859270 0.542150 1 1 1.000000
  1 1.480399 -4.282771 42.785873 0.655820 -0.634383 0.409216 0.923130 0.541090 1 1 1.000000
  1 1.284762 -4.361073 43.116787 0.357276 -0.729278 0.583531 0.899100 0.597320 1 1 1.000000
skirt
  1 1.480399 -4.282771 42.785873 0.655820 -0.634383 0.409216 0.923130 0.541090 1 1 1.000000
  1 1.407429 -4.142846 43.157413 0.623408 -0.658561 0.421496 0.939460 0.602850 1 1 1.000000
  1 1.284762 -4.361073 43.116787 0.357276 -0.729278 0.583531 0.899100 0.597320 1 1 1.000000
skirt
  1 1.407429 -4.142846 43.157413 0.623408 -0.658561 0.421496 0.939460 0.602850 1 1 1.000000
  1 1.295488 -4.084047 43.423069 0.359004 -0.696620 0.621157 0.938420 0.650170 1 1 1.000000
  1 1.284762 -4.361073 43.116787 0.357276 -0.729278 0.583531 0.899100 0.597320 1 1 1.000000
skirt
  1 1.347656 -3.981338 43.459797 0.537162 -0.679983 0.499078 0.956740 0.656460 1 1 1.000000
  1 1.295488 -4.084047 43.423069 0.359004 -0.696620 0.621157 0.938420 0.650170 1 1 1.000000
  1 1.407429 -4.142846 43.157413 0.623408 -0.658561 0.421496 0.939460 0.602850 1 1 1.000000
skirt
  1 1.295488 -4.084047 43.423069 0.359004 -0.696620 0.621157 0.938420 0.650170 1 1 1.000000
  1 1.347656 -3.981338 43.459797 0.537162 -0.679983 0.499078 0.956740 0.656460 1 1 1.000000
  1 1.302086 -3.803933 43.717419 0.258859 -0.965915 -0.000027 0.973030 0.704620 1 1 1.000000
skirt
  1 1.226678 -4.013775 43.493370 0.160072 -0.780971 0.603705 0.956740 0.656460 1 1 1.000000
  1 1.295488 -4.084047 43.423069 0.359004 -0.696620 0.621157 0.938420 0.650170 1 1 1.000000
  1 1.302086 -3.803933 43.717419 0.258859 -0.965915 -0.000027 0.973030 0.704620 1 1 1.000000
skirt
  1 1.159299 -3.991836 43.566341 0.555408 -0.784711 0.275228 0.973030 0.659110 1 1 1.000000
  1 1.226678 -4.013775 43.493370 0.160072 -0.780971 0.603705 0.956740 0.656460 1 1 1.000000
  1 1.302086 -3.803933 43.717419 0.258859 -0.965915 -0.000027 0.973030 0.704620 1 1 1.000000
skirt
  1 1.226678 -4.013775 43.493370 0.160072 -0.780971 0.603705 0.956740 0.656460 1 1 1.000000
  1 1.159299 -3.991836 43.566341 0.555408 -0.784711 0.275228 0.973030 0.659110 1 1 1.000000
  1 0.965742 -4.176942 43.376129 0.508823 -0.831273 0.223796 0.973030 0.604980 1 1 1.000000
skirt
  1 1.159299 -3.991836 43.566341 0.555408 -0.784711 0.275228 0.973030 0.659110 1 1 1.000000
  1 1.112299 -4.044425 43.639603 0.766840 -0.618406 -0.171842 0.956740 0.656460 1 1 1.000000
  1 0.965742 -4.176942 43.376129 0.508823 -0.831273 0.223796 0.973030 0.604980 1 1 1.000000
skirt
  1 1.112299 -4.044425 43.639603 0.766840 -0.618406 -0.171842 0.956740 0.656460 1 1 1.000000
  1 0.883606 -4.283195 43.531013 0.718533 -0.617586 -0.319839 0.939460 0.602850 1 1 1.000000
  1 0.965742 -4.176942 43.376129 0.508823 -0.831273 0.223796 0.973030 0.604980 1 1 1.000000
skirt
  1 0.883606 -4.283195 43.531013 0.718533 -0.617586 -0.319839 0.939460 0.602850 1 1 1.000000
  1 1.112299 -4.044425 43.639603 0.766840 -0.618406 -0.171842 0.956740 0.656460 1 1 1.000000
  1 1.077715 -4.142391 43.701454 0.818483 -0.573544 0.033647 0.938420 0.650170 1 1 1.000000
skirt
  1 1.077715 -4.142391 43.701454 0.818483 -0.573544 0.033647 0.938420 0.650170 1 1 1.000000
  1 1.112299 -4.044425 43.639603 0.766840 -0.618406 -0.171842 0.956740 0.656460 1 1 1.000000
  1 1.302086 -3.803933 43.717419 0.258859 -0.965915 -0.000027 0.973030 0.704620 1 1 1.000000
skirt
  1 1.105734 -4.046180 43.769131 0.746379 -0.623966 0.231483 0.956740 0.656460 1 1 1.000000
  1 1.077715 -4.142391 43.701454 0.818483 -0.573544 0.033647 0.938420 0.650170 1 1 1.000000
  1 1.302086 -3.803933 43.717419 0.258859 -0.965915 -0.000027 0.973030 0.704620 1 1 1.000000
skirt
  1 1.145062 -3.995672 43.848145 0.599239 -0.761217 -0.247912 0.973030 0.659110 1 1 1.000000
  1 1.105734 -4.046180 43.769131 0.746379 -0.623966 0.231483 0.956740 0.656460 1 1 1.000000
  1 1.302086 -3.803933 43.717419 0.258859 -0.965915 -0.000027 0.973030 0.704620 1 1 1.000000
skirt
  1 1.105734 -4.046180 43.769131 0.746379 -0.623966 0.231483 0.956740 0.656460 1 1 1.000000
  1 1.145062 -3.995672 43.848145 0.599239 -0.761217 -0.247912 0.973030 0.659110 1 1 1.000000
  1 0.933498 -4.185587 44.012775 0.529934 -0.825629 -0.193664 0.973030 0.604980 1 1 1.000000
skirt
  1 1.145062 -3.995672 43.848145 0.599239 -0.761217 -0.247912 0.973030 0.659110 1 1 1.000000
  1 1.204706 -4.019659 43.926929 0.221472 -0.764580 -0.605283 0.956740 0.656460 1 1 1.000000
  1 0.933498 -4.185587 44.012775 0.529934 -0.825629 -0.193664 0.973030 0.604980 1 1 1.000000
skirt
  1 1.204706 -4.019659 43.926929 0.221472 -0.764580 -0.605283 0.956740 0.656460 1 1 1.000000
  1 1.145062 -3.995672 43.848145 0.599239 -0.761217 -0.247912 0.973030 0.659110 1 1 1.000000
  1 1.302086 -3.803933 43.717419 0.258859 -0.965915 -0.000027 0.973030 0.704620 1 1 1.000000
skirt
  1 1.112299 -4.044425 43.639603 0.766840 -0.618406 -0.171842 0.956740 0.656460 1 1 1.000000
  1 1.159299 -3.991836 43.566341 0.555408 -0.784711 0.275228 0.973030 0.659110 1 1 1.000000
  1 1.302086 -3.803933 43.717419 0.258859 -0.965915 -0.000027 0.973030 0.704620 1 1 1.000000
skirt
  1 1.639730 -4.856291 42.201946 0.501405 -0.342485 0.794542 0.858300 0.428070 1 1 1.000000
  1 2.041016 -4.824602 41.998283 0.438317 -0.410063 0.799829 0.896100 0.368290 1 1 1.000000
  1 2.071114 -4.627144 42.083023 0.339688 -0.422264 0.840420 0.925730 0.385940 1 1 1.000000
skirt
  1 1.639730 -4.856291 42.201946 0.501405 -0.342485 0.794542 0.858300 0.428070 1 1 1.000000
  1 2.071114 -4.627144 42.083023 0.339688 -0.422264 0.840420 0.925730 0.385940 1 1 1.000000
  1 1.814664 -4.517674 42.223598 0.355342 -0.470025 0.807965 0.917360 0.433780 1 1 1.000000
skirt
  1 1.814664 -4.517674 42.223598 0.355342 -0.470025 0.807965 0.917360 0.433780 1 1 1.000000
  1 2.071114 -4.627144 42.083023 0.339688 -0.422264 0.840420 0.925730 0.385940 1 1 1.000000
  1 2.123217 -4.531227 42.141590 -0.119648 -0.657196 0.744163 0.944530 0.392240 1 1 1.000000
skirt
  1 1.814664 -4.517674 42.223598 0.355342 -0.470025 0.807965 0.917360 0.433780 1 1 1.000000
  1 2.123217 -4.531227 42.141590 -0.119648 -0.657196 0.744163 0.944530 0.392240 1 1 1.000000
  1 2.014169 -4.332079 42.281715 -0.056471 -0.756194 0.651906 0.960750 0.431730 1 1 1.000000
skirt
  1 1.606057 -4.405180 42.443447 0.580981 -0.533382 0.614788 0.914930 0.482790 1 1 1.000000
  1 1.814664 -4.517674 42.223598 0.355342 -0.470025 0.807965 0.917360 0.433780 1 1 1.000000
  1 2.014169 -4.332079 42.281715 -0.056471 -0.756194 0.651906 0.960750 0.431730 1 1 1.000000
skirt
  1 1.606057 -4.405180 42.443447 0.580981 -0.533382 0.614788 0.914930 0.482790 1 1 1.000000
  1 2.014169 -4.332079 42.281715 -0.056471 -0.756194 0.651906 0.960750 0.431730 1 1 1.000000
  1 1.884708 -4.175380 42.501789 0.072852 -0.902284 0.424942 0.971050 0.478340 1 1 1.000000
skirt
  1 1.480399 -4.282771 42.785873 0.655820 -0.634383 0.409216 0.923130 0.541090 1 1 1.000000
  1 1.606057 -4.405180 42.443447 0.580981 -0.533382 0.614788 0.914930 0.482790 1 1 1.000000
  1 1.884708 -4.175380 42.501789 0.072852 -0.902284 0.424942 0.971050 0.478340 1 1 1.000000
skirt
  1 1.724109 -4.085801 42.845509 0.146629 -0.950985 0.272262 0.973030 0.539610 1 1 1.000000
  1 1.480399 -4.282771 42.785873 0.655820 -0.634383 0.409216 0.923130 0.541090 1 1 1.000000
  1 1.884708 -4.175380 42.501789 0.072852 -0.902284 0.424942 0.971050 0.478340 1 1 1.000000
skirt
  1 1.480399 -4.282771 42.785873 0.655820 -0.634383 0.409216 0.923130 0.541090 1 1 1.000000
  1 1.724109 -4.085801 42.845509 0.146629 -0.950985 0.272262 0.973030 0.539610 1 1 1.000000
  1 1.407429 -4.142846 43.157413 0.623408 -0.658561 0.421496 0.939460 0.602850 1 1 1.000000
skirt
  1 1.724109 -4.085801 42.845509 0.146629 -0.950985 0.272262 0.973030 0.539610 1 1 1.000000
  1 1.560520 -4.017578 43.211143 0.118806 -0.935769 0.331997 0.973030 0.604980 1 1 1.000000
  1 1.407429 -4.142846 43.157413 0.623408 -0.658561 0.421496 0.939460 0.602850 1 1 1.000000
skirt
  1 1.560520 -4.017578 43.211143 0.118806 -0.935769 0.331997 0.973030 0.604980 1 1 1.000000
  1 1.347656 -3.981338 43.459797 0.537162 -0.679983 0.499078 0.956740 0.656460 1 1 1.000000
  1 1.407429 -4.142846 43.157413 0.623408 -0.658561 0.421496 0.939460 0.602850 1 1 1.000000
skirt
  1 1.422608 -3.921304 43.493305 0.072852 -0.902284 0.424942 0.973030 0.659110 1 1 1.000000
  1 1.347656 -3.981338 43.459797 0.537162 -0.679983 0.499078 0.956740 0.656460 1 1 1.000000
  1 1.560520 -4.017578 43.211143 0.118806 -0.935769 0.331997 0.973030 0.604980 1 1 1.000000
skirt
  1 1.347656 -3.981338 43.459797 0.537162 -0.679983 0.499078 0.956740 0.656460 1 1 1.000000
  1 1.422608 -3.921304 43.493305 0.072852 -0.902284 0.424942 0.973030 0.659110 1 1 1.000000
  1 1.302086 -3.803933 43.717419 0.258859 -0.965915 -0.000027 0.973030 0.704620 1 1 1.000000
skirt
  1 1.422608 -3.921304 43.493305 0.072852 -0.902284 0.424942 0.973030 0.659110 1 1 1.000000
  1 1.517356 -3.935865 43.527245 -0.362725 -0.921099 0.141444 0.956740 0.656460 1 1 1.000000
  1 1.302086 -3.803933 43.717419 0.258859 -0.965915 -0.000027 0.973030 0.704620 1 1 1.000000
skirt
  1 1.517356 -3.935865 43.527245 -0.362725 -0.921099 0.141444 0.956740 0.656460 1 1 1.000000
  1 1.618538 -3.997491 43.551426 -0.322768 -0.879308 0.350196 0.938420 0.650170 1 1 1.000000
  1 1.302086 -3.803933 43.717419 0.258859 -0.965915 -0.000027 0.973030 0.704620 1 1 1.000000
skirt
  1 1.517356 -3.935865 43.527245 -0.362725 -0.921099 0.141444 0.956740 0.656460 1 1 1.000000
  1 1.745756 -4.052193 43.291847 -0.384102 -0.923230 0.010617 0.939460 0.602850 1 1 1.000000
  1 1.618538 -3.997491 43.551426 -0.322768 -0.879308 0.350196 0.938420 0.650170 1 1 1.000000
skirt
  1 1.618538 -3.997491 43.551426 -0.322768 -0.879308 0.350196 0.938420 0.650170 1 1 1.000000
  1 1.745756 -4.052193 43.291847 -0.384102 -0.923230 0.010617 0.939460 0.602850 1 1 1.000000
  1 1.943962 -4.184450 43.378731 -0.283142 -0.900866 0.329046 0.899100 0.597320 1 1 1.000000
skirt
  1 1.745756 -4.052193 43.291847 -0.384102 -0.923230 0.010617 0.939460 0.602850 1 1 1.000000
  1 2.001135 -4.143234 42.992821 -0.384102 -0.923230 0.010617 0.923130 0.541090 1 1 1.000000
  1 1.943962 -4.184450 43.378731 -0.283142 -0.900866 0.329046 0.899100 0.597320 1 1 1.000000
skirt
  1 2.001135 -4.143234 42.992821 -0.384102 -0.923230 0.010617 0.923130 0.541090 1 1 1.000000
  1 2.294705 -4.354182 43.187256 -0.322768 -0.879308 0.350196 0.859270 0.542150 1 1 1.000000
  1 1.943962 -4.184450 43.378731 -0.283142 -0.900866 0.329046 0.899100 0.597320 1 1 1.000000
skirt
  1 2.001135 -4.143234 42.992821 -0.384102 -0.923230 0.010617 0.923130 0.541090 1 1 1.000000
  1 2.197097 -4.246823 42.678349 -0.528824 -0.830757 0.173745 0.914930 0.482790 1 1 1.000000
  1 2.294705 -4.354182 43.187256 -0.322768 -0.879308 0.350196 0.859270 0.542150 1 1 1.000000
skirt
  1 2.197097 -4.246823 42.678349 -0.528824 -0.830757 0.173745 0.914930 0.482790 1 1 1.000000
  1 2.529736 -4.498984 42.925797 -0.639964 -0.764051 0.081688 0.840440 0.485980 1 1 1.000000
  1 2.294705 -4.354182 43.187256 -0.322768 -0.879308 0.350196 0.859270 0.542150 1 1 1.000000
skirt
  1 2.528696 -4.618107 42.555225 -0.678345 -0.658608 0.325704 0.858300 0.428070 1 1 1.000000
  1 2.529736 -4.498984 42.925797 -0.639964 -0.764051 0.081688 0.840440 0.485980 1 1 1.000000
  1 2.197097 -4.246823 42.678349 -0.528824 -0.830757 0.173745 0.914930 0.482790 1 1 1.000000
skirt
  1 2.257554 -4.399003 42.399605 -0.534767 -0.708528 0.460447 0.917360 0.433780 1 1 1.000000
  1 2.528696 -4.618107 42.555225 -0.678345 -0.658608 0.325704 0.858300 0.428070 1 1 1.000000
  1 2.197097 -4.246823 42.678349 -0.528824 -0.830757 0.173745 0.914930 0.482790 1 1 1.000000
skirt
  1 2.235516 -4.583102 42.148350 -0.578410 -0.668231 0.467878 0.925730 0.385940 1 1 1.000000
  1 2.528696 -4.618107 42.555225 -0.678345 -0.658608 0.325704 0.858300 0.428070 1 1 1.000000
  1 2.257554 -4.399003 42.399605 -0.534767 -0.708528 0.460447 0.917360 0.433780 1 1 1.000000
skirt
  1 2.235516 -4.583102 42.148350 -0.578410 -0.668231 0.467878 0.925730 0.385940 1 1 1.000000
  1 2.257554 -4.399003 42.399605 -0.534767 -0.708528 0.460447 0.917360 0.433780 1 1 1.000000
  1 2.123217 -4.531227 42.141590 -0.119648 -0.657196 0.744163 0.944530 0.392240 1 1 1.000000
skirt
  1 2.123217 -4.531227 42.141590 -0.119648 -0.657196 0.744163 0.944530 0.392240 1 1 1.000000
  1 2.257554 -4.399003 42.399605 -0.534767 -0.708528 0.460447 0.917360 0.433780 1 1 1.000000
  1 2.014169 -4.332079 42.281715 -0.056471 -0.756194 0.651906 0.960750 0.431730 1 1 1.000000
skirt
  1 2.257554 -4.399003 42.399605 -0.534767 -0.708528 0.460447 0.917360 0.433780 1 1 1.000000
  1 2.197097 -4.246823 42.678349 -0.528824 -0.830757 0.173745 0.914930 0.482790 1 1 1.000000
  1 2.014169 -4.332079 42.281715 -0.056471 -0.756194 0.651906 0.960750 0.431730 1 1 1.000000
skirt
  1 2.014169 -4.332079 42.281715 -0.056471 -0.756194 0.651906 0.960750 0.431730 1 1 1.000000
  1 2.197097 -4.246823 42.678349 -0.528824 -0.830757 0.173745 0.914930 0.482790 1 1 1.000000
  1 1.884708 -4.175380 42.501789 0.072852 -0.902284 0.424942 0.971050 0.478340 1 1 1.000000
skirt
  1 2.197097 -4.246823 42.678349 -0.528824 -0.830757 0.173745 0.914930 0.482790 1 1 1.000000
  1 2.001135 -4.143234 42.992821 -0.384102 -0.923230 0.010617 0.923130 0.541090 1 1 1.000000
  1 1.884708 -4.175380 42.501789 0.072852 -0.902284 0.424942 0.971050 0.478340 1 1 1.000000
skirt
  1 2.001135 -4.143234 42.992821 -0.384102 -0.923230 0.010617 0.923130 0.541090 1 1 1.000000
  1 1.724109 -4.085801 42.845509 0.146629 -0.950985 0.272262 0.973030 0.539610 1 1 1.000000
  1 1.884708 -4.175380 42.501789 0.072852 -0.902284 0.424942 0.971050 0.478340 1 1 1.000000
skirt
  1 2.001135 -4.143234 42.992821 -0.384102 -0.923230 0.010617 0.923130 0.541090 1 1 1.000000
  1 1.745756 -4.052193 43.291847 -0.384102 -0.923230 0.010617 0.939460 0.602850 1 1 1.000000
  1 1.724109 -4.085801 42.845509 0.146629 -0.950985 0.272262 0.973030 0.539610 1 1 1.000000
skirt
  1 1.724109 -4.085801 42.845509 0.146629 -0.950985 0.272262 0.973030 0.539610 1 1 1.000000
  1 1.745756 -4.052193 43.291847 -0.384102 -0.923230 0.010617 0.939460 0.602850 1 1 1.000000
  1 1.560520 -4.017578 43.211143 0.118806 -0.935769 0.331997 0.973030 0.604980 1 1 1.000000
skirt
  1 1.745756 -4.052193 43.291847 -0.384102 -0.923230 0.010617 0.939460 0.602850 1 1 1.000000
  1 1.517356 -3.935865 43.527245 -0.362725 -0.921099 0.141444 0.956740 0.656460 1 1 1.000000
  1 1.560520 -4.017578 43.211143 0.118806 -0.935769 0.331997 0.973030 0.604980 1 1 1.000000
skirt
  1 1.517356 -3.935865 43.527245 -0.362725 -0.921099 0.141444 0.956740 0.656460 1 1 1.000000
  1 1.422608 -3.921304 43.493305 0.072852 -0.902284 0.424942 0.973030 0.659110 1 1 1.000000
  1 1.560520 -4.017578 43.211143 0.118806 -0.935769 0.331997 0.973030 0.604980 1 1 1.000000
skirt
  1 2.395172 -4.729691 42.139057 -0.612843 -0.691691 0.382081 0.896100 0.368290 1 1 1.000000
  1 2.528696 -4.618107 42.555225 -0.678345 -0.658608 0.325704 0.858300 0.428070 1 1 1.000000
  1 2.235516 -4.583102 42.148350 -0.578410 -0.668231 0.467878 0.925730 0.385940 1 1 1.000000
skirt
  1 2.294705 -4.354182 43.187256 -0.322768 -0.879308 0.350196 0.859270 0.542150 1 1 1.000000
  1 2.303903 -4.062108 43.475494 -0.033338 -0.819035 0.572773 0.923130 0.541090 1 1 1.000000
  1 1.943962 -4.184450 43.378731 -0.283142 -0.900866 0.329046 0.899100 0.597320 1 1 1.000000
skirt
  1 2.303903 -4.062108 43.475494 -0.033338 -0.819035 0.572773 0.923130 0.541090 1 1 1.000000
  1 1.912498 -4.007502 43.557690 -0.033338 -0.819035 0.572773 0.939460 0.602850 1 1 1.000000
  1 1.943962 -4.184450 43.378731 -0.283142 -0.900866 0.329046 0.899100 0.597320 1 1 1.000000
skirt
  1 1.912498 -4.007502 43.557690 -0.033338 -0.819035 0.572773 0.939460 0.602850 1 1 1.000000
  1 1.618538 -3.997491 43.551426 -0.322768 -0.879308 0.350196 0.938420 0.650170 1 1 1.000000
  1 1.943962 -4.184450 43.378731 -0.283142 -0.900866 0.329046 0.899100 0.597320 1 1 1.000000
skirt
  1 1.585580 -3.917598 43.635994 -0.150150 -0.864154 0.480305 0.956740 0.656460 1 1 1.000000
  1 1.618538 -3.997491 43.551426 -0.322768 -0.879308 0.350196 0.938420 0.650170 1 1 1.000000
  1 1.912498 -4.007502 43.557690 -0.033338 -0.819035 0.572773 0.939460 0.602850 1 1 1.000000
skirt
  1 1.618538 -3.997491 43.551426 -0.322768 -0.879308 0.350196 0.938420 0.650170 1 1 1.000000
  1 1.585580 -3.917598 43.635994 -0.150150 -0.864154 0.480305 0.956740 0.656460 1 1 1.000000
  1 1.302086 -3.803933 43.717419 0.258859 -0.965915 -0.000027 0.973030 0.704620 1 1 1.000000
skirt
  1 1.585580 -3.917598 43.635994 -0.150150 -0.864154 0.480305 0.956740 0.656460 1 1 1.000000
  1 1.571051 -3.881519 43.729996 -0.208601 -0.977710 -0.023839 0.973030 0.659110 1 1 1.000000
  1 1.302086 -3.803933 43.717419 0.258859 -0.965915 -0.000027 0.973030 0.704620 1 1 1.000000
skirt
  1 1.571051 -3.881519 43.729996 -0.208601 -0.977710 -0.023839 0.973030 0.659110 1 1 1.000000
  1 1.576056 -3.920134 43.823929 -0.099662 -0.850595 -0.516290 0.956740 0.656460 1 1 1.000000
  1 1.302086 -3.803933 43.717419 0.258859 -0.965915 -0.000027 0.973030 0.704620 1 1 1.000000
skirt
  1 1.576056 -3.920134 43.823929 -0.099662 -0.850595 -0.516290 0.956740 0.656460 1 1 1.000000
  1 1.571051 -3.881519 43.729996 -0.208601 -0.977710 -0.023839 0.973030 0.659110 1 1 1.000000
  1 1.895922 -3.927706 43.745792 -0.101127 -0.994699 -0.018638 0.973030 0.604980 1 1 1.000000
skirt
  1 1.893549 -4.012604 43.932392 0.013256 -0.816765 -0.576818 0.939460 0.602850 1 1 1.000000
  1 1.576056 -3.920134 43.823929 -0.099662 -0.850595 -0.516290 0.956740 0.656460 1 1 1.000000
  1 1.895922 -3.927706 43.745792 -0.101127 -0.994699 -0.018638 0.973030 0.604980 1 1 1.000000
skirt
  1 2.301693 -3.931054 43.766270 -0.028299 -0.999597 -0.002147 0.973030 0.539610 1 1 1.000000
  1 1.893549 -4.012604 43.932392 0.013256 -0.816765 -0.576818 0.939460 0.602850 1 1 1.000000
  1 1.895922 -3.927706 43.745792 -0.101127 -0.994699 -0.018638 0.973030 0.604980 1 1 1.000000
skirt
  1 2.301693 -3.931054 43.766270 -0.028299 -0.999597 -0.002147 0.973030 0.539610 1 1 1.000000
  1 1.895922 -3.927706 43.745792 -0.101127 -0.994699 -0.018638 0.973030 0.604980 1 1 1.000000
  1 1.912498 -4.007502 43.557690 -0.033338 -0.819035 0.572773 0.939460 0.602850 1 1 1.000000
skirt
  1 2.303903 -4.062108 43.475494 -0.033338 -0.819035 0.572773 0.923130 0.541090 1 1 1.000000
  1 2.301693 -3.931054 43.766270 -0.028299 -0.999597 -0.002147 0.973030 0.539610 1 1 1.000000
  1 1.912498 -4.007502 43.557690 -0.033338 -0.819035 0.572773 0.939460 0.602850 1 1 1.000000
skirt
  1 1.895922 -3.927706 43.745792 -0.101127 -0.994699 -0.018638 0.973030 0.604980 1 1 1.000000
  1 1.585580 -3.917598 43.635994 -0.150150 -0.864154 0.480305 0.956740 0.656460 1 1 1.000000
  1 1.912498 -4.007502 43.557690 -0.033338 -0.819035 0.572773 0.939460 0.602850 1 1 1.000000
skirt
  1 1.571051 -3.881519 43.729996 -0.208601 -0.977710 -0.023839 0.973030 0.659110 1 1 1.000000
  1 1.585580 -3.917598 43.635994 -0.150150 -0.864154 0.480305 0.956740 0.656460 1 1 1.000000
  1 1.895922 -3.927706 43.745792 -0.101127 -0.994699 -0.018638 0.973030 0.604980 1 1 1.000000
skirt
  1 1.576056 -3.920134 43.823929 -0.099662 -0.850595 -0.516290 0.956740 0.656460 1 1 1.000000
  1 1.893549 -4.012604 43.932392 0.013256 -0.816765 -0.576818 0.939460 0.602850 1 1 1.000000
  1 1.600434 -4.002334 43.909184 -0.284507 -0.869056 -0.404719 0.938420 0.650170 1 1 1.000000
skirt
  1 1.576056 -3.920134 43.823929 -0.099662 -0.850595 -0.516290 0.956740 0.656460 1 1 1.000000
  1 1.600434 -4.002334 43.909184 -0.284507 -0.869056 -0.404719 0.938420 0.650170 1 1 1.000000
  1 1.302086 -3.803933 43.717419 0.258859 -0.965915 -0.000027 0.973030 0.704620 1 1 1.000000
skirt
  1 1.600434 -4.002334 43.909184 -0.284507 -0.869056 -0.404719 0.938420 0.650170 1 1 1.000000
  1 1.497236 -3.941260 43.924721 -0.345324 -0.916431 -0.202251 0.956740 0.656460 1 1 1.000000
  1 1.302086 -3.803933 43.717419 0.258859 -0.965915 -0.000027 0.973030 0.704620 1 1 1.000000
skirt
  1 1.497236 -3.941260 43.924721 -0.345324 -0.916431 -0.202251 0.956740 0.656460 1 1 1.000000
  1 1.399531 -3.927479 43.949265 0.100326 -0.885712 -0.453264 0.973030 0.659110 1 1 1.000000
  1 1.302086 -3.803933 43.717419 0.258859 -0.965915 -0.000027 0.973030 0.704620 1 1 1.000000
skirt
  1 0.334332 -5.087263 43.534813 0.870099 -0.359370 -0.337315 0.840440 0.485980 1 1 1.000000
  1 0.211697 -5.238955 43.197983 0.967227 -0.217598 -0.130851 0.858300 0.428070 1 1 1.000000
  1 0.343628 -4.743443 43.192490 0.863338 -0.457716 -0.212469 0.914930 0.482790 1 1 1.000000
skirt
  1 0.334332 -5.087263 43.534813 0.870099 -0.359370 -0.337315 0.840440 0.485980 1 1 1.000000
  1 0.343628 -4.743443 43.192490 0.863338 -0.457716 -0.212469 0.914930 0.482790 1 1 1.000000
  1 0.567218 -4.817062 43.666481 0.818483 -0.573544 0.033647 0.859270 0.542150 1 1 1.000000
skirt
  1 0.343628 -4.743443 43.192490 0.863338 -0.457716 -0.212469 0.914930 0.482790 1 1 1.000000
  1 0.592408 -4.520698 43.383602 0.718533 -0.617586 -0.319839 0.923130 0.541090 1 1 1.000000
  1 0.567218 -4.817062 43.666481 0.818483 -0.573544 0.033647 0.859270 0.542150 1 1 1.000000
skirt
  1 0.567218 -4.817062 43.666481 0.818483 -0.573544 0.033647 0.859270 0.542150 1 1 1.000000
  1 0.592408 -4.520698 43.383602 0.718533 -0.617586 -0.319839 0.923130 0.541090 1 1 1.000000
  1 0.840409 -4.480132 43.684883 0.789012 -0.613561 0.031660 0.899100 0.597320 1 1 1.000000
skirt
  1 0.563318 -4.528499 43.958332 0.687741 -0.636053 0.349926 0.923130 0.541090 1 1 1.000000
  1 0.567218 -4.817062 43.666481 0.818483 -0.573544 0.033647 0.859270 0.542150 1 1 1.000000
  1 0.840409 -4.480132 43.684883 0.789012 -0.613561 0.031660 0.899100 0.597320 1 1 1.000000
skirt
  1 0.867582 -4.287487 43.847553 0.687741 -0.636053 0.349926 0.939460 0.602850 1 1 1.000000
  1 0.563318 -4.528499 43.958332 0.687741 -0.636053 0.349926 0.923130 0.541090 1 1 1.000000
  1 0.840409 -4.480132 43.684883 0.789012 -0.613561 0.031660 0.899100 0.597320 1 1 1.000000
skirt
  1 0.644251 -4.375149 44.226063 0.483820 -0.860635 -0.158825 0.973030 0.539610 1 1 1.000000
  1 0.563318 -4.528499 43.958332 0.687741 -0.636053 0.349926 0.923130 0.541090 1 1 1.000000
  1 0.867582 -4.287487 43.847553 0.687741 -0.636053 0.349926 0.939460 0.602850 1 1 1.000000
skirt
  1 0.933498 -4.185587 44.012775 0.529934 -0.825629 -0.193664 0.973030 0.604980 1 1 1.000000
  1 0.644251 -4.375149 44.226063 0.483820 -0.860635 -0.158825 0.973030 0.539610 1 1 1.000000
  1 0.867582 -4.287487 43.847553 0.687741 -0.636053 0.349926 0.939460 0.602850 1 1 1.000000
skirt
  1 1.064974 -4.234603 44.162224 0.068156 -0.791838 -0.606917 0.939460 0.602850 1 1 1.000000
  1 0.644251 -4.375149 44.226063 0.483820 -0.860635 -0.158825 0.973030 0.539610 1 1 1.000000
  1 0.933498 -4.185587 44.012775 0.529934 -0.825629 -0.193664 0.973030 0.604980 1 1 1.000000
skirt
  1 1.204706 -4.019659 43.926929 0.221472 -0.764580 -0.605283 0.956740 0.656460 1 1 1.000000
  1 1.064974 -4.234603 44.162224 0.068156 -0.791838 -0.606917 0.939460 0.602850 1 1 1.000000
  1 0.933498 -4.185587 44.012775 0.529934 -0.825629 -0.193664 0.973030 0.604980 1 1 1.000000
skirt
  1 1.064974 -4.234603 44.162224 0.068156 -0.791838 -0.606917 0.939460 0.602850 1 1 1.000000
  1 1.204706 -4.019659 43.926929 0.221472 -0.764580 -0.605283 0.956740 0.656460 1 1 1.000000
  1 1.266202 -4.091913 44.001915 0.420816 -0.680064 -0.600355 0.938420 0.650170 1 1 1.000000
skirt
  1 1.266202 -4.091913 44.001915 0.420816 -0.680064 -0.600355 0.938420 0.650170 1 1 1.000000
  1 1.204706 -4.019659 43.926929 0.221472 -0.764580 -0.605283 0.956740 0.656460 1 1 1.000000
  1 1.302086 -3.803933 43.717419 0.258859 -0.965915 -0.000027 0.973030 0.704620 1 1 1.000000
skirt
  1 1.321685 -3.988326 43.973415 0.585709 -0.666968 -0.460543 0.956740 0.656460 1 1 1.000000
  1 1.266202 -4.091913 44.001915 0.420816 -0.680064 -0.600355 0.938420 0.650170 1 1 1.000000
  1 1.302086 -3.803933 43.717419 0.258859 -0.965915 -0.000027 0.973030 0.704620 1 1 1.000000
skirt
  1 1.399531 -3.927479 43.949265 0.100326 -0.885712 -0.453264 0.973030 0.659110 1 1 1.000000
  1 1.321685 -3.988326 43.973415 0.585709 -0.666968 -0.460543 0.956740 0.656460 1 1 1.000000
  1 1.302086 -3.803933 43.717419 0.258859 -0.965915 -0.000027 0.973030 0.704620 1 1 1.000000
skirt
  1 1.321685 -3.988326 43.973415 0.585709 -0.666968 -0.460543 0.956740 0.656460 1 1 1.000000
  1 1.399531 -3.927479 43.949265 0.100326 -0.885712 -0.453264 0.973030 0.659110 1 1 1.000000
  1 1.508385 -4.031555 44.241207 0.134584 -0.932169 -0.336077 0.973030 0.604980 1 1 1.000000
skirt
  1 1.399531 -3.927479 43.949265 0.100326 -0.885712 -0.453264 0.973030 0.659110 1 1 1.000000
  1 1.497236 -3.941260 43.924721 -0.345324 -0.916431 -0.202251 0.956740 0.656460 1 1 1.000000
  1 1.508385 -4.031555 44.241207 0.134584 -0.932169 -0.336077 0.973030 0.604980 1 1 1.000000
skirt
  1 1.508385 -4.031555 44.241207 0.134584 -0.932169 -0.336077 0.973030 0.604980 1 1 1.000000
  1 1.497236 -3.941260 43.924721 -0.345324 -0.916431 -0.202251 0.956740 0.656460 1 1 1.000000
  1 1.700869 -4.064220 44.178703 -0.396515 -0.916364 -0.055249 0.939460 0.602850 1 1 1.000000
skirt
  1 1.497236 -3.941260 43.924721 -0.345324 -0.916431 -0.202251 0.956740 0.656460 1 1 1.000000
  1 1.600434 -4.002334 43.909184 -0.284507 -0.869056 -0.404719 0.938420 0.650170 1 1 1.000000
  1 1.700869 -4.064220 44.178703 -0.396515 -0.916364 -0.055249 0.939460 0.602850 1 1 1.000000
skirt
  1 2.651137 -4.125164 44.109505 -0.203994 -0.743702 -0.636626 0.914930 0.482790 1 1 1.000000
  1 2.585544 -4.484033 44.429466 -0.170382 -0.638222 -0.750762 0.840440 0.485980 1 1 1.000000
  1 2.236849 -4.369687 44.329975 -0.284507 -0.869056 -0.404719 0.859270 0.542150 1 1 1.000000
skirt
  1 2.274716 -4.069908 44.052162 0.013256 -0.816765 -0.576818 0.923130 0.541090 1 1 1.000000
  1 2.651137 -4.125164 44.109505 -0.203994 -0.743702 -0.636626 0.914930 0.482790 1 1 1.000000
  1 2.236849 -4.369687 44.329975 -0.284507 -0.869056 -0.404719 0.859270 0.542150 1 1 1.000000
skirt
  1 2.274716 -4.069908 44.052162 0.013256 -0.816765 -0.576818 0.923130 0.541090 1 1 1.000000
  1 2.236849 -4.369687 44.329975 -0.284507 -0.869056 -0.404719 0.859270 0.542150 1 1 1.000000
  1 1.907005 -4.194330 44.108757 -0.247246 -0.891246 -0.380197 0.899100 0.597320 1 1 1.000000
skirt
  1 2.236849 -4.369687 44.329975 -0.284507 -0.869056 -0.404719 0.859270 0.542150 1 1 1.000000
  1 1.924882 -4.163681 44.499416 -0.396515 -0.916364 -0.055249 0.923130 0.541090 1 1 1.000000
  1 1.907005 -4.194330 44.108757 -0.247246 -0.891246 -0.380197 0.899100 0.597320 1 1 1.000000
skirt
  1 1.924882 -4.163681 44.499416 -0.396515 -0.916364 -0.055249 0.923130 0.541090 1 1 1.000000
  1 1.700869 -4.064220 44.178703 -0.396515 -0.916364 -0.055249 0.939460 0.602850 1 1 1.000000
  1 1.907005 -4.194330 44.108757 -0.247246 -0.891246 -0.380197 0.899100 0.597320 1 1 1.000000
skirt
  1 1.924882 -4.163681 44.499416 -0.396515 -0.916364 -0.055249 0.923130 0.541090 1 1 1.000000
  1 1.634302 -4.109888 44.619511 0.174659 -0.943470 -0.281706 0.973030 0.539610 1 1 1.000000
  1 1.700869 -4.064220 44.178703 -0.396515 -0.916364 -0.055249 0.939460 0.602850 1 1 1.000000
skirt
  1 1.634302 -4.109888 44.619511 0.174659 -0.943470 -0.281706 0.973030 0.539610 1 1 1.000000
  1 1.508385 -4.031555 44.241207 0.134584 -0.932169 -0.336077 0.973030 0.604980 1 1 1.000000
  1 1.700869 -4.064220 44.178703 -0.396515 -0.916364 -0.055249 0.939460 0.602850 1 1 1.000000
skirt
  1 1.634302 -4.109888 44.619511 0.174659 -0.943470 -0.281706 0.973030 0.539610 1 1 1.000000
  1 1.350808 -4.158026 44.275822 0.675694 -0.639276 -0.367101 0.939460 0.602850 1 1 1.000000
  1 1.508385 -4.031555 44.241207 0.134584 -0.932169 -0.336077 0.973030 0.604980 1 1 1.000000
skirt
  1 1.350808 -4.158026 44.275822 0.675694 -0.639276 -0.367101 0.939460 0.602850 1 1 1.000000
  1 1.321685 -3.988326 43.973415 0.585709 -0.666968 -0.460543 0.956740 0.656460 1 1 1.000000
  1 1.508385 -4.031555 44.241207 0.134584 -0.932169 -0.336077 0.973030 0.604980 1 1 1.000000
skirt
  1 1.266202 -4.091913 44.001915 0.420816 -0.680064 -0.600355 0.938420 0.650170 1 1 1.000000
  1 1.321685 -3.988326 43.973415 0.585709 -0.666968 -0.460543 0.956740 0.656460 1 1 1.000000
  1 1.350808 -4.158026 44.275822 0.675694 -0.639276 -0.367101 0.939460 0.602850 1 1 1.000000
skirt
  1 1.266202 -4.091913 44.001915 0.420816 -0.680064 -0.600355 0.938420 0.650170 1 1 1.000000
  1 1.350808 -4.158026 44.275822 0.675694 -0.639276 -0.367101 0.939460 0.602850 1 1 1.000000
  1 1.224955 -4.377098 44.297924 0.415343 -0.713704 -0.564019 0.899100 0.597320 1 1 1.000000
skirt
  1 1.064974 -4.234603 44.162224 0.068156 -0.791838 -0.606917 0.939460 0.602850 1 1 1.000000
  1 1.266202 -4.091913 44.001915 0.420816 -0.680064 -0.600355 0.938420 0.650170 1 1 1.000000
  1 1.224955 -4.377098 44.297924 0.415343 -0.713704 -0.564019 0.899100 0.597320 1 1 1.000000
skirt
  1 0.867094 -4.447078 44.442631 0.068156 -0.791838 -0.606917 0.923130 0.541090 1 1 1.000000
  1 1.064974 -4.234603 44.162224 0.068156 -0.791838 -0.606917 0.939460 0.602850 1 1 1.000000
  1 1.224955 -4.377098 44.297924 0.415343 -0.713704 -0.564019 0.899100 0.597320 1 1 1.000000
skirt
  1 1.064974 -4.234603 44.162224 0.068156 -0.791838 -0.606917 0.939460 0.602850 1 1 1.000000
  1 0.867094 -4.447078 44.442631 0.068156 -0.791838 -0.606917 0.923130 0.541090 1 1 1.000000
  1 0.644251 -4.375149 44.226063 0.483820 -0.860635 -0.158825 0.973030 0.539610 1 1 1.000000
skirt
  1 0.644251 -4.375149 44.226063 0.483820 -0.860635 -0.158825 0.973030 0.539610 1 1 1.000000
  1 0.867094 -4.447078 44.442631 0.068156 -0.791838 -0.606917 0.923130 0.541090 1 1 1.000000
  1 0.379154 -4.578781 44.426571 0.599239 -0.761217 -0.247912 0.971050 0.478340 1 1 1.000000
skirt
  1 0.563318 -4.528499 43.958332 0.687741 -0.636053 0.349926 0.923130 0.541090 1 1 1.000000
  1 0.644251 -4.375149 44.226063 0.483820 -0.860635 -0.158825 0.973030 0.539610 1 1 1.000000
  1 0.379154 -4.578781 44.426571 0.599239 -0.761217 -0.247912 0.971050 0.478340 1 1 1.000000
skirt
  1 0.296823 -4.755990 44.117271 0.838098 -0.464476 0.286101 0.914930 0.482790 1 1 1.000000
  1 0.563318 -4.528499 43.958332 0.687741 -0.636053 0.349926 0.923130 0.541090 1 1 1.000000
  1 0.379154 -4.578781 44.426571 0.599239 -0.761217 -0.247912 0.971050 0.478340 1 1 1.000000
skirt
  1 0.567218 -4.817062 43.666481 0.818483 -0.573544 0.033647 0.859270 0.542150 1 1 1.000000
  1 0.563318 -4.528499 43.958332 0.687741 -0.636053 0.349926 0.923130 0.541090 1 1 1.000000
  1 0.296823 -4.755990 44.117271 0.838098 -0.464476 0.286101 0.914930 0.482790 1 1 1.000000
skirt
  1 0.165802 -4.959461 44.331600 0.949196 -0.310879 0.048791 0.917360 0.433780 1 1 1.000000
  1 0.296823 -4.755990 44.117271 0.838098 -0.464476 0.286101 0.914930 0.482790 1 1 1.000000
  1 0.236010 -4.808547 44.554993 0.750935 -0.539869 -0.380312 0.960750 0.431730 1 1 1.000000
skirt
  1 0.236010 -4.808547 44.554993 0.750935 -0.539869 -0.380312 0.960750 0.431730 1 1 1.000000
  1 0.296823 -4.755990 44.117271 0.838098 -0.464476 0.286101 0.914930 0.482790 1 1 1.000000
  1 0.379154 -4.578781 44.426571 0.599239 -0.761217 -0.247912 0.971050 0.478340 1 1 1.000000
skirt
  1 0.641619 -4.663616 44.666935 0.190639 -0.637944 -0.746112 0.914930 0.482790 1 1 1.000000
  1 0.236010 -4.808547 44.554993 0.750935 -0.539869 -0.380312 0.960750 0.431730 1 1 1.000000
  1 0.379154 -4.578781 44.426571 0.599239 -0.761217 -0.247912 0.971050 0.478340 1 1 1.000000
skirt
  1 0.867094 -4.447078 44.442631 0.068156 -0.791838 -0.606917 0.923130 0.541090 1 1 1.000000
  1 0.641619 -4.663616 44.666935 0.190639 -0.637944 -0.746112 0.914930 0.482790 1 1 1.000000
  1 0.379154 -4.578781 44.426571 0.599239 -0.761217 -0.247912 0.971050 0.478340 1 1 1.000000
skirt
  1 0.322598 -5.090416 43.766563 0.832091 -0.369574 0.413569 0.840440 0.485980 1 1 1.000000
  1 0.567218 -4.817062 43.666481 0.818483 -0.573544 0.033647 0.859270 0.542150 1 1 1.000000
  1 0.296823 -4.755990 44.117271 0.838098 -0.464476 0.286101 0.914930 0.482790 1 1 1.000000
skirt
  1 0.166778 -5.250983 44.085064 0.949365 -0.222438 0.221874 0.858300 0.428070 1 1 1.000000
  1 0.322598 -5.090416 43.766563 0.832091 -0.369574 0.413569 0.840440 0.485980 1 1 1.000000
  1 0.296823 -4.755990 44.117271 0.838098 -0.464476 0.286101 0.914930 0.482790 1 1 1.000000
skirt
  1 0.165802 -4.959461 44.331600 0.949196 -0.310879 0.048791 0.917360 0.433780 1 1 1.000000
  1 0.166778 -5.250983 44.085064 0.949365 -0.222438 0.221874 0.858300 0.428070 1 1 1.000000
  1 0.296823 -4.755990 44.117271 0.838098 -0.464476 0.286101 0.914930 0.482790 1 1 1.000000
skirt
  1 0.121598 -5.149507 44.575401 0.966312 -0.254352 0.039317 0.925730 0.385940 1 1 1.000000
  1 0.166778 -5.250983 44.085064 0.949365 -0.222438 0.221874 0.858300 0.428070 1 1 1.000000
  1 0.165802 -4.959461 44.331600 0.949196 -0.310879 0.048791 0.917360 0.433780 1 1 1.000000
skirt
  1 0.121598 -5.149507 44.575401 0.966312 -0.254352 0.039317 0.925730 0.385940 1 1 1.000000
  1 0.165802 -4.959461 44.331600 0.949196 -0.310879 0.048791 0.917360 0.433780 1 1 1.000000
  1 0.171523 -5.054176 44.636707 0.802037 -0.410178 -0.434154 0.944530 0.392240 1 1 1.000000
skirt
  1 0.171523 -5.054176 44.636707 0.802037 -0.410178 -0.434154 0.944530 0.392240 1 1 1.000000
  1 0.165802 -4.959461 44.331600 0.949196 -0.310879 0.048791 0.917360 0.433780 1 1 1.000000
  1 0.236010 -4.808547 44.554993 0.750935 -0.539869 -0.380312 0.960750 0.431730 1 1 1.000000
skirt
  1 0.424171 -4.890229 44.743481 0.435760 -0.448459 -0.780383 0.917360 0.433780 1 1 1.000000
  1 0.171523 -5.054176 44.636707 0.802037 -0.410178 -0.434154 0.944530 0.392240 1 1 1.000000
  1 0.236010 -4.808547 44.554993 0.750935 -0.539869 -0.380312 0.960750 0.431730 1 1 1.000000
skirt
  1 0.641619 -4.663616 44.666935 0.190639 -0.637944 -0.746112 0.914930 0.482790 1 1 1.000000
  1 0.424171 -4.890229 44.743481 0.435760 -0.448459 -0.780383 0.917360 0.433780 1 1 1.000000
  1 0.236010 -4.808547 44.554993 0.750935 -0.539869 -0.380312 0.960750 0.431730 1 1 1.000000
skirt
  1 0.685401 -5.112032 44.911816 0.261024 -0.406844 -0.875411 0.858300 0.428070 1 1 1.000000
  1 0.424171 -4.890229 44.743481 0.435760 -0.448459 -0.780383 0.917360 0.433780 1 1 1.000000
  1 0.641619 -4.663616 44.666935 0.190639 -0.637944 -0.746112 0.914930 0.482790 1 1 1.000000
skirt
  1 1.012189 -4.905635 44.865921 0.061442 -0.576068 -0.815089 0.840440 0.485980 1 1 1.000000
  1 0.685401 -5.112032 44.911816 0.261024 -0.406844 -0.875411 0.858300 0.428070 1 1 1.000000
  1 0.641619 -4.663616 44.666935 0.190639 -0.637944 -0.746112 0.914930 0.482790 1 1 1.000000
skirt
  1 1.012189 -4.905635 44.865921 0.061442 -0.576068 -0.815089 0.840440 0.485980 1 1 1.000000
  1 0.641619 -4.663616 44.666935 0.190639 -0.637944 -0.746112 0.914930 0.482790 1 1 1.000000
  1 1.169212 -4.655749 44.626141 0.420816 -0.680064 -0.600355 0.859270 0.542150 1 1 1.000000
skirt
  1 0.641619 -4.663616 44.666935 0.190639 -0.637944 -0.746112 0.914930 0.482790 1 1 1.000000
  1 0.867094 -4.447078 44.442631 0.068156 -0.791838 -0.606917 0.923130 0.541090 1 1 1.000000
  1 1.169212 -4.655749 44.626141 0.420816 -0.680064 -0.600355 0.859270 0.542150 1 1 1.000000
skirt
  1 1.169212 -4.655749 44.626141 0.420816 -0.680064 -0.600355 0.859270 0.542150 1 1 1.000000
  1 0.867094 -4.447078 44.442631 0.068156 -0.791838 -0.606917 0.923130 0.541090 1 1 1.000000
  1 1.224955 -4.377098 44.297924 0.415343 -0.713704 -0.564019 0.899100 0.597320 1 1 1.000000
skirt
  1 1.386107 -4.308028 44.648895 0.675694 -0.639276 -0.367101 0.923130 0.541090 1 1 1.000000
  1 1.169212 -4.655749 44.626141 0.420816 -0.680064 -0.600355 0.859270 0.542150 1 1 1.000000
  1 1.224955 -4.377098 44.297924 0.415343 -0.713704 -0.564019 0.899100 0.597320 1 1 1.000000
skirt
  1 1.350808 -4.158026 44.275822 0.675694 -0.639276 -0.367101 0.939460 0.602850 1 1 1.000000
  1 1.386107 -4.308028 44.648895 0.675694 -0.639276 -0.367101 0.923130 0.541090 1 1 1.000000
  1 1.224955 -4.377098 44.297924 0.415343 -0.713704 -0.564019 0.899100 0.597320 1 1 1.000000
skirt
  1 1.386107 -4.308028 44.648895 0.675694 -0.639276 -0.367101 0.923130 0.541090 1 1 1.000000
  1 1.350808 -4.158026 44.275822 0.675694 -0.639276 -0.367101 0.939460 0.602850 1 1 1.000000
  1 1.634302 -4.109888 44.619511 0.174659 -0.943470 -0.281706 0.973030 0.539610 1 1 1.000000
skirt
  1 1.386107 -4.308028 44.648895 0.675694 -0.639276 -0.367101 0.923130 0.541090 1 1 1.000000
  1 1.634302 -4.109888 44.619511 0.174659 -0.943470 -0.281706 0.973030 0.539610 1 1 1.000000
  1 1.759505 -4.208926 44.975163 0.123963 -0.898536 -0.421029 0.971050 0.478340 1 1 1.000000
skirt
  1 1.634302 -4.109888 44.619511 0.174659 -0.943470 -0.281706 0.973030 0.539610 1 1 1.000000
  1 1.924882 -4.163681 44.499416 -0.396515 -0.916364 -0.055249 0.923130 0.541090 1 1 1.000000
  1 1.759505 -4.208926 44.975163 0.123963 -0.898536 -0.421029 0.971050 0.478340 1 1 1.000000
skirt
  1 0.072778 -5.351971 44.514587 0.951264 -0.272654 0.144075 0.896100 0.368290 1 1 1.000000
  1 0.166778 -5.250983 44.085064 0.949365 -0.222438 0.221874 0.858300 0.428070 1 1 1.000000
  1 0.121598 -5.149507 44.575401 0.966312 -0.254352 0.039317 0.925730 0.385940 1 1 1.000000
skirt
  1 0.424171 -4.890229 44.743481 0.435760 -0.448459 -0.780383 0.917360 0.433780 1 1 1.000000
  1 0.217515 -5.123830 44.728298 0.423360 -0.399859 -0.812944 0.925730 0.385940 1 1 1.000000
  1 0.171523 -5.054176 44.636707 0.802037 -0.410178 -0.434154 0.944530 0.392240 1 1 1.000000
skirt
  1 0.685401 -5.112032 44.911816 0.261024 -0.406844 -0.875411 0.858300 0.428070 1 1 1.000000
  1 0.217515 -5.123830 44.728298 0.423360 -0.399859 -0.812944 0.925730 0.385940 1 1 1.000000
  1 0.424171 -4.890229 44.743481 0.435760 -0.448459 -0.780383 0.917360 0.433780 1 1 1.000000
skirt
  1 0.685401 -5.112032 44.911816 0.261024 -0.406844 -0.875411 0.858300 0.428070 1 1 1.000000
  1 0.279403 -5.296618 44.843948 0.337973 -0.436894 -0.833605 0.896100 0.368290 1 1 1.000000
  1 0.217515 -5.123830 44.728298 0.423360 -0.399859 -0.812944 0.925730 0.385940 1 1 1.000000
skirt
  1 1.924882 -4.163681 44.499416 -0.396515 -0.916364 -0.055249 0.923130 0.541090 1 1 1.000000
  1 2.088211 -4.275981 44.829193 -0.507448 -0.825034 -0.248626 0.914930 0.482790 1 1 1.000000
  1 1.759505 -4.208926 44.975163 0.123963 -0.898536 -0.421029 0.971050 0.478340 1 1 1.000000
skirt
  1 1.924882 -4.163681 44.499416 -0.396515 -0.916364 -0.055249 0.923130 0.541090 1 1 1.000000
  1 2.236849 -4.369687 44.329975 -0.284507 -0.869056 -0.404719 0.859270 0.542150 1 1 1.000000
  1 2.088211 -4.275981 44.829193 -0.507448 -0.825034 -0.248626 0.914930 0.482790 1 1 1.000000
skirt
  1 2.236849 -4.369687 44.329975 -0.284507 -0.869056 -0.404719 0.859270 0.542150 1 1 1.000000
  1 2.444480 -4.521834 44.609825 -0.627442 -0.760654 -0.166500 0.840440 0.485980 1 1 1.000000
  1 2.088211 -4.275981 44.829193 -0.507448 -0.825034 -0.248626 0.914930 0.482790 1 1 1.000000
skirt
  1 2.444480 -4.521834 44.609825 -0.627442 -0.760654 -0.166500 0.840440 0.485980 1 1 1.000000
  1 2.406191 -4.650938 44.975037 -0.641154 -0.648582 -0.410199 0.858300 0.428070 1 1 1.000000
  1 2.088211 -4.275981 44.829193 -0.507448 -0.825034 -0.248626 0.914930 0.482790 1 1 1.000000
skirt
  1 2.406191 -4.650938 44.975037 -0.641154 -0.648582 -0.410199 0.858300 0.428070 1 1 1.000000
  1 2.120455 -4.435734 45.108398 -0.490595 -0.696669 -0.523419 0.917360 0.433780 1 1 1.000000
  1 2.088211 -4.275981 44.829193 -0.507448 -0.825034 -0.248626 0.914930 0.482790 1 1 1.000000
skirt
  1 2.406191 -4.650938 44.975037 -0.641154 -0.648582 -0.410199 0.858300 0.428070 1 1 1.000000
  1 2.073390 -4.626529 45.351036 -0.519854 -0.652560 -0.551287 0.925730 0.385940 1 1 1.000000
  1 2.120455 -4.435734 45.108398 -0.490595 -0.696669 -0.523419 0.917360 0.433780 1 1 1.000000
skirt
  1 2.120455 -4.435734 45.108398 -0.490595 -0.696669 -0.523419 0.917360 0.433780 1 1 1.000000
  1 2.073390 -4.626529 45.351036 -0.519854 -0.652560 -0.551287 0.925730 0.385940 1 1 1.000000
  1 1.960896 -4.574720 45.347813 -0.043023 -0.636628 -0.769970 0.944530 0.392240 1 1 1.000000
skirt
  1 2.120455 -4.435734 45.108398 -0.490595 -0.696669 -0.523419 0.917360 0.433780 1 1 1.000000
  1 1.960896 -4.574720 45.347813 -0.043023 -0.636628 -0.769970 0.944530 0.392240 1 1 1.000000
  1 1.866311 -4.371703 45.202881 0.010676 -0.738201 -0.674496 0.960750 0.431730 1 1 1.000000
skirt
  1 1.960896 -4.574720 45.347813 -0.043023 -0.636628 -0.769970 0.944530 0.392240 1 1 1.000000
  1 1.662190 -4.558500 45.235516 0.435760 -0.448459 -0.780383 0.917360 0.433780 1 1 1.000000
  1 1.866311 -4.371703 45.202881 0.010676 -0.738201 -0.674496 0.960750 0.431730 1 1 1.000000
skirt
  1 1.662190 -4.558500 45.235516 0.435760 -0.448459 -0.780383 0.917360 0.433780 1 1 1.000000
  1 1.476726 -4.439830 44.998829 0.640843 -0.517336 -0.567171 0.914930 0.482790 1 1 1.000000
  1 1.866311 -4.371703 45.202881 0.010676 -0.738201 -0.674496 0.960750 0.431730 1 1 1.000000
skirt
  1 1.662190 -4.558500 45.235516 0.435760 -0.448459 -0.780383 0.917360 0.433780 1 1 1.000000
  1 1.486445 -4.897379 45.230156 0.579577 -0.321477 -0.748828 0.858300 0.428070 1 1 1.000000
  1 1.476726 -4.439830 44.998829 0.640843 -0.517336 -0.567171 0.914930 0.482790 1 1 1.000000
skirt
  1 1.486445 -4.897379 45.230156 0.579577 -0.321477 -0.748828 0.858300 0.428070 1 1 1.000000
  1 1.221478 -4.849535 44.949097 0.739384 -0.394412 -0.545665 0.840440 0.485980 1 1 1.000000
  1 1.476726 -4.439830 44.998829 0.640843 -0.517336 -0.567171 0.914930 0.482790 1 1 1.000000
skirt
  1 1.221478 -4.849535 44.949097 0.739384 -0.394412 -0.545665 0.840440 0.485980 1 1 1.000000
  1 1.169212 -4.655749 44.626141 0.420816 -0.680064 -0.600355 0.859270 0.542150 1 1 1.000000
  1 1.476726 -4.439830 44.998829 0.640843 -0.517336 -0.567171 0.914930 0.482790 1 1 1.000000
skirt
  1 1.169212 -4.655749 44.626141 0.420816 -0.680064 -0.600355 0.859270 0.542150 1 1 1.000000
  1 1.386107 -4.308028 44.648895 0.675694 -0.639276 -0.367101 0.923130 0.541090 1 1 1.000000
  1 1.476726 -4.439830 44.998829 0.640843 -0.517336 -0.567171 0.914930 0.482790 1 1 1.000000
skirt
  1 1.476726 -4.439830 44.998829 0.640843 -0.517336 -0.567171 0.914930 0.482790 1 1 1.000000
  1 1.386107 -4.308028 44.648895 0.675694 -0.639276 -0.367101 0.923130 0.541090 1 1 1.000000
  1 1.759505 -4.208926 44.975163 0.123963 -0.898536 -0.421029 0.971050 0.478340 1 1 1.000000
skirt
  1 1.866311 -4.371703 45.202881 0.010676 -0.738201 -0.674496 0.960750 0.431730 1 1 1.000000
  1 1.476726 -4.439830 44.998829 0.640843 -0.517336 -0.567171 0.914930 0.482790 1 1 1.000000
  1 1.759505 -4.208926 44.975163 0.123963 -0.898536 -0.421029 0.971050 0.478340 1 1 1.000000
skirt
  1 2.088211 -4.275981 44.829193 -0.507448 -0.825034 -0.248626 0.914930 0.482790 1 1 1.000000
  1 1.866311 -4.371703 45.202881 0.010676 -0.738201 -0.674496 0.960750 0.431730 1 1 1.000000
  1 1.759505 -4.208926 44.975163 0.123963 -0.898536 -0.421029 0.971050 0.478340 1 1 1.000000
skirt
  1 2.088211 -4.275981 44.829193 -0.507448 -0.825034 -0.248626 0.914930 0.482790 1 1 1.000000
  1 2.120455 -4.435734 45.108398 -0.490595 -0.696669 -0.523419 0.917360 0.433780 1 1 1.000000
  1 1.866311 -4.371703 45.202881 0.010676 -0.738201 -0.674496 0.960750 0.431730 1 1 1.000000
skirt
  1 2.406191 -4.650938 44.975037 -0.641154 -0.648582 -0.410199 0.858300 0.428070 1 1 1.000000
  1 2.231486 -4.773543 45.372456 -0.570192 -0.680290 -0.460529 0.896100 0.368290 1 1 1.000000
  1 2.073390 -4.626529 45.351036 -0.519854 -0.652560 -0.551287 0.925730 0.385940 1 1 1.000000
skirt
  1 1.903300 -4.672098 45.398232 0.423360 -0.399859 -0.812944 0.925730 0.385940 1 1 1.000000
  1 1.662190 -4.558500 45.235516 0.435760 -0.448459 -0.780383 0.917360 0.433780 1 1 1.000000
  1 1.960896 -4.574720 45.347813 -0.043023 -0.636628 -0.769970 0.944530 0.392240 1 1 1.000000
skirt
  1 1.903300 -4.672098 45.398232 0.423360 -0.399859 -0.812944 0.925730 0.385940 1 1 1.000000
  1 1.486445 -4.897379 45.230156 0.579577 -0.321477 -0.748828 0.858300 0.428070 1 1 1.000000
  1 1.662190 -4.558500 45.235516 0.435760 -0.448459 -0.780383 0.917360 0.433780 1 1 1.000000
skirt
  1 1.865044 -4.871734 45.474125 0.517488 -0.388924 -0.762197 0.896100 0.368290 1 1 1.000000
  1 1.486445 -4.897379 45.230156 0.579577 -0.321477 -0.748828 0.858300 0.428070 1 1 1.000000
  1 1.903300 -4.672098 45.398232 0.423360 -0.399859 -0.812944 0.925730 0.385940 1 1 1.000000
skirt
  1 -2.387008 -5.008800 41.650883 -0.045255 -0.987179 -0.153069 0.974570 0.802640 1 1 1.000000
  1 -1.708144 -5.092658 41.991005 -0.011721 -0.990619 -0.136151 0.923650 0.807570 1 1 1.000000
  1 -1.967618 -5.020437 42.086468 -0.212725 -0.965212 0.152035 0.935360 0.792450 1 1 1.000000
skirt
  1 -2.387008 -5.008800 41.650883 -0.045255 -0.987179 -0.153069 0.974570 0.802640 1 1 1.000000
  1 -1.790345 -4.975418 41.743713 0.100326 -0.885712 -0.453264 0.935360 0.792450 1 1 1.000000
  1 -1.708144 -5.092658 41.991005 -0.011721 -0.990619 -0.136151 0.923650 0.807570 1 1 1.000000
skirt
  1 -1.790345 -4.975418 41.743713 0.100326 -0.885712 -0.453264 0.935360 0.792450 1 1 1.000000
  1 -1.221992 -4.916717 41.728703 0.134584 -0.932169 -0.336077 0.900670 0.776270 1 1 1.000000
  1 -1.708144 -5.092658 41.991005 -0.011721 -0.990619 -0.136151 0.923650 0.807570 1 1 1.000000
skirt
  1 -1.708144 -5.092658 41.991005 -0.011721 -0.990619 -0.136151 0.923650 0.807570 1 1 1.000000
  1 -1.221992 -4.916717 41.728703 0.134584 -0.932169 -0.336077 0.900670 0.776270 1 1 1.000000
  1 -0.817130 -5.061064 42.455929 0.179760 -0.983524 -0.019151 0.856420 0.811500 1 1 1.000000
skirt
  1 -1.221992 -4.916717 41.728703 0.134584 -0.932169 -0.336077 0.900670 0.776270 1 1 1.000000
  1 -0.703921 -4.826064 41.671783 0.206849 -0.945003 -0.253344 0.870350 0.757950 1 1 1.000000
  1 -0.817130 -5.061064 42.455929 0.179760 -0.983524 -0.019151 0.856420 0.811500 1 1 1.000000
skirt
  1 -0.703921 -4.826064 41.671783 0.206849 -0.945003 -0.253344 0.870350 0.757950 1 1 1.000000
  1 -0.184486 -4.679962 41.700001 0.371111 -0.913295 -0.167836 0.837220 0.743380 1 1 1.000000
  1 -0.817130 -5.061064 42.455929 0.179760 -0.983524 -0.019151 0.856420 0.811500 1 1 1.000000
skirt
  1 -0.817130 -5.061064 42.455929 0.179760 -0.983524 -0.019151 0.856420 0.811500 1 1 1.000000
  1 -0.184486 -4.679962 41.700001 0.371111 -0.913295 -0.167836 0.837220 0.743380 1 1 1.000000
  1 0.114870 -4.716692 42.983170 0.401906 -0.911421 0.088221 0.781090 0.811510 1 1 1.000000
skirt
  1 -0.184486 -4.679962 41.700001 0.371111 -0.913295 -0.167836 0.837220 0.743380 1 1 1.000000
  1 0.348504 -4.471747 41.971596 0.470589 -0.876262 -0.103494 0.794850 0.741410 1 1 1.000000
  1 0.114870 -4.716692 42.983170 0.401906 -0.911421 0.088221 0.781090 0.811510 1 1 1.000000
skirt
  1 0.348504 -4.471747 41.971596 0.470589 -0.876262 -0.103494 0.794850 0.741410 1 1 1.000000
  1 0.795522 -4.240387 42.429470 0.564942 -0.824463 -0.033184 0.750530 0.752040 1 1 1.000000
  1 0.114870 -4.716692 42.983170 0.401906 -0.911421 0.088221 0.781090 0.811510 1 1 1.000000
skirt
  1 0.795522 -4.240387 42.429470 0.564942 -0.824463 -0.033184 0.750530 0.752040 1 1 1.000000
  1 0.758013 -4.264019 43.375187 0.561123 -0.813613 0.152234 0.722290 0.808800 1 1 1.000000
  1 0.114870 -4.716692 42.983170 0.401906 -0.911421 0.088221 0.781090 0.811510 1 1 1.000000
skirt
  1 0.795522 -4.240387 42.429470 0.564942 -0.824463 -0.033184 0.750530 0.752040 1 1 1.000000
  1 1.068095 -4.025151 42.973640 0.643454 -0.764320 0.042214 0.712480 0.772560 1 1 1.000000
  1 0.758013 -4.264019 43.375187 0.561123 -0.813613 0.152234 0.722290 0.808800 1 1 1.000000
skirt
  1 1.068095 -4.025151 42.973640 0.643454 -0.764320 0.042214 0.712480 0.772560 1 1 1.000000
  1 1.229019 -3.802375 43.679321 0.609314 -0.763251 0.214905 0.673780 0.805340 1 1 1.000000
  1 0.758013 -4.264019 43.375187 0.561123 -0.813613 0.152234 0.722290 0.808800 1 1 1.000000
skirt
  1 1.229019 -3.802375 43.679321 0.609314 -0.763251 0.214905 0.673780 0.805340 1 1 1.000000
  1 0.590458 -4.146389 43.897259 0.490291 -0.803211 0.338328 0.712480 0.772560 1 1 1.000000
  1 0.758013 -4.264019 43.375187 0.561123 -0.813613 0.152234 0.722290 0.808800 1 1 1.000000
skirt
  1 0.758013 -4.264019 43.375187 0.561123 -0.813613 0.152234 0.722290 0.808800 1 1 1.000000
  1 0.590458 -4.146389 43.897259 0.490291 -0.803211 0.338328 0.712480 0.772560 1 1 1.000000
  1 0.016027 -4.438237 43.936718 0.372659 -0.875405 0.307882 0.750530 0.752040 1 1 1.000000
skirt
  1 0.114870 -4.716692 42.983170 0.401906 -0.911421 0.088221 0.781090 0.811510 1 1 1.000000
  1 0.758013 -4.264019 43.375187 0.561123 -0.813613 0.152234 0.722290 0.808800 1 1 1.000000
  1 0.016027 -4.438237 43.936718 0.372659 -0.875405 0.307882 0.750530 0.752040 1 1 1.000000
skirt
  1 -0.589087 -4.709705 43.784561 0.283925 -0.923635 0.257457 0.794850 0.741410 1 1 1.000000
  1 0.114870 -4.716692 42.983170 0.401906 -0.911421 0.088221 0.781090 0.811510 1 1 1.000000
  1 0.016027 -4.438237 43.936718 0.372659 -0.875405 0.307882 0.750530 0.752040 1 1 1.000000
skirt
  1 0.114870 -4.716692 42.983170 0.401906 -0.911421 0.088221 0.781090 0.811510 1 1 1.000000
  1 -0.589087 -4.709705 43.784561 0.283925 -0.923635 0.257457 0.794850 0.741410 1 1 1.000000
  1 -1.096822 -4.911517 43.464119 0.186256 -0.968407 0.165819 0.837220 0.743380 1 1 1.000000
skirt
  1 -0.817130 -5.061064 42.455929 0.179760 -0.983524 -0.019151 0.856420 0.811500 1 1 1.000000
  1 0.114870 -4.716692 42.983170 0.401906 -0.911421 0.088221 0.781090 0.811510 1 1 1.000000
  1 -1.096822 -4.911517 43.464119 0.186256 -0.968407 0.165819 0.837220 0.743380 1 1 1.000000
skirt
  1 -1.407228 -5.004540 43.031723 0.030866 -0.992979 0.114195 0.870350 0.757950 1 1 1.000000
  1 -0.817130 -5.061064 42.455929 0.179760 -0.983524 -0.019151 0.856420 0.811500 1 1 1.000000
  1 -1.096822 -4.911517 43.464119 0.186256 -0.968407 0.165819 0.837220 0.743380 1 1 1.000000
skirt
  1 -0.817130 -5.061064 42.455929 0.179760 -0.983524 -0.019151 0.856420 0.811500 1 1 1.000000
  1 -1.407228 -5.004540 43.031723 0.030866 -0.992979 0.114195 0.870350 0.757950 1 1 1.000000
  1 -1.654221 -5.026450 42.564365 -0.093473 -0.990070 0.104998 0.900670 0.776270 1 1 1.000000
skirt
  1 -1.708144 -5.092658 41.991005 -0.011721 -0.990619 -0.136151 0.923650 0.807570 1 1 1.000000
  1 -0.817130 -5.061064 42.455929 0.179760 -0.983524 -0.019151 0.856420 0.811500 1 1 1.000000
  1 -1.654221 -5.026450 42.564365 -0.093473 -0.990070 0.104998 0.900670 0.776270 1 1 1.000000
skirt
  1 -1.967618 -5.020437 42.086468 -0.212725 -0.965212 0.152035 0.935360 0.792450 1 1 1.000000
  1 -1.708144 -5.092658 41.991005 -0.011721 -0.990619 -0.136151 0.923650 0.807570 1 1 1.000000
  1 -1.654221 -5.026450 42.564365 -0.093473 -0.990070 0.104998 0.900670 0.776270 1 1 1.000000
skirt
  1 2.995997 -4.492905 43.300236 -0.492596 -0.608785 0.621875 0.858300 0.428070 1 1 1.000000
  1 3.320217 -4.481822 43.613731 -0.508098 -0.663689 0.548957 0.896100 0.368290 1 1 1.000000
  1 3.218969 -4.319565 43.716187 -0.578410 -0.668231 0.467878 0.925730 0.385940 1 1 1.000000
skirt
  1 1.700869 -4.064220 44.178703 -0.396515 -0.916364 -0.055249 0.939460 0.602850 1 1 1.000000
  1 1.600434 -4.002334 43.909184 -0.284507 -0.869056 -0.404719 0.938420 0.650170 1 1 1.000000
  1 1.907005 -4.194330 44.108757 -0.247246 -0.891246 -0.380197 0.899100 0.597320 1 1 1.000000
skirt
  1 1.600434 -4.002334 43.909184 -0.284507 -0.869056 -0.404719 0.938420 0.650170 1 1 1.000000
  1 1.893549 -4.012604 43.932392 0.013256 -0.816765 -0.576818 0.939460 0.602850 1 1 1.000000
  1 1.907005 -4.194330 44.108757 -0.247246 -0.891246 -0.380197 0.899100 0.597320 1 1 1.000000
skirt
  1 1.893549 -4.012604 43.932392 0.013256 -0.816765 -0.576818 0.939460 0.602850 1 1 1.000000
  1 2.274716 -4.069908 44.052162 0.013256 -0.816765 -0.576818 0.923130 0.541090 1 1 1.000000
  1 1.907005 -4.194330 44.108757 -0.247246 -0.891246 -0.380197 0.899100 0.597320 1 1 1.000000
skirt
  1 2.274716 -4.069908 44.052162 0.013256 -0.816765 -0.576818 0.923130 0.541090 1 1 1.000000
  1 1.893549 -4.012604 43.932392 0.013256 -0.816765 -0.576818 0.939460 0.602850 1 1 1.000000
  1 2.301693 -3.931054 43.766270 -0.028299 -0.999597 -0.002147 0.973030 0.539610 1 1 1.000000
skirt
  1 2.274716 -4.069908 44.052162 0.013256 -0.816765 -0.576818 0.923130 0.541090 1 1 1.000000
  1 2.301693 -3.931054 43.766270 -0.028299 -0.999597 -0.002147 0.973030 0.539610 1 1 1.000000
  1 2.690010 -3.959591 43.785542 -0.208601 -0.977710 -0.023839 0.971050 0.478340 1 1 1.000000
skirt
  1 2.301693 -3.931054 43.766270 -0.028299 -0.999597 -0.002147 0.973030 0.539610 1 1 1.000000
  1 2.303903 -4.062108 43.475494 -0.033338 -0.819035 0.572773 0.923130 0.541090 1 1 1.000000
  1 2.690010 -3.959591 43.785542 -0.208601 -0.977710 -0.023839 0.971050 0.478340 1 1 1.000000
skirt
  1 2.303903 -4.062108 43.475494 -0.033338 -0.819035 0.572773 0.923130 0.541090 1 1 1.000000
  1 2.684290 -4.116291 43.454983 -0.266225 -0.760367 0.592424 0.914930 0.482790 1 1 1.000000
  1 2.690010 -3.959591 43.785542 -0.208601 -0.977710 -0.023839 0.971050 0.478340 1 1 1.000000
skirt
  1 2.303903 -4.062108 43.475494 -0.033338 -0.819035 0.572773 0.923130 0.541090 1 1 1.000000
  1 2.294705 -4.354182 43.187256 -0.322768 -0.879308 0.350196 0.859270 0.542150 1 1 1.000000
  1 2.684290 -4.116291 43.454983 -0.266225 -0.760367 0.592424 0.914930 0.482790 1 1 1.000000
skirt
  1 2.294705 -4.354182 43.187256 -0.322768 -0.879308 0.350196 0.859270 0.542150 1 1 1.000000
  1 2.651819 -4.466285 43.120426 -0.244510 -0.658061 0.712159 0.840440 0.485980 1 1 1.000000
  1 2.684290 -4.116291 43.454983 -0.266225 -0.760367 0.592424 0.914930 0.482790 1 1 1.000000
skirt
  1 2.651819 -4.466285 43.120426 -0.244510 -0.658061 0.712159 0.840440 0.485980 1 1 1.000000
  1 2.995997 -4.492905 43.300236 -0.492596 -0.608785 0.621875 0.858300 0.428070 1 1 1.000000
  1 2.684290 -4.116291 43.454983 -0.266225 -0.760367 0.592424 0.914930 0.482790 1 1 1.000000
skirt
  1 2.995997 -4.492905 43.300236 -0.492596 -0.608785 0.621875 0.858300 0.428070 1 1 1.000000
  1 2.979810 -4.205446 43.550995 -0.534767 -0.708528 0.460447 0.917360 0.433780 1 1 1.000000
  1 2.684290 -4.116291 43.454983 -0.266225 -0.760367 0.592424 0.914930 0.482790 1 1 1.000000
skirt
  1 2.995997 -4.492905 43.300236 -0.492596 -0.608785 0.621875 0.858300 0.428070 1 1 1.000000
  1 3.218969 -4.319565 43.716187 -0.578410 -0.668231 0.467878 0.925730 0.385940 1 1 1.000000
  1 2.979810 -4.205446 43.550995 -0.534767 -0.708528 0.460447 0.917360 0.433780 1 1 1.000000
skirt
  1 2.979810 -4.205446 43.550995 -0.534767 -0.708528 0.460447 0.917360 0.433780 1 1 1.000000
  1 3.218969 -4.319565 43.716187 -0.578410 -0.668231 0.467878 0.925730 0.385940 1 1 1.000000
  1 3.167094 -4.251503 43.805729 -0.612593 -0.789297 -0.041714 0.944530 0.392240 1 1 1.000000
skirt
  1 2.979810 -4.205446 43.550995 -0.534767 -0.708528 0.460447 0.917360 0.433780 1 1 1.000000
  1 3.167094 -4.251503 43.805729 -0.612593 -0.789297 -0.041714 0.944530 0.392240 1 1 1.000000
  1 2.965248 -4.077255 43.797894 -0.488276 -0.871924 -0.036551 0.960750 0.431730 1 1 1.000000
skirt
  1 3.167094 -4.251503 43.805729 -0.612593 -0.789297 -0.041714 0.944530 0.392240 1 1 1.000000
  1 2.954977 -4.212110 44.041443 -0.490595 -0.696669 -0.523419 0.917360 0.433780 1 1 1.000000
  1 2.965248 -4.077255 43.797894 -0.488276 -0.871924 -0.036551 0.960750 0.431730 1 1 1.000000
skirt
  1 2.954977 -4.212110 44.041443 -0.490595 -0.696669 -0.523419 0.917360 0.433780 1 1 1.000000
  1 2.651137 -4.125164 44.109505 -0.203994 -0.743702 -0.636626 0.914930 0.482790 1 1 1.000000
  1 2.965248 -4.077255 43.797894 -0.488276 -0.871924 -0.036551 0.960750 0.431730 1 1 1.000000
skirt
  1 2.954977 -4.212110 44.041443 -0.490595 -0.696669 -0.523419 0.917360 0.433780 1 1 1.000000
  1 2.946169 -4.506233 44.284698 -0.426436 -0.591096 -0.684659 0.858300 0.428070 1 1 1.000000
  1 2.651137 -4.125164 44.109505 -0.203994 -0.743702 -0.636626 0.914930 0.482790 1 1 1.000000
skirt
  1 2.946169 -4.506233 44.284698 -0.426436 -0.591096 -0.684659 0.858300 0.428070 1 1 1.000000
  1 2.585544 -4.484033 44.429466 -0.170382 -0.638222 -0.750762 0.840440 0.485980 1 1 1.000000
  1 2.651137 -4.125164 44.109505 -0.203994 -0.743702 -0.636626 0.914930 0.482790 1 1 1.000000
skirt
  1 2.684290 -4.116291 43.454983 -0.266225 -0.760367 0.592424 0.914930 0.482790 1 1 1.000000
  1 2.979810 -4.205446 43.550995 -0.534767 -0.708528 0.460447 0.917360 0.433780 1 1 1.000000
  1 2.965248 -4.077255 43.797894 -0.488276 -0.871924 -0.036551 0.960750 0.431730 1 1 1.000000
skirt
  1 2.684290 -4.116291 43.454983 -0.266225 -0.760367 0.592424 0.914930 0.482790 1 1 1.000000
  1 2.965248 -4.077255 43.797894 -0.488276 -0.871924 -0.036551 0.960750 0.431730 1 1 1.000000
  1 2.690010 -3.959591 43.785542 -0.208601 -0.977710 -0.023839 0.971050 0.478340 1 1 1.000000
skirt
  1 2.965248 -4.077255 43.797894 -0.488276 -0.871924 -0.036551 0.960750 0.431730 1 1 1.000000
  1 2.651137 -4.125164 44.109505 -0.203994 -0.743702 -0.636626 0.914930 0.482790 1 1 1.000000
  1 2.690010 -3.959591 43.785542 -0.208601 -0.977710 -0.023839 0.971050 0.478340 1 1 1.000000
skirt
  1 2.651137 -4.125164 44.109505 -0.203994 -0.743702 -0.636626 0.914930 0.482790 1 1 1.000000
  1 2.274716 -4.069908 44.052162 0.013256 -0.816765 -0.576818 0.923130 0.541090 1 1 1.000000
  1 2.690010 -3.959591 43.785542 -0.208601 -0.977710 -0.023839 0.971050 0.478340 1 1 1.000000
skirt
  1 3.209738 -4.322035 43.898232 -0.519854 -0.652560 -0.551287 0.925730 0.385940 1 1 1.000000
  1 2.954977 -4.212110 44.041443 -0.490595 -0.696669 -0.523419 0.917360 0.433780 1 1 1.000000
  1 3.167094 -4.251503 43.805729 -0.612593 -0.789297 -0.041714 0.944530 0.392240 1 1 1.000000
skirt
  1 3.209738 -4.322035 43.898232 -0.519854 -0.652560 -0.551287 0.925730 0.385940 1 1 1.000000
  1 2.946169 -4.506233 44.284698 -0.426436 -0.591096 -0.684659 0.858300 0.428070 1 1 1.000000
  1 2.954977 -4.212110 44.041443 -0.490595 -0.696669 -0.523419 0.917360 0.433780 1 1 1.000000
skirt
  1 3.300357 -4.487153 44.005947 -0.449256 -0.647870 -0.615169 0.896100 0.368290 1 1 1.000000
  1 2.946169 -4.506233 44.284698 -0.426436 -0.591096 -0.684659 0.858300 0.428070 1 1 1.000000
  1 3.209738 -4.322035 43.898232 -0.519854 -0.652560 -0.551287 0.925730 0.385940 1 1 1.000000
skirt
  1 1.516120 -4.409501 41.737381 0.593363 -0.793454 -0.135462 0.900670 0.776270 1 1 1.000000
  1 1.657315 -4.343129 41.950989 0.564942 -0.824463 -0.033184 0.870350 0.757950 1 1 1.000000
  1 1.337710 -4.567566 42.086105 0.382342 -0.923678 0.025173 0.856420 0.811500 1 1 1.000000
skirt
  1 1.657315 -4.343129 41.950989 0.564942 -0.824463 -0.033184 0.870350 0.757950 1 1 1.000000
  1 1.756352 -4.261937 42.188885 0.561123 -0.813613 0.152234 0.837220 0.743380 1 1 1.000000
  1 1.337710 -4.567566 42.086105 0.382342 -0.923678 0.025173 0.856420 0.811500 1 1 1.000000
skirt
  1 1.337710 -4.567566 42.086105 0.382342 -0.923678 0.025173 0.856420 0.811500 1 1 1.000000
  1 1.756352 -4.261937 42.188885 0.561123 -0.813613 0.152234 0.837220 0.743380 1 1 1.000000
  1 1.308327 -4.448280 42.634926 0.372659 -0.875405 0.307882 0.781090 0.811510 1 1 1.000000
skirt
  1 1.756352 -4.261937 42.188885 0.561123 -0.813613 0.152234 0.837220 0.743380 1 1 1.000000
  1 1.750404 -4.184157 42.495876 0.555408 -0.784711 0.275228 0.794850 0.741410 1 1 1.000000
  1 1.308327 -4.448280 42.634926 0.372659 -0.875405 0.307882 0.781090 0.811510 1 1 1.000000
skirt
  1 1.750404 -4.184157 42.495876 0.555408 -0.784711 0.275228 0.794850 0.741410 1 1 1.000000
  1 1.643046 -4.123537 42.813011 0.527208 -0.746145 0.406594 0.750530 0.752040 1 1 1.000000
  1 1.308327 -4.448280 42.634926 0.372659 -0.875405 0.307882 0.781090 0.811510 1 1 1.000000
skirt
  1 1.643046 -4.123537 42.813011 0.527208 -0.746145 0.406594 0.750530 0.752040 1 1 1.000000
  1 1.247708 -4.266716 43.030426 0.347553 -0.798286 0.491880 0.722290 0.808800 1 1 1.000000
  1 1.308327 -4.448280 42.634926 0.372659 -0.875405 0.307882 0.781090 0.811510 1 1 1.000000
skirt
  1 1.643046 -4.123537 42.813011 0.527208 -0.746145 0.406594 0.750530 0.752040 1 1 1.000000
  1 1.458719 -4.087656 43.075474 0.492237 -0.707608 0.506945 0.712480 0.772560 1 1 1.000000
  1 1.247708 -4.266716 43.030426 0.347553 -0.798286 0.491880 0.722290 0.808800 1 1 1.000000
skirt
  1 1.458719 -4.087656 43.075474 0.492237 -0.707608 0.506945 0.712480 0.772560 1 1 1.000000
  1 1.178866 -4.073711 43.330204 0.332783 -0.756257 0.563320 0.673780 0.805340 1 1 1.000000
  1 1.247708 -4.266716 43.030426 0.347553 -0.798286 0.491880 0.722290 0.808800 1 1 1.000000
skirt
  1 1.178866 -4.073711 43.330204 0.332783 -0.756257 0.563320 0.673780 0.805340 1 1 1.000000
  1 0.975200 -4.287356 43.093029 0.182328 -0.835601 0.518195 0.712480 0.772560 1 1 1.000000
  1 1.247708 -4.266716 43.030426 0.347553 -0.798286 0.491880 0.722290 0.808800 1 1 1.000000
skirt
  1 1.247708 -4.266716 43.030426 0.347553 -0.798286 0.491880 0.722290 0.808800 1 1 1.000000
  1 0.975200 -4.287356 43.093029 0.182328 -0.835601 0.518195 0.712480 0.772560 1 1 1.000000
  1 0.853995 -4.449449 42.841618 0.178520 -0.890177 0.419183 0.750530 0.752040 1 1 1.000000
skirt
  1 1.308327 -4.448280 42.634926 0.372659 -0.875405 0.307882 0.781090 0.811510 1 1 1.000000
  1 1.247708 -4.266716 43.030426 0.347553 -0.798286 0.491880 0.722290 0.808800 1 1 1.000000
  1 0.853995 -4.449449 42.841618 0.178520 -0.890177 0.419183 0.750530 0.752040 1 1 1.000000
skirt
  1 0.801242 -4.576115 42.530235 0.177526 -0.940775 0.288837 0.794850 0.741410 1 1 1.000000
  1 1.308327 -4.448280 42.634926 0.372659 -0.875405 0.307882 0.781090 0.811510 1 1 1.000000
  1 0.853995 -4.449449 42.841618 0.178520 -0.890177 0.419183 0.750530 0.752040 1 1 1.000000
skirt
  1 1.308327 -4.448280 42.634926 0.372659 -0.875405 0.307882 0.781090 0.811510 1 1 1.000000
  1 0.801242 -4.576115 42.530235 0.177526 -0.940775 0.288837 0.794850 0.741410 1 1 1.000000
  1 0.832803 -4.643298 42.222393 0.186256 -0.968407 0.165819 0.837220 0.743380 1 1 1.000000
skirt
  1 1.337710 -4.567566 42.086105 0.382342 -0.923678 0.025173 0.856420 0.811500 1 1 1.000000
  1 1.308327 -4.448280 42.634926 0.372659 -0.875405 0.307882 0.781090 0.811510 1 1 1.000000
  1 0.832803 -4.643298 42.222393 0.186256 -0.968407 0.165819 0.837220 0.743380 1 1 1.000000
skirt
  1 0.945330 -4.637156 41.976898 0.179760 -0.983524 -0.019151 0.870350 0.757950 1 1 1.000000
  1 1.337710 -4.567566 42.086105 0.382342 -0.923678 0.025173 0.856420 0.811500 1 1 1.000000
  1 0.832803 -4.643298 42.222393 0.186256 -0.968407 0.165819 0.837220 0.743380 1 1 1.000000
skirt
  1 1.337710 -4.567566 42.086105 0.382342 -0.923678 0.025173 0.856420 0.811500 1 1 1.000000
  1 0.945330 -4.637156 41.976898 0.179760 -0.983524 -0.019151 0.870350 0.757950 1 1 1.000000
  1 1.078658 -4.590188 41.753273 0.131558 -0.984179 -0.118675 0.900670 0.776270 1 1 1.000000
skirt
  1 1.309887 -4.544227 41.584679 0.371111 -0.913295 -0.167836 0.923650 0.807570 1 1 1.000000
  1 1.337710 -4.567566 42.086105 0.382342 -0.923678 0.025173 0.856420 0.811500 1 1 1.000000
  1 1.078658 -4.590188 41.753273 0.131558 -0.984179 -0.118675 0.900670 0.776270 1 1 1.000000
skirt
  1 1.195930 -4.530283 41.499653 0.026276 -0.980258 -0.195971 0.935360 0.792450 1 1 1.000000
  1 1.309887 -4.544227 41.584679 0.371111 -0.913295 -0.167836 0.923650 0.807570 1 1 1.000000
  1 1.078658 -4.590188 41.753273 0.131558 -0.984179 -0.118675 0.900670 0.776270 1 1 1.000000
skirt
  1 1.268445 -4.476652 41.210987 0.367320 -0.907267 -0.204799 0.974570 0.802640 1 1 1.000000
  1 1.309887 -4.544227 41.584679 0.371111 -0.913295 -0.167836 0.923650 0.807570 1 1 1.000000
  1 1.195930 -4.530283 41.499653 0.026276 -0.980258 -0.195971 0.935360 0.792450 1 1 1.000000
skirt
  1 1.268445 -4.476652 41.210987 0.367320 -0.907267 -0.204799 0.974570 0.802640 1 1 1.000000
  1 1.375348 -4.456175 41.493149 0.660236 -0.718438 -0.218942 0.935360 0.792450 1 1 1.000000
  1 1.309887 -4.544227 41.584679 0.371111 -0.913295 -0.167836 0.923650 0.807570 1 1 1.000000
skirt
  1 1.375348 -4.456175 41.493149 0.660236 -0.718438 -0.218942 0.935360 0.792450 1 1 1.000000
  1 1.516120 -4.409501 41.737381 0.593363 -0.793454 -0.135462 0.900670 0.776270 1 1 1.000000
  1 1.309887 -4.544227 41.584679 0.371111 -0.913295 -0.167836 0.923650 0.807570 1 1 1.000000
skirt
  1 1.309887 -4.544227 41.584679 0.371111 -0.913295 -0.167836 0.923650 0.807570 1 1 1.000000
  1 1.516120 -4.409501 41.737381 0.593363 -0.793454 -0.135462 0.900670 0.776270 1 1 1.000000
  1 1.337710 -4.567566 42.086105 0.382342 -0.923678 0.025173 0.856420 0.811500 1 1 1.000000
skirt
  1 -1.923803 -5.001260 43.591103 -0.103373 -0.937396 0.332571 0.974570 0.802640 1 1 1.000000
  1 -1.371377 -5.008347 43.742836 -0.067008 -0.937145 0.342445 0.923650 0.807570 1 1 1.000000
  1 -1.542930 -4.903686 43.817234 -0.195710 -0.760721 0.618870 0.935360 0.792450 1 1 1.000000
skirt
  1 -1.923803 -5.001260 43.591103 -0.103373 -0.937396 0.332571 0.974570 0.802640 1 1 1.000000
  1 -1.471812 -5.005095 43.553505 -0.028299 -0.999597 -0.002147 0.935360 0.792450 1 1 1.000000
  1 -1.371377 -5.008347 43.742836 -0.067008 -0.937145 0.342445 0.923650 0.807570 1 1 1.000000
skirt
  1 -1.471812 -5.005095 43.553505 -0.028299 -0.999597 -0.002147 0.935360 0.792450 1 1 1.000000
  1 -1.058565 -5.025442 43.441330 0.030866 -0.992979 0.114195 0.900670 0.776270 1 1 1.000000
  1 -1.371377 -5.008347 43.742836 -0.067008 -0.937145 0.342445 0.923650 0.807570 1 1 1.000000
skirt
  1 -1.371377 -5.008347 43.742836 -0.067008 -0.937145 0.342445 0.923650 0.807570 1 1 1.000000
  1 -1.058565 -5.025442 43.441330 0.030866 -0.992979 0.114195 0.900670 0.776270 1 1 1.000000
  1 -0.640507 -4.917303 43.904961 0.120588 -0.915162 0.384625 0.856420 0.811500 1 1 1.000000
skirt
  1 -1.058565 -5.025442 43.441330 0.030866 -0.992979 0.114195 0.900670 0.776270 1 1 1.000000
  1 -0.688645 -5.033665 43.298096 0.119879 -0.976742 0.177773 0.870350 0.757950 1 1 1.000000
  1 -0.640507 -4.917303 43.904961 0.120588 -0.915162 0.384625 0.856420 0.811500 1 1 1.000000
skirt
  1 -0.688645 -5.033665 43.298096 0.119879 -0.976742 0.177773 0.870350 0.757950 1 1 1.000000
  1 -0.302050 -4.976784 43.190697 0.296090 -0.930914 0.213845 0.837220 0.743380 1 1 1.000000
  1 -0.640507 -4.917303 43.904961 0.120588 -0.915162 0.384625 0.856420 0.811500 1 1 1.000000
skirt
  1 -0.640507 -4.917303 43.904961 0.120588 -0.915162 0.384625 0.856420 0.811500 1 1 1.000000
  1 -0.302050 -4.976784 43.190697 0.296090 -0.930914 0.213845 0.837220 0.743380 1 1 1.000000
  1 0.136777 -4.601501 43.993172 0.388900 -0.819814 0.420311 0.781090 0.811510 1 1 1.000000
skirt
  1 -0.302050 -4.976784 43.190697 0.296090 -0.930914 0.213845 0.837220 0.743380 1 1 1.000000
  1 0.137525 -4.798699 43.217777 0.412515 -0.882753 0.224895 0.794850 0.741410 1 1 1.000000
  1 0.136777 -4.601501 43.993172 0.388900 -0.819814 0.420311 0.781090 0.811510 1 1 1.000000
skirt
  1 0.137525 -4.798699 43.217777 0.412515 -0.882753 0.224895 0.794850 0.741410 1 1 1.000000
  1 0.546871 -4.534739 43.370281 0.530608 -0.810961 0.246571 0.750530 0.752040 1 1 1.000000
  1 0.136777 -4.601501 43.993172 0.388900 -0.819814 0.420311 0.781090 0.811510 1 1 1.000000
skirt
  1 0.546871 -4.534739 43.370281 0.530608 -0.810961 0.246571 0.750530 0.752040 1 1 1.000000
  1 0.681923 -4.231159 43.997761 0.558810 -0.712263 0.424749 0.722290 0.808800 1 1 1.000000
  1 0.136777 -4.601501 43.993172 0.388900 -0.819814 0.420311 0.781090 0.811510 1 1 1.000000
skirt
  1 0.546871 -4.534739 43.370281 0.530608 -0.810961 0.246571 0.750530 0.752040 1 1 1.000000
  1 0.843432 -4.236067 43.609470 0.616970 -0.740674 0.265989 0.712480 0.772560 1 1 1.000000
  1 0.681923 -4.231159 43.997761 0.558810 -0.712263 0.424749 0.722290 0.808800 1 1 1.000000
skirt
  1 0.843432 -4.236067 43.609470 0.616970 -0.740674 0.265989 0.712480 0.772560 1 1 1.000000
  1 1.086524 -3.867771 43.967110 0.623408 -0.658561 0.421496 0.673780 0.805340 1 1 1.000000
  1 0.681923 -4.231159 43.997761 0.558810 -0.712263 0.424749 0.722290 0.808800 1 1 1.000000
skirt
  1 1.086524 -3.867771 43.967110 0.623408 -0.658561 0.421496 0.673780 0.805340 1 1 1.000000
  1 0.651760 -3.962714 44.320061 0.535014 -0.623868 0.569692 0.712480 0.772560 1 1 1.000000
  1 0.681923 -4.231159 43.997761 0.558810 -0.712263 0.424749 0.722290 0.808800 1 1 1.000000
skirt
  1 0.681923 -4.231159 43.997761 0.558810 -0.712263 0.424749 0.722290 0.808800 1 1 1.000000
  1 0.651760 -3.962714 44.320061 0.535014 -0.623868 0.569692 0.712480 0.772560 1 1 1.000000
  1 0.234027 -4.088632 44.529903 0.438401 -0.679533 0.588250 0.750530 0.752040 1 1 1.000000
skirt
  1 0.136777 -4.601501 43.993172 0.388900 -0.819814 0.420311 0.781090 0.811510 1 1 1.000000
  1 0.681923 -4.231159 43.997761 0.558810 -0.712263 0.424749 0.722290 0.808800 1 1 1.000000
  1 0.234027 -4.088632 44.529903 0.438401 -0.679533 0.588250 0.750530 0.752040 1 1 1.000000
skirt
  1 -0.238799 -4.262071 44.612659 0.312654 -0.740284 0.595169 0.794850 0.741410 1 1 1.000000
  1 0.136777 -4.601501 43.993172 0.388900 -0.819814 0.420311 0.781090 0.811510 1 1 1.000000
  1 0.234027 -4.088632 44.529903 0.438401 -0.679533 0.588250 0.750530 0.752040 1 1 1.000000
skirt
  1 0.136777 -4.601501 43.993172 0.388900 -0.819814 0.420311 0.781090 0.811510 1 1 1.000000
  1 -0.238799 -4.262071 44.612659 0.312654 -0.740284 0.595169 0.794850 0.741410 1 1 1.000000
  1 -0.668200 -4.454653 44.547974 0.197051 -0.789624 0.581089 0.837220 0.743380 1 1 1.000000
skirt
  1 -0.640507 -4.917303 43.904961 0.120588 -0.915162 0.384625 0.856420 0.811500 1 1 1.000000
  1 0.136777 -4.601501 43.993172 0.388900 -0.819814 0.420311 0.781090 0.811510 1 1 1.000000
  1 -0.668200 -4.454653 44.547974 0.197051 -0.789624 0.581089 0.837220 0.743380 1 1 1.000000
skirt
  1 -0.970936 -4.631112 44.344406 0.017997 -0.831589 0.555100 0.870350 0.757950 1 1 1.000000
  1 -0.640507 -4.917303 43.904961 0.120588 -0.915162 0.384625 0.856420 0.811500 1 1 1.000000
  1 -0.668200 -4.454653 44.547974 0.197051 -0.789624 0.581089 0.837220 0.743380 1 1 1.000000
skirt
  1 -0.640507 -4.917303 43.904961 0.120588 -0.915162 0.384625 0.856420 0.811500 1 1 1.000000
  1 -0.970936 -4.631112 44.344406 0.017997 -0.831589 0.555100 0.870350 0.757950 1 1 1.000000
  1 -1.232035 -4.778060 44.084278 -0.091169 -0.818906 0.566639 0.900670 0.776270 1 1 1.000000
skirt
  1 -1.371377 -5.008347 43.742836 -0.067008 -0.937145 0.342445 0.923650 0.807570 1 1 1.000000
  1 -0.640507 -4.917303 43.904961 0.120588 -0.915162 0.384625 0.856420 0.811500 1 1 1.000000
  1 -1.232035 -4.778060 44.084278 -0.091169 -0.818906 0.566639 0.900670 0.776270 1 1 1.000000
skirt
  1 -1.542930 -4.903686 43.817234 -0.195710 -0.760721 0.618870 0.935360 0.792450 1 1 1.000000
  1 -1.371377 -5.008347 43.742836 -0.067008 -0.937145 0.342445 0.923650 0.807570 1 1 1.000000
  1 -1.232035 -4.778060 44.084278 -0.091169 -0.818906 0.566639 0.900670 0.776270 1 1 1.000000
end
