// Created by Crowbar 0.74
version 1
nodes
  0 "static_prop" -1
end
skeleton
  time 0
    0 0.000000 0.000000 0.000000 0.000000 0.000000 0.000000
end
triangles
  phy
    0 49.030987 44.962609 -0.663434 -0.606531 0.782649 0.139932 0 0
    0 61.870635 37.944204 -1.672722 -0.095482 0.993291 0.065246 0 0
    0 56.731307 39.239812 -1.760206 -0.036361 0.999304 0.008311 0 0
  phy
    0 49.030987 44.962609 -0.663434 -0.606531 0.782649 0.139932 0 0
    0 56.731307 39.239812 -1.760206 -0.036361 0.999304 0.008311 0 0
    0 46.163244 42.762756 -1.661260 -0.118004 0.992885 0.015954 0 0
  phy
    0 56.731307 39.239812 -1.760206 -0.036361 0.999304 0.008311 0 0
    0 61.870635 37.944204 -1.672722 -0.095482 0.993291 0.065246 0 0
    0 59.970645 38.229687 -1.767893 -0.033833 0.999364 0.011275 0 0
  phy
    0 59.970645 38.229687 -1.767893 -0.033833 0.999364 0.011275 0 0
    0 61.870635 37.944204 -1.672722 -0.095482 0.993291 0.065246 0 0
    0 62.599192 34.370986 -1.858837 -0.029188 0.999142 0.029389 0 0
  phy
    0 62.599192 34.370986 -1.858837 -0.029188 0.999142 0.029389 0 0
    0 61.870635 37.944204 -1.672722 -0.095482 0.993291 0.065246 0 0
    0 114.101650 -9.324945 -1.590027 -0.046536 0.994255 0.096395 0 0
  phy
    0 79.873528 34.676912 -0.759410 -0.374177 0.914803 0.152076 0 0
    0 61.870635 37.944204 -1.672722 -0.095482 0.993291 0.065246 0 0
    0 49.030987 44.962609 -0.663434 -0.606531 0.782649 0.139932 0 0
  phy
    0 61.870635 37.944204 -1.672722 -0.095482 0.993291 0.065246 0 0
    0 79.873528 34.676912 -0.759410 -0.374177 0.914803 0.152076 0 0
    0 81.210089 33.594600 -0.795321 -0.263234 0.920276 0.289481 0 0
  phy
    0 61.870635 37.944204 -1.672722 -0.095482 0.993291 0.065246 0 0
    0 81.210089 33.594600 -0.795321 -0.263234 0.920276 0.289481 0 0
    0 114.101650 -9.324945 -1.590027 -0.046536 0.994255 0.096395 0 0
  phy
    0 62.599192 34.370986 -1.858837 -0.029188 0.999142 0.029389 0 0
    0 60.728544 23.657084 -2.169286 -0.015731 0.999763 0.015078 0 0
    0 59.970645 38.229687 -1.767893 -0.033833 0.999364 0.011275 0 0
  phy
    0 59.970645 38.229687 -1.767893 -0.033833 0.999364 0.011275 0 0
    0 60.728544 23.657084 -2.169286 -0.015731 0.999763 0.015078 0 0
    0 56.731307 39.239812 -1.760206 -0.036361 0.999304 0.008311 0 0
  phy
    0 56.731307 39.239812 -1.760206 -0.036361 0.999304 0.008311 0 0
    0 60.728544 23.657084 -2.169286 -0.015731 0.999763 0.015078 0 0
    0 45.028582 17.822371 -2.431119 -0.020467 0.999779 0.004867 0 0
  phy
    0 56.731307 39.239812 -1.760206 -0.036361 0.999304 0.008311 0 0
    0 45.028582 17.822371 -2.431119 -0.020467 0.999779 0.004867 0 0
    0 -31.689021 41.764843 -2.248527 -0.018026 0.999820 -0.005903 0 0
  phy
    0 103.284336 -12.446623 -1.947122 0.002909 0.999911 0.013055 0 0
    0 60.728544 23.657084 -2.169286 -0.015731 0.999763 0.015078 0 0
    0 62.599192 34.370986 -1.858837 -0.029188 0.999142 0.029389 0 0
  phy
    0 103.284336 -12.446623 -1.947122 0.002909 0.999911 0.013055 0 0
    0 62.599192 34.370986 -1.858837 -0.029188 0.999142 0.029389 0 0
    0 114.101650 -9.324945 -1.590027 -0.046536 0.994255 0.096395 0 0
  phy
    0 60.728544 23.657084 -2.169286 -0.015731 0.999763 0.015078 0 0
    0 103.284336 -12.446623 -1.947122 0.002909 0.999911 0.013055 0 0
    0 49.754109 5.533841 -2.484199 0.001239 0.999994 0.003364 0 0
  phy
    0 60.728544 23.657084 -2.169286 -0.015731 0.999763 0.015078 0 0
    0 49.754109 5.533841 -2.484199 0.001239 0.999994 0.003364 0 0
    0 45.028582 17.822371 -2.431119 -0.020467 0.999779 0.004867 0 0
  phy
    0 -116.888482 42.667839 5.128515 0.440546 -0.106988 -0.891332 0 0
    0 -74.409575 -40.049515 8.577963 0.437051 -0.260274 -0.860955 0 0
    0 -115.973217 41.056618 5.710669 0.397890 -0.417954 -0.816700 0 0
  phy
    0 -74.409575 -40.049515 8.577963 0.437051 -0.260274 -0.860955 0 0
    0 -116.888482 42.667839 5.128515 0.440546 -0.106988 -0.891332 0 0
    0 -73.910210 -41.604831 6.618049 0.478981 0.090897 -0.873106 0 0
  phy
    0 -73.910210 -41.604831 6.618049 0.478981 0.090897 -0.873106 0 0
    0 -116.888482 42.667839 5.128515 0.440546 -0.106988 -0.891332 0 0
    0 -113.588919 35.242096 -0.200046 0.208045 0.906979 -0.366205 0 0
  phy
    0 -116.888482 42.667839 5.128515 0.440546 -0.106988 -0.891332 0 0
    0 -116.304262 42.412901 1.739855 0.265357 0.188365 -0.945571 0 0
    0 -116.391257 41.649511 3.490410 0.317927 0.137805 -0.938047 0 0
  phy
    0 -116.304262 42.412901 1.739855 0.265357 0.188365 -0.945571 0 0
    0 -116.888482 42.667839 5.128515 0.440546 -0.106988 -0.891332 0 0
    0 -117.438384 45.011926 5.052949 0.013225 -0.183013 -0.983021 0 0
  phy
    0 -116.888482 42.667839 5.128515 0.440546 -0.106988 -0.891332 0 0
    0 -116.391257 41.649511 3.490410 0.317927 0.137805 -0.938047 0 0
    0 -113.588919 35.242096 -0.200046 0.208045 0.906979 -0.366205 0 0
  phy
    0 -117.438384 45.011926 5.052949 0.013225 -0.183013 -0.983021 0 0
    0 -116.888482 42.667839 5.128515 0.440546 -0.106988 -0.891332 0 0
    0 -113.565190 43.787933 11.879027 0.256101 -0.771201 -0.582804 0 0
  phy
    0 -116.888482 42.667839 5.128515 0.440546 -0.106988 -0.891332 0 0
    0 -115.973217 41.056618 5.710669 0.397890 -0.417954 -0.816700 0 0
    0 -113.565190 43.787933 11.879027 0.256101 -0.771201 -0.582804 0 0
  phy
    0 -116.391257 41.649511 3.490410 0.317927 0.137805 -0.938047 0 0
    0 -116.304262 42.412901 1.739855 0.265357 0.188365 -0.945571 0 0
    0 -113.588919 35.242096 -0.200046 0.208045 0.906979 -0.366205 0 0
  phy
    0 -116.304262 42.412901 1.739855 0.265357 0.188365 -0.945571 0 0
    0 -116.219671 43.360154 0.255089 0.188204 0.273875 -0.943171 0 0
    0 -113.588919 35.242096 -0.200046 0.208045 0.906979 -0.366205 0 0
  phy
    0 -116.304262 42.412901 1.739855 0.265357 0.188365 -0.945571 0 0
    0 -117.438384 45.011926 5.052949 0.013225 -0.183013 -0.983021 0 0
    0 -116.219671 43.360154 0.255089 0.188204 0.273875 -0.943171 0 0
  phy
    0 78.779994 35.474441 -0.523714 -0.738406 0.618835 0.267956 0 0
    0 79.873528 34.676912 -0.759410 -0.374177 0.914803 0.152076 0 0
    0 49.030987 44.962609 -0.663434 -0.606531 0.782649 0.139932 0 0
  phy
    0 66.820881 41.655293 2.084229 -0.911154 0.240542 0.334573 0 0
    0 78.779994 35.474441 -0.523714 -0.738406 0.618835 0.267956 0 0
    0 49.030987 44.962609 -0.663434 -0.606531 0.782649 0.139932 0 0
  phy
    0 78.058844 35.938578 0.250208 -0.872448 -0.001240 0.488705 0 0
    0 78.779994 35.474441 -0.523714 -0.738406 0.618835 0.267956 0 0
    0 66.820881 41.655293 2.084229 -0.911154 0.240542 0.334573 0 0
  phy
    0 79.873528 34.676912 -0.759410 -0.374177 0.914803 0.152076 0 0
    0 78.779994 35.474441 -0.523714 -0.738406 0.618835 0.267956 0 0
    0 81.240436 33.653590 2.080061 -0.705822 -0.272411 0.653917 0 0
  phy
    0 78.779994 35.474441 -0.523714 -0.738406 0.618835 0.267956 0 0
    0 78.058844 35.938578 0.250208 -0.872448 -0.001240 0.488705 0 0
    0 81.240436 33.653590 2.080061 -0.705822 -0.272411 0.653917 0 0
  phy
    0 74.479824 37.847391 3.910966 -0.892424 0.019627 0.450770 0 0
    0 74.614878 37.777292 4.758159 -0.853448 -0.350481 0.385734 0 0
    0 78.058844 35.938578 0.250208 -0.872448 -0.001240 0.488705 0 0
  phy
    0 74.614878 37.777292 4.758159 -0.853448 -0.350481 0.385734 0 0
    0 74.479824 37.847391 3.910966 -0.892424 0.019627 0.450770 0 0
    0 66.820881 41.655293 2.084229 -0.911154 0.240542 0.334573 0 0
  phy
    0 74.479824 37.847391 3.910966 -0.892424 0.019627 0.450770 0 0
    0 78.058844 35.938578 0.250208 -0.872448 -0.001240 0.488705 0 0
    0 66.820881 41.655293 2.084229 -0.911154 0.240542 0.334573 0 0
  phy
    0 24.825119 45.240329 -1.561679 -0.121039 0.992630 0.005936 0 0
    0 23.289778 46.199326 -1.379005 -0.614290 0.789028 0.009029 0 0
    0 46.163244 42.762756 -1.661260 -0.118004 0.992885 0.015954 0 0
  phy
    0 23.289778 46.199326 -1.379005 -0.614290 0.789028 0.009029 0 0
    0 24.825119 45.240329 -1.561679 -0.121039 0.992630 0.005936 0 0
    0 -31.689021 41.764843 -2.248527 -0.018026 0.999820 -0.005903 0 0
  phy
    0 24.825119 45.240329 -1.561679 -0.121039 0.992630 0.005936 0 0
    0 46.163244 42.762756 -1.661260 -0.118004 0.992885 0.015954 0 0
    0 -31.689021 41.764843 -2.248527 -0.018026 0.999820 -0.005903 0 0
  phy
    0 -116.743628 47.213937 3.344618 -0.212934 0.213082 -0.953549 0 0
    0 -116.795668 46.575351 4.640714 -0.518542 -0.303210 -0.799486 0 0
    0 -116.329043 47.781336 3.241817 -0.960532 -0.129503 -0.246187 0 0
  phy
    0 -116.329043 47.781336 3.241817 -0.960532 -0.129503 -0.246187 0 0
    0 -116.795668 46.575351 4.640714 -0.518542 -0.303210 -0.799486 0 0
    0 -114.315664 46.505140 10.958694 -0.813523 -0.403400 -0.418866 0 0
  phy
    0 -117.438384 45.011926 5.052949 0.013225 -0.183013 -0.983021 0 0
    0 -116.795668 46.575351 4.640714 -0.518542 -0.303210 -0.799486 0 0
    0 -116.743628 47.213937 3.344618 -0.212934 0.213082 -0.953549 0 0
  phy
    0 -116.795668 46.575351 4.640714 -0.518542 -0.303210 -0.799486 0 0
    0 -117.438384 45.011926 5.052949 0.013225 -0.183013 -0.983021 0 0
    0 -114.315664 46.505140 10.958694 -0.813523 -0.403400 -0.418866 0 0
  phy
    0 115.649738 -7.891993 7.480260 0.145863 -0.881317 0.449448 0 0
    0 114.580290 -10.432897 7.435356 0.426886 -0.829486 0.360169 0 0
    0 115.790179 -8.942612 7.094323 0.297408 -0.598981 0.743485 0 0
  phy
    0 115.649738 -7.891993 7.480260 0.145863 -0.881317 0.449448 0 0
    0 114.472607 -6.339531 8.197075 -0.034337 -0.957621 0.285976 0 0
    0 114.580290 -10.432897 7.435356 0.426886 -0.829486 0.360169 0 0
  phy
    0 115.790179 -8.942612 7.094323 0.297408 -0.598981 0.743485 0 0
    0 116.329325 -6.568976 7.182895 -0.198632 -0.629291 0.751358 0 0
    0 115.649738 -7.891993 7.480260 0.145863 -0.881317 0.449448 0 0
  phy
    0 116.329325 -6.568976 7.182895 -0.198632 -0.629291 0.751358 0 0
    0 114.472607 -6.339531 8.197075 -0.034337 -0.957621 0.285976 0 0
    0 115.649738 -7.891993 7.480260 0.145863 -0.881317 0.449448 0 0
  phy
    0 79.873528 34.676912 -0.759410 -0.374177 0.914803 0.152076 0 0
    0 81.240436 33.653590 2.080061 -0.705822 -0.272411 0.653917 0 0
    0 81.210089 33.594600 -0.795321 -0.263234 0.920276 0.289481 0 0
  phy
    0 74.614878 37.777292 4.758159 -0.853448 -0.350481 0.385734 0 0
    0 66.044424 38.751317 9.315502 -0.497588 -0.778919 0.381695 0 0
    0 75.310929 37.197053 5.136803 -0.535582 -0.676460 0.505524 0 0
  phy
    0 66.044424 38.751317 9.315502 -0.497588 -0.778919 0.381695 0 0
    0 74.614878 37.777292 4.758159 -0.853448 -0.350481 0.385734 0 0
    0 45.271746 47.800410 9.897337 -0.822352 -0.547415 0.155156 0 0
  phy
    0 45.271746 47.800410 9.897337 -0.822352 -0.547415 0.155156 0 0
    0 74.614878 37.777292 4.758159 -0.853448 -0.350481 0.385734 0 0
    0 53.493470 45.784928 6.354775 -0.900046 -0.258918 0.350541 0 0
  phy
    0 78.058844 35.938578 0.250208 -0.872448 -0.001240 0.488705 0 0
    0 74.614878 37.777292 4.758159 -0.853448 -0.350481 0.385734 0 0
    0 81.240436 33.653590 2.080061 -0.705822 -0.272411 0.653917 0 0
  phy
    0 81.240436 33.653590 2.080061 -0.705822 -0.272411 0.653917 0 0
    0 74.614878 37.777292 4.758159 -0.853448 -0.350481 0.385734 0 0
    0 75.310929 37.197053 5.136803 -0.535582 -0.676460 0.505524 0 0
  phy
    0 74.614878 37.777292 4.758159 -0.853448 -0.350481 0.385734 0 0
    0 66.820881 41.655293 2.084229 -0.911154 0.240542 0.334573 0 0
    0 53.493470 45.784928 6.354775 -0.900046 -0.258918 0.350541 0 0
  phy
    0 44.790835 47.782350 2.298543 -0.884958 0.464607 0.031461 0 0
    0 23.289778 46.199326 -1.379005 -0.614290 0.789028 0.009029 0 0
    0 -14.655496 49.204071 2.918957 -0.965234 0.261388 0.000498 0 0
  phy
    0 -14.655496 49.204071 2.918957 -0.965234 0.261388 0.000498 0 0
    0 23.289778 46.199326 -1.379005 -0.614290 0.789028 0.009029 0 0
    0 -114.891998 47.569688 -0.786201 -0.091003 0.995609 -0.021943 0 0
  phy
    0 23.289778 46.199326 -1.379005 -0.614290 0.789028 0.009029 0 0
    0 44.790835 47.782350 2.298543 -0.884958 0.464607 0.031461 0 0
    0 49.030987 44.962609 -0.663434 -0.606531 0.782649 0.139932 0 0
  phy
    0 46.163244 42.762756 -1.661260 -0.118004 0.992885 0.015954 0 0
    0 23.289778 46.199326 -1.379005 -0.614290 0.789028 0.009029 0 0
    0 49.030987 44.962609 -0.663434 -0.606531 0.782649 0.139932 0 0
  phy
    0 23.289778 46.199326 -1.379005 -0.614290 0.789028 0.009029 0 0
    0 -31.689021 41.764843 -2.248527 -0.018026 0.999820 -0.005903 0 0
    0 -114.891998 47.569688 -0.786201 -0.091003 0.995609 -0.021943 0 0
  phy
    0 46.163244 42.762756 -1.661260 -0.118004 0.992885 0.015954 0 0
    0 56.731307 39.239812 -1.760206 -0.036361 0.999304 0.008311 0 0
    0 -31.689021 41.764843 -2.248527 -0.018026 0.999820 -0.005903 0 0
  phy
    0 -117.438384 45.011926 5.052949 0.013225 -0.183013 -0.983021 0 0
    0 -116.137332 44.962064 -0.004355 -0.096218 0.279543 -0.955300 0 0
    0 -116.219671 43.360154 0.255089 0.188204 0.273875 -0.943171 0 0
  phy
    0 -116.137332 44.962064 -0.004355 -0.096218 0.279543 -0.955300 0 0
    0 -116.004653 43.799107 -0.358399 0.086690 0.901480 -0.424050 0 0
    0 -116.219671 43.360154 0.255089 0.188204 0.273875 -0.943171 0 0
  phy
    0 -116.137332 44.962064 -0.004355 -0.096218 0.279543 -0.955300 0 0
    0 -117.438384 45.011926 5.052949 0.013225 -0.183013 -0.983021 0 0
    0 -116.743628 47.213937 3.344618 -0.212934 0.213082 -0.953549 0 0
  phy
    0 -116.137332 44.962064 -0.004355 -0.096218 0.279543 -0.955300 0 0
    0 -116.743628 47.213937 3.344618 -0.212934 0.213082 -0.953549 0 0
    0 -115.565240 47.664239 -0.410850 -0.986311 0.162929 -0.025382 0 0
  phy
    0 -116.004653 43.799107 -0.358399 0.086690 0.901480 -0.424050 0 0
    0 -116.137332 44.962064 -0.004355 -0.096218 0.279543 -0.955300 0 0
    0 -115.565240 47.664239 -0.410850 -0.986311 0.162929 -0.025382 0 0
  phy
    0 -114.315664 46.505140 10.958694 -0.813523 -0.403400 -0.418866 0 0
    0 -117.438384 45.011926 5.052949 0.013225 -0.183013 -0.983021 0 0
    0 -113.565190 43.787933 11.879027 0.256101 -0.771201 -0.582804 0 0
  phy
    0 67.074993 -34.449420 1.261985 0.907682 0.336268 0.251074 0 0
    0 93.580381 -26.290586 0.312910 0.940083 0.113346 0.321554 0 0
    0 71.972975 -32.981587 2.371007 0.954929 -0.063166 0.290036 0 0
  phy
    0 71.972975 -32.981587 2.371007 0.954929 -0.063166 0.290036 0 0
    0 93.580381 -26.290586 0.312910 0.940083 0.113346 0.321554 0 0
    0 94.218104 -26.144090 2.118377 0.936174 -0.173968 0.305472 0 0
  phy
    0 94.218104 -26.144090 2.118377 0.936174 -0.173968 0.305472 0 0
    0 33.634216 -43.881634 10.910335 0.923111 -0.244786 0.296558 0 0
    0 71.972975 -32.981587 2.371007 0.954929 -0.063166 0.290036 0 0
  phy
    0 71.972975 -32.981587 2.371007 0.954929 -0.063166 0.290036 0 0
    0 21.529611 -47.897504 6.222687 0.972210 0.009421 0.233920 0 0
    0 67.074993 -34.449420 1.261985 0.907682 0.336268 0.251074 0 0
  phy
    0 71.972975 -32.981587 2.371007 0.954929 -0.063166 0.290036 0 0
    0 33.634216 -43.881634 10.910335 0.923111 -0.244786 0.296558 0 0
    0 21.529611 -47.897504 6.222687 0.972210 0.009421 0.233920 0 0
  phy
    0 114.580290 -10.432897 7.435356 0.426886 -0.829486 0.360169 0 0
    0 117.059805 -10.609195 4.380857 0.403779 -0.377582 0.833303 0 0
    0 115.790179 -8.942612 7.094323 0.297408 -0.598981 0.743485 0 0
  phy
    0 115.790179 -8.942612 7.094323 0.297408 -0.598981 0.743485 0 0
    0 117.059805 -10.609195 4.380857 0.403779 -0.377582 0.833303 0 0
    0 116.329325 -6.568976 7.182895 -0.198632 -0.629291 0.751358 0 0
  phy
    0 50.030355 47.311764 2.891351 -0.877711 0.414711 0.240077 0 0
    0 66.820881 41.655293 2.084229 -0.911154 0.240542 0.334573 0 0
    0 49.030987 44.962609 -0.663434 -0.606531 0.782649 0.139932 0 0
  phy
    0 44.790835 47.782350 2.298543 -0.884958 0.464607 0.031461 0 0
    0 50.030355 47.311764 2.891351 -0.877711 0.414711 0.240077 0 0
    0 49.030987 44.962609 -0.663434 -0.606531 0.782649 0.139932 0 0
  phy
    0 66.820881 41.655293 2.084229 -0.911154 0.240542 0.334573 0 0
    0 50.030355 47.311764 2.891351 -0.877711 0.414711 0.240077 0 0
    0 45.480803 48.886171 5.585340 -0.955190 -0.063084 0.289192 0 0
  phy
    0 50.030355 47.311764 2.891351 -0.877711 0.414711 0.240077 0 0
    0 44.790835 47.782350 2.298543 -0.884958 0.464607 0.031461 0 0
    0 45.480803 48.886171 5.585340 -0.955190 -0.063084 0.289192 0 0
  phy
    0 81.240436 33.653590 2.080061 -0.705822 -0.272411 0.653917 0 0
    0 81.783993 33.156252 0.101835 -0.702974 0.021924 0.710878 0 0
    0 81.210089 33.594600 -0.795321 -0.263234 0.920276 0.289481 0 0
  phy
    0 81.240436 33.653590 2.080061 -0.705822 -0.272411 0.653917 0 0
    0 113.696001 0.910721 4.569076 -0.689238 -0.087853 0.719189 0 0
    0 81.783993 33.156252 0.101835 -0.702974 0.021924 0.710878 0 0
  phy
    0 81.783993 33.156252 0.101835 -0.702974 0.021924 0.710878 0 0
    0 113.696001 0.910721 4.569076 -0.689238 -0.087853 0.719189 0 0
    0 81.210089 33.594600 -0.795321 -0.263234 0.920276 0.289481 0 0
  phy
    0 105.831642 -20.700440 4.792307 0.487650 -0.835914 0.251884 0 0
    0 33.996762 -42.751793 12.337767 0.530632 -0.832174 0.160983 0 0
    0 105.353772 -21.380909 4.437700 0.786883 -0.540146 0.298425 0 0
  phy
    0 105.353772 -21.380909 4.437700 0.786883 -0.540146 0.298425 0 0
    0 33.996762 -42.751793 12.337767 0.530632 -0.832174 0.160983 0 0
    0 33.634216 -43.881634 10.910335 0.923111 -0.244786 0.296558 0 0
  phy
    0 106.787813 -21.485757 3.101769 0.870748 -0.309661 0.381980 0 0
    0 105.831642 -20.700440 4.792307 0.487650 -0.835914 0.251884 0 0
    0 105.353772 -21.380909 4.437700 0.786883 -0.540146 0.298425 0 0
  phy
    0 105.353772 -21.380909 4.437700 0.786883 -0.540146 0.298425 0 0
    0 33.634216 -43.881634 10.910335 0.923111 -0.244786 0.296558 0 0
    0 106.787813 -21.485757 3.101769 0.870748 -0.309661 0.381980 0 0
  phy
    0 113.008379 -14.291335 -0.492654 0.370347 0.847357 0.380565 0 0
    0 111.275677 -16.112102 -0.220143 0.492682 0.796251 0.351069 0 0
    0 92.893585 -23.065702 -1.740418 0.195219 0.977081 0.084868 0 0
  phy
    0 111.275677 -16.112102 -0.220143 0.492682 0.796251 0.351069 0 0
    0 106.510787 -21.082313 0.844473 0.622171 0.688782 0.372133 0 0
    0 92.893585 -23.065702 -1.740418 0.195219 0.977081 0.084868 0 0
  phy
    0 113.008379 -14.291335 -0.492654 0.370347 0.847357 0.380565 0 0
    0 112.499909 -16.557309 2.876980 0.693028 -0.094244 0.714724 0 0
    0 111.275677 -16.112102 -0.220143 0.492682 0.796251 0.351069 0 0
  phy
    0 112.499909 -16.557309 2.876980 0.693028 -0.094244 0.714724 0 0
    0 106.510787 -21.082313 0.844473 0.622171 0.688782 0.372133 0 0
    0 111.275677 -16.112102 -0.220143 0.492682 0.796251 0.351069 0 0
  phy
    0 45.028582 17.822371 -2.431119 -0.020467 0.999779 0.004867 0 0
    0 49.754109 5.533841 -2.484199 0.001239 0.999994 0.003364 0 0
    0 -31.689021 41.764843 -2.248527 -0.018026 0.999820 -0.005903 0 0
  phy
    0 -31.689021 41.764843 -2.248527 -0.018026 0.999820 -0.005903 0 0
    0 49.754109 5.533841 -2.484199 0.001239 0.999994 0.003364 0 0
    0 -27.121615 -37.075966 -2.558877 0.006886 0.999976 0.000189 0 0
  phy
    0 -31.689021 41.764843 -2.248527 -0.018026 0.999820 -0.005903 0 0
    0 -27.121615 -37.075966 -2.558877 0.006886 0.999976 0.000189 0 0
    0 -45.796342 -35.845642 -2.532217 0.014422 0.999222 -0.036707 0 0
  phy
    0 -115.565240 47.664239 -0.410850 -0.986311 0.162929 -0.025382 0 0
    0 -116.743628 47.213937 3.344618 -0.212934 0.213082 -0.953549 0 0
    0 -116.329043 47.781336 3.241817 -0.960532 -0.129503 -0.246187 0 0
  phy
    0 19.840406 -47.775254 3.627567 0.950751 0.299123 0.081229 0 0
    0 -9.679419 -49.049085 0.671890 0.640298 0.767988 -0.014591 0 0
    0 19.999226 -45.959335 -0.359618 0.779525 0.604732 0.163216 0 0
  phy
    0 19.999226 -45.959335 -0.359618 0.779525 0.604732 0.163216 0 0
    0 22.193879 -47.071661 2.771363 0.914198 0.325363 0.241619 0 0
    0 19.840406 -47.775254 3.627567 0.950751 0.299123 0.081229 0 0
  phy
    0 19.840406 -47.775254 3.627567 0.950751 0.299123 0.081229 0 0
    0 -8.272562 -49.239726 1.535416 0.953776 0.292155 0.070409 0 0
    0 -9.679419 -49.049085 0.671890 0.640298 0.767988 -0.014591 0 0
  phy
    0 -8.499266 -49.623429 2.831324 0.994615 0.084227 0.060391 0 0
    0 -8.272562 -49.239726 1.535416 0.953776 0.292155 0.070409 0 0
    0 19.840406 -47.775254 3.627567 0.950751 0.299123 0.081229 0 0
  phy
    0 19.840406 -47.775254 3.627567 0.950751 0.299123 0.081229 0 0
    0 22.193879 -47.071661 2.771363 0.914198 0.325363 0.241619 0 0
    0 21.529611 -47.897504 6.222687 0.972210 0.009421 0.233920 0 0
  phy
    0 21.529611 -47.897504 6.222687 0.972210 0.009421 0.233920 0 0
    0 -8.499266 -49.623429 2.831324 0.994615 0.084227 0.060391 0 0
    0 19.840406 -47.775254 3.627567 0.950751 0.299123 0.081229 0 0
  phy
    0 19.999226 -45.959335 -0.359618 0.779525 0.604732 0.163216 0 0
    0 93.026349 -26.285817 -0.188520 0.595902 0.783286 0.177098 0 0
    0 67.074993 -34.449420 1.261985 0.907682 0.336268 0.251074 0 0
  phy
    0 67.074993 -34.449420 1.261985 0.907682 0.336268 0.251074 0 0
    0 22.193879 -47.071661 2.771363 0.914198 0.325363 0.241619 0 0
    0 19.999226 -45.959335 -0.359618 0.779525 0.604732 0.163216 0 0
  phy
    0 93.026349 -26.285817 -0.188520 0.595902 0.783286 0.177098 0 0
    0 93.580381 -26.290586 0.312910 0.940083 0.113346 0.321554 0 0
    0 67.074993 -34.449420 1.261985 0.907682 0.336268 0.251074 0 0
  phy
    0 21.529611 -47.897504 6.222687 0.972210 0.009421 0.233920 0 0
    0 22.193879 -47.071661 2.771363 0.914198 0.325363 0.241619 0 0
    0 67.074993 -34.449420 1.261985 0.907682 0.336268 0.251074 0 0
  phy
    0 93.026349 -26.285817 -0.188520 0.595902 0.783286 0.177098 0 0
    0 19.999226 -45.959335 -0.359618 0.779525 0.604732 0.163216 0 0
    0 21.805538 -43.433191 -2.170557 0.080940 0.996616 0.014308 0 0
  phy
    0 19.999226 -45.959335 -0.359618 0.779525 0.604732 0.163216 0 0
    0 -9.679419 -49.049085 0.671890 0.640298 0.767988 -0.014591 0 0
    0 21.805538 -43.433191 -2.170557 0.080940 0.996616 0.014308 0 0
  phy
    0 114.472607 -6.339531 8.197075 -0.034337 -0.957621 0.285976 0 0
    0 111.298824 -4.270922 8.718360 -0.367431 -0.854612 0.366924 0 0
    0 101.983566 -1.910249 11.014131 -0.100310 -0.980921 0.166529 0 0
  phy
    0 111.298824 -4.270922 8.718360 -0.367431 -0.854612 0.366924 0 0
    0 101.513450 -0.352484 10.833017 -0.305980 -0.900158 0.309988 0 0
    0 101.983566 -1.910249 11.014131 -0.100310 -0.980921 0.166529 0 0
  phy
    0 101.513450 -0.352484 10.833017 -0.305980 -0.900158 0.309988 0 0
    0 83.320347 21.639246 9.436288 -0.357379 -0.865184 0.351763 0 0
    0 52.446606 39.901471 13.970324 -0.214789 -0.949970 0.226765 0 0
  phy
    0 101.513450 -0.352484 10.833017 -0.305980 -0.900158 0.309988 0 0
    0 111.298824 -4.270922 8.718360 -0.367431 -0.854612 0.366924 0 0
    0 83.320347 21.639246 9.436288 -0.357379 -0.865184 0.351763 0 0
  phy
    0 83.320347 21.639246 9.436288 -0.357379 -0.865184 0.351763 0 0
    0 111.298824 -4.270922 8.718360 -0.367431 -0.854612 0.366924 0 0
    0 113.694198 0.129760 5.313008 -0.438648 -0.787898 0.432209 0 0
  phy
    0 111.298824 -4.270922 8.718360 -0.367431 -0.854612 0.366924 0 0
    0 114.472607 -6.339531 8.197075 -0.034337 -0.957621 0.285976 0 0
    0 113.694198 0.129760 5.313008 -0.438648 -0.787898 0.432209 0 0
  phy
    0 45.356638 43.643384 14.040170 -0.683875 -0.716701 0.136581 0 0
    0 52.446606 39.901471 13.970324 -0.214789 -0.949970 0.226765 0 0
    0 66.044424 38.751317 9.315502 -0.497588 -0.778919 0.381695 0 0
  phy
    0 45.356638 43.643384 14.040170 -0.683875 -0.716701 0.136581 0 0
    0 51.820738 40.172977 14.020564 -0.073719 -0.995493 0.059653 0 0
    0 52.446606 39.901471 13.970324 -0.214789 -0.949970 0.226765 0 0
  phy
    0 83.320347 21.639246 9.436288 -0.357379 -0.865184 0.351763 0 0
    0 113.694198 0.129760 5.313008 -0.438648 -0.787898 0.432209 0 0
    0 66.044424 38.751317 9.315502 -0.497588 -0.778919 0.381695 0 0
  phy
    0 66.044424 38.751317 9.315502 -0.497588 -0.778919 0.381695 0 0
    0 113.694198 0.129760 5.313008 -0.438648 -0.787898 0.432209 0 0
    0 75.310929 37.197053 5.136803 -0.535582 -0.676460 0.505524 0 0
  phy
    0 66.044424 38.751317 9.315502 -0.497588 -0.778919 0.381695 0 0
    0 52.446606 39.901471 13.970324 -0.214789 -0.949970 0.226765 0 0
    0 83.320347 21.639246 9.436288 -0.357379 -0.865184 0.351763 0 0
  phy
    0 45.356638 43.643384 14.040170 -0.683875 -0.716701 0.136581 0 0
    0 66.044424 38.751317 9.315502 -0.497588 -0.778919 0.381695 0 0
    0 45.271746 47.800410 9.897337 -0.822352 -0.547415 0.155156 0 0
  phy
    0 114.580290 -10.432897 7.435356 0.426886 -0.829486 0.360169 0 0
    0 96.157517 -10.614714 12.776185 -0.030370 -0.996543 0.077323 0 0
    0 95.255844 -11.716107 12.764640 0.221097 -0.968979 0.110434 0 0
  phy
    0 114.580290 -10.432897 7.435356 0.426886 -0.829486 0.360169 0 0
    0 114.472607 -6.339531 8.197075 -0.034337 -0.957621 0.285976 0 0
    0 96.157517 -10.614714 12.776185 -0.030370 -0.996543 0.077323 0 0
  phy
    0 114.580290 -10.432897 7.435356 0.426886 -0.829486 0.360169 0 0
    0 95.255844 -11.716107 12.764640 0.221097 -0.968979 0.110434 0 0
    0 96.338114 -12.591054 12.137683 0.470486 -0.849044 0.240346 0 0
  phy
    0 96.338114 -12.591054 12.137683 0.470486 -0.849044 0.240346 0 0
    0 105.831642 -20.700440 4.792307 0.487650 -0.835914 0.251884 0 0
    0 114.580290 -10.432897 7.435356 0.426886 -0.829486 0.360169 0 0
  phy
    0 106.787813 -21.485757 3.101769 0.870748 -0.309661 0.381980 0 0
    0 112.499909 -16.557309 2.876980 0.693028 -0.094244 0.714724 0 0
    0 114.580290 -10.432897 7.435356 0.426886 -0.829486 0.360169 0 0
  phy
    0 114.580290 -10.432897 7.435356 0.426886 -0.829486 0.360169 0 0
    0 105.831642 -20.700440 4.792307 0.487650 -0.835914 0.251884 0 0
    0 106.787813 -21.485757 3.101769 0.870748 -0.309661 0.381980 0 0
  phy
    0 112.499909 -16.557309 2.876980 0.693028 -0.094244 0.714724 0 0
    0 117.059805 -10.609195 4.380857 0.403779 -0.377582 0.833303 0 0
    0 114.580290 -10.432897 7.435356 0.426886 -0.829486 0.360169 0 0
  phy
    0 66.820881 41.655293 2.084229 -0.911154 0.240542 0.334573 0 0
    0 45.480803 48.886171 5.585340 -0.955190 -0.063084 0.289192 0 0
    0 53.493470 45.784928 6.354775 -0.900046 -0.258918 0.350541 0 0
  phy
    0 81.240436 33.653590 2.080061 -0.705822 -0.272411 0.653917 0 0
    0 75.310929 37.197053 5.136803 -0.535582 -0.676460 0.505524 0 0
    0 113.696001 0.910721 4.569076 -0.689238 -0.087853 0.719189 0 0
  phy
    0 106.787813 -21.485757 3.101769 0.870748 -0.309661 0.381980 0 0
    0 33.634216 -43.881634 10.910335 0.923111 -0.244786 0.296558 0 0
    0 94.218104 -26.144090 2.118377 0.936174 -0.173968 0.305472 0 0
  phy
    0 94.218104 -26.144090 2.118377 0.936174 -0.173968 0.305472 0 0
    0 93.580381 -26.290586 0.312910 0.940083 0.113346 0.321554 0 0
    0 106.787813 -21.485757 3.101769 0.870748 -0.309661 0.381980 0 0
  phy
    0 106.787813 -21.485757 3.101769 0.870748 -0.309661 0.381980 0 0
    0 93.580381 -26.290586 0.312910 0.940083 0.113346 0.321554 0 0
    0 106.510787 -21.082313 0.844473 0.622171 0.688782 0.372133 0 0
  phy
    0 106.787813 -21.485757 3.101769 0.870748 -0.309661 0.381980 0 0
    0 106.510787 -21.082313 0.844473 0.622171 0.688782 0.372133 0 0
    0 112.499909 -16.557309 2.876980 0.693028 -0.094244 0.714724 0 0
  phy
    0 113.008379 -14.291335 -0.492654 0.370347 0.847357 0.380565 0 0
    0 92.893585 -23.065702 -1.740418 0.195219 0.977081 0.084868 0 0
    0 114.101650 -9.324945 -1.590027 -0.046536 0.994255 0.096395 0 0
  phy
    0 117.994688 -8.964126 1.455142 0.410560 0.411882 0.813507 0 0
    0 113.008379 -14.291335 -0.492654 0.370347 0.847357 0.380565 0 0
    0 114.101650 -9.324945 -1.590027 -0.046536 0.994255 0.096395 0 0
  phy
    0 113.008379 -14.291335 -0.492654 0.370347 0.847357 0.380565 0 0
    0 117.994688 -8.964126 1.455142 0.410560 0.411882 0.813507 0 0
    0 112.499909 -16.557309 2.876980 0.693028 -0.094244 0.714724 0 0
  phy
    0 112.499909 -16.557309 2.876980 0.693028 -0.094244 0.714724 0 0
    0 117.994688 -8.964126 1.455142 0.410560 0.411882 0.813507 0 0
    0 117.202969 -10.240284 2.620877 0.594020 0.078168 0.800644 0 0
  phy
    0 117.202969 -10.240284 2.620877 0.594020 0.078168 0.800644 0 0
    0 117.059805 -10.609195 4.380857 0.403779 -0.377582 0.833303 0 0
    0 112.499909 -16.557309 2.876980 0.693028 -0.094244 0.714724 0 0
  phy
    0 117.994688 -8.964126 1.455142 0.410560 0.411882 0.813507 0 0
    0 117.059805 -10.609195 4.380857 0.403779 -0.377582 0.833303 0 0
    0 117.202969 -10.240284 2.620877 0.594020 0.078168 0.800644 0 0
  phy
    0 33.996762 -42.751793 12.337767 0.530632 -0.832174 0.160983 0 0
    0 95.255844 -11.716107 12.764640 0.221097 -0.968979 0.110434 0 0
    0 35.232916 -41.971784 12.414887 0.220185 -0.969990 0.103144 0 0
  phy
    0 33.996762 -42.751793 12.337767 0.530632 -0.832174 0.160983 0 0
    0 96.338114 -12.591054 12.137683 0.470486 -0.849044 0.240346 0 0
    0 95.255844 -11.716107 12.764640 0.221097 -0.968979 0.110434 0 0
  phy
    0 96.338114 -12.591054 12.137683 0.470486 -0.849044 0.240346 0 0
    0 33.996762 -42.751793 12.337767 0.530632 -0.832174 0.160983 0 0
    0 105.831642 -20.700440 4.792307 0.487650 -0.835914 0.251884 0 0
  phy
    0 -115.973217 41.056618 5.710669 0.397890 -0.417954 -0.816700 0 0
    0 -74.409575 -40.049515 8.577963 0.437051 -0.260274 -0.860955 0 0
    0 -69.346315 -46.648341 12.999407 0.352044 -0.594815 -0.722676 0 0
  phy
    0 -74.409575 -40.049515 8.577963 0.437051 -0.260274 -0.860955 0 0
    0 -73.910210 -41.604831 6.618049 0.478981 0.090897 -0.873106 0 0
    0 -68.763551 -47.910326 12.215167 0.844476 0.012827 -0.535439 0 0
  phy
    0 -74.409575 -40.049515 8.577963 0.437051 -0.260274 -0.860955 0 0
    0 -68.763551 -47.910326 12.215167 0.844476 0.012827 -0.535439 0 0
    0 -69.346315 -46.648341 12.999407 0.352044 -0.594815 -0.722676 0 0
  phy
    0 -72.029594 -41.501424 3.866464 0.403184 0.637247 -0.656779 0 0
    0 -73.910210 -41.604831 6.618049 0.478981 0.090897 -0.873106 0 0
    0 -113.588919 35.242096 -0.200046 0.208045 0.906979 -0.366205 0 0
  phy
    0 -70.284671 -40.780118 2.320320 0.321533 0.793914 -0.516060 0 0
    0 -72.029594 -41.501424 3.866464 0.403184 0.637247 -0.656779 0 0
    0 -113.588919 35.242096 -0.200046 0.208045 0.906979 -0.366205 0 0
  phy
    0 -72.029594 -41.501424 3.866464 0.403184 0.637247 -0.656779 0 0
    0 -70.284671 -40.780118 2.320320 0.321533 0.793914 -0.516060 0 0
    0 -66.708026 -40.772881 0.112282 0.137884 0.975216 -0.173036 0 0
  phy
    0 -70.796707 -43.309786 4.586591 0.723734 0.475984 -0.499648 0 0
    0 -72.029594 -41.501424 3.866464 0.403184 0.637247 -0.656779 0 0
    0 -66.708026 -40.772881 0.112282 0.137884 0.975216 -0.173036 0 0
  phy
    0 -73.910210 -41.604831 6.618049 0.478981 0.090897 -0.873106 0 0
    0 -72.029594 -41.501424 3.866464 0.403184 0.637247 -0.656779 0 0
    0 -70.796707 -43.309786 4.586591 0.723734 0.475984 -0.499648 0 0
  phy
    0 -115.973217 41.056618 5.710669 0.397890 -0.417954 -0.816700 0 0
    0 -69.346315 -46.648341 12.999407 0.352044 -0.594815 -0.722676 0 0
    0 -113.565190 43.787933 11.879027 0.256101 -0.771201 -0.582804 0 0
  phy
    0 -116.004653 43.799107 -0.358399 0.086690 0.901480 -0.424050 0 0
    0 -115.565240 47.664239 -0.410850 -0.986311 0.162929 -0.025382 0 0
    0 -114.891998 47.569688 -0.786201 -0.091003 0.995609 -0.021943 0 0
  phy
    0 -116.219671 43.360154 0.255089 0.188204 0.273875 -0.943171 0 0
    0 -116.004653 43.799107 -0.358399 0.086690 0.901480 -0.424050 0 0
    0 -113.588919 35.242096 -0.200046 0.208045 0.906979 -0.366205 0 0
  phy
    0 -113.588919 35.242096 -0.200046 0.208045 0.906979 -0.366205 0 0
    0 -116.004653 43.799107 -0.358399 0.086690 0.901480 -0.424050 0 0
    0 -114.891998 47.569688 -0.786201 -0.091003 0.995609 -0.021943 0 0
  phy
    0 -115.565240 47.664239 -0.410850 -0.986311 0.162929 -0.025382 0 0
    0 -14.655496 49.204071 2.918957 -0.965234 0.261388 0.000498 0 0
    0 -114.891998 47.569688 -0.786201 -0.091003 0.995609 -0.021943 0 0
  phy
    0 -14.655496 49.204071 2.918957 -0.965234 0.261388 0.000498 0 0
    0 -115.565240 47.664239 -0.410850 -0.986311 0.162929 -0.025382 0 0
    0 -101.308691 49.795114 11.858978 -0.998728 -0.048381 -0.014178 0 0
  phy
    0 -115.565240 47.664239 -0.410850 -0.986311 0.162929 -0.025382 0 0
    0 -116.329043 47.781336 3.241817 -0.960532 -0.129503 -0.246187 0 0
    0 -101.308691 49.795114 11.858978 -0.998728 -0.048381 -0.014178 0 0
  phy
    0 21.529611 -47.897504 6.222687 0.972210 0.009421 0.233920 0 0
    0 17.760186 -48.147496 8.413848 0.971022 -0.238180 0.019674 0 0
    0 -8.499266 -49.623429 2.831324 0.994615 0.084227 0.060391 0 0
  phy
    0 20.648926 -47.643462 9.031760 0.745674 -0.660786 0.085629 0 0
    0 17.760186 -48.147496 8.413848 0.971022 -0.238180 0.019674 0 0
    0 21.529611 -47.897504 6.222687 0.972210 0.009421 0.233920 0 0
  phy
    0 33.634216 -43.881634 10.910335 0.923111 -0.244786 0.296558 0 0
    0 20.648926 -47.643462 9.031760 0.745674 -0.660786 0.085629 0 0
    0 21.529611 -47.897504 6.222687 0.972210 0.009421 0.233920 0 0
  phy
    0 -9.797014 -49.624776 3.079641 0.991979 -0.126398 0.001083 0 0
    0 -9.679419 -49.049085 0.671890 0.640298 0.767988 -0.014591 0 0
    0 -8.499266 -49.623429 2.831324 0.994615 0.084227 0.060391 0 0
  phy
    0 -9.797014 -49.624776 3.079641 0.991979 -0.126398 0.001083 0 0
    0 -16.914428 -49.083444 2.165967 0.948417 0.310380 -0.064575 0 0
    0 -9.679419 -49.049085 0.671890 0.640298 0.767988 -0.014591 0 0
  phy
    0 -9.679419 -49.049085 0.671890 0.640298 0.767988 -0.014591 0 0
    0 -16.914428 -49.083444 2.165967 0.948417 0.310380 -0.064575 0 0
    0 -65.579752 -45.634780 3.382794 0.831391 0.539104 -0.134746 0 0
  phy
    0 -16.914428 -49.083444 2.165967 0.948417 0.310380 -0.064575 0 0
    0 -65.064618 -48.061731 9.108688 0.939524 0.331631 -0.085533 0 0
    0 -65.579752 -45.634780 3.382794 0.831391 0.539104 -0.134746 0 0
  phy
    0 -9.679419 -49.049085 0.671890 0.640298 0.767988 -0.014591 0 0
    0 -8.272562 -49.239726 1.535416 0.953776 0.292155 0.070409 0 0
    0 -8.499266 -49.623429 2.831324 0.994615 0.084227 0.060391 0 0
  phy
    0 -9.679419 -49.049085 0.671890 0.640298 0.767988 -0.014591 0 0
    0 -65.579752 -45.634780 3.382794 0.831391 0.539104 -0.134746 0 0
    0 -44.083408 -45.655431 0.854871 0.703877 0.706111 -0.077235 0 0
  phy
    0 -9.679419 -49.049085 0.671890 0.640298 0.767988 -0.014591 0 0
    0 -48.546894 -42.589546 -1.515866 0.324447 0.945300 -0.033796 0 0
    0 21.805538 -43.433191 -2.170557 0.080940 0.996616 0.014308 0 0
  phy
    0 -48.546894 -42.589546 -1.515866 0.324447 0.945300 -0.033796 0 0
    0 -9.679419 -49.049085 0.671890 0.640298 0.767988 -0.014591 0 0
    0 -44.083408 -45.655431 0.854871 0.703877 0.706111 -0.077235 0 0
  phy
    0 52.446606 39.901471 13.970324 -0.214789 -0.949970 0.226765 0 0
    0 53.883462 35.505426 14.131853 -0.031418 -0.997962 0.055540 0 0
    0 96.157517 -10.614714 12.776185 -0.030370 -0.996543 0.077323 0 0
  phy
    0 52.446606 39.901471 13.970324 -0.214789 -0.949970 0.226765 0 0
    0 51.820738 40.172977 14.020564 -0.073719 -0.995493 0.059653 0 0
    0 53.883462 35.505426 14.131853 -0.031418 -0.997962 0.055540 0 0
  phy
    0 51.820738 40.172977 14.020564 -0.073719 -0.995493 0.059653 0 0
    0 44.169689 43.508124 14.199220 -0.146880 -0.988815 0.025890 0 0
    0 53.883462 35.505426 14.131853 -0.031418 -0.997962 0.055540 0 0
  phy
    0 44.169689 43.508124 14.199220 -0.146880 -0.988815 0.025890 0 0
    0 16.652280 26.538729 16.067350 -0.057524 -0.998128 0.020774 0 0
    0 53.883462 35.505426 14.131853 -0.031418 -0.997962 0.055540 0 0
  phy
    0 16.652280 26.538729 16.067350 -0.057524 -0.998128 0.020774 0 0
    0 -3.972692 -29.807504 19.313557 -0.001438 -0.999370 0.035463 0 0
    0 53.883462 35.505426 14.131853 -0.031418 -0.997962 0.055540 0 0
  phy
    0 45.356638 43.643384 14.040170 -0.683875 -0.716701 0.136581 0 0
    0 44.169689 43.508124 14.199220 -0.146880 -0.988815 0.025890 0 0
    0 51.820738 40.172977 14.020564 -0.073719 -0.995493 0.059653 0 0
  phy
    0 52.446606 39.901471 13.970324 -0.214789 -0.949970 0.226765 0 0
    0 101.983566 -1.910249 11.014131 -0.100310 -0.980921 0.166529 0 0
    0 101.513450 -0.352484 10.833017 -0.305980 -0.900158 0.309988 0 0
  phy
    0 -21.197251 45.908436 15.147581 -0.171042 -0.985138 0.015765 0 0
    0 44.169689 43.508124 14.199220 -0.146880 -0.988815 0.025890 0 0
    0 -11.160580 48.240752 12.859528 -0.771413 -0.635727 0.027817 0 0
  phy
    0 44.169689 43.508124 14.199220 -0.146880 -0.988815 0.025890 0 0
    0 45.356638 43.643384 14.040170 -0.683875 -0.716701 0.136581 0 0
    0 -11.160580 48.240752 12.859528 -0.771413 -0.635727 0.027817 0 0
  phy
    0 45.271746 47.800410 9.897337 -0.822352 -0.547415 0.155156 0 0
    0 -11.160580 48.240752 12.859528 -0.771413 -0.635727 0.027817 0 0
    0 45.356638 43.643384 14.040170 -0.683875 -0.716701 0.136581 0 0
  phy
    0 45.480803 48.886171 5.585340 -0.955190 -0.063084 0.289192 0 0
    0 44.790835 47.782350 2.298543 -0.884958 0.464607 0.031461 0 0
    0 42.626614 49.301179 5.998837 -0.998013 -0.061727 0.012614 0 0
  phy
    0 44.790835 47.782350 2.298543 -0.884958 0.464607 0.031461 0 0
    0 -14.655496 49.204071 2.918957 -0.965234 0.261388 0.000498 0 0
    0 42.626614 49.301179 5.998837 -0.998013 -0.061727 0.012614 0 0
  phy
    0 118.047816 -7.133160 1.549444 -0.160903 0.607595 0.777778 0 0
    0 114.048635 -3.751094 -0.099648 -0.351678 0.825544 0.441361 0 0
    0 117.904032 -5.394342 2.117260 -0.560316 0.482749 0.673052 0 0
  phy
    0 114.048635 -3.751094 -0.099648 -0.351678 0.825544 0.441361 0 0
    0 118.047816 -7.133160 1.549444 -0.160903 0.607595 0.777778 0 0
    0 114.101650 -9.324945 -1.590027 -0.046536 0.994255 0.096395 0 0
  phy
    0 118.047816 -7.133160 1.549444 -0.160903 0.607595 0.777778 0 0
    0 117.140342 -4.917655 5.065437 -0.269890 -0.351874 0.896295 0 0
    0 117.405268 -7.646816 3.751319 0.045876 -0.278443 0.959357 0 0
  phy
    0 117.405268 -7.646816 3.751319 0.045876 -0.278443 0.959357 0 0
    0 117.994688 -8.964126 1.455142 0.410560 0.411882 0.813507 0 0
    0 118.047816 -7.133160 1.549444 -0.160903 0.607595 0.777778 0 0
  phy
    0 118.047816 -7.133160 1.549444 -0.160903 0.607595 0.777778 0 0
    0 117.994688 -8.964126 1.455142 0.410560 0.411882 0.813507 0 0
    0 114.101650 -9.324945 -1.590027 -0.046536 0.994255 0.096395 0 0
  phy
    0 118.047816 -7.133160 1.549444 -0.160903 0.607595 0.777778 0 0
    0 117.904032 -5.394342 2.117260 -0.560316 0.482749 0.673052 0 0
    0 117.140342 -4.917655 5.065437 -0.269890 -0.351874 0.896295 0 0
  phy
    0 117.140342 -4.917655 5.065437 -0.269890 -0.351874 0.896295 0 0
    0 117.059805 -10.609195 4.380857 0.403779 -0.377582 0.833303 0 0
    0 117.405268 -7.646816 3.751319 0.045876 -0.278443 0.959357 0 0
  phy
    0 117.405268 -7.646816 3.751319 0.045876 -0.278443 0.959357 0 0
    0 117.059805 -10.609195 4.380857 0.403779 -0.377582 0.833303 0 0
    0 117.994688 -8.964126 1.455142 0.410560 0.411882 0.813507 0 0
  phy
    0 116.329325 -6.568976 7.182895 -0.198632 -0.629291 0.751358 0 0
    0 117.059805 -10.609195 4.380857 0.403779 -0.377582 0.833303 0 0
    0 117.140342 -4.917655 5.065437 -0.269890 -0.351874 0.896295 0 0
  phy
    0 117.140342 -4.917655 5.065437 -0.269890 -0.351874 0.896295 0 0
    0 113.694198 0.129760 5.313008 -0.438648 -0.787898 0.432209 0 0
    0 116.329325 -6.568976 7.182895 -0.198632 -0.629291 0.751358 0 0
  phy
    0 113.694198 0.129760 5.313008 -0.438648 -0.787898 0.432209 0 0
    0 114.472607 -6.339531 8.197075 -0.034337 -0.957621 0.285976 0 0
    0 116.329325 -6.568976 7.182895 -0.198632 -0.629291 0.751358 0 0
  phy
    0 113.694198 0.129760 5.313008 -0.438648 -0.787898 0.432209 0 0
    0 113.696001 0.910721 4.569076 -0.689238 -0.087853 0.719189 0 0
    0 75.310929 37.197053 5.136803 -0.535582 -0.676460 0.505524 0 0
  phy
    0 114.048635 -3.751094 -0.099648 -0.351678 0.825544 0.441361 0 0
    0 81.210089 33.594600 -0.795321 -0.263234 0.920276 0.289481 0 0
    0 117.904032 -5.394342 2.117260 -0.560316 0.482749 0.673052 0 0
  phy
    0 81.210089 33.594600 -0.795321 -0.263234 0.920276 0.289481 0 0
    0 114.048635 -3.751094 -0.099648 -0.351678 0.825544 0.441361 0 0
    0 114.101650 -9.324945 -1.590027 -0.046536 0.994255 0.096395 0 0
  phy
    0 103.284336 -12.446623 -1.947122 0.002909 0.999911 0.013055 0 0
    0 21.805538 -43.433191 -2.170557 0.080940 0.996616 0.014308 0 0
    0 49.754109 5.533841 -2.484199 0.001239 0.999994 0.003364 0 0
  phy
    0 49.754109 5.533841 -2.484199 0.001239 0.999994 0.003364 0 0
    0 21.805538 -43.433191 -2.170557 0.080940 0.996616 0.014308 0 0
    0 -27.121615 -37.075966 -2.558877 0.006886 0.999976 0.000189 0 0
  phy
    0 92.893585 -23.065702 -1.740418 0.195219 0.977081 0.084868 0 0
    0 103.284336 -12.446623 -1.947122 0.002909 0.999911 0.013055 0 0
    0 114.101650 -9.324945 -1.590027 -0.046536 0.994255 0.096395 0 0
  phy
    0 103.284336 -12.446623 -1.947122 0.002909 0.999911 0.013055 0 0
    0 92.893585 -23.065702 -1.740418 0.195219 0.977081 0.084868 0 0
    0 21.805538 -43.433191 -2.170557 0.080940 0.996616 0.014308 0 0
  phy
    0 106.510787 -21.082313 0.844473 0.622171 0.688782 0.372133 0 0
    0 93.026349 -26.285817 -0.188520 0.595902 0.783286 0.177098 0 0
    0 92.893585 -23.065702 -1.740418 0.195219 0.977081 0.084868 0 0
  phy
    0 106.510787 -21.082313 0.844473 0.622171 0.688782 0.372133 0 0
    0 93.580381 -26.290586 0.312910 0.940083 0.113346 0.321554 0 0
    0 93.026349 -26.285817 -0.188520 0.595902 0.783286 0.177098 0 0
  phy
    0 92.893585 -23.065702 -1.740418 0.195219 0.977081 0.084868 0 0
    0 93.026349 -26.285817 -0.188520 0.595902 0.783286 0.177098 0 0
    0 21.805538 -43.433191 -2.170557 0.080940 0.996616 0.014308 0 0
  phy
    0 -31.689021 41.764843 -2.248527 -0.018026 0.999820 -0.005903 0 0
    0 -45.796342 -35.845642 -2.532217 0.014422 0.999222 -0.036707 0 0
    0 -114.891998 47.569688 -0.786201 -0.091003 0.995609 -0.021943 0 0
  phy
    0 21.805538 -43.433191 -2.170557 0.080940 0.996616 0.014308 0 0
    0 -48.546894 -42.589546 -1.515866 0.324447 0.945300 -0.033796 0 0
    0 -27.121615 -37.075966 -2.558877 0.006886 0.999976 0.000189 0 0
  phy
    0 -27.121615 -37.075966 -2.558877 0.006886 0.999976 0.000189 0 0
    0 -48.546894 -42.589546 -1.515866 0.324447 0.945300 -0.033796 0 0
    0 -45.796342 -35.845642 -2.532217 0.014422 0.999222 -0.036707 0 0
  phy
    0 33.634216 -43.881634 10.910335 0.923111 -0.244786 0.296558 0 0
    0 33.996762 -42.751793 12.337767 0.530632 -0.832174 0.160983 0 0
    0 20.648926 -47.643462 9.031760 0.745674 -0.660786 0.085629 0 0
  phy
    0 -73.910210 -41.604831 6.618049 0.478981 0.090897 -0.873106 0 0
    0 -70.796707 -43.309786 4.586591 0.723734 0.475984 -0.499648 0 0
    0 -68.763551 -47.910326 12.215167 0.844476 0.012827 -0.535439 0 0
  phy
    0 -70.284671 -40.780118 2.320320 0.321533 0.793914 -0.516060 0 0
    0 -113.588919 35.242096 -0.200046 0.208045 0.906979 -0.366205 0 0
    0 -66.708026 -40.772881 0.112282 0.137884 0.975216 -0.173036 0 0
  phy
    0 17.760186 -48.147496 8.413848 0.971022 -0.238180 0.019674 0 0
    0 -9.797014 -49.624776 3.079641 0.991979 -0.126398 0.001083 0 0
    0 -8.499266 -49.623429 2.831324 0.994615 0.084227 0.060391 0 0
  phy
    0 -53.881548 -42.797412 -0.540797 0.573999 0.808487 -0.129898 0 0
    0 -48.546894 -42.589546 -1.515866 0.324447 0.945300 -0.033796 0 0
    0 -65.579752 -45.634780 3.382794 0.831391 0.539104 -0.134746 0 0
  phy
    0 -48.546894 -42.589546 -1.515866 0.324447 0.945300 -0.033796 0 0
    0 -44.083408 -45.655431 0.854871 0.703877 0.706111 -0.077235 0 0
    0 -65.579752 -45.634780 3.382794 0.831391 0.539104 -0.134746 0 0
  phy
    0 -48.546894 -42.589546 -1.515866 0.324447 0.945300 -0.033796 0 0
    0 -53.881548 -42.797412 -0.540797 0.573999 0.808487 -0.129898 0 0
    0 -66.708026 -40.772881 0.112282 0.137884 0.975216 -0.173036 0 0
  phy
    0 -45.796342 -35.845642 -2.532217 0.014422 0.999222 -0.036707 0 0
    0 -48.546894 -42.589546 -1.515866 0.324447 0.945300 -0.033796 0 0
    0 -66.708026 -40.772881 0.112282 0.137884 0.975216 -0.173036 0 0
  phy
    0 35.232916 -41.971784 12.414887 0.220185 -0.969990 0.103144 0 0
    0 -3.972692 -29.807504 19.313557 -0.001438 -0.999370 0.035463 0 0
    0 -0.387627 -38.823668 16.781547 0.287283 -0.954708 0.077462 0 0
  phy
    0 -0.387627 -38.823668 16.781547 0.287283 -0.954708 0.077462 0 0
    0 33.996762 -42.751793 12.337767 0.530632 -0.832174 0.160983 0 0
    0 35.232916 -41.971784 12.414887 0.220185 -0.969990 0.103144 0 0
  phy
    0 95.255844 -11.716107 12.764640 0.221097 -0.968979 0.110434 0 0
    0 -3.972692 -29.807504 19.313557 -0.001438 -0.999370 0.035463 0 0
    0 35.232916 -41.971784 12.414887 0.220185 -0.969990 0.103144 0 0
  phy
    0 52.446606 39.901471 13.970324 -0.214789 -0.949970 0.226765 0 0
    0 96.157517 -10.614714 12.776185 -0.030370 -0.996543 0.077323 0 0
    0 101.983566 -1.910249 11.014131 -0.100310 -0.980921 0.166529 0 0
  phy
    0 45.480803 48.886171 5.585340 -0.955190 -0.063084 0.289192 0 0
    0 45.271746 47.800410 9.897337 -0.822352 -0.547415 0.155156 0 0
    0 53.493470 45.784928 6.354775 -0.900046 -0.258918 0.350541 0 0
  phy
    0 45.271746 47.800410 9.897337 -0.822352 -0.547415 0.155156 0 0
    0 45.480803 48.886171 5.585340 -0.955190 -0.063084 0.289192 0 0
    0 42.626614 49.301179 5.998837 -0.998013 -0.061727 0.012614 0 0
  phy
    0 45.271746 47.800410 9.897337 -0.822352 -0.547415 0.155156 0 0
    0 42.626614 49.301179 5.998837 -0.998013 -0.061727 0.012614 0 0
    0 -11.160580 48.240752 12.859528 -0.771413 -0.635727 0.027817 0 0
  phy
    0 -101.308691 49.795114 11.858978 -0.998728 -0.048381 -0.014178 0 0
    0 -101.565338 47.128294 15.298194 -0.439352 -0.898257 -0.010195 0 0
    0 -22.950585 48.615979 12.507120 -0.919457 -0.393022 0.011491 0 0
  phy
    0 -22.950585 48.615979 12.507120 -0.919457 -0.393022 0.011491 0 0
    0 -101.565338 47.128294 15.298194 -0.439352 -0.898257 -0.010195 0 0
    0 -11.160580 48.240752 12.859528 -0.771413 -0.635727 0.027817 0 0
  phy
    0 42.626614 49.301179 5.998837 -0.998013 -0.061727 0.012614 0 0
    0 -22.950585 48.615979 12.507120 -0.919457 -0.393022 0.011491 0 0
    0 -11.160580 48.240752 12.859528 -0.771413 -0.635727 0.027817 0 0
  phy
    0 -22.950585 48.615979 12.507120 -0.919457 -0.393022 0.011491 0 0
    0 42.626614 49.301179 5.998837 -0.998013 -0.061727 0.012614 0 0
    0 -101.308691 49.795114 11.858978 -0.998728 -0.048381 -0.014178 0 0
  phy
    0 42.626614 49.301179 5.998837 -0.998013 -0.061727 0.012614 0 0
    0 -14.655496 49.204071 2.918957 -0.965234 0.261388 0.000498 0 0
    0 -101.308691 49.795114 11.858978 -0.998728 -0.048381 -0.014178 0 0
  phy
    0 117.904032 -5.394342 2.117260 -0.560316 0.482749 0.673052 0 0
    0 113.696001 0.910721 4.569076 -0.689238 -0.087853 0.719189 0 0
    0 117.140342 -4.917655 5.065437 -0.269890 -0.351874 0.896295 0 0
  phy
    0 117.140342 -4.917655 5.065437 -0.269890 -0.351874 0.896295 0 0
    0 113.696001 0.910721 4.569076 -0.689238 -0.087853 0.719189 0 0
    0 113.694198 0.129760 5.313008 -0.438648 -0.787898 0.432209 0 0
  phy
    0 81.210089 33.594600 -0.795321 -0.263234 0.920276 0.289481 0 0
    0 113.696001 0.910721 4.569076 -0.689238 -0.087853 0.719189 0 0
    0 117.904032 -5.394342 2.117260 -0.560316 0.482749 0.673052 0 0
  phy
    0 20.648926 -47.643462 9.031760 0.745674 -0.660786 0.085629 0 0
    0 -60.590102 -46.586033 18.542057 0.836075 -0.547099 0.040748 0 0
    0 17.760186 -48.147496 8.413848 0.971022 -0.238180 0.019674 0 0
  phy
    0 20.648926 -47.643462 9.031760 0.745674 -0.660786 0.085629 0 0
    0 33.996762 -42.751793 12.337767 0.530632 -0.832174 0.160983 0 0
    0 -60.590102 -46.586033 18.542057 0.836075 -0.547099 0.040748 0 0
  phy
    0 -45.796342 -35.845642 -2.532217 0.014422 0.999222 -0.036707 0 0
    0 -113.588919 35.242096 -0.200046 0.208045 0.906979 -0.366205 0 0
    0 -114.891998 47.569688 -0.786201 -0.091003 0.995609 -0.021943 0 0
  phy
    0 -113.588919 35.242096 -0.200046 0.208045 0.906979 -0.366205 0 0
    0 -45.796342 -35.845642 -2.532217 0.014422 0.999222 -0.036707 0 0
    0 -66.708026 -40.772881 0.112282 0.137884 0.975216 -0.173036 0 0
  phy
    0 -65.064618 -48.061731 9.108688 0.939524 0.331631 -0.085533 0 0
    0 -16.914428 -49.083444 2.165967 0.948417 0.310380 -0.064575 0 0
    0 -65.881962 -48.540746 11.693446 0.985998 -0.166754 -0.000533 0 0
  phy
    0 -16.914428 -49.083444 2.165967 0.948417 0.310380 -0.064575 0 0
    0 -9.797014 -49.624776 3.079641 0.991979 -0.126398 0.001083 0 0
    0 -65.881962 -48.540746 11.693446 0.985998 -0.166754 -0.000533 0 0
  phy
    0 -53.881548 -42.797412 -0.540797 0.573999 0.808487 -0.129898 0 0
    0 -65.579752 -45.634780 3.382794 0.831391 0.539104 -0.134746 0 0
    0 -66.708026 -40.772881 0.112282 0.137884 0.975216 -0.173036 0 0
  phy
    0 -61.840448 -45.343309 19.276536 0.312450 -0.921714 -0.229821 0 0
    0 -69.346315 -46.648341 12.999407 0.352044 -0.594815 -0.722676 0 0
    0 -68.763551 -47.910326 12.215167 0.844476 0.012827 -0.535439 0 0
  phy
    0 -68.763551 -47.910326 12.215167 0.844476 0.012827 -0.535439 0 0
    0 -60.590102 -46.586033 18.542057 0.836075 -0.547099 0.040748 0 0
    0 -61.840448 -45.343309 19.276536 0.312450 -0.921714 -0.229821 0 0
  phy
    0 -61.840448 -45.343309 19.276536 0.312450 -0.921714 -0.229821 0 0
    0 -113.565190 43.787933 11.879027 0.256101 -0.771201 -0.582804 0 0
    0 -69.346315 -46.648341 12.999407 0.352044 -0.594815 -0.722676 0 0
  phy
    0 -61.840448 -45.343309 19.276536 0.312450 -0.921714 -0.229821 0 0
    0 -61.690376 -43.600638 19.582238 0.011197 -0.997109 -0.075161 0 0
    0 -113.565190 43.787933 11.879027 0.256101 -0.771201 -0.582804 0 0
  phy
    0 -0.387627 -38.823668 16.781547 0.287283 -0.954708 0.077462 0 0
    0 -3.972692 -29.807504 19.313557 -0.001438 -0.999370 0.035463 0 0
    0 -61.840448 -45.343309 19.276536 0.312450 -0.921714 -0.229821 0 0
  phy
    0 -3.972692 -29.807504 19.313557 -0.001438 -0.999370 0.035463 0 0
    0 -61.690376 -43.600638 19.582238 0.011197 -0.997109 -0.075161 0 0
    0 -61.840448 -45.343309 19.276536 0.312450 -0.921714 -0.229821 0 0
  phy
    0 -61.840448 -45.343309 19.276536 0.312450 -0.921714 -0.229821 0 0
    0 33.996762 -42.751793 12.337767 0.530632 -0.832174 0.160983 0 0
    0 -0.387627 -38.823668 16.781547 0.287283 -0.954708 0.077462 0 0
  phy
    0 -60.590102 -46.586033 18.542057 0.836075 -0.547099 0.040748 0 0
    0 33.996762 -42.751793 12.337767 0.530632 -0.832174 0.160983 0 0
    0 -61.840448 -45.343309 19.276536 0.312450 -0.921714 -0.229821 0 0
  phy
    0 96.157517 -10.614714 12.776185 -0.030370 -0.996543 0.077323 0 0
    0 -3.972692 -29.807504 19.313557 -0.001438 -0.999370 0.035463 0 0
    0 95.255844 -11.716107 12.764640 0.221097 -0.968979 0.110434 0 0
  phy
    0 53.883462 35.505426 14.131853 -0.031418 -0.997962 0.055540 0 0
    0 -3.972692 -29.807504 19.313557 -0.001438 -0.999370 0.035463 0 0
    0 96.157517 -10.614714 12.776185 -0.030370 -0.996543 0.077323 0 0
  phy
    0 96.157517 -10.614714 12.776185 -0.030370 -0.996543 0.077323 0 0
    0 114.472607 -6.339531 8.197075 -0.034337 -0.957621 0.285976 0 0
    0 101.983566 -1.910249 11.014131 -0.100310 -0.980921 0.166529 0 0
  phy
    0 -109.779628 46.054134 13.401114 0.038530 -0.967790 -0.248793 0 0
    0 -114.315664 46.505140 10.958694 -0.813523 -0.403400 -0.418866 0 0
    0 -112.336236 45.899566 12.415333 -0.170842 -0.874522 -0.453899 0 0
  phy
    0 -112.336236 45.899566 12.415333 -0.170842 -0.874522 -0.453899 0 0
    0 -113.565190 43.787933 11.879027 0.256101 -0.771201 -0.582804 0 0
    0 -109.779628 46.054134 13.401114 0.038530 -0.967790 -0.248793 0 0
  phy
    0 -114.315664 46.505140 10.958694 -0.813523 -0.403400 -0.418866 0 0
    0 -113.565190 43.787933 11.879027 0.256101 -0.771201 -0.582804 0 0
    0 -112.336236 45.899566 12.415333 -0.170842 -0.874522 -0.453899 0 0
  phy
    0 -73.092453 -16.634783 18.750753 -0.005366 -0.997855 -0.065242 0 0
    0 -91.417793 36.947277 17.109116 -0.051226 -0.998665 -0.006632 0 0
    0 -109.779628 46.054134 13.401114 0.038530 -0.967790 -0.248793 0 0
  phy
    0 -91.417793 36.947277 17.109116 -0.051226 -0.998665 -0.006632 0 0
    0 -101.565338 47.128294 15.298194 -0.439352 -0.898257 -0.010195 0 0
    0 -109.779628 46.054134 13.401114 0.038530 -0.967790 -0.248793 0 0
  phy
    0 -102.675111 48.190815 13.786047 -0.776590 -0.583863 -0.236669 0 0
    0 -101.565338 47.128294 15.298194 -0.439352 -0.898257 -0.010195 0 0
    0 -101.308691 49.795114 11.858978 -0.998728 -0.048381 -0.014178 0 0
  phy
    0 -21.197251 45.908436 15.147581 -0.171042 -0.985138 0.015765 0 0
    0 -11.160580 48.240752 12.859528 -0.771413 -0.635727 0.027817 0 0
    0 -101.565338 47.128294 15.298194 -0.439352 -0.898257 -0.010195 0 0
  phy
    0 -101.565338 47.128294 15.298194 -0.439352 -0.898257 -0.010195 0 0
    0 -91.417793 36.947277 17.109116 -0.051226 -0.998665 -0.006632 0 0
    0 -21.197251 45.908436 15.147581 -0.171042 -0.985138 0.015765 0 0
  phy
    0 -109.779628 46.054134 13.401114 0.038530 -0.967790 -0.248793 0 0
    0 -101.565338 47.128294 15.298194 -0.439352 -0.898257 -0.010195 0 0
    0 -102.675111 48.190815 13.786047 -0.776590 -0.583863 -0.236669 0 0
  phy
    0 -109.779628 46.054134 13.401114 0.038530 -0.967790 -0.248793 0 0
    0 -113.565190 43.787933 11.879027 0.256101 -0.771201 -0.582804 0 0
    0 -73.092453 -16.634783 18.750753 -0.005366 -0.997855 -0.065242 0 0
  phy
    0 -113.565190 43.787933 11.879027 0.256101 -0.771201 -0.582804 0 0
    0 -61.690376 -43.600638 19.582238 0.011197 -0.997109 -0.075161 0 0
    0 -73.092453 -16.634783 18.750753 -0.005366 -0.997855 -0.065242 0 0
  phy
    0 -3.972692 -29.807504 19.313557 -0.001438 -0.999370 0.035463 0 0
    0 -91.417793 36.947277 17.109116 -0.051226 -0.998665 -0.006632 0 0
    0 -73.092453 -16.634783 18.750753 -0.005366 -0.997855 -0.065242 0 0
  phy
    0 -73.092453 -16.634783 18.750753 -0.005366 -0.997855 -0.065242 0 0
    0 -61.690376 -43.600638 19.582238 0.011197 -0.997109 -0.075161 0 0
    0 -3.972692 -29.807504 19.313557 -0.001438 -0.999370 0.035463 0 0
  phy
    0 16.652280 26.538729 16.067350 -0.057524 -0.998128 0.020774 0 0
    0 -21.197251 45.908436 15.147581 -0.171042 -0.985138 0.015765 0 0
    0 -91.417793 36.947277 17.109116 -0.051226 -0.998665 -0.006632 0 0
  phy
    0 16.652280 26.538729 16.067350 -0.057524 -0.998128 0.020774 0 0
    0 44.169689 43.508124 14.199220 -0.146880 -0.988815 0.025890 0 0
    0 -21.197251 45.908436 15.147581 -0.171042 -0.985138 0.015765 0 0
  phy
    0 -116.329043 47.781336 3.241817 -0.960532 -0.129503 -0.246187 0 0
    0 -114.315664 46.505140 10.958694 -0.813523 -0.403400 -0.418866 0 0
    0 -101.308691 49.795114 11.858978 -0.998728 -0.048381 -0.014178 0 0
  phy
    0 -70.796707 -43.309786 4.586591 0.723734 0.475984 -0.499648 0 0
    0 -65.579752 -45.634780 3.382794 0.831391 0.539104 -0.134746 0 0
    0 -68.763551 -47.910326 12.215167 0.844476 0.012827 -0.535439 0 0
  phy
    0 -68.763551 -47.910326 12.215167 0.844476 0.012827 -0.535439 0 0
    0 -65.579752 -45.634780 3.382794 0.831391 0.539104 -0.134746 0 0
    0 -65.064618 -48.061731 9.108688 0.939524 0.331631 -0.085533 0 0
  phy
    0 -65.064618 -48.061731 9.108688 0.939524 0.331631 -0.085533 0 0
    0 -65.881962 -48.540746 11.693446 0.985998 -0.166754 -0.000533 0 0
    0 -68.763551 -47.910326 12.215167 0.844476 0.012827 -0.535439 0 0
  phy
    0 -68.763551 -47.910326 12.215167 0.844476 0.012827 -0.535439 0 0
    0 -65.881962 -48.540746 11.693446 0.985998 -0.166754 -0.000533 0 0
    0 -60.590102 -46.586033 18.542057 0.836075 -0.547099 0.040748 0 0
  phy
    0 -60.590102 -46.586033 18.542057 0.836075 -0.547099 0.040748 0 0
    0 -65.881962 -48.540746 11.693446 0.985998 -0.166754 -0.000533 0 0
    0 17.760186 -48.147496 8.413848 0.971022 -0.238180 0.019674 0 0
  phy
    0 -65.881962 -48.540746 11.693446 0.985998 -0.166754 -0.000533 0 0
    0 -9.797014 -49.624776 3.079641 0.991979 -0.126398 0.001083 0 0
    0 17.760186 -48.147496 8.413848 0.971022 -0.238180 0.019674 0 0
  phy
    0 -65.579752 -45.634780 3.382794 0.831391 0.539104 -0.134746 0 0
    0 -70.796707 -43.309786 4.586591 0.723734 0.475984 -0.499648 0 0
    0 -66.708026 -40.772881 0.112282 0.137884 0.975216 -0.173036 0 0
  phy
    0 16.652280 26.538729 16.067350 -0.057524 -0.998128 0.020774 0 0
    0 -91.417793 36.947277 17.109116 -0.051226 -0.998665 -0.006632 0 0
    0 -3.972692 -29.807504 19.313557 -0.001438 -0.999370 0.035463 0 0
  phy
    0 -109.779628 46.054134 13.401114 0.038530 -0.967790 -0.248793 0 0
    0 -102.675111 48.190815 13.786047 -0.776590 -0.583863 -0.236669 0 0
    0 -114.315664 46.505140 10.958694 -0.813523 -0.403400 -0.418866 0 0
  phy
    0 -114.315664 46.505140 10.958694 -0.813523 -0.403400 -0.418866 0 0
    0 -102.675111 48.190815 13.786047 -0.776590 -0.583863 -0.236669 0 0
    0 -101.308691 49.795114 11.858978 -0.998728 -0.048381 -0.014178 0 0
end
