version 1
nodes
  0 "airliner_fuselage_secondary_4" -1
  1 "baked_fuselage_debris_secondary_373" 0
  2 "baked_fuselage_debris_secondary_374" 0
  3 "baked_fuselage_debris_secondary_375" 0
  4 "baked_fuselage_debris_secondary_376" 0
  5 "baked_fuselage_debris_secondary_377" 0
  6 "baked_fuselage_debris_secondary_378" 0
  7 "baked_fuselage_debris_secondary_379" 0
  8 "baked_fuselage_debris_secondary_380" 0
  9 "baked_fuselage_debris_secondary_381" 0
  10 "baked_fuselage_debris_secondary_382" 0
  11 "baked_fuselage_debris_secondary_383" 0
  12 "baked_fuselage_debris_secondary_384" 0
  13 "baked_fuselage_debris_secondary_385" 0
  14 "baked_fuselage_debris_secondary_386" 0
  15 "baked_fuselage_debris_secondary_387" 0
  16 "baked_fuselage_debris_secondary_388" 0
  17 "baked_fuselage_debris_secondary_389" 0
  18 "baked_fuselage_debris_secondary_390" 0
  19 "baked_fuselage_debris_secondary_391" 0
  20 "baked_fuselage_debris_secondary_392" 0
  21 "baked_fuselage_debris_secondary_393" 0
  22 "baked_fuselage_debris_secondary_394" 0
  23 "baked_fuselage_debris_secondary_395" 0
  24 "baked_fuselage_debris_secondary_396" 0
  25 "baked_fuselage_debris_secondary_397" 0
  26 "baked_fuselage_debris_secondary_398" 0
  27 "baked_fuselage_debris_secondary_399" 0
  28 "baked_fuselage_debris_secondary_400" 0
  29 "baked_fuselage_debris_secondary_401" 0
  30 "baked_fuselage_debris_secondary_402" 0
  31 "baked_fuselage_debris_secondary_403" 0
  32 "baked_fuselage_debris_secondary_404" 0
  33 "baked_fuselage_debris_secondary_405" 0
  34 "baked_fuselage_debris_secondary_406" 0
  35 "baked_fuselage_debris_secondary_407" 0
  36 "baked_fuselage_debris_secondary_408" 0
  37 "baked_fuselage_debris_secondary_409" 0
  38 "baked_fuselage_debris_secondary_410" 0
  39 "baked_fuselage_debris_secondary_411" 0
  40 "baked_fuselage_debris_secondary_412" 0
  41 "baked_fuselage_debris_secondary_413" 0
  42 "baked_fuselage_debris_secondary_414" 0
  43 "baked_fuselage_debris_secondary_415" 0
  44 "baked_fuselage_debris_secondary_416" 0
  45 "baked_fuselage_debris_secondary_417" 0
  46 "baked_fuselage_debris_secondary_418" 0
  47 "baked_fuselage_debris_secondary_419" 0
  48 "baked_fuselage_debris_secondary_420" 0
  49 "baked_fuselage_debris_secondary_421" 0
  50 "baked_fuselage_debris_secondary_422" 0
  51 "baked_fuselage_debris_secondary_423" 0
  52 "baked_fuselage_debris_secondary_424" 0
  53 "baked_fuselage_debris_secondary_425" 0
  54 "baked_fuselage_debris_secondary_426" 0
  55 "baked_fuselage_debris_secondary_427" 0
  56 "baked_fuselage_debris_secondary_428" 0
  57 "baked_fuselage_debris_secondary_429" 0
  58 "baked_fuselage_debris_secondary_430" 0
  59 "baked_fuselage_debris_secondary_431" 0
  60 "baked_fuselage_debris_secondary_432" 0
  61 "baked_fuselage_debris_secondary_433" 0
  62 "baked_fuselage_debris_secondary_434" 0
  63 "baked_fuselage_debris_secondary_435" 0
  64 "baked_fuselage_debris_secondary_436" 0
  65 "baked_fuselage_debris_secondary_437" 0
  66 "baked_fuselage_debris_secondary_438" 0
  67 "baked_fuselage_debris_secondary_439" 0
  68 "baked_fuselage_debris_secondary_440" 0
  69 "baked_fuselage_debris_secondary_441" 0
  70 "baked_fuselage_debris_secondary_442" 0
  71 "baked_fuselage_debris_secondary_443" 0
  72 "baked_fuselage_debris_secondary_444" 0
  73 "baked_fuselage_debris_secondary_445" 0
  74 "baked_fuselage_debris_secondary_446" 0
  75 "baked_fuselage_debris_secondary_447" 0
  76 "baked_fuselage_debris_secondary_448" 0
  77 "baked_fuselage_debris_secondary_449" 0
  78 "baked_fuselage_debris_secondary_450" 0
  79 "baked_fuselage_debris_secondary_451" 0
  80 "baked_fuselage_debris_secondary_452" 0
  81 "baked_fuselage_debris_secondary_453" 0
  82 "baked_fuselage_debris_secondary_454" 0
  83 "baked_fuselage_debris_secondary_455" 0
  84 "baked_fuselage_debris_secondary_456" 0
  85 "baked_fuselage_debris_secondary_457" 0
  86 "baked_fuselage_debris_secondary_458" 0
  87 "baked_fuselage_debris_secondary_459" 0
  88 "baked_fuselage_debris_secondary_460" 0
  89 "baked_fuselage_debris_secondary_461" 0
  90 "baked_fuselage_debris_secondary_462" 0
  91 "baked_fuselage_debris_secondary_463" 0
  92 "baked_fuselage_debris_secondary_464" 0
  93 "baked_fuselage_debris_secondary_465" 0
  94 "baked_fuselage_debris_secondary_466" 0
  95 "baked_fuselage_debris_secondary_467" 0
  96 "baked_fuselage_debris_secondary_468" 0
  97 "baked_fuselage_debris_secondary_469" 0
  98 "baked_fuselage_debris_secondary_470" 0
  99 "baked_fuselage_debris_secondary_471" 0
  100 "baked_fuselage_debris_secondary_472" 0
  101 "baked_fuselage_debris_secondary_473" 0
  102 "baked_fuselage_debris_secondary_474" 0
  103 "baked_fuselage_debris_secondary_475" 0
  104 "baked_fuselage_debris_secondary_476" 0
  105 "baked_fuselage_debris_secondary_477" 0
  106 "baked_fuselage_debris_secondary_478" 0
  107 "baked_fuselage_debris_secondary_479" 0
  108 "baked_fuselage_debris_secondary_480" 0
  109 "baked_fuselage_debris_secondary_481" 0
  110 "baked_fuselage_debris_secondary_482" 0
  111 "baked_fuselage_debris_secondary_483" 0
  112 "baked_fuselage_debris_secondary_484" 0
  113 "baked_fuselage_debris_secondary_485" 0
  114 "baked_fuselage_debris_secondary_486" 0
  115 "baked_fuselage_debris_secondary_487" 0
  116 "baked_fuselage_debris_secondary_488" 0
  117 "baked_fuselage_debris_secondary_489" 0
  118 "baked_fuselage_debris_secondary_490" 0
  119 "baked_fuselage_debris_secondary_491" 0
  120 "baked_fuselage_debris_secondary_492" 0
  121 "baked_fuselage_debris_secondary_493" 0
  122 "baked_fuselage_debris_secondary_494" 0
end
skeleton
  time 0
    0 -2580.000000 5280.000000 118.312500 1.570674 0.000183 -0.000183
    1 3871.829102 -40.739143 6308.412598 -2.178466 0.777509 -1.906190
    2 4070.000000 -118.875000 6080.000000 3.022805 -0.191560 -2.582579
    3 3958.000000 -48.843750 6248.000000 2.567800 -0.550894 0.735370
    4 5676.000000 -117.000000 5964.000000 -2.466411 -0.605699 2.408765
    5 4568.000000 -100.437500 7036.000000 -2.895881 -0.270862 2.590457
    6 5248.000000 -53.218750 6440.000000 -0.053117 -0.234288 0.091609
    7 4228.000000 -72.312500 6404.000000 -2.646636 0.465008 -0.381616
    8 4360.000000 -118.875000 5940.000000 -1.063545 0.961822 -1.143550
    9 4696.000000 -118.875000 5644.000000 3.085664 -0.496181 0.110892
    10 5268.000000 -39.468750 6692.000000 0.196098 -0.425371 2.751266
    11 3006.000000 -123.250000 8360.000000 2.969897 -0.864857 -2.913870
    12 3516.000000 2.251953 6768.000000 -1.544414 0.904909 -1.430689
    13 3392.000000 90.125000 6804.000000 -2.916060 1.035978 -2.607276
    14 3370.000000 55.437500 6816.000000 -2.894578 1.020243 -2.558713
    15 3469.954590 -117.819656 8181.709961 2.169607 -0.044102 -1.545349
    16 3458.000000 81.250000 6760.000000 -2.979756 0.982602 -2.660074
    17 3568.000000 23.890625 6580.000000 2.805082 0.377701 1.364651
    18 3440.000000 155.875000 6748.000000 -2.254073 0.631950 -1.600317
    19 3320.000000 -16.515625 6796.000000 -3.039898 1.006530 -2.797329
    20 3242.000000 -14.515625 6880.000000 -2.956741 1.001612 -2.634691
    21 3740.000000 -17.031250 6476.000000 -2.429717 0.855656 -2.565320
    22 3715.375488 -24.424377 6541.658203 1.089510 0.713167 0.984349
    23 3368.000000 54.593750 7404.000000 -0.025696 0.314438 -2.709859
    24 4184.000000 -89.437500 6100.000000 2.881142 0.123132 -2.859441
    25 3788.000000 -20.703125 6460.000000 -2.424236 0.851639 -2.559479
    26 3854.000000 -18.531250 6440.000000 -2.421296 0.847735 -2.549702
    27 3960.000000 -5.089844 6404.000000 -2.420913 0.851979 -2.549909
    28 3904.000000 -37.156250 6280.000000 -0.168096 0.147544 2.676576
    29 3738.000000 -18.296875 6440.000000 0.128522 1.508357 -2.643070
    30 3649.444336 6.781998 6552.375977 0.223936 1.087932 2.335034
    31 3804.000000 -22.656250 6360.000000 -1.182540 -0.497798 0.762180
    32 4108.000000 12.375000 7492.000000 0.012990 -0.197797 -0.813836
    33 4552.000000 -101.250000 6032.000000 -2.459204 0.198054 1.578069
    34 3886.000000 -35.437500 6968.000000 -2.936946 -0.201836 -1.230991
    35 3906.000000 85.062500 6428.000000 -2.235160 0.658127 -2.286177
    36 3632.000000 77.375000 6444.000000 0.698085 0.675485 -2.169404
    37 4188.000000 -13.000000 6316.000000 2.874860 0.126146 -2.858278
    38 4160.000000 -72.687500 6048.000000 2.874860 0.126146 -2.858278
    39 4464.000000 -108.750000 6136.000000 2.396806 0.198862 1.867834
    40 3848.000000 57.312500 6476.000000 -2.423324 0.853420 -2.548729
    41 3350.000000 5.320313 6800.000000 -2.953410 1.012337 -2.638866
    42 3580.000000 10.093750 6692.000000 1.546544 0.158595 1.585740
    43 3050.000000 -115.812500 6572.000000 -2.789439 1.084637 -2.671804
    44 4264.000000 -104.500000 6152.000000 -0.976025 -0.377831 2.729890
    45 3300.000000 -3.908203 6836.000000 -2.983017 1.039953 -2.680737
    46 3250.000000 -100.250000 7968.000000 1.940613 0.520705 2.321221
    47 3200.000000 127.062500 6876.000000 -2.914964 0.999265 -2.605647
    48 3465.374756 -116.645233 8172.363281 0.863221 0.198568 1.519599
    49 3954.000000 -88.625000 6516.000000 -1.480332 -0.767365 -1.816138
    50 3902.000000 36.500000 6444.000000 -2.430235 0.852749 -2.553855
    51 3720.000000 37.000000 6520.000000 2.630242 -0.455656 0.695909
    52 5508.000000 -106.875000 6068.000000 1.791766 1.359663 1.683951
    53 3930.000000 -82.125000 6556.000000 -0.148002 0.744739 -0.358786
    54 3531.680664 -106.884079 8167.288086 -0.696696 -0.225615 2.074734
    55 3412.000000 5.457031 6724.000000 -2.979918 0.985272 -2.664840
    56 3572.000000 -2.318359 6564.000000 0.191599 0.728647 0.641170
    57 4004.000000 -28.750000 7168.000000 1.339239 -0.178677 1.548142
    58 3394.000000 12.328125 7016.000000 0.972792 0.826535 1.527200
    59 4054.000000 29.000000 7964.000000 0.162593 0.045327 -0.318418
    60 3730.000000 -6.199219 6464.000000 0.643710 -0.897880 -3.097863
    61 4036.000000 -101.875000 6576.000000 -2.127270 0.533419 -2.024954
    62 5960.000000 -114.437500 6216.000000 2.333121 0.572759 2.047460
    63 3888.000000 52.000000 6452.000000 -2.428922 0.853875 -2.552885
    64 3758.000000 -8.109375 6484.000000 -2.442094 0.849973 -2.571555
    65 4456.073242 -108.021461 6356.045898 2.895010 -0.901231 -2.579363
    66 3914.000000 -72.875000 6652.000000 0.789452 0.370735 1.075263
    67 3480.000000 71.687500 6736.000000 -2.974924 0.983452 -2.658937
    68 3396.000000 78.187500 6800.000000 -2.915287 1.028155 -2.594645
    69 3506.000000 -6.851563 6704.000000 0.022803 -0.906007 -0.009471
    70 4036.000000 -117.812500 8576.000000 -1.001336 0.762082 -1.156642
    71 3812.000000 -19.656250 6456.000000 -2.421974 0.849935 -2.555180
    72 3616.000000 5.695313 6560.000000 2.710988 0.183394 2.218355
    73 4044.000000 -105.187500 6460.000000 0.097084 -0.004895 1.764781
    74 3214.000000 6.765625 6912.000000 -2.864331 0.997418 -2.515612
    75 4864.000000 -94.375000 5856.000000 -2.077495 0.773069 1.237455
    76 3542.891113 -17.362396 6400.232422 -0.577069 0.134310 2.013486
    77 3592.000000 90.625000 6500.000000 0.830531 -0.605416 2.757743
    78 3318.000000 138.500000 6800.000000 -2.256637 0.219677 -1.617191
    79 3708.000000 53.843750 6540.000000 -2.005437 0.456739 -2.273529
    80 3888.000000 -28.140625 6420.000000 -2.429537 0.849426 -2.551109
    81 3336.000000 -3.203125 6800.000000 -3.001695 1.033665 -2.740793
    82 3432.000000 29.468750 6748.000000 -2.982280 0.983352 -2.665831
    83 3700.000000 100.562500 6536.000000 -1.905732 0.043464 -1.834553
    84 3694.000000 83.312500 7704.000000 0.523440 1.372455 -2.932735
    85 3842.000000 -43.218750 6420.000000 -2.419823 0.851288 -2.551794
    86 4420.000000 -109.000000 6836.000000 2.845818 0.590077 2.275400
    87 4052.000000 -102.812500 6272.000000 2.143513 -0.365874 1.103788
    88 3852.000000 91.562500 6464.000000 -2.419422 0.851164 -2.543310
    89 3356.000000 -15.507813 6752.000000 -2.969279 0.981952 -2.692389
    90 6200.000000 -117.812500 5308.000000 -0.464966 0.524558 -0.784532
    91 3538.000000 -18.906250 6444.000000 1.207834 -0.395626 1.965097
    92 3270.000000 -14.593750 6856.000000 -2.981396 1.004883 -2.666010
    93 3404.000000 134.500000 6776.000000 -2.295734 0.733097 -1.848749
    94 3558.000000 81.250000 7392.000000 -0.161049 0.318715 1.926500
    95 3564.000000 24.578125 6892.000000 -2.988818 -0.754888 -0.553961
    96 3528.000000 69.187500 7324.000000 0.243329 -0.037251 2.988024
    97 3898.000000 8.453125 6440.000000 -2.428678 0.844253 -2.550739
    98 4016.000000 -90.812500 6404.000000 2.794397 0.112580 2.028091
    99 4552.000000 -96.187500 6112.000000 2.482459 -0.084706 -1.426114
    100 3932.000000 91.875000 6368.000000 -2.099145 0.276722 -2.034007
    101 3808.000000 -3.400391 6472.000000 -2.422959 0.850343 -2.554445
    102 3788.426758 -48.732635 6506.050781 1.157667 0.479975 1.111876
    103 3416.000000 47.125000 6780.000000 -2.989170 0.981820 -2.669358
    104 3780.812988 -46.687714 6533.858398 -2.179421 0.085852 1.286871
    105 4332.000000 -118.812500 6208.000000 -0.586266 0.547900 -0.904552
    106 3362.000000 2.722656 6940.000000 -0.135756 0.242956 2.638664
    107 3294.000000 15.531250 6860.000000 -2.917364 1.001316 -2.593477
    108 3008.000000 -119.250000 6544.000000 2.899230 0.459204 -0.104315
    109 3632.000000 74.687500 7280.000000 -1.231003 -0.044091 -1.714767
    110 4208.000000 -70.812500 6116.000000 2.874860 0.126146 -2.858278
    111 4520.000000 -92.937500 6220.000000 -3.064228 0.065608 -2.877289
    112 3600.000000 19.937500 6580.000000 -2.374676 -0.238059 2.803458
    113 3470.000000 56.343750 7700.000000 1.481996 0.074209 -1.289756
    114 3786.000000 39.125000 7940.000000 2.796705 0.115300 -2.024521
    115 4080.000000 -111.687500 6484.000000 1.459998 -1.011814 -1.657568
    116 3756.000000 17.531250 6508.000000 -2.416770 0.840438 -2.549708
    117 3482.000000 23.015625 6644.000000 0.765526 -0.762561 -0.843887
    118 3306.000000 136.625000 6824.000000 -2.589467 0.722296 -2.262099
    119 5248.000000 -106.000000 5824.000000 -0.192442 0.245902 2.280626
    120 5796.000000 -117.625000 7276.000000 -0.179896 0.014332 1.360878
    121 3428.000000 5.636719 6620.000000 3.022201 0.123343 -2.701795
    122 3132.000000 -59.625000 6828.000000 -2.841853 0.932063 -2.484065
end
