version 1
nodes
  0 "airliner_fuselage_secondary_2" -1
  1 "baked_fuselage_debris_secondary_125" 0
  2 "baked_fuselage_debris_secondary_126" 0
  3 "baked_fuselage_debris_secondary_127" 0
  4 "baked_fuselage_debris_secondary_128" 0
  5 "baked_fuselage_debris_secondary_129" 0
  6 "baked_fuselage_debris_secondary_130" 0
  7 "baked_fuselage_debris_secondary_131" 0
  8 "baked_fuselage_debris_secondary_132" 0
  9 "baked_fuselage_debris_secondary_133" 0
  10 "baked_fuselage_debris_secondary_134" 0
  11 "baked_fuselage_debris_secondary_135" 0
  12 "baked_fuselage_debris_secondary_136" 0
  13 "baked_fuselage_debris_secondary_137" 0
  14 "baked_fuselage_debris_secondary_138" 0
  15 "baked_fuselage_debris_secondary_139" 0
  16 "baked_fuselage_debris_secondary_140" 0
  17 "baked_fuselage_debris_secondary_141" 0
  18 "baked_fuselage_debris_secondary_142" 0
  19 "baked_fuselage_debris_secondary_143" 0
  20 "baked_fuselage_debris_secondary_144" 0
  21 "baked_fuselage_debris_secondary_145" 0
  22 "baked_fuselage_debris_secondary_146" 0
  23 "baked_fuselage_debris_secondary_147" 0
  24 "baked_fuselage_debris_secondary_148" 0
  25 "baked_fuselage_debris_secondary_149" 0
  26 "baked_fuselage_debris_secondary_150" 0
  27 "baked_fuselage_debris_secondary_151" 0
  28 "baked_fuselage_debris_secondary_152" 0
  29 "baked_fuselage_debris_secondary_153" 0
  30 "baked_fuselage_debris_secondary_154" 0
  31 "baked_fuselage_debris_secondary_155" 0
  32 "baked_fuselage_debris_secondary_156" 0
  33 "baked_fuselage_debris_secondary_157" 0
  34 "baked_fuselage_debris_secondary_158" 0
  35 "baked_fuselage_debris_secondary_159" 0
  36 "baked_fuselage_debris_secondary_160" 0
  37 "baked_fuselage_debris_secondary_161" 0
  38 "baked_fuselage_debris_secondary_162" 0
  39 "baked_fuselage_debris_secondary_163" 0
  40 "baked_fuselage_debris_secondary_164" 0
  41 "baked_fuselage_debris_secondary_165" 0
  42 "baked_fuselage_debris_secondary_166" 0
  43 "baked_fuselage_debris_secondary_167" 0
  44 "baked_fuselage_debris_secondary_168" 0
  45 "baked_fuselage_debris_secondary_169" 0
  46 "baked_fuselage_debris_secondary_170" 0
  47 "baked_fuselage_debris_secondary_171" 0
  48 "baked_fuselage_debris_secondary_172" 0
  49 "baked_fuselage_debris_secondary_173" 0
  50 "baked_fuselage_debris_secondary_174" 0
  51 "baked_fuselage_debris_secondary_175" 0
  52 "baked_fuselage_debris_secondary_176" 0
  53 "baked_fuselage_debris_secondary_177" 0
  54 "baked_fuselage_debris_secondary_178" 0
  55 "baked_fuselage_debris_secondary_179" 0
  56 "baked_fuselage_debris_secondary_180" 0
  57 "baked_fuselage_debris_secondary_181" 0
  58 "baked_fuselage_debris_secondary_182" 0
  59 "baked_fuselage_debris_secondary_183" 0
  60 "baked_fuselage_debris_secondary_184" 0
  61 "baked_fuselage_debris_secondary_185" 0
  62 "baked_fuselage_debris_secondary_186" 0
  63 "baked_fuselage_debris_secondary_187" 0
  64 "baked_fuselage_debris_secondary_188" 0
  65 "baked_fuselage_debris_secondary_189" 0
  66 "baked_fuselage_debris_secondary_190" 0
  67 "baked_fuselage_debris_secondary_191" 0
  68 "baked_fuselage_debris_secondary_192" 0
  69 "baked_fuselage_debris_secondary_193" 0
  70 "baked_fuselage_debris_secondary_194" 0
  71 "baked_fuselage_debris_secondary_195" 0
  72 "baked_fuselage_debris_secondary_196" 0
  73 "baked_fuselage_debris_secondary_197" 0
  74 "baked_fuselage_debris_secondary_198" 0
  75 "baked_fuselage_debris_secondary_199" 0
  76 "baked_fuselage_debris_secondary_200" 0
  77 "baked_fuselage_debris_secondary_201" 0
  78 "baked_fuselage_debris_secondary_202" 0
  79 "baked_fuselage_debris_secondary_203" 0
  80 "baked_fuselage_debris_secondary_204" 0
  81 "baked_fuselage_debris_secondary_205" 0
  82 "baked_fuselage_debris_secondary_206" 0
  83 "baked_fuselage_debris_secondary_207" 0
  84 "baked_fuselage_debris_secondary_208" 0
  85 "baked_fuselage_debris_secondary_209" 0
  86 "baked_fuselage_debris_secondary_210" 0
  87 "baked_fuselage_debris_secondary_211" 0
  88 "baked_fuselage_debris_secondary_212" 0
  89 "baked_fuselage_debris_secondary_213" 0
  90 "baked_fuselage_debris_secondary_214" 0
  91 "baked_fuselage_debris_secondary_215" 0
  92 "baked_fuselage_debris_secondary_216" 0
  93 "baked_fuselage_debris_secondary_217" 0
  94 "baked_fuselage_debris_secondary_218" 0
  95 "baked_fuselage_debris_secondary_219" 0
  96 "baked_fuselage_debris_secondary_220" 0
  97 "baked_fuselage_debris_secondary_221" 0
  98 "baked_fuselage_debris_secondary_222" 0
  99 "baked_fuselage_debris_secondary_223" 0
  100 "baked_fuselage_debris_secondary_224" 0
  101 "baked_fuselage_debris_secondary_225" 0
  102 "baked_fuselage_debris_secondary_226" 0
  103 "baked_fuselage_debris_secondary_227" 0
  104 "baked_fuselage_debris_secondary_228" 0
  105 "baked_fuselage_debris_secondary_229" 0
  106 "baked_fuselage_debris_secondary_230" 0
  107 "baked_fuselage_debris_secondary_231" 0
  108 "baked_fuselage_debris_secondary_232" 0
  109 "baked_fuselage_debris_secondary_233" 0
  110 "baked_fuselage_debris_secondary_234" 0
  111 "baked_fuselage_debris_secondary_235" 0
  112 "baked_fuselage_debris_secondary_236" 0
  113 "baked_fuselage_debris_secondary_237" 0
  114 "baked_fuselage_debris_secondary_238" 0
  115 "baked_fuselage_debris_secondary_239" 0
  116 "baked_fuselage_debris_secondary_240" 0
  117 "baked_fuselage_debris_secondary_241" 0
  118 "baked_fuselage_debris_secondary_242" 0
  119 "baked_fuselage_debris_secondary_243" 0
  120 "baked_fuselage_debris_secondary_244" 0
  121 "baked_fuselage_debris_secondary_245" 0
  122 "baked_fuselage_debris_secondary_246" 0
  123 "baked_fuselage_debris_secondary_247" 0
  124 "baked_fuselage_debris_secondary_248" 0
end
skeleton
  time 0
    0 -2558.000000 5284.000000 118.375000 1.570674 0.000183 -0.000183
    1 3308.000000 -21.984375 6736.000000 -2.937859 0.971542 -2.673928
    2 3474.000000 45.093750 6556.000000 -3.088123 1.036522 -2.760511
    3 3450.000000 -24.125000 6424.000000 -2.823960 0.460818 -2.593672
    4 3336.000000 25.218750 6536.000000 0.127474 -0.682454 0.612190
    5 3804.058838 -53.185432 6355.607910 -2.778317 -1.408691 -0.460722
    6 3678.121338 -20.022697 6535.619141 -0.109632 0.706685 -0.313729
    7 2396.000000 -123.687500 6868.000000 2.849771 -0.099831 0.668966
    8 3542.000000 71.250000 7328.000000 -3.121879 0.144722 -2.124576
    9 3904.000000 -90.250000 6208.000000 -0.966298 -0.232951 -1.881318
    10 3882.000000 -86.937500 6208.000000 0.744347 1.124206 -2.428301
    11 3784.000000 18.312500 6184.000000 -1.492122 -0.773208 1.054060
    12 3616.000000 43.125000 6264.000000 -2.883162 0.604014 -1.501266
    13 3882.000000 -57.843750 6256.000000 -2.431202 0.859458 -2.554898
    14 3852.000000 -68.312500 6332.000000 -2.432407 0.855783 -2.551711
    15 5500.000000 -118.000000 5840.000000 -1.227202 0.970482 1.831464
    16 6780.000000 -117.500000 5744.000000 -2.633787 0.369984 -2.518859
    17 3618.000000 -7.898438 6444.000000 -1.506538 0.962249 -1.786468
    18 3688.000000 -19.890625 6400.000000 -2.028054 0.688855 -2.342850
    19 3480.000000 -25.156250 6536.000000 2.101448 -0.956972 -1.767772
    20 3630.000000 -22.078125 6324.000000 -0.325135 0.049073 1.035203
    21 3724.000000 38.531250 6256.000000 -2.074361 0.554520 -2.019965
    22 3678.000000 44.593750 6344.000000 -0.007682 -0.037148 2.321611
    23 3602.000000 147.375000 6352.000000 3.095574 0.558163 -2.794530
    24 3634.000000 -18.406250 6328.000000 -1.509975 -0.614392 1.250832
    25 3402.000000 46.437500 6580.000000 3.086680 1.012753 -2.903237
    26 3306.000000 19.250000 6656.000000 -2.898447 0.953846 -2.593509
    27 3300.000000 -8.359375 6692.000000 -2.947793 0.972066 -2.622328
    28 3382.000000 3.304688 6668.000000 -2.960208 0.976628 -2.656088
    29 3360.000000 80.687500 6556.000000 -1.910195 -0.337110 -2.015592
    30 3260.000000 -38.281250 6520.000000 -0.740341 -0.294248 -1.702635
    31 3396.000000 39.375000 6608.000000 2.903650 -0.749303 1.159435
    32 3268.090820 18.243706 6629.285645 1.360461 0.206035 2.007844
    33 3666.421387 -18.077332 6530.374023 1.900708 0.477603 -1.684989
    34 3316.000000 17.156250 6664.000000 -3.009997 0.161052 1.547888
    35 2814.000000 -92.062500 7432.000000 -0.802932 -0.963295 1.041947
    36 3786.000000 80.437500 7744.000000 -2.530374 -1.319743 -0.603594
    37 2280.000000 -117.875000 6700.000000 3.070713 -0.083316 -2.382267
    38 2606.000000 -117.937500 7216.000000 0.918449 0.191954 1.435931
    39 2870.000000 -87.812500 6464.000000 -1.583566 -0.447434 -1.536969
    40 3210.000000 -31.750000 6752.000000 -3.050600 0.970035 -2.734736
    41 2128.000000 -125.812500 7836.000000 -1.024552 -0.054245 -1.519883
    42 3644.000000 -17.203125 6436.000000 2.791243 0.123758 1.504600
    43 3232.000000 -12.601563 6704.000000 -2.367566 0.417252 -1.250817
    44 2973.851563 -119.121338 6438.780762 1.712439 -0.165344 1.533369
    45 3418.000000 52.281250 7316.000000 -2.520796 -0.048461 2.243685
    46 3527.204346 62.255211 7235.012695 2.422578 0.805607 -0.912226
    47 2452.540527 -142.501068 8329.110352 -3.069612 -0.051140 0.839799
    48 3764.000000 -60.468750 6324.000000 0.510031 -0.002255 2.600654
    49 4392.000000 -118.687500 5932.000000 -0.374741 0.564967 2.250618
    50 4164.000000 -114.312500 6056.000000 0.179965 0.125380 -1.365555
    51 4034.000000 -79.625000 6156.000000 2.874860 0.126146 -2.858278
    52 2556.000000 -120.812500 6532.000000 -1.303707 1.076765 -1.707973
    53 5368.000000 -101.500000 5928.000000 -1.527082 1.194173 -1.621709
    54 3886.000000 -73.000000 6356.000000 -2.452931 0.860612 -2.573188
    55 3836.000000 -59.843750 6372.000000 -2.429107 0.854613 -2.547790
    56 4116.000000 -115.000000 6056.000000 0.858581 -0.304943 1.715785
    57 5292.000000 -117.687500 3564.000000 0.841012 -0.800693 -0.909015
    58 3952.000000 -104.062500 6140.000000 -2.950071 -0.106325 -1.520529
    59 3774.000000 -49.968750 6360.000000 -1.936016 0.672796 -2.003051
    60 3700.000000 84.750000 6212.000000 -3.112757 0.664559 2.183644
    61 3762.000000 33.062500 6048.000000 -0.391821 -0.942383 0.612407
    62 3688.000000 32.750000 6280.000000 -2.074361 0.554520 -2.019965
    63 3676.000000 -18.906250 6468.000000 -2.464797 0.843468 -2.595853
    64 3676.000000 -1.705078 6384.000000 -2.160861 0.463853 -2.001748
    65 3434.000000 -26.437500 6484.000000 -0.066862 -0.047481 0.810102
    66 3906.000000 -36.281250 6316.000000 -2.141437 -0.426940 -1.641638
    67 3901.547363 -94.199852 6203.123535 -2.843766 -0.723135 -0.582349
    68 3914.000000 -14.195313 6124.000000 1.258934 -0.309684 0.696549
    69 3833.915527 57.027855 6110.008789 2.481921 0.092558 2.531679
    70 3852.000000 -62.781250 6300.000000 -2.420908 0.858840 -2.536776
    71 3868.000000 -72.375000 6320.000000 -2.430779 0.855064 -2.550468
    72 3726.000000 -34.843750 6412.000000 -2.293147 0.868249 -2.469745
    73 3744.000000 -32.187500 6452.000000 -2.442167 0.835779 -2.579859
    74 3654.000000 -18.234375 6412.000000 -1.739982 0.678261 -1.969129
    75 3584.000000 -2.337891 6464.000000 -2.893438 0.308593 -2.279927
    76 3460.880371 -31.697571 6490.788574 3.093686 -0.087486 -2.061580
    77 3610.000000 74.625000 6236.000000 -1.184773 -0.542730 -2.540670
    78 3712.000000 -42.593750 6360.000000 -2.060847 0.498481 -2.029067
    79 3706.000000 -29.796875 6324.000000 -2.074361 0.554520 -2.019965
    80 3700.000000 -17.890625 6308.000000 -2.074361 0.554520 -2.019965
    81 3638.000000 -20.531250 6332.000000 -0.881333 -0.518237 -2.200015
    82 3704.000000 84.062500 6280.000000 2.336376 0.944369 2.047850
    83 3856.000000 -63.562500 6224.000000 -1.518022 0.664548 -2.213444
    84 3758.000000 32.968750 6244.000000 2.373281 -0.683776 -2.433925
    85 3785.436035 -78.539856 6256.575684 0.611966 0.169309 1.352094
    86 3774.000000 -30.765625 6276.000000 -2.086033 0.574091 -1.968534
    87 3780.000000 -48.062500 6300.000000 -2.047865 0.597274 -1.938187
    88 3774.000000 -53.000000 6328.000000 -2.074361 0.554520 -2.019965
    89 3600.000000 -5.367188 6424.000000 -1.116687 0.374488 -1.650702
    90 3364.000000 -108.500000 5964.000000 2.513014 0.256378 1.955338
    91 3114.000000 -114.625000 5864.000000 -0.411814 -0.906695 -2.634582
    92 3450.000000 75.000000 6548.000000 -2.987840 0.859033 -2.752985
    93 6308.000000 -116.562500 5832.000000 -3.102936 -0.039948 2.824687
    94 4168.000000 -75.687500 6084.000000 2.874860 0.126146 -2.858278
    95 4180.000000 -61.687500 6112.000000 2.874860 0.126146 -2.858278
    96 3976.000000 -29.546875 6384.000000 -2.431260 0.855574 -2.552045
    97 4424.000000 -118.000000 6052.000000 0.468000 -0.121224 -1.612570
    98 3918.000000 0.729980 6424.000000 -2.425092 0.852584 -2.551302
    99 3872.000000 54.875000 6456.000000 -2.427633 0.853888 -2.551827
    100 3980.000000 -96.125000 6388.000000 0.862232 0.034769 1.305542
    101 4568.000000 -97.812500 6012.000000 2.584457 -0.513391 -2.016808
    102 3906.000000 86.187500 6344.000000 -2.124192 -0.356703 -1.685268
    103 3902.000000 87.937500 6416.000000 -2.138505 0.449208 -2.121584
    104 3726.224609 6.013138 6486.892578 -0.338665 -0.291648 -1.735333
    105 3832.454590 -19.470558 6295.630371 1.003460 -0.380276 -0.406255
    106 3872.000000 -38.875000 6192.000000 2.423884 -0.137844 3.005425
    107 3596.274170 14.982765 6582.800293 -1.603887 1.074277 -1.149546
    108 3472.000000 23.546875 6664.000000 -2.928492 0.986813 -2.603399
    109 3386.000000 16.156250 6764.000000 -2.990227 0.985367 -2.675656
    110 3332.000000 -7.789063 6784.000000 -2.994080 0.993520 -2.704031
    111 3199.781738 -100.507149 7954.468750 -2.671987 -0.735746 -0.347405
    112 3378.000000 14.546875 7028.000000 3.033340 -0.410919 -0.047859
    113 3615.306152 15.069649 6572.655762 -1.089014 -0.914607 -1.224926
    114 3758.000000 21.406250 6508.000000 -2.422058 0.850858 -2.549511
    115 3692.000000 106.375000 6512.000000 -2.132269 -0.256130 -1.442639
    116 3506.000000 80.000000 6712.000000 -2.787743 0.861640 -2.563611
    117 3690.000000 -23.953125 6620.000000 2.315039 0.574051 -1.443306
    118 3676.000000 95.500000 6444.000000 -2.181576 -0.265590 -1.285387
    119 3848.000000 -60.937500 6352.000000 -0.343370 0.060903 -1.773573
    120 3664.000000 67.937500 6408.000000 -2.175297 -0.336715 -1.213963
    121 3626.000000 75.375000 6452.000000 -2.181576 -0.265590 -1.285387
    122 3659.128662 3.542175 6550.485352 0.043191 -1.081244 -1.746546
    123 3444.000000 52.531250 6748.000000 -2.978031 0.982432 -2.662770
    124 3464.000000 69.812500 6740.000000 -2.976629 0.984205 -2.659857
end
