// Created by Crowbar 0.74
version 1
nodes
  0 "ValveBiped.Bip01_Pelvis" -1
  1 "ValveBiped.Bip01_L_Thigh" 0
  2 "ValveBiped.Bip01_L_Calf" 1
  3 "ValveBiped.Bip01_L_Foot" 2
  4 "ValveBiped.Bip01_R_Thigh" 0
  5 "ValveBiped.Bip01_R_Calf" 4
  6 "ValveBiped.Bip01_R_Foot" 5
  7 "ValveBiped.Bip01_Spine" 0
  8 "ValveBiped.Bip01_Spine1" 7
  9 "ValveBiped.Bip01_Spine2" 8
  10 "ValveBiped.Bip01_Spine4" 9
  11 "ValveBiped.Bip01_Neck1" 10
  12 "ValveBiped.Bip01_Head1" 11
  13 "ValveBiped.Bip01_L_Clavicle" 10
  14 "ValveBiped.Bip01_L_UpperArm" 13
  15 "ValveBiped.Bip01_L_Forearm" 14
  16 "ValveBiped.Bip01_L_Hand" 15
  17 "ValveBiped.Bip01_R_Clavicle" 10
  18 "ValveBiped.Bip01_R_UpperArm" 17
  19 "ValveBiped.Bip01_R_Forearm" 18
  20 "ValveBiped.Bip01_R_Hand" 19
  21 "ValveBiped.forward" 12
  22 "ValveBiped.Bip01_L_Toe0" 3
  23 "ValveBiped.Bip01_R_Toe0" 6
  24 "ValveBiped.Bip01_L_Finger4" 16
  25 "ValveBiped.Bip01_L_Finger41" 24
  26 "ValveBiped.Bip01_L_Finger42" 25
  27 "ValveBiped.Bip01_L_Finger3" 16
  28 "ValveBiped.Bip01_L_Finger31" 27
  29 "ValveBiped.Bip01_L_Finger32" 28
  30 "ValveBiped.Bip01_L_Finger2" 16
  31 "ValveBiped.Bip01_L_Finger21" 30
  32 "ValveBiped.Bip01_L_Finger22" 31
  33 "ValveBiped.Bip01_L_Finger1" 16
  34 "ValveBiped.Bip01_L_Finger11" 33
  35 "ValveBiped.Bip01_L_Finger12" 34
  36 "ValveBiped.Bip01_L_Finger0" 16
  37 "ValveBiped.Bip01_L_Finger01" 36
  38 "ValveBiped.Bip01_L_Finger02" 37
  39 "ValveBiped.Bip01_L_Ulna" 15
  40 "ValveBiped.Bip01_R_Finger4" 20
  41 "ValveBiped.Bip01_R_Finger41" 40
  42 "ValveBiped.Bip01_R_Finger42" 41
  43 "ValveBiped.Bip01_R_Finger3" 20
  44 "ValveBiped.Bip01_R_Finger31" 43
  45 "ValveBiped.Bip01_R_Finger32" 44
  46 "ValveBiped.Bip01_R_Finger2" 20
  47 "ValveBiped.Bip01_R_Finger21" 46
  48 "ValveBiped.Bip01_R_Finger22" 47
  49 "ValveBiped.Bip01_R_Finger1" 20
  50 "ValveBiped.Bip01_R_Finger11" 49
  51 "ValveBiped.Bip01_R_Finger12" 50
  52 "ValveBiped.Bip01_R_Finger0" 20
  53 "ValveBiped.Bip01_R_Finger01" 52
  54 "ValveBiped.Bip01_R_Finger02" 53
  55 "ValveBiped.Bip01_R_Ulna" 19
  56 "sleeveR" 19
  57 "ValveBiped.SkirtFL_Helper" 0
  58 "SkirtFL01" 57
  59 "SkirtFL02" 58
  60 "SkirtFL03" 59
  61 "SkirtLF01" 57
  62 "SkirtLF02" 61
  63 "ValveBiped.SkirtBL_Helper" 0
  64 "SkirtLB01" 63
  65 "SkirtLB02" 64
  66 "SkirtBL01" 63
  67 "SkirtBL02" 66
  68 "SkirtBL03" 67
  69 "ValveBiped.SkirtBR_Helper" 0
  70 "SkirtBR01" 69
  71 "SkirtBR02" 70
  72 "SkirtBR03" 71
  73 "SkirtRB01" 69
  74 "SkirtRB02" 73
  75 "ValveBiped.SkirtFR_Helper" 0
  76 "SkirtRF01" 75
  77 "SkirtRF02" 76
  78 "SkirtFR01" 75
  79 "SkirtFR02" 78
  80 "SkirtFR03" 79
  81 "SkirtR01" 0
  82 "SkirtR02" 81
  83 "SkirtR03" 82
  84 "SkirtL01" 0
  85 "SkirtL02" 84
  86 "SkirtL03" 85
  87 "ribbon" 7
  88 "ribbonL" 87
  89 "ribbonR" 87
  90 "tie" 10
  91 "hair01" 12
  92 "hair02" 91
  93 "miterLF" 12
  94 "miterLB" 12
  95 "miterRB" 12
  96 "miterRF" 12
  97 "hairB" 12
  98 "miterL" 12
  99 "miterR" 12
  100 "hairF" 12
  101 "hairFL" 12
  102 "hairFR" 12
end
skeleton
  time 0
    0 0.000005 -0.025589 -1.079102 0.000000 0.000000 -1.570796
    1 -1.056641 0.000004 0.000003 0.000000 0.000000 0.000000
    2 -0.902344 -0.012383 0.054993 0.000000 0.000000 0.000000
    3 0.375000 0.000107 -0.000002 0.000000 0.000000 0.000000
    4 1.056641 -0.000008 -0.000007 0.000000 0.000000 0.000000
    5 -0.902344 -0.010422 -0.053101 0.000000 0.000000 0.000000
    6 0.375000 0.000112 0.000000 0.000000 0.000000 0.000000
    7 -0.000005 -1.074219 1.937500 0.000000 0.000000 0.000000
    8 -1.034180 -0.000020 -0.000001 0.000000 0.000000 0.000000
    9 -0.824219 -0.000014 -0.000001 0.000000 0.000000 0.000000
    10 -2.421875 -0.000058 0.000000 0.000000 0.000000 0.000000
    11 1.112305 0.000054 0.000000 0.000000 0.000000 0.000000
    12 -0.916992 -0.000019 0.000000 0.000000 0.000000 0.000000
    13 1.126953 0.256592 0.464844 0.000000 0.000000 0.000000
    14 -2.605469 0.000000 -0.000004 0.000000 0.000000 0.000000
    15 -2.775391 0.000035 0.000004 0.000000 0.000000 0.000000
    16 -3.537109 -0.000028 -0.000038 0.000000 0.000000 0.000000
    17 1.126953 0.256592 -0.458252 0.000000 0.000000 0.000000
    18 -2.605469 -0.000004 -0.000002 0.000000 0.000000 0.000000
    19 -2.775391 0.000021 -0.000004 0.000000 0.000000 0.000000
    20 -3.537109 -0.000080 0.000008 0.000000 0.000000 0.000000
    21 0.000000 0.000000 0.000000 0.000000 0.000000 0.000000
    22 -1.462891 0.000014 0.000001 0.000000 0.000000 0.000000
    23 -1.462891 0.000008 0.000000 0.000000 0.000000 0.000000
    24 -0.837891 0.154541 0.434082 0.000000 0.000000 0.000000
    25 -0.329834 0.000004 -0.000003 0.000000 0.000000 0.000000
    26 -0.082275 -0.000008 -0.000003 0.000000 0.000000 0.000000
    27 -0.791016 -0.046570 0.314453 0.000000 0.000000 0.000000
    28 -0.641602 -0.000008 -0.000002 0.000000 0.000000 0.000000
    29 -0.154663 0.000008 -0.000002 0.000000 0.000000 0.000000
    30 -0.875488 -0.222168 0.101685 0.000000 0.000000 0.000000
    31 -0.702148 -0.000004 -0.000003 0.000000 0.000000 0.000000
    32 -0.206055 0.000000 0.000001 0.000000 0.000000 0.000000
    33 -0.872070 -0.312256 -0.009018 0.000000 0.000000 0.000000
    34 -0.500977 0.000000 0.000002 0.000000 0.000000 0.000000
    35 -0.145996 0.000000 -0.000003 0.000000 0.000000 0.000000
    36 -0.211548 -0.440918 -0.735840 0.000000 0.000000 0.000000
    37 -0.243530 -0.000010 0.000004 0.000000 0.000000 0.000000
    38 -0.034668 -0.000001 0.000011 0.000000 0.000000 0.000000
    39 0.000000 0.000000 0.000000 0.000000 0.000000 0.000000
    40 -0.703613 0.341553 -0.627930 0.000000 0.000000 0.000000
    41 -0.384277 0.000008 0.000003 0.000000 0.000000 0.000000
    42 -0.048370 -0.000004 -0.000001 0.000000 0.000000 0.000000
    43 -0.711426 0.122131 -0.494629 0.000000 0.000000 0.000000
    44 -0.645996 0.000011 -0.000002 0.000000 0.000000 0.000000
    45 -0.195435 0.000000 0.000000 0.000000 0.000000 0.000000
    46 -0.773926 0.135010 -0.336426 0.000000 0.000000 0.000000
    47 -0.718262 0.000011 0.000007 0.000000 0.000000 0.000000
    48 -0.107666 -0.000004 -0.000001 0.000000 0.000000 0.000000
    49 -0.844238 -0.062500 -0.253662 0.000000 0.000000 0.000000
    50 -0.433838 0.000011 0.000007 0.000000 0.000000 0.000000
    51 -0.125366 -0.000008 0.000003 0.000000 0.000000 0.000000
    52 -0.309570 -0.385010 0.742188 0.000000 0.000000 0.000000
    53 -0.242188 -0.000007 0.000000 0.000000 0.000000 0.000000
    54 -0.033417 -0.000002 0.000031 0.000000 0.000000 0.000000
    55 0.000000 0.000000 0.000000 0.000000 0.000000 0.000000
    56 0.000000 0.000000 0.000000 0.000000 0.000000 0.000000
    57 0.000000 0.000000 0.000000 0.000000 0.000000 0.000000
    58 0.000000 0.000000 0.000000 0.000000 0.000000 0.000000
    59 0.000000 0.000000 0.000000 0.000000 0.000000 0.000000
    60 0.000000 0.000000 0.000000 0.000000 0.000000 0.000000
    61 0.000000 0.000000 0.000000 0.000000 0.000000 0.000000
    62 0.000000 0.000000 0.000000 0.000000 0.000000 0.000000
    63 0.000000 0.000000 0.000000 0.000000 0.000000 0.000000
    64 0.000000 0.000000 0.000000 0.000000 0.000000 0.000000
    65 0.000000 0.000000 0.000000 0.000000 0.000000 0.000000
    66 0.000000 0.000000 0.000000 0.000000 0.000000 0.000000
    67 0.000000 0.000000 0.000000 0.000000 0.000000 0.000000
    68 0.000000 0.000000 0.000000 0.000000 0.000000 0.000000
    69 0.000000 0.000000 0.000000 0.000000 0.000000 0.000000
    70 0.000000 0.000000 0.000000 0.000000 0.000000 0.000000
    71 0.000000 0.000000 0.000000 0.000000 0.000000 0.000000
    72 0.000000 0.000000 0.000000 0.000000 0.000000 0.000000
    73 0.000000 0.000000 0.000000 0.000000 0.000000 0.000000
    74 0.000000 0.000000 0.000000 0.000000 0.000000 0.000000
    75 0.000000 0.000000 0.000000 0.000000 0.000000 0.000000
    76 0.000000 0.000000 0.000000 0.000000 0.000000 0.000000
    77 0.000000 0.000000 0.000000 0.000000 0.000000 0.000000
    78 0.000000 0.000000 0.000000 0.000000 0.000000 0.000000
    79 0.000000 0.000000 0.000000 0.000000 0.000000 0.000000
    80 0.000000 0.000000 0.000000 0.000000 0.000000 0.000000
    81 0.000000 0.000000 0.000000 0.000000 0.000000 0.000000
    82 0.000000 0.000000 0.000000 0.000000 0.000000 0.000000
    83 0.000000 0.000000 0.000000 0.000000 0.000000 0.000000
    84 0.000000 0.000000 0.000000 0.000000 0.000000 0.000000
    85 0.000000 0.000000 0.000000 0.000000 0.000000 0.000000
    86 0.000000 0.000000 0.000000 0.000000 0.000000 0.000000
    87 0.000000 0.000000 0.000000 0.000000 0.000000 0.000000
    88 0.000000 0.000000 0.000000 0.000000 0.000000 0.000000
    89 0.000000 0.000000 0.000000 0.000000 0.000000 0.000000
    90 0.000000 0.000000 0.000000 0.000000 0.000000 0.000000
    91 0.000000 0.000000 0.000000 0.000000 0.000000 0.000000
    92 0.000000 0.000000 0.000000 0.000000 0.000000 0.000000
    93 0.000000 0.000000 0.000000 0.000000 0.000000 0.000000
    94 0.000000 0.000000 0.000000 0.000000 0.000000 0.000000
    95 0.000000 0.000000 0.000000 0.000000 0.000000 0.000000
    96 0.000000 0.000000 0.000000 0.000000 0.000000 0.000000
    97 0.000000 0.000000 0.000000 0.000000 0.000000 0.000000
    98 0.000000 0.000000 0.000000 0.000000 0.000000 0.000000
    99 0.000000 0.000000 0.000000 0.000000 0.000000 0.000000
    100 0.000000 0.000000 0.000000 0.000000 0.000000 0.000000
    101 0.000000 0.000000 0.000000 0.000000 0.000000 0.000000
    102 0.000000 0.000000 0.000000 0.000000 0.000000 0.000000
end
