// Created by Crowbar 0.74
version 1
nodes
  0 "static_prop" -1
end
skeleton
  time 0
    0 0.000000 0.000000 0.000000 0.000000 0.000000 0.000000
end
triangles
  phy
    0 59.728547 -8.179071 1.950198 0.841722 0.489451 0.227908 0 0
    0 -27.461014 -19.259115 2.282022 0.918995 0.360897 -0.158749 0 0
    0 57.728262 -8.123498 1.429643 0.700738 0.708144 0.086594 0 0
  phy
    0 57.728262 -8.123498 1.429643 0.700738 0.708144 0.086594 0 0
    0 -27.461014 -19.259115 2.282022 0.918995 0.360897 -0.158749 0 0
    0 -27.144950 -18.293848 1.336017 0.490133 0.869163 -0.065769 0 0
  phy
    0 59.728547 -8.179071 1.950198 0.841722 0.489451 0.227908 0 0
    0 57.728262 -8.123498 1.429643 0.700738 0.708144 0.086594 0 0
    0 58.862440 -6.605120 0.316280 0.256678 0.965230 0.049481 0 0
  phy
    0 58.862440 -6.605120 0.316280 0.256678 0.965230 0.049481 0 0
    0 57.728262 -8.123498 1.429643 0.700738 0.708144 0.086594 0 0
    0 -27.144950 -18.293848 1.336017 0.490133 0.869163 -0.065769 0 0
  phy
    0 59.728547 -8.179071 1.950198 0.841722 0.489451 0.227908 0 0
    0 79.318069 1.455442 1.345225 0.484403 0.788929 0.378079 0 0
    0 79.131230 0.932822 1.815999 0.790976 0.484183 0.374065 0 0
  phy
    0 79.131230 0.932822 1.815999 0.790976 0.484183 0.374065 0 0
    0 80.857577 1.317706 2.759611 0.710045 -0.412723 0.570522 0 0
    0 59.728547 -8.179071 1.950198 0.841722 0.489451 0.227908 0 0
  phy
    0 79.318069 1.455442 1.345225 0.484403 0.788929 0.378079 0 0
    0 80.857577 1.317706 2.759611 0.710045 -0.412723 0.570522 0 0
    0 79.131230 0.932822 1.815999 0.790976 0.484183 0.374065 0 0
  phy
    0 62.943106 -6.717772 3.376908 0.911509 -0.060303 0.406835 0 0
    0 58.155210 -8.814579 2.766857 0.985768 -0.103087 0.132795 0 0
    0 59.728547 -8.179071 1.950198 0.841722 0.489451 0.227908 0 0
  phy
    0 59.728547 -8.179071 1.950198 0.841722 0.489451 0.227908 0 0
    0 80.857577 1.317706 2.759611 0.710045 -0.412723 0.570522 0 0
    0 62.943106 -6.717772 3.376908 0.911509 -0.060303 0.406835 0 0
  phy
    0 58.155210 -8.814579 2.766857 0.985768 -0.103087 0.132795 0 0
    0 -27.461014 -19.259115 2.282022 0.918995 0.360897 -0.158749 0 0
    0 59.728547 -8.179071 1.950198 0.841722 0.489451 0.227908 0 0
  phy
    0 79.318069 1.455442 1.345225 0.484403 0.788929 0.378079 0 0
    0 59.728547 -8.179071 1.950198 0.841722 0.489451 0.227908 0 0
    0 58.862440 -6.605120 0.316280 0.256678 0.965230 0.049481 0 0
  phy
    0 62.943106 -6.717772 3.376908 0.911509 -0.060303 0.406835 0 0
    0 60.231742 -7.762196 4.856680 0.821560 -0.556409 0.124289 0 0
    0 58.155210 -8.814579 2.766857 0.985768 -0.103087 0.132795 0 0
  phy
    0 80.857577 1.317706 2.759611 0.710045 -0.412723 0.570522 0 0
    0 60.231742 -7.762196 4.856680 0.821560 -0.556409 0.124289 0 0
    0 62.943106 -6.717772 3.376908 0.911509 -0.060303 0.406835 0 0
  phy
    0 83.736960 13.005597 1.591350 0.129267 0.729587 0.671560 0 0
    0 82.621086 14.107171 0.761090 0.072212 0.941397 0.329479 0 0
    0 81.245242 33.566086 -0.796263 0.018135 0.926072 0.376910 0 0
  phy
    0 82.621086 14.107171 0.761090 0.072212 0.941397 0.329479 0 0
    0 78.751065 4.021432 0.535488 0.084469 0.990280 0.110499 0 0
    0 81.245242 33.566086 -0.796263 0.018135 0.926072 0.376910 0 0
  phy
    0 82.621086 14.107171 0.761090 0.072212 0.941397 0.329479 0 0
    0 83.736960 13.005597 1.591350 0.129267 0.729587 0.671560 0 0
    0 79.052373 2.578985 0.813190 0.230149 0.930300 0.285612 0 0
  phy
    0 78.751065 4.021432 0.535488 0.084469 0.990280 0.110499 0 0
    0 82.621086 14.107171 0.761090 0.072212 0.941397 0.329479 0 0
    0 79.052373 2.578985 0.813190 0.230149 0.930300 0.285612 0 0
  phy
    0 83.736960 13.005597 1.591350 0.129267 0.729587 0.671560 0 0
    0 81.245242 33.566086 -0.796263 0.018135 0.926072 0.376910 0 0
    0 84.115971 13.267450 2.268994 0.023646 0.215528 0.976211 0 0
  phy
    0 84.115971 13.267450 2.268994 0.023646 0.215528 0.976211 0 0
    0 81.245242 33.566086 -0.796263 0.018135 0.926072 0.376910 0 0
    0 81.784021 33.156262 0.101541 -0.173552 0.054754 0.983301 0 0
  phy
    0 84.115971 13.267450 2.268994 0.023646 0.215528 0.976211 0 0
    0 80.857577 1.317706 2.759611 0.710045 -0.412723 0.570522 0 0
    0 83.736960 13.005597 1.591350 0.129267 0.729587 0.671560 0 0
  phy
    0 84.115971 13.267450 2.268994 0.023646 0.215528 0.976211 0 0
    0 84.156474 14.772730 3.992648 -0.022227 -0.868817 0.494634 0 0
    0 80.857577 1.317706 2.759611 0.710045 -0.412723 0.570522 0 0
  phy
    0 81.784021 33.156262 0.101541 -0.173552 0.054754 0.983301 0 0
    0 84.156474 14.772730 3.992648 -0.022227 -0.868817 0.494634 0 0
    0 84.115971 13.267450 2.268994 0.023646 0.215528 0.976211 0 0
  phy
    0 79.318069 1.455442 1.345225 0.484403 0.788929 0.378079 0 0
    0 83.736960 13.005597 1.591350 0.129267 0.729587 0.671560 0 0
    0 80.857577 1.317706 2.759611 0.710045 -0.412723 0.570522 0 0
  phy
    0 83.736960 13.005597 1.591350 0.129267 0.729587 0.671560 0 0
    0 79.318069 1.455442 1.345225 0.484403 0.788929 0.378079 0 0
    0 79.052373 2.578985 0.813190 0.230149 0.930300 0.285612 0 0
  phy
    0 79.052373 2.578985 0.813190 0.230149 0.930300 0.285612 0 0
    0 79.318069 1.455442 1.345225 0.484403 0.788929 0.378079 0 0
    0 58.862440 -6.605120 0.316280 0.256678 0.965230 0.049481 0 0
  phy
    0 60.231742 -7.762196 4.856680 0.821560 -0.556409 0.124289 0 0
    0 -27.476183 -19.165437 3.627773 0.821737 -0.567599 0.050788 0 0
    0 58.155210 -8.814579 2.766857 0.985768 -0.103087 0.132795 0 0
  phy
    0 -27.476183 -19.165437 3.627773 0.821737 -0.567599 0.050788 0 0
    0 -27.461014 -19.259115 2.282022 0.918995 0.360897 -0.158749 0 0
    0 58.155210 -8.814579 2.766857 0.985768 -0.103087 0.132795 0 0
  phy
    0 80.857577 1.317706 2.759611 0.710045 -0.412723 0.570522 0 0
    0 57.853263 -4.003480 9.567850 0.325006 -0.944487 0.048117 0 0
    0 62.190717 -6.417942 5.733927 0.637808 -0.685819 0.350504 0 0
  phy
    0 80.647638 2.850332 3.629558 0.191495 -0.923480 0.332436 0 0
    0 57.853263 -4.003480 9.567850 0.325006 -0.944487 0.048117 0 0
    0 80.857577 1.317706 2.759611 0.710045 -0.412723 0.570522 0 0
  phy
    0 62.190717 -6.417942 5.733927 0.637808 -0.685819 0.350504 0 0
    0 60.231742 -7.762196 4.856680 0.821560 -0.556409 0.124289 0 0
    0 80.857577 1.317706 2.759611 0.710045 -0.412723 0.570522 0 0
  phy
    0 80.857577 1.317706 2.759611 0.710045 -0.412723 0.570522 0 0
    0 84.156474 14.772730 3.992648 -0.022227 -0.868817 0.494634 0 0
    0 80.647638 2.850332 3.629558 0.191495 -0.923480 0.332436 0 0
  phy
    0 78.751065 4.021432 0.535488 0.084469 0.990280 0.110499 0 0
    0 49.754090 5.533841 -2.484198 0.061055 0.998107 0.007448 0 0
    0 65.660167 22.939361 -1.875610 0.043594 0.994887 0.091097 0 0
  phy
    0 78.751065 4.021432 0.535488 0.084469 0.990280 0.110499 0 0
    0 65.660167 22.939361 -1.875610 0.043594 0.994887 0.091097 0 0
    0 80.204479 31.328258 -0.886641 0.040131 0.994549 0.096241 0 0
  phy
    0 78.751065 4.021432 0.535488 0.084469 0.990280 0.110499 0 0
    0 79.052373 2.578985 0.813190 0.230149 0.930300 0.285612 0 0
    0 58.862440 -6.605120 0.316280 0.256678 0.965230 0.049481 0 0
  phy
    0 49.754090 5.533841 -2.484198 0.061055 0.998107 0.007448 0 0
    0 78.751065 4.021432 0.535488 0.084469 0.990280 0.110499 0 0
    0 58.862440 -6.605120 0.316280 0.256678 0.965230 0.049481 0 0
  phy
    0 81.245242 33.566086 -0.796263 0.018135 0.926072 0.376910 0 0
    0 78.751065 4.021432 0.535488 0.084469 0.990280 0.110499 0 0
    0 80.204479 31.328258 -0.886641 0.040131 0.994549 0.096241 0 0
  phy
    0 59.915096 25.567429 -2.143597 -0.021015 0.999765 0.005330 0 0
    0 60.728554 23.657074 -2.169283 -0.013075 0.998873 0.045627 0 0
    0 49.754090 5.533841 -2.484198 0.061055 0.998107 0.007448 0 0
  phy
    0 59.915096 25.567429 -2.143597 -0.021015 0.999765 0.005330 0 0
    0 49.754090 5.533841 -2.484198 0.061055 0.998107 0.007448 0 0
    0 -31.690109 41.764824 -2.248527 -0.027881 0.999610 -0.001851 0 0
  phy
    0 60.728554 23.657074 -2.169283 -0.013075 0.998873 0.045627 0 0
    0 59.915096 25.567429 -2.143597 -0.021015 0.999765 0.005330 0 0
    0 61.870785 37.944204 -1.672718 -0.134479 0.988743 0.065592 0 0
  phy
    0 60.728554 23.657074 -2.169283 -0.013075 0.998873 0.045627 0 0
    0 61.870785 37.944204 -1.672718 -0.134479 0.988743 0.065592 0 0
    0 71.950175 34.550949 -1.354537 -0.030006 0.998038 0.054947 0 0
  phy
    0 61.870785 37.944204 -1.672718 -0.134479 0.988743 0.065592 0 0
    0 59.915096 25.567429 -2.143597 -0.021015 0.999765 0.005330 0 0
    0 59.473120 38.408027 -1.759179 -0.096846 0.994600 0.037316 0 0
  phy
    0 65.660167 22.939361 -1.875610 0.043594 0.994887 0.091097 0 0
    0 60.728554 23.657074 -2.169283 -0.013075 0.998873 0.045627 0 0
    0 71.950175 34.550949 -1.354537 -0.030006 0.998038 0.054947 0 0
  phy
    0 65.660167 22.939361 -1.875610 0.043594 0.994887 0.091097 0 0
    0 71.950175 34.550949 -1.354537 -0.030006 0.998038 0.054947 0 0
    0 80.204479 31.328258 -0.886641 0.040131 0.994549 0.096241 0 0
  phy
    0 60.728554 23.657074 -2.169283 -0.013075 0.998873 0.045627 0 0
    0 65.660167 22.939361 -1.875610 0.043594 0.994887 0.091097 0 0
    0 49.754090 5.533841 -2.484198 0.061055 0.998107 0.007448 0 0
  phy
    0 79.873303 34.677025 -0.759429 -0.346818 0.926023 0.148993 0 0
    0 81.245242 33.566086 -0.796263 0.018135 0.926072 0.376910 0 0
    0 71.950175 34.550949 -1.354537 -0.030006 0.998038 0.054947 0 0
  phy
    0 79.873303 34.677025 -0.759429 -0.346818 0.926023 0.148993 0 0
    0 71.950175 34.550949 -1.354537 -0.030006 0.998038 0.054947 0 0
    0 61.870785 37.944204 -1.672718 -0.134479 0.988743 0.065592 0 0
  phy
    0 71.950175 34.550949 -1.354537 -0.030006 0.998038 0.054947 0 0
    0 81.245242 33.566086 -0.796263 0.018135 0.926072 0.376910 0 0
    0 80.204479 31.328258 -0.886641 0.040131 0.994549 0.096241 0 0
  phy
    0 62.190717 -6.417942 5.733927 0.637808 -0.685819 0.350504 0 0
    0 57.853263 -4.003480 9.567850 0.325006 -0.944487 0.048117 0 0
    0 60.231742 -7.762196 4.856680 0.821560 -0.556409 0.124289 0 0
  phy
    0 81.240136 33.653439 2.079761 -0.348004 -0.621613 0.701776 0 0
    0 84.156474 14.772730 3.992648 -0.022227 -0.868817 0.494634 0 0
    0 81.784021 33.156262 0.101541 -0.173552 0.054754 0.983301 0 0
  phy
    0 81.784021 33.156262 0.101541 -0.173552 0.054754 0.983301 0 0
    0 81.245242 33.566086 -0.796263 0.018135 0.926072 0.376910 0 0
    0 79.873303 34.677025 -0.759429 -0.346818 0.926023 0.148993 0 0
  phy
    0 81.784021 33.156262 0.101541 -0.173552 0.054754 0.983301 0 0
    0 79.873303 34.677025 -0.759429 -0.346818 0.926023 0.148993 0 0
    0 81.240136 33.653439 2.079761 -0.348004 -0.621613 0.701776 0 0
  phy
    0 55.288236 39.720845 -1.746694 -0.041074 0.999115 0.009053 0 0
    0 46.163225 42.762775 -1.661260 -0.121093 0.992514 0.015912 0 0
    0 49.032377 44.962365 -0.663393 -0.606260 0.782863 0.139911 0 0
  phy
    0 55.288236 39.720845 -1.746694 -0.041074 0.999115 0.009053 0 0
    0 49.032377 44.962365 -0.663393 -0.606260 0.782863 0.139911 0 0
    0 59.473120 38.408027 -1.759179 -0.096846 0.994600 0.037316 0 0
  phy
    0 59.473120 38.408027 -1.759179 -0.096846 0.994600 0.037316 0 0
    0 49.032377 44.962365 -0.663393 -0.606260 0.782863 0.139911 0 0
    0 61.870785 37.944204 -1.672718 -0.134479 0.988743 0.065592 0 0
  phy
    0 79.873303 34.677025 -0.759429 -0.346818 0.926023 0.148993 0 0
    0 61.870785 37.944204 -1.672718 -0.134479 0.988743 0.065592 0 0
    0 49.032377 44.962365 -0.663393 -0.606260 0.782863 0.139911 0 0
  phy
    0 75.310929 37.197067 5.136771 -0.193677 -0.843647 0.500749 0 0
    0 74.614728 37.777217 4.757408 -0.853446 -0.350473 0.385744 0 0
    0 66.045401 38.751110 9.315436 -0.585695 -0.728391 0.355540 0 0
  phy
    0 75.310929 37.197067 5.136771 -0.193677 -0.843647 0.500749 0 0
    0 66.045401 38.751110 9.315436 -0.585695 -0.728391 0.355540 0 0
    0 64.676690 32.666349 12.174333 -0.196870 -0.878062 0.436175 0 0
  phy
    0 75.310929 37.197067 5.136771 -0.193677 -0.843647 0.500749 0 0
    0 84.156474 14.772730 3.992648 -0.022227 -0.868817 0.494634 0 0
    0 81.240136 33.653439 2.079761 -0.348004 -0.621613 0.701776 0 0
  phy
    0 64.676690 32.666349 12.174333 -0.196870 -0.878062 0.436175 0 0
    0 84.156474 14.772730 3.992648 -0.022227 -0.868817 0.494634 0 0
    0 75.310929 37.197067 5.136771 -0.193677 -0.843647 0.500749 0 0
  phy
    0 74.614728 37.777217 4.757408 -0.853446 -0.350473 0.385744 0 0
    0 75.310929 37.197067 5.136771 -0.193677 -0.843647 0.500749 0 0
    0 81.240136 33.653439 2.079761 -0.348004 -0.621613 0.701776 0 0
  phy
    0 74.479411 37.847279 3.911003 -0.892438 0.019642 0.450743 0 0
    0 74.614728 37.777217 4.757408 -0.853446 -0.350473 0.385744 0 0
    0 78.058731 35.938541 0.249589 -0.872455 -0.001260 0.488693 0 0
  phy
    0 74.614728 37.777217 4.757408 -0.853446 -0.350473 0.385744 0 0
    0 74.479411 37.847279 3.911003 -0.892438 0.019642 0.450743 0 0
    0 66.820881 41.654842 2.085468 -0.911150 0.240550 0.334575 0 0
  phy
    0 74.479411 37.847279 3.911003 -0.892438 0.019642 0.450743 0 0
    0 78.058731 35.938541 0.249589 -0.872455 -0.001260 0.488693 0 0
    0 66.820881 41.654842 2.085468 -0.911150 0.240550 0.334575 0 0
  phy
    0 59.915096 25.567429 -2.143597 -0.021015 0.999765 0.005330 0 0
    0 -31.690109 41.764824 -2.248527 -0.027881 0.999610 -0.001851 0 0
    0 55.288236 39.720845 -1.746694 -0.041074 0.999115 0.009053 0 0
  phy
    0 59.915096 25.567429 -2.143597 -0.021015 0.999765 0.005330 0 0
    0 55.288236 39.720845 -1.746694 -0.041074 0.999115 0.009053 0 0
    0 59.473120 38.408027 -1.759179 -0.096846 0.994600 0.037316 0 0
  phy
    0 -26.889655 -16.690660 0.870890 0.166809 0.985985 0.002705 0 0
    0 -27.144950 -18.293848 1.336017 0.490133 0.869163 -0.065769 0 0
    0 -53.252367 2.291817 -1.496467 0.117192 0.992825 -0.023756 0 0
  phy
    0 49.754090 5.533841 -2.484198 0.061055 0.998107 0.007448 0 0
    0 -26.889655 -16.690660 0.870890 0.166809 0.985985 0.002705 0 0
    0 -53.252367 2.291817 -1.496467 0.117192 0.992825 -0.023756 0 0
  phy
    0 -26.889655 -16.690660 0.870890 0.166809 0.985985 0.002705 0 0
    0 49.754090 5.533841 -2.484198 0.061055 0.998107 0.007448 0 0
    0 58.862440 -6.605120 0.316280 0.256678 0.965230 0.049481 0 0
  phy
    0 -26.889655 -16.690660 0.870890 0.166809 0.985985 0.002705 0 0
    0 58.862440 -6.605120 0.316280 0.256678 0.965230 0.049481 0 0
    0 -27.144950 -18.293848 1.336017 0.490133 0.869163 -0.065769 0 0
  phy
    0 60.231742 -7.762196 4.856680 0.821560 -0.556409 0.124289 0 0
    0 57.853263 -4.003480 9.567850 0.325006 -0.944487 0.048117 0 0
    0 -27.476183 -19.165437 3.627773 0.821737 -0.567599 0.050788 0 0
  phy
    0 79.873303 34.677025 -0.759429 -0.346818 0.926023 0.148993 0 0
    0 78.780107 35.474282 -0.523995 -0.738547 0.618654 0.267983 0 0
    0 81.240136 33.653439 2.079761 -0.348004 -0.621613 0.701776 0 0
  phy
    0 81.240136 33.653439 2.079761 -0.348004 -0.621613 0.701776 0 0
    0 78.780107 35.474282 -0.523995 -0.738547 0.618654 0.267983 0 0
    0 78.058731 35.938541 0.249589 -0.872455 -0.001260 0.488693 0 0
  phy
    0 78.058731 35.938541 0.249589 -0.872455 -0.001260 0.488693 0 0
    0 78.780107 35.474282 -0.523995 -0.738547 0.618654 0.267983 0 0
    0 66.820881 41.654842 2.085468 -0.911150 0.240550 0.334575 0 0
  phy
    0 78.780107 35.474282 -0.523995 -0.738547 0.618654 0.267983 0 0
    0 79.873303 34.677025 -0.759429 -0.346818 0.926023 0.148993 0 0
    0 49.032377 44.962365 -0.663393 -0.606260 0.782863 0.139911 0 0
  phy
    0 78.780107 35.474282 -0.523995 -0.738547 0.618654 0.267983 0 0
    0 49.032377 44.962365 -0.663393 -0.606260 0.782863 0.139911 0 0
    0 66.820881 41.654842 2.085468 -0.911150 0.240550 0.334575 0 0
  phy
    0 74.614728 37.777217 4.757408 -0.853446 -0.350473 0.385744 0 0
    0 53.493470 45.785228 6.354775 -0.900039 -0.258932 0.350548 0 0
    0 45.271746 47.800410 9.897337 -0.822354 -0.547410 0.155162 0 0
  phy
    0 66.045401 38.751110 9.315436 -0.585695 -0.728391 0.355540 0 0
    0 74.614728 37.777217 4.757408 -0.853446 -0.350473 0.385744 0 0
    0 45.271746 47.800410 9.897337 -0.822354 -0.547410 0.155162 0 0
  phy
    0 53.493470 45.785228 6.354775 -0.900039 -0.258932 0.350548 0 0
    0 74.614728 37.777217 4.757408 -0.853446 -0.350473 0.385744 0 0
    0 66.820881 41.654842 2.085468 -0.911150 0.240550 0.334575 0 0
  phy
    0 74.614728 37.777217 4.757408 -0.853446 -0.350473 0.385744 0 0
    0 81.240136 33.653439 2.079761 -0.348004 -0.621613 0.701776 0 0
    0 78.058731 35.938541 0.249589 -0.872455 -0.001260 0.488693 0 0
  phy
    0 -53.252367 2.291817 -1.496467 0.117192 0.992825 -0.023756 0 0
    0 -55.020109 4.299339 -1.538315 0.026014 0.999298 -0.026963 0 0
    0 -51.986364 11.678164 -1.774976 0.015598 0.999810 -0.011688 0 0
  phy
    0 -53.252367 2.291817 -1.496467 0.117192 0.992825 -0.023756 0 0
    0 -51.986364 11.678164 -1.774976 0.015598 0.999810 -0.011688 0 0
    0 49.754090 5.533841 -2.484198 0.061055 0.998107 0.007448 0 0
  phy
    0 -31.690109 41.764824 -2.248527 -0.027881 0.999610 -0.001851 0 0
    0 49.754090 5.533841 -2.484198 0.061055 0.998107 0.007448 0 0
    0 -51.986364 11.678164 -1.774976 0.015598 0.999810 -0.011688 0 0
  phy
    0 -31.690109 41.764824 -2.248527 -0.027881 0.999610 -0.001851 0 0
    0 -51.986364 11.678164 -1.774976 0.015598 0.999810 -0.011688 0 0
    0 -71.398236 42.707718 -1.956293 0.003122 0.999852 -0.016912 0 0
  phy
    0 50.030355 47.311764 2.891351 -0.877721 0.414665 0.240121 0 0
    0 45.480953 48.886059 5.585359 -0.955195 -0.063037 0.289186 0 0
    0 66.820881 41.654842 2.085468 -0.911150 0.240550 0.334575 0 0
  phy
    0 45.480953 48.886059 5.585359 -0.955195 -0.063037 0.289186 0 0
    0 53.493470 45.785228 6.354775 -0.900039 -0.258932 0.350548 0 0
    0 66.820881 41.654842 2.085468 -0.911150 0.240550 0.334575 0 0
  phy
    0 53.493470 45.785228 6.354775 -0.900039 -0.258932 0.350548 0 0
    0 45.480953 48.886059 5.585359 -0.955195 -0.063037 0.289186 0 0
    0 45.271746 47.800410 9.897337 -0.822354 -0.547410 0.155162 0 0
  phy
    0 45.271746 47.800410 9.897337 -0.822354 -0.547410 0.155162 0 0
    0 45.480953 48.886059 5.585359 -0.955195 -0.063037 0.289186 0 0
    0 42.626637 49.301184 5.998827 -0.997530 -0.069103 0.012566 0 0
  phy
    0 45.480953 48.886059 5.585359 -0.955195 -0.063037 0.289186 0 0
    0 50.030355 47.311764 2.891351 -0.877721 0.414665 0.240121 0 0
    0 44.790816 47.782340 2.298533 -0.884955 0.464613 0.031463 0 0
  phy
    0 45.480953 48.886059 5.585359 -0.955195 -0.063037 0.289186 0 0
    0 44.790816 47.782340 2.298533 -0.884955 0.464613 0.031463 0 0
    0 42.626637 49.301184 5.998827 -0.997530 -0.069103 0.012566 0 0
  phy
    0 -116.004662 43.798882 -0.358379 0.086739 0.901467 -0.424068 0 0
    0 -116.137332 44.962318 -0.004374 -0.096254 0.279530 -0.955300 0 0
    0 -115.565240 47.663891 -0.410831 -0.986311 0.162928 -0.025381 0 0
  phy
    0 -116.004662 43.798882 -0.358379 0.086739 0.901467 -0.424068 0 0
    0 -115.565240 47.663891 -0.410831 -0.986311 0.162928 -0.025381 0 0
    0 -114.892064 47.569688 -0.786198 -0.466819 0.884286 -0.010878 0 0
  phy
    0 -116.004662 43.798882 -0.358379 0.086739 0.901467 -0.424068 0 0
    0 -114.892064 47.569688 -0.786198 -0.466819 0.884286 -0.010878 0 0
    0 -113.589501 35.242842 -0.199335 0.463575 0.747419 -0.475882 0 0
  phy
    0 -116.137332 44.962318 -0.004374 -0.096254 0.279530 -0.955300 0 0
    0 -116.004662 43.798882 -0.358379 0.086739 0.901467 -0.424068 0 0
    0 -116.219708 43.360192 0.255361 0.188185 0.273852 -0.943182 0 0
  phy
    0 -116.219708 43.360192 0.255361 0.188185 0.273852 -0.943182 0 0
    0 -116.004662 43.798882 -0.358379 0.086739 0.901467 -0.424068 0 0
    0 -113.589501 35.242842 -0.199335 0.463575 0.747419 -0.475882 0 0
  phy
    0 57.597536 -0.309832 10.330808 0.135889 -0.989052 0.057538 0 0
    0 63.988674 15.842070 11.843912 0.116396 -0.956802 0.266423 0 0
    0 51.592354 25.403180 13.972361 0.122197 -0.990643 0.060774 0 0
  phy
    0 63.988674 15.842070 11.843912 0.116396 -0.956802 0.266423 0 0
    0 53.310732 27.100383 13.974886 0.033000 -0.994124 0.103097 0 0
    0 51.592354 25.403180 13.972361 0.122197 -0.990643 0.060774 0 0
  phy
    0 51.592354 25.403180 13.972361 0.122197 -0.990643 0.060774 0 0
    0 16.652130 26.538691 16.067347 0.058840 -0.998127 0.016735 0 0
    0 57.597536 -0.309832 10.330808 0.135889 -0.989052 0.057538 0 0
  phy
    0 53.310732 27.100383 13.974886 0.033000 -0.994124 0.103097 0 0
    0 16.652130 26.538691 16.067347 0.058840 -0.998127 0.016735 0 0
    0 51.592354 25.403180 13.972361 0.122197 -0.990643 0.060774 0 0
  phy
    0 63.988674 15.842070 11.843912 0.116396 -0.956802 0.266423 0 0
    0 57.853263 -4.003480 9.567850 0.325006 -0.944487 0.048117 0 0
    0 80.647638 2.850332 3.629558 0.191495 -0.923480 0.332436 0 0
  phy
    0 80.647638 2.850332 3.629558 0.191495 -0.923480 0.332436 0 0
    0 84.156474 14.772730 3.992648 -0.022227 -0.868817 0.494634 0 0
    0 63.988674 15.842070 11.843912 0.116396 -0.956802 0.266423 0 0
  phy
    0 -63.575084 2.718798 1.149239 0.843105 0.133376 -0.520946 0 0
    0 -27.461014 -19.259115 2.282022 0.918995 0.360897 -0.158749 0 0
    0 -47.134715 -8.071539 5.562287 0.831752 -0.207726 -0.514819 0 0
  phy
    0 -63.585296 2.876267 0.611819 0.618152 0.692454 -0.372015 0 0
    0 -27.461014 -19.259115 2.282022 0.918995 0.360897 -0.158749 0 0
    0 -63.575084 2.718798 1.149239 0.843105 0.133376 -0.520946 0 0
  phy
    0 -47.134715 -8.071539 5.562287 0.831752 -0.207726 -0.514819 0 0
    0 -112.144891 33.247339 1.137294 0.834607 0.141730 -0.532300 0 0
    0 -63.575084 2.718798 1.149239 0.843105 0.133376 -0.520946 0 0
  phy
    0 -112.144891 33.247339 1.137294 0.834607 0.141730 -0.532300 0 0
    0 -63.585296 2.876267 0.611819 0.618152 0.692454 -0.372015 0 0
    0 -63.575084 2.718798 1.149239 0.843105 0.133376 -0.520946 0 0
  phy
    0 49.032377 44.962365 -0.663393 -0.606260 0.782863 0.139911 0 0
    0 50.030355 47.311764 2.891351 -0.877721 0.414665 0.240121 0 0
    0 66.820881 41.654842 2.085468 -0.911150 0.240550 0.334575 0 0
  phy
    0 50.030355 47.311764 2.891351 -0.877721 0.414665 0.240121 0 0
    0 49.032377 44.962365 -0.663393 -0.606260 0.782863 0.139911 0 0
    0 44.790816 47.782340 2.298533 -0.884955 0.464613 0.031463 0 0
  phy
    0 49.032377 44.962365 -0.663393 -0.606260 0.782863 0.139911 0 0
    0 46.163225 42.762775 -1.661260 -0.121093 0.992514 0.015912 0 0
    0 23.289928 46.199316 -1.379011 -0.614289 0.789029 0.009029 0 0
  phy
    0 44.790816 47.782340 2.298533 -0.884955 0.464613 0.031463 0 0
    0 49.032377 44.962365 -0.663393 -0.606260 0.782863 0.139911 0 0
    0 23.289928 46.199316 -1.379011 -0.614289 0.789029 0.009029 0 0
  phy
    0 46.163225 42.762775 -1.661260 -0.121093 0.992514 0.015912 0 0
    0 55.288236 39.720845 -1.746694 -0.041074 0.999115 0.009053 0 0
    0 -31.690109 41.764824 -2.248527 -0.027881 0.999610 -0.001851 0 0
  phy
    0 46.163225 42.762775 -1.661260 -0.121093 0.992514 0.015912 0 0
    0 24.825119 45.240329 -1.561679 -0.121037 0.992630 0.005936 0 0
    0 23.289928 46.199316 -1.379011 -0.614289 0.789029 0.009029 0 0
  phy
    0 24.825119 45.240329 -1.561679 -0.121037 0.992630 0.005936 0 0
    0 46.163225 42.762775 -1.661260 -0.121093 0.992514 0.015912 0 0
    0 -31.690109 41.764824 -2.248527 -0.027881 0.999610 -0.001851 0 0
  phy
    0 23.289928 46.199316 -1.379011 -0.614289 0.789029 0.009029 0 0
    0 24.825119 45.240329 -1.561679 -0.121037 0.992630 0.005936 0 0
    0 -31.690109 41.764824 -2.248527 -0.027881 0.999610 -0.001851 0 0
  phy
    0 84.156474 14.772730 3.992648 -0.022227 -0.868817 0.494634 0 0
    0 64.391536 32.304375 12.271953 0.030782 -0.959916 0.278593 0 0
    0 63.988674 15.842070 11.843912 0.116396 -0.956802 0.266423 0 0
  phy
    0 84.156474 14.772730 3.992648 -0.022227 -0.868817 0.494634 0 0
    0 64.676690 32.666349 12.174333 -0.196870 -0.878062 0.436175 0 0
    0 64.391536 32.304375 12.271953 0.030782 -0.959916 0.278593 0 0
  phy
    0 64.676690 32.666349 12.174333 -0.196870 -0.878062 0.436175 0 0
    0 53.883373 35.505595 14.131848 -0.020293 -0.997526 0.067300 0 0
    0 64.391536 32.304375 12.271953 0.030782 -0.959916 0.278593 0 0
  phy
    0 64.676690 32.666349 12.174333 -0.196870 -0.878062 0.436175 0 0
    0 52.446568 39.901433 13.970315 -0.288787 -0.926486 0.241299 0 0
    0 53.883373 35.505595 14.131848 -0.020293 -0.997526 0.067300 0 0
  phy
    0 64.676690 32.666349 12.174333 -0.196870 -0.878062 0.436175 0 0
    0 66.045401 38.751110 9.315436 -0.585695 -0.728391 0.355540 0 0
    0 52.446568 39.901433 13.970315 -0.288787 -0.926486 0.241299 0 0
  phy
    0 52.446568 39.901433 13.970315 -0.288787 -0.926486 0.241299 0 0
    0 40.887397 43.628652 14.246842 -0.146919 -0.988804 0.026090 0 0
    0 53.883373 35.505595 14.131848 -0.020293 -0.997526 0.067300 0 0
  phy
    0 40.887397 43.628652 14.246842 -0.146919 -0.988804 0.026090 0 0
    0 16.652130 26.538691 16.067347 0.058840 -0.998127 0.016735 0 0
    0 53.883373 35.505595 14.131848 -0.020293 -0.997526 0.067300 0 0
  phy
    0 52.446568 39.901433 13.970315 -0.288787 -0.926486 0.241299 0 0
    0 45.356675 43.643422 14.040132 -0.672366 -0.728225 0.132711 0 0
    0 40.887397 43.628652 14.246842 -0.146919 -0.988804 0.026090 0 0
  phy
    0 66.045401 38.751110 9.315436 -0.585695 -0.728391 0.355540 0 0
    0 45.356675 43.643422 14.040132 -0.672366 -0.728225 0.132711 0 0
    0 52.446568 39.901433 13.970315 -0.288787 -0.926486 0.241299 0 0
  phy
    0 -116.888257 42.667764 5.129717 0.323264 -0.272362 -0.906267 0 0
    0 -117.438384 45.011926 5.052949 0.021437 -0.170991 -0.985039 0 0
    0 -116.391295 41.649435 3.490561 0.296659 0.140429 -0.944602 0 0
  phy
    0 -116.391295 41.649435 3.490561 0.296659 0.140429 -0.944602 0 0
    0 -117.438384 45.011926 5.052949 0.021437 -0.170991 -0.985039 0 0
    0 -116.304262 42.412901 1.739855 0.268604 0.192098 -0.943902 0 0
  phy
    0 -115.974006 41.057557 5.710331 0.447785 -0.318474 -0.835501 0 0
    0 -116.888257 42.667764 5.129717 0.323264 -0.272362 -0.906267 0 0
    0 -113.589501 35.242842 -0.199335 0.463575 0.747419 -0.475882 0 0
  phy
    0 -116.888257 42.667764 5.129717 0.323264 -0.272362 -0.906267 0 0
    0 -116.391295 41.649435 3.490561 0.296659 0.140429 -0.944602 0 0
    0 -113.589501 35.242842 -0.199335 0.463575 0.747419 -0.475882 0 0
  phy
    0 -116.888257 42.667764 5.129717 0.323264 -0.272362 -0.906267 0 0
    0 -115.974006 41.057557 5.710331 0.447785 -0.318474 -0.835501 0 0
    0 -113.565377 43.788144 11.878938 0.361290 -0.793202 -0.490205 0 0
  phy
    0 -117.438384 45.011926 5.052949 0.021437 -0.170991 -0.985039 0 0
    0 -116.888257 42.667764 5.129717 0.323264 -0.272362 -0.906267 0 0
    0 -113.565377 43.788144 11.878938 0.361290 -0.793202 -0.490205 0 0
  phy
    0 -116.391295 41.649435 3.490561 0.296659 0.140429 -0.944602 0 0
    0 -116.304262 42.412901 1.739855 0.268604 0.192098 -0.943902 0 0
    0 -113.589501 35.242842 -0.199335 0.463575 0.747419 -0.475882 0 0
  phy
    0 -116.304262 42.412901 1.739855 0.268604 0.192098 -0.943902 0 0
    0 -116.219708 43.360192 0.255361 0.188185 0.273852 -0.943182 0 0
    0 -113.589501 35.242842 -0.199335 0.463575 0.747419 -0.475882 0 0
  phy
    0 -116.219708 43.360192 0.255361 0.188185 0.273852 -0.943182 0 0
    0 -116.304262 42.412901 1.739855 0.268604 0.192098 -0.943902 0 0
    0 -117.438384 45.011926 5.052949 0.021437 -0.170991 -0.985039 0 0
  phy
    0 -116.743291 47.214088 3.344318 -0.212955 0.213082 -0.953544 0 0
    0 -116.795668 46.575351 4.640714 -0.518528 -0.303174 -0.799509 0 0
    0 -116.329043 47.781336 3.241817 -0.960538 -0.129480 -0.246174 0 0
  phy
    0 -116.795668 46.575351 4.640714 -0.518528 -0.303174 -0.799509 0 0
    0 -116.743291 47.214088 3.344318 -0.212955 0.213082 -0.953544 0 0
    0 -117.438384 45.011926 5.052949 0.021437 -0.170991 -0.985039 0 0
  phy
    0 -116.743291 47.214088 3.344318 -0.212955 0.213082 -0.953544 0 0
    0 -116.137332 44.962318 -0.004374 -0.096254 0.279530 -0.955300 0 0
    0 -117.438384 45.011926 5.052949 0.021437 -0.170991 -0.985039 0 0
  phy
    0 -116.137332 44.962318 -0.004374 -0.096254 0.279530 -0.955300 0 0
    0 -116.743291 47.214088 3.344318 -0.212955 0.213082 -0.953544 0 0
    0 -115.565240 47.663891 -0.410831 -0.986311 0.162928 -0.025381 0 0
  phy
    0 -116.743291 47.214088 3.344318 -0.212955 0.213082 -0.953544 0 0
    0 -116.329043 47.781336 3.241817 -0.960538 -0.129480 -0.246174 0 0
    0 -115.565240 47.663891 -0.410831 -0.986311 0.162928 -0.025381 0 0
  phy
    0 -116.329043 47.781336 3.241817 -0.960538 -0.129480 -0.246174 0 0
    0 -116.795668 46.575351 4.640714 -0.518528 -0.303174 -0.799509 0 0
    0 -114.315983 46.505064 10.958093 -0.813528 -0.403398 -0.418858 0 0
  phy
    0 -116.795668 46.575351 4.640714 -0.518528 -0.303174 -0.799509 0 0
    0 -117.438384 45.011926 5.052949 0.021437 -0.170991 -0.985039 0 0
    0 -114.315983 46.505064 10.958093 -0.813528 -0.403398 -0.418858 0 0
  phy
    0 -116.137332 44.962318 -0.004374 -0.096254 0.279530 -0.955300 0 0
    0 -116.219708 43.360192 0.255361 0.188185 0.273852 -0.943182 0 0
    0 -117.438384 45.011926 5.052949 0.021437 -0.170991 -0.985039 0 0
  phy
    0 -11.160017 48.240789 12.859528 -0.844307 -0.535453 0.020895 0 0
    0 40.887397 43.628652 14.246842 -0.146919 -0.988804 0.026090 0 0
    0 45.356675 43.643422 14.040132 -0.672366 -0.728225 0.132711 0 0
  phy
    0 -11.160017 48.240789 12.859528 -0.844307 -0.535453 0.020895 0 0
    0 -21.197251 45.908431 15.147577 -0.171025 -0.985142 0.015682 0 0
    0 40.887397 43.628652 14.246842 -0.146919 -0.988804 0.026090 0 0
  phy
    0 -21.197251 45.908431 15.147577 -0.171025 -0.985142 0.015682 0 0
    0 16.652130 26.538691 16.067347 0.058840 -0.998127 0.016735 0 0
    0 40.887397 43.628652 14.246842 -0.146919 -0.988804 0.026090 0 0
  phy
    0 -21.197251 45.908431 15.147577 -0.171025 -0.985142 0.015682 0 0
    0 -91.417756 36.947267 17.109100 0.120857 -0.989575 -0.078328 0 0
    0 16.652130 26.538691 16.067347 0.058840 -0.998127 0.016735 0 0
  phy
    0 -112.336236 45.899570 12.415338 -0.170971 -0.874471 -0.453948 0 0
    0 -113.565377 43.788144 11.878938 0.361290 -0.793202 -0.490205 0 0
    0 -109.779572 46.054069 13.401175 -0.044435 -0.962955 -0.265977 0 0
  phy
    0 -113.565377 43.788144 11.878938 0.361290 -0.793202 -0.490205 0 0
    0 -91.417756 36.947267 17.109100 0.120857 -0.989575 -0.078328 0 0
    0 -109.779572 46.054069 13.401175 -0.044435 -0.962955 -0.265977 0 0
  phy
    0 -109.779572 46.054069 13.401175 -0.044435 -0.962955 -0.265977 0 0
    0 -91.417756 36.947267 17.109100 0.120857 -0.989575 -0.078328 0 0
    0 -101.565320 47.128290 15.298189 -0.432677 -0.901488 -0.010463 0 0
  phy
    0 -102.675036 48.190815 13.786151 -0.776603 -0.583838 -0.236687 0 0
    0 -109.779572 46.054069 13.401175 -0.044435 -0.962955 -0.265977 0 0
    0 -101.565320 47.128290 15.298189 -0.432677 -0.901488 -0.010463 0 0
  phy
    0 -109.779572 46.054069 13.401175 -0.044435 -0.962955 -0.265977 0 0
    0 -114.315983 46.505064 10.958093 -0.813528 -0.403398 -0.418858 0 0
    0 -112.336236 45.899570 12.415338 -0.170971 -0.874471 -0.453948 0 0
  phy
    0 -109.779572 46.054069 13.401175 -0.044435 -0.962955 -0.265977 0 0
    0 -102.675036 48.190815 13.786151 -0.776603 -0.583838 -0.236687 0 0
    0 -114.315983 46.505064 10.958093 -0.813528 -0.403398 -0.418858 0 0
  phy
    0 53.883373 35.505595 14.131848 -0.020293 -0.997526 0.067300 0 0
    0 53.310732 27.100383 13.974886 0.033000 -0.994124 0.103097 0 0
    0 64.391536 32.304375 12.271953 0.030782 -0.959916 0.278593 0 0
  phy
    0 53.310732 27.100383 13.974886 0.033000 -0.994124 0.103097 0 0
    0 63.988674 15.842070 11.843912 0.116396 -0.956802 0.266423 0 0
    0 64.391536 32.304375 12.271953 0.030782 -0.959916 0.278593 0 0
  phy
    0 53.883373 35.505595 14.131848 -0.020293 -0.997526 0.067300 0 0
    0 16.652130 26.538691 16.067347 0.058840 -0.998127 0.016735 0 0
    0 53.310732 27.100383 13.974886 0.033000 -0.994124 0.103097 0 0
  phy
    0 57.597536 -0.309832 10.330808 0.135889 -0.989052 0.057538 0 0
    0 57.853263 -4.003480 9.567850 0.325006 -0.944487 0.048117 0 0
    0 63.988674 15.842070 11.843912 0.116396 -0.956802 0.266423 0 0
  phy
    0 16.652130 26.538691 16.067347 0.058840 -0.998127 0.016735 0 0
    0 57.853263 -4.003480 9.567850 0.325006 -0.944487 0.048117 0 0
    0 57.597536 -0.309832 10.330808 0.135889 -0.989052 0.057538 0 0
  phy
    0 -47.134715 -8.071539 5.562287 0.831752 -0.207726 -0.514819 0 0
    0 -111.476652 32.597611 5.167826 0.750760 -0.311250 -0.582651 0 0
    0 -112.144891 33.247339 1.137294 0.834607 0.141730 -0.532300 0 0
  phy
    0 -47.134715 -8.071539 5.562287 0.831752 -0.207726 -0.514819 0 0
    0 -27.461014 -19.259115 2.282022 0.918995 0.360897 -0.158749 0 0
    0 -27.476183 -19.165437 3.627773 0.821737 -0.567599 0.050788 0 0
  phy
    0 -47.134715 -8.071539 5.562287 0.831752 -0.207726 -0.514819 0 0
    0 -27.476183 -19.165437 3.627773 0.821737 -0.567599 0.050788 0 0
    0 -45.888518 -7.094736 7.156162 0.467294 -0.848451 -0.248530 0 0
  phy
    0 -45.888518 -7.094736 7.156162 0.467294 -0.848451 -0.248530 0 0
    0 -106.476911 32.302376 9.488966 0.539005 -0.766212 -0.349848 0 0
    0 -47.134715 -8.071539 5.562287 0.831752 -0.207726 -0.514819 0 0
  phy
    0 -47.134715 -8.071539 5.562287 0.831752 -0.207726 -0.514819 0 0
    0 -106.476911 32.302376 9.488966 0.539005 -0.766212 -0.349848 0 0
    0 -111.476652 32.597611 5.167826 0.750760 -0.311250 -0.582651 0 0
  phy
    0 57.853263 -4.003480 9.567850 0.325006 -0.944487 0.048117 0 0
    0 -26.574440 -17.464661 5.040214 0.263848 -0.964513 -0.009945 0 0
    0 -27.476183 -19.165437 3.627773 0.821737 -0.567599 0.050788 0 0
  phy
    0 -26.574440 -17.464661 5.040214 0.263848 -0.964513 -0.009945 0 0
    0 -27.272539 -17.699320 4.894716 0.473210 -0.866455 -0.159147 0 0
    0 -27.476183 -19.165437 3.627773 0.821737 -0.567599 0.050788 0 0
  phy
    0 -26.574440 -17.464661 5.040214 0.263848 -0.964513 -0.009945 0 0
    0 -44.344692 -6.175905 7.623598 0.245998 -0.969135 -0.016184 0 0
    0 -27.272539 -17.699320 4.894716 0.473210 -0.866455 -0.159147 0 0
  phy
    0 -44.344692 -6.175905 7.623598 0.245998 -0.969135 -0.016184 0 0
    0 -45.888518 -7.094736 7.156162 0.467294 -0.848451 -0.248530 0 0
    0 -27.272539 -17.699320 4.894716 0.473210 -0.866455 -0.159147 0 0
  phy
    0 -45.888518 -7.094736 7.156162 0.467294 -0.848451 -0.248530 0 0
    0 -27.476183 -19.165437 3.627773 0.821737 -0.567599 0.050788 0 0
    0 -27.272539 -17.699320 4.894716 0.473210 -0.866455 -0.159147 0 0
  phy
    0 -44.344692 -6.175905 7.623598 0.245998 -0.969135 -0.016184 0 0
    0 -72.015177 23.889443 14.773260 0.224747 -0.974255 -0.017781 0 0
    0 -45.888518 -7.094736 7.156162 0.467294 -0.848451 -0.248530 0 0
  phy
    0 -72.015177 23.889443 14.773260 0.224747 -0.974255 -0.017781 0 0
    0 -91.417756 36.947267 17.109100 0.120857 -0.989575 -0.078328 0 0
    0 -45.888518 -7.094736 7.156162 0.467294 -0.848451 -0.248530 0 0
  phy
    0 -26.574440 -17.464661 5.040214 0.263848 -0.964513 -0.009945 0 0
    0 5.849440 17.426709 14.221755 0.233167 -0.972373 -0.011104 0 0
    0 -44.344692 -6.175905 7.623598 0.245998 -0.969135 -0.016184 0 0
  phy
    0 -26.574440 -17.464661 5.040214 0.263848 -0.964513 -0.009945 0 0
    0 57.853263 -4.003480 9.567850 0.325006 -0.944487 0.048117 0 0
    0 5.849440 17.426709 14.221755 0.233167 -0.972373 -0.011104 0 0
  phy
    0 5.849440 17.426709 14.221755 0.233167 -0.972373 -0.011104 0 0
    0 -72.015177 23.889443 14.773260 0.224747 -0.974255 -0.017781 0 0
    0 -44.344692 -6.175905 7.623598 0.245998 -0.969135 -0.016184 0 0
  phy
    0 -91.417756 36.947267 17.109100 0.120857 -0.989575 -0.078328 0 0
    0 -72.015177 23.889443 14.773260 0.224747 -0.974255 -0.017781 0 0
    0 16.652130 26.538691 16.067347 0.058840 -0.998127 0.016735 0 0
  phy
    0 -72.015177 23.889443 14.773260 0.224747 -0.974255 -0.017781 0 0
    0 5.849440 17.426709 14.221755 0.233167 -0.972373 -0.011104 0 0
    0 16.652130 26.538691 16.067347 0.058840 -0.998127 0.016735 0 0
  phy
    0 5.849440 17.426709 14.221755 0.233167 -0.972373 -0.011104 0 0
    0 57.853263 -4.003480 9.567850 0.325006 -0.944487 0.048117 0 0
    0 16.652130 26.538691 16.067347 0.058840 -0.998127 0.016735 0 0
  phy
    0 -55.020109 4.299339 -1.538315 0.026014 0.999298 -0.026963 0 0
    0 -99.810061 30.113430 -0.964539 0.024715 0.999315 -0.027536 0 0
    0 -51.986364 11.678164 -1.774976 0.015598 0.999810 -0.011688 0 0
  phy
    0 -51.986364 11.678164 -1.774976 0.015598 0.999810 -0.011688 0 0
    0 -99.810061 30.113430 -0.964539 0.024715 0.999315 -0.027536 0 0
    0 -71.398236 42.707718 -1.956293 0.003122 0.999852 -0.016912 0 0
  phy
    0 -71.398236 42.707718 -1.956293 0.003122 0.999852 -0.016912 0 0
    0 -99.810061 30.113430 -0.964539 0.024715 0.999315 -0.027536 0 0
    0 -106.268811 46.029696 -1.146052 0.015904 0.999417 -0.030226 0 0
  phy
    0 -112.144891 33.247339 1.137294 0.834607 0.141730 -0.532300 0 0
    0 -113.589501 35.242842 -0.199335 0.463575 0.747419 -0.475882 0 0
    0 -63.585296 2.876267 0.611819 0.618152 0.692454 -0.372015 0 0
  phy
    0 -112.144891 33.247339 1.137294 0.834607 0.141730 -0.532300 0 0
    0 -111.476652 32.597611 5.167826 0.750760 -0.311250 -0.582651 0 0
    0 -113.589501 35.242842 -0.199335 0.463575 0.747419 -0.475882 0 0
  phy
    0 66.045401 38.751110 9.315436 -0.585695 -0.728391 0.355540 0 0
    0 45.271746 47.800410 9.897337 -0.822354 -0.547410 0.155162 0 0
    0 45.356675 43.643422 14.040132 -0.672366 -0.728225 0.132711 0 0
  phy
    0 -14.655947 49.204038 2.918919 -0.965234 0.261386 0.000497 0 0
    0 44.790816 47.782340 2.298533 -0.884955 0.464613 0.031463 0 0
    0 23.289928 46.199316 -1.379011 -0.614289 0.789029 0.009029 0 0
  phy
    0 44.790816 47.782340 2.298533 -0.884955 0.464613 0.031463 0 0
    0 -14.655947 49.204038 2.918919 -0.965234 0.261386 0.000497 0 0
    0 42.626637 49.301184 5.998827 -0.997530 -0.069103 0.012566 0 0
  phy
    0 -111.476652 32.597611 5.167826 0.750760 -0.311250 -0.582651 0 0
    0 -115.974006 41.057557 5.710331 0.447785 -0.318474 -0.835501 0 0
    0 -113.589501 35.242842 -0.199335 0.463575 0.747419 -0.475882 0 0
  phy
    0 -113.565377 43.788144 11.878938 0.361290 -0.793202 -0.490205 0 0
    0 -115.974006 41.057557 5.710331 0.447785 -0.318474 -0.835501 0 0
    0 -111.476652 32.597611 5.167826 0.750760 -0.311250 -0.582651 0 0
  phy
    0 -115.565240 47.663891 -0.410831 -0.986311 0.162928 -0.025381 0 0
    0 -116.329043 47.781336 3.241817 -0.960538 -0.129480 -0.246174 0 0
    0 -101.308729 49.795109 11.859020 -0.997387 -0.071137 -0.012572 0 0
  phy
    0 -116.329043 47.781336 3.241817 -0.960538 -0.129480 -0.246174 0 0
    0 -114.315983 46.505064 10.958093 -0.813528 -0.403398 -0.418858 0 0
    0 -101.308729 49.795109 11.859020 -0.997387 -0.071137 -0.012572 0 0
  phy
    0 -21.197251 45.908431 15.147577 -0.171025 -0.985142 0.015682 0 0
    0 -11.160017 48.240789 12.859528 -0.844307 -0.535453 0.020895 0 0
    0 -101.565320 47.128290 15.298189 -0.432677 -0.901488 -0.010463 0 0
  phy
    0 -101.565320 47.128290 15.298189 -0.432677 -0.901488 -0.010463 0 0
    0 -91.417756 36.947267 17.109100 0.120857 -0.989575 -0.078328 0 0
    0 -21.197251 45.908431 15.147577 -0.171025 -0.985142 0.015682 0 0
  phy
    0 45.271746 47.800410 9.897337 -0.822354 -0.547410 0.155162 0 0
    0 -11.160017 48.240789 12.859528 -0.844307 -0.535453 0.020895 0 0
    0 45.356675 43.643422 14.040132 -0.672366 -0.728225 0.132711 0 0
  phy
    0 -11.160017 48.240789 12.859528 -0.844307 -0.535453 0.020895 0 0
    0 45.271746 47.800410 9.897337 -0.822354 -0.547410 0.155162 0 0
    0 42.626637 49.301184 5.998827 -0.997530 -0.069103 0.012566 0 0
  phy
    0 -112.336236 45.899570 12.415338 -0.170971 -0.874471 -0.453948 0 0
    0 -114.315983 46.505064 10.958093 -0.813528 -0.403398 -0.418858 0 0
    0 -113.565377 43.788144 11.878938 0.361290 -0.793202 -0.490205 0 0
  phy
    0 -102.675036 48.190815 13.786151 -0.776603 -0.583838 -0.236687 0 0
    0 -101.565320 47.128290 15.298189 -0.432677 -0.901488 -0.010463 0 0
    0 -101.308729 49.795109 11.859020 -0.997387 -0.071137 -0.012572 0 0
  phy
    0 -114.315983 46.505064 10.958093 -0.813528 -0.403398 -0.418858 0 0
    0 -102.675036 48.190815 13.786151 -0.776603 -0.583838 -0.236687 0 0
    0 -101.308729 49.795109 11.859020 -0.997387 -0.071137 -0.012572 0 0
  phy
    0 -45.888518 -7.094736 7.156162 0.467294 -0.848451 -0.248530 0 0
    0 -91.417756 36.947267 17.109100 0.120857 -0.989575 -0.078328 0 0
    0 -106.476911 32.302376 9.488966 0.539005 -0.766212 -0.349848 0 0
  phy
    0 -55.020109 4.299339 -1.538315 0.026014 0.999298 -0.026963 0 0
    0 -53.252367 2.291817 -1.496467 0.117192 0.992825 -0.023756 0 0
    0 -99.810061 30.113430 -0.964539 0.024715 0.999315 -0.027536 0 0
  phy
    0 -99.810061 30.113430 -0.964539 0.024715 0.999315 -0.027536 0 0
    0 -53.252367 2.291817 -1.496467 0.117192 0.992825 -0.023756 0 0
    0 -104.169339 30.517944 -0.771195 0.139469 0.984607 -0.105344 0 0
  phy
    0 -114.892064 47.569688 -0.786198 -0.466819 0.884286 -0.010878 0 0
    0 23.289928 46.199316 -1.379011 -0.614289 0.789029 0.009029 0 0
    0 -31.690109 41.764824 -2.248527 -0.027881 0.999610 -0.001851 0 0
  phy
    0 -114.892064 47.569688 -0.786198 -0.466819 0.884286 -0.010878 0 0
    0 -31.690109 41.764824 -2.248527 -0.027881 0.999610 -0.001851 0 0
    0 -71.398236 42.707718 -1.956293 0.003122 0.999852 -0.016912 0 0
  phy
    0 -114.892064 47.569688 -0.786198 -0.466819 0.884286 -0.010878 0 0
    0 -71.398236 42.707718 -1.956293 0.003122 0.999852 -0.016912 0 0
    0 -106.268811 46.029696 -1.146052 0.015904 0.999417 -0.030226 0 0
  phy
    0 -104.169339 30.517944 -0.771195 0.139469 0.984607 -0.105344 0 0
    0 -114.892064 47.569688 -0.786198 -0.466819 0.884286 -0.010878 0 0
    0 -106.268811 46.029696 -1.146052 0.015904 0.999417 -0.030226 0 0
  phy
    0 -104.169339 30.517944 -0.771195 0.139469 0.984607 -0.105344 0 0
    0 -106.268811 46.029696 -1.146052 0.015904 0.999417 -0.030226 0 0
    0 -99.810061 30.113430 -0.964539 0.024715 0.999315 -0.027536 0 0
  phy
    0 -114.892064 47.569688 -0.786198 -0.466819 0.884286 -0.010878 0 0
    0 -104.169339 30.517944 -0.771195 0.139469 0.984607 -0.105344 0 0
    0 -113.589501 35.242842 -0.199335 0.463575 0.747419 -0.475882 0 0
  phy
    0 -62.528989 4.136870 -0.503461 0.376138 0.901069 -0.215857 0 0
    0 -104.169339 30.517944 -0.771195 0.139469 0.984607 -0.105344 0 0
    0 -53.252367 2.291817 -1.496467 0.117192 0.992825 -0.023756 0 0
  phy
    0 -104.169339 30.517944 -0.771195 0.139469 0.984607 -0.105344 0 0
    0 -62.528989 4.136870 -0.503461 0.376138 0.901069 -0.215857 0 0
    0 -113.589501 35.242842 -0.199335 0.463575 0.747419 -0.475882 0 0
  phy
    0 -27.144950 -18.293848 1.336017 0.490133 0.869163 -0.065769 0 0
    0 -63.585296 2.876267 0.611819 0.618152 0.692454 -0.372015 0 0
    0 -62.528989 4.136870 -0.503461 0.376138 0.901069 -0.215857 0 0
  phy
    0 -63.585296 2.876267 0.611819 0.618152 0.692454 -0.372015 0 0
    0 -27.144950 -18.293848 1.336017 0.490133 0.869163 -0.065769 0 0
    0 -27.461014 -19.259115 2.282022 0.918995 0.360897 -0.158749 0 0
  phy
    0 -27.144950 -18.293848 1.336017 0.490133 0.869163 -0.065769 0 0
    0 -62.528989 4.136870 -0.503461 0.376138 0.901069 -0.215857 0 0
    0 -53.252367 2.291817 -1.496467 0.117192 0.992825 -0.023756 0 0
  phy
    0 -62.528989 4.136870 -0.503461 0.376138 0.901069 -0.215857 0 0
    0 -63.585296 2.876267 0.611819 0.618152 0.692454 -0.372015 0 0
    0 -113.589501 35.242842 -0.199335 0.463575 0.747419 -0.475882 0 0
  phy
    0 -14.655947 49.204038 2.918919 -0.965234 0.261386 0.000497 0 0
    0 -115.565240 47.663891 -0.410831 -0.986311 0.162928 -0.025381 0 0
    0 -101.308729 49.795109 11.859020 -0.997387 -0.071137 -0.012572 0 0
  phy
    0 42.626637 49.301184 5.998827 -0.997530 -0.069103 0.012566 0 0
    0 -14.655947 49.204038 2.918919 -0.965234 0.261386 0.000497 0 0
    0 -101.308729 49.795109 11.859020 -0.997387 -0.071137 -0.012572 0 0
  phy
    0 -115.565240 47.663891 -0.410831 -0.986311 0.162928 -0.025381 0 0
    0 -14.655947 49.204038 2.918919 -0.965234 0.261386 0.000497 0 0
    0 -114.892064 47.569688 -0.786198 -0.466819 0.884286 -0.010878 0 0
  phy
    0 -14.655947 49.204038 2.918919 -0.965234 0.261386 0.000497 0 0
    0 23.289928 46.199316 -1.379011 -0.614289 0.789029 0.009029 0 0
    0 -114.892064 47.569688 -0.786198 -0.466819 0.884286 -0.010878 0 0
  phy
    0 -117.438384 45.011926 5.052949 0.021437 -0.170991 -0.985039 0 0
    0 -113.565377 43.788144 11.878938 0.361290 -0.793202 -0.490205 0 0
    0 -114.315983 46.505064 10.958093 -0.813528 -0.403398 -0.418858 0 0
  phy
    0 -111.476652 32.597611 5.167826 0.750760 -0.311250 -0.582651 0 0
    0 -106.476911 32.302376 9.488966 0.539005 -0.766212 -0.349848 0 0
    0 -113.565377 43.788144 11.878938 0.361290 -0.793202 -0.490205 0 0
  phy
    0 -106.476911 32.302376 9.488966 0.539005 -0.766212 -0.349848 0 0
    0 -91.417756 36.947267 17.109100 0.120857 -0.989575 -0.078328 0 0
    0 -113.565377 43.788144 11.878938 0.361290 -0.793202 -0.490205 0 0
  phy
    0 -101.565320 47.128290 15.298189 -0.432677 -0.901488 -0.010463 0 0
    0 -11.160017 48.240789 12.859528 -0.844307 -0.535453 0.020895 0 0
    0 -101.308729 49.795109 11.859020 -0.997387 -0.071137 -0.012572 0 0
  phy
    0 -11.160017 48.240789 12.859528 -0.844307 -0.535453 0.020895 0 0
    0 42.626637 49.301184 5.998827 -0.997530 -0.069103 0.012566 0 0
    0 -101.308729 49.795109 11.859020 -0.997387 -0.071137 -0.012572 0 0
end
