version 1
nodes
  0 "airliner_primary_debris_2" -1
  1 "renderGeo_flaps_1" 0
  2 "renderGeo_flaps_2" 0
  3 "renderGeo_flaps_3" 0
  4 "renderGeo_flaps_4" 0
  5 "renderGeo_flaps_5" 0
  6 "renderGeo_flaps_6" 0
  7 "renderGeo_flaps_7" 0
  8 "renderGeo_flaps_8" 0
  9 "renderGeo_flaps_9" 0
  10 "renderGeo_flaps_10" 0
  11 "renderGeo_flaps_11" 0
  12 "renderGeo_flaps_12" 0
  13 "renderGeo_flaps_13" 0
  14 "renderGeo_flaps_14" 0
  15 "renderGeo_flaps_15" 0
  16 "renderGeo_flaps_16" 0
  17 "renderGeo_flaps_17" 0
  18 "renderGeo_flaps_18" 0
  19 "renderGeo_rightGear_1" 0
  20 "renderGeo_rightGear_2" 0
  21 "renderGeo_rightGear_3" 0
  22 "renderGeo_rightGear_4" 0
  23 "renderGeo_rightGear_5" 0
  24 "renderGeo_leftGear_1" 0
  25 "renderGeo_leftGear_2" 0
  26 "renderGeo_leftGear_3" 0
  27 "renderGeo_leftGear_4" 0
  28 "renderGeo_leftGear_5" 0
  29 "renderGeo_rightEngineSkin_1" 0
  30 "renderGeo_rightEngineSkin_2" 0
  31 "renderGeo_rightEngineSkin_3" 0
  32 "renderGeo_rightEngineSkin_4" 0
  33 "renderGeo_rightEngineSkin_5" 0
  34 "renderGeo_rightEngineSkin_6" 0
  35 "renderGeo_rightEngineSkin_7" 0
  36 "renderGeo_rightEngineSkin_8" 0
  37 "renderGeo_rightEngineSkin_9" 0
  38 "renderGeo_rightEngineSkin_10" 0
  39 "renderGeo_rightEngineSkin_11" 0
  40 "renderGeo_rightEngineSkin_12" 0
  41 "renderGeo_rightEngineSkin_13" 0
  42 "renderGeo_rightEngineSkin_14" 0
  43 "renderGeo_leftEngineSkin_1" 0
  44 "renderGeo_leftEngineSkin_2" 0
  45 "renderGeo_leftEngineSkin_3" 0
  46 "renderGeo_leftEngineSkin_4" 0
  47 "renderGeo_leftEngineSkin_5" 0
  48 "renderGeo_leftEngineSkin_6" 0
  49 "renderGeo_leftEngineSkin_7" 0
  50 "renderGeo_leftEngineSkin_8" 0
  51 "renderGeo_leftEngineSkin_9" 0
  52 "renderGeo_leftEngineSkin_10" 0
  53 "renderGeo_leftEngineSkin_11" 0
  54 "renderGeo_leftEngineSkin_14" 0
  55 "ENGINE" 0
  56 "BackChairs" 0
  57 "FrontChairs" 0
end
skeleton
  time 0
    0 -2560.000000 5376.000000 192.000000 1.570674 0.000183 -0.000183
    1 3158.000000 -36.750000 6736.000000 0.062565 1.252846 -0.264926
    2 3776.000000 9.992188 5940.000000 -2.420935 -0.043830 -2.677930
    3 3790.000000 -25.187500 10648.000000 -2.479637 0.062050 -2.824382
    4 2378.000000 -6.886719 10056.000000 -0.233263 0.984003 -0.420141
    5 3882.000000 -36.406250 6728.000000 -0.222523 -1.370455 0.605835
    6 3878.000000 3.013672 6680.000000 -1.102726 -1.211588 1.529193
    7 3848.000000 -259.250000 7116.000000 0.705070 -0.596460 -2.809619
    8 7008.000000 -19.406250 7192.000000 0.226252 0.129281 0.203963
    9 2964.000000 6.300781 6520.000000 -1.973683 -0.123029 -1.214605
    10 6216.000000 -569.000000 11120.000000 0.338692 0.110991 1.215822
    11 1881.000000 -684.500000 11512.000000 0.175695 0.038011 1.178390
    12 2378.000000 -1.838867 10056.000000 -0.240077 0.980225 -0.434993
    13 2376.000000 -7.644531 10056.000000 -0.232621 0.984110 -0.417278
    14 4308.000000 84.437500 6516.000000 2.711544 0.391472 1.917492
    15 4034.000000 -538.000000 7132.000000 -3.007650 -0.048413 -1.991356
    16 4168.000000 -705.500000 6624.000000 -3.022502 0.106041 -1.815724
    17 7008.000000 -24.031250 7192.000000 0.227035 0.129146 0.198195
    18 7004.000000 -16.718750 7192.000000 0.226239 0.129187 0.207166
    19 4296.000000 -376.250000 6424.000000 1.114272 -0.082223 -1.739045
    20 3538.000000 87.312500 6628.000000 2.584590 1.090617 2.611917
    21 4064.000000 -378.750000 6308.000000 0.371365 -0.030876 -1.744628
    22 4340.000000 -53.156250 7028.000000 -2.750060 0.073162 1.383280
    23 3142.000000 -14.421875 7860.000000 -0.723103 -0.000015 1.570757
    24 3142.000000 -271.500000 6700.000000 1.350876 -0.568270 1.449531
    25 3348.000000 -152.625000 6800.000000 2.191921 0.250143 1.006237
    26 3502.000000 8.218750 5876.000000 2.232844 -0.000138 -1.570777
    27 2954.000000 -44.781250 7044.000000 2.362764 0.011867 -1.417586
    28 3434.000000 -313.250000 6892.000000 3.009390 1.419415 -0.796726
    29 4344.000000 -515.500000 6040.000000 1.937756 0.829024 -1.137061
    30 3744.000000 -130.500000 6708.000000 3.034392 -0.118503 -2.695113
    31 3984.000000 -184.625000 6460.000000 3.129775 0.419441 -2.626710
    32 3700.000000 138.125000 6316.000000 -2.696272 1.051562 -3.116386
    33 4050.000000 -387.000000 6280.000000 0.243375 0.010203 2.957692
    34 4042.000000 -392.000000 5952.000000 -1.401199 -0.660742 -2.096128
    35 4256.000000 -444.000000 6660.000000 2.161455 -0.407663 -2.021837
    36 4680.000000 -359.500000 5724.000000 2.640947 1.394642 -0.703962
    37 3976.000000 91.625000 6176.000000 1.404235 0.450738 1.586700
    38 4164.000000 137.500000 6256.000000 0.256867 0.441218 0.616920
    39 3569.492432 -318.576233 6350.866699 -1.283641 0.173458 -1.585833
    40 4160.000000 140.250000 6260.000000 0.256906 0.431846 0.641201
    41 4164.000000 137.250000 6256.000000 0.254974 0.441309 0.616834
    42 4164.000000 137.250000 6256.000000 0.254974 0.441309 0.616834
    43 4412.000000 -105.875000 5940.000000 -0.319181 -0.023798 -2.447909
    44 3374.000000 -503.750000 5372.000000 0.381723 -0.722363 2.390205
    45 3676.000000 85.062500 5712.000000 2.244328 -1.267102 -2.283625
    46 3638.000000 -528.000000 6260.000000 -2.396003 1.405723 0.002977
    47 3030.000000 -299.250000 6156.000000 -2.763422 0.022197 -0.486267
    48 3426.000000 -323.500000 5856.000000 -2.954885 0.826923 -1.030068
    49 2924.000000 84.687500 6024.000000 -2.656371 0.465386 -2.163061
    50 3574.000000 102.312500 5196.000000 0.894793 -0.877799 -0.651135
    51 3716.000000 -88.625000 6836.000000 2.428128 0.927736 -1.790818
    52 3598.000000 -623.500000 5232.000000 -0.942273 0.333613 1.223560
    53 3498.000000 227.625000 5352.000000 -0.593524 0.428221 -1.108770
    54 1602.000000 -404.000000 10224.000000 -2.386155 0.634892 -2.678009
    55 3442.000000 67.312500 5860.000000 -2.742877 1.049273 -2.662139
    56 3378.000000 95.562500 6744.000000 -2.779903 0.949971 -2.458117
    57 3378.000000 106.500000 6748.000000 -2.895930 1.007344 -2.573422
end
