// Created by Crowbar 0.74
version 1
nodes
  0 "static_prop" -1
end
skeleton
  time 0
    0 0.000000 0.000000 0.000000 0.000000 0.000000 0.000000
end
triangles
  phy
    0 35.198199 1.003195 45.011081 -0.928053 0.121763 0.351983 0 0
    0 31.070545 1.003196 37.102056 -0.968758 0.119430 0.217359 0 0
    0 29.962565 1.003196 35.482443 -0.999971 0.005941 0.004836 0 0
  phy
    0 35.198199 1.003195 45.011081 -0.928053 0.121763 0.351983 0 0
    0 29.962565 1.003196 35.482443 -0.999971 0.005941 0.004836 0 0
    0 36.556280 1.003193 51.999942 -0.975255 -0.212884 0.059648 0 0
  phy
    0 36.556280 1.003193 51.999942 -0.975255 -0.212884 0.059648 0 0
    0 29.962565 1.003196 35.482443 -0.999971 0.005941 0.004836 0 0
    0 0.067577 1.003170 52.000003 -0.998383 -0.041274 -0.039090 0 0
  phy
    0 0.067577 1.003170 52.000003 -0.998383 -0.041274 -0.039090 0 0
    0 29.962565 1.003196 35.482443 -0.999971 0.005941 0.004836 0 0
    0 5.089181 1.003189 15.953717 -0.997624 0.055922 0.040248 0 0
  phy
    0 0.067577 1.003170 52.000003 -0.998383 -0.041274 -0.039090 0 0
    0 5.089181 1.003189 15.953717 -0.997624 0.055922 0.040248 0 0
    0 0.067589 1.003185 17.442735 -0.789065 0.033380 -0.613403 0 0
  phy
    0 0.067589 1.003185 17.442735 -0.789065 0.033380 -0.613403 0 0
    0 5.089181 1.003189 15.953717 -0.997624 0.055922 0.040248 0 0
    0 3.016746 1.003188 15.885241 -0.955790 0.281918 -0.083596 0 0
  phy
    0 1.824264 -0.661532 11.277931 -0.844866 0.522403 -0.115313 0 0
    0 3.016746 1.003188 15.885241 -0.955790 0.281918 -0.083596 0 0
    0 5.089181 1.003189 15.953717 -0.997624 0.055922 0.040248 0 0
  phy
    0 3.016746 1.003188 15.885241 -0.955790 0.281918 -0.083596 0 0
    0 1.824264 -0.661532 11.277931 -0.844866 0.522403 -0.115313 0 0
    0 0.067589 1.003185 17.442735 -0.789065 0.033380 -0.613403 0 0
  phy
    0 1.824264 -0.661532 11.277931 -0.844866 0.522403 -0.115313 0 0
    0 5.089181 1.003189 15.953717 -0.997624 0.055922 0.040248 0 0
    0 5.209742 -1.003197 12.725371 0.992372 0.098507 0.074117 0 0
  phy
    0 1.824264 -0.661532 11.277931 -0.844866 0.522403 -0.115313 0 0
    0 5.209742 -1.003197 12.725371 0.992372 0.098507 0.074117 0 0
    0 0.067577 -1.003197 13.479851 0.923588 0.024255 -0.382619 0 0
  phy
    0 1.824264 -0.661532 11.277931 -0.844866 0.522403 -0.115313 0 0
    0 0.067577 -1.003197 13.479851 0.923588 0.024255 -0.382619 0 0
    0 0.067589 1.003185 17.442735 -0.789065 0.033380 -0.613403 0 0
  phy
    0 31.883203 0.625264 35.912341 -0.810393 0.435803 0.391585 0 0
    0 35.198199 1.003195 45.011081 -0.928053 0.121763 0.351983 0 0
    0 35.772845 -0.661542 39.334508 -0.265149 0.368690 0.890934 0 0
  phy
    0 35.198199 1.003195 45.011081 -0.928053 0.121763 0.351983 0 0
    0 31.883203 0.625264 35.912341 -0.810393 0.435803 0.391585 0 0
    0 31.070545 1.003196 37.102056 -0.968758 0.119430 0.217359 0 0
  phy
    0 31.883203 0.625264 35.912341 -0.810393 0.435803 0.391585 0 0
    0 29.962565 1.003196 35.482443 -0.999971 0.005941 0.004836 0 0
    0 31.070545 1.003196 37.102056 -0.968758 0.119430 0.217359 0 0
  phy
    0 31.883203 0.625264 35.912341 -0.810393 0.435803 0.391585 0 0
    0 35.772845 -0.661542 39.334508 -0.265149 0.368690 0.890934 0 0
    0 31.367925 -0.625269 33.869875 -0.433738 0.681966 0.588891 0 0
  phy
    0 29.962565 1.003196 35.482443 -0.999971 0.005941 0.004836 0 0
    0 31.883203 0.625264 35.912341 -0.810393 0.435803 0.391585 0 0
    0 5.089181 1.003189 15.953717 -0.997624 0.055922 0.040248 0 0
  phy
    0 5.089181 1.003189 15.953717 -0.997624 0.055922 0.040248 0 0
    0 31.883203 0.625264 35.912341 -0.810393 0.435803 0.391585 0 0
    0 5.209742 -1.003197 12.725371 0.992372 0.098507 0.074117 0 0
  phy
    0 31.883203 0.625264 35.912341 -0.810393 0.435803 0.391585 0 0
    0 31.367925 -0.625269 33.869875 -0.433738 0.681966 0.588891 0 0
    0 5.209742 -1.003197 12.725371 0.992372 0.098507 0.074117 0 0
  phy
    0 0.067577 -1.003199 52.000003 0.994712 -0.072967 -0.072282 0 0
    0 36.706511 -1.003197 43.454649 0.999267 0.007263 0.037575 0 0
    0 37.349094 -1.003198 52.000003 0.971925 -0.229142 0.053443 0 0
  phy
    0 0.067577 -1.003199 52.000003 0.994712 -0.072967 -0.072282 0 0
    0 27.373100 -1.003197 30.982058 0.999925 0.008651 0.008623 0 0
    0 36.706511 -1.003197 43.454649 0.999267 0.007263 0.037575 0 0
  phy
    0 0.067577 -1.003199 52.000003 0.994712 -0.072967 -0.072282 0 0
    0 5.209742 -1.003197 12.725371 0.992372 0.098507 0.074117 0 0
    0 27.373100 -1.003197 30.982058 0.999925 0.008651 0.008623 0 0
  phy
    0 0.067577 -1.003199 52.000003 0.994712 -0.072967 -0.072282 0 0
    0 0.067577 -1.003197 13.479851 0.923588 0.024255 -0.382619 0 0
    0 5.209742 -1.003197 12.725371 0.992372 0.098507 0.074117 0 0
  phy
    0 36.706511 -1.003197 43.454649 0.999267 0.007263 0.037575 0 0
    0 35.772845 -0.661542 39.334508 -0.265149 0.368690 0.890934 0 0
    0 36.556280 1.003193 51.999942 -0.975255 -0.212884 0.059648 0 0
  phy
    0 36.556280 1.003193 51.999942 -0.975255 -0.212884 0.059648 0 0
    0 37.349094 -1.003198 52.000003 0.971925 -0.229142 0.053443 0 0
    0 36.706511 -1.003197 43.454649 0.999267 0.007263 0.037575 0 0
  phy
    0 27.373100 -1.003197 30.982058 0.999925 0.008651 0.008623 0 0
    0 35.772845 -0.661542 39.334508 -0.265149 0.368690 0.890934 0 0
    0 36.706511 -1.003197 43.454649 0.999267 0.007263 0.037575 0 0
  phy
    0 35.198199 1.003195 45.011081 -0.928053 0.121763 0.351983 0 0
    0 36.556280 1.003193 51.999942 -0.975255 -0.212884 0.059648 0 0
    0 35.772845 -0.661542 39.334508 -0.265149 0.368690 0.890934 0 0
  phy
    0 0.067577 1.003170 52.000003 -0.998383 -0.041274 -0.039090 0 0
    0 0.067577 -1.003199 52.000003 0.994712 -0.072967 -0.072282 0 0
    0 36.556280 1.003193 51.999942 -0.975255 -0.212884 0.059648 0 0
  phy
    0 0.067577 -1.003199 52.000003 0.994712 -0.072967 -0.072282 0 0
    0 37.349094 -1.003198 52.000003 0.971925 -0.229142 0.053443 0 0
    0 36.556280 1.003193 51.999942 -0.975255 -0.212884 0.059648 0 0
  phy
    0 0.067577 1.003170 52.000003 -0.998383 -0.041274 -0.039090 0 0
    0 0.067589 1.003185 17.442735 -0.789065 0.033380 -0.613403 0 0
    0 0.067577 -1.003199 52.000003 0.994712 -0.072967 -0.072282 0 0
  phy
    0 0.067577 -1.003199 52.000003 0.994712 -0.072967 -0.072282 0 0
    0 0.067589 1.003185 17.442735 -0.789065 0.033380 -0.613403 0 0
    0 0.067577 -1.003197 13.479851 0.923588 0.024255 -0.382619 0 0
  phy
    0 31.367925 -0.625269 33.869875 -0.433738 0.681966 0.588891 0 0
    0 35.772845 -0.661542 39.334508 -0.265149 0.368690 0.890934 0 0
    0 27.373100 -1.003197 30.982058 0.999925 0.008651 0.008623 0 0
  phy
    0 27.373100 -1.003197 30.982058 0.999925 0.008651 0.008623 0 0
    0 5.209742 -1.003197 12.725371 0.992372 0.098507 0.074117 0 0
    0 31.367925 -0.625269 33.869875 -0.433738 0.681966 0.588891 0 0
end
