// Created by Crowbar 0.74
version 1
nodes
  0 "bip_pelvis" -1
  1 "bip_spine_0" 0
  2 "bip_spine_1" 1
  3 "bip_spine_2" 2
  4 "bip_spine_3" 3
  5 "bip_collar_R" 4
  6 "bip_upperArm_R" 5
  7 "bip_lowerArm_R" 6
  8 "bip_hand_R" 7
  9 "bip_hip_L" 0
  10 "bip_knee_L" 9
  11 "bip_foot_L" 10
  12 "bip_hip_R" 0
  13 "bip_knee_R" 12
  14 "bip_foot_R" 13
  15 "bip_neck" 4
  16 "bip_head" 15
  17 "bip_collar_L" 4
  18 "bip_upperArm_L" 17
  19 "bip_lowerArm_L" 18
  20 "bip_hand_L" 19
  21 "bip_thumb_0_R" 8
  22 "bip_thumb_1_R" 21
  23 "bip_thumb_2_R" 22
  24 "bip_index_0_R" 8
  25 "bip_index_1_R" 24
  26 "bip_index_2_R" 25
  27 "bip_middle_0_R" 8
  28 "bip_middle_1_R" 27
  29 "bip_middle_2_R" 28
  30 "bip_ring_0_R" 8
  31 "bip_ring_1_R" 30
  32 "bip_ring_2_R" 31
  33 "bip_pinky_0_R" 8
  34 "bip_pinky_1_R" 33
  35 "bip_pinky_2_R" 34
  36 "bip_toe_L" 11
  37 "bip_toe_R" 14
end
skeleton
  time 0
    0 0.761230 8.742188 41.937500 -0.903808 -0.404808 0.141094
    1 0.000000 -5.355259 0.000000 0.099449 -0.153376 -0.138903
    2 0.000000 -7.488277 -0.000001 0.329873 -0.032871 0.035374
    3 0.000000 -5.597980 0.000000 0.377770 -0.008979 0.028112
    4 0.000000 -6.565113 -0.000001 0.757829 -0.011460 0.043794
    5 -1.549380 -5.102886 -4.074768 2.293223 -0.523631 -1.267046
    6 -0.000053 11.987244 0.000028 0.268952 -1.328272 2.144799
    7 20.109314 0.000000 -0.000002 1.406542 -1.196232 -3.043741
    8 19.941738 0.000001 -0.000004 1.112488 -0.379679 -2.775192
    9 6.938272 1.999413 -1.014580 3.070086 0.455796 1.830376
    10 20.710249 -0.000001 0.000000 3.141593 1.503666 3.141593
    11 18.105982 0.000001 0.000000 -0.851260 0.479059 1.574267
    12 -6.938270 1.999409 -1.014579 2.521991 0.980484 2.460814
    13 20.710224 0.000000 0.000000 0.000000 0.000000 1.098897
    14 18.106007 0.000000 -0.000001 2.615611 -1.329701 0.605821
    15 0.000000 -6.555973 0.000000 -0.093084 0.073409 0.310674
    16 0.000000 -3.252140 0.000004 -1.613871 -0.028649 -0.505530
    17 1.548545 -4.925743 -4.285366 -2.731896 -0.730360 -1.699645
    18 1.190170 -10.472042 -0.306138 1.353248 -0.238019 -0.934260
    19 0.000008 0.000000 15.020973 -0.201994 -0.066154 0.008339
    20 0.000004 -0.000001 8.039619 0.000000 0.000000 0.318947
    21 2.899849 -0.471046 -4.331210 -0.449452 -0.559880 -0.709305
    22 -0.000025 2.543312 0.000026 0.221028 0.000000 0.000000
    23 0.000059 2.315285 -0.000040 0.100872 0.000000 0.000000
    24 1.551407 3.956631 -3.900798 2.695900 -1.367576 -3.120852
    25 0.000000 2.741436 -0.000004 -0.256296 0.000000 0.000000
    26 0.000010 2.668510 0.000050 -0.190586 0.000000 0.000000
    27 1.401100 3.639805 -1.202109 2.031148 -1.355830 -2.447084
    28 0.000003 2.810951 0.000004 -0.256296 0.000000 0.000000
    29 -0.000005 2.736202 -0.000031 -0.190586 0.000000 0.000000
    30 1.335663 3.182098 1.418086 0.980184 -1.251585 -1.415249
    31 -0.000003 2.663269 0.000046 -0.256296 0.000000 0.000000
    32 0.000001 2.592527 -0.000031 -0.190586 0.000000 0.000000
    33 1.344765 1.881123 3.809589 1.120332 -1.203080 -1.477339
    34 0.000011 2.315664 -0.000084 -0.256296 0.000000 0.000000
    35 -0.000006 2.254017 0.000076 -0.190586 0.000000 0.000000
    36 0.011267 -6.809892 1.974034 -0.607868 0.000000 0.000000
    37 -0.011248 6.809885 -1.974043 -0.607868 0.000000 0.000000
  time 1
    0 0.349121 -4.177946 41.531250 -0.879308 -0.359758 0.105062
    1 0.000000 -5.355259 0.000000 0.105275 -0.157089 -0.140693
    2 0.000000 -7.488277 -0.000001 0.326583 -0.042444 0.025181
    3 0.000000 -5.597980 0.000000 0.376696 -0.028192 0.025324
    4 0.000000 -6.565113 -0.000001 0.746058 -0.041922 0.052831
    5 -1.549380 -5.102886 -4.074768 2.293223 -0.523631 -1.267046
    6 -0.000053 11.987244 0.000028 0.268952 -1.328272 2.144799
    7 20.109314 0.000000 -0.000002 1.406542 -1.196232 -3.043741
    8 19.941738 0.000001 -0.000004 1.112488 -0.379679 -2.775192
    9 6.938272 1.999413 -1.014580 3.103480 0.638200 1.851885
    10 20.710249 -0.000001 0.000000 -3.141593 1.252568 -3.141593
    11 18.105982 0.000001 0.000000 -0.973071 0.565806 1.594818
    12 -6.938270 1.999409 -1.014579 2.338780 0.922896 2.240313
    13 20.710224 0.000000 0.000000 0.000000 0.000000 1.076785
    14 18.106007 0.000000 -0.000001 2.449076 -1.332139 0.700944
    15 0.000000 -6.555973 0.000000 -0.156547 0.056710 0.285777
    16 0.000000 -3.252140 0.000004 -1.532374 0.049708 -0.531992
    17 1.548545 -4.925743 -4.285366 -2.673957 -0.725359 -1.743833
    18 1.190170 -10.472042 -0.306138 1.353248 -0.238019 -0.934260
    19 0.000008 0.000000 15.020973 -0.201994 -0.066154 0.008339
    20 0.000004 -0.000001 8.039619 0.000000 0.000000 0.318947
    21 2.899849 -0.471046 -4.331210 -0.449452 -0.559880 -0.709305
    22 -0.000025 2.543312 0.000026 0.221028 0.000000 0.000000
    23 0.000059 2.315285 -0.000040 0.100872 0.000000 0.000000
    24 1.551407 3.956631 -3.900798 2.695900 -1.367576 -3.120852
    25 0.000000 2.741436 -0.000004 -0.256296 0.000000 0.000000
    26 0.000010 2.668510 0.000050 -0.190586 0.000000 0.000000
    27 1.401100 3.639805 -1.202109 2.031148 -1.355830 -2.447084
    28 0.000003 2.810951 0.000004 -0.256296 0.000000 0.000000
    29 -0.000005 2.736202 -0.000031 -0.190586 0.000000 0.000000
    30 1.335663 3.182098 1.418086 0.980184 -1.251585 -1.415249
    31 -0.000003 2.663269 0.000046 -0.256296 0.000000 0.000000
    32 0.000001 2.592527 -0.000031 -0.190586 0.000000 0.000000
    33 1.344765 1.881123 3.809589 1.120332 -1.203080 -1.477339
    34 0.000011 2.315664 -0.000084 -0.256296 0.000000 0.000000
    35 -0.000006 2.254017 0.000076 -0.190586 0.000000 0.000000
    36 0.011267 -6.809892 1.974034 -0.607868 0.000000 0.000000
    37 -0.011248 6.809885 -1.974043 -0.607868 0.000000 0.000000
  time 2
    0 -0.539551 -28.180111 40.406250 -0.865629 -0.337806 0.072034
    1 0.000000 -5.355259 0.000000 0.052258 -0.207178 -0.070268
    2 0.000000 -7.488277 -0.000001 0.359907 -0.065428 0.017887
    3 0.000000 -5.597980 0.000000 0.376310 -0.071646 0.032238
    4 0.000000 -6.565113 -0.000001 0.727669 -0.099141 0.074602
    5 -1.549380 -5.102886 -4.074768 2.293223 -0.523631 -1.267046
    6 -0.000053 11.987244 0.000028 0.268952 -1.328272 2.144799
    7 20.109314 0.000000 -0.000002 1.406542 -1.196232 -3.043741
    8 19.941738 0.000001 -0.000004 1.112488 -0.379679 -2.775192
    9 6.938272 1.999413 -1.014580 -2.807282 1.011585 2.131919
    10 20.710249 -0.000001 0.000000 3.141593 0.975488 3.141593
    11 18.105982 0.000001 0.000000 -1.303392 0.484907 1.569815
    12 -6.938270 1.999409 -1.014579 2.224528 0.377469 1.891906
    13 20.710224 0.000000 0.000000 0.000000 0.000000 0.634234
    14 18.106007 0.000000 -0.000001 2.108598 -1.181860 1.170519
    15 0.000000 -6.555973 0.000000 -0.180254 0.008695 0.138811
    16 0.000000 -3.252140 0.000004 -1.550320 0.127775 -0.530271
    17 1.548545 -4.925743 -4.285366 -2.500315 -0.690314 -1.941645
    18 1.190170 -10.472042 -0.306138 1.353248 -0.238019 -0.934260
    19 0.000008 0.000000 15.020973 -0.201994 -0.066154 0.008339
    20 0.000004 -0.000001 8.039619 0.000000 0.000000 0.318947
    21 2.899849 -0.471046 -4.331210 -0.449452 -0.559880 -0.709305
    22 -0.000025 2.543312 0.000026 0.221028 0.000000 0.000000
    23 0.000059 2.315285 -0.000040 0.100872 0.000000 0.000000
    24 1.551407 3.956631 -3.900798 2.695900 -1.367576 -3.120852
    25 0.000000 2.741436 -0.000004 -0.256296 0.000000 0.000000
    26 0.000010 2.668510 0.000050 -0.190586 0.000000 0.000000
    27 1.401100 3.639805 -1.202109 2.031148 -1.355830 -2.447084
    28 0.000003 2.810951 0.000004 -0.256296 0.000000 0.000000
    29 -0.000005 2.736202 -0.000031 -0.190586 0.000000 0.000000
    30 1.335663 3.182098 1.418086 0.980184 -1.251585 -1.415249
    31 -0.000003 2.663269 0.000046 -0.256296 0.000000 0.000000
    32 0.000001 2.592527 -0.000031 -0.190586 0.000000 0.000000
    33 1.344765 1.881123 3.809589 1.120332 -1.203080 -1.477339
    34 0.000011 2.315664 -0.000084 -0.256296 0.000000 0.000000
    35 -0.000006 2.254017 0.000076 -0.190586 0.000000 0.000000
    36 0.011267 -6.809892 1.974034 -0.607868 0.000000 0.000000
    37 -0.011248 6.809885 -1.974043 -0.607868 0.000000 0.000000
  time 3
    0 -0.840820 -47.744775 40.875000 -0.735776 -0.456619 -0.039513
    1 0.000000 -5.355259 0.000000 -0.138277 -0.255464 0.167071
    2 0.000000 -7.488277 -0.000001 0.353237 -0.087713 0.032372
    3 0.000000 -5.597980 0.000000 0.372037 -0.109801 0.054343
    4 0.000000 -6.565113 -0.000001 0.742101 -0.141135 0.093999
    5 -1.549380 -5.102886 -4.074768 2.293223 -0.523631 -1.267046
    6 -0.000053 11.987244 0.000028 0.268952 -1.328272 2.144799
    7 20.109314 0.000000 -0.000002 1.406542 -1.196232 -3.043741
    8 19.941738 0.000001 -0.000004 1.112488 -0.379679 -2.775192
    9 6.938272 1.999413 -1.014580 -2.063431 1.114156 2.919759
    10 20.710249 -0.000001 0.000000 -3.141593 1.274273 -3.141593
    11 18.105982 0.000001 0.000000 -1.388260 0.546956 1.570714
    12 -6.938270 1.999409 -1.014579 2.432903 0.030340 1.842675
    13 20.710224 0.000000 0.000000 0.000000 0.000000 0.000000
    14 18.106007 0.000000 -0.000001 2.379712 -1.038022 1.767705
    15 0.000000 -6.555973 0.000000 0.026301 -0.013779 -0.033878
    16 0.000000 -3.252140 0.000004 -1.631552 0.110385 -0.538554
    17 1.548545 -4.925743 -4.285366 -2.385747 -0.645881 -2.094806
    18 1.190170 -10.472042 -0.306138 1.353248 -0.238019 -0.934260
    19 0.000008 0.000000 15.020973 -0.201994 -0.066154 0.008339
    20 0.000004 -0.000001 8.039619 0.000000 0.000000 0.318947
    21 2.899849 -0.471046 -4.331210 -0.449452 -0.559880 -0.709305
    22 -0.000025 2.543312 0.000026 0.221028 0.000000 0.000000
    23 0.000059 2.315285 -0.000040 0.100872 0.000000 0.000000
    24 1.551407 3.956631 -3.900798 2.695900 -1.367576 -3.120852
    25 0.000000 2.741436 -0.000004 -0.256296 0.000000 0.000000
    26 0.000010 2.668510 0.000050 -0.190586 0.000000 0.000000
    27 1.401100 3.639805 -1.202109 2.031148 -1.355830 -2.447084
    28 0.000003 2.810951 0.000004 -0.256296 0.000000 0.000000
    29 -0.000005 2.736202 -0.000031 -0.190586 0.000000 0.000000
    30 1.335663 3.182098 1.418086 0.980184 -1.251585 -1.415249
    31 -0.000003 2.663269 0.000046 -0.256296 0.000000 0.000000
    32 0.000001 2.592527 -0.000031 -0.190586 0.000000 0.000000
    33 1.344765 1.881123 3.809589 1.120332 -1.203080 -1.477339
    34 0.000011 2.315664 -0.000084 -0.256296 0.000000 0.000000
    35 -0.000006 2.254017 0.000076 -0.190586 0.000000 0.000000
    36 0.011267 -6.809892 1.974034 -0.607868 0.000000 0.000000
    37 -0.011248 6.809885 -1.974043 -0.607868 0.000000 0.000000
  time 4
    0 -1.549805 -66.377799 42.937500 -0.770363 -0.431074 -0.027863
    1 0.000000 -5.355259 0.000000 -0.133929 -0.255812 0.148215
    2 0.000000 -7.488277 -0.000001 0.366268 -0.102088 0.052814
    3 0.000000 -5.597980 0.000000 0.380326 -0.131646 0.069334
    4 0.000000 -6.565113 -0.000001 0.785015 -0.174335 0.092602
    5 -1.549380 -5.102886 -4.074768 2.293223 -0.523631 -1.267046
    6 -0.000053 11.987244 0.000028 0.268952 -1.328272 2.144799
    7 20.109314 0.000000 -0.000002 1.406542 -1.196232 -3.043741
    8 19.941738 0.000001 -0.000004 1.112488 -0.379679 -2.775192
    9 6.938272 1.999413 -1.014580 -1.850505 1.043926 2.972875
    10 20.710249 -0.000001 0.000000 0.000000 1.335840 0.000000
    11 18.105982 0.000001 0.000000 -1.361293 0.730596 1.530912
    12 -6.938270 1.999409 -1.014579 1.808977 -0.118698 1.768541
    13 20.710224 0.000000 0.000000 0.000000 0.000000 0.000000
    14 18.106007 0.000000 -0.000001 -0.081264 -1.501792 -1.727198
    15 0.000000 -6.555973 0.000000 0.255316 -0.062756 -0.086020
    16 0.000000 -3.252140 0.000004 -1.708589 0.064306 -0.534883
    17 1.548545 -4.925743 -4.285366 -2.391688 -0.659374 -2.026329
    18 1.190170 -10.472042 -0.306138 1.353248 -0.238019 -0.934260
    19 0.000008 0.000000 15.020973 -0.201994 -0.066154 0.008339
    20 0.000004 -0.000001 8.039619 0.000000 0.000000 0.318947
    21 2.899849 -0.471046 -4.331210 -0.449452 -0.559880 -0.709305
    22 -0.000025 2.543312 0.000026 0.221028 0.000000 0.000000
    23 0.000059 2.315285 -0.000040 0.100872 0.000000 0.000000
    24 1.551407 3.956631 -3.900798 2.695900 -1.367576 -3.120852
    25 0.000000 2.741436 -0.000004 -0.256296 0.000000 0.000000
    26 0.000010 2.668510 0.000050 -0.190586 0.000000 0.000000
    27 1.401100 3.639805 -1.202109 2.031148 -1.355830 -2.447084
    28 0.000003 2.810951 0.000004 -0.256296 0.000000 0.000000
    29 -0.000005 2.736202 -0.000031 -0.190586 0.000000 0.000000
    30 1.335663 3.182098 1.418086 0.980184 -1.251585 -1.415249
    31 -0.000003 2.663269 0.000046 -0.256296 0.000000 0.000000
    32 0.000001 2.592527 -0.000031 -0.190586 0.000000 0.000000
    33 1.344765 1.881123 3.809589 1.120332 -1.203080 -1.477339
    34 0.000011 2.315664 -0.000084 -0.256296 0.000000 0.000000
    35 -0.000006 2.254017 0.000076 -0.190586 0.000000 0.000000
    36 0.011267 -6.809892 1.974034 -0.607868 0.000000 0.000000
    37 -0.011248 6.809885 -1.974043 -0.607868 0.000000 0.000000
  time 5
    0 -1.864258 -79.749105 43.625000 -0.853777 -0.419654 0.028964
    1 0.000000 -5.355259 0.000000 -0.068017 -0.243358 0.110373
    2 0.000000 -7.488277 -0.000001 0.385736 -0.094992 0.053045
    3 0.000000 -5.597980 0.000000 0.395611 -0.118603 0.065398
    4 0.000000 -6.565113 -0.000001 0.804883 -0.163691 0.080530
    5 -1.549380 -5.102886 -4.074768 2.293223 -0.523631 -1.267046
    6 -0.000053 11.987244 0.000028 0.268952 -1.328272 2.144799
    7 20.109314 0.000000 -0.000002 1.406542 -1.196232 -3.043741
    8 19.941738 0.000001 -0.000004 1.112488 -0.379679 -2.775192
    9 6.938272 1.999413 -1.014580 -1.931566 0.949789 2.769640
    10 20.710249 -0.000001 0.000000 0.000000 1.031867 0.000000
    11 18.105982 0.000001 0.000000 -1.274934 0.730444 1.533384
    12 -6.938270 1.999409 -1.014579 1.841820 -0.134170 1.720425
    13 20.710224 0.000000 0.000000 0.000000 0.000000 0.242783
    14 18.106007 0.000000 -0.000001 -0.134027 -1.524461 -1.723098
    15 0.000000 -6.555973 0.000000 0.373569 -0.078533 -0.063713
    16 0.000000 -3.252140 0.000004 -1.830138 0.008466 -0.526815
    17 1.548545 -4.925743 -4.285366 -2.437630 -0.682426 -1.933559
    18 1.190170 -10.472042 -0.306138 1.353248 -0.238019 -0.934260
    19 0.000008 0.000000 15.020973 -0.201994 -0.066154 0.008339
    20 0.000004 -0.000001 8.039619 0.000000 0.000000 0.318947
    21 2.899849 -0.471046 -4.331210 -0.449452 -0.559880 -0.709305
    22 -0.000025 2.543312 0.000026 0.221028 0.000000 0.000000
    23 0.000059 2.315285 -0.000040 0.100872 0.000000 0.000000
    24 1.551407 3.956631 -3.900798 2.695900 -1.367576 -3.120852
    25 0.000000 2.741436 -0.000004 -0.256296 0.000000 0.000000
    26 0.000010 2.668510 0.000050 -0.190586 0.000000 0.000000
    27 1.401100 3.639805 -1.202109 2.031148 -1.355830 -2.447084
    28 0.000003 2.810951 0.000004 -0.256296 0.000000 0.000000
    29 -0.000005 2.736202 -0.000031 -0.190586 0.000000 0.000000
    30 1.335663 3.182098 1.418086 0.980184 -1.251585 -1.415249
    31 -0.000003 2.663269 0.000046 -0.256296 0.000000 0.000000
    32 0.000001 2.592527 -0.000031 -0.190586 0.000000 0.000000
    33 1.344765 1.881123 3.809589 1.120332 -1.203080 -1.477339
    34 0.000011 2.315664 -0.000084 -0.256296 0.000000 0.000000
    35 -0.000006 2.254017 0.000076 -0.190586 0.000000 0.000000
    36 0.011267 -6.809892 1.974034 -0.607868 0.000000 0.000000
    37 -0.011248 6.809885 -1.974043 -0.607868 0.000000 0.000000
  time 6
    0 -2.177734 -93.192676 44.343750 -0.937431 -0.408259 0.086267
    1 0.000000 -5.355259 0.000000 -0.001533 -0.230770 0.072082
    2 0.000000 -7.488277 -0.000001 0.405117 -0.087764 0.053327
    3 0.000000 -5.597980 0.000000 0.410943 -0.105441 0.061310
    4 0.000000 -6.565113 -0.000001 0.824717 -0.152849 0.068560
    5 -1.549380 -5.102886 -4.074768 2.293223 -0.523631 -1.267046
    6 -0.000053 11.987244 0.000028 0.268952 -1.328272 2.144799
    7 20.109314 0.000000 -0.000002 1.406542 -1.196232 -3.043741
    8 19.941738 0.000001 -0.000004 1.112488 -0.379679 -2.775192
    9 6.938272 1.999413 -1.014580 -2.072383 0.816437 2.477913
    10 20.710249 -0.000001 0.000000 0.000000 0.569620 0.000000
    11 18.105982 0.000001 0.000000 -1.107183 0.762947 1.596643
    12 -6.938270 1.999409 -1.014579 1.870202 -0.124343 1.682570
    13 20.710224 0.000000 0.000000 0.000000 0.000000 0.553422
    14 18.106007 0.000000 -0.000001 -0.327500 -1.529627 -1.618938
    15 0.000000 -6.555973 0.000000 0.491884 -0.099470 -0.042251
    16 0.000000 -3.252140 0.000004 -1.974927 -0.065995 -0.534264
    17 1.548545 -4.925743 -4.285366 -2.490103 -0.702350 -1.836445
    18 1.190170 -10.472042 -0.306138 1.353248 -0.238019 -0.934260
    19 0.000008 0.000000 15.020973 -0.201994 -0.066154 0.008339
    20 0.000004 -0.000001 8.039619 0.000000 0.000000 0.318947
    21 2.899849 -0.471046 -4.331210 -0.449452 -0.559880 -0.709305
    22 -0.000025 2.543312 0.000026 0.221028 0.000000 0.000000
    23 0.000059 2.315285 -0.000040 0.100872 0.000000 0.000000
    24 1.551407 3.956631 -3.900798 2.695900 -1.367576 -3.120852
    25 0.000000 2.741436 -0.000004 -0.256296 0.000000 0.000000
    26 0.000010 2.668510 0.000050 -0.190586 0.000000 0.000000
    27 1.401100 3.639805 -1.202109 2.031148 -1.355830 -2.447084
    28 0.000003 2.810951 0.000004 -0.256296 0.000000 0.000000
    29 -0.000005 2.736202 -0.000031 -0.190586 0.000000 0.000000
    30 1.335663 3.182098 1.418086 0.980184 -1.251585 -1.415249
    31 -0.000003 2.663269 0.000046 -0.256296 0.000000 0.000000
    32 0.000001 2.592527 -0.000031 -0.190586 0.000000 0.000000
    33 1.344765 1.881123 3.809589 1.120332 -1.203080 -1.477339
    34 0.000011 2.315664 -0.000084 -0.256296 0.000000 0.000000
    35 -0.000006 2.254017 0.000076 -0.190586 0.000000 0.000000
    36 0.011267 -6.809892 1.974034 -0.607868 0.000000 0.000000
    37 -0.011248 6.809885 -1.974043 -0.607868 0.000000 0.000000
  time 7
    0 -1.859375 -120.003434 42.937500 -0.995990 -0.370050 0.293608
    1 0.000000 -5.355259 0.000000 0.093003 -0.158388 -0.039505
    2 0.000000 -7.488277 -0.000001 0.386767 -0.054579 0.067349
    3 0.000000 -5.597980 0.000000 0.426451 -0.041733 0.045312
    4 0.000000 -6.565113 -0.000001 0.856195 -0.069228 0.037146
    5 -1.549380 -5.102886 -4.074768 2.293223 -0.523631 -1.267046
    6 -0.000053 11.987244 0.000028 0.268952 -1.328272 2.144799
    7 20.109314 0.000000 -0.000002 1.406542 -1.196232 -3.043741
    8 19.941738 0.000001 -0.000004 1.112488 -0.379679 -2.775192
    9 6.938272 1.999413 -1.014580 -2.266530 0.480875 2.101330
    10 20.710249 -0.000001 0.000000 0.000000 0.000000 0.000000
    11 18.105982 0.000001 0.000000 -0.621045 0.652391 1.913907
    12 -6.938270 1.999409 -1.014579 2.242477 0.365782 1.933824
    13 20.710224 0.000000 0.000000 0.000000 0.000000 1.980568
    14 18.106007 0.000000 -0.000001 -1.366849 -1.248256 -1.261708
    15 0.000000 -6.555973 0.000000 0.683737 -0.053971 0.025121
    16 0.000000 -3.252140 0.000004 -2.214386 -0.151548 -0.541251
    17 1.548545 -4.925743 -4.285366 -2.776988 -0.737167 -1.485676
    18 1.190170 -10.472042 -0.306138 1.353248 -0.238019 -0.934260
    19 0.000008 0.000000 15.020973 -0.201994 -0.066154 0.008339
    20 0.000004 -0.000001 8.039619 0.000000 0.000000 0.318947
    21 2.899849 -0.471046 -4.331210 -0.449452 -0.559880 -0.709305
    22 -0.000025 2.543312 0.000026 0.221028 0.000000 0.000000
    23 0.000059 2.315285 -0.000040 0.100872 0.000000 0.000000
    24 1.551407 3.956631 -3.900798 2.695900 -1.367576 -3.120852
    25 0.000000 2.741436 -0.000004 -0.256296 0.000000 0.000000
    26 0.000010 2.668510 0.000050 -0.190586 0.000000 0.000000
    27 1.401100 3.639805 -1.202109 2.031148 -1.355830 -2.447084
    28 0.000003 2.810951 0.000004 -0.256296 0.000000 0.000000
    29 -0.000005 2.736202 -0.000031 -0.190586 0.000000 0.000000
    30 1.335663 3.182098 1.418086 0.980184 -1.251585 -1.415249
    31 -0.000003 2.663269 0.000046 -0.256296 0.000000 0.000000
    32 0.000001 2.592527 -0.000031 -0.190586 0.000000 0.000000
    33 1.344765 1.881123 3.809589 1.120332 -1.203080 -1.477339
    34 0.000011 2.315664 -0.000084 -0.256296 0.000000 0.000000
    35 -0.000006 2.254017 0.000076 -0.190586 0.000000 0.000000
    36 0.011267 -6.809892 1.974034 -0.607868 0.000000 0.000000
    37 -0.011248 6.809885 -1.974043 -0.607868 0.000000 0.000000
  time 8
    0 -1.884766 -137.265365 41.687500 -0.893387 -0.447321 0.433155
    1 0.000000 -5.355259 0.000000 0.063043 -0.127083 -0.002544
    2 0.000000 -7.488277 -0.000001 0.348303 -0.026566 0.092049
    3 0.000000 -5.597980 0.000000 0.418182 0.014061 0.026071
    4 0.000000 -6.565113 -0.000001 0.834467 0.016509 -0.006970
    5 -1.549380 -5.102886 -4.074768 2.293223 -0.523631 -1.267046
    6 -0.000053 11.987244 0.000028 0.268952 -1.328272 2.144799
    7 20.109314 0.000000 -0.000002 1.406542 -1.196232 -3.043741
    8 19.941738 0.000001 -0.000004 1.112488 -0.379679 -2.775192
    9 6.938272 1.999413 -1.014580 -2.370839 0.403700 2.041785
    10 20.710249 -0.000001 0.000000 0.000000 0.000000 0.000000
    11 18.105982 0.000001 0.000000 -0.826849 0.449060 1.799058
    12 -6.938270 1.999409 -1.014579 2.498470 0.726894 2.327007
    13 20.710224 0.000000 0.000000 0.000000 0.000000 2.255465
    14 18.106007 0.000000 -0.000001 -1.677845 -1.328032 -1.368658
    15 0.000000 -6.555973 0.000000 0.476500 -0.004914 0.062129
    16 0.000000 -3.252140 0.000004 -2.199853 -0.144319 -0.516764
    17 1.548545 -4.925743 -4.285366 -2.826851 -0.734764 -1.532824
    18 1.190170 -10.472042 -0.306138 1.353248 -0.238019 -0.934260
    19 0.000008 0.000000 15.020973 -0.201994 -0.066154 0.008339
    20 0.000004 -0.000001 8.039619 0.000000 0.000000 0.318947
    21 2.899849 -0.471046 -4.331210 -0.449452 -0.559880 -0.709305
    22 -0.000025 2.543312 0.000026 0.221028 0.000000 0.000000
    23 0.000059 2.315285 -0.000040 0.100872 0.000000 0.000000
    24 1.551407 3.956631 -3.900798 2.695900 -1.367576 -3.120852
    25 0.000000 2.741436 -0.000004 -0.256296 0.000000 0.000000
    26 0.000010 2.668510 0.000050 -0.190586 0.000000 0.000000
    27 1.401100 3.639805 -1.202109 2.031148 -1.355830 -2.447084
    28 0.000003 2.810951 0.000004 -0.256296 0.000000 0.000000
    29 -0.000005 2.736202 -0.000031 -0.190586 0.000000 0.000000
    30 1.335663 3.182098 1.418086 0.980184 -1.251585 -1.415249
    31 -0.000003 2.663269 0.000046 -0.256296 0.000000 0.000000
    32 0.000001 2.592527 -0.000031 -0.190586 0.000000 0.000000
    33 1.344765 1.881123 3.809589 1.120332 -1.203080 -1.477339
    34 0.000011 2.315664 -0.000084 -0.256296 0.000000 0.000000
    35 -0.000006 2.254017 0.000076 -0.190586 0.000000 0.000000
    36 0.011267 -6.809892 1.974034 -0.607868 0.000000 0.000000
    37 -0.011248 6.809885 -1.974043 -0.607868 0.000000 0.000000
  time 9
    0 -2.035156 -151.511670 41.937500 -0.866868 -0.400375 0.473580
    1 0.000000 -5.355259 0.000000 0.023113 -0.110827 -0.046280
    2 0.000000 -7.488277 -0.000001 0.342921 -0.017336 0.067879
    3 0.000000 -5.597980 0.000000 0.412822 0.028183 0.017003
    4 0.000000 -6.565113 -0.000001 0.828003 0.040924 -0.010289
    5 -1.549380 -5.102886 -4.074768 2.293223 -0.523631 -1.267046
    6 -0.000053 11.987244 0.000028 0.268952 -1.328272 2.144799
    7 20.109314 0.000000 -0.000002 1.406542 -1.196232 -3.043741
    8 19.941738 0.000001 -0.000004 1.112488 -0.379679 -2.775192
    9 6.938272 1.999413 -1.014580 -2.409154 0.352584 1.900234
    10 20.710249 -0.000001 0.000000 0.000000 0.000000 0.000000
    11 18.105982 0.000001 0.000000 -0.825321 0.470430 1.762729
    12 -6.938270 1.999409 -1.014579 2.639294 0.926738 2.538931
    13 20.710224 0.000000 0.000000 0.000000 0.000000 2.195558
    14 18.106007 0.000000 -0.000001 -1.740526 -1.345418 -1.403104
    15 0.000000 -6.555973 0.000000 0.409986 0.000094 0.110543
    16 0.000000 -3.252140 0.000004 -2.087135 -0.125015 -0.506334
    17 1.548545 -4.925743 -4.285366 -2.779295 -0.733871 -1.620920
    18 1.190170 -10.472042 -0.306138 1.353248 -0.238019 -0.934260
    19 0.000008 0.000000 15.020973 -0.201994 -0.066154 0.008339
    20 0.000004 -0.000001 8.039619 0.000000 0.000000 0.318947
    21 2.899849 -0.471046 -4.331210 -0.449452 -0.559880 -0.709305
    22 -0.000025 2.543312 0.000026 0.221028 0.000000 0.000000
    23 0.000059 2.315285 -0.000040 0.100872 0.000000 0.000000
    24 1.551407 3.956631 -3.900798 2.695900 -1.367576 -3.120852
    25 0.000000 2.741436 -0.000004 -0.256296 0.000000 0.000000
    26 0.000010 2.668510 0.000050 -0.190586 0.000000 0.000000
    27 1.401100 3.639805 -1.202109 2.031148 -1.355830 -2.447084
    28 0.000003 2.810951 0.000004 -0.256296 0.000000 0.000000
    29 -0.000005 2.736202 -0.000031 -0.190586 0.000000 0.000000
    30 1.335663 3.182098 1.418086 0.980184 -1.251585 -1.415249
    31 -0.000003 2.663269 0.000046 -0.256296 0.000000 0.000000
    32 0.000001 2.592527 -0.000031 -0.190586 0.000000 0.000000
    33 1.344765 1.881123 3.809589 1.120332 -1.203080 -1.477339
    34 0.000011 2.315664 -0.000084 -0.256296 0.000000 0.000000
    35 -0.000006 2.254017 0.000076 -0.190586 0.000000 0.000000
    36 0.011267 -6.809892 1.974034 -0.607868 0.000000 0.000000
    37 -0.011248 6.809885 -1.974043 -0.607868 0.000000 0.000000
  time 10
    0 -2.185547 -165.677897 42.156250 -0.840587 -0.353674 0.514073
    1 0.000000 -5.355259 0.000000 -0.016107 -0.094607 -0.089949
    2 0.000000 -7.488277 -0.000001 0.337567 -0.008169 0.043934
    3 0.000000 -5.597980 0.000000 0.407430 0.042147 0.008085
    4 0.000000 -6.565113 -0.000001 0.821799 0.065123 -0.013449
    5 -1.549380 -5.102886 -4.074768 2.293223 -0.523631 -1.267046
    6 -0.000053 11.987244 0.000028 0.268952 -1.328272 2.144799
    7 20.109314 0.000000 -0.000002 1.406542 -1.196232 -3.043741
    8 19.941738 0.000001 -0.000004 1.112488 -0.379679 -2.775192
    9 6.938272 1.999413 -1.014580 -2.483772 0.303526 1.761786
    10 20.710249 -0.000001 0.000000 0.000000 0.000000 0.000000
    11 18.105982 0.000001 0.000000 -0.827258 0.453514 1.715901
    12 -6.938270 1.999409 -1.014579 2.839183 1.031749 2.784596
    13 20.710224 0.000000 0.000000 0.000000 0.000000 2.077199
    14 18.106007 0.000000 -0.000001 -1.831433 -1.377463 -1.418457
    15 0.000000 -6.555973 0.000000 0.345625 0.011047 0.160710
    16 0.000000 -3.252140 0.000004 -1.964263 -0.117154 -0.496336
    17 1.548545 -4.925743 -4.285366 -2.734025 -0.729384 -1.707988
    18 1.190170 -10.472042 -0.306138 1.353248 -0.238019 -0.934260
    19 0.000008 0.000000 15.020973 -0.201994 -0.066154 0.008339
    20 0.000004 -0.000001 8.039619 0.000000 0.000000 0.318947
    21 2.899849 -0.471046 -4.331210 -0.449452 -0.559880 -0.709305
    22 -0.000025 2.543312 0.000026 0.221028 0.000000 0.000000
    23 0.000059 2.315285 -0.000040 0.100872 0.000000 0.000000
    24 1.551407 3.956631 -3.900798 2.695900 -1.367576 -3.120852
    25 0.000000 2.741436 -0.000004 -0.256296 0.000000 0.000000
    26 0.000010 2.668510 0.000050 -0.190586 0.000000 0.000000
    27 1.401100 3.639805 -1.202109 2.031148 -1.355830 -2.447084
    28 0.000003 2.810951 0.000004 -0.256296 0.000000 0.000000
    29 -0.000005 2.736202 -0.000031 -0.190586 0.000000 0.000000
    30 1.335663 3.182098 1.418086 0.980184 -1.251585 -1.415249
    31 -0.000003 2.663269 0.000046 -0.256296 0.000000 0.000000
    32 0.000001 2.592527 -0.000031 -0.190586 0.000000 0.000000
    33 1.344765 1.881123 3.809589 1.120332 -1.203080 -1.477339
    34 0.000011 2.315664 -0.000084 -0.256296 0.000000 0.000000
    35 -0.000006 2.254017 0.000076 -0.190586 0.000000 0.000000
    36 0.011267 -6.809892 1.974034 -0.607868 0.000000 0.000000
    37 -0.011248 6.809885 -1.974043 -0.607868 0.000000 0.000000
  time 11
    0 -1.880859 -184.402718 44.062500 -0.747952 -0.253665 0.507014
    1 0.000000 -5.355259 0.000000 -0.102948 -0.113780 -0.199317
    2 0.000000 -7.488277 -0.000001 0.337642 0.008719 0.008421
    3 0.000000 -5.597980 0.000000 0.387550 0.066522 -0.012457
    4 0.000000 -6.565113 -0.000001 0.801493 0.092757 -0.019071
    5 -1.549380 -5.102886 -4.074768 2.293223 -0.523631 -1.267046
    6 -0.000053 11.987244 0.000028 0.268952 -1.328272 2.144799
    7 20.109314 0.000000 -0.000002 1.406542 -1.196232 -3.043741
    8 19.941738 0.000001 -0.000004 1.112488 -0.379679 -2.775192
    9 6.938272 1.999413 -1.014580 -2.513184 0.244483 1.581421
    10 20.710249 -0.000001 0.000000 0.000000 0.000000 0.000000
    11 18.105982 0.000001 0.000000 -0.414140 0.554155 1.681618
    12 -6.938270 1.999409 -1.014579 -2.818055 1.077406 -2.830116
    13 20.710224 0.000000 0.000000 0.000000 0.000000 1.656518
    14 18.106007 0.000000 -0.000001 -1.669204 -1.458735 -1.639918
    15 0.000000 -6.555973 0.000000 0.192379 0.077673 0.276719
    16 0.000000 -3.252140 0.000004 -1.893065 -0.151312 -0.488453
    17 1.548545 -4.925743 -4.285366 -2.692863 -0.725011 -1.749930
    18 1.190170 -10.472042 -0.306138 1.353248 -0.238019 -0.934260
    19 0.000008 0.000000 15.020973 -0.201994 -0.066154 0.008339
    20 0.000004 -0.000001 8.039619 0.000000 0.000000 0.318947
    21 2.899849 -0.471046 -4.331210 -0.449452 -0.559880 -0.709305
    22 -0.000025 2.543312 0.000026 0.221028 0.000000 0.000000
    23 0.000059 2.315285 -0.000040 0.100872 0.000000 0.000000
    24 1.551407 3.956631 -3.900798 2.695900 -1.367576 -3.120852
    25 0.000000 2.741436 -0.000004 -0.256296 0.000000 0.000000
    26 0.000010 2.668510 0.000050 -0.190586 0.000000 0.000000
    27 1.401100 3.639805 -1.202109 2.031148 -1.355830 -2.447084
    28 0.000003 2.810951 0.000004 -0.256296 0.000000 0.000000
    29 -0.000005 2.736202 -0.000031 -0.190586 0.000000 0.000000
    30 1.335663 3.182098 1.418086 0.980184 -1.251585 -1.415249
    31 -0.000003 2.663269 0.000046 -0.256296 0.000000 0.000000
    32 0.000001 2.592527 -0.000031 -0.190586 0.000000 0.000000
    33 1.344765 1.881123 3.809589 1.120332 -1.203080 -1.477339
    34 0.000011 2.315664 -0.000084 -0.256296 0.000000 0.000000
    35 -0.000006 2.254017 0.000076 -0.190586 0.000000 0.000000
    36 0.011267 -6.809892 1.974034 -0.607868 0.000000 0.000000
    37 -0.011248 6.809885 -1.974043 -0.607868 0.000000 0.000000
  time 12
    0 -1.164063 -203.061133 44.968750 -0.822573 -0.330814 0.431279
    1 0.000000 -5.355259 0.000000 -0.065731 -0.086903 -0.134660
    2 0.000000 -7.488277 -0.000001 0.386159 0.020349 -0.011197
    3 0.000000 -5.597980 0.000000 0.386188 0.074142 -0.015867
    4 0.000000 -6.565113 -0.000001 0.806004 0.100060 -0.032914
    5 -1.549380 -5.102886 -4.074768 2.293223 -0.523631 -1.267046
    6 -0.000053 11.987244 0.000028 0.268952 -1.328272 2.144799
    7 20.109314 0.000000 -0.000002 1.406542 -1.196232 -3.043741
    8 19.941738 0.000001 -0.000004 1.112488 -0.379679 -2.775192
    9 6.938272 1.999413 -1.014580 -2.751269 -0.018516 1.644895
    10 20.710249 -0.000001 0.000000 0.000000 0.003113 0.000000
    11 18.105982 0.000001 0.000000 -0.147859 0.148209 1.649852
    12 -6.938270 1.999409 -1.014579 -2.770650 0.877930 -2.890940
    13 20.710224 0.000000 0.000000 0.000000 0.000000 1.237050
    14 18.106007 0.000000 -0.000001 1.701132 -1.250520 1.259068
    15 0.000000 -6.555973 0.000000 0.042929 0.124388 0.309220
    16 0.000000 -3.252140 0.000004 -1.876656 -0.159718 -0.511681
    17 1.548545 -4.925743 -4.285366 -2.677226 -0.723224 -1.764588
    18 1.190170 -10.472042 -0.306138 1.353248 -0.238019 -0.934260
    19 0.000008 0.000000 15.020973 -0.201994 -0.066154 0.008339
    20 0.000004 -0.000001 8.039619 0.000000 0.000000 0.318947
    21 2.899849 -0.471046 -4.331210 -0.449452 -0.559880 -0.709305
    22 -0.000025 2.543312 0.000026 0.221028 0.000000 0.000000
    23 0.000059 2.315285 -0.000040 0.100872 0.000000 0.000000
    24 1.551407 3.956631 -3.900798 2.695900 -1.367576 -3.120852
    25 0.000000 2.741436 -0.000004 -0.256296 0.000000 0.000000
    26 0.000010 2.668510 0.000050 -0.190586 0.000000 0.000000
    27 1.401100 3.639805 -1.202109 2.031148 -1.355830 -2.447084
    28 0.000003 2.810951 0.000004 -0.256296 0.000000 0.000000
    29 -0.000005 2.736202 -0.000031 -0.190586 0.000000 0.000000
    30 1.335663 3.182098 1.418086 0.980184 -1.251585 -1.415249
    31 -0.000003 2.663269 0.000046 -0.256296 0.000000 0.000000
    32 0.000001 2.592527 -0.000031 -0.190586 0.000000 0.000000
    33 1.344765 1.881123 3.809589 1.120332 -1.203080 -1.477339
    34 0.000011 2.315664 -0.000084 -0.256296 0.000000 0.000000
    35 -0.000006 2.254017 0.000076 -0.190586 0.000000 0.000000
    36 0.011267 -6.809892 1.974034 -0.607868 0.000000 0.000000
    37 -0.011248 6.809885 -1.974043 -0.607868 0.000000 0.000000
  time 13
    0 -1.464844 -227.140446 43.906250 -0.947705 -0.414236 0.314843
    1 0.000000 -5.355259 0.000000 0.014592 -0.095318 -0.054720
    2 0.000000 -7.488277 -0.000001 0.394684 0.003269 0.015717
    3 0.000000 -5.597980 0.000000 0.393267 0.047201 0.013015
    4 0.000000 -6.565113 -0.000001 0.814711 0.072863 -0.014312
    5 -1.549380 -5.102886 -4.074768 2.293223 -0.523631 -1.267046
    6 -0.000053 11.987244 0.000028 0.268952 -1.328272 2.144799
    7 20.109314 0.000000 -0.000002 1.406542 -1.196232 -3.043741
    8 19.941738 0.000001 -0.000004 1.112488 -0.379679 -2.775192
    9 6.938272 1.999413 -1.014580 -3.024255 0.102799 1.825050
    10 20.710249 -0.000001 0.000000 0.000000 1.028220 0.000000
    11 18.105982 0.000001 0.000000 -0.524238 0.227907 1.632645
    12 -6.938270 1.999409 -1.014579 -2.975154 0.763884 2.938215
    13 20.710224 0.000000 0.000000 0.000000 0.000000 1.065854
    14 18.106007 0.000000 -0.000001 1.819195 -1.037582 1.276564
    15 0.000000 -6.555973 0.000000 0.000046 -0.009342 0.318363
    16 0.000000 -3.252140 0.000004 -1.698944 -0.034160 -0.500186
    17 1.548545 -4.925743 -4.285366 -2.738330 -0.727360 -1.749016
    18 1.190170 -10.472042 -0.306138 1.353248 -0.238019 -0.934260
    19 0.000008 0.000000 15.020973 -0.201994 -0.066154 0.008339
    20 0.000004 -0.000001 8.039619 0.000000 0.000000 0.318947
    21 2.899849 -0.471046 -4.331210 -0.449452 -0.559880 -0.709305
    22 -0.000025 2.543312 0.000026 0.221028 0.000000 0.000000
    23 0.000059 2.315285 -0.000040 0.100872 0.000000 0.000000
    24 1.551407 3.956631 -3.900798 2.695900 -1.367576 -3.120852
    25 0.000000 2.741436 -0.000004 -0.256296 0.000000 0.000000
    26 0.000010 2.668510 0.000050 -0.190586 0.000000 0.000000
    27 1.401100 3.639805 -1.202109 2.031148 -1.355830 -2.447084
    28 0.000003 2.810951 0.000004 -0.256296 0.000000 0.000000
    29 -0.000005 2.736202 -0.000031 -0.190586 0.000000 0.000000
    30 1.335663 3.182098 1.418086 0.980184 -1.251585 -1.415249
    31 -0.000003 2.663269 0.000046 -0.256296 0.000000 0.000000
    32 0.000001 2.592527 -0.000031 -0.190586 0.000000 0.000000
    33 1.344765 1.881123 3.809589 1.120332 -1.203080 -1.477339
    34 0.000011 2.315664 -0.000084 -0.256296 0.000000 0.000000
    35 -0.000006 2.254017 0.000076 -0.190586 0.000000 0.000000
    36 0.011267 -6.809892 1.974034 -0.607868 0.000000 0.000000
    37 -0.011248 6.809885 -1.974043 -0.607868 0.000000 0.000000
  time 14
    0 -1.842773 -240.655306 43.312500 -0.951402 -0.422784 0.280135
    1 0.000000 -5.355259 0.000000 0.036922 -0.111664 -0.054406
    2 0.000000 -7.488277 -0.000001 0.374440 -0.006842 0.037097
    3 0.000000 -5.597980 0.000000 0.389806 0.036893 0.022715
    4 0.000000 -6.565113 -0.000001 0.808416 0.057964 -0.004818
    5 -1.549380 -5.102886 -4.074768 2.293223 -0.523631 -1.267046
    6 -0.000053 11.987244 0.000028 0.268952 -1.328272 2.144799
    7 20.109314 0.000000 -0.000002 1.406542 -1.196232 -3.043741
    8 19.941738 0.000001 -0.000004 1.112488 -0.379679 -2.775192
    9 6.938272 1.999413 -1.014580 -3.133488 0.162407 1.805863
    10 20.710249 -0.000001 0.000000 0.000000 1.319180 0.000000
    11 18.105982 0.000001 0.000000 -0.654022 0.334121 1.638293
    12 -6.938270 1.999409 -1.014579 -3.034887 0.748724 2.816044
    13 20.710224 0.000000 0.000000 0.000000 0.000000 1.046775
    14 18.106007 0.000000 -0.000001 1.970990 -1.040638 1.224670
    15 0.000000 -6.555973 0.000000 -0.009780 -0.054497 0.346238
    16 0.000000 -3.252140 0.000004 -1.652647 0.031225 -0.507972
    17 1.548545 -4.925743 -4.285366 -2.783492 -0.731602 -1.701683
    18 1.190170 -10.472042 -0.306138 1.353248 -0.238019 -0.934260
    19 0.000008 0.000000 15.020973 -0.201994 -0.066154 0.008339
    20 0.000004 -0.000001 8.039619 0.000000 0.000000 0.318947
    21 2.899849 -0.471046 -4.331210 -0.449452 -0.559880 -0.709305
    22 -0.000025 2.543312 0.000026 0.221028 0.000000 0.000000
    23 0.000059 2.315285 -0.000040 0.100872 0.000000 0.000000
    24 1.551407 3.956631 -3.900798 2.695900 -1.367576 -3.120852
    25 0.000000 2.741436 -0.000004 -0.256296 0.000000 0.000000
    26 0.000010 2.668510 0.000050 -0.190586 0.000000 0.000000
    27 1.401100 3.639805 -1.202109 2.031148 -1.355830 -2.447084
    28 0.000003 2.810951 0.000004 -0.256296 0.000000 0.000000
    29 -0.000005 2.736202 -0.000031 -0.190586 0.000000 0.000000
    30 1.335663 3.182098 1.418086 0.980184 -1.251585 -1.415249
    31 -0.000003 2.663269 0.000046 -0.256296 0.000000 0.000000
    32 0.000001 2.592527 -0.000031 -0.190586 0.000000 0.000000
    33 1.344765 1.881123 3.809589 1.120332 -1.203080 -1.477339
    34 0.000011 2.315664 -0.000084 -0.256296 0.000000 0.000000
    35 -0.000006 2.254017 0.000076 -0.190586 0.000000 0.000000
    36 0.011267 -6.809892 1.974034 -0.607868 0.000000 0.000000
    37 -0.011248 6.809885 -1.974043 -0.607868 0.000000 0.000000
  time 15
    0 -2.818359 -257.938721 42.031250 -0.879141 -0.347909 0.174605
    1 0.000000 -5.355259 0.000000 0.088257 -0.148943 -0.112748
    2 0.000000 -7.488277 -0.000001 0.304267 -0.028839 0.047087
    3 0.000000 -5.597980 0.000000 0.372039 -0.001280 0.030565
    4 0.000000 -6.565113 -0.000001 0.766844 0.001231 0.036433
    5 -1.549380 -5.102886 -4.074768 2.293223 -0.523631 -1.267046
    6 -0.000053 11.987244 0.000028 0.268952 -1.328272 2.144799
    7 20.109314 0.000000 -0.000002 1.406542 -1.196232 -3.043741
    8 19.941738 0.000001 -0.000004 1.112488 -0.379679 -2.775192
    9 6.938272 1.999413 -1.014580 3.062890 0.496973 1.806430
    10 20.710249 -0.000001 0.000000 3.141593 1.276631 3.141593
    11 18.105982 0.000001 0.000000 -0.804794 0.535637 1.666117
    12 -6.938270 1.999409 -1.014579 2.715189 0.961722 2.530210
    13 20.710224 0.000000 0.000000 0.000000 0.000000 1.121592
    14 18.106007 0.000000 -0.000001 2.192350 -1.346751 1.005914
    15 0.000000 -6.555973 0.000000 -0.088075 -0.061978 0.404069
    16 0.000000 -3.252140 0.000004 -1.626289 0.110483 -0.524518
    17 1.548545 -4.925743 -4.285366 -2.843542 -0.735101 -1.559587
    18 1.190170 -10.472042 -0.306138 1.353248 -0.238019 -0.934260
    19 0.000008 0.000000 15.020973 -0.201994 -0.066154 0.008339
    20 0.000004 -0.000001 8.039619 0.000000 0.000000 0.318947
    21 2.899849 -0.471046 -4.331210 -0.449452 -0.559880 -0.709305
    22 -0.000025 2.543312 0.000026 0.221028 0.000000 0.000000
    23 0.000059 2.315285 -0.000040 0.100872 0.000000 0.000000
    24 1.551407 3.956631 -3.900798 2.695900 -1.367576 -3.120852
    25 0.000000 2.741436 -0.000004 -0.256296 0.000000 0.000000
    26 0.000010 2.668510 0.000050 -0.190586 0.000000 0.000000
    27 1.401100 3.639805 -1.202109 2.031148 -1.355830 -2.447084
    28 0.000003 2.810951 0.000004 -0.256296 0.000000 0.000000
    29 -0.000005 2.736202 -0.000031 -0.190586 0.000000 0.000000
    30 1.335663 3.182098 1.418086 0.980184 -1.251585 -1.415249
    31 -0.000003 2.663269 0.000046 -0.256296 0.000000 0.000000
    32 0.000001 2.592527 -0.000031 -0.190586 0.000000 0.000000
    33 1.344765 1.881123 3.809589 1.120332 -1.203080 -1.477339
    34 0.000011 2.315664 -0.000084 -0.256296 0.000000 0.000000
    35 -0.000006 2.254017 0.000076 -0.190586 0.000000 0.000000
    36 0.011267 -6.809892 1.974034 -0.607868 0.000000 0.000000
    37 -0.011248 6.809885 -1.974043 -0.607868 0.000000 0.000000
  time 16
    0 -3.566406 -275.769010 40.906250 -0.870345 -0.263619 0.134630
    1 0.000000 -5.355259 0.000000 0.112017 -0.172691 -0.159439
    2 0.000000 -7.488277 -0.000001 0.317125 -0.049535 0.024848
    3 0.000000 -5.597980 0.000000 0.377074 -0.042374 0.027962
    4 0.000000 -6.565113 -0.000001 0.748219 -0.058194 0.067829
    5 -1.549380 -5.102886 -4.074768 2.293223 -0.523631 -1.267046
    6 -0.000053 11.987244 0.000028 0.268952 -1.328272 2.144799
    7 20.109314 0.000000 -0.000002 1.406542 -1.196232 -3.043741
    8 19.941738 0.000001 -0.000004 1.112488 -0.379679 -2.775192
    9 6.938272 1.999413 -1.014580 3.117848 0.755193 1.797101
    10 20.710249 -0.000001 0.000000 -3.141593 1.079335 -3.141593
    11 18.105982 0.000001 0.000000 -1.003799 0.483470 1.640331
    12 -6.938270 1.999409 -1.014579 2.251947 0.845009 2.068137
    13 20.710224 0.000000 0.000000 0.000000 0.000000 1.041423
    14 18.106007 0.000000 -0.000001 1.939998 -1.425676 1.162100
    15 0.000000 -6.555973 0.000000 -0.153763 -0.026933 0.348854
    16 0.000000 -3.252140 0.000004 -1.618165 0.152915 -0.601143
    17 1.548545 -4.925743 -4.285366 -2.725724 -0.731347 -1.649935
    18 1.190170 -10.472042 -0.306138 1.353248 -0.238019 -0.934260
    19 0.000008 0.000000 15.020973 -0.201994 -0.066154 0.008339
    20 0.000004 -0.000001 8.039619 0.000000 0.000000 0.318947
    21 2.899849 -0.471046 -4.331210 -0.449452 -0.559880 -0.709305
    22 -0.000025 2.543312 0.000026 0.221028 0.000000 0.000000
    23 0.000059 2.315285 -0.000040 0.100872 0.000000 0.000000
    24 1.551407 3.956631 -3.900798 2.695900 -1.367576 -3.120852
    25 0.000000 2.741436 -0.000004 -0.256296 0.000000 0.000000
    26 0.000010 2.668510 0.000050 -0.190586 0.000000 0.000000
    27 1.401100 3.639805 -1.202109 2.031148 -1.355830 -2.447084
    28 0.000003 2.810951 0.000004 -0.256296 0.000000 0.000000
    29 -0.000005 2.736202 -0.000031 -0.190586 0.000000 0.000000
    30 1.335663 3.182098 1.418086 0.980184 -1.251585 -1.415249
    31 -0.000003 2.663269 0.000046 -0.256296 0.000000 0.000000
    32 0.000001 2.592527 -0.000031 -0.190586 0.000000 0.000000
    33 1.344765 1.881123 3.809589 1.120332 -1.203080 -1.477339
    34 0.000011 2.315664 -0.000084 -0.256296 0.000000 0.000000
    35 -0.000006 2.254017 0.000076 -0.190586 0.000000 0.000000
    36 0.011267 -6.809892 1.974034 -0.607868 0.000000 0.000000
    37 -0.011248 6.809885 -1.974043 -0.607868 0.000000 0.000000
  time 17
    0 -3.517578 -293.114925 39.812500 -0.848106 -0.236270 0.080086
    1 0.000000 -5.355259 0.000000 0.110050 -0.196866 -0.140082
    2 0.000000 -7.488277 -0.000001 0.333611 -0.070881 0.013949
    3 0.000000 -5.597980 0.000000 0.370790 -0.079240 0.030005
    4 0.000000 -6.565113 -0.000001 0.722785 -0.105975 0.089875
    5 -1.549380 -5.102886 -4.074768 2.293223 -0.523631 -1.267046
    6 -0.000053 11.987244 0.000028 0.268952 -1.328272 2.144799
    7 20.109314 0.000000 -0.000002 1.406542 -1.196232 -3.043741
    8 19.941738 0.000001 -0.000004 1.112488 -0.379679 -2.775192
    9 6.938272 1.999413 -1.014580 -3.129106 0.974453 1.784778
    10 20.710249 -0.000001 0.000000 3.141593 0.793759 3.141593
    11 18.105982 0.000001 0.000000 -1.248694 0.515329 1.650252
    12 -6.938270 1.999409 -1.014579 2.130734 0.622779 1.900109
    13 20.710224 0.000000 0.000000 0.000000 0.000000 0.923456
    14 18.106007 0.000000 -0.000001 1.897788 -1.372841 1.176455
    15 0.000000 -6.555973 0.000000 -0.223940 0.011046 0.271326
    16 0.000000 -3.252140 0.000004 -1.701618 0.119460 -0.660797
    17 1.548545 -4.925743 -4.285366 -2.600779 -0.722647 -1.759548
    18 1.190170 -10.472042 -0.306138 1.353248 -0.238019 -0.934260
    19 0.000008 0.000000 15.020973 -0.201994 -0.066154 0.008339
    20 0.000004 -0.000001 8.039619 0.000000 0.000000 0.318947
    21 2.899849 -0.471046 -4.331210 -0.449452 -0.559880 -0.709305
    22 -0.000025 2.543312 0.000026 0.221028 0.000000 0.000000
    23 0.000059 2.315285 -0.000040 0.100872 0.000000 0.000000
    24 1.551407 3.956631 -3.900798 2.695900 -1.367576 -3.120852
    25 0.000000 2.741436 -0.000004 -0.256296 0.000000 0.000000
    26 0.000010 2.668510 0.000050 -0.190586 0.000000 0.000000
    27 1.401100 3.639805 -1.202109 2.031148 -1.355830 -2.447084
    28 0.000003 2.810951 0.000004 -0.256296 0.000000 0.000000
    29 -0.000005 2.736202 -0.000031 -0.190586 0.000000 0.000000
    30 1.335663 3.182098 1.418086 0.980184 -1.251585 -1.415249
    31 -0.000003 2.663269 0.000046 -0.256296 0.000000 0.000000
    32 0.000001 2.592527 -0.000031 -0.190586 0.000000 0.000000
    33 1.344765 1.881123 3.809589 1.120332 -1.203080 -1.477339
    34 0.000011 2.315664 -0.000084 -0.256296 0.000000 0.000000
    35 -0.000006 2.254017 0.000076 -0.190586 0.000000 0.000000
    36 0.011267 -6.809892 1.974034 -0.607868 0.000000 0.000000
    37 -0.011248 6.809885 -1.974043 -0.607868 0.000000 0.000000
  time 18
    0 -3.273438 -306.820215 39.437500 -0.840736 -0.286626 0.077076
    1 0.000000 -5.355259 0.000000 0.073988 -0.216289 -0.073046
    2 0.000000 -7.488277 -0.000001 0.344925 -0.080610 0.017698
    3 0.000000 -5.597980 0.000000 0.371541 -0.095330 0.035794
    4 0.000000 -6.565113 -0.000001 0.721467 -0.121512 0.095227
    5 -1.549380 -5.102886 -4.074768 2.293223 -0.523631 -1.267046
    6 -0.000053 11.987244 0.000028 0.268952 -1.328272 2.144799
    7 20.109314 0.000000 -0.000002 1.406542 -1.196232 -3.043741
    8 19.941738 0.000001 -0.000004 1.112488 -0.379679 -2.775192
    9 6.938272 1.999413 -1.014580 -2.948217 1.036304 1.932914
    10 20.710249 -0.000001 0.000000 3.141593 0.888829 3.141593
    11 18.105982 0.000001 0.000000 -1.377940 0.431390 1.594240
    12 -6.938270 1.999409 -1.014579 2.183213 0.463156 1.927991
    13 20.710224 0.000000 0.000000 0.000000 0.000000 0.814039
    14 18.106007 0.000000 -0.000001 1.891517 -1.316240 1.303014
    15 0.000000 -6.555973 0.000000 -0.138605 -0.006637 0.193362
    16 0.000000 -3.252140 0.000004 -1.684720 0.122585 -0.691909
    17 1.548545 -4.925743 -4.285366 -2.533056 -0.708832 -1.856689
    18 1.190170 -10.472042 -0.306138 1.353248 -0.238019 -0.934260
    19 0.000008 0.000000 15.020973 -0.201994 -0.066154 0.008339
    20 0.000004 -0.000001 8.039619 0.000000 0.000000 0.318947
    21 2.899849 -0.471046 -4.331210 -0.449452 -0.559880 -0.709305
    22 -0.000025 2.543312 0.000026 0.221028 0.000000 0.000000
    23 0.000059 2.315285 -0.000040 0.100872 0.000000 0.000000
    24 1.551407 3.956631 -3.900798 2.695900 -1.367576 -3.120852
    25 0.000000 2.741436 -0.000004 -0.256296 0.000000 0.000000
    26 0.000010 2.668510 0.000050 -0.190586 0.000000 0.000000
    27 1.401100 3.639805 -1.202109 2.031148 -1.355830 -2.447084
    28 0.000003 2.810951 0.000004 -0.256296 0.000000 0.000000
    29 -0.000005 2.736202 -0.000031 -0.190586 0.000000 0.000000
    30 1.335663 3.182098 1.418086 0.980184 -1.251585 -1.415249
    31 -0.000003 2.663269 0.000046 -0.256296 0.000000 0.000000
    32 0.000001 2.592527 -0.000031 -0.190586 0.000000 0.000000
    33 1.344765 1.881123 3.809589 1.120332 -1.203080 -1.477339
    34 0.000011 2.315664 -0.000084 -0.256296 0.000000 0.000000
    35 -0.000006 2.254017 0.000076 -0.190586 0.000000 0.000000
    36 0.011267 -6.809892 1.974034 -0.607868 0.000000 0.000000
    37 -0.011248 6.809885 -1.974043 -0.607868 0.000000 0.000000
  time 19
    0 -3.029297 -320.451286 39.093750 -0.833372 -0.336639 0.074090
    1 0.000000 -5.355259 0.000000 0.039119 -0.235449 -0.006471
    2 0.000000 -7.488277 -0.000001 0.356228 -0.090348 0.021470
    3 0.000000 -5.597980 0.000000 0.372290 -0.111313 0.041600
    4 0.000000 -6.565113 -0.000001 0.720253 -0.136959 0.100510
    5 -1.549380 -5.102886 -4.074768 2.293223 -0.523631 -1.267046
    6 -0.000053 11.987244 0.000028 0.268952 -1.328272 2.144799
    7 20.109314 0.000000 -0.000002 1.406542 -1.196232 -3.043741
    8 19.941738 0.000001 -0.000004 1.112488 -0.379679 -2.775192
    9 6.938272 1.999413 -1.014580 -2.807696 1.088397 2.059715
    10 20.710249 -0.000001 0.000000 3.141593 0.987661 3.141593
    11 18.105982 0.000001 0.000000 -1.505268 0.358910 1.545054
    12 -6.938270 1.999409 -1.014579 2.259889 0.257978 1.915511
    13 20.710224 0.000000 0.000000 0.000000 0.000000 0.578212
    14 18.106007 0.000000 -0.000001 1.916372 -1.230681 1.471016
    15 0.000000 -6.555973 0.000000 -0.052847 -0.010170 0.112551
    16 0.000000 -3.252140 0.000004 -1.668461 0.125023 -0.722858
    17 1.548545 -4.925743 -4.285366 -2.470017 -0.690731 -1.950617
    18 1.190170 -10.472042 -0.306138 1.353248 -0.238019 -0.934260
    19 0.000008 0.000000 15.020973 -0.201994 -0.066154 0.008339
    20 0.000004 -0.000001 8.039619 0.000000 0.000000 0.318947
    21 2.899849 -0.471046 -4.331210 -0.449452 -0.559880 -0.709305
    22 -0.000025 2.543312 0.000026 0.221028 0.000000 0.000000
    23 0.000059 2.315285 -0.000040 0.100872 0.000000 0.000000
    24 1.551407 3.956631 -3.900798 2.695900 -1.367576 -3.120852
    25 0.000000 2.741436 -0.000004 -0.256296 0.000000 0.000000
    26 0.000010 2.668510 0.000050 -0.190586 0.000000 0.000000
    27 1.401100 3.639805 -1.202109 2.031148 -1.355830 -2.447084
    28 0.000003 2.810951 0.000004 -0.256296 0.000000 0.000000
    29 -0.000005 2.736202 -0.000031 -0.190586 0.000000 0.000000
    30 1.335663 3.182098 1.418086 0.980184 -1.251585 -1.415249
    31 -0.000003 2.663269 0.000046 -0.256296 0.000000 0.000000
    32 0.000001 2.592527 -0.000031 -0.190586 0.000000 0.000000
    33 1.344765 1.881123 3.809589 1.120332 -1.203080 -1.477339
    34 0.000011 2.315664 -0.000084 -0.256296 0.000000 0.000000
    35 -0.000006 2.254017 0.000076 -0.190586 0.000000 0.000000
    36 0.011267 -6.809892 1.974034 -0.607868 0.000000 0.000000
    37 -0.011248 6.809885 -1.974043 -0.607868 0.000000 0.000000
  time 20
    0 -2.722656 -348.605794 42.218750 -0.728613 -0.468622 0.110043
    1 0.000000 -5.355259 0.000000 -0.107972 -0.249353 0.176969
    2 0.000000 -7.488277 -0.000001 0.369858 -0.111240 0.050202
    3 0.000000 -5.597980 0.000000 0.380259 -0.142426 0.066788
    4 0.000000 -6.565113 -0.000001 0.771968 -0.180440 0.100588
    5 -1.549380 -5.102886 -4.074768 2.293223 -0.523631 -1.267046
    6 -0.000053 11.987244 0.000028 0.268952 -1.328272 2.144799
    7 20.109314 0.000000 -0.000002 1.406542 -1.196232 -3.043741
    8 19.941738 0.000001 -0.000004 1.112488 -0.379679 -2.775192
    9 6.938272 1.999413 -1.014580 -1.848341 1.195488 2.994615
    10 20.710249 -0.000001 0.000000 0.000000 1.143289 0.000000
    11 18.105982 0.000001 0.000000 -1.526619 0.410958 1.486841
    12 -6.938270 1.999409 -1.014579 1.946697 -0.110604 1.742048
    13 20.710224 0.000000 0.000000 0.000000 0.000000 0.000000
    14 18.106007 0.000000 -0.000001 2.287185 -1.360341 2.198813
    15 0.000000 -6.555973 0.000000 0.499793 -0.003257 -0.133968
    16 0.000000 -3.252140 0.000004 -2.119669 -0.130490 -0.621827
    17 1.548545 -4.925743 -4.285366 -2.369567 -0.665579 -2.018804
    18 1.190170 -10.472042 -0.306138 1.353248 -0.238019 -0.934260
    19 0.000008 0.000000 15.020973 -0.201994 -0.066154 0.008339
    20 0.000004 -0.000001 8.039619 0.000000 0.000000 0.318947
    21 2.899849 -0.471046 -4.331210 -0.449452 -0.559880 -0.709305
    22 -0.000025 2.543312 0.000026 0.221028 0.000000 0.000000
    23 0.000059 2.315285 -0.000040 0.100872 0.000000 0.000000
    24 1.551407 3.956631 -3.900798 2.695900 -1.367576 -3.120852
    25 0.000000 2.741436 -0.000004 -0.256296 0.000000 0.000000
    26 0.000010 2.668510 0.000050 -0.190586 0.000000 0.000000
    27 1.401100 3.639805 -1.202109 2.031148 -1.355830 -2.447084
    28 0.000003 2.810951 0.000004 -0.256296 0.000000 0.000000
    29 -0.000005 2.736202 -0.000031 -0.190586 0.000000 0.000000
    30 1.335663 3.182098 1.418086 0.980184 -1.251585 -1.415249
    31 -0.000003 2.663269 0.000046 -0.256296 0.000000 0.000000
    32 0.000001 2.592527 -0.000031 -0.190586 0.000000 0.000000
    33 1.344765 1.881123 3.809589 1.120332 -1.203080 -1.477339
    34 0.000011 2.315664 -0.000084 -0.256296 0.000000 0.000000
    35 -0.000006 2.254017 0.000076 -0.190586 0.000000 0.000000
    36 0.011267 -6.809892 1.974034 -0.607868 0.000000 0.000000
    37 -0.011248 6.809885 -1.974043 -0.607868 0.000000 0.000000
  time 21
    0 -2.556641 -366.635303 43.062500 -0.958232 -0.429369 0.227364
    1 0.000000 -5.355259 0.000000 0.070700 -0.254092 0.056733
    2 0.000000 -7.488277 -0.000001 0.424056 -0.091788 0.033231
    3 0.000000 -5.597980 0.000000 0.420765 -0.112841 0.053406
    4 0.000000 -6.565113 -0.000001 0.819069 -0.159306 0.075214
    5 -1.549380 -5.102886 -4.074768 2.293223 -0.523631 -1.267046
    6 -0.000053 11.987244 0.000028 0.268952 -1.328272 2.144799
    7 20.109314 0.000000 -0.000002 1.406542 -1.196232 -3.043741
    8 19.941738 0.000001 -0.000004 1.112488 -0.379679 -2.775192
    9 6.938272 1.999413 -1.014580 -2.593371 0.944587 2.244674
    10 20.710249 -0.000001 0.000000 0.000000 0.473151 0.000000
    11 18.105982 0.000001 0.000000 -1.318133 0.333507 1.425647
    12 -6.938270 1.999409 -1.014579 1.972539 -0.099100 1.696529
    13 20.710224 0.000000 0.000000 0.000000 0.000000 0.734542
    14 18.106007 0.000000 -0.000001 1.723568 -1.421287 2.597717
    15 0.000000 -6.555973 0.000000 0.625782 -0.004097 -0.082947
    16 0.000000 -3.252140 0.000004 -2.388929 -0.223813 -0.547541
    17 1.548545 -4.925743 -4.285366 -2.448423 -0.704060 -1.832892
    18 1.190170 -10.472042 -0.306138 1.353248 -0.238019 -0.934260
    19 0.000008 0.000000 15.020973 -0.201994 -0.066154 0.008339
    20 0.000004 -0.000001 8.039619 0.000000 0.000000 0.318947
    21 2.899849 -0.471046 -4.331210 -0.449452 -0.559880 -0.709305
    22 -0.000025 2.543312 0.000026 0.221028 0.000000 0.000000
    23 0.000059 2.315285 -0.000040 0.100872 0.000000 0.000000
    24 1.551407 3.956631 -3.900798 2.695900 -1.367576 -3.120852
    25 0.000000 2.741436 -0.000004 -0.256296 0.000000 0.000000
    26 0.000010 2.668510 0.000050 -0.190586 0.000000 0.000000
    27 1.401100 3.639805 -1.202109 2.031148 -1.355830 -2.447084
    28 0.000003 2.810951 0.000004 -0.256296 0.000000 0.000000
    29 -0.000005 2.736202 -0.000031 -0.190586 0.000000 0.000000
    30 1.335663 3.182098 1.418086 0.980184 -1.251585 -1.415249
    31 -0.000003 2.663269 0.000046 -0.256296 0.000000 0.000000
    32 0.000001 2.592527 -0.000031 -0.190586 0.000000 0.000000
    33 1.344765 1.881123 3.809589 1.120332 -1.203080 -1.477339
    34 0.000011 2.315664 -0.000084 -0.256296 0.000000 0.000000
    35 -0.000006 2.254017 0.000076 -0.190586 0.000000 0.000000
    36 0.011267 -6.809892 1.974034 -0.607868 0.000000 0.000000
    37 -0.011248 6.809885 -1.974043 -0.607868 0.000000 0.000000
  time 22
    0 -2.251953 -379.543717 42.812500 -0.979588 -0.413123 0.285884
    1 0.000000 -5.355259 0.000000 0.089670 -0.238638 0.015826
    2 0.000000 -7.488277 -0.000001 0.423101 -0.081512 0.032346
    3 0.000000 -5.597980 0.000000 0.425426 -0.095777 0.048575
    4 0.000000 -6.565113 -0.000001 0.831251 -0.143302 0.066990
    5 -1.549380 -5.102886 -4.074768 2.293223 -0.523631 -1.267046
    6 -0.000053 11.987244 0.000028 0.268952 -1.328272 2.144799
    7 20.109314 0.000000 -0.000002 1.406542 -1.196232 -3.043741
    8 19.941738 0.000001 -0.000004 1.112488 -0.379679 -2.775192
    9 6.938272 1.999413 -1.014580 -2.635566 0.827014 2.140358
    10 20.710249 -0.000001 0.000000 0.000000 0.253547 0.000000
    11 18.105982 0.000001 0.000000 -1.110713 0.375252 1.489261
    12 -6.938270 1.999409 -1.014579 1.991227 0.070739 1.707735
    13 20.710224 0.000000 0.000000 0.000000 0.000000 1.177149
    14 18.106007 0.000000 -0.000001 0.321713 -1.486911 -2.485494
    15 0.000000 -6.555973 0.000000 0.598160 0.002561 -0.071911
    16 0.000000 -3.252140 0.000004 -2.337340 -0.221966 -0.530461
    17 1.548545 -4.925743 -4.285366 -2.517811 -0.719043 -1.746326
    18 1.190170 -10.472042 -0.306138 1.353248 -0.238019 -0.934260
    19 0.000008 0.000000 15.020973 -0.201994 -0.066154 0.008339
    20 0.000004 -0.000001 8.039619 0.000000 0.000000 0.318947
    21 2.899849 -0.471046 -4.331210 -0.449452 -0.559880 -0.709305
    22 -0.000025 2.543312 0.000026 0.221028 0.000000 0.000000
    23 0.000059 2.315285 -0.000040 0.100872 0.000000 0.000000
    24 1.551407 3.956631 -3.900798 2.695900 -1.367576 -3.120852
    25 0.000000 2.741436 -0.000004 -0.256296 0.000000 0.000000
    26 0.000010 2.668510 0.000050 -0.190586 0.000000 0.000000
    27 1.401100 3.639805 -1.202109 2.031148 -1.355830 -2.447084
    28 0.000003 2.810951 0.000004 -0.256296 0.000000 0.000000
    29 -0.000005 2.736202 -0.000031 -0.190586 0.000000 0.000000
    30 1.335663 3.182098 1.418086 0.980184 -1.251585 -1.415249
    31 -0.000003 2.663269 0.000046 -0.256296 0.000000 0.000000
    32 0.000001 2.592527 -0.000031 -0.190586 0.000000 0.000000
    33 1.344765 1.881123 3.809589 1.120332 -1.203080 -1.477339
    34 0.000011 2.315664 -0.000084 -0.256296 0.000000 0.000000
    35 -0.000006 2.254017 0.000076 -0.190586 0.000000 0.000000
    36 0.011267 -6.809892 1.974034 -0.607868 0.000000 0.000000
    37 -0.011248 6.809885 -1.974043 -0.607868 0.000000 0.000000
  time 23
    0 -1.946289 -392.499007 42.562500 -1.001012 -0.396897 0.344449
    1 0.000000 -5.355259 0.000000 0.109002 -0.223082 -0.025137
    2 0.000000 -7.488277 -0.000001 0.422087 -0.071178 0.031468
    3 0.000000 -5.597980 0.000000 0.430225 -0.078737 0.043693
    4 0.000000 -6.565113 -0.000001 0.843446 -0.127284 0.058817
    5 -1.549380 -5.102886 -4.074768 2.293223 -0.523631 -1.267046
    6 -0.000053 11.987244 0.000028 0.268952 -1.328272 2.144799
    7 20.109314 0.000000 -0.000002 1.406542 -1.196232 -3.043741
    8 19.941738 0.000001 -0.000004 1.112488 -0.379679 -2.775192
    9 6.938272 1.999413 -1.014580 -2.671918 0.694746 2.038881
    10 20.710249 -0.000001 0.000000 0.000000 0.000000 0.000000
    11 18.105982 0.000001 0.000000 -0.880536 0.402754 1.567088
    12 -6.938270 1.999409 -1.014579 2.093186 0.157557 1.745979
    13 20.710224 0.000000 0.000000 0.000000 0.000000 1.503511
    14 18.106007 0.000000 -0.000001 -0.661224 -1.425592 -1.645270
    15 0.000000 -6.555973 0.000000 0.570614 0.009876 -0.060339
    16 0.000000 -3.252140 0.000004 -2.114538 -0.170554 -0.538787
    17 1.548545 -4.925743 -4.285366 -2.590502 -0.730145 -1.657493
    18 1.190170 -10.472042 -0.306138 1.353248 -0.238019 -0.934260
    19 0.000008 0.000000 15.020973 -0.201994 -0.066154 0.008339
    20 0.000004 -0.000001 8.039619 0.000000 0.000000 0.318947
    21 2.899849 -0.471046 -4.331210 -0.449452 -0.559880 -0.709305
    22 -0.000025 2.543312 0.000026 0.221028 0.000000 0.000000
    23 0.000059 2.315285 -0.000040 0.100872 0.000000 0.000000
    24 1.551407 3.956631 -3.900798 2.695900 -1.367576 -3.120852
    25 0.000000 2.741436 -0.000004 -0.256296 0.000000 0.000000
    26 0.000010 2.668510 0.000050 -0.190586 0.000000 0.000000
    27 1.401100 3.639805 -1.202109 2.031148 -1.355830 -2.447084
    28 0.000003 2.810951 0.000004 -0.256296 0.000000 0.000000
    29 -0.000005 2.736202 -0.000031 -0.190586 0.000000 0.000000
    30 1.335663 3.182098 1.418086 0.980184 -1.251585 -1.415249
    31 -0.000003 2.663269 0.000046 -0.256296 0.000000 0.000000
    32 0.000001 2.592527 -0.000031 -0.190586 0.000000 0.000000
    33 1.344765 1.881123 3.809589 1.120332 -1.203080 -1.477339
    34 0.000011 2.315664 -0.000084 -0.256296 0.000000 0.000000
    35 -0.000006 2.254017 0.000076 -0.190586 0.000000 0.000000
    36 0.011267 -6.809892 1.974034 -0.607868 0.000000 0.000000
    37 -0.011248 6.809885 -1.974043 -0.607868 0.000000 0.000000
  time 24
    0 -1.315430 -408.684766 41.312500 -0.904425 -0.472965 0.480831
    1 0.000000 -5.355259 0.000000 0.117457 -0.171148 -0.032915
    2 0.000000 -7.488277 -0.000001 0.353103 -0.049572 0.080613
    3 0.000000 -5.597980 0.000000 0.416316 -0.033686 0.033940
    4 0.000000 -6.565113 -0.000001 0.817821 -0.055934 0.027132
    5 -1.549380 -5.102886 -4.074768 2.293223 -0.523631 -1.267046
    6 -0.000053 11.987244 0.000028 0.268952 -1.328272 2.144799
    7 20.109314 0.000000 -0.000002 1.406542 -1.196232 -3.043741
    8 19.941738 0.000001 -0.000004 1.112488 -0.379679 -2.775192
    9 6.938272 1.999413 -1.014580 -2.685148 0.653814 2.062982
    10 20.710249 -0.000001 0.000000 0.000000 0.000000 0.000000
    11 18.105982 0.000001 0.000000 -0.813028 0.255204 1.573500
    12 -6.938270 1.999409 -1.014579 2.295783 0.551648 1.990797
    13 20.710224 0.000000 0.000000 0.000000 0.000000 2.118086
    14 18.106007 0.000000 -0.000001 -1.230227 -1.354243 -1.487332
    15 0.000000 -6.555973 0.000000 0.329153 0.060830 -0.012302
    16 0.000000 -3.252140 0.000004 -1.938969 -0.161792 -0.537126
    17 1.548545 -4.925743 -4.285366 -2.791791 -0.734061 -1.509055
    18 1.190170 -10.472042 -0.306138 1.353248 -0.238019 -0.934260
    19 0.000008 0.000000 15.020973 -0.201994 -0.066154 0.008339
    20 0.000004 -0.000001 8.039619 0.000000 0.000000 0.318947
    21 2.899849 -0.471046 -4.331210 -0.449452 -0.559880 -0.709305
    22 -0.000025 2.543312 0.000026 0.221028 0.000000 0.000000
    23 0.000059 2.315285 -0.000040 0.100872 0.000000 0.000000
    24 1.551407 3.956631 -3.900798 2.695900 -1.367576 -3.120852
    25 0.000000 2.741436 -0.000004 -0.256296 0.000000 0.000000
    26 0.000010 2.668510 0.000050 -0.190586 0.000000 0.000000
    27 1.401100 3.639805 -1.202109 2.031148 -1.355830 -2.447084
    28 0.000003 2.810951 0.000004 -0.256296 0.000000 0.000000
    29 -0.000005 2.736202 -0.000031 -0.190586 0.000000 0.000000
    30 1.335663 3.182098 1.418086 0.980184 -1.251585 -1.415249
    31 -0.000003 2.663269 0.000046 -0.256296 0.000000 0.000000
    32 0.000001 2.592527 -0.000031 -0.190586 0.000000 0.000000
    33 1.344765 1.881123 3.809589 1.120332 -1.203080 -1.477339
    34 0.000011 2.315664 -0.000084 -0.256296 0.000000 0.000000
    35 -0.000006 2.254017 0.000076 -0.190586 0.000000 0.000000
    36 0.011267 -6.809892 1.974034 -0.607868 0.000000 0.000000
    37 -0.011248 6.809885 -1.974043 -0.607868 0.000000 0.000000
  time 25
    0 -1.312500 -426.143962 40.468750 -0.866661 -0.527654 0.597116
    1 0.000000 -5.355259 0.000000 0.103493 -0.130000 -0.017154
    2 0.000000 -7.488277 -0.000001 0.344061 -0.022824 0.077092
    3 0.000000 -5.597980 0.000000 0.415747 0.014449 0.025255
    4 0.000000 -6.565113 -0.000001 0.796367 0.028200 -0.013831
    5 -1.549380 -5.102886 -4.074768 2.293223 -0.523631 -1.267046
    6 -0.000053 11.987244 0.000028 0.268952 -1.328272 2.144799
    7 20.109314 0.000000 -0.000002 1.406542 -1.196232 -3.043741
    8 19.941738 0.000001 -0.000004 1.112488 -0.379679 -2.775192
    9 6.938272 1.999413 -1.014580 -2.975462 0.555997 1.936119
    10 20.710249 -0.000001 0.000000 0.000000 0.000000 0.000000
    11 18.105982 0.000001 0.000000 -0.896241 -0.082653 1.407635
    12 -6.938270 1.999409 -1.014579 2.498852 0.884895 2.391841
    13 20.710224 0.000000 0.000000 0.000000 0.000000 2.333586
    14 18.106007 0.000000 -0.000001 -1.614350 -1.429470 -1.487120
    15 0.000000 -6.555973 0.000000 0.148569 0.104185 0.102791
    16 0.000000 -3.252140 0.000004 -1.888189 -0.219302 -0.576858
    17 1.548545 -4.925743 -4.285366 -2.766991 -0.731957 -1.664239
    18 1.190170 -10.472042 -0.306138 1.353248 -0.238019 -0.934260
    19 0.000008 0.000000 15.020973 -0.201994 -0.066154 0.008339
    20 0.000004 -0.000001 8.039619 0.000000 0.000000 0.318947
    21 2.899849 -0.471046 -4.331210 -0.449452 -0.559880 -0.709305
    22 -0.000025 2.543312 0.000026 0.221028 0.000000 0.000000
    23 0.000059 2.315285 -0.000040 0.100872 0.000000 0.000000
    24 1.551407 3.956631 -3.900798 2.695900 -1.367576 -3.120852
    25 0.000000 2.741436 -0.000004 -0.256296 0.000000 0.000000
    26 0.000010 2.668510 0.000050 -0.190586 0.000000 0.000000
    27 1.401100 3.639805 -1.202109 2.031148 -1.355830 -2.447084
    28 0.000003 2.810951 0.000004 -0.256296 0.000000 0.000000
    29 -0.000005 2.736202 -0.000031 -0.190586 0.000000 0.000000
    30 1.335663 3.182098 1.418086 0.980184 -1.251585 -1.415249
    31 -0.000003 2.663269 0.000046 -0.256296 0.000000 0.000000
    32 0.000001 2.592527 -0.000031 -0.190586 0.000000 0.000000
    33 1.344765 1.881123 3.809589 1.120332 -1.203080 -1.477339
    34 0.000011 2.315664 -0.000084 -0.256296 0.000000 0.000000
    35 -0.000006 2.254017 0.000076 -0.190586 0.000000 0.000000
    36 0.011267 -6.809892 1.974034 -0.607868 0.000000 0.000000
    37 -0.011248 6.809885 -1.974043 -0.607868 0.000000 0.000000
  time 26
    0 -0.122192 -450.204720 42.406250 -0.813793 -0.345114 0.544706
    1 0.000000 -5.355259 0.000000 -0.021430 -0.151349 -0.196173
    2 0.000000 -7.488277 -0.000001 0.357795 -0.002306 0.014469
    3 0.000000 -5.597980 0.000000 0.388826 0.044967 0.005122
    4 0.000000 -6.565113 -0.000001 0.785709 0.063693 0.004325
    5 -1.549380 -5.102886 -4.074768 2.293223 -0.523631 -1.267046
    6 -0.000053 11.987244 0.000028 0.268952 -1.328272 2.144799
    7 20.109314 0.000000 -0.000002 1.406542 -1.196232 -3.043741
    8 19.941738 0.000001 -0.000004 1.112488 -0.379679 -2.775192
    9 6.938272 1.999413 -1.014580 -2.993124 0.346051 1.569861
    10 20.710249 -0.000001 0.000000 0.000000 0.000000 0.000000
    11 18.105982 0.000001 0.000000 -0.660632 0.089884 1.469371
    12 -6.938270 1.999409 -1.014579 -3.058228 1.181201 -2.959298
    13 20.710224 0.000000 0.000000 0.000000 0.000000 1.811228
    14 18.106007 0.000000 -0.000001 -1.587665 -1.346035 -1.607677
    15 0.000000 -6.555973 0.000000 0.345262 0.103290 0.300860
    16 0.000000 -3.252140 0.000004 -1.615555 -0.243751 -0.583021
    17 1.548545 -4.925743 -4.285366 -2.585272 -0.714020 -1.831234
    18 1.190170 -10.472042 -0.306138 1.353248 -0.238019 -0.934260
    19 0.000008 0.000000 15.020973 -0.201994 -0.066154 0.008339
    20 0.000004 -0.000001 8.039619 0.000000 0.000000 0.318947
    21 2.899849 -0.471046 -4.331210 -0.449452 -0.559880 -0.709305
    22 -0.000025 2.543312 0.000026 0.221028 0.000000 0.000000
    23 0.000059 2.315285 -0.000040 0.100872 0.000000 0.000000
    24 1.551407 3.956631 -3.900798 2.695900 -1.367576 -3.120852
    25 0.000000 2.741436 -0.000004 -0.256296 0.000000 0.000000
    26 0.000010 2.668510 0.000050 -0.190586 0.000000 0.000000
    27 1.401100 3.639805 -1.202109 2.031148 -1.355830 -2.447084
    28 0.000003 2.810951 0.000004 -0.256296 0.000000 0.000000
    29 -0.000005 2.736202 -0.000031 -0.190586 0.000000 0.000000
    30 1.335663 3.182098 1.418086 0.980184 -1.251585 -1.415249
    31 -0.000003 2.663269 0.000046 -0.256296 0.000000 0.000000
    32 0.000001 2.592527 -0.000031 -0.190586 0.000000 0.000000
    33 1.344765 1.881123 3.809589 1.120332 -1.203080 -1.477339
    34 0.000011 2.315664 -0.000084 -0.256296 0.000000 0.000000
    35 -0.000006 2.254017 0.000076 -0.190586 0.000000 0.000000
    36 0.011267 -6.809892 1.974034 -0.607868 0.000000 0.000000
    37 -0.011248 6.809885 -1.974043 -0.607868 0.000000 0.000000
  time 27
    0 0.378662 -463.648291 43.375000 -0.788061 -0.316042 0.505350
    1 0.000000 -5.355259 0.000000 -0.069318 -0.160631 -0.235792
    2 0.000000 -7.488277 -0.000001 0.365371 -0.000651 0.000500
    3 0.000000 -5.597980 0.000000 0.382294 0.044902 -0.000388
    4 0.000000 -6.565113 -0.000001 0.786150 0.064712 0.007142
    5 -1.549380 -5.102886 -4.074768 2.293223 -0.523631 -1.267046
    6 -0.000053 11.987244 0.000028 0.268952 -1.328272 2.144799
    7 20.109314 0.000000 -0.000002 1.406542 -1.196232 -3.043741
    8 19.941738 0.000001 -0.000004 1.112488 -0.379679 -2.775192
    9 6.938272 1.999413 -1.014580 -2.786793 0.280934 1.540630
    10 20.710249 -0.000001 0.000000 0.000000 0.000000 0.000000
    11 18.105982 0.000001 0.000000 -0.459082 0.320693 1.569208
    12 -6.938270 1.999409 -1.014579 -2.956353 1.182555 -2.847041
    13 20.710224 0.000000 0.000000 0.000000 0.000000 1.516082
    14 18.106007 0.000000 -0.000001 -1.574808 -1.335679 -1.640319
    15 0.000000 -6.555973 0.000000 0.420474 0.119131 0.351217
    16 0.000000 -3.252140 0.000004 -1.530760 -0.199736 -0.546823
    17 1.548545 -4.925743 -4.285366 -2.556965 -0.709453 -1.851666
    18 1.190170 -10.472042 -0.306138 1.353248 -0.238019 -0.934260
    19 0.000008 0.000000 15.020973 -0.201994 -0.066154 0.008339
    20 0.000004 -0.000001 8.039619 0.000000 0.000000 0.318947
    21 2.899849 -0.471046 -4.331210 -0.449452 -0.559880 -0.709305
    22 -0.000025 2.543312 0.000026 0.221028 0.000000 0.000000
    23 0.000059 2.315285 -0.000040 0.100872 0.000000 0.000000
    24 1.551407 3.956631 -3.900798 2.695900 -1.367576 -3.120852
    25 0.000000 2.741436 -0.000004 -0.256296 0.000000 0.000000
    26 0.000010 2.668510 0.000050 -0.190586 0.000000 0.000000
    27 1.401100 3.639805 -1.202109 2.031148 -1.355830 -2.447084
    28 0.000003 2.810951 0.000004 -0.256296 0.000000 0.000000
    29 -0.000005 2.736202 -0.000031 -0.190586 0.000000 0.000000
    30 1.335663 3.182098 1.418086 0.980184 -1.251585 -1.415249
    31 -0.000003 2.663269 0.000046 -0.256296 0.000000 0.000000
    32 0.000001 2.592527 -0.000031 -0.190586 0.000000 0.000000
    33 1.344765 1.881123 3.809589 1.120332 -1.203080 -1.477339
    34 0.000011 2.315664 -0.000084 -0.256296 0.000000 0.000000
    35 -0.000006 2.254017 0.000076 -0.190586 0.000000 0.000000
    36 0.011267 -6.809892 1.974034 -0.607868 0.000000 0.000000
    37 -0.011248 6.809885 -1.974043 -0.607868 0.000000 0.000000
  time 28
    0 1.313477 -482.396549 44.250000 -0.893908 -0.409480 0.374789
    1 0.000000 -5.355259 0.000000 -0.027910 -0.114214 -0.141964
    2 0.000000 -7.488277 -0.000001 0.398514 -0.003102 -0.025036
    3 0.000000 -5.597980 0.000000 0.391100 0.029945 -0.002904
    4 0.000000 -6.565113 -0.000001 0.802995 0.053391 0.002641
    5 -1.549380 -5.102886 -4.074768 2.293223 -0.523631 -1.267046
    6 -0.000053 11.987244 0.000028 0.268952 -1.328272 2.144799
    7 20.109314 0.000000 -0.000002 1.406542 -1.196232 -3.043741
    8 19.941738 0.000001 -0.000004 1.112488 -0.379679 -2.775192
    9 6.938272 1.999413 -1.014580 -2.858968 -0.038592 1.673139
    10 20.710249 -0.000001 0.000000 0.000000 0.000000 0.000000
    11 18.105982 0.000001 0.000000 -0.178448 0.069811 1.557592
    12 -6.938270 1.999409 -1.014579 3.004758 1.081265 3.109210
    13 20.710224 0.000000 0.000000 0.000000 0.000000 1.117990
    14 18.106007 0.000000 -0.000001 -2.555727 -1.529153 -0.665699
    15 0.000000 -6.555973 0.000000 0.367090 0.151236 0.383193
    16 0.000000 -3.252140 0.000004 -1.522352 -0.135705 -0.517677
    17 1.548545 -4.925743 -4.285366 -2.564133 -0.708855 -1.860963
    18 1.190170 -10.472042 -0.306138 1.353248 -0.238019 -0.934260
    19 0.000008 0.000000 15.020973 -0.201994 -0.066154 0.008339
    20 0.000004 -0.000001 8.039619 0.000000 0.000000 0.318947
    21 2.899849 -0.471046 -4.331210 -0.449452 -0.559880 -0.709305
    22 -0.000025 2.543312 0.000026 0.221028 0.000000 0.000000
    23 0.000059 2.315285 -0.000040 0.100872 0.000000 0.000000
    24 1.551407 3.956631 -3.900798 2.695900 -1.367576 -3.120852
    25 0.000000 2.741436 -0.000004 -0.256296 0.000000 0.000000
    26 0.000010 2.668510 0.000050 -0.190586 0.000000 0.000000
    27 1.401100 3.639805 -1.202109 2.031148 -1.355830 -2.447084
    28 0.000003 2.810951 0.000004 -0.256296 0.000000 0.000000
    29 -0.000005 2.736202 -0.000031 -0.190586 0.000000 0.000000
    30 1.335663 3.182098 1.418086 0.980184 -1.251585 -1.415249
    31 -0.000003 2.663269 0.000046 -0.256296 0.000000 0.000000
    32 0.000001 2.592527 -0.000031 -0.190586 0.000000 0.000000
    33 1.344765 1.881123 3.809589 1.120332 -1.203080 -1.477339
    34 0.000011 2.315664 -0.000084 -0.256296 0.000000 0.000000
    35 -0.000006 2.254017 0.000076 -0.190586 0.000000 0.000000
    36 0.011267 -6.809892 1.974034 -0.607868 0.000000 0.000000
    37 -0.011248 6.809885 -1.974043 -0.607868 0.000000 0.000000
  time 29
    0 1.239258 -500.699495 43.343750 -0.955120 -0.485050 0.282379
    1 0.000000 -5.355259 0.000000 0.027689 -0.109777 -0.068658
    2 0.000000 -7.488277 -0.000001 0.394125 -0.010715 -0.005874
    3 0.000000 -5.597980 0.000000 0.392131 0.021467 0.012230
    4 0.000000 -6.565113 -0.000001 0.798622 0.042732 -0.000784
    5 -1.549380 -5.102886 -4.074768 2.293223 -0.523631 -1.267046
    6 -0.000053 11.987244 0.000028 0.268952 -1.328272 2.144799
    7 20.109314 0.000000 -0.000002 1.406542 -1.196232 -3.043741
    8 19.941738 0.000001 -0.000004 1.112488 -0.379679 -2.775192
    9 6.938272 1.999413 -1.014580 -3.077714 0.122439 1.820842
    10 20.710249 -0.000001 0.000000 0.000000 0.853758 0.000000
    11 18.105982 0.000001 0.000000 -0.458932 0.043900 1.544293
    12 -6.938270 1.999409 -1.014579 2.888682 0.933649 2.823911
    13 20.710224 0.000000 0.000000 0.000000 0.000000 0.967054
    14 18.106007 0.000000 -0.000001 2.400525 -1.373004 0.978478
    15 0.000000 -6.555973 0.000000 0.126628 0.119685 0.359116
    16 0.000000 -3.252140 0.000004 -1.593666 -0.108522 -0.498387
    17 1.548545 -4.925743 -4.285366 -2.705846 -0.726657 -1.759623
    18 1.190170 -10.472042 -0.306138 1.353248 -0.238019 -0.934260
    19 0.000008 0.000000 15.020973 -0.201994 -0.066154 0.008339
    20 0.000004 -0.000001 8.039619 0.000000 0.000000 0.318947
    21 2.899849 -0.471046 -4.331210 -0.449452 -0.559880 -0.709305
    22 -0.000025 2.543312 0.000026 0.221028 0.000000 0.000000
    23 0.000059 2.315285 -0.000040 0.100872 0.000000 0.000000
    24 1.551407 3.956631 -3.900798 2.695900 -1.367576 -3.120852
    25 0.000000 2.741436 -0.000004 -0.256296 0.000000 0.000000
    26 0.000010 2.668510 0.000050 -0.190586 0.000000 0.000000
    27 1.401100 3.639805 -1.202109 2.031148 -1.355830 -2.447084
    28 0.000003 2.810951 0.000004 -0.256296 0.000000 0.000000
    29 -0.000005 2.736202 -0.000031 -0.190586 0.000000 0.000000
    30 1.335663 3.182098 1.418086 0.980184 -1.251585 -1.415249
    31 -0.000003 2.663269 0.000046 -0.256296 0.000000 0.000000
    32 0.000001 2.592527 -0.000031 -0.190586 0.000000 0.000000
    33 1.344765 1.881123 3.809589 1.120332 -1.203080 -1.477339
    34 0.000011 2.315664 -0.000084 -0.256296 0.000000 0.000000
    35 -0.000006 2.254017 0.000076 -0.190586 0.000000 0.000000
    36 0.011267 -6.809892 1.974034 -0.607868 0.000000 0.000000
    37 -0.011248 6.809885 -1.974043 -0.607868 0.000000 0.000000
  time 30
    0 0.761230 -518.314941 41.937500 -0.903808 -0.404808 0.141094
    1 0.000000 -5.355259 0.000000 0.099449 -0.153376 -0.138903
    2 0.000000 -7.488277 -0.000001 0.329873 -0.032871 0.035374
    3 0.000000 -5.597980 0.000000 0.377770 -0.008979 0.028112
    4 0.000000 -6.565113 -0.000001 0.757829 -0.011460 0.043794
    5 -1.549380 -5.102886 -4.074768 2.293223 -0.523631 -1.267046
    6 -0.000053 11.987244 0.000028 0.268952 -1.328272 2.144799
    7 20.109314 0.000000 -0.000002 1.406542 -1.196232 -3.043741
    8 19.941738 0.000001 -0.000004 1.112488 -0.379679 -2.775192
    9 6.938272 1.999413 -1.014580 3.070086 0.455796 1.830376
    10 20.710249 -0.000001 0.000000 3.141593 1.503666 3.141593
    11 18.105982 0.000001 0.000000 -0.851260 0.479059 1.574267
    12 -6.938270 1.999409 -1.014579 2.521991 0.980484 2.460814
    13 20.710224 0.000000 0.000000 0.000000 0.000000 1.098897
    14 18.106007 0.000000 -0.000001 2.615611 -1.329701 0.605821
    15 0.000000 -6.555973 0.000000 -0.093084 0.073409 0.310674
    16 0.000000 -3.252140 0.000004 -1.613871 -0.028649 -0.505530
    17 1.548545 -4.925743 -4.285366 -2.731896 -0.730360 -1.699645
    18 1.190170 -10.472042 -0.306138 1.353248 -0.238019 -0.934260
    19 0.000008 0.000000 15.020973 -0.201994 -0.066154 0.008339
    20 0.000004 -0.000001 8.039619 0.000000 0.000000 0.318947
    21 2.899849 -0.471046 -4.331210 -0.449452 -0.559880 -0.709305
    22 -0.000025 2.543312 0.000026 0.221028 0.000000 0.000000
    23 0.000059 2.315285 -0.000040 0.100872 0.000000 0.000000
    24 1.551407 3.956631 -3.900798 2.695900 -1.367576 -3.120852
    25 0.000000 2.741436 -0.000004 -0.256296 0.000000 0.000000
    26 0.000010 2.668510 0.000050 -0.190586 0.000000 0.000000
    27 1.401100 3.639805 -1.202109 2.031148 -1.355830 -2.447084
    28 0.000003 2.810951 0.000004 -0.256296 0.000000 0.000000
    29 -0.000005 2.736202 -0.000031 -0.190586 0.000000 0.000000
    30 1.335663 3.182098 1.418086 0.980184 -1.251585 -1.415249
    31 -0.000003 2.663269 0.000046 -0.256296 0.000000 0.000000
    32 0.000001 2.592527 -0.000031 -0.190586 0.000000 0.000000
    33 1.344765 1.881123 3.809589 1.120332 -1.203080 -1.477339
    34 0.000011 2.315664 -0.000084 -0.256296 0.000000 0.000000
    35 -0.000006 2.254017 0.000076 -0.190586 0.000000 0.000000
    36 0.011267 -6.809892 1.974034 -0.607868 0.000000 0.000000
    37 -0.011248 6.809885 -1.974043 -0.607868 0.000000 0.000000
end
