// Created by Crowbar 0.74
version 1
nodes
  0 "bip_pelvis" -1
  1 "bip_spine_0" 0
  2 "bip_spine_1" 1
  3 "bip_spine_2" 2
  4 "bip_spine_3" 3
  5 "bip_collar_R" 4
  6 "bip_upperArm_R" 5
  7 "bip_lowerArm_R" 6
  8 "bip_hand_R" 7
  9 "bip_hip_L" 0
  10 "bip_knee_L" 9
  11 "bip_foot_L" 10
  12 "bip_hip_R" 0
  13 "bip_knee_R" 12
  14 "bip_foot_R" 13
  15 "bip_neck" 4
  16 "bip_head" 15
  17 "bip_collar_L" 4
  18 "bip_upperArm_L" 17
  19 "bip_lowerArm_L" 18
  20 "bip_hand_L" 19
  21 "bip_thumb_0_R" 8
  22 "bip_thumb_1_R" 21
  23 "bip_thumb_2_R" 22
  24 "bip_index_0_R" 8
  25 "bip_index_1_R" 24
  26 "bip_index_2_R" 25
  27 "bip_middle_0_R" 8
  28 "bip_middle_1_R" 27
  29 "bip_middle_2_R" 28
  30 "bip_ring_0_R" 8
  31 "bip_ring_1_R" 30
  32 "bip_ring_2_R" 31
  33 "bip_pinky_0_R" 8
  34 "bip_pinky_1_R" 33
  35 "bip_pinky_2_R" 34
  36 "bip_toe_L" 11
  37 "bip_toe_R" 14
end
skeleton
  time 0
    0 -0.236938 -0.302490 40.687500 -0.872475 -0.175777 0.728098
    1 0.000000 -5.355259 0.000000 -0.256844 -0.149330 -0.375727
    2 0.000000 -7.488277 -0.000001 0.108416 0.010331 -0.033794
    3 0.000000 -5.597980 0.000000 0.268406 0.013403 -0.064104
    4 0.000000 -6.565113 -0.000001 0.794247 -0.031799 -0.141973
    5 -1.549380 -5.102886 -4.074768 2.677128 -0.804985 -1.474602
    6 -0.000053 11.987244 0.000028 -0.551158 -0.517873 2.146110
    7 20.109314 0.000000 -0.000002 -1.512098 -0.360056 -0.029601
    8 19.941738 0.000001 -0.000004 -0.451869 -0.359620 -1.451009
    9 6.938272 1.999413 -1.014580 2.711918 0.793253 1.247045
    10 20.710249 -0.000001 0.000000 0.000000 0.388175 0.000000
    11 18.105982 0.000001 0.000000 -1.027499 0.189832 1.349952
    12 -6.938270 1.999409 -1.014579 2.471429 1.169071 2.496050
    13 20.710224 0.000000 0.000000 0.000000 0.000000 1.055665
    14 18.106007 0.000000 -0.000001 1.572858 -1.283566 1.811649
    15 0.000000 -6.555973 0.000000 -0.372636 0.869507 -0.263347
    16 0.000000 -3.252140 0.000004 -1.136865 -0.207532 -0.331664
    17 1.548545 -4.925743 -4.285366 -2.653772 -0.771584 -1.651453
    18 1.190170 -10.472042 -0.306138 1.353248 -0.238019 -0.934260
    19 0.000008 0.000000 15.020973 -0.201994 -0.066154 0.008339
    20 0.000004 -0.000001 8.039619 0.000000 0.000000 0.318947
    21 2.899849 -0.471046 -4.331210 -0.449452 -0.559880 -0.709305
    22 -0.000025 2.543312 0.000026 0.221028 0.000000 0.000000
    23 0.000059 2.315285 -0.000040 0.100872 0.000000 0.000000
    24 1.551407 3.956631 -3.900798 2.695900 -1.367576 -3.120852
    25 0.000000 2.741436 -0.000004 -0.256296 0.000000 0.000000
    26 0.000010 2.668510 0.000050 -0.190586 0.000000 0.000000
    27 1.401100 3.639805 -1.202109 2.031148 -1.355830 -2.447084
    28 0.000003 2.810951 0.000004 -0.256296 0.000000 0.000000
    29 -0.000005 2.736202 -0.000031 -0.190586 0.000000 0.000000
    30 1.335663 3.182098 1.418086 0.980184 -1.251585 -1.415249
    31 -0.000003 2.663269 0.000046 -0.256296 0.000000 0.000000
    32 0.000001 2.592527 -0.000031 -0.190586 0.000000 0.000000
    33 1.344765 1.881123 3.809589 1.120332 -1.203080 -1.477339
    34 0.000011 2.315664 -0.000084 -0.256296 0.000000 0.000000
    35 -0.000006 2.254017 0.000076 -0.190586 0.000000 0.000000
    36 0.011267 -6.809892 1.974034 -0.607868 0.000000 0.000000
    37 -0.011248 6.809885 -1.974043 -0.607868 0.000000 0.000000
end
