// Created by Crowbar 0.74
version 1
nodes
  0 "bip_pelvis" -1
  1 "bip_spine_0" 0
  2 "bip_spine_1" 1
  3 "bip_spine_2" 2
  4 "bip_spine_3" 3
  5 "bip_collar_R" 4
  6 "bip_upperArm_R" 5
  7 "bip_lowerArm_R" 6
  8 "bip_hand_R" 7
  9 "bip_hip_L" 0
  10 "bip_knee_L" 9
  11 "bip_foot_L" 10
  12 "bip_hip_R" 0
  13 "bip_knee_R" 12
  14 "bip_foot_R" 13
  15 "bip_neck" 4
  16 "bip_head" 15
  17 "bip_collar_L" 4
  18 "bip_upperArm_L" 17
  19 "bip_lowerArm_L" 18
  20 "bip_hand_L" 19
  21 "bip_thumb_0_R" 8
  22 "bip_thumb_1_R" 21
  23 "bip_thumb_2_R" 22
  24 "bip_index_0_R" 8
  25 "bip_index_1_R" 24
  26 "bip_index_2_R" 25
  27 "bip_middle_0_R" 8
  28 "bip_middle_1_R" 27
  29 "bip_middle_2_R" 28
  30 "bip_ring_0_R" 8
  31 "bip_ring_1_R" 30
  32 "bip_ring_2_R" 31
  33 "bip_pinky_0_R" 8
  34 "bip_pinky_1_R" 33
  35 "bip_pinky_2_R" 34
  36 "bip_toe_L" 11
  37 "bip_toe_R" 14
end
skeleton
  time 0
    0 2.437500 0.889648 -1.177734 -0.075549 -0.003621 -1.345536
    1 -1.074219 0.122864 -0.377197 -0.013274 0.070417 -0.174505
    2 0.000000 0.000000 0.000000 -0.055248 0.023532 0.031714
    3 0.000000 0.000000 0.000000 -0.054963 -0.011670 0.138547
    4 0.000000 0.000000 0.000000 -0.122817 -0.027919 0.172428
    5 0.000000 0.000000 0.000000 -0.000183 0.000000 0.000000
    6 0.000000 0.000000 0.000000 -0.168855 0.158537 0.346473
    7 0.000000 0.000000 0.000000 -0.000933 0.002516 -0.109798
    8 0.000000 0.000000 0.000000 0.061741 0.061119 0.131495
    9 0.000000 0.000000 0.000000 0.320014 -0.199035 0.030282
    10 0.000000 0.000000 0.000000 0.000000 0.492700 0.000000
    11 0.000000 0.000000 0.000000 -0.291821 0.104960 0.008654
    12 0.000000 0.000000 0.000000 0.402111 0.125585 0.234825
    13 0.000000 0.000000 0.000000 0.000000 0.000000 -0.001953
    14 0.000000 0.000000 0.000000 0.023526 -0.156974 -0.253055
    15 0.000000 0.000000 0.000000 -0.102898 -0.321625 0.092257
    16 0.000000 0.000000 0.000000 -0.237864 -0.401540 0.196510
    17 0.000000 0.000000 0.000000 0.000000 0.000000 0.000000
    18 0.000000 0.000000 0.000000 0.000000 0.000000 0.000000
    19 0.000000 0.000000 0.000000 0.000000 0.000000 0.000000
    20 0.000000 0.000000 0.000000 0.000000 0.000000 0.000000
    21 0.000000 0.000000 0.000000 0.000000 0.000000 0.000000
    22 0.000000 0.000000 0.000000 0.000000 0.000000 0.000000
    23 0.000000 0.000000 0.000000 0.000000 0.000000 0.000000
    24 0.000000 0.000000 0.000000 0.000000 0.000000 0.000000
    25 0.000000 0.000000 0.000000 0.000000 0.000000 0.000000
    26 0.000000 0.000000 0.000000 0.000000 0.000000 0.000000
    27 0.000000 0.000000 0.000000 0.000000 0.000000 0.000000
    28 0.000000 0.000000 0.000000 0.000000 0.000000 0.000000
    29 0.000000 0.000000 0.000000 0.000000 0.000000 0.000000
    30 0.000000 0.000000 0.000000 0.000000 0.000000 0.000000
    31 0.000000 0.000000 0.000000 0.000000 0.000000 0.000000
    32 0.000000 0.000000 0.000000 0.000000 0.000000 0.000000
    33 0.000000 0.000000 0.000000 0.000000 0.000000 0.000000
    34 0.000000 0.000000 0.000000 0.000000 0.000000 0.000000
    35 0.000000 0.000000 0.000000 0.000000 0.000000 0.000000
    36 0.000000 0.000000 0.000000 0.000000 0.000000 0.000000
    37 0.000000 0.000000 0.000000 0.000000 0.000000 0.000000
end
