// Created by Crowbar 0.74
version 1
nodes
  0 "bip_pelvis" -1
  1 "bip_spine_0" 0
  2 "bip_spine_1" 1
  3 "bip_spine_2" 2
  4 "bip_spine_3" 3
  5 "bip_collar_R" 4
  6 "bip_upperArm_R" 5
  7 "bip_lowerArm_R" 6
  8 "bip_hand_R" 7
  9 "bip_hip_L" 0
  10 "bip_knee_L" 9
  11 "bip_foot_L" 10
  12 "bip_hip_R" 0
  13 "bip_knee_R" 12
  14 "bip_foot_R" 13
  15 "bip_neck" 4
  16 "bip_head" 15
  17 "bip_collar_L" 4
  18 "bip_upperArm_L" 17
  19 "bip_lowerArm_L" 18
  20 "bip_hand_L" 19
  21 "bip_thumb_0_R" 8
  22 "bip_thumb_1_R" 21
  23 "bip_thumb_2_R" 22
  24 "bip_index_0_R" 8
  25 "bip_index_1_R" 24
  26 "bip_index_2_R" 25
  27 "bip_middle_0_R" 8
  28 "bip_middle_1_R" 27
  29 "bip_middle_2_R" 28
  30 "bip_ring_0_R" 8
  31 "bip_ring_1_R" 30
  32 "bip_ring_2_R" 31
  33 "bip_pinky_0_R" 8
  34 "bip_pinky_1_R" 33
  35 "bip_pinky_2_R" 34
  36 "bip_toe_L" 11
  37 "bip_toe_R" 14
end
skeleton
  time 0
    0 -3.794922 7.164063 40.187500 -1.506541 0.029204 0.165950
    1 0.000000 -5.355259 0.000000 0.216969 0.002542 -0.008687
    2 0.000000 -7.488277 -0.000001 0.178205 0.003333 -0.006443
    3 0.000000 -5.597980 0.000000 -0.092747 0.003636 -0.000658
    4 0.000000 -6.565113 -0.000001 0.309529 0.003641 0.002792
    5 -1.549380 -5.102886 -4.074768 -1.979092 -1.381989 -2.919953
    6 -0.000053 11.987244 0.000028 -0.600433 -0.264186 2.218968
    7 20.109314 0.000000 -0.000002 1.570078 -1.488196 -3.140748
    8 19.941738 0.000001 -0.000004 -2.320170 -0.987496 0.851891
    9 6.938272 1.999413 -1.014580 -2.968068 1.337849 1.956985
    10 20.710249 -0.000001 0.000000 3.141593 1.528347 3.141593
    11 18.105982 0.000001 0.000000 -1.575685 -0.042669 1.800608
    12 -6.938270 1.999409 -1.014579 1.589259 1.279680 1.509851
    13 20.710224 0.000000 0.000000 0.000000 0.000000 1.779701
    14 18.106007 0.000000 -0.000001 1.777061 -1.471211 1.560726
    15 0.000000 -6.555973 0.000000 1.261694 0.004583 -0.083903
    16 0.000000 -3.252140 0.000004 -1.733716 -0.045742 -0.012334
    17 1.548545 -4.925743 -4.285366 3.036908 0.093267 -1.867239
    18 1.190170 -10.472042 -0.306138 1.353248 -0.238019 -0.934260
    19 0.000008 0.000000 15.020973 -0.201994 -0.066154 0.008339
    20 0.000004 -0.000001 8.039619 0.000000 0.000000 0.318947
    21 2.899849 -0.471046 -4.331210 -0.449452 -0.559880 -0.709305
    22 -0.000025 2.543312 0.000026 0.221028 0.000000 0.000000
    23 0.000059 2.315285 -0.000040 0.100872 0.000000 0.000000
    24 1.551407 3.956631 -3.900798 2.695900 -1.367576 -3.120852
    25 0.000000 2.741436 -0.000004 -0.256296 0.000000 0.000000
    26 0.000010 2.668510 0.000050 -0.190586 0.000000 0.000000
    27 1.401100 3.639805 -1.202109 2.031148 -1.355830 -2.447084
    28 0.000003 2.810951 0.000004 -0.256296 0.000000 0.000000
    29 -0.000005 2.736202 -0.000031 -0.190586 0.000000 0.000000
    30 1.335663 3.182098 1.418086 0.980184 -1.251585 -1.415249
    31 -0.000003 2.663269 0.000046 -0.256296 0.000000 0.000000
    32 0.000001 2.592527 -0.000031 -0.190586 0.000000 0.000000
    33 1.344765 1.881123 3.809589 1.120332 -1.203080 -1.477339
    34 0.000011 2.315664 -0.000084 -0.256296 0.000000 0.000000
    35 -0.000006 2.254017 0.000076 -0.190586 0.000000 0.000000
    36 -0.000001 -4.648438 0.000000 -0.795513 0.007940 0.008183
    37 0.000018 4.648438 -0.000004 -0.694665 0.003441 0.003947
  time 1
    0 -3.111328 6.308594 42.861318 -1.518769 0.037063 0.071452
    1 0.000000 -5.355259 0.000000 0.199486 -0.009169 -0.023001
    2 0.000000 -7.488277 -0.000001 0.166529 -0.005745 -0.022897
    3 0.000000 -5.597980 0.000000 -0.089418 -0.004736 -0.012985
    4 0.000000 -6.565113 -0.000001 0.320287 -0.004057 -0.004736
    5 -1.549380 -5.102886 -4.074768 -2.003285 -1.386802 -2.844352
    6 -0.000053 11.987244 0.000028 -0.657667 -0.276171 2.237030
    7 20.109314 0.000000 -0.000002 1.569576 -1.489215 -3.140205
    8 19.941738 0.000001 -0.000004 -2.605740 -1.018170 1.173093
    9 6.938272 1.999413 -1.014580 3.083252 1.130938 1.652966
    10 20.710249 -0.000001 0.000000 0.000000 1.343626 0.000000
    11 18.105982 0.000001 0.000000 -1.534146 -0.144343 1.923933
    12 -6.938270 1.999409 -1.014579 1.491582 1.350454 1.360964
    13 20.710224 0.000000 0.000000 0.000000 0.000000 2.040248
    14 18.106007 0.000000 -0.000001 -1.890520 -1.512339 -1.245869
    15 0.000000 -6.555973 0.000000 1.251674 0.003395 -0.065035
    16 0.000000 -3.252140 0.000004 -1.727328 -0.029562 -0.013701
    17 1.548545 -4.925743 -4.285366 2.998222 0.091065 -1.835210
    18 1.190170 -10.472042 -0.306138 1.353248 -0.238019 -0.934260
    19 0.000008 0.000000 15.020973 -0.201994 -0.066154 0.008339
    20 0.000004 -0.000001 8.039619 0.000000 0.000000 0.318947
    21 2.899849 -0.471046 -4.331210 -0.449452 -0.559880 -0.709305
    22 -0.000025 2.543312 0.000026 0.221028 0.000000 0.000000
    23 0.000059 2.315285 -0.000040 0.100872 0.000000 0.000000
    24 1.551407 3.956631 -3.900798 2.695900 -1.367576 -3.120852
    25 0.000000 2.741436 -0.000004 -0.256296 0.000000 0.000000
    26 0.000010 2.668510 0.000050 -0.190586 0.000000 0.000000
    27 1.401100 3.639805 -1.202109 2.031148 -1.355830 -2.447084
    28 0.000003 2.810951 0.000004 -0.256296 0.000000 0.000000
    29 -0.000005 2.736202 -0.000031 -0.190586 0.000000 0.000000
    30 1.335663 3.182098 1.418086 0.980184 -1.251585 -1.415249
    31 -0.000003 2.663269 0.000046 -0.256296 0.000000 0.000000
    32 0.000001 2.592527 -0.000031 -0.190586 0.000000 0.000000
    33 1.344765 1.881123 3.809589 1.120332 -1.203080 -1.477339
    34 0.000011 2.315664 -0.000084 -0.256296 0.000000 0.000000
    35 -0.000006 2.254017 0.000076 -0.190586 0.000000 0.000000
    36 -0.000001 -4.648438 0.000000 -1.114961 0.024592 0.018332
    37 0.000018 4.648438 -0.000004 -0.701160 0.003752 0.004217
  time 2
    0 -2.517578 5.421875 45.066385 -1.546515 0.064027 -0.026868
    1 0.000000 -5.355259 0.000000 0.204533 -0.022702 -0.044303
    2 0.000000 -7.488277 -0.000001 0.169680 -0.015232 -0.047120
    3 0.000000 -5.597980 0.000000 -0.088270 -0.012613 -0.033781
    4 0.000000 -6.565113 -0.000001 0.315896 -0.010745 -0.020624
    5 -1.549380 -5.102886 -4.074768 -2.090319 -1.415295 -2.651063
    6 -0.000053 11.987244 0.000028 -0.674542 -0.336716 2.189942
    7 20.109314 0.000000 -0.000002 1.569858 -1.490043 -3.140576
    8 19.941738 0.000001 -0.000004 -3.114239 -1.123978 1.797112
    9 6.938272 1.999413 -1.014580 3.088403 0.990255 1.531521
    10 20.710249 -0.000001 0.000000 0.000000 1.117054 0.000000
    11 18.105982 0.000001 0.000000 -0.880992 -0.360010 1.714514
    12 -6.938270 1.999409 -1.014579 1.103879 1.413493 0.891217
    13 20.710224 0.000000 0.000000 0.000000 0.000000 2.269810
    14 18.106007 0.000000 -0.000001 -1.762187 -1.352353 -1.502919
    15 0.000000 -6.555973 0.000000 1.235192 0.003758 -0.035963
    16 0.000000 -3.252140 0.000004 -1.757597 -0.007003 -0.017377
    17 1.548545 -4.925743 -4.285366 2.991997 0.091523 -1.841884
    18 1.190170 -10.472042 -0.306138 1.353248 -0.238019 -0.934260
    19 0.000008 0.000000 15.020973 -0.201994 -0.066154 0.008339
    20 0.000004 -0.000001 8.039619 0.000000 0.000000 0.318947
    21 2.899849 -0.471046 -4.331210 -0.449452 -0.559880 -0.709305
    22 -0.000025 2.543312 0.000026 0.221028 0.000000 0.000000
    23 0.000059 2.315285 -0.000040 0.100872 0.000000 0.000000
    24 1.551407 3.956631 -3.900798 2.695900 -1.367576 -3.120852
    25 0.000000 2.741436 -0.000004 -0.256296 0.000000 0.000000
    26 0.000010 2.668510 0.000050 -0.190586 0.000000 0.000000
    27 1.401100 3.639805 -1.202109 2.031148 -1.355830 -2.447084
    28 0.000003 2.810951 0.000004 -0.256296 0.000000 0.000000
    29 -0.000005 2.736202 -0.000031 -0.190586 0.000000 0.000000
    30 1.335663 3.182098 1.418086 0.980184 -1.251585 -1.415249
    31 -0.000003 2.663269 0.000046 -0.256296 0.000000 0.000000
    32 0.000001 2.592527 -0.000031 -0.190586 0.000000 0.000000
    33 1.344765 1.881123 3.809589 1.120332 -1.203080 -1.477339
    34 0.000011 2.315664 -0.000084 -0.256296 0.000000 0.000000
    35 -0.000006 2.254017 0.000076 -0.190586 0.000000 0.000000
    36 -0.000001 -4.648438 0.000000 -1.187140 0.028688 0.019818
    37 0.000018 4.648438 -0.000004 -0.690513 0.003293 0.003745
  time 3
    0 -2.140625 4.871094 47.490203 -1.542850 0.077381 -0.096647
    1 0.000000 -5.355259 0.000000 0.204708 -0.024722 -0.056912
    2 0.000000 -7.488277 -0.000001 0.169853 -0.016697 -0.054355
    3 0.000000 -5.597980 0.000000 -0.085334 -0.013907 -0.030931
    4 0.000000 -6.565113 -0.000001 0.315368 -0.012306 -0.013947
    5 -1.549380 -5.102886 -4.074768 -2.166703 -1.452235 -2.555228
    6 -0.000053 11.987244 0.000028 -0.630619 -0.443982 2.115076
    7 20.109314 0.000000 -0.000002 1.570306 -1.458128 -3.140979
    8 19.941738 0.000001 -0.000004 2.587094 -1.039436 2.510149
    9 6.938272 1.999413 -1.014580 -3.099950 0.933240 1.504798
    10 20.710249 -0.000001 0.000000 0.000000 1.072380 0.000000
    11 18.105982 0.000001 0.000000 -0.792419 -0.258924 1.628445
    12 -6.938270 1.999409 -1.014579 0.065640 1.435308 -0.221363
    13 20.710224 0.000000 0.000000 0.000000 0.000000 2.414099
    14 18.106007 0.000000 -0.000001 -1.828406 -1.320566 -1.467457
    15 0.000000 -6.555973 0.000000 1.204540 -0.010562 -0.064598
    16 0.000000 -3.252140 0.000004 -1.779075 -0.018444 -0.007489
    17 1.548545 -4.925743 -4.285366 2.995948 0.089079 -1.866398
    18 1.190170 -10.472042 -0.306138 1.353248 -0.238019 -0.934260
    19 0.000008 0.000000 15.020973 -0.201994 -0.066154 0.008339
    20 0.000004 -0.000001 8.039619 0.000000 0.000000 0.318947
    21 2.899849 -0.471046 -4.331210 -0.449452 -0.559880 -0.709305
    22 -0.000025 2.543312 0.000026 0.221028 0.000000 0.000000
    23 0.000059 2.315285 -0.000040 0.100872 0.000000 0.000000
    24 1.551407 3.956631 -3.900798 2.695900 -1.367576 -3.120852
    25 0.000000 2.741436 -0.000004 -0.256296 0.000000 0.000000
    26 0.000010 2.668510 0.000050 -0.190586 0.000000 0.000000
    27 1.401100 3.639805 -1.202109 2.031148 -1.355830 -2.447084
    28 0.000003 2.810951 0.000004 -0.256296 0.000000 0.000000
    29 -0.000005 2.736202 -0.000031 -0.190586 0.000000 0.000000
    30 1.335663 3.182098 1.418086 0.980184 -1.251585 -1.415249
    31 -0.000003 2.663269 0.000046 -0.256296 0.000000 0.000000
    32 0.000001 2.592527 -0.000031 -0.190586 0.000000 0.000000
    33 1.344765 1.881123 3.809589 1.120332 -1.203080 -1.477339
    34 0.000011 2.315664 -0.000084 -0.256296 0.000000 0.000000
    35 -0.000006 2.254017 0.000076 -0.190586 0.000000 0.000000
    36 -0.000001 -4.648438 0.000000 -0.730350 0.004993 0.005540
    37 0.000018 4.648438 -0.000004 -0.691097 0.003294 0.003744
  time 4
    0 -1.986328 4.679688 50.195271 -1.519706 0.080239 -0.126329
    1 0.000000 -5.355259 0.000000 0.192818 -0.018171 -0.053765
    2 0.000000 -7.488277 -0.000001 0.162794 -0.011562 -0.047489
    3 0.000000 -5.597980 0.000000 -0.081042 -0.009760 -0.020740
    4 0.000000 -6.565113 -0.000001 0.324067 -0.008841 -0.003424
    5 -1.549380 -5.102886 -4.074768 -2.303917 -1.471442 -2.450061
    6 -0.000053 11.987244 0.000028 -0.445005 -0.558519 1.954643
    7 20.109314 0.000000 -0.000002 1.570672 -1.433928 -3.141450
    8 19.941738 0.000001 -0.000004 2.345007 -0.977879 2.825619
    9 6.938272 1.999413 -1.014580 3.093558 0.904003 1.429931
    10 20.710249 -0.000001 0.000000 0.000000 1.060968 0.000000
    11 18.105982 0.000001 0.000000 -0.867304 -0.164930 1.587005
    12 -6.938270 1.999409 -1.014579 -0.637363 1.337433 -0.955702
    13 20.710224 0.000000 0.000000 0.000000 0.000000 2.431101
    14 18.106007 0.000000 -0.000001 -2.178271 -1.443632 -1.098956
    15 0.000000 -6.555973 0.000000 1.213392 -0.027835 -0.096905
    16 0.000000 -3.252140 0.000004 -1.773792 -0.037508 0.010850
    17 1.548545 -4.925743 -4.285366 2.964733 0.078567 -1.847726
    18 1.190170 -10.472042 -0.306138 1.353248 -0.238019 -0.934260
    19 0.000008 0.000000 15.020973 -0.201994 -0.066154 0.008339
    20 0.000004 -0.000001 8.039619 0.000000 0.000000 0.318947
    21 2.899849 -0.471046 -4.331210 -0.449452 -0.559880 -0.709305
    22 -0.000025 2.543312 0.000026 0.221028 0.000000 0.000000
    23 0.000059 2.315285 -0.000040 0.100872 0.000000 0.000000
    24 1.551407 3.956631 -3.900798 2.695900 -1.367576 -3.120852
    25 0.000000 2.741436 -0.000004 -0.256296 0.000000 0.000000
    26 0.000010 2.668510 0.000050 -0.190586 0.000000 0.000000
    27 1.401100 3.639805 -1.202109 2.031148 -1.355830 -2.447084
    28 0.000003 2.810951 0.000004 -0.256296 0.000000 0.000000
    29 -0.000005 2.736202 -0.000031 -0.190586 0.000000 0.000000
    30 1.335663 3.182098 1.418086 0.980184 -1.251585 -1.415249
    31 -0.000003 2.663269 0.000046 -0.256296 0.000000 0.000000
    32 0.000001 2.592527 -0.000031 -0.190586 0.000000 0.000000
    33 1.344765 1.881123 3.809589 1.120332 -1.203080 -1.477339
    34 0.000011 2.315664 -0.000084 -0.256296 0.000000 0.000000
    35 -0.000006 2.254017 0.000076 -0.190586 0.000000 0.000000
    36 -0.000001 -4.648438 0.000000 -0.709939 0.004112 0.004595
    37 0.000018 4.648438 -0.000004 -0.677492 0.002737 0.003177
  time 5
    0 -1.902344 4.765625 52.931588 -1.500940 0.075620 -0.144082
    1 0.000000 -5.355259 0.000000 0.176389 -0.014687 -0.051549
    2 0.000000 -7.488277 -0.000001 0.154563 -0.009394 -0.042359
    3 0.000000 -5.597980 0.000000 -0.072910 -0.008565 -0.010437
    4 0.000000 -6.565113 -0.000001 0.342091 -0.008399 0.008460
    5 -1.549380 -5.102886 -4.074768 -2.342933 -1.467453 -2.430700
    6 -0.000053 11.987244 0.000028 -0.167094 -0.634260 1.727481
    7 20.109314 0.000000 -0.000002 1.570101 -1.473417 -3.140826
    8 19.941738 0.000001 -0.000004 2.473812 -1.060305 2.646501
    9 6.938272 1.999413 -1.014580 2.913056 0.878992 1.335967
    10 20.710249 -0.000001 0.000000 0.000000 1.080128 0.000000
    11 18.105982 0.000001 0.000000 -0.837946 -0.296437 1.587494
    12 -6.938270 1.999409 -1.014579 -0.813718 1.260752 -1.130161
    13 20.710224 0.000000 0.000000 0.000000 0.000000 2.354333
    14 18.106007 0.000000 -0.000001 2.622073 -1.502038 0.387041
    15 0.000000 -6.555973 0.000000 1.242303 -0.035929 -0.094634
    16 0.000000 -3.252140 0.000004 -1.754194 -0.042742 0.026387
    17 1.548545 -4.925743 -4.285366 2.928586 0.064341 -1.790216
    18 1.190170 -10.472042 -0.306138 1.353248 -0.238019 -0.934260
    19 0.000008 0.000000 15.020973 -0.201994 -0.066154 0.008339
    20 0.000004 -0.000001 8.039619 0.000000 0.000000 0.318947
    21 2.899849 -0.471046 -4.331210 -0.449452 -0.559880 -0.709305
    22 -0.000025 2.543312 0.000026 0.221028 0.000000 0.000000
    23 0.000059 2.315285 -0.000040 0.100872 0.000000 0.000000
    24 1.551407 3.956631 -3.900798 2.695900 -1.367576 -3.120852
    25 0.000000 2.741436 -0.000004 -0.256296 0.000000 0.000000
    26 0.000010 2.668510 0.000050 -0.190586 0.000000 0.000000
    27 1.401100 3.639805 -1.202109 2.031148 -1.355830 -2.447084
    28 0.000003 2.810951 0.000004 -0.256296 0.000000 0.000000
    29 -0.000005 2.736202 -0.000031 -0.190586 0.000000 0.000000
    30 1.335663 3.182098 1.418086 0.980184 -1.251585 -1.415249
    31 -0.000003 2.663269 0.000046 -0.256296 0.000000 0.000000
    32 0.000001 2.592527 -0.000031 -0.190586 0.000000 0.000000
    33 1.344765 1.881123 3.809589 1.120332 -1.203080 -1.477339
    34 0.000011 2.315664 -0.000084 -0.256296 0.000000 0.000000
    35 -0.000006 2.254017 0.000076 -0.190586 0.000000 0.000000
    36 -0.000001 -4.648438 0.000000 -0.685975 0.003087 0.003564
    37 0.000018 4.648438 -0.000004 -0.683319 0.002984 0.003473
  time 6
    0 -1.782227 4.882813 55.605406 -1.498306 0.060728 -0.163522
    1 0.000000 -5.355259 0.000000 0.180937 -0.015449 -0.050682
    2 0.000000 -7.488277 -0.000001 0.158427 -0.012063 -0.035492
    3 0.000000 -5.597980 0.000000 -0.074298 -0.012722 0.009390
    4 0.000000 -6.565113 -0.000001 0.344364 -0.013879 0.032777
    5 -1.549380 -5.102886 -4.074768 -2.429868 -1.470919 -2.362417
    6 -0.000053 11.987244 0.000028 -0.001725 -0.711382 1.671772
    7 20.109314 0.000000 -0.000002 -1.569217 -1.529532 -0.001455
    8 19.941738 0.000001 -0.000004 -2.655198 -1.255484 1.349268
    9 6.938272 1.999413 -1.014580 2.870346 0.866225 1.326782
    10 20.710249 -0.000001 0.000000 0.000000 1.153538 0.000000
    11 18.105982 0.000001 0.000000 -0.864769 -0.399460 1.563226
    12 -6.938270 1.999409 -1.014579 -0.781295 1.280720 -1.066773
    13 20.710224 0.000000 0.000000 0.000000 0.000000 2.207417
    14 18.106007 0.000000 -0.000001 1.813014 -1.431269 1.211471
    15 0.000000 -6.555973 0.000000 1.251493 -0.042003 -0.104176
    16 0.000000 -3.252140 0.000004 -1.743482 -0.050602 0.035149
    17 1.548545 -4.925743 -4.285366 2.926995 0.037822 -1.752370
    18 1.190170 -10.472042 -0.306138 1.353248 -0.238019 -0.934260
    19 0.000008 0.000000 15.020973 -0.201994 -0.066154 0.008339
    20 0.000004 -0.000001 8.039619 0.000000 0.000000 0.318947
    21 2.899849 -0.471046 -4.331210 -0.449452 -0.559880 -0.709305
    22 -0.000025 2.543312 0.000026 0.221028 0.000000 0.000000
    23 0.000059 2.315285 -0.000040 0.100872 0.000000 0.000000
    24 1.551407 3.956631 -3.900798 2.695900 -1.367576 -3.120852
    25 0.000000 2.741436 -0.000004 -0.256296 0.000000 0.000000
    26 0.000010 2.668510 0.000050 -0.190586 0.000000 0.000000
    27 1.401100 3.639805 -1.202109 2.031148 -1.355830 -2.447084
    28 0.000003 2.810951 0.000004 -0.256296 0.000000 0.000000
    29 -0.000005 2.736202 -0.000031 -0.190586 0.000000 0.000000
    30 1.335663 3.182098 1.418086 0.980184 -1.251585 -1.415249
    31 -0.000003 2.663269 0.000046 -0.256296 0.000000 0.000000
    32 0.000001 2.592527 -0.000031 -0.190586 0.000000 0.000000
    33 1.344765 1.881123 3.809589 1.120332 -1.203080 -1.477339
    34 0.000011 2.315664 -0.000084 -0.256296 0.000000 0.000000
    35 -0.000006 2.254017 0.000076 -0.190586 0.000000 0.000000
    36 -0.000001 -4.648438 0.000000 -0.682153 0.002941 0.003360
    37 0.000018 4.648438 -0.000004 -0.674451 0.002634 0.003086
  time 7
    0 -1.762695 4.886719 58.029223 -1.525119 0.051218 -0.164488
    1 0.000000 -5.355259 0.000000 0.188113 -0.010962 -0.050207
    2 0.000000 -7.488277 -0.000001 0.166906 -0.010516 -0.025135
    3 0.000000 -5.597980 0.000000 -0.067878 -0.013255 0.034163
    4 0.000000 -6.565113 -0.000001 0.350171 -0.016141 0.060380
    5 -1.549380 -5.102886 -4.074768 -2.327399 -1.456448 -2.477839
    6 -0.000053 11.987244 0.000028 0.049755 -0.866796 1.773165
    7 20.109314 0.000000 -0.000002 -1.570707 -1.203659 -0.000061
    8 19.941738 0.000001 -0.000004 -1.711725 -0.909352 0.211225
    9 6.938272 1.999413 -1.014580 2.839333 0.861317 1.314088
    10 20.710249 -0.000001 0.000000 0.000000 1.297261 0.000000
    11 18.105982 0.000001 0.000000 -0.951630 -0.431231 1.445143
    12 -6.938270 1.999409 -1.014579 -0.460960 1.381190 -0.722561
    13 20.710224 0.000000 0.000000 0.000000 0.000000 2.018969
    14 18.106007 0.000000 -0.000001 2.023421 -1.413603 1.024287
    15 0.000000 -6.555973 0.000000 1.251659 -0.054766 -0.142370
    16 0.000000 -3.252140 0.000004 -1.750109 -0.074571 0.048728
    17 1.548545 -4.925743 -4.285366 2.922965 0.012545 -1.764334
    18 1.190170 -10.472042 -0.306138 1.353248 -0.238019 -0.934260
    19 0.000008 0.000000 15.020973 -0.201994 -0.066154 0.008339
    20 0.000004 -0.000001 8.039619 0.000000 0.000000 0.318947
    21 2.899849 -0.471046 -4.331210 -0.449452 -0.559880 -0.709305
    22 -0.000025 2.543312 0.000026 0.221028 0.000000 0.000000
    23 0.000059 2.315285 -0.000040 0.100872 0.000000 0.000000
    24 1.551407 3.956631 -3.900798 2.695900 -1.367576 -3.120852
    25 0.000000 2.741436 -0.000004 -0.256296 0.000000 0.000000
    26 0.000010 2.668510 0.000050 -0.190586 0.000000 0.000000
    27 1.401100 3.639805 -1.202109 2.031148 -1.355830 -2.447084
    28 0.000003 2.810951 0.000004 -0.256296 0.000000 0.000000
    29 -0.000005 2.736202 -0.000031 -0.190586 0.000000 0.000000
    30 1.335663 3.182098 1.418086 0.980184 -1.251585 -1.415249
    31 -0.000003 2.663269 0.000046 -0.256296 0.000000 0.000000
    32 0.000001 2.592527 -0.000031 -0.190586 0.000000 0.000000
    33 1.344765 1.881123 3.809589 1.120332 -1.203080 -1.477339
    34 0.000011 2.315664 -0.000084 -0.256296 0.000000 0.000000
    35 -0.000006 2.254017 0.000076 -0.190586 0.000000 0.000000
    36 -0.000001 -4.648438 0.000000 -0.680987 0.002882 0.003382
    37 0.000018 4.648438 -0.000004 -0.676133 0.002637 0.003084
  time 8
    0 -1.907227 4.742188 60.453041 -1.566209 0.046604 -0.144095
    1 0.000000 -5.355259 0.000000 0.184017 -0.004581 -0.033401
    2 0.000000 -7.488277 -0.000001 0.169112 -0.007066 -0.006969
    3 0.000000 -5.597980 0.000000 -0.054109 -0.010825 0.046824
    4 0.000000 -6.565113 -0.000001 0.365601 -0.014429 0.067611
    5 -1.549380 -5.102886 -4.074768 -2.210001 -1.427342 -2.603985
    6 -0.000053 11.987244 0.000028 0.122776 -1.003860 1.816633
    7 20.109314 0.000000 -0.000002 -1.570725 -0.856337 0.000015
    8 19.941738 0.000001 -0.000004 -1.710817 -1.028107 0.214001
    9 6.938272 1.999413 -1.014580 2.769568 0.862360 1.277023
    10 20.710249 -0.000001 0.000000 0.000000 1.499254 0.000000
    11 18.105982 0.000001 0.000000 -1.171259 -0.452438 1.436528
    12 -6.938270 1.999409 -1.014579 0.752277 1.405885 0.518371
    13 20.710224 0.000000 0.000000 0.000000 0.000000 1.802156
    14 18.106007 0.000000 -0.000001 2.262265 -1.405680 0.745655
    15 0.000000 -6.555973 0.000000 1.241968 -0.054253 -0.188474
    16 0.000000 -3.252140 0.000004 -1.756056 -0.112323 0.053687
    17 1.548545 -4.925743 -4.285366 2.906551 0.003788 -1.786473
    18 1.190170 -10.472042 -0.306138 1.353248 -0.238019 -0.934260
    19 0.000008 0.000000 15.020973 -0.201994 -0.066154 0.008339
    20 0.000004 -0.000001 8.039619 0.000000 0.000000 0.318947
    21 2.899849 -0.471046 -4.331210 -0.449452 -0.559880 -0.709305
    22 -0.000025 2.543312 0.000026 0.221028 0.000000 0.000000
    23 0.000059 2.315285 -0.000040 0.100872 0.000000 0.000000
    24 1.551407 3.956631 -3.900798 2.695900 -1.367576 -3.120852
    25 0.000000 2.741436 -0.000004 -0.256296 0.000000 0.000000
    26 0.000010 2.668510 0.000050 -0.190586 0.000000 0.000000
    27 1.401100 3.639805 -1.202109 2.031148 -1.355830 -2.447084
    28 0.000003 2.810951 0.000004 -0.256296 0.000000 0.000000
    29 -0.000005 2.736202 -0.000031 -0.190586 0.000000 0.000000
    30 1.335663 3.182098 1.418086 0.980184 -1.251585 -1.415249
    31 -0.000003 2.663269 0.000046 -0.256296 0.000000 0.000000
    32 0.000001 2.592527 -0.000031 -0.190586 0.000000 0.000000
    33 1.344765 1.881123 3.809589 1.120332 -1.203080 -1.477339
    34 0.000011 2.315664 -0.000084 -0.256296 0.000000 0.000000
    35 -0.000006 2.254017 0.000076 -0.190586 0.000000 0.000000
    36 -0.000001 -4.648438 0.000000 -0.680469 0.002840 0.003268
    37 0.000018 4.648438 -0.000004 -0.694795 0.003441 0.003947
  time 9
    0 -2.044922 4.632813 63.001859 -1.599139 0.042515 -0.108865
    1 0.000000 -5.355259 0.000000 0.178675 0.004655 -0.015026
    2 0.000000 -7.488277 -0.000001 0.167918 -0.001137 0.014237
    3 0.000000 -5.597980 0.000000 -0.046856 -0.006057 0.064746
    4 0.000000 -6.565113 -0.000001 0.374942 -0.010655 0.080379
    5 -1.549380 -5.102886 -4.074768 -2.178189 -1.391963 -2.661849
    6 -0.000053 11.987244 0.000028 0.077040 -1.042891 1.813466
    7 20.109314 0.000000 -0.000002 -1.570675 -0.653596 -0.000041
    8 19.941738 0.000001 -0.000004 -2.034160 -1.317562 0.466541
    9 6.938272 1.999413 -1.014580 2.668041 0.893639 1.226869
    10 20.710249 -0.000001 0.000000 -3.141593 1.390151 -3.141593
    11 18.105982 0.000001 0.000000 -1.436859 -0.391352 1.514409
    12 -6.938270 1.999409 -1.014579 1.278160 1.250681 1.096352
    13 20.710224 0.000000 0.000000 0.000000 0.000000 1.614922
    14 18.106007 0.000000 -0.000001 2.144134 -1.412670 0.813071
    15 0.000000 -6.555973 0.000000 1.242394 -0.054858 -0.240346
    16 0.000000 -3.252140 0.000004 -1.769523 -0.154010 0.058539
    17 1.548545 -4.925743 -4.285366 2.905980 0.006055 -1.840163
    18 1.190170 -10.472042 -0.306138 1.353248 -0.238019 -0.934260
    19 0.000008 0.000000 15.020973 -0.201994 -0.066154 0.008339
    20 0.000004 -0.000001 8.039619 0.000000 0.000000 0.318947
    21 2.899849 -0.471046 -4.331210 -0.449452 -0.559880 -0.709305
    22 -0.000025 2.543312 0.000026 0.221028 0.000000 0.000000
    23 0.000059 2.315285 -0.000040 0.100872 0.000000 0.000000
    24 1.551407 3.956631 -3.900798 2.695900 -1.367576 -3.120852
    25 0.000000 2.741436 -0.000004 -0.256296 0.000000 0.000000
    26 0.000010 2.668510 0.000050 -0.190586 0.000000 0.000000
    27 1.401100 3.639805 -1.202109 2.031148 -1.355830 -2.447084
    28 0.000003 2.810951 0.000004 -0.256296 0.000000 0.000000
    29 -0.000005 2.736202 -0.000031 -0.190586 0.000000 0.000000
    30 1.335663 3.182098 1.418086 0.980184 -1.251585 -1.415249
    31 -0.000003 2.663269 0.000046 -0.256296 0.000000 0.000000
    32 0.000001 2.592527 -0.000031 -0.190586 0.000000 0.000000
    33 1.344765 1.881123 3.809589 1.120332 -1.203080 -1.477339
    34 0.000011 2.315664 -0.000084 -0.256296 0.000000 0.000000
    35 -0.000006 2.254017 0.000076 -0.190586 0.000000 0.000000
    36 -0.000001 -4.648438 0.000000 -0.681699 0.002941 0.003361
    37 0.000018 4.648438 -0.000004 -0.688438 0.003190 0.003654
  time 10
    0 -2.181641 4.617188 65.644426 -1.611985 0.036901 -0.062907
    1 0.000000 -5.355259 0.000000 0.173076 0.014718 0.000542
    2 0.000000 -7.488277 -0.000001 0.162350 0.006309 0.032358
    3 0.000000 -5.597980 0.000000 -0.049707 0.000526 0.080111
    4 0.000000 -6.565113 -0.000001 0.372690 -0.004851 0.092285
    5 -1.549380 -5.102886 -4.074768 -2.235938 -1.356166 -2.608386
    6 -0.000053 11.987244 0.000028 -0.117779 -0.931630 1.853815
    7 20.109314 0.000000 -0.000002 -1.570751 -0.714482 0.000029
    8 19.941738 0.000001 -0.000004 -2.623795 -1.412047 0.964934
    9 6.938272 1.999413 -1.014580 2.547424 0.969432 1.184665
    10 20.710249 -0.000001 0.000000 -3.141593 1.111567 -3.141593
    11 18.105982 0.000001 0.000000 -1.667516 -0.224307 1.553514
    12 -6.938270 1.999409 -1.014579 1.383516 1.105404 1.257246
    13 20.710224 0.000000 0.000000 0.000000 0.000000 1.428766
    14 18.106007 0.000000 -0.000001 1.970596 -1.434504 0.992801
    15 0.000000 -6.555973 0.000000 1.237012 -0.052844 -0.245229
    16 0.000000 -3.252140 0.000004 -1.777945 -0.168882 0.065194
    17 1.548545 -4.925743 -4.285366 2.924254 0.015640 -1.875662
    18 1.190170 -10.472042 -0.306138 1.353248 -0.238019 -0.934260
    19 0.000008 0.000000 15.020973 -0.201994 -0.066154 0.008339
    20 0.000004 -0.000001 8.039619 0.000000 0.000000 0.318947
    21 2.899849 -0.471046 -4.331210 -0.449452 -0.559880 -0.709305
    22 -0.000025 2.543312 0.000026 0.221028 0.000000 0.000000
    23 0.000059 2.315285 -0.000040 0.100872 0.000000 0.000000
    24 1.551407 3.956631 -3.900798 2.695900 -1.367576 -3.120852
    25 0.000000 2.741436 -0.000004 -0.256296 0.000000 0.000000
    26 0.000010 2.668510 0.000050 -0.190586 0.000000 0.000000
    27 1.401100 3.639805 -1.202109 2.031148 -1.355830 -2.447084
    28 0.000003 2.810951 0.000004 -0.256296 0.000000 0.000000
    29 -0.000005 2.736202 -0.000031 -0.190586 0.000000 0.000000
    30 1.335663 3.182098 1.418086 0.980184 -1.251585 -1.415249
    31 -0.000003 2.663269 0.000046 -0.256296 0.000000 0.000000
    32 0.000001 2.592527 -0.000031 -0.190586 0.000000 0.000000
    33 1.344765 1.881123 3.809589 1.120332 -1.203080 -1.477339
    34 0.000011 2.315664 -0.000084 -0.256296 0.000000 0.000000
    35 -0.000006 2.254017 0.000076 -0.190586 0.000000 0.000000
    36 -0.000001 -4.648438 0.000000 -0.679498 0.002839 0.003269
    37 0.000018 4.648438 -0.000004 -0.682930 0.002984 0.003474
  time 11
    0 -2.298828 4.921875 68.411994 -1.610752 0.029932 -0.019605
    1 0.000000 -5.355259 0.000000 0.174573 0.022992 0.012428
    2 0.000000 -7.488277 -0.000001 0.162858 0.013366 0.042614
    3 0.000000 -5.597980 0.000000 -0.050035 0.007352 0.083730
    4 0.000000 -6.565113 -0.000001 0.370208 0.001839 0.093025
    5 -1.549380 -5.102886 -4.074768 -2.223191 -1.338355 -2.588472
    6 -0.000053 11.987244 0.000028 -0.268808 -0.762945 1.919409
    7 20.109314 0.000000 -0.000002 -1.570656 -0.861036 -0.000064
    8 19.941738 0.000001 -0.000004 -1.992033 -1.289451 0.333495
    9 6.938272 1.999413 -1.014580 2.449530 1.100159 1.175824
    10 20.710249 -0.000001 0.000000 3.141593 0.875821 3.141593
    11 18.105982 0.000001 0.000000 -1.812783 -0.111948 1.530865
    12 -6.938270 1.999409 -1.014579 1.420431 1.014163 1.334988
    13 20.710224 0.000000 0.000000 0.000000 0.000000 1.278562
    14 18.106007 0.000000 -0.000001 1.955340 -1.453397 1.106111
    15 0.000000 -6.555973 0.000000 1.208698 -0.049087 -0.216947
    16 0.000000 -3.252140 0.000004 -1.791198 -0.159885 0.069700
    17 1.548545 -4.925743 -4.285366 2.960048 0.004469 -1.856897
    18 1.190170 -10.472042 -0.306138 1.353248 -0.238019 -0.934260
    19 0.000008 0.000000 15.020973 -0.201994 -0.066154 0.008339
    20 0.000004 -0.000001 8.039619 0.000000 0.000000 0.318947
    21 2.899849 -0.471046 -4.331210 -0.449452 -0.559880 -0.709305
    22 -0.000025 2.543312 0.000026 0.221028 0.000000 0.000000
    23 0.000059 2.315285 -0.000040 0.100872 0.000000 0.000000
    24 1.551407 3.956631 -3.900798 2.695900 -1.367576 -3.120852
    25 0.000000 2.741436 -0.000004 -0.256296 0.000000 0.000000
    26 0.000010 2.668510 0.000050 -0.190586 0.000000 0.000000
    27 1.401100 3.639805 -1.202109 2.031148 -1.355830 -2.447084
    28 0.000003 2.810951 0.000004 -0.256296 0.000000 0.000000
    29 -0.000005 2.736202 -0.000031 -0.190586 0.000000 0.000000
    30 1.335663 3.182098 1.418086 0.980184 -1.251585 -1.415249
    31 -0.000003 2.663269 0.000046 -0.256296 0.000000 0.000000
    32 0.000001 2.592527 -0.000031 -0.190586 0.000000 0.000000
    33 1.344765 1.881123 3.809589 1.120332 -1.203080 -1.477339
    34 0.000011 2.315664 -0.000084 -0.256296 0.000000 0.000000
    35 -0.000006 2.254017 0.000076 -0.190586 0.000000 0.000000
    36 -0.000001 -4.648438 0.000000 -0.679822 0.002839 0.003269
    37 0.000018 4.648438 -0.000004 -0.677492 0.002737 0.003177
  time 12
    0 -2.339844 5.644531 71.460812 -1.594385 0.027659 0.011147
    1 0.000000 -5.355259 0.000000 0.183717 0.026287 0.024735
    2 0.000000 -7.488277 -0.000001 0.168798 0.016642 0.047353
    3 0.000000 -5.597980 0.000000 -0.049123 0.011129 0.074964
    4 0.000000 -6.565113 -0.000001 0.365610 0.006216 0.080246
    5 -1.549380 -5.102886 -4.074768 -2.150126 -1.337516 -2.635502
    6 -0.000053 11.987244 0.000028 -0.222286 -0.633853 2.035717
    7 20.109314 0.000000 -0.000002 -1.570744 -0.988165 -0.000028
    8 19.941738 0.000001 -0.000004 -1.952586 -1.274581 0.372218
    9 6.938272 1.999413 -1.014580 2.378881 1.307092 1.186833
    10 20.710249 -0.000001 0.000000 3.141593 0.728522 3.141593
    11 18.105982 0.000001 0.000000 -1.873845 -0.092192 1.526159
    12 -6.938270 1.999409 -1.014579 1.464098 1.004557 1.380516
    13 20.710224 0.000000 0.000000 0.000000 0.000000 1.200281
    14 18.106007 0.000000 -0.000001 2.412290 -1.448528 0.880080
    15 0.000000 -6.555973 0.000000 1.175248 -0.043009 -0.181507
    16 0.000000 -3.252140 0.000004 -1.806947 -0.143345 0.070022
    17 1.548545 -4.925743 -4.285366 2.989641 -0.001084 -1.850456
    18 1.190170 -10.472042 -0.306138 1.353248 -0.238019 -0.934260
    19 0.000008 0.000000 15.020973 -0.201994 -0.066154 0.008339
    20 0.000004 -0.000001 8.039619 0.000000 0.000000 0.318947
    21 2.899849 -0.471046 -4.331210 -0.449452 -0.559880 -0.709305
    22 -0.000025 2.543312 0.000026 0.221028 0.000000 0.000000
    23 0.000059 2.315285 -0.000040 0.100872 0.000000 0.000000
    24 1.551407 3.956631 -3.900798 2.695900 -1.367576 -3.120852
    25 0.000000 2.741436 -0.000004 -0.256296 0.000000 0.000000
    26 0.000010 2.668510 0.000050 -0.190586 0.000000 0.000000
    27 1.401100 3.639805 -1.202109 2.031148 -1.355830 -2.447084
    28 0.000003 2.810951 0.000004 -0.256296 0.000000 0.000000
    29 -0.000005 2.736202 -0.000031 -0.190586 0.000000 0.000000
    30 1.335663 3.182098 1.418086 0.980184 -1.251585 -1.415249
    31 -0.000003 2.663269 0.000046 -0.256296 0.000000 0.000000
    32 0.000001 2.592527 -0.000031 -0.190586 0.000000 0.000000
    33 1.344765 1.881123 3.809589 1.120332 -1.203080 -1.477339
    34 0.000011 2.315664 -0.000084 -0.256296 0.000000 0.000000
    35 -0.000006 2.254017 0.000076 -0.190586 0.000000 0.000000
    36 -0.000001 -4.648438 0.000000 -0.679045 0.002838 0.003270
    37 0.000018 4.648438 -0.000004 -0.694211 0.003440 0.003948
  time 13
    0 -2.220703 6.628906 74.947129 -1.554020 0.032335 0.027342
    1 0.000000 -5.355259 0.000000 0.188421 0.023200 0.021812
    2 0.000000 -7.488277 -0.000001 0.171022 0.014808 0.040969
    3 0.000000 -5.597980 0.000000 -0.050921 0.009896 0.064723
    4 0.000000 -6.565113 -0.000001 0.360828 0.005620 0.069906
    5 -1.549380 -5.102886 -4.074768 -2.076390 -1.347308 -2.718208
    6 -0.000053 11.987244 0.000028 -0.193929 -0.526262 2.140985
    7 20.109314 0.000000 -0.000002 -1.570644 -1.159590 -0.000099
    8 19.941738 0.000001 -0.000004 -2.221664 -1.318791 0.669376
    9 6.938272 1.999413 -1.014580 1.332522 1.534659 0.152111
    10 20.710249 -0.000001 0.000000 -3.141593 0.714167 -3.141593
    11 18.105982 0.000001 0.000000 -1.792877 -0.195612 1.538697
    12 -6.938270 1.999409 -1.014579 1.522504 1.083043 1.421103
    13 20.710224 0.000000 0.000000 0.000000 0.000000 1.194075
    14 18.106007 0.000000 -0.000001 2.400801 -1.360067 1.190280
    15 0.000000 -6.555973 0.000000 1.146975 -0.032091 -0.160359
    16 0.000000 -3.252140 0.000004 -1.806993 -0.133568 0.063353
    17 1.548545 -4.925743 -4.285366 2.989519 -0.010725 -1.832471
    18 1.190170 -10.472042 -0.306138 1.353248 -0.238019 -0.934260
    19 0.000008 0.000000 15.020973 -0.201994 -0.066154 0.008339
    20 0.000004 -0.000001 8.039619 0.000000 0.000000 0.318947
    21 2.899849 -0.471046 -4.331210 -0.449452 -0.559880 -0.709305
    22 -0.000025 2.543312 0.000026 0.221028 0.000000 0.000000
    23 0.000059 2.315285 -0.000040 0.100872 0.000000 0.000000
    24 1.551407 3.956631 -3.900798 2.695900 -1.367576 -3.120852
    25 0.000000 2.741436 -0.000004 -0.256296 0.000000 0.000000
    26 0.000010 2.668510 0.000050 -0.190586 0.000000 0.000000
    27 1.401100 3.639805 -1.202109 2.031148 -1.355830 -2.447084
    28 0.000003 2.810951 0.000004 -0.256296 0.000000 0.000000
    29 -0.000005 2.736202 -0.000031 -0.190586 0.000000 0.000000
    30 1.335663 3.182098 1.418086 0.980184 -1.251585 -1.415249
    31 -0.000003 2.663269 0.000046 -0.256296 0.000000 0.000000
    32 0.000001 2.592527 -0.000031 -0.190586 0.000000 0.000000
    33 1.344765 1.881123 3.809589 1.120332 -1.203080 -1.477339
    34 0.000011 2.315664 -0.000084 -0.256296 0.000000 0.000000
    35 -0.000006 2.254017 0.000076 -0.190586 0.000000 0.000000
    36 -0.000001 -4.648438 0.000000 -0.679692 0.002839 0.003269
    37 0.000018 4.648438 -0.000004 -0.676457 0.002736 0.003179
  time 14
    0 -2.013672 7.671875 78.745947 -1.506725 0.042325 0.032888
    1 0.000000 -5.355259 0.000000 0.181356 0.014229 0.009997
    2 0.000000 -7.488277 -0.000001 0.167437 0.008207 0.027027
    3 0.000000 -5.597980 0.000000 -0.047881 0.004402 0.051185
    4 0.000000 -6.565113 -0.000001 0.367976 0.000979 0.057803
    5 -1.549380 -5.102886 -4.074768 -2.008685 -1.367535 -2.818451
    6 -0.000053 11.987244 0.000028 -0.275792 -0.431972 2.218004
    7 20.109314 0.000000 -0.000002 -1.570626 -1.315610 -0.000132
    8 19.941738 0.000001 -0.000004 -2.138854 -1.194457 0.585909
    9 6.938272 1.999413 -1.014580 -0.335631 1.409525 -1.558646
    10 20.710249 -0.000001 0.000000 3.141593 0.805207 3.141593
    11 18.105982 0.000001 0.000000 -1.697680 -0.256166 1.562809
    12 -6.938270 1.999409 -1.014579 1.490820 1.172027 1.413395
    13 20.710224 0.000000 0.000000 0.000000 0.000000 1.239448
    14 18.106007 0.000000 -0.000001 2.227447 -1.195234 1.489258
    15 0.000000 -6.555973 0.000000 1.147749 -0.025283 -0.168104
    16 0.000000 -3.252140 0.000004 -1.794145 -0.132010 0.049862
    17 1.548545 -4.925743 -4.285366 2.954520 -0.015493 -1.801696
    18 1.190170 -10.472042 -0.306138 1.353248 -0.238019 -0.934260
    19 0.000008 0.000000 15.020973 -0.201994 -0.066154 0.008339
    20 0.000004 -0.000001 8.039619 0.000000 0.000000 0.318947
    21 2.899849 -0.471046 -4.331210 -0.449452 -0.559880 -0.709305
    22 -0.000025 2.543312 0.000026 0.221028 0.000000 0.000000
    23 0.000059 2.315285 -0.000040 0.100872 0.000000 0.000000
    24 1.551407 3.956631 -3.900798 2.695900 -1.367576 -3.120852
    25 0.000000 2.741436 -0.000004 -0.256296 0.000000 0.000000
    26 0.000010 2.668510 0.000050 -0.190586 0.000000 0.000000
    27 1.401100 3.639805 -1.202109 2.031148 -1.355830 -2.447084
    28 0.000003 2.810951 0.000004 -0.256296 0.000000 0.000000
    29 -0.000005 2.736202 -0.000031 -0.190586 0.000000 0.000000
    30 1.335663 3.182098 1.418086 0.980184 -1.251585 -1.415249
    31 -0.000003 2.663269 0.000046 -0.256296 0.000000 0.000000
    32 0.000001 2.592527 -0.000031 -0.190586 0.000000 0.000000
    33 1.344765 1.881123 3.809589 1.120332 -1.203080 -1.477339
    34 0.000011 2.315664 -0.000084 -0.256296 0.000000 0.000000
    35 -0.000006 2.254017 0.000076 -0.190586 0.000000 0.000000
    36 -0.000001 -4.648438 0.000000 -0.686688 0.003089 0.003563
    37 0.000018 4.648438 -0.000004 -0.720950 0.004581 0.005057
  time 15
    0 -1.805664 8.671875 82.607265 -1.471269 0.053020 0.027063
    1 0.000000 -5.355259 0.000000 0.185080 0.002253 0.000822
    2 0.000000 -7.488277 -0.000001 0.171288 -0.000933 0.012294
    3 0.000000 -5.597980 0.000000 -0.046811 -0.003130 0.030600
    4 0.000000 -6.565113 -0.000001 0.369993 -0.005350 0.035885
    5 -1.549380 -5.102886 -4.074768 -1.897954 -1.403348 -2.964477
    6 -0.000053 11.987244 0.000028 -0.393643 -0.356136 2.254536
    7 20.109314 0.000000 -0.000002 -1.570567 -1.449174 -0.000203
    8 19.941738 0.000001 -0.000004 -2.076179 -1.120880 0.536717
    9 6.938272 1.999413 -1.014580 -0.332850 1.372006 -1.609283
    10 20.710249 -0.000001 0.000000 3.141593 0.963569 3.141593
    11 18.105982 0.000001 0.000000 -1.639012 -0.200992 1.604628
    12 -6.938270 1.999409 -1.014579 1.400013 1.248496 1.338395
    13 20.710224 0.000000 0.000000 0.000000 0.000000 1.362490
    14 18.106007 0.000000 -0.000001 2.080653 -1.232516 1.607584
    15 0.000000 -6.555973 0.000000 1.142008 -0.018074 -0.174000
    16 0.000000 -3.252140 0.000004 -1.784174 -0.124965 0.032579
    17 1.548545 -4.925743 -4.285366 2.916877 -0.017836 -1.786251
    18 1.190170 -10.472042 -0.306138 1.353248 -0.238019 -0.934260
    19 0.000008 0.000000 15.020973 -0.201994 -0.066154 0.008339
    20 0.000004 -0.000001 8.039619 0.000000 0.000000 0.318947
    21 2.899849 -0.471046 -4.331210 -0.449452 -0.559880 -0.709305
    22 -0.000025 2.543312 0.000026 0.221028 0.000000 0.000000
    23 0.000059 2.315285 -0.000040 0.100872 0.000000 0.000000
    24 1.551407 3.956631 -3.900798 2.695900 -1.367576 -3.120852
    25 0.000000 2.741436 -0.000004 -0.256296 0.000000 0.000000
    26 0.000010 2.668510 0.000050 -0.190586 0.000000 0.000000
    27 1.401100 3.639805 -1.202109 2.031148 -1.355830 -2.447084
    28 0.000003 2.810951 0.000004 -0.256296 0.000000 0.000000
    29 -0.000005 2.736202 -0.000031 -0.190586 0.000000 0.000000
    30 1.335663 3.182098 1.418086 0.980184 -1.251585 -1.415249
    31 -0.000003 2.663269 0.000046 -0.256296 0.000000 0.000000
    32 0.000001 2.592527 -0.000031 -0.190586 0.000000 0.000000
    33 1.344765 1.881123 3.809589 1.120332 -1.203080 -1.477339
    34 0.000011 2.315664 -0.000084 -0.256296 0.000000 0.000000
    35 -0.000006 2.254017 0.000076 -0.190586 0.000000 0.000000
    36 -0.000001 -4.648438 0.000000 -0.688827 0.003191 0.003654
    37 0.000018 4.648438 -0.000004 -0.700185 0.003692 0.004240
  time 16
    0 -1.554688 9.375000 86.281082 -1.454020 0.054701 0.015840
    1 0.000000 -5.355259 0.000000 0.193618 -0.011025 -0.002665
    2 0.000000 -7.488277 -0.000001 0.174854 -0.011166 -0.001224
    3 0.000000 -5.597980 0.000000 -0.056494 -0.011648 0.004848
    4 0.000000 -6.565113 -0.000001 0.357765 -0.011926 0.007644
    5 -1.549380 -5.102886 -4.074768 -1.911078 -1.426060 -2.953222
    6 -0.000053 11.987244 0.000028 -0.481983 -0.297970 2.263978
    7 20.109314 0.000000 -0.000002 -1.569173 -1.515404 -0.001535
    8 19.941738 0.000001 -0.000004 -2.146813 -1.123026 0.648774
    9 6.938272 1.999413 -1.014580 -0.259181 1.473556 -1.582473
    10 20.710249 -0.000001 0.000000 3.141593 1.200281 3.141593
    11 18.105982 0.000001 0.000000 -1.604708 -0.111810 1.664518
    12 -6.938270 1.999409 -1.014579 1.286854 1.356526 1.218996
    13 20.710224 0.000000 0.000000 0.000000 0.000000 1.615275
    14 18.106007 0.000000 -0.000001 1.779969 -1.390263 1.760818
    15 0.000000 -6.555973 0.000000 1.169875 -0.005699 -0.163386
    16 0.000000 -3.252140 0.000004 -1.770037 -0.108265 0.008312
    17 1.548545 -4.925743 -4.285366 2.886063 0.009304 -1.817458
    18 1.190170 -10.472042 -0.306138 1.353248 -0.238019 -0.934260
    19 0.000008 0.000000 15.020973 -0.201994 -0.066154 0.008339
    20 0.000004 -0.000001 8.039619 0.000000 0.000000 0.318947
    21 2.899849 -0.471046 -4.331210 -0.449452 -0.559880 -0.709305
    22 -0.000025 2.543312 0.000026 0.221028 0.000000 0.000000
    23 0.000059 2.315285 -0.000040 0.100872 0.000000 0.000000
    24 1.551407 3.956631 -3.900798 2.695900 -1.367576 -3.120852
    25 0.000000 2.741436 -0.000004 -0.256296 0.000000 0.000000
    26 0.000010 2.668510 0.000050 -0.190586 0.000000 0.000000
    27 1.401100 3.639805 -1.202109 2.031148 -1.355830 -2.447084
    28 0.000003 2.810951 0.000004 -0.256296 0.000000 0.000000
    29 -0.000005 2.736202 -0.000031 -0.190586 0.000000 0.000000
    30 1.335663 3.182098 1.418086 0.980184 -1.251585 -1.415249
    31 -0.000003 2.663269 0.000046 -0.256296 0.000000 0.000000
    32 0.000001 2.592527 -0.000031 -0.190586 0.000000 0.000000
    33 1.344765 1.881123 3.809589 1.120332 -1.203080 -1.477339
    34 0.000011 2.315664 -0.000084 -0.256296 0.000000 0.000000
    35 -0.000006 2.254017 0.000076 -0.190586 0.000000 0.000000
    36 -0.000001 -4.648438 0.000000 -0.678721 0.002780 0.003291
    37 0.000018 4.648438 -0.000004 -0.676198 0.002637 0.003084
  time 17
    0 -1.363281 9.617188 89.673650 -1.449979 0.047767 0.001976
    1 0.000000 -5.355259 0.000000 0.191247 -0.023901 -0.002047
    2 0.000000 -7.488277 -0.000001 0.171704 -0.020316 -0.015227
    3 0.000000 -5.597980 0.000000 -0.062696 -0.018032 -0.027771
    4 0.000000 -6.565113 -0.000001 0.353802 -0.016163 -0.028560
    5 -1.549380 -5.102886 -4.074768 -1.888902 -1.431611 -2.937391
    6 -0.000053 11.987244 0.000028 -0.578887 -0.240935 2.241228
    7 20.109314 0.000000 -0.000002 -1.568131 -1.559597 -0.002635
    8 19.941738 0.000001 -0.000004 -2.180665 -1.112956 0.754496
    9 6.938272 1.999413 -1.014580 2.766873 1.494655 1.404803
    10 20.710249 -0.000001 0.000000 -3.141593 1.514715 -3.141593
    11 18.105982 0.000001 0.000000 -1.397178 -0.070643 1.734420
    12 -6.938270 1.999409 -1.014579 0.934403 1.464311 0.832274
    13 20.710224 0.000000 0.000000 0.000000 0.000000 1.912224
    14 18.106007 0.000000 -0.000001 -1.708057 -1.522010 -1.265630
    15 0.000000 -6.555973 0.000000 1.196911 0.014757 -0.112351
    16 0.000000 -3.252140 0.000004 -1.747648 -0.071365 -0.018427
    17 1.548545 -4.925743 -4.285366 2.863012 0.044949 -1.798077
    18 1.190170 -10.472042 -0.306138 1.353248 -0.238019 -0.934260
    19 0.000008 0.000000 15.020973 -0.201994 -0.066154 0.008339
    20 0.000004 -0.000001 8.039619 0.000000 0.000000 0.318947
    21 2.899849 -0.471046 -4.331210 -0.449452 -0.559880 -0.709305
    22 -0.000025 2.543312 0.000026 0.221028 0.000000 0.000000
    23 0.000059 2.315285 -0.000040 0.100872 0.000000 0.000000
    24 1.551407 3.956631 -3.900798 2.695900 -1.367576 -3.120852
    25 0.000000 2.741436 -0.000004 -0.256296 0.000000 0.000000
    26 0.000010 2.668510 0.000050 -0.190586 0.000000 0.000000
    27 1.401100 3.639805 -1.202109 2.031148 -1.355830 -2.447084
    28 0.000003 2.810951 0.000004 -0.256296 0.000000 0.000000
    29 -0.000005 2.736202 -0.000031 -0.190586 0.000000 0.000000
    30 1.335663 3.182098 1.418086 0.980184 -1.251585 -1.415249
    31 -0.000003 2.663269 0.000046 -0.256296 0.000000 0.000000
    32 0.000001 2.592527 -0.000031 -0.190586 0.000000 0.000000
    33 1.344765 1.881123 3.809589 1.120332 -1.203080 -1.477339
    34 0.000011 2.315664 -0.000084 -0.256296 0.000000 0.000000
    35 -0.000006 2.254017 0.000076 -0.190586 0.000000 0.000000
    36 -0.000001 -4.648438 0.000000 -0.679628 0.002839 0.003269
    37 0.000018 4.648438 -0.000004 -0.687141 0.003188 0.003656
  time 18
    0 -1.309570 9.593750 92.691217 -1.464436 0.048193 -0.020063
    1 0.000000 -5.355259 0.000000 0.183926 -0.032954 -0.002917
    2 0.000000 -7.488277 -0.000001 0.168631 -0.025942 -0.028657
    3 0.000000 -5.597980 0.000000 -0.057520 -0.021458 -0.057890
    4 0.000000 -6.565113 -0.000001 0.362435 -0.017569 -0.061309
    5 -1.549380 -5.102886 -4.074768 -1.806918 -1.433028 -2.969925
    6 -0.000053 11.987244 0.000028 -0.672256 -0.215002 2.211580
    7 20.109314 0.000000 -0.000002 -1.544326 -1.568539 -0.026472
    8 19.941738 0.000001 -0.000004 -2.410360 -1.160193 1.050583
    9 6.938272 1.999413 -1.014580 2.817842 1.311087 1.427401
    10 20.710249 -0.000001 0.000000 0.000000 1.335451 0.000000
    11 18.105982 0.000001 0.000000 -1.167843 -0.137064 1.825880
    12 -6.938270 1.999409 -1.014579 -0.274382 1.470378 -0.432489
    13 20.710224 0.000000 0.000000 0.000000 0.000000 2.166495
    14 18.106007 0.000000 -0.000001 -1.631575 -1.314738 -1.484742
    15 0.000000 -6.555973 0.000000 1.224480 0.028504 -0.059064
    16 0.000000 -3.252140 0.000004 -1.741302 -0.033135 -0.037416
    17 1.548545 -4.925743 -4.285366 2.850116 0.072617 -1.783724
    18 1.190170 -10.472042 -0.306138 1.353248 -0.238019 -0.934260
    19 0.000008 0.000000 15.020973 -0.201994 -0.066154 0.008339
    20 0.000004 -0.000001 8.039619 0.000000 0.000000 0.318947
    21 2.899849 -0.471046 -4.331210 -0.449452 -0.559880 -0.709305
    22 -0.000025 2.543312 0.000026 0.221028 0.000000 0.000000
    23 0.000059 2.315285 -0.000040 0.100872 0.000000 0.000000
    24 1.551407 3.956631 -3.900798 2.695900 -1.367576 -3.120852
    25 0.000000 2.741436 -0.000004 -0.256296 0.000000 0.000000
    26 0.000010 2.668510 0.000050 -0.190586 0.000000 0.000000
    27 1.401100 3.639805 -1.202109 2.031148 -1.355830 -2.447084
    28 0.000003 2.810951 0.000004 -0.256296 0.000000 0.000000
    29 -0.000005 2.736202 -0.000031 -0.190586 0.000000 0.000000
    30 1.335663 3.182098 1.418086 0.980184 -1.251585 -1.415249
    31 -0.000003 2.663269 0.000046 -0.256296 0.000000 0.000000
    32 0.000001 2.592527 -0.000031 -0.190586 0.000000 0.000000
    33 1.344765 1.881123 3.809589 1.120332 -1.203080 -1.477339
    34 0.000011 2.315664 -0.000084 -0.256296 0.000000 0.000000
    35 -0.000006 2.254017 0.000076 -0.190586 0.000000 0.000000
    36 -0.000001 -4.648438 0.000000 -0.680728 0.002881 0.003383
    37 0.000018 4.648438 -0.000004 -0.682865 0.002983 0.003474
  time 19
    0 -1.288086 9.546875 95.521285 -1.480694 0.050069 -0.048831
    1 0.000000 -5.355259 0.000000 0.183576 -0.036232 -0.013267
    2 0.000000 -7.488277 -0.000001 0.170405 -0.027835 -0.038525
    3 0.000000 -5.597980 0.000000 -0.051435 -0.022774 -0.063660
    4 0.000000 -6.565113 -0.000001 0.368289 -0.018557 -0.064436
    5 -1.549380 -5.102886 -4.074768 -1.632713 -1.447156 -3.130311
    6 -0.000053 11.987244 0.000028 -0.762846 -0.254835 2.196602
    7 20.109314 0.000000 -0.000002 1.569904 -1.550429 -3.140682
    8 19.941738 0.000001 -0.000004 -2.840230 -1.179550 1.587668
    9 6.938272 1.999413 -1.014580 2.849412 1.175549 1.438313
    10 20.710249 -0.000001 0.000000 0.000000 1.173262 0.000000
    11 18.105982 0.000001 0.000000 -1.110777 -0.200413 1.848662
    12 -6.938270 1.999409 -1.014579 -0.750828 1.361727 -0.957496
    13 20.710224 0.000000 0.000000 0.000000 0.000000 2.321254
    14 18.106007 0.000000 -0.000001 -1.774202 -1.317203 -1.404534
    15 0.000000 -6.555973 0.000000 1.229042 0.029501 -0.045084
    16 0.000000 -3.252140 0.000004 -1.748343 -0.019712 -0.042273
    17 1.548545 -4.925743 -4.285366 2.860046 0.075351 -1.786897
    18 1.190170 -10.472042 -0.306138 1.353248 -0.238019 -0.934260
    19 0.000008 0.000000 15.020973 -0.201994 -0.066154 0.008339
    20 0.000004 -0.000001 8.039619 0.000000 0.000000 0.318947
    21 2.899849 -0.471046 -4.331210 -0.449452 -0.559880 -0.709305
    22 -0.000025 2.543312 0.000026 0.221028 0.000000 0.000000
    23 0.000059 2.315285 -0.000040 0.100872 0.000000 0.000000
    24 1.551407 3.956631 -3.900798 2.695900 -1.367576 -3.120852
    25 0.000000 2.741436 -0.000004 -0.256296 0.000000 0.000000
    26 0.000010 2.668510 0.000050 -0.190586 0.000000 0.000000
    27 1.401100 3.639805 -1.202109 2.031148 -1.355830 -2.447084
    28 0.000003 2.810951 0.000004 -0.256296 0.000000 0.000000
    29 -0.000005 2.736202 -0.000031 -0.190586 0.000000 0.000000
    30 1.335663 3.182098 1.418086 0.980184 -1.251585 -1.415249
    31 -0.000003 2.663269 0.000046 -0.256296 0.000000 0.000000
    32 0.000001 2.592527 -0.000031 -0.190586 0.000000 0.000000
    33 1.344765 1.881123 3.809589 1.120332 -1.203080 -1.477339
    34 0.000011 2.315664 -0.000084 -0.256296 0.000000 0.000000
    35 -0.000006 2.254017 0.000076 -0.190586 0.000000 0.000000
    36 -0.000001 -4.648438 0.000000 -0.679692 0.002839 0.003269
    37 0.000018 4.648438 -0.000004 -0.677945 0.002738 0.003177
  time 20
    0 -1.321289 9.460938 98.101353 -1.498618 0.055473 -0.076637
    1 0.000000 -5.355259 0.000000 0.187901 -0.036500 -0.024533
    2 0.000000 -7.488277 -0.000001 0.174801 -0.027560 -0.045678
    3 0.000000 -5.597980 0.000000 -0.046993 -0.022889 -0.061627
    4 0.000000 -6.565113 -0.000001 0.370823 -0.019036 -0.058476
    5 -1.549380 -5.102886 -4.074768 -1.538139 -1.470900 3.084207
    6 -0.000053 11.987244 0.000028 -0.745017 -0.349275 2.143125
    7 20.109314 0.000000 -0.000002 1.570741 -1.385974 -3.141526
    8 19.941738 0.000001 -0.000004 -2.919143 -1.121812 1.846963
    9 6.938272 1.999413 -1.014580 2.901498 1.116658 1.437458
    10 20.710249 -0.000001 0.000000 0.000000 1.106707 0.000000
    11 18.105982 0.000001 0.000000 -0.968435 -0.181463 1.719998
    12 -6.938270 1.999409 -1.014579 -0.856574 1.260605 -1.083951
    13 20.710224 0.000000 0.000000 0.000000 0.000000 2.360723
    14 18.106007 0.000000 -0.000001 -2.032870 -1.487026 -1.146607
    15 0.000000 -6.555973 0.000000 1.226903 0.026637 -0.040375
    16 0.000000 -3.252140 0.000004 -1.759449 -0.014571 -0.040806
    17 1.548545 -4.925743 -4.285366 2.882824 0.072334 -1.790686
    18 1.190170 -10.472042 -0.306138 1.353248 -0.238019 -0.934260
    19 0.000008 0.000000 15.020973 -0.201994 -0.066154 0.008339
    20 0.000004 -0.000001 8.039619 0.000000 0.000000 0.318947
    21 2.899849 -0.471046 -4.331210 -0.449452 -0.559880 -0.709305
    22 -0.000025 2.543312 0.000026 0.221028 0.000000 0.000000
    23 0.000059 2.315285 -0.000040 0.100872 0.000000 0.000000
    24 1.551407 3.956631 -3.900798 2.695900 -1.367576 -3.120852
    25 0.000000 2.741436 -0.000004 -0.256296 0.000000 0.000000
    26 0.000010 2.668510 0.000050 -0.190586 0.000000 0.000000
    27 1.401100 3.639805 -1.202109 2.031148 -1.355830 -2.447084
    28 0.000003 2.810951 0.000004 -0.256296 0.000000 0.000000
    29 -0.000005 2.736202 -0.000031 -0.190586 0.000000 0.000000
    30 1.335663 3.182098 1.418086 0.980184 -1.251585 -1.415249
    31 -0.000003 2.663269 0.000046 -0.256296 0.000000 0.000000
    32 0.000001 2.592527 -0.000031 -0.190586 0.000000 0.000000
    33 1.344765 1.881123 3.809589 1.120332 -1.203080 -1.477339
    34 0.000011 2.315664 -0.000084 -0.256296 0.000000 0.000000
    35 -0.000006 2.254017 0.000076 -0.190586 0.000000 0.000000
    36 -0.000001 -4.648438 0.000000 -0.678786 0.002780 0.003291
    37 0.000018 4.648438 -0.000004 -0.676004 0.002637 0.003084
  time 21
    0 -1.467773 9.421875 100.712670 -1.516030 0.065136 -0.090875
    1 0.000000 -5.355259 0.000000 0.197530 -0.035515 -0.031616
    2 0.000000 -7.488277 -0.000001 0.181633 -0.026188 -0.049708
    3 0.000000 -5.597980 0.000000 -0.046996 -0.021609 -0.059213
    4 0.000000 -6.565113 -0.000001 0.366738 -0.017988 -0.053004
    5 -1.549380 -5.102886 -4.074768 -1.526216 -1.498981 3.105220
    6 -0.000053 11.987244 0.000028 -0.554249 -0.467258 1.970650
    7 20.109314 0.000000 -0.000002 1.570496 -1.212693 -3.141160
    8 19.941738 0.000001 -0.000004 -2.586200 -1.105769 1.465691
    9 6.938272 1.999413 -1.014580 2.842116 1.062001 1.371724
    10 20.710249 -0.000001 0.000000 0.000000 1.085968 0.000000
    11 18.105982 0.000001 0.000000 -0.927479 -0.164309 1.555877
    12 -6.938270 1.999409 -1.014579 -0.811787 1.233868 -1.056195
    13 20.710224 0.000000 0.000000 0.000000 0.000000 2.287322
    14 18.106007 0.000000 -0.000001 2.569680 -1.502823 0.504652
    15 0.000000 -6.555973 0.000000 1.229982 0.024902 -0.036520
    16 0.000000 -3.252140 0.000004 -1.766714 -0.013096 -0.037919
    17 1.548545 -4.925743 -4.285366 2.902806 0.057985 -1.780878
    18 1.190170 -10.472042 -0.306138 1.353248 -0.238019 -0.934260
    19 0.000008 0.000000 15.020973 -0.201994 -0.066154 0.008339
    20 0.000004 -0.000001 8.039619 0.000000 0.000000 0.318947
    21 2.899849 -0.471046 -4.331210 -0.449452 -0.559880 -0.709305
    22 -0.000025 2.543312 0.000026 0.221028 0.000000 0.000000
    23 0.000059 2.315285 -0.000040 0.100872 0.000000 0.000000
    24 1.551407 3.956631 -3.900798 2.695900 -1.367576 -3.120852
    25 0.000000 2.741436 -0.000004 -0.256296 0.000000 0.000000
    26 0.000010 2.668510 0.000050 -0.190586 0.000000 0.000000
    27 1.401100 3.639805 -1.202109 2.031148 -1.355830 -2.447084
    28 0.000003 2.810951 0.000004 -0.256296 0.000000 0.000000
    29 -0.000005 2.736202 -0.000031 -0.190586 0.000000 0.000000
    30 1.335663 3.182098 1.418086 0.980184 -1.251585 -1.415249
    31 -0.000003 2.663269 0.000046 -0.256296 0.000000 0.000000
    32 0.000001 2.592527 -0.000031 -0.190586 0.000000 0.000000
    33 1.344765 1.881123 3.809589 1.120332 -1.203080 -1.477339
    34 0.000011 2.315664 -0.000084 -0.256296 0.000000 0.000000
    35 -0.000006 2.254017 0.000076 -0.190586 0.000000 0.000000
    36 -0.000001 -4.648438 0.000000 -0.682736 0.002942 0.003359
    37 0.000018 4.648438 -0.000004 -0.684679 0.003044 0.003451
  time 22
    0 -1.781250 9.453125 103.511488 -1.531362 0.058979 -0.077817
    1 0.000000 -5.355259 0.000000 0.195921 -0.026803 -0.024347
    2 0.000000 -7.488277 -0.000001 0.181697 -0.019691 -0.038203
    3 0.000000 -5.597980 0.000000 -0.045799 -0.016337 -0.044076
    4 0.000000 -6.565113 -0.000001 0.370114 -0.013721 -0.037841
    5 -1.549380 -5.102886 -4.074768 -1.799990 -1.492012 -2.918168
    6 -0.000053 11.987244 0.000028 -0.318147 -0.568740 1.851746
    7 20.109314 0.000000 -0.000002 1.570734 -1.311246 -3.141441
    8 19.941738 0.000001 -0.000004 -1.960105 -1.058002 0.618872
    9 6.938272 1.999413 -1.014580 2.821451 1.005695 1.372639
    10 20.710249 -0.000001 0.000000 0.000000 1.096822 0.000000
    11 18.105982 0.000001 0.000000 -0.953310 -0.235270 1.511832
    12 -6.938270 1.999409 -1.014579 -0.655646 1.297451 -0.879820
    13 20.710224 0.000000 0.000000 0.000000 0.000000 2.124335
    14 18.106007 0.000000 -0.000001 2.325858 -1.471266 0.757560
    15 0.000000 -6.555973 0.000000 1.247996 0.016312 -0.060473
    16 0.000000 -3.252140 0.000004 -1.753625 -0.030212 -0.026489
    17 1.548545 -4.925743 -4.285366 2.884419 0.037159 -1.772085
    18 1.190170 -10.472042 -0.306138 1.353248 -0.238019 -0.934260
    19 0.000008 0.000000 15.020973 -0.201994 -0.066154 0.008339
    20 0.000004 -0.000001 8.039619 0.000000 0.000000 0.318947
    21 2.899849 -0.471046 -4.331210 -0.449452 -0.559880 -0.709305
    22 -0.000025 2.543312 0.000026 0.221028 0.000000 0.000000
    23 0.000059 2.315285 -0.000040 0.100872 0.000000 0.000000
    24 1.551407 3.956631 -3.900798 2.695900 -1.367576 -3.120852
    25 0.000000 2.741436 -0.000004 -0.256296 0.000000 0.000000
    26 0.000010 2.668510 0.000050 -0.190586 0.000000 0.000000
    27 1.401100 3.639805 -1.202109 2.031148 -1.355830 -2.447084
    28 0.000003 2.810951 0.000004 -0.256296 0.000000 0.000000
    29 -0.000005 2.736202 -0.000031 -0.190586 0.000000 0.000000
    30 1.335663 3.182098 1.418086 0.980184 -1.251585 -1.415249
    31 -0.000003 2.663269 0.000046 -0.256296 0.000000 0.000000
    32 0.000001 2.592527 -0.000031 -0.190586 0.000000 0.000000
    33 1.344765 1.881123 3.809589 1.120332 -1.203080 -1.477339
    34 0.000011 2.315664 -0.000084 -0.256296 0.000000 0.000000
    35 -0.000006 2.254017 0.000076 -0.190586 0.000000 0.000000
    36 -0.000001 -4.648438 0.000000 -0.689346 0.003233 0.003768
    37 0.000018 4.648438 -0.000004 -0.674840 0.002635 0.003086
  time 23
    0 -2.189453 9.421875 106.279056 -1.547392 0.044986 -0.045202
    1 0.000000 -5.355259 0.000000 0.183181 -0.010845 -0.020733
    2 0.000000 -7.488277 -0.000001 0.174442 -0.008930 -0.017691
    3 0.000000 -5.597980 0.000000 -0.042230 -0.008961 -0.002253
    4 0.000000 -6.565113 -0.000001 0.381061 -0.009050 0.006957
    5 -1.549380 -5.102886 -4.074768 -1.985090 -1.444173 -2.806796
    6 -0.000053 11.987244 0.000028 -0.179741 -0.715682 1.919058
    7 20.109314 0.000000 -0.000002 -1.569643 -1.488776 -0.001003
    8 19.941738 0.000001 -0.000004 -1.700552 -0.829374 0.187031
    9 6.938272 1.999413 -1.014580 2.818959 0.995592 1.398301
    10 20.710249 -0.000001 0.000000 0.000000 1.231811 0.000000
    11 18.105982 0.000001 0.000000 -1.026341 -0.318159 1.531082
    12 -6.938270 1.999409 -1.014579 -0.110544 1.399513 -0.285596
    13 20.710224 0.000000 0.000000 0.000000 0.000000 1.878959
    14 18.106007 0.000000 -0.000001 2.455484 -1.441265 0.711728
    15 0.000000 -6.555973 0.000000 1.284335 -0.004933 -0.122507
    16 0.000000 -3.252140 0.000004 -1.737681 -0.072476 -0.001086
    17 1.548545 -4.925743 -4.285366 2.871076 0.025442 -1.818539
    18 1.190170 -10.472042 -0.306138 1.353248 -0.238019 -0.934260
    19 0.000008 0.000000 15.020973 -0.201994 -0.066154 0.008339
    20 0.000004 -0.000001 8.039619 0.000000 0.000000 0.318947
    21 2.899849 -0.471046 -4.331210 -0.449452 -0.559880 -0.709305
    22 -0.000025 2.543312 0.000026 0.221028 0.000000 0.000000
    23 0.000059 2.315285 -0.000040 0.100872 0.000000 0.000000
    24 1.551407 3.956631 -3.900798 2.695900 -1.367576 -3.120852
    25 0.000000 2.741436 -0.000004 -0.256296 0.000000 0.000000
    26 0.000010 2.668510 0.000050 -0.190586 0.000000 0.000000
    27 1.401100 3.639805 -1.202109 2.031148 -1.355830 -2.447084
    28 0.000003 2.810951 0.000004 -0.256296 0.000000 0.000000
    29 -0.000005 2.736202 -0.000031 -0.190586 0.000000 0.000000
    30 1.335663 3.182098 1.418086 0.980184 -1.251585 -1.415249
    31 -0.000003 2.663269 0.000046 -0.256296 0.000000 0.000000
    32 0.000001 2.592527 -0.000031 -0.190586 0.000000 0.000000
    33 1.344765 1.881123 3.809589 1.120332 -1.203080 -1.477339
    34 0.000011 2.315664 -0.000084 -0.256296 0.000000 0.000000
    35 -0.000006 2.254017 0.000076 -0.190586 0.000000 0.000000
    36 -0.000001 -4.648438 0.000000 -0.689151 0.003192 0.003653
    37 0.000018 4.648438 -0.000004 -0.675680 0.002636 0.003085
  time 24
    0 -2.576172 9.000000 108.952873 -1.572150 0.028216 0.000425
    1 0.000000 -5.355259 0.000000 0.163692 0.009225 -0.032560
    2 0.000000 -7.488277 -0.000001 0.163023 0.005393 -0.000049
    3 0.000000 -5.597980 0.000000 -0.035387 0.001028 0.058105
    4 0.000000 -6.565113 -0.000001 0.396812 -0.003252 0.077186
    5 -1.549380 -5.102886 -4.074768 -2.010811 -1.371555 -2.857791
    6 -0.000053 11.987244 0.000028 -0.088773 -0.863607 1.968633
    7 20.109314 0.000000 -0.000002 -1.570710 -1.077759 -0.000002
    8 19.941738 0.000001 -0.000004 -1.753349 -0.961177 0.206882
    9 6.938272 1.999413 -1.014580 2.792920 1.050606 1.405880
    10 20.710249 -0.000001 0.000000 0.000000 1.555964 0.000000
    11 18.105982 0.000001 0.000000 -1.190513 -0.312728 1.507333
    12 -6.938270 1.999409 -1.014579 0.980357 1.344754 0.886980
    13 20.710224 0.000000 0.000000 0.000000 0.000000 1.569547
    14 18.106007 0.000000 -0.000001 2.714841 -1.355284 0.620569
    15 0.000000 -6.555973 0.000000 1.317676 -0.035732 -0.184844
    16 0.000000 -3.252140 0.000004 -1.732225 -0.115483 0.034204
    17 1.548545 -4.925743 -4.285366 2.895798 0.017728 -1.883916
    18 1.190170 -10.472042 -0.306138 1.353248 -0.238019 -0.934260
    19 0.000008 0.000000 15.020973 -0.201994 -0.066154 0.008339
    20 0.000004 -0.000001 8.039619 0.000000 0.000000 0.318947
    21 2.899849 -0.471046 -4.331210 -0.449452 -0.559880 -0.709305
    22 -0.000025 2.543312 0.000026 0.221028 0.000000 0.000000
    23 0.000059 2.315285 -0.000040 0.100872 0.000000 0.000000
    24 1.551407 3.956631 -3.900798 2.695900 -1.367576 -3.120852
    25 0.000000 2.741436 -0.000004 -0.256296 0.000000 0.000000
    26 0.000010 2.668510 0.000050 -0.190586 0.000000 0.000000
    27 1.401100 3.639805 -1.202109 2.031148 -1.355830 -2.447084
    28 0.000003 2.810951 0.000004 -0.256296 0.000000 0.000000
    29 -0.000005 2.736202 -0.000031 -0.190586 0.000000 0.000000
    30 1.335663 3.182098 1.418086 0.980184 -1.251585 -1.415249
    31 -0.000003 2.663269 0.000046 -0.256296 0.000000 0.000000
    32 0.000001 2.592527 -0.000031 -0.190586 0.000000 0.000000
    33 1.344765 1.881123 3.809589 1.120332 -1.203080 -1.477339
    34 0.000011 2.315664 -0.000084 -0.256296 0.000000 0.000000
    35 -0.000006 2.254017 0.000076 -0.190586 0.000000 0.000000
    36 -0.000001 -4.648438 0.000000 -0.701810 0.003753 0.004216
    37 0.000018 4.648438 -0.000004 -0.684614 0.003044 0.003451
  time 25
    0 -2.898438 8.437500 111.345441 -1.609943 0.007998 0.048768
    1 0.000000 -5.355259 0.000000 0.169775 0.023832 -0.026643
    2 0.000000 -7.488277 -0.000001 0.164700 0.016528 0.016431
    3 0.000000 -5.597980 0.000000 -0.040195 0.010050 0.086514
    4 0.000000 -6.565113 -0.000001 0.385913 0.003898 0.108401
    5 -1.549380 -5.102886 -4.074768 -2.062790 -1.334663 -2.781250
    6 -0.000053 11.987244 0.000028 -0.067027 -0.901550 1.969409
    7 20.109314 0.000000 -0.000002 -1.570747 -0.794661 -0.000021
    8 19.941738 0.000001 -0.000004 -2.105599 -1.309859 0.540734
    9 6.938272 1.999413 -1.014580 2.776179 1.135610 1.443697
    10 20.710249 -0.000001 0.000000 3.141593 1.188013 3.141593
    11 18.105982 0.000001 0.000000 -1.450536 -0.196214 1.531239
    12 -6.938270 1.999409 -1.014579 1.271512 1.148654 1.276279
    13 20.710224 0.000000 0.000000 0.000000 0.000000 1.346513
    14 18.106007 0.000000 -0.000001 2.283664 -1.350320 1.001519
    15 0.000000 -6.555973 0.000000 1.316042 -0.051312 -0.194896
    16 0.000000 -3.252140 0.000004 -1.739080 -0.124116 0.053098
    17 1.548545 -4.925743 -4.285366 2.962915 0.017380 -1.912375
    18 1.190170 -10.472042 -0.306138 1.353248 -0.238019 -0.934260
    19 0.000008 0.000000 15.020973 -0.201994 -0.066154 0.008339
    20 0.000004 -0.000001 8.039619 0.000000 0.000000 0.318947
    21 2.899849 -0.471046 -4.331210 -0.449452 -0.559880 -0.709305
    22 -0.000025 2.543312 0.000026 0.221028 0.000000 0.000000
    23 0.000059 2.315285 -0.000040 0.100872 0.000000 0.000000
    24 1.551407 3.956631 -3.900798 2.695900 -1.367576 -3.120852
    25 0.000000 2.741436 -0.000004 -0.256296 0.000000 0.000000
    26 0.000010 2.668510 0.000050 -0.190586 0.000000 0.000000
    27 1.401100 3.639805 -1.202109 2.031148 -1.355830 -2.447084
    28 0.000003 2.810951 0.000004 -0.256296 0.000000 0.000000
    29 -0.000005 2.736202 -0.000031 -0.190586 0.000000 0.000000
    30 1.335663 3.182098 1.418086 0.980184 -1.251585 -1.415249
    31 -0.000003 2.663269 0.000046 -0.256296 0.000000 0.000000
    32 0.000001 2.592527 -0.000031 -0.190586 0.000000 0.000000
    33 1.344765 1.881123 3.809589 1.120332 -1.203080 -1.477339
    34 0.000011 2.315664 -0.000084 -0.256296 0.000000 0.000000
    35 -0.000006 2.254017 0.000076 -0.190586 0.000000 0.000000
    36 -0.000001 -4.648438 0.000000 -0.679563 0.002839 0.003269
    37 0.000018 4.648438 -0.000004 -0.714888 0.004323 0.004771
  time 26
    0 -3.191406 8.140625 113.769258 -1.636855 -0.004873 0.084081
    1 0.000000 -5.355259 0.000000 0.188870 0.035166 -0.016536
    2 0.000000 -7.488277 -0.000001 0.173205 0.025820 0.027241
    3 0.000000 -5.597980 0.000000 -0.052609 0.018315 0.094317
    4 0.000000 -6.565113 -0.000001 0.361676 0.011441 0.115079
    5 -1.549380 -5.102886 -4.074768 -2.053332 -1.305876 -2.727417
    6 -0.000053 11.987244 0.000028 -0.148092 -0.807935 1.960006
    7 20.109314 0.000000 -0.000002 -1.570784 -0.779380 0.000042
    8 19.941738 0.000001 -0.000004 2.758263 -1.414792 1.972796
    9 6.938272 1.999413 -1.014580 2.831125 1.255659 1.573142
    10 20.710249 -0.000001 0.000000 -3.141593 0.849099 -3.141593
    11 18.105982 0.000001 0.000000 -1.653584 -0.005760 1.517273
    12 -6.938270 1.999409 -1.014579 1.338032 1.013606 1.368737
    13 20.710224 0.000000 0.000000 0.000000 0.000000 1.212287
    14 18.106007 0.000000 -0.000001 2.439379 -1.400333 0.892457
    15 0.000000 -6.555973 0.000000 1.306755 -0.061742 -0.180377
    16 0.000000 -3.252140 0.000004 -1.757038 -0.112853 0.062828
    17 1.548545 -4.925743 -4.285366 3.034918 0.036702 -1.939163
    18 1.190170 -10.472042 -0.306138 1.353248 -0.238019 -0.934260
    19 0.000008 0.000000 15.020973 -0.201994 -0.066154 0.008339
    20 0.000004 -0.000001 8.039619 0.000000 0.000000 0.318947
    21 2.899849 -0.471046 -4.331210 -0.449452 -0.559880 -0.709305
    22 -0.000025 2.543312 0.000026 0.221028 0.000000 0.000000
    23 0.000059 2.315285 -0.000040 0.100872 0.000000 0.000000
    24 1.551407 3.956631 -3.900798 2.695900 -1.367576 -3.120852
    25 0.000000 2.741436 -0.000004 -0.256296 0.000000 0.000000
    26 0.000010 2.668510 0.000050 -0.190586 0.000000 0.000000
    27 1.401100 3.639805 -1.202109 2.031148 -1.355830 -2.447084
    28 0.000003 2.810951 0.000004 -0.256296 0.000000 0.000000
    29 -0.000005 2.736202 -0.000031 -0.190586 0.000000 0.000000
    30 1.335663 3.182098 1.418086 0.980184 -1.251585 -1.415249
    31 -0.000003 2.663269 0.000046 -0.256296 0.000000 0.000000
    32 0.000001 2.592527 -0.000031 -0.190586 0.000000 0.000000
    33 1.344765 1.881123 3.809589 1.120332 -1.203080 -1.477339
    34 0.000011 2.315664 -0.000084 -0.256296 0.000000 0.000000
    35 -0.000006 2.254017 0.000076 -0.190586 0.000000 0.000000
    36 -0.000001 -4.648438 0.000000 -0.680340 0.002840 0.003268
    37 0.000018 4.648438 -0.000004 -0.683254 0.002984 0.003473
  time 27
    0 -3.476563 8.210938 116.599326 -1.624540 -0.015415 0.111172
    1 0.000000 -5.355259 0.000000 0.189101 0.044223 -0.005985
    2 0.000000 -7.488277 -0.000001 0.169878 0.033841 0.036456
    3 0.000000 -5.597980 0.000000 -0.060160 0.026040 0.097331
    4 0.000000 -6.565113 -0.000001 0.351204 0.019095 0.115527
    5 -1.549380 -5.102886 -4.074768 -1.991868 -1.262980 -2.767029
    6 -0.000053 11.987244 0.000028 -0.232888 -0.639185 1.985210
    7 20.109314 0.000000 -0.000002 -1.570739 -0.970169 -0.000030
    8 19.941738 0.000001 -0.000004 2.544411 -1.407279 2.251654
    9 6.938272 1.999413 -1.014580 -3.082402 1.409451 2.014861
    10 20.710249 -0.000001 0.000000 3.141593 0.663179 3.141593
    11 18.105982 0.000001 0.000000 -1.758627 0.127924 1.512964
    12 -6.938270 1.999409 -1.014579 1.404358 0.998135 1.422939
    13 20.710224 0.000000 0.000000 0.000000 0.000000 1.145176
    14 18.106007 0.000000 -0.000001 2.551803 -1.382949 0.972633
    15 0.000000 -6.555973 0.000000 1.306838 -0.077856 -0.175795
    16 0.000000 -3.252140 0.000004 -1.771540 -0.102576 0.074588
    17 1.548545 -4.925743 -4.285366 3.089988 0.063780 -1.957611
    18 1.190170 -10.472042 -0.306138 1.353248 -0.238019 -0.934260
    19 0.000008 0.000000 15.020973 -0.201994 -0.066154 0.008339
    20 0.000004 -0.000001 8.039619 0.000000 0.000000 0.318947
    21 2.899849 -0.471046 -4.331210 -0.449452 -0.559880 -0.709305
    22 -0.000025 2.543312 0.000026 0.221028 0.000000 0.000000
    23 0.000059 2.315285 -0.000040 0.100872 0.000000 0.000000
    24 1.551407 3.956631 -3.900798 2.695900 -1.367576 -3.120852
    25 0.000000 2.741436 -0.000004 -0.256296 0.000000 0.000000
    26 0.000010 2.668510 0.000050 -0.190586 0.000000 0.000000
    27 1.401100 3.639805 -1.202109 2.031148 -1.355830 -2.447084
    28 0.000003 2.810951 0.000004 -0.256296 0.000000 0.000000
    29 -0.000005 2.736202 -0.000031 -0.190586 0.000000 0.000000
    30 1.335663 3.182098 1.418086 0.980184 -1.251585 -1.415249
    31 -0.000003 2.663269 0.000046 -0.256296 0.000000 0.000000
    32 0.000001 2.592527 -0.000031 -0.190586 0.000000 0.000000
    33 1.344765 1.881123 3.809589 1.120332 -1.203080 -1.477339
    34 0.000011 2.315664 -0.000084 -0.256296 0.000000 0.000000
    35 -0.000006 2.254017 0.000076 -0.190586 0.000000 0.000000
    36 -0.000001 -4.648438 0.000000 -0.678851 0.002780 0.003290
    37 0.000018 4.648438 -0.000004 -0.688762 0.003191 0.003654
  time 28
    0 -3.697266 8.312500 119.679394 -1.595959 -0.022501 0.138398
    1 0.000000 -5.355259 0.000000 0.192207 0.046490 0.003746
    2 0.000000 -7.488277 -0.000001 0.169467 0.035728 0.041757
    3 0.000000 -5.597980 0.000000 -0.065672 0.028027 0.093780
    4 0.000000 -6.565113 -0.000001 0.342075 0.021347 0.108666
    5 -1.549380 -5.102886 -4.074768 -2.015880 -1.249215 -2.767205
    6 -0.000053 11.987244 0.000028 -0.284835 -0.493588 2.040565
    7 20.109314 0.000000 -0.000002 -1.570670 -1.170754 -0.000084
    8 19.941738 0.000001 -0.000004 -2.624382 -1.417299 1.080737
    9 6.938272 1.999413 -1.014580 -1.728464 1.464927 -2.904764
    10 20.710249 -0.000001 0.000000 3.141593 0.636019 3.141593
    11 18.105982 0.000001 0.000000 -1.745374 0.076120 1.552042
    12 -6.938270 1.999409 -1.014579 1.482144 1.028055 1.497331
    13 20.710224 0.000000 0.000000 0.000000 0.000000 1.125053
    14 18.106007 0.000000 -0.000001 2.041964 -1.310303 1.637465
    15 0.000000 -6.555973 0.000000 1.308450 -0.082407 -0.171448
    16 0.000000 -3.252140 0.000004 -1.780654 -0.096380 0.076166
    17 1.548545 -4.925743 -4.285366 3.117941 0.075160 -1.968188
    18 1.190170 -10.472042 -0.306138 1.353248 -0.238019 -0.934260
    19 0.000008 0.000000 15.020973 -0.201994 -0.066154 0.008339
    20 0.000004 -0.000001 8.039619 0.000000 0.000000 0.318947
    21 2.899849 -0.471046 -4.331210 -0.449452 -0.559880 -0.709305
    22 -0.000025 2.543312 0.000026 0.221028 0.000000 0.000000
    23 0.000059 2.315285 -0.000040 0.100872 0.000000 0.000000
    24 1.551407 3.956631 -3.900798 2.695900 -1.367576 -3.120852
    25 0.000000 2.741436 -0.000004 -0.256296 0.000000 0.000000
    26 0.000010 2.668510 0.000050 -0.190586 0.000000 0.000000
    27 1.401100 3.639805 -1.202109 2.031148 -1.355830 -2.447084
    28 0.000003 2.810951 0.000004 -0.256296 0.000000 0.000000
    29 -0.000005 2.736202 -0.000031 -0.190586 0.000000 0.000000
    30 1.335663 3.182098 1.418086 0.980184 -1.251585 -1.415249
    31 -0.000003 2.663269 0.000046 -0.256296 0.000000 0.000000
    32 0.000001 2.592527 -0.000031 -0.190586 0.000000 0.000000
    33 1.344765 1.881123 3.809589 1.120332 -1.203080 -1.477339
    34 0.000011 2.315664 -0.000084 -0.256296 0.000000 0.000000
    35 -0.000006 2.254017 0.000076 -0.190586 0.000000 0.000000
    36 -0.000001 -4.648438 0.000000 -0.685197 0.003086 0.003565
    37 0.000018 4.648438 -0.000004 -0.674064 0.002593 0.002972
  time 29
    0 -3.841797 8.351563 123.040711 -1.555252 -0.009377 0.168243
    1 0.000000 -5.355259 0.000000 0.198765 0.045528 -0.004417
    2 0.000000 -7.488277 -0.000001 0.171176 0.035239 0.035620
    3 0.000000 -5.597980 0.000000 -0.074799 0.027070 0.091011
    4 0.000000 -6.565113 -0.000001 0.329824 0.020303 0.106513
    5 -1.549380 -5.102886 -4.074768 -2.056577 -1.268694 -2.817958
    6 -0.000053 11.987244 0.000028 -0.319375 -0.451531 2.131585
    7 20.109314 0.000000 -0.000002 -1.570580 -1.323476 -0.000168
    8 19.941738 0.000001 -0.000004 -2.676592 -1.378857 1.127641
    9 6.938272 1.999413 -1.014580 -1.131769 1.400940 -2.359467
    10 20.710249 -0.000001 0.000000 -3.141593 0.743957 -3.141593
    11 18.105982 0.000001 0.000000 -1.705359 -0.023327 1.626601
    12 -6.938270 1.999409 -1.014579 1.501518 1.043953 1.520605
    13 20.710224 0.000000 0.000000 0.000000 0.000000 1.120007
    14 18.106007 0.000000 -0.000001 1.898532 -1.207575 1.823005
    15 0.000000 -6.555973 0.000000 1.294696 -0.074453 -0.190342
    16 0.000000 -3.252140 0.000004 -1.773478 -0.105459 0.065563
    17 1.548545 -4.925743 -4.285366 3.122013 0.081561 -1.994699
    18 1.190170 -10.472042 -0.306138 1.353248 -0.238019 -0.934260
    19 0.000008 0.000000 15.020973 -0.201994 -0.066154 0.008339
    20 0.000004 -0.000001 8.039619 0.000000 0.000000 0.318947
    21 2.899849 -0.471046 -4.331210 -0.449452 -0.559880 -0.709305
    22 -0.000025 2.543312 0.000026 0.221028 0.000000 0.000000
    23 0.000059 2.315285 -0.000040 0.100872 0.000000 0.000000
    24 1.551407 3.956631 -3.900798 2.695900 -1.367576 -3.120852
    25 0.000000 2.741436 -0.000004 -0.256296 0.000000 0.000000
    26 0.000010 2.668510 0.000050 -0.190586 0.000000 0.000000
    27 1.401100 3.639805 -1.202109 2.031148 -1.355830 -2.447084
    28 0.000003 2.810951 0.000004 -0.256296 0.000000 0.000000
    29 -0.000005 2.736202 -0.000031 -0.190586 0.000000 0.000000
    30 1.335663 3.182098 1.418086 0.980184 -1.251585 -1.415249
    31 -0.000003 2.663269 0.000046 -0.256296 0.000000 0.000000
    32 0.000001 2.592527 -0.000031 -0.190586 0.000000 0.000000
    33 1.344765 1.881123 3.809589 1.120332 -1.203080 -1.477339
    34 0.000011 2.315664 -0.000084 -0.256296 0.000000 0.000000
    35 -0.000006 2.254017 0.000076 -0.190586 0.000000 0.000000
    36 -0.000001 -4.648438 0.000000 -0.701680 0.003753 0.004216
    37 0.000018 4.648438 -0.000004 -0.671736 0.002492 0.002880
  time 30
    0 -3.898438 8.289063 126.402029 -1.518357 0.011803 0.187219
    1 0.000000 -5.355259 0.000000 0.209002 0.040880 -0.020511
    2 0.000000 -7.488277 -0.000001 0.175816 0.031750 0.024247
    3 0.000000 -5.597980 0.000000 -0.085936 0.023274 0.088962
    4 0.000000 -6.565113 -0.000001 0.317578 0.016269 0.105882
    5 -1.549380 -5.102886 -4.074768 -2.093393 -1.310679 -2.881691
    6 -0.000053 11.987244 0.000028 -0.431442 -0.417781 2.212673
    7 20.109314 0.000000 -0.000002 -1.570343 -1.448540 -0.000344
    8 19.941738 0.000001 -0.000004 -2.521080 -1.289428 0.990642
    9 6.938272 1.999413 -1.014580 -1.234864 1.417647 -2.526898
    10 20.710249 -0.000001 0.000000 3.141593 0.954839 3.141593
    11 18.105982 0.000001 0.000000 -1.709398 -0.101052 1.657096
    12 -6.938270 1.999409 -1.014579 1.538145 1.077748 1.534140
    13 20.710224 0.000000 0.000000 0.000000 0.000000 1.201760
    14 18.106007 0.000000 -0.000001 1.868027 -1.185294 1.883799
    15 0.000000 -6.555973 0.000000 1.276135 -0.060490 -0.221261
    16 0.000000 -3.252140 0.000004 -1.760064 -0.125481 0.050978
    17 1.548545 -4.925743 -4.285366 3.116732 0.081509 -2.043171
    18 1.190170 -10.472042 -0.306138 1.353248 -0.238019 -0.934260
    19 0.000008 0.000000 15.020973 -0.201994 -0.066154 0.008339
    20 0.000004 -0.000001 8.039619 0.000000 0.000000 0.318947
    21 2.899849 -0.471046 -4.331210 -0.449452 -0.559880 -0.709305
    22 -0.000025 2.543312 0.000026 0.221028 0.000000 0.000000
    23 0.000059 2.315285 -0.000040 0.100872 0.000000 0.000000
    24 1.551407 3.956631 -3.900798 2.695900 -1.367576 -3.120852
    25 0.000000 2.741436 -0.000004 -0.256296 0.000000 0.000000
    26 0.000010 2.668510 0.000050 -0.190586 0.000000 0.000000
    27 1.401100 3.639805 -1.202109 2.031148 -1.355830 -2.447084
    28 0.000003 2.810951 0.000004 -0.256296 0.000000 0.000000
    29 -0.000005 2.736202 -0.000031 -0.190586 0.000000 0.000000
    30 1.335663 3.182098 1.418086 0.980184 -1.251585 -1.415249
    31 -0.000003 2.663269 0.000046 -0.256296 0.000000 0.000000
    32 0.000001 2.592527 -0.000031 -0.190586 0.000000 0.000000
    33 1.344765 1.881123 3.809589 1.120332 -1.203080 -1.477339
    34 0.000011 2.315664 -0.000084 -0.256296 0.000000 0.000000
    35 -0.000006 2.254017 0.000076 -0.190586 0.000000 0.000000
    36 -0.000001 -4.648438 0.000000 -0.726954 0.004840 0.005342
    37 0.000018 4.648438 -0.000004 -0.668634 0.002390 0.002788
  time 31
    0 -3.896484 7.917969 129.357097 -1.502542 0.024480 0.183052
    1 0.000000 -5.355259 0.000000 0.224918 0.026879 -0.024239
    2 0.000000 -7.488277 -0.000001 0.182998 0.020631 0.010965
    3 0.000000 -5.597980 0.000000 -0.098898 0.013788 0.063618
    4 0.000000 -6.565113 -0.000001 0.301435 0.008564 0.077006
    5 -1.549380 -5.102886 -4.074768 -2.098920 -1.355680 -2.889650
    6 -0.000053 11.987244 0.000028 -0.519258 -0.340805 2.262049
    7 20.109314 0.000000 -0.000002 -1.566443 -1.551057 -0.004329
    8 19.941738 0.000001 -0.000004 -2.357253 -1.135635 0.850781
    9 6.938272 1.999413 -1.014580 -2.193781 1.454672 2.758301
    10 20.710249 -0.000001 0.000000 -3.141593 1.229474 -3.141593
    11 18.105982 0.000001 0.000000 -1.696727 -0.093027 1.709571
    12 -6.938270 1.999409 -1.014579 1.574910 1.168307 1.536586
    13 20.710224 0.000000 0.000000 0.000000 0.000000 1.458527
    14 18.106007 0.000000 -0.000001 1.685570 -1.282057 1.906206
    15 0.000000 -6.555973 0.000000 1.260418 -0.034394 -0.196502
    16 0.000000 -3.252140 0.000004 -1.744056 -0.112707 0.025940
    17 1.548545 -4.925743 -4.285366 3.104712 0.089502 -2.021479
    18 1.190170 -10.472042 -0.306138 1.353248 -0.238019 -0.934260
    19 0.000008 0.000000 15.020973 -0.201994 -0.066154 0.008339
    20 0.000004 -0.000001 8.039619 0.000000 0.000000 0.318947
    21 2.899849 -0.471046 -4.331210 -0.449452 -0.559880 -0.709305
    22 -0.000025 2.543312 0.000026 0.221028 0.000000 0.000000
    23 0.000059 2.315285 -0.000040 0.100872 0.000000 0.000000
    24 1.551407 3.956631 -3.900798 2.695900 -1.367576 -3.120852
    25 0.000000 2.741436 -0.000004 -0.256296 0.000000 0.000000
    26 0.000010 2.668510 0.000050 -0.190586 0.000000 0.000000
    27 1.401100 3.639805 -1.202109 2.031148 -1.355830 -2.447084
    28 0.000003 2.810951 0.000004 -0.256296 0.000000 0.000000
    29 -0.000005 2.736202 -0.000031 -0.190586 0.000000 0.000000
    30 1.335663 3.182098 1.418086 0.980184 -1.251585 -1.415249
    31 -0.000003 2.663269 0.000046 -0.256296 0.000000 0.000000
    32 0.000001 2.592527 -0.000031 -0.190586 0.000000 0.000000
    33 1.344765 1.881123 3.809589 1.120332 -1.203080 -1.477339
    34 0.000011 2.315664 -0.000084 -0.256296 0.000000 0.000000
    35 -0.000006 2.254017 0.000076 -0.190586 0.000000 0.000000
    36 -0.000001 -4.648438 0.000000 -0.753661 0.006062 0.006528
    37 0.000018 4.648438 -0.000004 -0.671994 0.002493 0.002879
  time 32
    0 -3.794922 7.164063 131.749664 -1.506541 0.029204 0.165950
    1 0.000000 -5.355259 0.000000 0.216969 0.002542 -0.008687
    2 0.000000 -7.488277 -0.000001 0.178205 0.003333 -0.006443
    3 0.000000 -5.597980 0.000000 -0.092747 0.003636 -0.000658
    4 0.000000 -6.565113 -0.000001 0.309529 0.003641 0.002792
    5 -1.549380 -5.102886 -4.074768 -1.979092 -1.381989 -2.919953
    6 -0.000053 11.987244 0.000028 -0.600433 -0.264186 2.218968
    7 20.109314 0.000000 -0.000002 1.570078 -1.488196 -3.140748
    8 19.941738 0.000001 -0.000004 -2.320170 -0.987496 0.851891
    9 6.938272 1.999413 -1.014580 -2.968068 1.337849 1.956985
    10 20.710249 -0.000001 0.000000 3.141593 1.528347 3.141593
    11 18.105982 0.000001 0.000000 -1.575685 -0.042669 1.800608
    12 -6.938270 1.999409 -1.014579 1.589259 1.279680 1.509851
    13 20.710224 0.000000 0.000000 0.000000 0.000000 1.779701
    14 18.106007 0.000000 -0.000001 1.777061 -1.471211 1.560726
    15 0.000000 -6.555973 0.000000 1.261694 0.004583 -0.083903
    16 0.000000 -3.252140 0.000004 -1.733716 -0.045742 -0.012334
    17 1.548545 -4.925743 -4.285366 3.036908 0.093267 -1.867239
    18 1.190170 -10.472042 -0.306138 1.353248 -0.238019 -0.934260
    19 0.000008 0.000000 15.020973 -0.201994 -0.066154 0.008339
    20 0.000004 -0.000001 8.039619 0.000000 0.000000 0.318947
    21 2.899849 -0.471046 -4.331210 -0.449452 -0.559880 -0.709305
    22 -0.000025 2.543312 0.000026 0.221028 0.000000 0.000000
    23 0.000059 2.315285 -0.000040 0.100872 0.000000 0.000000
    24 1.551407 3.956631 -3.900798 2.695900 -1.367576 -3.120852
    25 0.000000 2.741436 -0.000004 -0.256296 0.000000 0.000000
    26 0.000010 2.668510 0.000050 -0.190586 0.000000 0.000000
    27 1.401100 3.639805 -1.202109 2.031148 -1.355830 -2.447084
    28 0.000003 2.810951 0.000004 -0.256296 0.000000 0.000000
    29 -0.000005 2.736202 -0.000031 -0.190586 0.000000 0.000000
    30 1.335663 3.182098 1.418086 0.980184 -1.251585 -1.415249
    31 -0.000003 2.663269 0.000046 -0.256296 0.000000 0.000000
    32 0.000001 2.592527 -0.000031 -0.190586 0.000000 0.000000
    33 1.344765 1.881123 3.809589 1.120332 -1.203080 -1.477339
    34 0.000011 2.315664 -0.000084 -0.256296 0.000000 0.000000
    35 -0.000006 2.254017 0.000076 -0.190586 0.000000 0.000000
    36 -0.000001 -4.648438 0.000000 -0.795513 0.007940 0.008183
    37 0.000018 4.648438 -0.000004 -0.694665 0.003441 0.003947
end
