// Created by Crowbar 0.74
version 1
nodes
  0 "bip_pelvis" -1
  1 "bip_spine_0" 0
  2 "bip_spine_1" 1
  3 "bip_spine_2" 2
  4 "bip_spine_3" 3
  5 "bip_collar_R" 4
  6 "bip_upperArm_R" 5
  7 "bip_lowerArm_R" 6
  8 "bip_hand_R" 7
  9 "bip_hip_L" 0
  10 "bip_knee_L" 9
  11 "bip_foot_L" 10
  12 "bip_hip_R" 0
  13 "bip_knee_R" 12
  14 "bip_foot_R" 13
  15 "bip_neck" 4
  16 "bip_head" 15
  17 "bip_collar_L" 4
  18 "bip_upperArm_L" 17
  19 "bip_lowerArm_L" 18
  20 "bip_hand_L" 19
  21 "bip_thumb_0_R" 8
  22 "bip_thumb_1_R" 21
  23 "bip_thumb_2_R" 22
  24 "bip_index_0_R" 8
  25 "bip_index_1_R" 24
  26 "bip_index_2_R" 25
  27 "bip_middle_0_R" 8
  28 "bip_middle_1_R" 27
  29 "bip_middle_2_R" 28
  30 "bip_ring_0_R" 8
  31 "bip_ring_1_R" 30
  32 "bip_ring_2_R" 31
  33 "bip_pinky_0_R" 8
  34 "bip_pinky_1_R" 33
  35 "bip_pinky_2_R" 34
  36 "bip_toe_L" 11
  37 "bip_toe_R" 14
end
skeleton
  time 0
    0 -3.566406 5.328125 38.625000 -1.066026 0.035250 -0.064058
    1 0.000000 -5.257813 -1.001953 -0.218263 -0.102536 -0.161114
    2 0.000000 -7.488277 -0.000001 -0.103047 -0.019057 0.015651
    3 0.000000 -5.597980 0.000000 0.066162 -0.060747 -0.002622
    4 0.000000 -6.565113 -0.000001 0.607505 -0.043610 0.079257
    5 -1.549380 -5.102886 -4.074768 2.904684 -0.709023 -1.062169
    6 -0.000053 11.987244 0.000028 -0.840558 -0.575395 2.671013
    7 20.109314 0.000000 -0.000002 1.464967 -0.971370 -3.107778
    8 19.941738 0.000001 -0.000004 0.308257 -0.896518 -2.051966
    9 6.938272 1.999413 -1.014580 2.599977 0.993996 0.947308
    10 20.710249 -0.000001 0.000000 -3.141593 1.320444 -3.141593
    11 18.105982 0.000001 0.000000 -0.885778 -0.282442 1.785287
    12 -6.938270 1.999409 -1.014579 1.294610 1.041838 1.410123
    13 20.710224 0.000000 0.000000 0.000000 0.000000 1.168502
    14 18.106007 0.000000 -0.000001 -0.924645 -1.333091 -2.089749
    15 0.000000 -6.555973 0.000000 0.008577 0.265323 0.393185
    16 0.000000 -3.252140 0.000004 -0.869029 -0.069795 -0.109223
    17 1.548545 -4.925743 -4.285366 -2.635770 -0.680358 -1.768541
    18 1.190170 -10.472042 -0.306138 1.353248 -0.238019 -0.934260
    19 0.000008 0.000000 15.020973 -0.201994 -0.066154 0.008339
    20 0.000004 -0.000001 8.039619 0.000000 0.000000 0.318947
    21 2.899849 -0.471046 -4.331210 -0.333509 -0.630519 -0.915402
    22 -0.000025 2.543312 0.000026 0.217358 0.040231 -0.180100
    23 0.000059 2.315285 -0.000040 0.099114 0.018457 -0.183540
    24 1.551407 3.956631 -3.900798 2.393589 -1.367686 -3.120704
    25 0.000000 2.741436 -0.000004 -0.558500 0.000000 0.000000
    26 0.000010 2.668510 0.000050 -0.492763 0.000000 0.000000
    27 1.401100 3.639805 -1.202109 1.728683 -1.355921 -2.446708
    28 0.000003 2.810951 0.000004 -0.558500 0.000000 0.000000
    29 -0.000005 2.736202 -0.000031 -0.492763 0.000000 0.000000
    30 1.335663 3.182098 1.418086 0.723330 -1.251529 -1.415184
    31 -0.000003 2.663269 0.000046 -0.513118 0.000000 0.000000
    32 0.000001 2.592527 -0.000031 -0.447386 0.000000 0.000000
    33 1.344765 1.881123 3.809589 0.859882 -1.203079 -1.477188
    34 0.000011 2.315664 -0.000084 -0.516589 0.000000 0.000000
    35 -0.000006 2.254017 0.000076 -0.450892 0.000000 0.000000
    36 0.011267 -6.809892 1.974034 -0.607824 0.000000 0.000000
    37 -0.011248 6.809885 -1.974043 -0.607868 0.000000 0.000000
  time 1
    0 -11.348677 13.290082 39.031250 -0.935656 -0.085047 -0.180446
    1 0.000000 -5.257813 -1.001953 -0.409630 -0.198174 0.065723
    2 0.000000 -7.488277 -0.000001 -0.106724 -0.043026 0.028832
    3 0.000000 -5.597980 0.000000 0.049909 -0.158060 0.007683
    4 0.000000 -6.565113 -0.000001 0.645835 -0.094119 0.072384
    5 -1.549380 -5.102886 -4.074768 2.754366 -0.661924 -0.921174
    6 -0.000053 11.987244 0.000028 -0.863157 -0.456255 2.684906
    7 20.109314 0.000000 -0.000002 1.468332 -0.947351 -3.112450
    8 19.941738 0.000001 -0.000004 -0.024444 -0.961705 -1.780827
    9 6.938272 1.999413 -1.014580 2.596336 0.975490 1.298983
    10 20.710249 -0.000001 0.000000 3.141593 1.481008 3.141593
    11 18.105982 0.000001 0.000000 -0.994979 -0.158688 1.855619
    12 -6.938270 1.999409 -1.014579 0.690673 1.263160 0.770924
    13 20.710224 0.000000 0.000000 0.000000 0.000000 1.026118
    14 18.106007 0.000000 -0.000001 -1.738316 -1.268332 -0.940103
    15 0.000000 -6.555973 0.000000 0.015022 0.259617 0.196411
    16 0.000000 -3.252140 0.000004 -0.851524 -0.093807 -0.204502
    17 1.548545 -4.925743 -4.285366 -2.384067 -0.597219 -2.034187
    18 1.190170 -10.472042 -0.306138 1.353248 -0.238019 -0.934260
    19 0.000008 0.000000 15.020973 -0.201994 -0.066154 0.008339
    20 0.000004 -0.000001 8.039619 0.000000 0.000000 0.318947
    21 2.899849 -0.471046 -4.331210 -0.333509 -0.630519 -0.915402
    22 -0.000025 2.543312 0.000026 0.217358 0.040231 -0.180100
    23 0.000059 2.315285 -0.000040 0.099114 0.018457 -0.183540
    24 1.551407 3.956631 -3.900798 2.393589 -1.367686 -3.120704
    25 0.000000 2.741436 -0.000004 -0.558500 0.000000 0.000000
    26 0.000010 2.668510 0.000050 -0.492763 0.000000 0.000000
    27 1.401100 3.639805 -1.202109 1.728683 -1.355921 -2.446708
    28 0.000003 2.810951 0.000004 -0.558500 0.000000 0.000000
    29 -0.000005 2.736202 -0.000031 -0.492763 0.000000 0.000000
    30 1.335663 3.182098 1.418086 0.723330 -1.251529 -1.415184
    31 -0.000003 2.663269 0.000046 -0.513118 0.000000 0.000000
    32 0.000001 2.592527 -0.000031 -0.447386 0.000000 0.000000
    33 1.344765 1.881123 3.809589 0.859882 -1.203079 -1.477188
    34 0.000011 2.315664 -0.000084 -0.516589 0.000000 0.000000
    35 -0.000006 2.254017 0.000076 -0.450892 0.000000 0.000000
    36 0.011267 -6.809892 1.974034 -0.607824 0.000000 0.000000
    37 -0.011248 6.809885 -1.974043 -0.607868 0.000000 0.000000
  time 2
    0 -18.271572 20.970790 39.656250 -0.970236 -0.060650 -0.173212
    1 0.000000 -5.257813 -1.001953 -0.407662 -0.198761 0.050357
    2 0.000000 -7.488277 -0.000001 -0.090625 -0.059196 0.047921
    3 0.000000 -5.597980 0.000000 0.083231 -0.227742 0.013226
    4 0.000000 -6.565113 -0.000001 0.762539 -0.151042 0.047241
    5 -1.549380 -5.102886 -4.074768 2.657933 -0.618187 -0.851964
    6 -0.000053 11.987244 0.000028 -0.624436 -0.308831 2.822657
    7 20.109314 0.000000 -0.000002 1.449036 -1.060199 -3.086631
    8 19.941738 0.000001 -0.000004 0.364826 -0.962608 -2.283537
    9 6.938272 1.999413 -1.014580 2.744847 0.758441 1.563127
    10 20.710249 -0.000001 0.000000 0.000000 1.447016 0.000000
    11 18.105982 0.000001 0.000000 -1.105567 -0.008413 1.727346
    12 -6.938270 1.999409 -1.014579 1.055585 0.906727 0.958720
    13 20.710224 0.000000 0.000000 0.000000 0.000000 0.000000
    14 18.106007 0.000000 -0.000001 -2.493385 -1.080467 0.101450
    15 0.000000 -6.555973 0.000000 0.052344 0.190461 0.122093
    16 0.000000 -3.252140 0.000004 -0.827818 -0.130331 -0.266368
    17 1.548545 -4.925743 -4.285366 -2.335107 -0.616595 -1.963901
    18 1.190170 -10.472042 -0.306138 1.353248 -0.238019 -0.934260
    19 0.000008 0.000000 15.020973 -0.201994 -0.066154 0.008339
    20 0.000004 -0.000001 8.039619 0.000000 0.000000 0.318947
    21 2.899849 -0.471046 -4.331210 -0.333509 -0.630519 -0.915402
    22 -0.000025 2.543312 0.000026 0.217358 0.040231 -0.180100
    23 0.000059 2.315285 -0.000040 0.099114 0.018457 -0.183540
    24 1.551407 3.956631 -3.900798 2.393589 -1.367686 -3.120704
    25 0.000000 2.741436 -0.000004 -0.558500 0.000000 0.000000
    26 0.000010 2.668510 0.000050 -0.492763 0.000000 0.000000
    27 1.401100 3.639805 -1.202109 1.728683 -1.355921 -2.446708
    28 0.000003 2.810951 0.000004 -0.558500 0.000000 0.000000
    29 -0.000005 2.736202 -0.000031 -0.492763 0.000000 0.000000
    30 1.335663 3.182098 1.418086 0.723330 -1.251529 -1.415184
    31 -0.000003 2.663269 0.000046 -0.513118 0.000000 0.000000
    32 0.000001 2.592527 -0.000031 -0.447386 0.000000 0.000000
    33 1.344765 1.881123 3.809589 0.859882 -1.203079 -1.477188
    34 0.000011 2.315664 -0.000084 -0.516589 0.000000 0.000000
    35 -0.000006 2.254017 0.000076 -0.450892 0.000000 0.000000
    36 0.011267 -6.809892 1.974034 -0.607824 0.000000 0.000000
    37 -0.011248 6.809885 -1.974043 -0.607868 0.000000 0.000000
  time 3
    0 -21.690561 24.585091 41.625000 -1.052996 -0.050715 -0.121382
    1 0.000000 -5.257813 -1.001953 -0.345183 -0.183269 0.019345
    2 0.000000 -7.488277 -0.000001 -0.068152 -0.053813 0.046925
    3 0.000000 -5.597980 0.000000 0.141893 -0.221831 0.008551
    4 0.000000 -6.565113 -0.000001 0.810840 -0.153889 0.041623
    5 -1.549380 -5.102886 -4.074768 2.665852 -0.588248 -0.935595
    6 -0.000053 11.987244 0.000028 -0.541480 -0.338948 2.836498
    7 20.109314 0.000000 -0.000002 1.421904 -1.160934 -3.053779
    8 19.941738 0.000001 -0.000004 0.581408 -0.966094 -2.617845
    9 6.938272 1.999413 -1.014580 2.896208 0.393528 1.793364
    10 20.710249 -0.000001 0.000000 0.000000 0.948349 0.000000
    11 18.105982 0.000001 0.000000 -1.030258 0.039048 1.781033
    12 -6.938270 1.999409 -1.014579 1.211340 0.873242 0.905447
    13 20.710224 0.000000 0.000000 0.000000 0.000000 0.000000
    14 18.106007 0.000000 -0.000001 -2.703354 -0.995518 0.329508
    15 0.000000 -6.555973 0.000000 0.084403 0.174776 0.127050
    16 0.000000 -3.252140 0.000004 -0.814166 -0.143788 -0.277644
    17 1.548545 -4.925743 -4.285366 -2.372186 -0.649522 -1.855873
    18 1.190170 -10.472042 -0.306138 1.353248 -0.238019 -0.934260
    19 0.000008 0.000000 15.020973 -0.201994 -0.066154 0.008339
    20 0.000004 -0.000001 8.039619 0.000000 0.000000 0.318947
    21 2.899849 -0.471046 -4.331210 -0.333509 -0.630519 -0.915402
    22 -0.000025 2.543312 0.000026 0.217358 0.040231 -0.180100
    23 0.000059 2.315285 -0.000040 0.099114 0.018457 -0.183540
    24 1.551407 3.956631 -3.900798 2.393589 -1.367686 -3.120704
    25 0.000000 2.741436 -0.000004 -0.558500 0.000000 0.000000
    26 0.000010 2.668510 0.000050 -0.492763 0.000000 0.000000
    27 1.401100 3.639805 -1.202109 1.728683 -1.355921 -2.446708
    28 0.000003 2.810951 0.000004 -0.558500 0.000000 0.000000
    29 -0.000005 2.736202 -0.000031 -0.492763 0.000000 0.000000
    30 1.335663 3.182098 1.418086 0.723330 -1.251529 -1.415184
    31 -0.000003 2.663269 0.000046 -0.513118 0.000000 0.000000
    32 0.000001 2.592527 -0.000031 -0.447386 0.000000 0.000000
    33 1.344765 1.881123 3.809589 0.859882 -1.203079 -1.477188
    34 0.000011 2.315664 -0.000084 -0.516589 0.000000 0.000000
    35 -0.000006 2.254017 0.000076 -0.450892 0.000000 0.000000
    36 0.011267 -6.809892 1.974034 -0.607824 0.000000 0.000000
    37 -0.011248 6.809885 -1.974043 -0.607868 0.000000 0.000000
  time 4
    0 -25.120292 28.211111 42.281250 -1.136031 -0.040694 -0.069448
    1 0.000000 -5.257813 -1.001953 -0.282443 -0.167715 -0.011859
    2 0.000000 -7.488277 -0.000001 -0.045634 -0.048485 0.045813
    3 0.000000 -5.597980 0.000000 0.199083 -0.177915 0.012114
    4 0.000000 -6.565113 -0.000001 0.859543 -0.147877 0.026629
    5 -1.549380 -5.102886 -4.074768 2.705326 -0.558918 -1.070039
    6 -0.000053 11.987244 0.000028 -0.447922 -0.512993 2.780356
    7 20.109314 0.000000 -0.000002 1.393971 -1.228933 -3.021927
    8 19.941738 0.000001 -0.000004 0.519638 -1.063519 -2.386866
    9 6.938272 1.999413 -1.014580 2.949525 0.126051 1.838721
    10 20.710249 -0.000001 0.000000 0.000000 0.567586 0.000000
    11 18.105982 0.000001 0.000000 -0.945489 0.016282 1.787898
    12 -6.938270 1.999409 -1.014579 1.338484 1.021556 0.932559
    13 20.710224 0.000000 0.000000 0.000000 0.000000 0.431939
    14 18.106007 0.000000 -0.000001 -2.777808 -1.004377 0.158033
    15 0.000000 -6.555973 0.000000 0.116405 0.158658 0.132003
    16 0.000000 -3.252140 0.000004 -0.802727 -0.144120 -0.272390
    17 1.548545 -4.925743 -4.285366 -2.417169 -0.677313 -1.742425
    18 1.190170 -10.472042 -0.306138 1.353248 -0.238019 -0.934260
    19 0.000008 0.000000 15.020973 -0.201994 -0.066154 0.008339
    20 0.000004 -0.000001 8.039619 0.000000 0.000000 0.318947
    21 2.899849 -0.471046 -4.331210 -0.333509 -0.630519 -0.915402
    22 -0.000025 2.543312 0.000026 0.217358 0.040231 -0.180100
    23 0.000059 2.315285 -0.000040 0.099114 0.018457 -0.183540
    24 1.551407 3.956631 -3.900798 2.393589 -1.367686 -3.120704
    25 0.000000 2.741436 -0.000004 -0.558500 0.000000 0.000000
    26 0.000010 2.668510 0.000050 -0.492763 0.000000 0.000000
    27 1.401100 3.639805 -1.202109 1.728683 -1.355921 -2.446708
    28 0.000003 2.810951 0.000004 -0.558500 0.000000 0.000000
    29 -0.000005 2.736202 -0.000031 -0.492763 0.000000 0.000000
    30 1.335663 3.182098 1.418086 0.723330 -1.251529 -1.415184
    31 -0.000003 2.663269 0.000046 -0.513118 0.000000 0.000000
    32 0.000001 2.592527 -0.000031 -0.447386 0.000000 0.000000
    33 1.344765 1.881123 3.809589 0.859882 -1.203079 -1.477188
    34 0.000011 2.315664 -0.000084 -0.516589 0.000000 0.000000
    35 -0.000006 2.254017 0.000076 -0.450892 0.000000 0.000000
    36 0.011267 -6.809892 1.974034 -0.607824 0.000000 0.000000
    37 -0.011248 6.809885 -1.974043 -0.607868 0.000000 0.000000
  time 5
    0 -32.067602 35.200412 42.093750 -1.237440 -0.000151 0.026651
    1 0.000000 -5.257813 -1.001953 -0.210942 -0.141139 -0.083518
    2 0.000000 -7.488277 -0.000001 -0.019203 -0.030798 0.041687
    3 0.000000 -5.597980 0.000000 0.269058 -0.113566 0.017680
    4 0.000000 -6.565113 -0.000001 0.935941 -0.105924 0.038195
    5 -1.549380 -5.102886 -4.074768 2.684160 -0.538303 -1.159205
    6 -0.000053 11.987244 0.000028 -0.498141 -0.551246 2.789793
    7 20.109314 0.000000 -0.000002 1.349748 -1.299448 -2.973750
    8 19.941738 0.000001 -0.000004 0.324785 -1.228932 -2.225830
    9 6.938272 1.999413 -1.014580 2.989110 -0.166624 1.723700
    10 20.710249 -0.000001 0.000000 0.000000 0.001892 0.000000
    11 18.105982 0.000001 0.000000 -1.235395 -0.033443 1.714085
    12 -6.938270 1.999409 -1.014579 1.533972 0.998306 1.020655
    13 20.710224 0.000000 0.000000 0.000000 0.000000 0.504100
    14 18.106007 0.000000 -0.000001 -2.585241 -0.794512 0.146130
    15 0.000000 -6.555973 0.000000 0.178968 0.179136 0.159962
    16 0.000000 -3.252140 0.000004 -0.789283 -0.144969 -0.270089
    17 1.548545 -4.925743 -4.285366 -2.529643 -0.709449 -1.561691
    18 1.190170 -10.472042 -0.306138 1.353248 -0.238019 -0.934260
    19 0.000008 0.000000 15.020973 -0.201994 -0.066154 0.008339
    20 0.000004 -0.000001 8.039619 0.000000 0.000000 0.318947
    21 2.899849 -0.471046 -4.331210 -0.333509 -0.630519 -0.915402
    22 -0.000025 2.543312 0.000026 0.217358 0.040231 -0.180100
    23 0.000059 2.315285 -0.000040 0.099114 0.018457 -0.183540
    24 1.551407 3.956631 -3.900798 2.393589 -1.367686 -3.120704
    25 0.000000 2.741436 -0.000004 -0.558500 0.000000 0.000000
    26 0.000010 2.668510 0.000050 -0.492763 0.000000 0.000000
    27 1.401100 3.639805 -1.202109 1.728683 -1.355921 -2.446708
    28 0.000003 2.810951 0.000004 -0.558500 0.000000 0.000000
    29 -0.000005 2.736202 -0.000031 -0.492763 0.000000 0.000000
    30 1.335663 3.182098 1.418086 0.723330 -1.251529 -1.415184
    31 -0.000003 2.663269 0.000046 -0.513118 0.000000 0.000000
    32 0.000001 2.592527 -0.000031 -0.447386 0.000000 0.000000
    33 1.344765 1.881123 3.809589 0.859882 -1.203079 -1.477188
    34 0.000011 2.315664 -0.000084 -0.516589 0.000000 0.000000
    35 -0.000006 2.254017 0.000076 -0.450892 0.000000 0.000000
    36 0.011267 -6.809892 1.974034 -0.607824 0.000000 0.000000
    37 -0.011248 6.809885 -1.974043 -0.607868 0.000000 0.000000
  time 6
    0 -38.668231 40.849869 40.750000 -1.192638 -0.011166 0.136008
    1 0.000000 -5.257813 -1.001953 -0.196038 -0.082521 -0.099596
    2 0.000000 -7.488277 -0.000001 -0.056961 -0.018124 0.058534
    3 0.000000 -5.597980 0.000000 0.263338 -0.025635 0.016432
    4 0.000000 -6.565113 -0.000001 0.938677 -0.058997 0.041148
    5 -1.549380 -5.102886 -4.074768 2.531825 -0.547193 -1.164181
    6 -0.000053 11.987244 0.000028 -0.729718 -0.460761 2.854557
    7 20.109314 0.000000 -0.000002 1.234512 -1.392480 -2.853266
    8 19.941738 0.000001 -0.000004 -0.145658 -1.268094 -1.893501
    9 6.938272 1.999413 -1.014580 3.082431 0.316133 1.535829
    10 20.710249 -0.000001 0.000000 0.000000 0.650186 0.000000
    11 18.105982 0.000001 0.000000 -1.542733 -0.014243 1.612989
    12 -6.938270 1.999409 -1.014579 1.681345 1.212750 1.181785
    13 20.710224 0.000000 0.000000 0.000000 0.000000 0.937935
    14 18.106007 0.000000 -0.000001 -2.616267 -0.727579 -0.101926
    15 0.000000 -6.555973 0.000000 0.192802 0.235469 0.184943
    16 0.000000 -3.252140 0.000004 -0.798982 -0.142319 -0.260808
    17 1.548545 -4.925743 -4.285366 -2.876958 -0.721208 -1.265581
    18 1.190170 -10.472042 -0.306138 1.353248 -0.238019 -0.934260
    19 0.000008 0.000000 15.020973 -0.201994 -0.066154 0.008339
    20 0.000004 -0.000001 8.039619 0.000000 0.000000 0.318947
    21 2.899849 -0.471046 -4.331210 -0.333509 -0.630519 -0.915402
    22 -0.000025 2.543312 0.000026 0.217358 0.040231 -0.180100
    23 0.000059 2.315285 -0.000040 0.099114 0.018457 -0.183540
    24 1.551407 3.956631 -3.900798 2.393589 -1.367686 -3.120704
    25 0.000000 2.741436 -0.000004 -0.558500 0.000000 0.000000
    26 0.000010 2.668510 0.000050 -0.492763 0.000000 0.000000
    27 1.401100 3.639805 -1.202109 1.728683 -1.355921 -2.446708
    28 0.000003 2.810951 0.000004 -0.558500 0.000000 0.000000
    29 -0.000005 2.736202 -0.000031 -0.492763 0.000000 0.000000
    30 1.335663 3.182098 1.418086 0.723330 -1.251529 -1.415184
    31 -0.000003 2.663269 0.000046 -0.513118 0.000000 0.000000
    32 0.000001 2.592527 -0.000031 -0.447386 0.000000 0.000000
    33 1.344765 1.881123 3.809589 0.859882 -1.203079 -1.477188
    34 0.000011 2.315664 -0.000084 -0.516589 0.000000 0.000000
    35 -0.000006 2.254017 0.000076 -0.450892 0.000000 0.000000
    36 0.011267 -6.809892 1.974034 -0.607824 0.000000 0.000000
    37 -0.011248 6.809885 -1.974043 -0.607868 0.000000 0.000000
  time 7
    0 -45.054017 47.026670 39.437500 -1.089600 -0.089824 0.270830
    1 0.000000 -5.257813 -1.001953 -0.229928 -0.062517 -0.053767
    2 0.000000 -7.488277 -0.000001 -0.092308 0.008126 0.081889
    3 0.000000 -5.597980 0.000000 0.232198 0.109772 0.014538
    4 0.000000 -6.565113 -0.000001 0.870848 0.025356 0.042900
    5 -1.549380 -5.102886 -4.074768 2.319273 -0.571536 -1.128108
    6 -0.000053 11.987244 0.000028 -1.006019 -0.379940 2.871960
    7 20.109314 0.000000 -0.000002 0.199001 -1.511500 -1.809232
    8 19.941738 0.000001 -0.000004 -0.425725 -1.098346 -1.797495
    9 6.938272 1.999413 -1.014580 -3.039683 0.809763 1.510857
    10 20.710249 -0.000001 0.000000 0.000000 0.962507 0.000000
    11 18.105982 0.000001 0.000000 -1.481971 -0.061285 1.490325
    12 -6.938270 1.999409 -1.014579 2.264535 1.361531 1.845972
    13 20.710224 0.000000 0.000000 0.000000 0.000000 1.282368
    14 18.106007 0.000000 -0.000001 -2.541722 -0.839924 -0.422566
    15 0.000000 -6.555973 0.000000 0.149114 0.303646 0.211351
    16 0.000000 -3.252140 0.000004 -0.804281 -0.135205 -0.223234
    17 1.548545 -4.925743 -4.285366 -2.993064 -0.720947 -1.373351
    18 1.190170 -10.472042 -0.306138 1.353248 -0.238019 -0.934260
    19 0.000008 0.000000 15.020973 -0.201994 -0.066154 0.008339
    20 0.000004 -0.000001 8.039619 0.000000 0.000000 0.318947
    21 2.899849 -0.471046 -4.331210 -0.333509 -0.630519 -0.915402
    22 -0.000025 2.543312 0.000026 0.217358 0.040231 -0.180100
    23 0.000059 2.315285 -0.000040 0.099114 0.018457 -0.183540
    24 1.551407 3.956631 -3.900798 2.393589 -1.367686 -3.120704
    25 0.000000 2.741436 -0.000004 -0.558500 0.000000 0.000000
    26 0.000010 2.668510 0.000050 -0.492763 0.000000 0.000000
    27 1.401100 3.639805 -1.202109 1.728683 -1.355921 -2.446708
    28 0.000003 2.810951 0.000004 -0.558500 0.000000 0.000000
    29 -0.000005 2.736202 -0.000031 -0.492763 0.000000 0.000000
    30 1.335663 3.182098 1.418086 0.723330 -1.251529 -1.415184
    31 -0.000003 2.663269 0.000046 -0.513118 0.000000 0.000000
    32 0.000001 2.592527 -0.000031 -0.447386 0.000000 0.000000
    33 1.344765 1.881123 3.809589 0.859882 -1.203079 -1.477188
    34 0.000011 2.315664 -0.000084 -0.516589 0.000000 0.000000
    35 -0.000006 2.254017 0.000076 -0.450892 0.000000 0.000000
    36 0.011267 -6.809892 1.974034 -0.607824 0.000000 0.000000
    37 -0.011248 6.809885 -1.974043 -0.607868 0.000000 0.000000
  time 8
    0 -49.205428 51.140971 39.625000 -1.062758 -0.044181 0.306692
    1 0.000000 -5.257813 -1.001953 -0.273789 -0.042089 -0.090126
    2 0.000000 -7.488277 -0.000001 -0.094607 0.015572 0.056465
    3 0.000000 -5.597980 0.000000 0.211448 0.142772 0.010377
    4 0.000000 -6.565113 -0.000001 0.847448 0.057924 0.048906
    5 -1.549380 -5.102886 -4.074768 2.171988 -0.577491 -1.085056
    6 -0.000053 11.987244 0.000028 -1.219451 -0.411336 2.919323
    7 20.109314 0.000000 -0.000002 -0.850711 -1.482904 -0.755383
    8 19.941738 0.000001 -0.000004 -0.483219 -0.870294 -1.692459
    9 6.938272 1.999413 -1.014580 -3.022334 0.965850 1.374637
    10 20.710249 -0.000001 0.000000 0.000000 0.937182 0.000000
    11 18.105982 0.000001 0.000000 -1.336945 -0.041290 1.377621
    12 -6.938270 1.999409 -1.014579 2.163081 1.197045 1.850083
    13 20.710224 0.000000 0.000000 0.000000 0.000000 1.398267
    14 18.106007 0.000000 -0.000001 -2.459065 -1.036089 -0.750240
    15 0.000000 -6.555973 0.000000 0.145030 0.327292 0.250099
    16 0.000000 -3.252140 0.000004 -0.805955 -0.146838 -0.208112
    17 1.548545 -4.925743 -4.285366 -2.891226 -0.715323 -1.541929
    18 1.190170 -10.472042 -0.306138 1.353248 -0.238019 -0.934260
    19 0.000008 0.000000 15.020973 -0.201994 -0.066154 0.008339
    20 0.000004 -0.000001 8.039619 0.000000 0.000000 0.318947
    21 2.899849 -0.471046 -4.331210 -0.333509 -0.630519 -0.915402
    22 -0.000025 2.543312 0.000026 0.217358 0.040231 -0.180100
    23 0.000059 2.315285 -0.000040 0.099114 0.018457 -0.183540
    24 1.551407 3.956631 -3.900798 2.393589 -1.367686 -3.120704
    25 0.000000 2.741436 -0.000004 -0.558500 0.000000 0.000000
    26 0.000010 2.668510 0.000050 -0.492763 0.000000 0.000000
    27 1.401100 3.639805 -1.202109 1.728683 -1.355921 -2.446708
    28 0.000003 2.810951 0.000004 -0.558500 0.000000 0.000000
    29 -0.000005 2.736202 -0.000031 -0.492763 0.000000 0.000000
    30 1.335663 3.182098 1.418086 0.723330 -1.251529 -1.415184
    31 -0.000003 2.663269 0.000046 -0.513118 0.000000 0.000000
    32 0.000001 2.592527 -0.000031 -0.447386 0.000000 0.000000
    33 1.344765 1.881123 3.809589 0.859882 -1.203079 -1.477188
    34 0.000011 2.315664 -0.000084 -0.516589 0.000000 0.000000
    35 -0.000006 2.254017 0.000076 -0.450892 0.000000 0.000000
    36 0.011267 -6.809892 1.974034 -0.607824 0.000000 0.000000
    37 -0.011248 6.809885 -1.974043 -0.607868 0.000000 0.000000
  time 9
    0 -53.330960 55.229881 39.781250 -1.036042 0.001144 0.342263
    1 0.000000 -5.257813 -1.001953 -0.317271 -0.021779 -0.126294
    2 0.000000 -7.488277 -0.000001 -0.096927 0.023024 0.031151
    3 0.000000 -5.597980 0.000000 0.190505 0.161606 0.003294
    4 0.000000 -6.565113 -0.000001 0.824693 0.087230 0.058178
    5 -1.549380 -5.102886 -4.074768 2.154790 -0.540033 -1.036031
    6 -0.000053 11.987244 0.000028 -1.292979 -0.368412 2.928903
    7 20.109314 0.000000 -0.000002 -1.063205 -1.451558 -0.540839
    8 19.941738 0.000001 -0.000004 -0.481255 -0.944184 -1.786961
    9 6.938272 1.999413 -1.014580 -3.035577 1.057604 1.184860
    10 20.710249 -0.000001 0.000000 0.000000 0.773404 0.000000
    11 18.105982 0.000001 0.000000 -1.175158 0.024695 1.250761
    12 -6.938270 1.999409 -1.014579 2.084560 0.987587 1.856600
    13 20.710224 0.000000 0.000000 0.000000 0.000000 1.402417
    14 18.106007 0.000000 -0.000001 -2.047332 -1.294025 -1.139858
    15 0.000000 -6.555973 0.000000 0.142988 0.351289 0.289421
    16 0.000000 -3.252140 0.000004 -0.806055 -0.167290 -0.204495
    17 1.548545 -4.925743 -4.285366 -2.797761 -0.695936 -1.706078
    18 1.190170 -10.472042 -0.306138 1.353248 -0.238019 -0.934260
    19 0.000008 0.000000 15.020973 -0.201994 -0.066154 0.008339
    20 0.000004 -0.000001 8.039619 0.000000 0.000000 0.318947
    21 2.899849 -0.471046 -4.331210 -0.333509 -0.630519 -0.915402
    22 -0.000025 2.543312 0.000026 0.217358 0.040231 -0.180100
    23 0.000059 2.315285 -0.000040 0.099114 0.018457 -0.183540
    24 1.551407 3.956631 -3.900798 2.393589 -1.367686 -3.120704
    25 0.000000 2.741436 -0.000004 -0.558500 0.000000 0.000000
    26 0.000010 2.668510 0.000050 -0.492763 0.000000 0.000000
    27 1.401100 3.639805 -1.202109 1.728683 -1.355921 -2.446708
    28 0.000003 2.810951 0.000004 -0.558500 0.000000 0.000000
    29 -0.000005 2.736202 -0.000031 -0.492763 0.000000 0.000000
    30 1.335663 3.182098 1.418086 0.723330 -1.251529 -1.415184
    31 -0.000003 2.663269 0.000046 -0.513118 0.000000 0.000000
    32 0.000001 2.592527 -0.000031 -0.447386 0.000000 0.000000
    33 1.344765 1.881123 3.809589 0.859882 -1.203079 -1.477188
    34 0.000011 2.315664 -0.000084 -0.516589 0.000000 0.000000
    35 -0.000006 2.254017 0.000076 -0.450892 0.000000 0.000000
    36 0.011267 -6.809892 1.974034 -0.607824 0.000000 0.000000
    37 -0.011248 6.809885 -1.974043 -0.607868 0.000000 0.000000
  time 10
    0 -60.986766 62.207464 41.625000 -0.943003 0.082868 0.330424
    1 0.000000 -5.257813 -1.001953 -0.409963 -0.024063 -0.233343
    2 0.000000 -7.488277 -0.000001 -0.093845 0.038241 -0.005463
    3 0.000000 -5.597980 0.000000 0.114367 0.211441 -0.010844
    4 0.000000 -6.565113 -0.000001 0.762003 0.114314 0.072433
    5 -1.549380 -5.102886 -4.074768 2.208346 -0.483677 -0.984533
    6 -0.000053 11.987244 0.000028 -1.385879 -0.355140 2.940536
    7 20.109314 0.000000 -0.000002 -0.993460 -1.464584 -0.611441
    8 19.941738 0.000001 -0.000004 -0.423040 -1.070396 -1.825615
    9 6.938272 1.999413 -1.014580 2.970228 0.980652 0.744390
    10 20.710249 -0.000001 0.000000 0.000000 0.270539 0.000000
    11 18.105982 0.000001 0.000000 -1.238030 0.248576 1.163997
    12 -6.938270 1.999409 -1.014579 1.895136 0.930944 1.671618
    13 20.710224 0.000000 0.000000 0.000000 0.000000 1.190977
    14 18.106007 0.000000 -0.000001 -1.305562 -1.390080 -1.600781
    15 0.000000 -6.555973 0.000000 0.152370 0.413149 0.400270
    16 0.000000 -3.252140 0.000004 -0.808026 -0.237306 -0.210671
    17 1.548545 -4.925743 -4.285366 -2.687983 -0.676976 -1.800426
    18 1.190170 -10.472042 -0.306138 1.353248 -0.238019 -0.934260
    19 0.000008 0.000000 15.020973 -0.201994 -0.066154 0.008339
    20 0.000004 -0.000001 8.039619 0.000000 0.000000 0.318947
    21 2.899849 -0.471046 -4.331210 -0.333509 -0.630519 -0.915402
    22 -0.000025 2.543312 0.000026 0.217358 0.040231 -0.180100
    23 0.000059 2.315285 -0.000040 0.099114 0.018457 -0.183540
    24 1.551407 3.956631 -3.900798 2.393589 -1.367686 -3.120704
    25 0.000000 2.741436 -0.000004 -0.558500 0.000000 0.000000
    26 0.000010 2.668510 0.000050 -0.492763 0.000000 0.000000
    27 1.401100 3.639805 -1.202109 1.728683 -1.355921 -2.446708
    28 0.000003 2.810951 0.000004 -0.558500 0.000000 0.000000
    29 -0.000005 2.736202 -0.000031 -0.492763 0.000000 0.000000
    30 1.335663 3.182098 1.418086 0.723330 -1.251529 -1.415184
    31 -0.000003 2.663269 0.000046 -0.513118 0.000000 0.000000
    32 0.000001 2.592527 -0.000031 -0.447386 0.000000 0.000000
    33 1.344765 1.881123 3.809589 0.859882 -1.203079 -1.477188
    34 0.000011 2.315664 -0.000084 -0.516589 0.000000 0.000000
    35 -0.000006 2.254017 0.000076 -0.450892 0.000000 0.000000
    36 0.011267 -6.809892 1.974034 -0.811330 0.001712 0.016669
    37 -0.011248 6.809885 -1.974043 -0.607868 0.000000 0.000000
  time 11
    0 -68.862786 68.819812 42.437500 -1.017142 0.021226 0.250009
    1 0.000000 -5.257813 -1.001953 -0.374231 -0.013347 -0.161656
    2 0.000000 -7.488277 -0.000001 -0.042226 0.048163 -0.026666
    3 0.000000 -5.597980 0.000000 0.108865 0.222002 -0.012825
    4 0.000000 -6.565113 -0.000001 0.769512 0.106302 0.060617
    5 -1.549380 -5.102886 -4.074768 2.268325 -0.453175 -0.968702
    6 -0.000053 11.987244 0.000028 -1.352692 -0.399629 2.917528
    7 20.109314 0.000000 -0.000002 -0.161625 -1.511975 -1.447470
    8 19.941738 0.000001 -0.000004 -0.523214 -1.132667 -1.658394
    9 6.938272 1.999413 -1.014580 2.969470 0.919248 0.730892
    10 20.710249 -0.000001 0.000000 0.000000 0.284836 0.000000
    11 18.105982 0.000001 0.000000 -1.327065 0.178486 1.031140
    12 -6.938270 1.999409 -1.014579 1.776652 0.746564 1.723703
    13 20.710224 0.000000 0.000000 0.000000 0.000000 1.120007
    14 18.106007 0.000000 -0.000001 -0.209930 -1.388510 -2.500831
    15 0.000000 -6.555973 0.000000 0.117510 0.437002 0.417002
    16 0.000000 -3.252140 0.000004 -0.832413 -0.261068 -0.224083
    17 1.548545 -4.925743 -4.285366 -2.625669 -0.663991 -1.853682
    18 1.190170 -10.472042 -0.306138 1.353248 -0.238019 -0.934260
    19 0.000008 0.000000 15.020973 -0.201994 -0.066154 0.008339
    20 0.000004 -0.000001 8.039619 0.000000 0.000000 0.318947
    21 2.899849 -0.471046 -4.331210 -0.333509 -0.630519 -0.915402
    22 -0.000025 2.543312 0.000026 0.217358 0.040231 -0.180100
    23 0.000059 2.315285 -0.000040 0.099114 0.018457 -0.183540
    24 1.551407 3.956631 -3.900798 2.393589 -1.367686 -3.120704
    25 0.000000 2.741436 -0.000004 -0.558500 0.000000 0.000000
    26 0.000010 2.668510 0.000050 -0.492763 0.000000 0.000000
    27 1.401100 3.639805 -1.202109 1.728683 -1.355921 -2.446708
    28 0.000003 2.810951 0.000004 -0.558500 0.000000 0.000000
    29 -0.000005 2.736202 -0.000031 -0.492763 0.000000 0.000000
    30 1.335663 3.182098 1.418086 0.723330 -1.251529 -1.415184
    31 -0.000003 2.663269 0.000046 -0.513118 0.000000 0.000000
    32 0.000001 2.592527 -0.000031 -0.447386 0.000000 0.000000
    33 1.344765 1.881123 3.809589 0.859882 -1.203079 -1.477188
    34 0.000011 2.315664 -0.000084 -0.516589 0.000000 0.000000
    35 -0.000006 2.254017 0.000076 -0.450892 0.000000 0.000000
    36 0.011267 -6.809892 1.974034 -0.607824 0.000000 0.000000
    37 -0.011248 6.809885 -1.974043 -0.607868 0.000000 0.000000
  time 12
    0 -76.520056 76.160675 41.906250 -1.136939 -0.061015 0.170332
    1 0.000000 -5.257813 -1.001953 -0.315843 -0.023780 -0.077823
    2 0.000000 -7.488277 -0.000001 -0.009640 0.040004 -0.021072
    3 0.000000 -5.597980 0.000000 0.154817 0.192349 0.004633
    4 0.000000 -6.565113 -0.000001 0.809642 0.094793 0.058588
    5 -1.549380 -5.102886 -4.074768 2.313800 -0.484235 -1.058948
    6 -0.000053 11.987244 0.000028 -1.297413 -0.557436 2.885735
    7 20.109314 0.000000 -0.000002 1.118254 -1.436818 -2.734439
    8 19.941738 0.000001 -0.000004 -0.534172 -1.077505 -1.423328
    9 6.938272 1.999413 -1.014580 3.016098 0.993449 0.831908
    10 20.710249 -0.000001 0.000000 0.000000 0.764911 0.000000
    11 18.105982 0.000001 0.000000 -1.431112 0.106289 0.964214
    12 -6.938270 1.999409 -1.014579 1.685653 0.570313 1.843900
    13 20.710224 0.000000 0.000000 0.000000 0.000000 1.167770
    14 18.106007 0.000000 -0.000001 0.582286 -1.281718 3.125244
    15 0.000000 -6.555973 0.000000 0.066966 0.353893 0.371367
    16 0.000000 -3.252140 0.000004 -0.838362 -0.213235 -0.196789
    17 1.548545 -4.925743 -4.285366 -2.671468 -0.648235 -1.925196
    18 1.190170 -10.472042 -0.306138 1.353248 -0.238019 -0.934260
    19 0.000008 0.000000 15.020973 -0.201994 -0.066154 0.008339
    20 0.000004 -0.000001 8.039619 0.000000 0.000000 0.318947
    21 2.899849 -0.471046 -4.331210 -0.333509 -0.630519 -0.915402
    22 -0.000025 2.543312 0.000026 0.217358 0.040231 -0.180100
    23 0.000059 2.315285 -0.000040 0.099114 0.018457 -0.183540
    24 1.551407 3.956631 -3.900798 2.393589 -1.367686 -3.120704
    25 0.000000 2.741436 -0.000004 -0.558500 0.000000 0.000000
    26 0.000010 2.668510 0.000050 -0.492763 0.000000 0.000000
    27 1.401100 3.639805 -1.202109 1.728683 -1.355921 -2.446708
    28 0.000003 2.810951 0.000004 -0.558500 0.000000 0.000000
    29 -0.000005 2.736202 -0.000031 -0.492763 0.000000 0.000000
    30 1.335663 3.182098 1.418086 0.723330 -1.251529 -1.415184
    31 -0.000003 2.663269 0.000046 -0.513118 0.000000 0.000000
    32 0.000001 2.592527 -0.000031 -0.447386 0.000000 0.000000
    33 1.344765 1.881123 3.809589 0.859882 -1.203079 -1.477188
    34 0.000011 2.315664 -0.000084 -0.516589 0.000000 0.000000
    35 -0.000006 2.254017 0.000076 -0.450892 0.000000 0.000000
    36 0.011267 -6.809892 1.974034 -0.607824 0.000000 0.000000
    37 -0.011248 6.809885 -1.974043 -0.607868 0.000000 0.000000
  time 13
    0 -80.009358 79.935133 41.250000 -1.140188 -0.070907 0.130931
    1 0.000000 -5.257813 -1.001953 -0.296094 -0.043617 -0.077093
    2 0.000000 -7.488277 -0.000001 -0.026810 0.028129 -0.000865
    3 0.000000 -5.597980 0.000000 0.140191 0.157630 0.009985
    4 0.000000 -6.565113 -0.000001 0.784741 0.073439 0.060542
    5 -1.549380 -5.102886 -4.074768 2.381348 -0.560937 -1.153176
    6 -0.000053 11.987244 0.000028 -1.267477 -0.637251 2.798435
    7 20.109314 0.000000 -0.000002 1.325658 -1.326426 -2.948124
    8 19.941738 0.000001 -0.000004 -0.443307 -0.996687 -1.291160
    9 6.938272 1.999413 -1.014580 2.997720 1.065372 0.872123
    10 20.710249 -0.000001 0.000000 0.000000 1.077353 0.000000
    11 18.105982 0.000001 0.000000 -1.494475 -0.046746 1.038023
    12 -6.938270 1.999409 -1.014579 1.675211 0.228120 1.995168
    13 20.710224 0.000000 0.000000 0.000000 0.000000 0.817762
    14 18.106007 0.000000 -0.000001 1.195234 -1.062660 2.779670
    15 0.000000 -6.555973 0.000000 0.056777 0.314833 0.378971
    16 0.000000 -3.252140 0.000004 -0.851022 -0.159209 -0.140954
    17 1.548545 -4.925743 -4.285366 -2.715812 -0.656951 -1.890648
    18 1.190170 -10.472042 -0.306138 1.353248 -0.238019 -0.934260
    19 0.000008 0.000000 15.020973 -0.201994 -0.066154 0.008339
    20 0.000004 -0.000001 8.039619 0.000000 0.000000 0.318947
    21 2.899849 -0.471046 -4.331210 -0.333509 -0.630519 -0.915402
    22 -0.000025 2.543312 0.000026 0.217358 0.040231 -0.180100
    23 0.000059 2.315285 -0.000040 0.099114 0.018457 -0.183540
    24 1.551407 3.956631 -3.900798 2.393589 -1.367686 -3.120704
    25 0.000000 2.741436 -0.000004 -0.558500 0.000000 0.000000
    26 0.000010 2.668510 0.000050 -0.492763 0.000000 0.000000
    27 1.401100 3.639805 -1.202109 1.728683 -1.355921 -2.446708
    28 0.000003 2.810951 0.000004 -0.558500 0.000000 0.000000
    29 -0.000005 2.736202 -0.000031 -0.492763 0.000000 0.000000
    30 1.335663 3.182098 1.418086 0.723330 -1.251529 -1.415184
    31 -0.000003 2.663269 0.000046 -0.513118 0.000000 0.000000
    32 0.000001 2.592527 -0.000031 -0.447386 0.000000 0.000000
    33 1.344765 1.881123 3.809589 0.859882 -1.203079 -1.477188
    34 0.000011 2.315664 -0.000084 -0.516589 0.000000 0.000000
    35 -0.000006 2.254017 0.000076 -0.450892 0.000000 0.000000
    36 0.011267 -6.809892 1.974034 -0.607824 0.000000 0.000000
    37 -0.011248 6.809885 -1.974043 -0.607868 0.000000 0.000000
  time 14
    0 -83.516237 83.733027 39.218750 -1.143179 -0.080593 0.091256
    1 0.000000 -5.257813 -1.001953 -0.276335 -0.063578 -0.076633
    2 0.000000 -7.488277 -0.000001 -0.044225 0.016176 0.019179
    3 0.000000 -5.597980 0.000000 0.125304 0.110504 0.012697
    4 0.000000 -6.565113 -0.000001 0.759365 0.048199 0.066568
    5 -1.549380 -5.102886 -4.074768 2.431742 -0.738133 -0.980752
    6 -0.000053 11.987244 0.000028 -1.162300 -0.364345 2.788434
    7 20.109314 0.000000 -0.000002 1.419650 -1.167607 -3.051157
    8 19.941738 0.000001 -0.000004 -0.094860 -1.174405 -1.672163
    9 6.938272 1.999413 -1.014580 2.947827 1.146029 0.842405
    10 20.710249 -0.000001 0.000000 0.000000 1.417966 0.000000
    11 18.105982 0.000001 0.000000 -1.222215 -0.216065 1.103064
    12 -6.938270 1.999409 -1.014579 1.682220 0.166794 2.029947
    13 20.710224 0.000000 0.000000 0.000000 0.000000 0.584710
    14 18.106007 0.000000 -0.000001 0.346713 -1.096822 3.039569
    15 0.000000 -6.555973 0.000000 0.045809 0.275981 0.386983
    16 0.000000 -3.252140 0.000004 -0.859465 -0.107922 -0.090697
    17 1.548545 -4.925743 -4.285366 -2.761146 -0.665572 -1.855208
    18 1.190170 -10.472042 -0.306138 1.353248 -0.238019 -0.934260
    19 0.000008 0.000000 15.020973 -0.201994 -0.066154 0.008339
    20 0.000004 -0.000001 8.039619 0.000000 0.000000 0.318947
    21 2.899849 -0.471046 -4.331210 -0.333509 -0.630519 -0.915402
    22 -0.000025 2.543312 0.000026 0.217358 0.040231 -0.180100
    23 0.000059 2.315285 -0.000040 0.099114 0.018457 -0.183540
    24 1.551407 3.956631 -3.900798 2.393589 -1.367686 -3.120704
    25 0.000000 2.741436 -0.000004 -0.558500 0.000000 0.000000
    26 0.000010 2.668510 0.000050 -0.492763 0.000000 0.000000
    27 1.401100 3.639805 -1.202109 1.728683 -1.355921 -2.446708
    28 0.000003 2.810951 0.000004 -0.558500 0.000000 0.000000
    29 -0.000005 2.736202 -0.000031 -0.492763 0.000000 0.000000
    30 1.335663 3.182098 1.418086 0.723330 -1.251529 -1.415184
    31 -0.000003 2.663269 0.000046 -0.513118 0.000000 0.000000
    32 0.000001 2.592527 -0.000031 -0.447386 0.000000 0.000000
    33 1.344765 1.881123 3.809589 0.859882 -1.203079 -1.477188
    34 0.000011 2.315664 -0.000084 -0.516589 0.000000 0.000000
    35 -0.000006 2.254017 0.000076 -0.450892 0.000000 0.000000
    36 0.011267 -6.809892 1.974034 -0.607824 0.000000 0.000000
    37 -0.011248 6.809885 -1.974043 -0.607868 0.000000 0.000000
  time 15
    0 -89.192062 90.536782 39.250000 -1.070766 -0.007569 -0.018682
    1 0.000000 -5.257813 -1.001953 -0.228480 -0.092975 -0.136938
    2 0.000000 -7.488277 -0.000001 -0.111195 -0.007440 0.027801
    3 0.000000 -5.597980 0.000000 0.056227 0.001767 0.006644
    4 0.000000 -6.565113 -0.000001 0.636918 0.003679 0.067420
    5 -1.549380 -5.102886 -4.074768 2.691857 -0.795026 -0.925509
    6 -0.000053 11.987244 0.000028 -1.004660 -0.360720 2.852564
    7 20.109314 0.000000 -0.000002 1.431568 -1.130054 -3.065187
    8 19.941738 0.000001 -0.000004 0.206743 -1.061784 -1.951468
    9 6.938272 1.999413 -1.014580 2.628332 1.091722 0.798364
    10 20.710249 -0.000001 0.000000 3.141593 1.404858 3.141593
    11 18.105982 0.000001 0.000000 -1.179755 -0.363446 1.608076
    12 -6.938270 1.999409 -1.014579 1.572086 0.644034 1.860097
    13 20.710224 0.000000 0.000000 0.000000 0.000000 0.883024
    14 18.106007 0.000000 -0.000001 -0.197788 -1.253555 -2.916733
    15 0.000000 -6.555973 0.000000 0.025859 0.251697 0.428165
    16 0.000000 -3.252140 0.000004 -0.866179 -0.070758 -0.078202
    17 1.548545 -4.925743 -4.285366 -2.771451 -0.695616 -1.683875
    18 1.190170 -10.472042 -0.306138 1.353248 -0.238019 -0.934260
    19 0.000008 0.000000 15.020973 -0.201994 -0.066154 0.008339
    20 0.000004 -0.000001 8.039619 0.000000 0.000000 0.318947
    21 2.899849 -0.471046 -4.331210 -0.333509 -0.630519 -0.915402
    22 -0.000025 2.543312 0.000026 0.217358 0.040231 -0.180100
    23 0.000059 2.315285 -0.000040 0.099114 0.018457 -0.183540
    24 1.551407 3.956631 -3.900798 2.393589 -1.367686 -3.120704
    25 0.000000 2.741436 -0.000004 -0.558500 0.000000 0.000000
    26 0.000010 2.668510 0.000050 -0.492763 0.000000 0.000000
    27 1.401100 3.639805 -1.202109 1.728683 -1.355921 -2.446708
    28 0.000003 2.810951 0.000004 -0.558500 0.000000 0.000000
    29 -0.000005 2.736202 -0.000031 -0.492763 0.000000 0.000000
    30 1.335663 3.182098 1.418086 0.723330 -1.251529 -1.415184
    31 -0.000003 2.663269 0.000046 -0.513118 0.000000 0.000000
    32 0.000001 2.592527 -0.000031 -0.447386 0.000000 0.000000
    33 1.344765 1.881123 3.809589 0.859882 -1.203079 -1.477188
    34 0.000011 2.315664 -0.000084 -0.516589 0.000000 0.000000
    35 -0.000006 2.254017 0.000076 -0.450892 0.000000 0.000000
    36 0.011267 -6.809892 1.974034 -0.607824 0.000000 0.000000
    37 -0.011248 6.809885 -1.974043 -0.607868 0.000000 0.000000
  time 16
    0 -96.733122 98.571005 38.843750 -1.001028 -0.026148 -0.099329
    1 0.000000 -5.257813 -1.001953 -0.314958 -0.150119 -0.046903
    2 0.000000 -7.488277 -0.000001 -0.105149 -0.030662 0.022519
    3 0.000000 -5.597980 0.000000 0.057538 -0.110941 0.002063
    4 0.000000 -6.565113 -0.000001 0.628080 -0.056407 0.063741
    5 -1.549380 -5.102886 -4.074768 2.904684 -0.709023 -1.062169
    6 -0.000053 11.987244 0.000028 -0.815023 -0.491555 2.584322
    7 20.109314 0.000000 -0.000002 1.473922 -0.904722 -3.120540
    8 19.941738 0.000001 -0.000004 0.009634 -0.941347 -1.837991
    9 6.938272 1.999413 -1.014580 2.515221 1.019918 0.916437
    10 20.710249 -0.000001 0.000000 -3.141593 1.357912 -3.141593
    11 18.105982 0.000001 0.000000 -0.853950 -0.311684 1.756117
    12 -6.938270 1.999409 -1.014579 1.330394 1.132561 1.496970
    13 20.710224 0.000000 0.000000 0.000000 0.000000 1.186556
    14 18.106007 0.000000 -0.000001 -0.925541 -1.366136 -2.085928
    15 0.000000 -6.555973 0.000000 0.012042 0.260547 0.295900
    16 0.000000 -3.252140 0.000004 -0.861441 -0.065762 -0.136216
    17 1.548545 -4.925743 -4.285366 -2.507504 -0.642851 -1.903004
    18 1.190170 -10.472042 -0.306138 1.353248 -0.238019 -0.934260
    19 0.000008 0.000000 15.020973 -0.201994 -0.066154 0.008339
    20 0.000004 -0.000001 8.039619 0.000000 0.000000 0.318947
    21 2.899849 -0.471046 -4.331210 -0.333509 -0.630519 -0.915402
    22 -0.000025 2.543312 0.000026 0.217358 0.040231 -0.180100
    23 0.000059 2.315285 -0.000040 0.099114 0.018457 -0.183540
    24 1.551407 3.956631 -3.900798 2.393589 -1.367686 -3.120704
    25 0.000000 2.741436 -0.000004 -0.558500 0.000000 0.000000
    26 0.000010 2.668510 0.000050 -0.492763 0.000000 0.000000
    27 1.401100 3.639805 -1.202109 1.728683 -1.355921 -2.446708
    28 0.000003 2.810951 0.000004 -0.558500 0.000000 0.000000
    29 -0.000005 2.736202 -0.000031 -0.492763 0.000000 0.000000
    30 1.335663 3.182098 1.418086 0.723330 -1.251529 -1.415184
    31 -0.000003 2.663269 0.000046 -0.513118 0.000000 0.000000
    32 0.000001 2.592527 -0.000031 -0.447386 0.000000 0.000000
    33 1.344765 1.881123 3.809589 0.859882 -1.203079 -1.477188
    34 0.000011 2.315664 -0.000084 -0.516589 0.000000 0.000000
    35 -0.000006 2.254017 0.000076 -0.450892 0.000000 0.000000
    36 0.011267 -6.809892 1.974034 -0.607824 0.000000 0.000000
    37 -0.011248 6.809885 -1.974043 -0.607868 0.000000 0.000000
  time 17
    0 -104.294689 106.630618 38.437500 -0.931304 -0.044584 -0.179862
    1 0.000000 -5.257813 -1.001953 -0.401003 -0.207199 0.043131
    2 0.000000 -7.488277 -0.000001 -0.098997 -0.053965 0.017346
    3 0.000000 -5.597980 0.000000 0.061142 -0.214345 -0.001053
    4 0.000000 -6.565113 -0.000001 0.621502 -0.119154 0.062541
    5 -1.549380 -5.102886 -4.074768 2.780651 -0.658725 -0.940265
    6 -0.000053 11.987244 0.000028 -0.745746 -0.580261 2.579055
    7 20.109314 0.000000 -0.000002 1.480036 -0.848031 -3.130037
    8 19.941738 0.000001 -0.000004 -0.235640 -0.823560 -1.460062
    9 6.938272 1.999413 -1.014580 2.474322 1.001643 1.203754
    10 20.710249 -0.000001 0.000000 3.141593 1.364120 3.141593
    11 18.105982 0.000001 0.000000 -1.062269 -0.133081 1.931170
    12 -6.938270 1.999409 -1.014579 0.654370 1.274006 0.667549
    13 20.710224 0.000000 0.000000 0.000000 0.000000 1.049454
    14 18.106007 0.000000 -0.000001 -1.880613 -1.281781 -0.810385
    15 0.000000 -6.555973 0.000000 -0.004000 0.269853 0.162742
    16 0.000000 -3.252140 0.000004 -0.855739 -0.091583 -0.231643
    17 1.548545 -4.925743 -4.285366 -2.272119 -0.571291 -2.103052
    18 1.190170 -10.472042 -0.306138 1.353248 -0.238019 -0.934260
    19 0.000008 0.000000 15.020973 -0.201994 -0.066154 0.008339
    20 0.000004 -0.000001 8.039619 0.000000 0.000000 0.318947
    21 2.899849 -0.471046 -4.331210 -0.333509 -0.630519 -0.915402
    22 -0.000025 2.543312 0.000026 0.217358 0.040231 -0.180100
    23 0.000059 2.315285 -0.000040 0.099114 0.018457 -0.183540
    24 1.551407 3.956631 -3.900798 2.393589 -1.367686 -3.120704
    25 0.000000 2.741436 -0.000004 -0.558500 0.000000 0.000000
    26 0.000010 2.668510 0.000050 -0.492763 0.000000 0.000000
    27 1.401100 3.639805 -1.202109 1.728683 -1.355921 -2.446708
    28 0.000003 2.810951 0.000004 -0.558500 0.000000 0.000000
    29 -0.000005 2.736202 -0.000031 -0.492763 0.000000 0.000000
    30 1.335663 3.182098 1.418086 0.723330 -1.251529 -1.415184
    31 -0.000003 2.663269 0.000046 -0.513118 0.000000 0.000000
    32 0.000001 2.592527 -0.000031 -0.447386 0.000000 0.000000
    33 1.344765 1.881123 3.809589 0.859882 -1.203079 -1.477188
    34 0.000011 2.315664 -0.000084 -0.516589 0.000000 0.000000
    35 -0.000006 2.254017 0.000076 -0.450892 0.000000 0.000000
    36 0.011267 -6.809892 1.974034 -0.607824 0.000000 0.000000
    37 -0.011248 6.809885 -1.974043 -0.607868 0.000000 0.000000
  time 18
    0 -111.186334 114.276169 40.406250 -0.965506 -0.020379 -0.172930
    1 0.000000 -5.257813 -1.001953 -0.399149 -0.207785 0.028027
    2 0.000000 -7.488277 -0.000001 -0.082972 -0.070105 0.036532
    3 0.000000 -5.597980 0.000000 0.095233 -0.286504 0.003540
    4 0.000000 -6.565113 -0.000001 0.738871 -0.174430 0.035844
    5 -1.549380 -5.102886 -4.074768 2.657753 -0.618287 -0.851614
    6 -0.000053 11.987244 0.000028 -0.562439 -0.317430 2.800439
    7 20.109314 0.000000 -0.000002 1.459940 -1.002274 -3.100911
    8 19.941738 0.000001 -0.000004 0.239235 -0.944882 -2.120214
    9 6.938272 1.999413 -1.014580 2.616716 0.823146 1.432735
    10 20.710249 -0.000001 0.000000 0.000000 1.517931 0.000000
    11 18.105982 0.000001 0.000000 -1.084816 -0.046948 1.776839
    12 -6.938270 1.999409 -1.014579 1.088793 0.896683 0.922871
    13 20.710224 0.000000 0.000000 0.000000 0.000000 0.000000
    14 18.106007 0.000000 -0.000001 -2.609760 -1.086271 0.189785
    15 0.000000 -6.555973 0.000000 0.034792 0.201546 0.088951
    16 0.000000 -3.252140 0.000004 -0.832202 -0.129798 -0.295189
    17 1.548545 -4.925743 -4.285366 -2.213691 -0.580817 -2.031456
    18 1.190170 -10.472042 -0.306138 1.353248 -0.238019 -0.934260
    19 0.000008 0.000000 15.020973 -0.201994 -0.066154 0.008339
    20 0.000004 -0.000001 8.039619 0.000000 0.000000 0.318947
    21 2.899849 -0.471046 -4.331210 -0.333509 -0.630519 -0.915402
    22 -0.000025 2.543312 0.000026 0.217358 0.040231 -0.180100
    23 0.000059 2.315285 -0.000040 0.099114 0.018457 -0.183540
    24 1.551407 3.956631 -3.900798 2.393589 -1.367686 -3.120704
    25 0.000000 2.741436 -0.000004 -0.558500 0.000000 0.000000
    26 0.000010 2.668510 0.000050 -0.492763 0.000000 0.000000
    27 1.401100 3.639805 -1.202109 1.728683 -1.355921 -2.446708
    28 0.000003 2.810951 0.000004 -0.558500 0.000000 0.000000
    29 -0.000005 2.736202 -0.000031 -0.492763 0.000000 0.000000
    30 1.335663 3.182098 1.418086 0.723330 -1.251529 -1.415184
    31 -0.000003 2.663269 0.000046 -0.513118 0.000000 0.000000
    32 0.000001 2.592527 -0.000031 -0.447386 0.000000 0.000000
    33 1.344765 1.881123 3.809589 0.859882 -1.203079 -1.477188
    34 0.000011 2.315664 -0.000084 -0.516589 0.000000 0.000000
    35 -0.000006 2.254017 0.000076 -0.450892 0.000000 0.000000
    36 0.011267 -6.809892 1.974034 -0.607824 0.000000 0.000000
    37 -0.011248 6.809885 -1.974043 -0.607868 0.000000 0.000000
  time 19
    0 -114.615089 117.902189 41.062500 -1.048476 -0.010377 -0.120938
    1 0.000000 -5.257813 -1.001953 -0.336384 -0.192259 -0.003203
    2 0.000000 -7.488277 -0.000001 -0.060401 -0.064777 0.035439
    3 0.000000 -5.597980 0.000000 0.154062 -0.281268 -0.001203
    4 0.000000 -6.565113 -0.000001 0.787500 -0.176034 0.028865
    5 -1.549380 -5.102886 -4.074768 2.665852 -0.588248 -0.935595
    6 -0.000053 11.987244 0.000028 -0.434277 -0.313488 2.851822
    7 20.109314 0.000000 -0.000002 1.455977 -1.025170 -3.095522
    8 19.941738 0.000001 -0.000004 0.539482 -0.915929 -2.467195
    9 6.938272 1.999413 -1.014580 2.814762 0.458373 1.739624
    10 20.710249 -0.000001 0.000000 0.000000 1.082975 0.000000
    11 18.105982 0.000001 0.000000 -1.089139 0.017838 1.837385
    12 -6.938270 1.999409 -1.014579 1.249136 0.870619 0.862585
    13 20.710224 0.000000 0.000000 0.000000 0.000000 0.000000
    14 18.106007 0.000000 -0.000001 -2.818133 -0.984608 0.410337
    15 0.000000 -6.555973 0.000000 0.067576 0.186932 0.094200
    16 0.000000 -3.252140 0.000004 -0.818441 -0.143373 -0.306623
    17 1.548545 -4.925743 -4.285366 -2.245635 -0.618819 -1.927543
    18 1.190170 -10.472042 -0.306138 1.353248 -0.238019 -0.934260
    19 0.000008 0.000000 15.020973 -0.201994 -0.066154 0.008339
    20 0.000004 -0.000001 8.039619 0.000000 0.000000 0.318947
    21 2.899849 -0.471046 -4.331210 -0.333509 -0.630519 -0.915402
    22 -0.000025 2.543312 0.000026 0.217358 0.040231 -0.180100
    23 0.000059 2.315285 -0.000040 0.099114 0.018457 -0.183540
    24 1.551407 3.956631 -3.900798 2.393589 -1.367686 -3.120704
    25 0.000000 2.741436 -0.000004 -0.558500 0.000000 0.000000
    26 0.000010 2.668510 0.000050 -0.492763 0.000000 0.000000
    27 1.401100 3.639805 -1.202109 1.728683 -1.355921 -2.446708
    28 0.000003 2.810951 0.000004 -0.558500 0.000000 0.000000
    29 -0.000005 2.736202 -0.000031 -0.492763 0.000000 0.000000
    30 1.335663 3.182098 1.418086 0.723330 -1.251529 -1.415184
    31 -0.000003 2.663269 0.000046 -0.513118 0.000000 0.000000
    32 0.000001 2.592527 -0.000031 -0.447386 0.000000 0.000000
    33 1.344765 1.881123 3.809589 0.859882 -1.203079 -1.477188
    34 0.000011 2.315664 -0.000084 -0.516589 0.000000 0.000000
    35 -0.000006 2.254017 0.000076 -0.450892 0.000000 0.000000
    36 0.011267 -6.809892 1.974034 -0.607824 0.000000 0.000000
    37 -0.011248 6.809885 -1.974043 -0.607868 0.000000 0.000000
  time 20
    0 -118.064351 121.551646 41.687500 -1.131828 -0.000273 -0.068620
    1 0.000000 -5.257813 -1.001953 -0.273214 -0.176645 -0.034665
    2 0.000000 -7.488277 -0.000001 -0.037787 -0.059377 0.034348
    3 0.000000 -5.597980 0.000000 0.210837 -0.236515 0.002670
    4 0.000000 -6.565113 -0.000001 0.836392 -0.171169 0.015319
    5 -1.549380 -5.102886 -4.074768 2.705291 -0.558882 -1.070271
    6 -0.000053 11.987244 0.000028 -0.341644 -0.477510 2.795004
    7 20.109314 0.000000 -0.000002 1.443763 -1.083932 -3.079984
    8 19.941738 0.000001 -0.000004 0.705798 -0.965940 -2.393102
    9 6.938272 1.999413 -1.014580 2.887635 -0.198408 1.973028
    10 20.710249 -0.000001 0.000000 0.000000 0.000000 0.000000
    11 18.105982 0.000001 0.000000 -0.722142 -0.074058 1.885654
    12 -6.938270 1.999409 -1.014579 1.381421 1.100252 0.921724
    13 20.710224 0.000000 0.000000 0.000000 0.000000 0.621656
    14 18.106007 0.000000 -0.000001 -2.892856 -1.020345 0.115829
    15 0.000000 -6.555973 0.000000 0.100317 0.172065 0.099471
    16 0.000000 -3.252140 0.000004 -0.806930 -0.143624 -0.301305
    17 1.548545 -4.925743 -4.285366 -2.287097 -0.653901 -1.818427
    18 1.190170 -10.472042 -0.306138 1.353248 -0.238019 -0.934260
    19 0.000008 0.000000 15.020973 -0.201994 -0.066154 0.008339
    20 0.000004 -0.000001 8.039619 0.000000 0.000000 0.318947
    21 2.899849 -0.471046 -4.331210 -0.333509 -0.630519 -0.915402
    22 -0.000025 2.543312 0.000026 0.217358 0.040231 -0.180100
    23 0.000059 2.315285 -0.000040 0.099114 0.018457 -0.183540
    24 1.551407 3.956631 -3.900798 2.393589 -1.367686 -3.120704
    25 0.000000 2.741436 -0.000004 -0.558500 0.000000 0.000000
    26 0.000010 2.668510 0.000050 -0.492763 0.000000 0.000000
    27 1.401100 3.639805 -1.202109 1.728683 -1.355921 -2.446708
    28 0.000003 2.810951 0.000004 -0.558500 0.000000 0.000000
    29 -0.000005 2.736202 -0.000031 -0.492763 0.000000 0.000000
    30 1.335663 3.182098 1.418086 0.723330 -1.251529 -1.415184
    31 -0.000003 2.663269 0.000046 -0.513118 0.000000 0.000000
    32 0.000001 2.592527 -0.000031 -0.447386 0.000000 0.000000
    33 1.344765 1.881123 3.809589 0.859882 -1.203079 -1.477188
    34 0.000011 2.315664 -0.000084 -0.516589 0.000000 0.000000
    35 -0.000006 2.254017 0.000076 -0.450892 0.000000 0.000000
    36 0.011267 -6.809892 1.974034 -0.607824 0.000000 0.000000
    37 -0.011248 6.809885 -1.974043 -0.607868 0.000000 0.000000
  time 21
    0 -124.970645 128.501885 41.500000 -1.233110 0.040261 0.026800
    1 0.000000 -5.257813 -1.001953 -0.201640 -0.150313 -0.106155
    2 0.000000 -7.488277 -0.000001 -0.011376 -0.041768 0.030153
    3 0.000000 -5.597980 0.000000 0.279788 -0.172643 0.008543
    4 0.000000 -6.565113 -0.000001 0.911696 -0.128954 0.026337
    5 -1.549380 -5.102886 -4.074768 2.684775 -0.538210 -1.159289
    6 -0.000053 11.987244 0.000028 -0.408350 -0.488339 2.754682
    7 20.109314 0.000000 -0.000002 1.433993 -1.121812 -3.068046
    8 19.941738 0.000001 -0.000004 0.769346 -1.136996 -2.426977
    9 6.938272 1.999413 -1.014580 2.922913 -0.196034 1.756247
    10 20.710249 -0.000001 0.000000 0.000000 0.000000 0.000000
    11 18.105982 0.000001 0.000000 -1.288652 -0.085315 1.774981
    12 -6.938270 1.999409 -1.014579 1.602921 1.099639 1.088995
    13 20.710224 0.000000 0.000000 0.000000 0.000000 0.792289
    14 18.106007 0.000000 -0.000001 -2.631242 -0.865312 -0.007429
    15 0.000000 -6.555973 0.000000 0.162308 0.194600 0.127666
    16 0.000000 -3.252140 0.000004 -0.793418 -0.144424 -0.299060
    17 1.548545 -4.925743 -4.285366 -2.407357 -0.711583 -1.645389
    18 1.190170 -10.472042 -0.306138 1.353248 -0.238019 -0.934260
    19 0.000008 0.000000 15.020973 -0.201994 -0.066154 0.008339
    20 0.000004 -0.000001 8.039619 0.000000 0.000000 0.318947
    21 2.899849 -0.471046 -4.331210 -0.333509 -0.630519 -0.915402
    22 -0.000025 2.543312 0.000026 0.217358 0.040231 -0.180100
    23 0.000059 2.315285 -0.000040 0.099114 0.018457 -0.183540
    24 1.551407 3.956631 -3.900798 2.393589 -1.367686 -3.120704
    25 0.000000 2.741436 -0.000004 -0.558500 0.000000 0.000000
    26 0.000010 2.668510 0.000050 -0.492763 0.000000 0.000000
    27 1.401100 3.639805 -1.202109 1.728683 -1.355921 -2.446708
    28 0.000003 2.810951 0.000004 -0.558500 0.000000 0.000000
    29 -0.000005 2.736202 -0.000031 -0.492763 0.000000 0.000000
    30 1.335663 3.182098 1.418086 0.723330 -1.251529 -1.415184
    31 -0.000003 2.663269 0.000046 -0.513118 0.000000 0.000000
    32 0.000001 2.592527 -0.000031 -0.447386 0.000000 0.000000
    33 1.344765 1.881123 3.809589 0.859882 -1.203079 -1.477188
    34 0.000011 2.315664 -0.000084 -0.516589 0.000000 0.000000
    35 -0.000006 2.254017 0.000076 -0.450892 0.000000 0.000000
    36 0.011267 -6.809892 1.974034 -0.607824 0.000000 0.000000
    37 -0.011248 6.809885 -1.974043 -0.607868 0.000000 0.000000
  time 22
    0 -131.592759 134.166967 40.187500 -1.188148 0.029119 0.136424
    1 0.000000 -5.257813 -1.001953 -0.186596 -0.091497 -0.122234
    2 0.000000 -7.488277 -0.000001 -0.049228 -0.029013 0.047002
    3 0.000000 -5.597980 0.000000 0.272933 -0.084473 0.007509
    4 0.000000 -6.565113 -0.000001 0.913623 -0.080527 0.027925
    5 -1.549380 -5.102886 -4.074768 2.531825 -0.547193 -1.164181
    6 -0.000053 11.987244 0.000028 -0.671435 -0.388901 2.764324
    7 20.109314 0.000000 -0.000002 1.411589 -1.189226 -3.041871
    8 19.941738 0.000001 -0.000004 0.677128 -1.267670 -2.390946
    9 6.938272 1.999413 -1.014580 3.018325 0.378058 1.504745
    10 20.710249 -0.000001 0.000000 0.000000 0.784026 0.000000
    11 18.105982 0.000001 0.000000 -1.622264 -0.053719 1.663829
    12 -6.938270 1.999409 -1.014579 1.809781 1.243500 1.361029
    13 20.710224 0.000000 0.000000 0.000000 0.000000 1.178029
    14 18.106007 0.000000 -0.000001 -2.640200 -0.844166 -0.283000
    15 0.000000 -6.555973 0.000000 0.174458 0.251698 0.152394
    16 0.000000 -3.252140 0.000004 -0.803124 -0.141769 -0.289816
    17 1.548545 -4.925743 -4.285366 -2.738546 -0.723687 -1.350045
    18 1.190170 -10.472042 -0.306138 1.353248 -0.238019 -0.934260
    19 0.000008 0.000000 15.020973 -0.201994 -0.066154 0.008339
    20 0.000004 -0.000001 8.039619 0.000000 0.000000 0.318947
    21 2.899849 -0.471046 -4.331210 -0.333509 -0.630519 -0.915402
    22 -0.000025 2.543312 0.000026 0.217358 0.040231 -0.180100
    23 0.000059 2.315285 -0.000040 0.099114 0.018457 -0.183540
    24 1.551407 3.956631 -3.900798 2.393589 -1.367686 -3.120704
    25 0.000000 2.741436 -0.000004 -0.558500 0.000000 0.000000
    26 0.000010 2.668510 0.000050 -0.492763 0.000000 0.000000
    27 1.401100 3.639805 -1.202109 1.728683 -1.355921 -2.446708
    28 0.000003 2.810951 0.000004 -0.558500 0.000000 0.000000
    29 -0.000005 2.736202 -0.000031 -0.492763 0.000000 0.000000
    30 1.335663 3.182098 1.418086 0.723330 -1.251529 -1.415184
    31 -0.000003 2.663269 0.000046 -0.513118 0.000000 0.000000
    32 0.000001 2.592527 -0.000031 -0.447386 0.000000 0.000000
    33 1.344765 1.881123 3.809589 0.859882 -1.203079 -1.477188
    34 0.000011 2.315664 -0.000084 -0.516589 0.000000 0.000000
    35 -0.000006 2.254017 0.000076 -0.450892 0.000000 0.000000
    36 0.011267 -6.809892 1.974034 -0.607824 0.000000 0.000000
    37 -0.011248 6.809885 -1.974043 -0.607868 0.000000 0.000000
  time 23
    0 -137.992217 140.355487 38.843750 -1.085040 -0.049362 0.271385
    1 0.000000 -5.257813 -1.001953 -0.220815 -0.071474 -0.076405
    2 0.000000 -7.488277 -0.000001 -0.084587 -0.002766 0.070385
    3 0.000000 -5.597980 0.000000 0.240118 0.051025 0.005665
    4 0.000000 -6.565113 -0.000001 0.844497 0.008515 0.024836
    5 -1.549380 -5.102886 -4.074768 2.318754 -0.571495 -1.127930
    6 -0.000053 11.987244 0.000028 -0.971967 -0.330427 2.720910
    7 20.109314 0.000000 -0.000002 1.336901 -1.314560 -2.960118
    8 19.941738 0.000001 -0.000004 0.355785 -1.240858 -2.174956
    9 6.938272 1.999413 -1.014580 -3.104416 0.866056 1.473461
    10 20.710249 -0.000001 0.000000 0.000000 1.076358 0.000000
    11 18.105982 0.000001 0.000000 -1.540250 -0.099852 1.543801
    12 -6.938270 1.999409 -1.014579 2.308847 1.290303 1.968011
    13 20.710224 0.000000 0.000000 0.000000 0.000000 1.469687
    14 18.106007 0.000000 -0.000001 -2.543230 -0.991261 -0.638655
    15 0.000000 -6.555973 0.000000 0.128681 0.318615 0.178324
    16 0.000000 -3.252140 0.000004 -0.807957 -0.134547 -0.252215
    17 1.548545 -4.925743 -4.285366 -2.856183 -0.718953 -1.458006
    18 1.190170 -10.472042 -0.306138 1.353248 -0.238019 -0.934260
    19 0.000008 0.000000 15.020973 -0.201994 -0.066154 0.008339
    20 0.000004 -0.000001 8.039619 0.000000 0.000000 0.318947
    21 2.899849 -0.471046 -4.331210 -0.333509 -0.630519 -0.915402
    22 -0.000025 2.543312 0.000026 0.217358 0.040231 -0.180100
    23 0.000059 2.315285 -0.000040 0.099114 0.018457 -0.183540
    24 1.551407 3.956631 -3.900798 2.393589 -1.367686 -3.120704
    25 0.000000 2.741436 -0.000004 -0.558500 0.000000 0.000000
    26 0.000010 2.668510 0.000050 -0.492763 0.000000 0.000000
    27 1.401100 3.639805 -1.202109 1.728683 -1.355921 -2.446708
    28 0.000003 2.810951 0.000004 -0.558500 0.000000 0.000000
    29 -0.000005 2.736202 -0.000031 -0.492763 0.000000 0.000000
    30 1.335663 3.182098 1.418086 0.723330 -1.251529 -1.415184
    31 -0.000003 2.663269 0.000046 -0.513118 0.000000 0.000000
    32 0.000001 2.592527 -0.000031 -0.447386 0.000000 0.000000
    33 1.344765 1.881123 3.809589 0.859882 -1.203079 -1.477188
    34 0.000011 2.315664 -0.000084 -0.516589 0.000000 0.000000
    35 -0.000006 2.254017 0.000076 -0.450892 0.000000 0.000000
    36 0.011267 -6.809892 1.974034 -0.607824 0.000000 0.000000
    37 -0.011248 6.809885 -1.974043 -0.607868 0.000000 0.000000
  time 24
    0 -142.116284 144.446351 39.031250 -1.058323 -0.004051 0.306925
    1 0.000000 -5.257813 -1.001953 -0.264227 -0.051123 -0.112640
    2 0.000000 -7.488277 -0.000001 -0.086921 0.004591 0.045135
    3 0.000000 -5.597980 0.000000 0.219071 0.083935 0.001370
    4 0.000000 -6.565113 -0.000001 0.820673 0.041373 0.030383
    5 -1.549380 -5.102886 -4.074768 2.171992 -0.577585 -1.085205
    6 -0.000053 11.987244 0.000028 -1.193022 -0.402418 2.745265
    7 20.109314 0.000000 -0.000002 1.254491 -1.381316 -2.873822
    8 19.941738 0.000001 -0.000004 0.222569 -1.116335 -1.903669
    9 6.938272 1.999413 -1.014580 -3.075540 1.027987 1.339157
    10 20.710249 -0.000001 0.000000 0.000000 1.060968 0.000000
    11 18.105982 0.000001 0.000000 -1.393197 -0.081498 1.420197
    12 -6.938270 1.999409 -1.014579 2.108959 1.054965 1.866265
    13 20.710224 0.000000 0.000000 0.000000 0.000000 1.455092
    14 18.106007 0.000000 -0.000001 -2.412978 -1.189967 -0.958161
    15 0.000000 -6.555973 0.000000 0.124142 0.342297 0.216649
    16 0.000000 -3.252140 0.000004 -0.809250 -0.145909 -0.237181
    17 1.548545 -4.925743 -4.285366 -2.758424 -0.706416 -1.624228
    18 1.190170 -10.472042 -0.306138 1.353248 -0.238019 -0.934260
    19 0.000008 0.000000 15.020973 -0.201994 -0.066154 0.008339
    20 0.000004 -0.000001 8.039619 0.000000 0.000000 0.318947
    21 2.899849 -0.471046 -4.331210 -0.333509 -0.630519 -0.915402
    22 -0.000025 2.543312 0.000026 0.217358 0.040231 -0.180100
    23 0.000059 2.315285 -0.000040 0.099114 0.018457 -0.183540
    24 1.551407 3.956631 -3.900798 2.393589 -1.367686 -3.120704
    25 0.000000 2.741436 -0.000004 -0.558500 0.000000 0.000000
    26 0.000010 2.668510 0.000050 -0.492763 0.000000 0.000000
    27 1.401100 3.639805 -1.202109 1.728683 -1.355921 -2.446708
    28 0.000003 2.810951 0.000004 -0.558500 0.000000 0.000000
    29 -0.000005 2.736202 -0.000031 -0.492763 0.000000 0.000000
    30 1.335663 3.182098 1.418086 0.723330 -1.251529 -1.415184
    31 -0.000003 2.663269 0.000046 -0.513118 0.000000 0.000000
    32 0.000001 2.592527 -0.000031 -0.447386 0.000000 0.000000
    33 1.344765 1.881123 3.809589 0.859882 -1.203079 -1.477188
    34 0.000011 2.315664 -0.000084 -0.516589 0.000000 0.000000
    35 -0.000006 2.254017 0.000076 -0.450892 0.000000 0.000000
    36 0.011267 -6.809892 1.974034 -0.607824 0.000000 0.000000
    37 -0.011248 6.809885 -1.974043 -0.607868 0.000000 0.000000
  time 25
    0 -146.254512 148.548933 39.187500 -1.031564 0.041467 0.342710
    1 0.000000 -5.257813 -1.001953 -0.307636 -0.030753 -0.148947
    2 0.000000 -7.488277 -0.000001 -0.089273 0.012058 0.019624
    3 0.000000 -5.597980 0.000000 0.197855 0.102813 -0.005878
    4 0.000000 -6.565113 -0.000001 0.797361 0.070770 0.039628
    5 -1.549380 -5.102886 -4.074768 2.154790 -0.540033 -1.036031
    6 -0.000053 11.987244 0.000028 -1.297480 -0.378851 2.747514
    7 20.109314 0.000000 -0.000002 1.189002 -1.413262 -2.806549
    8 19.941738 0.000001 -0.000004 0.097896 -1.169135 -1.914669
    9 6.938272 1.999413 -1.014580 -3.052745 1.133887 1.181284
    10 20.710249 -0.000001 0.000000 0.000000 0.946840 0.000000
    11 18.105982 0.000001 0.000000 -1.262062 -0.009420 1.286484
    12 -6.938270 1.999409 -1.014579 1.988747 0.701366 1.801850
    13 20.710224 0.000000 0.000000 0.000000 0.000000 1.202352
    14 18.106007 0.000000 -0.000001 -1.893954 -1.384051 -1.332049
    15 0.000000 -6.555973 0.000000 0.121621 0.366540 0.256047
    16 0.000000 -3.252140 0.000004 -0.808887 -0.166387 -0.233561
    17 1.548545 -4.925743 -4.285366 -2.670047 -0.680384 -1.785640
    18 1.190170 -10.472042 -0.306138 1.353248 -0.238019 -0.934260
    19 0.000008 0.000000 15.020973 -0.201994 -0.066154 0.008339
    20 0.000004 -0.000001 8.039619 0.000000 0.000000 0.318947
    21 2.899849 -0.471046 -4.331210 -0.333509 -0.630519 -0.915402
    22 -0.000025 2.543312 0.000026 0.217358 0.040231 -0.180100
    23 0.000059 2.315285 -0.000040 0.099114 0.018457 -0.183540
    24 1.551407 3.956631 -3.900798 2.393589 -1.367686 -3.120704
    25 0.000000 2.741436 -0.000004 -0.558500 0.000000 0.000000
    26 0.000010 2.668510 0.000050 -0.492763 0.000000 0.000000
    27 1.401100 3.639805 -1.202109 1.728683 -1.355921 -2.446708
    28 0.000003 2.810951 0.000004 -0.558500 0.000000 0.000000
    29 -0.000005 2.736202 -0.000031 -0.492763 0.000000 0.000000
    30 1.335663 3.182098 1.418086 0.723330 -1.251529 -1.415184
    31 -0.000003 2.663269 0.000046 -0.513118 0.000000 0.000000
    32 0.000001 2.592527 -0.000031 -0.447386 0.000000 0.000000
    33 1.344765 1.881123 3.809589 0.859882 -1.203079 -1.477188
    34 0.000011 2.315664 -0.000084 -0.516589 0.000000 0.000000
    35 -0.000006 2.254017 0.000076 -0.450892 0.000000 0.000000
    36 0.011267 -6.809892 1.974034 -0.607824 0.000000 0.000000
    37 -0.011248 6.809885 -1.974043 -0.607868 0.000000 0.000000
  time 26
    0 -153.932778 155.542140 41.031250 -0.938729 0.122972 0.330638
    1 0.000000 -5.257813 -1.001953 -0.399846 -0.032959 -0.255790
    2 0.000000 -7.488277 -0.000001 -0.086084 0.027313 -0.016940
    3 0.000000 -5.597980 0.000000 0.121090 0.152653 -0.020165
    4 0.000000 -6.565113 -0.000001 0.734190 0.097610 0.054055
    5 -1.549380 -5.102886 -4.074768 2.208465 -0.483575 -0.984485
    6 -0.000053 11.987244 0.000028 -1.442299 -0.414266 2.766419
    7 20.109314 0.000000 -0.000002 1.213637 -1.402734 -2.831834
    8 19.941738 0.000001 -0.000004 0.000722 -1.247117 -1.825699
    9 6.938272 1.999413 -1.014580 2.865197 1.189253 0.596084
    10 20.710249 -0.000001 0.000000 0.000000 0.730947 0.000000
    11 18.105982 0.000001 0.000000 -1.459687 0.147689 1.118323
    12 -6.938270 1.999409 -1.014579 1.831150 0.481547 1.654365
    13 20.710224 0.000000 0.000000 0.000000 0.000000 0.738467
    14 18.106007 0.000000 -0.000001 -0.554864 -1.389542 -2.299603
    15 0.000000 -6.555973 0.000000 0.129931 0.429474 0.366753
    16 0.000000 -3.252140 0.000004 -0.809730 -0.236192 -0.240116
    17 1.548545 -4.925743 -4.285366 -2.564365 -0.658347 -1.877554
    18 1.190170 -10.472042 -0.306138 1.353248 -0.238019 -0.934260
    19 0.000008 0.000000 15.020973 -0.201994 -0.066154 0.008339
    20 0.000004 -0.000001 8.039619 0.000000 0.000000 0.318947
    21 2.899849 -0.471046 -4.331210 -0.333509 -0.630519 -0.915402
    22 -0.000025 2.543312 0.000026 0.217358 0.040231 -0.180100
    23 0.000059 2.315285 -0.000040 0.099114 0.018457 -0.183540
    24 1.551407 3.956631 -3.900798 2.393589 -1.367686 -3.120704
    25 0.000000 2.741436 -0.000004 -0.558500 0.000000 0.000000
    26 0.000010 2.668510 0.000050 -0.492763 0.000000 0.000000
    27 1.401100 3.639805 -1.202109 1.728683 -1.355921 -2.446708
    28 0.000003 2.810951 0.000004 -0.558500 0.000000 0.000000
    29 -0.000005 2.736202 -0.000031 -0.492763 0.000000 0.000000
    30 1.335663 3.182098 1.418086 0.723330 -1.251529 -1.415184
    31 -0.000003 2.663269 0.000046 -0.513118 0.000000 0.000000
    32 0.000001 2.592527 -0.000031 -0.447386 0.000000 0.000000
    33 1.344765 1.881123 3.809589 0.859882 -1.203079 -1.477188
    34 0.000011 2.315664 -0.000084 -0.516589 0.000000 0.000000
    35 -0.000006 2.254017 0.000076 -0.450892 0.000000 0.000000
    36 0.011267 -6.809892 1.974034 -0.810733 0.001659 0.016557
    37 -0.011248 6.809885 -1.974043 -0.607868 0.000000 0.000000
  time 27
    0 -161.761923 162.113472 41.875000 -1.012340 0.061742 0.250753
    1 0.000000 -5.257813 -1.001953 -0.364661 -0.022290 -0.184607
    2 0.000000 -7.488277 -0.000001 -0.034721 0.037255 -0.038137
    3 0.000000 -5.597980 0.000000 0.115347 0.163237 -0.022207
    4 0.000000 -6.565113 -0.000001 0.741713 0.089424 0.042526
    5 -1.549380 -5.102886 -4.074768 2.268199 -0.453085 -0.968405
    6 -0.000053 11.987244 0.000028 -1.422148 -0.472429 2.747765
    7 20.109314 0.000000 -0.000002 1.311793 -1.339574 -2.933552
    8 19.941738 0.000001 -0.000004 -0.312218 -1.266444 -1.475704
    9 6.938272 1.999413 -1.014580 2.948286 1.041241 0.661789
    10 20.710249 -0.000001 0.000000 0.000000 0.533843 0.000000
    11 18.105982 0.000001 0.000000 -1.459719 0.126505 1.015613
    12 -6.938270 1.999409 -1.014579 1.746151 0.132916 1.736458
    13 20.710224 0.000000 0.000000 0.000000 0.000000 0.322316
    14 18.106007 0.000000 -0.000001 0.585578 -1.294417 -3.092717
    15 0.000000 -6.555973 0.000000 0.094496 0.452416 0.383105
    16 0.000000 -3.252140 0.000004 -0.833860 -0.259918 -0.253547
    17 1.548545 -4.925743 -4.285366 -2.504421 -0.643618 -1.928899
    18 1.190170 -10.472042 -0.306138 1.353248 -0.238019 -0.934260
    19 0.000008 0.000000 15.020973 -0.201994 -0.066154 0.008339
    20 0.000004 -0.000001 8.039619 0.000000 0.000000 0.318947
    21 2.899849 -0.471046 -4.331210 -0.333509 -0.630519 -0.915402
    22 -0.000025 2.543312 0.000026 0.217358 0.040231 -0.180100
    23 0.000059 2.315285 -0.000040 0.099114 0.018457 -0.183540
    24 1.551407 3.956631 -3.900798 2.393589 -1.367686 -3.120704
    25 0.000000 2.741436 -0.000004 -0.558500 0.000000 0.000000
    26 0.000010 2.668510 0.000050 -0.492763 0.000000 0.000000
    27 1.401100 3.639805 -1.202109 1.728683 -1.355921 -2.446708
    28 0.000003 2.810951 0.000004 -0.558500 0.000000 0.000000
    29 -0.000005 2.736202 -0.000031 -0.492763 0.000000 0.000000
    30 1.335663 3.182098 1.418086 0.723330 -1.251529 -1.415184
    31 -0.000003 2.663269 0.000046 -0.513118 0.000000 0.000000
    32 0.000001 2.592527 -0.000031 -0.447386 0.000000 0.000000
    33 1.344765 1.881123 3.809589 0.859882 -1.203079 -1.477188
    34 0.000011 2.315664 -0.000084 -0.516589 0.000000 0.000000
    35 -0.000006 2.254017 0.000076 -0.450892 0.000000 0.000000
    36 0.011267 -6.809892 1.974034 -0.607824 0.000000 0.000000
    37 -0.011248 6.809885 -1.974043 -0.607868 0.000000 0.000000
  time 28
    0 -169.442631 169.477774 41.312500 -1.132495 -0.020727 0.170783
    1 0.000000 -5.257813 -1.001953 -0.306454 -0.032783 -0.100483
    2 0.000000 -7.488277 -0.000001 -0.002060 0.029085 -0.032506
    3 0.000000 -5.597980 0.000000 0.161694 0.131424 -0.005046
    4 0.000000 -6.565113 -0.000001 0.782170 0.077907 0.040460
    5 -1.549380 -5.102886 -4.074768 2.313800 -0.484235 -1.058948
    6 -0.000053 11.987244 0.000028 -1.319719 -0.636842 2.716857
    7 20.109314 0.000000 -0.000002 1.393332 -1.230182 -3.021315
    8 19.941738 0.000001 -0.000004 -0.320782 -1.150504 -1.284760
    9 6.938272 1.999413 -1.014580 3.020561 1.067194 0.794691
    10 20.710249 -0.000001 0.000000 0.000000 0.898241 0.000000
    11 18.105982 0.000001 0.000000 -1.527688 0.084717 0.957926
    12 -6.938270 1.999409 -1.014579 1.675679 0.156661 1.896326
    13 20.710224 0.000000 0.000000 0.000000 0.000000 0.648383
    14 18.106007 0.000000 -0.000001 0.960062 -1.099761 2.844296
    15 0.000000 -6.555973 0.000000 0.046415 0.367363 0.337850
    16 0.000000 -3.252140 0.000004 -0.838910 -0.216934 -0.232517
    17 1.548545 -4.925743 -4.285366 -2.553629 -0.625464 -1.998495
    18 1.190170 -10.472042 -0.306138 1.353248 -0.238019 -0.934260
    19 0.000008 0.000000 15.020973 -0.201994 -0.066154 0.008339
    20 0.000004 -0.000001 8.039619 0.000000 0.000000 0.318947
    21 2.899849 -0.471046 -4.331210 -0.333509 -0.630519 -0.915402
    22 -0.000025 2.543312 0.000026 0.217358 0.040231 -0.180100
    23 0.000059 2.315285 -0.000040 0.099114 0.018457 -0.183540
    24 1.551407 3.956631 -3.900798 2.393589 -1.367686 -3.120704
    25 0.000000 2.741436 -0.000004 -0.558500 0.000000 0.000000
    26 0.000010 2.668510 0.000050 -0.492763 0.000000 0.000000
    27 1.401100 3.639805 -1.202109 1.728683 -1.355921 -2.446708
    28 0.000003 2.810951 0.000004 -0.558500 0.000000 0.000000
    29 -0.000005 2.736202 -0.000031 -0.492763 0.000000 0.000000
    30 1.335663 3.182098 1.418086 0.723330 -1.251529 -1.415184
    31 -0.000003 2.663269 0.000046 -0.513118 0.000000 0.000000
    32 0.000001 2.592527 -0.000031 -0.447386 0.000000 0.000000
    33 1.344765 1.881123 3.809589 0.859882 -1.203079 -1.477188
    34 0.000011 2.315664 -0.000084 -0.516589 0.000000 0.000000
    35 -0.000006 2.254017 0.000076 -0.450892 0.000000 0.000000
    36 0.011267 -6.809892 1.974034 -0.607824 0.000000 0.000000
    37 -0.011248 6.809885 -1.974043 -0.607868 0.000000 0.000000
  time 29
    0 -172.943651 173.263950 40.656250 -1.135737 -0.030678 0.131234
    1 0.000000 -5.257813 -1.001953 -0.286676 -0.052696 -0.099782
    2 0.000000 -7.488277 -0.000001 -0.019210 0.017157 -0.012251
    3 0.000000 -5.597980 0.000000 0.147453 0.094347 -0.000011
    4 0.000000 -6.565113 -0.000001 0.757536 0.056401 0.042560
    5 -1.549380 -5.102886 -4.074768 2.381616 -0.561410 -1.152723
    6 -0.000053 11.987244 0.000028 -1.249143 -0.725536 2.641117
    7 20.109314 0.000000 -0.000002 1.431568 -1.130054 -3.065187
    8 19.941738 0.000001 -0.000004 -0.204644 -1.020913 -1.215943
    9 6.938272 1.999413 -1.014580 3.013982 1.133496 0.835978
    10 20.710249 -0.000001 0.000000 0.000000 1.186777 0.000000
    11 18.105982 0.000001 0.000000 -1.595564 -0.049714 1.026316
    12 -6.938270 1.999409 -1.014579 1.682272 0.294911 1.964891
    13 20.710224 0.000000 0.000000 0.000000 0.000000 0.907670
    14 18.106007 0.000000 -0.000001 1.209157 -1.060187 2.707479
    15 0.000000 -6.555973 0.000000 0.037682 0.328001 0.345707
    16 0.000000 -3.252140 0.000004 -0.850358 -0.171024 -0.186856
    17 1.548545 -4.925743 -4.285366 -2.596788 -0.635669 -1.964972
    18 1.190170 -10.472042 -0.306138 1.353248 -0.238019 -0.934260
    19 0.000008 0.000000 15.020973 -0.201994 -0.066154 0.008339
    20 0.000004 -0.000001 8.039619 0.000000 0.000000 0.318947
    21 2.899849 -0.471046 -4.331210 -0.333509 -0.630519 -0.915402
    22 -0.000025 2.543312 0.000026 0.217358 0.040231 -0.180100
    23 0.000059 2.315285 -0.000040 0.099114 0.018457 -0.183540
    24 1.551407 3.956631 -3.900798 2.393589 -1.367686 -3.120704
    25 0.000000 2.741436 -0.000004 -0.558500 0.000000 0.000000
    26 0.000010 2.668510 0.000050 -0.492763 0.000000 0.000000
    27 1.401100 3.639805 -1.202109 1.728683 -1.355921 -2.446708
    28 0.000003 2.810951 0.000004 -0.558500 0.000000 0.000000
    29 -0.000005 2.736202 -0.000031 -0.492763 0.000000 0.000000
    30 1.335663 3.182098 1.418086 0.723330 -1.251529 -1.415184
    31 -0.000003 2.663269 0.000046 -0.513118 0.000000 0.000000
    32 0.000001 2.592527 -0.000031 -0.447386 0.000000 0.000000
    33 1.344765 1.881123 3.809589 0.859882 -1.203079 -1.477188
    34 0.000011 2.315664 -0.000084 -0.516589 0.000000 0.000000
    35 -0.000006 2.254017 0.000076 -0.450892 0.000000 0.000000
    36 0.011267 -6.809892 1.974034 -0.607824 0.000000 0.000000
    37 -0.011248 6.809885 -1.974043 -0.607868 0.000000 0.000000
  time 30
    0 -176.422211 177.030594 40.000000 -1.138970 -0.040487 0.092087
    1 0.000000 -5.257813 -1.001953 -0.267085 -0.072468 -0.099141
    2 0.000000 -7.488277 -0.000001 -0.036359 0.005329 0.007717
    3 0.000000 -5.597980 0.000000 0.133481 0.051998 0.003721
    4 0.000000 -6.565113 -0.000001 0.733075 0.031395 0.048540
    5 -1.549380 -5.102886 -4.074768 2.430902 -0.737987 -0.980864
    6 -0.000053 11.987244 0.000028 -1.217763 -0.466217 2.698965
    7 20.109314 0.000000 -0.000002 1.449059 -1.059599 -3.086691
    8 19.941738 0.000001 -0.000004 -0.019930 -1.147071 -1.506141
    9 6.938272 1.999413 -1.014580 3.018506 1.163023 0.896561
    10 20.710249 -0.000001 0.000000 0.000000 1.411702 0.000000
    11 18.105982 0.000001 0.000000 -1.276808 -0.171971 1.118327
    12 -6.938270 1.999409 -1.014579 1.691583 0.330691 1.955858
    13 20.710224 0.000000 0.000000 0.000000 0.000000 0.738729
    14 18.106007 0.000000 -0.000001 0.285169 -1.148329 3.035707
    15 0.000000 -6.555973 0.000000 0.028297 0.289116 0.353799
    16 0.000000 -3.252140 0.000004 -0.859490 -0.121914 -0.138562
    17 1.548545 -4.925743 -4.285366 -2.640078 -0.645015 -1.931176
    18 1.190170 -10.472042 -0.306138 1.353248 -0.238019 -0.934260
    19 0.000008 0.000000 15.020973 -0.201994 -0.066154 0.008339
    20 0.000004 -0.000001 8.039619 0.000000 0.000000 0.318947
    21 2.899849 -0.471046 -4.331210 -0.333509 -0.630519 -0.915402
    22 -0.000025 2.543312 0.000026 0.217358 0.040231 -0.180100
    23 0.000059 2.315285 -0.000040 0.099114 0.018457 -0.183540
    24 1.551407 3.956631 -3.900798 2.393589 -1.367686 -3.120704
    25 0.000000 2.741436 -0.000004 -0.558500 0.000000 0.000000
    26 0.000010 2.668510 0.000050 -0.492763 0.000000 0.000000
    27 1.401100 3.639805 -1.202109 1.728683 -1.355921 -2.446708
    28 0.000003 2.810951 0.000004 -0.558500 0.000000 0.000000
    29 -0.000005 2.736202 -0.000031 -0.492763 0.000000 0.000000
    30 1.335663 3.182098 1.418086 0.723330 -1.251529 -1.415184
    31 -0.000003 2.663269 0.000046 -0.513118 0.000000 0.000000
    32 0.000001 2.592527 -0.000031 -0.447386 0.000000 0.000000
    33 1.344765 1.881123 3.809589 0.859882 -1.203079 -1.477188
    34 0.000011 2.315664 -0.000084 -0.516589 0.000000 0.000000
    35 -0.000006 2.254017 0.000076 -0.450892 0.000000 0.000000
    36 0.011267 -6.809892 1.974034 -0.607824 0.000000 0.000000
    37 -0.011248 6.809885 -1.974043 -0.607868 0.000000 0.000000
  time 31
    0 -182.115614 183.853880 38.656250 -1.066317 0.032719 -0.018189
    1 0.000000 -5.257813 -1.001953 -0.218863 -0.101930 -0.159671
    2 0.000000 -7.488277 -0.000001 -0.103536 -0.018344 0.016353
    3 0.000000 -5.597980 0.000000 0.065185 -0.002796 0.008947
    4 0.000000 -6.565113 -0.000001 0.610957 -0.013671 0.049839
    5 -1.549380 -5.102886 -4.074768 2.691857 -0.795026 -0.925509
    6 -0.000053 11.987244 0.000028 -1.017096 -0.522674 2.836508
    7 20.109314 0.000000 -0.000002 1.451722 -1.047073 -3.090024
    8 19.941738 0.000001 -0.000004 0.269429 -0.951586 -1.754130
    9 6.938272 1.999413 -1.014580 2.528933 1.118525 0.705746
    10 20.710249 -0.000001 0.000000 -3.141593 1.340911 -3.141593
    11 18.105982 0.000001 0.000000 -1.254714 -0.354618 1.664421
    12 -6.938270 1.999409 -1.014579 1.583496 0.801373 1.768751
    13 20.710224 0.000000 0.000000 0.000000 0.000000 1.040016
    14 18.106007 0.000000 -0.000001 -0.222491 -1.320891 -2.902131
    15 0.000000 -6.555973 0.000000 0.009645 0.264530 0.395313
    16 0.000000 -3.252140 0.000004 -0.868845 -0.069782 -0.107342
    17 1.548545 -4.925743 -4.285366 -2.643605 -0.681269 -1.763645
    18 1.190170 -10.472042 -0.306138 1.353248 -0.238019 -0.934260
    19 0.000008 0.000000 15.020973 -0.201994 -0.066154 0.008339
    20 0.000004 -0.000001 8.039619 0.000000 0.000000 0.318947
    21 2.899849 -0.471046 -4.331210 -0.333509 -0.630519 -0.915402
    22 -0.000025 2.543312 0.000026 0.217358 0.040231 -0.180100
    23 0.000059 2.315285 -0.000040 0.099114 0.018457 -0.183540
    24 1.551407 3.956631 -3.900798 2.393589 -1.367686 -3.120704
    25 0.000000 2.741436 -0.000004 -0.558500 0.000000 0.000000
    26 0.000010 2.668510 0.000050 -0.492763 0.000000 0.000000
    27 1.401100 3.639805 -1.202109 1.728683 -1.355921 -2.446708
    28 0.000003 2.810951 0.000004 -0.558500 0.000000 0.000000
    29 -0.000005 2.736202 -0.000031 -0.492763 0.000000 0.000000
    30 1.335663 3.182098 1.418086 0.723330 -1.251529 -1.415184
    31 -0.000003 2.663269 0.000046 -0.513118 0.000000 0.000000
    32 0.000001 2.592527 -0.000031 -0.447386 0.000000 0.000000
    33 1.344765 1.881123 3.809589 0.859882 -1.203079 -1.477188
    34 0.000011 2.315664 -0.000084 -0.516589 0.000000 0.000000
    35 -0.000006 2.254017 0.000076 -0.450892 0.000000 0.000000
    36 0.011267 -6.809892 1.974034 -0.607824 0.000000 0.000000
    37 -0.011248 6.809885 -1.974043 -0.607868 0.000000 0.000000
  time 32
    0 -189.974056 191.735759 38.625000 -1.066026 0.035250 -0.064058
    1 0.000000 -5.257813 -1.001953 -0.218263 -0.102536 -0.161114
    2 0.000000 -7.488277 -0.000001 -0.103047 -0.019057 0.015651
    3 0.000000 -5.597980 0.000000 0.066162 -0.060747 -0.002622
    4 0.000000 -6.565113 -0.000001 0.607505 -0.043610 0.079257
    5 -1.549380 -5.102886 -4.074768 2.904684 -0.709023 -1.062169
    6 -0.000053 11.987244 0.000028 -0.840558 -0.575395 2.671013
    7 20.109314 0.000000 -0.000002 1.464967 -0.971370 -3.107778
    8 19.941738 0.000001 -0.000004 0.308257 -0.896518 -2.051966
    9 6.938272 1.999413 -1.014580 2.599977 0.993996 0.947308
    10 20.710249 -0.000001 0.000000 -3.141593 1.320444 -3.141593
    11 18.105982 0.000001 0.000000 -0.885778 -0.282442 1.785287
    12 -6.938270 1.999409 -1.014579 1.294610 1.041838 1.410123
    13 20.710224 0.000000 0.000000 0.000000 0.000000 1.168502
    14 18.106007 0.000000 -0.000001 -0.924645 -1.333091 -2.089749
    15 0.000000 -6.555973 0.000000 0.008577 0.265323 0.393185
    16 0.000000 -3.252140 0.000004 -0.869029 -0.069795 -0.109223
    17 1.548545 -4.925743 -4.285366 -2.635770 -0.680358 -1.768541
    18 1.190170 -10.472042 -0.306138 1.353248 -0.238019 -0.934260
    19 0.000008 0.000000 15.020973 -0.201994 -0.066154 0.008339
    20 0.000004 -0.000001 8.039619 0.000000 0.000000 0.318947
    21 2.899849 -0.471046 -4.331210 -0.333509 -0.630519 -0.915402
    22 -0.000025 2.543312 0.000026 0.217358 0.040231 -0.180100
    23 0.000059 2.315285 -0.000040 0.099114 0.018457 -0.183540
    24 1.551407 3.956631 -3.900798 2.393589 -1.367686 -3.120704
    25 0.000000 2.741436 -0.000004 -0.558500 0.000000 0.000000
    26 0.000010 2.668510 0.000050 -0.492763 0.000000 0.000000
    27 1.401100 3.639805 -1.202109 1.728683 -1.355921 -2.446708
    28 0.000003 2.810951 0.000004 -0.558500 0.000000 0.000000
    29 -0.000005 2.736202 -0.000031 -0.492763 0.000000 0.000000
    30 1.335663 3.182098 1.418086 0.723330 -1.251529 -1.415184
    31 -0.000003 2.663269 0.000046 -0.513118 0.000000 0.000000
    32 0.000001 2.592527 -0.000031 -0.447386 0.000000 0.000000
    33 1.344765 1.881123 3.809589 0.859882 -1.203079 -1.477188
    34 0.000011 2.315664 -0.000084 -0.516589 0.000000 0.000000
    35 -0.000006 2.254017 0.000076 -0.450892 0.000000 0.000000
    36 0.011267 -6.809892 1.974034 -0.607824 0.000000 0.000000
    37 -0.011248 6.809885 -1.974043 -0.607868 0.000000 0.000000
end
