// Created by Crowbar 0.74
version 1
nodes
  0 "bip_pelvis" -1
  1 "bip_spine_0" 0
  2 "bip_spine_1" 1
  3 "bip_spine_2" 2
  4 "bip_spine_3" 3
  5 "bip_collar_R" 4
  6 "bip_upperArm_R" 5
  7 "bip_lowerArm_R" 6
  8 "bip_hand_R" 7
  9 "bip_hip_L" 0
  10 "bip_knee_L" 9
  11 "bip_foot_L" 10
  12 "bip_hip_R" 0
  13 "bip_knee_R" 12
  14 "bip_foot_R" 13
  15 "bip_neck" 4
  16 "bip_head" 15
  17 "bip_collar_L" 4
  18 "bip_upperArm_L" 17
  19 "bip_lowerArm_L" 18
  20 "bip_hand_L" 19
  21 "bip_thumb_0_R" 8
  22 "bip_thumb_1_R" 21
  23 "bip_thumb_2_R" 22
  24 "bip_index_0_R" 8
  25 "bip_index_1_R" 24
  26 "bip_index_2_R" 25
  27 "bip_middle_0_R" 8
  28 "bip_middle_1_R" 27
  29 "bip_middle_2_R" 28
  30 "bip_ring_0_R" 8
  31 "bip_ring_1_R" 30
  32 "bip_ring_2_R" 31
  33 "bip_pinky_0_R" 8
  34 "bip_pinky_1_R" 33
  35 "bip_pinky_2_R" 34
  36 "bip_toe_L" 11
  37 "bip_toe_R" 14
end
skeleton
  time 0
    0 -3.566406 5.328125 40.250000 -0.961470 0.035273 -0.064021
    1 0.000000 -5.257813 -1.001953 -0.124250 -0.102532 -0.161101
    2 0.000000 -7.488277 -0.000001 -0.009060 -0.019034 0.015590
    3 0.000000 -5.597980 0.000000 0.066162 -0.060747 -0.002622
    4 0.000000 -6.565113 -0.000001 0.604032 -0.078400 0.116292
    5 -1.549380 -5.102886 -4.074768 2.904684 -0.709023 -1.062169
    6 -0.000053 11.987244 0.000028 -0.406028 -0.684771 2.697178
    7 20.109314 0.000000 -0.000002 1.272983 -1.369832 -2.893055
    8 19.941738 0.000001 -0.000004 0.473128 -0.508769 -2.464101
    9 6.938272 1.999413 -1.014580 2.896404 0.800228 1.215551
    10 20.710249 -0.000001 0.000000 3.141593 1.252776 3.141593
    11 18.105982 0.000001 0.000000 -1.096683 0.127297 1.707833
    12 -6.938270 1.999409 -1.014579 1.520073 0.685375 1.715735
    13 20.710224 0.000000 0.000000 0.000000 0.000000 0.805539
    14 18.106007 0.000000 -0.000001 -0.408722 -1.338100 -2.722261
    15 0.000000 -6.555973 0.000000 0.008577 0.265323 0.393185
    16 0.000000 -3.252140 0.000004 -0.869029 -0.069795 -0.109223
    17 1.548545 -4.925743 -4.285366 -2.635770 -0.680358 -1.768541
    18 1.190170 -10.472042 -0.306138 1.353248 -0.238019 -0.934260
    19 0.000008 0.000000 15.020973 -0.201994 -0.066154 0.008339
    20 0.000004 -0.000001 8.039619 0.000000 0.000000 0.318947
    21 2.899849 -0.471046 -4.331210 -0.333509 -0.630519 -0.915402
    22 -0.000025 2.543312 0.000026 0.217358 0.040231 -0.180100
    23 0.000059 2.315285 -0.000040 0.099114 0.018457 -0.183540
    24 1.551407 3.956631 -3.900798 2.393589 -1.367686 -3.120704
    25 0.000000 2.741436 -0.000004 -0.558500 0.000000 0.000000
    26 0.000010 2.668510 0.000050 -0.492763 0.000000 0.000000
    27 1.401100 3.639805 -1.202109 1.728683 -1.355921 -2.446708
    28 0.000003 2.810951 0.000004 -0.558500 0.000000 0.000000
    29 -0.000005 2.736202 -0.000031 -0.492763 0.000000 0.000000
    30 1.335663 3.182098 1.418086 0.723135 -1.251586 -1.414893
    31 -0.000003 2.663269 0.000046 -0.513118 0.000000 0.000000
    32 0.000001 2.592527 -0.000031 -0.447386 0.000000 0.000000
    33 1.344765 1.881123 3.809589 0.859936 -1.203036 -1.477199
    34 0.000011 2.315664 -0.000084 -0.516589 0.000000 0.000000
    35 -0.000006 2.254017 0.000076 -0.450892 0.000000 0.000000
    36 0.011267 -6.809892 1.974034 -0.607824 0.000000 0.000000
    37 -0.011248 6.809885 -1.974043 -0.607824 0.000000 0.000000
  time 1
    0 4.216840 -2.627972 40.625000 -0.831058 -0.084984 -0.180417
    1 0.000000 -5.257813 -1.001953 -0.315648 -0.198186 0.065674
    2 0.000000 -7.488277 -0.000001 -0.012770 -0.042976 0.028847
    3 0.000000 -5.597980 0.000000 0.049909 -0.158060 0.007683
    4 0.000000 -6.565113 -0.000001 0.638767 -0.159315 0.142346
    5 -1.549380 -5.102886 -4.074768 2.754366 -0.661924 -0.921174
    6 -0.000053 11.987244 0.000028 -0.401118 -0.462515 2.595309
    7 20.109314 0.000000 -0.000002 1.346957 -1.302699 -2.970747
    8 19.941738 0.000001 -0.000004 0.143189 -0.604816 -2.287835
    9 6.938272 1.999413 -1.014580 2.612245 0.938636 1.078590
    10 20.710249 -0.000001 0.000000 3.141593 1.500088 3.141593
    11 18.105982 0.000001 0.000000 -1.245071 -0.019557 1.738659
    12 -6.938270 1.999409 -1.014579 1.787628 0.748471 2.238822
    13 20.710224 0.000000 0.000000 0.000000 0.000000 0.935335
    14 18.106007 0.000000 -0.000001 0.938467 -1.124602 2.758540
    15 0.000000 -6.555973 0.000000 0.015022 0.259617 0.196411
    16 0.000000 -3.252140 0.000004 -0.851524 -0.093807 -0.204502
    17 1.548545 -4.925743 -4.285366 -2.384067 -0.597219 -2.034187
    18 1.190170 -10.472042 -0.306138 1.353248 -0.238019 -0.934260
    19 0.000008 0.000000 15.020973 -0.201994 -0.066154 0.008339
    20 0.000004 -0.000001 8.039619 0.000000 0.000000 0.318947
    21 2.899849 -0.471046 -4.331210 -0.333509 -0.630519 -0.915402
    22 -0.000025 2.543312 0.000026 0.217358 0.040231 -0.180100
    23 0.000059 2.315285 -0.000040 0.099114 0.018457 -0.183540
    24 1.551407 3.956631 -3.900798 2.393589 -1.367686 -3.120704
    25 0.000000 2.741436 -0.000004 -0.558500 0.000000 0.000000
    26 0.000010 2.668510 0.000050 -0.492763 0.000000 0.000000
    27 1.401100 3.639805 -1.202109 1.728683 -1.355921 -2.446708
    28 0.000003 2.810951 0.000004 -0.558500 0.000000 0.000000
    29 -0.000005 2.736202 -0.000031 -0.492763 0.000000 0.000000
    30 1.335663 3.182098 1.418086 0.723135 -1.251586 -1.414893
    31 -0.000003 2.663269 0.000046 -0.513118 0.000000 0.000000
    32 0.000001 2.592527 -0.000031 -0.447386 0.000000 0.000000
    33 1.344765 1.881123 3.809589 0.859936 -1.203036 -1.477199
    34 0.000011 2.315664 -0.000084 -0.516589 0.000000 0.000000
    35 -0.000006 2.254017 0.000076 -0.450892 0.000000 0.000000
    36 0.011267 -6.809892 1.974034 -0.607824 0.000000 0.000000
    37 -0.011248 6.809885 -1.974043 -1.077335 0.008938 0.037324
  time 2
    0 11.137294 -10.308678 41.250000 -0.865615 -0.060674 -0.173192
    1 0.000000 -5.257813 -1.001953 -0.313647 -0.198727 0.050401
    2 0.000000 -7.488277 -0.000001 0.003285 -0.059186 0.047902
    3 0.000000 -5.597980 0.000000 0.083231 -0.227742 0.013226
    4 0.000000 -6.565113 -0.000001 0.754153 -0.238120 0.140972
    5 -1.549380 -5.102886 -4.074768 2.657933 -0.618187 -0.851964
    6 -0.000053 11.987244 0.000028 -0.181686 -0.390876 2.763853
    7 20.109314 0.000000 -0.000002 1.122760 -1.435666 -2.739026
    8 19.941738 0.000001 -0.000004 0.346686 -0.592984 -2.574101
    9 6.938272 1.999413 -1.014580 2.084779 0.786731 0.687269
    10 20.710249 -0.000001 0.000000 0.000000 1.354176 0.000000
    11 18.105982 0.000001 0.000000 -1.263428 -0.285815 1.714344
    12 -6.938270 1.999409 -1.014579 1.344194 0.431138 2.077283
    13 20.710224 0.000000 0.000000 0.000000 0.000000 0.658694
    14 18.106007 0.000000 -0.000001 0.878930 -0.999674 -3.068774
    15 0.000000 -6.555973 0.000000 0.052344 0.190461 0.122093
    16 0.000000 -3.252140 0.000004 -0.827818 -0.130331 -0.266368
    17 1.548545 -4.925743 -4.285366 -2.335107 -0.616595 -1.963901
    18 1.190170 -10.472042 -0.306138 1.353248 -0.238019 -0.934260
    19 0.000008 0.000000 15.020973 -0.201994 -0.066154 0.008339
    20 0.000004 -0.000001 8.039619 0.000000 0.000000 0.318947
    21 2.899849 -0.471046 -4.331210 -0.333509 -0.630519 -0.915402
    22 -0.000025 2.543312 0.000026 0.217358 0.040231 -0.180100
    23 0.000059 2.315285 -0.000040 0.099114 0.018457 -0.183540
    24 1.551407 3.956631 -3.900798 2.393589 -1.367686 -3.120704
    25 0.000000 2.741436 -0.000004 -0.558500 0.000000 0.000000
    26 0.000010 2.668510 0.000050 -0.492763 0.000000 0.000000
    27 1.401100 3.639805 -1.202109 1.728683 -1.355921 -2.446708
    28 0.000003 2.810951 0.000004 -0.558500 0.000000 0.000000
    29 -0.000005 2.736202 -0.000031 -0.492763 0.000000 0.000000
    30 1.335663 3.182098 1.418086 0.723135 -1.251586 -1.414893
    31 -0.000003 2.663269 0.000046 -0.513118 0.000000 0.000000
    32 0.000001 2.592527 -0.000031 -0.447386 0.000000 0.000000
    33 1.344765 1.881123 3.809589 0.859936 -1.203036 -1.477199
    34 0.000011 2.315664 -0.000084 -0.516589 0.000000 0.000000
    35 -0.000006 2.254017 0.000076 -0.450892 0.000000 0.000000
    36 0.011267 -6.809892 1.974034 -0.607824 0.000000 0.000000
    37 -0.011248 6.809885 -1.974043 -0.607824 0.000000 0.000000
  time 3
    0 14.557748 -13.924931 43.250000 -0.948393 -0.050677 -0.121342
    1 0.000000 -5.257813 -1.001953 -0.251223 -0.183250 0.019374
    2 0.000000 -7.488277 -0.000001 0.025796 -0.053852 0.046816
    3 0.000000 -5.597980 0.000000 0.141893 -0.221831 0.008551
    4 0.000000 -6.565113 -0.000001 0.803270 -0.238769 0.132851
    5 -1.549380 -5.102886 -4.074768 2.665852 -0.588248 -0.935595
    6 -0.000053 11.987244 0.000028 -0.100666 -0.482410 2.781211
    7 20.109314 0.000000 -0.000002 0.435238 -1.506598 -2.046374
    8 19.941738 0.000001 -0.000004 0.474014 -0.604434 -2.769480
    9 6.938272 1.999413 -1.014580 2.113572 0.700400 0.771973
    10 20.710249 -0.000001 0.000000 0.000000 1.039665 0.000000
    11 18.105982 0.000001 0.000000 -1.333496 -0.453417 1.618569
    12 -6.938270 1.999409 -1.014579 1.332598 0.318555 2.030957
    13 20.710224 0.000000 0.000000 0.000000 0.000000 0.683257
    14 18.106007 0.000000 -0.000001 1.043543 -0.999864 -3.124673
    15 0.000000 -6.555973 0.000000 0.084403 0.174776 0.127050
    16 0.000000 -3.252140 0.000004 -0.814166 -0.143788 -0.277644
    17 1.548545 -4.925743 -4.285366 -2.372186 -0.649522 -1.855873
    18 1.190170 -10.472042 -0.306138 1.353248 -0.238019 -0.934260
    19 0.000008 0.000000 15.020973 -0.201994 -0.066154 0.008339
    20 0.000004 -0.000001 8.039619 0.000000 0.000000 0.318947
    21 2.899849 -0.471046 -4.331210 -0.333509 -0.630519 -0.915402
    22 -0.000025 2.543312 0.000026 0.217358 0.040231 -0.180100
    23 0.000059 2.315285 -0.000040 0.099114 0.018457 -0.183540
    24 1.551407 3.956631 -3.900798 2.393589 -1.367686 -3.120704
    25 0.000000 2.741436 -0.000004 -0.558500 0.000000 0.000000
    26 0.000010 2.668510 0.000050 -0.492763 0.000000 0.000000
    27 1.401100 3.639805 -1.202109 1.728683 -1.355921 -2.446708
    28 0.000003 2.810951 0.000004 -0.558500 0.000000 0.000000
    29 -0.000005 2.736202 -0.000031 -0.492763 0.000000 0.000000
    30 1.335663 3.182098 1.418086 0.723135 -1.251586 -1.414893
    31 -0.000003 2.663269 0.000046 -0.513118 0.000000 0.000000
    32 0.000001 2.592527 -0.000031 -0.447386 0.000000 0.000000
    33 1.344765 1.881123 3.809589 0.859936 -1.203036 -1.477199
    34 0.000011 2.315664 -0.000084 -0.516589 0.000000 0.000000
    35 -0.000006 2.254017 0.000076 -0.450892 0.000000 0.000000
    36 0.011267 -6.809892 1.974034 -0.607824 0.000000 0.000000
    37 -0.011248 6.809885 -1.974043 -0.607824 0.000000 0.000000
  time 4
    0 17.988455 -17.550950 43.875000 -1.031414 -0.040658 -0.069340
    1 0.000000 -5.257813 -1.001953 -0.188425 -0.167710 -0.011924
    2 0.000000 -7.488277 -0.000001 0.048360 -0.048442 0.045857
    3 0.000000 -5.597980 0.000000 0.199083 -0.177915 0.012114
    4 0.000000 -6.565113 -0.000001 0.855020 -0.217766 0.101219
    5 -1.549380 -5.102886 -4.074768 2.705326 -0.558918 -1.070039
    6 -0.000053 11.987244 0.000028 -0.000650 -0.711257 2.710493
    7 20.109314 0.000000 -0.000002 -0.761848 -1.490612 -0.844782
    8 19.941738 0.000001 -0.000004 0.582058 -0.705920 -2.619831
    9 6.938272 1.999413 -1.014580 1.990836 0.578684 0.802537
    10 20.710249 -0.000001 0.000000 0.000000 0.555136 0.000000
    11 18.105982 0.000001 0.000000 -1.084036 -0.644277 1.295736
    12 -6.938270 1.999409 -1.014579 1.336599 0.234689 1.995648
    13 20.710224 0.000000 0.000000 0.000000 0.000000 0.827351
    14 18.106007 0.000000 -0.000001 1.230201 -0.994092 2.995241
    15 0.000000 -6.555973 0.000000 0.116405 0.158658 0.132003
    16 0.000000 -3.252140 0.000004 -0.802727 -0.144120 -0.272390
    17 1.548545 -4.925743 -4.285366 -2.417169 -0.677313 -1.742425
    18 1.190170 -10.472042 -0.306138 1.353248 -0.238019 -0.934260
    19 0.000008 0.000000 15.020973 -0.201994 -0.066154 0.008339
    20 0.000004 -0.000001 8.039619 0.000000 0.000000 0.318947
    21 2.899849 -0.471046 -4.331210 -0.333509 -0.630519 -0.915402
    22 -0.000025 2.543312 0.000026 0.217358 0.040231 -0.180100
    23 0.000059 2.315285 -0.000040 0.099114 0.018457 -0.183540
    24 1.551407 3.956631 -3.900798 2.393589 -1.367686 -3.120704
    25 0.000000 2.741436 -0.000004 -0.558500 0.000000 0.000000
    26 0.000010 2.668510 0.000050 -0.492763 0.000000 0.000000
    27 1.401100 3.639805 -1.202109 1.728683 -1.355921 -2.446708
    28 0.000003 2.810951 0.000004 -0.558500 0.000000 0.000000
    29 -0.000005 2.736202 -0.000031 -0.492763 0.000000 0.000000
    30 1.335663 3.182098 1.418086 0.723135 -1.251586 -1.414893
    31 -0.000003 2.663269 0.000046 -0.513118 0.000000 0.000000
    32 0.000001 2.592527 -0.000031 -0.447386 0.000000 0.000000
    33 1.344765 1.881123 3.809589 0.859936 -1.203036 -1.477199
    34 0.000011 2.315664 -0.000084 -0.516589 0.000000 0.000000
    35 -0.000006 2.254017 0.000076 -0.450892 0.000000 0.000000
    36 0.011267 -6.809892 1.974034 -0.607824 0.000000 0.000000
    37 -0.011248 6.809885 -1.974043 -0.607824 0.000000 0.000000
  time 5
    0 24.934788 -24.540249 43.687500 -1.132840 -0.000092 0.026639
    1 0.000000 -5.257813 -1.001953 -0.116962 -0.141148 -0.083447
    2 0.000000 -7.488277 -0.000001 0.074719 -0.030819 0.041611
    3 0.000000 -5.597980 0.000000 0.269058 -0.113566 0.017680
    4 0.000000 -6.565113 -0.000001 0.932841 -0.154286 0.089646
    5 -1.549380 -5.102886 -4.074768 2.684160 -0.538303 -1.159205
    6 -0.000053 11.987244 0.000028 -0.068514 -0.811413 2.761854
    7 20.109314 0.000000 -0.000002 -0.843647 -1.483542 -0.762481
    8 19.941738 0.000001 -0.000004 0.591740 -0.867610 -2.533488
    9 6.938272 1.999413 -1.014580 2.264415 0.467418 1.025227
    10 20.710249 -0.000001 0.000000 0.000000 0.001587 0.000000
    11 18.105982 0.000001 0.000000 -0.770431 -0.422529 1.046034
    12 -6.938270 1.999409 -1.014579 1.419499 0.368776 1.853665
    13 20.710224 0.000000 0.000000 0.000000 0.000000 1.427151
    14 18.106007 0.000000 -0.000001 1.136687 -1.150560 2.986299
    15 0.000000 -6.555973 0.000000 0.178968 0.179136 0.159962
    16 0.000000 -3.252140 0.000004 -0.789283 -0.144969 -0.270089
    17 1.548545 -4.925743 -4.285366 -2.529643 -0.709449 -1.561691
    18 1.190170 -10.472042 -0.306138 1.353248 -0.238019 -0.934260
    19 0.000008 0.000000 15.020973 -0.201994 -0.066154 0.008339
    20 0.000004 -0.000001 8.039619 0.000000 0.000000 0.318947
    21 2.899849 -0.471046 -4.331210 -0.333509 -0.630519 -0.915402
    22 -0.000025 2.543312 0.000026 0.217358 0.040231 -0.180100
    23 0.000059 2.315285 -0.000040 0.099114 0.018457 -0.183540
    24 1.551407 3.956631 -3.900798 2.393589 -1.367686 -3.120704
    25 0.000000 2.741436 -0.000004 -0.558500 0.000000 0.000000
    26 0.000010 2.668510 0.000050 -0.492763 0.000000 0.000000
    27 1.401100 3.639805 -1.202109 1.728683 -1.355921 -2.446708
    28 0.000003 2.810951 0.000004 -0.558500 0.000000 0.000000
    29 -0.000005 2.736202 -0.000031 -0.492763 0.000000 0.000000
    30 1.335663 3.182098 1.418086 0.723135 -1.251586 -1.414893
    31 -0.000003 2.663269 0.000046 -0.513118 0.000000 0.000000
    32 0.000001 2.592527 -0.000031 -0.447386 0.000000 0.000000
    33 1.344765 1.881123 3.809589 0.859936 -1.203036 -1.477199
    34 0.000011 2.315664 -0.000084 -0.516589 0.000000 0.000000
    35 -0.000006 2.254017 0.000076 -0.450892 0.000000 0.000000
    36 0.011267 -6.809892 1.974034 -0.607824 0.000000 0.000000
    37 -0.011248 6.809885 -1.974043 -0.607824 0.000000 0.000000
  time 6
    0 31.533464 -30.189706 42.375000 -1.087976 -0.011212 0.135966
    1 0.000000 -5.257813 -1.001953 -0.102054 -0.082514 -0.099569
    2 0.000000 -7.488277 -0.000001 0.036965 -0.018121 0.058524
    3 0.000000 -5.597980 0.000000 0.263338 -0.025635 0.016432
    4 0.000000 -6.565113 -0.000001 0.937739 -0.076355 0.059514
    5 -1.549380 -5.102886 -4.074768 2.531825 -0.547193 -1.164181
    6 -0.000053 11.987244 0.000028 -0.379287 -0.759240 2.950991
    7 20.109314 0.000000 -0.000002 -0.939013 -1.472640 -0.666332
    8 19.941738 0.000001 -0.000004 0.471105 -0.953736 -2.408223
    9 6.938272 1.999413 -1.014580 2.611008 0.616896 1.152671
    10 20.710249 -0.000001 0.000000 0.000000 0.538907 0.000000
    11 18.105982 0.000001 0.000000 -1.155430 -0.366253 1.507307
    12 -6.938270 1.999409 -1.014579 1.552713 0.743058 1.757556
    13 20.710224 0.000000 0.000000 0.000000 0.000000 1.951073
    14 18.106007 0.000000 -0.000001 0.545691 -1.278236 -2.889416
    15 0.000000 -6.555973 0.000000 0.192802 0.235469 0.184943
    16 0.000000 -3.252140 0.000004 -0.798982 -0.142319 -0.260808
    17 1.548545 -4.925743 -4.285366 -2.876958 -0.721208 -1.265581
    18 1.190170 -10.472042 -0.306138 1.353248 -0.238019 -0.934260
    19 0.000008 0.000000 15.020973 -0.201994 -0.066154 0.008339
    20 0.000004 -0.000001 8.039619 0.000000 0.000000 0.318947
    21 2.899849 -0.471046 -4.331210 -0.333509 -0.630519 -0.915402
    22 -0.000025 2.543312 0.000026 0.217358 0.040231 -0.180100
    23 0.000059 2.315285 -0.000040 0.099114 0.018457 -0.183540
    24 1.551407 3.956631 -3.900798 2.393589 -1.367686 -3.120704
    25 0.000000 2.741436 -0.000004 -0.558500 0.000000 0.000000
    26 0.000010 2.668510 0.000050 -0.492763 0.000000 0.000000
    27 1.401100 3.639805 -1.202109 1.728683 -1.355921 -2.446708
    28 0.000003 2.810951 0.000004 -0.558500 0.000000 0.000000
    29 -0.000005 2.736202 -0.000031 -0.492763 0.000000 0.000000
    30 1.335663 3.182098 1.418086 0.723135 -1.251586 -1.414893
    31 -0.000003 2.663269 0.000046 -0.513118 0.000000 0.000000
    32 0.000001 2.592527 -0.000031 -0.447386 0.000000 0.000000
    33 1.344765 1.881123 3.809589 0.859936 -1.203036 -1.477199
    34 0.000011 2.315664 -0.000084 -0.516589 0.000000 0.000000
    35 -0.000006 2.254017 0.000076 -0.450892 0.000000 0.000000
    36 0.011267 -6.809892 1.974034 -0.607824 0.000000 0.000000
    37 -0.011248 6.809885 -1.974043 -0.607824 0.000000 0.000000
  time 7
    0 37.921203 -36.366506 41.062500 -0.984974 -0.089810 0.270805
    1 0.000000 -5.257813 -1.001953 -0.135937 -0.062534 -0.053651
    2 0.000000 -7.488277 -0.000001 0.001616 0.008119 0.081939
    3 0.000000 -5.597980 0.000000 0.232198 0.109772 0.014538
    4 0.000000 -6.565113 -0.000001 0.871726 0.066733 -0.000571
    5 -1.549380 -5.102886 -4.074768 2.319273 -0.571536 -1.128108
    6 -0.000053 11.987244 0.000028 -0.716404 -0.686831 3.096614
    7 20.109314 0.000000 -0.000002 -1.252777 -1.385522 -0.347383
    8 19.941738 0.000001 -0.000004 0.314837 -0.882806 -2.288044
    9 6.938272 1.999413 -1.014580 2.740517 0.663568 1.354134
    10 20.710249 -0.000001 0.000000 0.000000 0.681314 0.000000
    11 18.105982 0.000001 0.000000 -1.468115 -0.391849 1.716729
    12 -6.938270 1.999409 -1.014579 1.623830 1.147484 1.742292
    13 20.710224 0.000000 0.000000 0.000000 0.000000 2.107418
    14 18.106007 0.000000 -0.000001 -0.243705 -1.175824 -2.461738
    15 0.000000 -6.555973 0.000000 0.149114 0.303646 0.211351
    16 0.000000 -3.252140 0.000004 -0.804281 -0.135205 -0.223234
    17 1.548545 -4.925743 -4.285366 -2.993064 -0.720947 -1.373351
    18 1.190170 -10.472042 -0.306138 1.353248 -0.238019 -0.934260
    19 0.000008 0.000000 15.020973 -0.201994 -0.066154 0.008339
    20 0.000004 -0.000001 8.039619 0.000000 0.000000 0.318947
    21 2.899849 -0.471046 -4.331210 -0.333509 -0.630519 -0.915402
    22 -0.000025 2.543312 0.000026 0.217358 0.040231 -0.180100
    23 0.000059 2.315285 -0.000040 0.099114 0.018457 -0.183540
    24 1.551407 3.956631 -3.900798 2.393589 -1.367686 -3.120704
    25 0.000000 2.741436 -0.000004 -0.558500 0.000000 0.000000
    26 0.000010 2.668510 0.000050 -0.492763 0.000000 0.000000
    27 1.401100 3.639805 -1.202109 1.728683 -1.355921 -2.446708
    28 0.000003 2.810951 0.000004 -0.558500 0.000000 0.000000
    29 -0.000005 2.736202 -0.000031 -0.492763 0.000000 0.000000
    30 1.335663 3.182098 1.418086 0.723135 -1.251586 -1.414893
    31 -0.000003 2.663269 0.000046 -0.513118 0.000000 0.000000
    32 0.000001 2.592527 -0.000031 -0.447386 0.000000 0.000000
    33 1.344765 1.881123 3.809589 0.859936 -1.203036 -1.477199
    34 0.000011 2.315664 -0.000084 -0.516589 0.000000 0.000000
    35 -0.000006 2.254017 0.000076 -0.450892 0.000000 0.000000
    36 0.011267 -6.809892 1.974034 -0.607824 0.000000 0.000000
    37 -0.011248 6.809885 -1.974043 -0.607824 0.000000 0.000000
  time 8
    0 42.070661 -40.480805 41.218750 -0.958158 -0.044177 0.306625
    1 0.000000 -5.257813 -1.001953 -0.179788 -0.042117 -0.090143
    2 0.000000 -7.488277 -0.000001 -0.000598 0.015587 0.056401
    3 0.000000 -5.597980 0.000000 0.211448 0.142772 0.010377
    4 0.000000 -6.565113 -0.000001 0.848487 0.117961 -0.014151
    5 -1.549380 -5.102886 -4.074768 2.171988 -0.577491 -1.085056
    6 -0.000053 11.987244 0.000028 -0.972938 -0.683017 -3.064103
    7 20.109314 0.000000 -0.000002 -1.346519 -1.309587 -0.249433
    8 19.941738 0.000001 -0.000004 0.186522 -0.771544 -2.050460
    9 6.938272 1.999413 -1.014580 2.876167 0.536352 1.427141
    10 20.710249 -0.000001 0.000000 0.000000 0.560659 0.000000
    11 18.105982 0.000001 0.000000 -1.523484 -0.282395 1.744426
    12 -6.938270 1.999409 -1.014579 1.584766 1.286993 1.615503
    13 20.710224 0.000000 0.000000 0.000000 0.000000 1.991071
    14 18.106007 0.000000 -0.000001 -0.459983 -1.142843 -2.142853
    15 0.000000 -6.555973 0.000000 0.145030 0.327292 0.250099
    16 0.000000 -3.252140 0.000004 -0.805955 -0.146838 -0.208112
    17 1.548545 -4.925743 -4.285366 -2.891226 -0.715323 -1.541929
    18 1.190170 -10.472042 -0.306138 1.353248 -0.238019 -0.934260
    19 0.000008 0.000000 15.020973 -0.201994 -0.066154 0.008339
    20 0.000004 -0.000001 8.039619 0.000000 0.000000 0.318947
    21 2.899849 -0.471046 -4.331210 -0.333509 -0.630519 -0.915402
    22 -0.000025 2.543312 0.000026 0.217358 0.040231 -0.180100
    23 0.000059 2.315285 -0.000040 0.099114 0.018457 -0.183540
    24 1.551407 3.956631 -3.900798 2.393589 -1.367686 -3.120704
    25 0.000000 2.741436 -0.000004 -0.558500 0.000000 0.000000
    26 0.000010 2.668510 0.000050 -0.492763 0.000000 0.000000
    27 1.401100 3.639805 -1.202109 1.728683 -1.355921 -2.446708
    28 0.000003 2.810951 0.000004 -0.558500 0.000000 0.000000
    29 -0.000005 2.736202 -0.000031 -0.492763 0.000000 0.000000
    30 1.335663 3.182098 1.418086 0.723135 -1.251586 -1.414893
    31 -0.000003 2.663269 0.000046 -0.513118 0.000000 0.000000
    32 0.000001 2.592527 -0.000031 -0.447386 0.000000 0.000000
    33 1.344765 1.881123 3.809589 0.859936 -1.203036 -1.477199
    34 0.000011 2.315664 -0.000084 -0.516589 0.000000 0.000000
    35 -0.000006 2.254017 0.000076 -0.450892 0.000000 0.000000
    36 0.011267 -6.809892 1.974034 -0.607824 0.000000 0.000000
    37 -0.011248 6.809885 -1.974043 -0.607824 0.000000 0.000000
  time 9
    0 46.196681 -44.567762 41.406250 -0.931425 0.001120 0.342164
    1 0.000000 -5.257813 -1.001953 -0.223251 -0.021741 -0.126267
    2 0.000000 -7.488277 -0.000001 -0.002939 0.022998 0.031097
    3 0.000000 -5.597980 0.000000 0.190505 0.161606 0.003294
    4 0.000000 -6.565113 -0.000001 0.826129 0.161372 -0.019649
    5 -1.549380 -5.102886 -4.074768 2.154790 -0.540033 -1.036031
    6 -0.000053 11.987244 0.000028 -1.013652 -0.623295 -3.060492
    7 20.109314 0.000000 -0.000002 -1.335603 -1.321899 -0.261037
    8 19.941738 0.000001 -0.000004 0.255146 -0.806174 -2.184061
    9 6.938272 1.999413 -1.014580 3.010301 0.202046 1.511036
    10 20.710249 -0.000001 0.000000 0.000000 0.023316 0.000000
    11 18.105982 0.000001 0.000000 -1.348026 -0.214958 1.734140
    12 -6.938270 1.999409 -1.014579 1.557238 1.380013 1.500955
    13 20.710224 0.000000 0.000000 0.000000 0.000000 1.842392
    14 18.106007 0.000000 -0.000001 -0.661147 -1.122305 -1.850214
    15 0.000000 -6.555973 0.000000 0.142988 0.351289 0.289421
    16 0.000000 -3.252140 0.000004 -0.806055 -0.167290 -0.204495
    17 1.548545 -4.925743 -4.285366 -2.797761 -0.695936 -1.706078
    18 1.190170 -10.472042 -0.306138 1.353248 -0.238019 -0.934260
    19 0.000008 0.000000 15.020973 -0.201994 -0.066154 0.008339
    20 0.000004 -0.000001 8.039619 0.000000 0.000000 0.318947
    21 2.899849 -0.471046 -4.331210 -0.333509 -0.630519 -0.915402
    22 -0.000025 2.543312 0.000026 0.217358 0.040231 -0.180100
    23 0.000059 2.315285 -0.000040 0.099114 0.018457 -0.183540
    24 1.551407 3.956631 -3.900798 2.393589 -1.367686 -3.120704
    25 0.000000 2.741436 -0.000004 -0.558500 0.000000 0.000000
    26 0.000010 2.668510 0.000050 -0.492763 0.000000 0.000000
    27 1.401100 3.639805 -1.202109 1.728683 -1.355921 -2.446708
    28 0.000003 2.810951 0.000004 -0.558500 0.000000 0.000000
    29 -0.000005 2.736202 -0.000031 -0.492763 0.000000 0.000000
    30 1.335663 3.182098 1.418086 0.723135 -1.251586 -1.414893
    31 -0.000003 2.663269 0.000046 -0.513118 0.000000 0.000000
    32 0.000001 2.592527 -0.000031 -0.447386 0.000000 0.000000
    33 1.344765 1.881123 3.809589 0.859936 -1.203036 -1.477199
    34 0.000011 2.315664 -0.000084 -0.516589 0.000000 0.000000
    35 -0.000006 2.254017 0.000076 -0.450892 0.000000 0.000000
    36 0.011267 -6.809892 1.974034 -0.607824 0.000000 0.000000
    37 -0.011248 6.809885 -1.974043 -0.607824 0.000000 0.000000
  time 10
    0 53.853951 -51.545343 43.218750 -0.838411 0.082918 0.330533
    1 0.000000 -5.257813 -1.001953 -0.315952 -0.024082 -0.233324
    2 0.000000 -7.488277 -0.000001 0.000078 0.038211 -0.005493
    3 0.000000 -5.597980 0.000000 0.114367 0.211441 -0.010844
    4 0.000000 -6.565113 -0.000001 0.764447 0.197312 -0.014557
    5 -1.549380 -5.102886 -4.074768 2.208346 -0.483677 -0.984533
    6 -0.000053 11.987244 0.000028 -1.107249 -0.574881 -3.020659
    7 20.109314 0.000000 -0.000002 -1.273326 -1.373167 -0.326188
    8 19.941738 0.000001 -0.000004 0.428778 -0.889387 -2.319225
    9 6.938272 1.999413 -1.014580 2.997774 0.207141 1.526936
    10 20.710249 -0.000001 0.000000 0.000000 0.106129 0.000000
    11 18.105982 0.000001 0.000000 -0.692152 -0.145028 1.819957
    12 -6.938270 1.999409 -1.014579 1.242897 1.410615 1.075662
    13 20.710224 0.000000 0.000000 0.000000 0.000000 1.401938
    14 18.106007 0.000000 -0.000001 -1.060349 -1.126043 -1.486043
    15 0.000000 -6.555973 0.000000 0.152370 0.413149 0.400270
    16 0.000000 -3.252140 0.000004 -0.808026 -0.237306 -0.210671
    17 1.548545 -4.925743 -4.285366 -2.687983 -0.676976 -1.800426
    18 1.190170 -10.472042 -0.306138 1.353248 -0.238019 -0.934260
    19 0.000008 0.000000 15.020973 -0.201994 -0.066154 0.008339
    20 0.000004 -0.000001 8.039619 0.000000 0.000000 0.318947
    21 2.899849 -0.471046 -4.331210 -0.333509 -0.630519 -0.915402
    22 -0.000025 2.543312 0.000026 0.217358 0.040231 -0.180100
    23 0.000059 2.315285 -0.000040 0.099114 0.018457 -0.183540
    24 1.551407 3.956631 -3.900798 2.393589 -1.367686 -3.120704
    25 0.000000 2.741436 -0.000004 -0.558500 0.000000 0.000000
    26 0.000010 2.668510 0.000050 -0.492763 0.000000 0.000000
    27 1.401100 3.639805 -1.202109 1.728683 -1.355921 -2.446708
    28 0.000003 2.810951 0.000004 -0.558500 0.000000 0.000000
    29 -0.000005 2.736202 -0.000031 -0.492763 0.000000 0.000000
    30 1.335663 3.182098 1.418086 0.723135 -1.251586 -1.414893
    31 -0.000003 2.663269 0.000046 -0.513118 0.000000 0.000000
    32 0.000001 2.592527 -0.000031 -0.447386 0.000000 0.000000
    33 1.344765 1.881123 3.809589 0.859936 -1.203036 -1.477199
    34 0.000011 2.315664 -0.000084 -0.516589 0.000000 0.000000
    35 -0.000006 2.254017 0.000076 -0.450892 0.000000 0.000000
    36 0.011267 -6.809892 1.974034 -0.811330 0.001712 0.016669
    37 -0.011248 6.809885 -1.974043 -0.607824 0.000000 0.000000
  time 11
    0 61.728018 -58.159643 44.062500 -0.912559 0.021256 0.250016
    1 0.000000 -5.257813 -1.001953 -0.280249 -0.013326 -0.161650
    2 0.000000 -7.488277 -0.000001 0.051750 0.048202 -0.026725
    3 0.000000 -5.597980 0.000000 0.108865 0.222002 -0.012825
    4 0.000000 -6.565113 -0.000001 0.770837 0.192234 -0.029639
    5 -1.549380 -5.102886 -4.074768 2.268325 -0.453175 -0.968702
    6 -0.000053 11.987244 0.000028 -1.067169 -0.614554 -3.033771
    7 20.109314 0.000000 -0.000002 -1.030392 -1.458161 -0.574064
    8 19.941738 0.000001 -0.000004 0.500602 -0.955096 -2.317040
    9 6.938272 1.999413 -1.014580 3.138503 -0.059461 1.713928
    10 20.710249 -0.000001 0.000000 0.000000 0.002258 0.000000
    11 18.105982 0.000001 0.000000 -0.415272 -0.158862 1.846160
    12 -6.938270 1.999409 -1.014579 0.895825 1.286975 0.910518
    13 20.710224 0.000000 0.000000 0.000000 0.000000 1.123034
    14 18.106007 0.000000 -0.000001 -1.127586 -1.107667 -1.551042
    15 0.000000 -6.555973 0.000000 0.117510 0.437002 0.417002
    16 0.000000 -3.252140 0.000004 -0.832413 -0.261068 -0.224083
    17 1.548545 -4.925743 -4.285366 -2.625669 -0.663991 -1.853682
    18 1.190170 -10.472042 -0.306138 1.353248 -0.238019 -0.934260
    19 0.000008 0.000000 15.020973 -0.201994 -0.066154 0.008339
    20 0.000004 -0.000001 8.039619 0.000000 0.000000 0.318947
    21 2.899849 -0.471046 -4.331210 -0.333509 -0.630519 -0.915402
    22 -0.000025 2.543312 0.000026 0.217358 0.040231 -0.180100
    23 0.000059 2.315285 -0.000040 0.099114 0.018457 -0.183540
    24 1.551407 3.956631 -3.900798 2.393589 -1.367686 -3.120704
    25 0.000000 2.741436 -0.000004 -0.558500 0.000000 0.000000
    26 0.000010 2.668510 0.000050 -0.492763 0.000000 0.000000
    27 1.401100 3.639805 -1.202109 1.728683 -1.355921 -2.446708
    28 0.000003 2.810951 0.000004 -0.558500 0.000000 0.000000
    29 -0.000005 2.736202 -0.000031 -0.492763 0.000000 0.000000
    30 1.335663 3.182098 1.418086 0.723135 -1.251586 -1.414893
    31 -0.000003 2.663269 0.000046 -0.513118 0.000000 0.000000
    32 0.000001 2.592527 -0.000031 -0.447386 0.000000 0.000000
    33 1.344765 1.881123 3.809589 0.859936 -1.203036 -1.477199
    34 0.000011 2.315664 -0.000084 -0.516589 0.000000 0.000000
    35 -0.000006 2.254017 0.000076 -0.450892 0.000000 0.000000
    36 0.011267 -6.809892 1.974034 -0.607824 0.000000 0.000000
    37 -0.011248 6.809885 -1.974043 -0.607824 0.000000 0.000000
  time 12
    0 69.385777 -65.500505 43.500000 -1.032360 -0.061063 0.170285
    1 0.000000 -5.257813 -1.001953 -0.221886 -0.023793 -0.077827
    2 0.000000 -7.488277 -0.000001 0.084282 0.039989 -0.021044
    3 0.000000 -5.597980 0.000000 0.154817 0.192349 0.004633
    4 0.000000 -6.565113 -0.000001 0.811021 0.174063 -0.024703
    5 -1.549380 -5.102886 -4.074768 2.313800 -0.484235 -1.058948
    6 -0.000053 11.987244 0.000028 -1.109171 -0.779612 -2.975538
    7 20.109314 0.000000 -0.000002 -0.957500 -1.470058 -0.647668
    8 19.941738 0.000001 -0.000004 0.504487 -0.967946 -2.164844
    9 6.938272 1.999413 -1.014580 3.002367 0.105789 1.816927
    10 20.710249 -0.000001 0.000000 0.000000 0.768069 0.000000
    11 18.105982 0.000001 0.000000 -0.731978 0.019481 1.876697
    12 -6.938270 1.999409 -1.014579 1.173800 1.142339 1.189391
    13 20.710224 0.000000 0.000000 0.000000 0.000000 0.887482
    14 18.106007 0.000000 -0.000001 -1.449798 -1.140215 -1.468788
    15 0.000000 -6.555973 0.000000 0.066966 0.353893 0.371367
    16 0.000000 -3.252140 0.000004 -0.838362 -0.213235 -0.196789
    17 1.548545 -4.925743 -4.285366 -2.671468 -0.648235 -1.925196
    18 1.190170 -10.472042 -0.306138 1.353248 -0.238019 -0.934260
    19 0.000008 0.000000 15.020973 -0.201994 -0.066154 0.008339
    20 0.000004 -0.000001 8.039619 0.000000 0.000000 0.318947
    21 2.899849 -0.471046 -4.331210 -0.333509 -0.630519 -0.915402
    22 -0.000025 2.543312 0.000026 0.217358 0.040231 -0.180100
    23 0.000059 2.315285 -0.000040 0.099114 0.018457 -0.183540
    24 1.551407 3.956631 -3.900798 2.393589 -1.367686 -3.120704
    25 0.000000 2.741436 -0.000004 -0.558500 0.000000 0.000000
    26 0.000010 2.668510 0.000050 -0.492763 0.000000 0.000000
    27 1.401100 3.639805 -1.202109 1.728683 -1.355921 -2.446708
    28 0.000003 2.810951 0.000004 -0.558500 0.000000 0.000000
    29 -0.000005 2.736202 -0.000031 -0.492763 0.000000 0.000000
    30 1.335663 3.182098 1.418086 0.723135 -1.251586 -1.414893
    31 -0.000003 2.663269 0.000046 -0.513118 0.000000 0.000000
    32 0.000001 2.592527 -0.000031 -0.447386 0.000000 0.000000
    33 1.344765 1.881123 3.809589 0.859936 -1.203036 -1.477199
    34 0.000011 2.315664 -0.000084 -0.516589 0.000000 0.000000
    35 -0.000006 2.254017 0.000076 -0.450892 0.000000 0.000000
    36 0.011267 -6.809892 1.974034 -0.607824 0.000000 0.000000
    37 -0.011248 6.809885 -1.974043 -0.607824 0.000000 0.000000
  time 13
    0 72.874590 -69.274961 42.843750 -1.035576 -0.070944 0.130884
    1 0.000000 -5.257813 -1.001953 -0.202117 -0.043615 -0.077089
    2 0.000000 -7.488277 -0.000001 0.067145 0.028123 -0.000888
    3 0.000000 -5.597980 0.000000 0.140191 0.157630 0.009985
    4 0.000000 -6.565113 -0.000001 0.786460 0.135858 -0.005017
    5 -1.549380 -5.102886 -4.074768 2.381348 -0.560937 -1.153176
    6 -0.000053 11.987244 0.000028 -1.145675 -0.858079 -3.014489
    7 20.109314 0.000000 -0.000002 -0.964708 -1.469135 -0.640508
    8 19.941738 0.000001 -0.000004 0.472228 -0.927088 -2.003119
    9 6.938272 1.999413 -1.014580 3.011091 0.261560 1.798806
    10 20.710249 -0.000001 0.000000 0.000000 1.108860 0.000000
    11 18.105982 0.000001 0.000000 -0.841152 0.225087 1.892644
    12 -6.938270 1.999409 -1.014579 1.118545 0.968747 1.136124
    13 20.710224 0.000000 0.000000 0.000000 0.000000 0.340386
    14 18.106007 0.000000 -0.000001 -1.713747 -1.041046 -0.922017
    15 0.000000 -6.555973 0.000000 0.056777 0.314833 0.378971
    16 0.000000 -3.252140 0.000004 -0.851022 -0.159209 -0.140954
    17 1.548545 -4.925743 -4.285366 -2.715812 -0.656951 -1.890648
    18 1.190170 -10.472042 -0.306138 1.353248 -0.238019 -0.934260
    19 0.000008 0.000000 15.020973 -0.201994 -0.066154 0.008339
    20 0.000004 -0.000001 8.039619 0.000000 0.000000 0.318947
    21 2.899849 -0.471046 -4.331210 -0.333509 -0.630519 -0.915402
    22 -0.000025 2.543312 0.000026 0.217358 0.040231 -0.180100
    23 0.000059 2.315285 -0.000040 0.099114 0.018457 -0.183540
    24 1.551407 3.956631 -3.900798 2.393589 -1.367686 -3.120704
    25 0.000000 2.741436 -0.000004 -0.558500 0.000000 0.000000
    26 0.000010 2.668510 0.000050 -0.492763 0.000000 0.000000
    27 1.401100 3.639805 -1.202109 1.728683 -1.355921 -2.446708
    28 0.000003 2.810951 0.000004 -0.558500 0.000000 0.000000
    29 -0.000005 2.736202 -0.000031 -0.492763 0.000000 0.000000
    30 1.335663 3.182098 1.418086 0.723135 -1.251586 -1.414893
    31 -0.000003 2.663269 0.000046 -0.513118 0.000000 0.000000
    32 0.000001 2.592527 -0.000031 -0.447386 0.000000 0.000000
    33 1.344765 1.881123 3.809589 0.859936 -1.203036 -1.477199
    34 0.000011 2.315664 -0.000084 -0.516589 0.000000 0.000000
    35 -0.000006 2.254017 0.000076 -0.450892 0.000000 0.000000
    36 0.011267 -6.809892 1.974034 -0.607824 0.000000 0.000000
    37 -0.011248 6.809885 -1.974043 -0.607824 0.000000 0.000000
  time 14
    0 76.381469 -73.076761 42.187500 -1.038588 -0.080578 0.091266
    1 0.000000 -5.257813 -1.001953 -0.182319 -0.063566 -0.076625
    2 0.000000 -7.488277 -0.000001 0.049725 0.016191 0.019208
    3 0.000000 -5.597980 0.000000 0.125304 0.110504 0.012697
    4 0.000000 -6.565113 -0.000001 0.761241 0.088086 0.024607
    5 -1.549380 -5.102886 -4.074768 2.431742 -0.738133 -0.980752
    6 -0.000053 11.987244 0.000028 -0.925584 -0.617111 -3.139053
    7 20.109314 0.000000 -0.000002 -0.477171 -1.505450 -1.130828
    8 19.941738 0.000001 -0.000004 0.650178 -0.895557 -2.377096
    9 6.938272 1.999413 -1.014580 3.034812 0.379552 1.789047
    10 20.710249 -0.000001 0.000000 0.000000 1.370754 0.000000
    11 18.105982 0.000001 0.000000 -0.901908 0.425790 1.848745
    12 -6.938270 1.999409 -1.014579 1.366337 0.992241 1.359042
    13 20.710224 0.000000 0.000000 0.000000 0.000000 0.774591
    14 18.106007 0.000000 -0.000001 -1.366474 -1.202623 -1.345725
    15 0.000000 -6.555973 0.000000 0.045809 0.275981 0.386983
    16 0.000000 -3.252140 0.000004 -0.859465 -0.107922 -0.090697
    17 1.548545 -4.925743 -4.285366 -2.761146 -0.665572 -1.855208
    18 1.190170 -10.472042 -0.306138 1.353248 -0.238019 -0.934260
    19 0.000008 0.000000 15.020973 -0.201994 -0.066154 0.008339
    20 0.000004 -0.000001 8.039619 0.000000 0.000000 0.318947
    21 2.899849 -0.471046 -4.331210 -0.333509 -0.630519 -0.915402
    22 -0.000025 2.543312 0.000026 0.217358 0.040231 -0.180100
    23 0.000059 2.315285 -0.000040 0.099114 0.018457 -0.183540
    24 1.551407 3.956631 -3.900798 2.393589 -1.367686 -3.120704
    25 0.000000 2.741436 -0.000004 -0.558500 0.000000 0.000000
    26 0.000010 2.668510 0.000050 -0.492763 0.000000 0.000000
    27 1.401100 3.639805 -1.202109 1.728683 -1.355921 -2.446708
    28 0.000003 2.810951 0.000004 -0.558500 0.000000 0.000000
    29 -0.000005 2.736202 -0.000031 -0.492763 0.000000 0.000000
    30 1.335663 3.182098 1.418086 0.723135 -1.251586 -1.414893
    31 -0.000003 2.663269 0.000046 -0.513118 0.000000 0.000000
    32 0.000001 2.592527 -0.000031 -0.447386 0.000000 0.000000
    33 1.344765 1.881123 3.809589 0.859936 -1.203036 -1.477199
    34 0.000011 2.315664 -0.000084 -0.516589 0.000000 0.000000
    35 -0.000006 2.254017 0.000076 -0.450892 0.000000 0.000000
    36 0.011267 -6.809892 1.974034 -0.607824 0.000000 0.000000
    37 -0.011248 6.809885 -1.974043 -0.607824 0.000000 0.000000
  time 15
    0 82.058271 -79.874655 40.843750 -0.966201 -0.007638 -0.018742
    1 0.000000 -5.257813 -1.001953 -0.134478 -0.092955 -0.136913
    2 0.000000 -7.488277 -0.000001 -0.017194 -0.007392 0.027776
    3 0.000000 -5.597980 0.000000 0.056227 0.001767 0.006644
    4 0.000000 -6.565113 -0.000001 0.637376 0.011266 0.059384
    5 -1.549380 -5.102886 -4.074768 2.691857 -0.795026 -0.925509
    6 -0.000053 11.987244 0.000028 -0.680954 -0.607255 3.039156
    7 20.109314 0.000000 -0.000002 -0.311180 -1.509797 -1.297485
    8 19.941738 0.000001 -0.000004 0.609512 -0.710179 -2.450229
    9 6.938272 1.999413 -1.014580 3.088823 0.705806 1.574958
    10 20.710249 -0.000001 0.000000 3.141593 1.350020 3.141593
    11 18.105982 0.000001 0.000000 -0.977743 0.394607 1.722107
    12 -6.938270 1.999409 -1.014579 1.238754 0.962341 1.353308
    13 20.710224 0.000000 0.000000 0.000000 0.000000 0.957277
    14 18.106007 0.000000 -0.000001 -1.219563 -1.237295 -1.754008
    15 0.000000 -6.555973 0.000000 0.025859 0.251697 0.428165
    16 0.000000 -3.252140 0.000004 -0.866179 -0.070758 -0.078202
    17 1.548545 -4.925743 -4.285366 -2.771451 -0.695616 -1.683875
    18 1.190170 -10.472042 -0.306138 1.353248 -0.238019 -0.934260
    19 0.000008 0.000000 15.020973 -0.201994 -0.066154 0.008339
    20 0.000004 -0.000001 8.039619 0.000000 0.000000 0.318947
    21 2.899849 -0.471046 -4.331210 -0.333509 -0.630519 -0.915402
    22 -0.000025 2.543312 0.000026 0.217358 0.040231 -0.180100
    23 0.000059 2.315285 -0.000040 0.099114 0.018457 -0.183540
    24 1.551407 3.956631 -3.900798 2.393589 -1.367686 -3.120704
    25 0.000000 2.741436 -0.000004 -0.558500 0.000000 0.000000
    26 0.000010 2.668510 0.000050 -0.492763 0.000000 0.000000
    27 1.401100 3.639805 -1.202109 1.728683 -1.355921 -2.446708
    28 0.000003 2.810951 0.000004 -0.558500 0.000000 0.000000
    29 -0.000005 2.736202 -0.000031 -0.492763 0.000000 0.000000
    30 1.335663 3.182098 1.418086 0.723135 -1.251586 -1.414893
    31 -0.000003 2.663269 0.000046 -0.513118 0.000000 0.000000
    32 0.000001 2.592527 -0.000031 -0.447386 0.000000 0.000000
    33 1.344765 1.881123 3.809589 0.859936 -1.203036 -1.477199
    34 0.000011 2.315664 -0.000084 -0.516589 0.000000 0.000000
    35 -0.000006 2.254017 0.000076 -0.450892 0.000000 0.000000
    36 0.011267 -6.809892 1.974034 -0.607824 0.000000 0.000000
    37 -0.011248 6.809885 -1.974043 -0.607824 0.000000 0.000000
  time 16
    0 89.598353 -87.910830 40.437500 -0.896391 -0.026136 -0.099354
    1 0.000000 -5.257813 -1.001953 -0.220965 -0.150110 -0.046879
    2 0.000000 -7.488277 -0.000001 -0.011151 -0.030701 0.022513
    3 0.000000 -5.597980 0.000000 0.057538 -0.110941 0.002063
    4 0.000000 -6.565113 -0.000001 0.625453 -0.088774 0.098101
    5 -1.549380 -5.102886 -4.074768 2.904684 -0.709023 -1.062169
    6 -0.000053 11.987244 0.000028 -0.344214 -0.558018 2.561288
    7 20.109314 0.000000 -0.000002 1.360733 -1.284837 -2.985630
    8 19.941738 0.000001 -0.000004 0.246043 -0.545743 -2.342049
    9 6.938272 1.999413 -1.014580 2.801208 0.858134 1.273432
    10 20.710249 -0.000001 0.000000 -3.141593 1.249858 -3.141593
    11 18.105982 0.000001 0.000000 -0.986962 0.200821 1.759338
    12 -6.938270 1.999409 -1.014579 1.530775 0.744879 1.805020
    13 20.710224 0.000000 0.000000 0.000000 0.000000 0.776569
    14 18.106007 0.000000 -0.000001 -0.416520 -1.323325 -2.680051
    15 0.000000 -6.555973 0.000000 0.012042 0.260547 0.295900
    16 0.000000 -3.252140 0.000004 -0.861441 -0.065762 -0.136216
    17 1.548545 -4.925743 -4.285366 -2.507504 -0.642851 -1.903004
    18 1.190170 -10.472042 -0.306138 1.353248 -0.238019 -0.934260
    19 0.000008 0.000000 15.020973 -0.201994 -0.066154 0.008339
    20 0.000004 -0.000001 8.039619 0.000000 0.000000 0.318947
    21 2.899849 -0.471046 -4.331210 -0.333509 -0.630519 -0.915402
    22 -0.000025 2.543312 0.000026 0.217358 0.040231 -0.180100
    23 0.000059 2.315285 -0.000040 0.099114 0.018457 -0.183540
    24 1.551407 3.956631 -3.900798 2.393589 -1.367686 -3.120704
    25 0.000000 2.741436 -0.000004 -0.558500 0.000000 0.000000
    26 0.000010 2.668510 0.000050 -0.492763 0.000000 0.000000
    27 1.401100 3.639805 -1.202109 1.728683 -1.355921 -2.446708
    28 0.000003 2.810951 0.000004 -0.558500 0.000000 0.000000
    29 -0.000005 2.736202 -0.000031 -0.492763 0.000000 0.000000
    30 1.335663 3.182098 1.418086 0.723135 -1.251586 -1.414893
    31 -0.000003 2.663269 0.000046 -0.513118 0.000000 0.000000
    32 0.000001 2.592527 -0.000031 -0.447386 0.000000 0.000000
    33 1.344765 1.881123 3.809589 0.859936 -1.203036 -1.477199
    34 0.000011 2.315664 -0.000084 -0.516589 0.000000 0.000000
    35 -0.000006 2.254017 0.000076 -0.450892 0.000000 0.000000
    36 0.011267 -6.809892 1.974034 -0.607824 0.000000 0.000000
    37 -0.011248 6.809885 -1.974043 -0.607824 0.000000 0.000000
  time 17
    0 97.160897 -95.970442 40.062500 -0.826681 -0.044644 -0.179981
    1 0.000000 -5.257813 -1.001953 -0.307003 -0.207233 0.043103
    2 0.000000 -7.488277 -0.000001 -0.004987 -0.053982 0.017353
    3 0.000000 -5.597980 0.000000 0.061142 -0.214345 -0.001053
    4 0.000000 -6.565113 -0.000001 0.613513 -0.194824 0.143972
    5 -1.549380 -5.102886 -4.074768 2.780651 -0.658725 -0.940265
    6 -0.000053 11.987244 0.000028 -0.269983 -0.450809 2.412605
    7 20.109314 0.000000 -0.000002 1.411256 -1.190062 -3.041430
    8 19.941738 0.000001 -0.000004 -0.060068 -0.513574 -2.063825
    9 6.938272 1.999413 -1.014580 2.357875 0.824666 0.848862
    10 20.710249 -0.000001 0.000000 3.141593 1.521986 3.141593
    11 18.105982 0.000001 0.000000 -1.389174 -0.209950 1.835442
    12 -6.938270 1.999409 -1.014579 1.835652 0.566560 2.227712
    13 20.710224 0.000000 0.000000 0.000000 0.000000 0.679242
    14 18.106007 0.000000 -0.000001 1.056487 -1.077838 2.685137
    15 0.000000 -6.555973 0.000000 -0.004000 0.269853 0.162742
    16 0.000000 -3.252140 0.000004 -0.855739 -0.091583 -0.231643
    17 1.548545 -4.925743 -4.285366 -2.272119 -0.571291 -2.103052
    18 1.190170 -10.472042 -0.306138 1.353248 -0.238019 -0.934260
    19 0.000008 0.000000 15.020973 -0.201994 -0.066154 0.008339
    20 0.000004 -0.000001 8.039619 0.000000 0.000000 0.318947
    21 2.899849 -0.471046 -4.331210 -0.333509 -0.630519 -0.915402
    22 -0.000025 2.543312 0.000026 0.217358 0.040231 -0.180100
    23 0.000059 2.315285 -0.000040 0.099114 0.018457 -0.183540
    24 1.551407 3.956631 -3.900798 2.393589 -1.367686 -3.120704
    25 0.000000 2.741436 -0.000004 -0.558500 0.000000 0.000000
    26 0.000010 2.668510 0.000050 -0.492763 0.000000 0.000000
    27 1.401100 3.639805 -1.202109 1.728683 -1.355921 -2.446708
    28 0.000003 2.810951 0.000004 -0.558500 0.000000 0.000000
    29 -0.000005 2.736202 -0.000031 -0.492763 0.000000 0.000000
    30 1.335663 3.182098 1.418086 0.723135 -1.251586 -1.414893
    31 -0.000003 2.663269 0.000046 -0.513118 0.000000 0.000000
    32 0.000001 2.592527 -0.000031 -0.447386 0.000000 0.000000
    33 1.344765 1.881123 3.809589 0.859936 -1.203036 -1.477199
    34 0.000011 2.315664 -0.000084 -0.516589 0.000000 0.000000
    35 -0.000006 2.254017 0.000076 -0.450892 0.000000 0.000000
    36 0.011267 -6.809892 1.974034 -0.607824 0.000000 0.000000
    37 -0.011248 6.809885 -1.974043 -0.997969 0.006190 0.031384
  time 18
    0 104.050589 -103.615015 42.031250 -0.860904 -0.020355 -0.172948
    1 0.000000 -5.257813 -1.001953 -0.305170 -0.207785 0.028093
    2 0.000000 -7.488277 -0.000001 0.010997 -0.070113 0.036505
    3 0.000000 -5.597980 0.000000 0.095233 -0.286504 0.003540
    4 0.000000 -6.565113 -0.000001 0.730354 -0.269865 0.138698
    5 -1.549380 -5.102886 -4.074768 2.657753 -0.618287 -0.851614
    6 -0.000053 11.987244 0.000028 -0.096635 -0.341164 2.718708
    7 20.109314 0.000000 -0.000002 1.270855 -1.371120 -2.890854
    8 19.941738 0.000001 -0.000004 0.254775 -0.566315 -2.468967
    9 6.938272 1.999413 -1.014580 1.933089 0.647287 0.635076
    10 20.710249 -0.000001 0.000000 0.000000 1.222852 0.000000
    11 18.105982 0.000001 0.000000 -1.297898 -0.484072 1.754061
    12 -6.938270 1.999409 -1.014579 1.359361 0.108783 2.139432
    13 20.710224 0.000000 0.000000 0.000000 0.000000 0.000000
    14 18.106007 0.000000 -0.000001 0.967632 -0.982772 -2.792608
    15 0.000000 -6.555973 0.000000 0.034792 0.201546 0.088951
    16 0.000000 -3.252140 0.000004 -0.832202 -0.129798 -0.295189
    17 1.548545 -4.925743 -4.285366 -2.213691 -0.580817 -2.031456
    18 1.190170 -10.472042 -0.306138 1.353248 -0.238019 -0.934260
    19 0.000008 0.000000 15.020973 -0.201994 -0.066154 0.008339
    20 0.000004 -0.000001 8.039619 0.000000 0.000000 0.318947
    21 2.899849 -0.471046 -4.331210 -0.333509 -0.630519 -0.915402
    22 -0.000025 2.543312 0.000026 0.217358 0.040231 -0.180100
    23 0.000059 2.315285 -0.000040 0.099114 0.018457 -0.183540
    24 1.551407 3.956631 -3.900798 2.393589 -1.367686 -3.120704
    25 0.000000 2.741436 -0.000004 -0.558500 0.000000 0.000000
    26 0.000010 2.668510 0.000050 -0.492763 0.000000 0.000000
    27 1.401100 3.639805 -1.202109 1.728683 -1.355921 -2.446708
    28 0.000003 2.810951 0.000004 -0.558500 0.000000 0.000000
    29 -0.000005 2.736202 -0.000031 -0.492763 0.000000 0.000000
    30 1.335663 3.182098 1.418086 0.723135 -1.251586 -1.414893
    31 -0.000003 2.663269 0.000046 -0.513118 0.000000 0.000000
    32 0.000001 2.592527 -0.000031 -0.447386 0.000000 0.000000
    33 1.344765 1.881123 3.809589 0.859936 -1.203036 -1.477199
    34 0.000011 2.315664 -0.000084 -0.516589 0.000000 0.000000
    35 -0.000006 2.254017 0.000076 -0.450892 0.000000 0.000000
    36 0.011267 -6.809892 1.974034 -0.607824 0.000000 0.000000
    37 -0.011248 6.809885 -1.974043 -0.607824 0.000000 0.000000
  time 19
    0 107.480320 -107.242011 42.656250 -0.943909 -0.010299 -0.120842
    1 0.000000 -5.257813 -1.001953 -0.242372 -0.192275 -0.003197
    2 0.000000 -7.488277 -0.000001 0.033545 -0.064773 0.035438
    3 0.000000 -5.597980 0.000000 0.154062 -0.281268 -0.001203
    4 0.000000 -6.565113 -0.000001 0.780153 -0.267554 0.127229
    5 -1.549380 -5.102886 -4.074768 2.665852 -0.588248 -0.935595
    6 -0.000053 11.987244 0.000028 0.055912 -0.427837 2.796246
    7 20.109314 0.000000 -0.000002 1.230257 -1.394624 -2.848811
    8 19.941738 0.000001 -0.000004 0.473857 -0.516778 -2.659136
    9 6.938272 1.999413 -1.014580 1.932046 0.587613 0.668927
    10 20.710249 -0.000001 0.000000 0.000000 1.007253 0.000000
    11 18.105982 0.000001 0.000000 -1.313178 -0.653216 1.608701
    12 -6.938270 1.999409 -1.014579 1.341904 0.051392 2.093284
    13 20.710224 0.000000 0.000000 0.000000 0.000000 0.189125
    14 18.106007 0.000000 -0.000001 1.141515 -0.973923 -2.964746
    15 0.000000 -6.555973 0.000000 0.067576 0.186932 0.094200
    16 0.000000 -3.252140 0.000004 -0.818441 -0.143373 -0.306623
    17 1.548545 -4.925743 -4.285366 -2.245635 -0.618819 -1.927543
    18 1.190170 -10.472042 -0.306138 1.353248 -0.238019 -0.934260
    19 0.000008 0.000000 15.020973 -0.201994 -0.066154 0.008339
    20 0.000004 -0.000001 8.039619 0.000000 0.000000 0.318947
    21 2.899849 -0.471046 -4.331210 -0.333509 -0.630519 -0.915402
    22 -0.000025 2.543312 0.000026 0.217358 0.040231 -0.180100
    23 0.000059 2.315285 -0.000040 0.099114 0.018457 -0.183540
    24 1.551407 3.956631 -3.900798 2.393589 -1.367686 -3.120704
    25 0.000000 2.741436 -0.000004 -0.558500 0.000000 0.000000
    26 0.000010 2.668510 0.000050 -0.492763 0.000000 0.000000
    27 1.401100 3.639805 -1.202109 1.728683 -1.355921 -2.446708
    28 0.000003 2.810951 0.000004 -0.558500 0.000000 0.000000
    29 -0.000005 2.736202 -0.000031 -0.492763 0.000000 0.000000
    30 1.335663 3.182098 1.418086 0.723135 -1.251586 -1.414893
    31 -0.000003 2.663269 0.000046 -0.513118 0.000000 0.000000
    32 0.000001 2.592527 -0.000031 -0.447386 0.000000 0.000000
    33 1.344765 1.881123 3.809589 0.859936 -1.203036 -1.477199
    34 0.000011 2.315664 -0.000084 -0.516589 0.000000 0.000000
    35 -0.000006 2.254017 0.000076 -0.450892 0.000000 0.000000
    36 0.011267 -6.809892 1.974034 -0.607824 0.000000 0.000000
    37 -0.011248 6.809885 -1.974043 -0.607824 0.000000 0.000000
  time 20
    0 110.930559 -110.891467 43.312500 -1.027258 -0.000214 -0.068555
    1 0.000000 -5.257813 -1.001953 -0.179255 -0.176661 -0.034657
    2 0.000000 -7.488277 -0.000001 0.056150 -0.059355 0.034375
    3 0.000000 -5.597980 0.000000 0.210837 -0.236515 0.002670
    4 0.000000 -6.565113 -0.000001 0.831820 -0.249322 0.098614
    5 -1.549380 -5.102886 -4.074768 2.705139 -0.558967 -1.070242
    6 -0.000053 11.987244 0.000028 0.150611 -0.652325 2.726153
    7 20.109314 0.000000 -0.000002 1.023692 -1.458544 -2.638477
    8 19.941738 0.000001 -0.000004 0.738156 -0.577373 -2.600566
    9 6.938272 1.999413 -1.014580 1.914536 0.515868 0.756941
    10 20.710249 -0.000001 0.000000 0.000000 0.478427 0.000000
    11 18.105982 0.000001 0.000000 -0.888308 -0.705142 1.140811
    12 -6.938270 1.999409 -1.014579 1.339011 0.029027 2.042986
    13 20.710224 0.000000 0.000000 0.000000 0.000000 0.468130
    14 18.106007 0.000000 -0.000001 1.325186 -0.965773 3.089124
    15 0.000000 -6.555973 0.000000 0.100317 0.172065 0.099471
    16 0.000000 -3.252140 0.000004 -0.806930 -0.143624 -0.301305
    17 1.548545 -4.925743 -4.285366 -2.287097 -0.653901 -1.818427
    18 1.190170 -10.472042 -0.306138 1.353248 -0.238019 -0.934260
    19 0.000008 0.000000 15.020973 -0.201994 -0.066154 0.008339
    20 0.000004 -0.000001 8.039619 0.000000 0.000000 0.318947
    21 2.899849 -0.471046 -4.331210 -0.333509 -0.630519 -0.915402
    22 -0.000025 2.543312 0.000026 0.217358 0.040231 -0.180100
    23 0.000059 2.315285 -0.000040 0.099114 0.018457 -0.183540
    24 1.551407 3.956631 -3.900798 2.393589 -1.367686 -3.120704
    25 0.000000 2.741436 -0.000004 -0.558500 0.000000 0.000000
    26 0.000010 2.668510 0.000050 -0.492763 0.000000 0.000000
    27 1.401100 3.639805 -1.202109 1.728683 -1.355921 -2.446708
    28 0.000003 2.810951 0.000004 -0.558500 0.000000 0.000000
    29 -0.000005 2.736202 -0.000031 -0.492763 0.000000 0.000000
    30 1.335663 3.182098 1.418086 0.723135 -1.251586 -1.414893
    31 -0.000003 2.663269 0.000046 -0.513118 0.000000 0.000000
    32 0.000001 2.592527 -0.000031 -0.447386 0.000000 0.000000
    33 1.344765 1.881123 3.809589 0.859936 -1.203036 -1.477199
    34 0.000011 2.315664 -0.000084 -0.516589 0.000000 0.000000
    35 -0.000006 2.254017 0.000076 -0.450892 0.000000 0.000000
    36 0.011267 -6.809892 1.974034 -0.607824 0.000000 0.000000
    37 -0.011248 6.809885 -1.974043 -0.607824 0.000000 0.000000
  time 21
    0 117.837829 -117.841704 43.125000 -1.128518 0.040288 0.026853
    1 0.000000 -5.257813 -1.001953 -0.107667 -0.150363 -0.106078
    2 0.000000 -7.488277 -0.000001 0.082551 -0.041754 0.030171
    3 0.000000 -5.597980 0.000000 0.279788 -0.172643 0.008543
    4 0.000000 -6.565113 -0.000001 0.908552 -0.184924 0.085814
    5 -1.549380 -5.102886 -4.074768 2.684775 -0.538210 -1.159289
    6 -0.000053 11.987244 0.000028 0.072521 -0.723238 2.728577
    7 20.109314 0.000000 -0.000002 1.110304 -1.439053 -2.726333
    8 19.941738 0.000001 -0.000004 0.867184 -0.717461 -2.587641
    9 6.938272 1.999413 -1.014580 2.164463 0.454020 0.928148
    10 20.710249 -0.000001 0.000000 0.000000 0.154940 0.000000
    11 18.105982 0.000001 0.000000 -0.812663 -0.528751 0.986498
    12 -6.938270 1.999409 -1.014579 1.419925 0.227536 1.885979
    13 20.710224 0.000000 0.000000 0.000000 0.000000 1.239298
    14 18.106007 0.000000 -0.000001 1.311382 -1.116623 2.901961
    15 0.000000 -6.555973 0.000000 0.162308 0.194600 0.127666
    16 0.000000 -3.252140 0.000004 -0.793418 -0.144424 -0.299060
    17 1.548545 -4.925743 -4.285366 -2.407357 -0.711583 -1.645389
    18 1.190170 -10.472042 -0.306138 1.353248 -0.238019 -0.934260
    19 0.000008 0.000000 15.020973 -0.201994 -0.066154 0.008339
    20 0.000004 -0.000001 8.039619 0.000000 0.000000 0.318947
    21 2.899849 -0.471046 -4.331210 -0.333509 -0.630519 -0.915402
    22 -0.000025 2.543312 0.000026 0.217358 0.040231 -0.180100
    23 0.000059 2.315285 -0.000040 0.099114 0.018457 -0.183540
    24 1.551407 3.956631 -3.900798 2.393589 -1.367686 -3.120704
    25 0.000000 2.741436 -0.000004 -0.558500 0.000000 0.000000
    26 0.000010 2.668510 0.000050 -0.492763 0.000000 0.000000
    27 1.401100 3.639805 -1.202109 1.728683 -1.355921 -2.446708
    28 0.000003 2.810951 0.000004 -0.558500 0.000000 0.000000
    29 -0.000005 2.736202 -0.000031 -0.492763 0.000000 0.000000
    30 1.335663 3.182098 1.418086 0.723135 -1.251586 -1.414893
    31 -0.000003 2.663269 0.000046 -0.513118 0.000000 0.000000
    32 0.000001 2.592527 -0.000031 -0.447386 0.000000 0.000000
    33 1.344765 1.881123 3.809589 0.859936 -1.203036 -1.477199
    34 0.000011 2.315664 -0.000084 -0.516589 0.000000 0.000000
    35 -0.000006 2.254017 0.000076 -0.450892 0.000000 0.000000
    36 0.011267 -6.809892 1.974034 -0.607824 0.000000 0.000000
    37 -0.011248 6.809885 -1.974043 -0.607824 0.000000 0.000000
  time 22
    0 124.457990 -123.506785 41.781250 -1.083528 0.029204 0.136497
    1 0.000000 -5.257813 -1.001953 -0.092622 -0.091520 -0.122206
    2 0.000000 -7.488277 -0.000001 0.044688 -0.029020 0.046980
    3 0.000000 -5.597980 0.000000 0.272933 -0.084473 0.007509
    4 0.000000 -6.565113 -0.000001 0.912740 -0.103320 0.052062
    5 -1.549380 -5.102886 -4.074768 2.531825 -0.547193 -1.164181
    6 -0.000053 11.987244 0.000028 -0.244941 -0.666302 2.859814
    7 20.109314 0.000000 -0.000002 1.154549 -1.425702 -2.771296
    8 19.941738 0.000001 -0.000004 0.937907 -0.818538 -2.582918
    9 6.938272 1.999413 -1.014580 2.449489 0.610023 1.006575
    10 20.710249 -0.000001 0.000000 0.000000 0.613072 0.000000
    11 18.105982 0.000001 0.000000 -1.146993 -0.505026 1.450394
    12 -6.938270 1.999409 -1.014579 1.572096 0.593785 1.805416
    13 20.710224 0.000000 0.000000 0.000000 0.000000 1.835144
    14 18.106007 0.000000 -0.000001 0.917541 -1.286956 3.043172
    15 0.000000 -6.555973 0.000000 0.174458 0.251698 0.152394
    16 0.000000 -3.252140 0.000004 -0.803124 -0.141769 -0.289816
    17 1.548545 -4.925743 -4.285366 -2.738546 -0.723687 -1.350045
    18 1.190170 -10.472042 -0.306138 1.353248 -0.238019 -0.934260
    19 0.000008 0.000000 15.020973 -0.201994 -0.066154 0.008339
    20 0.000004 -0.000001 8.039619 0.000000 0.000000 0.318947
    21 2.899849 -0.471046 -4.331210 -0.333509 -0.630519 -0.915402
    22 -0.000025 2.543312 0.000026 0.217358 0.040231 -0.180100
    23 0.000059 2.315285 -0.000040 0.099114 0.018457 -0.183540
    24 1.551407 3.956631 -3.900798 2.393589 -1.367686 -3.120704
    25 0.000000 2.741436 -0.000004 -0.558500 0.000000 0.000000
    26 0.000010 2.668510 0.000050 -0.492763 0.000000 0.000000
    27 1.401100 3.639805 -1.202109 1.728683 -1.355921 -2.446708
    28 0.000003 2.810951 0.000004 -0.558500 0.000000 0.000000
    29 -0.000005 2.736202 -0.000031 -0.492763 0.000000 0.000000
    30 1.335663 3.182098 1.418086 0.723135 -1.251586 -1.414893
    31 -0.000003 2.663269 0.000046 -0.513118 0.000000 0.000000
    32 0.000001 2.592527 -0.000031 -0.447386 0.000000 0.000000
    33 1.344765 1.881123 3.809589 0.859936 -1.203036 -1.477199
    34 0.000011 2.315664 -0.000084 -0.516589 0.000000 0.000000
    35 -0.000006 2.254017 0.000076 -0.450892 0.000000 0.000000
    36 0.011267 -6.809892 1.974034 -0.607824 0.000000 0.000000
    37 -0.011248 6.809885 -1.974043 -0.607824 0.000000 0.000000
  time 23
    0 130.857447 -129.695304 40.468750 -0.980465 -0.049367 0.271438
    1 0.000000 -5.257813 -1.001953 -0.126804 -0.071460 -0.076508
    2 0.000000 -7.488277 -0.000001 0.009371 -0.002712 0.070437
    3 0.000000 -5.597980 0.000000 0.240118 0.051025 0.005665
    4 0.000000 -6.565113 -0.000001 0.844607 0.051354 -0.020162
    5 -1.549380 -5.102886 -4.074768 2.318754 -0.571495 -1.127930
    6 -0.000053 11.987244 0.000028 -0.588001 -0.622826 2.952662
    7 20.109314 0.000000 -0.000002 0.811384 -1.486130 -2.424312
    8 19.941738 0.000001 -0.000004 0.965482 -0.798205 -2.573435
    9 6.938272 1.999413 -1.014580 2.541037 0.665219 1.186559
    10 20.710249 -0.000001 0.000000 0.000000 0.763266 0.000000
    11 18.105982 0.000001 0.000000 -1.499948 -0.557628 1.707820
    12 -6.938270 1.999409 -1.014579 1.757821 0.968088 1.863401
    13 20.710224 0.000000 0.000000 0.000000 0.000000 2.045391
    14 18.106007 0.000000 -0.000001 0.007123 -1.283953 -2.766925
    15 0.000000 -6.555973 0.000000 0.128681 0.318615 0.178324
    16 0.000000 -3.252140 0.000004 -0.807957 -0.134547 -0.252215
    17 1.548545 -4.925743 -4.285366 -2.856183 -0.718953 -1.458006
    18 1.190170 -10.472042 -0.306138 1.353248 -0.238019 -0.934260
    19 0.000008 0.000000 15.020973 -0.201994 -0.066154 0.008339
    20 0.000004 -0.000001 8.039619 0.000000 0.000000 0.318947
    21 2.899849 -0.471046 -4.331210 -0.333509 -0.630519 -0.915402
    22 -0.000025 2.543312 0.000026 0.217358 0.040231 -0.180100
    23 0.000059 2.315285 -0.000040 0.099114 0.018457 -0.183540
    24 1.551407 3.956631 -3.900798 2.393589 -1.367686 -3.120704
    25 0.000000 2.741436 -0.000004 -0.558500 0.000000 0.000000
    26 0.000010 2.668510 0.000050 -0.492763 0.000000 0.000000
    27 1.401100 3.639805 -1.202109 1.728683 -1.355921 -2.446708
    28 0.000003 2.810951 0.000004 -0.558500 0.000000 0.000000
    29 -0.000005 2.736202 -0.000031 -0.492763 0.000000 0.000000
    30 1.335663 3.182098 1.418086 0.723135 -1.251586 -1.414893
    31 -0.000003 2.663269 0.000046 -0.513118 0.000000 0.000000
    32 0.000001 2.592527 -0.000031 -0.447386 0.000000 0.000000
    33 1.344765 1.881123 3.809589 0.859936 -1.203036 -1.477199
    34 0.000011 2.315664 -0.000084 -0.516589 0.000000 0.000000
    35 -0.000006 2.254017 0.000076 -0.450892 0.000000 0.000000
    36 0.011267 -6.809892 1.974034 -0.607824 0.000000 0.000000
    37 -0.011248 6.809885 -1.974043 -0.607824 0.000000 0.000000
  time 24
    0 134.981514 -133.786166 40.625000 -0.953753 -0.004063 0.306914
    1 0.000000 -5.257813 -1.001953 -0.170208 -0.051157 -0.112618
    2 0.000000 -7.488277 -0.000001 0.007064 0.004603 0.045064
    3 0.000000 -5.597980 0.000000 0.219071 0.083935 0.001370
    4 0.000000 -6.565113 -0.000001 0.820505 0.103645 -0.035134
    5 -1.549380 -5.102886 -4.074768 2.171992 -0.577585 -1.085205
    6 -0.000053 11.987244 0.000028 -0.846614 -0.652886 3.039891
    7 20.109314 0.000000 -0.000002 -0.122537 -1.512253 -1.486674
    8 19.941738 0.000001 -0.000004 0.982870 -0.770812 -2.408610
    9 6.938272 1.999413 -1.014580 2.687913 0.561156 1.275746
    10 20.710249 -0.000001 0.000000 0.000000 0.669218 0.000000
    11 18.105982 0.000001 0.000000 -1.581937 -0.449478 1.736755
    12 -6.938270 1.999409 -1.014579 1.740800 1.124954 1.752528
    13 20.710224 0.000000 0.000000 0.000000 0.000000 1.961344
    14 18.106007 0.000000 -0.000001 -0.341479 -1.243134 -2.361228
    15 0.000000 -6.555973 0.000000 0.124142 0.342297 0.216649
    16 0.000000 -3.252140 0.000004 -0.809250 -0.145909 -0.237181
    17 1.548545 -4.925743 -4.285366 -2.758424 -0.706416 -1.624228
    18 1.190170 -10.472042 -0.306138 1.353248 -0.238019 -0.934260
    19 0.000008 0.000000 15.020973 -0.201994 -0.066154 0.008339
    20 0.000004 -0.000001 8.039619 0.000000 0.000000 0.318947
    21 2.899849 -0.471046 -4.331210 -0.333509 -0.630519 -0.915402
    22 -0.000025 2.543312 0.000026 0.217358 0.040231 -0.180100
    23 0.000059 2.315285 -0.000040 0.099114 0.018457 -0.183540
    24 1.551407 3.956631 -3.900798 2.393589 -1.367686 -3.120704
    25 0.000000 2.741436 -0.000004 -0.558500 0.000000 0.000000
    26 0.000010 2.668510 0.000050 -0.492763 0.000000 0.000000
    27 1.401100 3.639805 -1.202109 1.728683 -1.355921 -2.446708
    28 0.000003 2.810951 0.000004 -0.558500 0.000000 0.000000
    29 -0.000005 2.736202 -0.000031 -0.492763 0.000000 0.000000
    30 1.335663 3.182098 1.418086 0.723135 -1.251586 -1.414893
    31 -0.000003 2.663269 0.000046 -0.513118 0.000000 0.000000
    32 0.000001 2.592527 -0.000031 -0.447386 0.000000 0.000000
    33 1.344765 1.881123 3.809589 0.859936 -1.203036 -1.477199
    34 0.000011 2.315664 -0.000084 -0.516589 0.000000 0.000000
    35 -0.000006 2.254017 0.000076 -0.450892 0.000000 0.000000
    36 0.011267 -6.809892 1.974034 -0.607824 0.000000 0.000000
    37 -0.011248 6.809885 -1.974043 -0.607824 0.000000 0.000000
  time 25
    0 139.119253 -137.888747 40.812500 -0.926908 0.041425 0.342634
    1 0.000000 -5.257813 -1.001953 -0.213652 -0.030764 -0.148855
    2 0.000000 -7.488277 -0.000001 0.004635 0.012040 0.019682
    3 0.000000 -5.597980 0.000000 0.197855 0.102813 -0.005878
    4 0.000000 -6.565113 -0.000001 0.797314 0.147040 -0.040636
    5 -1.549380 -5.102886 -4.074768 2.154790 -0.540033 -1.036031
    6 -0.000053 11.987244 0.000028 -0.911239 -0.601191 3.036901
    7 20.109314 0.000000 -0.000002 0.149827 -1.511993 -1.759980
    8 19.941738 0.000001 -0.000004 0.945113 -0.793171 -2.482535
    9 6.938272 1.999413 -1.014580 2.814611 0.383367 1.360809
    10 20.710249 -0.000001 0.000000 0.000000 0.424943 0.000000
    11 18.105982 0.000001 0.000000 -1.563711 -0.354295 1.734100
    12 -6.938270 1.999409 -1.014579 1.732059 1.241288 1.653287
    13 20.710224 0.000000 0.000000 0.000000 0.000000 1.840779
    14 18.106007 0.000000 -0.000001 -0.621455 -1.209058 -2.022645
    15 0.000000 -6.555973 0.000000 0.121621 0.366540 0.256047
    16 0.000000 -3.252140 0.000004 -0.808887 -0.166387 -0.233561
    17 1.548545 -4.925743 -4.285366 -2.670047 -0.680384 -1.785640
    18 1.190170 -10.472042 -0.306138 1.353248 -0.238019 -0.934260
    19 0.000008 0.000000 15.020973 -0.201994 -0.066154 0.008339
    20 0.000004 -0.000001 8.039619 0.000000 0.000000 0.318947
    21 2.899849 -0.471046 -4.331210 -0.333509 -0.630519 -0.915402
    22 -0.000025 2.543312 0.000026 0.217358 0.040231 -0.180100
    23 0.000059 2.315285 -0.000040 0.099114 0.018457 -0.183540
    24 1.551407 3.956631 -3.900798 2.393589 -1.367686 -3.120704
    25 0.000000 2.741436 -0.000004 -0.558500 0.000000 0.000000
    26 0.000010 2.668510 0.000050 -0.492763 0.000000 0.000000
    27 1.401100 3.639805 -1.202109 1.728683 -1.355921 -2.446708
    28 0.000003 2.810951 0.000004 -0.558500 0.000000 0.000000
    29 -0.000005 2.736202 -0.000031 -0.492763 0.000000 0.000000
    30 1.335663 3.182098 1.418086 0.723135 -1.251586 -1.414893
    31 -0.000003 2.663269 0.000046 -0.513118 0.000000 0.000000
    32 0.000001 2.592527 -0.000031 -0.447386 0.000000 0.000000
    33 1.344765 1.881123 3.809589 0.859936 -1.203036 -1.477199
    34 0.000011 2.315664 -0.000084 -0.516589 0.000000 0.000000
    35 -0.000006 2.254017 0.000076 -0.450892 0.000000 0.000000
    36 0.011267 -6.809892 1.974034 -0.607824 0.000000 0.000000
    37 -0.011248 6.809885 -1.974043 -0.607824 0.000000 0.000000
  time 26
    0 146.799961 -144.885860 42.656250 -0.834155 0.123056 0.330663
    1 0.000000 -5.257813 -1.001953 -0.305838 -0.032976 -0.255806
    2 0.000000 -7.488277 -0.000001 0.007887 0.027291 -0.016984
    3 0.000000 -5.597980 0.000000 0.121090 0.152653 -0.020165
    4 0.000000 -6.565113 -0.000001 0.734999 0.182296 -0.034978
    5 -1.549380 -5.102886 -4.074768 2.208465 -0.483575 -0.984485
    6 -0.000053 11.987244 0.000028 -1.050624 -0.586882 3.079014
    7 20.109314 0.000000 -0.000002 0.756928 -1.490627 -2.369538
    8 19.941738 0.000001 -0.000004 1.009512 -0.847058 -2.538017
    9 6.938272 1.999413 -1.014580 2.872481 0.290649 1.423438
    10 20.710249 -0.000001 0.000000 0.000000 0.319472 0.000000
    11 18.105982 0.000001 0.000000 -1.042213 -0.238770 1.796341
    12 -6.938270 1.999409 -1.014579 0.861493 1.449560 0.585016
    13 20.710224 0.000000 0.000000 0.000000 0.000000 1.413948
    14 18.106007 0.000000 -0.000001 -1.201876 -1.123125 -1.289787
    15 0.000000 -6.555973 0.000000 0.129931 0.429474 0.366753
    16 0.000000 -3.252140 0.000004 -0.809730 -0.236192 -0.240116
    17 1.548545 -4.925743 -4.285366 -2.564365 -0.658347 -1.877554
    18 1.190170 -10.472042 -0.306138 1.353248 -0.238019 -0.934260
    19 0.000008 0.000000 15.020973 -0.201994 -0.066154 0.008339
    20 0.000004 -0.000001 8.039619 0.000000 0.000000 0.318947
    21 2.899849 -0.471046 -4.331210 -0.333509 -0.630519 -0.915402
    22 -0.000025 2.543312 0.000026 0.217358 0.040231 -0.180100
    23 0.000059 2.315285 -0.000040 0.099114 0.018457 -0.183540
    24 1.551407 3.956631 -3.900798 2.393589 -1.367686 -3.120704
    25 0.000000 2.741436 -0.000004 -0.558500 0.000000 0.000000
    26 0.000010 2.668510 0.000050 -0.492763 0.000000 0.000000
    27 1.401100 3.639805 -1.202109 1.728683 -1.355921 -2.446708
    28 0.000003 2.810951 0.000004 -0.558500 0.000000 0.000000
    29 -0.000005 2.736202 -0.000031 -0.492763 0.000000 0.000000
    30 1.335663 3.182098 1.418086 0.723135 -1.251586 -1.414893
    31 -0.000003 2.663269 0.000046 -0.513118 0.000000 0.000000
    32 0.000001 2.592527 -0.000031 -0.447386 0.000000 0.000000
    33 1.344765 1.881123 3.809589 0.859936 -1.203036 -1.477199
    34 0.000011 2.315664 -0.000084 -0.516589 0.000000 0.000000
    35 -0.000006 2.254017 0.000076 -0.450892 0.000000 0.000000
    36 0.011267 -6.809892 1.974034 -0.810733 0.001659 0.016557
    37 -0.011248 6.809885 -1.974043 -0.607824 0.000000 0.000000
  time 27
    0 154.627153 -151.457191 43.468750 -0.907701 0.061767 0.250711
    1 0.000000 -5.257813 -1.001953 -0.270645 -0.022302 -0.184632
    2 0.000000 -7.488277 -0.000001 0.059195 0.037286 -0.038107
    3 0.000000 -5.597980 0.000000 0.115347 0.163237 -0.022207
    4 0.000000 -6.565113 -0.000001 0.741426 0.176891 -0.049556
    5 -1.549380 -5.102886 -4.074768 2.268199 -0.453085 -0.968405
    6 -0.000053 11.987244 0.000028 -1.013233 -0.632582 3.063841
    7 20.109314 0.000000 -0.000002 1.161040 -1.423613 -2.777948
    8 19.941738 0.000001 -0.000004 0.994831 -0.906893 -2.478276
    9 6.938272 1.999413 -1.014580 3.082586 0.058981 1.640646
    10 20.710249 -0.000001 0.000000 0.000000 0.251394 0.000000
    11 18.105982 0.000001 0.000000 -0.665320 -0.202364 1.814573
    12 -6.938270 1.999409 -1.014579 0.905954 1.295166 0.841893
    13 20.710224 0.000000 0.000000 0.000000 0.000000 1.174508
    14 18.106007 0.000000 -0.000001 -1.156677 -1.152900 -1.537224
    15 0.000000 -6.555973 0.000000 0.094496 0.452416 0.383105
    16 0.000000 -3.252140 0.000004 -0.833860 -0.259918 -0.253547
    17 1.548545 -4.925743 -4.285366 -2.504421 -0.643618 -1.928899
    18 1.190170 -10.472042 -0.306138 1.353248 -0.238019 -0.934260
    19 0.000008 0.000000 15.020973 -0.201994 -0.066154 0.008339
    20 0.000004 -0.000001 8.039619 0.000000 0.000000 0.318947
    21 2.899849 -0.471046 -4.331210 -0.333509 -0.630519 -0.915402
    22 -0.000025 2.543312 0.000026 0.217358 0.040231 -0.180100
    23 0.000059 2.315285 -0.000040 0.099114 0.018457 -0.183540
    24 1.551407 3.956631 -3.900798 2.393589 -1.367686 -3.120704
    25 0.000000 2.741436 -0.000004 -0.558500 0.000000 0.000000
    26 0.000010 2.668510 0.000050 -0.492763 0.000000 0.000000
    27 1.401100 3.639805 -1.202109 1.728683 -1.355921 -2.446708
    28 0.000003 2.810951 0.000004 -0.558500 0.000000 0.000000
    29 -0.000005 2.736202 -0.000031 -0.492763 0.000000 0.000000
    30 1.335663 3.182098 1.418086 0.723135 -1.251586 -1.414893
    31 -0.000003 2.663269 0.000046 -0.513118 0.000000 0.000000
    32 0.000001 2.592527 -0.000031 -0.447386 0.000000 0.000000
    33 1.344765 1.881123 3.809589 0.859936 -1.203036 -1.477199
    34 0.000011 2.315664 -0.000084 -0.516589 0.000000 0.000000
    35 -0.000006 2.254017 0.000076 -0.450892 0.000000 0.000000
    36 0.011267 -6.809892 1.974034 -0.607824 0.000000 0.000000
    37 -0.011248 6.809885 -1.974043 -0.607824 0.000000 0.000000
  time 28
    0 162.309325 -158.817585 42.937500 -1.027888 -0.020731 0.170812
    1 0.000000 -5.257813 -1.001953 -0.212438 -0.032780 -0.100422
    2 0.000000 -7.488277 -0.000001 0.091867 0.029055 -0.032519
    3 0.000000 -5.597980 0.000000 0.161694 0.131424 -0.005046
    4 0.000000 -6.565113 -0.000001 0.781977 0.158560 -0.044456
    5 -1.549380 -5.102886 -4.074768 2.313800 -0.484235 -1.058948
    6 -0.000053 11.987244 0.000028 -1.014088 -0.815247 3.111402
    7 20.109314 0.000000 -0.000002 1.152871 -1.426456 -2.769686
    8 19.941738 0.000001 -0.000004 0.916481 -0.901067 -2.274053
    9 6.938272 1.999413 -1.014580 2.964728 0.127057 1.731127
    10 20.710249 -0.000001 0.000000 0.000000 0.823087 0.000000
    11 18.105982 0.000001 0.000000 -0.879161 -0.062495 1.854014
    12 -6.938270 1.999409 -1.014579 1.293091 1.140147 1.249748
    13 20.710224 0.000000 0.000000 0.000000 0.000000 1.023737
    14 18.106007 0.000000 -0.000001 -1.374730 -1.215901 -1.646717
    15 0.000000 -6.555973 0.000000 0.046415 0.367363 0.337850
    16 0.000000 -3.252140 0.000004 -0.838910 -0.216934 -0.232517
    17 1.548545 -4.925743 -4.285366 -2.553629 -0.625464 -1.998495
    18 1.190170 -10.472042 -0.306138 1.353248 -0.238019 -0.934260
    19 0.000008 0.000000 15.020973 -0.201994 -0.066154 0.008339
    20 0.000004 -0.000001 8.039619 0.000000 0.000000 0.318947
    21 2.899849 -0.471046 -4.331210 -0.333509 -0.630519 -0.915402
    22 -0.000025 2.543312 0.000026 0.217358 0.040231 -0.180100
    23 0.000059 2.315285 -0.000040 0.099114 0.018457 -0.183540
    24 1.551407 3.956631 -3.900798 2.393589 -1.367686 -3.120704
    25 0.000000 2.741436 -0.000004 -0.558500 0.000000 0.000000
    26 0.000010 2.668510 0.000050 -0.492763 0.000000 0.000000
    27 1.401100 3.639805 -1.202109 1.728683 -1.355921 -2.446708
    28 0.000003 2.810951 0.000004 -0.558500 0.000000 0.000000
    29 -0.000005 2.736202 -0.000031 -0.492763 0.000000 0.000000
    30 1.335663 3.182098 1.418086 0.723135 -1.251586 -1.414893
    31 -0.000003 2.663269 0.000046 -0.513118 0.000000 0.000000
    32 0.000001 2.592527 -0.000031 -0.447386 0.000000 0.000000
    33 1.344765 1.881123 3.809589 0.859936 -1.203036 -1.477199
    34 0.000011 2.315664 -0.000084 -0.516589 0.000000 0.000000
    35 -0.000006 2.254017 0.000076 -0.450892 0.000000 0.000000
    36 0.011267 -6.809892 1.974034 -0.607824 0.000000 0.000000
    37 -0.011248 6.809885 -1.974043 -0.607824 0.000000 0.000000
  time 29
    0 165.808880 -162.603760 42.281250 -1.031135 -0.030640 0.131301
    1 0.000000 -5.257813 -1.001953 -0.192692 -0.052687 -0.099725
    2 0.000000 -7.488277 -0.000001 0.074684 0.017135 -0.012309
    3 0.000000 -5.597980 0.000000 0.147453 0.094347 -0.000011
    4 0.000000 -6.565113 -0.000001 0.758097 0.120288 -0.024566
    5 -1.549380 -5.102886 -4.074768 2.381616 -0.561410 -1.152723
    6 -0.000053 11.987244 0.000028 -1.029281 -0.913780 3.071296
    7 20.109314 0.000000 -0.000002 1.091009 -1.443972 -2.706706
    8 19.941738 0.000001 -0.000004 0.804206 -0.845499 -2.067416
    9 6.938272 1.999413 -1.014580 2.989509 0.272568 1.714039
    10 20.710249 -0.000001 0.000000 0.000000 1.144668 0.000000
    11 18.105982 0.000001 0.000000 -0.980086 0.149274 1.867728
    12 -6.938270 1.999409 -1.014579 1.154669 1.035970 1.091070
    13 20.710224 0.000000 0.000000 0.000000 0.000000 0.623323
    14 18.106007 0.000000 -0.000001 -1.697007 -1.112775 -1.113481
    15 0.000000 -6.555973 0.000000 0.037682 0.328001 0.345707
    16 0.000000 -3.252140 0.000004 -0.850358 -0.171024 -0.186856
    17 1.548545 -4.925743 -4.285366 -2.596788 -0.635669 -1.964972
    18 1.190170 -10.472042 -0.306138 1.353248 -0.238019 -0.934260
    19 0.000008 0.000000 15.020973 -0.201994 -0.066154 0.008339
    20 0.000004 -0.000001 8.039619 0.000000 0.000000 0.318947
    21 2.899849 -0.471046 -4.331210 -0.333509 -0.630519 -0.915402
    22 -0.000025 2.543312 0.000026 0.217358 0.040231 -0.180100
    23 0.000059 2.315285 -0.000040 0.099114 0.018457 -0.183540
    24 1.551407 3.956631 -3.900798 2.393589 -1.367686 -3.120704
    25 0.000000 2.741436 -0.000004 -0.558500 0.000000 0.000000
    26 0.000010 2.668510 0.000050 -0.492763 0.000000 0.000000
    27 1.401100 3.639805 -1.202109 1.728683 -1.355921 -2.446708
    28 0.000003 2.810951 0.000004 -0.558500 0.000000 0.000000
    29 -0.000005 2.736202 -0.000031 -0.492763 0.000000 0.000000
    30 1.335663 3.182098 1.418086 0.723135 -1.251586 -1.414893
    31 -0.000003 2.663269 0.000046 -0.513118 0.000000 0.000000
    32 0.000001 2.592527 -0.000031 -0.447386 0.000000 0.000000
    33 1.344765 1.881123 3.809589 0.859936 -1.203036 -1.477199
    34 0.000011 2.315664 -0.000084 -0.516589 0.000000 0.000000
    35 -0.000006 2.254017 0.000076 -0.450892 0.000000 0.000000
    36 0.011267 -6.809892 1.974034 -0.607824 0.000000 0.000000
    37 -0.011248 6.809885 -1.974043 -0.607824 0.000000 0.000000
  time 30
    0 169.288416 -166.374309 41.625000 -1.034362 -0.040477 0.092028
    1 0.000000 -5.257813 -1.001953 -0.173115 -0.072469 -0.099079
    2 0.000000 -7.488277 -0.000001 0.057585 0.005273 0.007723
    3 0.000000 -5.597980 0.000000 0.133481 0.051998 0.003721
    4 0.000000 -6.565113 -0.000001 0.734190 0.072842 0.004989
    5 -1.549380 -5.102886 -4.074768 2.430902 -0.737987 -0.980864
    6 -0.000053 11.987244 0.000028 -0.865562 -0.662666 3.003037
    7 20.109314 0.000000 -0.000002 1.181953 -1.416092 -2.799331
    8 19.941738 0.000001 -0.000004 0.820372 -0.798020 -2.296244
    9 6.938272 1.999413 -1.014580 3.043394 0.384055 1.718224
    10 20.710249 -0.000001 0.000000 0.000000 1.393885 0.000000
    11 18.105982 0.000001 0.000000 -1.032495 0.362635 1.810336
    12 -6.938270 1.999409 -1.014579 1.443401 0.967803 1.404665
    13 20.710224 0.000000 0.000000 0.000000 0.000000 0.875201
    14 18.106007 0.000000 -0.000001 -1.287710 -1.264511 -1.557016
    15 0.000000 -6.555973 0.000000 0.028297 0.289116 0.353799
    16 0.000000 -3.252140 0.000004 -0.859490 -0.121914 -0.138562
    17 1.548545 -4.925743 -4.285366 -2.640078 -0.645015 -1.931176
    18 1.190170 -10.472042 -0.306138 1.353248 -0.238019 -0.934260
    19 0.000008 0.000000 15.020973 -0.201994 -0.066154 0.008339
    20 0.000004 -0.000001 8.039619 0.000000 0.000000 0.318947
    21 2.899849 -0.471046 -4.331210 -0.333509 -0.630519 -0.915402
    22 -0.000025 2.543312 0.000026 0.217358 0.040231 -0.180100
    23 0.000059 2.315285 -0.000040 0.099114 0.018457 -0.183540
    24 1.551407 3.956631 -3.900798 2.393589 -1.367686 -3.120704
    25 0.000000 2.741436 -0.000004 -0.558500 0.000000 0.000000
    26 0.000010 2.668510 0.000050 -0.492763 0.000000 0.000000
    27 1.401100 3.639805 -1.202109 1.728683 -1.355921 -2.446708
    28 0.000003 2.810951 0.000004 -0.558500 0.000000 0.000000
    29 -0.000005 2.736202 -0.000031 -0.492763 0.000000 0.000000
    30 1.335663 3.182098 1.418086 0.723135 -1.251586 -1.414893
    31 -0.000003 2.663269 0.000046 -0.513118 0.000000 0.000000
    32 0.000001 2.592527 -0.000031 -0.447386 0.000000 0.000000
    33 1.344765 1.881123 3.809589 0.859936 -1.203036 -1.477199
    34 0.000011 2.315664 -0.000084 -0.516589 0.000000 0.000000
    35 -0.000006 2.254017 0.000076 -0.450892 0.000000 0.000000
    36 0.011267 -6.809892 1.974034 -0.607824 0.000000 0.000000
    37 -0.011248 6.809885 -1.974043 -0.607824 0.000000 0.000000
  time 31
    0 174.980843 -173.191734 40.281250 -0.961684 0.032774 -0.018177
    1 0.000000 -5.257813 -1.001953 -0.124856 -0.101933 -0.159634
    2 0.000000 -7.488277 -0.000001 -0.009550 -0.018356 0.016324
    3 0.000000 -5.597980 0.000000 0.065212 -0.015108 0.006347
    4 0.000000 -6.565113 -0.000001 0.610709 -0.018772 0.055275
    5 -1.549380 -5.102886 -4.074768 2.691857 -0.795026 -0.925509
    6 -0.000053 11.987244 0.000028 -0.688829 -0.714223 2.977644
    7 20.109314 0.000000 -0.000002 0.737632 -1.492113 -2.350118
    8 19.941738 0.000001 -0.000004 0.671791 -0.625148 -2.316725
    9 6.938272 1.999413 -1.014580 3.083859 0.687634 1.485174
    10 20.710249 -0.000001 0.000000 3.141593 1.351582 3.141593
    11 18.105982 0.000001 0.000000 -1.113954 0.309273 1.695475
    12 -6.938270 1.999409 -1.014579 1.353129 0.902026 1.439005
    13 20.710224 0.000000 0.000000 0.000000 0.000000 0.964435
    14 18.106007 0.000000 -0.000001 -1.101964 -1.304499 -1.956388
    15 0.000000 -6.555973 0.000000 0.009645 0.264530 0.395313
    16 0.000000 -3.252140 0.000004 -0.868845 -0.069782 -0.107342
    17 1.548545 -4.925743 -4.285366 -2.643605 -0.681269 -1.763645
    18 1.190170 -10.472042 -0.306138 1.353248 -0.238019 -0.934260
    19 0.000008 0.000000 15.020973 -0.201994 -0.066154 0.008339
    20 0.000004 -0.000001 8.039619 0.000000 0.000000 0.318947
    21 2.899849 -0.471046 -4.331210 -0.333509 -0.630519 -0.915402
    22 -0.000025 2.543312 0.000026 0.217358 0.040231 -0.180100
    23 0.000059 2.315285 -0.000040 0.099114 0.018457 -0.183540
    24 1.551407 3.956631 -3.900798 2.393589 -1.367686 -3.120704
    25 0.000000 2.741436 -0.000004 -0.558500 0.000000 0.000000
    26 0.000010 2.668510 0.000050 -0.492763 0.000000 0.000000
    27 1.401100 3.639805 -1.202109 1.728683 -1.355921 -2.446708
    28 0.000003 2.810951 0.000004 -0.558500 0.000000 0.000000
    29 -0.000005 2.736202 -0.000031 -0.492763 0.000000 0.000000
    30 1.335663 3.182098 1.418086 0.723135 -1.251586 -1.414893
    31 -0.000003 2.663269 0.000046 -0.513118 0.000000 0.000000
    32 0.000001 2.592527 -0.000031 -0.447386 0.000000 0.000000
    33 1.344765 1.881123 3.809589 0.859936 -1.203036 -1.477199
    34 0.000011 2.315664 -0.000084 -0.516589 0.000000 0.000000
    35 -0.000006 2.254017 0.000076 -0.450892 0.000000 0.000000
    36 0.011267 -6.809892 1.974034 -0.607824 0.000000 0.000000
    37 -0.011248 6.809885 -1.974043 -0.607824 0.000000 0.000000
  time 32
    0 182.841238 -181.079472 40.250000 -0.961470 0.035273 -0.064021
    1 0.000000 -5.257813 -1.001953 -0.124250 -0.102532 -0.161101
    2 0.000000 -7.488277 -0.000001 -0.009060 -0.019034 0.015590
    3 0.000000 -5.597980 0.000000 0.066162 -0.060747 -0.002622
    4 0.000000 -6.565113 -0.000001 0.604032 -0.078400 0.116292
    5 -1.549380 -5.102886 -4.074768 2.904684 -0.709023 -1.062169
    6 -0.000053 11.987244 0.000028 -0.406028 -0.684771 2.697178
    7 20.109314 0.000000 -0.000002 1.272983 -1.369832 -2.893055
    8 19.941738 0.000001 -0.000004 0.473128 -0.508769 -2.464101
    9 6.938272 1.999413 -1.014580 2.896404 0.800228 1.215551
    10 20.710249 -0.000001 0.000000 3.141593 1.252776 3.141593
    11 18.105982 0.000001 0.000000 -1.096683 0.127297 1.707833
    12 -6.938270 1.999409 -1.014579 1.520073 0.685375 1.715735
    13 20.710224 0.000000 0.000000 0.000000 0.000000 0.805539
    14 18.106007 0.000000 -0.000001 -0.408722 -1.338100 -2.722261
    15 0.000000 -6.555973 0.000000 0.008577 0.265323 0.393185
    16 0.000000 -3.252140 0.000004 -0.869029 -0.069795 -0.109223
    17 1.548545 -4.925743 -4.285366 -2.635770 -0.680358 -1.768541
    18 1.190170 -10.472042 -0.306138 1.353248 -0.238019 -0.934260
    19 0.000008 0.000000 15.020973 -0.201994 -0.066154 0.008339
    20 0.000004 -0.000001 8.039619 0.000000 0.000000 0.318947
    21 2.899849 -0.471046 -4.331210 -0.333509 -0.630519 -0.915402
    22 -0.000025 2.543312 0.000026 0.217358 0.040231 -0.180100
    23 0.000059 2.315285 -0.000040 0.099114 0.018457 -0.183540
    24 1.551407 3.956631 -3.900798 2.393589 -1.367686 -3.120704
    25 0.000000 2.741436 -0.000004 -0.558500 0.000000 0.000000
    26 0.000010 2.668510 0.000050 -0.492763 0.000000 0.000000
    27 1.401100 3.639805 -1.202109 1.728683 -1.355921 -2.446708
    28 0.000003 2.810951 0.000004 -0.558500 0.000000 0.000000
    29 -0.000005 2.736202 -0.000031 -0.492763 0.000000 0.000000
    30 1.335663 3.182098 1.418086 0.723135 -1.251586 -1.414893
    31 -0.000003 2.663269 0.000046 -0.513118 0.000000 0.000000
    32 0.000001 2.592527 -0.000031 -0.447386 0.000000 0.000000
    33 1.344765 1.881123 3.809589 0.859936 -1.203036 -1.477199
    34 0.000011 2.315664 -0.000084 -0.516589 0.000000 0.000000
    35 -0.000006 2.254017 0.000076 -0.450892 0.000000 0.000000
    36 0.011267 -6.809892 1.974034 -0.607824 0.000000 0.000000
    37 -0.011248 6.809885 -1.974043 -0.607824 0.000000 0.000000
end
