// Created by Crowbar 0.74
version 1
nodes
  0 "bip_pelvis" -1
  1 "bip_spine_0" 0
  2 "bip_spine_1" 1
  3 "bip_spine_2" 2
  4 "bip_spine_3" 3
  5 "bip_collar_R" 4
  6 "bip_upperArm_R" 5
  7 "bip_lowerArm_R" 6
  8 "bip_hand_R" 7
  9 "bip_hip_L" 0
  10 "bip_knee_L" 9
  11 "bip_foot_L" 10
  12 "bip_hip_R" 0
  13 "bip_knee_R" 12
  14 "bip_foot_R" 13
  15 "bip_neck" 4
  16 "bip_head" 15
  17 "bip_collar_L" 4
  18 "bip_upperArm_L" 17
  19 "bip_lowerArm_L" 18
  20 "bip_hand_L" 19
  21 "bip_thumb_0_R" 8
  22 "bip_thumb_1_R" 21
  23 "bip_thumb_2_R" 22
  24 "bip_index_0_R" 8
  25 "bip_index_1_R" 24
  26 "bip_index_2_R" 25
  27 "bip_middle_0_R" 8
  28 "bip_middle_1_R" 27
  29 "bip_middle_2_R" 28
  30 "bip_ring_0_R" 8
  31 "bip_ring_1_R" 30
  32 "bip_ring_2_R" 31
  33 "bip_pinky_0_R" 8
  34 "bip_pinky_1_R" 33
  35 "bip_pinky_2_R" 34
  36 "bip_toe_L" 11
  37 "bip_toe_R" 14
end
skeleton
  time 0
    0 -3.566406 5.328125 38.625000 -1.066026 0.035250 -0.064058
    1 0.000000 -5.257813 -1.001953 -0.218263 -0.102536 -0.161114
    2 0.000000 -7.488277 -0.000001 -0.103047 -0.019057 0.015651
    3 0.000000 -5.597980 0.000000 0.066162 -0.060747 -0.002622
    4 0.000000 -6.565113 -0.000001 0.607505 -0.043610 0.079257
    5 -1.549380 -5.102886 -4.074768 2.904684 -0.709023 -1.062169
    6 -0.000053 11.987244 0.000028 -0.840558 -0.575395 2.671013
    7 20.109314 0.000000 -0.000002 1.464967 -0.971370 -3.107778
    8 19.941738 0.000001 -0.000004 0.308257 -0.896518 -2.051966
    9 6.938272 1.999413 -1.014580 -2.995976 1.374824 1.728813
    10 20.710249 -0.000001 0.000000 3.141593 1.242432 3.141593
    11 18.105982 0.000001 0.000000 -0.615463 0.031174 1.700124
    12 -6.938270 1.999409 -1.014579 1.595675 0.691349 1.527266
    13 20.710224 0.000000 0.000000 0.000000 0.000000 1.030184
    14 18.106007 0.000000 -0.000001 -1.970095 -1.496840 -1.274391
    15 0.000000 -6.555973 0.000000 0.008577 0.265323 0.393185
    16 0.000000 -3.252140 0.000004 -0.869029 -0.069795 -0.109223
    17 1.548545 -4.925743 -4.285366 -2.635770 -0.680358 -1.768541
    18 1.190170 -10.472042 -0.306138 1.353248 -0.238019 -0.934260
    19 0.000008 0.000000 15.020973 -0.201994 -0.066154 0.008339
    20 0.000004 -0.000001 8.039619 0.000000 0.000000 0.318947
    21 2.899849 -0.471046 -4.331210 -0.333509 -0.630519 -0.915402
    22 -0.000025 2.543312 0.000026 0.217358 0.040231 -0.180100
    23 0.000059 2.315285 -0.000040 0.099114 0.018457 -0.183540
    24 1.551407 3.956631 -3.900798 2.393589 -1.367686 -3.120704
    25 0.000000 2.741436 -0.000004 -0.558500 0.000000 0.000000
    26 0.000010 2.668510 0.000050 -0.492763 0.000000 0.000000
    27 1.401100 3.639805 -1.202109 1.728683 -1.355921 -2.446708
    28 0.000003 2.810951 0.000004 -0.558500 0.000000 0.000000
    29 -0.000005 2.736202 -0.000031 -0.492763 0.000000 0.000000
    30 1.335663 3.182098 1.418086 0.723330 -1.251529 -1.415184
    31 -0.000003 2.663269 0.000046 -0.513118 0.000000 0.000000
    32 0.000001 2.592527 -0.000031 -0.447386 0.000000 0.000000
    33 1.344765 1.881123 3.809589 0.859882 -1.203079 -1.477188
    34 0.000011 2.315664 -0.000084 -0.516589 0.000000 0.000000
    35 -0.000006 2.254017 0.000076 -0.450892 0.000000 0.000000
    36 0.011267 -6.809892 1.974034 -0.607824 0.000000 0.000000
    37 -0.011248 6.809885 -1.974043 -0.607868 0.000000 0.000000
  time 1
    0 4.391644 13.114302 39.031250 -0.935656 -0.085047 -0.180446
    1 0.000000 -5.257813 -1.001953 -0.409630 -0.198174 0.065723
    2 0.000000 -7.488277 -0.000001 -0.106724 -0.043026 0.028832
    3 0.000000 -5.597980 0.000000 0.049909 -0.158060 0.007683
    4 0.000000 -6.565113 -0.000001 0.645835 -0.094119 0.072384
    5 -1.549380 -5.102886 -4.074768 2.754366 -0.661924 -0.921174
    6 -0.000053 11.987244 0.000028 -0.863157 -0.456255 2.684906
    7 20.109314 0.000000 -0.000002 1.468332 -0.947351 -3.112450
    8 19.941738 0.000001 -0.000004 -0.024444 -0.961705 -1.780827
    9 6.938272 1.999413 -1.014580 3.129031 1.270883 1.643495
    10 20.710249 -0.000001 0.000000 3.141593 1.388816 3.141593
    11 18.105982 0.000001 0.000000 -0.819036 0.008245 1.596946
    12 -6.938270 1.999409 -1.014579 1.791428 1.135194 2.081753
    13 20.710224 0.000000 0.000000 0.000000 0.000000 1.134013
    14 18.106007 0.000000 -0.000001 0.322721 -1.398165 2.954698
    15 0.000000 -6.555973 0.000000 0.015022 0.259617 0.196411
    16 0.000000 -3.252140 0.000004 -0.851524 -0.093807 -0.204502
    17 1.548545 -4.925743 -4.285366 -2.384067 -0.597219 -2.034187
    18 1.190170 -10.472042 -0.306138 1.353248 -0.238019 -0.934260
    19 0.000008 0.000000 15.020973 -0.201994 -0.066154 0.008339
    20 0.000004 -0.000001 8.039619 0.000000 0.000000 0.318947
    21 2.899849 -0.471046 -4.331210 -0.333509 -0.630519 -0.915402
    22 -0.000025 2.543312 0.000026 0.217358 0.040231 -0.180100
    23 0.000059 2.315285 -0.000040 0.099114 0.018457 -0.183540
    24 1.551407 3.956631 -3.900798 2.393589 -1.367686 -3.120704
    25 0.000000 2.741436 -0.000004 -0.558500 0.000000 0.000000
    26 0.000010 2.668510 0.000050 -0.492763 0.000000 0.000000
    27 1.401100 3.639805 -1.202109 1.728683 -1.355921 -2.446708
    28 0.000003 2.810951 0.000004 -0.558500 0.000000 0.000000
    29 -0.000005 2.736202 -0.000031 -0.492763 0.000000 0.000000
    30 1.335663 3.182098 1.418086 0.723330 -1.251529 -1.415184
    31 -0.000003 2.663269 0.000046 -0.513118 0.000000 0.000000
    32 0.000001 2.592527 -0.000031 -0.447386 0.000000 0.000000
    33 1.344765 1.881123 3.809589 0.859882 -1.203079 -1.477188
    34 0.000011 2.315664 -0.000084 -0.516589 0.000000 0.000000
    35 -0.000006 2.254017 0.000076 -0.450892 0.000000 0.000000
    36 0.011267 -6.809892 1.974034 -0.607824 0.000000 0.000000
    37 -0.011248 6.809885 -1.974043 -0.607868 0.000000 0.000000
  time 2
    0 12.071375 20.033292 39.656250 -0.970236 -0.060650 -0.173212
    1 0.000000 -5.257813 -1.001953 -0.407662 -0.198761 0.050357
    2 0.000000 -7.488277 -0.000001 -0.090625 -0.059196 0.047921
    3 0.000000 -5.597980 0.000000 0.083231 -0.227742 0.013226
    4 0.000000 -6.565113 -0.000001 0.762539 -0.151042 0.047241
    5 -1.549380 -5.102886 -4.074768 2.657933 -0.618187 -0.851964
    6 -0.000053 11.987244 0.000028 -0.624436 -0.308831 2.822657
    7 20.109314 0.000000 -0.000002 1.449036 -1.060199 -3.086631
    8 19.941738 0.000001 -0.000004 0.364826 -0.962608 -2.283537
    9 6.938272 1.999413 -1.014580 3.067340 0.999488 1.429054
    10 20.710249 -0.000001 0.000000 3.141593 1.560279 3.141593
    11 18.105982 0.000001 0.000000 -0.982942 -0.004838 1.301761
    12 -6.938270 1.999409 -1.014579 1.889661 1.077053 2.332290
    13 20.710224 0.000000 0.000000 0.000000 0.000000 0.710401
    14 18.106007 0.000000 -0.000001 -0.041271 -1.203396 -2.930970
    15 0.000000 -6.555973 0.000000 0.052344 0.190461 0.122093
    16 0.000000 -3.252140 0.000004 -0.827818 -0.130331 -0.266368
    17 1.548545 -4.925743 -4.285366 -2.335107 -0.616595 -1.963901
    18 1.190170 -10.472042 -0.306138 1.353248 -0.238019 -0.934260
    19 0.000008 0.000000 15.020973 -0.201994 -0.066154 0.008339
    20 0.000004 -0.000001 8.039619 0.000000 0.000000 0.318947
    21 2.899849 -0.471046 -4.331210 -0.333509 -0.630519 -0.915402
    22 -0.000025 2.543312 0.000026 0.217358 0.040231 -0.180100
    23 0.000059 2.315285 -0.000040 0.099114 0.018457 -0.183540
    24 1.551407 3.956631 -3.900798 2.393589 -1.367686 -3.120704
    25 0.000000 2.741436 -0.000004 -0.558500 0.000000 0.000000
    26 0.000010 2.668510 0.000050 -0.492763 0.000000 0.000000
    27 1.401100 3.639805 -1.202109 1.728683 -1.355921 -2.446708
    28 0.000003 2.810951 0.000004 -0.558500 0.000000 0.000000
    29 -0.000005 2.736202 -0.000031 -0.492763 0.000000 0.000000
    30 1.335663 3.182098 1.418086 0.723330 -1.251529 -1.415184
    31 -0.000003 2.663269 0.000046 -0.513118 0.000000 0.000000
    32 0.000001 2.592527 -0.000031 -0.447386 0.000000 0.000000
    33 1.344765 1.881123 3.809589 0.859882 -1.203079 -1.477188
    34 0.000011 2.315664 -0.000084 -0.516589 0.000000 0.000000
    35 -0.000006 2.254017 0.000076 -0.450892 0.000000 0.000000
    36 0.011267 -6.809892 1.974034 -0.607824 0.000000 0.000000
    37 -0.011248 6.809885 -1.974043 -0.607868 0.000000 0.000000
  time 3
    0 15.687628 23.452281 41.625000 -1.052996 -0.050715 -0.121382
    1 0.000000 -5.257813 -1.001953 -0.345183 -0.183269 0.019345
    2 0.000000 -7.488277 -0.000001 -0.068152 -0.053813 0.046925
    3 0.000000 -5.597980 0.000000 0.141893 -0.221831 0.008551
    4 0.000000 -6.565113 -0.000001 0.810840 -0.153889 0.041623
    5 -1.549380 -5.102886 -4.074768 2.665852 -0.588248 -0.935595
    6 -0.000053 11.987244 0.000028 -0.541480 -0.338948 2.836498
    7 20.109314 0.000000 -0.000002 1.421904 -1.160934 -3.053779
    8 19.941738 0.000001 -0.000004 0.581408 -0.966094 -2.617845
    9 6.938272 1.999413 -1.014580 3.105576 0.613517 1.324532
    10 20.710249 -0.000001 0.000000 0.000000 1.154048 0.000000
    11 18.105982 0.000001 0.000000 -0.950416 -0.068353 1.217176
    12 -6.938270 1.999409 -1.014579 1.819855 1.030626 2.344700
    13 20.710224 0.000000 0.000000 0.000000 0.000000 0.740169
    14 18.106007 0.000000 -0.000001 -0.085094 -1.105186 -2.867206
    15 0.000000 -6.555973 0.000000 0.084403 0.174776 0.127050
    16 0.000000 -3.252140 0.000004 -0.814166 -0.143788 -0.277644
    17 1.548545 -4.925743 -4.285366 -2.372186 -0.649522 -1.855873
    18 1.190170 -10.472042 -0.306138 1.353248 -0.238019 -0.934260
    19 0.000008 0.000000 15.020973 -0.201994 -0.066154 0.008339
    20 0.000004 -0.000001 8.039619 0.000000 0.000000 0.318947
    21 2.899849 -0.471046 -4.331210 -0.333509 -0.630519 -0.915402
    22 -0.000025 2.543312 0.000026 0.217358 0.040231 -0.180100
    23 0.000059 2.315285 -0.000040 0.099114 0.018457 -0.183540
    24 1.551407 3.956631 -3.900798 2.393589 -1.367686 -3.120704
    25 0.000000 2.741436 -0.000004 -0.558500 0.000000 0.000000
    26 0.000010 2.668510 0.000050 -0.492763 0.000000 0.000000
    27 1.401100 3.639805 -1.202109 1.728683 -1.355921 -2.446708
    28 0.000003 2.810951 0.000004 -0.558500 0.000000 0.000000
    29 -0.000005 2.736202 -0.000031 -0.492763 0.000000 0.000000
    30 1.335663 3.182098 1.418086 0.723330 -1.251529 -1.415184
    31 -0.000003 2.663269 0.000046 -0.513118 0.000000 0.000000
    32 0.000001 2.592527 -0.000031 -0.447386 0.000000 0.000000
    33 1.344765 1.881123 3.809589 0.859882 -1.203079 -1.477188
    34 0.000011 2.315664 -0.000084 -0.516589 0.000000 0.000000
    35 -0.000006 2.254017 0.000076 -0.450892 0.000000 0.000000
    36 0.011267 -6.809892 1.974034 -0.607824 0.000000 0.000000
    37 -0.011248 6.809885 -1.974043 -0.607868 0.000000 0.000000
  time 4
    0 19.314624 26.882989 42.281250 -1.136031 -0.040694 -0.069448
    1 0.000000 -5.257813 -1.001953 -0.282443 -0.167715 -0.011859
    2 0.000000 -7.488277 -0.000001 -0.045634 -0.048485 0.045813
    3 0.000000 -5.597980 0.000000 0.199083 -0.177915 0.012114
    4 0.000000 -6.565113 -0.000001 0.859543 -0.147877 0.026629
    5 -1.549380 -5.102886 -4.074768 2.705326 -0.558918 -1.070039
    6 -0.000053 11.987244 0.000028 -0.447922 -0.512993 2.780356
    7 20.109314 0.000000 -0.000002 1.393971 -1.228933 -3.021927
    8 19.941738 0.000001 -0.000004 0.519638 -1.063519 -2.386866
    9 6.938272 1.999413 -1.014580 -3.128758 0.398762 1.287890
    10 20.710249 -0.000001 0.000000 0.000000 0.866517 0.000000
    11 18.105982 0.000001 0.000000 -0.914877 -0.057283 1.180700
    12 -6.938270 1.999409 -1.014579 1.727600 0.970435 2.243832
    13 20.710224 0.000000 0.000000 0.000000 0.000000 0.881270
    14 18.106007 0.000000 -0.000001 -0.135817 -1.099909 -2.935966
    15 0.000000 -6.555973 0.000000 0.116405 0.158658 0.132003
    16 0.000000 -3.252140 0.000004 -0.802727 -0.144120 -0.272390
    17 1.548545 -4.925743 -4.285366 -2.417169 -0.677313 -1.742425
    18 1.190170 -10.472042 -0.306138 1.353248 -0.238019 -0.934260
    19 0.000008 0.000000 15.020973 -0.201994 -0.066154 0.008339
    20 0.000004 -0.000001 8.039619 0.000000 0.000000 0.318947
    21 2.899849 -0.471046 -4.331210 -0.333509 -0.630519 -0.915402
    22 -0.000025 2.543312 0.000026 0.217358 0.040231 -0.180100
    23 0.000059 2.315285 -0.000040 0.099114 0.018457 -0.183540
    24 1.551407 3.956631 -3.900798 2.393589 -1.367686 -3.120704
    25 0.000000 2.741436 -0.000004 -0.558500 0.000000 0.000000
    26 0.000010 2.668510 0.000050 -0.492763 0.000000 0.000000
    27 1.401100 3.639805 -1.202109 1.728683 -1.355921 -2.446708
    28 0.000003 2.810951 0.000004 -0.558500 0.000000 0.000000
    29 -0.000005 2.736202 -0.000031 -0.492763 0.000000 0.000000
    30 1.335663 3.182098 1.418086 0.723330 -1.251529 -1.415184
    31 -0.000003 2.663269 0.000046 -0.513118 0.000000 0.000000
    32 0.000001 2.592527 -0.000031 -0.447386 0.000000 0.000000
    33 1.344765 1.881123 3.809589 0.859882 -1.203079 -1.477188
    34 0.000011 2.315664 -0.000084 -0.516589 0.000000 0.000000
    35 -0.000006 2.254017 0.000076 -0.450892 0.000000 0.000000
    36 0.011267 -6.809892 1.974034 -0.607824 0.000000 0.000000
    37 -0.011248 6.809885 -1.974043 -0.607868 0.000000 0.000000
  time 5
    0 26.301972 33.829323 42.093750 -1.237440 -0.000151 0.026651
    1 0.000000 -5.257813 -1.001953 -0.210942 -0.141139 -0.083518
    2 0.000000 -7.488277 -0.000001 -0.019203 -0.030798 0.041687
    3 0.000000 -5.597980 0.000000 0.269058 -0.113566 0.017680
    4 0.000000 -6.565113 -0.000001 0.935941 -0.105924 0.038195
    5 -1.549380 -5.102886 -4.074768 2.684160 -0.538303 -1.159205
    6 -0.000053 11.987244 0.000028 -0.498141 -0.551246 2.789793
    7 20.109314 0.000000 -0.000002 1.349748 -1.299448 -2.973750
    8 19.941738 0.000001 -0.000004 0.324785 -1.228932 -2.225830
    9 6.938272 1.999413 -1.014580 -3.017221 0.278416 1.287852
    10 20.710249 -0.000001 0.000000 0.000000 0.515895 0.000000
    11 18.105982 0.000001 0.000000 -1.312341 0.132394 1.217969
    12 -6.938270 1.999409 -1.014579 1.743447 0.839184 2.184638
    13 20.710224 0.000000 0.000000 0.000000 0.000000 0.907263
    14 18.106007 0.000000 -0.000001 -0.095372 -1.289654 -2.773204
    15 0.000000 -6.555973 0.000000 0.178968 0.179136 0.159962
    16 0.000000 -3.252140 0.000004 -0.789283 -0.144969 -0.270089
    17 1.548545 -4.925743 -4.285366 -2.529643 -0.709449 -1.561691
    18 1.190170 -10.472042 -0.306138 1.353248 -0.238019 -0.934260
    19 0.000008 0.000000 15.020973 -0.201994 -0.066154 0.008339
    20 0.000004 -0.000001 8.039619 0.000000 0.000000 0.318947
    21 2.899849 -0.471046 -4.331210 -0.333509 -0.630519 -0.915402
    22 -0.000025 2.543312 0.000026 0.217358 0.040231 -0.180100
    23 0.000059 2.315285 -0.000040 0.099114 0.018457 -0.183540
    24 1.551407 3.956631 -3.900798 2.393589 -1.367686 -3.120704
    25 0.000000 2.741436 -0.000004 -0.558500 0.000000 0.000000
    26 0.000010 2.668510 0.000050 -0.492763 0.000000 0.000000
    27 1.401100 3.639805 -1.202109 1.728683 -1.355921 -2.446708
    28 0.000003 2.810951 0.000004 -0.558500 0.000000 0.000000
    29 -0.000005 2.736202 -0.000031 -0.492763 0.000000 0.000000
    30 1.335663 3.182098 1.418086 0.723330 -1.251529 -1.415184
    31 -0.000003 2.663269 0.000046 -0.513118 0.000000 0.000000
    32 0.000001 2.592527 -0.000031 -0.447386 0.000000 0.000000
    33 1.344765 1.881123 3.809589 0.859882 -1.203079 -1.477188
    34 0.000011 2.315664 -0.000084 -0.516589 0.000000 0.000000
    35 -0.000006 2.254017 0.000076 -0.450892 0.000000 0.000000
    36 0.011267 -6.809892 1.974034 -0.607824 0.000000 0.000000
    37 -0.011248 6.809885 -1.974043 -0.607868 0.000000 0.000000
  time 6
    0 31.951428 40.431906 40.750000 -1.192638 -0.011166 0.136008
    1 0.000000 -5.257813 -1.001953 -0.196038 -0.082521 -0.099596
    2 0.000000 -7.488277 -0.000001 -0.056961 -0.018124 0.058534
    3 0.000000 -5.597980 0.000000 0.263338 -0.025635 0.016432
    4 0.000000 -6.565113 -0.000001 0.938677 -0.058997 0.041148
    5 -1.549380 -5.102886 -4.074768 2.531825 -0.547193 -1.164181
    6 -0.000053 11.987244 0.000028 -0.729718 -0.460761 2.854557
    7 20.109314 0.000000 -0.000002 1.234512 -1.392480 -2.853266
    8 19.941738 0.000001 -0.000004 -0.145658 -1.268094 -1.893501
    9 6.938272 1.999413 -1.014580 -2.877385 0.672494 1.473287
    10 20.710249 -0.000001 0.000000 0.000000 0.864903 0.000000
    11 18.105982 0.000001 0.000000 -1.425905 0.188846 1.316072
    12 -6.938270 1.999409 -1.014579 1.965583 0.893759 2.260952
    13 20.710224 0.000000 0.000000 0.000000 0.000000 1.169234
    14 18.106007 0.000000 -0.000001 -0.592971 -1.488330 -2.473610
    15 0.000000 -6.555973 0.000000 0.192802 0.235469 0.184943
    16 0.000000 -3.252140 0.000004 -0.798982 -0.142319 -0.260808
    17 1.548545 -4.925743 -4.285366 -2.876958 -0.721208 -1.265581
    18 1.190170 -10.472042 -0.306138 1.353248 -0.238019 -0.934260
    19 0.000008 0.000000 15.020973 -0.201994 -0.066154 0.008339
    20 0.000004 -0.000001 8.039619 0.000000 0.000000 0.318947
    21 2.899849 -0.471046 -4.331210 -0.333509 -0.630519 -0.915402
    22 -0.000025 2.543312 0.000026 0.217358 0.040231 -0.180100
    23 0.000059 2.315285 -0.000040 0.099114 0.018457 -0.183540
    24 1.551407 3.956631 -3.900798 2.393589 -1.367686 -3.120704
    25 0.000000 2.741436 -0.000004 -0.558500 0.000000 0.000000
    26 0.000010 2.668510 0.000050 -0.492763 0.000000 0.000000
    27 1.401100 3.639805 -1.202109 1.728683 -1.355921 -2.446708
    28 0.000003 2.810951 0.000004 -0.558500 0.000000 0.000000
    29 -0.000005 2.736202 -0.000031 -0.492763 0.000000 0.000000
    30 1.335663 3.182098 1.418086 0.723330 -1.251529 -1.415184
    31 -0.000003 2.663269 0.000046 -0.513118 0.000000 0.000000
    32 0.000001 2.592527 -0.000031 -0.447386 0.000000 0.000000
    33 1.344765 1.881123 3.809589 0.859882 -1.203079 -1.477188
    34 0.000011 2.315664 -0.000084 -0.516589 0.000000 0.000000
    35 -0.000006 2.254017 0.000076 -0.450892 0.000000 0.000000
    36 0.011267 -6.809892 1.974034 -0.607824 0.000000 0.000000
    37 -0.011248 6.809885 -1.974043 -0.607868 0.000000 0.000000
  time 7
    0 38.128229 46.819646 39.437500 -1.089600 -0.089824 0.270830
    1 0.000000 -5.257813 -1.001953 -0.229928 -0.062517 -0.053767
    2 0.000000 -7.488277 -0.000001 -0.092308 0.008126 0.081889
    3 0.000000 -5.597980 0.000000 0.232198 0.109772 0.014538
    4 0.000000 -6.565113 -0.000001 0.870848 0.025356 0.042900
    5 -1.549380 -5.102886 -4.074768 2.319273 -0.571536 -1.128108
    6 -0.000053 11.987244 0.000028 -1.006019 -0.379940 2.871960
    7 20.109314 0.000000 -0.000002 0.199001 -1.511500 -1.809232
    8 19.941738 0.000001 -0.000004 -0.425725 -1.098346 -1.797495
    9 6.938272 1.999413 -1.014580 -2.458417 0.980589 2.045026
    10 20.710249 -0.000001 0.000000 0.000000 1.038821 0.000000
    11 18.105982 0.000001 0.000000 -1.298906 0.243154 1.506267
    12 -6.938270 1.999409 -1.014579 2.344740 0.913750 2.468341
    13 20.710224 0.000000 0.000000 0.000000 0.000000 1.408176
    14 18.106007 0.000000 -0.000001 -2.430616 -1.529169 -0.809244
    15 0.000000 -6.555973 0.000000 0.149114 0.303646 0.211351
    16 0.000000 -3.252140 0.000004 -0.804281 -0.135205 -0.223234
    17 1.548545 -4.925743 -4.285366 -2.993064 -0.720947 -1.373351
    18 1.190170 -10.472042 -0.306138 1.353248 -0.238019 -0.934260
    19 0.000008 0.000000 15.020973 -0.201994 -0.066154 0.008339
    20 0.000004 -0.000001 8.039619 0.000000 0.000000 0.318947
    21 2.899849 -0.471046 -4.331210 -0.333509 -0.630519 -0.915402
    22 -0.000025 2.543312 0.000026 0.217358 0.040231 -0.180100
    23 0.000059 2.315285 -0.000040 0.099114 0.018457 -0.183540
    24 1.551407 3.956631 -3.900798 2.393589 -1.367686 -3.120704
    25 0.000000 2.741436 -0.000004 -0.558500 0.000000 0.000000
    26 0.000010 2.668510 0.000050 -0.492763 0.000000 0.000000
    27 1.401100 3.639805 -1.202109 1.728683 -1.355921 -2.446708
    28 0.000003 2.810951 0.000004 -0.558500 0.000000 0.000000
    29 -0.000005 2.736202 -0.000031 -0.492763 0.000000 0.000000
    30 1.335663 3.182098 1.418086 0.723330 -1.251529 -1.415184
    31 -0.000003 2.663269 0.000046 -0.513118 0.000000 0.000000
    32 0.000001 2.592527 -0.000031 -0.447386 0.000000 0.000000
    33 1.344765 1.881123 3.809589 0.859882 -1.203079 -1.477188
    34 0.000011 2.315664 -0.000084 -0.516589 0.000000 0.000000
    35 -0.000006 2.254017 0.000076 -0.450892 0.000000 0.000000
    36 0.011267 -6.809892 1.974034 -0.607824 0.000000 0.000000
    37 -0.011248 6.809885 -1.974043 -0.607868 0.000000 0.000000
  time 8
    0 42.242530 50.969104 39.625000 -1.062758 -0.044181 0.306692
    1 0.000000 -5.257813 -1.001953 -0.273789 -0.042089 -0.090126
    2 0.000000 -7.488277 -0.000001 -0.094607 0.015572 0.056465
    3 0.000000 -5.597980 0.000000 0.211448 0.142772 0.010377
    4 0.000000 -6.565113 -0.000001 0.847448 0.057924 0.048906
    5 -1.549380 -5.102886 -4.074768 2.171988 -0.577491 -1.085056
    6 -0.000053 11.987244 0.000028 -1.219451 -0.411336 2.919323
    7 20.109314 0.000000 -0.000002 -0.850711 -1.482904 -0.755383
    8 19.941738 0.000001 -0.000004 -0.483219 -0.870294 -1.692459
    9 6.938272 1.999413 -1.014580 -2.363883 1.034001 2.216626
    10 20.710249 -0.000001 0.000000 0.000000 0.978308 0.000000
    11 18.105982 0.000001 0.000000 -1.141591 0.239064 1.665108
    12 -6.938270 1.999409 -1.014579 2.224652 0.870319 2.045169
    13 20.710224 0.000000 0.000000 0.000000 0.000000 1.392214
    14 18.106007 0.000000 -0.000001 -2.657154 -1.319812 -0.767755
    15 0.000000 -6.555973 0.000000 0.145030 0.327292 0.250099
    16 0.000000 -3.252140 0.000004 -0.805955 -0.146838 -0.208112
    17 1.548545 -4.925743 -4.285366 -2.891226 -0.715323 -1.541929
    18 1.190170 -10.472042 -0.306138 1.353248 -0.238019 -0.934260
    19 0.000008 0.000000 15.020973 -0.201994 -0.066154 0.008339
    20 0.000004 -0.000001 8.039619 0.000000 0.000000 0.318947
    21 2.899849 -0.471046 -4.331210 -0.333509 -0.630519 -0.915402
    22 -0.000025 2.543312 0.000026 0.217358 0.040231 -0.180100
    23 0.000059 2.315285 -0.000040 0.099114 0.018457 -0.183540
    24 1.551407 3.956631 -3.900798 2.393589 -1.367686 -3.120704
    25 0.000000 2.741436 -0.000004 -0.558500 0.000000 0.000000
    26 0.000010 2.668510 0.000050 -0.492763 0.000000 0.000000
    27 1.401100 3.639805 -1.202109 1.728683 -1.355921 -2.446708
    28 0.000003 2.810951 0.000004 -0.558500 0.000000 0.000000
    29 -0.000005 2.736202 -0.000031 -0.492763 0.000000 0.000000
    30 1.335663 3.182098 1.418086 0.723330 -1.251529 -1.415184
    31 -0.000003 2.663269 0.000046 -0.513118 0.000000 0.000000
    32 0.000001 2.592527 -0.000031 -0.447386 0.000000 0.000000
    33 1.344765 1.881123 3.809589 0.859882 -1.203079 -1.477188
    34 0.000011 2.315664 -0.000084 -0.516589 0.000000 0.000000
    35 -0.000006 2.254017 0.000076 -0.450892 0.000000 0.000000
    36 0.011267 -6.809892 1.974034 -0.607824 0.000000 0.000000
    37 -0.011248 6.809885 -1.974043 -0.607868 0.000000 0.000000
  time 9
    0 46.333393 55.093172 39.781250 -1.036042 0.001144 0.342263
    1 0.000000 -5.257813 -1.001953 -0.317271 -0.021779 -0.126294
    2 0.000000 -7.488277 -0.000001 -0.096927 0.023024 0.031151
    3 0.000000 -5.597980 0.000000 0.190505 0.161606 0.003294
    4 0.000000 -6.565113 -0.000001 0.824693 0.087230 0.058178
    5 -1.549380 -5.102886 -4.074768 2.154790 -0.540033 -1.036031
    6 -0.000053 11.987244 0.000028 -1.292979 -0.368412 2.928903
    7 20.109314 0.000000 -0.000002 -1.063205 -1.451558 -0.540839
    8 19.941738 0.000001 -0.000004 -0.481255 -0.944184 -1.786961
    9 6.938272 1.999413 -1.014580 -2.352383 1.030182 2.323775
    10 20.710249 -0.000001 0.000000 0.000000 0.788585 0.000000
    11 18.105982 0.000001 0.000000 -0.976718 0.156868 1.856594
    12 -6.938270 1.999409 -1.014579 2.053040 0.742419 1.622544
    13 20.710224 0.000000 0.000000 0.000000 0.000000 1.246655
    14 18.106007 0.000000 -0.000001 -2.485341 -1.228068 -0.852297
    15 0.000000 -6.555973 0.000000 0.142988 0.351289 0.289421
    16 0.000000 -3.252140 0.000004 -0.806055 -0.167290 -0.204495
    17 1.548545 -4.925743 -4.285366 -2.797761 -0.695936 -1.706078
    18 1.190170 -10.472042 -0.306138 1.353248 -0.238019 -0.934260
    19 0.000008 0.000000 15.020973 -0.201994 -0.066154 0.008339
    20 0.000004 -0.000001 8.039619 0.000000 0.000000 0.318947
    21 2.899849 -0.471046 -4.331210 -0.333509 -0.630519 -0.915402
    22 -0.000025 2.543312 0.000026 0.217358 0.040231 -0.180100
    23 0.000059 2.315285 -0.000040 0.099114 0.018457 -0.183540
    24 1.551407 3.956631 -3.900798 2.393589 -1.367686 -3.120704
    25 0.000000 2.741436 -0.000004 -0.558500 0.000000 0.000000
    26 0.000010 2.668510 0.000050 -0.492763 0.000000 0.000000
    27 1.401100 3.639805 -1.202109 1.728683 -1.355921 -2.446708
    28 0.000003 2.810951 0.000004 -0.558500 0.000000 0.000000
    29 -0.000005 2.736202 -0.000031 -0.492763 0.000000 0.000000
    30 1.335663 3.182098 1.418086 0.723330 -1.251529 -1.415184
    31 -0.000003 2.663269 0.000046 -0.513118 0.000000 0.000000
    32 0.000001 2.592527 -0.000031 -0.447386 0.000000 0.000000
    33 1.344765 1.881123 3.809589 0.859882 -1.203079 -1.477188
    34 0.000011 2.315664 -0.000084 -0.516589 0.000000 0.000000
    35 -0.000006 2.254017 0.000076 -0.450892 0.000000 0.000000
    36 0.011267 -6.809892 1.974034 -0.607824 0.000000 0.000000
    37 -0.011248 6.809885 -1.974043 -0.607868 0.000000 0.000000
  time 10
    0 53.310974 62.748489 41.625000 -0.943003 0.082868 0.330424
    1 0.000000 -5.257813 -1.001953 -0.409963 -0.024063 -0.233343
    2 0.000000 -7.488277 -0.000001 -0.093845 0.038241 -0.005463
    3 0.000000 -5.597980 0.000000 0.114367 0.211441 -0.010844
    4 0.000000 -6.565113 -0.000001 0.762003 0.114314 0.072433
    5 -1.549380 -5.102886 -4.074768 2.208346 -0.483677 -0.984533
    6 -0.000053 11.987244 0.000028 -1.385879 -0.355140 2.940536
    7 20.109314 0.000000 -0.000002 -0.993460 -1.464584 -0.611441
    8 19.941738 0.000001 -0.000004 -0.423040 -1.070396 -1.825615
    9 6.938272 1.999413 -1.014580 -2.466540 0.981708 2.279991
    10 20.710249 -0.000001 0.000000 0.000000 0.280952 0.000000
    11 18.105982 0.000001 0.000000 -1.063811 -0.001812 2.069232
    12 -6.938270 1.999409 -1.014579 1.903697 0.693197 1.340885
    13 20.710224 0.000000 0.000000 0.000000 0.000000 0.954390
    14 18.106007 0.000000 -0.000001 -2.360009 -1.242428 -0.634391
    15 0.000000 -6.555973 0.000000 0.152370 0.413149 0.400270
    16 0.000000 -3.252140 0.000004 -0.808026 -0.237306 -0.210671
    17 1.548545 -4.925743 -4.285366 -2.687983 -0.676976 -1.800426
    18 1.190170 -10.472042 -0.306138 1.353248 -0.238019 -0.934260
    19 0.000008 0.000000 15.020973 -0.201994 -0.066154 0.008339
    20 0.000004 -0.000001 8.039619 0.000000 0.000000 0.318947
    21 2.899849 -0.471046 -4.331210 -0.333509 -0.630519 -0.915402
    22 -0.000025 2.543312 0.000026 0.217358 0.040231 -0.180100
    23 0.000059 2.315285 -0.000040 0.099114 0.018457 -0.183540
    24 1.551407 3.956631 -3.900798 2.393589 -1.367686 -3.120704
    25 0.000000 2.741436 -0.000004 -0.558500 0.000000 0.000000
    26 0.000010 2.668510 0.000050 -0.492763 0.000000 0.000000
    27 1.401100 3.639805 -1.202109 1.728683 -1.355921 -2.446708
    28 0.000003 2.810951 0.000004 -0.558500 0.000000 0.000000
    29 -0.000005 2.736202 -0.000031 -0.492763 0.000000 0.000000
    30 1.335663 3.182098 1.418086 0.723330 -1.251529 -1.415184
    31 -0.000003 2.663269 0.000046 -0.513118 0.000000 0.000000
    32 0.000001 2.592527 -0.000031 -0.447386 0.000000 0.000000
    33 1.344765 1.881123 3.809589 0.859882 -1.203079 -1.477188
    34 0.000011 2.315664 -0.000084 -0.516589 0.000000 0.000000
    35 -0.000006 2.254017 0.000076 -0.450892 0.000000 0.000000
    36 0.011267 -6.809892 1.974034 -0.811330 0.001712 0.016669
    37 -0.011248 6.809885 -1.974043 -0.607868 0.000000 0.000000
  time 11
    0 59.921369 70.624510 42.437500 -1.017142 0.021226 0.250009
    1 0.000000 -5.257813 -1.001953 -0.374231 -0.013347 -0.161656
    2 0.000000 -7.488277 -0.000001 -0.042226 0.048163 -0.026666
    3 0.000000 -5.597980 0.000000 0.108865 0.222002 -0.012825
    4 0.000000 -6.565113 -0.000001 0.769512 0.106302 0.060617
    5 -1.549380 -5.102886 -4.074768 2.268325 -0.453175 -0.968702
    6 -0.000053 11.987244 0.000028 -1.352692 -0.399629 2.917528
    7 20.109314 0.000000 -0.000002 -0.161625 -1.511975 -1.447470
    8 19.941738 0.000001 -0.000004 -0.523214 -1.132667 -1.658394
    9 6.938272 1.999413 -1.014580 -2.549592 0.972422 2.419033
    10 20.710249 -0.000001 0.000000 0.000000 0.264011 0.000000
    11 18.105982 0.000001 0.000000 -1.088065 -0.200235 2.089504
    12 -6.938270 1.999409 -1.014579 1.845038 0.526656 1.302403
    13 20.710224 0.000000 0.000000 0.000000 0.000000 0.812577
    14 18.106007 0.000000 -0.000001 -2.200543 -1.256647 -0.525492
    15 0.000000 -6.555973 0.000000 0.117510 0.437002 0.417002
    16 0.000000 -3.252140 0.000004 -0.832413 -0.261068 -0.224083
    17 1.548545 -4.925743 -4.285366 -2.625669 -0.663991 -1.853682
    18 1.190170 -10.472042 -0.306138 1.353248 -0.238019 -0.934260
    19 0.000008 0.000000 15.020973 -0.201994 -0.066154 0.008339
    20 0.000004 -0.000001 8.039619 0.000000 0.000000 0.318947
    21 2.899849 -0.471046 -4.331210 -0.333509 -0.630519 -0.915402
    22 -0.000025 2.543312 0.000026 0.217358 0.040231 -0.180100
    23 0.000059 2.315285 -0.000040 0.099114 0.018457 -0.183540
    24 1.551407 3.956631 -3.900798 2.393589 -1.367686 -3.120704
    25 0.000000 2.741436 -0.000004 -0.558500 0.000000 0.000000
    26 0.000010 2.668510 0.000050 -0.492763 0.000000 0.000000
    27 1.401100 3.639805 -1.202109 1.728683 -1.355921 -2.446708
    28 0.000003 2.810951 0.000004 -0.558500 0.000000 0.000000
    29 -0.000005 2.736202 -0.000031 -0.492763 0.000000 0.000000
    30 1.335663 3.182098 1.418086 0.723330 -1.251529 -1.415184
    31 -0.000003 2.663269 0.000046 -0.513118 0.000000 0.000000
    32 0.000001 2.592527 -0.000031 -0.447386 0.000000 0.000000
    33 1.344765 1.881123 3.809589 0.859882 -1.203079 -1.477188
    34 0.000011 2.315664 -0.000084 -0.516589 0.000000 0.000000
    35 -0.000006 2.254017 0.000076 -0.450892 0.000000 0.000000
    36 0.011267 -6.809892 1.974034 -0.607824 0.000000 0.000000
    37 -0.011248 6.809885 -1.974043 -0.607868 0.000000 0.000000
  time 12
    0 67.262232 78.277875 41.906250 -1.136939 -0.061015 0.170332
    1 0.000000 -5.257813 -1.001953 -0.315843 -0.023780 -0.077823
    2 0.000000 -7.488277 -0.000001 -0.009640 0.040004 -0.021072
    3 0.000000 -5.597980 0.000000 0.154817 0.192349 0.004633
    4 0.000000 -6.565113 -0.000001 0.809642 0.094793 0.058588
    5 -1.549380 -5.102886 -4.074768 2.313800 -0.484235 -1.058948
    6 -0.000053 11.987244 0.000028 -1.297413 -0.557436 2.885735
    7 20.109314 0.000000 -0.000002 1.118254 -1.436818 -2.734439
    8 19.941738 0.000001 -0.000004 -0.534172 -1.077505 -1.423328
    9 6.938272 1.999413 -1.014580 -2.510916 1.124316 2.640644
    10 20.710249 -0.000001 0.000000 0.000000 0.765437 0.000000
    11 18.105982 0.000001 0.000000 -1.157973 0.021581 2.147905
    12 -6.938270 1.999409 -1.014579 1.836599 0.341350 1.336549
    13 20.710224 0.000000 0.000000 0.000000 0.000000 0.807795
    14 18.106007 0.000000 -0.000001 -2.060306 -1.292878 -0.490729
    15 0.000000 -6.555973 0.000000 0.066966 0.353893 0.371367
    16 0.000000 -3.252140 0.000004 -0.838362 -0.213235 -0.196789
    17 1.548545 -4.925743 -4.285366 -2.671468 -0.648235 -1.925196
    18 1.190170 -10.472042 -0.306138 1.353248 -0.238019 -0.934260
    19 0.000008 0.000000 15.020973 -0.201994 -0.066154 0.008339
    20 0.000004 -0.000001 8.039619 0.000000 0.000000 0.318947
    21 2.899849 -0.471046 -4.331210 -0.333509 -0.630519 -0.915402
    22 -0.000025 2.543312 0.000026 0.217358 0.040231 -0.180100
    23 0.000059 2.315285 -0.000040 0.099114 0.018457 -0.183540
    24 1.551407 3.956631 -3.900798 2.393589 -1.367686 -3.120704
    25 0.000000 2.741436 -0.000004 -0.558500 0.000000 0.000000
    26 0.000010 2.668510 0.000050 -0.492763 0.000000 0.000000
    27 1.401100 3.639805 -1.202109 1.728683 -1.355921 -2.446708
    28 0.000003 2.810951 0.000004 -0.558500 0.000000 0.000000
    29 -0.000005 2.736202 -0.000031 -0.492763 0.000000 0.000000
    30 1.335663 3.182098 1.418086 0.723330 -1.251529 -1.415184
    31 -0.000003 2.663269 0.000046 -0.513118 0.000000 0.000000
    32 0.000001 2.592527 -0.000031 -0.447386 0.000000 0.000000
    33 1.344765 1.881123 3.809589 0.859882 -1.203079 -1.477188
    34 0.000011 2.315664 -0.000084 -0.516589 0.000000 0.000000
    35 -0.000006 2.254017 0.000076 -0.450892 0.000000 0.000000
    36 0.011267 -6.809892 1.974034 -0.607824 0.000000 0.000000
    37 -0.011248 6.809885 -1.974043 -0.607868 0.000000 0.000000
  time 13
    0 71.040595 81.771083 41.250000 -1.140188 -0.070907 0.130931
    1 0.000000 -5.257813 -1.001953 -0.296094 -0.043617 -0.077093
    2 0.000000 -7.488277 -0.000001 -0.026810 0.028129 -0.000865
    3 0.000000 -5.597980 0.000000 0.140191 0.157630 0.009985
    4 0.000000 -6.565113 -0.000001 0.784741 0.073439 0.060542
    5 -1.549380 -5.102886 -4.074768 2.381348 -0.560937 -1.153176
    6 -0.000053 11.987244 0.000028 -1.267477 -0.637251 2.798435
    7 20.109314 0.000000 -0.000002 1.325658 -1.326426 -2.948124
    8 19.941738 0.000001 -0.000004 -0.443307 -0.996687 -1.291160
    9 6.938272 1.999413 -1.014580 -2.422159 1.259912 2.737358
    10 20.710249 -0.000001 0.000000 0.000000 1.096178 0.000000
    11 18.105982 0.000001 0.000000 -1.216505 0.071890 2.120269
    12 -6.938270 1.999409 -1.014579 1.748951 -0.164099 1.117328
    13 20.710224 0.000000 0.000000 0.000000 0.000000 0.000000
    14 18.106007 0.000000 -0.000001 -1.755953 -1.256106 -0.268227
    15 0.000000 -6.555973 0.000000 0.056777 0.314833 0.378971
    16 0.000000 -3.252140 0.000004 -0.851022 -0.159209 -0.140954
    17 1.548545 -4.925743 -4.285366 -2.715812 -0.656951 -1.890648
    18 1.190170 -10.472042 -0.306138 1.353248 -0.238019 -0.934260
    19 0.000008 0.000000 15.020973 -0.201994 -0.066154 0.008339
    20 0.000004 -0.000001 8.039619 0.000000 0.000000 0.318947
    21 2.899849 -0.471046 -4.331210 -0.333509 -0.630519 -0.915402
    22 -0.000025 2.543312 0.000026 0.217358 0.040231 -0.180100
    23 0.000059 2.315285 -0.000040 0.099114 0.018457 -0.183540
    24 1.551407 3.956631 -3.900798 2.393589 -1.367686 -3.120704
    25 0.000000 2.741436 -0.000004 -0.558500 0.000000 0.000000
    26 0.000010 2.668510 0.000050 -0.492763 0.000000 0.000000
    27 1.401100 3.639805 -1.202109 1.728683 -1.355921 -2.446708
    28 0.000003 2.810951 0.000004 -0.558500 0.000000 0.000000
    29 -0.000005 2.736202 -0.000031 -0.492763 0.000000 0.000000
    30 1.335663 3.182098 1.418086 0.723330 -1.251529 -1.415184
    31 -0.000003 2.663269 0.000046 -0.513118 0.000000 0.000000
    32 0.000001 2.592527 -0.000031 -0.447386 0.000000 0.000000
    33 1.344765 1.881123 3.809589 0.859882 -1.203079 -1.477188
    34 0.000011 2.315664 -0.000084 -0.516589 0.000000 0.000000
    35 -0.000006 2.254017 0.000076 -0.450892 0.000000 0.000000
    36 0.011267 -6.809892 1.974034 -0.607824 0.000000 0.000000
    37 -0.011248 6.809885 -1.974043 -0.607868 0.000000 0.000000
  time 14
    0 74.834583 85.279916 39.218750 -1.143179 -0.080593 0.091256
    1 0.000000 -5.257813 -1.001953 -0.276335 -0.063578 -0.076633
    2 0.000000 -7.488277 -0.000001 -0.044225 0.016176 0.019179
    3 0.000000 -5.597980 0.000000 0.125304 0.110504 0.012697
    4 0.000000 -6.565113 -0.000001 0.759365 0.048199 0.066568
    5 -1.549380 -5.102886 -4.074768 2.431742 -0.738133 -0.980752
    6 -0.000053 11.987244 0.000028 -1.162300 -0.364345 2.788434
    7 20.109314 0.000000 -0.000002 1.419650 -1.167607 -3.051157
    8 19.941738 0.000001 -0.000004 -0.094860 -1.174405 -1.672163
    9 6.938272 1.999413 -1.014580 -2.081476 1.398698 3.121528
    10 20.710249 -0.000001 0.000000 0.000000 1.450031 0.000000
    11 18.105982 0.000001 0.000000 -0.914672 0.086500 2.122967
    12 -6.938270 1.999409 -1.014579 1.695549 -0.174152 1.176625
    13 20.710224 0.000000 0.000000 0.000000 0.000000 0.000610
    14 18.106007 0.000000 -0.000001 -2.270391 -1.207883 -0.532222
    15 0.000000 -6.555973 0.000000 0.045809 0.275981 0.386983
    16 0.000000 -3.252140 0.000004 -0.859465 -0.107922 -0.090697
    17 1.548545 -4.925743 -4.285366 -2.761146 -0.665572 -1.855208
    18 1.190170 -10.472042 -0.306138 1.353248 -0.238019 -0.934260
    19 0.000008 0.000000 15.020973 -0.201994 -0.066154 0.008339
    20 0.000004 -0.000001 8.039619 0.000000 0.000000 0.318947
    21 2.899849 -0.471046 -4.331210 -0.333509 -0.630519 -0.915402
    22 -0.000025 2.543312 0.000026 0.217358 0.040231 -0.180100
    23 0.000059 2.315285 -0.000040 0.099114 0.018457 -0.183540
    24 1.551407 3.956631 -3.900798 2.393589 -1.367686 -3.120704
    25 0.000000 2.741436 -0.000004 -0.558500 0.000000 0.000000
    26 0.000010 2.668510 0.000050 -0.492763 0.000000 0.000000
    27 1.401100 3.639805 -1.202109 1.728683 -1.355921 -2.446708
    28 0.000003 2.810951 0.000004 -0.558500 0.000000 0.000000
    29 -0.000005 2.736202 -0.000031 -0.492763 0.000000 0.000000
    30 1.335663 3.182098 1.418086 0.723330 -1.251529 -1.415184
    31 -0.000003 2.663269 0.000046 -0.513118 0.000000 0.000000
    32 0.000001 2.592527 -0.000031 -0.447386 0.000000 0.000000
    33 1.344765 1.881123 3.809589 0.859882 -1.203079 -1.477188
    34 0.000011 2.315664 -0.000084 -0.516589 0.000000 0.000000
    35 -0.000006 2.254017 0.000076 -0.450892 0.000000 0.000000
    36 0.011267 -6.809892 1.974034 -0.607824 0.000000 0.000000
    37 -0.011248 6.809885 -1.974043 -0.607868 0.000000 0.000000
  time 15
    0 81.640290 90.954765 39.250000 -1.070766 -0.007569 -0.018682
    1 0.000000 -5.257813 -1.001953 -0.228480 -0.092975 -0.136938
    2 0.000000 -7.488277 -0.000001 -0.111195 -0.007440 0.027801
    3 0.000000 -5.597980 0.000000 0.056227 0.001767 0.006644
    4 0.000000 -6.565113 -0.000001 0.636918 0.003679 0.067420
    5 -1.549380 -5.102886 -4.074768 2.691857 -0.795026 -0.925509
    6 -0.000053 11.987244 0.000028 -1.004660 -0.360720 2.852564
    7 20.109314 0.000000 -0.000002 1.431568 -1.130054 -3.065187
    8 19.941738 0.000001 -0.000004 0.206743 -1.061784 -1.951468
    9 6.938272 1.999413 -1.014580 -2.354618 1.506790 2.564062
    10 20.710249 -0.000001 0.000000 -3.141593 1.339830 -3.141593
    11 18.105982 0.000001 0.000000 -0.837888 0.041326 1.916397
    12 -6.938270 1.999409 -1.014579 1.586430 0.094385 1.330991
    13 20.710224 0.000000 0.000000 0.000000 0.000000 0.215014
    14 18.106007 0.000000 -0.000001 -2.437945 -1.298211 -0.598687
    15 0.000000 -6.555973 0.000000 0.025859 0.251697 0.428165
    16 0.000000 -3.252140 0.000004 -0.866179 -0.070758 -0.078202
    17 1.548545 -4.925743 -4.285366 -2.771451 -0.695616 -1.683875
    18 1.190170 -10.472042 -0.306138 1.353248 -0.238019 -0.934260
    19 0.000008 0.000000 15.020973 -0.201994 -0.066154 0.008339
    20 0.000004 -0.000001 8.039619 0.000000 0.000000 0.318947
    21 2.899849 -0.471046 -4.331210 -0.333509 -0.630519 -0.915402
    22 -0.000025 2.543312 0.000026 0.217358 0.040231 -0.180100
    23 0.000059 2.315285 -0.000040 0.099114 0.018457 -0.183540
    24 1.551407 3.956631 -3.900798 2.393589 -1.367686 -3.120704
    25 0.000000 2.741436 -0.000004 -0.558500 0.000000 0.000000
    26 0.000010 2.668510 0.000050 -0.492763 0.000000 0.000000
    27 1.401100 3.639805 -1.202109 1.728683 -1.355921 -2.446708
    28 0.000003 2.810951 0.000004 -0.558500 0.000000 0.000000
    29 -0.000005 2.736202 -0.000031 -0.492763 0.000000 0.000000
    30 1.335663 3.182098 1.418086 0.723330 -1.251529 -1.415184
    31 -0.000003 2.663269 0.000046 -0.513118 0.000000 0.000000
    32 0.000001 2.592527 -0.000031 -0.447386 0.000000 0.000000
    33 1.344765 1.881123 3.809589 0.859882 -1.203079 -1.477188
    34 0.000011 2.315664 -0.000084 -0.516589 0.000000 0.000000
    35 -0.000006 2.254017 0.000076 -0.450892 0.000000 0.000000
    36 0.011267 -6.809892 1.974034 -0.607824 0.000000 0.000000
    37 -0.011248 6.809885 -1.974043 -0.607868 0.000000 0.000000
  time 16
    0 89.674512 98.496801 38.843750 -1.001028 -0.026148 -0.099329
    1 0.000000 -5.257813 -1.001953 -0.314958 -0.150119 -0.046903
    2 0.000000 -7.488277 -0.000001 -0.105149 -0.030662 0.022519
    3 0.000000 -5.597980 0.000000 0.057538 -0.110941 0.002063
    4 0.000000 -6.565113 -0.000001 0.628080 -0.056407 0.063741
    5 -1.549380 -5.102886 -4.074768 2.904684 -0.709023 -1.062169
    6 -0.000053 11.987244 0.000028 -0.815023 -0.491555 2.584322
    7 20.109314 0.000000 -0.000002 1.473922 -0.904722 -3.120540
    8 19.941738 0.000001 -0.000004 0.009634 -0.941347 -1.837991
    9 6.938272 1.999413 -1.014580 3.140315 1.478197 1.678241
    10 20.710249 -0.000001 0.000000 -3.141593 1.266042 -3.141593
    11 18.105982 0.000001 0.000000 -0.549676 0.018298 1.732028
    12 -6.938270 1.999409 -1.014579 1.601164 0.784322 1.607378
    13 20.710224 0.000000 0.000000 0.000000 0.000000 1.064720
    14 18.106007 0.000000 -0.000001 -1.967263 -1.504245 -1.286092
    15 0.000000 -6.555973 0.000000 0.012042 0.260547 0.295900
    16 0.000000 -3.252140 0.000004 -0.861441 -0.065762 -0.136216
    17 1.548545 -4.925743 -4.285366 -2.507504 -0.642851 -1.903004
    18 1.190170 -10.472042 -0.306138 1.353248 -0.238019 -0.934260
    19 0.000008 0.000000 15.020973 -0.201994 -0.066154 0.008339
    20 0.000004 -0.000001 8.039619 0.000000 0.000000 0.318947
    21 2.899849 -0.471046 -4.331210 -0.333509 -0.630519 -0.915402
    22 -0.000025 2.543312 0.000026 0.217358 0.040231 -0.180100
    23 0.000059 2.315285 -0.000040 0.099114 0.018457 -0.183540
    24 1.551407 3.956631 -3.900798 2.393589 -1.367686 -3.120704
    25 0.000000 2.741436 -0.000004 -0.558500 0.000000 0.000000
    26 0.000010 2.668510 0.000050 -0.492763 0.000000 0.000000
    27 1.401100 3.639805 -1.202109 1.728683 -1.355921 -2.446708
    28 0.000003 2.810951 0.000004 -0.558500 0.000000 0.000000
    29 -0.000005 2.736202 -0.000031 -0.492763 0.000000 0.000000
    30 1.335663 3.182098 1.418086 0.723330 -1.251529 -1.415184
    31 -0.000003 2.663269 0.000046 -0.513118 0.000000 0.000000
    32 0.000001 2.592527 -0.000031 -0.447386 0.000000 0.000000
    33 1.344765 1.881123 3.809589 0.859882 -1.203079 -1.477188
    34 0.000011 2.315664 -0.000084 -0.516589 0.000000 0.000000
    35 -0.000006 2.254017 0.000076 -0.450892 0.000000 0.000000
    36 0.011267 -6.809892 1.974034 -0.607824 0.000000 0.000000
    37 -0.011248 6.809885 -1.974043 -0.607868 0.000000 0.000000
  time 17
    0 97.733149 106.056416 38.437500 -0.931304 -0.044584 -0.179862
    1 0.000000 -5.257813 -1.001953 -0.401003 -0.207199 0.043131
    2 0.000000 -7.488277 -0.000001 -0.098997 -0.053965 0.017346
    3 0.000000 -5.597980 0.000000 0.061142 -0.214345 -0.001053
    4 0.000000 -6.565113 -0.000001 0.621502 -0.119154 0.062541
    5 -1.549380 -5.102886 -4.074768 2.780651 -0.658725 -0.940265
    6 -0.000053 11.987244 0.000028 -0.745746 -0.580261 2.579055
    7 20.109314 0.000000 -0.000002 1.480036 -0.848031 -3.130037
    8 19.941738 0.000001 -0.000004 -0.235640 -0.823560 -1.460062
    9 6.938272 1.999413 -1.014580 3.000127 1.252057 1.517116
    10 20.710249 -0.000001 0.000000 -3.141593 1.296271 -3.141593
    11 18.105982 0.000001 0.000000 -0.923674 -0.001551 1.636558
    12 -6.938270 1.999409 -1.014579 1.751720 1.157631 2.017563
    13 20.710224 0.000000 0.000000 0.000000 0.000000 1.159734
    14 18.106007 0.000000 -0.000001 0.331917 -1.394652 2.925465
    15 0.000000 -6.555973 0.000000 -0.004000 0.269853 0.162742
    16 0.000000 -3.252140 0.000004 -0.855739 -0.091583 -0.231643
    17 1.548545 -4.925743 -4.285366 -2.272119 -0.571291 -2.103052
    18 1.190170 -10.472042 -0.306138 1.353248 -0.238019 -0.934260
    19 0.000008 0.000000 15.020973 -0.201994 -0.066154 0.008339
    20 0.000004 -0.000001 8.039619 0.000000 0.000000 0.318947
    21 2.899849 -0.471046 -4.331210 -0.333509 -0.630519 -0.915402
    22 -0.000025 2.543312 0.000026 0.217358 0.040231 -0.180100
    23 0.000059 2.315285 -0.000040 0.099114 0.018457 -0.183540
    24 1.551407 3.956631 -3.900798 2.393589 -1.367686 -3.120704
    25 0.000000 2.741436 -0.000004 -0.558500 0.000000 0.000000
    26 0.000010 2.668510 0.000050 -0.492763 0.000000 0.000000
    27 1.401100 3.639805 -1.202109 1.728683 -1.355921 -2.446708
    28 0.000003 2.810951 0.000004 -0.558500 0.000000 0.000000
    29 -0.000005 2.736202 -0.000031 -0.492763 0.000000 0.000000
    30 1.335663 3.182098 1.418086 0.723330 -1.251529 -1.415184
    31 -0.000003 2.663269 0.000046 -0.513118 0.000000 0.000000
    32 0.000001 2.592527 -0.000031 -0.447386 0.000000 0.000000
    33 1.344765 1.881123 3.809589 0.859882 -1.203079 -1.477188
    34 0.000011 2.315664 -0.000084 -0.516589 0.000000 0.000000
    35 -0.000006 2.254017 0.000076 -0.450892 0.000000 0.000000
    36 0.011267 -6.809892 1.974034 -0.607824 0.000000 0.000000
    37 -0.011248 6.809885 -1.974043 -0.607868 0.000000 0.000000
  time 18
    0 105.378211 112.948062 40.406250 -0.965506 -0.020379 -0.172930
    1 0.000000 -5.257813 -1.001953 -0.399149 -0.207785 0.028027
    2 0.000000 -7.488277 -0.000001 -0.082972 -0.070105 0.036532
    3 0.000000 -5.597980 0.000000 0.095233 -0.286504 0.003540
    4 0.000000 -6.565113 -0.000001 0.738871 -0.174430 0.035844
    5 -1.549380 -5.102886 -4.074768 2.657753 -0.618287 -0.851614
    6 -0.000053 11.987244 0.000028 -0.562439 -0.317430 2.800439
    7 20.109314 0.000000 -0.000002 1.459940 -1.002274 -3.100911
    8 19.941738 0.000001 -0.000004 0.239235 -0.944882 -2.120214
    9 6.938272 1.999413 -1.014580 3.031072 1.022890 1.419862
    10 20.710249 -0.000001 0.000000 3.141593 1.527112 3.141593
    11 18.105982 0.000001 0.000000 -0.987425 0.010582 1.352208
    12 -6.938270 1.999409 -1.014579 1.800016 1.008019 2.201188
    13 20.710224 0.000000 0.000000 0.000000 0.000000 0.526317
    14 18.106007 0.000000 -0.000001 -0.068652 -1.213254 -2.823783
    15 0.000000 -6.555973 0.000000 0.034792 0.201546 0.088951
    16 0.000000 -3.252140 0.000004 -0.832202 -0.129798 -0.295189
    17 1.548545 -4.925743 -4.285366 -2.213691 -0.580817 -2.031456
    18 1.190170 -10.472042 -0.306138 1.353248 -0.238019 -0.934260
    19 0.000008 0.000000 15.020973 -0.201994 -0.066154 0.008339
    20 0.000004 -0.000001 8.039619 0.000000 0.000000 0.318947
    21 2.899849 -0.471046 -4.331210 -0.333509 -0.630519 -0.915402
    22 -0.000025 2.543312 0.000026 0.217358 0.040231 -0.180100
    23 0.000059 2.315285 -0.000040 0.099114 0.018457 -0.183540
    24 1.551407 3.956631 -3.900798 2.393589 -1.367686 -3.120704
    25 0.000000 2.741436 -0.000004 -0.558500 0.000000 0.000000
    26 0.000010 2.668510 0.000050 -0.492763 0.000000 0.000000
    27 1.401100 3.639805 -1.202109 1.728683 -1.355921 -2.446708
    28 0.000003 2.810951 0.000004 -0.558500 0.000000 0.000000
    29 -0.000005 2.736202 -0.000031 -0.492763 0.000000 0.000000
    30 1.335663 3.182098 1.418086 0.723330 -1.251529 -1.415184
    31 -0.000003 2.663269 0.000046 -0.513118 0.000000 0.000000
    32 0.000001 2.592527 -0.000031 -0.447386 0.000000 0.000000
    33 1.344765 1.881123 3.809589 0.859882 -1.203079 -1.477188
    34 0.000011 2.315664 -0.000084 -0.516589 0.000000 0.000000
    35 -0.000006 2.254017 0.000076 -0.450892 0.000000 0.000000
    36 0.011267 -6.809892 1.974034 -0.607824 0.000000 0.000000
    37 -0.011248 6.809885 -1.974043 -0.607868 0.000000 0.000000
  time 19
    0 109.004719 116.378770 41.062500 -1.048476 -0.010377 -0.120938
    1 0.000000 -5.257813 -1.001953 -0.336384 -0.192259 -0.003203
    2 0.000000 -7.488277 -0.000001 -0.060401 -0.064777 0.035439
    3 0.000000 -5.597980 0.000000 0.154062 -0.281268 -0.001203
    4 0.000000 -6.565113 -0.000001 0.787500 -0.176034 0.028865
    5 -1.549380 -5.102886 -4.074768 2.665852 -0.588248 -0.935595
    6 -0.000053 11.987244 0.000028 -0.434277 -0.313488 2.851822
    7 20.109314 0.000000 -0.000002 1.455977 -1.025170 -3.095522
    8 19.941738 0.000001 -0.000004 0.539482 -0.915929 -2.467195
    9 6.938272 1.999413 -1.014580 3.080389 0.614867 1.291692
    10 20.710249 -0.000001 0.000000 0.000000 1.242524 0.000000
    11 18.105982 0.000001 0.000000 -1.014232 -0.105587 1.244162
    12 -6.938270 1.999409 -1.014579 1.794649 1.051569 2.284022
    13 20.710224 0.000000 0.000000 0.000000 0.000000 0.779867
    14 18.106007 0.000000 -0.000001 -0.116131 -1.108414 -2.891592
    15 0.000000 -6.555973 0.000000 0.067576 0.186932 0.094200
    16 0.000000 -3.252140 0.000004 -0.818441 -0.143373 -0.306623
    17 1.548545 -4.925743 -4.285366 -2.245635 -0.618819 -1.927543
    18 1.190170 -10.472042 -0.306138 1.353248 -0.238019 -0.934260
    19 0.000008 0.000000 15.020973 -0.201994 -0.066154 0.008339
    20 0.000004 -0.000001 8.039619 0.000000 0.000000 0.318947
    21 2.899849 -0.471046 -4.331210 -0.333509 -0.630519 -0.915402
    22 -0.000025 2.543312 0.000026 0.217358 0.040231 -0.180100
    23 0.000059 2.315285 -0.000040 0.099114 0.018457 -0.183540
    24 1.551407 3.956631 -3.900798 2.393589 -1.367686 -3.120704
    25 0.000000 2.741436 -0.000004 -0.558500 0.000000 0.000000
    26 0.000010 2.668510 0.000050 -0.492763 0.000000 0.000000
    27 1.401100 3.639805 -1.202109 1.728683 -1.355921 -2.446708
    28 0.000003 2.810951 0.000004 -0.558500 0.000000 0.000000
    29 -0.000005 2.736202 -0.000031 -0.492763 0.000000 0.000000
    30 1.335663 3.182098 1.418086 0.723330 -1.251529 -1.415184
    31 -0.000003 2.663269 0.000046 -0.513118 0.000000 0.000000
    32 0.000001 2.592527 -0.000031 -0.447386 0.000000 0.000000
    33 1.344765 1.881123 3.809589 0.859882 -1.203079 -1.477188
    34 0.000011 2.315664 -0.000084 -0.516589 0.000000 0.000000
    35 -0.000006 2.254017 0.000076 -0.450892 0.000000 0.000000
    36 0.011267 -6.809892 1.974034 -0.607824 0.000000 0.000000
    37 -0.011248 6.809885 -1.974043 -0.607868 0.000000 0.000000
  time 20
    0 112.653199 119.827057 41.687500 -1.131828 -0.000273 -0.068620
    1 0.000000 -5.257813 -1.001953 -0.273214 -0.176645 -0.034665
    2 0.000000 -7.488277 -0.000001 -0.037787 -0.059377 0.034348
    3 0.000000 -5.597980 0.000000 0.210837 -0.236515 0.002670
    4 0.000000 -6.565113 -0.000001 0.836392 -0.171169 0.015319
    5 -1.549380 -5.102886 -4.074768 2.705139 -0.558967 -1.070242
    6 -0.000053 11.987244 0.000028 -0.341644 -0.477510 2.795004
    7 20.109314 0.000000 -0.000002 1.443763 -1.083932 -3.079984
    8 19.941738 0.000001 -0.000004 0.705798 -0.965940 -2.393102
    9 6.938272 1.999413 -1.014580 3.133941 0.087935 1.182379
    10 20.710249 -0.000001 0.000000 0.000000 0.476103 0.000000
    11 18.105982 0.000001 0.000000 -0.805614 -0.067572 1.119996
    12 -6.938270 1.999409 -1.014579 1.701530 0.987347 2.153003
    13 20.710224 0.000000 0.000000 0.000000 0.000000 0.964987
    14 18.106007 0.000000 -0.000001 -0.198448 -1.130326 -2.984431
    15 0.000000 -6.555973 0.000000 0.100317 0.172065 0.099471
    16 0.000000 -3.252140 0.000004 -0.806930 -0.143624 -0.301305
    17 1.548545 -4.925743 -4.285366 -2.287097 -0.653901 -1.818427
    18 1.190170 -10.472042 -0.306138 1.353248 -0.238019 -0.934260
    19 0.000008 0.000000 15.020973 -0.201994 -0.066154 0.008339
    20 0.000004 -0.000001 8.039619 0.000000 0.000000 0.318947
    21 2.899849 -0.471046 -4.331210 -0.333509 -0.630519 -0.915402
    22 -0.000025 2.543312 0.000026 0.217358 0.040231 -0.180100
    23 0.000059 2.315285 -0.000040 0.099114 0.018457 -0.183540
    24 1.551407 3.956631 -3.900798 2.393589 -1.367686 -3.120704
    25 0.000000 2.741436 -0.000004 -0.558500 0.000000 0.000000
    26 0.000010 2.668510 0.000050 -0.492763 0.000000 0.000000
    27 1.401100 3.639805 -1.202109 1.728683 -1.355921 -2.446708
    28 0.000003 2.810951 0.000004 -0.558500 0.000000 0.000000
    29 -0.000005 2.736202 -0.000031 -0.492763 0.000000 0.000000
    30 1.335663 3.182098 1.418086 0.723330 -1.251529 -1.415184
    31 -0.000003 2.663269 0.000046 -0.513118 0.000000 0.000000
    32 0.000001 2.592527 -0.000031 -0.447386 0.000000 0.000000
    33 1.344765 1.881123 3.809589 0.859882 -1.203079 -1.477188
    34 0.000011 2.315664 -0.000084 -0.516589 0.000000 0.000000
    35 -0.000006 2.254017 0.000076 -0.450892 0.000000 0.000000
    36 0.011267 -6.809892 1.974034 -0.607824 0.000000 0.000000
    37 -0.011248 6.809885 -1.974043 -0.607868 0.000000 0.000000
  time 21
    0 119.603437 126.732374 41.500000 -1.233110 0.040261 0.026800
    1 0.000000 -5.257813 -1.001953 -0.201640 -0.150313 -0.106155
    2 0.000000 -7.488277 -0.000001 -0.011376 -0.041768 0.030153
    3 0.000000 -5.597980 0.000000 0.279788 -0.172643 0.008543
    4 0.000000 -6.565113 -0.000001 0.911696 -0.128954 0.026337
    5 -1.549380 -5.102886 -4.074768 2.684775 -0.538210 -1.159289
    6 -0.000053 11.987244 0.000028 -0.408350 -0.488339 2.754682
    7 20.109314 0.000000 -0.000002 1.433993 -1.121812 -3.068046
    8 19.941738 0.000001 -0.000004 0.769346 -1.136996 -2.426977
    9 6.938272 1.999413 -1.014580 -3.030967 0.131648 1.208486
    10 20.710249 -0.000001 0.000000 0.000000 0.371331 0.000000
    11 18.105982 0.000001 0.000000 -1.312820 0.108027 1.197413
    12 -6.938270 1.999409 -1.014579 1.734734 0.851424 2.073641
    13 20.710224 0.000000 0.000000 0.000000 0.000000 1.043957
    14 18.106007 0.000000 -0.000001 -0.183963 -1.340764 -2.833403
    15 0.000000 -6.555973 0.000000 0.162308 0.194600 0.127666
    16 0.000000 -3.252140 0.000004 -0.793418 -0.144424 -0.299060
    17 1.548545 -4.925743 -4.285366 -2.407357 -0.711583 -1.645389
    18 1.190170 -10.472042 -0.306138 1.353248 -0.238019 -0.934260
    19 0.000008 0.000000 15.020973 -0.201994 -0.066154 0.008339
    20 0.000004 -0.000001 8.039619 0.000000 0.000000 0.318947
    21 2.899849 -0.471046 -4.331210 -0.333509 -0.630519 -0.915402
    22 -0.000025 2.543312 0.000026 0.217358 0.040231 -0.180100
    23 0.000059 2.315285 -0.000040 0.099114 0.018457 -0.183540
    24 1.551407 3.956631 -3.900798 2.393589 -1.367686 -3.120704
    25 0.000000 2.741436 -0.000004 -0.558500 0.000000 0.000000
    26 0.000010 2.668510 0.000050 -0.492763 0.000000 0.000000
    27 1.401100 3.639805 -1.202109 1.728683 -1.355921 -2.446708
    28 0.000003 2.810951 0.000004 -0.558500 0.000000 0.000000
    29 -0.000005 2.736202 -0.000031 -0.492763 0.000000 0.000000
    30 1.335663 3.182098 1.418086 0.723330 -1.251529 -1.415184
    31 -0.000003 2.663269 0.000046 -0.513118 0.000000 0.000000
    32 0.000001 2.592527 -0.000031 -0.447386 0.000000 0.000000
    33 1.344765 1.881123 3.809589 0.859882 -1.203079 -1.477188
    34 0.000011 2.315664 -0.000084 -0.516589 0.000000 0.000000
    35 -0.000006 2.254017 0.000076 -0.450892 0.000000 0.000000
    36 0.011267 -6.809892 1.974034 -0.607824 0.000000 0.000000
    37 -0.011248 6.809885 -1.974043 -0.607868 0.000000 0.000000
  time 22
    0 125.270472 133.354489 40.187500 -1.188148 0.029119 0.136424
    1 0.000000 -5.257813 -1.001953 -0.186596 -0.091497 -0.122234
    2 0.000000 -7.488277 -0.000001 -0.049228 -0.029013 0.047002
    3 0.000000 -5.597980 0.000000 0.272933 -0.084473 0.007509
    4 0.000000 -6.565113 -0.000001 0.913623 -0.080527 0.027925
    5 -1.549380 -5.102886 -4.074768 2.531825 -0.547193 -1.164181
    6 -0.000053 11.987244 0.000028 -0.671435 -0.388901 2.764324
    7 20.109314 0.000000 -0.000002 1.411589 -1.189226 -3.041871
    8 19.941738 0.000001 -0.000004 0.677128 -1.267670 -2.390946
    9 6.938272 1.999413 -1.014580 -2.920397 0.676414 1.423893
    10 20.710249 -0.000001 0.000000 0.000000 0.950888 0.000000
    11 18.105982 0.000001 0.000000 -1.506243 0.137182 1.321320
    12 -6.938270 1.999409 -1.014579 1.940933 0.878199 2.092766
    13 20.710224 0.000000 0.000000 0.000000 0.000000 1.297184
    14 18.106007 0.000000 -0.000001 -1.873131 -1.503093 -1.386325
    15 0.000000 -6.555973 0.000000 0.174458 0.251698 0.152394
    16 0.000000 -3.252140 0.000004 -0.803124 -0.141769 -0.289816
    17 1.548545 -4.925743 -4.285366 -2.738546 -0.723687 -1.350045
    18 1.190170 -10.472042 -0.306138 1.353248 -0.238019 -0.934260
    19 0.000008 0.000000 15.020973 -0.201994 -0.066154 0.008339
    20 0.000004 -0.000001 8.039619 0.000000 0.000000 0.318947
    21 2.899849 -0.471046 -4.331210 -0.333509 -0.630519 -0.915402
    22 -0.000025 2.543312 0.000026 0.217358 0.040231 -0.180100
    23 0.000059 2.315285 -0.000040 0.099114 0.018457 -0.183540
    24 1.551407 3.956631 -3.900798 2.393589 -1.367686 -3.120704
    25 0.000000 2.741436 -0.000004 -0.558500 0.000000 0.000000
    26 0.000010 2.668510 0.000050 -0.492763 0.000000 0.000000
    27 1.401100 3.639805 -1.202109 1.728683 -1.355921 -2.446708
    28 0.000003 2.810951 0.000004 -0.558500 0.000000 0.000000
    29 -0.000005 2.736202 -0.000031 -0.492763 0.000000 0.000000
    30 1.335663 3.182098 1.418086 0.723330 -1.251529 -1.415184
    31 -0.000003 2.663269 0.000046 -0.513118 0.000000 0.000000
    32 0.000001 2.592527 -0.000031 -0.447386 0.000000 0.000000
    33 1.344765 1.881123 3.809589 0.859882 -1.203079 -1.477188
    34 0.000011 2.315664 -0.000084 -0.516589 0.000000 0.000000
    35 -0.000006 2.254017 0.000076 -0.450892 0.000000 0.000000
    36 0.011267 -6.809892 1.974034 -0.607824 0.000000 0.000000
    37 -0.011248 6.809885 -1.974043 -0.607868 0.000000 0.000000
  time 23
    0 131.457038 139.753947 38.843750 -1.085040 -0.049362 0.271385
    1 0.000000 -5.257813 -1.001953 -0.220815 -0.071474 -0.076405
    2 0.000000 -7.488277 -0.000001 -0.084587 -0.002766 0.070385
    3 0.000000 -5.597980 0.000000 0.240118 0.051025 0.005665
    4 0.000000 -6.565113 -0.000001 0.844497 0.008515 0.024836
    5 -1.549380 -5.102886 -4.074768 2.318754 -0.571495 -1.127930
    6 -0.000053 11.987244 0.000028 -0.971967 -0.330427 2.720910
    7 20.109314 0.000000 -0.000002 1.336901 -1.314560 -2.960118
    8 19.941738 0.000001 -0.000004 0.355785 -1.240858 -2.174956
    9 6.938272 1.999413 -1.014580 -2.537928 1.006166 1.979807
    10 20.710249 -0.000001 0.000000 0.000000 1.134592 0.000000
    11 18.105982 0.000001 0.000000 -1.386035 0.190274 1.521428
    12 -6.938270 1.999409 -1.014579 2.255383 0.889147 2.197356
    13 20.710224 0.000000 0.000000 0.000000 0.000000 1.490849
    14 18.106007 0.000000 -0.000001 -2.728841 -1.415516 -0.720066
    15 0.000000 -6.555973 0.000000 0.128681 0.318615 0.178324
    16 0.000000 -3.252140 0.000004 -0.807957 -0.134547 -0.252215
    17 1.548545 -4.925743 -4.285366 -2.856183 -0.718953 -1.458006
    18 1.190170 -10.472042 -0.306138 1.353248 -0.238019 -0.934260
    19 0.000008 0.000000 15.020973 -0.201994 -0.066154 0.008339
    20 0.000004 -0.000001 8.039619 0.000000 0.000000 0.318947
    21 2.899849 -0.471046 -4.331210 -0.333509 -0.630519 -0.915402
    22 -0.000025 2.543312 0.000026 0.217358 0.040231 -0.180100
    23 0.000059 2.315285 -0.000040 0.099114 0.018457 -0.183540
    24 1.551407 3.956631 -3.900798 2.393589 -1.367686 -3.120704
    25 0.000000 2.741436 -0.000004 -0.558500 0.000000 0.000000
    26 0.000010 2.668510 0.000050 -0.492763 0.000000 0.000000
    27 1.401100 3.639805 -1.202109 1.728683 -1.355921 -2.446708
    28 0.000003 2.810951 0.000004 -0.558500 0.000000 0.000000
    29 -0.000005 2.736202 -0.000031 -0.492763 0.000000 0.000000
    30 1.335663 3.182098 1.418086 0.723330 -1.251529 -1.415184
    31 -0.000003 2.663269 0.000046 -0.513118 0.000000 0.000000
    32 0.000001 2.592527 -0.000031 -0.447386 0.000000 0.000000
    33 1.344765 1.881123 3.809589 0.859882 -1.203079 -1.477188
    34 0.000011 2.315664 -0.000084 -0.516589 0.000000 0.000000
    35 -0.000006 2.254017 0.000076 -0.450892 0.000000 0.000000
    36 0.011267 -6.809892 1.974034 -0.607824 0.000000 0.000000
    37 -0.011248 6.809885 -1.974043 -0.607868 0.000000 0.000000
  time 24
    0 135.547901 143.879968 39.031250 -1.058323 -0.004051 0.306925
    1 0.000000 -5.257813 -1.001953 -0.264227 -0.051123 -0.112640
    2 0.000000 -7.488277 -0.000001 -0.086921 0.004591 0.045135
    3 0.000000 -5.597980 0.000000 0.219071 0.083935 0.001370
    4 0.000000 -6.565113 -0.000001 0.820673 0.041373 0.030383
    5 -1.549380 -5.102886 -4.074768 2.171992 -0.577585 -1.085205
    6 -0.000053 11.987244 0.000028 -1.193022 -0.402418 2.745265
    7 20.109314 0.000000 -0.000002 1.254491 -1.381316 -2.873822
    8 19.941738 0.000001 -0.000004 0.222569 -1.116335 -1.903669
    9 6.938272 1.999413 -1.014580 -2.477696 1.078306 2.143107
    10 20.710249 -0.000001 0.000000 0.000000 1.088678 0.000000
    11 18.105982 0.000001 0.000000 -1.242436 0.174436 1.690085
    12 -6.938270 1.999409 -1.014579 2.085803 0.778558 1.731982
    13 20.710224 0.000000 0.000000 0.000000 0.000000 1.339185
    14 18.106007 0.000000 -0.000001 -2.715064 -1.212105 -0.843134
    15 0.000000 -6.555973 0.000000 0.124142 0.342297 0.216649
    16 0.000000 -3.252140 0.000004 -0.809250 -0.145909 -0.237181
    17 1.548545 -4.925743 -4.285366 -2.758424 -0.706416 -1.624228
    18 1.190170 -10.472042 -0.306138 1.353248 -0.238019 -0.934260
    19 0.000008 0.000000 15.020973 -0.201994 -0.066154 0.008339
    20 0.000004 -0.000001 8.039619 0.000000 0.000000 0.318947
    21 2.899849 -0.471046 -4.331210 -0.333509 -0.630519 -0.915402
    22 -0.000025 2.543312 0.000026 0.217358 0.040231 -0.180100
    23 0.000059 2.315285 -0.000040 0.099114 0.018457 -0.183540
    24 1.551407 3.956631 -3.900798 2.393589 -1.367686 -3.120704
    25 0.000000 2.741436 -0.000004 -0.558500 0.000000 0.000000
    26 0.000010 2.668510 0.000050 -0.492763 0.000000 0.000000
    27 1.401100 3.639805 -1.202109 1.728683 -1.355921 -2.446708
    28 0.000003 2.810951 0.000004 -0.558500 0.000000 0.000000
    29 -0.000005 2.736202 -0.000031 -0.492763 0.000000 0.000000
    30 1.335663 3.182098 1.418086 0.723330 -1.251529 -1.415184
    31 -0.000003 2.663269 0.000046 -0.513118 0.000000 0.000000
    32 0.000001 2.592527 -0.000031 -0.447386 0.000000 0.000000
    33 1.344765 1.881123 3.809589 0.859882 -1.203079 -1.477188
    34 0.000011 2.315664 -0.000084 -0.516589 0.000000 0.000000
    35 -0.000006 2.254017 0.000076 -0.450892 0.000000 0.000000
    36 0.011267 -6.809892 1.974034 -0.607824 0.000000 0.000000
    37 -0.011248 6.809885 -1.974043 -0.607868 0.000000 0.000000
  time 25
    0 139.650483 148.017707 39.187500 -1.031564 0.041467 0.342710
    1 0.000000 -5.257813 -1.001953 -0.307636 -0.030753 -0.148947
    2 0.000000 -7.488277 -0.000001 -0.089273 0.012058 0.019624
    3 0.000000 -5.597980 0.000000 0.197855 0.102813 -0.005878
    4 0.000000 -6.565113 -0.000001 0.797361 0.070770 0.039628
    5 -1.549380 -5.102886 -4.074768 2.154790 -0.540033 -1.036031
    6 -0.000053 11.987244 0.000028 -1.297480 -0.378851 2.747514
    7 20.109314 0.000000 -0.000002 1.189002 -1.413262 -2.806549
    8 19.941738 0.000001 -0.000004 0.097896 -1.169135 -1.914669
    9 6.938272 1.999413 -1.014580 -2.498859 1.100123 2.244596
    10 20.710249 -0.000001 0.000000 0.000000 0.953360 0.000000
    11 18.105982 0.000001 0.000000 -1.134941 0.099774 1.879650
    12 -6.938270 1.999409 -1.014579 1.903646 0.521834 1.269468
    13 20.710224 0.000000 0.000000 0.000000 0.000000 0.888564
    14 18.106007 0.000000 -0.000001 -2.520771 -1.028120 -0.749573
    15 0.000000 -6.555973 0.000000 0.121621 0.366540 0.256047
    16 0.000000 -3.252140 0.000004 -0.808887 -0.166387 -0.233561
    17 1.548545 -4.925743 -4.285366 -2.670047 -0.680384 -1.785640
    18 1.190170 -10.472042 -0.306138 1.353248 -0.238019 -0.934260
    19 0.000008 0.000000 15.020973 -0.201994 -0.066154 0.008339
    20 0.000004 -0.000001 8.039619 0.000000 0.000000 0.318947
    21 2.899849 -0.471046 -4.331210 -0.333509 -0.630519 -0.915402
    22 -0.000025 2.543312 0.000026 0.217358 0.040231 -0.180100
    23 0.000059 2.315285 -0.000040 0.099114 0.018457 -0.183540
    24 1.551407 3.956631 -3.900798 2.393589 -1.367686 -3.120704
    25 0.000000 2.741436 -0.000004 -0.558500 0.000000 0.000000
    26 0.000010 2.668510 0.000050 -0.492763 0.000000 0.000000
    27 1.401100 3.639805 -1.202109 1.728683 -1.355921 -2.446708
    28 0.000003 2.810951 0.000004 -0.558500 0.000000 0.000000
    29 -0.000005 2.736202 -0.000031 -0.492763 0.000000 0.000000
    30 1.335663 3.182098 1.418086 0.723330 -1.251529 -1.415184
    31 -0.000003 2.663269 0.000046 -0.513118 0.000000 0.000000
    32 0.000001 2.592527 -0.000031 -0.447386 0.000000 0.000000
    33 1.344765 1.881123 3.809589 0.859882 -1.203079 -1.477188
    34 0.000011 2.315664 -0.000084 -0.516589 0.000000 0.000000
    35 -0.000006 2.254017 0.000076 -0.450892 0.000000 0.000000
    36 0.011267 -6.809892 1.974034 -0.607824 0.000000 0.000000
    37 -0.011248 6.809885 -1.974043 -0.607868 0.000000 0.000000
  time 26
    0 146.647596 155.694509 41.031250 -0.938729 0.122972 0.330638
    1 0.000000 -5.257813 -1.001953 -0.399846 -0.032959 -0.255790
    2 0.000000 -7.488277 -0.000001 -0.086084 0.027313 -0.016940
    3 0.000000 -5.597980 0.000000 0.121090 0.152653 -0.020165
    4 0.000000 -6.565113 -0.000001 0.734190 0.097610 0.054055
    5 -1.549380 -5.102886 -4.074768 2.208465 -0.483575 -0.984485
    6 -0.000053 11.987244 0.000028 -1.442299 -0.414266 2.766419
    7 20.109314 0.000000 -0.000002 1.213637 -1.402734 -2.831834
    8 19.941738 0.000001 -0.000004 0.000722 -1.247117 -1.825699
    9 6.938272 1.999413 -1.014580 -2.475097 1.165136 2.422600
    10 20.710249 -0.000001 0.000000 0.000000 0.735392 0.000000
    11 18.105982 0.000001 0.000000 -1.367077 -0.011878 2.113161
    12 -6.938270 1.999409 -1.014579 1.745676 0.142491 0.947626
    13 20.710224 0.000000 0.000000 0.000000 0.000000 0.000000
    14 18.106007 0.000000 -0.000001 -2.312623 -1.029991 -0.329911
    15 0.000000 -6.555973 0.000000 0.129931 0.429474 0.366753
    16 0.000000 -3.252140 0.000004 -0.809730 -0.236192 -0.240116
    17 1.548545 -4.925743 -4.285366 -2.564365 -0.658347 -1.877554
    18 1.190170 -10.472042 -0.306138 1.353248 -0.238019 -0.934260
    19 0.000008 0.000000 15.020973 -0.201994 -0.066154 0.008339
    20 0.000004 -0.000001 8.039619 0.000000 0.000000 0.318947
    21 2.899849 -0.471046 -4.331210 -0.333509 -0.630519 -0.915402
    22 -0.000025 2.543312 0.000026 0.217358 0.040231 -0.180100
    23 0.000059 2.315285 -0.000040 0.099114 0.018457 -0.183540
    24 1.551407 3.956631 -3.900798 2.393589 -1.367686 -3.120704
    25 0.000000 2.741436 -0.000004 -0.558500 0.000000 0.000000
    26 0.000010 2.668510 0.000050 -0.492763 0.000000 0.000000
    27 1.401100 3.639805 -1.202109 1.728683 -1.355921 -2.446708
    28 0.000003 2.810951 0.000004 -0.558500 0.000000 0.000000
    29 -0.000005 2.736202 -0.000031 -0.492763 0.000000 0.000000
    30 1.335663 3.182098 1.418086 0.723330 -1.251529 -1.415184
    31 -0.000003 2.663269 0.000046 -0.513118 0.000000 0.000000
    32 0.000001 2.592527 -0.000031 -0.447386 0.000000 0.000000
    33 1.344765 1.881123 3.809589 0.859882 -1.203079 -1.477188
    34 0.000011 2.315664 -0.000084 -0.516589 0.000000 0.000000
    35 -0.000006 2.254017 0.000076 -0.450892 0.000000 0.000000
    36 0.011267 -6.809892 1.974034 -0.810733 0.001659 0.016557
    37 -0.011248 6.809885 -1.974043 -0.607868 0.000000 0.000000
  time 27
    0 153.218928 163.523655 41.875000 -1.012340 0.061742 0.250753
    1 0.000000 -5.257813 -1.001953 -0.364661 -0.022290 -0.184607
    2 0.000000 -7.488277 -0.000001 -0.034721 0.037255 -0.038137
    3 0.000000 -5.597980 0.000000 0.115347 0.163237 -0.022207
    4 0.000000 -6.565113 -0.000001 0.741713 0.089424 0.042526
    5 -1.549380 -5.102886 -4.074768 2.268199 -0.453085 -0.968405
    6 -0.000053 11.987244 0.000028 -1.422148 -0.472429 2.747765
    7 20.109314 0.000000 -0.000002 1.311793 -1.339574 -2.933552
    8 19.941738 0.000001 -0.000004 -0.312218 -1.266444 -1.475704
    9 6.938272 1.999413 -1.014580 -2.713286 1.081453 2.408334
    10 20.710249 -0.000001 0.000000 0.000000 0.514380 0.000000
    11 18.105982 0.000001 0.000000 -1.340157 -0.273043 2.177450
    12 -6.938270 1.999409 -1.014579 1.736474 0.024494 0.958602
    13 20.710224 0.000000 0.000000 0.000000 0.000000 0.000000
    14 18.106007 0.000000 -0.000001 -2.289467 -1.093778 -0.158486
    15 0.000000 -6.555973 0.000000 0.094496 0.452416 0.383105
    16 0.000000 -3.252140 0.000004 -0.833860 -0.259918 -0.253547
    17 1.548545 -4.925743 -4.285366 -2.504421 -0.643618 -1.928899
    18 1.190170 -10.472042 -0.306138 1.353248 -0.238019 -0.934260
    19 0.000008 0.000000 15.020973 -0.201994 -0.066154 0.008339
    20 0.000004 -0.000001 8.039619 0.000000 0.000000 0.318947
    21 2.899849 -0.471046 -4.331210 -0.333509 -0.630519 -0.915402
    22 -0.000025 2.543312 0.000026 0.217358 0.040231 -0.180100
    23 0.000059 2.315285 -0.000040 0.099114 0.018457 -0.183540
    24 1.551407 3.956631 -3.900798 2.393589 -1.367686 -3.120704
    25 0.000000 2.741436 -0.000004 -0.558500 0.000000 0.000000
    26 0.000010 2.668510 0.000050 -0.492763 0.000000 0.000000
    27 1.401100 3.639805 -1.202109 1.728683 -1.355921 -2.446708
    28 0.000003 2.810951 0.000004 -0.558500 0.000000 0.000000
    29 -0.000005 2.736202 -0.000031 -0.492763 0.000000 0.000000
    30 1.335663 3.182098 1.418086 0.723330 -1.251529 -1.415184
    31 -0.000003 2.663269 0.000046 -0.513118 0.000000 0.000000
    32 0.000001 2.592527 -0.000031 -0.447386 0.000000 0.000000
    33 1.344765 1.881123 3.809589 0.859882 -1.203079 -1.477188
    34 0.000011 2.315664 -0.000084 -0.516589 0.000000 0.000000
    35 -0.000006 2.254017 0.000076 -0.450892 0.000000 0.000000
    36 0.011267 -6.809892 1.974034 -0.607824 0.000000 0.000000
    37 -0.011248 6.809885 -1.974043 -0.607868 0.000000 0.000000
  time 28
    0 160.581275 171.208270 41.312500 -1.132495 -0.020727 0.170783
    1 0.000000 -5.257813 -1.001953 -0.306454 -0.032783 -0.100483
    2 0.000000 -7.488277 -0.000001 -0.002060 0.029085 -0.032506
    3 0.000000 -5.597980 0.000000 0.161694 0.131424 -0.005046
    4 0.000000 -6.565113 -0.000001 0.782170 0.077907 0.040460
    5 -1.549380 -5.102886 -4.074768 2.313800 -0.484235 -1.058948
    6 -0.000053 11.987244 0.000028 -1.319719 -0.636842 2.716857
    7 20.109314 0.000000 -0.000002 1.393332 -1.230182 -3.021315
    8 19.941738 0.000001 -0.000004 -0.320782 -1.150504 -1.284760
    9 6.938272 1.999413 -1.014580 -2.789399 1.193695 2.491497
    10 20.710249 -0.000001 0.000000 0.000000 0.887009 0.000000
    11 18.105982 0.000001 0.000000 -1.364969 -0.066207 2.229547
    12 -6.938270 1.999409 -1.014579 1.781182 -0.127995 1.055136
    13 20.710224 0.000000 0.000000 0.000000 0.000000 0.000000
    14 18.106007 0.000000 -0.000001 -2.176151 -1.248022 -0.074092
    15 0.000000 -6.555973 0.000000 0.046415 0.367363 0.337850
    16 0.000000 -3.252140 0.000004 -0.838910 -0.216934 -0.232517
    17 1.548545 -4.925743 -4.285366 -2.553629 -0.625464 -1.998495
    18 1.190170 -10.472042 -0.306138 1.353248 -0.238019 -0.934260
    19 0.000008 0.000000 15.020973 -0.201994 -0.066154 0.008339
    20 0.000004 -0.000001 8.039619 0.000000 0.000000 0.318947
    21 2.899849 -0.471046 -4.331210 -0.333509 -0.630519 -0.915402
    22 -0.000025 2.543312 0.000026 0.217358 0.040231 -0.180100
    23 0.000059 2.315285 -0.000040 0.099114 0.018457 -0.183540
    24 1.551407 3.956631 -3.900798 2.393589 -1.367686 -3.120704
    25 0.000000 2.741436 -0.000004 -0.558500 0.000000 0.000000
    26 0.000010 2.668510 0.000050 -0.492763 0.000000 0.000000
    27 1.401100 3.639805 -1.202109 1.728683 -1.355921 -2.446708
    28 0.000003 2.810951 0.000004 -0.558500 0.000000 0.000000
    29 -0.000005 2.736202 -0.000031 -0.492763 0.000000 0.000000
    30 1.335663 3.182098 1.418086 0.723330 -1.251529 -1.415184
    31 -0.000003 2.663269 0.000046 -0.513118 0.000000 0.000000
    32 0.000001 2.592527 -0.000031 -0.447386 0.000000 0.000000
    33 1.344765 1.881123 3.809589 0.859882 -1.203079 -1.477188
    34 0.000011 2.315664 -0.000084 -0.516589 0.000000 0.000000
    35 -0.000006 2.254017 0.000076 -0.450892 0.000000 0.000000
    36 0.011267 -6.809892 1.974034 -0.607824 0.000000 0.000000
    37 -0.011248 6.809885 -1.974043 -0.607868 0.000000 0.000000
  time 29
    0 164.369404 174.705384 40.656250 -1.135737 -0.030678 0.131234
    1 0.000000 -5.257813 -1.001953 -0.286676 -0.052696 -0.099782
    2 0.000000 -7.488277 -0.000001 -0.019210 0.017157 -0.012251
    3 0.000000 -5.597980 0.000000 0.147453 0.094347 -0.000011
    4 0.000000 -6.565113 -0.000001 0.757536 0.056401 0.042560
    5 -1.549380 -5.102886 -4.074768 2.381616 -0.561410 -1.152723
    6 -0.000053 11.987244 0.000028 -1.249143 -0.725536 2.641117
    7 20.109314 0.000000 -0.000002 1.431568 -1.130054 -3.065187
    8 19.941738 0.000001 -0.000004 -0.204644 -1.020913 -1.215943
    9 6.938272 1.999413 -1.014580 -2.882983 1.333674 2.419471
    10 20.710249 -0.000001 0.000000 0.000000 1.190977 0.000000
    11 18.105982 0.000001 0.000000 -1.425618 -0.024432 2.245144
    12 -6.938270 1.999409 -1.014579 1.735259 -0.168933 1.095565
    13 20.710224 0.000000 0.000000 0.000000 0.000000 0.000000
    14 18.106007 0.000000 -0.000001 -1.797856 -1.276997 -0.254527
    15 0.000000 -6.555973 0.000000 0.037682 0.328001 0.345707
    16 0.000000 -3.252140 0.000004 -0.850358 -0.171024 -0.186856
    17 1.548545 -4.925743 -4.285366 -2.596788 -0.635669 -1.964972
    18 1.190170 -10.472042 -0.306138 1.353248 -0.238019 -0.934260
    19 0.000008 0.000000 15.020973 -0.201994 -0.066154 0.008339
    20 0.000004 -0.000001 8.039619 0.000000 0.000000 0.318947
    21 2.899849 -0.471046 -4.331210 -0.333509 -0.630519 -0.915402
    22 -0.000025 2.543312 0.000026 0.217358 0.040231 -0.180100
    23 0.000059 2.315285 -0.000040 0.099114 0.018457 -0.183540
    24 1.551407 3.956631 -3.900798 2.393589 -1.367686 -3.120704
    25 0.000000 2.741436 -0.000004 -0.558500 0.000000 0.000000
    26 0.000010 2.668510 0.000050 -0.492763 0.000000 0.000000
    27 1.401100 3.639805 -1.202109 1.728683 -1.355921 -2.446708
    28 0.000003 2.810951 0.000004 -0.558500 0.000000 0.000000
    29 -0.000005 2.736202 -0.000031 -0.492763 0.000000 0.000000
    30 1.335663 3.182098 1.418086 0.723330 -1.251529 -1.415184
    31 -0.000003 2.663269 0.000046 -0.513118 0.000000 0.000000
    32 0.000001 2.592527 -0.000031 -0.447386 0.000000 0.000000
    33 1.344765 1.881123 3.809589 0.859882 -1.203079 -1.477188
    34 0.000011 2.315664 -0.000084 -0.516589 0.000000 0.000000
    35 -0.000006 2.254017 0.000076 -0.450892 0.000000 0.000000
    36 0.011267 -6.809892 1.974034 -0.607824 0.000000 0.000000
    37 -0.011248 6.809885 -1.974043 -0.607868 0.000000 0.000000
  time 30
    0 168.132142 178.184921 40.000000 -1.138970 -0.040487 0.092087
    1 0.000000 -5.257813 -1.001953 -0.267085 -0.072468 -0.099141
    2 0.000000 -7.488277 -0.000001 -0.036359 0.005329 0.007717
    3 0.000000 -5.597980 0.000000 0.133481 0.051998 0.003721
    4 0.000000 -6.565113 -0.000001 0.733075 0.031395 0.048540
    5 -1.549380 -5.102886 -4.074768 2.430902 -0.737987 -0.980864
    6 -0.000053 11.987244 0.000028 -1.217763 -0.466217 2.698965
    7 20.109314 0.000000 -0.000002 1.449059 -1.059599 -3.086691
    8 19.941738 0.000001 -0.000004 -0.019930 -1.147071 -1.506141
    9 6.938272 1.999413 -1.014580 3.058872 1.429578 2.084503
    10 20.710249 -0.000001 0.000000 0.000000 1.429897 0.000000
    11 18.105982 0.000001 0.000000 -1.085018 -0.027315 2.250262
    12 -6.938270 1.999409 -1.014579 1.694419 -0.128515 1.207068
    13 20.710224 0.000000 0.000000 0.000000 0.000000 0.000000
    14 18.106007 0.000000 -0.000001 -2.298806 -1.277457 -0.507838
    15 0.000000 -6.555973 0.000000 0.028297 0.289116 0.353799
    16 0.000000 -3.252140 0.000004 -0.859490 -0.121914 -0.138562
    17 1.548545 -4.925743 -4.285366 -2.640078 -0.645015 -1.931176
    18 1.190170 -10.472042 -0.306138 1.353248 -0.238019 -0.934260
    19 0.000008 0.000000 15.020973 -0.201994 -0.066154 0.008339
    20 0.000004 -0.000001 8.039619 0.000000 0.000000 0.318947
    21 2.899849 -0.471046 -4.331210 -0.333509 -0.630519 -0.915402
    22 -0.000025 2.543312 0.000026 0.217358 0.040231 -0.180100
    23 0.000059 2.315285 -0.000040 0.099114 0.018457 -0.183540
    24 1.551407 3.956631 -3.900798 2.393589 -1.367686 -3.120704
    25 0.000000 2.741436 -0.000004 -0.558500 0.000000 0.000000
    26 0.000010 2.668510 0.000050 -0.492763 0.000000 0.000000
    27 1.401100 3.639805 -1.202109 1.728683 -1.355921 -2.446708
    28 0.000003 2.810951 0.000004 -0.558500 0.000000 0.000000
    29 -0.000005 2.736202 -0.000031 -0.492763 0.000000 0.000000
    30 1.335663 3.182098 1.418086 0.723330 -1.251529 -1.415184
    31 -0.000003 2.663269 0.000046 -0.513118 0.000000 0.000000
    32 0.000001 2.592527 -0.000031 -0.447386 0.000000 0.000000
    33 1.344765 1.881123 3.809589 0.859882 -1.203079 -1.477188
    34 0.000011 2.315664 -0.000084 -0.516589 0.000000 0.000000
    35 -0.000006 2.254017 0.000076 -0.450892 0.000000 0.000000
    36 0.011267 -6.809892 1.974034 -0.607824 0.000000 0.000000
    37 -0.011248 6.809885 -1.974043 -0.607868 0.000000 0.000000
  time 31
    0 174.957380 183.879301 38.656250 -1.066317 0.032719 -0.018189
    1 0.000000 -5.257813 -1.001953 -0.218863 -0.101930 -0.159671
    2 0.000000 -7.488277 -0.000001 -0.103536 -0.018344 0.016353
    3 0.000000 -5.597980 0.000000 0.065212 -0.015108 0.006347
    4 0.000000 -6.565113 -0.000001 0.610638 -0.019055 0.055570
    5 -1.549380 -5.102886 -4.074768 2.691857 -0.795026 -0.925509
    6 -0.000053 11.987244 0.000028 -1.017096 -0.522674 2.836508
    7 20.109314 0.000000 -0.000002 1.451722 -1.047073 -3.090024
    8 19.941738 0.000001 -0.000004 0.269429 -0.951586 -1.754130
    9 6.938272 1.999413 -1.014580 2.313582 1.474097 1.014132
    10 20.710249 -0.000001 0.000000 -3.141593 1.294248 -3.141593
    11 18.105982 0.000001 0.000000 -0.978461 -0.001368 2.041457
    12 -6.938270 1.999409 -1.014579 1.578265 0.348024 1.353794
    13 20.710224 0.000000 0.000000 0.000000 0.000000 0.654310
    14 18.106007 0.000000 -0.000001 -2.350733 -1.353035 -0.868307
    15 0.000000 -6.555973 0.000000 0.009645 0.264530 0.395313
    16 0.000000 -3.252140 0.000004 -0.868845 -0.069782 -0.107342
    17 1.548545 -4.925743 -4.285366 -2.643605 -0.681269 -1.763645
    18 1.190170 -10.472042 -0.306138 1.353248 -0.238019 -0.934260
    19 0.000008 0.000000 15.020973 -0.201994 -0.066154 0.008339
    20 0.000004 -0.000001 8.039619 0.000000 0.000000 0.318947
    21 2.899849 -0.471046 -4.331210 -0.333509 -0.630519 -0.915402
    22 -0.000025 2.543312 0.000026 0.217358 0.040231 -0.180100
    23 0.000059 2.315285 -0.000040 0.099114 0.018457 -0.183540
    24 1.551407 3.956631 -3.900798 2.393589 -1.367686 -3.120704
    25 0.000000 2.741436 -0.000004 -0.558500 0.000000 0.000000
    26 0.000010 2.668510 0.000050 -0.492763 0.000000 0.000000
    27 1.401100 3.639805 -1.202109 1.728683 -1.355921 -2.446708
    28 0.000003 2.810951 0.000004 -0.558500 0.000000 0.000000
    29 -0.000005 2.736202 -0.000031 -0.492763 0.000000 0.000000
    30 1.335663 3.182098 1.418086 0.723330 -1.251529 -1.415184
    31 -0.000003 2.663269 0.000046 -0.513118 0.000000 0.000000
    32 0.000001 2.592527 -0.000031 -0.447386 0.000000 0.000000
    33 1.344765 1.881123 3.809589 0.859882 -1.203079 -1.477188
    34 0.000011 2.315664 -0.000084 -0.516589 0.000000 0.000000
    35 -0.000006 2.254017 0.000076 -0.450892 0.000000 0.000000
    36 0.011267 -6.809892 1.974034 -0.607824 0.000000 0.000000
    37 -0.011248 6.809885 -1.974043 -0.607868 0.000000 0.000000
  time 32
    0 182.841212 191.735790 38.625000 -1.066026 0.035250 -0.064058
    1 0.000000 -5.257813 -1.001953 -0.218263 -0.102536 -0.161114
    2 0.000000 -7.488277 -0.000001 -0.103047 -0.019057 0.015651
    3 0.000000 -5.597980 0.000000 0.066162 -0.060747 -0.002622
    4 0.000000 -6.565113 -0.000001 0.607505 -0.043610 0.079257
    5 -1.549380 -5.102886 -4.074768 2.904684 -0.709023 -1.062169
    6 -0.000053 11.987244 0.000028 -0.840558 -0.575395 2.671013
    7 20.109314 0.000000 -0.000002 1.464967 -0.971370 -3.107778
    8 19.941738 0.000001 -0.000004 0.308257 -0.896518 -2.051966
    9 6.938272 1.999413 -1.014580 -2.995976 1.374824 1.728813
    10 20.710249 -0.000001 0.000000 3.141593 1.242432 3.141593
    11 18.105982 0.000001 0.000000 -0.615463 0.031174 1.700124
    12 -6.938270 1.999409 -1.014579 1.595675 0.691349 1.527266
    13 20.710224 0.000000 0.000000 0.000000 0.000000 1.030184
    14 18.106007 0.000000 -0.000001 -1.970095 -1.496840 -1.274391
    15 0.000000 -6.555973 0.000000 0.008577 0.265323 0.393185
    16 0.000000 -3.252140 0.000004 -0.869029 -0.069795 -0.109223
    17 1.548545 -4.925743 -4.285366 -2.635770 -0.680358 -1.768541
    18 1.190170 -10.472042 -0.306138 1.353248 -0.238019 -0.934260
    19 0.000008 0.000000 15.020973 -0.201994 -0.066154 0.008339
    20 0.000004 -0.000001 8.039619 0.000000 0.000000 0.318947
    21 2.899849 -0.471046 -4.331210 -0.333509 -0.630519 -0.915402
    22 -0.000025 2.543312 0.000026 0.217358 0.040231 -0.180100
    23 0.000059 2.315285 -0.000040 0.099114 0.018457 -0.183540
    24 1.551407 3.956631 -3.900798 2.393589 -1.367686 -3.120704
    25 0.000000 2.741436 -0.000004 -0.558500 0.000000 0.000000
    26 0.000010 2.668510 0.000050 -0.492763 0.000000 0.000000
    27 1.401100 3.639805 -1.202109 1.728683 -1.355921 -2.446708
    28 0.000003 2.810951 0.000004 -0.558500 0.000000 0.000000
    29 -0.000005 2.736202 -0.000031 -0.492763 0.000000 0.000000
    30 1.335663 3.182098 1.418086 0.723330 -1.251529 -1.415184
    31 -0.000003 2.663269 0.000046 -0.513118 0.000000 0.000000
    32 0.000001 2.592527 -0.000031 -0.447386 0.000000 0.000000
    33 1.344765 1.881123 3.809589 0.859882 -1.203079 -1.477188
    34 0.000011 2.315664 -0.000084 -0.516589 0.000000 0.000000
    35 -0.000006 2.254017 0.000076 -0.450892 0.000000 0.000000
    36 0.011267 -6.809892 1.974034 -0.607824 0.000000 0.000000
    37 -0.011248 6.809885 -1.974043 -0.607868 0.000000 0.000000
end
