// Created by Crowbar 0.74
version 1
nodes
  0 "bip_pelvis" -1
  1 "bip_spine_0" 0
  2 "bip_spine_1" 1
  3 "bip_spine_2" 2
  4 "bip_spine_3" 3
  5 "bip_collar_R" 4
  6 "bip_upperArm_R" 5
  7 "bip_lowerArm_R" 6
  8 "bip_hand_R" 7
  9 "bip_hip_L" 0
  10 "bip_knee_L" 9
  11 "bip_foot_L" 10
  12 "bip_hip_R" 0
  13 "bip_knee_R" 12
  14 "bip_foot_R" 13
  15 "bip_neck" 4
  16 "bip_head" 15
  17 "bip_collar_L" 4
  18 "bip_upperArm_L" 17
  19 "bip_lowerArm_L" 18
  20 "bip_hand_L" 19
  21 "bip_thumb_0_R" 8
  22 "bip_thumb_1_R" 21
  23 "bip_thumb_2_R" 22
  24 "bip_index_0_R" 8
  25 "bip_index_1_R" 24
  26 "bip_index_2_R" 25
  27 "bip_middle_0_R" 8
  28 "bip_middle_1_R" 27
  29 "bip_middle_2_R" 28
  30 "bip_ring_0_R" 8
  31 "bip_ring_1_R" 30
  32 "bip_ring_2_R" 31
  33 "bip_pinky_0_R" 8
  34 "bip_pinky_1_R" 33
  35 "bip_pinky_2_R" 34
  36 "bip_toe_L" 11
  37 "bip_toe_R" 14
end
skeleton
  time 0
    0 -3.566406 5.328125 41.937500 -1.227353 -0.089460 0.266731
    1 0.317139 -5.222656 -1.137695 -0.006904 -0.092747 -0.215910
    2 0.000000 -7.488277 -0.000001 0.201434 -0.057873 0.036499
    3 0.000000 -5.597980 0.000000 0.354933 -0.082929 -0.092229
    4 0.000000 -6.565113 -0.000001 0.798602 -0.048274 -0.114633
    5 -1.549380 -5.102886 -4.074768 2.241163 -0.482052 -1.014624
    6 -0.000053 11.987244 0.000028 -0.816911 -0.584674 -3.120749
    7 20.109314 0.000000 -0.000002 1.255228 -1.395279 -2.833089
    8 19.941738 0.000001 -0.000004 1.113451 -1.350021 -3.029062
    9 6.938272 1.999413 -1.014580 -3.027748 0.423351 1.436975
    10 20.710249 -0.000001 0.000000 0.000000 0.501831 0.000000
    11 18.105982 0.000001 0.000000 -1.237605 0.066699 1.410165
    12 -6.938270 1.999409 -1.014579 2.139828 1.056131 2.237021
    13 20.710224 0.000000 0.000000 0.000000 0.000000 1.480242
    14 18.106007 0.000000 -0.000001 -0.230696 -1.207221 -2.543620
    15 0.000000 -6.555973 0.000000 -0.501661 0.127497 -0.073492
    16 0.000000 -3.252140 0.000004 -0.888173 -0.156057 -0.155271
    17 1.548545 -4.925743 -4.285366 2.981590 -0.717125 -1.281263
    18 1.190170 -10.472042 -0.306138 1.353248 -0.238019 -0.934260
    19 0.000008 0.000000 15.020973 -0.201994 -0.066154 0.008339
    20 0.000004 -0.000001 8.039619 0.000000 0.000000 0.318947
    21 2.899849 -0.471046 -4.331210 -0.201105 -0.677920 -1.132332
    22 -0.000025 2.543312 0.000026 0.207016 0.077893 -0.354859
    23 0.000059 2.315285 -0.000040 0.094291 0.035740 -0.361234
    24 1.551407 3.956631 -3.900798 2.332857 -1.367727 -3.120718
    25 0.000000 2.741436 -0.000004 -0.619285 0.000000 0.000000
    26 0.000010 2.668510 0.000050 -0.553613 0.000000 0.000000
    27 1.401100 3.639805 -1.202109 1.667983 -1.355836 -2.446922
    28 0.000003 2.810951 0.000004 -0.619285 0.000000 0.000000
    29 -0.000005 2.736202 -0.000031 -0.553613 0.000000 0.000000
    30 1.335663 3.182098 1.418086 0.542060 -1.251578 -1.415178
    31 -0.000003 2.663269 0.000046 -0.694345 0.000000 0.000000
    32 0.000001 2.592527 -0.000031 -0.628648 0.000000 0.000000
    33 1.344765 1.881123 3.809589 0.757077 -1.203080 -1.477050
    34 0.000011 2.315664 -0.000084 -0.619285 0.000000 0.000000
    35 -0.000006 2.254017 0.000076 -0.553613 0.000000 0.000000
    36 0.011267 -6.809892 1.974034 -0.607868 0.000000 0.000000
    37 -0.011248 6.809885 -1.974043 -0.607868 0.000000 0.000000
  time 1
    0 -5.357236 7.130673 42.781250 -1.228961 -0.100284 0.229004
    1 0.317139 -5.222656 -1.137695 -0.010313 -0.085091 -0.205681
    2 0.000000 -7.488277 -0.000001 0.204106 -0.057414 0.033281
    3 0.000000 -5.597980 0.000000 0.356234 -0.082422 -0.092698
    4 0.000000 -6.565113 -0.000001 0.798222 -0.031997 -0.121798
    5 -1.549380 -5.102886 -4.074768 2.243067 -0.485134 -1.022517
    6 -0.000053 11.987244 0.000028 -0.837291 -0.577932 -3.113140
    7 20.109314 0.000000 -0.000002 1.250137 -1.397869 -2.828017
    8 19.941738 0.000001 -0.000004 1.101410 -1.363313 -3.013261
    9 6.938272 1.999413 -1.014580 -3.080588 0.333739 1.402673
    10 20.710249 -0.000001 0.000000 0.000000 0.216303 0.000000
    11 18.105982 0.000001 0.000000 -1.035035 0.085888 1.394115
    12 -6.938270 1.999409 -1.014579 1.831960 0.932210 2.077950
    13 20.710224 0.000000 0.000000 0.000000 0.000000 1.352140
    14 18.106007 0.000000 -0.000001 -0.081041 -1.075022 -2.664392
    15 0.000000 -6.555973 0.000000 -0.499352 0.134232 -0.050562
    16 0.000000 -3.252140 0.000004 -0.890607 -0.158061 -0.146037
    17 1.548545 -4.925743 -4.285366 2.981590 -0.717125 -1.281263
    18 1.190170 -10.472042 -0.306138 1.353248 -0.238019 -0.934260
    19 0.000008 0.000000 15.020973 -0.201994 -0.066154 0.008339
    20 0.000004 -0.000001 8.039619 0.000000 0.000000 0.318947
    21 2.899849 -0.471046 -4.331210 -0.201105 -0.677920 -1.132332
    22 -0.000025 2.543312 0.000026 0.207016 0.077893 -0.354859
    23 0.000059 2.315285 -0.000040 0.094291 0.035740 -0.361234
    24 1.551407 3.956631 -3.900798 2.332857 -1.367727 -3.120718
    25 0.000000 2.741436 -0.000004 -0.619285 0.000000 0.000000
    26 0.000010 2.668510 0.000050 -0.553613 0.000000 0.000000
    27 1.401100 3.639805 -1.202109 1.667983 -1.355836 -2.446922
    28 0.000003 2.810951 0.000004 -0.619285 0.000000 0.000000
    29 -0.000005 2.736202 -0.000031 -0.553613 0.000000 0.000000
    30 1.335663 3.182098 1.418086 0.542060 -1.251578 -1.415178
    31 -0.000003 2.663269 0.000046 -0.694345 0.000000 0.000000
    32 0.000001 2.592527 -0.000031 -0.628648 0.000000 0.000000
    33 1.344765 1.881123 3.809589 0.757077 -1.203080 -1.477050
    34 0.000011 2.315664 -0.000084 -0.619285 0.000000 0.000000
    35 -0.000006 2.254017 0.000076 -0.553613 0.000000 0.000000
    36 0.011267 -6.809892 1.974034 -0.607868 0.000000 0.000000
    37 -0.011248 6.809885 -1.974043 -0.607868 0.000000 0.000000
  time 2
    0 -7.142206 8.917596 43.187500 -1.230164 -0.111132 0.174464
    1 0.317139 -5.222656 -1.137695 -0.017757 -0.078351 -0.189809
    2 0.000000 -7.488277 -0.000001 0.205159 -0.057059 0.030833
    3 0.000000 -5.597980 0.000000 0.355669 -0.082165 -0.092872
    4 0.000000 -6.565113 -0.000001 0.797326 -0.020565 -0.127154
    5 -1.549380 -5.102886 -4.074768 2.244485 -0.487584 -1.028282
    6 -0.000053 11.987244 0.000028 -0.846150 -0.574047 -3.113041
    7 20.109314 0.000000 -0.000002 1.246830 -1.399716 -2.824549
    8 19.941738 0.000001 -0.000004 1.055414 -1.397253 -2.957379
    9 6.938272 1.999413 -1.014580 3.138448 0.261323 1.378691
    10 20.710249 -0.000001 0.000000 0.000000 0.000000 0.000000
    11 18.105982 0.000001 0.000000 -0.876985 0.106042 1.374926
    12 -6.938270 1.999409 -1.014579 1.619669 0.723604 2.038583
    13 20.710224 0.000000 0.000000 0.000000 0.000000 1.171284
    14 18.106007 0.000000 -0.000001 0.049067 -0.948590 -2.773229
    15 0.000000 -6.555973 0.000000 -0.496797 0.144330 -0.002706
    16 0.000000 -3.252140 0.000004 -0.894916 -0.153576 -0.132282
    17 1.548545 -4.925743 -4.285366 2.981590 -0.717125 -1.281263
    18 1.190170 -10.472042 -0.306138 1.353248 -0.238019 -0.934260
    19 0.000008 0.000000 15.020973 -0.201994 -0.066154 0.008339
    20 0.000004 -0.000001 8.039619 0.000000 0.000000 0.318947
    21 2.899849 -0.471046 -4.331210 -0.201105 -0.677920 -1.132332
    22 -0.000025 2.543312 0.000026 0.207016 0.077893 -0.354859
    23 0.000059 2.315285 -0.000040 0.094291 0.035740 -0.361234
    24 1.551407 3.956631 -3.900798 2.332857 -1.367727 -3.120718
    25 0.000000 2.741436 -0.000004 -0.619285 0.000000 0.000000
    26 0.000010 2.668510 0.000050 -0.553613 0.000000 0.000000
    27 1.401100 3.639805 -1.202109 1.667983 -1.355836 -2.446922
    28 0.000003 2.810951 0.000004 -0.619285 0.000000 0.000000
    29 -0.000005 2.736202 -0.000031 -0.553613 0.000000 0.000000
    30 1.335663 3.182098 1.418086 0.542060 -1.251578 -1.415178
    31 -0.000003 2.663269 0.000046 -0.694345 0.000000 0.000000
    32 0.000001 2.592527 -0.000031 -0.628648 0.000000 0.000000
    33 1.344765 1.881123 3.809589 0.757077 -1.203080 -1.477050
    34 0.000011 2.315664 -0.000084 -0.619285 0.000000 0.000000
    35 -0.000006 2.254017 0.000076 -0.553613 0.000000 0.000000
    36 0.011267 -6.809892 1.974034 -0.607868 0.000000 0.000000
    37 -0.011248 6.809885 -1.974043 -0.607868 0.000000 0.000000
  time 3
    0 -8.934989 10.704519 42.968750 -1.230960 -0.117483 0.117671
    1 0.317139 -5.222656 -1.137695 -0.028588 -0.066730 -0.163892
    2 0.000000 -7.488277 -0.000001 0.202630 -0.056834 0.029083
    3 0.000000 -5.597980 0.000000 0.351784 -0.081771 -0.093851
    4 0.000000 -6.565113 -0.000001 0.790044 -0.013267 -0.132187
    5 -1.549380 -5.102886 -4.074768 2.243994 -0.488056 -1.029583
    6 -0.000053 11.987244 0.000028 -0.838051 -0.575270 -3.125998
    7 20.109314 0.000000 -0.000002 1.242013 -1.401967 -2.819662
    8 19.941738 0.000001 -0.000004 0.936883 -1.442178 -2.824997
    9 6.938272 1.999413 -1.014580 3.069838 0.282586 1.347402
    10 20.710249 -0.000001 0.000000 0.000000 0.000000 0.000000
    11 18.105982 0.000001 0.000000 -0.835897 0.108135 1.339901
    12 -6.938270 1.999409 -1.014579 1.503221 0.448315 2.094750
    13 20.710224 0.000000 0.000000 0.000000 0.000000 0.873314
    14 18.106007 0.000000 -0.000001 0.154152 -0.848721 -2.812305
    15 0.000000 -6.555973 0.000000 -0.501760 0.143805 0.040161
    16 0.000000 -3.252140 0.000004 -0.889387 -0.142420 -0.116296
    17 1.548545 -4.925743 -4.285366 2.981590 -0.717125 -1.281263
    18 1.190170 -10.472042 -0.306138 1.353248 -0.238019 -0.934260
    19 0.000008 0.000000 15.020973 -0.201994 -0.066154 0.008339
    20 0.000004 -0.000001 8.039619 0.000000 0.000000 0.318947
    21 2.899849 -0.471046 -4.331210 -0.201105 -0.677920 -1.132332
    22 -0.000025 2.543312 0.000026 0.207016 0.077893 -0.354859
    23 0.000059 2.315285 -0.000040 0.094291 0.035740 -0.361234
    24 1.551407 3.956631 -3.900798 2.332857 -1.367727 -3.120718
    25 0.000000 2.741436 -0.000004 -0.619285 0.000000 0.000000
    26 0.000010 2.668510 0.000050 -0.553613 0.000000 0.000000
    27 1.401100 3.639805 -1.202109 1.667983 -1.355836 -2.446922
    28 0.000003 2.810951 0.000004 -0.619285 0.000000 0.000000
    29 -0.000005 2.736202 -0.000031 -0.553613 0.000000 0.000000
    30 1.335663 3.182098 1.418086 0.542060 -1.251578 -1.415178
    31 -0.000003 2.663269 0.000046 -0.694345 0.000000 0.000000
    32 0.000001 2.592527 -0.000031 -0.628648 0.000000 0.000000
    33 1.344765 1.881123 3.809589 0.757077 -1.203080 -1.477050
    34 0.000011 2.315664 -0.000084 -0.619285 0.000000 0.000000
    35 -0.000006 2.254017 0.000076 -0.553613 0.000000 0.000000
    36 0.011267 -6.809892 1.974034 -0.607868 0.000000 0.000000
    37 -0.011248 6.809885 -1.974043 -0.607868 0.000000 0.000000
  time 4
    0 -10.737537 12.495349 42.031250 -1.233343 -0.113917 0.081920
    1 0.317139 -5.222656 -1.137695 -0.045512 -0.042756 -0.125883
    2 0.000000 -7.488277 -0.000001 0.202509 -0.056204 0.024730
    3 0.000000 -5.597980 0.000000 0.348135 -0.081353 -0.094591
    4 0.000000 -6.565113 -0.000001 0.781238 -0.006947 -0.137486
    5 -1.549380 -5.102886 -4.074768 2.233121 -0.478741 -1.009490
    6 -0.000053 11.987244 0.000028 -0.820824 -0.578509 -3.139756
    7 20.109314 0.000000 -0.000002 1.233810 -1.405923 -2.811371
    8 19.941738 0.000001 -0.000004 0.634306 -1.485230 -2.506798
    9 6.938272 1.999413 -1.014580 3.015505 0.306389 1.293090
    10 20.710249 -0.000001 0.000000 0.000000 0.000305 0.000000
    11 18.105982 0.000001 0.000000 -0.792070 0.113276 1.297957
    12 -6.938270 1.999409 -1.014579 1.449625 0.064811 2.195013
    13 20.710224 0.000000 0.000000 0.000000 0.000000 0.300816
    14 18.106007 0.000000 -0.000001 0.231265 -0.779220 -2.673522
    15 0.000000 -6.555973 0.000000 -0.516601 0.130183 0.072890
    16 0.000000 -3.252140 0.000004 -0.866125 -0.126962 -0.104000
    17 1.548545 -4.925743 -4.285366 2.981590 -0.717125 -1.281263
    18 1.190170 -10.472042 -0.306138 1.353248 -0.238019 -0.934260
    19 0.000008 0.000000 15.020973 -0.201994 -0.066154 0.008339
    20 0.000004 -0.000001 8.039619 0.000000 0.000000 0.318947
    21 2.899849 -0.471046 -4.331210 -0.201105 -0.677920 -1.132332
    22 -0.000025 2.543312 0.000026 0.207016 0.077893 -0.354859
    23 0.000059 2.315285 -0.000040 0.094291 0.035740 -0.361234
    24 1.551407 3.956631 -3.900798 2.332857 -1.367727 -3.120718
    25 0.000000 2.741436 -0.000004 -0.619285 0.000000 0.000000
    26 0.000010 2.668510 0.000050 -0.553613 0.000000 0.000000
    27 1.401100 3.639805 -1.202109 1.667983 -1.355836 -2.446922
    28 0.000003 2.810951 0.000004 -0.619285 0.000000 0.000000
    29 -0.000005 2.736202 -0.000031 -0.553613 0.000000 0.000000
    30 1.335663 3.182098 1.418086 0.542060 -1.251578 -1.415178
    31 -0.000003 2.663269 0.000046 -0.694345 0.000000 0.000000
    32 0.000001 2.592527 -0.000031 -0.628648 0.000000 0.000000
    33 1.344765 1.881123 3.809589 0.757077 -1.203080 -1.477050
    34 0.000011 2.315664 -0.000084 -0.619285 0.000000 0.000000
    35 -0.000006 2.254017 0.000076 -0.553613 0.000000 0.000000
    36 0.011267 -6.809892 1.974034 -0.607868 0.000000 0.000000
    37 -0.011248 6.809885 -1.974043 -0.607868 0.000000 0.000000
  time 5
    0 -12.532273 14.274459 40.875000 -1.236019 -0.108476 0.076626
    1 0.317139 -5.222656 -1.137695 -0.062852 -0.029556 -0.107466
    2 0.000000 -7.488277 -0.000001 0.202081 -0.055895 0.024773
    3 0.000000 -5.597980 0.000000 0.345045 -0.080527 -0.095783
    4 0.000000 -6.565113 -0.000001 0.777037 0.014548 -0.156597
    5 -1.549380 -5.102886 -4.074768 2.228449 -0.478066 -1.009709
    6 -0.000053 11.987244 0.000028 -0.791057 -0.586931 3.115893
    7 20.109314 0.000000 -0.000002 1.218609 -1.412997 -2.796025
    8 19.941738 0.000001 -0.000004 0.010034 -1.505565 -1.866926
    9 6.938272 1.999413 -1.014580 2.983148 0.408860 1.219561
    10 20.710249 -0.000001 0.000000 0.000000 0.142883 0.000000
    11 18.105982 0.000001 0.000000 -0.821491 0.106454 1.253398
    12 -6.938270 1.999409 -1.014579 1.428545 -0.141523 2.254045
    13 20.710224 0.000000 0.000000 0.000000 0.000000 0.000000
    14 18.106007 0.000000 -0.000001 0.262756 -0.745651 -2.598511
    15 0.000000 -6.555973 0.000000 -0.537580 0.112853 0.108480
    16 0.000000 -3.252140 0.000004 -0.841181 -0.119851 -0.105469
    17 1.548545 -4.925743 -4.285366 2.981590 -0.717125 -1.281263
    18 1.190170 -10.472042 -0.306138 1.353248 -0.238019 -0.934260
    19 0.000008 0.000000 15.020973 -0.201994 -0.066154 0.008339
    20 0.000004 -0.000001 8.039619 0.000000 0.000000 0.318947
    21 2.899849 -0.471046 -4.331210 -0.201105 -0.677920 -1.132332
    22 -0.000025 2.543312 0.000026 0.207016 0.077893 -0.354859
    23 0.000059 2.315285 -0.000040 0.094291 0.035740 -0.361234
    24 1.551407 3.956631 -3.900798 2.332857 -1.367727 -3.120718
    25 0.000000 2.741436 -0.000004 -0.619285 0.000000 0.000000
    26 0.000010 2.668510 0.000050 -0.553613 0.000000 0.000000
    27 1.401100 3.639805 -1.202109 1.667983 -1.355836 -2.446922
    28 0.000003 2.810951 0.000004 -0.619285 0.000000 0.000000
    29 -0.000005 2.736202 -0.000031 -0.553613 0.000000 0.000000
    30 1.335663 3.182098 1.418086 0.542060 -1.251578 -1.415178
    31 -0.000003 2.663269 0.000046 -0.694345 0.000000 0.000000
    32 0.000001 2.592527 -0.000031 -0.628648 0.000000 0.000000
    33 1.344765 1.881123 3.809589 0.757077 -1.203080 -1.477050
    34 0.000011 2.315664 -0.000084 -0.619285 0.000000 0.000000
    35 -0.000006 2.254017 0.000076 -0.553613 0.000000 0.000000
    36 0.011267 -6.809892 1.974034 -0.607868 0.000000 0.000000
    37 -0.011248 6.809885 -1.974043 -0.607868 0.000000 0.000000
  time 6
    0 -14.332868 16.053570 39.625000 -1.238119 -0.102090 0.083136
    1 0.317139 -5.222656 -1.137695 -0.077956 -0.019606 -0.082579
    2 0.000000 -7.488277 -0.000001 0.199798 -0.055160 0.020857
    3 0.000000 -5.597980 0.000000 0.341251 -0.080723 -0.091539
    4 0.000000 -6.565113 -0.000001 0.776662 0.040218 -0.182003
    5 -1.549380 -5.102886 -4.074768 2.235654 -0.492096 -1.037823
    6 -0.000053 11.987244 0.000028 -0.755190 -0.597958 3.075101
    7 20.109314 0.000000 -0.000002 1.186402 -1.425719 -2.763461
    8 19.941738 0.000001 -0.000004 -0.537228 -1.495131 -1.305659
    9 6.938272 1.999413 -1.014580 2.956746 0.521443 1.139505
    10 20.710249 -0.000001 0.000000 0.000000 0.302235 0.000000
    11 18.105982 0.000001 0.000000 -0.857699 0.101324 1.215877
    12 -6.938270 1.999409 -1.014579 1.425337 -0.162983 2.254504
    13 20.710224 0.000000 0.000000 0.000000 0.000000 0.000000
    14 18.106007 0.000000 -0.000001 0.003172 -0.743581 -2.585143
    15 0.000000 -6.555973 0.000000 -0.563494 0.094684 0.144012
    16 0.000000 -3.252140 0.000004 -0.792940 -0.110851 -0.109271
    17 1.548545 -4.925743 -4.285366 2.981590 -0.717125 -1.281263
    18 1.190170 -10.472042 -0.306138 1.353248 -0.238019 -0.934260
    19 0.000008 0.000000 15.020973 -0.201994 -0.066154 0.008339
    20 0.000004 -0.000001 8.039619 0.000000 0.000000 0.318947
    21 2.899849 -0.471046 -4.331210 -0.201105 -0.677920 -1.132332
    22 -0.000025 2.543312 0.000026 0.207016 0.077893 -0.354859
    23 0.000059 2.315285 -0.000040 0.094291 0.035740 -0.361234
    24 1.551407 3.956631 -3.900798 2.332857 -1.367727 -3.120718
    25 0.000000 2.741436 -0.000004 -0.619285 0.000000 0.000000
    26 0.000010 2.668510 0.000050 -0.553613 0.000000 0.000000
    27 1.401100 3.639805 -1.202109 1.667983 -1.355836 -2.446922
    28 0.000003 2.810951 0.000004 -0.619285 0.000000 0.000000
    29 -0.000005 2.736202 -0.000031 -0.553613 0.000000 0.000000
    30 1.335663 3.182098 1.418086 0.542060 -1.251578 -1.415178
    31 -0.000003 2.663269 0.000046 -0.694345 0.000000 0.000000
    32 0.000001 2.592527 -0.000031 -0.628648 0.000000 0.000000
    33 1.344765 1.881123 3.809589 0.757077 -1.203080 -1.477050
    34 0.000011 2.315664 -0.000084 -0.619285 0.000000 0.000000
    35 -0.000006 2.254017 0.000076 -0.553613 0.000000 0.000000
    36 0.011267 -6.809892 1.974034 -0.607868 0.000000 0.000000
    37 -0.011248 6.809885 -1.974043 -0.607868 0.000000 0.000000
  time 7
    0 -16.139323 17.836587 38.531250 -1.240384 -0.095971 0.100586
    1 0.317139 -5.222656 -1.137695 -0.085256 0.002881 -0.015518
    2 0.000000 -7.488277 -0.000001 0.197326 -0.051002 -0.015848
    3 0.000000 -5.597980 0.000000 0.339843 -0.088756 -0.051564
    4 0.000000 -6.565113 -0.000001 0.777183 0.067791 -0.235480
    5 -1.549380 -5.102886 -4.074768 2.248468 -0.514087 -1.077390
    6 -0.000053 11.987244 0.000028 -0.724395 -0.609829 3.036032
    7 20.109314 0.000000 -0.000002 1.130525 -1.443172 -2.706998
    8 19.941738 0.000001 -0.000004 -0.805733 -1.471615 -1.022075
    9 6.938272 1.999413 -1.014580 2.937514 0.629162 1.060492
    10 20.710249 -0.000001 0.000000 0.000000 0.451331 0.000000
    11 18.105982 0.000001 0.000000 -0.943122 0.097146 1.183146
    12 -6.938270 1.999409 -1.014579 1.435846 -0.123156 2.203408
    13 20.710224 0.000000 0.000000 0.000000 0.000000 0.000122
    14 18.106007 0.000000 -0.000001 -0.281724 -0.762443 -2.484030
    15 0.000000 -6.555973 0.000000 -0.591909 0.077897 0.176304
    16 0.000000 -3.252140 0.000004 -0.726246 -0.088753 -0.108050
    17 1.548545 -4.925743 -4.285366 2.981590 -0.717125 -1.281263
    18 1.190170 -10.472042 -0.306138 1.353248 -0.238019 -0.934260
    19 0.000008 0.000000 15.020973 -0.201994 -0.066154 0.008339
    20 0.000004 -0.000001 8.039619 0.000000 0.000000 0.318947
    21 2.899849 -0.471046 -4.331210 -0.201105 -0.677920 -1.132332
    22 -0.000025 2.543312 0.000026 0.207016 0.077893 -0.354859
    23 0.000059 2.315285 -0.000040 0.094291 0.035740 -0.361234
    24 1.551407 3.956631 -3.900798 2.332857 -1.367727 -3.120718
    25 0.000000 2.741436 -0.000004 -0.619285 0.000000 0.000000
    26 0.000010 2.668510 0.000050 -0.553613 0.000000 0.000000
    27 1.401100 3.639805 -1.202109 1.667983 -1.355836 -2.446922
    28 0.000003 2.810951 0.000004 -0.619285 0.000000 0.000000
    29 -0.000005 2.736202 -0.000031 -0.553613 0.000000 0.000000
    30 1.335663 3.182098 1.418086 0.542060 -1.251578 -1.415178
    31 -0.000003 2.663269 0.000046 -0.694345 0.000000 0.000000
    32 0.000001 2.592527 -0.000031 -0.628648 0.000000 0.000000
    33 1.344765 1.881123 3.809589 0.757077 -1.203080 -1.477050
    34 0.000011 2.315664 -0.000084 -0.619285 0.000000 0.000000
    35 -0.000006 2.254017 0.000076 -0.553613 0.000000 0.000000
    36 0.011267 -6.809892 1.974034 -0.607868 0.000000 0.000000
    37 -0.011248 6.809885 -1.974043 -0.607868 0.000000 0.000000
  time 8
    0 -17.941872 19.607885 37.812500 -1.241524 -0.091322 0.120438
    1 0.317139 -5.222656 -1.137695 -0.083782 0.026481 0.047159
    2 0.000000 -7.488277 -0.000001 0.186020 -0.046198 -0.059011
    3 0.000000 -5.597980 0.000000 0.336155 -0.098420 -0.005061
    4 0.000000 -6.565113 -0.000001 0.772224 0.090376 -0.299944
    5 -1.549380 -5.102886 -4.074768 2.256461 -0.527893 -1.100133
    6 -0.000053 11.987244 0.000028 -0.695905 -0.620197 2.999857
    7 20.109314 0.000000 -0.000002 1.055762 -1.460444 -2.631753
    8 19.941738 0.000001 -0.000004 -0.937966 -1.441501 -0.872485
    9 6.938272 1.999413 -1.014580 2.923613 0.700594 0.989609
    10 20.710249 -0.000001 0.000000 0.000000 0.527013 0.000000
    11 18.105982 0.000001 0.000000 -1.042600 0.107348 1.156540
    12 -6.938270 1.999409 -1.014579 1.443813 -0.058753 2.167425
    13 20.710224 0.000000 0.000000 0.000000 0.000000 0.086331
    14 18.106007 0.000000 -0.000001 -0.303189 -0.767386 -2.479476
    15 0.000000 -6.555973 0.000000 -0.619671 0.064214 0.202768
    16 0.000000 -3.252140 0.000004 -0.698918 -0.073883 -0.108759
    17 1.548545 -4.925743 -4.285366 2.981590 -0.717125 -1.281263
    18 1.190170 -10.472042 -0.306138 1.353248 -0.238019 -0.934260
    19 0.000008 0.000000 15.020973 -0.201994 -0.066154 0.008339
    20 0.000004 -0.000001 8.039619 0.000000 0.000000 0.318947
    21 2.899849 -0.471046 -4.331210 -0.201105 -0.677920 -1.132332
    22 -0.000025 2.543312 0.000026 0.207016 0.077893 -0.354859
    23 0.000059 2.315285 -0.000040 0.094291 0.035740 -0.361234
    24 1.551407 3.956631 -3.900798 2.332857 -1.367727 -3.120718
    25 0.000000 2.741436 -0.000004 -0.619285 0.000000 0.000000
    26 0.000010 2.668510 0.000050 -0.553613 0.000000 0.000000
    27 1.401100 3.639805 -1.202109 1.667983 -1.355836 -2.446922
    28 0.000003 2.810951 0.000004 -0.619285 0.000000 0.000000
    29 -0.000005 2.736202 -0.000031 -0.553613 0.000000 0.000000
    30 1.335663 3.182098 1.418086 0.542060 -1.251578 -1.415178
    31 -0.000003 2.663269 0.000046 -0.694345 0.000000 0.000000
    32 0.000001 2.592527 -0.000031 -0.628648 0.000000 0.000000
    33 1.344765 1.881123 3.809589 0.757077 -1.203080 -1.477050
    34 0.000011 2.315664 -0.000084 -0.619285 0.000000 0.000000
    35 -0.000006 2.254017 0.000076 -0.553613 0.000000 0.000000
    36 0.011267 -6.809892 1.974034 -0.607868 0.000000 0.000000
    37 -0.011248 6.809885 -1.974043 -0.607868 0.000000 0.000000
  time 9
    0 -19.740514 21.390902 37.781250 -1.241417 -0.089285 0.117098
    1 0.317139 -5.222656 -1.137695 -0.077733 0.037231 0.078604
    2 0.000000 -7.488277 -0.000001 0.173461 -0.043403 -0.087630
    3 0.000000 -5.597980 0.000000 0.331070 -0.105933 0.030004
    4 0.000000 -6.565113 -0.000001 0.762289 0.094860 -0.348732
    5 -1.549380 -5.102886 -4.074768 2.252205 -0.522198 -1.089978
    6 -0.000053 11.987244 0.000028 -0.675590 -0.625876 2.979678
    7 20.109314 0.000000 -0.000002 0.975482 -1.473937 -2.550953
    8 19.941738 0.000001 -0.000004 -0.998869 -1.411594 -0.793892
    9 6.938272 1.999413 -1.014580 2.893282 0.733907 0.916175
    10 20.710249 -0.000001 0.000000 0.000000 0.568667 0.000000
    11 18.105982 0.000001 0.000000 -1.090598 0.121469 1.126734
    12 -6.938270 1.999409 -1.014579 1.427348 0.209170 2.108244
    13 20.710224 0.000000 0.000000 0.000000 0.000000 0.559516
    14 18.106007 0.000000 -0.000001 -0.334208 -0.774080 -2.659691
    15 0.000000 -6.555973 0.000000 -0.643376 0.054195 0.221786
    16 0.000000 -3.252140 0.000004 -0.704630 -0.054342 -0.110340
    17 1.548545 -4.925743 -4.285366 2.981590 -0.717125 -1.281263
    18 1.190170 -10.472042 -0.306138 1.353248 -0.238019 -0.934260
    19 0.000008 0.000000 15.020973 -0.201994 -0.066154 0.008339
    20 0.000004 -0.000001 8.039619 0.000000 0.000000 0.318947
    21 2.899849 -0.471046 -4.331210 -0.201105 -0.677920 -1.132332
    22 -0.000025 2.543312 0.000026 0.207016 0.077893 -0.354859
    23 0.000059 2.315285 -0.000040 0.094291 0.035740 -0.361234
    24 1.551407 3.956631 -3.900798 2.332857 -1.367727 -3.120718
    25 0.000000 2.741436 -0.000004 -0.619285 0.000000 0.000000
    26 0.000010 2.668510 0.000050 -0.553613 0.000000 0.000000
    27 1.401100 3.639805 -1.202109 1.667983 -1.355836 -2.446922
    28 0.000003 2.810951 0.000004 -0.619285 0.000000 0.000000
    29 -0.000005 2.736202 -0.000031 -0.553613 0.000000 0.000000
    30 1.335663 3.182098 1.418086 0.542060 -1.251578 -1.415178
    31 -0.000003 2.663269 0.000046 -0.694345 0.000000 0.000000
    32 0.000001 2.592527 -0.000031 -0.628648 0.000000 0.000000
    33 1.344765 1.881123 3.809589 0.757077 -1.203080 -1.477050
    34 0.000011 2.315664 -0.000084 -0.619285 0.000000 0.000000
    35 -0.000006 2.254017 0.000076 -0.553613 0.000000 0.000000
    36 0.011267 -6.809892 1.974034 -0.607868 0.000000 0.000000
    37 -0.011248 6.809885 -1.974043 -0.607868 0.000000 0.000000
  time 10
    0 -21.539156 23.181731 38.500000 -1.243471 -0.090150 0.097477
    1 0.317139 -5.222656 -1.137695 -0.066740 0.028995 0.065006
    2 0.000000 -7.488277 -0.000001 0.175170 -0.043177 -0.090107
    3 0.000000 -5.597980 0.000000 0.332498 -0.106866 0.033496
    4 0.000000 -6.565113 -0.000001 0.765170 0.086253 -0.337723
    5 -1.549380 -5.102886 -4.074768 2.260496 -0.527649 -1.102353
    6 -0.000053 11.987244 0.000028 -0.660039 -0.630545 2.986447
    7 20.109314 0.000000 -0.000002 0.912261 -1.482072 -2.487598
    8 19.941738 0.000001 -0.000004 -1.028415 -1.387105 -0.748458
    9 6.938272 1.999413 -1.014580 2.872631 0.693480 0.889954
    10 20.710249 -0.000001 0.000000 0.000000 0.504478 0.000000
    11 18.105982 0.000001 0.000000 -1.033210 0.148514 1.114365
    12 -6.938270 1.999409 -1.014579 1.389432 0.331758 2.059259
    13 20.710224 0.000000 0.000000 0.000000 0.000000 0.683257
    14 18.106007 0.000000 -0.000001 -0.375561 -0.782040 -2.630899
    15 0.000000 -6.555973 0.000000 -0.659438 0.048358 0.231609
    16 0.000000 -3.252140 0.000004 -0.699484 -0.058103 -0.113177
    17 1.548545 -4.925743 -4.285366 2.981590 -0.717125 -1.281263
    18 1.190170 -10.472042 -0.306138 1.353248 -0.238019 -0.934260
    19 0.000008 0.000000 15.020973 -0.201994 -0.066154 0.008339
    20 0.000004 -0.000001 8.039619 0.000000 0.000000 0.318947
    21 2.899849 -0.471046 -4.331210 -0.201105 -0.677920 -1.132332
    22 -0.000025 2.543312 0.000026 0.207016 0.077893 -0.354859
    23 0.000059 2.315285 -0.000040 0.094291 0.035740 -0.361234
    24 1.551407 3.956631 -3.900798 2.332857 -1.367727 -3.120718
    25 0.000000 2.741436 -0.000004 -0.619285 0.000000 0.000000
    26 0.000010 2.668510 0.000050 -0.553613 0.000000 0.000000
    27 1.401100 3.639805 -1.202109 1.667983 -1.355836 -2.446922
    28 0.000003 2.810951 0.000004 -0.619285 0.000000 0.000000
    29 -0.000005 2.736202 -0.000031 -0.553613 0.000000 0.000000
    30 1.335663 3.182098 1.418086 0.542060 -1.251578 -1.415178
    31 -0.000003 2.663269 0.000046 -0.694345 0.000000 0.000000
    32 0.000001 2.592527 -0.000031 -0.628648 0.000000 0.000000
    33 1.344765 1.881123 3.809589 0.757077 -1.203080 -1.477050
    34 0.000011 2.315664 -0.000084 -0.619285 0.000000 0.000000
    35 -0.000006 2.254017 0.000076 -0.553613 0.000000 0.000000
    36 0.011267 -6.809892 1.974034 -0.607868 0.000000 0.000000
    37 -0.011248 6.809885 -1.974043 -0.607868 0.000000 0.000000
  time 11
    0 -23.328032 24.968654 39.375000 -1.245564 -0.093586 0.077843
    1 0.317139 -5.222656 -1.137695 -0.055767 0.020744 0.051697
    2 0.000000 -7.488277 -0.000001 0.176879 -0.043019 -0.092468
    3 0.000000 -5.597980 0.000000 0.333863 -0.107803 0.036990
    4 0.000000 -6.565113 -0.000001 0.767989 0.077673 -0.326876
    5 -1.549380 -5.102886 -4.074768 2.268844 -0.532980 -1.114712
    6 -0.000053 11.987244 0.000028 -0.644272 -0.635303 2.992455
    7 20.109314 0.000000 -0.000002 0.868131 -1.486785 -2.443202
    8 19.941738 0.000001 -0.000004 -1.049376 -1.372510 -0.715575
    9 6.938272 1.999413 -1.014580 2.857060 0.659548 0.892561
    10 20.710249 -0.000001 0.000000 0.000000 0.481191 0.000000
    11 18.105982 0.000001 0.000000 -0.981546 0.152983 1.105199
    12 -6.938270 1.999409 -1.014579 1.348693 0.425259 2.008645
    13 20.710224 0.000000 0.000000 0.000000 0.000000 0.743444
    14 18.106007 0.000000 -0.000001 -0.417787 -0.789031 -2.563476
    15 0.000000 -6.555973 0.000000 -0.664476 0.047338 0.230607
    16 0.000000 -3.252140 0.000004 -0.694331 -0.061893 -0.116151
    17 1.548545 -4.925743 -4.285366 2.981590 -0.717125 -1.281263
    18 1.190170 -10.472042 -0.306138 1.353248 -0.238019 -0.934260
    19 0.000008 0.000000 15.020973 -0.201994 -0.066154 0.008339
    20 0.000004 -0.000001 8.039619 0.000000 0.000000 0.318947
    21 2.899849 -0.471046 -4.331210 -0.201105 -0.677920 -1.132332
    22 -0.000025 2.543312 0.000026 0.207016 0.077893 -0.354859
    23 0.000059 2.315285 -0.000040 0.094291 0.035740 -0.361234
    24 1.551407 3.956631 -3.900798 2.332857 -1.367727 -3.120718
    25 0.000000 2.741436 -0.000004 -0.619285 0.000000 0.000000
    26 0.000010 2.668510 0.000050 -0.553613 0.000000 0.000000
    27 1.401100 3.639805 -1.202109 1.667983 -1.355836 -2.446922
    28 0.000003 2.810951 0.000004 -0.619285 0.000000 0.000000
    29 -0.000005 2.736202 -0.000031 -0.553613 0.000000 0.000000
    30 1.335663 3.182098 1.418086 0.542060 -1.251578 -1.415178
    31 -0.000003 2.663269 0.000046 -0.694345 0.000000 0.000000
    32 0.000001 2.592527 -0.000031 -0.628648 0.000000 0.000000
    33 1.344765 1.881123 3.809589 0.757077 -1.203080 -1.477050
    34 0.000011 2.315664 -0.000084 -0.619285 0.000000 0.000000
    35 -0.000006 2.254017 0.000076 -0.553613 0.000000 0.000000
    36 0.011267 -6.809892 1.974034 -0.607868 0.000000 0.000000
    37 -0.011248 6.809885 -1.974043 -0.607868 0.000000 0.000000
  time 12
    0 -25.118862 26.759483 40.312500 -1.247912 -0.098233 0.064835
    1 0.317139 -5.222656 -1.137695 -0.050271 0.004240 0.013203
    2 0.000000 -7.488277 -0.000001 0.186410 -0.044139 -0.081772
    3 0.000000 -5.597980 0.000000 0.337176 -0.106259 0.028152
    4 0.000000 -6.565113 -0.000001 0.775251 0.062249 -0.297968
    5 -1.549380 -5.102886 -4.074768 2.277771 -0.537084 -1.126581
    6 -0.000053 11.987244 0.000028 -0.664234 -0.630882 3.031514
    7 20.109314 0.000000 -0.000002 0.846589 -1.488910 -2.421695
    8 19.941738 0.000001 -0.000004 -1.076039 -1.371465 -0.682700
    9 6.938272 1.999413 -1.014580 2.842423 0.666275 0.922629
    10 20.710249 -0.000001 0.000000 0.000000 0.585092 0.000000
    11 18.105982 0.000001 0.000000 -0.993333 0.106635 1.087573
    12 -6.938270 1.999409 -1.014579 1.312306 0.496507 1.957842
    13 20.710224 0.000000 0.000000 0.000000 0.000000 0.763266
    14 18.106007 0.000000 -0.000001 -0.459547 -0.795314 -2.474470
    15 0.000000 -6.555973 0.000000 -0.656935 0.050857 0.214483
    16 0.000000 -3.252140 0.000004 -0.720512 -0.079220 -0.123278
    17 1.548545 -4.925743 -4.285366 2.981590 -0.717125 -1.281263
    18 1.190170 -10.472042 -0.306138 1.353248 -0.238019 -0.934260
    19 0.000008 0.000000 15.020973 -0.201994 -0.066154 0.008339
    20 0.000004 -0.000001 8.039619 0.000000 0.000000 0.318947
    21 2.899849 -0.471046 -4.331210 -0.201105 -0.677920 -1.132332
    22 -0.000025 2.543312 0.000026 0.207016 0.077893 -0.354859
    23 0.000059 2.315285 -0.000040 0.094291 0.035740 -0.361234
    24 1.551407 3.956631 -3.900798 2.332857 -1.367727 -3.120718
    25 0.000000 2.741436 -0.000004 -0.619285 0.000000 0.000000
    26 0.000010 2.668510 0.000050 -0.553613 0.000000 0.000000
    27 1.401100 3.639805 -1.202109 1.667983 -1.355836 -2.446922
    28 0.000003 2.810951 0.000004 -0.619285 0.000000 0.000000
    29 -0.000005 2.736202 -0.000031 -0.553613 0.000000 0.000000
    30 1.335663 3.182098 1.418086 0.542060 -1.251578 -1.415178
    31 -0.000003 2.663269 0.000046 -0.694345 0.000000 0.000000
    32 0.000001 2.592527 -0.000031 -0.628648 0.000000 0.000000
    33 1.344765 1.881123 3.809589 0.757077 -1.203080 -1.477050
    34 0.000011 2.315664 -0.000084 -0.619285 0.000000 0.000000
    35 -0.000006 2.254017 0.000076 -0.553613 0.000000 0.000000
    36 0.011267 -6.809892 1.974034 -0.607868 0.000000 0.000000
    37 -0.011248 6.809885 -1.974043 -0.607868 0.000000 0.000000
  time 13
    0 -26.913598 28.554219 41.218750 -1.248002 -0.103386 0.067683
    1 0.317139 -5.222656 -1.137695 -0.045432 -0.009894 -0.021632
    2 0.000000 -7.488277 -0.000001 0.192223 -0.045863 -0.069080
    3 0.000000 -5.597980 0.000000 0.340456 -0.103591 0.013681
    4 0.000000 -6.565113 -0.000001 0.781880 0.041495 -0.261909
    5 -1.549380 -5.102886 -4.074768 2.279330 -0.535879 -1.126392
    6 -0.000053 11.987244 0.000028 -0.724895 -0.617490 3.088321
    7 20.109314 0.000000 -0.000002 0.863575 -1.487207 -2.438690
    8 19.941738 0.000001 -0.000004 -1.120007 -1.396477 -0.642498
    9 6.938272 1.999413 -1.014580 2.842629 0.682988 0.986663
    10 20.710249 -0.000001 0.000000 0.000000 0.729901 0.000000
    11 18.105982 0.000001 0.000000 -1.036334 0.029944 1.080460
    12 -6.938270 1.999409 -1.014579 1.293095 0.550817 1.911392
    13 20.710224 0.000000 0.000000 0.000000 0.000000 0.758008
    14 18.106007 0.000000 -0.000001 -0.501278 -0.800374 -2.373340
    15 0.000000 -6.555973 0.000000 -0.639847 0.058537 0.183047
    16 0.000000 -3.252140 0.000004 -0.733396 -0.083169 -0.114999
    17 1.548545 -4.925743 -4.285366 2.981590 -0.717125 -1.281263
    18 1.190170 -10.472042 -0.306138 1.353248 -0.238019 -0.934260
    19 0.000008 0.000000 15.020973 -0.201994 -0.066154 0.008339
    20 0.000004 -0.000001 8.039619 0.000000 0.000000 0.318947
    21 2.899849 -0.471046 -4.331210 -0.201105 -0.677920 -1.132332
    22 -0.000025 2.543312 0.000026 0.207016 0.077893 -0.354859
    23 0.000059 2.315285 -0.000040 0.094291 0.035740 -0.361234
    24 1.551407 3.956631 -3.900798 2.332857 -1.367727 -3.120718
    25 0.000000 2.741436 -0.000004 -0.619285 0.000000 0.000000
    26 0.000010 2.668510 0.000050 -0.553613 0.000000 0.000000
    27 1.401100 3.639805 -1.202109 1.667983 -1.355836 -2.446922
    28 0.000003 2.810951 0.000004 -0.619285 0.000000 0.000000
    29 -0.000005 2.736202 -0.000031 -0.553613 0.000000 0.000000
    30 1.335663 3.182098 1.418086 0.542060 -1.251578 -1.415178
    31 -0.000003 2.663269 0.000046 -0.694345 0.000000 0.000000
    32 0.000001 2.592527 -0.000031 -0.628648 0.000000 0.000000
    33 1.344765 1.881123 3.809589 0.757077 -1.203080 -1.477050
    34 0.000011 2.315664 -0.000084 -0.619285 0.000000 0.000000
    35 -0.000006 2.254017 0.000076 -0.553613 0.000000 0.000000
    36 0.011267 -6.809892 1.974034 -0.607868 0.000000 0.000000
    37 -0.011248 6.809885 -1.974043 -0.607868 0.000000 0.000000
  time 14
    0 -28.698568 30.341142 42.000000 -1.247215 -0.107744 0.089914
    1 0.317139 -5.222656 -1.137695 -0.044872 -0.021144 -0.046908
    2 0.000000 -7.488277 -0.000001 0.195926 -0.046980 -0.061432
    3 0.000000 -5.597980 0.000000 0.343759 -0.102234 0.005933
    4 0.000000 -6.565113 -0.000001 0.786088 0.028616 -0.237235
    5 -1.549380 -5.102886 -4.074768 2.269882 -0.523056 -1.101893
    6 -0.000053 11.987244 0.000028 -0.779924 -0.603508 3.131796
    7 20.109314 0.000000 -0.000002 0.929065 -1.480118 -2.504490
    8 19.941738 0.000001 -0.000004 -1.197001 -1.446634 -0.579234
    9 6.938272 1.999413 -1.014580 2.871459 0.673984 1.081632
    10 20.710249 -0.000001 0.000000 0.000000 0.803748 0.000000
    11 18.105982 0.000001 0.000000 -1.063405 -0.033868 1.108189
    12 -6.938270 1.999409 -1.014579 1.296306 0.593449 1.872363
    13 20.710224 0.000000 0.000000 0.000000 0.000000 0.742527
    14 18.106007 0.000000 -0.000001 -0.541536 -0.804541 -2.272480
    15 0.000000 -6.555973 0.000000 -0.617485 0.071218 0.140145
    16 0.000000 -3.252140 0.000004 -0.725201 -0.086282 -0.109138
    17 1.548545 -4.925743 -4.285366 2.981590 -0.717125 -1.281263
    18 1.190170 -10.472042 -0.306138 1.353248 -0.238019 -0.934260
    19 0.000008 0.000000 15.020973 -0.201994 -0.066154 0.008339
    20 0.000004 -0.000001 8.039619 0.000000 0.000000 0.318947
    21 2.899849 -0.471046 -4.331210 -0.201105 -0.677920 -1.132332
    22 -0.000025 2.543312 0.000026 0.207016 0.077893 -0.354859
    23 0.000059 2.315285 -0.000040 0.094291 0.035740 -0.361234
    24 1.551407 3.956631 -3.900798 2.332857 -1.367727 -3.120718
    25 0.000000 2.741436 -0.000004 -0.619285 0.000000 0.000000
    26 0.000010 2.668510 0.000050 -0.553613 0.000000 0.000000
    27 1.401100 3.639805 -1.202109 1.667983 -1.355836 -2.446922
    28 0.000003 2.810951 0.000004 -0.619285 0.000000 0.000000
    29 -0.000005 2.736202 -0.000031 -0.553613 0.000000 0.000000
    30 1.335663 3.182098 1.418086 0.542060 -1.251578 -1.415178
    31 -0.000003 2.663269 0.000046 -0.694345 0.000000 0.000000
    32 0.000001 2.592527 -0.000031 -0.628648 0.000000 0.000000
    33 1.344765 1.881123 3.809589 0.757077 -1.203080 -1.477050
    34 0.000011 2.315664 -0.000084 -0.619285 0.000000 0.000000
    35 -0.000006 2.254017 0.000076 -0.553613 0.000000 0.000000
    36 0.011267 -6.809892 1.974034 -0.607868 0.000000 0.000000
    37 -0.011248 6.809885 -1.974043 -0.607868 0.000000 0.000000
  time 15
    0 -30.485492 32.135878 42.500000 -1.245844 -0.110232 0.131089
    1 0.317139 -5.222656 -1.137695 -0.041365 -0.031426 -0.069212
    2 0.000000 -7.488277 -0.000001 0.200044 -0.047884 -0.053653
    3 0.000000 -5.597980 0.000000 0.346440 -0.101246 -0.000607
    4 0.000000 -6.565113 -0.000001 0.790395 0.020234 -0.221955
    5 -1.549380 -5.102886 -4.074768 2.253572 -0.503252 -1.061411
    6 -0.000053 11.987244 0.000028 -0.815936 -0.592747 -3.123777
    7 20.109314 0.000000 -0.000002 1.008398 -1.468999 -2.584116
    8 19.941738 0.000001 -0.000004 -1.376269 -1.506024 -0.419148
    9 6.938272 1.999413 -1.014580 2.930735 0.643196 1.224227
    10 20.710249 -0.000001 0.000000 0.000000 0.875874 0.000000
    11 18.105982 0.000001 0.000000 -1.176261 -0.101485 1.260560
    12 -6.938270 1.999409 -1.014579 1.322047 0.634377 1.840685
    13 20.710224 0.000000 0.000000 0.000000 0.000000 0.732973
    14 18.106007 0.000000 -0.000001 -0.580578 -0.807671 -2.179461
    15 0.000000 -6.555973 0.000000 -0.593739 0.089511 0.089322
    16 0.000000 -3.252140 0.000004 -0.728781 -0.107143 -0.114920
    17 1.548545 -4.925743 -4.285366 2.981590 -0.717125 -1.281263
    18 1.190170 -10.472042 -0.306138 1.353248 -0.238019 -0.934260
    19 0.000008 0.000000 15.020973 -0.201994 -0.066154 0.008339
    20 0.000004 -0.000001 8.039619 0.000000 0.000000 0.318947
    21 2.899849 -0.471046 -4.331210 -0.201105 -0.677920 -1.132332
    22 -0.000025 2.543312 0.000026 0.207016 0.077893 -0.354859
    23 0.000059 2.315285 -0.000040 0.094291 0.035740 -0.361234
    24 1.551407 3.956631 -3.900798 2.332857 -1.367727 -3.120718
    25 0.000000 2.741436 -0.000004 -0.619285 0.000000 0.000000
    26 0.000010 2.668510 0.000050 -0.553613 0.000000 0.000000
    27 1.401100 3.639805 -1.202109 1.667983 -1.355836 -2.446922
    28 0.000003 2.810951 0.000004 -0.619285 0.000000 0.000000
    29 -0.000005 2.736202 -0.000031 -0.553613 0.000000 0.000000
    30 1.335663 3.182098 1.418086 0.542060 -1.251578 -1.415178
    31 -0.000003 2.663269 0.000046 -0.694345 0.000000 0.000000
    32 0.000001 2.592527 -0.000031 -0.628648 0.000000 0.000000
    33 1.344765 1.881123 3.809589 0.757077 -1.203080 -1.477050
    34 0.000011 2.315664 -0.000084 -0.619285 0.000000 0.000000
    35 -0.000006 2.254017 0.000076 -0.553613 0.000000 0.000000
    36 0.011267 -6.809892 1.974034 -0.607868 0.000000 0.000000
    37 -0.011248 6.809885 -1.974043 -0.607868 0.000000 0.000000
  time 16
    0 -32.278274 33.934519 42.687500 -1.245353 -0.110234 0.187888
    1 0.317139 -5.222656 -1.137695 -0.047077 -0.040892 -0.110844
    2 0.000000 -7.488277 -0.000001 0.206157 -0.049926 -0.034752
    3 0.000000 -5.597980 0.000000 0.349174 -0.097562 -0.018835
    4 0.000000 -6.565113 -0.000001 0.795895 0.006703 -0.194940
    5 -1.549380 -5.102886 -4.074768 2.252409 -0.500064 -1.054898
    6 -0.000053 11.987244 0.000028 -0.831402 -0.589040 -3.120162
    7 20.109314 0.000000 -0.000002 1.083532 -1.454690 -2.659667
    8 19.941738 0.000001 -0.000004 -2.347502 -1.548771 0.533548
    9 6.938272 1.999413 -1.014580 3.014412 0.560138 1.384885
    10 20.710249 -0.000001 0.000000 0.000000 0.883767 0.000000
    11 18.105982 0.000001 0.000000 -1.307506 -0.094360 1.417490
    12 -6.938270 1.999409 -1.014579 1.366726 0.682740 1.815776
    13 20.710224 0.000000 0.000000 0.000000 0.000000 0.746720
    14 18.106007 0.000000 -0.000001 -0.617249 -0.810063 -2.104212
    15 0.000000 -6.555973 0.000000 -0.571977 0.112987 0.035057
    16 0.000000 -3.252140 0.000004 -0.753120 -0.125826 -0.125159
    17 1.548545 -4.925743 -4.285366 2.981590 -0.717125 -1.281263
    18 1.190170 -10.472042 -0.306138 1.353248 -0.238019 -0.934260
    19 0.000008 0.000000 15.020973 -0.201994 -0.066154 0.008339
    20 0.000004 -0.000001 8.039619 0.000000 0.000000 0.318947
    21 2.899849 -0.471046 -4.331210 -0.201105 -0.677920 -1.132332
    22 -0.000025 2.543312 0.000026 0.207016 0.077893 -0.354859
    23 0.000059 2.315285 -0.000040 0.094291 0.035740 -0.361234
    24 1.551407 3.956631 -3.900798 2.332857 -1.367727 -3.120718
    25 0.000000 2.741436 -0.000004 -0.619285 0.000000 0.000000
    26 0.000010 2.668510 0.000050 -0.553613 0.000000 0.000000
    27 1.401100 3.639805 -1.202109 1.667983 -1.355836 -2.446922
    28 0.000003 2.810951 0.000004 -0.619285 0.000000 0.000000
    29 -0.000005 2.736202 -0.000031 -0.553613 0.000000 0.000000
    30 1.335663 3.182098 1.418086 0.542060 -1.251578 -1.415178
    31 -0.000003 2.663269 0.000046 -0.694345 0.000000 0.000000
    32 0.000001 2.592527 -0.000031 -0.628648 0.000000 0.000000
    33 1.344765 1.881123 3.809589 0.757077 -1.203080 -1.477050
    34 0.000011 2.315664 -0.000084 -0.619285 0.000000 0.000000
    35 -0.000006 2.254017 0.000076 -0.553613 0.000000 0.000000
    36 0.011267 -6.809892 1.974034 -0.607868 0.000000 0.000000
    37 -0.011248 6.809885 -1.974043 -0.607868 0.000000 0.000000
  time 17
    0 -34.059338 35.725349 42.312500 -1.243783 -0.104552 0.248267
    1 0.317139 -5.222656 -1.137695 -0.056190 -0.052368 -0.150397
    2 0.000000 -7.488277 -0.000001 0.212072 -0.051562 -0.018506
    3 0.000000 -5.597980 0.000000 0.349675 -0.094457 -0.035063
    4 0.000000 -6.565113 -0.000001 0.802108 -0.003738 -0.168712
    5 -1.549380 -5.102886 -4.074768 2.246141 -0.493279 -1.040137
    6 -0.000053 11.987244 0.000028 -0.822145 -0.592576 -3.128357
    7 20.109314 0.000000 -0.000002 1.153150 -1.436739 -2.729863
    8 19.941738 0.000001 -0.000004 2.856332 -1.534366 1.603000
    9 6.938272 1.999413 -1.014580 3.095835 0.393886 1.524774
    10 20.710249 -0.000001 0.000000 0.000000 0.795068 0.000000
    11 18.105982 0.000001 0.000000 -1.435345 -0.035742 1.557286
    12 -6.938270 1.999409 -1.014579 1.415816 0.759503 1.791098
    13 20.710224 0.000000 0.000000 0.000000 0.000000 0.813640
    14 18.106007 0.000000 -0.000001 -0.650367 -0.811508 -2.060061
    15 0.000000 -6.555973 0.000000 -0.554184 0.139831 -0.017060
    16 0.000000 -3.252140 0.000004 -0.781876 -0.134427 -0.143406
    17 1.548545 -4.925743 -4.285366 2.981590 -0.717125 -1.281263
    18 1.190170 -10.472042 -0.306138 1.353248 -0.238019 -0.934260
    19 0.000008 0.000000 15.020973 -0.201994 -0.066154 0.008339
    20 0.000004 -0.000001 8.039619 0.000000 0.000000 0.318947
    21 2.899849 -0.471046 -4.331210 -0.201105 -0.677920 -1.132332
    22 -0.000025 2.543312 0.000026 0.207016 0.077893 -0.354859
    23 0.000059 2.315285 -0.000040 0.094291 0.035740 -0.361234
    24 1.551407 3.956631 -3.900798 2.332857 -1.367727 -3.120718
    25 0.000000 2.741436 -0.000004 -0.619285 0.000000 0.000000
    26 0.000010 2.668510 0.000050 -0.553613 0.000000 0.000000
    27 1.401100 3.639805 -1.202109 1.667983 -1.355836 -2.446922
    28 0.000003 2.810951 0.000004 -0.619285 0.000000 0.000000
    29 -0.000005 2.736202 -0.000031 -0.553613 0.000000 0.000000
    30 1.335663 3.182098 1.418086 0.542060 -1.251578 -1.415178
    31 -0.000003 2.663269 0.000046 -0.694345 0.000000 0.000000
    32 0.000001 2.592527 -0.000031 -0.628648 0.000000 0.000000
    33 1.344765 1.881123 3.809589 0.757077 -1.203080 -1.477050
    34 0.000011 2.315664 -0.000084 -0.619285 0.000000 0.000000
    35 -0.000006 2.254017 0.000076 -0.553613 0.000000 0.000000
    36 0.011267 -6.809892 1.974034 -0.607868 0.000000 0.000000
    37 -0.011248 6.809885 -1.974043 -0.607868 0.000000 0.000000
  time 18
    0 -35.846262 37.520084 41.343750 -1.242032 -0.093919 0.298079
    1 0.317139 -5.222656 -1.137695 -0.058631 -0.068190 -0.187070
    2 0.000000 -7.488277 -0.000001 0.220470 -0.053281 -0.001353
    3 0.000000 -5.597980 0.000000 0.349639 -0.091031 -0.052448
    4 0.000000 -6.565113 -0.000001 0.807110 -0.013884 -0.134904
    5 -1.549380 -5.102886 -4.074768 2.234105 -0.480678 -1.012839
    6 -0.000053 11.987244 0.000028 -0.805029 -0.596780 -3.138869
    7 20.109314 0.000000 -0.000002 1.217255 -1.413480 -2.794633
    8 19.941738 0.000001 -0.000004 3.122301 -1.520759 1.341862
    9 6.938272 1.999413 -1.014580 -3.130620 0.146339 1.609425
    10 20.710249 -0.000001 0.000000 0.000000 0.562946 0.000000
    11 18.105982 0.000001 0.000000 -1.487576 0.019630 1.651483
    12 -6.938270 1.999409 -1.014579 1.452905 0.864696 1.762492
    13 20.710224 0.000000 0.000000 0.000000 0.000000 0.922774
    14 18.106007 0.000000 -0.000001 -0.680150 -0.812372 -2.036571
    15 0.000000 -6.555973 0.000000 -0.540385 0.167927 -0.061479
    16 0.000000 -3.252140 0.000004 -0.793290 -0.125566 -0.150517
    17 1.548545 -4.925743 -4.285366 2.981590 -0.717125 -1.281263
    18 1.190170 -10.472042 -0.306138 1.353248 -0.238019 -0.934260
    19 0.000008 0.000000 15.020973 -0.201994 -0.066154 0.008339
    20 0.000004 -0.000001 8.039619 0.000000 0.000000 0.318947
    21 2.899849 -0.471046 -4.331210 -0.201105 -0.677920 -1.132332
    22 -0.000025 2.543312 0.000026 0.207016 0.077893 -0.354859
    23 0.000059 2.315285 -0.000040 0.094291 0.035740 -0.361234
    24 1.551407 3.956631 -3.900798 2.332857 -1.367727 -3.120718
    25 0.000000 2.741436 -0.000004 -0.619285 0.000000 0.000000
    26 0.000010 2.668510 0.000050 -0.553613 0.000000 0.000000
    27 1.401100 3.639805 -1.202109 1.667983 -1.355836 -2.446922
    28 0.000003 2.810951 0.000004 -0.619285 0.000000 0.000000
    29 -0.000005 2.736202 -0.000031 -0.553613 0.000000 0.000000
    30 1.335663 3.182098 1.418086 0.542060 -1.251578 -1.415178
    31 -0.000003 2.663269 0.000046 -0.694345 0.000000 0.000000
    32 0.000001 2.592527 -0.000031 -0.628648 0.000000 0.000000
    33 1.344765 1.881123 3.809589 0.757077 -1.203080 -1.477050
    34 0.000011 2.315664 -0.000084 -0.619285 0.000000 0.000000
    35 -0.000006 2.254017 0.000076 -0.553613 0.000000 0.000000
    36 0.011267 -6.809892 1.974034 -0.607868 0.000000 0.000000
    37 -0.011248 6.809885 -1.974043 -0.607868 0.000000 0.000000
  time 19
    0 -37.639044 39.318726 40.062500 -1.241177 -0.081596 0.337427
    1 0.317139 -5.222656 -1.137695 -0.055607 -0.084868 -0.216618
    2 0.000000 -7.488277 -0.000001 0.224461 -0.055620 0.019292
    3 0.000000 -5.597980 0.000000 0.349536 -0.085920 -0.078093
    4 0.000000 -6.565113 -0.000001 0.809282 -0.030269 -0.107159
    5 -1.549380 -5.102886 -4.074768 2.227447 -0.473277 -0.997143
    6 -0.000053 11.987244 0.000028 -0.785089 -0.602096 3.119900
    7 20.109314 0.000000 -0.000002 1.270745 -1.386324 -2.848866
    8 19.941738 0.000001 -0.000004 -2.651089 -1.499519 0.847198
    9 6.938272 1.999413 -1.014580 -3.091344 -0.227906 1.629715
    10 20.710249 -0.000001 0.000000 0.000000 0.000000 0.000000
    11 18.105982 0.000001 0.000000 -1.313437 -0.002042 1.655762
    12 -6.938270 1.999409 -1.014579 1.479739 0.979240 1.733483
    13 20.710224 0.000000 0.000000 0.000000 0.000000 1.034956
    14 18.106007 0.000000 -0.000001 -0.709413 -0.812883 -2.009231
    15 0.000000 -6.555973 0.000000 -0.528933 0.194345 -0.091910
    16 0.000000 -3.252140 0.000004 -0.797083 -0.139771 -0.157553
    17 1.548545 -4.925743 -4.285366 2.981590 -0.717125 -1.281263
    18 1.190170 -10.472042 -0.306138 1.353248 -0.238019 -0.934260
    19 0.000008 0.000000 15.020973 -0.201994 -0.066154 0.008339
    20 0.000004 -0.000001 8.039619 0.000000 0.000000 0.318947
    21 2.899849 -0.471046 -4.331210 -0.201105 -0.677920 -1.132332
    22 -0.000025 2.543312 0.000026 0.207016 0.077893 -0.354859
    23 0.000059 2.315285 -0.000040 0.094291 0.035740 -0.361234
    24 1.551407 3.956631 -3.900798 2.332857 -1.367727 -3.120718
    25 0.000000 2.741436 -0.000004 -0.619285 0.000000 0.000000
    26 0.000010 2.668510 0.000050 -0.553613 0.000000 0.000000
    27 1.401100 3.639805 -1.202109 1.667983 -1.355836 -2.446922
    28 0.000003 2.810951 0.000004 -0.619285 0.000000 0.000000
    29 -0.000005 2.736202 -0.000031 -0.553613 0.000000 0.000000
    30 1.335663 3.182098 1.418086 0.542060 -1.251578 -1.415178
    31 -0.000003 2.663269 0.000046 -0.694345 0.000000 0.000000
    32 0.000001 2.592527 -0.000031 -0.628648 0.000000 0.000000
    33 1.344765 1.881123 3.809589 0.757077 -1.203080 -1.477050
    34 0.000011 2.315664 -0.000084 -0.619285 0.000000 0.000000
    35 -0.000006 2.254017 0.000076 -0.553613 0.000000 0.000000
    36 0.011267 -6.809892 1.974034 -0.607868 0.000000 0.000000
    37 -0.011248 6.809885 -1.974043 -0.607868 0.000000 0.000000
  time 20
    0 -39.420108 41.109556 38.750000 -1.239257 -0.071329 0.366227
    1 0.317139 -5.222656 -1.137695 -0.043718 -0.095550 -0.212115
    2 0.000000 -7.488277 -0.000001 0.215892 -0.055688 0.015828
    3 0.000000 -5.597980 0.000000 0.347295 -0.087028 -0.075696
    4 0.000000 -6.565113 -0.000001 0.805652 -0.047535 -0.098851
    5 -1.549380 -5.102886 -4.074768 2.228378 -0.474744 -1.000131
    6 -0.000053 11.987244 0.000028 -0.769536 -0.606118 3.087410
    7 20.109314 0.000000 -0.000002 1.309529 -1.359342 -2.888381
    8 19.941738 0.000001 -0.000004 -2.315926 -1.467730 0.529971
    9 6.938272 1.999413 -1.014580 -3.070972 -0.271226 1.611240
    10 20.710249 -0.000001 0.000000 0.000000 0.000000 0.000000
    11 18.105982 0.000001 0.000000 -1.380828 -0.020877 1.658752
    12 -6.938270 1.999409 -1.014579 1.496823 1.091080 1.704955
    13 20.710224 0.000000 0.000000 0.000000 0.000000 1.123178
    14 18.106007 0.000000 -0.000001 -0.739628 -0.812821 -1.962198
    15 0.000000 -6.555973 0.000000 -0.510898 0.224067 -0.096184
    16 0.000000 -3.252140 0.000004 -0.825336 -0.169314 -0.174412
    17 1.548545 -4.925743 -4.285366 2.981590 -0.717125 -1.281263
    18 1.190170 -10.472042 -0.306138 1.353248 -0.238019 -0.934260
    19 0.000008 0.000000 15.020973 -0.201994 -0.066154 0.008339
    20 0.000004 -0.000001 8.039619 0.000000 0.000000 0.318947
    21 2.899849 -0.471046 -4.331210 -0.201105 -0.677920 -1.132332
    22 -0.000025 2.543312 0.000026 0.207016 0.077893 -0.354859
    23 0.000059 2.315285 -0.000040 0.094291 0.035740 -0.361234
    24 1.551407 3.956631 -3.900798 2.332857 -1.367727 -3.120718
    25 0.000000 2.741436 -0.000004 -0.619285 0.000000 0.000000
    26 0.000010 2.668510 0.000050 -0.553613 0.000000 0.000000
    27 1.401100 3.639805 -1.202109 1.667983 -1.355836 -2.446922
    28 0.000003 2.810951 0.000004 -0.619285 0.000000 0.000000
    29 -0.000005 2.736202 -0.000031 -0.553613 0.000000 0.000000
    30 1.335663 3.182098 1.418086 0.542060 -1.251578 -1.415178
    31 -0.000003 2.663269 0.000046 -0.694345 0.000000 0.000000
    32 0.000001 2.592527 -0.000031 -0.628648 0.000000 0.000000
    33 1.344765 1.881123 3.809589 0.757077 -1.203080 -1.477050
    34 0.000011 2.315664 -0.000084 -0.619285 0.000000 0.000000
    35 -0.000006 2.254017 0.000076 -0.553613 0.000000 0.000000
    36 0.011267 -6.809892 1.974034 -0.607868 0.000000 0.000000
    37 -0.011248 6.809885 -1.974043 -0.607868 0.000000 0.000000
  time 21
    0 -41.205079 42.908197 37.656250 -1.236758 -0.066091 0.377479
    1 0.317139 -5.222656 -1.137695 -0.029508 -0.094810 -0.170041
    2 0.000000 -7.488277 -0.000001 0.202286 -0.053655 -0.009988
    3 0.000000 -5.597980 0.000000 0.346769 -0.093557 -0.046793
    4 0.000000 -6.565113 -0.000001 0.800935 -0.061581 -0.106460
    5 -1.549380 -5.102886 -4.074768 2.235894 -0.482477 -1.016313
    6 -0.000053 11.987244 0.000028 -0.754971 -0.610931 3.060619
    7 20.109314 0.000000 -0.000002 1.342869 -1.328509 -2.922610
    8 19.941738 0.000001 -0.000004 -2.153246 -1.442653 0.380195
    9 6.938272 1.999413 -1.014580 -3.079512 -0.084218 1.578422
    10 20.710249 -0.000001 0.000000 0.000000 0.366116 0.000000
    11 18.105982 0.000001 0.000000 -1.590975 -0.002772 1.672306
    12 -6.938270 1.999409 -1.014579 1.482250 1.189781 1.659218
    13 20.710224 0.000000 0.000000 0.000000 0.000000 1.166746
    14 18.106007 0.000000 -0.000001 -0.771927 -0.812250 -1.884253
    15 0.000000 -6.555973 0.000000 -0.481998 0.258267 -0.074832
    16 0.000000 -3.252140 0.000004 -0.855712 -0.153174 -0.177299
    17 1.548545 -4.925743 -4.285366 2.981590 -0.717125 -1.281263
    18 1.190170 -10.472042 -0.306138 1.353248 -0.238019 -0.934260
    19 0.000008 0.000000 15.020973 -0.201994 -0.066154 0.008339
    20 0.000004 -0.000001 8.039619 0.000000 0.000000 0.318947
    21 2.899849 -0.471046 -4.331210 -0.201105 -0.677920 -1.132332
    22 -0.000025 2.543312 0.000026 0.207016 0.077893 -0.354859
    23 0.000059 2.315285 -0.000040 0.094291 0.035740 -0.361234
    24 1.551407 3.956631 -3.900798 2.332857 -1.367727 -3.120718
    25 0.000000 2.741436 -0.000004 -0.619285 0.000000 0.000000
    26 0.000010 2.668510 0.000050 -0.553613 0.000000 0.000000
    27 1.401100 3.639805 -1.202109 1.667983 -1.355836 -2.446922
    28 0.000003 2.810951 0.000004 -0.619285 0.000000 0.000000
    29 -0.000005 2.736202 -0.000031 -0.553613 0.000000 0.000000
    30 1.335663 3.182098 1.418086 0.542060 -1.251578 -1.415178
    31 -0.000003 2.663269 0.000046 -0.694345 0.000000 0.000000
    32 0.000001 2.592527 -0.000031 -0.628648 0.000000 0.000000
    33 1.344765 1.881123 3.809589 0.757077 -1.203080 -1.477050
    34 0.000011 2.315664 -0.000084 -0.619285 0.000000 0.000000
    35 -0.000006 2.254017 0.000076 -0.553613 0.000000 0.000000
    36 0.011267 -6.809892 1.974034 -0.607868 0.000000 0.000000
    37 -0.011248 6.809885 -1.974043 -0.607868 0.000000 0.000000
  time 22
    0 -42.993955 44.706839 37.343750 -1.234469 -0.065599 0.371136
    1 0.317139 -5.222656 -1.137695 -0.021784 -0.096018 -0.163891
    2 0.000000 -7.488277 -0.000001 0.195700 -0.054185 -0.009124
    3 0.000000 -5.597980 0.000000 0.348940 -0.093871 -0.046587
    4 0.000000 -6.565113 -0.000001 0.802126 -0.085656 -0.099246
    5 -1.549380 -5.102886 -4.074768 2.249969 -0.494256 -1.042718
    6 -0.000053 11.987244 0.000028 -0.729420 -0.618693 3.037870
    7 20.109314 0.000000 -0.000002 1.359496 -1.309323 -2.939834
    8 19.941738 0.000001 -0.000004 -2.118650 -1.443184 0.345641
    9 6.938272 1.999413 -1.014580 -3.102838 0.098833 1.555512
    10 20.710249 -0.000001 0.000000 0.000000 0.651088 0.000000
    11 18.105982 0.000001 0.000000 -1.700962 -0.021540 1.651620
    12 -6.938270 1.999409 -1.014579 1.422736 1.241861 1.579999
    13 20.710224 0.000000 0.000000 0.000000 0.000000 1.117414
    14 18.106007 0.000000 -0.000001 -0.807635 -0.811088 -1.756951
    15 0.000000 -6.555973 0.000000 -0.448772 0.288059 -0.040634
    16 0.000000 -3.252140 0.000004 -0.853300 -0.157639 -0.177413
    17 1.548545 -4.925743 -4.285366 2.981590 -0.717125 -1.281263
    18 1.190170 -10.472042 -0.306138 1.353248 -0.238019 -0.934260
    19 0.000008 0.000000 15.020973 -0.201994 -0.066154 0.008339
    20 0.000004 -0.000001 8.039619 0.000000 0.000000 0.318947
    21 2.899849 -0.471046 -4.331210 -0.201105 -0.677920 -1.132332
    22 -0.000025 2.543312 0.000026 0.207016 0.077893 -0.354859
    23 0.000059 2.315285 -0.000040 0.094291 0.035740 -0.361234
    24 1.551407 3.956631 -3.900798 2.332857 -1.367727 -3.120718
    25 0.000000 2.741436 -0.000004 -0.619285 0.000000 0.000000
    26 0.000010 2.668510 0.000050 -0.553613 0.000000 0.000000
    27 1.401100 3.639805 -1.202109 1.667983 -1.355836 -2.446922
    28 0.000003 2.810951 0.000004 -0.619285 0.000000 0.000000
    29 -0.000005 2.736202 -0.000031 -0.553613 0.000000 0.000000
    30 1.335663 3.182098 1.418086 0.542060 -1.251578 -1.415178
    31 -0.000003 2.663269 0.000046 -0.694345 0.000000 0.000000
    32 0.000001 2.592527 -0.000031 -0.628648 0.000000 0.000000
    33 1.344765 1.881123 3.809589 0.757077 -1.203080 -1.477050
    34 0.000011 2.315664 -0.000084 -0.619285 0.000000 0.000000
    35 -0.000006 2.254017 0.000076 -0.553613 0.000000 0.000000
    36 0.011267 -6.809892 1.974034 -0.607868 0.000000 0.000000
    37 -0.011248 6.809885 -1.974043 -0.607868 0.000000 0.000000
  time 23
    0 -44.771113 46.501575 37.375000 -1.231708 -0.067060 0.355603
    1 0.317139 -5.222656 -1.137695 -0.023889 -0.107123 -0.194148
    2 0.000000 -7.488277 -0.000001 0.189760 -0.056747 0.015085
    3 0.000000 -5.597980 0.000000 0.349679 -0.088817 -0.072162
    4 0.000000 -6.565113 -0.000001 0.805067 -0.100148 -0.075211
    5 -1.549380 -5.102886 -4.074768 2.248045 -0.489456 -1.032073
    6 -0.000053 11.987244 0.000028 -0.719267 -0.620017 3.041885
    7 20.109314 0.000000 -0.000002 1.346808 -1.324076 -2.926729
    8 19.941738 0.000001 -0.000004 -2.204752 -1.475729 0.417153
    9 6.938272 1.999413 -1.014580 -3.128955 0.217417 1.527497
    10 20.710249 -0.000001 0.000000 0.000000 0.790900 0.000000
    11 18.105982 0.000001 0.000000 -1.724940 -0.051530 1.634972
    12 -6.938270 1.999409 -1.014579 1.338158 1.260298 1.481695
    13 20.710224 0.000000 0.000000 0.000000 0.000000 1.012274
    14 18.106007 0.000000 -0.000001 -0.843747 -0.809246 -1.604990
    15 0.000000 -6.555973 0.000000 -0.420205 0.306421 -0.007764
    16 0.000000 -3.252140 0.000004 -0.841756 -0.172315 -0.175029
    17 1.548545 -4.925743 -4.285366 2.981590 -0.717125 -1.281263
    18 1.190170 -10.472042 -0.306138 1.353248 -0.238019 -0.934260
    19 0.000008 0.000000 15.020973 -0.201994 -0.066154 0.008339
    20 0.000004 -0.000001 8.039619 0.000000 0.000000 0.318947
    21 2.899849 -0.471046 -4.331210 -0.201105 -0.677920 -1.132332
    22 -0.000025 2.543312 0.000026 0.207016 0.077893 -0.354859
    23 0.000059 2.315285 -0.000040 0.094291 0.035740 -0.361234
    24 1.551407 3.956631 -3.900798 2.332857 -1.367727 -3.120718
    25 0.000000 2.741436 -0.000004 -0.619285 0.000000 0.000000
    26 0.000010 2.668510 0.000050 -0.553613 0.000000 0.000000
    27 1.401100 3.639805 -1.202109 1.667983 -1.355836 -2.446922
    28 0.000003 2.810951 0.000004 -0.619285 0.000000 0.000000
    29 -0.000005 2.736202 -0.000031 -0.553613 0.000000 0.000000
    30 1.335663 3.182098 1.418086 0.542060 -1.251578 -1.415178
    31 -0.000003 2.663269 0.000046 -0.694345 0.000000 0.000000
    32 0.000001 2.592527 -0.000031 -0.628648 0.000000 0.000000
    33 1.344765 1.881123 3.809589 0.757077 -1.203080 -1.477050
    34 0.000011 2.315664 -0.000084 -0.619285 0.000000 0.000000
    35 -0.000006 2.254017 0.000076 -0.553613 0.000000 0.000000
    36 0.011267 -6.809892 1.974034 -0.607868 0.000000 0.000000
    37 -0.011248 6.809885 -1.974043 -0.607868 0.000000 0.000000
  time 24
    0 -46.556083 48.300217 37.937500 -1.228507 -0.069840 0.341308
    1 0.317139 -5.222656 -1.137695 -0.023923 -0.115433 -0.205399
    2 0.000000 -7.488277 -0.000001 0.185567 -0.057904 0.026623
    3 0.000000 -5.597980 0.000000 0.349094 -0.086095 -0.086420
    4 0.000000 -6.565113 -0.000001 0.802077 -0.104712 -0.064212
    5 -1.549380 -5.102886 -4.074768 2.232362 -0.472320 -0.992023
    6 -0.000053 11.987244 0.000028 -0.723714 -0.616716 3.066600
    7 20.109314 0.000000 -0.000002 1.319622 -1.350920 -2.898838
    8 19.941738 0.000001 -0.000004 -2.569053 -1.526625 0.757641
    9 6.938272 1.999413 -1.014580 3.127533 0.303877 1.497502
    10 20.710249 -0.000001 0.000000 0.000000 0.837962 0.000000
    11 18.105982 0.000001 0.000000 -1.688865 -0.082564 1.616164
    12 -6.938270 1.999409 -1.014579 1.296771 1.234625 1.487175
    13 20.710224 0.000000 0.000000 0.000000 0.000000 1.086752
    14 18.106007 0.000000 -0.000001 -0.777454 -0.793228 -1.743146
    15 0.000000 -6.555973 0.000000 -0.406778 0.308742 0.008093
    16 0.000000 -3.252140 0.000004 -0.840815 -0.167296 -0.169990
    17 1.548545 -4.925743 -4.285366 2.981590 -0.717125 -1.281263
    18 1.190170 -10.472042 -0.306138 1.353248 -0.238019 -0.934260
    19 0.000008 0.000000 15.020973 -0.201994 -0.066154 0.008339
    20 0.000004 -0.000001 8.039619 0.000000 0.000000 0.318947
    21 2.899849 -0.471046 -4.331210 -0.201105 -0.677920 -1.132332
    22 -0.000025 2.543312 0.000026 0.207016 0.077893 -0.354859
    23 0.000059 2.315285 -0.000040 0.094291 0.035740 -0.361234
    24 1.551407 3.956631 -3.900798 2.332857 -1.367727 -3.120718
    25 0.000000 2.741436 -0.000004 -0.619285 0.000000 0.000000
    26 0.000010 2.668510 0.000050 -0.553613 0.000000 0.000000
    27 1.401100 3.639805 -1.202109 1.667983 -1.355836 -2.446922
    28 0.000003 2.810951 0.000004 -0.619285 0.000000 0.000000
    29 -0.000005 2.736202 -0.000031 -0.553613 0.000000 0.000000
    30 1.335663 3.182098 1.418086 0.542060 -1.251578 -1.415178
    31 -0.000003 2.663269 0.000046 -0.694345 0.000000 0.000000
    32 0.000001 2.592527 -0.000031 -0.628648 0.000000 0.000000
    33 1.344765 1.881123 3.809589 0.757077 -1.203080 -1.477050
    34 0.000011 2.315664 -0.000084 -0.619285 0.000000 0.000000
    35 -0.000006 2.254017 0.000076 -0.553613 0.000000 0.000000
    36 0.011267 -6.809892 1.974034 -0.607868 0.000000 0.000000
    37 -0.011248 6.809885 -1.974043 -0.607868 0.000000 0.000000
  time 25
    0 -48.344960 50.102765 38.687500 -1.227275 -0.073542 0.336288
    1 0.317139 -5.222656 -1.137695 -0.015902 -0.113746 -0.205735
    2 0.000000 -7.488277 -0.000001 0.185956 -0.057840 0.025882
    3 0.000000 -5.597980 0.000000 0.348937 -0.086167 -0.085680
    4 0.000000 -6.565113 -0.000001 0.799445 -0.100812 -0.062651
    5 -1.549380 -5.102886 -4.074768 2.232122 -0.472040 -0.991288
    6 -0.000053 11.987244 0.000028 -0.739571 -0.612085 3.092968
    7 20.109314 0.000000 -0.000002 1.286545 -1.376247 -2.864955
    8 19.941738 0.000001 -0.000004 1.803932 -1.531760 2.639603
    9 6.938272 1.999413 -1.014580 3.110351 0.372125 1.467722
    10 20.710249 -0.000001 0.000000 0.000000 0.836960 0.000000
    11 18.105982 0.000001 0.000000 -1.620163 -0.109080 1.591529
    12 -6.938270 1.999409 -1.014579 1.284360 1.212946 1.515085
    13 20.710224 0.000000 0.000000 0.000000 0.000000 1.174948
    14 18.106007 0.000000 -0.000001 -0.684189 -0.778647 -1.890448
    15 0.000000 -6.555973 0.000000 -0.416410 0.285818 0.000336
    16 0.000000 -3.252140 0.000004 -0.857430 -0.159296 -0.170269
    17 1.548545 -4.925743 -4.285366 2.981590 -0.717125 -1.281263
    18 1.190170 -10.472042 -0.306138 1.353248 -0.238019 -0.934260
    19 0.000008 0.000000 15.020973 -0.201994 -0.066154 0.008339
    20 0.000004 -0.000001 8.039619 0.000000 0.000000 0.318947
    21 2.899849 -0.471046 -4.331210 -0.201105 -0.677920 -1.132332
    22 -0.000025 2.543312 0.000026 0.207016 0.077893 -0.354859
    23 0.000059 2.315285 -0.000040 0.094291 0.035740 -0.361234
    24 1.551407 3.956631 -3.900798 2.332857 -1.367727 -3.120718
    25 0.000000 2.741436 -0.000004 -0.619285 0.000000 0.000000
    26 0.000010 2.668510 0.000050 -0.553613 0.000000 0.000000
    27 1.401100 3.639805 -1.202109 1.667983 -1.355836 -2.446922
    28 0.000003 2.810951 0.000004 -0.619285 0.000000 0.000000
    29 -0.000005 2.736202 -0.000031 -0.553613 0.000000 0.000000
    30 1.335663 3.182098 1.418086 0.542060 -1.251578 -1.415178
    31 -0.000003 2.663269 0.000046 -0.694345 0.000000 0.000000
    32 0.000001 2.592527 -0.000031 -0.628648 0.000000 0.000000
    33 1.344765 1.881123 3.809589 0.757077 -1.203080 -1.477050
    34 0.000011 2.315664 -0.000084 -0.619285 0.000000 0.000000
    35 -0.000006 2.254017 0.000076 -0.553613 0.000000 0.000000
    36 0.011267 -6.809892 1.974034 -0.607868 0.000000 0.000000
    37 -0.011248 6.809885 -1.974043 -0.607868 0.000000 0.000000
  time 26
    0 -50.127977 51.889688 39.593750 -1.228777 -0.077669 0.337312
    1 0.317139 -5.222656 -1.137695 -0.008770 -0.107023 -0.209569
    2 0.000000 -7.488277 -0.000001 0.189480 -0.057770 0.027141
    3 0.000000 -5.597980 0.000000 0.350482 -0.085676 -0.086043
    4 0.000000 -6.565113 -0.000001 0.797885 -0.090258 -0.074532
    5 -1.549380 -5.102886 -4.074768 2.237564 -0.477551 -1.004275
    6 -0.000053 11.987244 0.000028 -0.754838 -0.607165 3.112898
    7 20.109314 0.000000 -0.000002 1.250898 -1.397561 -2.828743
    8 19.941738 0.000001 -0.000004 1.323326 -1.468862 3.091857
    9 6.938272 1.999413 -1.014580 3.100830 0.421291 1.440524
    10 20.710249 -0.000001 0.000000 0.000000 0.795532 0.000000
    11 18.105982 0.000001 0.000000 -1.526909 -0.129700 1.562003
    12 -6.938270 1.999409 -1.014579 1.292043 1.186851 1.558207
    13 20.710224 0.000000 0.000000 0.000000 0.000000 1.265210
    14 18.106007 0.000000 -0.000001 -0.578934 -0.764538 -2.041838
    15 0.000000 -6.555973 0.000000 -0.441440 0.241300 -0.020504
    16 0.000000 -3.252140 0.000004 -0.869701 -0.172348 -0.160651
    17 1.548545 -4.925743 -4.285366 2.981590 -0.717125 -1.281263
    18 1.190170 -10.472042 -0.306138 1.353248 -0.238019 -0.934260
    19 0.000008 0.000000 15.020973 -0.201994 -0.066154 0.008339
    20 0.000004 -0.000001 8.039619 0.000000 0.000000 0.318947
    21 2.899849 -0.471046 -4.331210 -0.201105 -0.677920 -1.132332
    22 -0.000025 2.543312 0.000026 0.207016 0.077893 -0.354859
    23 0.000059 2.315285 -0.000040 0.094291 0.035740 -0.361234
    24 1.551407 3.956631 -3.900798 2.332857 -1.367727 -3.120718
    25 0.000000 2.741436 -0.000004 -0.619285 0.000000 0.000000
    26 0.000010 2.668510 0.000050 -0.553613 0.000000 0.000000
    27 1.401100 3.639805 -1.202109 1.667983 -1.355836 -2.446922
    28 0.000003 2.810951 0.000004 -0.619285 0.000000 0.000000
    29 -0.000005 2.736202 -0.000031 -0.553613 0.000000 0.000000
    30 1.335663 3.182098 1.418086 0.542060 -1.251578 -1.415178
    31 -0.000003 2.663269 0.000046 -0.694345 0.000000 0.000000
    32 0.000001 2.592527 -0.000031 -0.628648 0.000000 0.000000
    33 1.344765 1.881123 3.809589 0.757077 -1.203080 -1.477050
    34 0.000011 2.315664 -0.000084 -0.619285 0.000000 0.000000
    35 -0.000006 2.254017 0.000076 -0.553613 0.000000 0.000000
    36 0.011267 -6.809892 1.974034 -0.607868 0.000000 0.000000
    37 -0.011248 6.809885 -1.974043 -0.607868 0.000000 0.000000
  time 27
    0 -51.918807 53.684423 40.468750 -1.229964 -0.081840 0.336579
    1 0.317139 -5.222656 -1.137695 -0.007841 -0.101026 -0.216124
    2 0.000000 -7.488277 -0.000001 0.192962 -0.057937 0.032060
    3 0.000000 -5.597980 0.000000 0.351972 -0.084668 -0.088296
    4 0.000000 -6.565113 -0.000001 0.795329 -0.074144 -0.092369
    5 -1.549380 -5.102886 -4.074768 2.241511 -0.481663 -1.013820
    6 -0.000053 11.987244 0.000028 -0.769013 -0.601784 3.130469
    7 20.109314 0.000000 -0.000002 1.254765 -1.395320 -2.832622
    8 19.941738 0.000001 -0.000004 1.192812 -1.409387 -3.085035
    9 6.938272 1.999413 -1.014580 3.089787 0.455349 1.414907
    10 20.710249 -0.000001 0.000000 0.000000 0.725590 0.000000
    11 18.105982 0.000001 0.000000 -1.419243 -0.143904 1.528376
    12 -6.938270 1.999409 -1.014579 1.297586 1.156755 1.599404
    13 20.710224 0.000000 0.000000 0.000000 0.000000 1.353079
    14 18.106007 0.000000 -0.000001 -0.475846 -0.749661 -2.193346
    15 0.000000 -6.555973 0.000000 -0.470083 0.189261 -0.045198
    16 0.000000 -3.252140 0.000004 -0.872428 -0.142612 -0.175584
    17 1.548545 -4.925743 -4.285366 2.981590 -0.717125 -1.281263
    18 1.190170 -10.472042 -0.306138 1.353248 -0.238019 -0.934260
    19 0.000008 0.000000 15.020973 -0.201994 -0.066154 0.008339
    20 0.000004 -0.000001 8.039619 0.000000 0.000000 0.318947
    21 2.899849 -0.471046 -4.331210 -0.201105 -0.677920 -1.132332
    22 -0.000025 2.543312 0.000026 0.207016 0.077893 -0.354859
    23 0.000059 2.315285 -0.000040 0.094291 0.035740 -0.361234
    24 1.551407 3.956631 -3.900798 2.332857 -1.367727 -3.120718
    25 0.000000 2.741436 -0.000004 -0.619285 0.000000 0.000000
    26 0.000010 2.668510 0.000050 -0.553613 0.000000 0.000000
    27 1.401100 3.639805 -1.202109 1.667983 -1.355836 -2.446922
    28 0.000003 2.810951 0.000004 -0.619285 0.000000 0.000000
    29 -0.000005 2.736202 -0.000031 -0.553613 0.000000 0.000000
    30 1.335663 3.182098 1.418086 0.542060 -1.251578 -1.415178
    31 -0.000003 2.663269 0.000046 -0.694345 0.000000 0.000000
    32 0.000001 2.592527 -0.000031 -0.628648 0.000000 0.000000
    33 1.344765 1.881123 3.809589 0.757077 -1.203080 -1.477050
    34 0.000011 2.315664 -0.000084 -0.619285 0.000000 0.000000
    35 -0.000006 2.254017 0.000076 -0.553613 0.000000 0.000000
    36 0.011267 -6.809892 1.974034 -0.607868 0.000000 0.000000
    37 -0.011248 6.809885 -1.974043 -0.607868 0.000000 0.000000
  time 28
    0 -53.713542 55.479159 41.281250 -1.228985 -0.086007 0.319185
    1 0.317139 -5.222656 -1.137695 -0.007337 -0.095330 -0.217738
    2 0.000000 -7.488277 -0.000001 0.196487 -0.057978 0.035518
    3 0.000000 -5.597980 0.000000 0.352482 -0.083555 -0.090978
    4 0.000000 -6.565113 -0.000001 0.793724 -0.060656 -0.107941
    5 -1.549380 -5.102886 -4.074768 2.242652 -0.483347 -1.017959
    6 -0.000053 11.987244 0.000028 -0.791252 -0.593836 -3.134883
    7 20.109314 0.000000 -0.000002 1.260963 -1.392021 -2.838870
    8 19.941738 0.000001 -0.000004 1.132952 -1.366369 -3.042177
    9 6.938272 1.999413 -1.014580 3.062107 0.468608 1.388449
    10 20.710249 -0.000001 0.000000 0.000000 0.626915 0.000000
    11 18.105982 0.000001 0.000000 -1.301120 -0.152588 1.491912
    12 -6.938270 1.999409 -1.014579 1.272050 1.121569 1.618020
    13 20.710224 0.000000 0.000000 0.000000 0.000000 1.427474
    14 18.106007 0.000000 -0.000001 -0.390019 -0.734081 -2.336102
    15 0.000000 -6.555973 0.000000 -0.492629 0.145724 -0.065217
    16 0.000000 -3.252140 0.000004 -0.870076 -0.141425 -0.168051
    17 1.548545 -4.925743 -4.285366 2.981590 -0.717125 -1.281263
    18 1.190170 -10.472042 -0.306138 1.353248 -0.238019 -0.934260
    19 0.000008 0.000000 15.020973 -0.201994 -0.066154 0.008339
    20 0.000004 -0.000001 8.039619 0.000000 0.000000 0.318947
    21 2.899849 -0.471046 -4.331210 -0.201105 -0.677920 -1.132332
    22 -0.000025 2.543312 0.000026 0.207016 0.077893 -0.354859
    23 0.000059 2.315285 -0.000040 0.094291 0.035740 -0.361234
    24 1.551407 3.956631 -3.900798 2.332857 -1.367727 -3.120718
    25 0.000000 2.741436 -0.000004 -0.619285 0.000000 0.000000
    26 0.000010 2.668510 0.000050 -0.553613 0.000000 0.000000
    27 1.401100 3.639805 -1.202109 1.667983 -1.355836 -2.446922
    28 0.000003 2.810951 0.000004 -0.619285 0.000000 0.000000
    29 -0.000005 2.736202 -0.000031 -0.553613 0.000000 0.000000
    30 1.335663 3.182098 1.418086 0.542060 -1.251578 -1.415178
    31 -0.000003 2.663269 0.000046 -0.694345 0.000000 0.000000
    32 0.000001 2.592527 -0.000031 -0.628648 0.000000 0.000000
    33 1.344765 1.881123 3.809589 0.757077 -1.203080 -1.477050
    34 0.000011 2.315664 -0.000084 -0.619285 0.000000 0.000000
    35 -0.000006 2.254017 0.000076 -0.553613 0.000000 0.000000
    36 0.011267 -6.809892 1.974034 -0.607868 0.000000 0.000000
    37 -0.011248 6.809885 -1.974043 -0.607868 0.000000 0.000000
  time 29
    0 -55.500466 57.262176 41.937500 -1.227353 -0.089460 0.266731
    1 0.317139 -5.222656 -1.137695 -0.006904 -0.092747 -0.215910
    2 0.000000 -7.488277 -0.000001 0.201434 -0.057873 0.036499
    3 0.000000 -5.597980 0.000000 0.354933 -0.082929 -0.092229
    4 0.000000 -6.565113 -0.000001 0.798602 -0.048274 -0.114633
    5 -1.549380 -5.102886 -4.074768 2.241163 -0.482052 -1.014624
    6 -0.000053 11.987244 0.000028 -0.816911 -0.584674 -3.120749
    7 20.109314 0.000000 -0.000002 1.255228 -1.395279 -2.833089
    8 19.941738 0.000001 -0.000004 1.113451 -1.350021 -3.029062
    9 6.938272 1.999413 -1.014580 -3.027748 0.423351 1.436975
    10 20.710249 -0.000001 0.000000 0.000000 0.501831 0.000000
    11 18.105982 0.000001 0.000000 -1.237605 0.066699 1.410165
    12 -6.938270 1.999409 -1.014579 2.139828 1.056131 2.237021
    13 20.710224 0.000000 0.000000 0.000000 0.000000 1.480242
    14 18.106007 0.000000 -0.000001 -0.230696 -1.207221 -2.543620
    15 0.000000 -6.555973 0.000000 -0.501661 0.127497 -0.073492
    16 0.000000 -3.252140 0.000004 -0.888173 -0.156057 -0.155271
    17 1.548545 -4.925743 -4.285366 2.981590 -0.717125 -1.281263
    18 1.190170 -10.472042 -0.306138 1.353248 -0.238019 -0.934260
    19 0.000008 0.000000 15.020973 -0.201994 -0.066154 0.008339
    20 0.000004 -0.000001 8.039619 0.000000 0.000000 0.318947
    21 2.899849 -0.471046 -4.331210 -0.201105 -0.677920 -1.132332
    22 -0.000025 2.543312 0.000026 0.207016 0.077893 -0.354859
    23 0.000059 2.315285 -0.000040 0.094291 0.035740 -0.361234
    24 1.551407 3.956631 -3.900798 2.332857 -1.367727 -3.120718
    25 0.000000 2.741436 -0.000004 -0.619285 0.000000 0.000000
    26 0.000010 2.668510 0.000050 -0.553613 0.000000 0.000000
    27 1.401100 3.639805 -1.202109 1.667983 -1.355836 -2.446922
    28 0.000003 2.810951 0.000004 -0.619285 0.000000 0.000000
    29 -0.000005 2.736202 -0.000031 -0.553613 0.000000 0.000000
    30 1.335663 3.182098 1.418086 0.542060 -1.251578 -1.415178
    31 -0.000003 2.663269 0.000046 -0.694345 0.000000 0.000000
    32 0.000001 2.592527 -0.000031 -0.628648 0.000000 0.000000
    33 1.344765 1.881123 3.809589 0.757077 -1.203080 -1.477050
    34 0.000011 2.315664 -0.000084 -0.619285 0.000000 0.000000
    35 -0.000006 2.254017 0.000076 -0.553613 0.000000 0.000000
    36 0.011267 -6.809892 1.974034 -0.607868 0.000000 0.000000
    37 -0.011248 6.809885 -1.974043 -0.607868 0.000000 0.000000
end
