// Created by Crowbar 0.74
version 1
nodes
  0 "bip_pelvis" -1
  1 "bip_spine_0" 0
  2 "bip_spine_1" 1
  3 "bip_spine_2" 2
  4 "bip_spine_3" 3
  5 "bip_collar_R" 4
  6 "bip_upperArm_R" 5
  7 "bip_lowerArm_R" 6
  8 "bip_hand_R" 7
  9 "bip_hip_L" 0
  10 "bip_knee_L" 9
  11 "bip_foot_L" 10
  12 "bip_hip_R" 0
  13 "bip_knee_R" 12
  14 "bip_foot_R" 13
  15 "bip_neck" 4
  16 "bip_head" 15
  17 "bip_collar_L" 4
  18 "bip_upperArm_L" 17
  19 "bip_lowerArm_L" 18
  20 "bip_hand_L" 19
  21 "bip_thumb_0_R" 8
  22 "bip_thumb_1_R" 21
  23 "bip_thumb_2_R" 22
  24 "bip_index_0_R" 8
  25 "bip_index_1_R" 24
  26 "bip_index_2_R" 25
  27 "bip_middle_0_R" 8
  28 "bip_middle_1_R" 27
  29 "bip_middle_2_R" 28
  30 "bip_ring_0_R" 8
  31 "bip_ring_1_R" 30
  32 "bip_ring_2_R" 31
  33 "bip_pinky_0_R" 8
  34 "bip_pinky_1_R" 33
  35 "bip_pinky_2_R" 34
  36 "bip_toe_L" 11
  37 "bip_toe_R" 14
end
skeleton
  time 0
    0 -3.566406 5.328125 41.937500 -1.222633 -0.021904 0.365193
    1 0.317139 -5.222656 -1.137695 -0.006166 -0.005632 -0.231335
    2 0.000000 -7.488277 -0.000001 0.201434 -0.057873 0.036499
    3 0.000000 -5.597980 0.000000 0.354933 -0.082929 -0.092229
    4 0.000000 -6.565113 -0.000001 0.798602 -0.048274 -0.114633
    5 -1.549380 -5.102886 -4.074768 2.241163 -0.482052 -1.014624
    6 -0.000053 11.987244 0.000028 -0.816911 -0.584674 -3.120749
    7 20.109314 0.000000 -0.000002 1.255228 -1.395279 -2.833089
    8 19.941738 0.000001 -0.000004 1.113451 -1.350021 -3.029062
    9 6.938272 1.999413 -1.014580 -2.559240 0.718767 1.825844
    10 20.710249 -0.000001 0.000000 0.000000 0.816366 0.000000
    11 18.105982 0.000001 0.000000 -1.204977 0.335867 1.536648
    12 -6.938270 1.999409 -1.014579 1.933881 0.442324 1.757596
    13 20.710224 0.000000 0.000000 0.000000 0.000000 1.233905
    14 18.106007 0.000000 -0.000001 2.815656 -1.322439 1.127852
    15 0.000000 -6.555973 0.000000 -0.501661 0.127497 -0.073492
    16 0.000000 -3.252140 0.000004 -0.888173 -0.156057 -0.155271
    17 1.548545 -4.925743 -4.285366 2.981590 -0.717125 -1.281263
    18 1.190170 -10.472042 -0.306138 1.353248 -0.238019 -0.934260
    19 0.000008 0.000000 15.020973 -0.201994 -0.066154 0.008339
    20 0.000004 -0.000001 8.039619 0.000000 0.000000 0.318947
    21 2.899849 -0.471046 -4.331210 -0.201105 -0.677920 -1.132332
    22 -0.000025 2.543312 0.000026 0.207016 0.077893 -0.354859
    23 0.000059 2.315285 -0.000040 0.094291 0.035740 -0.361234
    24 1.551407 3.956631 -3.900798 2.332857 -1.367727 -3.120718
    25 0.000000 2.741436 -0.000004 -0.619285 0.000000 0.000000
    26 0.000010 2.668510 0.000050 -0.553613 0.000000 0.000000
    27 1.401100 3.639805 -1.202109 1.667983 -1.355836 -2.446922
    28 0.000003 2.810951 0.000004 -0.619285 0.000000 0.000000
    29 -0.000005 2.736202 -0.000031 -0.553613 0.000000 0.000000
    30 1.335663 3.182098 1.418086 0.542060 -1.251578 -1.415178
    31 -0.000003 2.663269 0.000046 -0.694345 0.000000 0.000000
    32 0.000001 2.592527 -0.000031 -0.628648 0.000000 0.000000
    33 1.344765 1.881123 3.809589 0.757077 -1.203080 -1.477050
    34 0.000011 2.315664 -0.000084 -0.619285 0.000000 0.000000
    35 -0.000006 2.254017 0.000076 -0.553613 0.000000 0.000000
    36 0.011267 -6.809892 1.974034 -0.607824 0.000000 0.000000
    37 -0.011248 6.809885 -1.974043 -0.607824 0.000000 0.000000
  time 1
    0 -3.197266 2.791603 42.781250 -1.224235 -0.032724 0.327388
    1 0.317139 -5.222656 -1.137695 -0.009672 0.001935 -0.221166
    2 0.000000 -7.488277 -0.000001 0.204106 -0.057414 0.033281
    3 0.000000 -5.597980 0.000000 0.356234 -0.082422 -0.092698
    4 0.000000 -6.565113 -0.000001 0.798222 -0.031997 -0.121798
    5 -1.549380 -5.102886 -4.074768 2.243067 -0.485134 -1.022517
    6 -0.000053 11.987244 0.000028 -0.837291 -0.577932 -3.113140
    7 20.109314 0.000000 -0.000002 1.250137 -1.397869 -2.828017
    8 19.941738 0.000001 -0.000004 1.101410 -1.363313 -3.013261
    9 6.938272 1.999413 -1.014580 -2.645714 0.596378 1.757022
    10 20.710249 -0.000001 0.000000 0.000000 0.684942 0.000000
    11 18.105982 0.000001 0.000000 -1.210530 0.345369 1.552225
    12 -6.938270 1.999409 -1.014579 1.928222 0.580305 1.833565
    13 20.710224 0.000000 0.000000 0.000000 0.000000 1.253429
    14 18.106007 0.000000 -0.000001 -2.565940 -1.525585 -0.015834
    15 0.000000 -6.555973 0.000000 -0.499352 0.134232 -0.050562
    16 0.000000 -3.252140 0.000004 -0.890607 -0.158061 -0.146037
    17 1.548545 -4.925743 -4.285366 2.981590 -0.717125 -1.281263
    18 1.190170 -10.472042 -0.306138 1.353248 -0.238019 -0.934260
    19 0.000008 0.000000 15.020973 -0.201994 -0.066154 0.008339
    20 0.000004 -0.000001 8.039619 0.000000 0.000000 0.318947
    21 2.899849 -0.471046 -4.331210 -0.201105 -0.677920 -1.132332
    22 -0.000025 2.543312 0.000026 0.207016 0.077893 -0.354859
    23 0.000059 2.315285 -0.000040 0.094291 0.035740 -0.361234
    24 1.551407 3.956631 -3.900798 2.332857 -1.367727 -3.120718
    25 0.000000 2.741436 -0.000004 -0.619285 0.000000 0.000000
    26 0.000010 2.668510 0.000050 -0.553613 0.000000 0.000000
    27 1.401100 3.639805 -1.202109 1.667983 -1.355836 -2.446922
    28 0.000003 2.810951 0.000004 -0.619285 0.000000 0.000000
    29 -0.000005 2.736202 -0.000031 -0.553613 0.000000 0.000000
    30 1.335663 3.182098 1.418086 0.542060 -1.251578 -1.415178
    31 -0.000003 2.663269 0.000046 -0.694345 0.000000 0.000000
    32 0.000001 2.592527 -0.000031 -0.628648 0.000000 0.000000
    33 1.344765 1.881123 3.809589 0.757077 -1.203080 -1.477050
    34 0.000011 2.315664 -0.000084 -0.619285 0.000000 0.000000
    35 -0.000006 2.254017 0.000076 -0.553613 0.000000 0.000000
    36 0.011267 -6.809892 1.974034 -0.607824 0.000000 0.000000
    37 -0.011248 6.809885 -1.974043 -0.607824 0.000000 0.000000
  time 2
    0 -3.126953 0.262894 43.187500 -1.225368 -0.043587 0.272776
    1 0.317139 -5.222656 -1.137695 -0.017219 0.008721 -0.205033
    2 0.000000 -7.488277 -0.000001 0.205159 -0.057059 0.030833
    3 0.000000 -5.597980 0.000000 0.355669 -0.082165 -0.092872
    4 0.000000 -6.565113 -0.000001 0.797326 -0.020565 -0.127154
    5 -1.549380 -5.102886 -4.074768 2.244485 -0.487584 -1.028282
    6 -0.000053 11.987244 0.000028 -0.846150 -0.574047 -3.113041
    7 20.109314 0.000000 -0.000002 1.246830 -1.399716 -2.824549
    8 19.941738 0.000001 -0.000004 1.055414 -1.397253 -2.957379
    9 6.938272 1.999413 -1.014580 -2.730736 0.477715 1.703093
    10 20.710249 -0.000001 0.000000 0.000000 0.566378 0.000000
    11 18.105982 0.000001 0.000000 -1.224151 0.351190 1.558108
    12 -6.938270 1.999409 -1.014579 1.913499 0.768833 1.908905
    13 20.710224 0.000000 0.000000 0.000000 0.000000 1.222107
    14 18.106007 0.000000 -0.000001 -1.493729 -1.411987 -1.250463
    15 0.000000 -6.555973 0.000000 -0.496797 0.144330 -0.002706
    16 0.000000 -3.252140 0.000004 -0.894916 -0.153576 -0.132282
    17 1.548545 -4.925743 -4.285366 2.981590 -0.717125 -1.281263
    18 1.190170 -10.472042 -0.306138 1.353248 -0.238019 -0.934260
    19 0.000008 0.000000 15.020973 -0.201994 -0.066154 0.008339
    20 0.000004 -0.000001 8.039619 0.000000 0.000000 0.318947
    21 2.899849 -0.471046 -4.331210 -0.201105 -0.677920 -1.132332
    22 -0.000025 2.543312 0.000026 0.207016 0.077893 -0.354859
    23 0.000059 2.315285 -0.000040 0.094291 0.035740 -0.361234
    24 1.551407 3.956631 -3.900798 2.332857 -1.367727 -3.120718
    25 0.000000 2.741436 -0.000004 -0.619285 0.000000 0.000000
    26 0.000010 2.668510 0.000050 -0.553613 0.000000 0.000000
    27 1.401100 3.639805 -1.202109 1.667983 -1.355836 -2.446922
    28 0.000003 2.810951 0.000004 -0.619285 0.000000 0.000000
    29 -0.000005 2.736202 -0.000031 -0.553613 0.000000 0.000000
    30 1.335663 3.182098 1.418086 0.542060 -1.251578 -1.415178
    31 -0.000003 2.663269 0.000046 -0.694345 0.000000 0.000000
    32 0.000001 2.592527 -0.000031 -0.628648 0.000000 0.000000
    33 1.344765 1.881123 3.809589 0.757077 -1.203080 -1.477050
    34 0.000011 2.315664 -0.000084 -0.619285 0.000000 0.000000
    35 -0.000006 2.254017 0.000076 -0.553613 0.000000 0.000000
    36 0.011267 -6.809892 1.974034 -0.607824 0.000000 0.000000
    37 -0.011248 6.809885 -1.974043 -0.607824 0.000000 0.000000
  time 3
    0 -3.275390 -2.269721 42.968750 -1.226226 -0.049913 0.215877
    1 0.317139 -5.222656 -1.137695 -0.028238 0.020326 -0.179019
    2 0.000000 -7.488277 -0.000001 0.202630 -0.056834 0.029083
    3 0.000000 -5.597980 0.000000 0.351784 -0.081771 -0.093851
    4 0.000000 -6.565113 -0.000001 0.790044 -0.013267 -0.132187
    5 -1.549380 -5.102886 -4.074768 2.243994 -0.488056 -1.029583
    6 -0.000053 11.987244 0.000028 -0.838051 -0.575270 -3.125998
    7 20.109314 0.000000 -0.000002 1.242013 -1.401967 -2.819662
    8 19.941738 0.000001 -0.000004 0.936883 -1.442178 -2.824997
    9 6.938272 1.999413 -1.014580 -2.801984 0.383807 1.669810
    10 20.710249 -0.000001 0.000000 0.000000 0.515390 0.000000
    11 18.105982 0.000001 0.000000 -1.277983 0.353311 1.544589
    12 -6.938270 1.999409 -1.014579 1.879521 0.941648 1.951881
    13 20.710224 0.000000 0.000000 0.000000 0.000000 1.088321
    14 18.106007 0.000000 -0.000001 -1.320287 -1.363957 -1.423594
    15 0.000000 -6.555973 0.000000 -0.501760 0.143805 0.040161
    16 0.000000 -3.252140 0.000004 -0.889387 -0.142420 -0.116296
    17 1.548545 -4.925743 -4.285366 2.981590 -0.717125 -1.281263
    18 1.190170 -10.472042 -0.306138 1.353248 -0.238019 -0.934260
    19 0.000008 0.000000 15.020973 -0.201994 -0.066154 0.008339
    20 0.000004 -0.000001 8.039619 0.000000 0.000000 0.318947
    21 2.899849 -0.471046 -4.331210 -0.201105 -0.677920 -1.132332
    22 -0.000025 2.543312 0.000026 0.207016 0.077893 -0.354859
    23 0.000059 2.315285 -0.000040 0.094291 0.035740 -0.361234
    24 1.551407 3.956631 -3.900798 2.332857 -1.367727 -3.120718
    25 0.000000 2.741436 -0.000004 -0.619285 0.000000 0.000000
    26 0.000010 2.668510 0.000050 -0.553613 0.000000 0.000000
    27 1.401100 3.639805 -1.202109 1.667983 -1.355836 -2.446922
    28 0.000003 2.810951 0.000004 -0.619285 0.000000 0.000000
    29 -0.000005 2.736202 -0.000031 -0.553613 0.000000 0.000000
    30 1.335663 3.182098 1.418086 0.542060 -1.251578 -1.415178
    31 -0.000003 2.663269 0.000046 -0.694345 0.000000 0.000000
    32 0.000001 2.592527 -0.000031 -0.628648 0.000000 0.000000
    33 1.344765 1.881123 3.809589 0.757077 -1.203080 -1.477050
    34 0.000011 2.315664 -0.000084 -0.619285 0.000000 0.000000
    35 -0.000006 2.254017 0.000076 -0.553613 0.000000 0.000000
    36 0.011267 -6.809892 1.974034 -0.607824 0.000000 0.000000
    37 -0.011248 6.809885 -1.974043 -0.607824 0.000000 0.000000
  time 4
    0 -3.734375 -4.806243 42.031250 -1.228555 -0.046454 0.180081
    1 0.317139 -5.222656 -1.137695 -0.045485 0.044414 -0.140721
    2 0.000000 -7.488277 -0.000001 0.202509 -0.056204 0.024730
    3 0.000000 -5.597980 0.000000 0.348135 -0.081353 -0.094591
    4 0.000000 -6.565113 -0.000001 0.781238 -0.006947 -0.137486
    5 -1.549380 -5.102886 -4.074768 2.233121 -0.478741 -1.009490
    6 -0.000053 11.987244 0.000028 -0.820824 -0.578509 -3.139756
    7 20.109314 0.000000 -0.000002 1.233810 -1.405923 -2.811371
    8 19.941738 0.000001 -0.000004 0.634306 -1.485230 -2.506798
    9 6.938272 1.999413 -1.014580 -2.847887 0.335185 1.643970
    10 20.710249 -0.000001 0.000000 0.000000 0.574328 0.000000
    11 18.105982 0.000001 0.000000 -1.395768 0.345646 1.500977
    12 -6.938270 1.999409 -1.014579 1.805750 1.043815 1.932204
    13 20.710224 0.000000 0.000000 0.000000 0.000000 0.864029
    14 18.106007 0.000000 -0.000001 -0.787472 -1.295411 -1.801307
    15 0.000000 -6.555973 0.000000 -0.516601 0.130183 0.072890
    16 0.000000 -3.252140 0.000004 -0.866125 -0.126962 -0.104000
    17 1.548545 -4.925743 -4.285366 2.981590 -0.717125 -1.281263
    18 1.190170 -10.472042 -0.306138 1.353248 -0.238019 -0.934260
    19 0.000008 0.000000 15.020973 -0.201994 -0.066154 0.008339
    20 0.000004 -0.000001 8.039619 0.000000 0.000000 0.318947
    21 2.899849 -0.471046 -4.331210 -0.201105 -0.677920 -1.132332
    22 -0.000025 2.543312 0.000026 0.207016 0.077893 -0.354859
    23 0.000059 2.315285 -0.000040 0.094291 0.035740 -0.361234
    24 1.551407 3.956631 -3.900798 2.332857 -1.367727 -3.120718
    25 0.000000 2.741436 -0.000004 -0.619285 0.000000 0.000000
    26 0.000010 2.668510 0.000050 -0.553613 0.000000 0.000000
    27 1.401100 3.639805 -1.202109 1.667983 -1.355836 -2.446922
    28 0.000003 2.810951 0.000004 -0.619285 0.000000 0.000000
    29 -0.000005 2.736202 -0.000031 -0.553613 0.000000 0.000000
    30 1.335663 3.182098 1.418086 0.542060 -1.251578 -1.415178
    31 -0.000003 2.663269 0.000046 -0.694345 0.000000 0.000000
    32 0.000001 2.592527 -0.000031 -0.628648 0.000000 0.000000
    33 1.344765 1.881123 3.809589 0.757077 -1.203080 -1.477050
    34 0.000011 2.315664 -0.000084 -0.619285 0.000000 0.000000
    35 -0.000006 2.254017 0.000076 -0.553613 0.000000 0.000000
    36 0.011267 -6.809892 1.974034 -0.607952 0.000000 0.000000
    37 -0.011248 6.809885 -1.974043 -0.607824 0.000000 0.000000
  time 5
    0 -4.308593 -7.334952 40.875000 -1.231256 -0.040931 0.174975
    1 0.317139 -5.222656 -1.137695 -0.063060 0.057635 -0.122240
    2 0.000000 -7.488277 -0.000001 0.202081 -0.055895 0.024773
    3 0.000000 -5.597980 0.000000 0.345045 -0.080527 -0.095783
    4 0.000000 -6.565113 -0.000001 0.777037 0.014548 -0.156597
    5 -1.549380 -5.102886 -4.074768 2.228449 -0.478066 -1.009709
    6 -0.000053 11.987244 0.000028 -0.791057 -0.586931 3.115893
    7 20.109314 0.000000 -0.000002 1.218609 -1.412997 -2.796025
    8 19.941738 0.000001 -0.000004 0.009792 -1.505498 -1.866615
    9 6.938272 1.999413 -1.014580 -2.862461 0.314516 1.622972
    10 20.710249 -0.000001 0.000000 0.000000 0.683257 0.000000
    11 18.105982 0.000001 0.000000 -1.496821 0.335985 1.445376
    12 -6.938270 1.999409 -1.014579 1.720243 0.999538 1.872696
    13 20.710224 0.000000 0.000000 0.000000 0.000000 0.515579
    14 18.106007 0.000000 -0.000001 -0.727745 -1.196307 -1.627174
    15 0.000000 -6.555973 0.000000 -0.537580 0.112853 0.108480
    16 0.000000 -3.252140 0.000004 -0.841181 -0.119851 -0.105469
    17 1.548545 -4.925743 -4.285366 2.981590 -0.717125 -1.281263
    18 1.190170 -10.472042 -0.306138 1.353248 -0.238019 -0.934260
    19 0.000008 0.000000 15.020973 -0.201994 -0.066154 0.008339
    20 0.000004 -0.000001 8.039619 0.000000 0.000000 0.318947
    21 2.899849 -0.471046 -4.331210 -0.201105 -0.677920 -1.132332
    22 -0.000025 2.543312 0.000026 0.207016 0.077893 -0.354859
    23 0.000059 2.315285 -0.000040 0.094291 0.035740 -0.361234
    24 1.551407 3.956631 -3.900798 2.332857 -1.367727 -3.120718
    25 0.000000 2.741436 -0.000004 -0.619285 0.000000 0.000000
    26 0.000010 2.668510 0.000050 -0.553613 0.000000 0.000000
    27 1.401100 3.639805 -1.202109 1.667983 -1.355836 -2.446922
    28 0.000003 2.810951 0.000004 -0.619285 0.000000 0.000000
    29 -0.000005 2.736202 -0.000031 -0.553613 0.000000 0.000000
    30 1.335663 3.182098 1.418086 0.542060 -1.251578 -1.415178
    31 -0.000003 2.663269 0.000046 -0.694345 0.000000 0.000000
    32 0.000001 2.592527 -0.000031 -0.628648 0.000000 0.000000
    33 1.344765 1.881123 3.809589 0.757077 -1.203080 -1.477050
    34 0.000011 2.315664 -0.000084 -0.619285 0.000000 0.000000
    35 -0.000006 2.254017 0.000076 -0.553613 0.000000 0.000000
    36 0.011267 -6.809892 1.974034 -0.665795 0.000149 0.004727
    37 -0.011248 6.809885 -1.974043 -0.607824 0.000000 0.000000
  time 6
    0 -4.964843 -9.867567 39.625000 -1.233307 -0.034611 0.181360
    1 0.317139 -5.222656 -1.137695 -0.078265 0.067574 -0.097168
    2 0.000000 -7.488277 -0.000001 0.199798 -0.055160 0.020857
    3 0.000000 -5.597980 0.000000 0.341251 -0.080723 -0.091539
    4 0.000000 -6.565113 -0.000001 0.776662 0.040218 -0.182003
    5 -1.549380 -5.102886 -4.074768 2.235654 -0.492096 -1.037823
    6 -0.000053 11.987244 0.000028 -0.755190 -0.597958 3.075101
    7 20.109314 0.000000 -0.000002 1.186402 -1.425719 -2.763461
    8 19.941738 0.000001 -0.000004 -0.537228 -1.495131 -1.305659
    9 6.938272 1.999413 -1.014580 -2.863823 0.316742 1.604541
    10 20.710249 -0.000001 0.000000 0.000000 0.830352 0.000000
    11 18.105982 0.000001 0.000000 -1.548948 0.320677 1.378511
    12 -6.938270 1.999409 -1.014579 1.706331 1.065045 1.856336
    13 20.710224 0.000000 0.000000 0.000000 0.000000 0.606034
    14 18.106007 0.000000 -0.000001 -0.599616 -1.176826 -1.629850
    15 0.000000 -6.555973 0.000000 -0.563494 0.094684 0.144012
    16 0.000000 -3.252140 0.000004 -0.792940 -0.110851 -0.109271
    17 1.548545 -4.925743 -4.285366 2.981590 -0.717125 -1.281263
    18 1.190170 -10.472042 -0.306138 1.353248 -0.238019 -0.934260
    19 0.000008 0.000000 15.020973 -0.201994 -0.066154 0.008339
    20 0.000004 -0.000001 8.039619 0.000000 0.000000 0.318947
    21 2.899849 -0.471046 -4.331210 -0.201105 -0.677920 -1.132332
    22 -0.000025 2.543312 0.000026 0.207016 0.077893 -0.354859
    23 0.000059 2.315285 -0.000040 0.094291 0.035740 -0.361234
    24 1.551407 3.956631 -3.900798 2.332857 -1.367727 -3.120718
    25 0.000000 2.741436 -0.000004 -0.619285 0.000000 0.000000
    26 0.000010 2.668510 0.000050 -0.553613 0.000000 0.000000
    27 1.401100 3.639805 -1.202109 1.667983 -1.355836 -2.446922
    28 0.000003 2.810951 0.000004 -0.619285 0.000000 0.000000
    29 -0.000005 2.736202 -0.000031 -0.553613 0.000000 0.000000
    30 1.335663 3.182098 1.418086 0.542060 -1.251578 -1.415178
    31 -0.000003 2.663269 0.000046 -0.694345 0.000000 0.000000
    32 0.000001 2.592527 -0.000031 -0.628648 0.000000 0.000000
    33 1.344765 1.881123 3.809589 0.757077 -1.203080 -1.477050
    34 0.000011 2.315664 -0.000084 -0.619285 0.000000 0.000000
    35 -0.000006 2.254017 0.000076 -0.553613 0.000000 0.000000
    36 0.011267 -6.809892 1.974034 -0.779417 0.001206 0.014021
    37 -0.011248 6.809885 -1.974043 -0.607824 0.000000 0.000000
  time 7
    0 -5.890624 -12.404089 38.531250 -1.235603 -0.028486 0.198886
    1 0.317139 -5.222656 -1.137695 -0.085933 0.090219 -0.029689
    2 0.000000 -7.488277 -0.000001 0.197326 -0.051002 -0.015848
    3 0.000000 -5.597980 0.000000 0.339843 -0.088756 -0.051564
    4 0.000000 -6.565113 -0.000001 0.777183 0.067791 -0.235480
    5 -1.549380 -5.102886 -4.074768 2.248468 -0.514087 -1.077390
    6 -0.000053 11.987244 0.000028 -0.724395 -0.609829 3.036032
    7 20.109314 0.000000 -0.000002 1.130525 -1.443172 -2.706998
    8 19.941738 0.000001 -0.000004 -0.805733 -1.471615 -1.022075
    9 6.938272 1.999413 -1.014580 -2.858893 0.326829 1.573584
    10 20.710249 -0.000001 0.000000 0.000000 0.970296 0.000000
    11 18.105982 0.000001 0.000000 -1.539348 0.280772 1.310714
    12 -6.938270 1.999409 -1.014579 1.728880 1.153800 1.839088
    13 20.710224 0.000000 0.000000 0.000000 0.000000 0.907534
    14 18.106007 0.000000 -0.000001 -0.692202 -1.177363 -1.754560
    15 0.000000 -6.555973 0.000000 -0.591909 0.077897 0.176304
    16 0.000000 -3.252140 0.000004 -0.726246 -0.088753 -0.108050
    17 1.548545 -4.925743 -4.285366 2.981590 -0.717125 -1.281263
    18 1.190170 -10.472042 -0.306138 1.353248 -0.238019 -0.934260
    19 0.000008 0.000000 15.020973 -0.201994 -0.066154 0.008339
    20 0.000004 -0.000001 8.039619 0.000000 0.000000 0.318947
    21 2.899849 -0.471046 -4.331210 -0.201105 -0.677920 -1.132332
    22 -0.000025 2.543312 0.000026 0.207016 0.077893 -0.354859
    23 0.000059 2.315285 -0.000040 0.094291 0.035740 -0.361234
    24 1.551407 3.956631 -3.900798 2.332857 -1.367727 -3.120718
    25 0.000000 2.741436 -0.000004 -0.619285 0.000000 0.000000
    26 0.000010 2.668510 0.000050 -0.553613 0.000000 0.000000
    27 1.401100 3.639805 -1.202109 1.667983 -1.355836 -2.446922
    28 0.000003 2.810951 0.000004 -0.619285 0.000000 0.000000
    29 -0.000005 2.736202 -0.000031 -0.553613 0.000000 0.000000
    30 1.335663 3.182098 1.418086 0.542060 -1.251578 -1.415178
    31 -0.000003 2.663269 0.000046 -0.694345 0.000000 0.000000
    32 0.000001 2.592527 -0.000031 -0.628648 0.000000 0.000000
    33 1.344765 1.881123 3.809589 0.757077 -1.203080 -1.477050
    34 0.000011 2.315664 -0.000084 -0.619285 0.000000 0.000000
    35 -0.000006 2.254017 0.000076 -0.553613 0.000000 0.000000
    36 0.011267 -6.809892 1.974034 -0.858342 0.002573 0.020437
    37 -0.011248 6.809885 -1.974043 -0.607824 0.000000 0.000000
  time 8
    0 -6.898437 -14.932798 37.812500 -1.236709 -0.023801 0.218839
    1 0.317139 -5.222656 -1.137695 -0.084752 0.113844 0.033597
    2 0.000000 -7.488277 -0.000001 0.186020 -0.046198 -0.059011
    3 0.000000 -5.597980 0.000000 0.336155 -0.098420 -0.005061
    4 0.000000 -6.565113 -0.000001 0.772224 0.090376 -0.299944
    5 -1.549380 -5.102886 -4.074768 2.256461 -0.527893 -1.100133
    6 -0.000053 11.987244 0.000028 -0.695905 -0.620197 2.999857
    7 20.109314 0.000000 -0.000002 1.055762 -1.460444 -2.631753
    8 19.941738 0.000001 -0.000004 -0.937966 -1.441501 -0.872485
    9 6.938272 1.999413 -1.014580 -2.856144 0.325484 1.531548
    10 20.710249 -0.000001 0.000000 0.000000 1.068548 0.000000
    11 18.105982 0.000001 0.000000 -1.442951 0.225368 1.256572
    12 -6.938270 1.999409 -1.014579 1.724281 1.177579 1.790874
    13 20.710224 0.000000 0.000000 0.000000 0.000000 1.085754
    14 18.106007 0.000000 -0.000001 -0.796536 -1.169905 -1.813235
    15 0.000000 -6.555973 0.000000 -0.619671 0.064214 0.202768
    16 0.000000 -3.252140 0.000004 -0.698918 -0.073883 -0.108759
    17 1.548545 -4.925743 -4.285366 2.981590 -0.717125 -1.281263
    18 1.190170 -10.472042 -0.306138 1.353248 -0.238019 -0.934260
    19 0.000008 0.000000 15.020973 -0.201994 -0.066154 0.008339
    20 0.000004 -0.000001 8.039619 0.000000 0.000000 0.318947
    21 2.899849 -0.471046 -4.331210 -0.201105 -0.677920 -1.132332
    22 -0.000025 2.543312 0.000026 0.207016 0.077893 -0.354859
    23 0.000059 2.315285 -0.000040 0.094291 0.035740 -0.361234
    24 1.551407 3.956631 -3.900798 2.332857 -1.367727 -3.120718
    25 0.000000 2.741436 -0.000004 -0.619285 0.000000 0.000000
    26 0.000010 2.668510 0.000050 -0.553613 0.000000 0.000000
    27 1.401100 3.639805 -1.202109 1.667983 -1.355836 -2.446922
    28 0.000003 2.810951 0.000004 -0.619285 0.000000 0.000000
    29 -0.000005 2.736202 -0.000031 -0.553613 0.000000 0.000000
    30 1.335663 3.182098 1.418086 0.542060 -1.251578 -1.415178
    31 -0.000003 2.663269 0.000046 -0.694345 0.000000 0.000000
    32 0.000001 2.592527 -0.000031 -0.628648 0.000000 0.000000
    33 1.344765 1.881123 3.809589 0.757077 -1.203080 -1.477050
    34 0.000011 2.315664 -0.000084 -0.619285 0.000000 0.000000
    35 -0.000006 2.254017 0.000076 -0.553613 0.000000 0.000000
    36 0.011267 -6.809892 1.974034 -0.877720 0.003003 0.022055
    37 -0.011248 6.809885 -1.974043 -0.607824 0.000000 0.000000
  time 9
    0 -7.566405 -17.465414 37.781250 -1.236652 -0.021678 0.215606
    1 0.317139 -5.222656 -1.137695 -0.078796 0.124695 0.065229
    2 0.000000 -7.488277 -0.000001 0.173461 -0.043403 -0.087630
    3 0.000000 -5.597980 0.000000 0.331070 -0.105933 0.030004
    4 0.000000 -6.565113 -0.000001 0.762289 0.094860 -0.348732
    5 -1.549380 -5.102886 -4.074768 2.252205 -0.522198 -1.089978
    6 -0.000053 11.987244 0.000028 -0.675590 -0.625876 2.979678
    7 20.109314 0.000000 -0.000002 0.975482 -1.473937 -2.550953
    8 19.941738 0.000001 -0.000004 -0.998869 -1.411594 -0.793892
    9 6.938272 1.999413 -1.014580 -2.858275 0.280825 1.497342
    10 20.710249 -0.000001 0.000000 0.000000 1.100615 0.000000
    11 18.105982 0.000001 0.000000 -1.266240 0.186292 1.217280
    12 -6.938270 1.999409 -1.014579 1.677048 1.150233 1.710412
    13 20.710224 0.000000 0.000000 0.000000 0.000000 1.164261
    14 18.106007 0.000000 -0.000001 -0.890204 -1.168892 -1.836736
    15 0.000000 -6.555973 0.000000 -0.643376 0.054195 0.221786
    16 0.000000 -3.252140 0.000004 -0.704630 -0.054342 -0.110340
    17 1.548545 -4.925743 -4.285366 2.981590 -0.717125 -1.281263
    18 1.190170 -10.472042 -0.306138 1.353248 -0.238019 -0.934260
    19 0.000008 0.000000 15.020973 -0.201994 -0.066154 0.008339
    20 0.000004 -0.000001 8.039619 0.000000 0.000000 0.318947
    21 2.899849 -0.471046 -4.331210 -0.201105 -0.677920 -1.132332
    22 -0.000025 2.543312 0.000026 0.207016 0.077893 -0.354859
    23 0.000059 2.315285 -0.000040 0.094291 0.035740 -0.361234
    24 1.551407 3.956631 -3.900798 2.332857 -1.367727 -3.120718
    25 0.000000 2.741436 -0.000004 -0.619285 0.000000 0.000000
    26 0.000010 2.668510 0.000050 -0.553613 0.000000 0.000000
    27 1.401100 3.639805 -1.202109 1.667983 -1.355836 -2.446922
    28 0.000003 2.810951 0.000004 -0.619285 0.000000 0.000000
    29 -0.000005 2.736202 -0.000031 -0.553613 0.000000 0.000000
    30 1.335663 3.182098 1.418086 0.542060 -1.251578 -1.415178
    31 -0.000003 2.663269 0.000046 -0.694345 0.000000 0.000000
    32 0.000001 2.592527 -0.000031 -0.628648 0.000000 0.000000
    33 1.344765 1.881123 3.809589 0.757077 -1.203080 -1.477050
    34 0.000011 2.315664 -0.000084 -0.619285 0.000000 0.000000
    35 -0.000006 2.254017 0.000076 -0.553613 0.000000 0.000000
    36 0.011267 -6.809892 1.974034 -0.876169 0.002989 0.021921
    37 -0.011248 6.809885 -1.974043 -0.607824 0.000000 0.000000
  time 10
    0 -7.738280 -20.001935 38.500000 -1.238603 -0.022626 0.195882
    1 0.317139 -5.222656 -1.137695 -0.067707 0.116417 0.051606
    2 0.000000 -7.488277 -0.000001 0.175170 -0.043177 -0.090107
    3 0.000000 -5.597980 0.000000 0.332498 -0.106866 0.033496
    4 0.000000 -6.565113 -0.000001 0.765170 0.086253 -0.337723
    5 -1.549380 -5.102886 -4.074768 2.260496 -0.527649 -1.102353
    6 -0.000053 11.987244 0.000028 -0.660039 -0.630545 2.986447
    7 20.109314 0.000000 -0.000002 0.912261 -1.482072 -2.487598
    8 19.941738 0.000001 -0.000004 -1.028415 -1.387105 -0.748458
    9 6.938272 1.999413 -1.014580 -2.885117 0.237601 1.487760
    10 20.710249 -0.000001 0.000000 0.000000 1.072735 0.000000
    11 18.105982 0.000001 0.000000 -1.057805 0.178673 1.189152
    12 -6.938270 1.999409 -1.014579 1.633634 1.070644 1.648601
    13 20.710224 0.000000 0.000000 0.000000 0.000000 1.152883
    14 18.106007 0.000000 -0.000001 -0.955969 -1.179973 -1.844669
    15 0.000000 -6.555973 0.000000 -0.659438 0.048358 0.231609
    16 0.000000 -3.252140 0.000004 -0.699484 -0.058103 -0.113177
    17 1.548545 -4.925743 -4.285366 2.981590 -0.717125 -1.281263
    18 1.190170 -10.472042 -0.306138 1.353248 -0.238019 -0.934260
    19 0.000008 0.000000 15.020973 -0.201994 -0.066154 0.008339
    20 0.000004 -0.000001 8.039619 0.000000 0.000000 0.318947
    21 2.899849 -0.471046 -4.331210 -0.201105 -0.677920 -1.132332
    22 -0.000025 2.543312 0.000026 0.207016 0.077893 -0.354859
    23 0.000059 2.315285 -0.000040 0.094291 0.035740 -0.361234
    24 1.551407 3.956631 -3.900798 2.332857 -1.367727 -3.120718
    25 0.000000 2.741436 -0.000004 -0.619285 0.000000 0.000000
    26 0.000010 2.668510 0.000050 -0.553613 0.000000 0.000000
    27 1.401100 3.639805 -1.202109 1.667983 -1.355836 -2.446922
    28 0.000003 2.810951 0.000004 -0.619285 0.000000 0.000000
    29 -0.000005 2.736202 -0.000031 -0.553613 0.000000 0.000000
    30 1.335663 3.182098 1.418086 0.542060 -1.251578 -1.415178
    31 -0.000003 2.663269 0.000046 -0.694345 0.000000 0.000000
    32 0.000001 2.592527 -0.000031 -0.628648 0.000000 0.000000
    33 1.344765 1.881123 3.809589 0.757077 -1.203080 -1.477050
    34 0.000011 2.315664 -0.000084 -0.619285 0.000000 0.000000
    35 -0.000006 2.254017 0.000076 -0.553613 0.000000 0.000000
    36 0.011267 -6.809892 1.974034 -0.857805 0.002567 0.020437
    37 -0.011248 6.809885 -1.974043 -0.607824 0.000000 0.000000
  time 11
    0 -7.910155 -22.530644 39.375000 -1.240759 -0.026043 0.176259
    1 0.317139 -5.222656 -1.137695 -0.056639 0.108185 0.038027
    2 0.000000 -7.488277 -0.000001 0.176879 -0.043019 -0.092468
    3 0.000000 -5.597980 0.000000 0.333863 -0.107803 0.036990
    4 0.000000 -6.565113 -0.000001 0.767989 0.077673 -0.326876
    5 -1.549380 -5.102886 -4.074768 2.268844 -0.532980 -1.114712
    6 -0.000053 11.987244 0.000028 -0.644272 -0.635303 2.992455
    7 20.109314 0.000000 -0.000002 0.868131 -1.486785 -2.443202
    8 19.941738 0.000001 -0.000004 -1.049376 -1.372510 -0.715575
    9 6.938272 1.999413 -1.014580 -2.902461 0.218706 1.489513
    10 20.710249 -0.000001 0.000000 0.000000 1.053758 0.000000
    11 18.105982 0.000001 0.000000 -0.895295 0.171076 1.161283
    12 -6.938270 1.999409 -1.014579 1.602051 0.975098 1.605662
    13 20.710224 0.000000 0.000000 0.000000 0.000000 1.109075
    14 18.106007 0.000000 -0.000001 -1.014522 -1.188751 -1.841184
    15 0.000000 -6.555973 0.000000 -0.664476 0.047338 0.230607
    16 0.000000 -3.252140 0.000004 -0.694331 -0.061893 -0.116151
    17 1.548545 -4.925743 -4.285366 2.981590 -0.717125 -1.281263
    18 1.190170 -10.472042 -0.306138 1.353248 -0.238019 -0.934260
    19 0.000008 0.000000 15.020973 -0.201994 -0.066154 0.008339
    20 0.000004 -0.000001 8.039619 0.000000 0.000000 0.318947
    21 2.899849 -0.471046 -4.331210 -0.201105 -0.677920 -1.132332
    22 -0.000025 2.543312 0.000026 0.207016 0.077893 -0.354859
    23 0.000059 2.315285 -0.000040 0.094291 0.035740 -0.361234
    24 1.551407 3.956631 -3.900798 2.332857 -1.367727 -3.120718
    25 0.000000 2.741436 -0.000004 -0.619285 0.000000 0.000000
    26 0.000010 2.668510 0.000050 -0.553613 0.000000 0.000000
    27 1.401100 3.639805 -1.202109 1.667983 -1.355836 -2.446922
    28 0.000003 2.810951 0.000004 -0.619285 0.000000 0.000000
    29 -0.000005 2.736202 -0.000031 -0.553613 0.000000 0.000000
    30 1.335663 3.182098 1.418086 0.542060 -1.251578 -1.415178
    31 -0.000003 2.663269 0.000046 -0.694345 0.000000 0.000000
    32 0.000001 2.592527 -0.000031 -0.628648 0.000000 0.000000
    33 1.344765 1.881123 3.809589 0.757077 -1.203080 -1.477050
    34 0.000011 2.315664 -0.000084 -0.619285 0.000000 0.000000
    35 -0.000006 2.254017 0.000076 -0.553613 0.000000 0.000000
    36 0.011267 -6.809892 1.974034 -0.826969 0.001997 0.017920
    37 -0.011248 6.809885 -1.974043 -0.607824 0.000000 0.000000
  time 12
    0 -7.910155 -25.063260 40.312500 -1.243041 -0.030699 0.163165
    1 0.317139 -5.222656 -1.137695 -0.050935 0.091595 -0.000746
    2 0.000000 -7.488277 -0.000001 0.186410 -0.044139 -0.081772
    3 0.000000 -5.597980 0.000000 0.337176 -0.106259 0.028152
    4 0.000000 -6.565113 -0.000001 0.775251 0.062249 -0.297968
    5 -1.549380 -5.102886 -4.074768 2.277771 -0.537084 -1.126581
    6 -0.000053 11.987244 0.000028 -0.664234 -0.630882 3.031514
    7 20.109314 0.000000 -0.000002 0.846589 -1.488910 -2.421695
    8 19.941738 0.000001 -0.000004 -1.076039 -1.371465 -0.682700
    9 6.938272 1.999413 -1.014580 -2.913929 0.277778 1.512426
    10 20.710249 -0.000001 0.000000 0.000000 1.097680 0.000000
    11 18.105982 0.000001 0.000000 -0.828734 0.151355 1.127558
    12 -6.938270 1.999409 -1.014579 1.596242 0.866613 1.591414
    13 20.710224 0.000000 0.000000 0.000000 0.000000 1.039876
    14 18.106007 0.000000 -0.000001 -1.056256 -1.200226 -1.839103
    15 0.000000 -6.555973 0.000000 -0.656935 0.050857 0.214483
    16 0.000000 -3.252140 0.000004 -0.720512 -0.079220 -0.123278
    17 1.548545 -4.925743 -4.285366 2.981590 -0.717125 -1.281263
    18 1.190170 -10.472042 -0.306138 1.353248 -0.238019 -0.934260
    19 0.000008 0.000000 15.020973 -0.201994 -0.066154 0.008339
    20 0.000004 -0.000001 8.039619 0.000000 0.000000 0.318947
    21 2.899849 -0.471046 -4.331210 -0.201105 -0.677920 -1.132332
    22 -0.000025 2.543312 0.000026 0.207016 0.077893 -0.354859
    23 0.000059 2.315285 -0.000040 0.094291 0.035740 -0.361234
    24 1.551407 3.956631 -3.900798 2.332857 -1.367727 -3.120718
    25 0.000000 2.741436 -0.000004 -0.619285 0.000000 0.000000
    26 0.000010 2.668510 0.000050 -0.553613 0.000000 0.000000
    27 1.401100 3.639805 -1.202109 1.667983 -1.355836 -2.446922
    28 0.000003 2.810951 0.000004 -0.619285 0.000000 0.000000
    29 -0.000005 2.736202 -0.000031 -0.553613 0.000000 0.000000
    30 1.335663 3.182098 1.418086 0.542060 -1.251578 -1.415178
    31 -0.000003 2.663269 0.000046 -0.694345 0.000000 0.000000
    32 0.000001 2.592527 -0.000031 -0.628648 0.000000 0.000000
    33 1.344765 1.881123 3.809589 0.757077 -1.203080 -1.477050
    34 0.000011 2.315664 -0.000084 -0.619285 0.000000 0.000000
    35 -0.000006 2.254017 0.000076 -0.553613 0.000000 0.000000
    36 0.011267 -6.809892 1.974034 -0.766434 0.001033 0.013009
    37 -0.011248 6.809885 -1.974043 -0.607824 0.000000 0.000000
  time 13
    0 -7.874999 -27.599781 41.218750 -1.243156 -0.035926 0.165911
    1 0.317139 -5.222656 -1.137695 -0.045927 0.077354 -0.035871
    2 0.000000 -7.488277 -0.000001 0.192223 -0.045863 -0.069080
    3 0.000000 -5.597980 0.000000 0.340456 -0.103591 0.013681
    4 0.000000 -6.565113 -0.000001 0.781880 0.041495 -0.261909
    5 -1.549380 -5.102886 -4.074768 2.279330 -0.535879 -1.126392
    6 -0.000053 11.987244 0.000028 -0.724895 -0.617490 3.088321
    7 20.109314 0.000000 -0.000002 0.863575 -1.487207 -2.438690
    8 19.941738 0.000001 -0.000004 -1.120007 -1.396477 -0.642498
    9 6.938272 1.999413 -1.014580 -2.891547 0.391008 1.548469
    10 20.710249 -0.000001 0.000000 0.000000 1.183319 0.000000
    11 18.105982 0.000001 0.000000 -0.824660 0.126339 1.093207
    12 -6.938270 1.999409 -1.014579 1.612864 0.750779 1.592205
    13 20.710224 0.000000 0.000000 0.000000 0.000000 0.949995
    14 18.106007 0.000000 -0.000001 -1.089084 -1.211039 -1.834235
    15 0.000000 -6.555973 0.000000 -0.639847 0.058537 0.183047
    16 0.000000 -3.252140 0.000004 -0.733396 -0.083169 -0.114999
    17 1.548545 -4.925743 -4.285366 2.981590 -0.717125 -1.281263
    18 1.190170 -10.472042 -0.306138 1.353248 -0.238019 -0.934260
    19 0.000008 0.000000 15.020973 -0.201994 -0.066154 0.008339
    20 0.000004 -0.000001 8.039619 0.000000 0.000000 0.318947
    21 2.899849 -0.471046 -4.331210 -0.201105 -0.677920 -1.132332
    22 -0.000025 2.543312 0.000026 0.207016 0.077893 -0.354859
    23 0.000059 2.315285 -0.000040 0.094291 0.035740 -0.361234
    24 1.551407 3.956631 -3.900798 2.332857 -1.367727 -3.120718
    25 0.000000 2.741436 -0.000004 -0.619285 0.000000 0.000000
    26 0.000010 2.668510 0.000050 -0.553613 0.000000 0.000000
    27 1.401100 3.639805 -1.202109 1.667983 -1.355836 -2.446922
    28 0.000003 2.810951 0.000004 -0.619285 0.000000 0.000000
    29 -0.000005 2.736202 -0.000031 -0.553613 0.000000 0.000000
    30 1.335663 3.182098 1.418086 0.542060 -1.251578 -1.415178
    31 -0.000003 2.663269 0.000046 -0.694345 0.000000 0.000000
    32 0.000001 2.592527 -0.000031 -0.628648 0.000000 0.000000
    33 1.344765 1.881123 3.809589 0.757077 -1.203080 -1.477050
    34 0.000011 2.315664 -0.000084 -0.619285 0.000000 0.000000
    35 -0.000006 2.254017 0.000076 -0.553613 0.000000 0.000000
    36 0.011267 -6.809892 1.974034 -0.680863 0.000247 0.005999
    37 -0.011248 6.809885 -1.974043 -0.607824 0.000000 0.000000
  time 14
    0 -7.746092 -30.128491 42.000000 -1.242346 -0.040250 0.188155
    1 0.317139 -5.222656 -1.137695 -0.045223 0.066059 -0.061244
    2 0.000000 -7.488277 -0.000001 0.195926 -0.046980 -0.061432
    3 0.000000 -5.597980 0.000000 0.343759 -0.102234 0.005933
    4 0.000000 -6.565113 -0.000001 0.786088 0.028616 -0.237235
    5 -1.549380 -5.102886 -4.074768 2.269882 -0.523056 -1.101893
    6 -0.000053 11.987244 0.000028 -0.779924 -0.603508 3.131796
    7 20.109314 0.000000 -0.000002 0.929065 -1.480118 -2.504490
    8 19.941738 0.000001 -0.000004 -1.197001 -1.446634 -0.579234
    9 6.938272 1.999413 -1.014580 -2.843876 0.517163 1.593608
    10 20.710249 -0.000001 0.000000 0.000000 1.229867 0.000000
    11 18.105982 0.000001 0.000000 -0.824784 0.132914 1.080728
    12 -6.938270 1.999409 -1.014579 1.650862 0.628365 1.599998
    13 20.710224 0.000000 0.000000 0.000000 0.000000 0.844180
    14 18.106007 0.000000 -0.000001 -1.108720 -1.223322 -1.834067
    15 0.000000 -6.555973 0.000000 -0.617485 0.071218 0.140145
    16 0.000000 -3.252140 0.000004 -0.725201 -0.086282 -0.109138
    17 1.548545 -4.925743 -4.285366 2.981590 -0.717125 -1.281263
    18 1.190170 -10.472042 -0.306138 1.353248 -0.238019 -0.934260
    19 0.000008 0.000000 15.020973 -0.201994 -0.066154 0.008339
    20 0.000004 -0.000001 8.039619 0.000000 0.000000 0.318947
    21 2.899849 -0.471046 -4.331210 -0.201105 -0.677920 -1.132332
    22 -0.000025 2.543312 0.000026 0.207016 0.077893 -0.354859
    23 0.000059 2.315285 -0.000040 0.094291 0.035740 -0.361234
    24 1.551407 3.956631 -3.900798 2.332857 -1.367727 -3.120718
    25 0.000000 2.741436 -0.000004 -0.619285 0.000000 0.000000
    26 0.000010 2.668510 0.000050 -0.553613 0.000000 0.000000
    27 1.401100 3.639805 -1.202109 1.667983 -1.355836 -2.446922
    28 0.000003 2.810951 0.000004 -0.619285 0.000000 0.000000
    29 -0.000005 2.736202 -0.000031 -0.553613 0.000000 0.000000
    30 1.335663 3.182098 1.418086 0.542060 -1.251578 -1.415178
    31 -0.000003 2.663269 0.000046 -0.694345 0.000000 0.000000
    32 0.000001 2.592527 -0.000031 -0.628648 0.000000 0.000000
    33 1.344765 1.881123 3.809589 0.757077 -1.203080 -1.477050
    34 0.000011 2.315664 -0.000084 -0.619285 0.000000 0.000000
    35 -0.000006 2.254017 0.000076 -0.553613 0.000000 0.000000
    36 0.011267 -6.809892 1.974034 -0.607824 0.000000 0.000000
    37 -0.011248 6.809885 -1.974043 -0.607824 0.000000 0.000000
  time 15
    0 -7.546873 -32.661106 42.500000 -1.240927 -0.042673 0.229399
    1 0.317139 -5.222656 -1.137695 -0.041513 0.055765 -0.083751
    2 0.000000 -7.488277 -0.000001 0.200044 -0.047884 -0.053653
    3 0.000000 -5.597980 0.000000 0.346440 -0.101246 -0.000607
    4 0.000000 -6.565113 -0.000001 0.790395 0.020234 -0.221955
    5 -1.549380 -5.102886 -4.074768 2.253572 -0.503252 -1.061411
    6 -0.000053 11.987244 0.000028 -0.815936 -0.592747 -3.123777
    7 20.109314 0.000000 -0.000002 1.008398 -1.468999 -2.584116
    8 19.941738 0.000001 -0.000004 -1.376269 -1.506024 -0.419148
    9 6.938272 1.999413 -1.014580 -2.769693 0.620079 1.626966
    10 20.710249 -0.000001 0.000000 0.000000 1.019399 0.000000
    11 18.105982 0.000001 0.000000 -0.829606 0.245636 1.211624
    12 -6.938270 1.999409 -1.014579 1.704120 0.499906 1.602307
    13 20.710224 0.000000 0.000000 0.000000 0.000000 0.725525
    14 18.106007 0.000000 -0.000001 -1.117331 -1.235707 -1.837512
    15 0.000000 -6.555973 0.000000 -0.593739 0.089511 0.089322
    16 0.000000 -3.252140 0.000004 -0.728781 -0.107143 -0.114920
    17 1.548545 -4.925743 -4.285366 2.981590 -0.717125 -1.281263
    18 1.190170 -10.472042 -0.306138 1.353248 -0.238019 -0.934260
    19 0.000008 0.000000 15.020973 -0.201994 -0.066154 0.008339
    20 0.000004 -0.000001 8.039619 0.000000 0.000000 0.318947
    21 2.899849 -0.471046 -4.331210 -0.201105 -0.677920 -1.132332
    22 -0.000025 2.543312 0.000026 0.207016 0.077893 -0.354859
    23 0.000059 2.315285 -0.000040 0.094291 0.035740 -0.361234
    24 1.551407 3.956631 -3.900798 2.332857 -1.367727 -3.120718
    25 0.000000 2.741436 -0.000004 -0.619285 0.000000 0.000000
    26 0.000010 2.668510 0.000050 -0.553613 0.000000 0.000000
    27 1.401100 3.639805 -1.202109 1.667983 -1.355836 -2.446922
    28 0.000003 2.810951 0.000004 -0.619285 0.000000 0.000000
    29 -0.000005 2.736202 -0.000031 -0.553613 0.000000 0.000000
    30 1.335663 3.182098 1.418086 0.542060 -1.251578 -1.415178
    31 -0.000003 2.663269 0.000046 -0.694345 0.000000 0.000000
    32 0.000001 2.592527 -0.000031 -0.628648 0.000000 0.000000
    33 1.344765 1.881123 3.809589 0.757077 -1.203080 -1.477050
    34 0.000011 2.315664 -0.000084 -0.619285 0.000000 0.000000
    35 -0.000006 2.254017 0.000076 -0.553613 0.000000 0.000000
    36 0.011267 -6.809892 1.974034 -0.607824 0.000000 0.000000
    37 -0.011248 6.809885 -1.974043 -0.607824 0.000000 0.000000
  time 16
    0 -7.296873 -35.197628 42.687500 -1.240500 -0.042711 0.286169
    1 0.317139 -5.222656 -1.137695 -0.047139 0.046222 -0.125628
    2 0.000000 -7.488277 -0.000001 0.206157 -0.049926 -0.034752
    3 0.000000 -5.597980 0.000000 0.349174 -0.097562 -0.018835
    4 0.000000 -6.565113 -0.000001 0.795895 0.006703 -0.194940
    5 -1.549380 -5.102886 -4.074768 2.252409 -0.500064 -1.054898
    6 -0.000053 11.987244 0.000028 -0.831402 -0.589040 -3.120162
    7 20.109314 0.000000 -0.000002 1.083532 -1.454690 -2.659667
    8 19.941738 0.000001 -0.000004 -2.347502 -1.548771 0.533548
    9 6.938272 1.999413 -1.014580 -2.597023 0.839685 1.753680
    10 20.710249 -0.000001 0.000000 0.000000 1.111733 0.000000
    11 18.105982 0.000001 0.000000 -1.027329 0.295018 1.266045
    12 -6.938270 1.999409 -1.014579 1.767669 0.366890 1.590506
    13 20.710224 0.000000 0.000000 0.000000 0.000000 0.599514
    14 18.106007 0.000000 -0.000001 -1.114297 -1.248892 -1.849809
    15 0.000000 -6.555973 0.000000 -0.571977 0.112987 0.035057
    16 0.000000 -3.252140 0.000004 -0.753120 -0.125826 -0.125159
    17 1.548545 -4.925743 -4.285366 2.981590 -0.717125 -1.281263
    18 1.190170 -10.472042 -0.306138 1.353248 -0.238019 -0.934260
    19 0.000008 0.000000 15.020973 -0.201994 -0.066154 0.008339
    20 0.000004 -0.000001 8.039619 0.000000 0.000000 0.318947
    21 2.899849 -0.471046 -4.331210 -0.201105 -0.677920 -1.132332
    22 -0.000025 2.543312 0.000026 0.207016 0.077893 -0.354859
    23 0.000059 2.315285 -0.000040 0.094291 0.035740 -0.361234
    24 1.551407 3.956631 -3.900798 2.332857 -1.367727 -3.120718
    25 0.000000 2.741436 -0.000004 -0.619285 0.000000 0.000000
    26 0.000010 2.668510 0.000050 -0.553613 0.000000 0.000000
    27 1.401100 3.639805 -1.202109 1.667983 -1.355836 -2.446922
    28 0.000003 2.810951 0.000004 -0.619285 0.000000 0.000000
    29 -0.000005 2.736202 -0.000031 -0.553613 0.000000 0.000000
    30 1.335663 3.182098 1.418086 0.542060 -1.251578 -1.415178
    31 -0.000003 2.663269 0.000046 -0.694345 0.000000 0.000000
    32 0.000001 2.592527 -0.000031 -0.628648 0.000000 0.000000
    33 1.344765 1.881123 3.809589 0.757077 -1.203080 -1.477050
    34 0.000011 2.315664 -0.000084 -0.619285 0.000000 0.000000
    35 -0.000006 2.254017 0.000076 -0.553613 0.000000 0.000000
    36 0.011267 -6.809892 1.974034 -0.607824 0.000000 0.000000
    37 -0.011248 6.809885 -1.974043 -0.607824 0.000000 0.000000
  time 17
    0 -7.007811 -37.726337 42.312500 -1.238948 -0.036960 0.346640
    1 0.317139 -5.222656 -1.137695 -0.056056 0.034750 -0.165433
    2 0.000000 -7.488277 -0.000001 0.212072 -0.051562 -0.018506
    3 0.000000 -5.597980 0.000000 0.349675 -0.094457 -0.035063
    4 0.000000 -6.565113 -0.000001 0.802108 -0.003738 -0.168712
    5 -1.549380 -5.102886 -4.074768 2.246141 -0.493279 -1.040137
    6 -0.000053 11.987244 0.000028 -0.822145 -0.592576 -3.128357
    7 20.109314 0.000000 -0.000002 1.153150 -1.436739 -2.729863
    8 19.941738 0.000001 -0.000004 2.856332 -1.534366 1.603000
    9 6.938272 1.999413 -1.014580 -2.481119 0.871753 1.794462
    10 20.710249 -0.000001 0.000000 0.000000 0.742199 0.000000
    11 18.105982 0.000001 0.000000 -0.889422 0.408778 1.429151
    12 -6.938270 1.999409 -1.014579 1.831057 0.250448 1.561694
    13 20.710224 0.000000 0.000000 0.000000 0.000000 0.505991
    14 18.106007 0.000000 -0.000001 -1.101231 -1.262036 -1.890306
    15 0.000000 -6.555973 0.000000 -0.554184 0.139831 -0.017060
    16 0.000000 -3.252140 0.000004 -0.781876 -0.134427 -0.143406
    17 1.548545 -4.925743 -4.285366 2.981590 -0.717125 -1.281263
    18 1.190170 -10.472042 -0.306138 1.353248 -0.238019 -0.934260
    19 0.000008 0.000000 15.020973 -0.201994 -0.066154 0.008339
    20 0.000004 -0.000001 8.039619 0.000000 0.000000 0.318947
    21 2.899849 -0.471046 -4.331210 -0.201105 -0.677920 -1.132332
    22 -0.000025 2.543312 0.000026 0.207016 0.077893 -0.354859
    23 0.000059 2.315285 -0.000040 0.094291 0.035740 -0.361234
    24 1.551407 3.956631 -3.900798 2.332857 -1.367727 -3.120718
    25 0.000000 2.741436 -0.000004 -0.619285 0.000000 0.000000
    26 0.000010 2.668510 0.000050 -0.553613 0.000000 0.000000
    27 1.401100 3.639805 -1.202109 1.667983 -1.355836 -2.446922
    28 0.000003 2.810951 0.000004 -0.619285 0.000000 0.000000
    29 -0.000005 2.736202 -0.000031 -0.553613 0.000000 0.000000
    30 1.335663 3.182098 1.418086 0.542060 -1.251578 -1.415178
    31 -0.000003 2.663269 0.000046 -0.694345 0.000000 0.000000
    32 0.000001 2.592527 -0.000031 -0.628648 0.000000 0.000000
    33 1.344765 1.881123 3.809589 0.757077 -1.203080 -1.477050
    34 0.000011 2.315664 -0.000084 -0.619285 0.000000 0.000000
    35 -0.000006 2.254017 0.000076 -0.553613 0.000000 0.000000
    36 0.011267 -6.809892 1.974034 -0.607824 0.000000 0.000000
    37 -0.011248 6.809885 -1.974043 -0.607824 0.000000 0.000000
  time 18
    0 -6.722654 -40.258952 41.343750 -1.237186 -0.026379 0.396470
    1 0.317139 -5.222656 -1.137695 -0.058244 0.018883 -0.202280
    2 0.000000 -7.488277 -0.000001 0.220470 -0.053281 -0.001353
    3 0.000000 -5.597980 0.000000 0.349639 -0.091031 -0.052448
    4 0.000000 -6.565113 -0.000001 0.807110 -0.013884 -0.134904
    5 -1.549380 -5.102886 -4.074768 2.234105 -0.480678 -1.012839
    6 -0.000053 11.987244 0.000028 -0.805029 -0.596780 -3.138869
    7 20.109314 0.000000 -0.000002 1.217255 -1.413480 -2.794633
    8 19.941738 0.000001 -0.000004 3.119420 -1.520756 1.344602
    9 6.938272 1.999413 -1.014580 -2.317649 0.947709 1.896661
    10 20.710249 -0.000001 0.000000 0.000000 0.530933 0.000000
    11 18.105982 0.000001 0.000000 -0.791091 0.455084 1.560386
    12 -6.938270 1.999409 -1.014579 1.882054 0.158290 1.522567
    13 20.710224 0.000000 0.000000 0.000000 0.000000 0.465244
    14 18.106007 0.000000 -0.000001 -1.083376 -1.273892 -1.965485
    15 0.000000 -6.555973 0.000000 -0.540385 0.167927 -0.061479
    16 0.000000 -3.252140 0.000004 -0.793290 -0.125566 -0.150517
    17 1.548545 -4.925743 -4.285366 2.981590 -0.717125 -1.281263
    18 1.190170 -10.472042 -0.306138 1.353248 -0.238019 -0.934260
    19 0.000008 0.000000 15.020973 -0.201994 -0.066154 0.008339
    20 0.000004 -0.000001 8.039619 0.000000 0.000000 0.318947
    21 2.899849 -0.471046 -4.331210 -0.201105 -0.677920 -1.132332
    22 -0.000025 2.543312 0.000026 0.207016 0.077893 -0.354859
    23 0.000059 2.315285 -0.000040 0.094291 0.035740 -0.361234
    24 1.551407 3.956631 -3.900798 2.332857 -1.367727 -3.120718
    25 0.000000 2.741436 -0.000004 -0.619285 0.000000 0.000000
    26 0.000010 2.668510 0.000050 -0.553613 0.000000 0.000000
    27 1.401100 3.639805 -1.202109 1.667983 -1.355836 -2.446922
    28 0.000003 2.810951 0.000004 -0.619285 0.000000 0.000000
    29 -0.000005 2.736202 -0.000031 -0.553613 0.000000 0.000000
    30 1.335663 3.182098 1.418086 0.542060 -1.251578 -1.415178
    31 -0.000003 2.663269 0.000046 -0.694345 0.000000 0.000000
    32 0.000001 2.592527 -0.000031 -0.628648 0.000000 0.000000
    33 1.344765 1.881123 3.809589 0.757077 -1.203080 -1.477050
    34 0.000011 2.315664 -0.000084 -0.619285 0.000000 0.000000
    35 -0.000006 2.254017 0.000076 -0.553613 0.000000 0.000000
    36 0.011267 -6.809892 1.974034 -0.607824 0.000000 0.000000
    37 -0.011248 6.809885 -1.974043 -0.607824 0.000000 0.000000
  time 19
    0 -6.453123 -42.795474 40.062500 -1.236376 -0.014059 0.435872
    1 0.317139 -5.222656 -1.137695 -0.054952 0.002201 -0.231991
    2 0.000000 -7.488277 -0.000001 0.224461 -0.055620 0.019292
    3 0.000000 -5.597980 0.000000 0.349536 -0.085920 -0.078093
    4 0.000000 -6.565113 -0.000001 0.809282 -0.030269 -0.107159
    5 -1.549380 -5.102886 -4.074768 2.227447 -0.473277 -0.997143
    6 -0.000053 11.987244 0.000028 -0.785089 -0.602096 3.119900
    7 20.109314 0.000000 -0.000002 1.270745 -1.386324 -2.848866
    8 19.941738 0.000001 -0.000004 -2.651089 -1.499519 0.847198
    9 6.938272 1.999413 -1.014580 -2.167685 0.994976 1.994195
    10 20.710249 -0.000001 0.000000 0.000000 0.352531 0.000000
    11 18.105982 0.000001 0.000000 -0.636213 0.508352 1.609528
    12 -6.938270 1.999409 -1.014579 1.922826 0.070694 1.476791
    13 20.710224 0.000000 0.000000 0.000000 0.000000 0.435064
    14 18.106007 0.000000 -0.000001 -1.062487 -1.284211 -2.049544
    15 0.000000 -6.555973 0.000000 -0.528933 0.194345 -0.091910
    16 0.000000 -3.252140 0.000004 -0.797083 -0.139771 -0.157553
    17 1.548545 -4.925743 -4.285366 2.981590 -0.717125 -1.281263
    18 1.190170 -10.472042 -0.306138 1.353248 -0.238019 -0.934260
    19 0.000008 0.000000 15.020973 -0.201994 -0.066154 0.008339
    20 0.000004 -0.000001 8.039619 0.000000 0.000000 0.318947
    21 2.899849 -0.471046 -4.331210 -0.201105 -0.677920 -1.132332
    22 -0.000025 2.543312 0.000026 0.207016 0.077893 -0.354859
    23 0.000059 2.315285 -0.000040 0.094291 0.035740 -0.361234
    24 1.551407 3.956631 -3.900798 2.332857 -1.367727 -3.120718
    25 0.000000 2.741436 -0.000004 -0.619285 0.000000 0.000000
    26 0.000010 2.668510 0.000050 -0.553613 0.000000 0.000000
    27 1.401100 3.639805 -1.202109 1.667983 -1.355836 -2.446922
    28 0.000003 2.810951 0.000004 -0.619285 0.000000 0.000000
    29 -0.000005 2.736202 -0.000031 -0.553613 0.000000 0.000000
    30 1.335663 3.182098 1.418086 0.542060 -1.251578 -1.415178
    31 -0.000003 2.663269 0.000046 -0.694345 0.000000 0.000000
    32 0.000001 2.592527 -0.000031 -0.628648 0.000000 0.000000
    33 1.344765 1.881123 3.809589 0.757077 -1.203080 -1.477050
    34 0.000011 2.315664 -0.000084 -0.619285 0.000000 0.000000
    35 -0.000006 2.254017 0.000076 -0.553613 0.000000 0.000000
    36 0.011267 -6.809892 1.974034 -0.607824 0.000000 0.000000
    37 -0.011248 6.809885 -1.974043 -0.607824 0.000000 0.000000
  time 20
    0 -6.136716 -45.324183 38.750000 -1.234407 -0.003763 0.464706
    1 0.317139 -5.222656 -1.137695 -0.042906 -0.008406 -0.227538
    2 0.000000 -7.488277 -0.000001 0.215892 -0.055688 0.015828
    3 0.000000 -5.597980 0.000000 0.347295 -0.087028 -0.075696
    4 0.000000 -6.565113 -0.000001 0.805652 -0.047535 -0.098851
    5 -1.549380 -5.102886 -4.074768 2.228378 -0.474744 -1.000131
    6 -0.000053 11.987244 0.000028 -0.769536 -0.606118 3.087410
    7 20.109314 0.000000 -0.000002 1.309529 -1.359342 -2.888381
    8 19.941738 0.000001 -0.000004 -2.315926 -1.467730 0.529971
    9 6.938272 1.999413 -1.014580 -2.130979 0.980197 2.003505
    10 20.710249 -0.000001 0.000000 0.000000 0.212558 0.000000
    11 18.105982 0.000001 0.000000 -0.542235 0.489943 1.657900
    12 -6.938270 1.999409 -1.014579 1.957507 0.014241 1.443762
    13 20.710224 0.000000 0.000000 0.000000 0.000000 0.497926
    14 18.106007 0.000000 -0.000001 -1.113775 -1.323102 -2.029335
    15 0.000000 -6.555973 0.000000 -0.510898 0.224067 -0.096184
    16 0.000000 -3.252140 0.000004 -0.825336 -0.169314 -0.174412
    17 1.548545 -4.925743 -4.285366 2.981590 -0.717125 -1.281263
    18 1.190170 -10.472042 -0.306138 1.353248 -0.238019 -0.934260
    19 0.000008 0.000000 15.020973 -0.201994 -0.066154 0.008339
    20 0.000004 -0.000001 8.039619 0.000000 0.000000 0.318947
    21 2.899849 -0.471046 -4.331210 -0.201105 -0.677920 -1.132332
    22 -0.000025 2.543312 0.000026 0.207016 0.077893 -0.354859
    23 0.000059 2.315285 -0.000040 0.094291 0.035740 -0.361234
    24 1.551407 3.956631 -3.900798 2.332857 -1.367727 -3.120718
    25 0.000000 2.741436 -0.000004 -0.619285 0.000000 0.000000
    26 0.000010 2.668510 0.000050 -0.553613 0.000000 0.000000
    27 1.401100 3.639805 -1.202109 1.667983 -1.355836 -2.446922
    28 0.000003 2.810951 0.000004 -0.619285 0.000000 0.000000
    29 -0.000005 2.736202 -0.000031 -0.553613 0.000000 0.000000
    30 1.335663 3.182098 1.418086 0.542060 -1.251578 -1.415178
    31 -0.000003 2.663269 0.000046 -0.694345 0.000000 0.000000
    32 0.000001 2.592527 -0.000031 -0.628648 0.000000 0.000000
    33 1.344765 1.881123 3.809589 0.757077 -1.203080 -1.477050
    34 0.000011 2.315664 -0.000084 -0.619285 0.000000 0.000000
    35 -0.000006 2.254017 0.000076 -0.553613 0.000000 0.000000
    36 0.011267 -6.809892 1.974034 -0.607824 0.000000 0.000000
    37 -0.011248 6.809885 -1.974043 -0.607824 0.000000 0.000000
  time 21
    0 -5.691404 -47.856798 37.656250 -1.231921 0.001400 0.475901
    1 0.317139 -5.222656 -1.137695 -0.028710 -0.007694 -0.185234
    2 0.000000 -7.488277 -0.000001 0.202286 -0.053655 -0.009988
    3 0.000000 -5.597980 0.000000 0.346769 -0.093557 -0.046793
    4 0.000000 -6.565113 -0.000001 0.800935 -0.061581 -0.106460
    5 -1.549380 -5.102886 -4.074768 2.235894 -0.482477 -1.016313
    6 -0.000053 11.987244 0.000028 -0.754971 -0.610931 3.060619
    7 20.109314 0.000000 -0.000002 1.342869 -1.328509 -2.922610
    8 19.941738 0.000001 -0.000004 -2.153246 -1.442653 0.380195
    9 6.938272 1.999413 -1.014580 -2.072721 0.974171 2.089755
    10 20.710249 -0.000001 0.000000 0.000000 0.284466 0.000000
    11 18.105982 0.000001 0.000000 -0.472822 0.436442 1.702680
    12 -6.938270 1.999409 -1.014579 1.980128 0.133581 1.510718
    13 20.710224 0.000000 0.000000 0.000000 0.000000 0.949858
    14 18.106007 0.000000 -0.000001 -0.756551 -1.392619 -2.152677
    15 0.000000 -6.555973 0.000000 -0.481998 0.258267 -0.074832
    16 0.000000 -3.252140 0.000004 -0.855712 -0.153174 -0.177299
    17 1.548545 -4.925743 -4.285366 2.981590 -0.717125 -1.281263
    18 1.190170 -10.472042 -0.306138 1.353248 -0.238019 -0.934260
    19 0.000008 0.000000 15.020973 -0.201994 -0.066154 0.008339
    20 0.000004 -0.000001 8.039619 0.000000 0.000000 0.318947
    21 2.899849 -0.471046 -4.331210 -0.201105 -0.677920 -1.132332
    22 -0.000025 2.543312 0.000026 0.207016 0.077893 -0.354859
    23 0.000059 2.315285 -0.000040 0.094291 0.035740 -0.361234
    24 1.551407 3.956631 -3.900798 2.332857 -1.367727 -3.120718
    25 0.000000 2.741436 -0.000004 -0.619285 0.000000 0.000000
    26 0.000010 2.668510 0.000050 -0.553613 0.000000 0.000000
    27 1.401100 3.639805 -1.202109 1.667983 -1.355836 -2.446922
    28 0.000003 2.810951 0.000004 -0.619285 0.000000 0.000000
    29 -0.000005 2.736202 -0.000031 -0.553613 0.000000 0.000000
    30 1.335663 3.182098 1.418086 0.542060 -1.251578 -1.415178
    31 -0.000003 2.663269 0.000046 -0.694345 0.000000 0.000000
    32 0.000001 2.592527 -0.000031 -0.628648 0.000000 0.000000
    33 1.344765 1.881123 3.809589 0.757077 -1.203080 -1.477050
    34 0.000011 2.315664 -0.000084 -0.619285 0.000000 0.000000
    35 -0.000006 2.254017 0.000076 -0.553613 0.000000 0.000000
    36 0.011267 -6.809892 1.974034 -0.607824 0.000000 0.000000
    37 -0.011248 6.809885 -1.974043 -0.999151 0.006267 0.031487
  time 22
    0 -5.242185 -50.393320 37.343750 -1.229636 0.001862 0.469493
    1 0.317139 -5.222656 -1.137695 -0.021020 -0.008873 -0.178991
    2 0.000000 -7.488277 -0.000001 0.195700 -0.054185 -0.009124
    3 0.000000 -5.597980 0.000000 0.348940 -0.093871 -0.046587
    4 0.000000 -6.565113 -0.000001 0.802126 -0.085656 -0.099246
    5 -1.549380 -5.102886 -4.074768 2.249969 -0.494256 -1.042718
    6 -0.000053 11.987244 0.000028 -0.729420 -0.618693 3.037870
    7 20.109314 0.000000 -0.000002 1.359496 -1.309323 -2.939834
    8 19.941738 0.000001 -0.000004 -2.119267 -1.443212 0.346260
    9 6.938272 1.999413 -1.014580 -1.898589 1.012896 2.314117
    10 20.710249 -0.000001 0.000000 0.000000 0.657791 0.000000
    11 18.105982 0.000001 0.000000 -0.561857 0.447041 1.593593
    12 -6.938270 1.999409 -1.014579 1.981514 0.124420 1.534001
    13 20.710224 0.000000 0.000000 0.000000 0.000000 1.025558
    14 18.106007 0.000000 -0.000001 -1.127835 -1.479266 -1.578802
    15 0.000000 -6.555973 0.000000 -0.448772 0.288059 -0.040634
    16 0.000000 -3.252140 0.000004 -0.853300 -0.157639 -0.177413
    17 1.548545 -4.925743 -4.285366 2.981590 -0.717125 -1.281263
    18 1.190170 -10.472042 -0.306138 1.353248 -0.238019 -0.934260
    19 0.000008 0.000000 15.020973 -0.201994 -0.066154 0.008339
    20 0.000004 -0.000001 8.039619 0.000000 0.000000 0.318947
    21 2.899849 -0.471046 -4.331210 -0.201105 -0.677920 -1.132332
    22 -0.000025 2.543312 0.000026 0.207016 0.077893 -0.354859
    23 0.000059 2.315285 -0.000040 0.094291 0.035740 -0.361234
    24 1.551407 3.956631 -3.900798 2.332857 -1.367727 -3.120718
    25 0.000000 2.741436 -0.000004 -0.619285 0.000000 0.000000
    26 0.000010 2.668510 0.000050 -0.553613 0.000000 0.000000
    27 1.401100 3.639805 -1.202109 1.667983 -1.355836 -2.446922
    28 0.000003 2.810951 0.000004 -0.619285 0.000000 0.000000
    29 -0.000005 2.736202 -0.000031 -0.553613 0.000000 0.000000
    30 1.335663 3.182098 1.418086 0.542060 -1.251578 -1.415178
    31 -0.000003 2.663269 0.000046 -0.694345 0.000000 0.000000
    32 0.000001 2.592527 -0.000031 -0.628648 0.000000 0.000000
    33 1.344765 1.881123 3.809589 0.757077 -1.203080 -1.477050
    34 0.000011 2.315664 -0.000084 -0.619285 0.000000 0.000000
    35 -0.000006 2.254017 0.000076 -0.553613 0.000000 0.000000
    36 0.011267 -6.809892 1.974034 -0.607824 0.000000 0.000000
    37 -0.011248 6.809885 -1.974043 -1.092803 0.009548 0.038488
  time 23
    0 -4.664060 -52.922029 37.375000 -1.226986 0.000478 0.454108
    1 0.317139 -5.222656 -1.137695 -0.022942 -0.019966 -0.209530
    2 0.000000 -7.488277 -0.000001 0.189760 -0.056747 0.015085
    3 0.000000 -5.597980 0.000000 0.349679 -0.088817 -0.072162
    4 0.000000 -6.565113 -0.000001 0.805067 -0.100148 -0.075211
    5 -1.549380 -5.102886 -4.074768 2.248045 -0.489456 -1.032073
    6 -0.000053 11.987244 0.000028 -0.719267 -0.620017 3.041885
    7 20.109314 0.000000 -0.000002 1.346808 -1.324076 -2.926729
    8 19.941738 0.000001 -0.000004 -2.204752 -1.475729 0.417153
    9 6.938272 1.999413 -1.014580 -1.873579 1.008670 2.375006
    10 20.710249 -0.000001 0.000000 0.000000 0.845385 0.000000
    11 18.105982 0.000001 0.000000 -0.738285 0.446363 1.547641
    12 -6.938270 1.999409 -1.014579 1.977958 0.089553 1.550585
    13 20.710224 0.000000 0.000000 0.000000 0.000000 1.041705
    14 18.106007 0.000000 -0.000001 -2.772033 -1.531347 0.182506
    15 0.000000 -6.555973 0.000000 -0.420205 0.306421 -0.007764
    16 0.000000 -3.252140 0.000004 -0.841756 -0.172315 -0.175029
    17 1.548545 -4.925743 -4.285366 2.981590 -0.717125 -1.281263
    18 1.190170 -10.472042 -0.306138 1.353248 -0.238019 -0.934260
    19 0.000008 0.000000 15.020973 -0.201994 -0.066154 0.008339
    20 0.000004 -0.000001 8.039619 0.000000 0.000000 0.318947
    21 2.899849 -0.471046 -4.331210 -0.201105 -0.677920 -1.132332
    22 -0.000025 2.543312 0.000026 0.207016 0.077893 -0.354859
    23 0.000059 2.315285 -0.000040 0.094291 0.035740 -0.361234
    24 1.551407 3.956631 -3.900798 2.332857 -1.367727 -3.120718
    25 0.000000 2.741436 -0.000004 -0.619285 0.000000 0.000000
    26 0.000010 2.668510 0.000050 -0.553613 0.000000 0.000000
    27 1.401100 3.639805 -1.202109 1.667983 -1.355836 -2.446922
    28 0.000003 2.810951 0.000004 -0.619285 0.000000 0.000000
    29 -0.000005 2.736202 -0.000031 -0.553613 0.000000 0.000000
    30 1.335663 3.182098 1.418086 0.542060 -1.251578 -1.415178
    31 -0.000003 2.663269 0.000046 -0.694345 0.000000 0.000000
    32 0.000001 2.592527 -0.000031 -0.628648 0.000000 0.000000
    33 1.344765 1.881123 3.809589 0.757077 -1.203080 -1.477050
    34 0.000011 2.315664 -0.000084 -0.619285 0.000000 0.000000
    35 -0.000006 2.254017 0.000076 -0.553613 0.000000 0.000000
    36 0.011267 -6.809892 1.974034 -0.607824 0.000000 0.000000
    37 -0.011248 6.809885 -1.974043 -0.996023 0.006155 0.031253
  time 24
    0 -4.164060 -55.454645 37.937500 -1.223809 -0.002370 0.439690
    1 0.317139 -5.222656 -1.137695 -0.022778 -0.028320 -0.220868
    2 0.000000 -7.488277 -0.000001 0.185567 -0.057904 0.026623
    3 0.000000 -5.597980 0.000000 0.349094 -0.086095 -0.086420
    4 0.000000 -6.565113 -0.000001 0.802077 -0.104712 -0.064212
    5 -1.549380 -5.102886 -4.074768 2.232362 -0.472320 -0.992023
    6 -0.000053 11.987244 0.000028 -0.723714 -0.616716 3.066600
    7 20.109314 0.000000 -0.000002 1.319622 -1.350920 -2.898838
    8 19.941738 0.000001 -0.000004 -2.569053 -1.526625 0.757641
    9 6.938272 1.999413 -1.014580 -1.932029 0.984792 2.337961
    10 20.710249 -0.000001 0.000000 0.000000 0.930688 0.000000
    11 18.105982 0.000001 0.000000 -0.865542 0.446595 1.523553
    12 -6.938270 1.999409 -1.014579 1.973634 0.053886 1.560948
    13 20.710224 0.000000 0.000000 0.000000 0.000000 0.988624
    14 18.106007 0.000000 -0.000001 2.910283 -1.442114 0.970057
    15 0.000000 -6.555973 0.000000 -0.406778 0.308742 0.008093
    16 0.000000 -3.252140 0.000004 -0.840815 -0.167296 -0.169990
    17 1.548545 -4.925743 -4.285366 2.981590 -0.717125 -1.281263
    18 1.190170 -10.472042 -0.306138 1.353248 -0.238019 -0.934260
    19 0.000008 0.000000 15.020973 -0.201994 -0.066154 0.008339
    20 0.000004 -0.000001 8.039619 0.000000 0.000000 0.318947
    21 2.899849 -0.471046 -4.331210 -0.201105 -0.677920 -1.132332
    22 -0.000025 2.543312 0.000026 0.207016 0.077893 -0.354859
    23 0.000059 2.315285 -0.000040 0.094291 0.035740 -0.361234
    24 1.551407 3.956631 -3.900798 2.332857 -1.367727 -3.120718
    25 0.000000 2.741436 -0.000004 -0.619285 0.000000 0.000000
    26 0.000010 2.668510 0.000050 -0.553613 0.000000 0.000000
    27 1.401100 3.639805 -1.202109 1.667983 -1.355836 -2.446922
    28 0.000003 2.810951 0.000004 -0.619285 0.000000 0.000000
    29 -0.000005 2.736202 -0.000031 -0.553613 0.000000 0.000000
    30 1.335663 3.182098 1.418086 0.542060 -1.251578 -1.415178
    31 -0.000003 2.663269 0.000046 -0.694345 0.000000 0.000000
    32 0.000001 2.592527 -0.000031 -0.628648 0.000000 0.000000
    33 1.344765 1.881123 3.809589 0.757077 -1.203080 -1.477050
    34 0.000011 2.315664 -0.000084 -0.619285 0.000000 0.000000
    35 -0.000006 2.254017 0.000076 -0.553613 0.000000 0.000000
    36 0.011267 -6.809892 1.974034 -0.607824 0.000000 0.000000
    37 -0.011248 6.809885 -1.974043 -0.898947 0.003487 0.023663
  time 25
    0 -3.810544 -57.991166 38.687500 -1.222546 -0.006000 0.434756
    1 0.317139 -5.222656 -1.137695 -0.014851 -0.026645 -0.221227
    2 0.000000 -7.488277 -0.000001 0.185956 -0.057840 0.025882
    3 0.000000 -5.597980 0.000000 0.348937 -0.086167 -0.085680
    4 0.000000 -6.565113 -0.000001 0.799445 -0.100812 -0.062651
    5 -1.549380 -5.102886 -4.074768 2.232122 -0.472040 -0.991288
    6 -0.000053 11.987244 0.000028 -0.739571 -0.612085 3.092968
    7 20.109314 0.000000 -0.000002 1.286545 -1.376247 -2.864955
    8 19.941738 0.000001 -0.000004 1.803932 -1.531760 2.639603
    9 6.938272 1.999413 -1.014580 -2.013929 0.942741 2.262150
    10 20.710249 -0.000001 0.000000 0.000000 0.960855 0.000000
    11 18.105982 0.000001 0.000000 -0.964912 0.451602 1.506468
    12 -6.938270 1.999409 -1.014579 1.975158 0.014348 1.561330
    13 20.710224 0.000000 0.000000 0.000000 0.000000 0.897632
    14 18.106007 0.000000 -0.000001 2.953906 -1.347193 1.147646
    15 0.000000 -6.555973 0.000000 -0.416410 0.285818 0.000336
    16 0.000000 -3.252140 0.000004 -0.857430 -0.159296 -0.170269
    17 1.548545 -4.925743 -4.285366 2.981590 -0.717125 -1.281263
    18 1.190170 -10.472042 -0.306138 1.353248 -0.238019 -0.934260
    19 0.000008 0.000000 15.020973 -0.201994 -0.066154 0.008339
    20 0.000004 -0.000001 8.039619 0.000000 0.000000 0.318947
    21 2.899849 -0.471046 -4.331210 -0.201105 -0.677920 -1.132332
    22 -0.000025 2.543312 0.000026 0.207016 0.077893 -0.354859
    23 0.000059 2.315285 -0.000040 0.094291 0.035740 -0.361234
    24 1.551407 3.956631 -3.900798 2.332857 -1.367727 -3.120718
    25 0.000000 2.741436 -0.000004 -0.619285 0.000000 0.000000
    26 0.000010 2.668510 0.000050 -0.553613 0.000000 0.000000
    27 1.401100 3.639805 -1.202109 1.667983 -1.355836 -2.446922
    28 0.000003 2.810951 0.000004 -0.619285 0.000000 0.000000
    29 -0.000005 2.736202 -0.000031 -0.553613 0.000000 0.000000
    30 1.335663 3.182098 1.418086 0.542060 -1.251578 -1.415178
    31 -0.000003 2.663269 0.000046 -0.694345 0.000000 0.000000
    32 0.000001 2.592527 -0.000031 -0.628648 0.000000 0.000000
    33 1.344765 1.881123 3.809589 0.757077 -1.203080 -1.477050
    34 0.000011 2.315664 -0.000084 -0.619285 0.000000 0.000000
    35 -0.000006 2.254017 0.000076 -0.553613 0.000000 0.000000
    36 0.011267 -6.809892 1.974034 -0.607824 0.000000 0.000000
    37 -0.011248 6.809885 -1.974043 -0.801707 0.001571 0.015907
  time 26
    0 -3.558591 -60.519875 39.593750 -1.224003 -0.010155 0.435696
    1 0.317139 -5.222656 -1.137695 -0.007823 -0.019926 -0.225019
    2 0.000000 -7.488277 -0.000001 0.189480 -0.057770 0.027141
    3 0.000000 -5.597980 0.000000 0.350482 -0.085676 -0.086043
    4 0.000000 -6.565113 -0.000001 0.797885 -0.090258 -0.074532
    5 -1.549380 -5.102886 -4.074768 2.237564 -0.477551 -1.004275
    6 -0.000053 11.987244 0.000028 -0.754838 -0.607165 3.112898
    7 20.109314 0.000000 -0.000002 1.250898 -1.397561 -2.828743
    8 19.941738 0.000001 -0.000004 1.323326 -1.468862 3.091857
    9 6.938272 1.999413 -1.014580 -2.099759 0.883881 2.170648
    10 20.710249 -0.000001 0.000000 0.000000 0.951025 0.000000
    11 18.105982 0.000001 0.000000 -1.041827 0.458536 1.495017
    12 -6.938270 1.999409 -1.014579 1.980241 -0.035147 1.553486
    13 20.710224 0.000000 0.000000 0.000000 0.000000 0.776964
    14 18.106007 0.000000 -0.000001 3.072072 -1.257851 1.268869
    15 0.000000 -6.555973 0.000000 -0.441440 0.241300 -0.020504
    16 0.000000 -3.252140 0.000004 -0.869701 -0.172348 -0.160651
    17 1.548545 -4.925743 -4.285366 2.981590 -0.717125 -1.281263
    18 1.190170 -10.472042 -0.306138 1.353248 -0.238019 -0.934260
    19 0.000008 0.000000 15.020973 -0.201994 -0.066154 0.008339
    20 0.000004 -0.000001 8.039619 0.000000 0.000000 0.318947
    21 2.899849 -0.471046 -4.331210 -0.201105 -0.677920 -1.132332
    22 -0.000025 2.543312 0.000026 0.207016 0.077893 -0.354859
    23 0.000059 2.315285 -0.000040 0.094291 0.035740 -0.361234
    24 1.551407 3.956631 -3.900798 2.332857 -1.367727 -3.120718
    25 0.000000 2.741436 -0.000004 -0.619285 0.000000 0.000000
    26 0.000010 2.668510 0.000050 -0.553613 0.000000 0.000000
    27 1.401100 3.639805 -1.202109 1.667983 -1.355836 -2.446922
    28 0.000003 2.810951 0.000004 -0.619285 0.000000 0.000000
    29 -0.000005 2.736202 -0.000031 -0.553613 0.000000 0.000000
    30 1.335663 3.182098 1.418086 0.542060 -1.251578 -1.415178
    31 -0.000003 2.663269 0.000046 -0.694345 0.000000 0.000000
    32 0.000001 2.592527 -0.000031 -0.628648 0.000000 0.000000
    33 1.344765 1.881123 3.809589 0.757077 -1.203080 -1.477050
    34 0.000011 2.315664 -0.000084 -0.619285 0.000000 0.000000
    35 -0.000006 2.254017 0.000076 -0.553613 0.000000 0.000000
    36 0.011267 -6.809892 1.974034 -0.607824 0.000000 0.000000
    37 -0.011248 6.809885 -1.974043 -0.704875 0.000378 0.007925
  time 27
    0 -3.484372 -63.052491 40.468750 -1.225209 -0.014322 0.435009
    1 0.317139 -5.222656 -1.137695 -0.006979 -0.013961 -0.231555
    2 0.000000 -7.488277 -0.000001 0.192962 -0.057937 0.032060
    3 0.000000 -5.597980 0.000000 0.351972 -0.084668 -0.088296
    4 0.000000 -6.565113 -0.000001 0.795329 -0.074144 -0.092369
    5 -1.549380 -5.102886 -4.074768 2.241511 -0.481663 -1.013820
    6 -0.000053 11.987244 0.000028 -0.768957 -0.601781 3.130288
    7 20.109314 0.000000 -0.000002 1.254765 -1.395320 -2.832622
    8 19.941738 0.000001 -0.000004 1.192812 -1.409387 -3.085035
    9 6.938272 1.999413 -1.014580 -2.181596 0.818903 2.076106
    10 20.710249 -0.000001 0.000000 0.000000 0.919231 0.000000
    11 18.105982 0.000001 0.000000 -1.106562 0.464205 1.483295
    12 -6.938270 1.999409 -1.014579 1.978762 -0.081785 1.543109
    13 20.710224 0.000000 0.000000 0.000000 0.000000 0.671738
    14 18.106007 0.000000 -0.000001 -3.063290 -1.178691 1.341763
    15 0.000000 -6.555973 0.000000 -0.470083 0.189261 -0.045198
    16 0.000000 -3.252140 0.000004 -0.872428 -0.142612 -0.175584
    17 1.548545 -4.925743 -4.285366 2.981590 -0.717125 -1.281263
    18 1.190170 -10.472042 -0.306138 1.353248 -0.238019 -0.934260
    19 0.000008 0.000000 15.020973 -0.201994 -0.066154 0.008339
    20 0.000004 -0.000001 8.039619 0.000000 0.000000 0.318947
    21 2.899849 -0.471046 -4.331210 -0.201105 -0.677920 -1.132332
    22 -0.000025 2.543312 0.000026 0.207016 0.077893 -0.354859
    23 0.000059 2.315285 -0.000040 0.094291 0.035740 -0.361234
    24 1.551407 3.956631 -3.900798 2.332857 -1.367727 -3.120718
    25 0.000000 2.741436 -0.000004 -0.619285 0.000000 0.000000
    26 0.000010 2.668510 0.000050 -0.553613 0.000000 0.000000
    27 1.401100 3.639805 -1.202109 1.667983 -1.355836 -2.446922
    28 0.000003 2.810951 0.000004 -0.619285 0.000000 0.000000
    29 -0.000005 2.736202 -0.000031 -0.553613 0.000000 0.000000
    30 1.335663 3.182098 1.418086 0.542060 -1.251578 -1.415178
    31 -0.000003 2.663269 0.000046 -0.694345 0.000000 0.000000
    32 0.000001 2.592527 -0.000031 -0.628648 0.000000 0.000000
    33 1.344765 1.881123 3.809589 0.757077 -1.203080 -1.477050
    34 0.000011 2.315664 -0.000084 -0.619285 0.000000 0.000000
    35 -0.000006 2.254017 0.000076 -0.553613 0.000000 0.000000
    36 0.011267 -6.809892 1.974034 -0.607824 0.000000 0.000000
    37 -0.011248 6.809885 -1.974043 -0.607824 0.000000 0.000000
  time 28
    0 -3.519528 -65.589012 41.281250 -1.224259 -0.018502 0.417552
    1 0.317139 -5.222656 -1.137695 -0.006537 -0.008201 -0.233170
    2 0.000000 -7.488277 -0.000001 0.196487 -0.057978 0.035518
    3 0.000000 -5.597980 0.000000 0.352482 -0.083555 -0.090978
    4 0.000000 -6.565113 -0.000001 0.793724 -0.060656 -0.107941
    5 -1.549380 -5.102886 -4.074768 2.242652 -0.483347 -1.017959
    6 -0.000053 11.987244 0.000028 -0.791252 -0.593836 -3.134883
    7 20.109314 0.000000 -0.000002 1.260963 -1.392021 -2.838870
    8 19.941738 0.000001 -0.000004 1.132952 -1.366369 -3.042177
    9 6.938272 1.999413 -1.014580 -2.272176 0.753011 1.978912
    10 20.710249 -0.000001 0.000000 0.000000 0.872641 0.000000
    11 18.105982 0.000001 0.000000 -1.164023 0.466917 1.474091
    12 -6.938270 1.999409 -1.014579 1.962011 0.101397 1.621514
    13 20.710224 0.000000 0.000000 0.000000 0.000000 0.897767
    14 18.106007 0.000000 -0.000001 3.100286 -1.100431 1.175742
    15 0.000000 -6.555973 0.000000 -0.492629 0.145724 -0.065217
    16 0.000000 -3.252140 0.000004 -0.870076 -0.141425 -0.168051
    17 1.548545 -4.925743 -4.285366 2.981590 -0.717125 -1.281263
    18 1.190170 -10.472042 -0.306138 1.353248 -0.238019 -0.934260
    19 0.000008 0.000000 15.020973 -0.201994 -0.066154 0.008339
    20 0.000004 -0.000001 8.039619 0.000000 0.000000 0.318947
    21 2.899849 -0.471046 -4.331210 -0.201105 -0.677920 -1.132332
    22 -0.000025 2.543312 0.000026 0.207016 0.077893 -0.354859
    23 0.000059 2.315285 -0.000040 0.094291 0.035740 -0.361234
    24 1.551407 3.956631 -3.900798 2.332857 -1.367727 -3.120718
    25 0.000000 2.741436 -0.000004 -0.619285 0.000000 0.000000
    26 0.000010 2.668510 0.000050 -0.553613 0.000000 0.000000
    27 1.401100 3.639805 -1.202109 1.667983 -1.355836 -2.446922
    28 0.000003 2.810951 0.000004 -0.619285 0.000000 0.000000
    29 -0.000005 2.736202 -0.000031 -0.553613 0.000000 0.000000
    30 1.335663 3.182098 1.418086 0.542060 -1.251578 -1.415178
    31 -0.000003 2.663269 0.000046 -0.694345 0.000000 0.000000
    32 0.000001 2.592527 -0.000031 -0.628648 0.000000 0.000000
    33 1.344765 1.881123 3.809589 0.757077 -1.203080 -1.477050
    34 0.000011 2.315664 -0.000084 -0.619285 0.000000 0.000000
    35 -0.000006 2.254017 0.000076 -0.553613 0.000000 0.000000
    36 0.011267 -6.809892 1.974034 -0.607824 0.000000 0.000000
    37 -0.011248 6.809885 -1.974043 -0.607824 0.000000 0.000000
  time 29
    0 -3.566403 -68.117722 41.937500 -1.222633 -0.021904 0.365193
    1 0.317139 -5.222656 -1.137695 -0.006166 -0.005632 -0.231335
    2 0.000000 -7.488277 -0.000001 0.201434 -0.057873 0.036499
    3 0.000000 -5.597980 0.000000 0.354933 -0.082929 -0.092229
    4 0.000000 -6.565113 -0.000001 0.798602 -0.048274 -0.114633
    5 -1.549380 -5.102886 -4.074768 2.241163 -0.482052 -1.014624
    6 -0.000053 11.987244 0.000028 -0.816911 -0.584674 -3.120749
    7 20.109314 0.000000 -0.000002 1.255228 -1.395279 -2.833089
    8 19.941738 0.000001 -0.000004 1.113451 -1.350021 -3.029062
    9 6.938272 1.999413 -1.014580 -2.559240 0.718767 1.825844
    10 20.710249 -0.000001 0.000000 0.000000 0.816366 0.000000
    11 18.105982 0.000001 0.000000 -1.204977 0.335867 1.536648
    12 -6.938270 1.999409 -1.014579 1.933881 0.442324 1.757596
    13 20.710224 0.000000 0.000000 0.000000 0.000000 1.233905
    14 18.106007 0.000000 -0.000001 2.815656 -1.322439 1.127852
    15 0.000000 -6.555973 0.000000 -0.501661 0.127497 -0.073492
    16 0.000000 -3.252140 0.000004 -0.888173 -0.156057 -0.155271
    17 1.548545 -4.925743 -4.285366 2.981590 -0.717125 -1.281263
    18 1.190170 -10.472042 -0.306138 1.353248 -0.238019 -0.934260
    19 0.000008 0.000000 15.020973 -0.201994 -0.066154 0.008339
    20 0.000004 -0.000001 8.039619 0.000000 0.000000 0.318947
    21 2.899849 -0.471046 -4.331210 -0.201105 -0.677920 -1.132332
    22 -0.000025 2.543312 0.000026 0.207016 0.077893 -0.354859
    23 0.000059 2.315285 -0.000040 0.094291 0.035740 -0.361234
    24 1.551407 3.956631 -3.900798 2.332857 -1.367727 -3.120718
    25 0.000000 2.741436 -0.000004 -0.619285 0.000000 0.000000
    26 0.000010 2.668510 0.000050 -0.553613 0.000000 0.000000
    27 1.401100 3.639805 -1.202109 1.667983 -1.355836 -2.446922
    28 0.000003 2.810951 0.000004 -0.619285 0.000000 0.000000
    29 -0.000005 2.736202 -0.000031 -0.553613 0.000000 0.000000
    30 1.335663 3.182098 1.418086 0.542060 -1.251578 -1.415178
    31 -0.000003 2.663269 0.000046 -0.694345 0.000000 0.000000
    32 0.000001 2.592527 -0.000031 -0.628648 0.000000 0.000000
    33 1.344765 1.881123 3.809589 0.757077 -1.203080 -1.477050
    34 0.000011 2.315664 -0.000084 -0.619285 0.000000 0.000000
    35 -0.000006 2.254017 0.000076 -0.553613 0.000000 0.000000
    36 0.011267 -6.809892 1.974034 -0.607824 0.000000 0.000000
    37 -0.011248 6.809885 -1.974043 -0.607824 0.000000 0.000000
end
