// Created by Crowbar 0.74
version 1
nodes
  0 "bip_pelvis" -1
  1 "bip_spine_0" 0
  2 "bip_spine_1" 1
  3 "bip_spine_2" 2
  4 "bip_spine_3" 3
  5 "bip_collar_R" 4
  6 "bip_upperArm_R" 5
  7 "bip_lowerArm_R" 6
  8 "bip_hand_R" 7
  9 "bip_hip_L" 0
  10 "bip_knee_L" 9
  11 "bip_foot_L" 10
  12 "bip_hip_R" 0
  13 "bip_knee_R" 12
  14 "bip_foot_R" 13
  15 "bip_neck" 4
  16 "bip_head" 15
  17 "bip_collar_L" 4
  18 "bip_upperArm_L" 17
  19 "bip_lowerArm_L" 18
  20 "bip_hand_L" 19
  21 "bip_thumb_0_R" 8
  22 "bip_thumb_1_R" 21
  23 "bip_thumb_2_R" 22
  24 "bip_index_0_R" 8
  25 "bip_index_1_R" 24
  26 "bip_index_2_R" 25
  27 "bip_middle_0_R" 8
  28 "bip_middle_1_R" 27
  29 "bip_middle_2_R" 28
  30 "bip_ring_0_R" 8
  31 "bip_ring_1_R" 30
  32 "bip_ring_2_R" 31
  33 "bip_pinky_0_R" 8
  34 "bip_pinky_1_R" 33
  35 "bip_pinky_2_R" 34
  36 "bip_toe_L" 11
  37 "bip_toe_R" 14
end
skeleton
  time 0
    0 4.226563 1.622070 38.250000 -1.205847 -0.152161 -0.131910
    1 -0.181274 -5.339844 -0.332275 -0.079817 -0.041595 0.268961
    2 0.000000 -7.488277 -0.000001 0.079274 -0.093417 0.040813
    3 0.000000 -5.597980 0.000000 0.411745 -0.362338 -0.039981
    4 0.000000 -6.565113 -0.000001 0.673301 -0.399198 0.182526
    5 -1.549380 -5.102886 -4.074768 2.158333 -0.797911 -1.116446
    6 -0.000053 11.987244 0.000028 -0.671805 -0.661363 3.011962
    7 20.109314 0.000000 -0.000002 -1.364121 -1.303431 -0.202145
    8 19.941738 0.000001 -0.000004 -1.370402 -1.414510 -0.429992
    9 6.938272 1.999413 -1.014580 2.801150 1.064872 1.577252
    10 20.710249 -0.000001 0.000000 0.000000 0.195504 0.000000
    11 18.105982 0.000001 0.000000 -1.033567 0.034965 1.514705
    12 -6.938270 1.999409 -1.014579 1.583803 0.198951 2.050660
    13 20.710224 0.000000 0.000000 0.000000 0.000000 0.195504
    14 18.106007 0.000000 -0.000001 -0.019622 -1.504708 -2.583760
    15 0.000000 -6.555973 0.000000 0.314307 -0.013329 -0.057490
    16 0.000000 -3.252140 0.000004 -1.649623 0.206086 -0.916681
    17 1.548545 -4.925743 -4.285366 3.038724 -0.776046 -1.280466
    18 1.190170 -10.472042 -0.306138 1.353248 -0.238019 -0.934260
    19 0.000008 0.000000 15.020973 -0.201994 -0.066154 0.008339
    20 0.000004 -0.000001 8.039619 0.000000 0.000000 0.318947
    21 2.899849 -0.471046 -4.331210 -0.545568 -0.467306 -0.514279
    22 -0.000025 2.543312 0.000026 0.201141 0.092189 -0.424065
    23 0.000059 2.315285 -0.000040 0.091583 0.042286 -0.431435
    24 1.551407 3.956631 -3.900798 2.065697 -1.367624 -3.120667
    25 0.000000 2.741436 -0.000004 -0.886334 0.000000 0.000000
    26 0.000010 2.668510 0.000050 -0.820624 0.000000 0.000000
    27 1.401100 3.639805 -1.202109 1.400898 -1.355859 -2.446853
    28 0.000003 2.810951 0.000004 -0.886334 0.000000 0.000000
    29 -0.000005 2.736202 -0.000031 -0.820624 0.000000 0.000000
    30 1.335663 3.182098 1.418086 0.663165 -1.234925 -1.854587
    31 -0.000003 2.663269 0.000046 -0.886334 0.000000 0.000000
    32 0.000001 2.592527 -0.000031 -0.820624 0.000000 0.000000
    33 1.344765 1.881123 3.809589 0.713989 -1.133768 -1.737707
    34 0.000011 2.315664 -0.000084 -0.782441 0.000000 0.000000
    35 -0.000006 2.254017 0.000076 -0.836893 0.000000 0.000000
    36 0.011267 -6.809892 1.974034 -0.607868 0.000000 0.000000
    37 -0.011248 6.809885 -1.974043 -0.607868 0.000000 0.000000
  time 1
    0 4.054688 1.757813 38.125000 -1.198337 -0.148567 -0.163303
    1 -0.134277 -5.343750 -0.310303 -0.092456 -0.061659 0.276589
    2 0.000000 -7.488277 -0.000001 0.077765 -0.087890 0.044150
    3 0.000000 -5.597980 0.000000 0.408242 -0.363826 -0.036725
    4 0.000000 -6.565113 -0.000001 0.669438 -0.394144 0.185529
    5 -1.549380 -5.102886 -4.074768 2.189852 -0.835972 -1.154812
    6 -0.000053 11.987244 0.000028 -0.649166 -0.523523 2.978861
    7 20.109314 0.000000 -0.000002 -1.424527 -1.286490 -0.136460
    8 19.941738 0.000001 -0.000004 -1.566100 -1.397958 -0.263968
    9 6.938272 1.999413 -1.014580 2.731008 1.072002 1.515942
    10 20.710249 -0.000001 0.000000 0.000000 0.195504 0.000000
    11 18.105982 0.000001 0.000000 -1.033567 0.034965 1.514705
    12 -6.938270 1.999409 -1.014579 1.673478 0.185890 2.091454
    13 20.710224 0.000000 0.000000 0.000000 0.000000 0.195504
    14 18.106007 0.000000 -0.000001 -0.019622 -1.504708 -2.583760
    15 0.000000 -6.555973 0.000000 0.314375 -0.011840 -0.062201
    16 0.000000 -3.252140 0.000004 -1.635681 0.201387 -0.896729
    17 1.548545 -4.925743 -4.285366 3.038724 -0.776046 -1.280466
    18 1.190170 -10.472042 -0.306138 1.353248 -0.238019 -0.934260
    19 0.000008 0.000000 15.020973 -0.201994 -0.066154 0.008339
    20 0.000004 -0.000001 8.039619 0.000000 0.000000 0.318947
    21 2.899849 -0.471046 -4.331210 -0.545568 -0.467306 -0.514279
    22 -0.000025 2.543312 0.000026 0.201141 0.092189 -0.424065
    23 0.000059 2.315285 -0.000040 0.091583 0.042286 -0.431435
    24 1.551407 3.956631 -3.900798 2.065697 -1.367624 -3.120667
    25 0.000000 2.741436 -0.000004 -0.886334 0.000000 0.000000
    26 0.000010 2.668510 0.000050 -0.820624 0.000000 0.000000
    27 1.401100 3.639805 -1.202109 1.400898 -1.355859 -2.446853
    28 0.000003 2.810951 0.000004 -0.886334 0.000000 0.000000
    29 -0.000005 2.736202 -0.000031 -0.820624 0.000000 0.000000
    30 1.335663 3.182098 1.418086 0.663165 -1.234925 -1.854587
    31 -0.000003 2.663269 0.000046 -0.886334 0.000000 0.000000
    32 0.000001 2.592527 -0.000031 -0.820624 0.000000 0.000000
    33 1.344765 1.881123 3.809589 0.713989 -1.133768 -1.737707
    34 0.000011 2.315664 -0.000084 -0.782441 0.000000 0.000000
    35 -0.000006 2.254017 0.000076 -0.836893 0.000000 0.000000
    36 0.011267 -6.809892 1.974034 -0.607868 0.000000 0.000000
    37 -0.011248 6.809885 -1.974043 -0.607868 0.000000 0.000000
  time 2
    0 3.603516 2.134766 37.843750 -1.183655 -0.139572 -0.241243
    1 -0.036011 -5.347656 -0.258057 -0.121637 -0.097938 0.285805
    2 0.000000 -7.488277 -0.000001 0.075125 -0.078612 0.046194
    3 0.000000 -5.597980 0.000000 0.399795 -0.357302 -0.033041
    4 0.000000 -6.565113 -0.000001 0.662251 -0.378604 0.186778
    5 -1.549380 -5.102886 -4.074768 2.258486 -0.911110 -1.244653
    6 -0.000053 11.987244 0.000028 -0.642505 -0.252468 2.905442
    7 20.109314 0.000000 -0.000002 -1.522705 -1.247112 -0.028534
    8 19.941738 0.000001 -0.000004 -1.888940 -1.359686 0.001616
    9 6.938272 1.999413 -1.014580 2.548913 1.076307 1.355128
    10 20.710249 -0.000001 0.000000 0.000000 0.195504 0.000000
    11 18.105982 0.000001 0.000000 -1.033567 0.034965 1.514705
    12 -6.938270 1.999409 -1.014579 1.836922 0.184113 2.153890
    13 20.710224 0.000000 0.000000 0.000000 0.000000 0.195504
    14 18.106007 0.000000 -0.000001 -0.019622 -1.504708 -2.583760
    15 0.000000 -6.555973 0.000000 0.314490 -0.008310 -0.073142
    16 0.000000 -3.252140 0.000004 -1.602818 0.208857 -0.821181
    17 1.548545 -4.925743 -4.285366 3.038724 -0.776046 -1.280466
    18 1.190170 -10.472042 -0.306138 1.353248 -0.238019 -0.934260
    19 0.000008 0.000000 15.020973 -0.201994 -0.066154 0.008339
    20 0.000004 -0.000001 8.039619 0.000000 0.000000 0.318947
    21 2.899849 -0.471046 -4.331210 -0.545568 -0.467306 -0.514279
    22 -0.000025 2.543312 0.000026 0.201141 0.092189 -0.424065
    23 0.000059 2.315285 -0.000040 0.091583 0.042286 -0.431435
    24 1.551407 3.956631 -3.900798 2.065697 -1.367624 -3.120667
    25 0.000000 2.741436 -0.000004 -0.886334 0.000000 0.000000
    26 0.000010 2.668510 0.000050 -0.820624 0.000000 0.000000
    27 1.401100 3.639805 -1.202109 1.400898 -1.355859 -2.446853
    28 0.000003 2.810951 0.000004 -0.886334 0.000000 0.000000
    29 -0.000005 2.736202 -0.000031 -0.820624 0.000000 0.000000
    30 1.335663 3.182098 1.418086 0.663165 -1.234925 -1.854587
    31 -0.000003 2.663269 0.000046 -0.886334 0.000000 0.000000
    32 0.000001 2.592527 -0.000031 -0.820624 0.000000 0.000000
    33 1.344765 1.881123 3.809589 0.713989 -1.133768 -1.737707
    34 0.000011 2.315664 -0.000084 -0.782441 0.000000 0.000000
    35 -0.000006 2.254017 0.000076 -0.836893 0.000000 0.000000
    36 0.011267 -6.809892 1.974034 -0.607868 0.000000 0.000000
    37 -0.011248 6.809885 -1.974043 -0.607868 0.000000 0.000000
  time 3
    0 2.976563 2.705078 37.406250 -1.173602 -0.127713 -0.314969
    1 0.046661 -5.347656 -0.204712 -0.150141 -0.112657 0.282758
    2 0.000000 -7.488277 -0.000001 0.074023 -0.076730 0.034322
    3 0.000000 -5.597980 0.000000 0.389926 -0.326140 -0.038615
    4 0.000000 -6.565113 -0.000001 0.658384 -0.352183 0.175362
    5 -1.549380 -5.102886 -4.074768 2.311395 -0.966498 -1.333765
    6 -0.000053 11.987244 0.000028 -0.652759 -0.057389 2.804074
    7 20.109314 0.000000 -0.000002 -1.572747 -1.208850 0.027836
    8 19.941738 0.000001 -0.000004 -2.145025 -1.338826 0.218423
    9 6.938272 1.999413 -1.014580 2.359997 1.067486 1.176520
    10 20.710249 -0.000001 0.000000 0.000000 0.195504 0.000000
    11 18.105982 0.000001 0.000000 -1.033567 0.034965 1.514705
    12 -6.938270 1.999409 -1.014579 1.893366 0.246116 2.179655
    13 20.710224 0.000000 0.000000 0.000000 0.000000 0.195504
    14 18.106007 0.000000 -0.000001 -0.019622 -1.504708 -2.583760
    15 0.000000 -6.555973 0.000000 0.314569 -0.004347 -0.085254
    16 0.000000 -3.252140 0.000004 -1.562875 0.242491 -0.688010
    17 1.548545 -4.925743 -4.285366 3.038724 -0.776046 -1.280466
    18 1.190170 -10.472042 -0.306138 1.353248 -0.238019 -0.934260
    19 0.000008 0.000000 15.020973 -0.201994 -0.066154 0.008339
    20 0.000004 -0.000001 8.039619 0.000000 0.000000 0.318947
    21 2.899849 -0.471046 -4.331210 -0.545568 -0.467306 -0.514279
    22 -0.000025 2.543312 0.000026 0.201141 0.092189 -0.424065
    23 0.000059 2.315285 -0.000040 0.091583 0.042286 -0.431435
    24 1.551407 3.956631 -3.900798 2.065697 -1.367624 -3.120667
    25 0.000000 2.741436 -0.000004 -0.886334 0.000000 0.000000
    26 0.000010 2.668510 0.000050 -0.820624 0.000000 0.000000
    27 1.401100 3.639805 -1.202109 1.400898 -1.355859 -2.446853
    28 0.000003 2.810951 0.000004 -0.886334 0.000000 0.000000
    29 -0.000005 2.736202 -0.000031 -0.820624 0.000000 0.000000
    30 1.335663 3.182098 1.418086 0.663165 -1.234925 -1.854587
    31 -0.000003 2.663269 0.000046 -0.886334 0.000000 0.000000
    32 0.000001 2.592527 -0.000031 -0.820624 0.000000 0.000000
    33 1.344765 1.881123 3.809589 0.713989 -1.133768 -1.737707
    34 0.000011 2.315664 -0.000084 -0.782441 0.000000 0.000000
    35 -0.000006 2.254017 0.000076 -0.836893 0.000000 0.000000
    36 0.011267 -6.809892 1.974034 -0.607868 0.000000 0.000000
    37 -0.011248 6.809885 -1.974043 -0.607868 0.000000 0.000000
  time 4
    0 2.259766 3.423828 36.906250 -1.171715 -0.114435 -0.353802
    1 0.066650 -5.351563 -0.159424 -0.169801 -0.072266 0.248865
    2 0.000000 -7.488277 -0.000001 0.078005 -0.096718 -0.006590
    3 0.000000 -5.597980 0.000000 0.384337 -0.250688 -0.066065
    4 0.000000 -6.565113 -0.000001 0.665202 -0.316059 0.138758
    5 -1.549380 -5.102886 -4.074768 2.296253 -0.990319 -1.399536
    6 -0.000053 11.987244 0.000028 -0.625345 0.001122 2.655442
    7 20.109314 0.000000 -0.000002 -1.579386 -1.179290 0.037268
    8 19.941738 0.000001 -0.000004 -2.524778 -1.366503 0.592259
    9 6.938272 1.999413 -1.014580 2.222002 1.058765 1.026713
    10 20.710249 -0.000001 0.000000 0.000000 0.195504 0.000000
    11 18.105982 0.000001 0.000000 -1.033567 0.034965 1.514705
    12 -6.938270 1.999409 -1.014579 1.845345 0.338273 2.166265
    13 20.710224 0.000000 0.000000 0.000000 0.000000 0.195504
    14 18.106007 0.000000 -0.000001 -0.019622 -1.504708 -2.583760
    15 0.000000 -6.555973 0.000000 0.314594 -0.002287 -0.091608
    16 0.000000 -3.252140 0.000004 -1.521831 0.332602 -0.480021
    17 1.548545 -4.925743 -4.285366 3.038724 -0.776046 -1.280466
    18 1.190170 -10.472042 -0.306138 1.353248 -0.238019 -0.934260
    19 0.000008 0.000000 15.020973 -0.201994 -0.066154 0.008339
    20 0.000004 -0.000001 8.039619 0.000000 0.000000 0.318947
    21 2.899849 -0.471046 -4.331210 -0.545568 -0.467306 -0.514279
    22 -0.000025 2.543312 0.000026 0.201141 0.092189 -0.424065
    23 0.000059 2.315285 -0.000040 0.091583 0.042286 -0.431435
    24 1.551407 3.956631 -3.900798 2.065697 -1.367624 -3.120667
    25 0.000000 2.741436 -0.000004 -0.886334 0.000000 0.000000
    26 0.000010 2.668510 0.000050 -0.820624 0.000000 0.000000
    27 1.401100 3.639805 -1.202109 1.400898 -1.355859 -2.446853
    28 0.000003 2.810951 0.000004 -0.886334 0.000000 0.000000
    29 -0.000005 2.736202 -0.000031 -0.820624 0.000000 0.000000
    30 1.335663 3.182098 1.418086 0.663165 -1.234925 -1.854587
    31 -0.000003 2.663269 0.000046 -0.886334 0.000000 0.000000
    32 0.000001 2.592527 -0.000031 -0.820624 0.000000 0.000000
    33 1.344765 1.881123 3.809589 0.713989 -1.133768 -1.737707
    34 0.000011 2.315664 -0.000084 -0.782441 0.000000 0.000000
    35 -0.000006 2.254017 0.000076 -0.836893 0.000000 0.000000
    36 0.011267 -6.809892 1.974034 -0.607868 0.000000 0.000000
    37 -0.011248 6.809885 -1.974043 -0.607868 0.000000 0.000000
  time 5
    0 1.554688 4.250000 36.375000 -1.173676 -0.098409 -0.382386
    1 0.071533 -5.351563 -0.120117 -0.190437 -0.030833 0.146189
    2 0.000000 -7.488277 -0.000001 0.083318 -0.124094 -0.061496
    3 0.000000 -5.597980 0.000000 0.378979 -0.150205 -0.103907
    4 0.000000 -6.565113 -0.000001 0.672780 -0.268484 0.090453
    5 -1.549380 -5.102886 -4.074768 2.250401 -0.997286 -1.449919
    6 -0.000053 11.987244 0.000028 -0.577221 0.002904 2.483933
    7 20.109314 0.000000 -0.000002 -1.578977 -1.152994 0.039605
    8 19.941738 0.000001 -0.000004 -3.093764 -1.375641 1.165387
    9 6.938272 1.999413 -1.014580 2.105637 1.046363 0.886333
    10 20.710249 -0.000001 0.000000 0.000000 0.195504 0.000000
    11 18.105982 0.000001 0.000000 -1.033567 0.034965 1.514705
    12 -6.938270 1.999409 -1.014579 1.801218 0.417932 2.138073
    13 20.710224 0.000000 0.000000 0.000000 0.000000 0.195504
    14 18.106007 0.000000 -0.000001 -0.019622 -1.504708 -2.583760
    15 0.000000 -6.555973 0.000000 0.314598 0.000225 -0.099253
    16 0.000000 -3.252140 0.000004 -1.435193 0.496388 -0.207698
    17 1.548545 -4.925743 -4.285366 3.038724 -0.776046 -1.280466
    18 1.190170 -10.472042 -0.306138 1.353248 -0.238019 -0.934260
    19 0.000008 0.000000 15.020973 -0.201994 -0.066154 0.008339
    20 0.000004 -0.000001 8.039619 0.000000 0.000000 0.318947
    21 2.899849 -0.471046 -4.331210 -0.545568 -0.467306 -0.514279
    22 -0.000025 2.543312 0.000026 0.201141 0.092189 -0.424065
    23 0.000059 2.315285 -0.000040 0.091583 0.042286 -0.431435
    24 1.551407 3.956631 -3.900798 2.065697 -1.367624 -3.120667
    25 0.000000 2.741436 -0.000004 -0.886334 0.000000 0.000000
    26 0.000010 2.668510 0.000050 -0.820624 0.000000 0.000000
    27 1.401100 3.639805 -1.202109 1.400898 -1.355859 -2.446853
    28 0.000003 2.810951 0.000004 -0.886334 0.000000 0.000000
    29 -0.000005 2.736202 -0.000031 -0.820624 0.000000 0.000000
    30 1.335663 3.182098 1.418086 0.663165 -1.234925 -1.854587
    31 -0.000003 2.663269 0.000046 -0.886334 0.000000 0.000000
    32 0.000001 2.592527 -0.000031 -0.820624 0.000000 0.000000
    33 1.344765 1.881123 3.809589 0.713989 -1.133768 -1.737707
    34 0.000011 2.315664 -0.000084 -0.782441 0.000000 0.000000
    35 -0.000006 2.254017 0.000076 -0.836893 0.000000 0.000000
    36 0.011267 -6.809892 1.974034 -0.607868 0.000000 0.000000
    37 -0.011248 6.809885 -1.974043 -0.607868 0.000000 0.000000
  time 6
    0 0.959961 5.125000 35.875000 -1.180430 -0.079071 -0.443549
    1 0.137329 -5.351563 -0.107239 -0.206627 -0.022788 0.101326
    2 0.000000 -7.488277 -0.000001 0.082068 -0.125916 -0.096162
    3 0.000000 -5.597980 0.000000 0.361272 -0.067264 -0.124213
    4 0.000000 -6.565113 -0.000001 0.664048 -0.205474 0.058491
    5 -1.549380 -5.102886 -4.074768 2.228016 -0.980103 -1.452377
    6 -0.000053 11.987244 0.000028 -0.537017 -0.030120 2.381897
    7 20.109314 0.000000 -0.000002 -1.574152 -1.136931 0.037380
    8 19.941738 0.000001 -0.000004 2.928142 -1.366731 1.433581
    9 6.938272 1.999413 -1.014580 1.992431 1.002582 0.750349
    10 20.710249 -0.000001 0.000000 0.000000 0.195504 0.000000
    11 18.105982 0.000001 0.000000 -1.033567 0.034965 1.514705
    12 -6.938270 1.999409 -1.014579 1.744972 0.510094 2.108903
    13 20.710224 0.000000 0.000000 0.000000 0.000000 0.195504
    14 18.106007 0.000000 -0.000001 -0.019622 -1.504708 -2.583760
    15 0.000000 -6.555973 0.000000 0.314485 0.008680 -0.125271
    16 0.000000 -3.252140 0.000004 -1.314336 0.541347 0.097657
    17 1.548545 -4.925743 -4.285366 3.038724 -0.776046 -1.280466
    18 1.190170 -10.472042 -0.306138 1.353248 -0.238019 -0.934260
    19 0.000008 0.000000 15.020973 -0.201994 -0.066154 0.008339
    20 0.000004 -0.000001 8.039619 0.000000 0.000000 0.318947
    21 2.899849 -0.471046 -4.331210 -0.545568 -0.467306 -0.514279
    22 -0.000025 2.543312 0.000026 0.201141 0.092189 -0.424065
    23 0.000059 2.315285 -0.000040 0.091583 0.042286 -0.431435
    24 1.551407 3.956631 -3.900798 2.065697 -1.367624 -3.120667
    25 0.000000 2.741436 -0.000004 -0.886334 0.000000 0.000000
    26 0.000010 2.668510 0.000050 -0.820624 0.000000 0.000000
    27 1.401100 3.639805 -1.202109 1.400898 -1.355859 -2.446853
    28 0.000003 2.810951 0.000004 -0.886334 0.000000 0.000000
    29 -0.000005 2.736202 -0.000031 -0.820624 0.000000 0.000000
    30 1.335663 3.182098 1.418086 0.663165 -1.234925 -1.854587
    31 -0.000003 2.663269 0.000046 -0.886334 0.000000 0.000000
    32 0.000001 2.592527 -0.000031 -0.820624 0.000000 0.000000
    33 1.344765 1.881123 3.809589 0.713989 -1.133768 -1.737707
    34 0.000011 2.315664 -0.000084 -0.782441 0.000000 0.000000
    35 -0.000006 2.254017 0.000076 -0.836893 0.000000 0.000000
    36 0.011267 -6.809892 1.974034 -0.607868 0.000000 0.000000
    37 -0.011248 6.809885 -1.974043 -0.607868 0.000000 0.000000
  time 7
    0 0.450928 6.015625 35.437500 -1.197015 -0.048933 -0.562681
    1 0.315186 -5.343750 -0.113281 -0.222602 -0.088744 0.100324
    2 0.000000 -7.488277 -0.000001 0.071118 -0.088551 -0.098557
    3 0.000000 -5.597980 0.000000 0.323230 -0.012612 -0.115907
    4 0.000000 -6.565113 -0.000001 0.635017 -0.119452 0.048503
    5 -1.549380 -5.102886 -4.074768 2.259797 -0.933183 -1.397833
    6 -0.000053 11.987244 0.000028 -0.515565 -0.108701 2.376474
    7 20.109314 0.000000 -0.000002 -1.566320 -1.126673 0.031580
    8 19.941738 0.000001 -0.000004 2.915905 -1.379381 1.451160
    9 6.938272 1.999413 -1.014580 1.896905 0.899618 0.629516
    10 20.710249 -0.000001 0.000000 0.000000 0.195504 0.000000
    11 18.105982 0.000001 0.000000 -1.033567 0.034965 1.514705
    12 -6.938270 1.999409 -1.014579 1.650138 0.624283 2.058620
    13 20.710224 0.000000 0.000000 0.000000 0.000000 0.195504
    14 18.106007 0.000000 -0.000001 -0.019622 -1.504708 -2.583760
    15 0.000000 -6.555973 0.000000 0.316162 0.026751 -0.180567
    16 0.000000 -3.252140 0.000004 -1.187985 0.441429 0.404531
    17 1.548545 -4.925743 -4.285366 3.038724 -0.776046 -1.280466
    18 1.190170 -10.472042 -0.306138 1.353248 -0.238019 -0.934260
    19 0.000008 0.000000 15.020973 -0.201994 -0.066154 0.008339
    20 0.000004 -0.000001 8.039619 0.000000 0.000000 0.318947
    21 2.899849 -0.471046 -4.331210 -0.545568 -0.467306 -0.514279
    22 -0.000025 2.543312 0.000026 0.201141 0.092189 -0.424065
    23 0.000059 2.315285 -0.000040 0.091583 0.042286 -0.431435
    24 1.551407 3.956631 -3.900798 2.065697 -1.367624 -3.120667
    25 0.000000 2.741436 -0.000004 -0.886334 0.000000 0.000000
    26 0.000010 2.668510 0.000050 -0.820624 0.000000 0.000000
    27 1.401100 3.639805 -1.202109 1.400898 -1.355859 -2.446853
    28 0.000003 2.810951 0.000004 -0.886334 0.000000 0.000000
    29 -0.000005 2.736202 -0.000031 -0.820624 0.000000 0.000000
    30 1.335663 3.182098 1.418086 0.663165 -1.234925 -1.854587
    31 -0.000003 2.663269 0.000046 -0.886334 0.000000 0.000000
    32 0.000001 2.592527 -0.000031 -0.820624 0.000000 0.000000
    33 1.344765 1.881123 3.809589 0.713989 -1.133768 -1.737707
    34 0.000011 2.315664 -0.000084 -0.782441 0.000000 0.000000
    35 -0.000006 2.254017 0.000076 -0.836893 0.000000 0.000000
    36 0.011267 -6.809892 1.974034 -0.607868 0.000000 0.000000
    37 -0.011248 6.809885 -1.974043 -0.607868 0.000000 0.000000
  time 8
    0 -0.041504 6.871094 35.125000 -1.226985 -0.011369 -0.711235
    1 0.546875 -5.324219 -0.099121 -0.243304 -0.192184 0.118729
    2 0.000000 -7.488277 -0.000001 0.055413 -0.031050 -0.085890
    3 0.000000 -5.597980 0.000000 0.273710 0.031580 -0.093540
    4 0.000000 -6.565113 -0.000001 0.599343 -0.018298 0.047632
    5 -1.549380 -5.102886 -4.074768 2.325862 -0.865007 -1.319879
    6 -0.000053 11.987244 0.000028 -0.505977 -0.226445 2.410847
    7 20.109314 0.000000 -0.000002 -1.556841 -1.119175 0.023344
    8 19.941738 0.000001 -0.000004 2.858235 -1.395309 1.510535
    9 6.938272 1.999413 -1.014580 1.854562 0.754729 0.551874
    10 20.710249 -0.000001 0.000000 0.000000 0.195504 0.000000
    11 18.105982 0.000001 0.000000 -1.033567 0.034965 1.514705
    12 -6.938270 1.999409 -1.014579 1.511708 0.729886 1.960764
    13 20.710224 0.000000 0.000000 0.000000 0.000000 0.195504
    14 18.106007 0.000000 -0.000001 -0.019622 -1.504708 -2.583760
    15 0.000000 -6.555973 0.000000 0.317783 0.050691 -0.252435
    16 0.000000 -3.252140 0.000004 -1.097487 0.253829 0.687092
    17 1.548545 -4.925743 -4.285366 3.038724 -0.776046 -1.280466
    18 1.190170 -10.472042 -0.306138 1.353248 -0.238019 -0.934260
    19 0.000008 0.000000 15.020973 -0.201994 -0.066154 0.008339
    20 0.000004 -0.000001 8.039619 0.000000 0.000000 0.318947
    21 2.899849 -0.471046 -4.331210 -0.545568 -0.467306 -0.514279
    22 -0.000025 2.543312 0.000026 0.201141 0.092189 -0.424065
    23 0.000059 2.315285 -0.000040 0.091583 0.042286 -0.431435
    24 1.551407 3.956631 -3.900798 2.065697 -1.367624 -3.120667
    25 0.000000 2.741436 -0.000004 -0.886334 0.000000 0.000000
    26 0.000010 2.668510 0.000050 -0.820624 0.000000 0.000000
    27 1.401100 3.639805 -1.202109 1.400898 -1.355859 -2.446853
    28 0.000003 2.810951 0.000004 -0.886334 0.000000 0.000000
    29 -0.000005 2.736202 -0.000031 -0.820624 0.000000 0.000000
    30 1.335663 3.182098 1.418086 0.663165 -1.234925 -1.854587
    31 -0.000003 2.663269 0.000046 -0.886334 0.000000 0.000000
    32 0.000001 2.592527 -0.000031 -0.820624 0.000000 0.000000
    33 1.344765 1.881123 3.809589 0.713989 -1.133768 -1.737707
    34 0.000011 2.315664 -0.000084 -0.782441 0.000000 0.000000
    35 -0.000006 2.254017 0.000076 -0.836893 0.000000 0.000000
    36 0.011267 -6.809892 1.974034 -0.607868 0.000000 0.000000
    37 -0.011248 6.809885 -1.974043 -0.607868 0.000000 0.000000
  time 9
    0 -0.491211 7.644531 35.031250 -1.265075 0.019549 -0.849726
    1 0.746582 -5.300781 -0.060150 -0.266531 -0.294124 0.140211
    2 0.000000 -7.488277 -0.000001 0.039178 0.029215 -0.069409
    3 0.000000 -5.597980 0.000000 0.224437 0.067724 -0.068589
    4 0.000000 -6.565113 -0.000001 0.568895 0.079101 0.053303
    5 -1.549380 -5.102886 -4.074768 2.398911 -0.791015 -1.247267
    6 -0.000053 11.987244 0.000028 -0.506261 -0.342369 2.453726
    7 20.109314 0.000000 -0.000002 -1.546358 -1.123098 0.012926
    8 19.941738 0.000001 -0.000004 2.767897 -1.413080 1.600422
    9 6.938272 1.999413 -1.014580 1.860131 0.610546 0.522084
    10 20.710249 -0.000001 0.000000 0.000000 0.195504 0.000000
    11 18.105982 0.000001 0.000000 -1.033567 0.034965 1.514705
    12 -6.938270 1.999409 -1.014579 1.359665 0.797044 1.835672
    13 20.710224 0.000000 0.000000 0.000000 0.000000 0.195504
    14 18.106007 0.000000 -0.000001 -0.019622 -1.504708 -2.583760
    15 0.000000 -6.555973 0.000000 0.314338 0.073569 -0.322074
    16 0.000000 -3.252140 0.000004 -1.058168 0.047898 0.915430
    17 1.548545 -4.925743 -4.285366 3.038724 -0.776046 -1.280466
    18 1.190170 -10.472042 -0.306138 1.353248 -0.238019 -0.934260
    19 0.000008 0.000000 15.020973 -0.201994 -0.066154 0.008339
    20 0.000004 -0.000001 8.039619 0.000000 0.000000 0.318947
    21 2.899849 -0.471046 -4.331210 -0.545568 -0.467306 -0.514279
    22 -0.000025 2.543312 0.000026 0.201141 0.092189 -0.424065
    23 0.000059 2.315285 -0.000040 0.091583 0.042286 -0.431435
    24 1.551407 3.956631 -3.900798 2.065697 -1.367624 -3.120667
    25 0.000000 2.741436 -0.000004 -0.886334 0.000000 0.000000
    26 0.000010 2.668510 0.000050 -0.820624 0.000000 0.000000
    27 1.401100 3.639805 -1.202109 1.400898 -1.355859 -2.446853
    28 0.000003 2.810951 0.000004 -0.886334 0.000000 0.000000
    29 -0.000005 2.736202 -0.000031 -0.820624 0.000000 0.000000
    30 1.335663 3.182098 1.418086 0.663165 -1.234925 -1.854587
    31 -0.000003 2.663269 0.000046 -0.886334 0.000000 0.000000
    32 0.000001 2.592527 -0.000031 -0.820624 0.000000 0.000000
    33 1.344765 1.881123 3.809589 0.713989 -1.133768 -1.737707
    34 0.000011 2.315664 -0.000084 -0.782441 0.000000 0.000000
    35 -0.000006 2.254017 0.000076 -0.836893 0.000000 0.000000
    36 0.011267 -6.809892 1.974034 -0.607868 0.000000 0.000000
    37 -0.011248 6.809885 -1.974043 -0.607868 0.000000 0.000000
  time 10
    0 -0.880371 8.289063 35.125000 -1.300292 0.035009 -0.941433
    1 0.848633 -5.285156 -0.034119 -0.282637 -0.358245 0.145614
    2 0.000000 -7.488277 -0.000001 0.025962 0.076088 -0.059617
    3 0.000000 -5.597980 0.000000 0.186546 0.098542 -0.052037
    4 0.000000 -6.565113 -0.000001 0.551033 0.155916 0.063370
    5 -1.549380 -5.102886 -4.074768 2.442246 -0.727856 -1.196278
    6 -0.000053 11.987244 0.000028 -0.504593 -0.417112 2.472514
    7 20.109314 0.000000 -0.000002 -1.534947 -1.147592 -0.000199
    8 19.941738 0.000001 -0.000004 2.658411 -1.432336 1.709156
    9 6.938272 1.999413 -1.014580 1.890877 0.509017 0.527470
    10 20.710249 -0.000001 0.000000 0.000000 0.195504 0.000000
    11 18.105982 0.000001 0.000000 -1.033567 0.034965 1.514705
    12 -6.938270 1.999409 -1.014579 1.249262 0.816693 1.734875
    13 20.710224 0.000000 0.000000 0.000000 0.000000 0.195504
    14 18.106007 0.000000 -0.000001 -0.019622 -1.504708 -2.583760
    15 0.000000 -6.555973 0.000000 0.302499 0.087661 -0.372288
    16 0.000000 -3.252140 0.000004 -1.062792 -0.110463 1.082139
    17 1.548545 -4.925743 -4.285366 3.038724 -0.776046 -1.280466
    18 1.190170 -10.472042 -0.306138 1.353248 -0.238019 -0.934260
    19 0.000008 0.000000 15.020973 -0.201994 -0.066154 0.008339
    20 0.000004 -0.000001 8.039619 0.000000 0.000000 0.318947
    21 2.899849 -0.471046 -4.331210 -0.545568 -0.467306 -0.514279
    22 -0.000025 2.543312 0.000026 0.201141 0.092189 -0.424065
    23 0.000059 2.315285 -0.000040 0.091583 0.042286 -0.431435
    24 1.551407 3.956631 -3.900798 2.065697 -1.367624 -3.120667
    25 0.000000 2.741436 -0.000004 -0.886334 0.000000 0.000000
    26 0.000010 2.668510 0.000050 -0.820624 0.000000 0.000000
    27 1.401100 3.639805 -1.202109 1.400898 -1.355859 -2.446853
    28 0.000003 2.810951 0.000004 -0.886334 0.000000 0.000000
    29 -0.000005 2.736202 -0.000031 -0.820624 0.000000 0.000000
    30 1.335663 3.182098 1.418086 0.663165 -1.234925 -1.854587
    31 -0.000003 2.663269 0.000046 -0.886334 0.000000 0.000000
    32 0.000001 2.592527 -0.000031 -0.820624 0.000000 0.000000
    33 1.344765 1.881123 3.809589 0.713989 -1.133768 -1.737707
    34 0.000011 2.315664 -0.000084 -0.782441 0.000000 0.000000
    35 -0.000006 2.254017 0.000076 -0.836893 0.000000 0.000000
    36 0.011267 -6.809892 1.974034 -0.607868 0.000000 0.000000
    37 -0.011248 6.809885 -1.974043 -0.607868 0.000000 0.000000
  time 11
    0 -1.188477 8.750000 35.406250 -1.327312 0.034999 -0.966435
    1 0.829102 -5.289063 -0.063904 -0.284311 -0.368622 0.125844
    2 0.000000 -7.488277 -0.000001 0.016421 0.105142 -0.059778
    3 0.000000 -5.597980 0.000000 0.163765 0.123354 -0.047424
    4 0.000000 -6.565113 -0.000001 0.546183 0.205893 0.079641
    5 -1.549380 -5.102886 -4.074768 2.433343 -0.682070 -1.166302
    6 -0.000053 11.987244 0.000028 -0.489179 -0.431443 2.444114
    7 20.109314 0.000000 -0.000002 -1.516673 -1.201609 -0.024642
    8 19.941738 0.000001 -0.000004 2.551925 -1.453714 1.816233
    9 6.938272 1.999413 -1.014580 1.936737 0.472721 0.553873
    10 20.710249 -0.000001 0.000000 0.000000 0.195504 0.000000
    11 18.105982 0.000001 0.000000 -1.033567 0.034965 1.514705
    12 -6.938270 1.999409 -1.014579 1.224107 0.800340 1.700316
    13 20.710224 0.000000 0.000000 0.000000 0.000000 0.195504
    14 18.106007 0.000000 -0.000001 -0.019622 -1.504708 -2.583760
    15 0.000000 -6.555973 0.000000 0.279555 0.088817 -0.395666
    16 0.000000 -3.252140 0.000004 -1.102789 -0.199773 1.178910
    17 1.548545 -4.925743 -4.285366 3.041733 -0.782770 -1.291243
    18 1.190170 -10.472042 -0.306138 1.353248 -0.238019 -0.934260
    19 0.000008 0.000000 15.020973 -0.201994 -0.066154 0.008339
    20 0.000004 -0.000001 8.039619 0.000000 0.000000 0.318947
    21 2.899849 -0.471046 -4.331210 -0.545568 -0.467306 -0.514279
    22 -0.000025 2.543312 0.000026 0.201141 0.092189 -0.424065
    23 0.000059 2.315285 -0.000040 0.091583 0.042286 -0.431435
    24 1.551407 3.956631 -3.900798 2.065697 -1.367624 -3.120667
    25 0.000000 2.741436 -0.000004 -0.886334 0.000000 0.000000
    26 0.000010 2.668510 0.000050 -0.820624 0.000000 0.000000
    27 1.401100 3.639805 -1.202109 1.400898 -1.355859 -2.446853
    28 0.000003 2.810951 0.000004 -0.886334 0.000000 0.000000
    29 -0.000005 2.736202 -0.000031 -0.820624 0.000000 0.000000
    30 1.335663 3.182098 1.418086 0.663165 -1.234925 -1.854587
    31 -0.000003 2.663269 0.000046 -0.886334 0.000000 0.000000
    32 0.000001 2.592527 -0.000031 -0.820624 0.000000 0.000000
    33 1.344765 1.881123 3.809589 0.713989 -1.133768 -1.737707
    34 0.000011 2.315664 -0.000084 -0.782441 0.000000 0.000000
    35 -0.000006 2.254017 0.000076 -0.836893 0.000000 0.000000
    36 0.011267 -6.809892 1.974034 -0.607868 0.000000 0.000000
    37 -0.011248 6.809885 -1.974043 -0.607868 0.000000 0.000000
  time 12
    0 -1.430664 9.070313 35.718750 -1.350406 0.027465 -0.948152
    1 0.732910 -5.300781 -0.133789 -0.278997 -0.346482 0.093423
    2 0.000000 -7.488277 -0.000001 0.008593 0.125055 -0.064053
    3 0.000000 -5.597980 0.000000 0.149722 0.141148 -0.048677
    4 0.000000 -6.565113 -0.000001 0.548401 0.238802 0.102316
    5 -1.549380 -5.102886 -4.074768 2.391919 -0.645124 -1.145384
    6 -0.000053 11.987244 0.000028 -0.463079 -0.407844 2.373643
    7 20.109314 0.000000 -0.000002 -1.481515 -1.277122 -0.070650
    8 19.941738 0.000001 -0.000004 2.479132 -1.478705 1.892231
    9 6.938272 1.999413 -1.014580 1.993715 0.477856 0.589279
    10 20.710249 -0.000001 0.000000 0.000000 0.195504 0.000000
    11 18.105982 0.000001 0.000000 -1.033567 0.034965 1.514705
    12 -6.938270 1.999409 -1.014579 1.256824 0.765925 1.711686
    13 20.710224 0.000000 0.000000 0.000000 0.000000 0.195504
    14 18.106007 0.000000 -0.000001 -0.019622 -1.504708 -2.583760
    15 0.000000 -6.555973 0.000000 0.249081 0.081920 -0.402295
    16 0.000000 -3.252140 0.000004 -1.161487 -0.251399 1.223653
    17 1.548545 -4.925743 -4.285366 3.046610 -0.793981 -1.309170
    18 1.190170 -10.472042 -0.306138 1.353248 -0.238019 -0.934260
    19 0.000008 0.000000 15.020973 -0.201994 -0.066154 0.008339
    20 0.000004 -0.000001 8.039619 0.000000 0.000000 0.318947
    21 2.899849 -0.471046 -4.331210 -0.545568 -0.467306 -0.514279
    22 -0.000025 2.543312 0.000026 0.201141 0.092189 -0.424065
    23 0.000059 2.315285 -0.000040 0.091583 0.042286 -0.431435
    24 1.551407 3.956631 -3.900798 2.065697 -1.367624 -3.120667
    25 0.000000 2.741436 -0.000004 -0.886334 0.000000 0.000000
    26 0.000010 2.668510 0.000050 -0.820624 0.000000 0.000000
    27 1.401100 3.639805 -1.202109 1.400898 -1.355859 -2.446853
    28 0.000003 2.810951 0.000004 -0.886334 0.000000 0.000000
    29 -0.000005 2.736202 -0.000031 -0.820624 0.000000 0.000000
    30 1.335663 3.182098 1.418086 0.663165 -1.234925 -1.854587
    31 -0.000003 2.663269 0.000046 -0.886334 0.000000 0.000000
    32 0.000001 2.592527 -0.000031 -0.820624 0.000000 0.000000
    33 1.344765 1.881123 3.809589 0.713989 -1.133768 -1.737707
    34 0.000011 2.315664 -0.000084 -0.782441 0.000000 0.000000
    35 -0.000006 2.254017 0.000076 -0.836893 0.000000 0.000000
    36 0.011267 -6.809892 1.974034 -0.607868 0.000000 0.000000
    37 -0.011248 6.809885 -1.974043 -0.607868 0.000000 0.000000
  time 13
    0 -1.639648 9.312500 36.031250 -1.370809 0.018460 -0.911549
    1 0.604004 -5.316406 -0.209839 -0.273277 -0.310610 0.058883
    2 0.000000 -7.488277 -0.000001 0.002243 0.139069 -0.069729
    3 0.000000 -5.597980 0.000000 0.140667 0.154094 -0.052342
    4 0.000000 -6.565113 -0.000001 0.553579 0.260724 0.126387
    5 -1.549380 -5.102886 -4.074768 2.339008 -0.612512 -1.129064
    6 -0.000053 11.987244 0.000028 -0.429522 -0.366764 2.256421
    7 20.109314 0.000000 -0.000002 -1.411235 -1.359434 -0.154217
    8 19.941738 0.000001 -0.000004 2.517737 -1.510064 1.860620
    9 6.938272 1.999413 -1.014580 2.054776 0.497604 0.629683
    10 20.710249 -0.000001 0.000000 0.000000 0.195504 0.000000
    11 18.105982 0.000001 0.000000 -1.033567 0.034965 1.514705
    12 -6.938270 1.999409 -1.014579 1.308659 0.723372 1.736942
    13 20.710224 0.000000 0.000000 0.000000 0.000000 0.195504
    14 18.106007 0.000000 -0.000001 -0.019622 -1.504708 -2.583760
    15 0.000000 -6.555973 0.000000 0.217389 0.072161 -0.399935
    16 0.000000 -3.252140 0.000004 -1.223104 -0.281871 1.240758
    17 1.548545 -4.925743 -4.285366 3.047588 -0.796192 -1.312801
    18 1.190170 -10.472042 -0.306138 1.353248 -0.238019 -0.934260
    19 0.000008 0.000000 15.020973 -0.201994 -0.066154 0.008339
    20 0.000004 -0.000001 8.039619 0.000000 0.000000 0.318947
    21 2.899849 -0.471046 -4.331210 -0.545568 -0.467306 -0.514279
    22 -0.000025 2.543312 0.000026 0.201141 0.092189 -0.424065
    23 0.000059 2.315285 -0.000040 0.091583 0.042286 -0.431435
    24 1.551407 3.956631 -3.900798 2.065697 -1.367624 -3.120667
    25 0.000000 2.741436 -0.000004 -0.886334 0.000000 0.000000
    26 0.000010 2.668510 0.000050 -0.820624 0.000000 0.000000
    27 1.401100 3.639805 -1.202109 1.400898 -1.355859 -2.446853
    28 0.000003 2.810951 0.000004 -0.886334 0.000000 0.000000
    29 -0.000005 2.736202 -0.000031 -0.820624 0.000000 0.000000
    30 1.335663 3.182098 1.418086 0.663165 -1.234925 -1.854587
    31 -0.000003 2.663269 0.000046 -0.886334 0.000000 0.000000
    32 0.000001 2.592527 -0.000031 -0.820624 0.000000 0.000000
    33 1.344765 1.881123 3.809589 0.713989 -1.133768 -1.737707
    34 0.000011 2.315664 -0.000084 -0.782441 0.000000 0.000000
    35 -0.000006 2.254017 0.000076 -0.836893 0.000000 0.000000
    36 0.011267 -6.809892 1.974034 -0.607868 0.000000 0.000000
    37 -0.011248 6.809885 -1.974043 -0.607868 0.000000 0.000000
  time 14
    0 -1.845703 9.562500 36.375000 -1.388896 0.011997 -0.881282
    1 0.493164 -5.324219 -0.266846 -0.270644 -0.280404 0.031211
    2 0.000000 -7.488277 -0.000001 -0.002809 0.150226 -0.073922
    3 0.000000 -5.597980 0.000000 0.133123 0.164225 -0.054958
    4 0.000000 -6.565113 -0.000001 0.558242 0.277509 0.146639
    5 -1.549380 -5.102886 -4.074768 2.296111 -0.579801 -1.113602
    6 -0.000053 11.987244 0.000028 -0.397033 -0.329451 2.112406
    7 20.109314 0.000000 -0.000002 -1.263333 -1.432309 -0.314973
    8 19.941738 0.000001 -0.000004 -3.094612 -1.543140 1.201263
    9 6.938272 1.999413 -1.014580 2.108553 0.508556 0.666692
    10 20.710249 -0.000001 0.000000 0.000000 0.195504 0.000000
    11 18.105982 0.000001 0.000000 -1.033567 0.034965 1.514705
    12 -6.938270 1.999409 -1.014579 1.346741 0.685008 1.751361
    13 20.710224 0.000000 0.000000 0.000000 0.000000 0.195504
    14 18.106007 0.000000 -0.000001 -0.019622 -1.504708 -2.583760
    15 0.000000 -6.555973 0.000000 0.191119 0.064198 -0.397038
    16 0.000000 -3.252140 0.000004 -1.274147 -0.307517 1.253077
    17 1.548545 -4.925743 -4.285366 3.038651 -0.775854 -1.280221
    18 1.190170 -10.472042 -0.306138 1.353248 -0.238019 -0.934260
    19 0.000008 0.000000 15.020973 -0.201994 -0.066154 0.008339
    20 0.000004 -0.000001 8.039619 0.000000 0.000000 0.318947
    21 2.899849 -0.471046 -4.331210 -0.545568 -0.467306 -0.514279
    22 -0.000025 2.543312 0.000026 0.201141 0.092189 -0.424065
    23 0.000059 2.315285 -0.000040 0.091583 0.042286 -0.431435
    24 1.551407 3.956631 -3.900798 2.065697 -1.367624 -3.120667
    25 0.000000 2.741436 -0.000004 -0.886334 0.000000 0.000000
    26 0.000010 2.668510 0.000050 -0.820624 0.000000 0.000000
    27 1.401100 3.639805 -1.202109 1.400898 -1.355859 -2.446853
    28 0.000003 2.810951 0.000004 -0.886334 0.000000 0.000000
    29 -0.000005 2.736202 -0.000031 -0.820624 0.000000 0.000000
    30 1.335663 3.182098 1.418086 0.663165 -1.234925 -1.854587
    31 -0.000003 2.663269 0.000046 -0.886334 0.000000 0.000000
    32 0.000001 2.592527 -0.000031 -0.820624 0.000000 0.000000
    33 1.344765 1.881123 3.809589 0.713989 -1.133768 -1.737707
    34 0.000011 2.315664 -0.000084 -0.782441 0.000000 0.000000
    35 -0.000006 2.254017 0.000076 -0.836893 0.000000 0.000000
    36 0.011267 -6.809892 1.974034 -0.607868 0.000000 0.000000
    37 -0.011248 6.809885 -1.974043 -0.607868 0.000000 0.000000
  time 15
    0 -2.078125 9.859375 36.750000 -1.405317 0.007372 -0.857296
    1 0.400391 -5.328125 -0.309326 -0.270279 -0.256232 0.008946
    2 0.000000 -7.488277 -0.000001 -0.006657 0.159273 -0.076474
    3 0.000000 -5.597980 0.000000 0.126156 0.172055 -0.056149
    4 0.000000 -6.565113 -0.000001 0.562117 0.290199 0.164142
    5 -1.549380 -5.102886 -4.074768 2.264562 -0.541864 -1.097179
    6 -0.000053 11.987244 0.000028 -0.410785 -0.298241 1.975767
    7 20.109314 0.000000 -0.000002 -0.787750 -1.493508 -0.804507
    8 19.941738 0.000001 -0.000004 -1.693396 -1.514295 -0.183454
    9 6.938272 1.999413 -1.014580 2.157405 0.509268 0.703622
    10 20.710249 -0.000001 0.000000 0.000000 0.195504 0.000000
    11 18.105982 0.000001 0.000000 -1.033567 0.034965 1.514705
    12 -6.938270 1.999409 -1.014579 1.372228 0.648843 1.755007
    13 20.710224 0.000000 0.000000 0.000000 0.000000 0.195504
    14 18.106007 0.000000 -0.000001 -0.019622 -1.504708 -2.583760
    15 0.000000 -6.555973 0.000000 0.169229 0.057681 -0.394354
    16 0.000000 -3.252140 0.000004 -1.313564 -0.332317 1.261195
    17 1.548545 -4.925743 -4.285366 3.019014 -0.716737 -1.196686
    18 1.190170 -10.472042 -0.306138 1.353248 -0.238019 -0.934260
    19 0.000008 0.000000 15.020973 -0.201994 -0.066154 0.008339
    20 0.000004 -0.000001 8.039619 0.000000 0.000000 0.318947
    21 2.899849 -0.471046 -4.331210 -0.545568 -0.467306 -0.514279
    22 -0.000025 2.543312 0.000026 0.201141 0.092189 -0.424065
    23 0.000059 2.315285 -0.000040 0.091583 0.042286 -0.431435
    24 1.551407 3.956631 -3.900798 2.065697 -1.367624 -3.120667
    25 0.000000 2.741436 -0.000004 -0.886334 0.000000 0.000000
    26 0.000010 2.668510 0.000050 -0.820624 0.000000 0.000000
    27 1.401100 3.639805 -1.202109 1.400898 -1.355859 -2.446853
    28 0.000003 2.810951 0.000004 -0.886334 0.000000 0.000000
    29 -0.000005 2.736202 -0.000031 -0.820624 0.000000 0.000000
    30 1.335663 3.182098 1.418086 0.663165 -1.234925 -1.854587
    31 -0.000003 2.663269 0.000046 -0.886334 0.000000 0.000000
    32 0.000001 2.592527 -0.000031 -0.820624 0.000000 0.000000
    33 1.344765 1.881123 3.809589 0.713989 -1.133768 -1.737707
    34 0.000011 2.315664 -0.000084 -0.782441 0.000000 0.000000
    35 -0.000006 2.254017 0.000076 -0.836893 0.000000 0.000000
    36 0.011267 -6.809892 1.974034 -0.607868 0.000000 0.000000
    37 -0.011248 6.809885 -1.974043 -0.607868 0.000000 0.000000
  time 16
    0 -2.289063 10.117188 37.187500 -1.420140 0.003670 -0.827178
    1 0.297607 -5.332031 -0.347900 -0.271037 -0.228317 -0.012879
    2 0.000000 -7.488277 -0.000001 -0.009793 0.165523 -0.078859
    3 0.000000 -5.597980 0.000000 0.120994 0.177317 -0.057630
    4 0.000000 -6.565113 -0.000001 0.566400 0.297424 0.181706
    5 -1.549380 -5.102886 -4.074768 2.237365 -0.506564 -1.083561
    6 -0.000053 11.987244 0.000028 -0.464929 -0.268242 1.865502
    7 20.109314 0.000000 -0.000002 0.258613 -1.499478 -1.865765
    8 19.941738 0.000001 -0.000004 -1.451549 -1.438099 -0.403749
    9 6.938272 1.999413 -1.014580 2.206989 0.513134 0.741273
    10 20.710249 -0.000001 0.000000 0.000000 0.195504 0.000000
    11 18.105982 0.000001 0.000000 -1.033567 0.034965 1.514705
    12 -6.938270 1.999409 -1.014579 1.402545 0.610067 1.760840
    13 20.710224 0.000000 0.000000 0.000000 0.000000 0.195504
    14 18.106007 0.000000 -0.000001 -0.019622 -1.504708 -2.583760
    15 0.000000 -6.555973 0.000000 0.147529 0.050853 -0.387861
    16 0.000000 -3.252140 0.000004 -1.347936 -0.350343 1.255426
    17 1.548545 -4.925743 -4.285366 3.000150 -0.623925 -1.089551
    18 1.190170 -10.472042 -0.306138 1.353248 -0.238019 -0.934260
    19 0.000008 0.000000 15.020973 -0.201994 -0.066154 0.008339
    20 0.000004 -0.000001 8.039619 0.000000 0.000000 0.318947
    21 2.899849 -0.471046 -4.331210 -0.545568 -0.467306 -0.514279
    22 -0.000025 2.543312 0.000026 0.201141 0.092189 -0.424065
    23 0.000059 2.315285 -0.000040 0.091583 0.042286 -0.431435
    24 1.551407 3.956631 -3.900798 2.065697 -1.367624 -3.120667
    25 0.000000 2.741436 -0.000004 -0.886334 0.000000 0.000000
    26 0.000010 2.668510 0.000050 -0.820624 0.000000 0.000000
    27 1.401100 3.639805 -1.202109 1.400898 -1.355859 -2.446853
    28 0.000003 2.810951 0.000004 -0.886334 0.000000 0.000000
    29 -0.000005 2.736202 -0.000031 -0.820624 0.000000 0.000000
    30 1.335663 3.182098 1.418086 0.663165 -1.234925 -1.854587
    31 -0.000003 2.663269 0.000046 -0.886334 0.000000 0.000000
    32 0.000001 2.592527 -0.000031 -0.820624 0.000000 0.000000
    33 1.344765 1.881123 3.809589 0.713989 -1.133768 -1.737707
    34 0.000011 2.315664 -0.000084 -0.782441 0.000000 0.000000
    35 -0.000006 2.254017 0.000076 -0.836893 0.000000 0.000000
    36 0.011267 -6.809892 1.974034 -0.607868 0.000000 0.000000
    37 -0.011248 6.809885 -1.974043 -0.607868 0.000000 0.000000
  time 17
    0 -2.376953 10.234375 37.343750 -1.431413 0.002962 -0.797671
    1 0.201904 -5.335938 -0.376953 -0.272847 -0.201834 -0.031649
    2 0.000000 -7.488277 -0.000001 -0.012014 0.169416 -0.080796
    3 0.000000 -5.597980 0.000000 0.117410 0.180479 -0.059117
    4 0.000000 -6.565113 -0.000001 0.570213 0.300678 0.197013
    5 -1.549380 -5.102886 -4.074768 2.225623 -0.491034 -1.077683
    6 -0.000053 11.987244 0.000028 -0.494592 -0.253123 1.808185
    7 20.109314 0.000000 -0.000002 0.586196 -1.479518 -2.200302
    8 19.941738 0.000001 -0.000004 -1.375726 -1.334770 -0.453373
    9 6.938272 1.999413 -1.014580 2.245539 0.525079 0.763540
    10 20.710249 -0.000001 0.000000 0.000000 0.195504 0.000000
    11 18.105982 0.000001 0.000000 -1.033567 0.034965 1.514705
    12 -6.938270 1.999409 -1.014579 1.434313 0.580228 1.770533
    13 20.710224 0.000000 0.000000 0.000000 0.000000 0.195504
    14 18.106007 0.000000 -0.000001 -0.019622 -1.504708 -2.583760
    15 0.000000 -6.555973 0.000000 0.128688 0.044842 -0.380090
    16 0.000000 -3.252140 0.000004 -1.375906 -0.363186 1.241535
    17 1.548545 -4.925743 -4.285366 2.991663 -0.520157 -0.995137
    18 1.190170 -10.472042 -0.306138 1.353248 -0.238019 -0.934260
    19 0.000008 0.000000 15.020973 -0.201994 -0.066154 0.008339
    20 0.000004 -0.000001 8.039619 0.000000 0.000000 0.318947
    21 2.899849 -0.471046 -4.331210 -0.545568 -0.467306 -0.514279
    22 -0.000025 2.543312 0.000026 0.201141 0.092189 -0.424065
    23 0.000059 2.315285 -0.000040 0.091583 0.042286 -0.431435
    24 1.551407 3.956631 -3.900798 2.065697 -1.367624 -3.120667
    25 0.000000 2.741436 -0.000004 -0.886334 0.000000 0.000000
    26 0.000010 2.668510 0.000050 -0.820624 0.000000 0.000000
    27 1.401100 3.639805 -1.202109 1.400898 -1.355859 -2.446853
    28 0.000003 2.810951 0.000004 -0.886334 0.000000 0.000000
    29 -0.000005 2.736202 -0.000031 -0.820624 0.000000 0.000000
    30 1.335663 3.182098 1.418086 0.663165 -1.234925 -1.854587
    31 -0.000003 2.663269 0.000046 -0.886334 0.000000 0.000000
    32 0.000001 2.592527 -0.000031 -0.820624 0.000000 0.000000
    33 1.344765 1.881123 3.809589 0.713989 -1.133768 -1.737707
    34 0.000011 2.315664 -0.000084 -0.782441 0.000000 0.000000
    35 -0.000006 2.254017 0.000076 -0.836893 0.000000 0.000000
    36 0.011267 -6.809892 1.974034 -0.607868 0.000000 0.000000
    37 -0.011248 6.809885 -1.974043 -0.607868 0.000000 0.000000
  time 18
    0 -1.788086 9.382813 36.468750 -1.436813 0.006644 -0.775440
    1 0.131348 -5.335938 -0.394287 -0.274703 -0.182312 -0.044780
    2 0.000000 -7.488277 -0.000001 -0.013315 0.171383 -0.082153
    3 0.000000 -5.597980 0.000000 0.115372 0.182009 -0.060196
    4 0.000000 -6.565113 -0.000001 0.572903 0.301507 0.207669
    5 -1.549380 -5.102886 -4.074768 2.200576 -0.468054 -1.024143
    6 -0.000053 11.987244 0.000028 -0.492825 -0.245931 1.791837
    7 20.109314 0.000000 -0.000002 0.235310 -1.439991 -1.827943
    8 19.941738 0.000001 -0.000004 -1.208000 -0.731153 -0.537657
    9 6.938272 1.999413 -1.014580 2.244734 0.578629 0.733436
    10 20.710249 -0.000001 0.000000 0.000000 0.195504 0.000000
    11 18.105982 0.000001 0.000000 -1.033567 0.034965 1.514705
    12 -6.938270 1.999409 -1.014579 1.486347 0.576628 1.827979
    13 20.710224 0.000000 0.000000 0.000000 0.000000 0.195504
    14 18.106007 0.000000 -0.000001 -0.019622 -1.504708 -2.583760
    15 0.000000 -6.555973 0.000000 0.115449 0.040758 -0.373601
    16 0.000000 -3.252140 0.000004 -1.396375 -0.372212 1.225675
    17 1.548545 -4.925743 -4.285366 2.990252 -0.435428 -0.932105
    18 1.190170 -10.472042 -0.306138 1.353248 -0.238019 -0.934260
    19 0.000008 0.000000 15.020973 -0.201994 -0.066154 0.008339
    20 0.000004 -0.000001 8.039619 0.000000 0.000000 0.318947
    21 2.899849 -0.471046 -4.331210 -0.545568 -0.467306 -0.514279
    22 -0.000025 2.543312 0.000026 0.201141 0.092189 -0.424065
    23 0.000059 2.315285 -0.000040 0.091583 0.042286 -0.431435
    24 1.551407 3.956631 -3.900798 2.065697 -1.367624 -3.120667
    25 0.000000 2.741436 -0.000004 -0.886334 0.000000 0.000000
    26 0.000010 2.668510 0.000050 -0.820624 0.000000 0.000000
    27 1.401100 3.639805 -1.202109 1.400898 -1.355859 -2.446853
    28 0.000003 2.810951 0.000004 -0.886334 0.000000 0.000000
    29 -0.000005 2.736202 -0.000031 -0.820624 0.000000 0.000000
    30 1.335663 3.182098 1.418086 0.663165 -1.234925 -1.854587
    31 -0.000003 2.663269 0.000046 -0.886334 0.000000 0.000000
    32 0.000001 2.592527 -0.000031 -0.820624 0.000000 0.000000
    33 1.344765 1.881123 3.809589 0.713989 -1.133768 -1.737707
    34 0.000011 2.315664 -0.000084 -0.782441 0.000000 0.000000
    35 -0.000006 2.254017 0.000076 -0.836893 0.000000 0.000000
    36 0.011267 -6.809892 1.974034 -0.607868 0.000000 0.000000
    37 -0.011248 6.809885 -1.974043 -0.607868 0.000000 0.000000
  time 19
    0 -0.453857 7.472656 35.437500 -1.415952 0.049027 -0.759868
    1 0.103760 -5.335938 -0.400391 -0.275540 -0.174622 -0.049718
    2 0.000000 -7.488277 -0.000001 -0.013754 0.171977 -0.082688
    3 0.000000 -5.597980 0.000000 0.114699 0.182447 -0.060724
    4 0.000000 -6.565113 -0.000001 0.573893 0.301486 0.211708
    5 -1.549380 -5.102886 -4.074768 2.215229 -0.451583 -0.986817
    6 -0.000053 11.987244 0.000028 -0.494551 -0.240592 1.790679
    7 20.109314 0.000000 -0.000002 -0.067907 -1.320635 -1.468186
    8 19.941738 0.000001 -0.000004 -1.073382 -0.271483 -0.770790
    9 6.938272 1.999413 -1.014580 2.201263 0.657816 0.653907
    10 20.710249 -0.000001 0.000000 0.000000 0.195504 0.000000
    11 18.105982 0.000001 0.000000 -1.033567 0.034965 1.514705
    12 -6.938270 1.999409 -1.014579 1.560719 0.571266 1.897367
    13 20.710224 0.000000 0.000000 0.000000 0.000000 0.195504
    14 18.106007 0.000000 -0.000001 -0.019622 -1.504708 -2.583760
    15 0.000000 -6.555973 0.000000 0.110411 0.039211 -0.370992
    16 0.000000 -3.252140 0.000004 -1.425935 -0.391426 1.187854
    17 1.548545 -4.925743 -4.285366 2.990430 -0.400275 -0.908920
    18 1.190170 -10.472042 -0.306138 1.353248 -0.238019 -0.934260
    19 0.000008 0.000000 15.020973 -0.201994 -0.066154 0.008339
    20 0.000004 -0.000001 8.039619 0.000000 0.000000 0.318947
    21 2.899849 -0.471046 -4.331210 -0.545568 -0.467306 -0.514279
    22 -0.000025 2.543312 0.000026 0.201141 0.092189 -0.424065
    23 0.000059 2.315285 -0.000040 0.091583 0.042286 -0.431435
    24 1.551407 3.956631 -3.900798 2.065697 -1.367624 -3.120667
    25 0.000000 2.741436 -0.000004 -0.886334 0.000000 0.000000
    26 0.000010 2.668510 0.000050 -0.820624 0.000000 0.000000
    27 1.401100 3.639805 -1.202109 1.400898 -1.355859 -2.446853
    28 0.000003 2.810951 0.000004 -0.886334 0.000000 0.000000
    29 -0.000005 2.736202 -0.000031 -0.820624 0.000000 0.000000
    30 1.335663 3.182098 1.418086 0.663165 -1.234925 -1.854587
    31 -0.000003 2.663269 0.000046 -0.886334 0.000000 0.000000
    32 0.000001 2.592527 -0.000031 -0.820624 0.000000 0.000000
    33 1.344765 1.881123 3.809589 0.713989 -1.133768 -1.737707
    34 0.000011 2.315664 -0.000084 -0.782441 0.000000 0.000000
    35 -0.000006 2.254017 0.000076 -0.836893 0.000000 0.000000
    36 0.011267 -6.809892 1.974034 -0.607868 0.000000 0.000000
    37 -0.011248 6.809885 -1.974043 -0.607868 0.000000 0.000000
  time 20
    0 0.970215 5.441406 34.593750 -1.364283 0.079784 -0.666938
    1 0.237793 -5.332031 -0.425781 -0.277647 -0.140517 0.014970
    2 0.000000 -7.488277 -0.000001 0.012224 0.100696 -0.054638
    3 0.000000 -5.597980 0.000000 0.139029 0.107907 -0.041747
    4 0.000000 -6.565113 -0.000001 0.573993 0.144360 0.214992
    5 -1.549380 -5.102886 -4.074768 2.331154 -0.482002 -1.058312
    6 -0.000053 11.987244 0.000028 -0.497679 -0.252773 1.811550
    7 20.109314 0.000000 -0.000002 -0.178905 -1.168563 -1.278998
    8 19.941738 0.000001 -0.000004 -1.005744 -0.378361 -0.808663
    9 6.938272 1.999413 -1.014580 2.117361 0.783938 0.588392
    10 20.710249 -0.000001 0.000000 0.000000 0.195504 0.000000
    11 18.105982 0.000001 0.000000 -1.033567 0.034965 1.514705
    12 -6.938270 1.999409 -1.014579 1.657292 0.521995 1.974925
    13 20.710224 0.000000 0.000000 0.000000 0.000000 0.195504
    14 18.106007 0.000000 -0.000001 -0.019622 -1.504708 -2.583760
    15 0.000000 -6.555973 0.000000 0.108830 0.037285 -0.357923
    16 0.000000 -3.252140 0.000004 -1.238105 -0.298570 0.774376
    17 1.548545 -4.925743 -4.285366 2.990648 -0.405451 -0.912307
    18 1.190170 -10.472042 -0.306138 1.353248 -0.238019 -0.934260
    19 0.000008 0.000000 15.020973 -0.201994 -0.066154 0.008339
    20 0.000004 -0.000001 8.039619 0.000000 0.000000 0.318947
    21 2.899849 -0.471046 -4.331210 -0.473160 -0.540597 -0.663824
    22 -0.000025 2.543312 0.000026 0.180801 0.127787 -0.608839
    23 0.000059 2.315285 -0.000040 0.082164 0.058560 -0.618012
    24 1.551407 3.956631 -3.900798 2.103356 -1.367723 -3.120619
    25 0.000000 2.741436 -0.000004 -0.848665 0.000000 0.000000
    26 0.000010 2.668510 0.000050 -0.782970 0.000000 0.000000
    27 1.401100 3.639805 -1.202109 1.438655 -1.355840 -2.446982
    28 0.000003 2.810951 0.000004 -0.848665 0.000000 0.000000
    29 -0.000005 2.736202 -0.000031 -0.782970 0.000000 0.000000
    30 1.335663 3.182098 1.418086 0.710959 -1.226958 -1.872501
    31 -0.000003 2.663269 0.000046 -0.848665 0.000000 0.000000
    32 0.000001 2.592527 -0.000031 -0.782970 0.000000 0.000000
    33 1.344765 1.881123 3.809589 0.623776 -1.170455 -1.615835
    34 0.000011 2.315664 -0.000084 -0.640661 0.000000 0.000000
    35 -0.000006 2.254017 0.000076 -0.815634 0.000000 0.000000
    36 0.011267 -6.809892 1.974034 -0.607868 0.000000 0.000000
    37 -0.011248 6.809885 -1.974043 -0.607868 0.000000 0.000000
  time 21
    0 1.819336 4.253906 34.250000 -1.317761 0.034709 -0.491279
    1 0.485840 -5.304688 -0.538086 -0.255205 -0.080406 0.138752
    2 0.000000 -7.488277 -0.000001 0.064823 -0.039181 0.001050
    3 0.000000 -5.597980 0.000000 0.189969 -0.038513 -0.003792
    4 0.000000 -6.565113 -0.000001 0.608580 -0.167891 0.239052
    5 -1.549380 -5.102886 -4.074768 2.490556 -0.523410 -1.167118
    6 -0.000053 11.987244 0.000028 -0.500975 -0.297346 1.861043
    7 20.109314 0.000000 -0.000002 -0.220896 -1.040427 -1.160808
    8 19.941738 0.000001 -0.000004 -0.799558 -0.567004 -0.949514
    9 6.938272 1.999413 -1.014580 2.075325 0.927949 0.649356
    10 20.710249 -0.000001 0.000000 0.000000 0.195504 0.000000
    11 18.105982 0.000001 0.000000 -1.033567 0.034965 1.514705
    12 -6.938270 1.999409 -1.014579 1.738484 0.408359 2.053169
    13 20.710224 0.000000 0.000000 0.000000 0.000000 0.195504
    14 18.106007 0.000000 -0.000001 -0.019622 -1.504708 -2.583760
    15 0.000000 -6.555973 0.000000 0.104840 0.032539 -0.323453
    16 0.000000 -3.252140 0.000004 -1.102943 -0.029471 0.082637
    17 1.548545 -4.925743 -4.285366 2.990236 -0.420075 -0.921781
    18 1.190170 -10.472042 -0.306138 1.353248 -0.238019 -0.934260
    19 0.000008 0.000000 15.020973 -0.201994 -0.066154 0.008339
    20 0.000004 -0.000001 8.039619 0.000000 0.000000 0.318947
    21 2.899849 -0.471046 -4.331210 -0.385752 -0.602865 -0.825135
    22 -0.000025 2.543312 0.000026 0.154306 0.158838 -0.793924
    23 0.000059 2.315285 -0.000040 0.069919 0.072722 -0.803680
    24 1.551407 3.956631 -3.900798 2.140928 -1.367633 -3.120839
    25 0.000000 2.741436 -0.000004 -0.811248 0.000000 0.000000
    26 0.000010 2.668510 0.000050 -0.745540 0.000000 0.000000
    27 1.401100 3.639805 -1.202109 1.475720 -1.355940 -2.446555
    28 0.000003 2.810951 0.000004 -0.811248 0.000000 0.000000
    29 -0.000005 2.736202 -0.000031 -0.745540 0.000000 0.000000
    30 1.335663 3.182098 1.418086 0.756495 -1.218480 -1.888380
    31 -0.000003 2.663269 0.000046 -0.811248 0.000000 0.000000
    32 0.000001 2.592527 -0.000031 -0.745540 0.000000 0.000000
    33 1.344765 1.881123 3.809589 0.516291 -1.203073 -1.477053
    34 0.000011 2.315664 -0.000084 -0.499689 0.000000 0.000000
    35 -0.000006 2.254017 0.000076 -0.794406 0.000000 0.000000
    36 0.011267 -6.809892 1.974034 -0.607868 0.000000 0.000000
    37 -0.011248 6.809885 -1.974043 -0.607868 0.000000 0.000000
  time 22
    0 2.152344 3.828125 34.343750 -1.291054 -0.029607 -0.301879
    1 0.602051 -5.281250 -0.639648 -0.223630 -0.052742 0.217919
    2 0.000000 -7.488277 -0.000001 0.105482 -0.140778 0.042804
    3 0.000000 -5.597980 0.000000 0.230910 -0.145019 0.024923
    4 0.000000 -6.565113 -0.000001 0.657656 -0.392084 0.263139
    5 -1.549380 -5.102886 -4.074768 2.621887 -0.555087 -1.242260
    6 -0.000053 11.987244 0.000028 -0.506092 -0.390162 1.947664
    7 20.109314 0.000000 -0.000002 -0.250167 -0.984691 -1.090396
    8 19.941738 0.000001 -0.000004 -0.510869 -0.668196 -1.162275
    9 6.938272 1.999413 -1.014580 2.180690 1.069995 0.826477
    10 20.710249 -0.000001 0.000000 0.000000 0.195504 0.000000
    11 18.105982 0.000001 0.000000 -1.033567 0.034965 1.514705
    12 -6.938270 1.999409 -1.014579 1.829544 0.275117 2.094718
    13 20.710224 0.000000 0.000000 0.000000 0.000000 0.195504
    14 18.106007 0.000000 -0.000001 -0.019622 -1.504708 -2.583760
    15 0.000000 -6.555973 0.000000 0.099334 0.026244 -0.273110
    16 0.000000 -3.252140 0.000004 -1.135506 0.062365 -0.457898
    17 1.548545 -4.925743 -4.285366 2.990039 -0.442570 -0.936935
    18 1.190170 -10.472042 -0.306138 1.353248 -0.238019 -0.934260
    19 0.000008 0.000000 15.020973 -0.201994 -0.066154 0.008339
    20 0.000004 -0.000001 8.039619 0.000000 0.000000 0.318947
    21 2.899849 -0.471046 -4.331210 -0.385752 -0.602865 -0.825135
    22 -0.000025 2.543312 0.000026 0.154306 0.158838 -0.793924
    23 0.000059 2.315285 -0.000040 0.069919 0.072722 -0.803680
    24 1.551407 3.956631 -3.900798 2.140928 -1.367633 -3.120839
    25 0.000000 2.741436 -0.000004 -0.811248 0.000000 0.000000
    26 0.000010 2.668510 0.000050 -0.745540 0.000000 0.000000
    27 1.401100 3.639805 -1.202109 1.475720 -1.355940 -2.446555
    28 0.000003 2.810951 0.000004 -0.811248 0.000000 0.000000
    29 -0.000005 2.736202 -0.000031 -0.745540 0.000000 0.000000
    30 1.335663 3.182098 1.418086 0.756495 -1.218480 -1.888380
    31 -0.000003 2.663269 0.000046 -0.811248 0.000000 0.000000
    32 0.000001 2.592527 -0.000031 -0.745540 0.000000 0.000000
    33 1.344765 1.881123 3.809589 0.516291 -1.203073 -1.477053
    34 0.000011 2.315664 -0.000084 -0.499689 0.000000 0.000000
    35 -0.000006 2.254017 0.000076 -0.794406 0.000000 0.000000
    36 0.011267 -6.809892 1.974034 -0.607868 0.000000 0.000000
    37 -0.011248 6.809885 -1.974043 -0.607868 0.000000 0.000000
  time 23
    0 2.458984 3.445313 34.531250 -1.262184 -0.066395 -0.137766
    1 0.561035 -5.285156 -0.640625 -0.218024 -0.053220 0.231227
    2 0.000000 -7.488277 -0.000001 0.123446 -0.176452 0.060048
    3 0.000000 -5.597980 0.000000 0.247100 -0.179862 0.038252
    4 0.000000 -6.565113 -0.000001 0.676676 -0.461568 0.273857
    5 -1.549380 -5.102886 -4.074768 2.710267 -0.576476 -1.266564
    6 -0.000053 11.987244 0.000028 -0.552868 -0.626255 2.137203
    7 20.109314 0.000000 -0.000002 -0.297658 -1.034101 -1.063724
    8 19.941738 0.000001 -0.000004 0.008623 -0.897580 -1.892051
    9 6.938272 1.999413 -1.014580 2.433942 1.199152 1.080948
    10 20.710249 -0.000001 0.000000 0.000000 0.195504 0.000000
    11 18.105982 0.000001 0.000000 -1.033567 0.034965 1.514705
    12 -6.938270 1.999409 -1.014579 1.972932 0.154405 2.109638
    13 20.710224 0.000000 0.000000 0.000000 0.000000 0.195504
    14 18.106007 0.000000 -0.000001 -0.019622 -1.504708 -2.583760
    15 0.000000 -6.555973 0.000000 0.093332 0.019626 -0.212868
    16 0.000000 -3.252140 0.000004 -1.139945 0.041989 -0.698076
    17 1.548545 -4.925743 -4.285366 2.990145 -0.471709 -0.957614
    18 1.190170 -10.472042 -0.306138 1.353248 -0.238019 -0.934260
    19 0.000008 0.000000 15.020973 -0.201994 -0.066154 0.008339
    20 0.000004 -0.000001 8.039619 0.000000 0.000000 0.318947
    21 2.899849 -0.471046 -4.331210 -0.385752 -0.602865 -0.825135
    22 -0.000025 2.543312 0.000026 0.154306 0.158838 -0.793924
    23 0.000059 2.315285 -0.000040 0.069919 0.072722 -0.803680
    24 1.551407 3.956631 -3.900798 2.140928 -1.367633 -3.120839
    25 0.000000 2.741436 -0.000004 -0.811248 0.000000 0.000000
    26 0.000010 2.668510 0.000050 -0.745540 0.000000 0.000000
    27 1.401100 3.639805 -1.202109 1.475720 -1.355940 -2.446555
    28 0.000003 2.810951 0.000004 -0.811248 0.000000 0.000000
    29 -0.000005 2.736202 -0.000031 -0.745540 0.000000 0.000000
    30 1.335663 3.182098 1.418086 0.756495 -1.218480 -1.888380
    31 -0.000003 2.663269 0.000046 -0.811248 0.000000 0.000000
    32 0.000001 2.592527 -0.000031 -0.745540 0.000000 0.000000
    33 1.344765 1.881123 3.809589 0.516291 -1.203073 -1.477053
    34 0.000011 2.315664 -0.000084 -0.499689 0.000000 0.000000
    35 -0.000006 2.254017 0.000076 -0.794406 0.000000 0.000000
    36 0.011267 -6.809892 1.974034 -0.607868 0.000000 0.000000
    37 -0.011248 6.809885 -1.974043 -0.607868 0.000000 0.000000
  time 24
    0 2.736328 3.111328 34.750000 -1.245699 -0.098263 -0.027063
    1 0.498047 -5.292969 -0.624023 -0.218375 -0.050551 0.230940
    2 0.000000 -7.488277 -0.000001 0.135966 -0.194472 0.071196
    3 0.000000 -5.597980 0.000000 0.255689 -0.193621 0.048372
    4 0.000000 -6.565113 -0.000001 0.683443 -0.487387 0.282150
    5 -1.549380 -5.102886 -4.074768 2.794815 -0.595919 -1.277786
    6 -0.000053 11.987244 0.000028 -0.737166 -0.946217 2.485587
    7 20.109314 0.000000 -0.000002 -0.372872 -1.156439 -1.050001
    8 19.941738 0.000001 -0.000004 0.291121 -0.893705 -2.136780
    9 6.938272 1.999413 -1.014580 2.755480 1.253643 1.399707
    10 20.710249 -0.000001 0.000000 0.000000 0.195504 0.000000
    11 18.105982 0.000001 0.000000 -1.033567 0.034965 1.514705
    12 -6.938270 1.999409 -1.014579 2.064050 0.071055 2.109702
    13 20.710224 0.000000 0.000000 0.000000 0.000000 0.195504
    14 18.106007 0.000000 -0.000001 -0.019622 -1.504708 -2.583760
    15 0.000000 -6.555973 0.000000 0.088068 0.013588 -0.149594
    16 0.000000 -3.252140 0.000004 -1.262486 0.010718 -0.753035
    17 1.548545 -4.925743 -4.285366 2.990998 -0.505313 -0.983241
    18 1.190170 -10.472042 -0.306138 1.353248 -0.238019 -0.934260
    19 0.000008 0.000000 15.020973 -0.201994 -0.066154 0.008339
    20 0.000004 -0.000001 8.039619 0.000000 0.000000 0.318947
    21 2.899849 -0.471046 -4.331210 -0.385752 -0.602865 -0.825135
    22 -0.000025 2.543312 0.000026 0.154306 0.158838 -0.793924
    23 0.000059 2.315285 -0.000040 0.069919 0.072722 -0.803680
    24 1.551407 3.956631 -3.900798 2.140928 -1.367633 -3.120839
    25 0.000000 2.741436 -0.000004 -0.811248 0.000000 0.000000
    26 0.000010 2.668510 0.000050 -0.745540 0.000000 0.000000
    27 1.401100 3.639805 -1.202109 1.475720 -1.355940 -2.446555
    28 0.000003 2.810951 0.000004 -0.811248 0.000000 0.000000
    29 -0.000005 2.736202 -0.000031 -0.745540 0.000000 0.000000
    30 1.335663 3.182098 1.418086 0.756495 -1.218480 -1.888380
    31 -0.000003 2.663269 0.000046 -0.811248 0.000000 0.000000
    32 0.000001 2.592527 -0.000031 -0.745540 0.000000 0.000000
    33 1.344765 1.881123 3.809589 0.516291 -1.203073 -1.477053
    34 0.000011 2.315664 -0.000084 -0.499689 0.000000 0.000000
    35 -0.000006 2.254017 0.000076 -0.794406 0.000000 0.000000
    36 0.011267 -6.809892 1.974034 -0.607868 0.000000 0.000000
    37 -0.011248 6.809885 -1.974043 -0.607868 0.000000 0.000000
  time 25
    0 2.988281 2.818359 35.062500 -1.238265 -0.119862 0.026807
    1 0.416504 -5.304688 -0.593262 -0.221765 -0.046744 0.222600
    2 0.000000 -7.488277 -0.000001 0.143951 -0.200416 0.077785
    3 0.000000 -5.597980 0.000000 0.260699 -0.196146 0.055250
    4 0.000000 -6.565113 -0.000001 0.682340 -0.486499 0.287575
    5 -1.549380 -5.102886 -4.074768 2.869323 -0.614647 -1.279125
    6 -0.000053 11.987244 0.000028 -1.062168 -1.150367 2.942229
    7 20.109314 0.000000 -0.000002 -0.485335 -1.306112 -1.009045
    8 19.941738 0.000001 -0.000004 0.554382 -0.912815 -2.318234
    9 6.938272 1.999413 -1.014580 2.976105 1.253229 1.620615
    10 20.710249 -0.000001 0.000000 0.000000 0.195504 0.000000
    11 18.105982 0.000001 0.000000 -1.033567 0.034965 1.514705
    12 -6.938270 1.999409 -1.014579 2.071476 0.039859 2.103499
    13 20.710224 0.000000 0.000000 0.000000 0.000000 0.195504
    14 18.106007 0.000000 -0.000001 -0.019622 -1.504708 -2.583760
    15 0.000000 -6.555973 0.000000 0.085003 0.008424 -0.088742
    16 0.000000 -3.252140 0.000004 -1.459937 -0.028776 -0.653110
    17 1.548545 -4.925743 -4.285366 2.992802 -0.542363 -1.013617
    18 1.190170 -10.472042 -0.306138 1.353248 -0.238019 -0.934260
    19 0.000008 0.000000 15.020973 -0.201994 -0.066154 0.008339
    20 0.000004 -0.000001 8.039619 0.000000 0.000000 0.318947
    21 2.899849 -0.471046 -4.331210 -0.385752 -0.602865 -0.825135
    22 -0.000025 2.543312 0.000026 0.154306 0.158838 -0.793924
    23 0.000059 2.315285 -0.000040 0.069919 0.072722 -0.803680
    24 1.551407 3.956631 -3.900798 2.140928 -1.367633 -3.120839
    25 0.000000 2.741436 -0.000004 -0.811248 0.000000 0.000000
    26 0.000010 2.668510 0.000050 -0.745540 0.000000 0.000000
    27 1.401100 3.639805 -1.202109 1.475720 -1.355940 -2.446555
    28 0.000003 2.810951 0.000004 -0.811248 0.000000 0.000000
    29 -0.000005 2.736202 -0.000031 -0.745540 0.000000 0.000000
    30 1.335663 3.182098 1.418086 0.756495 -1.218480 -1.888380
    31 -0.000003 2.663269 0.000046 -0.811248 0.000000 0.000000
    32 0.000001 2.592527 -0.000031 -0.745540 0.000000 0.000000
    33 1.344765 1.881123 3.809589 0.516291 -1.203073 -1.477053
    34 0.000011 2.315664 -0.000084 -0.499689 0.000000 0.000000
    35 -0.000006 2.254017 0.000076 -0.794406 0.000000 0.000000
    36 0.011267 -6.809892 1.974034 -0.607868 0.000000 0.000000
    37 -0.011248 6.809885 -1.974043 -0.607868 0.000000 0.000000
  time 26
    0 3.216797 2.564453 35.375000 -1.233155 -0.139958 0.070574
    1 0.322021 -5.316406 -0.551758 -0.224736 -0.044091 0.211774
    2 0.000000 -7.488277 -0.000001 0.148183 -0.199661 0.081366
    3 0.000000 -5.597980 0.000000 0.266064 -0.197189 0.058568
    4 0.000000 -6.565113 -0.000001 0.678705 -0.475232 0.289330
    5 -1.549380 -5.102886 -4.074768 2.927641 -0.633005 -1.274049
    6 -0.000053 11.987244 0.000028 -1.197091 -1.217860 -3.113072
    7 20.109314 0.000000 -0.000002 -0.563558 -1.444090 -0.987323
    8 19.941738 0.000001 -0.000004 0.813935 -0.961140 -2.489087
    9 6.938272 1.999413 -1.014580 -3.123328 1.235141 1.802359
    10 20.710249 -0.000001 0.000000 0.000000 0.195504 0.000000
    11 18.105982 0.000001 0.000000 -1.033567 0.034965 1.514705
    12 -6.938270 1.999409 -1.014579 2.048165 0.027848 2.092839
    13 20.710224 0.000000 0.000000 0.000000 0.000000 0.195504
    14 18.106007 0.000000 -0.000001 -0.019622 -1.504708 -2.583760
    15 0.000000 -6.555973 0.000000 0.085600 0.003956 -0.036732
    16 0.000000 -3.252140 0.000004 -1.656537 -0.054203 -0.536970
    17 1.548545 -4.925743 -4.285366 2.995474 -0.581462 -1.048143
    18 1.190170 -10.472042 -0.306138 1.353248 -0.238019 -0.934260
    19 0.000008 0.000000 15.020973 -0.201994 -0.066154 0.008339
    20 0.000004 -0.000001 8.039619 0.000000 0.000000 0.318947
    21 2.899849 -0.471046 -4.331210 -0.385752 -0.602865 -0.825135
    22 -0.000025 2.543312 0.000026 0.154306 0.158838 -0.793924
    23 0.000059 2.315285 -0.000040 0.069919 0.072722 -0.803680
    24 1.551407 3.956631 -3.900798 2.140928 -1.367633 -3.120839
    25 0.000000 2.741436 -0.000004 -0.811248 0.000000 0.000000
    26 0.000010 2.668510 0.000050 -0.745540 0.000000 0.000000
    27 1.401100 3.639805 -1.202109 1.475720 -1.355940 -2.446555
    28 0.000003 2.810951 0.000004 -0.811248 0.000000 0.000000
    29 -0.000005 2.736202 -0.000031 -0.745540 0.000000 0.000000
    30 1.335663 3.182098 1.418086 0.756495 -1.218480 -1.888380
    31 -0.000003 2.663269 0.000046 -0.811248 0.000000 0.000000
    32 0.000001 2.592527 -0.000031 -0.745540 0.000000 0.000000
    33 1.344765 1.881123 3.809589 0.516291 -1.203073 -1.477053
    34 0.000011 2.315664 -0.000084 -0.499689 0.000000 0.000000
    35 -0.000006 2.254017 0.000076 -0.794406 0.000000 0.000000
    36 0.011267 -6.809892 1.974034 -0.607868 0.000000 0.000000
    37 -0.011248 6.809885 -1.974043 -0.607868 0.000000 0.000000
  time 27
    0 3.417969 2.349609 35.750000 -1.229770 -0.158119 0.104709
    1 0.220215 -5.324219 -0.504395 -0.223472 -0.044595 0.203884
    2 0.000000 -7.488277 -0.000001 0.149484 -0.197778 0.083220
    3 0.000000 -5.597980 0.000000 0.275968 -0.206553 0.057842
    4 0.000000 -6.565113 -0.000001 0.677862 -0.470338 0.287116
    5 -1.549380 -5.102886 -4.074768 2.963593 -0.651485 -1.266176
    6 -0.000053 11.987244 0.000028 -1.111117 -1.234581 -3.120964
    7 20.109314 0.000000 -0.000002 0.170709 -1.515743 -1.744280
    8 19.941738 0.000001 -0.000004 1.060207 -1.000162 -2.688428
    9 6.938272 1.999413 -1.014580 -3.001908 1.207427 1.925239
    10 20.710249 -0.000001 0.000000 0.000000 0.195504 0.000000
    11 18.105982 0.000001 0.000000 -1.033567 0.034965 1.514705
    12 -6.938270 1.999409 -1.014579 1.999120 0.030404 2.076765
    13 20.710224 0.000000 0.000000 0.000000 0.000000 0.195504
    14 18.106007 0.000000 -0.000001 -0.019622 -1.504708 -2.583760
    15 0.000000 -6.555973 0.000000 0.091340 0.000000 0.000000
    16 0.000000 -3.252140 0.000004 -1.754066 -0.052202 -0.495516
    17 1.548545 -4.925743 -4.285366 2.999990 -0.620301 -1.086081
    18 1.190170 -10.472042 -0.306138 1.353248 -0.238019 -0.934260
    19 0.000008 0.000000 15.020973 -0.201994 -0.066154 0.008339
    20 0.000004 -0.000001 8.039619 0.000000 0.000000 0.318947
    21 2.899849 -0.471046 -4.331210 -0.385752 -0.602865 -0.825135
    22 -0.000025 2.543312 0.000026 0.154306 0.158838 -0.793924
    23 0.000059 2.315285 -0.000040 0.069919 0.072722 -0.803680
    24 1.551407 3.956631 -3.900798 2.140928 -1.367633 -3.120839
    25 0.000000 2.741436 -0.000004 -0.811248 0.000000 0.000000
    26 0.000010 2.668510 0.000050 -0.745540 0.000000 0.000000
    27 1.401100 3.639805 -1.202109 1.475720 -1.355940 -2.446555
    28 0.000003 2.810951 0.000004 -0.811248 0.000000 0.000000
    29 -0.000005 2.736202 -0.000031 -0.745540 0.000000 0.000000
    30 1.335663 3.182098 1.418086 0.756495 -1.218480 -1.888380
    31 -0.000003 2.663269 0.000046 -0.811248 0.000000 0.000000
    32 0.000001 2.592527 -0.000031 -0.745540 0.000000 0.000000
    33 1.344765 1.881123 3.809589 0.516291 -1.203073 -1.477053
    34 0.000011 2.315664 -0.000084 -0.499689 0.000000 0.000000
    35 -0.000006 2.254017 0.000076 -0.794406 0.000000 0.000000
    36 0.011267 -6.809892 1.974034 -0.607868 0.000000 0.000000
    37 -0.011248 6.809885 -1.974043 -0.607868 0.000000 0.000000
  time 28
    0 3.595703 2.167969 36.125000 -1.227729 -0.174234 0.130137
    1 0.115112 -5.332031 -0.454102 -0.215048 -0.046324 0.201324
    2 0.000000 -7.488277 -0.000001 0.146356 -0.192455 0.082412
    3 0.000000 -5.597980 0.000000 0.291683 -0.225515 0.051434
    4 0.000000 -6.565113 -0.000001 0.679500 -0.469822 0.279075
    5 -1.549380 -5.102886 -4.074768 2.971536 -0.670743 -1.259198
    6 -0.000053 11.987244 0.000028 -0.962737 -1.217809 3.086439
    7 20.109314 0.000000 -0.000002 0.991889 -1.471491 -2.567481
    8 19.941738 0.000001 -0.000004 1.301526 -1.034974 -2.958378
    9 6.938272 1.999413 -1.014580 -2.931028 1.176471 2.000934
    10 20.710249 -0.000001 0.000000 0.000000 0.195504 0.000000
    11 18.105982 0.000001 0.000000 -1.033567 0.034965 1.514705
    12 -6.938270 1.999409 -1.014579 1.941396 0.039170 2.058697
    13 20.710224 0.000000 0.000000 0.000000 0.000000 0.195504
    14 18.106007 0.000000 -0.000001 -0.019622 -1.504708 -2.583760
    15 0.000000 -6.555973 0.000000 0.107627 -0.004075 0.016651
    16 0.000000 -3.252140 0.000004 -1.719195 -0.029576 -0.534513
    17 1.548545 -4.925743 -4.285366 3.005839 -0.658446 -1.126514
    18 1.190170 -10.472042 -0.306138 1.353248 -0.238019 -0.934260
    19 0.000008 0.000000 15.020973 -0.201994 -0.066154 0.008339
    20 0.000004 -0.000001 8.039619 0.000000 0.000000 0.318947
    21 2.899849 -0.471046 -4.331210 -0.385752 -0.602865 -0.825135
    22 -0.000025 2.543312 0.000026 0.154306 0.158838 -0.793924
    23 0.000059 2.315285 -0.000040 0.069919 0.072722 -0.803680
    24 1.551407 3.956631 -3.900798 2.140928 -1.367633 -3.120839
    25 0.000000 2.741436 -0.000004 -0.811248 0.000000 0.000000
    26 0.000010 2.668510 0.000050 -0.745540 0.000000 0.000000
    27 1.401100 3.639805 -1.202109 1.475720 -1.355940 -2.446555
    28 0.000003 2.810951 0.000004 -0.811248 0.000000 0.000000
    29 -0.000005 2.736202 -0.000031 -0.745540 0.000000 0.000000
    30 1.335663 3.182098 1.418086 0.756495 -1.218480 -1.888380
    31 -0.000003 2.663269 0.000046 -0.811248 0.000000 0.000000
    32 0.000001 2.592527 -0.000031 -0.745540 0.000000 0.000000
    33 1.344765 1.881123 3.809589 0.516291 -1.203073 -1.477053
    34 0.000011 2.315664 -0.000084 -0.499689 0.000000 0.000000
    35 -0.000006 2.254017 0.000076 -0.794406 0.000000 0.000000
    36 0.011267 -6.809892 1.974034 -0.607868 0.000000 0.000000
    37 -0.011248 6.809885 -1.974043 -0.607868 0.000000 0.000000
  time 29
    0 3.748047 2.017578 36.531250 -1.226434 -0.188303 0.147307
    1 0.011757 -5.339844 -0.404297 -0.200365 -0.046025 0.202155
    2 0.000000 -7.488277 -0.000001 0.138138 -0.180168 0.077834
    3 0.000000 -5.597980 0.000000 0.310629 -0.247749 0.039461
    4 0.000000 -6.565113 -0.000001 0.679955 -0.462578 0.265579
    5 -1.549380 -5.102886 -4.074768 2.917887 -0.691938 -1.247797
    6 -0.000053 11.987244 0.000028 -0.850091 -1.167965 3.037113
    7 20.109314 0.000000 -0.000002 1.174014 -1.429944 -2.750891
    8 19.941738 0.000001 -0.000004 1.582000 -1.082313 2.986619
    9 6.938272 1.999413 -1.014580 -2.889576 1.145471 2.047169
    10 20.710249 -0.000001 0.000000 0.000000 0.195504 0.000000
    11 18.105982 0.000001 0.000000 -1.033567 0.034965 1.514705
    12 -6.938270 1.999409 -1.014579 1.898715 0.044491 2.046481
    13 20.710224 0.000000 0.000000 0.000000 0.000000 0.195504
    14 18.106007 0.000000 -0.000001 -0.019622 -1.504708 -2.583760
    15 0.000000 -6.555973 0.000000 0.135353 -0.008533 0.016673
    16 0.000000 -3.252140 0.000004 -1.615906 -0.005681 -0.593948
    17 1.548545 -4.925743 -4.285366 3.013105 -0.694143 -1.168177
    18 1.190170 -10.472042 -0.306138 1.353248 -0.238019 -0.934260
    19 0.000008 0.000000 15.020973 -0.201994 -0.066154 0.008339
    20 0.000004 -0.000001 8.039619 0.000000 0.000000 0.318947
    21 2.899849 -0.471046 -4.331210 -0.385752 -0.602865 -0.825135
    22 -0.000025 2.543312 0.000026 0.154306 0.158838 -0.793924
    23 0.000059 2.315285 -0.000040 0.069919 0.072722 -0.803680
    24 1.551407 3.956631 -3.900798 2.140928 -1.367633 -3.120839
    25 0.000000 2.741436 -0.000004 -0.811248 0.000000 0.000000
    26 0.000010 2.668510 0.000050 -0.745540 0.000000 0.000000
    27 1.401100 3.639805 -1.202109 1.475720 -1.355940 -2.446555
    28 0.000003 2.810951 0.000004 -0.811248 0.000000 0.000000
    29 -0.000005 2.736202 -0.000031 -0.745540 0.000000 0.000000
    30 1.335663 3.182098 1.418086 0.756495 -1.218480 -1.888380
    31 -0.000003 2.663269 0.000046 -0.811248 0.000000 0.000000
    32 0.000001 2.592527 -0.000031 -0.745540 0.000000 0.000000
    33 1.344765 1.881123 3.809589 0.516291 -1.203073 -1.477053
    34 0.000011 2.315664 -0.000084 -0.499689 0.000000 0.000000
    35 -0.000006 2.254017 0.000076 -0.794406 0.000000 0.000000
    36 0.011267 -6.809892 1.974034 -0.607868 0.000000 0.000000
    37 -0.011248 6.809885 -1.974043 -0.607868 0.000000 0.000000
  time 30
    0 3.878906 1.896484 36.906250 -1.225491 -0.200049 0.156884
    1 -0.083862 -5.339844 -0.358887 -0.182193 -0.043971 0.205311
    2 0.000000 -7.488277 -0.000001 0.127332 -0.164196 0.071269
    3 0.000000 -5.597980 0.000000 0.330724 -0.270952 0.024703
    4 0.000000 -6.565113 -0.000001 0.679523 -0.451538 0.249489
    5 -1.549380 -5.102886 -4.074768 2.801065 -0.713965 -1.227758
    6 -0.000053 11.987244 0.000028 -0.764614 -1.083389 2.999323
    7 20.109314 0.000000 -0.000002 1.183086 -1.426867 -2.760061
    8 19.941738 0.000001 -0.000004 1.849545 -1.118937 2.681757
    9 6.938272 1.999413 -1.014580 -2.869437 1.116666 2.072245
    10 20.710249 -0.000001 0.000000 0.000000 0.195504 0.000000
    11 18.105982 0.000001 0.000000 -1.033567 0.034965 1.514705
    12 -6.938270 1.999409 -1.014579 1.879213 0.040803 2.042844
    13 20.710224 0.000000 0.000000 0.000000 0.000000 0.195504
    14 18.106007 0.000000 -0.000001 -0.019622 -1.504708 -2.583760
    15 0.000000 -6.555973 0.000000 0.168926 -0.012215 0.006806
    16 0.000000 -3.252140 0.000004 -1.491879 0.016164 -0.665059
    17 1.548545 -4.925743 -4.285366 3.021589 -0.726162 -1.209045
    18 1.190170 -10.472042 -0.306138 1.353248 -0.238019 -0.934260
    19 0.000008 0.000000 15.020973 -0.201994 -0.066154 0.008339
    20 0.000004 -0.000001 8.039619 0.000000 0.000000 0.318947
    21 2.899849 -0.471046 -4.331210 -0.385752 -0.602865 -0.825135
    22 -0.000025 2.543312 0.000026 0.154306 0.158838 -0.793924
    23 0.000059 2.315285 -0.000040 0.069919 0.072722 -0.803680
    24 1.551407 3.956631 -3.900798 2.140928 -1.367633 -3.120839
    25 0.000000 2.741436 -0.000004 -0.811248 0.000000 0.000000
    26 0.000010 2.668510 0.000050 -0.745540 0.000000 0.000000
    27 1.401100 3.639805 -1.202109 1.475720 -1.355940 -2.446555
    28 0.000003 2.810951 0.000004 -0.811248 0.000000 0.000000
    29 -0.000005 2.736202 -0.000031 -0.745540 0.000000 0.000000
    30 1.335663 3.182098 1.418086 0.756495 -1.218480 -1.888380
    31 -0.000003 2.663269 0.000046 -0.811248 0.000000 0.000000
    32 0.000001 2.592527 -0.000031 -0.745540 0.000000 0.000000
    33 1.344765 1.881123 3.809589 0.516291 -1.203073 -1.477053
    34 0.000011 2.315664 -0.000084 -0.499689 0.000000 0.000000
    35 -0.000006 2.254017 0.000076 -0.794406 0.000000 0.000000
    36 0.011267 -6.809892 1.974034 -0.607868 0.000000 0.000000
    37 -0.011248 6.809885 -1.974043 -0.607868 0.000000 0.000000
  time 31
    0 3.988281 1.801758 37.250000 -1.224429 -0.209402 0.159665
    1 -0.167480 -5.339844 -0.320068 -0.162925 -0.040437 0.209962
    2 0.000000 -7.488277 -0.000001 0.116074 -0.147546 0.064257
    3 0.000000 -5.597980 0.000000 0.350296 -0.293295 0.009502
    4 0.000000 -6.565113 -0.000001 0.678630 -0.439575 0.233336
    5 -1.549380 -5.102886 -4.074768 2.659941 -0.735080 -1.204021
    6 -0.000053 11.987244 0.000028 -0.714109 -0.986888 2.984008
    7 20.109314 0.000000 -0.000002 1.079425 -1.455605 -2.655568
    8 19.941738 0.000001 -0.000004 2.008256 -1.208371 2.518090
    9 6.938272 1.999413 -1.014580 -2.865689 1.091296 2.081686
    10 20.710249 -0.000001 0.000000 0.000000 0.195504 0.000000
    11 18.105982 0.000001 0.000000 -1.033567 0.034965 1.514705
    12 -6.938270 1.999409 -1.014579 1.872661 0.032385 2.044794
    13 20.710224 0.000000 0.000000 0.000000 0.000000 0.195504
    14 18.106007 0.000000 -0.000001 -0.019622 -1.504708 -2.583760
    15 0.000000 -6.555973 0.000000 0.203100 -0.014625 -0.006399
    16 0.000000 -3.252140 0.000004 -1.387588 0.035835 -0.739606
    17 1.548545 -4.925743 -4.285366 3.030458 -0.753782 -1.247327
    18 1.190170 -10.472042 -0.306138 1.353248 -0.238019 -0.934260
    19 0.000008 0.000000 15.020973 -0.201994 -0.066154 0.008339
    20 0.000004 -0.000001 8.039619 0.000000 0.000000 0.318947
    21 2.899849 -0.471046 -4.331210 -0.385752 -0.602865 -0.825135
    22 -0.000025 2.543312 0.000026 0.154306 0.158838 -0.793924
    23 0.000059 2.315285 -0.000040 0.069919 0.072722 -0.803680
    24 1.551407 3.956631 -3.900798 2.140928 -1.367633 -3.120839
    25 0.000000 2.741436 -0.000004 -0.811248 0.000000 0.000000
    26 0.000010 2.668510 0.000050 -0.745540 0.000000 0.000000
    27 1.401100 3.639805 -1.202109 1.475720 -1.355940 -2.446555
    28 0.000003 2.810951 0.000004 -0.811248 0.000000 0.000000
    29 -0.000005 2.736202 -0.000031 -0.745540 0.000000 0.000000
    30 1.335663 3.182098 1.418086 0.756495 -1.218480 -1.888380
    31 -0.000003 2.663269 0.000046 -0.811248 0.000000 0.000000
    32 0.000001 2.592527 -0.000031 -0.745540 0.000000 0.000000
    33 1.344765 1.881123 3.809589 0.516291 -1.203073 -1.477053
    34 0.000011 2.315664 -0.000084 -0.499689 0.000000 0.000000
    35 -0.000006 2.254017 0.000076 -0.794406 0.000000 0.000000
    36 0.011267 -6.809892 1.974034 -0.607868 0.000000 0.000000
    37 -0.011248 6.809885 -1.974043 -0.607868 0.000000 0.000000
  time 32
    0 4.074219 1.729492 37.562500 -1.222811 -0.216361 0.156140
    1 -0.233765 -5.339844 -0.289795 -0.145013 -0.035696 0.215378
    2 0.000000 -7.488277 -0.000001 0.106557 -0.133509 0.058305
    3 0.000000 -5.597980 0.000000 0.367479 -0.312762 -0.003547
    4 0.000000 -6.565113 -0.000001 0.677706 -0.429601 0.219706
    5 -1.549380 -5.102886 -4.074768 2.535240 -0.753044 -1.182482
    6 -0.000053 11.987244 0.000028 -0.687635 -0.901334 2.987106
    7 20.109314 0.000000 -0.000002 0.745336 -1.496925 -2.320066
    8 19.941738 0.000001 -0.000004 2.118778 -1.332022 2.406761
    9 6.938272 1.999413 -1.014580 -2.874736 1.070828 2.079540
    10 20.710249 -0.000001 0.000000 0.000000 0.195504 0.000000
    11 18.105982 0.000001 0.000000 -1.033567 0.034965 1.514705
    12 -6.938270 1.999409 -1.014579 1.865886 0.026360 2.048082
    13 20.710224 0.000000 0.000000 0.000000 0.000000 0.195504
    14 18.106007 0.000000 -0.000001 -0.019622 -1.504708 -2.583760
    15 0.000000 -6.555973 0.000000 0.232362 -0.016247 -0.016645
    16 0.000000 -3.252140 0.000004 -1.340636 0.057906 -0.808181
    17 1.548545 -4.925743 -4.285366 3.038891 -0.775964 -1.280591
    18 1.190170 -10.472042 -0.306138 1.353248 -0.238019 -0.934260
    19 0.000008 0.000000 15.020973 -0.201994 -0.066154 0.008339
    20 0.000004 -0.000001 8.039619 0.000000 0.000000 0.318947
    21 2.899849 -0.471046 -4.331210 -0.385752 -0.602865 -0.825135
    22 -0.000025 2.543312 0.000026 0.154306 0.158838 -0.793924
    23 0.000059 2.315285 -0.000040 0.069919 0.072722 -0.803680
    24 1.551407 3.956631 -3.900798 2.140928 -1.367633 -3.120839
    25 0.000000 2.741436 -0.000004 -0.811248 0.000000 0.000000
    26 0.000010 2.668510 0.000050 -0.745540 0.000000 0.000000
    27 1.401100 3.639805 -1.202109 1.475720 -1.355940 -2.446555
    28 0.000003 2.810951 0.000004 -0.811248 0.000000 0.000000
    29 -0.000005 2.736202 -0.000031 -0.745540 0.000000 0.000000
    30 1.335663 3.182098 1.418086 0.756495 -1.218480 -1.888380
    31 -0.000003 2.663269 0.000046 -0.811248 0.000000 0.000000
    32 0.000001 2.592527 -0.000031 -0.745540 0.000000 0.000000
    33 1.344765 1.881123 3.809589 0.516291 -1.203073 -1.477053
    34 0.000011 2.315664 -0.000084 -0.499689 0.000000 0.000000
    35 -0.000006 2.254017 0.000076 -0.794406 0.000000 0.000000
    36 0.011267 -6.809892 1.974034 -0.607868 0.000000 0.000000
    37 -0.011248 6.809885 -1.974043 -0.607868 0.000000 0.000000
  time 33
    0 4.140625 1.678711 37.843750 -1.218838 -0.209574 0.107885
    1 -0.256836 -5.339844 -0.282471 -0.125669 -0.033559 0.226813
    2 0.000000 -7.488277 -0.000001 0.097950 -0.120769 0.052975
    3 0.000000 -5.597980 0.000000 0.382850 -0.330203 -0.015291
    4 0.000000 -6.565113 -0.000001 0.676721 -0.420401 0.207362
    5 -1.549380 -5.102886 -4.074768 2.419353 -0.768986 -1.162120
    6 -0.000053 11.987244 0.000028 -0.673744 -0.822773 2.997296
    7 20.109314 0.000000 -0.000002 -0.503836 -1.508837 -1.068654
    8 19.941738 0.000001 -0.000004 2.339886 -1.445580 2.179684
    9 6.938272 1.999413 -1.014580 -2.972992 1.068394 2.001655
    10 20.710249 -0.000001 0.000000 0.000000 0.195504 0.000000
    11 18.105982 0.000001 0.000000 -1.033567 0.034965 1.514705
    12 -6.938270 1.999409 -1.014579 1.814879 0.051275 2.052781
    13 20.710224 0.000000 0.000000 0.000000 0.000000 0.195504
    14 18.106007 0.000000 -0.000001 -0.019622 -1.504708 -2.583760
    15 0.000000 -6.555973 0.000000 0.259037 -0.016958 -0.026707
    16 0.000000 -3.252140 0.000004 -1.384290 0.096211 -0.857914
    17 1.548545 -4.925743 -4.285366 3.043491 -0.786772 -1.297532
    18 1.190170 -10.472042 -0.306138 1.353248 -0.238019 -0.934260
    19 0.000008 0.000000 15.020973 -0.201994 -0.066154 0.008339
    20 0.000004 -0.000001 8.039619 0.000000 0.000000 0.318947
    21 2.899849 -0.471046 -4.331210 -0.385752 -0.602865 -0.825135
    22 -0.000025 2.543312 0.000026 0.154306 0.158838 -0.793924
    23 0.000059 2.315285 -0.000040 0.069919 0.072722 -0.803680
    24 1.551407 3.956631 -3.900798 2.140928 -1.367633 -3.120839
    25 0.000000 2.741436 -0.000004 -0.811248 0.000000 0.000000
    26 0.000010 2.668510 0.000050 -0.745540 0.000000 0.000000
    27 1.401100 3.639805 -1.202109 1.475720 -1.355940 -2.446555
    28 0.000003 2.810951 0.000004 -0.811248 0.000000 0.000000
    29 -0.000005 2.736202 -0.000031 -0.745540 0.000000 0.000000
    30 1.335663 3.182098 1.418086 0.756495 -1.218480 -1.888380
    31 -0.000003 2.663269 0.000046 -0.811248 0.000000 0.000000
    32 0.000001 2.592527 -0.000031 -0.745540 0.000000 0.000000
    33 1.344765 1.881123 3.809589 0.516291 -1.203073 -1.477053
    34 0.000011 2.315664 -0.000084 -0.499689 0.000000 0.000000
    35 -0.000006 2.254017 0.000076 -0.794406 0.000000 0.000000
    36 0.011267 -6.809892 1.974034 -0.607868 0.000000 0.000000
    37 -0.011248 6.809885 -1.974043 -0.607868 0.000000 0.000000
  time 34
    0 4.187500 1.645508 38.062500 -1.212948 -0.187237 0.009094
    1 -0.235474 -5.339844 -0.298828 -0.104097 -0.035891 0.244900
    2 0.000000 -7.488277 -0.000001 0.089015 -0.107694 0.047211
    3 0.000000 -5.597980 0.000000 0.397147 -0.346150 -0.027122
    4 0.000000 -6.565113 -0.000001 0.675219 -0.410441 0.195407
    5 -1.549380 -5.102886 -4.074768 2.296114 -0.783517 -1.140616
    6 -0.000053 11.987244 0.000028 -0.669215 -0.744523 3.005528
    7 20.109314 0.000000 -0.000002 -1.184013 -1.426519 -0.385757
    8 19.941738 0.000001 -0.000004 -2.478127 -1.526288 0.701575
    9 6.938272 1.999413 -1.014580 3.104063 1.075671 1.831151
    10 20.710249 -0.000001 0.000000 0.000000 0.195504 0.000000
    11 18.105982 0.000001 0.000000 -1.033567 0.034965 1.514705
    12 -6.938270 1.999409 -1.014579 1.717981 0.110391 2.056209
    13 20.710224 0.000000 0.000000 0.000000 0.000000 0.195504
    14 18.106007 0.000000 -0.000001 -0.019622 -1.504708 -2.583760
    15 0.000000 -6.555973 0.000000 0.285660 -0.016021 -0.040415
    16 0.000000 -3.252140 0.000004 -1.490013 0.145901 -0.889873
    17 1.548545 -4.925743 -4.285366 3.042764 -0.785625 -1.295512
    18 1.190170 -10.472042 -0.306138 1.353248 -0.238019 -0.934260
    19 0.000008 0.000000 15.020973 -0.201994 -0.066154 0.008339
    20 0.000004 -0.000001 8.039619 0.000000 0.000000 0.318947
    21 2.899849 -0.471046 -4.331210 -0.385752 -0.602865 -0.825135
    22 -0.000025 2.543312 0.000026 0.154306 0.158838 -0.793924
    23 0.000059 2.315285 -0.000040 0.069919 0.072722 -0.803680
    24 1.551407 3.956631 -3.900798 2.140928 -1.367633 -3.120839
    25 0.000000 2.741436 -0.000004 -0.811248 0.000000 0.000000
    26 0.000010 2.668510 0.000050 -0.745540 0.000000 0.000000
    27 1.401100 3.639805 -1.202109 1.475720 -1.355940 -2.446555
    28 0.000003 2.810951 0.000004 -0.811248 0.000000 0.000000
    29 -0.000005 2.736202 -0.000031 -0.745540 0.000000 0.000000
    30 1.335663 3.182098 1.418086 0.756495 -1.218480 -1.888380
    31 -0.000003 2.663269 0.000046 -0.811248 0.000000 0.000000
    32 0.000001 2.592527 -0.000031 -0.745540 0.000000 0.000000
    33 1.344765 1.881123 3.809589 0.516291 -1.203073 -1.477053
    34 0.000011 2.315664 -0.000084 -0.499689 0.000000 0.000000
    35 -0.000006 2.254017 0.000076 -0.794406 0.000000 0.000000
    36 0.011267 -6.809892 1.974034 -0.607868 0.000000 0.000000
    37 -0.011248 6.809885 -1.974043 -0.607868 0.000000 0.000000
  time 35
    0 4.214844 1.627930 38.187500 -1.207851 -0.163332 -0.088221
    1 -0.199951 -5.339844 -0.321289 -0.086818 -0.039595 0.261657
    2 0.000000 -7.488277 -0.000001 0.082050 -0.097469 0.042603
    3 0.000000 -5.597980 0.000000 0.407648 -0.357801 -0.036362
    4 0.000000 -6.565113 -0.000001 0.673877 -0.402460 0.186142
    5 -1.549380 -5.102886 -4.074768 2.198089 -0.793936 -1.123448
    6 -0.000053 11.987244 0.000028 -0.670417 -0.684896 3.010591
    7 20.109314 0.000000 -0.000002 -1.330667 -1.340693 -0.236669
    8 19.941738 0.000001 -0.000004 -1.474882 -1.452904 -0.317620
    9 6.938272 1.999413 -1.014580 2.894819 1.071454 1.655851
    10 20.710249 -0.000001 0.000000 0.000000 0.195504 0.000000
    11 18.105982 0.000001 0.000000 -1.033567 0.034965 1.514705
    12 -6.938270 1.999409 -1.014579 1.625131 0.171138 2.053753
    13 20.710224 0.000000 0.000000 0.000000 0.000000 0.195504
    14 18.106007 0.000000 -0.000001 -0.019622 -1.504708 -2.583760
    15 0.000000 -6.555973 0.000000 0.306182 -0.014265 -0.052478
    16 0.000000 -3.252140 0.000004 -1.599274 0.188258 -0.909605
    17 1.548545 -4.925743 -4.285366 3.040261 -0.779617 -1.286075
    18 1.190170 -10.472042 -0.306138 1.353248 -0.238019 -0.934260
    19 0.000008 0.000000 15.020973 -0.201994 -0.066154 0.008339
    20 0.000004 -0.000001 8.039619 0.000000 0.000000 0.318947
    21 2.899849 -0.471046 -4.331210 -0.385752 -0.602865 -0.825135
    22 -0.000025 2.543312 0.000026 0.154306 0.158838 -0.793924
    23 0.000059 2.315285 -0.000040 0.069919 0.072722 -0.803680
    24 1.551407 3.956631 -3.900798 2.140928 -1.367633 -3.120839
    25 0.000000 2.741436 -0.000004 -0.811248 0.000000 0.000000
    26 0.000010 2.668510 0.000050 -0.745540 0.000000 0.000000
    27 1.401100 3.639805 -1.202109 1.475720 -1.355940 -2.446555
    28 0.000003 2.810951 0.000004 -0.811248 0.000000 0.000000
    29 -0.000005 2.736202 -0.000031 -0.745540 0.000000 0.000000
    30 1.335663 3.182098 1.418086 0.756495 -1.218480 -1.888380
    31 -0.000003 2.663269 0.000046 -0.811248 0.000000 0.000000
    32 0.000001 2.592527 -0.000031 -0.745540 0.000000 0.000000
    33 1.344765 1.881123 3.809589 0.516291 -1.203073 -1.477053
    34 0.000011 2.315664 -0.000084 -0.499689 0.000000 0.000000
    35 -0.000006 2.254017 0.000076 -0.794406 0.000000 0.000000
    36 0.011267 -6.809892 1.974034 -0.607868 0.000000 0.000000
    37 -0.011248 6.809885 -1.974043 -0.607868 0.000000 0.000000
  time 36
    0 4.226563 1.622070 38.250000 -1.205847 -0.152161 -0.131910
    1 -0.181274 -5.339844 -0.332275 -0.079817 -0.041595 0.268961
    2 0.000000 -7.488277 -0.000001 0.079274 -0.093417 0.040813
    3 0.000000 -5.597980 0.000000 0.411745 -0.362338 -0.039981
    4 0.000000 -6.565113 -0.000001 0.673301 -0.399198 0.182526
    5 -1.549380 -5.102886 -4.074768 2.158333 -0.797911 -1.116446
    6 -0.000053 11.987244 0.000028 -0.671805 -0.661363 3.011962
    7 20.109314 0.000000 -0.000002 -1.364121 -1.303431 -0.202145
    8 19.941738 0.000001 -0.000004 -1.370402 -1.414510 -0.429992
    9 6.938272 1.999413 -1.014580 2.801150 1.064872 1.577252
    10 20.710249 -0.000001 0.000000 0.000000 0.195504 0.000000
    11 18.105982 0.000001 0.000000 -1.033567 0.034965 1.514705
    12 -6.938270 1.999409 -1.014579 1.583803 0.198951 2.050660
    13 20.710224 0.000000 0.000000 0.000000 0.000000 0.195504
    14 18.106007 0.000000 -0.000001 -0.019622 -1.504708 -2.583760
    15 0.000000 -6.555973 0.000000 0.314307 -0.013329 -0.057490
    16 0.000000 -3.252140 0.000004 -1.649623 0.206086 -0.916681
    17 1.548545 -4.925743 -4.285366 3.038724 -0.776046 -1.280466
    18 1.190170 -10.472042 -0.306138 1.353248 -0.238019 -0.934260
    19 0.000008 0.000000 15.020973 -0.201994 -0.066154 0.008339
    20 0.000004 -0.000001 8.039619 0.000000 0.000000 0.318947
    21 2.899849 -0.471046 -4.331210 -0.385752 -0.602865 -0.825135
    22 -0.000025 2.543312 0.000026 0.154306 0.158838 -0.793924
    23 0.000059 2.315285 -0.000040 0.069919 0.072722 -0.803680
    24 1.551407 3.956631 -3.900798 2.140928 -1.367633 -3.120839
    25 0.000000 2.741436 -0.000004 -0.811248 0.000000 0.000000
    26 0.000010 2.668510 0.000050 -0.745540 0.000000 0.000000
    27 1.401100 3.639805 -1.202109 1.475720 -1.355940 -2.446555
    28 0.000003 2.810951 0.000004 -0.811248 0.000000 0.000000
    29 -0.000005 2.736202 -0.000031 -0.745540 0.000000 0.000000
    30 1.335663 3.182098 1.418086 0.756495 -1.218480 -1.888380
    31 -0.000003 2.663269 0.000046 -0.811248 0.000000 0.000000
    32 0.000001 2.592527 -0.000031 -0.745540 0.000000 0.000000
    33 1.344765 1.881123 3.809589 0.516291 -1.203073 -1.477053
    34 0.000011 2.315664 -0.000084 -0.499689 0.000000 0.000000
    35 -0.000006 2.254017 0.000076 -0.794406 0.000000 0.000000
    36 0.011267 -6.809892 1.974034 -0.607868 0.000000 0.000000
    37 -0.011248 6.809885 -1.974043 -0.607868 0.000000 0.000000
end
