// Created by Crowbar 0.74
version 1
nodes
  0 "bip_pelvis" -1
  1 "bip_spine_0" 0
  2 "bip_spine_1" 1
  3 "bip_spine_2" 2
  4 "bip_spine_3" 3
  5 "bip_collar_R" 4
  6 "bip_upperArm_R" 5
  7 "bip_lowerArm_R" 6
  8 "bip_hand_R" 7
  9 "bip_hip_L" 0
  10 "bip_knee_L" 9
  11 "bip_foot_L" 10
  12 "bip_hip_R" 0
  13 "bip_knee_R" 12
  14 "bip_foot_R" 13
  15 "bip_neck" 4
  16 "bip_head" 15
  17 "bip_collar_L" 4
  18 "bip_upperArm_L" 17
  19 "bip_lowerArm_L" 18
  20 "bip_hand_L" 19
  21 "bip_thumb_0_R" 8
  22 "bip_thumb_1_R" 21
  23 "bip_thumb_2_R" 22
  24 "bip_index_0_R" 8
  25 "bip_index_1_R" 24
  26 "bip_index_2_R" 25
  27 "bip_middle_0_R" 8
  28 "bip_middle_1_R" 27
  29 "bip_middle_2_R" 28
  30 "bip_ring_0_R" 8
  31 "bip_ring_1_R" 30
  32 "bip_ring_2_R" 31
  33 "bip_pinky_0_R" 8
  34 "bip_pinky_1_R" 33
  35 "bip_pinky_2_R" 34
  36 "bip_toe_L" 11
  37 "bip_toe_R" 14
end
skeleton
  time 0
    0 1.294922 3.371094 -2.048828 -0.166148 -0.217582 -1.400165
    1 0.000000 0.000000 0.000000 0.000000 0.000000 0.000000
    2 0.000000 0.000000 0.000000 -0.151485 -0.421680 0.189740
    3 0.000000 0.000000 0.000000 -0.256057 -0.266929 -0.030012
    4 0.000000 0.000000 0.000000 0.139055 -0.135269 0.111690
    5 0.000000 0.000000 0.000000 0.000000 0.000000 -0.530997
    6 0.000000 0.000000 0.000000 -0.721735 0.939327 -0.122150
    7 0.000000 0.000000 0.000000 0.000000 0.000000 -0.830285
    8 0.000000 0.000000 0.000000 0.000000 0.000000 0.000000
    9 0.000000 0.000000 0.000000 -0.716632 0.044456 0.536253
    10 0.000000 0.000000 0.000000 0.000000 0.285638 0.000000
    11 0.000000 0.000000 0.000000 0.134008 -0.322685 -0.143634
    12 0.000000 0.000000 0.000000 -0.173001 -0.193722 0.175572
    13 0.000000 0.000000 0.000000 0.000000 0.000000 0.061167
    14 0.000000 0.000000 0.000000 -0.052676 0.252172 0.295920
    15 0.000000 0.000000 0.000000 0.325769 -0.062192 0.013663
    16 0.000000 0.000000 0.000000 0.421233 0.348574 -0.198428
    17 0.000000 0.000000 0.000000 0.000000 0.000000 0.000000
    18 0.000000 0.000000 0.000000 0.000000 0.000000 0.000000
    19 0.000000 0.000000 0.000000 0.000000 0.000000 0.000000
    20 0.000000 0.000000 0.000000 0.000000 0.000000 0.000000
    21 0.000000 0.000000 0.000000 0.000000 0.000000 0.000000
    22 0.000000 0.000000 0.000000 0.000000 0.000000 0.000000
    23 0.000000 0.000000 0.000000 0.000000 0.000000 0.000000
    24 0.000000 0.000000 0.000000 0.000000 0.000000 0.000000
    25 0.000000 0.000000 0.000000 0.000000 0.000000 0.000000
    26 0.000000 0.000000 0.000000 0.000000 0.000000 0.000000
    27 0.000000 0.000000 0.000000 0.000000 0.000000 0.000000
    28 0.000000 0.000000 0.000000 0.000000 0.000000 0.000000
    29 0.000000 0.000000 0.000000 0.000000 0.000000 0.000000
    30 0.000000 0.000000 0.000000 0.000000 0.000000 0.000000
    31 0.000000 0.000000 0.000000 0.000000 0.000000 0.000000
    32 0.000000 0.000000 0.000000 0.000000 0.000000 0.000000
    33 0.000000 0.000000 0.000000 0.000000 0.000000 0.000000
    34 0.000000 0.000000 0.000000 0.000000 0.000000 0.000000
    35 0.000000 0.000000 0.000000 0.000000 0.000000 0.000000
    36 0.000000 0.000000 0.000000 0.000000 0.000000 0.000000
    37 0.000000 0.000000 0.000000 0.000000 0.000000 0.000000
  time 1
    0 1.253906 3.318359 -1.988281 -0.154676 -0.217372 -1.404108
    1 0.000000 0.000000 0.000000 0.002319 0.000000 0.000000
    2 0.000000 0.000000 0.000000 -0.144577 -0.413595 0.182829
    3 0.000000 0.000000 0.000000 -0.252572 -0.270514 -0.026423
    4 0.000000 0.000000 0.000000 0.138093 -0.128899 0.107624
    5 0.000000 0.000000 0.000000 0.000000 0.000000 -0.528593
    6 0.000000 0.000000 0.000000 -0.708707 0.926326 -0.117266
    7 0.000000 0.000000 0.000000 0.000000 0.000000 -0.822821
    8 0.000000 0.000000 0.000000 0.000000 0.000000 0.000000
    9 0.000000 0.000000 0.000000 -0.715729 0.035409 0.529772
    10 0.000000 0.000000 0.000000 0.000000 0.279165 0.000000
    11 0.000000 0.000000 0.000000 0.140297 -0.324012 -0.155978
    12 0.000000 0.000000 0.000000 -0.166711 -0.191071 0.164921
    13 0.000000 0.000000 0.000000 0.000000 0.000000 0.060068
    14 0.000000 0.000000 0.000000 -0.052553 0.248764 0.293844
    15 0.000000 0.000000 0.000000 0.311502 -0.054914 0.035261
    16 0.000000 0.000000 0.000000 0.432119 0.371286 -0.191370
    17 0.000000 0.000000 0.000000 0.000000 0.000000 0.000000
    18 0.000000 0.000000 0.000000 0.000000 0.000000 0.000000
    19 0.000000 0.000000 0.000000 0.000000 0.000000 0.000000
    20 0.000000 0.000000 0.000000 0.000000 0.000000 0.000000
    21 0.000000 0.000000 0.000000 0.000000 0.000000 0.000000
    22 0.000000 0.000000 0.000000 0.000000 0.000000 0.000000
    23 0.000000 0.000000 0.000000 0.000000 0.000000 0.000000
    24 0.000000 0.000000 0.000000 0.000000 0.000000 0.000000
    25 0.000000 0.000000 0.000000 0.000000 0.000000 0.000000
    26 0.000000 0.000000 0.000000 0.000000 0.000000 0.000000
    27 0.000000 0.000000 0.000000 0.000000 0.000000 0.000000
    28 0.000000 0.000000 0.000000 0.000000 0.000000 0.000000
    29 0.000000 0.000000 0.000000 0.000000 0.000000 0.000000
    30 0.000000 0.000000 0.000000 0.000000 0.000000 0.000000
    31 0.000000 0.000000 0.000000 0.000000 0.000000 0.000000
    32 0.000000 0.000000 0.000000 0.000000 0.000000 0.000000
    33 0.000000 0.000000 0.000000 0.000000 0.000000 0.000000
    34 0.000000 0.000000 0.000000 0.000000 0.000000 0.000000
    35 0.000000 0.000000 0.000000 0.000000 0.000000 0.000000
    36 0.000000 0.000000 0.000000 0.000000 0.000000 0.000000
    37 0.000000 0.000000 0.000000 0.000000 0.000000 0.000000
  time 2
    0 1.143555 3.169922 -1.826172 -0.123819 -0.216452 -1.414747
    1 0.000000 0.000000 0.000000 0.008545 0.000000 0.000000
    2 0.000000 0.000000 0.000000 -0.126425 -0.391725 0.165006
    3 0.000000 0.000000 0.000000 -0.243075 -0.279649 -0.017284
    4 0.000000 0.000000 0.000000 0.135370 -0.112103 0.097091
    5 0.000000 0.000000 0.000000 -0.000090 0.000102 -0.522526
    6 0.000000 0.000000 0.000000 -0.675009 0.889286 -0.104291
    7 0.000000 0.000000 0.000000 0.000000 0.000000 -0.799307
    8 0.000000 0.000000 0.000000 0.000000 0.000000 0.000000
    9 0.000000 0.000000 0.000000 -0.710928 0.010380 0.511749
    10 0.000000 0.000000 0.000000 0.000000 0.261548 0.000000
    11 0.000000 0.000000 0.000000 0.156508 -0.326076 -0.188646
    12 0.000000 0.000000 0.000000 -0.149698 -0.183733 0.136453
    13 0.000000 0.000000 0.000000 0.000000 0.000000 0.056892
    14 0.000000 0.000000 0.000000 -0.052201 0.239251 0.287869
    15 0.000000 0.000000 0.000000 0.272721 -0.034614 0.092642
    16 0.000000 0.000000 0.000000 0.461446 0.432156 -0.173105
    17 0.000000 0.000000 0.000000 0.000000 0.000000 0.000000
    18 0.000000 0.000000 0.000000 0.000000 0.000000 0.000000
    19 0.000000 0.000000 0.000000 0.000000 0.000000 0.000000
    20 0.000000 0.000000 0.000000 0.000000 0.000000 0.000000
    21 0.000000 0.000000 0.000000 0.000000 0.000000 0.000000
    22 0.000000 0.000000 0.000000 0.000000 0.000000 0.000000
    23 0.000000 0.000000 0.000000 0.000000 0.000000 0.000000
    24 0.000000 0.000000 0.000000 0.000000 0.000000 0.000000
    25 0.000000 0.000000 0.000000 0.000000 0.000000 0.000000
    26 0.000000 0.000000 0.000000 0.000000 0.000000 0.000000
    27 0.000000 0.000000 0.000000 0.000000 0.000000 0.000000
    28 0.000000 0.000000 0.000000 0.000000 0.000000 0.000000
    29 0.000000 0.000000 0.000000 0.000000 0.000000 0.000000
    30 0.000000 0.000000 0.000000 0.000000 0.000000 0.000000
    31 0.000000 0.000000 0.000000 0.000000 0.000000 0.000000
    32 0.000000 0.000000 0.000000 0.000000 0.000000 0.000000
    33 0.000000 0.000000 0.000000 0.000000 0.000000 0.000000
    34 0.000000 0.000000 0.000000 0.000000 0.000000 0.000000
    35 0.000000 0.000000 0.000000 0.000000 0.000000 0.000000
    36 0.000000 0.000000 0.000000 0.000000 0.000000 0.000000
    37 0.000000 0.000000 0.000000 0.000000 0.000000 0.000000
  time 3
    0 0.977051 2.955078 -1.590820 -0.079047 -0.214333 -1.430107
    1 0.000000 0.000000 0.000000 0.017639 0.000000 0.000000
    2 0.000000 0.000000 0.000000 -0.100662 -0.358788 0.140572
    3 0.000000 0.000000 0.000000 -0.228508 -0.292474 -0.004697
    4 0.000000 0.000000 0.000000 0.131053 -0.087578 0.081339
    5 0.000000 0.000000 0.000000 -0.000255 0.000249 -0.513307
    6 0.000000 0.000000 0.000000 -0.625111 0.828868 -0.082698
    7 0.000000 0.000000 0.000000 0.000000 0.000000 -0.756300
    8 0.000000 0.000000 0.000000 0.000000 0.000000 0.000000
    9 0.000000 0.000000 0.000000 -0.696688 -0.028001 0.483847
    10 0.000000 0.000000 0.000000 0.000000 0.235284 0.000000
    11 0.000000 0.000000 0.000000 0.177855 -0.324955 -0.233233
    12 0.000000 0.000000 0.000000 -0.124465 -0.172584 0.095143
    13 0.000000 0.000000 0.000000 0.000000 0.000000 0.052008
    14 0.000000 0.000000 0.000000 -0.051125 0.224673 0.278559
    15 0.000000 0.000000 0.000000 0.214130 -0.001837 0.173746
    16 0.000000 0.000000 0.000000 0.505545 0.521079 -0.148018
    17 0.000000 0.000000 0.000000 0.000000 0.000000 0.000000
    18 0.000000 0.000000 0.000000 0.000000 0.000000 0.000000
    19 0.000000 0.000000 0.000000 0.000000 0.000000 0.000000
    20 0.000000 0.000000 0.000000 0.000000 0.000000 0.000000
    21 0.000000 0.000000 0.000000 0.000000 0.000000 0.000000
    22 0.000000 0.000000 0.000000 0.000000 0.000000 0.000000
    23 0.000000 0.000000 0.000000 0.000000 0.000000 0.000000
    24 0.000000 0.000000 0.000000 0.000000 0.000000 0.000000
    25 0.000000 0.000000 0.000000 0.000000 0.000000 0.000000
    26 0.000000 0.000000 0.000000 0.000000 0.000000 0.000000
    27 0.000000 0.000000 0.000000 0.000000 0.000000 0.000000
    28 0.000000 0.000000 0.000000 0.000000 0.000000 0.000000
    29 0.000000 0.000000 0.000000 0.000000 0.000000 0.000000
    30 0.000000 0.000000 0.000000 0.000000 0.000000 0.000000
    31 0.000000 0.000000 0.000000 0.000000 0.000000 0.000000
    32 0.000000 0.000000 0.000000 0.000000 0.000000 0.000000
    33 0.000000 0.000000 0.000000 0.000000 0.000000 0.000000
    34 0.000000 0.000000 0.000000 0.000000 0.000000 0.000000
    35 0.000000 0.000000 0.000000 0.000000 0.000000 0.000000
    36 0.000000 0.000000 0.000000 0.000000 0.000000 0.000000
    37 0.000000 0.000000 0.000000 0.000000 0.000000 0.000000
  time 4
    0 0.765137 2.697266 -1.315430 -0.026571 -0.210362 -1.447983
    1 0.000000 0.000000 0.000000 0.028749 -0.000002 0.000122
    2 0.000000 0.000000 0.000000 -0.070174 -0.317204 0.113074
    3 0.000000 0.000000 0.000000 -0.209720 -0.307220 0.009363
    4 0.000000 0.000000 0.000000 0.125373 -0.057717 0.061606
    5 0.000000 0.000000 0.000000 -0.000432 0.000456 -0.501705
    6 0.000000 0.000000 0.000000 -0.564078 0.744891 -0.052504
    7 0.000000 0.000000 0.000000 0.000000 0.000000 -0.690517
    8 0.000000 0.000000 0.000000 0.000000 0.000000 0.000000
    9 0.000000 0.000000 0.000000 -0.665018 -0.077121 0.446747
    10 0.000000 0.000000 0.000000 0.000000 0.203414 0.000000
    11 0.000000 0.000000 0.000000 0.197544 -0.316032 -0.278118
    12 0.000000 0.000000 0.000000 -0.093776 -0.158786 0.046698
    13 0.000000 0.000000 0.000000 0.000000 0.000000 0.046269
    14 0.000000 0.000000 0.000000 -0.049332 0.206145 0.266164
    15 0.000000 0.000000 0.000000 0.140283 0.042655 0.266550
    16 0.000000 0.000000 0.000000 0.560528 0.627172 -0.120465
    17 0.000000 0.000000 0.000000 0.000000 0.000000 0.000000
    18 0.000000 0.000000 0.000000 0.000000 0.000000 0.000000
    19 0.000000 0.000000 0.000000 0.000000 0.000000 0.000000
    20 0.000000 0.000000 0.000000 0.000000 0.000000 0.000000
    21 0.000000 0.000000 0.000000 0.000000 0.000000 0.000000
    22 0.000000 0.000000 0.000000 0.000000 0.000000 0.000000
    23 0.000000 0.000000 0.000000 0.000000 0.000000 0.000000
    24 0.000000 0.000000 0.000000 0.000000 0.000000 0.000000
    25 0.000000 0.000000 0.000000 0.000000 0.000000 0.000000
    26 0.000000 0.000000 0.000000 0.000000 0.000000 0.000000
    27 0.000000 0.000000 0.000000 0.000000 0.000000 0.000000
    28 0.000000 0.000000 0.000000 0.000000 0.000000 0.000000
    29 0.000000 0.000000 0.000000 0.000000 0.000000 0.000000
    30 0.000000 0.000000 0.000000 0.000000 0.000000 0.000000
    31 0.000000 0.000000 0.000000 0.000000 0.000000 0.000000
    32 0.000000 0.000000 0.000000 0.000000 0.000000 0.000000
    33 0.000000 0.000000 0.000000 0.000000 0.000000 0.000000
    34 0.000000 0.000000 0.000000 0.000000 0.000000 0.000000
    35 0.000000 0.000000 0.000000 0.000000 0.000000 0.000000
    36 0.000000 0.000000 0.000000 0.000000 0.000000 0.000000
    37 0.000000 0.000000 0.000000 0.000000 0.000000 0.000000
  time 5
    0 0.520996 2.429688 -1.039063 0.026718 -0.204196 -1.465856
    1 0.000000 0.000000 0.000000 0.040835 -0.000002 0.000122
    2 0.000000 0.000000 0.000000 -0.037879 -0.269764 0.085989
    3 0.000000 0.000000 0.000000 -0.187600 -0.322231 0.023000
    4 0.000000 0.000000 0.000000 0.118504 -0.024978 0.039612
    5 0.000000 0.000000 0.000000 -0.000666 0.000652 -0.487982
    6 0.000000 0.000000 0.000000 -0.499152 0.639209 -0.016110
    7 0.000000 0.000000 0.000000 0.000000 0.000000 -0.601431
    8 0.000000 0.000000 0.000000 0.000000 0.000000 0.000000
    9 0.000000 0.000000 0.000000 -0.606620 -0.133117 0.400318
    10 0.000000 0.000000 0.000000 0.000000 0.169821 0.000000
    11 0.000000 0.000000 0.000000 0.207732 -0.295201 -0.308928
    12 0.000000 0.000000 0.000000 -0.060974 -0.144271 -0.003184
    13 0.000000 0.000000 0.000000 0.000000 0.000000 0.040408
    14 0.000000 0.000000 0.000000 -0.046773 0.185053 0.251793
    15 0.000000 0.000000 0.000000 0.056579 0.095463 0.358888
    16 0.000000 0.000000 0.000000 0.620674 0.737763 -0.094587
    17 0.000000 0.000000 0.000000 0.000000 0.000000 0.000000
    18 0.000000 0.000000 0.000000 0.000000 0.000000 0.000000
    19 0.000000 0.000000 0.000000 0.000000 0.000000 0.000000
    20 0.000000 0.000000 0.000000 0.000000 0.000000 0.000000
    21 0.000000 0.000000 0.000000 0.000000 0.000000 0.000000
    22 0.000000 0.000000 0.000000 0.000000 0.000000 0.000000
    23 0.000000 0.000000 0.000000 0.000000 0.000000 0.000000
    24 0.000000 0.000000 0.000000 0.000000 0.000000 0.000000
    25 0.000000 0.000000 0.000000 0.000000 0.000000 0.000000
    26 0.000000 0.000000 0.000000 0.000000 0.000000 0.000000
    27 0.000000 0.000000 0.000000 0.000000 0.000000 0.000000
    28 0.000000 0.000000 0.000000 0.000000 0.000000 0.000000
    29 0.000000 0.000000 0.000000 0.000000 0.000000 0.000000
    30 0.000000 0.000000 0.000000 0.000000 0.000000 0.000000
    31 0.000000 0.000000 0.000000 0.000000 0.000000 0.000000
    32 0.000000 0.000000 0.000000 0.000000 0.000000 0.000000
    33 0.000000 0.000000 0.000000 0.000000 0.000000 0.000000
    34 0.000000 0.000000 0.000000 0.000000 0.000000 0.000000
    35 0.000000 0.000000 0.000000 0.000000 0.000000 0.000000
    36 0.000000 0.000000 0.000000 0.000000 0.000000 0.000000
    37 0.000000 0.000000 0.000000 0.000000 0.000000 0.000000
  time 6
    0 0.251221 2.177734 -0.790527 0.075322 -0.195449 -1.481672
    1 0.000000 0.000000 0.000000 0.053229 -0.000003 0.000122
    2 0.000000 0.000000 0.000000 -0.005791 -0.219115 0.061559
    3 0.000000 0.000000 0.000000 -0.162725 -0.335651 0.034584
    4 0.000000 0.000000 0.000000 0.110725 0.008521 0.016121
    5 0.000000 0.000000 0.000000 -0.000851 0.000925 -0.472524
    6 0.000000 0.000000 0.000000 -0.437133 0.514928 0.023467
    7 0.000000 0.000000 0.000000 0.000000 0.000000 -0.490875
    8 0.000000 0.000000 0.000000 0.000000 0.000000 0.000000
    9 0.000000 0.000000 0.000000 -0.510843 -0.191372 0.342190
    10 0.000000 0.000000 0.000000 0.000000 0.138110 0.000000
    11 0.000000 0.000000 0.000000 0.201191 -0.258884 -0.311040
    12 0.000000 0.000000 0.000000 -0.028907 -0.130935 -0.049985
    13 0.000000 0.000000 0.000000 0.000000 0.000000 0.035769
    14 0.000000 0.000000 0.000000 -0.043769 0.162353 0.235644
    15 0.000000 0.000000 0.000000 -0.033068 0.151723 0.442543
    16 0.000000 0.000000 0.000000 0.678903 0.841832 -0.074553
    17 0.000000 0.000000 0.000000 0.000000 0.000000 0.000000
    18 0.000000 0.000000 0.000000 0.000000 0.000000 0.000000
    19 0.000000 0.000000 0.000000 0.000000 0.000000 0.000000
    20 0.000000 0.000000 0.000000 0.000000 0.000000 0.000000
    21 0.000000 0.000000 0.000000 0.000000 0.000000 0.000000
    22 0.000000 0.000000 0.000000 0.000000 0.000000 0.000000
    23 0.000000 0.000000 0.000000 0.000000 0.000000 0.000000
    24 0.000000 0.000000 0.000000 0.000000 0.000000 0.000000
    25 0.000000 0.000000 0.000000 0.000000 0.000000 0.000000
    26 0.000000 0.000000 0.000000 0.000000 0.000000 0.000000
    27 0.000000 0.000000 0.000000 0.000000 0.000000 0.000000
    28 0.000000 0.000000 0.000000 0.000000 0.000000 0.000000
    29 0.000000 0.000000 0.000000 0.000000 0.000000 0.000000
    30 0.000000 0.000000 0.000000 0.000000 0.000000 0.000000
    31 0.000000 0.000000 0.000000 0.000000 0.000000 0.000000
    32 0.000000 0.000000 0.000000 0.000000 0.000000 0.000000
    33 0.000000 0.000000 0.000000 0.000000 0.000000 0.000000
    34 0.000000 0.000000 0.000000 0.000000 0.000000 0.000000
    35 0.000000 0.000000 0.000000 0.000000 0.000000 0.000000
    36 0.000000 0.000000 0.000000 0.000000 0.000000 0.000000
    37 0.000000 0.000000 0.000000 0.000000 0.000000 0.000000
  time 7
    0 -0.034210 1.966797 -0.597656 0.113680 -0.183823 -1.493712
    1 0.000000 0.000000 0.000000 0.065075 0.000000 0.000000
    2 0.000000 0.000000 0.000000 0.024263 -0.168533 0.041324
    3 0.000000 0.000000 0.000000 -0.135888 -0.344904 0.043202
    4 0.000000 0.000000 0.000000 0.102464 0.040879 -0.006951
    5 0.000000 0.000000 0.000000 -0.001076 0.001129 -0.455591
    6 0.000000 0.000000 0.000000 -0.384147 0.379282 0.062654
    7 0.000000 0.000000 0.000000 0.000000 0.000000 -0.364688
    8 0.000000 0.000000 0.000000 0.000000 0.000000 0.000000
    9 0.000000 0.000000 0.000000 -0.369268 -0.244245 0.268940
    10 0.000000 0.000000 0.000000 0.000000 0.112058 0.000000
    11 0.000000 0.000000 0.000000 0.174091 -0.203555 -0.272606
    12 0.000000 0.000000 0.000000 -0.000327 -0.120998 -0.089529
    13 0.000000 0.000000 0.000000 0.000000 0.000000 0.033449
    14 0.000000 0.000000 0.000000 -0.040780 0.139079 0.218774
    15 0.000000 0.000000 0.000000 -0.123934 0.204223 0.511979
    16 0.000000 0.000000 0.000000 0.724101 0.927148 -0.066793
    17 0.000000 0.000000 0.000000 0.000000 0.000000 0.000000
    18 0.000000 0.000000 0.000000 0.000000 0.000000 0.000000
    19 0.000000 0.000000 0.000000 0.000000 0.000000 0.000000
    20 0.000000 0.000000 0.000000 0.000000 0.000000 0.000000
    21 0.000000 0.000000 0.000000 0.000000 0.000000 0.000000
    22 0.000000 0.000000 0.000000 0.000000 0.000000 0.000000
    23 0.000000 0.000000 0.000000 0.000000 0.000000 0.000000
    24 0.000000 0.000000 0.000000 0.000000 0.000000 0.000000
    25 0.000000 0.000000 0.000000 0.000000 0.000000 0.000000
    26 0.000000 0.000000 0.000000 0.000000 0.000000 0.000000
    27 0.000000 0.000000 0.000000 0.000000 0.000000 0.000000
    28 0.000000 0.000000 0.000000 0.000000 0.000000 0.000000
    29 0.000000 0.000000 0.000000 0.000000 0.000000 0.000000
    30 0.000000 0.000000 0.000000 0.000000 0.000000 0.000000
    31 0.000000 0.000000 0.000000 0.000000 0.000000 0.000000
    32 0.000000 0.000000 0.000000 0.000000 0.000000 0.000000
    33 0.000000 0.000000 0.000000 0.000000 0.000000 0.000000
    34 0.000000 0.000000 0.000000 0.000000 0.000000 0.000000
    35 0.000000 0.000000 0.000000 0.000000 0.000000 0.000000
    36 0.000000 0.000000 0.000000 0.000000 0.000000 0.000000
    37 0.000000 0.000000 0.000000 0.000000 0.000000 0.000000
  time 8
    0 -0.324707 1.813477 -0.481934 0.137401 -0.169205 -1.500539
    1 0.000000 0.000000 0.000000 0.075152 0.000000 0.000000
    2 0.000000 0.000000 0.000000 0.049999 -0.122611 0.026415
    3 0.000000 0.000000 0.000000 -0.108084 -0.346751 0.047120
    4 0.000000 0.000000 0.000000 0.094463 0.069358 -0.028148
    5 0.000000 0.000000 0.000000 -0.001298 0.001337 -0.437315
    6 0.000000 0.000000 0.000000 -0.344677 0.244920 0.098190
    7 0.000000 0.000000 0.000000 0.000000 0.000000 -0.234300
    8 0.000000 0.000000 0.000000 0.000000 0.000000 0.000000
    9 0.000000 0.000000 0.000000 -0.185932 -0.279499 0.181501
    10 0.000000 0.000000 0.000000 0.000000 0.095129 0.000000
    11 0.000000 0.000000 0.000000 0.130084 -0.128388 -0.193366
    12 0.000000 0.000000 0.000000 0.021965 -0.116535 -0.118130
    13 0.000000 0.000000 0.000000 0.000000 0.000000 0.034426
    14 0.000000 0.000000 0.000000 -0.038345 0.116414 0.201871
    15 0.000000 0.000000 0.000000 -0.209428 0.244403 0.564257
    16 0.000000 0.000000 0.000000 0.742332 0.981113 -0.078659
    17 0.000000 0.000000 0.000000 0.000000 0.000000 0.000000
    18 0.000000 0.000000 0.000000 0.000000 0.000000 0.000000
    19 0.000000 0.000000 0.000000 0.000000 0.000000 0.000000
    20 0.000000 0.000000 0.000000 0.000000 0.000000 0.000000
    21 0.000000 0.000000 0.000000 0.000000 0.000000 0.000000
    22 0.000000 0.000000 0.000000 0.000000 0.000000 0.000000
    23 0.000000 0.000000 0.000000 0.000000 0.000000 0.000000
    24 0.000000 0.000000 0.000000 0.000000 0.000000 0.000000
    25 0.000000 0.000000 0.000000 0.000000 0.000000 0.000000
    26 0.000000 0.000000 0.000000 0.000000 0.000000 0.000000
    27 0.000000 0.000000 0.000000 0.000000 0.000000 0.000000
    28 0.000000 0.000000 0.000000 0.000000 0.000000 0.000000
    29 0.000000 0.000000 0.000000 0.000000 0.000000 0.000000
    30 0.000000 0.000000 0.000000 0.000000 0.000000 0.000000
    31 0.000000 0.000000 0.000000 0.000000 0.000000 0.000000
    32 0.000000 0.000000 0.000000 0.000000 0.000000 0.000000
    33 0.000000 0.000000 0.000000 0.000000 0.000000 0.000000
    34 0.000000 0.000000 0.000000 0.000000 0.000000 0.000000
    35 0.000000 0.000000 0.000000 0.000000 0.000000 0.000000
    36 0.000000 0.000000 0.000000 0.000000 0.000000 0.000000
    37 0.000000 0.000000 0.000000 0.000000 0.000000 0.000000
  time 9
    0 -0.612793 1.712891 -0.440918 0.149546 -0.153167 -1.504683
    1 0.000000 0.000000 0.000000 0.082482 0.000000 0.000000
    2 0.000000 0.000000 0.000000 0.069161 -0.085884 0.017322
    3 0.000000 0.000000 0.000000 -0.080529 -0.336387 0.045280
    4 0.000000 0.000000 0.000000 0.087750 0.091527 -0.044910
    5 0.000000 0.000000 0.000000 -0.001455 0.001563 -0.417829
    6 0.000000 0.000000 0.000000 -0.316146 0.122205 0.127499
    7 0.000000 0.000000 0.000000 0.000000 0.000000 -0.116032
    8 0.000000 0.000000 0.000000 0.000000 0.000000 0.000000
    9 0.000000 0.000000 0.000000 0.016523 -0.290339 0.086688
    10 0.000000 0.000000 0.000000 0.000000 0.086208 0.000000
    11 0.000000 0.000000 0.000000 0.081885 -0.037658 -0.086738
    12 0.000000 0.000000 0.000000 0.039052 -0.114661 -0.138828
    13 0.000000 0.000000 0.000000 0.000000 0.000000 0.039920
    14 0.000000 0.000000 0.000000 -0.037407 0.094910 0.184894
    15 0.000000 0.000000 0.000000 -0.284668 0.270688 0.601101
    16 0.000000 0.000000 0.000000 0.719374 0.990275 -0.117393
    17 0.000000 0.000000 0.000000 0.000000 0.000000 0.000000
    18 0.000000 0.000000 0.000000 0.000000 0.000000 0.000000
    19 0.000000 0.000000 0.000000 0.000000 0.000000 0.000000
    20 0.000000 0.000000 0.000000 0.000000 0.000000 0.000000
    21 0.000000 0.000000 0.000000 0.000000 0.000000 0.000000
    22 0.000000 0.000000 0.000000 0.000000 0.000000 0.000000
    23 0.000000 0.000000 0.000000 0.000000 0.000000 0.000000
    24 0.000000 0.000000 0.000000 0.000000 0.000000 0.000000
    25 0.000000 0.000000 0.000000 0.000000 0.000000 0.000000
    26 0.000000 0.000000 0.000000 0.000000 0.000000 0.000000
    27 0.000000 0.000000 0.000000 0.000000 0.000000 0.000000
    28 0.000000 0.000000 0.000000 0.000000 0.000000 0.000000
    29 0.000000 0.000000 0.000000 0.000000 0.000000 0.000000
    30 0.000000 0.000000 0.000000 0.000000 0.000000 0.000000
    31 0.000000 0.000000 0.000000 0.000000 0.000000 0.000000
    32 0.000000 0.000000 0.000000 0.000000 0.000000 0.000000
    33 0.000000 0.000000 0.000000 0.000000 0.000000 0.000000
    34 0.000000 0.000000 0.000000 0.000000 0.000000 0.000000
    35 0.000000 0.000000 0.000000 0.000000 0.000000 0.000000
    36 0.000000 0.000000 0.000000 0.000000 0.000000 0.000000
    37 0.000000 0.000000 0.000000 0.000000 0.000000 0.000000
  time 10
    0 -0.887695 1.655273 -0.467773 0.155932 -0.137452 -1.509248
    1 0.000000 0.000000 0.000000 0.085353 0.000000 0.000000
    2 0.000000 0.000000 0.000000 0.078326 -0.064964 0.014566
    3 0.000000 0.000000 0.000000 -0.054949 -0.306482 0.035797
    4 0.000000 0.000000 0.000000 0.083725 0.103878 -0.054133
    5 0.000000 0.000000 0.000000 -0.001606 0.001794 -0.397262
    6 0.000000 0.000000 0.000000 -0.295090 0.026209 0.146945
    7 0.000000 0.000000 0.000000 0.000000 0.000000 -0.036135
    8 0.000000 0.000000 0.000000 0.000000 0.000000 0.000000
    9 0.000000 0.000000 0.000000 0.195121 -0.281272 0.003382
    10 0.000000 0.000000 0.000000 0.000000 0.083032 0.000000
    11 0.000000 0.000000 0.000000 0.043955 0.053166 0.020224
    12 0.000000 0.000000 0.000000 0.052516 -0.111876 -0.156706
    13 0.000000 0.000000 0.000000 0.000000 0.000000 0.051397
    14 0.000000 0.000000 0.000000 -0.039031 0.075279 0.167707
    15 0.000000 0.000000 0.000000 -0.344091 0.282758 0.623901
    16 0.000000 0.000000 0.000000 0.663154 0.954719 -0.172999
    17 0.000000 0.000000 0.000000 0.000000 0.000000 0.000000
    18 0.000000 0.000000 0.000000 0.000000 0.000000 0.000000
    19 0.000000 0.000000 0.000000 0.000000 0.000000 0.000000
    20 0.000000 0.000000 0.000000 0.000000 0.000000 0.000000
    21 0.000000 0.000000 0.000000 0.000000 0.000000 0.000000
    22 0.000000 0.000000 0.000000 0.000000 0.000000 0.000000
    23 0.000000 0.000000 0.000000 0.000000 0.000000 0.000000
    24 0.000000 0.000000 0.000000 0.000000 0.000000 0.000000
    25 0.000000 0.000000 0.000000 0.000000 0.000000 0.000000
    26 0.000000 0.000000 0.000000 0.000000 0.000000 0.000000
    27 0.000000 0.000000 0.000000 0.000000 0.000000 0.000000
    28 0.000000 0.000000 0.000000 0.000000 0.000000 0.000000
    29 0.000000 0.000000 0.000000 0.000000 0.000000 0.000000
    30 0.000000 0.000000 0.000000 0.000000 0.000000 0.000000
    31 0.000000 0.000000 0.000000 0.000000 0.000000 0.000000
    32 0.000000 0.000000 0.000000 0.000000 0.000000 0.000000
    33 0.000000 0.000000 0.000000 0.000000 0.000000 0.000000
    34 0.000000 0.000000 0.000000 0.000000 0.000000 0.000000
    35 0.000000 0.000000 0.000000 0.000000 0.000000 0.000000
    36 0.000000 0.000000 0.000000 0.000000 0.000000 0.000000
    37 0.000000 0.000000 0.000000 0.000000 0.000000 0.000000
  time 11
    0 -1.134766 1.644531 -0.562012 0.157095 -0.122316 -1.514056
    1 0.000000 0.000000 0.000000 0.084925 0.000000 0.000000
    2 0.000000 0.000000 0.000000 0.080384 -0.055109 0.015260
    3 0.000000 0.000000 0.000000 -0.037172 -0.265835 0.024679
    4 0.000000 0.000000 0.000000 0.081332 0.108733 -0.057736
    5 0.000000 0.000000 0.000000 -0.001752 0.002028 -0.375744
    6 0.000000 0.000000 0.000000 -0.280589 -0.033944 0.157340
    7 0.000000 0.000000 0.000000 0.000000 0.000000 -0.003662
    8 0.000000 0.000000 0.000000 0.000000 0.000000 0.000000
    9 0.000000 0.000000 0.000000 0.311202 -0.265700 -0.049399
    10 0.000000 0.000000 0.000000 0.000000 0.086086 0.000000
    11 0.000000 0.000000 0.000000 0.021780 0.126575 0.103931
    12 0.000000 0.000000 0.000000 0.061316 -0.108636 -0.172566
    13 0.000000 0.000000 0.000000 0.000000 0.000000 0.068373
    14 0.000000 0.000000 0.000000 -0.043073 0.058567 0.151698
    15 0.000000 0.000000 0.000000 -0.384385 0.280004 0.635595
    16 0.000000 0.000000 0.000000 0.593404 0.885056 -0.228207
    17 0.000000 0.000000 0.000000 0.000000 0.000000 0.000000
    18 0.000000 0.000000 0.000000 0.000000 0.000000 0.000000
    19 0.000000 0.000000 0.000000 0.000000 0.000000 0.000000
    20 0.000000 0.000000 0.000000 0.000000 0.000000 0.000000
    21 0.000000 0.000000 0.000000 0.000000 0.000000 0.000000
    22 0.000000 0.000000 0.000000 0.000000 0.000000 0.000000
    23 0.000000 0.000000 0.000000 0.000000 0.000000 0.000000
    24 0.000000 0.000000 0.000000 0.000000 0.000000 0.000000
    25 0.000000 0.000000 0.000000 0.000000 0.000000 0.000000
    26 0.000000 0.000000 0.000000 0.000000 0.000000 0.000000
    27 0.000000 0.000000 0.000000 0.000000 0.000000 0.000000
    28 0.000000 0.000000 0.000000 0.000000 0.000000 0.000000
    29 0.000000 0.000000 0.000000 0.000000 0.000000 0.000000
    30 0.000000 0.000000 0.000000 0.000000 0.000000 0.000000
    31 0.000000 0.000000 0.000000 0.000000 0.000000 0.000000
    32 0.000000 0.000000 0.000000 0.000000 0.000000 0.000000
    33 0.000000 0.000000 0.000000 0.000000 0.000000 0.000000
    34 0.000000 0.000000 0.000000 0.000000 0.000000 0.000000
    35 0.000000 0.000000 0.000000 0.000000 0.000000 0.000000
    36 0.000000 0.000000 0.000000 0.000000 0.000000 0.000000
    37 0.000000 0.000000 0.000000 0.000000 0.000000 0.000000
  time 12
    0 -1.341797 1.680664 -0.710449 0.153850 -0.107632 -1.519258
    1 0.000000 0.000000 0.000000 0.083643 0.000000 0.000000
    2 0.000000 0.000000 0.000000 0.081288 -0.046092 0.015723
    3 0.000000 0.000000 0.000000 -0.025810 -0.229376 0.017106
    4 0.000000 0.000000 0.000000 0.078417 0.111687 -0.060351
    5 0.000000 0.000000 0.000000 -0.001882 0.002206 -0.353277
    6 0.000000 0.000000 0.000000 -0.269194 -0.070489 0.165260
    7 0.000000 0.000000 0.000000 0.000000 0.000000 -0.002808
    8 0.000000 0.000000 0.000000 0.000000 0.000000 0.000000
    9 0.000000 0.000000 0.000000 0.372794 -0.252839 -0.078099
    10 0.000000 0.000000 0.000000 0.000000 0.094334 0.000000
    11 0.000000 0.000000 0.000000 0.009413 0.178032 0.158858
    12 0.000000 0.000000 0.000000 0.066420 -0.104312 -0.186323
    13 0.000000 0.000000 0.000000 0.000000 0.000000 0.089385
    14 0.000000 0.000000 0.000000 -0.048457 0.044183 0.136073
    15 0.000000 0.000000 0.000000 -0.412276 0.269342 0.638466
    16 0.000000 0.000000 0.000000 0.522574 0.791447 -0.273469
    17 0.000000 0.000000 0.000000 0.000000 0.000000 0.000000
    18 0.000000 0.000000 0.000000 0.000000 0.000000 0.000000
    19 0.000000 0.000000 0.000000 0.000000 0.000000 0.000000
    20 0.000000 0.000000 0.000000 0.000000 0.000000 0.000000
    21 0.000000 0.000000 0.000000 0.000000 0.000000 0.000000
    22 0.000000 0.000000 0.000000 0.000000 0.000000 0.000000
    23 0.000000 0.000000 0.000000 0.000000 0.000000 0.000000
    24 0.000000 0.000000 0.000000 0.000000 0.000000 0.000000
    25 0.000000 0.000000 0.000000 0.000000 0.000000 0.000000
    26 0.000000 0.000000 0.000000 0.000000 0.000000 0.000000
    27 0.000000 0.000000 0.000000 0.000000 0.000000 0.000000
    28 0.000000 0.000000 0.000000 0.000000 0.000000 0.000000
    29 0.000000 0.000000 0.000000 0.000000 0.000000 0.000000
    30 0.000000 0.000000 0.000000 0.000000 0.000000 0.000000
    31 0.000000 0.000000 0.000000 0.000000 0.000000 0.000000
    32 0.000000 0.000000 0.000000 0.000000 0.000000 0.000000
    33 0.000000 0.000000 0.000000 0.000000 0.000000 0.000000
    34 0.000000 0.000000 0.000000 0.000000 0.000000 0.000000
    35 0.000000 0.000000 0.000000 0.000000 0.000000 0.000000
    36 0.000000 0.000000 0.000000 0.000000 0.000000 0.000000
    37 0.000000 0.000000 0.000000 0.000000 0.000000 0.000000
  time 13
    0 -1.488281 1.746094 -0.869141 0.146743 -0.093527 -1.524735
    1 0.000000 0.000000 0.000000 0.081566 0.000000 0.000000
    2 0.000000 0.000000 0.000000 0.081095 -0.037917 0.016058
    3 0.000000 0.000000 0.000000 -0.017700 -0.196576 0.011559
    4 0.000000 0.000000 0.000000 0.075052 0.112804 -0.061964
    5 0.000000 0.000000 0.000000 -0.001936 0.002338 -0.329989
    6 0.000000 0.000000 0.000000 -0.259576 -0.089533 0.172184
    7 0.000000 0.000000 0.000000 0.000000 0.000000 -0.023682
    8 0.000000 0.000000 0.000000 0.000000 0.000000 0.000000
    9 0.000000 0.000000 0.000000 0.404178 -0.241446 -0.095128
    10 0.000000 0.000000 0.000000 0.000000 0.104112 0.000000
    11 0.000000 0.000000 0.000000 0.000317 0.210977 0.191082
    12 0.000000 0.000000 0.000000 0.068769 -0.098269 -0.196411
    13 0.000000 0.000000 0.000000 0.000000 0.000000 0.109919
    14 0.000000 0.000000 0.000000 -0.052844 0.031446 0.120394
    15 0.000000 0.000000 0.000000 -0.429686 0.252716 0.633299
    16 0.000000 0.000000 0.000000 0.457984 0.685338 -0.304302
    17 0.000000 0.000000 0.000000 0.000000 0.000000 0.000000
    18 0.000000 0.000000 0.000000 0.000000 0.000000 0.000000
    19 0.000000 0.000000 0.000000 0.000000 0.000000 0.000000
    20 0.000000 0.000000 0.000000 0.000000 0.000000 0.000000
    21 0.000000 0.000000 0.000000 0.000000 0.000000 0.000000
    22 0.000000 0.000000 0.000000 0.000000 0.000000 0.000000
    23 0.000000 0.000000 0.000000 0.000000 0.000000 0.000000
    24 0.000000 0.000000 0.000000 0.000000 0.000000 0.000000
    25 0.000000 0.000000 0.000000 0.000000 0.000000 0.000000
    26 0.000000 0.000000 0.000000 0.000000 0.000000 0.000000
    27 0.000000 0.000000 0.000000 0.000000 0.000000 0.000000
    28 0.000000 0.000000 0.000000 0.000000 0.000000 0.000000
    29 0.000000 0.000000 0.000000 0.000000 0.000000 0.000000
    30 0.000000 0.000000 0.000000 0.000000 0.000000 0.000000
    31 0.000000 0.000000 0.000000 0.000000 0.000000 0.000000
    32 0.000000 0.000000 0.000000 0.000000 0.000000 0.000000
    33 0.000000 0.000000 0.000000 0.000000 0.000000 0.000000
    34 0.000000 0.000000 0.000000 0.000000 0.000000 0.000000
    35 0.000000 0.000000 0.000000 0.000000 0.000000 0.000000
    36 0.000000 0.000000 0.000000 0.000000 0.000000 0.000000
    37 0.000000 0.000000 0.000000 0.000000 0.000000 0.000000
  time 14
    0 -1.544922 1.805664 -0.961426 0.136501 -0.080137 -1.530231
    1 0.000000 0.000000 0.000000 0.078756 0.000000 0.000000
    2 0.000000 0.000000 0.000000 0.079804 -0.030577 0.016129
    3 0.000000 0.000000 0.000000 -0.011775 -0.167269 0.007480
    4 0.000000 0.000000 0.000000 0.071313 0.112087 -0.062440
    5 0.000000 0.000000 0.000000 -0.001978 0.002412 -0.306005
    6 0.000000 0.000000 0.000000 -0.251197 -0.097411 0.179046
    7 0.000000 0.000000 0.000000 0.000000 0.000000 -0.053717
    8 0.000000 0.000000 0.000000 0.000000 0.000000 0.000000
    9 0.000000 0.000000 0.000000 0.411738 -0.228566 -0.103779
    10 0.000000 0.000000 0.000000 0.000000 0.108879 0.000000
    11 0.000000 0.000000 0.000000 -0.004890 0.227066 0.207700
    12 0.000000 0.000000 0.000000 0.067163 -0.091211 -0.199374
    13 0.000000 0.000000 0.000000 0.000000 0.000000 0.122635
    14 0.000000 0.000000 0.000000 -0.053211 0.021356 0.106216
    15 0.000000 0.000000 0.000000 -0.437269 0.231525 0.621021
    16 0.000000 0.000000 0.000000 0.403882 0.579708 -0.319630
    17 0.000000 0.000000 0.000000 0.000000 0.000000 0.000000
    18 0.000000 0.000000 0.000000 0.000000 0.000000 0.000000
    19 0.000000 0.000000 0.000000 0.000000 0.000000 0.000000
    20 0.000000 0.000000 0.000000 0.000000 0.000000 0.000000
    21 0.000000 0.000000 0.000000 0.000000 0.000000 0.000000
    22 0.000000 0.000000 0.000000 0.000000 0.000000 0.000000
    23 0.000000 0.000000 0.000000 0.000000 0.000000 0.000000
    24 0.000000 0.000000 0.000000 0.000000 0.000000 0.000000
    25 0.000000 0.000000 0.000000 0.000000 0.000000 0.000000
    26 0.000000 0.000000 0.000000 0.000000 0.000000 0.000000
    27 0.000000 0.000000 0.000000 0.000000 0.000000 0.000000
    28 0.000000 0.000000 0.000000 0.000000 0.000000 0.000000
    29 0.000000 0.000000 0.000000 0.000000 0.000000 0.000000
    30 0.000000 0.000000 0.000000 0.000000 0.000000 0.000000
    31 0.000000 0.000000 0.000000 0.000000 0.000000 0.000000
    32 0.000000 0.000000 0.000000 0.000000 0.000000 0.000000
    33 0.000000 0.000000 0.000000 0.000000 0.000000 0.000000
    34 0.000000 0.000000 0.000000 0.000000 0.000000 0.000000
    35 0.000000 0.000000 0.000000 0.000000 0.000000 0.000000
    36 0.000000 0.000000 0.000000 0.000000 0.000000 0.000000
    37 0.000000 0.000000 0.000000 0.000000 0.000000 0.000000
  time 15
    0 -1.506836 1.794922 -0.963379 0.123681 -0.067506 -1.535693
    1 0.000000 0.000000 0.000000 0.075152 0.000000 0.000000
    2 0.000000 0.000000 0.000000 0.077534 -0.024013 0.015928
    3 0.000000 0.000000 0.000000 -0.007218 -0.140910 0.004303
    4 0.000000 0.000000 0.000000 0.067121 0.109730 -0.062012
    5 0.000000 0.000000 0.000000 -0.001956 0.002497 -0.281325
    6 0.000000 0.000000 0.000000 -0.242989 -0.099261 0.185462
    7 0.000000 0.000000 0.000000 0.000000 0.000000 -0.083398
    8 0.000000 0.000000 0.000000 0.000000 0.000000 0.000000
    9 0.000000 0.000000 0.000000 0.399910 -0.211632 -0.105666
    10 0.000000 0.000000 0.000000 0.000000 0.106679 0.000000
    11 0.000000 0.000000 0.000000 -0.007771 0.228503 0.213068
    12 0.000000 0.000000 0.000000 0.061781 -0.083374 -0.192940
    13 0.000000 0.000000 0.000000 0.000000 0.000000 0.124959
    14 0.000000 0.000000 0.000000 -0.049945 0.014004 0.093222
    15 0.000000 0.000000 0.000000 -0.435539 0.206562 0.601603
    16 0.000000 0.000000 0.000000 0.362953 0.486227 -0.317959
    17 0.000000 0.000000 0.000000 0.000000 0.000000 0.000000
    18 0.000000 0.000000 0.000000 0.000000 0.000000 0.000000
    19 0.000000 0.000000 0.000000 0.000000 0.000000 0.000000
    20 0.000000 0.000000 0.000000 0.000000 0.000000 0.000000
    21 0.000000 0.000000 0.000000 0.000000 0.000000 0.000000
    22 0.000000 0.000000 0.000000 0.000000 0.000000 0.000000
    23 0.000000 0.000000 0.000000 0.000000 0.000000 0.000000
    24 0.000000 0.000000 0.000000 0.000000 0.000000 0.000000
    25 0.000000 0.000000 0.000000 0.000000 0.000000 0.000000
    26 0.000000 0.000000 0.000000 0.000000 0.000000 0.000000
    27 0.000000 0.000000 0.000000 0.000000 0.000000 0.000000
    28 0.000000 0.000000 0.000000 0.000000 0.000000 0.000000
    29 0.000000 0.000000 0.000000 0.000000 0.000000 0.000000
    30 0.000000 0.000000 0.000000 0.000000 0.000000 0.000000
    31 0.000000 0.000000 0.000000 0.000000 0.000000 0.000000
    32 0.000000 0.000000 0.000000 0.000000 0.000000 0.000000
    33 0.000000 0.000000 0.000000 0.000000 0.000000 0.000000
    34 0.000000 0.000000 0.000000 0.000000 0.000000 0.000000
    35 0.000000 0.000000 0.000000 0.000000 0.000000 0.000000
    36 0.000000 0.000000 0.000000 0.000000 0.000000 0.000000
    37 0.000000 0.000000 0.000000 0.000000 0.000000 0.000000
  time 16
    0 -1.404297 1.695313 -0.915039 0.108901 -0.055669 -1.541054
    1 0.000000 0.000000 0.000000 0.070816 0.000000 0.000000
    2 0.000000 0.000000 0.000000 0.074223 -0.018104 0.015453
    3 0.000000 0.000000 0.000000 -0.003843 -0.117129 0.001937
    4 0.000000 0.000000 0.000000 0.062537 0.105681 -0.060665
    5 0.000000 0.000000 0.000000 -0.001924 0.002522 -0.255827
    6 0.000000 0.000000 0.000000 -0.233895 -0.098482 0.190620
    7 0.000000 0.000000 0.000000 0.000000 0.000000 -0.106373
    8 0.000000 0.000000 0.000000 0.000000 0.000000 0.000000
    9 0.000000 0.000000 0.000000 0.371691 -0.191586 -0.101514
    10 0.000000 0.000000 0.000000 0.000000 0.100628 0.000000
    11 0.000000 0.000000 0.000000 -0.010797 0.217795 0.207095
    12 0.000000 0.000000 0.000000 0.053990 -0.074814 -0.178708
    13 0.000000 0.000000 0.000000 0.000000 0.000000 0.120556
    14 0.000000 0.000000 0.000000 -0.045840 0.008565 0.080414
    15 0.000000 0.000000 0.000000 -0.424781 0.178916 0.575380
    16 0.000000 0.000000 0.000000 0.330338 0.411283 -0.304103
    17 0.000000 0.000000 0.000000 0.000000 0.000000 0.000000
    18 0.000000 0.000000 0.000000 0.000000 0.000000 0.000000
    19 0.000000 0.000000 0.000000 0.000000 0.000000 0.000000
    20 0.000000 0.000000 0.000000 0.000000 0.000000 0.000000
    21 0.000000 0.000000 0.000000 0.000000 0.000000 0.000000
    22 0.000000 0.000000 0.000000 0.000000 0.000000 0.000000
    23 0.000000 0.000000 0.000000 0.000000 0.000000 0.000000
    24 0.000000 0.000000 0.000000 0.000000 0.000000 0.000000
    25 0.000000 0.000000 0.000000 0.000000 0.000000 0.000000
    26 0.000000 0.000000 0.000000 0.000000 0.000000 0.000000
    27 0.000000 0.000000 0.000000 0.000000 0.000000 0.000000
    28 0.000000 0.000000 0.000000 0.000000 0.000000 0.000000
    29 0.000000 0.000000 0.000000 0.000000 0.000000 0.000000
    30 0.000000 0.000000 0.000000 0.000000 0.000000 0.000000
    31 0.000000 0.000000 0.000000 0.000000 0.000000 0.000000
    32 0.000000 0.000000 0.000000 0.000000 0.000000 0.000000
    33 0.000000 0.000000 0.000000 0.000000 0.000000 0.000000
    34 0.000000 0.000000 0.000000 0.000000 0.000000 0.000000
    35 0.000000 0.000000 0.000000 0.000000 0.000000 0.000000
    36 0.000000 0.000000 0.000000 0.000000 0.000000 0.000000
    37 0.000000 0.000000 0.000000 0.000000 0.000000 0.000000
  time 17
    0 -1.253906 1.529297 -0.828613 0.093023 -0.044832 -1.546358
    1 0.000000 0.000000 0.000000 0.065808 0.000000 0.000000
    2 0.000000 0.000000 0.000000 0.069928 -0.013038 0.014813
    3 0.000000 0.000000 0.000000 -0.001292 -0.095923 0.000184
    4 0.000000 0.000000 0.000000 0.057556 0.100066 -0.058264
    5 0.000000 0.000000 0.000000 -0.001831 0.002553 -0.229879
    6 0.000000 0.000000 0.000000 -0.222741 -0.097238 0.193138
    7 0.000000 0.000000 0.000000 0.000000 0.000000 -0.119211
    8 0.000000 0.000000 0.000000 0.000000 0.000000 0.000000
    9 0.000000 0.000000 0.000000 0.331174 -0.169015 -0.092530
    10 0.000000 0.000000 0.000000 0.000000 0.091340 0.000000
    11 0.000000 0.000000 0.000000 -0.013533 0.197528 0.191798
    12 0.000000 0.000000 0.000000 0.044866 -0.065647 -0.158865
    13 0.000000 0.000000 0.000000 0.000000 0.000000 0.111019
    14 0.000000 0.000000 0.000000 -0.040996 0.004938 0.068042
    15 0.000000 0.000000 0.000000 -0.405478 0.149958 0.542375
    16 0.000000 0.000000 0.000000 0.298531 0.350496 -0.284973
    17 0.000000 0.000000 0.000000 0.000000 0.000000 0.000000
    18 0.000000 0.000000 0.000000 0.000000 0.000000 0.000000
    19 0.000000 0.000000 0.000000 0.000000 0.000000 0.000000
    20 0.000000 0.000000 0.000000 0.000000 0.000000 0.000000
    21 0.000000 0.000000 0.000000 0.000000 0.000000 0.000000
    22 0.000000 0.000000 0.000000 0.000000 0.000000 0.000000
    23 0.000000 0.000000 0.000000 0.000000 0.000000 0.000000
    24 0.000000 0.000000 0.000000 0.000000 0.000000 0.000000
    25 0.000000 0.000000 0.000000 0.000000 0.000000 0.000000
    26 0.000000 0.000000 0.000000 0.000000 0.000000 0.000000
    27 0.000000 0.000000 0.000000 0.000000 0.000000 0.000000
    28 0.000000 0.000000 0.000000 0.000000 0.000000 0.000000
    29 0.000000 0.000000 0.000000 0.000000 0.000000 0.000000
    30 0.000000 0.000000 0.000000 0.000000 0.000000 0.000000
    31 0.000000 0.000000 0.000000 0.000000 0.000000 0.000000
    32 0.000000 0.000000 0.000000 0.000000 0.000000 0.000000
    33 0.000000 0.000000 0.000000 0.000000 0.000000 0.000000
    34 0.000000 0.000000 0.000000 0.000000 0.000000 0.000000
    35 0.000000 0.000000 0.000000 0.000000 0.000000 0.000000
    36 0.000000 0.000000 0.000000 0.000000 0.000000 0.000000
    37 0.000000 0.000000 0.000000 0.000000 0.000000 0.000000
  time 18
    0 -1.069336 1.315430 -0.714844 0.076538 -0.034952 -1.551364
    1 0.000000 0.000000 0.000000 0.060129 0.000000 0.000000
    2 0.000000 0.000000 0.000000 0.064650 -0.008693 0.013887
    3 0.000000 0.000000 0.000000 0.000466 -0.076923 -0.000995
    4 0.000000 0.000000 0.000000 0.052155 0.092842 -0.055039
    5 0.000000 0.000000 0.000000 -0.001724 0.002462 -0.203233
    6 0.000000 0.000000 0.000000 -0.208288 -0.096628 0.190860
    7 0.000000 0.000000 0.000000 0.000000 0.000000 -0.121046
    8 0.000000 0.000000 0.000000 0.000000 0.000000 0.000000
    9 0.000000 0.000000 0.000000 0.281565 -0.144305 -0.079825
    10 0.000000 0.000000 0.000000 0.000000 0.079550 0.000000
    11 0.000000 0.000000 0.000000 -0.015329 0.170071 0.168829
    12 0.000000 0.000000 0.000000 0.034932 -0.055892 -0.135061
    13 0.000000 0.000000 0.000000 0.000000 0.000000 0.097328
    14 0.000000 0.000000 0.000000 -0.035522 0.002770 0.056242
    15 0.000000 0.000000 0.000000 -0.377889 0.120436 0.502121
    16 0.000000 0.000000 0.000000 0.266342 0.300315 -0.260741
    17 0.000000 0.000000 0.000000 0.000000 0.000000 0.000000
    18 0.000000 0.000000 0.000000 0.000000 0.000000 0.000000
    19 0.000000 0.000000 0.000000 0.000000 0.000000 0.000000
    20 0.000000 0.000000 0.000000 0.000000 0.000000 0.000000
    21 0.000000 0.000000 0.000000 0.000000 0.000000 0.000000
    22 0.000000 0.000000 0.000000 0.000000 0.000000 0.000000
    23 0.000000 0.000000 0.000000 0.000000 0.000000 0.000000
    24 0.000000 0.000000 0.000000 0.000000 0.000000 0.000000
    25 0.000000 0.000000 0.000000 0.000000 0.000000 0.000000
    26 0.000000 0.000000 0.000000 0.000000 0.000000 0.000000
    27 0.000000 0.000000 0.000000 0.000000 0.000000 0.000000
    28 0.000000 0.000000 0.000000 0.000000 0.000000 0.000000
    29 0.000000 0.000000 0.000000 0.000000 0.000000 0.000000
    30 0.000000 0.000000 0.000000 0.000000 0.000000 0.000000
    31 0.000000 0.000000 0.000000 0.000000 0.000000 0.000000
    32 0.000000 0.000000 0.000000 0.000000 0.000000 0.000000
    33 0.000000 0.000000 0.000000 0.000000 0.000000 0.000000
    34 0.000000 0.000000 0.000000 0.000000 0.000000 0.000000
    35 0.000000 0.000000 0.000000 0.000000 0.000000 0.000000
    36 0.000000 0.000000 0.000000 0.000000 0.000000 0.000000
    37 0.000000 0.000000 0.000000 0.000000 0.000000 0.000000
  time 19
    0 -0.866699 1.072266 -0.583984 0.060125 -0.026094 -1.555948
    1 0.000000 0.000000 0.000000 0.053717 -0.000003 0.000122
    2 0.000000 0.000000 0.000000 0.058450 -0.005011 0.012676
    3 0.000000 0.000000 0.000000 0.001702 -0.060005 -0.001761
    4 0.000000 0.000000 0.000000 0.046333 0.084131 -0.050606
    5 0.000000 0.000000 0.000000 -0.001613 0.002309 -0.175888
    6 0.000000 0.000000 0.000000 -0.189498 -0.097275 0.181457
    7 0.000000 0.000000 0.000000 0.000000 0.000000 -0.111997
    8 0.000000 0.000000 0.000000 0.000000 0.000000 0.000000
    9 0.000000 0.000000 0.000000 0.226770 -0.117840 -0.064760
    10 0.000000 0.000000 0.000000 0.000000 0.065808 0.000000
    11 0.000000 0.000000 0.000000 -0.015726 0.138151 0.140362
    12 0.000000 0.000000 0.000000 0.025006 -0.045893 -0.109063
    13 0.000000 0.000000 0.000000 0.000000 0.000000 0.080955
    14 0.000000 0.000000 0.000000 -0.029633 0.001707 0.045150
    15 0.000000 0.000000 0.000000 -0.342309 0.091624 0.454365
    16 0.000000 0.000000 0.000000 0.233096 0.257767 -0.232247
    17 0.000000 0.000000 0.000000 0.000000 0.000000 0.000000
    18 0.000000 0.000000 0.000000 0.000000 0.000000 0.000000
    19 0.000000 0.000000 0.000000 0.000000 0.000000 0.000000
    20 0.000000 0.000000 0.000000 0.000000 0.000000 0.000000
    21 0.000000 0.000000 0.000000 0.000000 0.000000 0.000000
    22 0.000000 0.000000 0.000000 0.000000 0.000000 0.000000
    23 0.000000 0.000000 0.000000 0.000000 0.000000 0.000000
    24 0.000000 0.000000 0.000000 0.000000 0.000000 0.000000
    25 0.000000 0.000000 0.000000 0.000000 0.000000 0.000000
    26 0.000000 0.000000 0.000000 0.000000 0.000000 0.000000
    27 0.000000 0.000000 0.000000 0.000000 0.000000 0.000000
    28 0.000000 0.000000 0.000000 0.000000 0.000000 0.000000
    29 0.000000 0.000000 0.000000 0.000000 0.000000 0.000000
    30 0.000000 0.000000 0.000000 0.000000 0.000000 0.000000
    31 0.000000 0.000000 0.000000 0.000000 0.000000 0.000000
    32 0.000000 0.000000 0.000000 0.000000 0.000000 0.000000
    33 0.000000 0.000000 0.000000 0.000000 0.000000 0.000000
    34 0.000000 0.000000 0.000000 0.000000 0.000000 0.000000
    35 0.000000 0.000000 0.000000 0.000000 0.000000 0.000000
    36 0.000000 0.000000 0.000000 0.000000 0.000000 0.000000
    37 0.000000 0.000000 0.000000 0.000000 0.000000 0.000000
  time 20
    0 -0.658691 0.819336 -0.447266 0.044463 -0.018431 -1.560094
    1 0.000000 0.000000 0.000000 0.046635 -0.000003 0.000122
    2 0.000000 0.000000 0.000000 0.051264 -0.002118 0.011180
    3 0.000000 0.000000 0.000000 0.002432 -0.045167 -0.002253
    4 0.000000 0.000000 0.000000 0.040051 0.074017 -0.045316
    5 0.000000 0.000000 0.000000 -0.001380 0.002101 -0.148086
    6 0.000000 0.000000 0.000000 -0.166550 -0.097910 0.164336
    7 0.000000 0.000000 0.000000 0.000000 0.000000 -0.094640
    8 0.000000 0.000000 0.000000 0.000000 0.000000 0.000000
    9 0.000000 0.000000 0.000000 0.170915 -0.090705 -0.048864
    10 0.000000 0.000000 0.000000 0.000000 0.051153 0.000000
    11 0.000000 0.000000 0.000000 -0.014486 0.104692 0.108946
    12 0.000000 0.000000 0.000000 0.015723 -0.035944 -0.082719
    13 0.000000 0.000000 0.000000 0.000000 0.000000 0.062999
    14 0.000000 0.000000 0.000000 -0.023476 0.001511 0.035143
    15 0.000000 0.000000 0.000000 -0.299608 0.064821 0.399179
    16 0.000000 0.000000 0.000000 0.198474 0.220255 -0.200339
    17 0.000000 0.000000 0.000000 0.000000 0.000000 0.000000
    18 0.000000 0.000000 0.000000 0.000000 0.000000 0.000000
    19 0.000000 0.000000 0.000000 0.000000 0.000000 0.000000
    20 0.000000 0.000000 0.000000 0.000000 0.000000 0.000000
    21 0.000000 0.000000 0.000000 0.000000 0.000000 0.000000
    22 0.000000 0.000000 0.000000 0.000000 0.000000 0.000000
    23 0.000000 0.000000 0.000000 0.000000 0.000000 0.000000
    24 0.000000 0.000000 0.000000 0.000000 0.000000 0.000000
    25 0.000000 0.000000 0.000000 0.000000 0.000000 0.000000
    26 0.000000 0.000000 0.000000 0.000000 0.000000 0.000000
    27 0.000000 0.000000 0.000000 0.000000 0.000000 0.000000
    28 0.000000 0.000000 0.000000 0.000000 0.000000 0.000000
    29 0.000000 0.000000 0.000000 0.000000 0.000000 0.000000
    30 0.000000 0.000000 0.000000 0.000000 0.000000 0.000000
    31 0.000000 0.000000 0.000000 0.000000 0.000000 0.000000
    32 0.000000 0.000000 0.000000 0.000000 0.000000 0.000000
    33 0.000000 0.000000 0.000000 0.000000 0.000000 0.000000
    34 0.000000 0.000000 0.000000 0.000000 0.000000 0.000000
    35 0.000000 0.000000 0.000000 0.000000 0.000000 0.000000
    36 0.000000 0.000000 0.000000 0.000000 0.000000 0.000000
    37 0.000000 0.000000 0.000000 0.000000 0.000000 0.000000
  time 21
    0 -0.458252 0.572266 -0.312988 0.030172 -0.012009 -1.563774
    1 0.000000 0.000000 0.000000 0.038882 -0.000002 0.000122
    2 0.000000 0.000000 0.000000 0.043217 -0.000020 0.009401
    3 0.000000 0.000000 0.000000 0.002724 -0.032225 -0.002364
    4 0.000000 0.000000 0.000000 0.033296 0.062384 -0.038906
    5 0.000000 0.000000 0.000000 -0.001153 0.001888 -0.119702
    6 0.000000 0.000000 0.000000 -0.139793 -0.096123 0.140493
    7 0.000000 0.000000 0.000000 0.000000 0.000000 -0.071915
    8 0.000000 0.000000 0.000000 0.000000 0.000000 0.000000
    9 0.000000 0.000000 0.000000 0.117542 -0.063967 -0.033373
    10 0.000000 0.000000 0.000000 0.000000 0.036257 0.000000
    11 0.000000 0.000000 0.000000 -0.011707 0.072175 0.076919
    12 0.000000 0.000000 0.000000 0.007599 -0.026405 -0.057487
    13 0.000000 0.000000 0.000000 0.000000 0.000000 0.044804
    14 0.000000 0.000000 0.000000 -0.017311 0.001874 0.026109
    15 0.000000 0.000000 0.000000 -0.250074 0.041146 0.336117
    16 0.000000 0.000000 0.000000 0.161948 0.184439 -0.165663
    17 0.000000 0.000000 0.000000 0.000000 0.000000 0.000000
    18 0.000000 0.000000 0.000000 0.000000 0.000000 0.000000
    19 0.000000 0.000000 0.000000 0.000000 0.000000 0.000000
    20 0.000000 0.000000 0.000000 0.000000 0.000000 0.000000
    21 0.000000 0.000000 0.000000 0.000000 0.000000 0.000000
    22 0.000000 0.000000 0.000000 0.000000 0.000000 0.000000
    23 0.000000 0.000000 0.000000 0.000000 0.000000 0.000000
    24 0.000000 0.000000 0.000000 0.000000 0.000000 0.000000
    25 0.000000 0.000000 0.000000 0.000000 0.000000 0.000000
    26 0.000000 0.000000 0.000000 0.000000 0.000000 0.000000
    27 0.000000 0.000000 0.000000 0.000000 0.000000 0.000000
    28 0.000000 0.000000 0.000000 0.000000 0.000000 0.000000
    29 0.000000 0.000000 0.000000 0.000000 0.000000 0.000000
    30 0.000000 0.000000 0.000000 0.000000 0.000000 0.000000
    31 0.000000 0.000000 0.000000 0.000000 0.000000 0.000000
    32 0.000000 0.000000 0.000000 0.000000 0.000000 0.000000
    33 0.000000 0.000000 0.000000 0.000000 0.000000 0.000000
    34 0.000000 0.000000 0.000000 0.000000 0.000000 0.000000
    35 0.000000 0.000000 0.000000 0.000000 0.000000 0.000000
    36 0.000000 0.000000 0.000000 0.000000 0.000000 0.000000
    37 0.000000 0.000000 0.000000 0.000000 0.000000 0.000000
  time 22
    0 -0.278320 0.348877 -0.191162 0.017931 -0.006873 -1.566707
    1 0.000000 0.000000 0.000000 0.030397 -0.000002 0.000122
    2 0.000000 0.000000 0.000000 0.034065 0.001399 0.007471
    3 0.000000 0.000000 0.000000 0.002587 -0.021116 -0.002225
    4 0.000000 0.000000 0.000000 0.025975 0.049310 -0.031233
    5 0.000000 0.000000 0.000000 -0.000923 0.001486 -0.090608
    6 0.000000 0.000000 0.000000 -0.109620 -0.089094 0.110673
    7 0.000000 0.000000 0.000000 0.000000 0.000000 -0.047001
    8 0.000000 0.000000 0.000000 0.000000 0.000000 0.000000
    9 0.000000 0.000000 0.000000 0.070490 -0.039308 -0.019834
    10 0.000000 0.000000 0.000000 0.000000 0.022400 0.000000
    11 0.000000 0.000000 0.000000 -0.008014 0.043357 0.047205
    12 0.000000 0.000000 0.000000 0.001283 -0.017620 -0.034804
    13 0.000000 0.000000 0.000000 0.000000 0.000000 0.027711
    14 0.000000 0.000000 0.000000 -0.011453 0.002424 0.018297
    15 0.000000 0.000000 0.000000 -0.194372 0.021568 0.264729
    16 0.000000 0.000000 0.000000 0.123552 0.147361 -0.128574
    17 0.000000 0.000000 0.000000 0.000000 0.000000 0.000000
    18 0.000000 0.000000 0.000000 0.000000 0.000000 0.000000
    19 0.000000 0.000000 0.000000 0.000000 0.000000 0.000000
    20 0.000000 0.000000 0.000000 0.000000 0.000000 0.000000
    21 0.000000 0.000000 0.000000 0.000000 0.000000 0.000000
    22 0.000000 0.000000 0.000000 0.000000 0.000000 0.000000
    23 0.000000 0.000000 0.000000 0.000000 0.000000 0.000000
    24 0.000000 0.000000 0.000000 0.000000 0.000000 0.000000
    25 0.000000 0.000000 0.000000 0.000000 0.000000 0.000000
    26 0.000000 0.000000 0.000000 0.000000 0.000000 0.000000
    27 0.000000 0.000000 0.000000 0.000000 0.000000 0.000000
    28 0.000000 0.000000 0.000000 0.000000 0.000000 0.000000
    29 0.000000 0.000000 0.000000 0.000000 0.000000 0.000000
    30 0.000000 0.000000 0.000000 0.000000 0.000000 0.000000
    31 0.000000 0.000000 0.000000 0.000000 0.000000 0.000000
    32 0.000000 0.000000 0.000000 0.000000 0.000000 0.000000
    33 0.000000 0.000000 0.000000 0.000000 0.000000 0.000000
    34 0.000000 0.000000 0.000000 0.000000 0.000000 0.000000
    35 0.000000 0.000000 0.000000 0.000000 0.000000 0.000000
    36 0.000000 0.000000 0.000000 0.000000 0.000000 0.000000
    37 0.000000 0.000000 0.000000 0.000000 0.000000 0.000000
  time 23
    0 -0.133301 0.167725 -0.091980 0.008420 -0.003059 -1.568978
    1 0.000000 0.000000 0.000000 0.021180 0.000000 0.000000
    2 0.000000 0.000000 0.000000 0.023993 0.001951 0.005273
    3 0.000000 0.000000 0.000000 0.002086 -0.011900 -0.001844
    4 0.000000 0.000000 0.000000 0.018109 0.034693 -0.022396
    5 0.000000 0.000000 0.000000 -0.000644 0.001079 -0.061167
    6 0.000000 0.000000 0.000000 -0.076481 -0.073560 0.076422
    7 0.000000 0.000000 0.000000 0.000000 0.000000 -0.023682
    8 0.000000 0.000000 0.000000 0.000000 0.000000 0.000000
    9 0.000000 0.000000 0.000000 0.033294 -0.018954 -0.009228
    10 0.000000 0.000000 0.000000 0.000000 0.010864 0.000000
    11 0.000000 0.000000 0.000000 -0.004163 0.020496 0.022664
    12 0.000000 0.000000 0.000000 -0.002480 -0.010092 -0.016589
    13 0.000000 0.000000 0.000000 0.000000 0.000000 0.013428
    14 0.000000 0.000000 0.000000 -0.006394 0.002600 0.011466
    15 0.000000 0.000000 0.000000 -0.133900 0.007443 0.185612
    16 0.000000 0.000000 0.000000 0.083802 0.106400 -0.089290
    17 0.000000 0.000000 0.000000 0.000000 0.000000 0.000000
    18 0.000000 0.000000 0.000000 0.000000 0.000000 0.000000
    19 0.000000 0.000000 0.000000 0.000000 0.000000 0.000000
    20 0.000000 0.000000 0.000000 0.000000 0.000000 0.000000
    21 0.000000 0.000000 0.000000 0.000000 0.000000 0.000000
    22 0.000000 0.000000 0.000000 0.000000 0.000000 0.000000
    23 0.000000 0.000000 0.000000 0.000000 0.000000 0.000000
    24 0.000000 0.000000 0.000000 0.000000 0.000000 0.000000
    25 0.000000 0.000000 0.000000 0.000000 0.000000 0.000000
    26 0.000000 0.000000 0.000000 0.000000 0.000000 0.000000
    27 0.000000 0.000000 0.000000 0.000000 0.000000 0.000000
    28 0.000000 0.000000 0.000000 0.000000 0.000000 0.000000
    29 0.000000 0.000000 0.000000 0.000000 0.000000 0.000000
    30 0.000000 0.000000 0.000000 0.000000 0.000000 0.000000
    31 0.000000 0.000000 0.000000 0.000000 0.000000 0.000000
    32 0.000000 0.000000 0.000000 0.000000 0.000000 0.000000
    33 0.000000 0.000000 0.000000 0.000000 0.000000 0.000000
    34 0.000000 0.000000 0.000000 0.000000 0.000000 0.000000
    35 0.000000 0.000000 0.000000 0.000000 0.000000 0.000000
    36 0.000000 0.000000 0.000000 0.000000 0.000000 0.000000
    37 0.000000 0.000000 0.000000 0.000000 0.000000 0.000000
  time 24
    0 -0.035767 0.045135 -0.024765 0.002197 -0.000733 -1.570309
    1 0.000000 0.000000 0.000000 0.011108 0.000000 0.000000
    2 0.000000 0.000000 0.000000 0.012759 0.001570 0.002696
    3 0.000000 0.000000 0.000000 0.001223 -0.004699 -0.001102
    4 0.000000 0.000000 0.000000 0.009532 0.018430 -0.012120
    5 0.000000 0.000000 0.000000 -0.000315 0.000606 -0.031007
    6 0.000000 0.000000 0.000000 -0.040216 -0.045563 0.039022
    7 0.000000 0.000000 0.000000 0.000000 0.000000 -0.006470
    8 0.000000 0.000000 0.000000 0.000000 0.000000 0.000000
    9 0.000000 0.000000 0.000000 0.008795 -0.005056 -0.002342
    10 0.000000 0.000000 0.000000 0.000000 0.002930 0.000000
    11 0.000000 0.000000 0.000000 -0.001143 0.005436 0.006100
    12 0.000000 0.000000 0.000000 -0.003104 -0.004035 -0.004388
    13 0.000000 0.000000 0.000000 0.000000 0.000000 0.003662
    14 0.000000 0.000000 0.000000 -0.002375 0.001960 0.005369
    15 0.000000 0.000000 0.000000 -0.068958 -0.000294 0.097763
    16 0.000000 0.000000 0.000000 0.042551 0.058285 -0.046891
    17 0.000000 0.000000 0.000000 0.000000 0.000000 0.000000
    18 0.000000 0.000000 0.000000 0.000000 0.000000 0.000000
    19 0.000000 0.000000 0.000000 0.000000 0.000000 0.000000
    20 0.000000 0.000000 0.000000 0.000000 0.000000 0.000000
    21 0.000000 0.000000 0.000000 0.000000 0.000000 0.000000
    22 0.000000 0.000000 0.000000 0.000000 0.000000 0.000000
    23 0.000000 0.000000 0.000000 0.000000 0.000000 0.000000
    24 0.000000 0.000000 0.000000 0.000000 0.000000 0.000000
    25 0.000000 0.000000 0.000000 0.000000 0.000000 0.000000
    26 0.000000 0.000000 0.000000 0.000000 0.000000 0.000000
    27 0.000000 0.000000 0.000000 0.000000 0.000000 0.000000
    28 0.000000 0.000000 0.000000 0.000000 0.000000 0.000000
    29 0.000000 0.000000 0.000000 0.000000 0.000000 0.000000
    30 0.000000 0.000000 0.000000 0.000000 0.000000 0.000000
    31 0.000000 0.000000 0.000000 0.000000 0.000000 0.000000
    32 0.000000 0.000000 0.000000 0.000000 0.000000 0.000000
    33 0.000000 0.000000 0.000000 0.000000 0.000000 0.000000
    34 0.000000 0.000000 0.000000 0.000000 0.000000 0.000000
    35 0.000000 0.000000 0.000000 0.000000 0.000000 0.000000
    36 0.000000 0.000000 0.000000 0.000000 0.000000 0.000000
    37 0.000000 0.000000 0.000000 0.000000 0.000000 0.000000
  time 25
    0 0.000000 0.000000 0.000000 0.000000 0.000000 -1.570796
    1 0.000000 0.000000 0.000000 0.000000 0.000000 0.000000
    2 0.000000 0.000000 0.000000 0.000000 0.000000 0.000000
    3 0.000000 0.000000 0.000000 0.000000 0.000000 0.000000
    4 0.000000 0.000000 0.000000 0.000000 0.000000 0.000000
    5 0.000000 0.000000 0.000000 0.000000 0.000000 0.000000
    6 0.000000 0.000000 0.000000 0.000000 0.000000 0.000000
    7 0.000000 0.000000 0.000000 0.000000 0.000000 0.000000
    8 0.000000 0.000000 0.000000 0.000000 0.000000 0.000000
    9 0.000000 0.000000 0.000000 0.000000 0.000000 0.000000
    10 0.000000 0.000000 0.000000 0.000000 0.000000 0.000000
    11 0.000000 0.000000 0.000000 0.000000 0.000000 0.000000
    12 0.000000 0.000000 0.000000 0.000000 0.000000 0.000000
    13 0.000000 0.000000 0.000000 0.000000 0.000000 0.000000
    14 0.000000 0.000000 0.000000 0.000000 0.000000 0.000000
    15 0.000000 0.000000 0.000000 0.000000 0.000000 0.000000
    16 0.000000 0.000000 0.000000 0.000000 0.000000 0.000000
    17 0.000000 0.000000 0.000000 0.000000 0.000000 0.000000
    18 0.000000 0.000000 0.000000 0.000000 0.000000 0.000000
    19 0.000000 0.000000 0.000000 0.000000 0.000000 0.000000
    20 0.000000 0.000000 0.000000 0.000000 0.000000 0.000000
    21 0.000000 0.000000 0.000000 0.000000 0.000000 0.000000
    22 0.000000 0.000000 0.000000 0.000000 0.000000 0.000000
    23 0.000000 0.000000 0.000000 0.000000 0.000000 0.000000
    24 0.000000 0.000000 0.000000 0.000000 0.000000 0.000000
    25 0.000000 0.000000 0.000000 0.000000 0.000000 0.000000
    26 0.000000 0.000000 0.000000 0.000000 0.000000 0.000000
    27 0.000000 0.000000 0.000000 0.000000 0.000000 0.000000
    28 0.000000 0.000000 0.000000 0.000000 0.000000 0.000000
    29 0.000000 0.000000 0.000000 0.000000 0.000000 0.000000
    30 0.000000 0.000000 0.000000 0.000000 0.000000 0.000000
    31 0.000000 0.000000 0.000000 0.000000 0.000000 0.000000
    32 0.000000 0.000000 0.000000 0.000000 0.000000 0.000000
    33 0.000000 0.000000 0.000000 0.000000 0.000000 0.000000
    34 0.000000 0.000000 0.000000 0.000000 0.000000 0.000000
    35 0.000000 0.000000 0.000000 0.000000 0.000000 0.000000
    36 0.000000 0.000000 0.000000 0.000000 0.000000 0.000000
    37 0.000000 0.000000 0.000000 0.000000 0.000000 0.000000
end
