// Created by Crowbar 0.74
version 1
nodes
  0 "ValveBiped.ValveBiped" -1
  1 "ValveBiped.Bip01" 0
  2 "ValveBiped.Bip01_Pelvis" 1
  3 "ValveBiped.Bip01_L_Thigh" 2
  4 "ValveBiped.Bip01_Spine" 1
  5 "ValveBiped.Bip01_Spine1" 4
  6 "ValveBiped.Bip01_Spine2" 5
  7 "ValveBiped.Bip01_Spine4" 6
  8 "ValveBiped.Bip01_Neck1" 7
  9 "ValveBiped.Bip01_R_Clavicle" 7
end
skeleton
  time 0
    0 0.000000 0.000000 0.000000 1.570792 0.000003 -0.000003
    1 0.000000 38.034000 -0.258115 0.000000 0.000000 0.000000
    2 0.000000 0.000000 0.000000 0.000000 0.000000 0.000000
    3 3.625659 0.000000 0.000000 -1.570796 0.035510 -1.499695
    4 0.000000 3.859306 0.127612 1.570796 0.074842 1.570796
    5 4.399113 0.000000 0.000000 0.000000 0.000000 -0.180318
    6 3.698238 -0.000001 0.000000 0.000000 0.000000 0.014283
    7 5.656147 0.000000 0.000000 0.000000 0.000000 0.633643
    8 5.507969 -0.000002 0.000000 3.141590 0.000000 0.170759
    9 4.644871 1.703167 -1.500000 -0.816923 1.202736 -2.450465
end
