version 1
nodes
  0 "airliner_fuselage_secondary_3" -1
  1 "baked_fuselage_debris_secondary_249" 0
  2 "baked_fuselage_debris_secondary_250" 0
  3 "baked_fuselage_debris_secondary_251" 0
  4 "baked_fuselage_debris_secondary_252" 0
  5 "baked_fuselage_debris_secondary_253" 0
  6 "baked_fuselage_debris_secondary_254" 0
  7 "baked_fuselage_debris_secondary_255" 0
  8 "baked_fuselage_debris_secondary_256" 0
  9 "baked_fuselage_debris_secondary_257" 0
  10 "baked_fuselage_debris_secondary_258" 0
  11 "baked_fuselage_debris_secondary_259" 0
  12 "baked_fuselage_debris_secondary_260" 0
  13 "baked_fuselage_debris_secondary_261" 0
  14 "baked_fuselage_debris_secondary_262" 0
  15 "baked_fuselage_debris_secondary_263" 0
  16 "baked_fuselage_debris_secondary_264" 0
  17 "baked_fuselage_debris_secondary_265" 0
  18 "baked_fuselage_debris_secondary_266" 0
  19 "baked_fuselage_debris_secondary_267" 0
  20 "baked_fuselage_debris_secondary_268" 0
  21 "baked_fuselage_debris_secondary_269" 0
  22 "baked_fuselage_debris_secondary_270" 0
  23 "baked_fuselage_debris_secondary_271" 0
  24 "baked_fuselage_debris_secondary_272" 0
  25 "baked_fuselage_debris_secondary_273" 0
  26 "baked_fuselage_debris_secondary_274" 0
  27 "baked_fuselage_debris_secondary_275" 0
  28 "baked_fuselage_debris_secondary_276" 0
  29 "baked_fuselage_debris_secondary_277" 0
  30 "baked_fuselage_debris_secondary_278" 0
  31 "baked_fuselage_debris_secondary_279" 0
  32 "baked_fuselage_debris_secondary_280" 0
  33 "baked_fuselage_debris_secondary_281" 0
  34 "baked_fuselage_debris_secondary_282" 0
  35 "baked_fuselage_debris_secondary_283" 0
  36 "baked_fuselage_debris_secondary_284" 0
  37 "baked_fuselage_debris_secondary_285" 0
  38 "baked_fuselage_debris_secondary_286" 0
  39 "baked_fuselage_debris_secondary_287" 0
  40 "baked_fuselage_debris_secondary_288" 0
  41 "baked_fuselage_debris_secondary_289" 0
  42 "baked_fuselage_debris_secondary_290" 0
  43 "baked_fuselage_debris_secondary_291" 0
  44 "baked_fuselage_debris_secondary_292" 0
  45 "baked_fuselage_debris_secondary_293" 0
  46 "baked_fuselage_debris_secondary_294" 0
  47 "baked_fuselage_debris_secondary_295" 0
  48 "baked_fuselage_debris_secondary_296" 0
  49 "baked_fuselage_debris_secondary_297" 0
  50 "baked_fuselage_debris_secondary_298" 0
  51 "baked_fuselage_debris_secondary_299" 0
  52 "baked_fuselage_debris_secondary_300" 0
  53 "baked_fuselage_debris_secondary_301" 0
  54 "baked_fuselage_debris_secondary_302" 0
  55 "baked_fuselage_debris_secondary_303" 0
  56 "baked_fuselage_debris_secondary_304" 0
  57 "baked_fuselage_debris_secondary_305" 0
  58 "baked_fuselage_debris_secondary_306" 0
  59 "baked_fuselage_debris_secondary_307" 0
  60 "baked_fuselage_debris_secondary_308" 0
  61 "baked_fuselage_debris_secondary_309" 0
  62 "baked_fuselage_debris_secondary_310" 0
  63 "baked_fuselage_debris_secondary_311" 0
  64 "baked_fuselage_debris_secondary_312" 0
  65 "baked_fuselage_debris_secondary_313" 0
  66 "baked_fuselage_debris_secondary_314" 0
  67 "baked_fuselage_debris_secondary_315" 0
  68 "baked_fuselage_debris_secondary_316" 0
  69 "baked_fuselage_debris_secondary_317" 0
  70 "baked_fuselage_debris_secondary_318" 0
  71 "baked_fuselage_debris_secondary_319" 0
  72 "baked_fuselage_debris_secondary_320" 0
  73 "baked_fuselage_debris_secondary_321" 0
  74 "baked_fuselage_debris_secondary_322" 0
  75 "baked_fuselage_debris_secondary_323" 0
  76 "baked_fuselage_debris_secondary_324" 0
  77 "baked_fuselage_debris_secondary_325" 0
  78 "baked_fuselage_debris_secondary_326" 0
  79 "baked_fuselage_debris_secondary_327" 0
  80 "baked_fuselage_debris_secondary_328" 0
  81 "baked_fuselage_debris_secondary_329" 0
  82 "baked_fuselage_debris_secondary_330" 0
  83 "baked_fuselage_debris_secondary_331" 0
  84 "baked_fuselage_debris_secondary_332" 0
  85 "baked_fuselage_debris_secondary_333" 0
  86 "baked_fuselage_debris_secondary_334" 0
  87 "baked_fuselage_debris_secondary_335" 0
  88 "baked_fuselage_debris_secondary_336" 0
  89 "baked_fuselage_debris_secondary_337" 0
  90 "baked_fuselage_debris_secondary_338" 0
  91 "baked_fuselage_debris_secondary_339" 0
  92 "baked_fuselage_debris_secondary_340" 0
  93 "baked_fuselage_debris_secondary_341" 0
  94 "baked_fuselage_debris_secondary_342" 0
  95 "baked_fuselage_debris_secondary_343" 0
  96 "baked_fuselage_debris_secondary_344" 0
  97 "baked_fuselage_debris_secondary_345" 0
  98 "baked_fuselage_debris_secondary_346" 0
  99 "baked_fuselage_debris_secondary_347" 0
  100 "baked_fuselage_debris_secondary_348" 0
  101 "baked_fuselage_debris_secondary_349" 0
  102 "baked_fuselage_debris_secondary_350" 0
  103 "baked_fuselage_debris_secondary_351" 0
  104 "baked_fuselage_debris_secondary_352" 0
  105 "baked_fuselage_debris_secondary_353" 0
  106 "baked_fuselage_debris_secondary_354" 0
  107 "baked_fuselage_debris_secondary_355" 0
  108 "baked_fuselage_debris_secondary_356" 0
  109 "baked_fuselage_debris_secondary_357" 0
  110 "baked_fuselage_debris_secondary_358" 0
  111 "baked_fuselage_debris_secondary_359" 0
  112 "baked_fuselage_debris_secondary_360" 0
  113 "baked_fuselage_debris_secondary_361" 0
  114 "baked_fuselage_debris_secondary_362" 0
  115 "baked_fuselage_debris_secondary_363" 0
  116 "baked_fuselage_debris_secondary_364" 0
  117 "baked_fuselage_debris_secondary_365" 0
  118 "baked_fuselage_debris_secondary_366" 0
  119 "baked_fuselage_debris_secondary_367" 0
  120 "baked_fuselage_debris_secondary_368" 0
  121 "baked_fuselage_debris_secondary_369" 0
  122 "baked_fuselage_debris_secondary_370" 0
  123 "baked_fuselage_debris_secondary_371" 0
  124 "baked_fuselage_debris_secondary_372" 0
end
skeleton
  time 0
    0 -2610.000000 5284.000000 118.375000 1.570674 0.000183 -0.000183
    1 3434.000000 43.656250 6796.000000 -2.984268 0.988219 -2.664996
    2 3412.000000 7.734375 6660.000000 -0.653407 -0.845880 -2.777668
    3 3759.204102 99.639946 7475.681641 -0.783595 0.594766 2.010196
    4 3666.000000 72.000000 7260.000000 1.291972 0.635543 -1.536536
    5 3682.215332 79.006447 7301.291016 -2.883770 -0.762647 -2.973043
    6 3036.000000 -82.062500 7672.000000 0.666150 -1.058296 -0.439421
    7 4704.000000 -118.875000 5660.000000 -1.173259 1.241745 -1.187653
    8 4504.000000 -104.375000 6192.000000 -2.114728 0.009371 -1.332511
    9 5136.000000 -104.062500 5808.000000 -2.580347 0.005737 2.028788
    10 4192.000000 -85.562500 6068.000000 2.874860 0.126146 -2.858278
    11 3934.000000 101.812500 6376.000000 -2.088979 0.175464 -1.986775
    12 3912.000000 108.500000 6404.000000 -2.106488 0.306525 -2.054057
    13 4096.000000 -107.437500 6468.000000 0.441680 -0.023451 2.081533
    14 4448.377930 -116.609245 6251.055176 -0.399061 0.224710 -0.875810
    15 4564.000000 -103.937500 6052.000000 -2.428105 0.384656 1.395429
    16 4256.000000 -77.875000 6280.000000 2.874860 0.126146 -2.858278
    17 5804.000000 -117.312500 6016.000000 2.118334 0.211111 1.574906
    18 4252.000000 -68.812500 6208.000000 2.878427 0.125819 -2.858455
    19 4244.000000 -60.375000 6168.000000 2.874860 0.126146 -2.858278
    20 4236.000000 -81.062500 6136.000000 2.875442 0.125878 -2.858406
    21 4244.000000 -70.812500 6148.000000 2.874860 0.126146 -2.858278
    22 4208.000000 -83.875000 6080.000000 2.874860 0.126146 -2.858278
    23 4224.000000 -69.625000 6096.000000 2.874860 0.126146 -2.858278
    24 4252.000000 -78.750000 6188.000000 -2.885802 -0.165707 -2.935233
    25 4220.000000 -84.750000 6096.000000 2.874860 0.126146 -2.858278
    26 3988.000000 -75.125000 6356.000000 -2.436128 0.856784 -2.556793
    27 3702.000000 101.187500 6560.000000 -1.963927 -0.194293 -1.530583
    28 3354.000000 -19.390625 6792.000000 -2.996273 0.995007 -2.731375
    29 3804.000000 -36.687500 6704.000000 -2.638474 0.148150 1.099324
    30 3456.000000 122.062500 6788.000000 -2.888448 1.005959 -2.560318
    31 4072.000000 -110.875000 6324.000000 -3.113844 0.217662 3.141555
    32 4668.000000 -72.562500 6892.000000 0.063430 -0.285768 2.821881
    33 3202.000000 -210.750000 3508.000000 -2.430512 0.382078 0.576555
    34 6564.000000 -117.937500 6588.000000 -0.010552 0.011619 2.594285
    35 3320.000000 -17.281250 6836.000000 -2.978034 0.995967 -2.677854
    36 3256.000000 -23.203125 6888.000000 -2.966984 0.992639 -2.655037
    37 3562.955811 57.208473 7212.263184 1.770227 1.425461 2.149619
    38 3522.000000 73.437500 7472.000000 3.065888 -1.313528 0.404615
    39 2990.000000 -138.125000 8848.000000 2.946165 -0.106992 -1.852469
    40 3698.000000 108.812500 6508.000000 -1.190389 0.799513 1.980300
    41 3524.000000 -29.250000 6464.000000 -2.540574 0.513221 1.220109
    42 3578.099365 -7.718849 6493.741211 -1.737002 0.011908 -1.376032
    43 4070.000000 -105.875000 6404.000000 -2.897020 0.001701 1.751837
    44 3948.000000 24.609375 6444.000000 -2.428459 0.854374 -2.552179
    45 4054.000000 -109.312500 6264.000000 -1.614999 0.482886 1.378611
    46 5380.000000 -103.687500 5944.000000 2.347828 -1.003471 -2.223357
    47 4268.000000 -49.875000 6304.000000 -3.139840 0.746623 -0.695534
    48 6188.000000 -118.062500 5964.000000 1.506073 0.724569 1.500015
    49 3306.000000 -112.875000 8012.000000 -2.481705 -1.150806 2.583729
    50 5432.000000 -108.312500 5944.000000 2.729412 0.550845 2.077180
    51 5444.000000 -106.812500 5972.000000 -3.130953 0.106189 2.732095
    52 5540.000000 -117.312500 5904.000000 0.804772 0.834611 0.948616
    53 5924.000000 -117.875000 6092.000000 -2.626369 -0.644253 -0.751679
    54 5936.000000 -117.875000 6052.000000 -1.405417 -0.987027 -1.706517
    55 5776.000000 -117.187500 6160.000000 -2.386616 -0.809215 2.228857
    56 4000.000000 -27.812500 6400.000000 -2.429902 0.854580 -2.551863
    57 3968.000000 -22.125000 6416.000000 -2.420424 0.843456 -2.550045
    58 3946.000000 -40.156250 6412.000000 -2.431094 0.855723 -2.551599
    59 3938.000000 -49.062500 6404.000000 -2.431906 0.856169 -2.551893
    60 3906.000000 -54.531250 6404.000000 -2.441638 0.847778 -2.549521
    61 3862.000000 0.051971 6472.000000 -2.422090 0.850156 -2.552148
    62 3898.000000 21.312500 6468.000000 -2.423629 0.853221 -2.549916
    63 3816.000000 66.250000 6520.000000 -2.297495 0.826079 -2.423003
    64 3736.000000 25.203125 6364.000000 -0.671324 -0.281555 -0.415076
    65 3712.000000 -14.617188 6376.000000 0.447561 0.912641 1.450895
    66 3582.930664 1.651901 6483.713867 -3.002727 0.641115 1.921888
    67 4488.000000 -117.312500 6032.000000 -2.920049 0.440436 -2.655779
    68 3665.931641 12.291908 6568.795898 -2.064045 0.073885 -1.669752
    69 3603.497559 4.223038 6444.084473 -0.528756 0.371379 -1.711759
    70 4192.000000 -118.937500 5984.000000 -2.982142 0.465904 0.341010
    71 3420.000000 145.250000 6736.000000 -2.110723 -0.497149 -1.465473
    72 4004.000000 -98.812500 6324.000000 -2.966468 0.120261 -2.471256
    73 4014.000000 -70.687500 6916.000000 -2.855271 0.403470 -3.021486
    74 3346.000000 -15.453125 6952.000000 1.107275 -0.589565 2.211730
    75 3366.000000 142.750000 6784.000000 -2.343992 0.187373 -1.320067
    76 5244.000000 -112.437500 5748.000000 0.355145 -0.930271 -0.457498
    77 3728.000000 -117.875000 8336.000000 0.210363 -1.181175 -0.229939
    78 3466.000000 74.125000 6784.000000 -2.984669 0.985252 -2.661371
    79 3452.000000 89.375000 6796.000000 -2.981540 0.992645 -2.659014
    80 3474.000000 29.359375 6740.000000 -2.979650 0.984841 -2.662589
    81 3658.000000 1.041992 6572.000000 2.631289 0.336420 -0.576115
    82 3066.804932 -118.805466 7948.183105 -2.326866 -0.952899 2.027793
    83 3227.365479 -116.889809 8006.702148 2.189720 0.222668 -1.309344
    84 3718.000000 78.437500 7292.000000 1.426288 0.330886 1.749886
    85 3606.000000 74.562500 7316.000000 -0.236619 -0.018648 -1.861619
    86 3486.000000 68.000000 7436.000000 2.648492 -0.156994 1.609937
    87 3366.000000 -21.156250 6764.000000 -2.916001 0.980687 -2.692524
    88 2494.000000 -143.250000 8344.000000 0.146008 -0.249191 -2.805183
    89 3914.000000 -0.683594 6248.000000 -0.386379 -0.004030 -0.641181
    90 4756.000000 -87.250000 7288.000000 -1.992518 -0.277054 1.850967
    91 3860.000000 66.187500 6496.000000 -2.421163 0.853151 -2.547407
    92 3940.000000 -33.593750 6416.000000 -2.429543 0.853982 -2.550964
    93 3872.000000 120.375000 6432.000000 -2.121898 0.344309 -2.119418
    94 3580.000000 41.562500 6632.000000 -2.828215 1.094709 -2.507125
    95 3476.000000 15.054688 6712.000000 -2.979211 0.985227 -2.662761
    96 3820.000000 -1.134766 6452.000000 2.107768 -0.118350 2.020130
    97 3764.000000 43.062500 6536.000000 -2.102212 0.845769 -2.340305
    98 3708.000000 56.218750 6564.000000 -2.119519 0.381970 -2.403813
    99 3402.000000 31.203125 6816.000000 -2.910449 1.025645 -2.574341
    100 3362.000000 125.937500 6832.000000 -2.717159 0.884003 -2.394741
    101 3294.000000 137.500000 6852.000000 -2.664278 0.888297 -2.302602
    102 3740.000000 5.902344 6436.000000 0.812621 -0.339622 -0.523570
    103 3368.000000 -109.562500 8052.000000 -0.812680 -0.114681 -1.827589
    104 3274.000000 15.570313 6900.000000 -2.884018 0.998497 -2.547362
    105 3380.000000 34.781250 7248.000000 -1.360540 -0.278709 1.433687
    106 4564.000000 -101.687500 7040.000000 -1.960737 0.587537 -1.841556
    107 4196.000000 -70.000000 7192.000000 -0.442266 0.709896 1.927199
    108 2828.000000 -118.875000 6992.000000 2.682926 -1.150217 -2.647002
    109 3837.904297 -1.719803 6208.359375 0.832720 -0.446804 -1.095478
    110 4656.000000 -115.625000 5812.000000 1.138459 0.238361 1.492750
    111 4184.000000 -119.187500 6352.000000 0.110480 -0.066073 -1.184455
    112 4880.000000 -79.375000 6072.000000 0.080052 0.013550 2.354387
    113 4716.000000 -93.562500 5976.000000 -1.341328 0.854225 1.772213
    114 4396.000000 -118.875000 6156.000000 0.831787 -0.174256 1.726079
    115 3984.000000 -14.437500 6412.000000 -2.418200 0.849718 -2.549054
    116 3886.000000 -5.058594 6460.000000 -2.422862 0.852152 -2.550238
    117 3374.000000 21.671875 6832.000000 -2.893822 1.017928 -2.572034
    118 3422.000000 1.203125 6756.000000 -2.992865 0.982015 -2.680598
    119 3452.000000 36.156250 6772.000000 -2.992695 0.982609 -2.675936
    120 3552.000000 49.062500 6640.000000 -1.164907 0.287072 0.451713
    121 2932.000000 -122.562500 8160.000000 -0.219828 0.012324 -2.897158
    122 3524.000000 77.375000 7448.000000 -3.032005 -0.126249 0.557078
    123 3544.392578 -117.176956 8208.759766 2.757703 -0.085521 1.631214
    124 4000.413574 -93.154694 6475.980469 -0.178779 1.267217 2.765334
end
