// Created by Crowbar 0.74
version 1
nodes
  0 "static_prop" -1
end
skeleton
  time 0
    0 0.000000 0.000000 0.000000 0.000000 0.000000 0.000000
end
triangles
  phy
    0 43.873402 1.003194 25.770108 -0.999293 -0.033150 -0.017709 0 0
    0 47.523947 1.003195 19.199347 -0.972714 -0.012828 0.231653 0 0
    0 36.071232 1.003196 9.908472 -0.921954 -0.108039 -0.371924 0 0
  phy
    0 36.071232 1.003196 9.908472 -0.921954 -0.108039 -0.371924 0 0
    0 47.523947 1.003195 19.199347 -0.972714 -0.012828 0.231653 0 0
    0 34.858366 1.003198 -2.913941 -0.998041 -0.003609 -0.062455 0 0
  phy
    0 34.858366 1.003198 -2.913941 -0.998041 -0.003609 -0.062455 0 0
    0 47.523947 1.003195 19.199347 -0.972714 -0.012828 0.231653 0 0
    0 47.579262 1.003198 -3.552041 -0.990908 0.033335 0.130344 0 0
  phy
    0 34.858366 1.003198 -2.913941 -0.998041 -0.003609 -0.062455 0 0
    0 47.579262 1.003198 -3.552041 -0.990908 0.033335 0.130344 0 0
    0 34.917063 1.003199 -10.064981 -0.980375 0.056510 -0.188867 0 0
  phy
    0 34.917063 1.003199 -10.064981 -0.980375 0.056510 -0.188867 0 0
    0 47.579262 1.003198 -3.552041 -0.990908 0.033335 0.130344 0 0
    0 38.251722 1.003199 -14.545949 -0.976856 0.207023 0.053798 0 0
  phy
    0 33.961929 -0.661541 -5.033467 0.246046 -0.035063 -0.968624 0 0
    0 34.858366 1.003198 -2.913941 -0.998041 -0.003609 -0.062455 0 0
    0 34.917063 1.003199 -10.064981 -0.980375 0.056510 -0.188867 0 0
  phy
    0 34.858366 1.003198 -2.913941 -0.998041 -0.003609 -0.062455 0 0
    0 33.961929 -0.661541 -5.033467 0.246046 -0.035063 -0.968624 0 0
    0 36.071232 1.003196 9.908472 -0.921954 -0.108039 -0.371924 0 0
  phy
    0 34.756876 -0.661540 -10.165774 0.176231 0.239550 -0.954756 0 0
    0 33.961929 -0.661541 -5.033467 0.246046 -0.035063 -0.968624 0 0
    0 34.917063 1.003199 -10.064981 -0.980375 0.056510 -0.188867 0 0
  phy
    0 34.756876 -0.661540 -10.165774 0.176231 0.239550 -0.954756 0 0
    0 36.229017 -1.003194 -13.817887 0.994975 0.055023 -0.083655 0 0
    0 33.961929 -0.661541 -5.033467 0.246046 -0.035063 -0.968624 0 0
  phy
    0 34.756876 -0.661540 -10.165774 0.176231 0.239550 -0.954756 0 0
    0 34.917063 1.003199 -10.064981 -0.980375 0.056510 -0.188867 0 0
    0 36.229017 -1.003194 -13.817887 0.994975 0.055023 -0.083655 0 0
  phy
    0 33.961929 -0.661541 -5.033467 0.246046 -0.035063 -0.968624 0 0
    0 35.182207 -1.003194 6.684307 0.996247 -0.019869 -0.084246 0 0
    0 36.071232 1.003196 9.908472 -0.921954 -0.108039 -0.371924 0 0
  phy
    0 36.229017 -1.003194 -13.817887 0.994975 0.055023 -0.083655 0 0
    0 35.182207 -1.003194 6.684307 0.996247 -0.019869 -0.084246 0 0
    0 33.961929 -0.661541 -5.033467 0.246046 -0.035063 -0.968624 0 0
  phy
    0 45.403205 0.709497 25.913631 0.880941 -0.406261 0.242683 0 0
    0 45.911627 -1.003195 19.669683 0.988261 -0.025659 0.150602 0 0
    0 46.605219 0.709496 24.005963 -0.046639 -0.302715 0.951939 0 0
  phy
    0 45.403205 0.709497 25.913631 0.880941 -0.406261 0.242683 0 0
    0 42.292987 -1.003195 23.129944 0.952027 -0.305636 0.015187 0 0
    0 45.911627 -1.003195 19.669683 0.988261 -0.025659 0.150602 0 0
  phy
    0 45.403205 0.709497 25.913631 0.880941 -0.406261 0.242683 0 0
    0 43.873402 1.003194 25.770108 -0.999293 -0.033150 -0.017709 0 0
    0 42.820761 0.709474 25.158060 -0.064149 -0.499375 -0.864008 0 0
  phy
    0 42.820761 0.709474 25.158060 -0.064149 -0.499375 -0.864008 0 0
    0 42.292987 -1.003195 23.129944 0.952027 -0.305636 0.015187 0 0
    0 45.403205 0.709497 25.913631 0.880941 -0.406261 0.242683 0 0
  phy
    0 45.403205 0.709497 25.913631 0.880941 -0.406261 0.242683 0 0
    0 46.605219 0.709496 24.005963 -0.046639 -0.302715 0.951939 0 0
    0 43.873402 1.003194 25.770108 -0.999293 -0.033150 -0.017709 0 0
  phy
    0 36.229017 -1.003194 -13.817887 0.994975 0.055023 -0.083655 0 0
    0 34.917063 1.003199 -10.064981 -0.980375 0.056510 -0.188867 0 0
    0 38.251722 1.003199 -14.545949 -0.976856 0.207023 0.053798 0 0
  phy
    0 35.182207 -1.003194 6.684307 0.996247 -0.019869 -0.084246 0 0
    0 45.911627 -1.003195 19.669683 0.988261 -0.025659 0.150602 0 0
    0 41.033330 -1.003195 20.795896 0.833058 -0.220720 -0.507244 0 0
  phy
    0 35.182207 -1.003194 6.684307 0.996247 -0.019869 -0.084246 0 0
    0 47.906374 -1.003194 -10.877421 0.985967 -0.004960 0.166867 0 0
    0 45.911627 -1.003195 19.669683 0.988261 -0.025659 0.150602 0 0
  phy
    0 35.182207 -1.003194 6.684307 0.996247 -0.019869 -0.084246 0 0
    0 36.229017 -1.003194 -13.817887 0.994975 0.055023 -0.083655 0 0
    0 47.906374 -1.003194 -10.877421 0.985967 -0.004960 0.166867 0 0
  phy
    0 36.229017 -1.003194 -13.817887 0.994975 0.055023 -0.083655 0 0
    0 47.555800 -1.003194 -14.758291 -0.741958 0.500603 0.445977 0 0
    0 47.906374 -1.003194 -10.877421 0.985967 -0.004960 0.166867 0 0
  phy
    0 45.911627 -1.003195 19.669683 0.988261 -0.025659 0.150602 0 0
    0 42.292987 -1.003195 23.129944 0.952027 -0.305636 0.015187 0 0
    0 41.033330 -1.003195 20.795896 0.833058 -0.220720 -0.507244 0 0
  phy
    0 47.906374 -1.003194 -10.877421 0.985967 -0.004960 0.166867 0 0
    0 47.555800 -1.003194 -14.758291 -0.741958 0.500603 0.445977 0 0
    0 47.579262 1.003198 -3.552041 -0.990908 0.033335 0.130344 0 0
  phy
    0 47.906374 -1.003194 -10.877421 0.985967 -0.004960 0.166867 0 0
    0 47.579262 1.003198 -3.552041 -0.990908 0.033335 0.130344 0 0
    0 47.523947 1.003195 19.199347 -0.972714 -0.012828 0.231653 0 0
  phy
    0 47.523947 1.003195 19.199347 -0.972714 -0.012828 0.231653 0 0
    0 45.911627 -1.003195 19.669683 0.988261 -0.025659 0.150602 0 0
    0 47.906374 -1.003194 -10.877421 0.985967 -0.004960 0.166867 0 0
  phy
    0 46.605219 0.709496 24.005963 -0.046639 -0.302715 0.951939 0 0
    0 45.911627 -1.003195 19.669683 0.988261 -0.025659 0.150602 0 0
    0 47.523947 1.003195 19.199347 -0.972714 -0.012828 0.231653 0 0
  phy
    0 46.605219 0.709496 24.005963 -0.046639 -0.302715 0.951939 0 0
    0 47.523947 1.003195 19.199347 -0.972714 -0.012828 0.231653 0 0
    0 43.873402 1.003194 25.770108 -0.999293 -0.033150 -0.017709 0 0
  phy
    0 39.235947 -0.661541 -16.348353 0.268034 0.960106 -0.079713 0 0
    0 36.229017 -1.003194 -13.817887 0.994975 0.055023 -0.083655 0 0
    0 38.251722 1.003199 -14.545949 -0.976856 0.207023 0.053798 0 0
  phy
    0 39.235947 -0.661541 -16.348353 0.268034 0.960106 -0.079713 0 0
    0 47.555800 -1.003194 -14.758291 -0.741958 0.500603 0.445977 0 0
    0 36.229017 -1.003194 -13.817887 0.994975 0.055023 -0.083655 0 0
  phy
    0 35.182207 -1.003194 6.684307 0.996247 -0.019869 -0.084246 0 0
    0 41.033330 -1.003195 20.795896 0.833058 -0.220720 -0.507244 0 0
    0 36.071232 1.003196 9.908472 -0.921954 -0.108039 -0.371924 0 0
  phy
    0 41.033330 -1.003195 20.795896 0.833058 -0.220720 -0.507244 0 0
    0 42.820761 0.709474 25.158060 -0.064149 -0.499375 -0.864008 0 0
    0 36.071232 1.003196 9.908472 -0.921954 -0.108039 -0.371924 0 0
  phy
    0 42.820761 0.709474 25.158060 -0.064149 -0.499375 -0.864008 0 0
    0 41.033330 -1.003195 20.795896 0.833058 -0.220720 -0.507244 0 0
    0 42.292987 -1.003195 23.129944 0.952027 -0.305636 0.015187 0 0
  phy
    0 36.071232 1.003196 9.908472 -0.921954 -0.108039 -0.371924 0 0
    0 42.820761 0.709474 25.158060 -0.064149 -0.499375 -0.864008 0 0
    0 43.873402 1.003194 25.770108 -0.999293 -0.033150 -0.017709 0 0
  phy
    0 47.579262 1.003198 -3.552041 -0.990908 0.033335 0.130344 0 0
    0 47.555800 -1.003194 -14.758291 -0.741958 0.500603 0.445977 0 0
    0 38.251722 1.003199 -14.545949 -0.976856 0.207023 0.053798 0 0
  phy
    0 47.555800 -1.003194 -14.758291 -0.741958 0.500603 0.445977 0 0
    0 39.235947 -0.661541 -16.348353 0.268034 0.960106 -0.079713 0 0
    0 38.251722 1.003199 -14.545949 -0.976856 0.207023 0.053798 0 0
end
