// Created by Crowbar 0.74
version 1
nodes
  0 "ValveBiped.Bip01_Pelvis" -1
  1 "ValveBiped.Bip01_Spine" 0
  2 "ValveBiped.Bip01_Spine1" 1
  3 "ValveBiped.Bip01_Spine2" 2
  4 "ValveBiped.Bip01_Spine4" 3
  5 "ValveBiped.Bip01_Neck1" 4
  6 "ValveBiped.Bip01_Head1" 5
  7 "Eye_L" 6
  8 "Eye_R" 6
  9 "Teeth" 6
  10 "Tongue1" 6
  11 "Tongue2" 10
  12 "Tongue3" 11
  13 "FrontHair1" 6
  14 "FrontHair2" 13
  15 "FrontHair_L" 6
  16 "FrontHair_R" 6
  17 "SideHair1_L" 6
  18 "SideHair2_L" 17
  19 "SideHair3_L" 18
  20 "SideHair1_R" 6
  21 "SideHair2_R" 20
  22 "SideHair3_R" 21
  23 "BackSideHair1_L" 6
  24 "BackSideHair2_L" 23
  25 "BackSideHair1_R" 6
  26 "BackSideHair2_R" 25
  27 "BackInsideHair" 6
  28 "BackHair" 6
  29 "ValveBiped.Bip01_L_Clavicle" 4
  30 "SleeveRibbon_L" 29
  31 "ValveBiped.Bip01_L_UpperArm" 29
  32 "ValveBiped.Bip01_L_Forearm" 31
  33 "ValveBiped.Bip01_L_Hand" 32
  34 "BackArmKA_L" 31
  35 "FrontArmKA_L" 31
  36 "BackKA1_L" 29
  37 "BackKA2_L" 36
  38 "SideKA1_L" 4
  39 "SideKA2_L" 38
  40 "FrontKA1_L" 4
  41 "FrontKA2_L" 40
  42 "ValveBiped.Bip01_R_Clavicle" 4
  43 "SleeveRibbon_R" 42
  44 "ValveBiped.Bip01_R_UpperArm" 42
  45 "ValveBiped.Bip01_R_Forearm" 44
  46 "ValveBiped.Bip01_R_Hand" 45
  47 "BackArmKA_R" 44
  48 "FrontArmKA_R" 44
  49 "BackKA1_R" 42
  50 "BackKA2_R" 49
  51 "SideKA1_R" 4
  52 "SideKA2_R" 51
  53 "FrontKA1_R" 4
  54 "FrontKA2_R" 53
  55 "BackMiddleKA1" 4
  56 "BackMiddleKA2" 55
  57 "ValveBiped.Bip01_L_Thigh" 0
  58 "ValveBiped.Bip01_L_Calf" 57
  59 "ValveBiped.Bip01_L_Foot" 58
  60 "ValveBiped.Bip01_R_Thigh" 0
  61 "ValveBiped.Bip01_R_Calf" 60
  62 "ValveBiped.Bip01_R_Foot" 61
  63 "ValveBiped.Bip01_L_Finger0" 33
  64 "ValveBiped.Bip01_L_Finger01" 63
  65 "ValveBiped.Bip01_L_Finger02" 64
  66 "ValveBiped.Bip01_L_Finger1" 33
  67 "ValveBiped.Bip01_L_Finger11" 66
  68 "ValveBiped.Bip01_L_Finger12" 67
  69 "ValveBiped.Bip01_L_Finger2" 33
  70 "ValveBiped.Bip01_L_Finger21" 69
  71 "ValveBiped.Bip01_L_Finger22" 70
  72 "ValveBiped.Bip01_L_Finger3" 33
  73 "ValveBiped.Bip01_L_Finger31" 72
  74 "ValveBiped.Bip01_L_Finger32" 73
  75 "ValveBiped.Bip01_L_Finger4" 33
  76 "ValveBiped.Bip01_L_Finger41" 75
  77 "ValveBiped.Bip01_L_Finger42" 76
  78 "ValveBiped.Bip01_R_Finger0" 46
  79 "ValveBiped.Bip01_R_Finger01" 78
  80 "ValveBiped.Bip01_R_Finger02" 79
  81 "ValveBiped.Bip01_R_Finger1" 46
  82 "ValveBiped.Bip01_R_Finger11" 81
  83 "ValveBiped.Bip01_R_Finger12" 82
  84 "ValveBiped.Bip01_R_Finger2" 46
  85 "ValveBiped.Bip01_R_Finger21" 84
  86 "ValveBiped.Bip01_R_Finger22" 85
  87 "ValveBiped.Bip01_R_Finger3" 46
  88 "ValveBiped.Bip01_R_Finger31" 87
  89 "ValveBiped.Bip01_R_Finger32" 88
  90 "ValveBiped.Bip01_R_Finger4" 46
  91 "ValveBiped.Bip01_R_Finger41" 90
  92 "ValveBiped.Bip01_R_Finger42" 91
  93 "Tie1" 4
  94 "Tie2" 93
  95 "Tie3" 94
  96 "Tie4" 95
  97 "Tie5" 96
  98 "Tie6" 97
  99 "Belt1" 0
  100 "Belt2" 99
  101 "Belt3" 100
  102 "Belt4" 101
  103 "Belt5" 102
end
skeleton
  time 0
    0 0.000000 -2.087236 35.214973 1.570796 0.000000 0.000000
    1 0.000003 3.958523 -1.379565 1.570796 -0.074104 1.570801
    2 3.543999 0.000027 0.000016 0.000001 -0.000006 -0.112615
    3 3.341240 0.000028 -0.000005 0.000000 0.000004 -0.012632
    4 6.963299 0.000036 0.000019 0.000000 -0.000004 0.155826
    5 2.935257 -0.000237 -0.000006 -3.141592 0.000001 0.224052
    6 2.189419 0.080307 0.000001 0.000000 0.000001 0.100578
    7 2.523140 -0.334478 -1.152895 -2.838601 -0.054556 -0.074840
    8 2.523148 -0.334476 1.152903 0.303011 -0.054536 3.066762
    9 0.249523 -1.665982 0.000000 0.000000 1.570794 2.933635
    10 0.238724 -1.261398 0.000000 0.000000 1.570789 2.901134
    11 0.000000 0.645901 0.000000 0.005272 0.000000 0.000000
    12 0.000000 0.483725 -0.000011 -0.005191 0.000000 0.000000
    13 5.935234 -3.225060 0.000009 0.000000 -1.570795 0.244065
    14 0.000000 0.033809 2.125092 -0.005249 0.000000 0.000000
    15 5.935238 -3.225061 -2.082912 0.000000 1.570795 0.244065
    16 5.935230 -3.225058 2.082930 0.000000 -1.570795 0.244065
    17 5.365295 0.301672 -4.434359 0.000000 -1.570795 0.195590
    18 0.000000 -0.100058 3.071205 0.009521 0.000000 0.000000
    19 0.000000 -0.047046 2.040993 0.016280 0.000000 0.000000
    20 5.365273 0.301674 4.434371 0.000000 -1.570795 0.195590
    21 0.000000 -0.100058 3.071205 0.009522 0.000000 0.000000
    22 0.000000 -0.047046 2.040981 0.016279 0.000000 0.000000
    23 4.607594 3.495597 -5.170744 0.000000 -1.570795 0.195590
    24 0.000000 -0.166048 5.096722 0.000154 -0.000022 0.001360
    25 4.607563 3.495595 5.170754 0.000000 -1.570795 0.195589
    26 0.000000 -0.166049 5.096737 0.000154 0.000022 -0.001360
    27 0.605942 4.565639 0.000001 0.000000 -1.570795 0.183581
    28 0.339760 5.719981 0.000001 0.000000 -1.570795 0.183581
    29 1.620522 0.585389 0.906230 1.397308 -1.239013 3.061126
    30 8.683130 -0.055901 -0.805785 2.049573 1.402847 1.843492
    31 4.017078 -0.343716 -0.838145 -1.424292 0.049762 -0.291220
    32 9.653366 0.000000 0.000000 0.000000 0.001788 -0.013702
    33 9.700520 -0.000003 0.173653 1.570796 -0.058854 0.000001
    34 0.140934 1.465839 1.656826 -0.037035 -0.653280 -1.463125
    35 -0.074825 -0.930140 1.653088 0.145504 -0.483089 -1.732807
    36 2.275753 1.061657 -2.923033 -2.592914 -0.707330 0.649718
    37 -0.000006 1.650681 0.000000 -0.503380 -0.223883 0.141366
    38 1.750286 1.309223 2.431600 1.011993 0.210461 0.907309
    39 -0.000002 2.839314 0.000004 -0.415784 -0.535950 0.456325
    40 1.246666 2.549739 1.387323 0.860368 0.095125 0.755684
    41 -0.000011 3.089649 0.000004 -0.353464 -0.556296 0.514158
    42 1.620544 0.585401 -0.906207 -1.460919 1.238521 3.069740
    43 8.685409 -0.111885 0.775028 -1.212662 1.486555 -1.477698
    44 4.019470 -0.402164 0.799939 1.492225 -0.026337 -0.293716
    45 9.653353 0.000000 0.000000 0.000000 -0.001793 -0.013703
    46 9.700523 -0.000002 -0.173683 -1.570796 0.059154 0.000001
    47 0.140934 1.465840 -1.656834 3.104556 -0.653280 1.678468
    48 -0.074835 -0.930140 -1.653088 -2.996089 -0.483088 1.408786
    49 2.284115 0.849785 2.985156 0.473894 -0.664781 -2.444388
    50 -0.000004 1.650673 0.000000 -0.503380 0.223883 -0.141367
    51 1.750278 1.309222 -2.431606 -2.129602 0.210458 -2.234284
    52 0.000006 2.839322 -0.000004 -0.415784 0.535950 -0.456325
    53 1.246651 2.549738 -1.387329 -2.281227 0.095122 -2.385909
    54 0.000000 3.089647 0.000004 -0.353463 0.556296 -0.514157
    55 0.209564 -2.528919 -0.000001 0.000000 1.570788 3.001086
    56 0.000000 0.488070 1.833454 0.035867 0.000000 0.000000
    57 2.982521 0.000004 0.000002 -1.570796 0.000000 -1.570796
    58 13.441391 -0.116433 -0.318382 0.000000 0.000000 0.122992
    59 17.962406 0.000000 0.000000 0.000001 0.000000 -1.083473
    60 -2.982520 0.000004 0.000002 -1.570796 0.000000 -1.570796
    61 13.441391 -0.116433 0.318380 0.000000 0.000000 0.122992
    62 17.962404 0.000000 0.000000 0.000000 0.000000 -1.086513
    63 0.255142 -0.280396 0.786743 -1.627755 -0.392902 -0.330939
    64 1.293726 0.000001 0.000004 -0.056161 0.001272 -0.043727
    65 1.033816 0.026757 0.086334 -0.001546 -0.078120 -0.261983
    66 2.478046 -0.225307 0.803191 0.000000 -0.000003 -0.090672
    67 1.164511 -0.027367 0.008878 0.000000 0.000001 -0.023497
    68 0.793106 0.009369 -0.015788 0.000000 0.000001 0.011817
    69 2.609573 -0.172768 0.167416 0.000000 0.000000 -0.066108
    70 1.203957 0.021431 0.008552 0.000000 0.000000 0.017799
    71 0.809978 -0.023346 0.000000 0.000000 0.000001 -0.028814
    72 2.495249 -0.287563 -0.444678 0.000000 0.000001 -0.114735
    73 1.024574 0.059872 0.017763 0.000000 -0.000001 0.058380
    74 0.752829 -0.013725 0.027300 0.000000 -0.000001 -0.018228
    75 2.354773 -0.462547 -1.022895 0.000000 0.000000 -0.193958
    76 0.807177 0.074558 0.035851 0.000000 -0.000001 0.092100
    77 0.590862 0.010323 0.023023 0.000000 0.000000 0.017467
    78 0.255066 -0.280472 -0.786743 1.627755 0.392902 -0.331235
    79 1.293739 0.000000 0.000000 0.063510 -0.003851 -0.043927
    80 1.033585 0.026157 -0.089211 0.000848 0.076727 -0.262614
    81 2.477987 -0.226040 -0.803191 0.000000 0.000003 -0.090969
    82 1.164513 -0.027367 -0.008878 0.000000 -0.000001 -0.023497
    83 0.793108 0.009380 0.015789 0.000000 -0.000001 0.011816
    84 2.609531 -0.173538 -0.167416 0.000000 0.000001 -0.066404
    85 1.203957 0.021431 -0.008552 0.000000 0.000001 0.017799
    86 0.809977 -0.023357 0.000000 0.000000 -0.000001 -0.028815
    87 2.495169 -0.288296 0.444679 0.000000 0.000000 -0.115032
    88 1.024570 0.059879 -0.017762 0.000000 0.000001 0.058379
    89 0.752827 -0.013721 -0.027300 0.000000 0.000001 -0.018229
    90 2.354630 -0.463242 1.022895 0.000000 0.000001 -0.194255
    91 0.807183 0.074554 -0.035851 0.000000 0.000001 0.092099
    92 0.590853 0.010319 -0.023023 0.000000 -0.000001 0.017467
    93 0.794472 3.282163 -0.000002 0.000000 -1.570795 -0.637865
    94 0.000000 0.091843 0.779438 0.120736 0.000000 0.000000
    95 0.000000 0.167423 0.697979 0.088975 -0.000036 -0.000003
    96 0.000041 0.226933 1.110523 0.034320 0.000032 0.000000
    97 0.000008 0.112391 1.553921 0.017734 0.000002 0.000000
    98 0.000005 -0.150730 1.708767 0.276285 0.000059 0.000016
    99 2.795703 6.788696 3.734684 0.869066 0.000000 0.000000
    100 -0.000001 -0.562551 3.198040 0.317572 0.000000 0.000000
    101 0.000001 0.136873 4.045177 0.008174 0.000001 0.000000
    102 -0.000004 0.182449 4.048155 0.092432 0.000000 0.000000
    103 -0.000002 0.549179 4.012951 0.022276 0.000000 0.000000
end
triangles
trans
  32 17.577887 -0.680382 42.498604 -0.197050 -0.473332 -0.858562 0.992090 0.119770 1 32 1.000000
  32 17.497423 0.042259 42.347015 -0.264029 0.078588 -0.961308 0.992090 0.031350 1 32 1.000000
  32 18.033161 0.033848 42.197266 -0.933734 0.060227 -0.352864 0.913180 0.036650 1 32 1.000000
trans
  32 18.033161 0.033848 42.197266 -0.933734 0.060227 -0.352864 0.913180 0.036650 1 32 1.000000
  32 18.102001 -0.565970 42.318764 -0.885283 -0.376967 -0.272341 0.913180 0.117220 1 32 1.000000
  32 17.577887 -0.680382 42.498604 -0.197050 -0.473332 -0.858562 0.992090 0.119770 1 32 1.000000
trans
  32 17.814732 -1.153821 42.930202 0.041492 -0.844193 -0.534431 0.992090 0.214510 1 32 1.000000
  32 17.577887 -0.680382 42.498604 -0.197050 -0.473332 -0.858562 0.992090 0.119770 1 32 1.000000
  32 18.102001 -0.565970 42.318764 -0.885283 -0.376967 -0.272341 0.913180 0.117220 1 32 1.000000
trans
  32 18.102001 -0.565970 42.318764 -0.885283 -0.376967 -0.272341 0.913180 0.117220 1 32 1.000000
  32 18.284212 -0.955871 42.653793 -0.725339 -0.687955 0.024524 0.913180 0.208830 1 32 1.000000
  32 17.814732 -1.153821 42.930202 0.041492 -0.844193 -0.534431 0.992090 0.214510 1 32 1.000000
trans
  32 18.165546 -1.252434 43.482662 0.447554 -0.894255 0.001643 0.992090 0.299690 1 32 1.000000
  32 17.814732 -1.153821 42.930202 0.041492 -0.844193 -0.534431 0.992090 0.214510 1 32 1.000000
  32 18.284212 -0.955871 42.653793 -0.725339 -0.687955 0.024524 0.913180 0.208830 1 32 1.000000
trans
  32 18.284212 -0.955871 42.653793 -0.725339 -0.687955 0.024524 0.913180 0.208830 1 32 1.000000
  32 18.571157 -1.055483 43.100307 -0.419758 -0.740410 0.524972 0.913180 0.298290 1 32 1.000000
  32 18.165546 -1.252434 43.482662 0.447554 -0.894255 0.001643 0.992090 0.299690 1 32 1.000000
trans
  32 18.519844 -0.709664 43.990334 0.765409 -0.434558 0.474667 0.992090 0.396400 1 32 1.000000
  32 18.165546 -1.252434 43.482662 0.447554 -0.894255 0.001643 0.992090 0.299690 1 32 1.000000
  32 18.571157 -1.055483 43.100307 -0.419758 -0.740410 0.524972 0.913180 0.298290 1 32 1.000000
trans
  32 18.571157 -1.055483 43.100307 -0.419758 -0.740410 0.524972 0.913180 0.298290 1 32 1.000000
  32 18.867105 -0.610256 43.525120 -0.111853 -0.369722 0.922385 0.913180 0.398500 1 32 1.000000
  32 18.519844 -0.709664 43.990334 0.765409 -0.434558 0.474667 0.992090 0.396400 1 32 1.000000
trans
  32 18.581137 0.147287 44.061798 0.836353 0.180955 0.517464 0.992090 0.504200 1 32 1.000000
  32 18.519844 -0.709664 43.990334 0.765409 -0.434558 0.474667 0.992090 0.396400 1 32 1.000000
  32 18.867105 -0.610256 43.525120 -0.111853 -0.369722 0.922385 0.913180 0.398500 1 32 1.000000
trans
  32 18.867105 -0.610256 43.525120 -0.111853 -0.369722 0.922385 0.913180 0.398500 1 32 1.000000
  32 18.915787 0.098109 43.587688 -0.035782 0.169122 0.984945 0.913180 0.504000 1 32 1.000000
  32 18.581137 0.147287 44.061798 0.836353 0.180955 0.517464 0.992090 0.504200 1 32 1.000000
trans
  32 18.401087 0.776212 43.815506 0.730870 0.631089 0.259915 0.992090 0.596710 1 32 1.000000
  32 18.581137 0.147287 44.061798 0.836353 0.180955 0.517464 0.992090 0.504200 1 32 1.000000
  32 18.915787 0.098109 43.587688 -0.035782 0.169122 0.984945 0.913180 0.504000 1 32 1.000000
trans
  32 18.915787 0.098109 43.587688 -0.035782 0.169122 0.984945 0.913180 0.504000 1 32 1.000000
  32 18.734129 0.559694 43.339367 -0.151633 0.597856 0.787131 0.913180 0.595670 1 32 1.000000
  32 18.401087 0.776212 43.815506 0.730870 0.631089 0.259915 0.992090 0.596710 1 32 1.000000
trans
  32 18.186726 1.007601 43.467018 0.534885 0.844424 -0.029083 0.992090 0.660780 1 32 1.000000
  32 18.401087 0.776212 43.815506 0.730870 0.631089 0.259915 0.992090 0.596710 1 32 1.000000
  32 18.734129 0.559694 43.339367 -0.151633 0.597856 0.787131 0.913180 0.595670 1 32 1.000000
trans
  32 18.734129 0.559694 43.339367 -0.151633 0.597856 0.787131 0.913180 0.595670 1 32 1.000000
  32 18.577389 0.704349 43.102341 -0.323883 0.789310 0.521622 0.913180 0.664970 1 32 1.000000
  32 18.186726 1.007601 43.467018 0.534885 0.844424 -0.029083 0.992090 0.660780 1 32 1.000000
trans
  32 17.905537 1.000389 43.026901 0.261532 0.910188 -0.321183 0.992090 0.742220 1 32 1.000000
  32 18.186726 1.007601 43.467018 0.534885 0.844424 -0.029083 0.992090 0.660780 1 32 1.000000
  32 18.577389 0.704349 43.102341 -0.323883 0.789310 0.521622 0.913180 0.664970 1 32 1.000000
trans
  32 18.577389 0.704349 43.102341 -0.323883 0.789310 0.521622 0.913180 0.664970 1 32 1.000000
  32 18.366404 0.802338 42.752335 -0.553128 0.801325 0.227876 0.913180 0.748040 1 32 1.000000
  32 17.905537 1.000389 43.026901 0.261532 0.910188 -0.321183 0.992090 0.742220 1 32 1.000000
trans
  32 17.651337 0.804421 42.616371 -0.074697 0.664453 -0.743587 0.992090 0.818930 1 32 1.000000
  32 17.905537 1.000389 43.026901 0.261532 0.910188 -0.321183 0.992090 0.742220 1 32 1.000000
  32 18.366404 0.802338 42.752335 -0.553128 0.801325 0.227876 0.913180 0.748040 1 32 1.000000
trans
  32 18.366404 0.802338 42.752335 -0.553128 0.801325 0.227876 0.913180 0.748040 1 32 1.000000
  32 18.159157 0.629293 42.418007 -0.822760 0.547138 -0.153967 0.913180 0.830840 1 32 1.000000
  32 17.651337 0.804421 42.616371 -0.074697 0.664453 -0.743587 0.992090 0.818930 1 32 1.000000
trans
  32 17.497423 0.042259 42.347015 -0.264029 0.078588 -0.961308 0.992090 0.967770 1 32 1.000000
  32 17.651337 0.804421 42.616371 -0.074697 0.664453 -0.743587 0.992090 0.818930 1 32 1.000000
  32 18.159157 0.629293 42.418007 -0.822760 0.547138 -0.153967 0.913180 0.830840 1 32 1.000000
trans
  32 18.159157 0.629293 42.418007 -0.822760 0.547138 -0.153967 0.913180 0.830840 1 32 1.000000
  32 18.033161 0.033848 42.197266 -0.933734 0.060227 -0.352864 0.913180 0.961110 1 32 1.000000
  32 17.497423 0.042259 42.347015 -0.264029 0.078588 -0.961308 0.992090 0.967770 1 32 1.000000
trans
  32 20.052822 0.116520 42.553223 0.978747 0.118076 0.167665 0.913180 0.380650 1 32 1.000000
  32 20.454725 0.176501 42.448921 0.214727 0.217050 0.952251 0.992090 0.376110 1 32 1.000000
  32 20.345192 0.539503 42.270714 0.090019 0.596855 0.797283 0.992090 0.312540 1 32 1.000000
trans
  32 20.345192 0.539503 42.270714 0.090019 0.596855 0.797283 0.992090 0.312540 1 32 1.000000
  32 19.962187 0.416850 42.405762 0.900954 0.431879 0.041977 0.913180 0.316920 1 32 1.000000
  32 20.052822 0.116520 42.553223 0.978747 0.118076 0.167665 0.913180 0.380650 1 32 1.000000
trans
  32 19.962187 0.416850 42.405762 0.900954 0.431879 0.041977 0.913180 0.316920 1 32 1.000000
  32 20.345192 0.539503 42.270714 0.090019 0.596855 0.797283 0.992090 0.312540 1 32 1.000000
  32 20.173409 0.790175 42.026009 -0.106082 0.822684 0.558514 0.992090 0.256320 1 32 1.000000
trans
  32 20.173409 0.790175 42.026009 -0.106082 0.822684 0.558514 0.992090 0.256320 1 32 1.000000
  32 19.820059 0.624244 42.203308 0.772794 0.611346 -0.170425 0.913180 0.258810 1 32 1.000000
  32 19.962187 0.416850 42.405762 0.900954 0.431879 0.041977 0.913180 0.316920 1 32 1.000000
trans
  32 19.820059 0.624244 42.203308 0.772794 0.611346 -0.170425 0.913180 0.258810 1 32 1.000000
  32 20.173409 0.790175 42.026009 -0.106082 0.822684 0.558514 0.992090 0.256320 1 32 1.000000
  32 19.949097 0.875381 41.689835 -0.377004 0.906184 0.191567 0.992090 0.199820 1 32 1.000000
trans
  32 19.949097 0.875381 41.689835 -0.377004 0.906184 0.191567 0.992090 0.199820 1 32 1.000000
  32 19.634476 0.694740 41.925171 0.604692 0.657161 -0.449986 0.913180 0.200780 1 32 1.000000
  32 19.820059 0.624244 42.203308 0.772794 0.611346 -0.170425 0.913180 0.258810 1 32 1.000000
trans
  32 19.634476 0.694740 41.925171 0.604692 0.657161 -0.449986 0.913180 0.200780 1 32 1.000000
  32 19.949097 0.875381 41.689835 -0.377004 0.906184 0.191567 0.992090 0.199820 1 32 1.000000
  32 19.760506 0.762984 41.399910 -0.610852 0.774063 -0.166391 0.992090 0.152040 1 32 1.000000
trans
  32 19.760506 0.762984 41.399910 -0.610852 0.774063 -0.166391 0.992090 0.152040 1 32 1.000000
  32 19.478451 0.601748 41.685314 0.443620 0.555686 -0.703146 0.913180 0.150100 1 32 1.000000
  32 19.634476 0.694740 41.925171 0.604692 0.657161 -0.449986 0.913180 0.200780 1 32 1.000000
trans
  32 19.478451 0.601748 41.685314 0.443620 0.555686 -0.703146 0.913180 0.150100 1 32 1.000000
  32 19.760506 0.762984 41.399910 -0.610852 0.774063 -0.166391 0.992090 0.152040 1 32 1.000000
  32 19.618807 0.504015 41.179058 -0.754078 0.506678 -0.417903 0.992090 0.105250 1 32 1.000000
trans
  32 19.618807 0.504015 41.179058 -0.754078 0.506678 -0.417903 0.992090 0.105250 1 32 1.000000
  32 19.361214 0.387489 41.502590 0.334766 0.362267 -0.869882 0.913180 0.101690 1 32 1.000000
  32 19.478451 0.601748 41.685314 0.443620 0.555686 -0.703146 0.913180 0.150100 1 32 1.000000
trans
  32 19.361214 0.387489 41.502590 0.334766 0.362267 -0.869882 0.913180 0.101690 1 32 1.000000
  32 19.618807 0.504015 41.179058 -0.754078 0.506678 -0.417903 0.992090 0.105250 1 32 1.000000
  32 19.532417 0.114814 41.046696 -0.819661 0.149530 -0.552988 0.992090 0.052930 1 32 1.000000
trans
  32 19.532417 0.114814 41.046696 -0.819661 0.149530 -0.552988 0.992090 0.052930 1 32 1.000000
  32 19.289738 0.065484 41.393070 0.277569 0.092057 -0.956285 0.913180 0.051340 1 32 1.000000
  32 19.361214 0.387489 41.502590 0.334766 0.362267 -0.869882 0.913180 0.101690 1 32 1.000000
trans
  32 19.289738 0.065484 41.393070 0.277569 0.092057 -0.956285 0.913180 0.051340 1 32 1.000000
  32 19.532417 0.114814 41.046696 -0.819661 0.149530 -0.552988 0.992090 0.052930 1 32 1.000000
  32 19.537943 -0.249151 41.073105 -0.813534 -0.072398 -0.576993 0.992090 0.007420 1 32 1.000000
trans
  32 19.537943 -0.249151 41.073105 -0.813534 -0.072398 -0.576993 0.992090 0.007420 1 32 1.000000
  32 19.294313 -0.235643 41.414928 0.261917 -0.097885 -0.960113 0.913180 0.009390 1 32 1.000000
  32 19.289738 0.065484 41.393070 0.277569 0.092057 -0.956285 0.913180 0.051340 1 32 1.000000
trans
  32 19.294313 -0.235643 41.414928 0.261917 -0.097885 -0.960113 0.913180 0.933880 1 32 1.000000
  32 19.537943 -0.249151 41.073105 -0.813534 -0.072398 -0.576993 0.992090 0.949290 1 32 1.000000
  32 19.542225 -0.533793 41.111763 -0.799970 -0.279274 -0.531087 0.992090 0.889280 1 32 1.000000
trans
  32 19.542225 -0.533793 41.111763 -0.799970 -0.279274 -0.531087 0.992090 0.889280 1 32 1.000000
  32 19.297863 -0.471141 41.446911 0.295829 -0.253552 -0.920976 0.913180 0.879840 1 32 1.000000
  32 19.294313 -0.235643 41.414928 0.261917 -0.097885 -0.960113 0.913180 0.933880 1 32 1.000000
trans
  32 19.297863 -0.471141 41.446911 0.295829 -0.253552 -0.920976 0.913180 0.879840 1 32 1.000000
  32 19.542225 -0.533793 41.111763 -0.799970 -0.279274 -0.531087 0.992090 0.889280 1 32 1.000000
  32 19.622677 -0.830133 41.271954 -0.737557 -0.524498 -0.425337 0.992090 0.819500 1 32 1.000000
trans
  32 19.622677 -0.830133 41.271954 -0.737557 -0.524498 -0.425337 0.992090 0.819500 1 32 1.000000
  32 19.364408 -0.716320 41.579437 0.361865 -0.447892 -0.817586 0.913180 0.814630 1 32 1.000000
  32 19.297863 -0.471141 41.446911 0.295829 -0.253552 -0.920976 0.913180 0.879840 1 32 1.000000
trans
  32 19.364408 -0.716320 41.579437 0.361865 -0.447892 -0.817586 0.913180 0.814630 1 32 1.000000
  32 19.622677 -0.830133 41.271954 -0.737557 -0.524498 -0.425337 0.992090 0.819500 1 32 1.000000
  32 19.696339 -1.040521 41.458580 -0.673692 -0.678351 -0.293222 0.992090 0.761970 1 32 1.000000
trans
  32 19.696339 -1.040521 41.458580 -0.673692 -0.678351 -0.293222 0.992090 0.761970 1 32 1.000000
  32 19.425358 -0.890383 41.733849 0.408089 -0.536590 -0.738603 0.913180 0.758970 1 32 1.000000
  32 19.364408 -0.716320 41.579437 0.361865 -0.447892 -0.817586 0.913180 0.814630 1 32 1.000000
trans
  32 19.425358 -0.890383 41.733849 0.408089 -0.536590 -0.738603 0.913180 0.758970 1 32 1.000000
  32 19.696339 -1.040521 41.458580 -0.673692 -0.678351 -0.293222 0.992090 0.761970 1 32 1.000000
  32 19.836544 -1.217332 41.690495 -0.505321 -0.862468 0.028274 0.992090 0.704000 1 32 1.000000
trans
  32 19.836544 -1.217332 41.690495 -0.505321 -0.862468 0.028274 0.992090 0.704000 1 32 1.000000
  32 19.541351 -1.036669 41.925709 0.522100 -0.630913 -0.573899 0.913180 0.700440 1 32 1.000000
  32 19.425358 -0.890383 41.733849 0.408089 -0.536590 -0.738603 0.913180 0.758970 1 32 1.000000
trans
  32 19.541351 -1.036669 41.925709 0.522100 -0.630913 -0.573899 0.913180 0.700440 1 32 1.000000
  32 19.836544 -1.217332 41.690495 -0.505321 -0.862468 0.028274 0.992090 0.704000 1 32 1.000000
  32 20.052372 -1.210700 42.009758 -0.147515 -0.823205 0.548246 0.992090 0.638170 1 32 1.000000
trans
  32 20.052372 -1.210700 42.009758 -0.147515 -0.823205 0.548246 0.992090 0.638170 1 32 1.000000
  32 19.719927 -1.031182 42.189869 0.767224 -0.608554 -0.202555 0.913180 0.633430 1 32 1.000000
  32 19.541351 -1.036669 41.925709 0.522100 -0.630913 -0.573899 0.913180 0.700440 1 32 1.000000
trans
  32 19.719927 -1.031182 42.189869 0.767224 -0.608554 -0.202555 0.913180 0.633430 1 32 1.000000
  32 20.052372 -1.210700 42.009758 -0.147515 -0.823205 0.548246 0.992090 0.638170 1 32 1.000000
  32 20.187683 -0.972578 42.193493 0.078470 -0.628166 0.774113 0.992090 0.579500 1 32 1.000000
trans
  32 20.187683 -0.972578 42.193493 0.078470 -0.628166 0.774113 0.992090 0.579500 1 32 1.000000
  32 19.831869 -0.834170 42.341873 0.860182 -0.509905 0.009163 0.913180 0.575300 1 32 1.000000
  32 19.719927 -1.031182 42.189869 0.767224 -0.608554 -0.202555 0.913180 0.633430 1 32 1.000000
trans
  32 19.831869 -0.834170 42.341873 0.860182 -0.509905 0.009163 0.913180 0.575300 1 32 1.000000
  32 20.187683 -0.972578 42.193493 0.078470 -0.628166 0.774113 0.992090 0.579500 1 32 1.000000
  32 20.352615 -0.700654 42.392162 0.175239 -0.390830 0.903627 0.992090 0.519250 1 32 1.000000
trans
  32 20.352615 -0.700654 42.392162 0.175239 -0.390830 0.903627 0.992090 0.519250 1 32 1.000000
  32 19.968330 -0.609194 42.506248 0.930529 -0.351821 0.101674 0.913180 0.515290 1 32 1.000000
  32 19.831869 -0.834170 42.341873 0.860182 -0.509905 0.009163 0.913180 0.575300 1 32 1.000000
trans
  32 19.968330 -0.609194 42.506248 0.930529 -0.351821 0.101674 0.913180 0.515290 1 32 1.000000
  32 20.352615 -0.700654 42.392162 0.175239 -0.390830 0.903627 0.992090 0.519250 1 32 1.000000
  32 20.411940 -0.276737 42.434528 0.256093 -0.093221 0.962147 0.992090 0.446740 1 32 1.000000
trans
  32 20.411940 -0.276737 42.434528 0.256093 -0.093221 0.962147 0.992090 0.446740 1 32 1.000000
  32 20.017412 -0.258466 42.541302 0.972874 -0.118618 0.198610 0.913180 0.448380 1 32 1.000000
  32 19.968330 -0.609194 42.506248 0.930529 -0.351821 0.101674 0.913180 0.515290 1 32 1.000000
trans
  32 20.017412 -0.258466 42.541302 0.972874 -0.118618 0.198610 0.913180 0.448380 1 32 1.000000
  32 20.411940 -0.276737 42.434528 0.256093 -0.093221 0.962147 0.992090 0.446740 1 32 1.000000
  32 20.454725 0.176501 42.448921 0.214727 0.217050 0.952251 0.992090 0.376110 1 32 1.000000
trans
  32 20.454725 0.176501 42.448921 0.214727 0.217050 0.952251 0.992090 0.376110 1 32 1.000000
  32 20.052822 0.116520 42.553223 0.978747 0.118076 0.167665 0.913180 0.380650 1 32 1.000000
  32 20.017412 -0.258466 42.541302 0.972874 -0.118618 0.198610 0.913180 0.448380 1 32 1.000000
band
  32 19.289738 0.065484 41.393074 0.277569 0.092057 -0.956285 0.985310 0.915890 1 32 1.000000
  32 19.318092 -0.008012 41.627254 0.985883 -0.080471 -0.146830 0.969890 0.975050 1 32 1.000000
  32 19.320086 -0.221863 41.643589 0.993801 -0.001041 -0.111172 0.940830 0.975050 1 32 1.000000
band
  32 19.623312 -0.715462 42.173439 0.734474 0.211877 -0.644714 0.791710 0.975050 1 32 1.000000
  32 19.706476 -0.636454 42.275070 0.663930 0.155029 -0.731548 0.757860 0.975050 1 32 1.000000
  32 19.831869 -0.834170 42.341877 0.860182 -0.509905 0.009163 0.758780 0.915890 1 32 1.000000
band
  32 19.831869 -0.834170 42.341877 0.860182 -0.509905 0.009163 0.758780 0.915890 1 32 1.000000
  32 19.719927 -1.031182 42.189873 0.767224 -0.608554 -0.202555 0.789170 0.915890 1 32 1.000000
  32 19.623312 -0.715462 42.173439 0.734474 0.211877 -0.644714 0.791710 0.975050 1 32 1.000000
band
  32 19.501001 -0.724659 42.012337 0.833219 0.258898 -0.488587 0.825080 0.975050 1 32 1.000000
  32 19.623312 -0.715462 42.173439 0.734474 0.211877 -0.644714 0.791710 0.975050 1 32 1.000000
  32 19.719927 -1.031182 42.189873 0.767224 -0.608554 -0.202555 0.789170 0.915890 1 32 1.000000
band
  32 19.719927 -1.031182 42.189873 0.767224 -0.608554 -0.202555 0.789170 0.915890 1 32 1.000000
  32 19.541349 -1.036669 41.925713 0.522100 -0.630913 -0.573899 0.826170 0.915890 1 32 1.000000
  32 19.501001 -0.724659 42.012337 0.833219 0.258898 -0.488587 0.825080 0.975050 1 32 1.000000
band
  32 19.422102 -0.675287 41.893314 0.926185 0.225035 -0.302557 0.852070 0.975050 1 32 1.000000
  32 19.501001 -0.724659 42.012337 0.833219 0.258898 -0.488587 0.825080 0.975050 1 32 1.000000
  32 19.541349 -1.036669 41.925713 0.522100 -0.630913 -0.573899 0.826170 0.915890 1 32 1.000000
band
  32 19.541349 -1.036669 41.925713 0.522100 -0.630913 -0.573899 0.826170 0.915890 1 32 1.000000
  32 19.425358 -0.890383 41.733849 0.408089 -0.536590 -0.738603 0.856170 0.915890 1 32 1.000000
  32 19.422102 -0.675287 41.893314 0.926185 0.225035 -0.302557 0.852070 0.975050 1 32 1.000000
band
  32 19.375420 -0.562159 41.772240 0.965765 0.174944 -0.191554 0.882570 0.975050 1 32 1.000000
  32 19.422102 -0.675287 41.893314 0.926185 0.225035 -0.302557 0.852070 0.975050 1 32 1.000000
  32 19.425358 -0.890383 41.733849 0.408089 -0.536590 -0.738603 0.856170 0.915890 1 32 1.000000
band
  32 19.425358 -0.890383 41.733849 0.408089 -0.536590 -0.738603 0.856170 0.915890 1 32 1.000000
  32 19.364408 -0.716320 41.579437 0.361865 -0.447892 -0.817586 0.884480 0.915890 1 32 1.000000
  32 19.375420 -0.562159 41.772240 0.965765 0.174944 -0.191554 0.882570 0.975050 1 32 1.000000
band
  32 19.320755 -0.387361 41.668007 0.985499 0.086407 -0.146034 0.915540 0.975050 1 32 1.000000
  32 19.375420 -0.562159 41.772240 0.965765 0.174944 -0.191554 0.882570 0.975050 1 32 1.000000
  32 19.364408 -0.716320 41.579437 0.361865 -0.447892 -0.817586 0.884480 0.915890 1 32 1.000000
band
  32 19.364408 -0.716320 41.579437 0.361865 -0.447892 -0.817586 0.884480 0.915890 1 32 1.000000
  32 19.297863 -0.471141 41.446915 0.295829 -0.253552 -0.920976 0.918580 0.915890 1 32 1.000000
  32 19.320755 -0.387361 41.668007 0.985499 0.086407 -0.146034 0.915540 0.975050 1 32 1.000000
band
  32 19.320086 -0.221863 41.643589 0.993801 -0.001041 -0.111172 0.940830 0.975050 1 32 1.000000
  32 19.320755 -0.387361 41.668007 0.985499 0.086407 -0.146034 0.915540 0.975050 1 32 1.000000
  32 19.297863 -0.471141 41.446915 0.295829 -0.253552 -0.920976 0.918580 0.915890 1 32 1.000000
band
  32 19.297863 -0.471141 41.446915 0.295829 -0.253552 -0.920976 0.918580 0.915890 1 32 1.000000
  32 19.294313 -0.235643 41.414928 0.261917 -0.097885 -0.960113 0.946270 0.915890 1 32 1.000000
  32 19.320086 -0.221863 41.643589 0.993801 -0.001041 -0.111172 0.940830 0.975050 1 32 1.000000
band
  32 19.320086 -0.221863 41.643589 0.993801 -0.001041 -0.111172 0.940830 0.975050 1 32 1.000000
  32 19.294313 -0.235643 41.414928 0.261917 -0.097885 -0.960113 0.946270 0.915890 1 32 1.000000
  32 19.289738 0.065484 41.393074 0.277569 0.092057 -0.956285 0.985310 0.915890 1 32 1.000000
band
  32 19.289738 0.065484 41.393074 0.277569 0.092057 -0.956285 0.985310 0.915890 1 32 1.000000
  32 19.294313 -0.235643 41.414928 0.261917 -0.097885 -0.960113 0.946270 0.915890 1 32 1.000000
  32 19.189827 -0.241844 41.386353 -0.166572 -0.103640 -0.980567 0.947550 0.899630 1 32 1.000000
band
  32 19.189827 -0.241844 41.386353 -0.166572 -0.103640 -0.980567 0.947550 0.899630 1 32 1.000000
  32 19.184202 0.095280 41.362236 -0.143407 0.139595 -0.979769 0.989870 0.899630 1 32 1.000000
  32 19.289738 0.065484 41.393074 0.277569 0.092057 -0.956285 0.985310 0.915890 1 32 1.000000
band
  32 19.117159 0.094399 41.409176 -0.740768 0.155078 -0.653616 0.988840 0.888970 1 32 1.000000
  32 19.184202 0.095280 41.362236 -0.143407 0.139595 -0.979769 0.989870 0.899630 1 32 1.000000
  32 19.189827 -0.241844 41.386353 -0.166572 -0.103640 -0.980567 0.947550 0.899630 1 32 1.000000
band
  32 19.189827 -0.241844 41.386353 -0.166572 -0.103640 -0.980567 0.947550 0.899630 1 32 1.000000
  32 19.122787 -0.242725 41.433296 -0.738832 -0.081472 -0.668947 0.947930 0.888970 1 32 1.000000
  32 19.117159 0.094399 41.409176 -0.740768 0.155078 -0.653616 0.988840 0.888970 1 32 1.000000
band
  32 19.117159 0.094399 41.409176 -0.740768 0.155078 -0.653616 0.988840 0.888970 1 32 1.000000
  32 19.122787 -0.242725 41.433296 -0.738832 -0.081472 -0.668947 0.947930 0.888970 1 32 1.000000
  32 19.080978 -0.241110 41.508247 -0.715226 -0.112190 -0.689829 0.948050 0.877550 1 32 1.000000
band
  32 19.464134 -1.151914 41.955708 0.258620 -0.851918 -0.455359 0.825680 0.899630 1 32 1.000000
  32 19.541349 -1.036669 41.925713 0.522100 -0.630913 -0.573899 0.826170 0.915890 1 32 1.000000
  32 19.719927 -1.031182 42.189873 0.767224 -0.608554 -0.202555 0.789170 0.915890 1 32 1.000000
band
  32 19.265999 -0.780423 41.565639 -0.033407 -0.567310 -0.822827 0.884050 0.899630 1 32 1.000000
  32 19.364408 -0.716320 41.579437 0.361865 -0.447892 -0.817586 0.884480 0.915890 1 32 1.000000
  32 19.425358 -0.890383 41.733849 0.408089 -0.536590 -0.738603 0.856170 0.915890 1 32 1.000000
band
  32 19.425358 -0.890383 41.733849 0.408089 -0.536590 -0.738603 0.856170 0.915890 1 32 1.000000
  32 19.332842 -0.979620 41.733788 0.059598 -0.703437 -0.708254 0.855910 0.899630 1 32 1.000000
  32 19.265999 -0.780423 41.565639 -0.033407 -0.567310 -0.822827 0.884050 0.899630 1 32 1.000000
band
  32 19.332842 -0.979620 41.733788 0.059598 -0.703437 -0.708254 0.855910 0.899630 1 32 1.000000
  32 19.425358 -0.890383 41.733849 0.408089 -0.536590 -0.738603 0.856170 0.915890 1 32 1.000000
  32 19.541349 -1.036669 41.925713 0.522100 -0.630913 -0.573899 0.826170 0.915890 1 32 1.000000
band
  32 19.541349 -1.036669 41.925713 0.522100 -0.630913 -0.573899 0.826170 0.915890 1 32 1.000000
  32 19.464134 -1.151914 41.955708 0.258620 -0.851918 -0.455359 0.825680 0.899630 1 32 1.000000
  32 19.332842 -0.979620 41.733788 0.059598 -0.703437 -0.708254 0.855910 0.899630 1 32 1.000000
band
  32 19.332842 -0.979620 41.733788 0.059598 -0.703437 -0.708254 0.855910 0.899630 1 32 1.000000
  32 19.464134 -1.151914 41.955708 0.258620 -0.851918 -0.455359 0.825680 0.899630 1 32 1.000000
  32 19.397095 -1.152796 42.002655 -0.400978 -0.914262 -0.057810 0.825810 0.888970 1 32 1.000000
band
  32 19.397095 -1.152796 42.002655 -0.400978 -0.914262 -0.057810 0.825810 0.888970 1 32 1.000000
  32 19.265804 -0.980501 41.780739 -0.588638 -0.709126 -0.388130 0.856730 0.888970 1 32 1.000000
  32 19.332842 -0.979620 41.733788 0.059598 -0.703437 -0.708254 0.855910 0.899630 1 32 1.000000
band
  32 19.218731 -0.942224 41.842354 -0.615725 -0.700922 -0.359987 0.858270 0.877550 1 32 1.000000
  32 19.265804 -0.980501 41.780739 -0.588638 -0.709126 -0.388130 0.856730 0.888970 1 32 1.000000
  32 19.397095 -1.152796 42.002655 -0.400978 -0.914262 -0.057810 0.825810 0.888970 1 32 1.000000
band
  32 19.265804 -0.980501 41.780739 -0.588638 -0.709126 -0.388130 0.856730 0.888970 1 32 1.000000
  32 19.218731 -0.942224 41.842354 -0.615725 -0.700922 -0.359987 0.858270 0.877550 1 32 1.000000
  32 19.154352 -0.755377 41.681141 -0.655813 -0.546241 -0.521086 0.886120 0.877550 1 32 1.000000
band
  32 19.154352 -0.755377 41.681141 -0.655813 -0.546241 -0.521086 0.886120 0.877550 1 32 1.000000
  32 19.198956 -0.781303 41.612576 -0.655813 -0.546241 -0.521086 0.884790 0.888970 1 32 1.000000
  32 19.265804 -0.980501 41.780739 -0.588638 -0.709126 -0.388130 0.856730 0.888970 1 32 1.000000
band
  32 19.198956 -0.781303 41.612576 -0.655813 -0.546241 -0.521086 0.884790 0.888970 1 32 1.000000
  32 19.154352 -0.755377 41.681141 -0.655813 -0.546241 -0.521086 0.886120 0.877550 1 32 1.000000
  32 19.084972 -0.492538 41.542400 -0.721572 -0.293003 -0.627282 0.919760 0.877550 1 32 1.000000
band
  32 19.084972 -0.492538 41.542400 -0.721572 -0.293003 -0.627282 0.919760 0.877550 1 32 1.000000
  32 19.127514 -0.507096 41.468388 -0.721572 -0.293003 -0.627282 0.919120 0.888970 1 32 1.000000
  32 19.198956 -0.781303 41.612576 -0.655813 -0.546241 -0.521086 0.884790 0.888970 1 32 1.000000
band
  32 19.122787 -0.242725 41.433296 -0.738832 -0.081472 -0.668947 0.947930 0.888970 1 32 1.000000
  32 19.127514 -0.507096 41.468388 -0.721572 -0.293003 -0.627282 0.919120 0.888970 1 32 1.000000
  32 19.084972 -0.492538 41.542400 -0.721572 -0.293003 -0.627282 0.919760 0.877550 1 32 1.000000
band
  32 19.194551 -0.506215 41.421448 -0.123872 -0.313107 -0.941605 0.918740 0.899630 1 32 1.000000
  32 19.127514 -0.507096 41.468388 -0.721572 -0.293003 -0.627282 0.919120 0.888970 1 32 1.000000
  32 19.122787 -0.242725 41.433296 -0.738832 -0.081472 -0.668947 0.947930 0.888970 1 32 1.000000
band
  32 19.122787 -0.242725 41.433296 -0.738832 -0.081472 -0.668947 0.947930 0.888970 1 32 1.000000
  32 19.189827 -0.241844 41.386353 -0.166572 -0.103640 -0.980567 0.947550 0.899630 1 32 1.000000
  32 19.194551 -0.506215 41.421448 -0.123872 -0.313107 -0.941605 0.918740 0.899630 1 32 1.000000
band
  32 19.297863 -0.471141 41.446915 0.295829 -0.253552 -0.920976 0.918580 0.915890 1 32 1.000000
  32 19.194551 -0.506215 41.421448 -0.123872 -0.313107 -0.941605 0.918740 0.899630 1 32 1.000000
  32 19.189827 -0.241844 41.386353 -0.166572 -0.103640 -0.980567 0.947550 0.899630 1 32 1.000000
band
  32 19.189827 -0.241844 41.386353 -0.166572 -0.103640 -0.980567 0.947550 0.899630 1 32 1.000000
  32 19.294313 -0.235643 41.414928 0.261917 -0.097885 -0.960113 0.946270 0.915890 1 32 1.000000
  32 19.297863 -0.471141 41.446915 0.295829 -0.253552 -0.920976 0.918580 0.915890 1 32 1.000000
band
  32 19.198956 -0.781303 41.612576 -0.655813 -0.546241 -0.521086 0.884790 0.888970 1 32 1.000000
  32 19.127514 -0.507096 41.468388 -0.721572 -0.293003 -0.627282 0.919120 0.888970 1 32 1.000000
  32 19.194551 -0.506215 41.421448 -0.123872 -0.313107 -0.941605 0.918740 0.899630 1 32 1.000000
band
  32 19.265999 -0.780423 41.565639 -0.033407 -0.567310 -0.822827 0.884050 0.899630 1 32 1.000000
  32 19.332842 -0.979620 41.733788 0.059598 -0.703437 -0.708254 0.855910 0.899630 1 32 1.000000
  32 19.265804 -0.980501 41.780739 -0.588638 -0.709126 -0.388130 0.856730 0.888970 1 32 1.000000
band
  32 19.265804 -0.980501 41.780739 -0.588638 -0.709126 -0.388130 0.856730 0.888970 1 32 1.000000
  32 19.198956 -0.781303 41.612576 -0.655813 -0.546241 -0.521086 0.884790 0.888970 1 32 1.000000
  32 19.265999 -0.780423 41.565639 -0.033407 -0.567310 -0.822827 0.884050 0.899630 1 32 1.000000
band
  32 19.194551 -0.506215 41.421448 -0.123872 -0.313107 -0.941605 0.918740 0.899630 1 32 1.000000
  32 19.265999 -0.780423 41.565639 -0.033407 -0.567310 -0.822827 0.884050 0.899630 1 32 1.000000
  32 19.198956 -0.781303 41.612576 -0.655813 -0.546241 -0.521086 0.884790 0.888970 1 32 1.000000
band
  32 19.364408 -0.716320 41.579437 0.361865 -0.447892 -0.817586 0.884480 0.915890 1 32 1.000000
  32 19.265999 -0.780423 41.565639 -0.033407 -0.567310 -0.822827 0.884050 0.899630 1 32 1.000000
  32 19.194551 -0.506215 41.421448 -0.123872 -0.313107 -0.941605 0.918740 0.899630 1 32 1.000000
band
  32 19.194551 -0.506215 41.421448 -0.123872 -0.313107 -0.941605 0.918740 0.899630 1 32 1.000000
  32 19.297863 -0.471141 41.446915 0.295829 -0.253552 -0.920976 0.918580 0.915890 1 32 1.000000
  32 19.364408 -0.716320 41.579437 0.361865 -0.447892 -0.817586 0.884480 0.915890 1 32 1.000000
band
  32 19.084972 -0.492538 41.542400 -0.721572 -0.293003 -0.627282 0.919760 0.877550 1 32 1.000000
  32 19.080978 -0.241110 41.508247 -0.715226 -0.112190 -0.689829 0.948050 0.877550 1 32 1.000000
  32 19.122787 -0.242725 41.433296 -0.738832 -0.081472 -0.668947 0.947930 0.888970 1 32 1.000000
band
  32 19.084972 -0.492538 41.542400 -0.721572 -0.293003 -0.627282 0.919760 0.877550 1 32 1.000000
  32 18.317995 -0.566417 42.163738 -0.384030 -0.423610 -0.820411 0.902530 0.752340 1 32 1.000000
  32 19.080978 -0.241110 41.508247 -0.715226 -0.112190 -0.689829 0.948050 0.877550 1 32 1.000000
band
  32 18.317995 -0.566417 42.163738 -0.384030 -0.423610 -0.820411 0.902530 0.752340 1 32 1.000000
  32 19.084972 -0.492538 41.542400 -0.721572 -0.293003 -0.627282 0.919760 0.877550 1 32 1.000000
  32 19.154352 -0.755377 41.681141 -0.655813 -0.546241 -0.521086 0.886120 0.877550 1 32 1.000000
band
  32 18.500868 -0.960401 42.498741 -0.193121 -0.835857 -0.513855 0.839930 0.752340 1 32 1.000000
  32 18.317995 -0.566417 42.163738 -0.384030 -0.423610 -0.820411 0.902530 0.752340 1 32 1.000000
  32 19.154352 -0.755377 41.681141 -0.655813 -0.546241 -0.521086 0.886120 0.877550 1 32 1.000000
band
  32 19.218731 -0.942224 41.842354 -0.615725 -0.700922 -0.359987 0.858270 0.877550 1 32 1.000000
  32 18.500868 -0.960401 42.498741 -0.193121 -0.835857 -0.513855 0.839930 0.752340 1 32 1.000000
  32 19.154352 -0.755377 41.681141 -0.655813 -0.546241 -0.521086 0.886120 0.877550 1 32 1.000000
band
  32 18.500868 -0.960401 42.498741 -0.193121 -0.835857 -0.513855 0.839930 0.752340 1 32 1.000000
  32 19.218731 -0.942224 41.842354 -0.615725 -0.700922 -0.359987 0.858270 0.877550 1 32 1.000000
  32 19.343040 -1.102231 42.051292 -0.400978 -0.914262 -0.057810 0.826360 0.877550 1 32 1.000000
band
  32 19.397095 -1.152796 42.002655 -0.400978 -0.914262 -0.057810 0.825810 0.888970 1 32 1.000000
  32 19.343040 -1.102231 42.051292 -0.400978 -0.914262 -0.057810 0.826360 0.877550 1 32 1.000000
  32 19.218731 -0.942224 41.842354 -0.615725 -0.700922 -0.359987 0.858270 0.877550 1 32 1.000000
band
  32 19.343040 -1.102231 42.051292 -0.400978 -0.914262 -0.057810 0.826360 0.877550 1 32 1.000000
  32 19.397095 -1.152796 42.002655 -0.400978 -0.914262 -0.057810 0.825810 0.888970 1 32 1.000000
  32 19.598862 -1.141220 42.309296 -0.021394 -0.870179 0.492271 0.788500 0.888970 1 32 1.000000
band
  32 19.598862 -1.141220 42.309296 -0.021394 -0.870179 0.492271 0.788500 0.888970 1 32 1.000000
  32 19.397095 -1.152796 42.002655 -0.400978 -0.914262 -0.057810 0.825810 0.888970 1 32 1.000000
  32 19.464134 -1.151914 41.955708 0.258620 -0.851918 -0.455359 0.825680 0.899630 1 32 1.000000
band
  32 19.464134 -1.151914 41.955708 0.258620 -0.851918 -0.455359 0.825680 0.899630 1 32 1.000000
  32 19.665899 -1.140340 42.262356 0.589146 -0.806909 0.042481 0.789030 0.899630 1 32 1.000000
  32 19.598862 -1.141220 42.309296 -0.021394 -0.870179 0.492271 0.788500 0.888970 1 32 1.000000
band
  32 19.719927 -1.031182 42.189873 0.767224 -0.608554 -0.202555 0.789170 0.915890 1 32 1.000000
  32 19.665899 -1.140340 42.262356 0.589146 -0.806909 0.042481 0.789030 0.899630 1 32 1.000000
  32 19.464134 -1.151914 41.955708 0.258620 -0.851918 -0.455359 0.825680 0.899630 1 32 1.000000
band
  32 19.665899 -1.140340 42.262356 0.589146 -0.806909 0.042481 0.789030 0.899630 1 32 1.000000
  32 19.719927 -1.031182 42.189873 0.767224 -0.608554 -0.202555 0.789170 0.915890 1 32 1.000000
  32 19.831869 -0.834170 42.341877 0.860182 -0.509905 0.009163 0.758780 0.915890 1 32 1.000000
band
  32 19.831869 -0.834170 42.341877 0.860182 -0.509905 0.009163 0.758780 0.915890 1 32 1.000000
  32 19.789736 -0.916239 42.435173 0.706478 -0.636973 0.308471 0.757710 0.899630 1 32 1.000000
  32 19.665899 -1.140340 42.262356 0.589146 -0.806909 0.042481 0.789030 0.899630 1 32 1.000000
band
  32 19.789736 -0.916239 42.435173 0.706478 -0.636973 0.308471 0.757710 0.899630 1 32 1.000000
  32 19.831869 -0.834170 42.341877 0.860182 -0.509905 0.009163 0.758780 0.915890 1 32 1.000000
  32 19.968328 -0.609194 42.506245 0.930529 -0.351821 0.101674 0.713030 0.915890 1 32 1.000000
band
  32 19.968328 -0.609194 42.506245 0.930529 -0.351821 0.101674 0.713030 0.915890 1 32 1.000000
  32 19.937151 -0.663576 42.619156 0.792363 -0.419382 0.443034 0.713650 0.899630 1 32 1.000000
  32 19.789736 -0.916239 42.435173 0.706478 -0.636973 0.308471 0.757710 0.899630 1 32 1.000000
band
  32 19.937151 -0.663576 42.619156 0.792363 -0.419382 0.443034 0.713650 0.899630 1 32 1.000000
  32 19.968328 -0.609194 42.506245 0.930529 -0.351821 0.101674 0.713030 0.915890 1 32 1.000000
  32 20.017412 -0.258466 42.541302 0.972874 -0.118618 0.198610 0.658590 0.915890 1 32 1.000000
band
  32 20.017412 -0.258466 42.541302 0.972874 -0.118618 0.198610 0.658590 0.915890 1 32 1.000000
  32 19.990324 -0.269921 42.660545 0.825769 -0.131421 0.548483 0.658650 0.899630 1 32 1.000000
  32 19.937151 -0.663576 42.619156 0.792363 -0.419382 0.443034 0.713650 0.899630 1 32 1.000000
band
  32 20.027149 0.153764 42.675941 0.836353 0.180955 0.517464 0.600090 0.899630 1 32 1.000000
  32 19.990324 -0.269921 42.660545 0.825769 -0.131421 0.548483 0.658650 0.899630 1 32 1.000000
  32 20.017412 -0.258466 42.541302 0.972874 -0.118618 0.198610 0.658590 0.915890 1 32 1.000000
band
  32 18.789713 -1.059614 42.947803 0.339309 -0.929852 0.142285 0.779870 0.752340 1 32 1.000000
  32 18.500868 -0.960401 42.498741 -0.193121 -0.835857 -0.513855 0.839930 0.752340 1 32 1.000000
  32 19.343040 -1.102231 42.051292 -0.400978 -0.914262 -0.057810 0.826360 0.877550 1 32 1.000000
band
  32 19.534426 -1.092922 42.339615 -0.021394 -0.870179 0.492271 0.787310 0.877550 1 32 1.000000
  32 18.789713 -1.059614 42.947803 0.339309 -0.929852 0.142285 0.779870 0.752340 1 32 1.000000
  32 19.343040 -1.102231 42.051292 -0.400978 -0.914262 -0.057810 0.826360 0.877550 1 32 1.000000
band
  32 19.598862 -1.141220 42.309296 -0.021394 -0.870179 0.492271 0.788500 0.888970 1 32 1.000000
  32 19.534426 -1.092922 42.339615 -0.021394 -0.870179 0.492271 0.787310 0.877550 1 32 1.000000
  32 19.343040 -1.102231 42.051292 -0.400978 -0.914262 -0.057810 0.826360 0.877550 1 32 1.000000
band
  32 19.534426 -1.092922 42.339615 -0.021394 -0.870179 0.492271 0.787310 0.877550 1 32 1.000000
  32 19.598862 -1.141220 42.309296 -0.021394 -0.870179 0.492271 0.788500 0.888970 1 32 1.000000
  32 19.722692 -0.917120 42.482121 0.190399 -0.655651 0.730663 0.755790 0.888970 1 32 1.000000
band
  32 19.722692 -0.917120 42.482121 0.190399 -0.655651 0.730663 0.755790 0.888970 1 32 1.000000
  32 19.598862 -1.141220 42.309296 -0.021394 -0.870179 0.492271 0.788500 0.888970 1 32 1.000000
  32 19.665899 -1.140340 42.262356 0.589146 -0.806909 0.042481 0.789030 0.899630 1 32 1.000000
band
  32 19.665899 -1.140340 42.262356 0.589146 -0.806909 0.042481 0.789030 0.899630 1 32 1.000000
  32 19.789736 -0.916239 42.435173 0.706478 -0.636973 0.308471 0.757710 0.899630 1 32 1.000000
  32 19.722692 -0.917120 42.482121 0.190399 -0.655651 0.730663 0.755790 0.888970 1 32 1.000000
band
  32 19.870115 -0.664457 42.666096 0.281359 -0.412202 0.866560 0.712640 0.888970 1 32 1.000000
  32 19.722692 -0.917120 42.482121 0.190399 -0.655651 0.730663 0.755790 0.888970 1 32 1.000000
  32 19.789736 -0.916239 42.435173 0.706478 -0.636973 0.308471 0.757710 0.899630 1 32 1.000000
band
  32 19.789736 -0.916239 42.435173 0.706478 -0.636973 0.308471 0.757710 0.899630 1 32 1.000000
  32 19.937151 -0.663576 42.619156 0.792363 -0.419382 0.443034 0.713650 0.899630 1 32 1.000000
  32 19.870115 -0.664457 42.666096 0.281359 -0.412202 0.866560 0.712640 0.888970 1 32 1.000000
band
  32 19.923281 -0.270802 42.707493 0.336337 -0.101150 0.936294 0.658760 0.888970 1 32 1.000000
  32 19.870115 -0.664457 42.666096 0.281359 -0.412202 0.866560 0.712640 0.888970 1 32 1.000000
  32 19.937151 -0.663576 42.619156 0.792363 -0.419382 0.443034 0.713650 0.899630 1 32 1.000000
band
  32 19.937151 -0.663576 42.619156 0.792363 -0.419382 0.443034 0.713650 0.899630 1 32 1.000000
  32 19.990324 -0.269921 42.660545 0.825769 -0.131421 0.548483 0.658650 0.899630 1 32 1.000000
  32 19.923281 -0.270802 42.707493 0.336337 -0.101150 0.936294 0.658760 0.888970 1 32 1.000000
band
  32 19.960112 0.152883 42.722897 0.297399 0.218250 0.929473 0.601350 0.888970 1 32 1.000000
  32 19.923281 -0.270802 42.707493 0.336337 -0.101150 0.936294 0.658760 0.888970 1 32 1.000000
  32 19.990324 -0.269921 42.660545 0.825769 -0.131421 0.548483 0.658650 0.899630 1 32 1.000000
band
  32 19.847296 -0.266327 42.715385 0.469799 -0.106631 0.876310 0.658650 0.877550 1 32 1.000000
  32 19.923281 -0.270802 42.707493 0.336337 -0.101150 0.936294 0.658760 0.888970 1 32 1.000000
  32 19.960112 0.152883 42.722897 0.297399 0.218250 0.929473 0.601350 0.888970 1 32 1.000000
band
  32 19.960112 0.152883 42.722897 0.297399 0.218250 0.929473 0.601350 0.888970 1 32 1.000000
  32 19.883123 0.141992 42.723190 0.363951 0.221759 0.904634 0.602690 0.877550 1 32 1.000000
  32 19.847296 -0.266327 42.715385 0.469799 -0.106631 0.876310 0.658650 0.877550 1 32 1.000000
band
  32 19.883123 0.141992 42.723190 0.363951 0.221759 0.904634 0.602690 0.877550 1 32 1.000000
  32 19.137030 0.100310 43.437042 0.757167 0.219678 0.615174 0.609070 0.752340 1 32 1.000000
  32 19.847296 -0.266327 42.715385 0.469799 -0.106631 0.876310 0.658650 0.877550 1 32 1.000000
band
  32 19.137030 0.100310 43.437042 0.757167 0.219678 0.615174 0.609070 0.752340 1 32 1.000000
  32 19.883123 0.141992 42.723190 0.363951 0.221759 0.904634 0.602690 0.877550 1 32 1.000000
  32 19.787554 0.453414 42.577473 0.304143 0.672854 0.674363 0.555920 0.877550 1 32 1.000000
band
  32 19.787554 0.453414 42.577473 0.304143 0.672854 0.674363 0.555920 0.877550 1 32 1.000000
  32 19.883123 0.141992 42.723190 0.363951 0.221759 0.904634 0.602690 0.877550 1 32 1.000000
  32 19.960112 0.152883 42.722897 0.297399 0.218250 0.929473 0.601350 0.888970 1 32 1.000000
band
  32 19.960112 0.152883 42.722897 0.297399 0.218250 0.929473 0.601350 0.888970 1 32 1.000000
  32 19.859814 0.491922 42.558086 0.181701 0.613834 0.768240 0.553060 0.888970 1 32 1.000000
  32 19.787554 0.453414 42.577473 0.304143 0.672854 0.674363 0.555920 0.877550 1 32 1.000000
band
  32 19.636511 0.679316 42.355431 -0.016923 0.855609 0.517345 0.511150 0.877550 1 32 1.000000
  32 19.787554 0.453414 42.577473 0.304143 0.672854 0.674363 0.555920 0.877550 1 32 1.000000
  32 19.859814 0.491922 42.558086 0.181701 0.613834 0.768240 0.553060 0.888970 1 32 1.000000
band
  32 19.859814 0.491922 42.558086 0.181701 0.613834 0.768240 0.553060 0.888970 1 32 1.000000
  32 19.702587 0.727015 42.328403 -0.016923 0.855609 0.517345 0.509800 0.888970 1 32 1.000000
  32 19.636511 0.679316 42.355431 -0.016923 0.855609 0.517345 0.511150 0.877550 1 32 1.000000
band
  32 19.087990 -0.611854 43.374275 0.711588 -0.442287 0.545917 0.704170 0.752340 1 32 1.000000
  32 18.789713 -1.059614 42.947803 0.339309 -0.929852 0.142285 0.779870 0.752340 1 32 1.000000
  32 19.652903 -0.881448 42.502357 0.259219 -0.687368 0.678477 0.752760 0.877550 1 32 1.000000
band
  32 18.789713 -1.059614 42.947803 0.339309 -0.929852 0.142285 0.779870 0.752340 1 32 1.000000
  32 19.534426 -1.092922 42.339615 -0.021394 -0.870179 0.492271 0.787310 0.877550 1 32 1.000000
  32 19.652903 -0.881448 42.502357 0.259219 -0.687368 0.678477 0.752760 0.877550 1 32 1.000000
band
  32 19.722692 -0.917120 42.482121 0.190399 -0.655651 0.730663 0.755790 0.888970 1 32 1.000000
  32 19.652903 -0.881448 42.502357 0.259219 -0.687368 0.678477 0.752760 0.877550 1 32 1.000000
  32 19.534426 -1.092922 42.339615 -0.021394 -0.870179 0.492271 0.787310 0.877550 1 32 1.000000
band
  32 19.652903 -0.881448 42.502357 0.259219 -0.687368 0.678477 0.752760 0.877550 1 32 1.000000
  32 19.722692 -0.917120 42.482121 0.190399 -0.655651 0.730663 0.755790 0.888970 1 32 1.000000
  32 19.870115 -0.664457 42.666096 0.281359 -0.412202 0.866560 0.712640 0.888970 1 32 1.000000
band
  32 19.870115 -0.664457 42.666096 0.281359 -0.412202 0.866560 0.712640 0.888970 1 32 1.000000
  32 19.794470 -0.641895 42.676975 0.340506 -0.423282 0.839576 0.710680 0.877550 1 32 1.000000
  32 19.652903 -0.881448 42.502357 0.259219 -0.687368 0.678477 0.752760 0.877550 1 32 1.000000
band
  32 19.794470 -0.641895 42.676975 0.340506 -0.423282 0.839576 0.710680 0.877550 1 32 1.000000
  32 19.870115 -0.664457 42.666096 0.281359 -0.412202 0.866560 0.712640 0.888970 1 32 1.000000
  32 19.923281 -0.270802 42.707493 0.336337 -0.101150 0.936294 0.658760 0.888970 1 32 1.000000
band
  32 19.923281 -0.270802 42.707493 0.336337 -0.101150 0.936294 0.658760 0.888970 1 32 1.000000
  32 19.847296 -0.266327 42.715385 0.469799 -0.106631 0.876310 0.658650 0.877550 1 32 1.000000
  32 19.794470 -0.641895 42.676975 0.340506 -0.423282 0.839576 0.710680 0.877550 1 32 1.000000
band
  32 19.087990 -0.611854 43.374275 0.711588 -0.442287 0.545917 0.704170 0.752340 1 32 1.000000
  32 19.794470 -0.641895 42.676975 0.340506 -0.423282 0.839576 0.710680 0.877550 1 32 1.000000
  32 19.847296 -0.266327 42.715385 0.469799 -0.106631 0.876310 0.658650 0.877550 1 32 1.000000
band
  32 19.137030 0.100310 43.437042 0.757167 0.219678 0.615174 0.609070 0.752340 1 32 1.000000
  32 19.087990 -0.611854 43.374275 0.711588 -0.442287 0.545917 0.704170 0.752340 1 32 1.000000
  32 19.847296 -0.266327 42.715385 0.469799 -0.106631 0.876310 0.658650 0.877550 1 32 1.000000
band
  32 19.794470 -0.641895 42.676975 0.340506 -0.423282 0.839576 0.710680 0.877550 1 32 1.000000
  32 19.087990 -0.611854 43.374275 0.711588 -0.442287 0.545917 0.704170 0.752340 1 32 1.000000
  32 19.652903 -0.881448 42.502357 0.259219 -0.687368 0.678477 0.752760 0.877550 1 32 1.000000
band
  32 19.636511 0.679316 42.355431 -0.016923 0.855609 0.517345 0.511150 0.877550 1 32 1.000000
  32 18.796185 0.708635 42.950649 0.402143 0.898174 0.177665 0.511500 0.752340 1 32 1.000000
  32 19.787554 0.453414 42.577473 0.304143 0.672854 0.674363 0.555920 0.877550 1 32 1.000000
band
  32 18.796185 0.708635 42.950649 0.402143 0.898174 0.177665 0.511500 0.752340 1 32 1.000000
  32 19.636511 0.679316 42.355431 -0.016923 0.855609 0.517345 0.511150 0.877550 1 32 1.000000
  32 19.440903 0.754611 42.056931 -0.189014 0.981013 0.043439 0.465930 0.877550 1 32 1.000000
band
  32 19.440903 0.754611 42.056931 -0.189014 0.981013 0.043439 0.465930 0.877550 1 32 1.000000
  32 19.636511 0.679316 42.355431 -0.016923 0.855609 0.517345 0.511150 0.877550 1 32 1.000000
  32 19.702587 0.727015 42.328403 -0.016923 0.855609 0.517345 0.509800 0.888970 1 32 1.000000
band
  32 19.702587 0.727015 42.328403 -0.016923 0.855609 0.517345 0.509800 0.888970 1 32 1.000000
  32 19.498119 0.807342 42.014473 -0.293189 0.948015 0.123725 0.466050 0.888970 1 32 1.000000
  32 19.440903 0.754611 42.056931 -0.189014 0.981013 0.043439 0.465930 0.877550 1 32 1.000000
band
  32 19.275608 0.653674 41.799805 -0.528969 0.809087 -0.256066 0.426420 0.877550 1 32 1.000000
  32 19.440903 0.754611 42.056931 -0.189014 0.981013 0.043439 0.465930 0.877550 1 32 1.000000
  32 19.498119 0.807342 42.014473 -0.293189 0.948015 0.123725 0.466050 0.888970 1 32 1.000000
band
  32 19.498119 0.807342 42.014473 -0.293189 0.948015 0.123725 0.466050 0.888970 1 32 1.000000
  32 19.325979 0.698812 41.742115 -0.528969 0.809087 -0.256066 0.428570 0.888970 1 32 1.000000
  32 19.275608 0.653674 41.799805 -0.528969 0.809087 -0.256066 0.426420 0.877550 1 32 1.000000
band
  32 19.151619 0.424857 41.603245 -0.637625 0.508442 -0.578723 0.385940 0.877550 1 32 1.000000
  32 19.275608 0.653674 41.799805 -0.528969 0.809087 -0.256066 0.426420 0.877550 1 32 1.000000
  32 19.325979 0.698812 41.742115 -0.528969 0.809087 -0.256066 0.428570 0.888970 1 32 1.000000
band
  32 19.325979 0.698812 41.742115 -0.528969 0.809087 -0.256066 0.428570 0.888970 1 32 1.000000
  32 19.196459 0.458135 41.534283 -0.672564 0.531886 -0.514544 0.389270 0.888970 1 32 1.000000
  32 19.151619 0.424857 41.603245 -0.637625 0.508442 -0.578723 0.385940 0.877550 1 32 1.000000
band
  32 19.990324 -0.269921 42.660545 0.825769 -0.131421 0.548483 0.658650 0.899630 1 32 1.000000
  32 20.027149 0.153764 42.675941 0.836353 0.180955 0.517464 0.600090 0.899630 1 32 1.000000
  32 19.960112 0.152883 42.722897 0.297399 0.218250 0.929473 0.601350 0.888970 1 32 1.000000
band
  32 19.960112 0.152883 42.722897 0.297399 0.218250 0.929473 0.601350 0.888970 1 32 1.000000
  32 20.027149 0.153764 42.675941 0.836353 0.180955 0.517464 0.600090 0.899630 1 32 1.000000
  32 19.926853 0.492803 42.511139 0.738182 0.578010 0.347838 0.551820 0.899630 1 32 1.000000
band
  32 19.926853 0.492803 42.511139 0.738182 0.578010 0.347838 0.551820 0.899630 1 32 1.000000
  32 19.859814 0.491922 42.558086 0.181701 0.613834 0.768240 0.553060 0.888970 1 32 1.000000
  32 19.960112 0.152883 42.722897 0.297399 0.218250 0.929473 0.601350 0.888970 1 32 1.000000
band
  32 19.859814 0.491922 42.558086 0.181701 0.613834 0.768240 0.553060 0.888970 1 32 1.000000
  32 19.926853 0.492803 42.511139 0.738182 0.578010 0.347838 0.551820 0.899630 1 32 1.000000
  32 19.769629 0.727896 42.281456 0.588144 0.804501 0.082854 0.509160 0.899630 1 32 1.000000
band
  32 19.769629 0.727896 42.281456 0.588144 0.804501 0.082854 0.509160 0.899630 1 32 1.000000
  32 19.702587 0.727015 42.328403 -0.016923 0.855609 0.517345 0.509800 0.888970 1 32 1.000000
  32 19.859814 0.491922 42.558086 0.181701 0.613834 0.768240 0.553060 0.888970 1 32 1.000000
band
  32 19.702587 0.727015 42.328403 -0.016923 0.855609 0.517345 0.509800 0.888970 1 32 1.000000
  32 19.769629 0.727896 42.281456 0.588144 0.804501 0.082854 0.509160 0.899630 1 32 1.000000
  32 19.565159 0.808223 41.967529 0.355836 0.887564 -0.292593 0.466130 0.899630 1 32 1.000000
band
  32 19.565159 0.808223 41.967529 0.355836 0.887564 -0.292593 0.466130 0.899630 1 32 1.000000
  32 19.498119 0.807342 42.014473 -0.293189 0.948015 0.123725 0.466050 0.888970 1 32 1.000000
  32 19.702587 0.727015 42.328403 -0.016923 0.855609 0.517345 0.509800 0.888970 1 32 1.000000
band
  32 19.498119 0.807342 42.014473 -0.293189 0.948015 0.123725 0.466050 0.888970 1 32 1.000000
  32 19.565159 0.808223 41.967529 0.355836 0.887564 -0.292593 0.466130 0.899630 1 32 1.000000
  32 19.390800 0.694926 41.690655 0.118138 0.763467 -0.634951 0.429050 0.899630 1 32 1.000000
band
  32 19.390800 0.694926 41.690655 0.118138 0.763467 -0.634951 0.429050 0.899630 1 32 1.000000
  32 19.325979 0.698812 41.742115 -0.528969 0.809087 -0.256066 0.428570 0.888970 1 32 1.000000
  32 19.498119 0.807342 42.014473 -0.293189 0.948015 0.123725 0.466050 0.888970 1 32 1.000000
band
  32 19.325979 0.698812 41.742115 -0.528969 0.809087 -0.256066 0.428570 0.888970 1 32 1.000000
  32 19.390800 0.694926 41.690655 0.118138 0.763467 -0.634951 0.429050 0.899630 1 32 1.000000
  32 19.265717 0.463783 41.491863 -0.050395 0.504515 -0.861931 0.392160 0.899630 1 32 1.000000
band
  32 19.265717 0.463783 41.491863 -0.050395 0.504515 -0.861931 0.392160 0.899630 1 32 1.000000
  32 19.196459 0.458135 41.534283 -0.672564 0.531886 -0.514544 0.389270 0.888970 1 32 1.000000
  32 19.325979 0.698812 41.742115 -0.528969 0.809087 -0.256066 0.428570 0.888970 1 32 1.000000
band
  32 19.196459 0.458135 41.534283 -0.672564 0.531886 -0.514544 0.389270 0.888970 1 32 1.000000
  32 19.265717 0.463783 41.491863 -0.050395 0.504515 -0.861931 0.392160 0.899630 1 32 1.000000
  32 19.184202 0.095280 41.362236 -0.143407 0.139595 -0.979769 0.334960 0.899630 1 32 1.000000
band
  32 19.184202 0.095280 41.362236 -0.143407 0.139595 -0.979769 0.334960 0.899630 1 32 1.000000
  32 19.117159 0.094399 41.409176 -0.740768 0.155078 -0.653616 0.333780 0.888970 1 32 1.000000
  32 19.196459 0.458135 41.534283 -0.672564 0.531886 -0.514544 0.389270 0.888970 1 32 1.000000
band
  32 19.196459 0.458135 41.534283 -0.672564 0.531886 -0.514544 0.389270 0.888970 1 32 1.000000
  32 19.117159 0.094399 41.409176 -0.740768 0.155078 -0.653616 0.333780 0.888970 1 32 1.000000
  32 19.075315 0.080121 41.483341 -0.740768 0.155078 -0.653616 0.337810 0.877550 1 32 1.000000
band
  32 19.075315 0.080121 41.483341 -0.740768 0.155078 -0.653616 0.337810 0.877550 1 32 1.000000
  32 19.151619 0.424857 41.603245 -0.637625 0.508442 -0.578723 0.385940 0.877550 1 32 1.000000
  32 19.196459 0.458135 41.534283 -0.672564 0.531886 -0.514544 0.389270 0.888970 1 32 1.000000
band
  32 19.075315 0.080121 41.483341 -0.740768 0.155078 -0.653616 0.337810 0.877550 1 32 1.000000
  32 18.249306 0.034662 42.040497 -0.405988 0.110529 -0.907170 0.337810 0.752340 1 32 1.000000
  32 19.151619 0.424857 41.603245 -0.637625 0.508442 -0.578723 0.385940 0.877550 1 32 1.000000
band
  32 18.249306 0.034662 42.040497 -0.405988 0.110529 -0.907170 0.337810 0.752340 1 32 1.000000
  32 18.375523 0.634427 42.263165 -0.162319 0.746047 -0.645806 0.414690 0.752340 1 32 1.000000
  32 19.151619 0.424857 41.603245 -0.637625 0.508442 -0.578723 0.385940 0.877550 1 32 1.000000
band
  32 18.294159 0.682610 42.281086 -0.124437 0.673738 -0.728417 0.418680 0.740840 1 32 1.000000
  32 18.375523 0.634427 42.263165 -0.162319 0.746047 -0.645806 0.414690 0.752340 1 32 1.000000
  32 18.249306 0.034662 42.040497 -0.405988 0.110529 -0.907170 0.337810 0.752340 1 32 1.000000
band
  32 19.361214 0.387489 41.502590 0.334766 0.362267 -0.869882 0.391290 0.915890 1 32 1.000000
  32 19.289738 0.065484 41.393074 0.277569 0.092057 -0.956285 0.339420 0.915890 1 32 1.000000
  32 19.184202 0.095280 41.362236 -0.143407 0.139595 -0.979769 0.334960 0.899630 1 32 1.000000
band
  32 19.184202 0.095280 41.362236 -0.143407 0.139595 -0.979769 0.334960 0.899630 1 32 1.000000
  32 19.265717 0.463783 41.491863 -0.050395 0.504515 -0.861931 0.392160 0.899630 1 32 1.000000
  32 19.361214 0.387489 41.502590 0.334766 0.362267 -0.869882 0.391290 0.915890 1 32 1.000000
band
  32 19.478451 0.601748 41.685318 0.443620 0.555686 -0.703146 0.429580 0.915890 1 32 1.000000
  32 19.361214 0.387489 41.502590 0.334766 0.362267 -0.869882 0.391290 0.915890 1 32 1.000000
  32 19.265717 0.463783 41.491863 -0.050395 0.504515 -0.861931 0.392160 0.899630 1 32 1.000000
band
  32 19.265717 0.463783 41.491863 -0.050395 0.504515 -0.861931 0.392160 0.899630 1 32 1.000000
  32 19.390800 0.694926 41.690655 0.118138 0.763467 -0.634951 0.429050 0.899630 1 32 1.000000
  32 19.478451 0.601748 41.685318 0.443620 0.555686 -0.703146 0.429580 0.915890 1 32 1.000000
band
  32 19.634476 0.694740 41.925175 0.604692 0.657161 -0.449986 0.466210 0.915890 1 32 1.000000
  32 19.478451 0.601748 41.685318 0.443620 0.555686 -0.703146 0.429580 0.915890 1 32 1.000000
  32 19.390800 0.694926 41.690655 0.118138 0.763467 -0.634951 0.429050 0.899630 1 32 1.000000
band
  32 19.390800 0.694926 41.690655 0.118138 0.763467 -0.634951 0.429050 0.899630 1 32 1.000000
  32 19.565159 0.808223 41.967529 0.355836 0.887564 -0.292593 0.466130 0.899630 1 32 1.000000
  32 19.634476 0.694740 41.925175 0.604692 0.657161 -0.449986 0.466210 0.915890 1 32 1.000000
band
  32 19.820059 0.624244 42.203308 0.772794 0.611346 -0.170425 0.509520 0.915890 1 32 1.000000
  32 19.634476 0.694740 41.925175 0.604692 0.657161 -0.449986 0.466210 0.915890 1 32 1.000000
  32 19.565159 0.808223 41.967529 0.355836 0.887564 -0.292593 0.466130 0.899630 1 32 1.000000
band
  32 19.565159 0.808223 41.967529 0.355836 0.887564 -0.292593 0.466130 0.899630 1 32 1.000000
  32 19.769629 0.727896 42.281456 0.588144 0.804501 0.082854 0.509160 0.899630 1 32 1.000000
  32 19.820059 0.624244 42.203308 0.772794 0.611346 -0.170425 0.509520 0.915890 1 32 1.000000
band
  32 19.962187 0.416850 42.405766 0.900954 0.431879 0.041977 0.552170 0.915890 1 32 1.000000
  32 19.820059 0.624244 42.203308 0.772794 0.611346 -0.170425 0.509520 0.915890 1 32 1.000000
  32 19.769629 0.727896 42.281456 0.588144 0.804501 0.082854 0.509160 0.899630 1 32 1.000000
band
  32 19.769629 0.727896 42.281456 0.588144 0.804501 0.082854 0.509160 0.899630 1 32 1.000000
  32 19.926853 0.492803 42.511139 0.738182 0.578010 0.347838 0.551820 0.899630 1 32 1.000000
  32 19.962187 0.416850 42.405766 0.900954 0.431879 0.041977 0.552170 0.915890 1 32 1.000000
band
  32 20.052822 0.116520 42.553219 0.978747 0.118076 0.167665 0.600900 0.915890 1 32 1.000000
  32 19.962187 0.416850 42.405766 0.900954 0.431879 0.041977 0.552170 0.915890 1 32 1.000000
  32 19.926853 0.492803 42.511139 0.738182 0.578010 0.347838 0.551820 0.899630 1 32 1.000000
band
  32 19.926853 0.492803 42.511139 0.738182 0.578010 0.347838 0.551820 0.899630 1 32 1.000000
  32 20.027149 0.153764 42.675941 0.836353 0.180955 0.517464 0.600090 0.899630 1 32 1.000000
  32 20.052822 0.116520 42.553219 0.978747 0.118076 0.167665 0.600900 0.915890 1 32 1.000000
band
  32 20.017412 -0.258466 42.541302 0.972874 -0.118618 0.198610 0.658590 0.915890 1 32 1.000000
  32 20.052822 0.116520 42.553219 0.978747 0.118076 0.167665 0.600900 0.915890 1 32 1.000000
  32 20.027149 0.153764 42.675941 0.836353 0.180955 0.517464 0.600090 0.899630 1 32 1.000000
band
  32 19.318092 -0.008012 41.627254 0.985883 -0.080471 -0.146830 0.358510 0.975050 1 32 1.000000
  32 19.289738 0.065484 41.393074 0.277569 0.092057 -0.956285 0.339420 0.915890 1 32 1.000000
  32 19.361214 0.387489 41.502590 0.334766 0.362267 -0.869882 0.391290 0.915890 1 32 1.000000
band
  32 19.361214 0.387489 41.502590 0.334766 0.362267 -0.869882 0.391290 0.915890 1 32 1.000000
  32 19.370514 0.212821 41.698845 0.946481 -0.216783 -0.239121 0.393830 0.975050 1 32 1.000000
  32 19.318092 -0.008012 41.627254 0.985883 -0.080471 -0.146830 0.358510 0.975050 1 32 1.000000
band
  32 19.370514 0.212821 41.698845 0.946481 -0.216783 -0.239121 0.393830 0.975050 1 32 1.000000
  32 19.361214 0.387489 41.502590 0.334766 0.362267 -0.869882 0.391290 0.915890 1 32 1.000000
  32 19.478451 0.601748 41.685318 0.443620 0.555686 -0.703146 0.429580 0.915890 1 32 1.000000
band
  32 19.478451 0.601748 41.685318 0.443620 0.555686 -0.703146 0.429580 0.915890 1 32 1.000000
  32 19.457981 0.363029 41.820736 0.878006 -0.288812 -0.381696 0.429430 0.975050 1 32 1.000000
  32 19.370514 0.212821 41.698845 0.946481 -0.216783 -0.239121 0.393830 0.975050 1 32 1.000000
band
  32 19.457981 0.363029 41.820736 0.878006 -0.288812 -0.381696 0.429430 0.975050 1 32 1.000000
  32 19.478451 0.601748 41.685318 0.443620 0.555686 -0.703146 0.429580 0.915890 1 32 1.000000
  32 19.634476 0.694740 41.925175 0.604692 0.657161 -0.449986 0.466210 0.915890 1 32 1.000000
band
  32 19.634476 0.694740 41.925175 0.604692 0.657161 -0.449986 0.466210 0.915890 1 32 1.000000
  32 19.574976 0.418349 41.981853 0.798373 -0.285707 -0.530068 0.467220 0.975050 1 32 1.000000
  32 19.457981 0.363029 41.820736 0.878006 -0.288812 -0.381696 0.429430 0.975050 1 32 1.000000
band
  32 19.574976 0.418349 41.981853 0.798373 -0.285707 -0.530068 0.467220 0.975050 1 32 1.000000
  32 19.634476 0.694740 41.925175 0.604692 0.657161 -0.449986 0.466210 0.915890 1 32 1.000000
  32 19.820059 0.624244 42.203308 0.772794 0.611346 -0.170425 0.509520 0.915890 1 32 1.000000
band
  32 19.820059 0.624244 42.203308 0.772794 0.611346 -0.170425 0.509520 0.915890 1 32 1.000000
  32 19.714760 0.371691 42.173153 0.726866 -0.224227 -0.649144 0.511910 0.975050 1 32 1.000000
  32 19.574976 0.418349 41.981853 0.798373 -0.285707 -0.530068 0.467220 0.975050 1 32 1.000000
band
  32 19.714760 0.371691 42.173153 0.726866 -0.224227 -0.649144 0.511910 0.975050 1 32 1.000000
  32 19.820059 0.624244 42.203308 0.772794 0.611346 -0.170425 0.509520 0.915890 1 32 1.000000
  32 19.962187 0.416850 42.405766 0.900954 0.431879 0.041977 0.552170 0.915890 1 32 1.000000
band
  32 19.962187 0.416850 42.405766 0.900954 0.431879 0.041977 0.552170 0.915890 1 32 1.000000
  32 19.820288 0.231453 42.309616 0.669847 -0.206698 -0.713149 0.558000 0.975050 1 32 1.000000
  32 19.714760 0.371691 42.173153 0.726866 -0.224227 -0.649144 0.511910 0.975050 1 32 1.000000
band
  32 19.820288 0.231453 42.309616 0.669847 -0.206698 -0.713149 0.558000 0.975050 1 32 1.000000
  32 19.962187 0.416850 42.405766 0.900954 0.431879 0.041977 0.552170 0.915890 1 32 1.000000
  32 20.052822 0.116520 42.553219 0.978747 0.118076 0.167665 0.600900 0.915890 1 32 1.000000
band
  32 20.052822 0.116520 42.553219 0.978747 0.118076 0.167665 0.600900 0.915890 1 32 1.000000
  32 19.862898 0.026093 42.432068 0.624609 -0.109716 -0.773192 0.607430 0.975050 1 32 1.000000
  32 19.820288 0.231453 42.309616 0.669847 -0.206698 -0.713149 0.558000 0.975050 1 32 1.000000
band
  32 19.862898 0.026093 42.432068 0.624609 -0.109716 -0.773192 0.607430 0.975050 1 32 1.000000
  32 20.052822 0.116520 42.553219 0.978747 0.118076 0.167665 0.600900 0.915890 1 32 1.000000
  32 20.017412 -0.258466 42.541302 0.972874 -0.118618 0.198610 0.658590 0.915890 1 32 1.000000
band
  32 20.017412 -0.258466 42.541302 0.972874 -0.118618 0.198610 0.658590 0.915890 1 32 1.000000
  32 19.870895 -0.229009 42.423145 0.601016 -0.004971 -0.799222 0.659460 0.975050 1 32 1.000000
  32 19.862898 0.026093 42.432068 0.624609 -0.109716 -0.773192 0.607430 0.975050 1 32 1.000000
band
  32 19.816355 -0.478603 42.391842 0.632071 0.053988 -0.773027 0.711960 0.975050 1 32 1.000000
  32 19.870895 -0.229009 42.423145 0.601016 -0.004971 -0.799222 0.659460 0.975050 1 32 1.000000
  32 20.017412 -0.258466 42.541302 0.972874 -0.118618 0.198610 0.658590 0.915890 1 32 1.000000
band
  32 20.017412 -0.258466 42.541302 0.972874 -0.118618 0.198610 0.658590 0.915890 1 32 1.000000
  32 19.968328 -0.609194 42.506245 0.930529 -0.351821 0.101674 0.713030 0.915890 1 32 1.000000
  32 19.816355 -0.478603 42.391842 0.632071 0.053988 -0.773027 0.711960 0.975050 1 32 1.000000
band
  32 19.706476 -0.636454 42.275070 0.663930 0.155029 -0.731548 0.757860 0.975050 1 32 1.000000
  32 19.816355 -0.478603 42.391842 0.632071 0.053988 -0.773027 0.711960 0.975050 1 32 1.000000
  32 19.968328 -0.609194 42.506245 0.930529 -0.351821 0.101674 0.713030 0.915890 1 32 1.000000
band
  32 19.968328 -0.609194 42.506245 0.930529 -0.351821 0.101674 0.713030 0.915890 1 32 1.000000
  32 19.831869 -0.834170 42.341877 0.860182 -0.509905 0.009163 0.758780 0.915890 1 32 1.000000
  32 19.706476 -0.636454 42.275070 0.663930 0.155029 -0.731548 0.757860 0.975050 1 32 1.000000
band
  32 18.905962 0.606363 43.263775 0.598916 0.713974 0.362686 0.545940 0.740840 1 32 1.000000
  32 18.738836 0.760800 43.010609 0.433967 0.893555 0.115029 0.511320 0.740840 1 32 1.000000
  32 18.662352 0.760743 43.064163 -0.048210 0.904167 0.424450 0.511330 0.727760 1 32 1.000000
band
  32 18.662352 0.760743 43.064163 -0.048210 0.904167 0.424450 0.511330 0.727760 1 32 1.000000
  32 18.829485 0.606306 43.317341 0.131878 0.716190 0.685333 0.546320 0.727760 1 32 1.000000
  32 18.905962 0.606363 43.263775 0.598916 0.713974 0.362686 0.545940 0.740840 1 32 1.000000
band
  32 19.096155 0.116087 43.526405 0.757167 0.219678 0.615174 0.609950 0.740840 1 32 1.000000
  32 18.905962 0.606363 43.263775 0.598916 0.713974 0.362686 0.545940 0.740840 1 32 1.000000
  32 18.829485 0.606306 43.317341 0.131878 0.716190 0.685333 0.546320 0.727760 1 32 1.000000
band
  32 18.955505 0.564240 43.189632 0.630172 0.703677 0.328209 0.546830 0.752340 1 32 1.000000
  32 18.905962 0.606363 43.263775 0.598916 0.713974 0.362686 0.545940 0.740840 1 32 1.000000
  32 19.096155 0.116087 43.526405 0.757167 0.219678 0.615174 0.609950 0.740840 1 32 1.000000
band
  32 18.905962 0.606363 43.263775 0.598916 0.713974 0.362686 0.545940 0.740840 1 32 1.000000
  32 18.955505 0.564240 43.189632 0.630172 0.703677 0.328209 0.546830 0.752340 1 32 1.000000
  32 18.796185 0.708635 42.950649 0.402143 0.898174 0.177665 0.511500 0.752340 1 32 1.000000
band
  32 18.796185 0.708635 42.950649 0.402143 0.898174 0.177665 0.511500 0.752340 1 32 1.000000
  32 18.738836 0.760800 43.010609 0.433967 0.893555 0.115029 0.511320 0.740840 1 32 1.000000
  32 18.905962 0.606363 43.263775 0.598916 0.713974 0.362686 0.545940 0.740840 1 32 1.000000
band
  32 18.738836 0.760800 43.010609 0.433967 0.893555 0.115029 0.511320 0.740840 1 32 1.000000
  32 18.796185 0.708635 42.950649 0.402143 0.898174 0.177665 0.511500 0.752340 1 32 1.000000
  32 18.583662 0.806496 42.598637 0.245802 0.937097 -0.247851 0.464010 0.752340 1 32 1.000000
band
  32 18.796185 0.708635 42.950649 0.402143 0.898174 0.177665 0.511500 0.752340 1 32 1.000000
  32 19.440903 0.754611 42.056931 -0.189014 0.981013 0.043439 0.465930 0.877550 1 32 1.000000
  32 18.583662 0.806496 42.598637 0.245802 0.937097 -0.247851 0.464010 0.752340 1 32 1.000000
band
  32 18.375523 0.634427 42.263165 -0.162319 0.746047 -0.645806 0.414690 0.752340 1 32 1.000000
  32 19.275608 0.653674 41.799805 -0.528969 0.809087 -0.256066 0.426420 0.877550 1 32 1.000000
  32 19.151619 0.424857 41.603245 -0.637625 0.508442 -0.578723 0.385940 0.877550 1 32 1.000000
band
  32 19.275608 0.653674 41.799805 -0.528969 0.809087 -0.256066 0.426420 0.877550 1 32 1.000000
  32 18.375523 0.634427 42.263165 -0.162319 0.746047 -0.645806 0.414690 0.752340 1 32 1.000000
  32 19.440903 0.754611 42.056931 -0.189014 0.981013 0.043439 0.465930 0.877550 1 32 1.000000
band
  32 19.440903 0.754611 42.056931 -0.189014 0.981013 0.043439 0.465930 0.877550 1 32 1.000000
  32 18.375523 0.634427 42.263165 -0.162319 0.746047 -0.645806 0.414690 0.752340 1 32 1.000000
  32 18.583662 0.806496 42.598637 0.245802 0.937097 -0.247851 0.464010 0.752340 1 32 1.000000
band
  32 18.513847 0.865487 42.636707 0.245802 0.937097 -0.247851 0.464010 0.740840 1 32 1.000000
  32 18.583662 0.806496 42.598637 0.245802 0.937097 -0.247851 0.464010 0.752340 1 32 1.000000
  32 18.375523 0.634427 42.263165 -0.162319 0.746047 -0.645806 0.414690 0.752340 1 32 1.000000
band
  32 18.583662 0.806496 42.598637 0.245802 0.937097 -0.247851 0.464010 0.752340 1 32 1.000000
  32 18.513847 0.865487 42.636707 0.245802 0.937097 -0.247851 0.464010 0.740840 1 32 1.000000
  32 18.738836 0.760800 43.010609 0.433967 0.893555 0.115029 0.511320 0.740840 1 32 1.000000
band
  32 18.738836 0.760800 43.010609 0.433967 0.893555 0.115029 0.511320 0.740840 1 32 1.000000
  32 18.513847 0.865487 42.636707 0.245802 0.937097 -0.247851 0.464010 0.740840 1 32 1.000000
  32 18.437361 0.865430 42.690262 -0.302010 0.949198 0.088389 0.464310 0.727760 1 32 1.000000
band
  32 18.437361 0.865430 42.690262 -0.302010 0.949198 0.088389 0.464310 0.727760 1 32 1.000000
  32 18.662352 0.760743 43.064163 -0.048210 0.904167 0.424450 0.511330 0.727760 1 32 1.000000
  32 18.738836 0.760800 43.010609 0.433967 0.893555 0.115029 0.511320 0.740840 1 32 1.000000
band
  32 18.577389 0.704349 43.102341 -0.323883 0.789310 0.521622 0.511110 0.710880 1 32 1.000000
  32 18.662352 0.760743 43.064163 -0.048210 0.904167 0.424450 0.511330 0.727760 1 32 1.000000
  32 18.437361 0.865430 42.690262 -0.302010 0.949198 0.088389 0.464310 0.727760 1 32 1.000000
band
  32 18.662352 0.760743 43.064163 -0.048210 0.904167 0.424450 0.511330 0.727760 1 32 1.000000
  32 18.577389 0.704349 43.102341 -0.323883 0.789310 0.521622 0.511110 0.710880 1 32 1.000000
  32 18.734129 0.559694 43.339371 -0.151633 0.597856 0.787131 0.548040 0.710880 1 32 1.000000
band
  32 18.734129 0.559694 43.339371 -0.151633 0.597856 0.787131 0.548040 0.710880 1 32 1.000000
  32 18.829485 0.606306 43.317341 0.131878 0.716190 0.685333 0.546320 0.727760 1 32 1.000000
  32 18.662352 0.760743 43.064163 -0.048210 0.904167 0.424450 0.511330 0.727760 1 32 1.000000
band
  32 18.829485 0.606306 43.317341 0.131878 0.716190 0.685333 0.546320 0.727760 1 32 1.000000
  32 18.734129 0.559694 43.339371 -0.151633 0.597856 0.787131 0.548040 0.710880 1 32 1.000000
  32 18.915787 0.098109 43.587688 -0.035782 0.169122 0.984945 0.614190 0.710880 1 32 1.000000
band
  32 18.915787 0.098109 43.587688 -0.035782 0.169122 0.984945 0.614190 0.710880 1 32 1.000000
  32 19.019674 0.116030 43.579971 0.297399 0.218250 0.929473 0.611500 0.727760 1 32 1.000000
  32 18.829485 0.606306 43.317341 0.131878 0.716190 0.685333 0.546320 0.727760 1 32 1.000000
band
  32 18.829485 0.606306 43.317341 0.131878 0.716190 0.685333 0.546320 0.727760 1 32 1.000000
  32 19.019674 0.116030 43.579971 0.297399 0.218250 0.929473 0.611500 0.727760 1 32 1.000000
  32 19.096155 0.116087 43.526405 0.757167 0.219678 0.615174 0.609950 0.740840 1 32 1.000000
band
  32 19.096155 0.116087 43.526405 0.757167 0.219678 0.615174 0.609950 0.740840 1 32 1.000000
  32 19.019674 0.116030 43.579971 0.297399 0.218250 0.929473 0.611500 0.727760 1 32 1.000000
  32 18.968422 -0.643822 43.512875 0.252205 -0.443652 0.859980 0.704630 0.727760 1 32 1.000000
band
  32 18.968422 -0.643822 43.512875 0.252205 -0.443652 0.859980 0.704630 0.727760 1 32 1.000000
  32 19.044903 -0.643764 43.459320 0.711588 -0.442287 0.545917 0.704860 0.740840 1 32 1.000000
  32 19.096155 0.116087 43.526405 0.757167 0.219678 0.615174 0.609950 0.740840 1 32 1.000000
band
  32 19.044903 -0.643764 43.459320 0.711588 -0.442287 0.545917 0.704860 0.740840 1 32 1.000000
  32 18.968422 -0.643822 43.512875 0.252205 -0.443652 0.859980 0.704630 0.727760 1 32 1.000000
  32 18.655361 -1.118459 43.062126 -0.113987 -0.919981 0.375021 0.778880 0.727760 1 32 1.000000
band
  32 18.655361 -1.118459 43.062126 -0.113987 -0.919981 0.375021 0.778880 0.727760 1 32 1.000000
  32 18.731846 -1.118402 43.008575 0.404399 -0.914206 0.026252 0.779620 0.740840 1 32 1.000000
  32 19.044903 -0.643764 43.459320 0.711588 -0.442287 0.545917 0.704860 0.740840 1 32 1.000000
band
  32 18.731846 -1.118402 43.008575 0.404399 -0.914206 0.026252 0.779620 0.740840 1 32 1.000000
  32 18.655361 -1.118459 43.062126 -0.113987 -0.919981 0.375021 0.778880 0.727760 1 32 1.000000
  32 18.349154 -1.011841 42.584854 -0.496584 -0.837862 -0.226696 0.835150 0.727760 1 32 1.000000
band
  32 18.571157 -1.055483 43.100311 -0.419758 -0.740410 0.524972 0.777480 0.710880 1 32 1.000000
  32 18.284212 -0.955871 42.653793 -0.725339 -0.687955 0.024524 0.834110 0.710880 1 32 1.000000
  32 18.349154 -1.011841 42.584854 -0.496584 -0.837862 -0.226696 0.835150 0.727760 1 32 1.000000
band
  32 18.349154 -1.011841 42.584854 -0.496584 -0.837862 -0.226696 0.835150 0.727760 1 32 1.000000
  32 18.655361 -1.118459 43.062126 -0.113987 -0.919981 0.375021 0.778880 0.727760 1 32 1.000000
  32 18.571157 -1.055483 43.100311 -0.419758 -0.740410 0.524972 0.777480 0.710880 1 32 1.000000
band
  32 18.867105 -0.610256 43.525124 -0.111853 -0.369722 0.922385 0.703640 0.710880 1 32 1.000000
  32 18.571157 -1.055483 43.100311 -0.419758 -0.740410 0.524972 0.777480 0.710880 1 32 1.000000
  32 18.655361 -1.118459 43.062126 -0.113987 -0.919981 0.375021 0.778880 0.727760 1 32 1.000000
band
  32 18.655361 -1.118459 43.062126 -0.113987 -0.919981 0.375021 0.778880 0.727760 1 32 1.000000
  32 18.968422 -0.643822 43.512875 0.252205 -0.443652 0.859980 0.704630 0.727760 1 32 1.000000
  32 18.867105 -0.610256 43.525124 -0.111853 -0.369722 0.922385 0.703640 0.710880 1 32 1.000000
band
  32 18.915787 0.098109 43.587688 -0.035782 0.169122 0.984945 0.614190 0.710880 1 32 1.000000
  32 18.867105 -0.610256 43.525124 -0.111853 -0.369722 0.922385 0.703640 0.710880 1 32 1.000000
  32 18.968422 -0.643822 43.512875 0.252205 -0.443652 0.859980 0.704630 0.727760 1 32 1.000000
band
  32 18.968422 -0.643822 43.512875 0.252205 -0.443652 0.859980 0.704630 0.727760 1 32 1.000000
  32 19.019674 0.116030 43.579971 0.297399 0.218250 0.929473 0.611500 0.727760 1 32 1.000000
  32 18.915787 0.098109 43.587688 -0.035782 0.169122 0.984945 0.614190 0.710880 1 32 1.000000
band
  32 18.349154 -1.011841 42.584854 -0.496584 -0.837862 -0.226696 0.835150 0.727760 1 32 1.000000
  32 18.425638 -1.011783 42.531303 -0.009383 -0.848351 -0.529350 0.837060 0.740840 1 32 1.000000
  32 18.731846 -1.118402 43.008575 0.404399 -0.914206 0.026252 0.779620 0.740840 1 32 1.000000
band
  32 18.425638 -1.011783 42.531303 -0.009383 -0.848351 -0.529350 0.837060 0.740840 1 32 1.000000
  32 18.349154 -1.011841 42.584854 -0.496584 -0.837862 -0.226696 0.835150 0.727760 1 32 1.000000
  32 18.155302 -0.595704 42.227577 -0.696425 -0.451527 -0.557777 0.897550 0.727760 1 32 1.000000
band
  32 18.155302 -0.595704 42.227577 -0.696425 -0.451527 -0.557777 0.897550 0.727760 1 32 1.000000
  32 18.349154 -1.011841 42.584854 -0.496584 -0.837862 -0.226696 0.835150 0.727760 1 32 1.000000
  32 18.284212 -0.955871 42.653793 -0.725339 -0.687955 0.024524 0.834110 0.710880 1 32 1.000000
band
  32 18.284212 -0.955871 42.653793 -0.725339 -0.687955 0.024524 0.834110 0.710880 1 32 1.000000
  32 18.102001 -0.565970 42.318764 -0.885283 -0.376967 -0.272341 0.895900 0.710880 1 32 1.000000
  32 18.155302 -0.595704 42.227577 -0.696425 -0.451527 -0.557777 0.897550 0.727760 1 32 1.000000
band
  32 18.375523 0.634427 42.263165 -0.162319 0.746047 -0.645806 0.414690 0.752340 1 32 1.000000
  32 18.294159 0.682610 42.281086 -0.124437 0.673738 -0.728417 0.418680 0.740840 1 32 1.000000
  32 18.513847 0.865487 42.636707 0.245802 0.937097 -0.247851 0.464010 0.740840 1 32 1.000000
band
  32 18.513847 0.865487 42.636707 0.245802 0.937097 -0.247851 0.464010 0.740840 1 32 1.000000
  32 18.294159 0.682610 42.281086 -0.124437 0.673738 -0.728417 0.418680 0.740840 1 32 1.000000
  32 18.217672 0.682553 42.334637 -0.630956 0.662367 -0.403936 0.420710 0.727760 1 32 1.000000
band
  32 18.217672 0.682553 42.334637 -0.630956 0.662367 -0.403936 0.420710 0.727760 1 32 1.000000
  32 18.437361 0.865430 42.690262 -0.302010 0.949198 0.088389 0.464310 0.727760 1 32 1.000000
  32 18.513847 0.865487 42.636707 0.245802 0.937097 -0.247851 0.464010 0.740840 1 32 1.000000
band
  32 18.366404 0.802338 42.752335 -0.553128 0.801325 0.227876 0.464790 0.710880 1 32 1.000000
  32 18.437361 0.865430 42.690262 -0.302010 0.949198 0.088389 0.464310 0.727760 1 32 1.000000
  32 18.217672 0.682553 42.334637 -0.630956 0.662367 -0.403936 0.420710 0.727760 1 32 1.000000
band
  32 18.437361 0.865430 42.690262 -0.302010 0.949198 0.088389 0.464310 0.727760 1 32 1.000000
  32 18.366404 0.802338 42.752335 -0.553128 0.801325 0.227876 0.464790 0.710880 1 32 1.000000
  32 18.577389 0.704349 43.102341 -0.323883 0.789310 0.521622 0.511110 0.710880 1 32 1.000000
band
  32 18.577389 0.704349 43.102341 -0.323883 0.789310 0.521622 0.511110 0.710880 1 32 1.000000
  32 18.366404 0.802338 42.752335 -0.553128 0.801325 0.227876 0.464790 0.710880 1 32 1.000000
  32 18.432047 0.411255 42.796276 -0.841810 -0.093663 0.531586 0.463180 0.671960 1 32 1.000000
band
  32 18.432047 0.411255 42.796276 -0.841810 -0.093663 0.531586 0.463180 0.671960 1 32 1.000000
  32 18.557985 0.428995 42.994053 -0.871335 -0.099867 0.480419 0.509460 0.671960 1 32 1.000000
  32 18.577389 0.704349 43.102341 -0.323883 0.789310 0.521622 0.511110 0.710880 1 32 1.000000
band
  32 18.734129 0.559694 43.339371 -0.151633 0.597856 0.787131 0.548040 0.710880 1 32 1.000000
  32 18.577389 0.704349 43.102341 -0.323883 0.789310 0.521622 0.511110 0.710880 1 32 1.000000
  32 18.557985 0.428995 42.994053 -0.871335 -0.099867 0.480419 0.509460 0.671960 1 32 1.000000
band
  32 18.557985 0.428995 42.994053 -0.871335 -0.099867 0.480419 0.509460 0.671960 1 32 1.000000
  32 18.668303 0.307104 43.164173 -0.871335 -0.099867 0.480419 0.561640 0.671960 1 32 1.000000
  32 18.734129 0.559694 43.339371 -0.151633 0.597856 0.787131 0.548040 0.710880 1 32 1.000000
band
  32 18.915787 0.098109 43.587688 -0.035782 0.169122 0.984945 0.614190 0.710880 1 32 1.000000
  32 18.734129 0.559694 43.339371 -0.151633 0.597856 0.787131 0.548040 0.710880 1 32 1.000000
  32 18.668303 0.307104 43.164173 -0.871335 -0.099867 0.480419 0.561640 0.671960 1 32 1.000000
band
  32 18.668303 0.307104 43.164173 -0.871335 -0.099867 0.480419 0.561640 0.671960 1 32 1.000000
  32 18.760927 -0.005488 43.291882 -0.896841 -0.041488 0.440402 0.624900 0.671960 1 32 1.000000
  32 18.915787 0.098109 43.587688 -0.035782 0.169122 0.984945 0.614190 0.710880 1 32 1.000000
band
  32 18.915787 0.098109 43.587688 -0.035782 0.169122 0.984945 0.614190 0.710880 1 32 1.000000
  32 18.760927 -0.005488 43.291882 -0.896841 -0.041488 0.440402 0.624900 0.671960 1 32 1.000000
  32 18.751434 -0.433232 43.232162 -0.913165 0.086415 0.398324 0.696170 0.671960 1 32 1.000000
band
  32 18.751434 -0.433232 43.232162 -0.913165 0.086415 0.398324 0.696170 0.671960 1 32 1.000000
  32 18.867105 -0.610256 43.525124 -0.111853 -0.369722 0.922385 0.703640 0.710880 1 32 1.000000
  32 18.915787 0.098109 43.587688 -0.035782 0.169122 0.984945 0.614190 0.710880 1 32 1.000000
band
  32 18.867105 -0.610256 43.525124 -0.111853 -0.369722 0.922385 0.703640 0.710880 1 32 1.000000
  32 18.751434 -0.433232 43.232162 -0.913165 0.086415 0.398324 0.696170 0.671960 1 32 1.000000
  32 18.622732 -0.775560 43.029495 -0.846650 0.212534 0.487866 0.766810 0.671960 1 32 1.000000
band
  32 18.622732 -0.775560 43.029495 -0.846650 0.212534 0.487866 0.766810 0.671960 1 32 1.000000
  32 18.571157 -1.055483 43.100311 -0.419758 -0.740410 0.524972 0.777480 0.710880 1 32 1.000000
  32 18.867105 -0.610256 43.525124 -0.111853 -0.369722 0.922385 0.703640 0.710880 1 32 1.000000
band
  32 18.571157 -1.055483 43.100311 -0.419758 -0.740410 0.524972 0.777480 0.710880 1 32 1.000000
  32 18.622732 -0.775560 43.029495 -0.846650 0.212534 0.487866 0.766810 0.671960 1 32 1.000000
  32 18.400549 -0.702084 42.716858 -0.770212 0.203175 0.604560 0.833610 0.671960 1 32 1.000000
band
  32 18.400549 -0.702084 42.716858 -0.770212 0.203175 0.604560 0.833610 0.671960 1 32 1.000000
  32 18.284212 -0.955871 42.653793 -0.725339 -0.687955 0.024524 0.834110 0.710880 1 32 1.000000
  32 18.571157 -1.055483 43.100311 -0.419758 -0.740410 0.524972 0.777480 0.710880 1 32 1.000000
band
  32 18.284212 -0.955871 42.653793 -0.725339 -0.687955 0.024524 0.834110 0.710880 1 32 1.000000
  32 18.400549 -0.702084 42.716858 -0.770212 0.203175 0.604560 0.833610 0.671960 1 32 1.000000
  32 18.247904 -0.385681 42.461491 -0.767097 0.085833 0.635763 0.898470 0.671960 1 32 1.000000
band
  32 18.217672 0.682553 42.334637 -0.630956 0.662367 -0.403936 0.420710 0.727760 1 32 1.000000
  32 18.159157 0.629293 42.418003 -0.822760 0.547138 -0.153967 0.420960 0.710880 1 32 1.000000
  32 18.366404 0.802338 42.752335 -0.553128 0.801325 0.227876 0.464790 0.710880 1 32 1.000000
band
  32 18.301247 0.324405 42.582275 -0.816233 -0.067342 0.573784 0.419210 0.671960 1 32 1.000000
  32 18.432047 0.411255 42.796276 -0.841810 -0.093663 0.531586 0.463180 0.671960 1 32 1.000000
  32 18.366404 0.802338 42.752335 -0.553128 0.801325 0.227876 0.464790 0.710880 1 32 1.000000
band
  32 18.366404 0.802338 42.752335 -0.553128 0.801325 0.227876 0.464790 0.710880 1 32 1.000000
  32 18.159157 0.629293 42.418003 -0.822760 0.547138 -0.153967 0.420960 0.710880 1 32 1.000000
  32 18.301247 0.324405 42.582275 -0.816233 -0.067342 0.573784 0.419210 0.671960 1 32 1.000000
band
  32 18.221773 -0.001786 42.446777 -0.784573 -0.020651 0.619692 0.369810 0.671960 1 32 1.000000
  32 18.301247 0.324405 42.582275 -0.816233 -0.067342 0.573784 0.419210 0.671960 1 32 1.000000
  32 18.159157 0.629293 42.418003 -0.822760 0.547138 -0.153967 0.420960 0.710880 1 32 1.000000
band
  32 18.159157 0.629293 42.418003 -0.822760 0.547138 -0.153967 0.420960 0.710880 1 32 1.000000
  32 18.033161 0.033848 42.197266 -0.933734 0.060227 -0.352864 0.341630 0.710880 1 32 1.000000
  32 18.221773 -0.001786 42.446777 -0.784573 -0.020651 0.619692 0.369810 0.671960 1 32 1.000000
band
  32 18.082222 0.043997 42.097878 -0.759803 0.081514 -0.645023 0.335310 0.727760 1 32 1.000000
  32 18.033161 0.033848 42.197266 -0.933734 0.060227 -0.352864 0.341630 0.710880 1 32 1.000000
  32 18.159157 0.629293 42.418003 -0.822760 0.547138 -0.153967 0.420960 0.710880 1 32 1.000000
band
  32 18.159157 0.629293 42.418003 -0.822760 0.547138 -0.153967 0.420960 0.710880 1 32 1.000000
  32 18.217672 0.682553 42.334637 -0.630956 0.662367 -0.403936 0.420710 0.727760 1 32 1.000000
  32 18.082222 0.043997 42.097878 -0.759803 0.081514 -0.645023 0.335310 0.727760 1 32 1.000000
band
  32 18.082222 0.043997 42.097878 -0.759803 0.081514 -0.645023 0.335310 0.727760 1 32 1.000000
  32 18.217672 0.682553 42.334637 -0.630956 0.662367 -0.403936 0.420710 0.727760 1 32 1.000000
  32 18.294159 0.682610 42.281086 -0.124437 0.673738 -0.728417 0.418680 0.740840 1 32 1.000000
band
  32 18.294159 0.682610 42.281086 -0.124437 0.673738 -0.728417 0.418680 0.740840 1 32 1.000000
  32 18.158707 0.044054 42.044327 -0.312268 0.084212 -0.946254 0.332000 0.740840 1 32 1.000000
  32 18.082222 0.043997 42.097878 -0.759803 0.081514 -0.645023 0.335310 0.727760 1 32 1.000000
band
  32 18.249306 0.034662 42.040497 -0.405988 0.110529 -0.907170 0.337810 0.752340 1 32 1.000000
  32 18.158707 0.044054 42.044327 -0.312268 0.084212 -0.946254 0.332000 0.740840 1 32 1.000000
  32 18.294159 0.682610 42.281086 -0.124437 0.673738 -0.728417 0.418680 0.740840 1 32 1.000000
band
  32 18.247904 -0.385681 42.461491 -0.767097 0.085833 0.635763 0.898470 0.671960 1 32 1.000000
  32 18.102001 -0.565970 42.318764 -0.885283 -0.376967 -0.272341 0.895900 0.710880 1 32 1.000000
  32 18.284212 -0.955871 42.653793 -0.725339 -0.687955 0.024524 0.834110 0.710880 1 32 1.000000
band
  32 18.102001 -0.565970 42.318764 -0.885283 -0.376967 -0.272341 0.895900 0.710880 1 32 1.000000
  32 18.247904 -0.385681 42.461491 -0.767097 0.085833 0.635763 0.898470 0.671960 1 32 1.000000
  32 18.221773 -0.001786 42.446777 -0.784573 -0.020651 0.619692 0.950360 0.671960 1 32 1.000000
band
  32 18.221773 -0.001786 42.446777 -0.784573 -0.020651 0.619692 0.950360 0.671960 1 32 1.000000
  32 18.033161 0.033848 42.197266 -0.933734 0.060227 -0.352864 0.979110 0.710880 1 32 1.000000
  32 18.102001 -0.565970 42.318764 -0.885283 -0.376967 -0.272341 0.895900 0.710880 1 32 1.000000
band
  32 18.102001 -0.565970 42.318764 -0.885283 -0.376967 -0.272341 0.895900 0.710880 1 32 1.000000
  32 18.033161 0.033848 42.197266 -0.933734 0.060227 -0.352864 0.979110 0.710880 1 32 1.000000
  32 18.082222 0.043997 42.097878 -0.759803 0.081514 -0.645023 0.984130 0.727760 1 32 1.000000
band
  32 18.082222 0.043997 42.097878 -0.759803 0.081514 -0.645023 0.984130 0.727760 1 32 1.000000
  32 18.155302 -0.595704 42.227577 -0.696425 -0.451527 -0.557777 0.897550 0.727760 1 32 1.000000
  32 18.102001 -0.565970 42.318764 -0.885283 -0.376967 -0.272341 0.895900 0.710880 1 32 1.000000
band
  32 18.231789 -0.595648 42.174034 -0.248598 -0.470433 -0.846695 0.899690 0.740840 1 32 1.000000
  32 18.155302 -0.595704 42.227577 -0.696425 -0.451527 -0.557777 0.897550 0.727760 1 32 1.000000
  32 18.082222 0.043997 42.097878 -0.759803 0.081514 -0.645023 0.984130 0.727760 1 32 1.000000
band
  32 18.155302 -0.595704 42.227577 -0.696425 -0.451527 -0.557777 0.897550 0.727760 1 32 1.000000
  32 18.231789 -0.595648 42.174034 -0.248598 -0.470433 -0.846695 0.899690 0.740840 1 32 1.000000
  32 18.425638 -1.011783 42.531303 -0.009383 -0.848351 -0.529350 0.837060 0.740840 1 32 1.000000
band
  32 18.425638 -1.011783 42.531303 -0.009383 -0.848351 -0.529350 0.837060 0.740840 1 32 1.000000
  32 18.231789 -0.595648 42.174034 -0.248598 -0.470433 -0.846695 0.899690 0.740840 1 32 1.000000
  32 18.317995 -0.566417 42.163738 -0.384030 -0.423610 -0.820411 0.902530 0.752340 1 32 1.000000
band
  32 18.317995 -0.566417 42.163738 -0.384030 -0.423610 -0.820411 0.902530 0.752340 1 32 1.000000
  32 18.500868 -0.960401 42.498741 -0.193121 -0.835857 -0.513855 0.839930 0.752340 1 32 1.000000
  32 18.425638 -1.011783 42.531303 -0.009383 -0.848351 -0.529350 0.837060 0.740840 1 32 1.000000
band
  32 18.731846 -1.118402 43.008575 0.404399 -0.914206 0.026252 0.779620 0.740840 1 32 1.000000
  32 18.425638 -1.011783 42.531303 -0.009383 -0.848351 -0.529350 0.837060 0.740840 1 32 1.000000
  32 18.500868 -0.960401 42.498741 -0.193121 -0.835857 -0.513855 0.839930 0.752340 1 32 1.000000
band
  32 18.500868 -0.960401 42.498741 -0.193121 -0.835857 -0.513855 0.839930 0.752340 1 32 1.000000
  32 18.789713 -1.059614 42.947803 0.339309 -0.929852 0.142285 0.779870 0.752340 1 32 1.000000
  32 18.731846 -1.118402 43.008575 0.404399 -0.914206 0.026252 0.779620 0.740840 1 32 1.000000
band
  32 19.044903 -0.643764 43.459320 0.711588 -0.442287 0.545917 0.704860 0.740840 1 32 1.000000
  32 18.731846 -1.118402 43.008575 0.404399 -0.914206 0.026252 0.779620 0.740840 1 32 1.000000
  32 18.789713 -1.059614 42.947803 0.339309 -0.929852 0.142285 0.779870 0.752340 1 32 1.000000
band
  32 18.789713 -1.059614 42.947803 0.339309 -0.929852 0.142285 0.779870 0.752340 1 32 1.000000
  32 19.087990 -0.611854 43.374275 0.711588 -0.442287 0.545917 0.704170 0.752340 1 32 1.000000
  32 19.044903 -0.643764 43.459320 0.711588 -0.442287 0.545917 0.704860 0.740840 1 32 1.000000
band
  32 19.096155 0.116087 43.526405 0.757167 0.219678 0.615174 0.609950 0.740840 1 32 1.000000
  32 19.044903 -0.643764 43.459320 0.711588 -0.442287 0.545917 0.704860 0.740840 1 32 1.000000
  32 19.087990 -0.611854 43.374275 0.711588 -0.442287 0.545917 0.704170 0.752340 1 32 1.000000
band
  32 19.087990 -0.611854 43.374275 0.711588 -0.442287 0.545917 0.704170 0.752340 1 32 1.000000
  32 19.137030 0.100310 43.437042 0.757167 0.219678 0.615174 0.609070 0.752340 1 32 1.000000
  32 19.096155 0.116087 43.526405 0.757167 0.219678 0.615174 0.609950 0.740840 1 32 1.000000
band
  32 19.096155 0.116087 43.526405 0.757167 0.219678 0.615174 0.609950 0.740840 1 32 1.000000
  32 19.137030 0.100310 43.437042 0.757167 0.219678 0.615174 0.609070 0.752340 1 32 1.000000
  32 18.955505 0.564240 43.189632 0.630172 0.703677 0.328209 0.546830 0.752340 1 32 1.000000
band
  32 19.137030 0.100310 43.437042 0.757167 0.219678 0.615174 0.609070 0.752340 1 32 1.000000
  32 19.787554 0.453414 42.577473 0.304143 0.672854 0.674363 0.555920 0.877550 1 32 1.000000
  32 18.955505 0.564240 43.189632 0.630172 0.703677 0.328209 0.546830 0.752340 1 32 1.000000
band
  32 19.787554 0.453414 42.577473 0.304143 0.672854 0.674363 0.555920 0.877550 1 32 1.000000
  32 18.796185 0.708635 42.950649 0.402143 0.898174 0.177665 0.511500 0.752340 1 32 1.000000
  32 18.955505 0.564240 43.189632 0.630172 0.703677 0.328209 0.546830 0.752340 1 32 1.000000
band
  32 19.080978 -0.241110 41.508247 -0.715226 -0.112190 -0.689829 0.948050 0.877550 1 32 1.000000
  32 19.075315 0.080121 41.483341 -0.740768 0.155078 -0.653616 0.979970 0.877550 1 32 1.000000
  32 19.117159 0.094399 41.409176 -0.740768 0.155078 -0.653616 0.988840 0.888970 1 32 1.000000
band
  32 18.249306 0.034662 42.040497 -0.405988 0.110529 -0.907170 0.979970 0.752340 1 32 1.000000
  32 19.075315 0.080121 41.483341 -0.740768 0.155078 -0.653616 0.979970 0.877550 1 32 1.000000
  32 19.080978 -0.241110 41.508247 -0.715226 -0.112190 -0.689829 0.948050 0.877550 1 32 1.000000
band
  32 18.317995 -0.566417 42.163738 -0.384030 -0.423610 -0.820411 0.902530 0.752340 1 32 1.000000
  32 18.249306 0.034662 42.040497 -0.405988 0.110529 -0.907170 0.979970 0.752340 1 32 1.000000
  32 19.080978 -0.241110 41.508247 -0.715226 -0.112190 -0.689829 0.948050 0.877550 1 32 1.000000
band
  32 18.249306 0.034662 42.040497 -0.405988 0.110529 -0.907170 0.979970 0.752340 1 32 1.000000
  32 18.317995 -0.566417 42.163738 -0.384030 -0.423610 -0.820411 0.902530 0.752340 1 32 1.000000
  32 18.231789 -0.595648 42.174034 -0.248598 -0.470433 -0.846695 0.899690 0.740840 1 32 1.000000
band
  32 18.231789 -0.595648 42.174034 -0.248598 -0.470433 -0.846695 0.899690 0.740840 1 32 1.000000
  32 18.158707 0.044054 42.044327 -0.312268 0.084212 -0.946254 0.985350 0.740840 1 32 1.000000
  32 18.249306 0.034662 42.040497 -0.405988 0.110529 -0.907170 0.979970 0.752340 1 32 1.000000
band
  32 18.082222 0.043997 42.097878 -0.759803 0.081514 -0.645023 0.984130 0.727760 1 32 1.000000
  32 18.158707 0.044054 42.044327 -0.312268 0.084212 -0.946254 0.985350 0.740840 1 32 1.000000
  32 18.231789 -0.595648 42.174034 -0.248598 -0.470433 -0.846695 0.899690 0.740840 1 32 1.000000
end
