// Created by Crowbar 0.74
version 1
nodes
  0 "ValveBiped.Bip01_Pelvis" -1
  1 "ValveBiped.Bip01_Spine" 0
  2 "ValveBiped.Bip01_Spine1" 1
  3 "ValveBiped.Bip01_Spine2" 2
  4 "ValveBiped.Bip01_Spine4" 3
  5 "ValveBiped.Bip01_Neck1" 4
  6 "ValveBiped.Bip01_Head1" 5
  7 "Eye_L" 6
  8 "Eye_R" 6
  9 "Teeth" 6
  10 "Tongue1" 6
  11 "Tongue2" 10
  12 "Tongue3" 11
  13 "FrontHair1" 6
  14 "FrontHair2" 13
  15 "FrontHair_L" 6
  16 "FrontHair_R" 6
  17 "SideHair1_L" 6
  18 "SideHair2_L" 17
  19 "SideHair3_L" 18
  20 "SideHair1_R" 6
  21 "SideHair2_R" 20
  22 "SideHair3_R" 21
  23 "BackSideHair1_L" 6
  24 "BackSideHair2_L" 23
  25 "BackSideHair1_R" 6
  26 "BackSideHair2_R" 25
  27 "BackInsideHair" 6
  28 "BackHair" 6
  29 "ValveBiped.Bip01_L_Clavicle" 4
  30 "SleeveRibbon_L" 29
  31 "ValveBiped.Bip01_L_UpperArm" 29
  32 "ValveBiped.Bip01_L_Forearm" 31
  33 "ValveBiped.Bip01_L_Hand" 32
  34 "BackArmKA_L" 31
  35 "FrontArmKA_L" 31
  36 "BackKA1_L" 29
  37 "BackKA2_L" 36
  38 "SideKA1_L" 4
  39 "SideKA2_L" 38
  40 "FrontKA1_L" 4
  41 "FrontKA2_L" 40
  42 "ValveBiped.Bip01_R_Clavicle" 4
  43 "SleeveRibbon_R" 42
  44 "ValveBiped.Bip01_R_UpperArm" 42
  45 "ValveBiped.Bip01_R_Forearm" 44
  46 "ValveBiped.Bip01_R_Hand" 45
  47 "BackArmKA_R" 44
  48 "FrontArmKA_R" 44
  49 "BackKA1_R" 42
  50 "BackKA2_R" 49
  51 "SideKA1_R" 4
  52 "SideKA2_R" 51
  53 "FrontKA1_R" 4
  54 "FrontKA2_R" 53
  55 "BackMiddleKA1" 4
  56 "BackMiddleKA2" 55
  57 "ValveBiped.Bip01_L_Thigh" 0
  58 "ValveBiped.Bip01_L_Calf" 57
  59 "ValveBiped.Bip01_L_Foot" 58
  60 "ValveBiped.Bip01_R_Thigh" 0
  61 "ValveBiped.Bip01_R_Calf" 60
  62 "ValveBiped.Bip01_R_Foot" 61
  63 "ValveBiped.Bip01_L_Finger0" 33
  64 "ValveBiped.Bip01_L_Finger01" 63
  65 "ValveBiped.Bip01_L_Finger02" 64
  66 "ValveBiped.Bip01_L_Finger1" 33
  67 "ValveBiped.Bip01_L_Finger11" 66
  68 "ValveBiped.Bip01_L_Finger12" 67
  69 "ValveBiped.Bip01_L_Finger2" 33
  70 "ValveBiped.Bip01_L_Finger21" 69
  71 "ValveBiped.Bip01_L_Finger22" 70
  72 "ValveBiped.Bip01_L_Finger3" 33
  73 "ValveBiped.Bip01_L_Finger31" 72
  74 "ValveBiped.Bip01_L_Finger32" 73
  75 "ValveBiped.Bip01_L_Finger4" 33
  76 "ValveBiped.Bip01_L_Finger41" 75
  77 "ValveBiped.Bip01_L_Finger42" 76
  78 "ValveBiped.Bip01_R_Finger0" 46
  79 "ValveBiped.Bip01_R_Finger01" 78
  80 "ValveBiped.Bip01_R_Finger02" 79
  81 "ValveBiped.Bip01_R_Finger1" 46
  82 "ValveBiped.Bip01_R_Finger11" 81
  83 "ValveBiped.Bip01_R_Finger12" 82
  84 "ValveBiped.Bip01_R_Finger2" 46
  85 "ValveBiped.Bip01_R_Finger21" 84
  86 "ValveBiped.Bip01_R_Finger22" 85
  87 "ValveBiped.Bip01_R_Finger3" 46
  88 "ValveBiped.Bip01_R_Finger31" 87
  89 "ValveBiped.Bip01_R_Finger32" 88
  90 "ValveBiped.Bip01_R_Finger4" 46
  91 "ValveBiped.Bip01_R_Finger41" 90
  92 "ValveBiped.Bip01_R_Finger42" 91
  93 "Tie1" 4
  94 "Tie2" 93
  95 "Tie3" 94
  96 "Tie4" 95
  97 "Tie5" 96
  98 "Tie6" 97
  99 "Belt1" 0
  100 "Belt2" 99
  101 "Belt3" 100
  102 "Belt4" 101
  103 "Belt5" 102
end
skeleton
  time 0
    0 0.000000 -2.087236 35.214973 1.570796 0.000000 0.000000
    1 0.000003 3.958523 -1.379565 1.570796 -0.074104 1.570801
    2 3.543999 0.000027 0.000016 0.000001 -0.000006 -0.112615
    3 3.341240 0.000028 -0.000005 0.000000 0.000004 -0.012632
    4 6.963299 0.000036 0.000019 0.000000 -0.000004 0.155826
    5 2.935257 -0.000237 -0.000006 -3.141592 0.000001 0.224052
    6 2.189419 0.080307 0.000001 0.000000 0.000001 0.100578
    7 2.523140 -0.334478 -1.152895 -2.838601 -0.054556 -0.074840
    8 2.523148 -0.334476 1.152903 0.303011 -0.054536 3.066762
    9 0.249523 -1.665982 0.000000 0.000000 1.570794 2.933635
    10 0.238724 -1.261398 0.000000 0.000000 1.570789 2.901134
    11 0.000000 0.645901 0.000000 0.005272 0.000000 0.000000
    12 0.000000 0.483725 -0.000011 -0.005191 0.000000 0.000000
    13 5.935234 -3.225060 0.000009 0.000000 -1.570795 0.244065
    14 0.000000 0.033809 2.125092 -0.005249 0.000000 0.000000
    15 5.935238 -3.225061 -2.082912 0.000000 1.570795 0.244065
    16 5.935230 -3.225058 2.082930 0.000000 -1.570795 0.244065
    17 5.365295 0.301672 -4.434359 0.000000 -1.570795 0.195590
    18 0.000000 -0.100058 3.071205 0.009521 0.000000 0.000000
    19 0.000000 -0.047046 2.040993 0.016280 0.000000 0.000000
    20 5.365273 0.301674 4.434371 0.000000 -1.570795 0.195590
    21 0.000000 -0.100058 3.071205 0.009522 0.000000 0.000000
    22 0.000000 -0.047046 2.040981 0.016279 0.000000 0.000000
    23 4.607594 3.495597 -5.170744 0.000000 -1.570795 0.195590
    24 0.000000 -0.166048 5.096722 0.000154 -0.000022 0.001360
    25 4.607563 3.495595 5.170754 0.000000 -1.570795 0.195589
    26 0.000000 -0.166049 5.096737 0.000154 0.000022 -0.001360
    27 0.605942 4.565639 0.000001 0.000000 -1.570795 0.183581
    28 0.339760 5.719981 0.000001 0.000000 -1.570795 0.183581
    29 1.620522 0.585389 0.906230 1.397308 -1.239013 3.061126
    30 8.683130 -0.055901 -0.805785 2.049573 1.402847 1.843492
    31 4.017078 -0.343716 -0.838145 -1.424292 0.049762 -0.291220
    32 9.653366 0.000000 0.000000 0.000000 0.001788 -0.013702
    33 9.700520 -0.000003 0.173653 1.570796 -0.058854 0.000001
    34 0.140934 1.465839 1.656826 -0.037035 -0.653280 -1.463125
    35 -0.074825 -0.930140 1.653088 0.145504 -0.483089 -1.732807
    36 2.275753 1.061657 -2.923033 -2.592914 -0.707330 0.649718
    37 -0.000006 1.650681 0.000000 -0.503380 -0.223883 0.141366
    38 1.750286 1.309223 2.431600 1.011993 0.210461 0.907309
    39 -0.000002 2.839314 0.000004 -0.415784 -0.535950 0.456325
    40 1.246666 2.549739 1.387323 0.860368 0.095125 0.755684
    41 -0.000011 3.089649 0.000004 -0.353464 -0.556296 0.514158
    42 1.620544 0.585401 -0.906207 -1.460919 1.238521 3.069740
    43 8.685409 -0.111885 0.775028 -1.212662 1.486555 -1.477698
    44 4.019470 -0.402164 0.799939 1.492225 -0.026337 -0.293716
    45 9.653353 0.000000 0.000000 0.000000 -0.001793 -0.013703
    46 9.700523 -0.000002 -0.173683 -1.570796 0.059154 0.000001
    47 0.140934 1.465840 -1.656834 3.104556 -0.653280 1.678468
    48 -0.074835 -0.930140 -1.653088 -2.996089 -0.483088 1.408786
    49 2.284115 0.849785 2.985156 0.473894 -0.664781 -2.444388
    50 -0.000004 1.650673 0.000000 -0.503380 0.223883 -0.141367
    51 1.750278 1.309222 -2.431606 -2.129602 0.210458 -2.234284
    52 0.000006 2.839322 -0.000004 -0.415784 0.535950 -0.456325
    53 1.246651 2.549738 -1.387329 -2.281227 0.095122 -2.385909
    54 0.000000 3.089647 0.000004 -0.353463 0.556296 -0.514157
    55 0.209564 -2.528919 -0.000001 0.000000 1.570788 3.001086
    56 0.000000 0.488070 1.833454 0.035867 0.000000 0.000000
    57 2.982521 0.000004 0.000002 -1.570796 0.000000 -1.570796
    58 13.441391 -0.116433 -0.318382 0.000000 0.000000 0.122992
    59 17.962406 0.000000 0.000000 0.000001 0.000000 -1.083473
    60 -2.982520 0.000004 0.000002 -1.570796 0.000000 -1.570796
    61 13.441391 -0.116433 0.318380 0.000000 0.000000 0.122992
    62 17.962404 0.000000 0.000000 0.000000 0.000000 -1.086513
    63 0.255142 -0.280396 0.786743 -1.627755 -0.392902 -0.330939
    64 1.293726 0.000001 0.000004 -0.056161 0.001272 -0.043727
    65 1.033816 0.026757 0.086334 -0.001546 -0.078120 -0.261983
    66 2.478046 -0.225307 0.803191 0.000000 -0.000003 -0.090672
    67 1.164511 -0.027367 0.008878 0.000000 0.000001 -0.023497
    68 0.793106 0.009369 -0.015788 0.000000 0.000001 0.011817
    69 2.609573 -0.172768 0.167416 0.000000 0.000000 -0.066108
    70 1.203957 0.021431 0.008552 0.000000 0.000000 0.017799
    71 0.809978 -0.023346 0.000000 0.000000 0.000001 -0.028814
    72 2.495249 -0.287563 -0.444678 0.000000 0.000001 -0.114735
    73 1.024574 0.059872 0.017763 0.000000 -0.000001 0.058380
    74 0.752829 -0.013725 0.027300 0.000000 -0.000001 -0.018228
    75 2.354773 -0.462547 -1.022895 0.000000 0.000000 -0.193958
    76 0.807177 0.074558 0.035851 0.000000 -0.000001 0.092100
    77 0.590862 0.010323 0.023023 0.000000 0.000000 0.017467
    78 0.255066 -0.280472 -0.786743 1.627755 0.392902 -0.331235
    79 1.293739 0.000000 0.000000 0.063510 -0.003851 -0.043927
    80 1.033585 0.026157 -0.089211 0.000848 0.076727 -0.262614
    81 2.477987 -0.226040 -0.803191 0.000000 0.000003 -0.090969
    82 1.164513 -0.027367 -0.008878 0.000000 -0.000001 -0.023497
    83 0.793108 0.009380 0.015789 0.000000 -0.000001 0.011816
    84 2.609531 -0.173538 -0.167416 0.000000 0.000001 -0.066404
    85 1.203957 0.021431 -0.008552 0.000000 0.000001 0.017799
    86 0.809977 -0.023357 0.000000 0.000000 -0.000001 -0.028815
    87 2.495169 -0.288296 0.444679 0.000000 0.000000 -0.115032
    88 1.024570 0.059879 -0.017762 0.000000 0.000001 0.058379
    89 0.752827 -0.013721 -0.027300 0.000000 0.000001 -0.018229
    90 2.354630 -0.463242 1.022895 0.000000 0.000001 -0.194255
    91 0.807183 0.074554 -0.035851 0.000000 0.000001 0.092099
    92 0.590853 0.010319 -0.023023 0.000000 -0.000001 0.017467
    93 0.794472 3.282163 -0.000002 0.000000 -1.570795 -0.637865
    94 0.000000 0.091843 0.779438 0.120736 0.000000 0.000000
    95 0.000000 0.167423 0.697979 0.088975 -0.000036 -0.000003
    96 0.000041 0.226933 1.110523 0.034320 0.000032 0.000000
    97 0.000008 0.112391 1.553921 0.017734 0.000002 0.000000
    98 0.000005 -0.150730 1.708767 0.276285 0.000059 0.000016
    99 2.795703 6.788696 3.734684 0.869066 0.000000 0.000000
    100 -0.000001 -0.562551 3.198040 0.317572 0.000000 0.000000
    101 0.000001 0.136873 4.045177 0.008174 0.000001 0.000000
    102 -0.000004 0.182449 4.048155 0.092432 0.000000 0.000000
    103 -0.000002 0.549179 4.012951 0.022276 0.000000 0.000000
end
triangles
trans
  45 -17.497406 0.042280 42.347004 0.263985 0.078585 -0.961320 0.992090 0.967770 1 45 1.000000
  45 -18.033142 0.033870 42.197247 0.933735 0.060224 -0.352862 0.913180 0.961110 1 45 1.000000
  45 -18.159138 0.629316 42.417992 0.822777 0.547129 -0.153907 0.913180 0.830840 1 45 1.000000
trans
  45 -18.159138 0.629316 42.417992 0.822777 0.547129 -0.153907 0.913180 0.830840 1 45 1.000000
  45 -17.651318 0.804444 42.616356 0.074707 0.664453 -0.743587 0.992090 0.818930 1 45 1.000000
  45 -17.497406 0.042280 42.347004 0.263985 0.078585 -0.961320 0.992090 0.967770 1 45 1.000000
trans
  45 -17.651318 0.804444 42.616356 0.074707 0.664453 -0.743587 0.992090 0.818930 1 45 1.000000
  45 -18.159138 0.629316 42.417992 0.822777 0.547129 -0.153907 0.913180 0.830840 1 45 1.000000
  45 -18.366385 0.802362 42.752319 0.553105 0.801331 0.227912 0.913180 0.748040 1 45 1.000000
trans
  45 -18.366385 0.802362 42.752319 0.553105 0.801331 0.227912 0.913180 0.748040 1 45 1.000000
  45 -17.905519 1.000413 43.026886 -0.261527 0.910189 -0.321185 0.992090 0.742220 1 45 1.000000
  45 -17.651318 0.804444 42.616356 0.074707 0.664453 -0.743587 0.992090 0.818930 1 45 1.000000
trans
  45 -17.905519 1.000413 43.026886 -0.261527 0.910189 -0.321185 0.992090 0.742220 1 45 1.000000
  45 -18.366385 0.802362 42.752319 0.553105 0.801331 0.227912 0.913180 0.748040 1 45 1.000000
  45 -18.577374 0.704372 43.102322 0.323882 0.789313 0.521618 0.913180 0.664970 1 45 1.000000
trans
  45 -18.577374 0.704372 43.102322 0.323882 0.789313 0.521618 0.913180 0.664970 1 45 1.000000
  45 -18.186707 1.007625 43.467003 -0.534883 0.844425 -0.029085 0.992090 0.660780 1 45 1.000000
  45 -17.905519 1.000413 43.026886 -0.261527 0.910189 -0.321185 0.992090 0.742220 1 45 1.000000
trans
  45 -18.186707 1.007625 43.467003 -0.534883 0.844425 -0.029085 0.992090 0.660780 1 45 1.000000
  45 -18.577374 0.704372 43.102322 0.323882 0.789313 0.521618 0.913180 0.664970 1 45 1.000000
  45 -18.734112 0.559717 43.339348 0.151699 0.597851 0.787122 0.913180 0.595670 1 45 1.000000
trans
  45 -18.734112 0.559717 43.339348 0.151699 0.597851 0.787122 0.913180 0.595670 1 45 1.000000
  45 -18.401070 0.776236 43.815491 -0.730869 0.631091 0.259913 0.992090 0.596710 1 45 1.000000
  45 -18.186707 1.007625 43.467003 -0.534883 0.844425 -0.029085 0.992090 0.660780 1 45 1.000000
trans
  45 -18.401070 0.776236 43.815491 -0.730869 0.631091 0.259913 0.992090 0.596710 1 45 1.000000
  45 -18.734112 0.559717 43.339348 0.151699 0.597851 0.787122 0.913180 0.595670 1 45 1.000000
  45 -18.915771 0.098134 43.587673 0.035789 0.169100 0.984949 0.913180 0.504000 1 45 1.000000
trans
  45 -18.915771 0.098134 43.587673 0.035789 0.169100 0.984949 0.913180 0.504000 1 45 1.000000
  45 -18.581121 0.147312 44.061783 -0.836359 0.180950 0.517456 0.992090 0.504200 1 45 1.000000
  45 -18.401070 0.776236 43.815491 -0.730869 0.631091 0.259913 0.992090 0.596710 1 45 1.000000
trans
  45 -18.581121 0.147312 44.061783 -0.836359 0.180950 0.517456 0.992090 0.504200 1 45 1.000000
  45 -18.915771 0.098134 43.587673 0.035789 0.169100 0.984949 0.913180 0.504000 1 45 1.000000
  45 -18.867092 -0.610232 43.525108 0.111903 -0.369692 0.922391 0.913180 0.398500 1 45 1.000000
trans
  45 -18.867092 -0.610232 43.525108 0.111903 -0.369692 0.922391 0.913180 0.398500 1 45 1.000000
  45 -18.519833 -0.709639 43.990318 -0.765411 -0.434555 0.474666 0.992090 0.396400 1 45 1.000000
  45 -18.581121 0.147312 44.061783 -0.836359 0.180950 0.517456 0.992090 0.504200 1 45 1.000000
trans
  45 -18.519833 -0.709639 43.990318 -0.765411 -0.434555 0.474666 0.992090 0.396400 1 45 1.000000
  45 -18.867092 -0.610232 43.525108 0.111903 -0.369692 0.922391 0.913180 0.398500 1 45 1.000000
  45 -18.571144 -1.055460 43.100296 0.421283 -0.741104 0.522766 0.913180 0.298290 1 45 1.000000
trans
  45 -18.571144 -1.055460 43.100296 0.421283 -0.741104 0.522766 0.913180 0.298290 1 45 1.000000
  45 -18.165533 -1.252411 43.482651 -0.447554 -0.894255 0.001643 0.992090 0.299690 1 45 1.000000
  45 -18.519833 -0.709639 43.990318 -0.765411 -0.434555 0.474666 0.992090 0.396400 1 45 1.000000
trans
  45 -18.165533 -1.252411 43.482651 -0.447554 -0.894255 0.001643 0.992090 0.299690 1 45 1.000000
  45 -18.571144 -1.055460 43.100296 0.421283 -0.741104 0.522766 0.913180 0.298290 1 45 1.000000
  45 -18.284199 -0.955848 42.653778 0.726321 -0.686977 0.022808 0.913180 0.208830 1 45 1.000000
trans
  45 -18.284199 -0.955848 42.653778 0.726321 -0.686977 0.022808 0.913180 0.208830 1 45 1.000000
  45 -17.814718 -1.153798 42.930191 -0.041489 -0.844193 -0.534431 0.992090 0.214510 1 45 1.000000
  45 -18.165533 -1.252411 43.482651 -0.447554 -0.894255 0.001643 0.992090 0.299690 1 45 1.000000
trans
  45 -17.814718 -1.153798 42.930191 -0.041489 -0.844193 -0.534431 0.992090 0.214510 1 45 1.000000
  45 -18.284199 -0.955848 42.653778 0.726321 -0.686977 0.022808 0.913180 0.208830 1 45 1.000000
  45 -18.101982 -0.565948 42.318756 0.885290 -0.376941 -0.272354 0.913180 0.117220 1 45 1.000000
trans
  45 -18.101982 -0.565948 42.318756 0.885290 -0.376941 -0.272354 0.913180 0.117220 1 45 1.000000
  45 -17.577873 -0.680362 42.498589 0.197046 -0.473331 -0.858563 0.992090 0.119770 1 45 1.000000
  45 -17.814718 -1.153798 42.930191 -0.041489 -0.844193 -0.534431 0.992090 0.214510 1 45 1.000000
trans
  45 -17.577873 -0.680362 42.498589 0.197046 -0.473331 -0.858563 0.992090 0.119770 1 45 1.000000
  45 -18.101982 -0.565948 42.318756 0.885290 -0.376941 -0.272354 0.913180 0.117220 1 45 1.000000
  45 -18.033142 0.033870 42.197247 0.933735 0.060224 -0.352862 0.913180 0.036650 1 45 1.000000
trans
  45 -18.033142 0.033870 42.197247 0.933735 0.060224 -0.352862 0.913180 0.036650 1 45 1.000000
  45 -17.497406 0.042280 42.347004 0.263985 0.078585 -0.961320 0.992090 0.031350 1 45 1.000000
  45 -17.577873 -0.680362 42.498589 0.197046 -0.473331 -0.858563 0.992090 0.119770 1 45 1.000000
trans
  45 -19.289717 0.065506 41.393051 -0.277560 0.092051 -0.956288 0.913180 0.051340 1 45 1.000000
  45 -19.294294 -0.235621 41.414909 -0.261916 -0.097866 -0.960116 0.913180 0.009390 1 45 1.000000
  45 -19.537926 -0.249128 41.073086 0.813537 -0.072400 -0.576988 0.992090 0.007420 1 45 1.000000
trans
  45 -19.537926 -0.249128 41.073086 0.813537 -0.072400 -0.576988 0.992090 0.007420 1 45 1.000000
  45 -19.532398 0.114837 41.046673 0.819664 0.149527 -0.552985 0.992090 0.052930 1 45 1.000000
  45 -19.289717 0.065506 41.393051 -0.277560 0.092051 -0.956288 0.913180 0.051340 1 45 1.000000
trans
  45 -19.361195 0.387512 41.502567 -0.334760 0.362256 -0.869888 0.913180 0.101690 1 45 1.000000
  45 -19.289717 0.065506 41.393051 -0.277560 0.092051 -0.956288 0.913180 0.051340 1 45 1.000000
  45 -19.532398 0.114837 41.046673 0.819664 0.149527 -0.552985 0.992090 0.052930 1 45 1.000000
trans
  45 -19.532398 0.114837 41.046673 0.819664 0.149527 -0.552985 0.992090 0.052930 1 45 1.000000
  45 -19.618786 0.504038 41.179035 0.754092 0.506636 -0.417929 0.992090 0.105250 1 45 1.000000
  45 -19.361195 0.387512 41.502567 -0.334760 0.362256 -0.869888 0.913180 0.101690 1 45 1.000000
trans
  45 -19.478432 0.601771 41.685291 -0.443597 0.555661 -0.703180 0.913180 0.150100 1 45 1.000000
  45 -19.361195 0.387512 41.502567 -0.334760 0.362256 -0.869888 0.913180 0.101690 1 45 1.000000
  45 -19.618786 0.504038 41.179035 0.754092 0.506636 -0.417929 0.992090 0.105250 1 45 1.000000
trans
  45 -19.618786 0.504038 41.179035 0.754092 0.506636 -0.417929 0.992090 0.105250 1 45 1.000000
  45 -19.760485 0.763008 41.399887 0.610831 0.774088 -0.166354 0.992090 0.152040 1 45 1.000000
  45 -19.478432 0.601771 41.685291 -0.443597 0.555661 -0.703180 0.913180 0.150100 1 45 1.000000
trans
  45 -19.634459 0.694765 41.925152 -0.604698 0.657161 -0.449976 0.913180 0.200780 1 45 1.000000
  45 -19.478432 0.601771 41.685291 -0.443597 0.555661 -0.703180 0.913180 0.150100 1 45 1.000000
  45 -19.760485 0.763008 41.399887 0.610831 0.774088 -0.166354 0.992090 0.152040 1 45 1.000000
trans
  45 -19.760485 0.763008 41.399887 0.610831 0.774088 -0.166354 0.992090 0.152040 1 45 1.000000
  45 -19.949076 0.875406 41.689808 0.377004 0.906184 0.191568 0.992090 0.199820 1 45 1.000000
  45 -19.634459 0.694765 41.925152 -0.604698 0.657161 -0.449976 0.913180 0.200780 1 45 1.000000
trans
  45 -19.820038 0.624270 42.203289 -0.772808 0.611334 -0.170407 0.913180 0.258810 1 45 1.000000
  45 -19.634459 0.694765 41.925152 -0.604698 0.657161 -0.449976 0.913180 0.200780 1 45 1.000000
  45 -19.949076 0.875406 41.689808 0.377004 0.906184 0.191568 0.992090 0.199820 1 45 1.000000
trans
  45 -19.949076 0.875406 41.689808 0.377004 0.906184 0.191568 0.992090 0.199820 1 45 1.000000
  45 -20.173388 0.790200 42.025993 0.106083 0.822683 0.558515 0.992090 0.256320 1 45 1.000000
  45 -19.820038 0.624270 42.203289 -0.772808 0.611334 -0.170407 0.913180 0.258810 1 45 1.000000
trans
  45 -19.962170 0.416876 42.405746 -0.900963 0.431860 0.041989 0.913180 0.316920 1 45 1.000000
  45 -19.820038 0.624270 42.203289 -0.772808 0.611334 -0.170407 0.913180 0.258810 1 45 1.000000
  45 -20.173388 0.790200 42.025993 0.106083 0.822683 0.558515 0.992090 0.256320 1 45 1.000000
trans
  45 -20.173388 0.790200 42.025993 0.106083 0.822683 0.558515 0.992090 0.256320 1 45 1.000000
  45 -20.345173 0.539528 42.270691 -0.090017 0.596855 0.797283 0.992090 0.312540 1 45 1.000000
  45 -19.962170 0.416876 42.405746 -0.900963 0.431860 0.041989 0.913180 0.316920 1 45 1.000000
trans
  45 -20.052807 0.116546 42.553207 -0.978745 0.118111 0.167656 0.913180 0.380650 1 45 1.000000
  45 -19.962170 0.416876 42.405746 -0.900963 0.431860 0.041989 0.913180 0.316920 1 45 1.000000
  45 -20.345173 0.539528 42.270691 -0.090017 0.596855 0.797283 0.992090 0.312540 1 45 1.000000
trans
  45 -20.345173 0.539528 42.270691 -0.090017 0.596855 0.797283 0.992090 0.312540 1 45 1.000000
  45 -20.454708 0.176526 42.448906 -0.214726 0.217053 0.952250 0.992090 0.376110 1 45 1.000000
  45 -20.052807 0.116546 42.553207 -0.978745 0.118111 0.167656 0.913180 0.380650 1 45 1.000000
trans
  45 -20.017397 -0.258441 42.541279 -0.972873 -0.118630 0.198607 0.913180 0.448380 1 45 1.000000
  45 -20.052807 0.116546 42.553207 -0.978745 0.118111 0.167656 0.913180 0.380650 1 45 1.000000
  45 -20.454708 0.176526 42.448906 -0.214726 0.217053 0.952250 0.992090 0.376110 1 45 1.000000
trans
  45 -20.454708 0.176526 42.448906 -0.214726 0.217053 0.952250 0.992090 0.376110 1 45 1.000000
  45 -20.411922 -0.276712 42.434509 -0.256096 -0.093171 0.962151 0.992090 0.446740 1 45 1.000000
  45 -20.017397 -0.258441 42.541279 -0.972873 -0.118630 0.198607 0.913180 0.448380 1 45 1.000000
trans
  45 -19.968315 -0.609169 42.506233 -0.930535 -0.351802 0.101680 0.913180 0.515290 1 45 1.000000
  45 -20.017397 -0.258441 42.541279 -0.972873 -0.118630 0.198607 0.913180 0.448380 1 45 1.000000
  45 -20.411922 -0.276712 42.434509 -0.256096 -0.093171 0.962151 0.992090 0.446740 1 45 1.000000
trans
  45 -20.411922 -0.276712 42.434509 -0.256096 -0.093171 0.962151 0.992090 0.446740 1 45 1.000000
  45 -20.352600 -0.700629 42.392139 -0.175222 -0.390875 0.903612 0.992090 0.519250 1 45 1.000000
  45 -19.968315 -0.609169 42.506233 -0.930535 -0.351802 0.101680 0.913180 0.515290 1 45 1.000000
trans
  45 -19.831852 -0.834145 42.341854 -0.860208 -0.509860 0.009196 0.913180 0.575300 1 45 1.000000
  45 -19.968315 -0.609169 42.506233 -0.930535 -0.351802 0.101680 0.913180 0.515290 1 45 1.000000
  45 -20.352600 -0.700629 42.392139 -0.175222 -0.390875 0.903612 0.992090 0.519250 1 45 1.000000
trans
  45 -20.352600 -0.700629 42.392139 -0.175222 -0.390875 0.903612 0.992090 0.519250 1 45 1.000000
  45 -20.187664 -0.972553 42.193474 -0.078471 -0.628165 0.774113 0.992090 0.579500 1 45 1.000000
  45 -19.831852 -0.834145 42.341854 -0.860208 -0.509860 0.009196 0.913180 0.575300 1 45 1.000000
trans
  45 -19.719913 -1.031157 42.189850 -0.767228 -0.608549 -0.202556 0.913180 0.633430 1 45 1.000000
  45 -19.831852 -0.834145 42.341854 -0.860208 -0.509860 0.009196 0.913180 0.575300 1 45 1.000000
  45 -20.187664 -0.972553 42.193474 -0.078471 -0.628165 0.774113 0.992090 0.579500 1 45 1.000000
trans
  45 -20.187664 -0.972553 42.193474 -0.078471 -0.628165 0.774113 0.992090 0.579500 1 45 1.000000
  45 -20.052355 -1.210676 42.009739 0.147511 -0.823204 0.548247 0.992090 0.638170 1 45 1.000000
  45 -19.719913 -1.031157 42.189850 -0.767228 -0.608549 -0.202556 0.913180 0.633430 1 45 1.000000
trans
  45 -19.541336 -1.036645 41.925690 -0.522142 -0.630936 -0.573835 0.913180 0.700440 1 45 1.000000
  45 -19.719913 -1.031157 42.189850 -0.767228 -0.608549 -0.202556 0.913180 0.633430 1 45 1.000000
  45 -20.052355 -1.210676 42.009739 0.147511 -0.823204 0.548247 0.992090 0.638170 1 45 1.000000
trans
  45 -20.052355 -1.210676 42.009739 0.147511 -0.823204 0.548247 0.992090 0.638170 1 45 1.000000
  45 -19.836529 -1.217309 41.690472 0.505319 -0.862469 0.028275 0.992090 0.704000 1 45 1.000000
  45 -19.541336 -1.036645 41.925690 -0.522142 -0.630936 -0.573835 0.913180 0.700440 1 45 1.000000
trans
  45 -19.425343 -0.890360 41.733826 -0.408093 -0.536594 -0.738598 0.913180 0.758970 1 45 1.000000
  45 -19.541336 -1.036645 41.925690 -0.522142 -0.630936 -0.573835 0.913180 0.700440 1 45 1.000000
  45 -19.836529 -1.217309 41.690472 0.505319 -0.862469 0.028275 0.992090 0.704000 1 45 1.000000
trans
  45 -19.836529 -1.217309 41.690472 0.505319 -0.862469 0.028275 0.992090 0.704000 1 45 1.000000
  45 -19.696320 -1.040497 41.458557 0.673690 -0.678353 -0.293221 0.992090 0.761970 1 45 1.000000
  45 -19.425343 -0.890360 41.733826 -0.408093 -0.536594 -0.738598 0.913180 0.758970 1 45 1.000000
trans
  45 -19.364395 -0.716297 41.579414 -0.361875 -0.447928 -0.817562 0.913180 0.814630 1 45 1.000000
  45 -19.425343 -0.890360 41.733826 -0.408093 -0.536594 -0.738598 0.913180 0.758970 1 45 1.000000
  45 -19.696320 -1.040497 41.458557 0.673690 -0.678353 -0.293221 0.992090 0.761970 1 45 1.000000
trans
  45 -19.696320 -1.040497 41.458557 0.673690 -0.678353 -0.293221 0.992090 0.761970 1 45 1.000000
  45 -19.622658 -0.830110 41.271931 0.737541 -0.524541 -0.425312 0.992090 0.819500 1 45 1.000000
  45 -19.364395 -0.716297 41.579414 -0.361875 -0.447928 -0.817562 0.913180 0.814630 1 45 1.000000
trans
  45 -19.297844 -0.471119 41.446884 -0.295825 -0.253536 -0.920982 0.913180 0.879840 1 45 1.000000
  45 -19.364395 -0.716297 41.579414 -0.361875 -0.447928 -0.817562 0.913180 0.814630 1 45 1.000000
  45 -19.622658 -0.830110 41.271931 0.737541 -0.524541 -0.425312 0.992090 0.819500 1 45 1.000000
trans
  45 -19.622658 -0.830110 41.271931 0.737541 -0.524541 -0.425312 0.992090 0.819500 1 45 1.000000
  45 -19.542210 -0.533769 41.111748 0.799971 -0.279275 -0.531085 0.992090 0.889280 1 45 1.000000
  45 -19.297844 -0.471119 41.446884 -0.295825 -0.253536 -0.920982 0.913180 0.879840 1 45 1.000000
trans
  45 -19.294294 -0.235621 41.414909 -0.261916 -0.097866 -0.960116 0.913180 0.933880 1 45 1.000000
  45 -19.297844 -0.471119 41.446884 -0.295825 -0.253536 -0.920982 0.913180 0.879840 1 45 1.000000
  45 -19.542210 -0.533769 41.111748 0.799971 -0.279275 -0.531085 0.992090 0.889280 1 45 1.000000
trans
  45 -19.542210 -0.533769 41.111748 0.799971 -0.279275 -0.531085 0.992090 0.889280 1 45 1.000000
  45 -19.537926 -0.249128 41.073086 0.813537 -0.072400 -0.576988 0.992090 0.949290 1 45 1.000000
  45 -19.294294 -0.235621 41.414909 -0.261916 -0.097866 -0.960116 0.913180 0.933880 1 45 1.000000
band
  45 -19.320070 -0.221840 41.643566 -0.993810 -0.001006 -0.111085 0.334210 0.653020 1 45 1.000000
  45 -19.318073 -0.007989 41.627232 -0.985882 -0.080474 -0.146833 0.305150 0.653020 1 45 1.000000
  45 -19.289719 0.065506 41.393051 -0.277560 0.092051 -0.956288 0.289730 0.593860 1 45 1.000000
band
  45 -19.364395 -0.716297 41.579414 -0.361875 -0.447928 -0.817562 0.390560 0.593860 1 45 1.000000
  45 -19.375404 -0.562136 41.772224 -0.965765 0.174942 -0.191556 0.392460 0.653020 1 45 1.000000
  45 -19.320736 -0.387337 41.667992 -0.985499 0.086408 -0.146033 0.359500 0.653020 1 45 1.000000
band
  45 -19.320736 -0.387337 41.667992 -0.985499 0.086408 -0.146033 0.359500 0.653020 1 45 1.000000
  45 -19.297844 -0.471119 41.446892 -0.295825 -0.253536 -0.920982 0.356460 0.593860 1 45 1.000000
  45 -19.364395 -0.716297 41.579414 -0.361875 -0.447928 -0.817562 0.390560 0.593860 1 45 1.000000
band
  45 -19.297844 -0.471119 41.446892 -0.295825 -0.253536 -0.920982 0.356460 0.593860 1 45 1.000000
  45 -19.320736 -0.387337 41.667992 -0.985499 0.086408 -0.146033 0.359500 0.653020 1 45 1.000000
  45 -19.320070 -0.221840 41.643566 -0.993810 -0.001006 -0.111085 0.334210 0.653020 1 45 1.000000
band
  45 -19.320070 -0.221840 41.643566 -0.993810 -0.001006 -0.111085 0.334210 0.653020 1 45 1.000000
  45 -19.294294 -0.235621 41.414909 -0.261916 -0.097866 -0.960116 0.328770 0.593860 1 45 1.000000
  45 -19.297844 -0.471119 41.446892 -0.295825 -0.253536 -0.920982 0.356460 0.593860 1 45 1.000000
band
  45 -19.289719 0.065506 41.393051 -0.277560 0.092051 -0.956288 0.289730 0.593860 1 45 1.000000
  45 -19.294294 -0.235621 41.414909 -0.261916 -0.097866 -0.960116 0.328770 0.593860 1 45 1.000000
  45 -19.320070 -0.221840 41.643566 -0.993810 -0.001006 -0.111085 0.334210 0.653020 1 45 1.000000
band
  45 -19.189808 -0.241822 41.386333 0.166303 -0.103643 -0.980613 0.327490 0.577600 1 45 1.000000
  45 -19.294294 -0.235621 41.414909 -0.261916 -0.097866 -0.960116 0.328770 0.593860 1 45 1.000000
  45 -19.289719 0.065506 41.393051 -0.277560 0.092051 -0.956288 0.289730 0.593860 1 45 1.000000
band
  45 -19.289719 0.065506 41.393051 -0.277560 0.092051 -0.956288 0.289730 0.593860 1 45 1.000000
  45 -19.184181 0.095303 41.362213 0.143395 0.139588 -0.979772 0.285170 0.577600 1 45 1.000000
  45 -19.189808 -0.241822 41.386333 0.166303 -0.103643 -0.980613 0.327490 0.577600 1 45 1.000000
band
  45 -19.189808 -0.241822 41.386333 0.166303 -0.103643 -0.980613 0.327490 0.577600 1 45 1.000000
  45 -19.184181 0.095303 41.362213 0.143395 0.139588 -0.979772 0.285170 0.577600 1 45 1.000000
  45 -19.117136 0.094422 41.409157 0.739979 0.153713 -0.654831 0.286200 0.566940 1 45 1.000000
band
  45 -19.117136 0.094422 41.409157 0.739979 0.153713 -0.654831 0.286200 0.566940 1 45 1.000000
  45 -19.122768 -0.242703 41.433277 0.738765 -0.081456 -0.669023 0.327100 0.566940 1 45 1.000000
  45 -19.189808 -0.241822 41.386333 0.166303 -0.103643 -0.980613 0.327490 0.577600 1 45 1.000000
band
  45 -19.080961 -0.241088 41.508224 0.715228 -0.112200 -0.689826 0.326990 0.555520 1 45 1.000000
  45 -19.122768 -0.242703 41.433277 0.738765 -0.081456 -0.669023 0.327100 0.566940 1 45 1.000000
  45 -19.117136 0.094422 41.409157 0.739979 0.153713 -0.654831 0.286200 0.566940 1 45 1.000000
band
  45 -19.122768 -0.242703 41.433277 0.738765 -0.081456 -0.669023 0.327100 0.566940 1 45 1.000000
  45 -19.080961 -0.241088 41.508224 0.715228 -0.112200 -0.689826 0.326990 0.555520 1 45 1.000000
  45 -19.084955 -0.492516 41.542381 0.721563 -0.293012 -0.627288 0.355280 0.555520 1 45 1.000000
band
  45 -18.317978 -0.566395 42.163727 0.383991 -0.423628 -0.820421 0.372510 0.430310 1 45 1.000000
  45 -19.084955 -0.492516 41.542381 0.721563 -0.293012 -0.627288 0.355280 0.555520 1 45 1.000000
  45 -19.080961 -0.241088 41.508224 0.715228 -0.112200 -0.689826 0.326990 0.555520 1 45 1.000000
band
  45 -19.084955 -0.492516 41.542381 0.721563 -0.293012 -0.627288 0.355280 0.555520 1 45 1.000000
  45 -18.317978 -0.566395 42.163727 0.383991 -0.423628 -0.820421 0.372510 0.430310 1 45 1.000000
  45 -19.154339 -0.755354 41.681118 0.655812 -0.546242 -0.521085 0.388920 0.555520 1 45 1.000000
band
  45 -18.317978 -0.566395 42.163727 0.383991 -0.423628 -0.820421 0.372510 0.430310 1 45 1.000000
  45 -18.500853 -0.960379 42.498726 0.193087 -0.835869 -0.513848 0.435110 0.430310 1 45 1.000000
  45 -19.154339 -0.755354 41.681118 0.655812 -0.546242 -0.521085 0.388920 0.555520 1 45 1.000000
band
  45 -18.500853 -0.960379 42.498726 0.193087 -0.835869 -0.513848 0.435110 0.430310 1 45 1.000000
  45 -19.218714 -0.942201 41.842339 0.615727 -0.700922 -0.359984 0.416770 0.555520 1 45 1.000000
  45 -19.154339 -0.755354 41.681118 0.655812 -0.546242 -0.521085 0.388920 0.555520 1 45 1.000000
band
  45 -19.218714 -0.942201 41.842339 0.615727 -0.700922 -0.359984 0.416770 0.555520 1 45 1.000000
  45 -18.500853 -0.960379 42.498726 0.193087 -0.835869 -0.513848 0.435110 0.430310 1 45 1.000000
  45 -19.343021 -1.102207 42.051277 0.400981 -0.914260 -0.057812 0.448670 0.555520 1 45 1.000000
band
  45 -19.218714 -0.942201 41.842339 0.615727 -0.700922 -0.359984 0.416770 0.555520 1 45 1.000000
  45 -19.343021 -1.102207 42.051277 0.400981 -0.914260 -0.057812 0.448670 0.555520 1 45 1.000000
  45 -19.397076 -1.152772 42.002636 0.400981 -0.914260 -0.057812 0.449230 0.566940 1 45 1.000000
band
  45 -19.598846 -1.141196 42.309280 0.021385 -0.870180 0.492270 0.486540 0.566940 1 45 1.000000
  45 -19.397076 -1.152772 42.002636 0.400981 -0.914260 -0.057812 0.449230 0.566940 1 45 1.000000
  45 -19.343021 -1.102207 42.051277 0.400981 -0.914260 -0.057812 0.448670 0.555520 1 45 1.000000
band
  45 -19.194532 -0.506193 41.421432 0.123867 -0.313108 -0.941605 0.356300 0.577600 1 45 1.000000
  45 -19.189808 -0.241822 41.386333 0.166303 -0.103643 -0.980613 0.327490 0.577600 1 45 1.000000
  45 -19.122768 -0.242703 41.433277 0.738765 -0.081456 -0.669023 0.327100 0.566940 1 45 1.000000
band
  45 -19.665884 -1.140315 42.262337 -0.589153 -0.806904 0.042479 0.486010 0.577600 1 45 1.000000
  45 -19.598846 -1.141196 42.309280 0.021385 -0.870180 0.492270 0.486540 0.566940 1 45 1.000000
  45 -19.722679 -0.917095 42.482098 -0.190348 -0.655645 0.730683 0.519250 0.566940 1 45 1.000000
band
  45 -19.722679 -0.917095 42.482098 -0.190348 -0.655645 0.730683 0.519250 0.566940 1 45 1.000000
  45 -19.598846 -1.141196 42.309280 0.021385 -0.870180 0.492270 0.486540 0.566940 1 45 1.000000
  45 -19.534412 -1.092898 42.339596 0.021385 -0.870180 0.492270 0.487730 0.555520 1 45 1.000000
band
  45 -19.343021 -1.102207 42.051277 0.400981 -0.914260 -0.057812 0.448670 0.555520 1 45 1.000000
  45 -19.534412 -1.092898 42.339596 0.021385 -0.870180 0.492270 0.487730 0.555520 1 45 1.000000
  45 -19.598846 -1.141196 42.309280 0.021385 -0.870180 0.492270 0.486540 0.566940 1 45 1.000000
band
  45 -18.789698 -1.059591 42.947792 -0.339305 -0.929854 0.142276 0.495170 0.430310 1 45 1.000000
  45 -19.534412 -1.092898 42.339596 0.021385 -0.870180 0.492270 0.487730 0.555520 1 45 1.000000
  45 -19.343021 -1.102207 42.051277 0.400981 -0.914260 -0.057812 0.448670 0.555520 1 45 1.000000
band
  45 -18.500853 -0.960379 42.498726 0.193087 -0.835869 -0.513848 0.435110 0.430310 1 45 1.000000
  45 -18.789698 -1.059591 42.947792 -0.339305 -0.929854 0.142276 0.495170 0.430310 1 45 1.000000
  45 -19.343021 -1.102207 42.051277 0.400981 -0.914260 -0.057812 0.448670 0.555520 1 45 1.000000
band
  45 -19.534412 -1.092898 42.339596 0.021385 -0.870180 0.492270 0.487730 0.555520 1 45 1.000000
  45 -19.652889 -0.881423 42.502335 -0.259213 -0.687368 0.678479 0.522280 0.555520 1 45 1.000000
  45 -19.722679 -0.917095 42.482098 -0.190348 -0.655645 0.730683 0.519250 0.566940 1 45 1.000000
band
  45 -19.534412 -1.092898 42.339596 0.021385 -0.870180 0.492270 0.487730 0.555520 1 45 1.000000
  45 -18.789698 -1.059591 42.947792 -0.339305 -0.929854 0.142276 0.495170 0.430310 1 45 1.000000
  45 -19.652889 -0.881423 42.502335 -0.259213 -0.687368 0.678479 0.522280 0.555520 1 45 1.000000
band
  45 -18.789698 -1.059591 42.947792 -0.339305 -0.929854 0.142276 0.495170 0.430310 1 45 1.000000
  45 -19.087978 -0.611830 43.374260 -0.711589 -0.442287 0.545915 0.570870 0.430310 1 45 1.000000
  45 -19.652889 -0.881423 42.502335 -0.259213 -0.687368 0.678479 0.522280 0.555520 1 45 1.000000
band
  45 -19.397076 -1.152772 42.002636 0.400981 -0.914260 -0.057812 0.449230 0.566940 1 45 1.000000
  45 -19.464121 -1.151892 41.955688 -0.258618 -0.851917 -0.455362 0.449360 0.577600 1 45 1.000000
  45 -19.332825 -0.979597 41.733772 -0.059545 -0.703446 -0.708250 0.419130 0.577600 1 45 1.000000
band
  45 -19.332825 -0.979597 41.733772 -0.059545 -0.703446 -0.708250 0.419130 0.577600 1 45 1.000000
  45 -19.265787 -0.980478 41.780720 0.588638 -0.709126 -0.388130 0.418310 0.566940 1 45 1.000000
  45 -19.397076 -1.152772 42.002636 0.400981 -0.914260 -0.057812 0.449230 0.566940 1 45 1.000000
band
  45 -19.265787 -0.980478 41.780720 0.588638 -0.709126 -0.388130 0.418310 0.566940 1 45 1.000000
  45 -19.332825 -0.979597 41.733772 -0.059545 -0.703446 -0.708250 0.419130 0.577600 1 45 1.000000
  45 -19.265984 -0.780400 41.565617 0.033411 -0.567311 -0.822826 0.390990 0.577600 1 45 1.000000
band
  45 -19.265984 -0.780400 41.565617 0.033411 -0.567311 -0.822826 0.390990 0.577600 1 45 1.000000
  45 -19.198940 -0.781281 41.612556 0.655812 -0.546242 -0.521085 0.390250 0.566940 1 45 1.000000
  45 -19.265787 -0.980478 41.780720 0.588638 -0.709126 -0.388130 0.418310 0.566940 1 45 1.000000
band
  45 -19.198940 -0.781281 41.612556 0.655812 -0.546242 -0.521085 0.390250 0.566940 1 45 1.000000
  45 -19.265984 -0.780400 41.565617 0.033411 -0.567311 -0.822826 0.390990 0.577600 1 45 1.000000
  45 -19.194532 -0.506193 41.421432 0.123867 -0.313108 -0.941605 0.356300 0.577600 1 45 1.000000
band
  45 -19.194532 -0.506193 41.421432 0.123867 -0.313108 -0.941605 0.356300 0.577600 1 45 1.000000
  45 -19.127495 -0.507074 41.468369 0.721563 -0.293012 -0.627288 0.355910 0.566940 1 45 1.000000
  45 -19.198940 -0.781281 41.612556 0.655812 -0.546242 -0.521085 0.390250 0.566940 1 45 1.000000
band
  45 -19.122768 -0.242703 41.433277 0.738765 -0.081456 -0.669023 0.327100 0.566940 1 45 1.000000
  45 -19.127495 -0.507074 41.468369 0.721563 -0.293012 -0.627288 0.355910 0.566940 1 45 1.000000
  45 -19.194532 -0.506193 41.421432 0.123867 -0.313108 -0.941605 0.356300 0.577600 1 45 1.000000
band
  45 -19.084955 -0.492516 41.542381 0.721563 -0.293012 -0.627288 0.355280 0.555520 1 45 1.000000
  45 -19.127495 -0.507074 41.468369 0.721563 -0.293012 -0.627288 0.355910 0.566940 1 45 1.000000
  45 -19.122768 -0.242703 41.433277 0.738765 -0.081456 -0.669023 0.327100 0.566940 1 45 1.000000
band
  45 -19.198940 -0.781281 41.612556 0.655812 -0.546242 -0.521085 0.390250 0.566940 1 45 1.000000
  45 -19.127495 -0.507074 41.468369 0.721563 -0.293012 -0.627288 0.355910 0.566940 1 45 1.000000
  45 -19.084955 -0.492516 41.542381 0.721563 -0.293012 -0.627288 0.355280 0.555520 1 45 1.000000
band
  45 -19.084955 -0.492516 41.542381 0.721563 -0.293012 -0.627288 0.355280 0.555520 1 45 1.000000
  45 -19.154339 -0.755354 41.681118 0.655812 -0.546242 -0.521085 0.388920 0.555520 1 45 1.000000
  45 -19.198940 -0.781281 41.612556 0.655812 -0.546242 -0.521085 0.390250 0.566940 1 45 1.000000
band
  45 -19.265787 -0.980478 41.780720 0.588638 -0.709126 -0.388130 0.418310 0.566940 1 45 1.000000
  45 -19.198940 -0.781281 41.612556 0.655812 -0.546242 -0.521085 0.390250 0.566940 1 45 1.000000
  45 -19.154339 -0.755354 41.681118 0.655812 -0.546242 -0.521085 0.388920 0.555520 1 45 1.000000
band
  45 -19.154339 -0.755354 41.681118 0.655812 -0.546242 -0.521085 0.388920 0.555520 1 45 1.000000
  45 -19.218714 -0.942201 41.842339 0.615727 -0.700922 -0.359984 0.416770 0.555520 1 45 1.000000
  45 -19.265787 -0.980478 41.780720 0.588638 -0.709126 -0.388130 0.418310 0.566940 1 45 1.000000
band
  45 -19.397076 -1.152772 42.002636 0.400981 -0.914260 -0.057812 0.449230 0.566940 1 45 1.000000
  45 -19.265787 -0.980478 41.780720 0.588638 -0.709126 -0.388130 0.418310 0.566940 1 45 1.000000
  45 -19.218714 -0.942201 41.842339 0.615727 -0.700922 -0.359984 0.416770 0.555520 1 45 1.000000
band
  45 -19.719913 -1.031157 42.189850 -0.767228 -0.608549 -0.202556 0.485870 0.593860 1 45 1.000000
  45 -19.541336 -1.036645 41.925690 -0.522142 -0.630936 -0.573835 0.448870 0.593860 1 45 1.000000
  45 -19.464121 -1.151892 41.955688 -0.258618 -0.851917 -0.455362 0.449360 0.577600 1 45 1.000000
band
  45 -19.332825 -0.979597 41.733772 -0.059545 -0.703446 -0.708250 0.419130 0.577600 1 45 1.000000
  45 -19.464121 -1.151892 41.955688 -0.258618 -0.851917 -0.455362 0.449360 0.577600 1 45 1.000000
  45 -19.541336 -1.036645 41.925690 -0.522142 -0.630936 -0.573835 0.448870 0.593860 1 45 1.000000
band
  45 -19.541336 -1.036645 41.925690 -0.522142 -0.630936 -0.573835 0.448870 0.593860 1 45 1.000000
  45 -19.425343 -0.890360 41.733826 -0.408093 -0.536594 -0.738598 0.418870 0.593860 1 45 1.000000
  45 -19.332825 -0.979597 41.733772 -0.059545 -0.703446 -0.708250 0.419130 0.577600 1 45 1.000000
band
  45 -19.265984 -0.780400 41.565617 0.033411 -0.567311 -0.822826 0.390990 0.577600 1 45 1.000000
  45 -19.332825 -0.979597 41.733772 -0.059545 -0.703446 -0.708250 0.419130 0.577600 1 45 1.000000
  45 -19.425343 -0.890360 41.733826 -0.408093 -0.536594 -0.738598 0.418870 0.593860 1 45 1.000000
band
  45 -19.425343 -0.890360 41.733826 -0.408093 -0.536594 -0.738598 0.418870 0.593860 1 45 1.000000
  45 -19.364395 -0.716297 41.579414 -0.361875 -0.447928 -0.817562 0.390560 0.593860 1 45 1.000000
  45 -19.265984 -0.780400 41.565617 0.033411 -0.567311 -0.822826 0.390990 0.577600 1 45 1.000000
band
  45 -19.194532 -0.506193 41.421432 0.123867 -0.313108 -0.941605 0.356300 0.577600 1 45 1.000000
  45 -19.265984 -0.780400 41.565617 0.033411 -0.567311 -0.822826 0.390990 0.577600 1 45 1.000000
  45 -19.364395 -0.716297 41.579414 -0.361875 -0.447928 -0.817562 0.390560 0.593860 1 45 1.000000
band
  45 -19.364395 -0.716297 41.579414 -0.361875 -0.447928 -0.817562 0.390560 0.593860 1 45 1.000000
  45 -19.297844 -0.471119 41.446892 -0.295825 -0.253536 -0.920982 0.356460 0.593860 1 45 1.000000
  45 -19.194532 -0.506193 41.421432 0.123867 -0.313108 -0.941605 0.356300 0.577600 1 45 1.000000
band
  45 -19.189808 -0.241822 41.386333 0.166303 -0.103643 -0.980613 0.327490 0.577600 1 45 1.000000
  45 -19.194532 -0.506193 41.421432 0.123867 -0.313108 -0.941605 0.356300 0.577600 1 45 1.000000
  45 -19.297844 -0.471119 41.446892 -0.295825 -0.253536 -0.920982 0.356460 0.593860 1 45 1.000000
band
  45 -19.297844 -0.471119 41.446892 -0.295825 -0.253536 -0.920982 0.356460 0.593860 1 45 1.000000
  45 -19.294294 -0.235621 41.414909 -0.261916 -0.097866 -0.960116 0.328770 0.593860 1 45 1.000000
  45 -19.189808 -0.241822 41.386333 0.166303 -0.103643 -0.980613 0.327490 0.577600 1 45 1.000000
band
  45 -19.962170 0.416876 42.405746 -0.900963 0.431860 0.041989 0.722870 0.593860 1 45 1.000000
  45 -19.820038 0.624270 42.203289 -0.772808 0.611334 -0.170407 0.765520 0.593860 1 45 1.000000
  45 -19.714743 0.371716 42.173134 -0.726859 -0.224231 -0.649150 0.763130 0.653020 1 45 1.000000
band
  45 -19.714743 0.371716 42.173134 -0.726859 -0.224231 -0.649150 0.763130 0.653020 1 45 1.000000
  45 -19.820271 0.231478 42.309601 -0.669840 -0.206698 -0.713155 0.717040 0.653020 1 45 1.000000
  45 -19.962170 0.416876 42.405746 -0.900963 0.431860 0.041989 0.722870 0.593860 1 45 1.000000
band
  45 -20.052805 0.116546 42.553200 -0.978745 0.118111 0.167656 0.674140 0.593860 1 45 1.000000
  45 -19.962170 0.416876 42.405746 -0.900963 0.431860 0.041989 0.722870 0.593860 1 45 1.000000
  45 -19.820271 0.231478 42.309601 -0.669840 -0.206698 -0.713155 0.717040 0.653020 1 45 1.000000
band
  45 -19.820271 0.231478 42.309601 -0.669840 -0.206698 -0.713155 0.717040 0.653020 1 45 1.000000
  45 -19.862877 0.026118 42.432045 -0.624612 -0.109715 -0.773190 0.667610 0.653020 1 45 1.000000
  45 -20.052805 0.116546 42.553200 -0.978745 0.118111 0.167656 0.674140 0.593860 1 45 1.000000
band
  45 -20.017397 -0.258441 42.541279 -0.972873 -0.118630 0.198607 0.616450 0.593860 1 45 1.000000
  45 -20.052805 0.116546 42.553200 -0.978745 0.118111 0.167656 0.674140 0.593860 1 45 1.000000
  45 -19.862877 0.026118 42.432045 -0.624612 -0.109715 -0.773190 0.667610 0.653020 1 45 1.000000
band
  45 -19.862877 0.026118 42.432045 -0.624612 -0.109715 -0.773190 0.667610 0.653020 1 45 1.000000
  45 -19.870878 -0.228983 42.423126 -0.601015 -0.004974 -0.799222 0.615580 0.653020 1 45 1.000000
  45 -20.017397 -0.258441 42.541279 -0.972873 -0.118630 0.198607 0.616450 0.593860 1 45 1.000000
band
  45 -20.017397 -0.258441 42.541279 -0.972873 -0.118630 0.198607 0.616450 0.593860 1 45 1.000000
  45 -19.870878 -0.228983 42.423126 -0.601015 -0.004974 -0.799222 0.615580 0.653020 1 45 1.000000
  45 -19.816339 -0.478578 42.391823 -0.631957 0.054025 -0.773118 0.563080 0.653020 1 45 1.000000
band
  45 -19.816339 -0.478578 42.391823 -0.631957 0.054025 -0.773118 0.563080 0.653020 1 45 1.000000
  45 -19.968315 -0.609169 42.506226 -0.930535 -0.351802 0.101680 0.562010 0.593860 1 45 1.000000
  45 -20.017397 -0.258441 42.541279 -0.972873 -0.118630 0.198607 0.616450 0.593860 1 45 1.000000
band
  45 -19.968315 -0.609169 42.506226 -0.930535 -0.351802 0.101680 0.562010 0.593860 1 45 1.000000
  45 -19.816339 -0.478578 42.391823 -0.631957 0.054025 -0.773118 0.563080 0.653020 1 45 1.000000
  45 -19.706461 -0.636429 42.275055 -0.663932 0.155074 -0.731537 0.517180 0.653020 1 45 1.000000
band
  45 -19.706461 -0.636429 42.275055 -0.663932 0.155074 -0.731537 0.517180 0.653020 1 45 1.000000
  45 -19.831852 -0.834145 42.341854 -0.860208 -0.509860 0.009196 0.516260 0.593860 1 45 1.000000
  45 -19.968315 -0.609169 42.506226 -0.930535 -0.351802 0.101680 0.562010 0.593860 1 45 1.000000
band
  45 -19.831852 -0.834145 42.341854 -0.860208 -0.509860 0.009196 0.516260 0.593860 1 45 1.000000
  45 -19.706461 -0.636429 42.275055 -0.663932 0.155074 -0.731537 0.517180 0.653020 1 45 1.000000
  45 -19.623299 -0.715438 42.173420 -0.734471 0.211877 -0.644717 0.483330 0.653020 1 45 1.000000
band
  45 -19.623299 -0.715438 42.173420 -0.734471 0.211877 -0.644717 0.483330 0.653020 1 45 1.000000
  45 -19.719913 -1.031157 42.189850 -0.767228 -0.608549 -0.202556 0.485870 0.593860 1 45 1.000000
  45 -19.831852 -0.834145 42.341854 -0.860208 -0.509860 0.009196 0.516260 0.593860 1 45 1.000000
band
  45 -19.719913 -1.031157 42.189850 -0.767228 -0.608549 -0.202556 0.485870 0.593860 1 45 1.000000
  45 -19.623299 -0.715438 42.173420 -0.734471 0.211877 -0.644717 0.483330 0.653020 1 45 1.000000
  45 -19.500984 -0.724635 42.012314 -0.833219 0.258900 -0.488587 0.449950 0.653020 1 45 1.000000
band
  45 -19.500984 -0.724635 42.012314 -0.833219 0.258900 -0.488587 0.449950 0.653020 1 45 1.000000
  45 -19.541336 -1.036645 41.925690 -0.522142 -0.630936 -0.573835 0.448870 0.593860 1 45 1.000000
  45 -19.719913 -1.031157 42.189850 -0.767228 -0.608549 -0.202556 0.485870 0.593860 1 45 1.000000
band
  45 -19.541336 -1.036645 41.925690 -0.522142 -0.630936 -0.573835 0.448870 0.593860 1 45 1.000000
  45 -19.500984 -0.724635 42.012314 -0.833219 0.258900 -0.488587 0.449950 0.653020 1 45 1.000000
  45 -19.422087 -0.675264 41.893295 -0.926185 0.225034 -0.302555 0.422970 0.653020 1 45 1.000000
band
  45 -19.422087 -0.675264 41.893295 -0.926185 0.225034 -0.302555 0.422970 0.653020 1 45 1.000000
  45 -19.425343 -0.890360 41.733826 -0.408093 -0.536594 -0.738598 0.418870 0.593860 1 45 1.000000
  45 -19.541336 -1.036645 41.925690 -0.522142 -0.630936 -0.573835 0.448870 0.593860 1 45 1.000000
band
  45 -19.425343 -0.890360 41.733826 -0.408093 -0.536594 -0.738598 0.418870 0.593860 1 45 1.000000
  45 -19.422087 -0.675264 41.893295 -0.926185 0.225034 -0.302555 0.422970 0.653020 1 45 1.000000
  45 -19.375404 -0.562136 41.772224 -0.965765 0.174942 -0.191556 0.392460 0.653020 1 45 1.000000
band
  45 -19.375404 -0.562136 41.772224 -0.965765 0.174942 -0.191556 0.392460 0.653020 1 45 1.000000
  45 -19.364395 -0.716297 41.579414 -0.361875 -0.447928 -0.817562 0.390560 0.593860 1 45 1.000000
  45 -19.425343 -0.890360 41.733826 -0.408093 -0.536594 -0.738598 0.418870 0.593860 1 45 1.000000
band
  45 -20.027132 0.153789 42.675926 -0.836359 0.180950 0.517456 0.674950 0.577600 1 45 1.000000
  45 -20.052805 0.116546 42.553200 -0.978745 0.118111 0.167656 0.674140 0.593860 1 45 1.000000
  45 -20.017397 -0.258441 42.541279 -0.972873 -0.118630 0.198607 0.616450 0.593860 1 45 1.000000
band
  45 -20.052805 0.116546 42.553200 -0.978745 0.118111 0.167656 0.674140 0.593860 1 45 1.000000
  45 -20.027132 0.153789 42.675926 -0.836359 0.180950 0.517456 0.674950 0.577600 1 45 1.000000
  45 -19.926836 0.492828 42.511116 -0.738182 0.578012 0.347835 0.723210 0.577600 1 45 1.000000
band
  45 -19.926836 0.492828 42.511116 -0.738182 0.578012 0.347835 0.723210 0.577600 1 45 1.000000
  45 -19.962170 0.416876 42.405746 -0.900963 0.431860 0.041989 0.722870 0.593860 1 45 1.000000
  45 -20.052805 0.116546 42.553200 -0.978745 0.118111 0.167656 0.674140 0.593860 1 45 1.000000
band
  45 -19.962170 0.416876 42.405746 -0.900963 0.431860 0.041989 0.722870 0.593860 1 45 1.000000
  45 -19.926836 0.492828 42.511116 -0.738182 0.578012 0.347835 0.723210 0.577600 1 45 1.000000
  45 -19.769606 0.727922 42.281437 -0.588143 0.804501 0.082859 0.765880 0.577600 1 45 1.000000
band
  45 -19.769606 0.727922 42.281437 -0.588143 0.804501 0.082859 0.765880 0.577600 1 45 1.000000
  45 -19.820038 0.624270 42.203289 -0.772808 0.611334 -0.170407 0.765520 0.593860 1 45 1.000000
  45 -19.962170 0.416876 42.405746 -0.900963 0.431860 0.041989 0.722870 0.593860 1 45 1.000000
band
  45 -19.820038 0.624270 42.203289 -0.772808 0.611334 -0.170407 0.765520 0.593860 1 45 1.000000
  45 -19.769606 0.727922 42.281437 -0.588143 0.804501 0.082859 0.765880 0.577600 1 45 1.000000
  45 -19.565138 0.808248 41.967514 -0.355835 0.887564 -0.292593 0.808910 0.577600 1 45 1.000000
band
  45 -19.464121 -1.151892 41.955688 -0.258618 -0.851917 -0.455362 0.449360 0.577600 1 45 1.000000
  45 -19.397076 -1.152772 42.002636 0.400981 -0.914260 -0.057812 0.449230 0.566940 1 45 1.000000
  45 -19.598846 -1.141196 42.309280 0.021385 -0.870180 0.492270 0.486540 0.566940 1 45 1.000000
band
  45 -19.598846 -1.141196 42.309280 0.021385 -0.870180 0.492270 0.486540 0.566940 1 45 1.000000
  45 -19.665884 -1.140315 42.262337 -0.589153 -0.806904 0.042479 0.486010 0.577600 1 45 1.000000
  45 -19.464121 -1.151892 41.955688 -0.258618 -0.851917 -0.455362 0.449360 0.577600 1 45 1.000000
band
  45 -19.464121 -1.151892 41.955688 -0.258618 -0.851917 -0.455362 0.449360 0.577600 1 45 1.000000
  45 -19.665884 -1.140315 42.262337 -0.589153 -0.806904 0.042479 0.486010 0.577600 1 45 1.000000
  45 -19.719913 -1.031157 42.189850 -0.767228 -0.608549 -0.202556 0.485870 0.593860 1 45 1.000000
band
  45 -19.831852 -0.834145 42.341854 -0.860208 -0.509860 0.009196 0.516260 0.593860 1 45 1.000000
  45 -19.719913 -1.031157 42.189850 -0.767228 -0.608549 -0.202556 0.485870 0.593860 1 45 1.000000
  45 -19.665884 -1.140315 42.262337 -0.589153 -0.806904 0.042479 0.486010 0.577600 1 45 1.000000
band
  45 -19.665884 -1.140315 42.262337 -0.589153 -0.806904 0.042479 0.486010 0.577600 1 45 1.000000
  45 -19.789719 -0.916214 42.435158 -0.706481 -0.636968 0.308472 0.517330 0.577600 1 45 1.000000
  45 -19.831852 -0.834145 42.341854 -0.860208 -0.509860 0.009196 0.516260 0.593860 1 45 1.000000
band
  45 -19.968315 -0.609169 42.506226 -0.930535 -0.351802 0.101680 0.562010 0.593860 1 45 1.000000
  45 -19.831852 -0.834145 42.341854 -0.860208 -0.509860 0.009196 0.516260 0.593860 1 45 1.000000
  45 -19.789719 -0.916214 42.435158 -0.706481 -0.636968 0.308472 0.517330 0.577600 1 45 1.000000
band
  45 -19.789719 -0.916214 42.435158 -0.706481 -0.636968 0.308472 0.517330 0.577600 1 45 1.000000
  45 -19.937138 -0.663551 42.619137 -0.792362 -0.419385 0.443033 0.561390 0.577600 1 45 1.000000
  45 -19.968315 -0.609169 42.506226 -0.930535 -0.351802 0.101680 0.562010 0.593860 1 45 1.000000
band
  45 -20.017397 -0.258441 42.541279 -0.972873 -0.118630 0.198607 0.616450 0.593860 1 45 1.000000
  45 -19.968315 -0.609169 42.506226 -0.930535 -0.351802 0.101680 0.562010 0.593860 1 45 1.000000
  45 -19.937138 -0.663551 42.619137 -0.792362 -0.419385 0.443033 0.561390 0.577600 1 45 1.000000
band
  45 -19.937138 -0.663551 42.619137 -0.792362 -0.419385 0.443033 0.561390 0.577600 1 45 1.000000
  45 -19.990307 -0.269896 42.660530 -0.825794 -0.131444 0.548440 0.616390 0.577600 1 45 1.000000
  45 -20.017397 -0.258441 42.541279 -0.972873 -0.118630 0.198607 0.616450 0.593860 1 45 1.000000
band
  45 -20.017397 -0.258441 42.541279 -0.972873 -0.118630 0.198607 0.616450 0.593860 1 45 1.000000
  45 -19.990307 -0.269896 42.660530 -0.825794 -0.131444 0.548440 0.616390 0.577600 1 45 1.000000
  45 -20.027132 0.153789 42.675926 -0.836359 0.180950 0.517456 0.674950 0.577600 1 45 1.000000
band
  45 -19.960094 0.152908 42.722878 -0.297466 0.218241 0.929454 0.673690 0.566940 1 45 1.000000
  45 -20.027132 0.153789 42.675926 -0.836359 0.180950 0.517456 0.674950 0.577600 1 45 1.000000
  45 -19.990307 -0.269896 42.660530 -0.825794 -0.131444 0.548440 0.616390 0.577600 1 45 1.000000
band
  45 -19.926836 0.492828 42.511116 -0.738182 0.578012 0.347835 0.723210 0.577600 1 45 1.000000
  45 -20.027132 0.153789 42.675926 -0.836359 0.180950 0.517456 0.674950 0.577600 1 45 1.000000
  45 -19.960094 0.152908 42.722878 -0.297466 0.218241 0.929454 0.673690 0.566940 1 45 1.000000
band
  45 -19.960094 0.152908 42.722878 -0.297466 0.218241 0.929454 0.673690 0.566940 1 45 1.000000
  45 -19.859795 0.491947 42.558067 -0.181694 0.613834 0.768241 0.721980 0.566940 1 45 1.000000
  45 -19.926836 0.492828 42.511116 -0.738182 0.578012 0.347835 0.723210 0.577600 1 45 1.000000
band
  45 -19.769606 0.727922 42.281437 -0.588143 0.804501 0.082859 0.765880 0.577600 1 45 1.000000
  45 -19.926836 0.492828 42.511116 -0.738182 0.578012 0.347835 0.723210 0.577600 1 45 1.000000
  45 -19.859795 0.491947 42.558067 -0.181694 0.613834 0.768241 0.721980 0.566940 1 45 1.000000
band
  45 -19.859795 0.491947 42.558067 -0.181694 0.613834 0.768241 0.721980 0.566940 1 45 1.000000
  45 -19.702566 0.727041 42.328381 0.001378 0.861116 0.508407 0.765240 0.566940 1 45 1.000000
  45 -19.769606 0.727922 42.281437 -0.588143 0.804501 0.082859 0.765880 0.577600 1 45 1.000000
band
  45 -19.565138 0.808248 41.967514 -0.355835 0.887564 -0.292593 0.808910 0.577600 1 45 1.000000
  45 -19.769606 0.727922 42.281437 -0.588143 0.804501 0.082859 0.765880 0.577600 1 45 1.000000
  45 -19.702566 0.727041 42.328381 0.001378 0.861116 0.508407 0.765240 0.566940 1 45 1.000000
band
  45 -19.702566 0.727041 42.328381 0.001378 0.861116 0.508407 0.765240 0.566940 1 45 1.000000
  45 -19.498100 0.807367 42.014454 0.293189 0.948014 0.123727 0.808990 0.566940 1 45 1.000000
  45 -19.565138 0.808248 41.967514 -0.355835 0.887564 -0.292593 0.808910 0.577600 1 45 1.000000
band
  45 -19.440884 0.754637 42.056915 0.189017 0.981013 0.043439 0.809110 0.555520 1 45 1.000000
  45 -19.498100 0.807367 42.014454 0.293189 0.948014 0.123727 0.808990 0.566940 1 45 1.000000
  45 -19.702566 0.727041 42.328381 0.001378 0.861116 0.508407 0.765240 0.566940 1 45 1.000000
band
  45 -19.870098 -0.664432 42.666077 -0.281350 -0.412198 0.866565 0.562400 0.566940 1 45 1.000000
  45 -19.937138 -0.663551 42.619137 -0.792362 -0.419385 0.443033 0.561390 0.577600 1 45 1.000000
  45 -19.789719 -0.916214 42.435158 -0.706481 -0.636968 0.308472 0.517330 0.577600 1 45 1.000000
band
  45 -19.937138 -0.663551 42.619137 -0.792362 -0.419385 0.443033 0.561390 0.577600 1 45 1.000000
  45 -19.870098 -0.664432 42.666077 -0.281350 -0.412198 0.866565 0.562400 0.566940 1 45 1.000000
  45 -19.923267 -0.270777 42.707474 -0.336352 -0.101148 0.936288 0.616280 0.566940 1 45 1.000000
band
  45 -19.923267 -0.270777 42.707474 -0.336352 -0.101148 0.936288 0.616280 0.566940 1 45 1.000000
  45 -19.990307 -0.269896 42.660530 -0.825794 -0.131444 0.548440 0.616390 0.577600 1 45 1.000000
  45 -19.937138 -0.663551 42.619137 -0.792362 -0.419385 0.443033 0.561390 0.577600 1 45 1.000000
band
  45 -19.990307 -0.269896 42.660530 -0.825794 -0.131444 0.548440 0.616390 0.577600 1 45 1.000000
  45 -19.923267 -0.270777 42.707474 -0.336352 -0.101148 0.936288 0.616280 0.566940 1 45 1.000000
  45 -19.960094 0.152908 42.722878 -0.297466 0.218241 0.929454 0.673690 0.566940 1 45 1.000000
band
  45 -19.960094 0.152908 42.722878 -0.297466 0.218241 0.929454 0.673690 0.566940 1 45 1.000000
  45 -19.923267 -0.270777 42.707474 -0.336352 -0.101148 0.936288 0.616280 0.566940 1 45 1.000000
  45 -19.847282 -0.266302 42.715370 -0.469814 -0.106627 0.876302 0.616390 0.555520 1 45 1.000000
band
  45 -19.794456 -0.641870 42.676956 -0.340493 -0.423281 0.839582 0.564360 0.555520 1 45 1.000000
  45 -19.847282 -0.266302 42.715370 -0.469814 -0.106627 0.876302 0.616390 0.555520 1 45 1.000000
  45 -19.923267 -0.270777 42.707474 -0.336352 -0.101148 0.936288 0.616280 0.566940 1 45 1.000000
band
  45 -19.923267 -0.270777 42.707474 -0.336352 -0.101148 0.936288 0.616280 0.566940 1 45 1.000000
  45 -19.870098 -0.664432 42.666077 -0.281350 -0.412198 0.866565 0.562400 0.566940 1 45 1.000000
  45 -19.794456 -0.641870 42.676956 -0.340493 -0.423281 0.839582 0.564360 0.555520 1 45 1.000000
band
  45 -19.787537 0.453440 42.577454 -0.304119 0.672869 0.674358 0.719120 0.555520 1 45 1.000000
  45 -19.137012 0.100334 43.437027 -0.757167 0.219687 0.615171 0.665970 0.430310 1 45 1.000000
  45 -18.955490 0.564264 43.189613 -0.630176 0.703674 0.328208 0.728210 0.430310 1 45 1.000000
band
  45 -18.796165 0.708658 42.950630 -0.402143 0.898174 0.177663 0.763540 0.430310 1 45 1.000000
  45 -19.787537 0.453440 42.577454 -0.304119 0.672869 0.674358 0.719120 0.555520 1 45 1.000000
  45 -18.955490 0.564264 43.189613 -0.630176 0.703674 0.328208 0.728210 0.430310 1 45 1.000000
band
  45 -18.796165 0.708658 42.950630 -0.402143 0.898174 0.177663 0.763540 0.430310 1 45 1.000000
  45 -19.636497 0.679341 42.355415 0.001378 0.861116 0.508407 0.763890 0.555520 1 45 1.000000
  45 -19.787537 0.453440 42.577454 -0.304119 0.672869 0.674358 0.719120 0.555520 1 45 1.000000
band
  45 -19.636497 0.679341 42.355415 0.001378 0.861116 0.508407 0.763890 0.555520 1 45 1.000000
  45 -18.796165 0.708658 42.950630 -0.402143 0.898174 0.177663 0.763540 0.430310 1 45 1.000000
  45 -19.440884 0.754637 42.056915 0.189017 0.981013 0.043439 0.809110 0.555520 1 45 1.000000
band
  45 -19.702566 0.727041 42.328381 0.001378 0.861116 0.508407 0.765240 0.566940 1 45 1.000000
  45 -19.636497 0.679341 42.355415 0.001378 0.861116 0.508407 0.763890 0.555520 1 45 1.000000
  45 -19.440884 0.754637 42.056915 0.189017 0.981013 0.043439 0.809110 0.555520 1 45 1.000000
band
  45 -19.636497 0.679341 42.355415 0.001378 0.861116 0.508407 0.763890 0.555520 1 45 1.000000
  45 -19.702566 0.727041 42.328381 0.001378 0.861116 0.508407 0.765240 0.566940 1 45 1.000000
  45 -19.859795 0.491947 42.558067 -0.181694 0.613834 0.768241 0.721980 0.566940 1 45 1.000000
band
  45 -19.859795 0.491947 42.558067 -0.181694 0.613834 0.768241 0.721980 0.566940 1 45 1.000000
  45 -19.787537 0.453440 42.577454 -0.304119 0.672869 0.674358 0.719120 0.555520 1 45 1.000000
  45 -19.636497 0.679341 42.355415 0.001378 0.861116 0.508407 0.763890 0.555520 1 45 1.000000
band
  45 -19.787537 0.453440 42.577454 -0.304119 0.672869 0.674358 0.719120 0.555520 1 45 1.000000
  45 -19.859795 0.491947 42.558067 -0.181694 0.613834 0.768241 0.721980 0.566940 1 45 1.000000
  45 -19.960094 0.152908 42.722878 -0.297466 0.218241 0.929454 0.673690 0.566940 1 45 1.000000
band
  45 -19.960094 0.152908 42.722878 -0.297466 0.218241 0.929454 0.673690 0.566940 1 45 1.000000
  45 -19.883106 0.142017 42.723175 -0.363956 0.221759 0.904632 0.672350 0.555520 1 45 1.000000
  45 -19.787537 0.453440 42.577454 -0.304119 0.672869 0.674358 0.719120 0.555520 1 45 1.000000
band
  45 -19.847282 -0.266302 42.715370 -0.469814 -0.106627 0.876302 0.616390 0.555520 1 45 1.000000
  45 -19.883106 0.142017 42.723175 -0.363956 0.221759 0.904632 0.672350 0.555520 1 45 1.000000
  45 -19.960094 0.152908 42.722878 -0.297466 0.218241 0.929454 0.673690 0.566940 1 45 1.000000
band
  45 -19.137012 0.100334 43.437027 -0.757167 0.219687 0.615171 0.665970 0.430310 1 45 1.000000
  45 -19.883106 0.142017 42.723175 -0.363956 0.221759 0.904632 0.672350 0.555520 1 45 1.000000
  45 -19.847282 -0.266302 42.715370 -0.469814 -0.106627 0.876302 0.616390 0.555520 1 45 1.000000
band
  45 -19.087978 -0.611830 43.374260 -0.711589 -0.442287 0.545915 0.570870 0.430310 1 45 1.000000
  45 -19.137012 0.100334 43.437027 -0.757167 0.219687 0.615171 0.665970 0.430310 1 45 1.000000
  45 -19.847282 -0.266302 42.715370 -0.469814 -0.106627 0.876302 0.616390 0.555520 1 45 1.000000
band
  45 -19.794456 -0.641870 42.676956 -0.340493 -0.423281 0.839582 0.564360 0.555520 1 45 1.000000
  45 -19.087978 -0.611830 43.374260 -0.711589 -0.442287 0.545915 0.570870 0.430310 1 45 1.000000
  45 -19.847282 -0.266302 42.715370 -0.469814 -0.106627 0.876302 0.616390 0.555520 1 45 1.000000
band
  45 -19.087978 -0.611830 43.374260 -0.711589 -0.442287 0.545915 0.570870 0.430310 1 45 1.000000
  45 -19.794456 -0.641870 42.676956 -0.340493 -0.423281 0.839582 0.564360 0.555520 1 45 1.000000
  45 -19.652889 -0.881423 42.502335 -0.259213 -0.687368 0.678479 0.522280 0.555520 1 45 1.000000
band
  45 -19.652889 -0.881423 42.502335 -0.259213 -0.687368 0.678479 0.522280 0.555520 1 45 1.000000
  45 -19.794456 -0.641870 42.676956 -0.340493 -0.423281 0.839582 0.564360 0.555520 1 45 1.000000
  45 -19.870098 -0.664432 42.666077 -0.281350 -0.412198 0.866565 0.562400 0.566940 1 45 1.000000
band
  45 -19.870098 -0.664432 42.666077 -0.281350 -0.412198 0.866565 0.562400 0.566940 1 45 1.000000
  45 -19.722679 -0.917095 42.482098 -0.190348 -0.655645 0.730683 0.519250 0.566940 1 45 1.000000
  45 -19.652889 -0.881423 42.502335 -0.259213 -0.687368 0.678479 0.522280 0.555520 1 45 1.000000
band
  45 -19.789719 -0.916214 42.435158 -0.706481 -0.636968 0.308472 0.517330 0.577600 1 45 1.000000
  45 -19.722679 -0.917095 42.482098 -0.190348 -0.655645 0.730683 0.519250 0.566940 1 45 1.000000
  45 -19.870098 -0.664432 42.666077 -0.281350 -0.412198 0.866565 0.562400 0.566940 1 45 1.000000
band
  45 -19.722679 -0.917095 42.482098 -0.190348 -0.655645 0.730683 0.519250 0.566940 1 45 1.000000
  45 -19.789719 -0.916214 42.435158 -0.706481 -0.636968 0.308472 0.517330 0.577600 1 45 1.000000
  45 -19.665884 -1.140315 42.262337 -0.589153 -0.806904 0.042479 0.486010 0.577600 1 45 1.000000
band
  45 -19.883106 0.142017 42.723175 -0.363956 0.221759 0.904632 0.672350 0.555520 1 45 1.000000
  45 -19.137012 0.100334 43.437027 -0.757167 0.219687 0.615171 0.665970 0.430310 1 45 1.000000
  45 -19.787537 0.453440 42.577454 -0.304119 0.672869 0.674358 0.719120 0.555520 1 45 1.000000
band
  45 -18.796165 0.708658 42.950630 -0.402143 0.898174 0.177663 0.763540 0.430310 1 45 1.000000
  45 -18.955490 0.564264 43.189613 -0.630176 0.703674 0.328208 0.728210 0.430310 1 45 1.000000
  45 -18.905945 0.606386 43.263760 -0.598918 0.713975 0.362681 0.729100 0.418810 1 45 1.000000
band
  45 -19.096140 0.116113 43.526390 -0.757167 0.219687 0.615171 0.665080 0.418810 1 45 1.000000
  45 -18.905945 0.606386 43.263760 -0.598918 0.713975 0.362681 0.729100 0.418810 1 45 1.000000
  45 -18.955490 0.564264 43.189613 -0.630176 0.703674 0.328208 0.728210 0.430310 1 45 1.000000
band
  45 -18.829468 0.606329 43.317322 -0.131873 0.716193 0.685329 0.728720 0.405730 1 45 1.000000
  45 -18.905945 0.606386 43.263760 -0.598918 0.713975 0.362681 0.729100 0.418810 1 45 1.000000
  45 -19.096140 0.116113 43.526390 -0.757167 0.219687 0.615171 0.665080 0.418810 1 45 1.000000
band
  45 -19.440884 0.754637 42.056915 0.189017 0.981013 0.043439 0.809110 0.555520 1 45 1.000000
  45 -18.796165 0.708658 42.950630 -0.402143 0.898174 0.177663 0.763540 0.430310 1 45 1.000000
  45 -18.583645 0.806520 42.598618 -0.245798 0.937096 -0.247857 0.811020 0.430310 1 45 1.000000
band
  45 -18.583645 0.806520 42.598618 -0.245798 0.937096 -0.247857 0.811020 0.430310 1 45 1.000000
  45 -18.796165 0.708658 42.950630 -0.402143 0.898174 0.177663 0.763540 0.430310 1 45 1.000000
  45 -18.738819 0.760824 43.010590 -0.433923 0.893573 0.115055 0.763720 0.418810 1 45 1.000000
band
  45 -18.905945 0.606386 43.263760 -0.598918 0.713975 0.362681 0.729100 0.418810 1 45 1.000000
  45 -18.738819 0.760824 43.010590 -0.433923 0.893573 0.115055 0.763720 0.418810 1 45 1.000000
  45 -18.796165 0.708658 42.950630 -0.402143 0.898174 0.177663 0.763540 0.430310 1 45 1.000000
band
  45 -18.662333 0.760767 43.064148 0.048178 0.904188 0.424408 0.763710 0.405730 1 45 1.000000
  45 -18.738819 0.760824 43.010590 -0.433923 0.893573 0.115055 0.763720 0.418810 1 45 1.000000
  45 -18.905945 0.606386 43.263760 -0.598918 0.713975 0.362681 0.729100 0.418810 1 45 1.000000
band
  45 -18.905945 0.606386 43.263760 -0.598918 0.713975 0.362681 0.729100 0.418810 1 45 1.000000
  45 -18.829468 0.606329 43.317322 -0.131873 0.716193 0.685329 0.728720 0.405730 1 45 1.000000
  45 -18.662333 0.760767 43.064148 0.048178 0.904188 0.424408 0.763710 0.405730 1 45 1.000000
band
  45 -18.662333 0.760767 43.064148 0.048178 0.904188 0.424408 0.763710 0.405730 1 45 1.000000
  45 -18.829468 0.606329 43.317322 -0.131873 0.716193 0.685329 0.728720 0.405730 1 45 1.000000
  45 -18.734116 0.559717 43.339355 0.151699 0.597851 0.787122 0.727000 0.388850 1 45 1.000000
band
  45 -18.915771 0.098134 43.587673 0.035789 0.169100 0.984949 0.660850 0.388850 1 45 1.000000
  45 -18.734116 0.559717 43.339355 0.151699 0.597851 0.787122 0.727000 0.388850 1 45 1.000000
  45 -18.829468 0.606329 43.317322 -0.131873 0.716193 0.685329 0.728720 0.405730 1 45 1.000000
band
  45 -18.829468 0.606329 43.317322 -0.131873 0.716193 0.685329 0.728720 0.405730 1 45 1.000000
  45 -19.019659 0.116055 43.579956 -0.297466 0.218241 0.929454 0.663540 0.405730 1 45 1.000000
  45 -18.915771 0.098134 43.587673 0.035789 0.169100 0.984949 0.660850 0.388850 1 45 1.000000
band
  45 -19.096140 0.116113 43.526390 -0.757167 0.219687 0.615171 0.665080 0.418810 1 45 1.000000
  45 -19.019659 0.116055 43.579956 -0.297466 0.218241 0.929454 0.663540 0.405730 1 45 1.000000
  45 -18.829468 0.606329 43.317322 -0.131873 0.716193 0.685329 0.728720 0.405730 1 45 1.000000
band
  45 -18.968409 -0.643798 43.512856 -0.252211 -0.443644 0.859982 0.570410 0.405730 1 45 1.000000
  45 -19.019659 0.116055 43.579956 -0.297466 0.218241 0.929454 0.663540 0.405730 1 45 1.000000
  45 -19.096140 0.116113 43.526390 -0.757167 0.219687 0.615171 0.665080 0.418810 1 45 1.000000
band
  45 -19.096140 0.116113 43.526390 -0.757167 0.219687 0.615171 0.665080 0.418810 1 45 1.000000
  45 -19.044891 -0.643740 43.459305 -0.711589 -0.442287 0.545915 0.570180 0.418810 1 45 1.000000
  45 -18.968409 -0.643798 43.512856 -0.252211 -0.443644 0.859982 0.570410 0.405730 1 45 1.000000
band
  45 -18.655348 -1.118436 43.062119 0.113984 -0.919982 0.375021 0.496160 0.405730 1 45 1.000000
  45 -18.968409 -0.643798 43.512856 -0.252211 -0.443644 0.859982 0.570410 0.405730 1 45 1.000000
  45 -19.044891 -0.643740 43.459305 -0.711589 -0.442287 0.545915 0.570180 0.418810 1 45 1.000000
band
  45 -19.044891 -0.643740 43.459305 -0.711589 -0.442287 0.545915 0.570180 0.418810 1 45 1.000000
  45 -18.731833 -1.118380 43.008560 -0.404401 -0.914205 0.026250 0.495420 0.418810 1 45 1.000000
  45 -18.655348 -1.118436 43.062119 0.113984 -0.919982 0.375021 0.496160 0.405730 1 45 1.000000
band
  45 -18.349140 -1.011818 42.584843 0.496573 -0.837869 -0.226694 0.439890 0.405730 1 45 1.000000
  45 -18.655348 -1.118436 43.062119 0.113984 -0.919982 0.375021 0.496160 0.405730 1 45 1.000000
  45 -18.731833 -1.118380 43.008560 -0.404401 -0.914205 0.026250 0.495420 0.418810 1 45 1.000000
band
  45 -18.731833 -1.118380 43.008560 -0.404401 -0.914205 0.026250 0.495420 0.418810 1 45 1.000000
  45 -18.425621 -1.011761 42.531288 0.009383 -0.848351 -0.529351 0.437980 0.418810 1 45 1.000000
  45 -18.349140 -1.011818 42.584843 0.496573 -0.837869 -0.226694 0.439890 0.405730 1 45 1.000000
band
  45 -18.155285 -0.595683 42.227570 0.696425 -0.451527 -0.557777 0.377490 0.405730 1 45 1.000000
  45 -18.349140 -1.011818 42.584843 0.496573 -0.837869 -0.226694 0.439890 0.405730 1 45 1.000000
  45 -18.425621 -1.011761 42.531288 0.009383 -0.848351 -0.529351 0.437980 0.418810 1 45 1.000000
band
  45 -18.284199 -0.955848 42.653778 0.726321 -0.686977 0.022808 0.440930 0.388850 1 45 1.000000
  45 -18.349140 -1.011818 42.584843 0.496573 -0.837869 -0.226694 0.439890 0.405730 1 45 1.000000
  45 -18.155285 -0.595683 42.227570 0.696425 -0.451527 -0.557777 0.377490 0.405730 1 45 1.000000
band
  45 -18.155285 -0.595683 42.227570 0.696425 -0.451527 -0.557777 0.377490 0.405730 1 45 1.000000
  45 -18.101982 -0.565948 42.318756 0.885290 -0.376941 -0.272354 0.379140 0.388850 1 45 1.000000
  45 -18.284199 -0.955848 42.653778 0.726321 -0.686977 0.022808 0.440930 0.388850 1 45 1.000000
band
  45 -18.915771 0.098134 43.587673 0.035789 0.169100 0.984949 0.660850 0.388850 1 45 1.000000
  45 -19.019659 0.116055 43.579956 -0.297466 0.218241 0.929454 0.663540 0.405730 1 45 1.000000
  45 -18.968409 -0.643798 43.512856 -0.252211 -0.443644 0.859982 0.570410 0.405730 1 45 1.000000
band
  45 -18.968409 -0.643798 43.512856 -0.252211 -0.443644 0.859982 0.570410 0.405730 1 45 1.000000
  45 -18.867092 -0.610232 43.525112 0.111903 -0.369692 0.922391 0.571400 0.388850 1 45 1.000000
  45 -18.915771 0.098134 43.587673 0.035789 0.169100 0.984949 0.660850 0.388850 1 45 1.000000
band
  45 -18.867092 -0.610232 43.525112 0.111903 -0.369692 0.922391 0.571400 0.388850 1 45 1.000000
  45 -18.968409 -0.643798 43.512856 -0.252211 -0.443644 0.859982 0.570410 0.405730 1 45 1.000000
  45 -18.655348 -1.118436 43.062119 0.113984 -0.919982 0.375021 0.496160 0.405730 1 45 1.000000
band
  45 -18.655348 -1.118436 43.062119 0.113984 -0.919982 0.375021 0.496160 0.405730 1 45 1.000000
  45 -18.571142 -1.055460 43.100296 0.421283 -0.741104 0.522766 0.497560 0.388850 1 45 1.000000
  45 -18.867092 -0.610232 43.525112 0.111903 -0.369692 0.922391 0.571400 0.388850 1 45 1.000000
band
  45 -18.571142 -1.055460 43.100296 0.421283 -0.741104 0.522766 0.497560 0.388850 1 45 1.000000
  45 -18.655348 -1.118436 43.062119 0.113984 -0.919982 0.375021 0.496160 0.405730 1 45 1.000000
  45 -18.349140 -1.011818 42.584843 0.496573 -0.837869 -0.226694 0.439890 0.405730 1 45 1.000000
band
  45 -18.349140 -1.011818 42.584843 0.496573 -0.837869 -0.226694 0.439890 0.405730 1 45 1.000000
  45 -18.284199 -0.955848 42.653778 0.726321 -0.686977 0.022808 0.440930 0.388850 1 45 1.000000
  45 -18.571142 -1.055460 43.100296 0.421283 -0.741104 0.522766 0.497560 0.388850 1 45 1.000000
band
  45 -19.498100 0.807367 42.014454 0.293189 0.948014 0.123727 0.808990 0.566940 1 45 1.000000
  45 -19.440884 0.754637 42.056915 0.189017 0.981013 0.043439 0.809110 0.555520 1 45 1.000000
  45 -19.275589 0.653698 41.799786 0.508245 0.817260 -0.271610 0.848620 0.555520 1 45 1.000000
band
  45 -18.375504 0.634450 42.263145 0.162327 0.746044 -0.645808 0.860350 0.430310 1 45 1.000000
  45 -19.275589 0.653698 41.799786 0.508245 0.817260 -0.271610 0.848620 0.555520 1 45 1.000000
  45 -19.440884 0.754637 42.056915 0.189017 0.981013 0.043439 0.809110 0.555520 1 45 1.000000
band
  45 -18.375504 0.634450 42.263145 0.162327 0.746044 -0.645808 0.860350 0.430310 1 45 1.000000
  45 -19.440884 0.754637 42.056915 0.189017 0.981013 0.043439 0.809110 0.555520 1 45 1.000000
  45 -18.583645 0.806520 42.598618 -0.245798 0.937096 -0.247857 0.811020 0.430310 1 45 1.000000
band
  45 -18.375504 0.634450 42.263145 0.162327 0.746044 -0.645808 0.860350 0.430310 1 45 1.000000
  45 -18.583645 0.806520 42.598618 -0.245798 0.937096 -0.247857 0.811020 0.430310 1 45 1.000000
  45 -18.513828 0.865511 42.636688 -0.245798 0.937096 -0.247857 0.811030 0.418810 1 45 1.000000
band
  45 -18.738819 0.760824 43.010590 -0.433923 0.893573 0.115055 0.763720 0.418810 1 45 1.000000
  45 -18.513828 0.865511 42.636688 -0.245798 0.937096 -0.247857 0.811030 0.418810 1 45 1.000000
  45 -18.583645 0.806520 42.598618 -0.245798 0.937096 -0.247857 0.811020 0.430310 1 45 1.000000
band
  45 -18.437344 0.865454 42.690247 0.302011 0.949198 0.088389 0.810720 0.405730 1 45 1.000000
  45 -18.513828 0.865511 42.636688 -0.245798 0.937096 -0.247857 0.811030 0.418810 1 45 1.000000
  45 -18.738819 0.760824 43.010590 -0.433923 0.893573 0.115055 0.763720 0.418810 1 45 1.000000
band
  45 -18.738819 0.760824 43.010590 -0.433923 0.893573 0.115055 0.763720 0.418810 1 45 1.000000
  45 -18.662333 0.760767 43.064148 0.048178 0.904188 0.424408 0.763710 0.405730 1 45 1.000000
  45 -18.437344 0.865454 42.690247 0.302011 0.949198 0.088389 0.810720 0.405730 1 45 1.000000
band
  45 -18.437344 0.865454 42.690247 0.302011 0.949198 0.088389 0.810720 0.405730 1 45 1.000000
  45 -18.662333 0.760767 43.064148 0.048178 0.904188 0.424408 0.763710 0.405730 1 45 1.000000
  45 -18.577374 0.704372 43.102322 0.323882 0.789313 0.521618 0.763930 0.388850 1 45 1.000000
band
  45 -18.734116 0.559717 43.339355 0.151699 0.597851 0.787122 0.727000 0.388850 1 45 1.000000
  45 -18.577374 0.704372 43.102322 0.323882 0.789313 0.521618 0.763930 0.388850 1 45 1.000000
  45 -18.662333 0.760767 43.064148 0.048178 0.904188 0.424408 0.763710 0.405730 1 45 1.000000
band
  45 -18.557968 0.429018 42.994034 0.871333 -0.099870 0.480421 0.765580 0.349930 1 45 1.000000
  45 -18.577374 0.704372 43.102322 0.323882 0.789313 0.521618 0.763930 0.388850 1 45 1.000000
  45 -18.734116 0.559717 43.339355 0.151699 0.597851 0.787122 0.727000 0.388850 1 45 1.000000
band
  45 -18.734116 0.559717 43.339355 0.151699 0.597851 0.787122 0.727000 0.388850 1 45 1.000000
  45 -18.668289 0.307127 43.164154 0.871333 -0.099870 0.480421 0.713400 0.349930 1 45 1.000000
  45 -18.557968 0.429018 42.994034 0.871333 -0.099870 0.480421 0.765580 0.349930 1 45 1.000000
band
  45 -18.668289 0.307127 43.164154 0.871333 -0.099870 0.480421 0.713400 0.349930 1 45 1.000000
  45 -18.734116 0.559717 43.339355 0.151699 0.597851 0.787122 0.727000 0.388850 1 45 1.000000
  45 -18.915771 0.098134 43.587673 0.035789 0.169100 0.984949 0.660850 0.388850 1 45 1.000000
band
  45 -18.915771 0.098134 43.587673 0.035789 0.169100 0.984949 0.660850 0.388850 1 45 1.000000
  45 -18.760910 -0.005465 43.291862 0.896839 -0.041489 0.440407 0.650140 0.349930 1 45 1.000000
  45 -18.668289 0.307127 43.164154 0.871333 -0.099870 0.480421 0.713400 0.349930 1 45 1.000000
band
  45 -18.751421 -0.433209 43.232147 0.913164 0.086414 0.398326 0.578870 0.349930 1 45 1.000000
  45 -18.760910 -0.005465 43.291862 0.896839 -0.041489 0.440407 0.650140 0.349930 1 45 1.000000
  45 -18.915771 0.098134 43.587673 0.035789 0.169100 0.984949 0.660850 0.388850 1 45 1.000000
band
  45 -18.915771 0.098134 43.587673 0.035789 0.169100 0.984949 0.660850 0.388850 1 45 1.000000
  45 -18.867092 -0.610232 43.525112 0.111903 -0.369692 0.922391 0.571400 0.388850 1 45 1.000000
  45 -18.751421 -0.433209 43.232147 0.913164 0.086414 0.398326 0.578870 0.349930 1 45 1.000000
band
  45 -18.622719 -0.775537 43.029480 0.846649 0.212531 0.487868 0.508230 0.349930 1 45 1.000000
  45 -18.751421 -0.433209 43.232147 0.913164 0.086414 0.398326 0.578870 0.349930 1 45 1.000000
  45 -18.867092 -0.610232 43.525112 0.111903 -0.369692 0.922391 0.571400 0.388850 1 45 1.000000
band
  45 -18.867092 -0.610232 43.525112 0.111903 -0.369692 0.922391 0.571400 0.388850 1 45 1.000000
  45 -18.571142 -1.055460 43.100296 0.421283 -0.741104 0.522766 0.497560 0.388850 1 45 1.000000
  45 -18.622719 -0.775537 43.029480 0.846649 0.212531 0.487868 0.508230 0.349930 1 45 1.000000
band
  45 -18.400532 -0.702061 42.716843 0.770182 0.203189 0.604594 0.441430 0.349930 1 45 1.000000
  45 -18.622719 -0.775537 43.029480 0.846649 0.212531 0.487868 0.508230 0.349930 1 45 1.000000
  45 -18.571142 -1.055460 43.100296 0.421283 -0.741104 0.522766 0.497560 0.388850 1 45 1.000000
band
  45 -18.513828 0.865511 42.636688 -0.245798 0.937096 -0.247857 0.811030 0.418810 1 45 1.000000
  45 -18.294140 0.682633 42.281067 0.124435 0.673739 -0.728417 0.856360 0.418810 1 45 1.000000
  45 -18.375504 0.634450 42.263145 0.162327 0.746044 -0.645808 0.860350 0.430310 1 45 1.000000
band
  45 -18.217655 0.682576 42.334618 0.630953 0.662368 -0.403939 0.854330 0.405730 1 45 1.000000
  45 -18.294140 0.682633 42.281067 0.124435 0.673739 -0.728417 0.856360 0.418810 1 45 1.000000
  45 -18.513828 0.865511 42.636688 -0.245798 0.937096 -0.247857 0.811030 0.418810 1 45 1.000000
band
  45 -18.513828 0.865511 42.636688 -0.245798 0.937096 -0.247857 0.811030 0.418810 1 45 1.000000
  45 -18.437344 0.865454 42.690247 0.302011 0.949198 0.088389 0.810720 0.405730 1 45 1.000000
  45 -18.217655 0.682576 42.334618 0.630953 0.662368 -0.403939 0.854330 0.405730 1 45 1.000000
band
  45 -18.217655 0.682576 42.334618 0.630953 0.662368 -0.403939 0.854330 0.405730 1 45 1.000000
  45 -18.437344 0.865454 42.690247 0.302011 0.949198 0.088389 0.810720 0.405730 1 45 1.000000
  45 -18.366385 0.802362 42.752319 0.553105 0.801331 0.227912 0.810250 0.388850 1 45 1.000000
band
  45 -18.577374 0.704372 43.102322 0.323882 0.789313 0.521618 0.763930 0.388850 1 45 1.000000
  45 -18.366385 0.802362 42.752319 0.553105 0.801331 0.227912 0.810250 0.388850 1 45 1.000000
  45 -18.437344 0.865454 42.690247 0.302011 0.949198 0.088389 0.810720 0.405730 1 45 1.000000
band
  45 -18.432030 0.411278 42.796257 0.841787 -0.093636 0.531627 0.811860 0.349930 1 45 1.000000
  45 -18.366385 0.802362 42.752319 0.553105 0.801331 0.227912 0.810250 0.388850 1 45 1.000000
  45 -18.577374 0.704372 43.102322 0.323882 0.789313 0.521618 0.763930 0.388850 1 45 1.000000
band
  45 -18.577374 0.704372 43.102322 0.323882 0.789313 0.521618 0.763930 0.388850 1 45 1.000000
  45 -18.557968 0.429018 42.994034 0.871333 -0.099870 0.480421 0.765580 0.349930 1 45 1.000000
  45 -18.432030 0.411278 42.796257 0.841787 -0.093636 0.531627 0.811860 0.349930 1 45 1.000000
band
  45 -18.366385 0.802362 42.752319 0.553105 0.801331 0.227912 0.810250 0.388850 1 45 1.000000
  45 -18.432030 0.411278 42.796257 0.841787 -0.093636 0.531627 0.811860 0.349930 1 45 1.000000
  45 -18.301228 0.324428 42.582260 0.816251 -0.067373 0.573755 0.855830 0.349930 1 45 1.000000
band
  45 -18.301228 0.324428 42.582260 0.816251 -0.067373 0.573755 0.855830 0.349930 1 45 1.000000
  45 -18.159138 0.629316 42.417984 0.822777 0.547129 -0.153907 0.854080 0.388850 1 45 1.000000
  45 -18.366385 0.802362 42.752319 0.553105 0.801331 0.227912 0.810250 0.388850 1 45 1.000000
band
  45 -18.366385 0.802362 42.752319 0.553105 0.801331 0.227912 0.810250 0.388850 1 45 1.000000
  45 -18.159138 0.629316 42.417984 0.822777 0.547129 -0.153907 0.854080 0.388850 1 45 1.000000
  45 -18.217655 0.682576 42.334618 0.630953 0.662368 -0.403939 0.854330 0.405730 1 45 1.000000
band
  45 -18.082205 0.044018 42.097862 0.759797 0.081509 -0.645031 0.939730 0.405730 1 45 1.000000
  45 -18.217655 0.682576 42.334618 0.630953 0.662368 -0.403939 0.854330 0.405730 1 45 1.000000
  45 -18.159138 0.629316 42.417984 0.822777 0.547129 -0.153907 0.854080 0.388850 1 45 1.000000
band
  45 -18.294140 0.682633 42.281067 0.124435 0.673739 -0.728417 0.856360 0.418810 1 45 1.000000
  45 -18.217655 0.682576 42.334618 0.630953 0.662368 -0.403939 0.854330 0.405730 1 45 1.000000
  45 -18.082205 0.044018 42.097862 0.759797 0.081509 -0.645031 0.939730 0.405730 1 45 1.000000
band
  45 -18.082205 0.044018 42.097862 0.759797 0.081509 -0.645031 0.939730 0.405730 1 45 1.000000
  45 -18.158688 0.044076 42.044304 0.312260 0.084210 -0.946257 0.943040 0.418810 1 45 1.000000
  45 -18.294140 0.682633 42.281067 0.124435 0.673739 -0.728417 0.856360 0.418810 1 45 1.000000
band
  45 -18.294140 0.682633 42.281067 0.124435 0.673739 -0.728417 0.856360 0.418810 1 45 1.000000
  45 -18.158688 0.044076 42.044304 0.312260 0.084210 -0.946257 0.943040 0.418810 1 45 1.000000
  45 -18.249287 0.034683 42.040482 0.405991 0.110529 -0.907168 0.937230 0.430310 1 45 1.000000
band
  45 -18.249287 0.034683 42.040482 0.405991 0.110529 -0.907168 0.937230 0.430310 1 45 1.000000
  45 -18.375504 0.634450 42.263145 0.162327 0.746044 -0.645808 0.860350 0.430310 1 45 1.000000
  45 -18.294140 0.682633 42.281067 0.124435 0.673739 -0.728417 0.856360 0.418810 1 45 1.000000
band
  45 -18.375504 0.634450 42.263145 0.162327 0.746044 -0.645808 0.860350 0.430310 1 45 1.000000
  45 -18.249287 0.034683 42.040482 0.405991 0.110529 -0.907168 0.937230 0.430310 1 45 1.000000
  45 -19.151600 0.424879 41.603226 0.637627 0.508441 -0.578722 0.889100 0.555520 1 45 1.000000
band
  45 -19.275589 0.653698 41.799786 0.508245 0.817260 -0.271610 0.848620 0.555520 1 45 1.000000
  45 -18.375504 0.634450 42.263145 0.162327 0.746044 -0.645808 0.860350 0.430310 1 45 1.000000
  45 -19.151600 0.424879 41.603226 0.637627 0.508441 -0.578722 0.889100 0.555520 1 45 1.000000
band
  45 -19.325962 0.698836 41.742096 0.508245 0.817260 -0.271610 0.846470 0.566940 1 45 1.000000
  45 -19.275589 0.653698 41.799786 0.508245 0.817260 -0.271610 0.848620 0.555520 1 45 1.000000
  45 -19.151600 0.424879 41.603226 0.637627 0.508441 -0.578722 0.889100 0.555520 1 45 1.000000
band
  45 -19.275589 0.653698 41.799786 0.508245 0.817260 -0.271610 0.848620 0.555520 1 45 1.000000
  45 -19.325962 0.698836 41.742096 0.508245 0.817260 -0.271610 0.846470 0.566940 1 45 1.000000
  45 -19.498100 0.807367 42.014454 0.293189 0.948014 0.123727 0.808990 0.566940 1 45 1.000000
band
  45 -19.498100 0.807367 42.014454 0.293189 0.948014 0.123727 0.808990 0.566940 1 45 1.000000
  45 -19.325962 0.698836 41.742096 0.508245 0.817260 -0.271610 0.846470 0.566940 1 45 1.000000
  45 -19.390781 0.694949 41.690632 -0.118135 0.763465 -0.634952 0.845990 0.577600 1 45 1.000000
band
  45 -19.390781 0.694949 41.690632 -0.118135 0.763465 -0.634952 0.845990 0.577600 1 45 1.000000
  45 -19.565138 0.808248 41.967514 -0.355835 0.887564 -0.292593 0.808910 0.577600 1 45 1.000000
  45 -19.498100 0.807367 42.014454 0.293189 0.948014 0.123727 0.808990 0.566940 1 45 1.000000
band
  45 -19.634457 0.694765 41.925152 -0.604698 0.657161 -0.449976 0.808830 0.593860 1 45 1.000000
  45 -19.565138 0.808248 41.967514 -0.355835 0.887564 -0.292593 0.808910 0.577600 1 45 1.000000
  45 -19.390781 0.694949 41.690632 -0.118135 0.763465 -0.634952 0.845990 0.577600 1 45 1.000000
band
  45 -19.565138 0.808248 41.967514 -0.355835 0.887564 -0.292593 0.808910 0.577600 1 45 1.000000
  45 -19.634457 0.694765 41.925152 -0.604698 0.657161 -0.449976 0.808830 0.593860 1 45 1.000000
  45 -19.820038 0.624270 42.203289 -0.772808 0.611334 -0.170407 0.765520 0.593860 1 45 1.000000
band
  45 -19.820038 0.624270 42.203289 -0.772808 0.611334 -0.170407 0.765520 0.593860 1 45 1.000000
  45 -19.634457 0.694765 41.925152 -0.604698 0.657161 -0.449976 0.808830 0.593860 1 45 1.000000
  45 -19.574959 0.418374 41.981831 -0.798367 -0.285713 -0.530073 0.807820 0.653020 1 45 1.000000
band
  45 -19.574959 0.418374 41.981831 -0.798367 -0.285713 -0.530073 0.807820 0.653020 1 45 1.000000
  45 -19.714743 0.371716 42.173134 -0.726859 -0.224231 -0.649150 0.763130 0.653020 1 45 1.000000
  45 -19.820038 0.624270 42.203289 -0.772808 0.611334 -0.170407 0.765520 0.593860 1 45 1.000000
band
  45 -18.159138 0.629316 42.417984 0.822777 0.547129 -0.153907 0.854080 0.388850 1 45 1.000000
  45 -18.033142 0.033870 42.197243 0.933735 0.060224 -0.352862 0.933410 0.388850 1 45 1.000000
  45 -18.082205 0.044018 42.097862 0.759797 0.081509 -0.645031 0.939730 0.405730 1 45 1.000000
band
  45 -18.221756 -0.001764 42.446762 0.784569 -0.020652 0.619697 0.905230 0.349930 1 45 1.000000
  45 -18.033142 0.033870 42.197243 0.933735 0.060224 -0.352862 0.933410 0.388850 1 45 1.000000
  45 -18.159138 0.629316 42.417984 0.822777 0.547129 -0.153907 0.854080 0.388850 1 45 1.000000
band
  45 -18.159138 0.629316 42.417984 0.822777 0.547129 -0.153907 0.854080 0.388850 1 45 1.000000
  45 -18.301228 0.324428 42.582260 0.816251 -0.067373 0.573755 0.855830 0.349930 1 45 1.000000
  45 -18.221756 -0.001764 42.446762 0.784569 -0.020652 0.619697 0.905230 0.349930 1 45 1.000000
band
  45 -19.457964 0.363053 41.820713 -0.878007 -0.288810 -0.381696 0.845610 0.653020 1 45 1.000000
  45 -19.574959 0.418374 41.981831 -0.798367 -0.285713 -0.530073 0.807820 0.653020 1 45 1.000000
  45 -19.634457 0.694765 41.925152 -0.604698 0.657161 -0.449976 0.808830 0.593860 1 45 1.000000
band
  45 -19.634457 0.694765 41.925152 -0.604698 0.657161 -0.449976 0.808830 0.593860 1 45 1.000000
  45 -19.478434 0.601771 41.685295 -0.443597 0.555661 -0.703180 0.845460 0.593860 1 45 1.000000
  45 -19.457964 0.363053 41.820713 -0.878007 -0.288810 -0.381696 0.845610 0.653020 1 45 1.000000
band
  45 -19.390781 0.694949 41.690632 -0.118135 0.763465 -0.634952 0.845990 0.577600 1 45 1.000000
  45 -19.478434 0.601771 41.685295 -0.443597 0.555661 -0.703180 0.845460 0.593860 1 45 1.000000
  45 -19.634457 0.694765 41.925152 -0.604698 0.657161 -0.449976 0.808830 0.593860 1 45 1.000000
band
  45 -19.478434 0.601771 41.685295 -0.443597 0.555661 -0.703180 0.845460 0.593860 1 45 1.000000
  45 -19.390781 0.694949 41.690632 -0.118135 0.763465 -0.634952 0.845990 0.577600 1 45 1.000000
  45 -19.265696 0.463806 41.491840 0.050410 0.504509 -0.861933 0.882880 0.577600 1 45 1.000000
band
  45 -19.265696 0.463806 41.491840 0.050410 0.504509 -0.861933 0.882880 0.577600 1 45 1.000000
  45 -19.390781 0.694949 41.690632 -0.118135 0.763465 -0.634952 0.845990 0.577600 1 45 1.000000
  45 -19.325962 0.698836 41.742096 0.508245 0.817260 -0.271610 0.846470 0.566940 1 45 1.000000
band
  45 -19.325962 0.698836 41.742096 0.508245 0.817260 -0.271610 0.846470 0.566940 1 45 1.000000
  45 -19.196438 0.458158 41.534260 0.672565 0.531884 -0.514544 0.885770 0.566940 1 45 1.000000
  45 -19.265696 0.463806 41.491840 0.050410 0.504509 -0.861933 0.882880 0.577600 1 45 1.000000
band
  45 -19.151600 0.424879 41.603226 0.637627 0.508441 -0.578722 0.889100 0.555520 1 45 1.000000
  45 -19.196438 0.458158 41.534260 0.672565 0.531884 -0.514544 0.885770 0.566940 1 45 1.000000
  45 -19.325962 0.698836 41.742096 0.508245 0.817260 -0.271610 0.846470 0.566940 1 45 1.000000
band
  45 -19.196438 0.458158 41.534260 0.672565 0.531884 -0.514544 0.885770 0.566940 1 45 1.000000
  45 -19.151600 0.424879 41.603226 0.637627 0.508441 -0.578722 0.889100 0.555520 1 45 1.000000
  45 -19.075294 0.080143 41.483318 0.739979 0.153713 -0.654831 0.937230 0.555520 1 45 1.000000
band
  45 -18.249287 0.034683 42.040482 0.405991 0.110529 -0.907168 0.937230 0.430310 1 45 1.000000
  45 -19.075294 0.080143 41.483318 0.739979 0.153713 -0.654831 0.937230 0.555520 1 45 1.000000
  45 -19.151600 0.424879 41.603226 0.637627 0.508441 -0.578722 0.889100 0.555520 1 45 1.000000
band
  45 -19.370493 0.212844 41.698830 -0.946481 -0.216781 -0.239122 0.881210 0.653020 1 45 1.000000
  45 -19.457964 0.363053 41.820713 -0.878007 -0.288810 -0.381696 0.845610 0.653020 1 45 1.000000
  45 -19.478434 0.601771 41.685295 -0.443597 0.555661 -0.703180 0.845460 0.593860 1 45 1.000000
band
  45 -19.478434 0.601771 41.685295 -0.443597 0.555661 -0.703180 0.845460 0.593860 1 45 1.000000
  45 -19.361195 0.387512 41.502567 -0.334760 0.362256 -0.869888 0.883750 0.593860 1 45 1.000000
  45 -19.370493 0.212844 41.698830 -0.946481 -0.216781 -0.239122 0.881210 0.653020 1 45 1.000000
band
  45 -19.265696 0.463806 41.491840 0.050410 0.504509 -0.861933 0.882880 0.577600 1 45 1.000000
  45 -19.361195 0.387512 41.502567 -0.334760 0.362256 -0.869888 0.883750 0.593860 1 45 1.000000
  45 -19.478434 0.601771 41.685295 -0.443597 0.555661 -0.703180 0.845460 0.593860 1 45 1.000000
band
  45 -19.361195 0.387512 41.502567 -0.334760 0.362256 -0.869888 0.883750 0.593860 1 45 1.000000
  45 -19.265696 0.463806 41.491840 0.050410 0.504509 -0.861933 0.882880 0.577600 1 45 1.000000
  45 -19.184181 0.095303 41.362213 0.143395 0.139588 -0.979772 0.940080 0.577600 1 45 1.000000
band
  45 -19.184181 0.095303 41.362213 0.143395 0.139588 -0.979772 0.940080 0.577600 1 45 1.000000
  45 -19.265696 0.463806 41.491840 0.050410 0.504509 -0.861933 0.882880 0.577600 1 45 1.000000
  45 -19.196438 0.458158 41.534260 0.672565 0.531884 -0.514544 0.885770 0.566940 1 45 1.000000
band
  45 -19.196438 0.458158 41.534260 0.672565 0.531884 -0.514544 0.885770 0.566940 1 45 1.000000
  45 -19.117136 0.094422 41.409157 0.739979 0.153713 -0.654831 0.941260 0.566940 1 45 1.000000
  45 -19.184181 0.095303 41.362213 0.143395 0.139588 -0.979772 0.940080 0.577600 1 45 1.000000
band
  45 -19.075294 0.080143 41.483318 0.739979 0.153713 -0.654831 0.937230 0.555520 1 45 1.000000
  45 -19.117136 0.094422 41.409157 0.739979 0.153713 -0.654831 0.941260 0.566940 1 45 1.000000
  45 -19.196438 0.458158 41.534260 0.672565 0.531884 -0.514544 0.885770 0.566940 1 45 1.000000
band
  45 -19.184181 0.095303 41.362213 0.143395 0.139588 -0.979772 0.940080 0.577600 1 45 1.000000
  45 -19.289719 0.065506 41.393051 -0.277560 0.092051 -0.956288 0.935620 0.593860 1 45 1.000000
  45 -19.361195 0.387512 41.502567 -0.334760 0.362256 -0.869888 0.883750 0.593860 1 45 1.000000
band
  45 -19.361195 0.387512 41.502567 -0.334760 0.362256 -0.869888 0.883750 0.593860 1 45 1.000000
  45 -19.289719 0.065506 41.393051 -0.277560 0.092051 -0.956288 0.935620 0.593860 1 45 1.000000
  45 -19.318073 -0.007989 41.627232 -0.985882 -0.080474 -0.146833 0.916530 0.653020 1 45 1.000000
band
  45 -19.318073 -0.007989 41.627232 -0.985882 -0.080474 -0.146833 0.916530 0.653020 1 45 1.000000
  45 -19.370493 0.212844 41.698830 -0.946481 -0.216781 -0.239122 0.881210 0.653020 1 45 1.000000
  45 -19.361195 0.387512 41.502567 -0.334760 0.362256 -0.869888 0.883750 0.593860 1 45 1.000000
band
  45 -18.571142 -1.055460 43.100296 0.421283 -0.741104 0.522766 0.497560 0.388850 1 45 1.000000
  45 -18.284199 -0.955848 42.653778 0.726321 -0.686977 0.022808 0.440930 0.388850 1 45 1.000000
  45 -18.400532 -0.702061 42.716843 0.770182 0.203189 0.604594 0.441430 0.349930 1 45 1.000000
band
  45 -18.247887 -0.385659 42.461479 0.767093 0.085830 0.635768 0.376570 0.349930 1 45 1.000000
  45 -18.400532 -0.702061 42.716843 0.770182 0.203189 0.604594 0.441430 0.349930 1 45 1.000000
  45 -18.284199 -0.955848 42.653778 0.726321 -0.686977 0.022808 0.440930 0.388850 1 45 1.000000
band
  45 -18.284199 -0.955848 42.653778 0.726321 -0.686977 0.022808 0.440930 0.388850 1 45 1.000000
  45 -18.101982 -0.565948 42.318756 0.885290 -0.376941 -0.272354 0.379140 0.388850 1 45 1.000000
  45 -18.247887 -0.385659 42.461479 0.767093 0.085830 0.635768 0.376570 0.349930 1 45 1.000000
band
  45 -18.221756 -0.001764 42.446762 0.784569 -0.020652 0.619697 0.324670 0.349930 1 45 1.000000
  45 -18.247887 -0.385659 42.461479 0.767093 0.085830 0.635768 0.376570 0.349930 1 45 1.000000
  45 -18.101982 -0.565948 42.318756 0.885290 -0.376941 -0.272354 0.379140 0.388850 1 45 1.000000
band
  45 -18.101982 -0.565948 42.318756 0.885290 -0.376941 -0.272354 0.379140 0.388850 1 45 1.000000
  45 -18.033142 0.033870 42.197243 0.933735 0.060224 -0.352862 0.295930 0.388850 1 45 1.000000
  45 -18.221756 -0.001764 42.446762 0.784569 -0.020652 0.619697 0.324670 0.349930 1 45 1.000000
band
  45 -18.082205 0.044018 42.097862 0.759797 0.081509 -0.645031 0.290910 0.405730 1 45 1.000000
  45 -18.033142 0.033870 42.197243 0.933735 0.060224 -0.352862 0.295930 0.388850 1 45 1.000000
  45 -18.101982 -0.565948 42.318756 0.885290 -0.376941 -0.272354 0.379140 0.388850 1 45 1.000000
band
  45 -18.101982 -0.565948 42.318756 0.885290 -0.376941 -0.272354 0.379140 0.388850 1 45 1.000000
  45 -18.155285 -0.595683 42.227570 0.696425 -0.451527 -0.557777 0.377490 0.405730 1 45 1.000000
  45 -18.082205 0.044018 42.097862 0.759797 0.081509 -0.645031 0.290910 0.405730 1 45 1.000000
band
  45 -18.082205 0.044018 42.097862 0.759797 0.081509 -0.645031 0.290910 0.405730 1 45 1.000000
  45 -18.155285 -0.595683 42.227570 0.696425 -0.451527 -0.557777 0.377490 0.405730 1 45 1.000000
  45 -18.231773 -0.595626 42.174019 0.248595 -0.470433 -0.846695 0.375350 0.418810 1 45 1.000000
band
  45 -18.425621 -1.011761 42.531288 0.009383 -0.848351 -0.529351 0.437980 0.418810 1 45 1.000000
  45 -18.231773 -0.595626 42.174019 0.248595 -0.470433 -0.846695 0.375350 0.418810 1 45 1.000000
  45 -18.155285 -0.595683 42.227570 0.696425 -0.451527 -0.557777 0.377490 0.405730 1 45 1.000000
band
  45 -18.317978 -0.566395 42.163727 0.383991 -0.423628 -0.820421 0.372510 0.430310 1 45 1.000000
  45 -18.231773 -0.595626 42.174019 0.248595 -0.470433 -0.846695 0.375350 0.418810 1 45 1.000000
  45 -18.425621 -1.011761 42.531288 0.009383 -0.848351 -0.529351 0.437980 0.418810 1 45 1.000000
band
  45 -18.425621 -1.011761 42.531288 0.009383 -0.848351 -0.529351 0.437980 0.418810 1 45 1.000000
  45 -18.500853 -0.960379 42.498726 0.193087 -0.835869 -0.513848 0.435110 0.430310 1 45 1.000000
  45 -18.317978 -0.566395 42.163727 0.383991 -0.423628 -0.820421 0.372510 0.430310 1 45 1.000000
band
  45 -18.500853 -0.960379 42.498726 0.193087 -0.835869 -0.513848 0.435110 0.430310 1 45 1.000000
  45 -18.425621 -1.011761 42.531288 0.009383 -0.848351 -0.529351 0.437980 0.418810 1 45 1.000000
  45 -18.731833 -1.118380 43.008560 -0.404401 -0.914205 0.026250 0.495420 0.418810 1 45 1.000000
band
  45 -18.731833 -1.118380 43.008560 -0.404401 -0.914205 0.026250 0.495420 0.418810 1 45 1.000000
  45 -18.789698 -1.059591 42.947792 -0.339305 -0.929854 0.142276 0.495170 0.430310 1 45 1.000000
  45 -18.500853 -0.960379 42.498726 0.193087 -0.835869 -0.513848 0.435110 0.430310 1 45 1.000000
band
  45 -18.789698 -1.059591 42.947792 -0.339305 -0.929854 0.142276 0.495170 0.430310 1 45 1.000000
  45 -18.731833 -1.118380 43.008560 -0.404401 -0.914205 0.026250 0.495420 0.418810 1 45 1.000000
  45 -19.044891 -0.643740 43.459305 -0.711589 -0.442287 0.545915 0.570180 0.418810 1 45 1.000000
band
  45 -19.044891 -0.643740 43.459305 -0.711589 -0.442287 0.545915 0.570180 0.418810 1 45 1.000000
  45 -19.087978 -0.611830 43.374260 -0.711589 -0.442287 0.545915 0.570870 0.430310 1 45 1.000000
  45 -18.789698 -1.059591 42.947792 -0.339305 -0.929854 0.142276 0.495170 0.430310 1 45 1.000000
band
  45 -19.087978 -0.611830 43.374260 -0.711589 -0.442287 0.545915 0.570870 0.430310 1 45 1.000000
  45 -19.044891 -0.643740 43.459305 -0.711589 -0.442287 0.545915 0.570180 0.418810 1 45 1.000000
  45 -19.096140 0.116113 43.526390 -0.757167 0.219687 0.615171 0.665080 0.418810 1 45 1.000000
band
  45 -19.096140 0.116113 43.526390 -0.757167 0.219687 0.615171 0.665080 0.418810 1 45 1.000000
  45 -19.137012 0.100334 43.437027 -0.757167 0.219687 0.615171 0.665970 0.430310 1 45 1.000000
  45 -19.087978 -0.611830 43.374260 -0.711589 -0.442287 0.545915 0.570870 0.430310 1 45 1.000000
band
  45 -18.955490 0.564264 43.189613 -0.630176 0.703674 0.328208 0.728210 0.430310 1 45 1.000000
  45 -19.137012 0.100334 43.437027 -0.757167 0.219687 0.615171 0.665970 0.430310 1 45 1.000000
  45 -19.096140 0.116113 43.526390 -0.757167 0.219687 0.615171 0.665080 0.418810 1 45 1.000000
band
  45 -18.231773 -0.595626 42.174019 0.248595 -0.470433 -0.846695 0.375350 0.418810 1 45 1.000000
  45 -18.158688 0.044076 42.044304 0.312260 0.084210 -0.946257 0.289680 0.418810 1 45 1.000000
  45 -18.082205 0.044018 42.097862 0.759797 0.081509 -0.645031 0.290910 0.405730 1 45 1.000000
band
  45 -18.249287 0.034683 42.040482 0.405991 0.110529 -0.907168 0.295070 0.430310 1 45 1.000000
  45 -18.158688 0.044076 42.044304 0.312260 0.084210 -0.946257 0.289680 0.418810 1 45 1.000000
  45 -18.231773 -0.595626 42.174019 0.248595 -0.470433 -0.846695 0.375350 0.418810 1 45 1.000000
band
  45 -18.231773 -0.595626 42.174019 0.248595 -0.470433 -0.846695 0.375350 0.418810 1 45 1.000000
  45 -18.317978 -0.566395 42.163727 0.383991 -0.423628 -0.820421 0.372510 0.430310 1 45 1.000000
  45 -18.249287 0.034683 42.040482 0.405991 0.110529 -0.907168 0.295070 0.430310 1 45 1.000000
band
  45 -18.249287 0.034683 42.040482 0.405991 0.110529 -0.907168 0.295070 0.430310 1 45 1.000000
  45 -18.317978 -0.566395 42.163727 0.383991 -0.423628 -0.820421 0.372510 0.430310 1 45 1.000000
  45 -19.080961 -0.241088 41.508224 0.715228 -0.112200 -0.689826 0.326990 0.555520 1 45 1.000000
band
  45 -19.075294 0.080143 41.483318 0.739979 0.153713 -0.654831 0.295070 0.555520 1 45 1.000000
  45 -18.249287 0.034683 42.040482 0.405991 0.110529 -0.907168 0.295070 0.430310 1 45 1.000000
  45 -19.080961 -0.241088 41.508224 0.715228 -0.112200 -0.689826 0.326990 0.555520 1 45 1.000000
band
  45 -19.117136 0.094422 41.409157 0.739979 0.153713 -0.654831 0.286200 0.566940 1 45 1.000000
  45 -19.075294 0.080143 41.483318 0.739979 0.153713 -0.654831 0.295070 0.555520 1 45 1.000000
  45 -19.080961 -0.241088 41.508224 0.715228 -0.112200 -0.689826 0.326990 0.555520 1 45 1.000000
end
