// Created by Crowbar 0.74
version 1
nodes
  0 "airliner_left_wing_secondary" -1
  1 "baked_LW_debris_secondary_1" 0
  2 "baked_LW_debris_secondary_2" 0
  3 "baked_LW_debris_secondary_3" 0
  4 "baked_LW_debris_secondary_4" 0
  5 "baked_LW_debris_secondary_5" 0
  6 "baked_LW_debris_secondary_6" 0
  7 "baked_LW_debris_secondary_7" 0
  8 "baked_LW_debris_secondary_8" 0
  9 "baked_LW_debris_secondary_9" 0
  10 "baked_LW_debris_secondary_10" 0
  11 "baked_LW_debris_secondary_11" 0
  12 "baked_LW_debris_secondary_12" 0
  13 "baked_LW_debris_secondary_13" 0
  14 "baked_LW_debris_secondary_14" 0
  15 "baked_LW_debris_secondary_15" 0
  16 "baked_LW_debris_secondary_16" 0
  17 "baked_LW_debris_secondary_17" 0
  18 "baked_LW_debris_secondary_18" 0
  19 "baked_LW_debris_secondary_19" 0
  20 "baked_LW_debris_secondary_20" 0
  21 "baked_LW_debris_secondary_22" 0
  22 "baked_LW_debris_secondary_23" 0
  23 "baked_LW_debris_secondary_24" 0
  24 "baked_LW_debris_secondary_25" 0
  25 "baked_LW_debris_secondary_26" 0
  26 "baked_LW_debris_secondary_27" 0
  27 "baked_LW_debris_secondary_28" 0
  28 "baked_LW_debris_secondary_29" 0
  29 "baked_LW_debris_secondary_30" 0
  30 "baked_LW_debris_secondary_31" 0
  31 "baked_LW_debris_secondary_32" 0
  32 "baked_LW_debris_secondary_33" 0
  33 "baked_LW_debris_secondary_34" 0
  34 "baked_LW_debris_secondary_35" 0
  35 "baked_LW_debris_secondary_36" 0
  36 "baked_LW_debris_secondary_37" 0
  37 "baked_LW_debris_secondary_38" 0
  38 "baked_LW_debris_secondary_39" 0
  39 "baked_LW_debris_secondary_40" 0
  40 "baked_LW_debris_secondary_41" 0
  41 "baked_LW_debris_secondary_42" 0
  42 "baked_LW_debris_secondary_43" 0
  43 "baked_LW_debris_secondary_44" 0
  44 "baked_LW_debris_secondary_45" 0
  45 "baked_LW_debris_secondary_46" 0
  46 "baked_LW_debris_secondary_47" 0
  47 "baked_LW_debris_secondary_48" 0
  48 "baked_LW_debris_secondary_49" 0
  49 "baked_LW_debris_secondary_50" 0
  50 "baked_LW_debris_secondary_51" 0
  51 "baked_LW_debris_secondary_52" 0
  52 "baked_LW_debris_secondary_53" 0
  53 "baked_LW_debris_secondary_54" 0
  54 "baked_LW_debris_secondary_55" 0
  55 "baked_LW_debris_secondary_56" 0
  56 "baked_LW_debris_secondary_57" 0
  57 "baked_LW_debris_secondary_58" 0
  58 "baked_LW_debris_secondary_59" 0
  59 "baked_LW_debris_secondary_60" 0
  60 "baked_LW_debris_secondary_61" 0
  61 "baked_LW_debris_secondary_62" 0
  62 "baked_LW_debris_secondary_63" 0
  63 "baked_LW_debris_secondary_64" 0
  64 "baked_LW_debris_secondary_65" 0
  65 "baked_LW_debris_secondary_66" 0
  66 "baked_LW_debris_secondary_67" 0
  67 "baked_LW_debris_secondary_68" 0
  68 "baked_LW_debris_secondary_69" 0
  69 "baked_LW_debris_secondary_70" 0
  70 "baked_LW_debris_secondary_71" 0
  71 "baked_LW_debris_secondary_72" 0
  72 "baked_LW_debris_secondary_73" 0
  73 "baked_LW_debris_secondary_74" 0
  74 "baked_LW_debris_secondary_75" 0
  75 "baked_LW_debris_secondary_76" 0
  76 "baked_LW_debris_secondary_77" 0
  77 "baked_LW_debris_secondary_78" 0
  78 "baked_LW_debris_secondary_79" 0
  79 "baked_LW_debris_secondary_80" 0
  80 "baked_LW_debris_secondary_81" 0
  81 "baked_LW_debris_secondary_82" 0
  82 "baked_LW_debris_secondary_83" 0
  83 "baked_LW_debris_secondary_84" 0
  84 "baked_LW_debris_secondary_85" 0
  85 "baked_LW_debris_secondary_86" 0
  86 "baked_LW_debris_secondary_87" 0
  87 "baked_LW_debris_secondary_88" 0
  88 "baked_LW_debris_secondary_89" 0
  89 "baked_LW_debris_secondary_90" 0
  90 "baked_LW_debris_secondary_91" 0
  91 "baked_LW_debris_secondary_92" 0
  92 "baked_LW_debris_secondary_93" 0
  93 "baked_LW_debris_secondary_94" 0
  94 "baked_LW_debris_secondary_95" 0
  95 "baked_LW_debris_secondary_96" 0
  96 "baked_LW_debris_secondary_97" 0
  97 "baked_LW_debris_secondary_98" 0
  98 "baked_LW_debris_secondary_99" 0
  99 "baked_LW_debris_secondary_100" 0
  100 "baked_LW_debris_secondary_101" 0
  101 "baked_LW_debris_secondary_102" 0
  102 "baked_LW_debris_secondary_103" 0
  103 "baked_LW_debris_secondary_104" 0
  104 "baked_LW_debris_secondary_105" 0
  105 "baked_LW_debris_secondary_106" 0
  106 "baked_LW_debris_secondary_107" 0
  107 "baked_LW_debris_secondary_108" 0
  108 "baked_LW_debris_secondary_109" 0
  109 "baked_LW_debris_secondary_110" 0
  110 "baked_LW_debris_secondary_111" 0
  111 "baked_LW_debris_secondary_112" 0
  112 "baked_LW_debris_secondary_113" 0
  113 "baked_LW_debris_secondary_114" 0
  114 "baked_LW_debris_secondary_115" 0
  115 "baked_LW_debris_secondary_116" 0
  116 "baked_LW_debris_secondary_117" 0
  117 "baked_LW_debris_secondary_118" 0
  118 "baked_LW_debris_secondary_119" 0
  119 "baked_LW_debris_secondary_120" 0
  120 "baked_LW_debris_secondary_121" 0
  121 "baked_LW_debris_secondary_122" 0
end
skeleton
  time 0
    0 -2082.000000 5356.000000 -911.500000 1.570674 0.000183 -0.000183
    1 403.724609 61.524536 -317.177002 0.000000 0.000000 0.000000
    2 410.625000 68.333130 -286.275635 0.000000 0.000000 0.000000
    3 420.455566 62.316528 -280.119629 0.000000 0.000000 0.000000
    4 387.750977 60.214478 -242.787842 0.000000 0.000000 0.000000
    5 -372.410156 13.973267 20.624023 0.000000 0.000000 0.000000
    6 -398.041504 -50.243042 13.902588 0.000000 0.000000 0.000000
    7 -402.625977 -51.079224 -77.382324 0.000000 0.000000 0.000000
    8 -354.246094 -26.095215 -6.631348 0.000000 0.000000 0.000000
    9 -203.656250 -8.034851 68.165039 0.000000 0.000000 0.000000
    10 -259.264648 -18.170410 163.064453 0.000000 0.000000 0.000000
    11 -372.846680 4.770386 -40.346924 0.000000 0.000000 0.000000
    12 -312.991211 7.635193 55.489746 0.000000 0.000000 0.000000
    13 -312.156250 -22.560791 152.634766 0.000000 0.000000 0.000000
    14 -256.704102 -14.576904 193.134766 0.000000 0.000000 0.000000
    15 -283.680176 -18.168335 124.876221 0.000000 0.000000 0.000000
    16 -170.219727 20.314331 90.868652 0.000000 0.000000 0.000000
    17 -150.664063 12.914673 -64.327637 0.000000 0.000000 0.000000
    18 -150.189453 -4.725891 88.896484 0.000000 0.000000 0.000000
    19 -146.275879 9.279846 111.160156 0.000000 0.000000 0.000000
    20 -164.209961 20.284790 23.027100 0.000000 0.000000 0.000000
    21 -373.493652 25.209961 174.902344 0.000000 0.000000 0.000000
    22 -366.956055 20.188232 126.653809 0.000000 0.000000 0.000000
    23 -386.032715 -24.818115 306.157227 0.000000 0.000000 0.000000
    24 -411.428711 -58.639343 256.959473 0.000000 0.000000 0.000000
    25 -277.475586 11.424805 171.117676 0.000000 0.000000 0.000000
    26 -298.490723 -14.315491 55.646973 0.000000 0.000000 0.000000
    27 201.650879 39.086548 -186.905029 0.000000 0.000000 0.000000
    28 196.402344 35.901001 -124.833740 0.000000 0.000000 0.000000
    29 189.803711 35.303101 -147.732422 0.000000 0.000000 0.000000
    30 215.036133 49.608887 -201.869385 0.000000 0.000000 0.000000
    31 185.800781 47.683472 -126.443359 0.000000 0.000000 0.000000
    32 415.050781 68.239136 -274.039551 0.000000 0.000000 0.000000
    33 393.267578 59.328613 -289.286621 0.000000 0.000000 0.000000
    34 420.853516 63.918335 -267.800781 0.000000 0.000000 0.000000
    35 386.063965 64.936035 -288.007324 0.000000 0.000000 0.000000
    36 392.121582 59.891235 -300.312988 0.000000 0.000000 0.000000
    37 414.384766 61.330566 -292.703125 0.000000 0.000000 0.000000
    38 433.014648 66.868530 -278.519287 0.000000 0.000000 0.000000
    39 385.888672 65.639038 -278.650879 0.000000 0.000000 0.000000
    40 423.606445 66.572266 -276.885742 0.000000 0.000000 0.000000
    41 391.087402 63.967285 -308.977783 0.000000 0.000000 0.000000
    42 390.121094 64.822388 -250.359131 0.000000 0.000000 0.000000
    43 180.365234 33.056763 -117.582031 0.000000 0.000000 0.000000
    44 203.066406 36.008423 -146.120361 0.000000 0.000000 0.000000
    45 197.454590 38.505737 -114.770020 -0.000001 0.000000 0.000000
    46 207.499023 36.507690 -129.568359 0.000000 0.000000 0.000000
    47 195.500977 37.665894 -169.160645 0.000000 0.000000 0.000000
    48 182.911621 34.113037 -135.185303 0.000000 0.000000 0.000000
    49 194.529297 48.903442 -176.403564 0.000000 0.000000 0.000000
    50 215.705078 41.798218 -215.025879 0.000000 0.000000 0.000000
    51 186.178711 41.177734 -111.736816 0.000000 0.000000 0.000000
    52 173.193359 32.174683 -107.780518 0.000000 0.000000 0.000000
    53 202.687012 40.443481 -209.220703 0.000000 0.000000 0.000000
    54 215.050293 40.153931 -187.402588 0.000000 0.000000 0.000000
    55 181.806152 35.846558 -158.216309 0.000000 0.000000 0.000000
    56 207.484375 50.941650 -166.496582 0.000000 0.000000 0.000000
    57 225.052734 42.758301 -238.703369 0.000000 0.000000 0.000000
    58 206.362793 47.414185 -134.262207 0.000000 0.000000 0.000000
    59 216.793945 47.701050 -222.094238 0.000000 0.000000 0.000000
    60 178.697266 34.037476 -109.331787 0.000000 0.000000 0.000000
    61 -417.257813 -59.566040 -3.073730 0.000000 0.000000 0.000000
    62 -274.957520 12.287109 63.643799 0.000000 0.000000 0.000000
    63 -216.992188 18.146118 70.830566 0.000000 0.000000 0.000000
    64 -130.433594 11.922119 96.076416 0.000000 0.000000 0.000000
    65 -180.702148 17.767212 13.910400 0.000000 0.000000 0.000000
    66 -372.535156 9.531799 -2.223633 0.000000 0.000000 0.000000
    67 -405.753906 -47.441040 309.122070 0.000000 0.000000 0.000000
    68 -204.341797 -5.389099 44.193359 0.000000 0.000000 0.000000
    69 -187.820313 -8.242554 86.523926 0.000000 0.000000 0.000000
    70 -167.583008 -4.017395 57.011963 0.000000 0.000000 0.000000
    71 -247.105469 -9.926392 68.305420 0.000000 0.000000 0.000000
    72 -164.707031 -0.855835 22.564209 0.000000 0.000000 0.000000
    73 -270.714844 -13.603760 80.174805 0.000000 0.000000 0.000000
    74 -140.798828 -1.756409 103.783691 0.000000 0.000000 0.000000
    75 -323.419434 -17.149658 20.396484 0.000000 0.000000 0.000000
    76 -318.212891 11.557739 97.075195 0.000000 0.000000 0.000000
    77 -305.791992 13.188599 143.398926 0.000000 0.000000 0.000000
    78 -245.117188 14.986206 68.224121 0.000000 0.000000 0.000000
    79 -143.880859 -1.965942 55.048828 0.000000 0.000000 0.000000
    80 -155.623047 19.007446 100.056885 0.000000 0.000000 0.000000
    81 -177.625488 20.558472 59.826660 0.000000 0.000000 0.000000
    82 -162.531738 16.439453 -22.008789 0.000000 0.000000 0.000000
    83 -117.787598 4.641602 99.801270 0.000000 0.000000 0.000000
    84 -172.207031 -1.525452 8.615723 0.000000 0.000000 0.000000
    85 -286.900391 -21.701172 190.747559 0.000000 0.000000 0.000000
    86 -256.270508 -1.904846 194.473389 0.000000 0.000000 0.000000
    87 -279.319336 -16.802124 108.207031 0.000000 0.000000 0.000000
    88 -248.206543 -11.916870 82.074219 0.000000 0.000000 0.000000
    89 -176.945313 -7.291870 85.839844 0.000000 0.000000 0.000000
    90 -167.809082 0.074280 -12.886719 0.000000 0.000000 0.000000
    91 -144.013672 -3.409180 61.725342 0.000000 0.000000 0.000000
    92 -302.229492 -19.633606 135.127441 0.000000 0.000000 0.000000
    93 -282.619141 -3.268921 187.102295 0.000000 0.000000 0.000000
    94 -314.114746 3.429871 13.516602 0.000000 0.000000 0.000000
    95 -291.702148 12.759949 96.020508 0.000000 0.000000 0.000000
    96 -283.755859 -20.727295 162.392090 0.000000 0.000000 0.000000
    97 -372.139648 15.300293 50.263428 0.000000 0.000000 0.000000
    98 -365.081055 0.759705 -14.806885 0.000000 0.000000 0.000000
    99 -335.844727 12.182007 122.514160 0.000000 0.000000 0.000000
    100 -369.350098 17.985657 89.837891 0.000000 0.000000 0.000000
    101 -337.405273 1.438293 4.988281 0.000000 0.000000 0.000000
    102 -374.292969 3.118164 -67.971680 0.000000 0.000000 0.000000
    103 -372.741699 8.014404 -18.713135 0.000000 0.000000 0.000000
    104 -368.152832 10.234009 25.052490 0.000000 0.000000 0.000000
    105 -369.416016 16.817261 60.526611 0.000000 0.000000 0.000000
    106 -367.571777 16.449646 99.981689 0.000000 0.000000 0.000000
    107 -372.531250 23.343872 125.272217 0.000000 0.000000 0.000000
    108 -366.343262 16.978271 142.675537 0.000000 0.000000 0.000000
    109 -366.975586 20.200562 216.711426 0.000000 0.000000 0.000000
    110 -373.497070 24.130432 151.935547 0.000000 0.000000 0.000000
    111 -372.918945 15.058594 258.489258 0.000000 0.000000 0.000000
    112 -409.821289 -57.886841 182.134766 0.000000 0.000000 0.000000
    113 -404.409180 -47.493408 285.053711 0.000000 0.000000 0.000000
    114 -376.216797 0.572021 284.317871 0.000000 0.000000 -0.000001
    115 -394.177734 -42.950867 -129.351318 0.000000 0.000000 0.000000
    116 -413.782227 -57.842590 -47.263916 0.000000 0.000000 0.000000
    117 -407.554199 -54.605835 70.669434 0.000000 0.000000 0.000000
    118 -392.084961 -31.824829 -161.457520 0.000000 0.000000 0.000000
    119 -388.252930 -44.121094 -36.272461 0.000000 0.000000 0.000000
    120 -417.787109 -58.549683 -98.771729 0.000000 0.000000 0.000000
    121 -147.626953 -0.914551 41.231934 0.000000 0.000000 0.000000
end
