// Created by Crowbar 0.74
version 1
nodes
  0 "static_prop" -1
end
skeleton
  time 0
    0 0.000000 0.000000 0.000000 0.000000 0.000000 0.000000
end
triangles
woodcrates01a
  0 1.088361 -19.021830 -18.670719 0.000000 -1.000000 0.000000 0.256370 0.596440 1 0 1.000000
  0 32.826469 -19.021828 -18.670719 0.000000 -1.000000 0.000000 0.256370 0.250930 1 0 1.000000
  0 1.088361 -19.021830 18.768520 0.000000 -1.000000 0.000000 0.617600 0.596440 1 0 1.000000
woodcrates01a
  0 32.826469 -19.021828 -18.670719 0.000000 -1.000000 0.000000 0.256370 0.250930 1 0 1.000000
  0 32.826469 -19.021811 18.768520 0.000000 -1.000000 0.000000 0.617600 0.250930 1 0 1.000000
  0 1.088361 -19.021830 18.768520 0.000000 -1.000000 0.000000 0.617600 0.596440 1 0 1.000000
woodcrates01a
  0 1.088359 18.952209 -18.670710 0.000000 1.000000 0.000000 0.610520 0.653890 1 0 1.000000
  0 1.088359 18.952209 18.768520 0.000000 1.000000 0.000000 0.255700 0.653890 1 0 1.000000
  0 32.826462 18.952211 -18.670710 0.000000 1.000000 0.000000 0.610520 0.992610 1 0 1.000000
woodcrates01a
  0 1.088359 18.952209 18.768520 0.000000 1.000000 0.000000 0.255700 0.653890 1 0 1.000000
  0 32.826462 18.952209 18.768520 0.000000 1.000000 0.000000 0.255700 0.992610 1 0 1.000000
  0 32.826462 18.952211 -18.670710 0.000000 1.000000 0.000000 0.610520 0.992610 1 0 1.000000
woodcrates01a
  0 33.691479 -15.915718 -15.739831 0.000000 1.000000 0.000000 0.977430 0.169000 1 0 1.000000
  0 32.691479 -15.915718 -15.739831 0.000000 1.000000 0.000000 0.977430 0.178070 1 0 1.000000
  0 33.691479 -15.915719 15.782139 0.000000 1.000000 0.000000 0.691440 0.169000 1 0 1.000000
woodcrates01a
  0 32.691479 -15.915718 -15.739831 0.000000 1.000000 0.000000 0.977430 0.178070 1 0 1.000000
  0 32.691479 -15.915719 15.782139 0.000000 1.000000 0.000000 0.691440 0.178070 1 0 1.000000
  0 33.691479 -15.915719 15.782139 0.000000 1.000000 0.000000 0.691440 0.169000 1 0 1.000000
woodcrates01a
  0 30.578779 -19.910769 -15.739831 0.000000 -1.000000 0.000000 0.977430 0.102170 1 0 1.000000
  0 33.578781 -19.910769 -15.739831 0.000000 -1.000000 0.000000 0.977430 0.132800 1 0 1.000000
  0 30.578779 -19.910770 15.782139 0.000000 -1.000000 0.000000 0.691440 0.102170 1 0 1.000000
woodcrates01a
  0 33.578781 -19.910769 -15.739831 0.000000 -1.000000 0.000000 0.977430 0.132800 1 0 1.000000
  0 33.578781 -19.910770 15.782139 0.000000 -1.000000 0.000000 0.691440 0.132800 1 0 1.000000
  0 30.578779 -19.910770 15.782139 0.000000 -1.000000 0.000000 0.691440 0.102170 1 0 1.000000
woodcrates01a
  0 30.578779 -18.910769 -15.739831 -1.000000 0.000000 0.000000 0.977430 0.093100 1 0 1.000000
  0 30.578779 -19.910769 -15.739831 -1.000000 0.000000 0.000000 0.977430 0.102170 1 0 1.000000
  0 30.578779 -18.910770 15.782139 -1.000000 0.000000 0.000000 0.691440 0.093100 1 0 1.000000
woodcrates01a
  0 30.578779 -19.910769 -15.739831 -1.000000 0.000000 0.000000 0.977430 0.102170 1 0 1.000000
  0 30.578779 -19.910770 15.782139 -1.000000 0.000000 0.000000 0.691440 0.102170 1 0 1.000000
  0 30.578779 -18.910770 15.782139 -1.000000 0.000000 0.000000 0.691440 0.093100 1 0 1.000000
woodcrates01a
  0 33.691479 -15.915719 15.782139 0.999602 -0.028190 0.000000 0.691440 0.169000 1 0 1.000000
  0 33.578781 -19.910770 15.782139 0.999602 -0.028190 0.000000 0.691440 0.132800 1 0 1.000000
  0 33.691479 -15.915718 -15.739831 0.999602 -0.028190 0.000000 0.977430 0.169000 1 0 1.000000
woodcrates01a
  0 33.578781 -19.910770 15.782139 0.999602 -0.028190 0.000000 0.691440 0.132800 1 0 1.000000
  0 33.578781 -19.910769 -15.739831 0.999602 -0.028190 0.000000 0.977430 0.132800 1 0 1.000000
  0 33.691479 -15.915718 -15.739831 0.999602 -0.028190 0.000000 0.977430 0.169000 1 0 1.000000
woodcrates01a
  0 -10.090481 18.952200 -18.670710 0.000000 0.000000 -1.000000 0.831130 0.995280 1 0 1.000000
  0 9.845549 18.952211 -18.670710 0.000000 0.000000 -1.000000 0.962070 0.995280 1 0 1.000000
  0 -10.086449 -19.021830 -18.670719 0.000000 0.000000 -1.000000 0.821150 0.624450 1 0 1.000000
woodcrates01a
  0 9.845549 18.952211 -18.670710 0.000000 0.000000 -1.000000 0.962070 0.995280 1 0 1.000000
  0 9.849581 -19.021828 -18.670719 0.000000 0.000000 -1.000000 0.962120 0.624450 1 0 1.000000
  0 -10.086449 -19.021830 -18.670719 0.000000 0.000000 -1.000000 0.821150 0.624450 1 0 1.000000
woodcrates01a
  0 -32.763512 18.952200 -18.670710 0.000000 0.000000 -1.000000 0.638530 0.996530 1 0 1.000000
  0 -10.090481 18.952200 -18.670710 0.000000 0.000000 -1.000000 0.812440 0.996530 1 0 1.000000
  0 -32.763500 -19.021830 -18.670719 0.000000 0.000000 -1.000000 0.644180 0.624860 1 0 1.000000
woodcrates01a
  0 -10.090481 18.952200 -18.670710 0.000000 0.000000 -1.000000 0.812440 0.996530 1 0 1.000000
  0 -10.086449 -19.021830 -18.670719 0.000000 0.000000 -1.000000 0.804520 0.624860 1 0 1.000000
  0 -32.763500 -19.021830 -18.670719 0.000000 0.000000 -1.000000 0.644180 0.624860 1 0 1.000000
woodcrates01a
  0 9.845549 18.952211 -18.670710 0.000000 0.000000 -1.000000 0.796700 0.624930 1 0 1.000000
  0 32.826462 18.952211 -18.670710 0.000000 0.000000 -1.000000 0.986730 0.624930 1 0 1.000000
  0 9.849581 -19.021828 -18.670719 0.000000 0.000000 -1.000000 0.798360 0.932640 1 0 1.000000
woodcrates01a
  0 32.826462 18.952211 -18.670710 0.000000 0.000000 -1.000000 0.986730 0.624930 1 0 1.000000
  0 32.826469 -19.021828 -18.670719 0.000000 0.000000 -1.000000 0.986730 0.932640 1 0 1.000000
  0 9.849581 -19.021828 -18.670719 0.000000 0.000000 -1.000000 0.798360 0.932640 1 0 1.000000
woodcrates01a
  0 14.120770 19.762871 -1.226219 -0.008410 0.999950 -0.005460 0.540380 0.235190 1 0 1.000000
  0 16.484900 19.762871 0.620781 0.000000 1.000000 0.000000 0.537370 0.194280 1 0 1.000000
  0 27.577200 19.762873 -15.723639 0.012530 0.999802 -0.015420 0.272710 0.235190 1 0 1.000000
woodcrates01a
  0 16.484900 19.762871 0.620781 0.000000 1.000000 0.000000 0.537370 0.194280 1 0 1.000000
  0 29.857910 19.762882 -13.869659 0.018800 0.999556 -0.023130 0.270540 0.195060 1 0 1.000000
  0 27.577200 19.762873 -15.723639 0.012530 0.999802 -0.015420 0.272710 0.235190 1 0 1.000000
woodcrates01a
  0 27.577200 19.762873 -15.723639 0.012530 0.999802 -0.015420 0.272710 0.235190 1 0 1.000000
  0 29.857910 19.762882 -13.869659 0.018800 0.999556 -0.023130 0.270540 0.195060 1 0 1.000000
  0 29.868299 19.675543 -15.746299 0.037590 0.998222 -0.046250 0.251400 0.212200 1 0 1.000000
woodcrates01a
  0 16.484900 19.762871 0.620781 0.744308 0.000000 0.667837 0.537370 0.194280 1 0 1.000000
  0 16.484900 18.866220 0.620781 0.739608 0.000000 0.673037 0.537330 0.182010 1 0 1.000000
  0 29.857910 19.762882 -13.869659 0.734874 0.000000 0.678204 0.270540 0.195060 1 0 1.000000
woodcrates01a
  0 16.484900 18.866220 0.620781 0.739608 0.000000 0.673037 0.537330 0.182010 1 0 1.000000
  0 29.857910 18.866222 -13.869659 0.734874 0.000000 0.678204 0.270500 0.182800 1 0 1.000000
  0 29.857910 19.762882 -13.869659 0.734874 0.000000 0.678204 0.270540 0.195060 1 0 1.000000
woodcrates01a
  0 14.120770 18.866220 -1.226219 -0.743971 0.000000 -0.668211 0.540380 0.247450 1 0 1.000000
  0 14.120770 19.762871 -1.226219 -0.738534 0.003960 -0.674204 0.540380 0.235190 1 0 1.000000
  0 27.572121 18.866222 -15.733859 -0.733102 0.005950 -0.680092 0.272660 0.247450 1 0 1.000000
woodcrates01a
  0 14.120770 19.762871 -1.226219 -0.738534 0.003960 -0.674204 0.540380 0.235190 1 0 1.000000
  0 27.577200 19.762873 -15.723639 -0.732877 0.011900 -0.680257 0.272710 0.235190 1 0 1.000000
  0 27.572121 18.866222 -15.733859 -0.733102 0.005950 -0.680092 0.272660 0.247450 1 0 1.000000
woodcrates01a
  0 3.049089 19.762871 15.807741 0.748967 0.000000 0.662607 0.572700 0.194400 1 0 1.000000
  0 3.049089 18.866220 15.807741 0.748967 0.000000 0.662607 0.572700 0.182180 1 0 1.000000
  0 16.484900 19.762871 0.620781 0.744308 0.000000 0.667837 0.296340 0.194300 1 0 1.000000
woodcrates01a
  0 3.049089 18.866220 15.807741 0.748967 0.000000 0.662607 0.572700 0.182180 1 0 1.000000
  0 16.484900 18.866220 0.620781 0.739608 0.000000 0.673037 0.296350 0.182080 1 0 1.000000
  0 16.484900 19.762871 0.620781 0.744308 0.000000 0.667837 0.296340 0.194300 1 0 1.000000
woodcrates01a
  0 0.682189 18.866220 13.976461 -0.749240 0.000000 -0.662299 0.575420 0.246110 1 0 1.000000
  0 0.682189 19.673059 13.976461 -0.749240 0.000000 -0.662299 0.575370 0.235110 1 0 1.000000
  0 14.120770 18.866220 -1.226219 -0.743971 0.000000 -0.668211 0.298880 0.247330 1 0 1.000000
woodcrates01a
  0 0.682189 19.673059 13.976461 -0.749240 0.000000 -0.662299 0.575370 0.235110 1 0 1.000000
  0 14.120770 19.762871 -1.226219 -0.738534 0.003960 -0.674204 0.298820 0.235110 1 0 1.000000
  0 14.120770 18.866220 -1.226219 -0.743971 0.000000 -0.668211 0.298880 0.247330 1 0 1.000000
woodcrates01a
  0 -1.832661 19.818890 -15.739829 0.000000 1.000000 0.000000 0.086280 0.289930 1 0 1.000000
  0 -1.832661 19.818890 15.782141 0.000000 1.000000 0.000000 0.086280 0.589390 1 0 1.000000
  0 0.731439 19.818880 -15.739829 0.000000 1.000000 0.000000 0.114290 0.289930 1 0 1.000000
woodcrates01a
  0 -1.832661 19.818890 15.782141 0.000000 1.000000 0.000000 0.086280 0.589390 1 0 1.000000
  0 0.731439 19.818880 15.782131 0.000000 1.000000 0.000000 0.114290 0.589390 1 0 1.000000
  0 0.731439 19.818880 -15.739829 0.000000 1.000000 0.000000 0.114290 0.289930 1 0 1.000000
woodcrates01a
  0 -1.832661 18.818890 -15.739829 -1.000000 0.000000 0.000000 0.079450 0.289930 1 0 1.000000
  0 -1.832661 18.818890 15.782141 -1.000000 0.000000 0.000000 0.079450 0.589390 1 0 1.000000
  0 -1.832661 19.818890 -15.739829 -1.000000 0.000000 0.000000 0.086280 0.289930 1 0 1.000000
woodcrates01a
  0 -1.832661 18.818890 15.782141 -1.000000 0.000000 0.000000 0.079450 0.589390 1 0 1.000000
  0 -1.832661 19.818890 15.782141 -1.000000 0.000000 0.000000 0.086280 0.589390 1 0 1.000000
  0 -1.832661 19.818890 -15.739829 -1.000000 0.000000 0.000000 0.086280 0.289930 1 0 1.000000
woodcrates01a
  0 0.731439 19.818880 -15.739829 1.000000 0.000000 0.000000 0.114290 0.289930 1 0 1.000000
  0 0.731439 19.818880 15.782131 1.000000 0.000000 0.000000 0.114290 0.589390 1 0 1.000000
  0 0.731429 18.821360 -15.739829 1.000000 0.000000 0.000000 0.121090 0.289930 1 0 1.000000
woodcrates01a
  0 0.731439 19.818880 15.782131 1.000000 0.000000 0.000000 0.114290 0.589390 1 0 1.000000
  0 0.731429 18.821360 15.782131 1.000000 0.000000 0.000000 0.121090 0.589390 1 0 1.000000
  0 0.731429 18.821360 -15.739829 1.000000 0.000000 0.000000 0.121090 0.289930 1 0 1.000000
woodcrates01a
  0 -30.773529 18.866220 -13.869659 -0.740513 0.000000 0.672042 0.127570 0.961520 1 0 1.000000
  0 -17.670210 18.866220 0.568641 -0.743366 0.000000 0.668885 0.127570 0.694780 1 0 1.000000
  0 -30.773529 19.762890 -13.869659 -0.740513 0.000000 0.672042 0.115310 0.961520 1 0 1.000000
woodcrates01a
  0 -17.670210 18.866220 0.568641 -0.743366 0.000000 0.668885 0.127570 0.694780 1 0 1.000000
  0 -17.670210 19.762871 0.568641 -0.746206 0.000000 0.665715 0.115310 0.694780 1 0 1.000000
  0 -30.773529 19.762890 -13.869659 -0.740513 0.000000 0.672042 0.115310 0.961520 1 0 1.000000
woodcrates01a
  0 -15.306081 19.762871 -1.278369 0.744742 0.000000 -0.667352 0.074370 0.691750 1 0 1.000000
  0 -15.306081 18.866220 -1.278359 0.744834 0.002960 -0.667243 0.062110 0.691760 1 0 1.000000
  0 -28.414391 19.762871 -15.706479 0.740315 0.005920 -0.672234 0.074520 0.958430 1 0 1.000000
woodcrates01a
  0 -28.414391 19.762871 -15.706479 0.740315 0.005920 -0.672234 0.074520 0.958430 1 0 1.000000
  0 -15.306081 18.866220 -1.278359 0.744834 0.002960 -0.667243 0.062110 0.691760 1 0 1.000000
  0 -28.409300 18.866220 -15.716689 0.740463 0.011850 -0.671993 0.062250 0.958500 1 0 1.000000
woodcrates01a
  0 -17.670210 18.866220 0.568641 -0.743366 0.000000 0.668885 0.542830 0.181310 1 0 1.000000
  0 -4.190851 18.866220 15.807741 -0.749033 0.000000 0.662533 0.264500 0.181410 1 0 1.000000
  0 -17.670210 19.762871 0.568641 -0.746206 0.000000 0.665715 0.542830 0.193580 1 0 1.000000
woodcrates01a
  0 -4.190851 18.866220 15.807741 -0.749033 0.000000 0.662533 0.264500 0.181410 1 0 1.000000
  0 -4.190851 19.762871 15.807741 -0.749033 0.000000 0.662533 0.264500 0.193670 1 0 1.000000
  0 -17.670210 19.762871 0.568641 -0.746206 0.000000 0.665715 0.542830 0.193580 1 0 1.000000
woodcrates01a
  0 -15.306081 19.762871 -1.278369 0.744742 0.000000 -0.667352 0.540340 0.234540 1 0 1.000000
  0 -1.823951 19.673059 13.976461 0.749305 0.000000 -0.662225 0.261830 0.234540 1 0 1.000000
  0 -15.306081 18.866220 -1.278359 0.744834 0.002960 -0.667243 0.540290 0.246810 1 0 1.000000
woodcrates01a
  0 -1.823951 19.673059 13.976461 0.749305 0.000000 -0.662225 0.261830 0.234540 1 0 1.000000
  0 -1.823951 18.866220 13.976461 0.749305 0.000000 -0.662225 0.261780 0.245580 1 0 1.000000
  0 -15.306081 18.866220 -1.278359 0.744834 0.002960 -0.667243 0.540290 0.246810 1 0 1.000000
woodcrates01a
  0 15.160441 -19.854759 -1.226221 -0.008410 -0.999950 -0.005460 0.540380 0.235190 1 0 1.000000
  0 28.312290 -19.854757 -15.723641 0.012530 -0.999802 -0.015420 0.272710 0.235190 1 0 1.000000
  0 17.524570 -19.854759 0.620779 0.000000 -1.000000 0.000000 0.537370 0.194280 1 0 1.000000
woodcrates01a
  0 28.312290 -19.854757 -15.723641 0.012530 -0.999802 -0.015420 0.272710 0.235190 1 0 1.000000
  0 30.592991 -19.854769 -13.869661 0.018800 -0.999556 -0.023130 0.270540 0.195060 1 0 1.000000
  0 17.524570 -19.854759 0.620779 0.000000 -1.000000 0.000000 0.537370 0.194280 1 0 1.000000
woodcrates01a
  0 28.312290 -19.854757 -15.723641 0.012530 -0.999802 -0.015420 0.272710 0.235190 1 0 1.000000
  0 30.603380 -19.767427 -15.746301 0.037590 -0.998222 -0.046250 0.251400 0.212200 1 0 1.000000
  0 30.592991 -19.854769 -13.869661 0.018800 -0.999556 -0.023130 0.270540 0.195060 1 0 1.000000
woodcrates01a
  0 3.049089 19.762871 15.807741 -0.020690 0.999768 -0.005930 0.572700 0.194400 1 0 1.000000
  0 16.484900 19.762871 0.620781 0.000000 1.000000 0.000000 0.296340 0.194300 1 0 1.000000
  0 14.120770 19.762871 -1.226219 -0.008410 0.999950 -0.005460 0.298820 0.235110 1 0 1.000000
woodcrates01a
  0 0.682189 19.673059 13.976461 -0.031040 0.999478 -0.008890 0.575370 0.235110 1 0 1.000000
  0 3.049089 19.762871 15.807741 -0.020690 0.999768 -0.005930 0.572700 0.194400 1 0 1.000000
  0 14.120770 19.762871 -1.226219 -0.008410 0.999950 -0.005460 0.298820 0.235110 1 0 1.000000
woodcrates01a
  0 3.049089 19.762871 15.807741 -0.020690 0.999768 -0.005930 0.572700 0.194400 1 0 1.000000
  0 0.682189 19.673059 13.976461 -0.031040 0.999478 -0.008890 0.575370 0.235110 1 0 1.000000
  0 0.679549 19.675541 15.830401 -0.036840 0.999320 -0.001390 0.594330 0.218410 1 0 1.000000
woodcrates01a
  0 17.524570 -19.854759 0.620779 0.746856 0.000000 0.664985 0.537370 0.194280 1 0 1.000000
  0 30.592991 -19.854769 -13.869661 0.742607 0.000000 0.669727 0.270540 0.195060 1 0 1.000000
  0 17.524570 -18.958111 0.620779 0.744733 0.000000 0.667363 0.537330 0.182010 1 0 1.000000
woodcrates01a
  0 30.592991 -19.854769 -13.869661 0.742607 0.000000 0.669727 0.270540 0.195060 1 0 1.000000
  0 30.592991 -18.958109 -13.869661 0.742607 0.000000 0.669727 0.270500 0.182800 1 0 1.000000
  0 17.524570 -18.958111 0.620779 0.744733 0.000000 0.667363 0.537330 0.182010 1 0 1.000000
woodcrates01a
  0 15.160441 -18.958111 -1.226221 -0.746508 0.000000 -0.665377 0.540380 0.247450 1 0 1.000000
  0 28.307211 -18.958109 -15.733861 -0.740814 -0.005920 -0.671684 0.272660 0.247450 1 0 1.000000
  0 15.160441 -19.854759 -1.226221 -0.743635 -0.003940 -0.668574 0.540380 0.235190 1 0 1.000000
woodcrates01a
  0 28.307211 -18.958109 -15.733861 -0.740814 -0.005920 -0.671684 0.272660 0.247450 1 0 1.000000
  0 28.312290 -19.854757 -15.723641 -0.740591 -0.011850 -0.671851 0.272710 0.235190 1 0 1.000000
  0 15.160441 -19.854759 -1.226221 -0.743635 -0.003940 -0.668574 0.540380 0.235190 1 0 1.000000
woodcrates01a
  0 4.088761 -19.854759 15.807739 0.748967 0.000000 0.662607 0.572700 0.194400 1 0 1.000000
  0 17.524570 -19.854759 0.620779 0.746856 0.000000 0.664985 0.296340 0.194300 1 0 1.000000
  0 4.088761 -18.958111 15.807739 0.748967 0.000000 0.662607 0.572700 0.182180 1 0 1.000000
woodcrates01a
  0 17.524570 -19.854759 0.620779 0.746856 0.000000 0.664985 0.296340 0.194300 1 0 1.000000
  0 17.524570 -18.958111 0.620779 0.744733 0.000000 0.667363 0.296350 0.182080 1 0 1.000000
  0 4.088761 -18.958111 15.807739 0.748967 0.000000 0.662607 0.572700 0.182180 1 0 1.000000
woodcrates01a
  0 1.721861 -18.958111 13.976460 -0.749240 0.000000 -0.662299 0.575420 0.246110 1 0 1.000000
  0 15.160441 -18.958111 -1.226221 -0.746508 0.000000 -0.665377 0.298880 0.247330 1 0 1.000000
  0 1.721861 -19.764950 13.976460 -0.749240 0.000000 -0.662299 0.575370 0.235110 1 0 1.000000
woodcrates01a
  0 15.160441 -18.958111 -1.226221 -0.746508 0.000000 -0.665377 0.298880 0.247330 1 0 1.000000
  0 15.160441 -19.854759 -1.226221 -0.743635 -0.003940 -0.668574 0.298820 0.235110 1 0 1.000000
  0 1.721861 -19.764950 13.976460 -0.749240 0.000000 -0.662299 0.575370 0.235110 1 0 1.000000
woodcrates01a
  0 -0.792989 -19.910780 -15.739831 0.000000 -1.000000 0.000000 0.086280 0.289930 1 0 1.000000
  0 1.771101 -19.910770 -15.739831 0.000000 -1.000000 0.000000 0.114290 0.289930 1 0 1.000000
  0 -0.792989 -19.910780 15.782139 0.000000 -1.000000 0.000000 0.086280 0.589390 1 0 1.000000
woodcrates01a
  0 1.771101 -19.910770 -15.739831 0.000000 -1.000000 0.000000 0.114290 0.289930 1 0 1.000000
  0 1.771101 -19.910770 15.782129 0.000000 -1.000000 0.000000 0.114290 0.589390 1 0 1.000000
  0 -0.792989 -19.910780 15.782139 0.000000 -1.000000 0.000000 0.086280 0.589390 1 0 1.000000
woodcrates01a
  0 -0.792989 -18.910780 -15.739831 -1.000000 0.000000 0.000000 0.079450 0.289930 1 0 1.000000
  0 -0.792989 -19.910780 -15.739831 -1.000000 0.000000 0.000000 0.086280 0.289930 1 0 1.000000
  0 -0.792989 -18.910780 15.782139 -1.000000 0.000000 0.000000 0.079450 0.589390 1 0 1.000000
woodcrates01a
  0 -0.792989 -19.910780 -15.739831 -1.000000 0.000000 0.000000 0.086280 0.289930 1 0 1.000000
  0 -0.792989 -19.910780 15.782139 -1.000000 0.000000 0.000000 0.086280 0.589390 1 0 1.000000
  0 -0.792989 -18.910780 15.782139 -1.000000 0.000000 0.000000 0.079450 0.589390 1 0 1.000000
woodcrates01a
  0 1.771101 -19.910770 -15.739831 1.000000 0.000000 0.000000 0.114290 0.289930 1 0 1.000000
  0 1.771101 -18.913250 -15.739831 1.000000 0.000000 0.000000 0.121090 0.289930 1 0 1.000000
  0 1.771101 -19.910770 15.782129 1.000000 0.000000 0.000000 0.114290 0.589390 1 0 1.000000
woodcrates01a
  0 1.771101 -18.913250 -15.739831 1.000000 0.000000 0.000000 0.121090 0.289930 1 0 1.000000
  0 1.771101 -18.913250 15.782129 1.000000 0.000000 0.000000 0.121090 0.589390 1 0 1.000000
  0 1.771101 -19.910770 15.782129 1.000000 0.000000 0.000000 0.114290 0.589390 1 0 1.000000
woodcrates01a
  0 -29.733860 -18.958111 -13.869661 -0.740513 0.000000 0.672042 0.127570 0.961520 1 0 1.000000
  0 -29.733860 -19.854780 -13.869661 -0.740513 0.000000 0.672042 0.115310 0.961520 1 0 1.000000
  0 -16.630541 -18.958111 0.568639 -0.743366 0.000000 0.668885 0.127570 0.694780 1 0 1.000000
woodcrates01a
  0 -29.733860 -19.854780 -13.869661 -0.740513 0.000000 0.672042 0.115310 0.961520 1 0 1.000000
  0 -16.630541 -19.854759 0.568639 -0.746206 0.000000 0.665715 0.115310 0.694780 1 0 1.000000
  0 -16.630541 -18.958111 0.568639 -0.743366 0.000000 0.668885 0.127570 0.694780 1 0 1.000000
woodcrates01a
  0 -27.369640 -18.958111 -15.716691 0.740463 -0.011850 -0.671993 0.062250 0.958500 1 0 1.000000
  0 -14.266409 -18.958111 -1.278361 0.744834 -0.002960 -0.667243 0.062110 0.691760 1 0 1.000000
  0 -27.374720 -19.854759 -15.706481 0.740315 -0.005920 -0.672234 0.074520 0.958430 1 0 1.000000
woodcrates01a
  0 -27.374720 -19.854759 -15.706481 0.740315 -0.005920 -0.672234 0.074520 0.958430 1 0 1.000000
  0 -14.266409 -18.958111 -1.278361 0.744834 -0.002960 -0.667243 0.062110 0.691760 1 0 1.000000
  0 -14.266409 -19.854759 -1.278371 0.744742 0.000000 -0.667352 0.074370 0.691750 1 0 1.000000
woodcrates01a
  0 -16.630541 -18.958111 0.568639 -0.743366 0.000000 0.668885 0.542830 0.181310 1 0 1.000000
  0 -16.630541 -19.854759 0.568639 -0.746206 0.000000 0.665715 0.542830 0.193580 1 0 1.000000
  0 -3.151179 -18.958111 15.807739 -0.749033 0.000000 0.662533 0.264500 0.181410 1 0 1.000000
woodcrates01a
  0 -16.630541 -19.854759 0.568639 -0.746206 0.000000 0.665715 0.542830 0.193580 1 0 1.000000
  0 -3.151179 -19.854759 15.807739 -0.749033 0.000000 0.662533 0.264500 0.193670 1 0 1.000000
  0 -3.151179 -18.958111 15.807739 -0.749033 0.000000 0.662533 0.264500 0.181410 1 0 1.000000
woodcrates01a
  0 -14.266409 -19.854759 -1.278371 0.744742 0.000000 -0.667352 0.540340 0.234540 1 0 1.000000
  0 -14.266409 -18.958111 -1.278361 0.744834 -0.002960 -0.667243 0.540290 0.246810 1 0 1.000000
  0 -0.784279 -19.764950 13.976460 0.749305 0.000000 -0.662225 0.261830 0.234540 1 0 1.000000
woodcrates01a
  0 -14.266409 -18.958111 -1.278361 0.744834 -0.002960 -0.667243 0.540290 0.246810 1 0 1.000000
  0 -0.784279 -18.958111 13.976460 0.749305 0.000000 -0.662225 0.261780 0.245580 1 0 1.000000
  0 -0.784279 -19.764950 13.976460 0.749305 0.000000 -0.662225 0.261830 0.234540 1 0 1.000000
woodcrates01a
  0 33.769329 -20.139238 -18.701019 0.000000 0.000000 -1.000000 0.610050 0.202430 1 0 1.000000
  0 32.769329 -20.071798 -18.701019 0.000000 0.000000 -1.000000 0.611280 0.192920 1 0 1.000000
  0 33.821461 18.937391 -18.701010 0.000000 0.000000 -1.000000 0.981090 0.202430 1 0 1.000000
woodcrates01a
  0 32.769329 -20.071798 -18.701019 0.000000 0.000000 -1.000000 0.611280 0.192920 1 0 1.000000
  0 32.769329 18.945911 -18.701010 0.000000 0.000000 -1.000000 0.980480 0.192470 1 0 1.000000
  0 33.821461 18.937391 -18.701010 0.000000 0.000000 -1.000000 0.981090 0.202430 1 0 1.000000
woodcrates01a
  0 33.769329 -20.139238 -15.714721 0.999999 -0.001330 0.000000 0.610050 0.230880 1 0 1.000000
  0 33.769329 -20.139238 -18.701019 0.999999 -0.001330 0.000000 0.610050 0.202430 1 0 1.000000
  0 33.821461 18.937391 -15.714719 0.999999 -0.001330 0.000000 0.981090 0.230880 1 0 1.000000
woodcrates01a
  0 33.769329 -20.139238 -18.701019 0.999999 -0.001330 0.000000 0.610050 0.202430 1 0 1.000000
  0 33.821461 18.937391 -18.701010 0.999999 -0.001330 0.000000 0.981090 0.202430 1 0 1.000000
  0 33.821461 18.937391 -15.714719 0.999999 -0.001330 0.000000 0.981090 0.230880 1 0 1.000000
woodcrates01a
  0 33.769329 -20.139238 -15.714721 0.000000 0.000000 1.000000 0.610050 0.230880 1 0 1.000000
  0 33.821461 18.937391 -15.714719 0.000000 0.000000 1.000000 0.981090 0.230880 1 0 1.000000
  0 32.769329 -20.071808 -15.714721 0.000000 0.000000 1.000000 0.611280 0.240380 1 0 1.000000
woodcrates01a
  0 32.769329 -20.071808 -15.714721 0.000000 0.000000 1.000000 0.611280 0.240380 1 0 1.000000
  0 33.821461 18.937391 -15.714719 0.000000 0.000000 1.000000 0.981090 0.230880 1 0 1.000000
  0 32.769329 18.945911 -15.714719 0.000000 0.000000 1.000000 0.980480 0.240840 1 0 1.000000
woodcrates01a
  0 32.769329 -20.071808 -15.714721 -0.067270 -0.997735 0.000000 0.600530 0.230880 1 0 1.000000
  0 32.769329 -20.071798 -18.701019 -0.067280 -0.997734 0.000000 0.600530 0.202430 1 0 1.000000
  0 33.769329 -20.139238 -15.714721 -0.067280 -0.997734 0.000000 0.610050 0.230880 1 0 1.000000
woodcrates01a
  0 32.769329 -20.071798 -18.701019 -0.067280 -0.997734 0.000000 0.600530 0.202430 1 0 1.000000
  0 33.769329 -20.139238 -18.701019 -0.067290 -0.997733 0.000000 0.610050 0.202430 1 0 1.000000
  0 33.769329 -20.139238 -15.714721 -0.067280 -0.997734 0.000000 0.610050 0.230880 1 0 1.000000
woodcrates01a
  0 -33.902130 -20.109480 -18.649370 0.000000 0.000000 -1.000000 0.609620 0.060050 1 0 1.000000
  0 -33.766708 -19.019970 -18.649370 0.000000 0.000000 -1.000000 0.609680 0.072060 1 0 1.000000
  0 1.088331 -20.019951 -18.649370 0.000000 0.000000 -1.000000 0.974870 0.060050 1 0 1.000000
woodcrates01a
  0 -33.766708 -19.019970 -18.649370 0.000000 0.000000 -1.000000 0.609680 0.072060 1 0 1.000000
  0 1.088331 -19.019951 -18.649370 0.000000 0.000000 -1.000000 0.974880 0.070370 1 0 1.000000
  0 1.088331 -20.019951 -18.649370 0.000000 0.000000 -1.000000 0.974870 0.060050 1 0 1.000000
woodcrates01a
  0 -33.902130 -20.175350 -15.714721 0.002550 -0.999745 -0.022440 0.609680 0.031210 1 0 1.000000
  0 -33.902130 -20.109480 -18.649370 0.002550 -0.999745 -0.022440 0.609620 0.060050 1 0 1.000000
  0 1.088331 -20.085819 -15.714721 0.002550 -0.999745 -0.022440 0.974930 0.031210 1 0 1.000000
woodcrates01a
  0 -33.902130 -20.109480 -18.649370 0.002550 -0.999745 -0.022440 0.609620 0.060050 1 0 1.000000
  0 1.088331 -20.019951 -18.649370 0.002550 -0.999745 -0.022440 0.974870 0.060050 1 0 1.000000
  0 1.088331 -20.085819 -15.714721 0.002550 -0.999745 -0.022440 0.974930 0.031210 1 0 1.000000
woodcrates01a
  0 -33.902130 -20.175350 -15.714721 0.000000 0.000000 1.000000 0.609680 0.031210 1 0 1.000000
  0 1.088331 -20.085819 -15.714721 0.000000 0.000000 1.000000 0.974930 0.031210 1 0 1.000000
  0 -33.766708 -19.085840 -15.714721 0.000000 0.000000 1.000000 0.609740 0.019200 1 0 1.000000
woodcrates01a
  0 -33.766708 -19.085840 -15.714721 0.000000 0.000000 1.000000 0.609740 0.019200 1 0 1.000000
  0 1.088331 -20.085819 -15.714721 0.000000 0.000000 1.000000 0.974930 0.031210 1 0 1.000000
  0 1.088331 -19.085819 -15.714721 0.000000 0.000000 1.000000 0.974940 0.020890 1 0 1.000000
woodcrates01a
  0 -33.766708 -19.019970 -18.649370 -0.992362 0.123330 0.002760 0.597610 0.060030 1 0 1.000000
  0 -33.902130 -20.109480 -18.649370 -0.992362 0.123330 0.002760 0.609620 0.060050 1 0 1.000000
  0 -33.766708 -19.085840 -15.714721 -0.992362 0.123330 0.002760 0.597670 0.031190 1 0 1.000000
woodcrates01a
  0 -33.766708 -19.085840 -15.714721 -0.992362 0.123330 0.002760 0.597670 0.031190 1 0 1.000000
  0 -33.902130 -20.109480 -18.649370 -0.992362 0.123330 0.002760 0.609620 0.060050 1 0 1.000000
  0 -33.902130 -20.175350 -15.714721 -0.992362 0.123330 0.002760 0.609680 0.031210 1 0 1.000000
woodcrates01a
  0 1.088369 20.037279 -18.701010 0.000000 0.000000 -1.000000 0.207130 0.304680 1 0 1.000000
  0 1.088369 18.937389 -18.701010 0.000000 0.000000 -1.000000 0.195590 0.304740 1 0 1.000000
  0 -32.710430 19.930370 -18.701010 0.000000 0.000000 -1.000000 0.207130 0.651440 1 0 1.000000
woodcrates01a
  0 1.088369 18.937389 -18.701010 0.000000 0.000000 -1.000000 0.195590 0.304740 1 0 1.000000
  0 -32.706268 18.937389 -18.701010 0.000000 0.000000 -1.000000 0.197210 0.651450 1 0 1.000000
  0 -32.710430 19.930370 -18.701010 0.000000 0.000000 -1.000000 0.207130 0.651440 1 0 1.000000
woodcrates01a
  0 1.088369 20.137680 -15.714719 -0.006130 0.999417 -0.033590 0.236940 0.304740 1 0 1.000000
  0 1.088369 20.037279 -18.701010 -0.004640 0.999848 -0.016800 0.207130 0.304680 1 0 1.000000
  0 -32.710430 19.930370 -15.714719 -0.004640 0.999848 -0.016800 0.236940 0.651500 1 0 1.000000
woodcrates01a
  0 1.088369 20.037279 -18.701010 -0.004640 0.999848 -0.016800 0.207130 0.304680 1 0 1.000000
  0 -32.710430 19.930370 -18.701010 -0.003160 0.999995 0.000000 0.207130 0.651440 1 0 1.000000
  0 -32.710430 19.930370 -15.714719 -0.004640 0.999848 -0.016800 0.236940 0.651500 1 0 1.000000
woodcrates01a
  0 1.088369 18.937389 -15.714719 0.000000 0.000000 1.000000 0.248480 0.304800 1 0 1.000000
  0 1.088369 20.137680 -15.714719 0.000000 0.000000 1.000000 0.236940 0.304740 1 0 1.000000
  0 -32.706268 18.937389 -15.714719 0.000000 0.000000 1.000000 0.246860 0.651510 1 0 1.000000
woodcrates01a
  0 1.088369 20.137680 -15.714719 0.000000 0.000000 1.000000 0.236940 0.304740 1 0 1.000000
  0 -32.710430 19.930370 -15.714719 0.000000 0.000000 1.000000 0.236940 0.651500 1 0 1.000000
  0 -32.706268 18.937389 -15.714719 0.000000 0.000000 1.000000 0.246860 0.651510 1 0 1.000000
woodcrates01a
  0 1.088369 20.137680 -15.714719 1.000000 0.000000 0.000000 0.236940 0.304740 1 0 1.000000
  0 1.088369 18.937389 -15.714719 1.000000 0.000000 0.000000 0.236970 0.293210 1 0 1.000000
  0 1.088369 20.037279 -18.701010 1.000000 0.000000 0.000000 0.207130 0.304680 1 0 1.000000
woodcrates01a
  0 1.088369 18.937389 -15.714719 1.000000 0.000000 0.000000 0.236970 0.293210 1 0 1.000000
  0 1.088369 18.937389 -18.701010 1.000000 0.000000 0.000000 0.207150 0.293150 1 0 1.000000
  0 1.088369 20.037279 -18.701010 1.000000 0.000000 0.000000 0.207130 0.304680 1 0 1.000000
woodcrates01a
  0 1.088369 20.037279 15.782141 0.000000 0.000000 -1.000000 0.144330 0.267920 1 0 1.000000
  0 1.088369 18.937389 15.782141 0.000000 0.000000 -1.000000 0.132320 0.267990 1 0 1.000000
  0 -32.710430 19.930368 15.782141 0.000000 0.000000 -1.000000 0.144330 0.597280 1 0 1.000000
woodcrates01a
  0 1.088369 18.937389 15.782141 0.000000 0.000000 -1.000000 0.132320 0.267990 1 0 1.000000
  0 -32.706268 18.937387 15.782141 0.000000 0.000000 -1.000000 0.134000 0.597290 1 0 1.000000
  0 -32.710430 19.930368 15.782141 0.000000 0.000000 -1.000000 0.144330 0.597280 1 0 1.000000
woodcrates01a
  0 1.088369 20.037279 18.768431 -0.003160 0.999995 0.000000 0.175380 0.267990 1 0 1.000000
  0 1.088369 20.037279 15.782141 -0.003160 0.999995 0.000000 0.144330 0.267920 1 0 1.000000
  0 -32.710430 19.930368 18.768440 -0.003160 0.999995 0.000000 0.175380 0.597340 1 0 1.000000
woodcrates01a
  0 1.088369 20.037279 15.782141 -0.003160 0.999995 0.000000 0.144330 0.267920 1 0 1.000000
  0 -32.710430 19.930368 15.782141 -0.003160 0.999995 0.000000 0.144330 0.597280 1 0 1.000000
  0 -32.710430 19.930368 18.768440 -0.003160 0.999995 0.000000 0.175380 0.597340 1 0 1.000000
woodcrates01a
  0 1.088369 18.937389 18.768431 0.000000 0.000000 1.000000 0.187380 0.268050 1 0 1.000000
  0 1.088369 20.037279 18.768431 0.000000 0.000000 1.000000 0.175380 0.267990 1 0 1.000000
  0 -32.706268 18.937387 18.768440 0.000000 0.000000 1.000000 0.185700 0.597350 1 0 1.000000
woodcrates01a
  0 1.088369 20.037279 18.768431 0.000000 0.000000 1.000000 0.175380 0.267990 1 0 1.000000
  0 -32.710430 19.930368 18.768440 0.000000 0.000000 1.000000 0.175380 0.597340 1 0 1.000000
  0 -32.706268 18.937387 18.768440 0.000000 0.000000 1.000000 0.185700 0.597350 1 0 1.000000
woodcrates01a
  0 1.088369 18.937389 18.768431 1.000000 0.000000 0.000000 0.175400 0.255980 1 0 1.000000
  0 1.088369 18.937389 15.782141 1.000000 0.000000 0.000000 0.144350 0.255920 1 0 1.000000
  0 1.088369 20.037279 18.768431 1.000000 0.000000 0.000000 0.175380 0.267990 1 0 1.000000
woodcrates01a
  0 1.088369 18.937389 15.782141 1.000000 0.000000 0.000000 0.144350 0.255920 1 0 1.000000
  0 1.088369 20.037279 15.782141 1.000000 0.000000 0.000000 0.144330 0.267920 1 0 1.000000
  0 1.088369 20.037279 18.768431 1.000000 0.000000 0.000000 0.175380 0.267990 1 0 1.000000
woodcrates01a
  0 -33.902130 -20.175352 15.782139 0.000000 0.000000 -1.000000 0.205820 0.272170 1 0 1.000000
  0 -33.766708 -19.085842 15.782139 0.000000 0.000000 -1.000000 0.193810 0.272230 1 0 1.000000
  0 1.088331 -20.078819 15.782129 0.000000 0.000000 -1.000000 0.205820 0.601520 1 0 1.000000
woodcrates01a
  0 -33.766708 -19.085842 15.782139 0.000000 0.000000 -1.000000 0.193810 0.272230 1 0 1.000000
  0 1.088331 -19.085819 15.782129 0.000000 0.000000 -1.000000 0.195490 0.601530 1 0 1.000000
  0 1.088331 -20.078819 15.782129 0.000000 0.000000 -1.000000 0.205820 0.601520 1 0 1.000000
woodcrates01a
  0 -33.902130 -20.175352 18.768440 0.002750 -0.999996 0.000000 0.236870 0.272230 1 0 1.000000
  0 -33.902130 -20.175352 15.782139 0.002750 -0.999996 0.000000 0.205820 0.272170 1 0 1.000000
  0 1.088331 -20.078819 18.768431 0.002750 -0.999996 0.000000 0.236870 0.601580 1 0 1.000000
woodcrates01a
  0 -33.902130 -20.175352 15.782139 0.002750 -0.999996 0.000000 0.205820 0.272170 1 0 1.000000
  0 1.088331 -20.078819 15.782129 0.002750 -0.999996 0.000000 0.205820 0.601520 1 0 1.000000
  0 1.088331 -20.078819 18.768431 0.002750 -0.999996 0.000000 0.236870 0.601580 1 0 1.000000
woodcrates01a
  0 -33.902130 -20.175352 18.768440 0.000000 0.000000 1.000000 0.236870 0.272230 1 0 1.000000
  0 1.088331 -20.078819 18.768431 0.000000 0.000000 1.000000 0.236870 0.601580 1 0 1.000000
  0 -33.766708 -19.085842 18.768440 0.000000 0.000000 1.000000 0.248870 0.272290 1 0 1.000000
woodcrates01a
  0 -33.766708 -19.085842 18.768440 0.000000 0.000000 1.000000 0.248870 0.272290 1 0 1.000000
  0 1.088331 -20.078819 18.768431 0.000000 0.000000 1.000000 0.236870 0.601580 1 0 1.000000
  0 1.088331 -19.085819 18.768431 0.000000 0.000000 1.000000 0.247190 0.601590 1 0 1.000000
woodcrates01a
  0 -33.766708 -19.085842 18.768440 -0.992364 0.123340 0.000000 0.236890 0.260220 1 0 1.000000
  0 -33.766708 -19.085842 15.782139 -0.992364 0.123340 0.000000 0.205840 0.260160 1 0 1.000000
  0 -33.902130 -20.175352 18.768440 -0.992364 0.123340 0.000000 0.236870 0.272230 1 0 1.000000
woodcrates01a
  0 -33.766708 -19.085842 15.782139 -0.992364 0.123340 0.000000 0.205840 0.260160 1 0 1.000000
  0 -33.902130 -20.175352 15.782139 -0.992364 0.123340 0.000000 0.205820 0.272170 1 0 1.000000
  0 -33.902130 -20.175352 18.768440 -0.992364 0.123340 0.000000 0.236870 0.272230 1 0 1.000000
woodcrates01a
  0 33.902142 20.037279 15.782141 0.000000 0.000000 -1.000000 0.237020 0.273240 1 0 1.000000
  0 33.821461 18.937389 15.782141 0.000000 0.000000 -1.000000 0.247990 0.274960 1 0 1.000000
  0 1.088359 19.930370 15.782141 0.000000 0.000000 -1.000000 0.237020 0.602630 1 0 1.000000
woodcrates01a
  0 33.821461 18.937389 15.782141 0.000000 0.000000 -1.000000 0.247990 0.274960 1 0 1.000000
  0 1.088359 18.937389 15.782141 0.000000 0.000000 -1.000000 0.246930 0.601770 1 0 1.000000
  0 1.088359 19.930370 15.782141 0.000000 0.000000 -1.000000 0.237020 0.602630 1 0 1.000000
woodcrates01a
  0 33.902142 20.037279 18.768440 -0.003250 0.999995 0.000000 0.206880 0.273240 1 0 1.000000
  0 33.902142 20.037279 15.782141 -0.003250 0.999995 0.000000 0.237020 0.273240 1 0 1.000000
  0 1.088359 19.930370 18.768431 -0.003250 0.999995 0.000000 0.206880 0.602630 1 0 1.000000
woodcrates01a
  0 33.902142 20.037279 15.782141 -0.003250 0.999995 0.000000 0.237020 0.273240 1 0 1.000000
  0 1.088359 19.930370 15.782141 -0.003250 0.999995 0.000000 0.237020 0.602630 1 0 1.000000
  0 1.088359 19.930370 18.768431 -0.003250 0.999995 0.000000 0.206880 0.602630 1 0 1.000000
woodcrates01a
  0 33.902142 20.037279 18.768440 0.000000 0.000000 1.000000 0.206880 0.273240 1 0 1.000000
  0 1.088359 19.930370 18.768431 0.000000 0.000000 1.000000 0.206880 0.602630 1 0 1.000000
  0 33.821461 18.937389 18.768440 0.000000 0.000000 1.000000 0.195900 0.274960 1 0 1.000000
woodcrates01a
  0 33.821461 18.937389 18.768440 0.000000 0.000000 1.000000 0.195900 0.274960 1 0 1.000000
  0 1.088359 19.930370 18.768431 0.000000 0.000000 1.000000 0.206880 0.602630 1 0 1.000000
  0 1.088359 18.937389 18.768431 0.000000 0.000000 1.000000 0.196960 0.601770 1 0 1.000000
woodcrates01a
  0 33.821461 18.937389 18.768440 0.997320 -0.073161 0.000000 0.206880 0.262230 1 0 1.000000
  0 33.821461 18.937389 15.782141 0.997320 -0.073161 0.000000 0.237020 0.262230 1 0 1.000000
  0 33.902142 20.037279 18.768440 0.997320 -0.073161 0.000000 0.206880 0.273240 1 0 1.000000
woodcrates01a
  0 33.821461 18.937389 15.782141 0.997320 -0.073161 0.000000 0.237020 0.262230 1 0 1.000000
  0 33.902142 20.037279 15.782141 0.997320 -0.073161 0.000000 0.237020 0.273240 1 0 1.000000
  0 33.902142 20.037279 18.768440 0.997320 -0.073161 0.000000 0.206880 0.273240 1 0 1.000000
woodcrates01a
  0 1.088341 -20.237850 15.720479 0.001940 0.000000 -0.999998 0.144330 0.267920 1 0 1.000000
  0 1.088331 -19.082920 15.720479 0.001940 0.000000 -0.999998 0.132320 0.267990 1 0 1.000000
  0 32.765171 -20.078819 15.782129 0.001940 0.000000 -0.999998 0.144330 0.597280 1 0 1.000000
woodcrates01a
  0 1.088331 -19.082920 15.720479 0.001940 0.000000 -0.999998 0.132320 0.267990 1 0 1.000000
  0 32.761021 -19.085819 15.782129 0.001940 0.000000 -0.999998 0.134000 0.597290 1 0 1.000000
  0 32.765171 -20.078819 15.782129 0.001940 0.000000 -0.999998 0.144330 0.597280 1 0 1.000000
woodcrates01a
  0 1.088341 -20.237850 15.720479 0.005020 -0.999987 0.000000 0.144330 0.267920 1 0 1.000000
  0 32.765171 -20.078819 15.782129 0.005020 -0.999987 0.000000 0.144330 0.597280 1 0 1.000000
  0 1.088341 -20.237850 18.706779 0.005020 -0.999987 0.000000 0.175380 0.267990 1 0 1.000000
woodcrates01a
  0 1.088341 -20.237850 18.706779 0.005020 -0.999987 0.000000 0.175380 0.267990 1 0 1.000000
  0 32.765171 -20.078819 15.782129 0.005020 -0.999987 0.000000 0.144330 0.597280 1 0 1.000000
  0 32.765171 -20.078819 18.768440 0.005020 -0.999987 0.000000 0.175380 0.597340 1 0 1.000000
woodcrates01a
  0 1.088331 -19.082920 18.706779 -0.001940 0.000000 0.999998 0.187380 0.268050 1 0 1.000000
  0 1.088341 -20.237850 18.706779 -0.001940 0.000000 0.999998 0.175380 0.267990 1 0 1.000000
  0 32.761021 -19.085819 18.768440 -0.001940 0.000000 0.999998 0.185700 0.597350 1 0 1.000000
woodcrates01a
  0 1.088341 -20.237850 18.706779 -0.001940 0.000000 0.999998 0.175380 0.267990 1 0 1.000000
  0 32.765171 -20.078819 18.768440 -0.001940 0.000000 0.999998 0.175380 0.597340 1 0 1.000000
  0 32.761021 -19.085819 18.768440 -0.001940 0.000000 0.999998 0.185700 0.597350 1 0 1.000000
woodcrates01a
  0 1.088331 -19.082920 18.706779 -1.000000 0.000000 0.000000 0.175400 0.255980 1 0 1.000000
  0 1.088331 -19.082920 15.720479 -1.000000 0.000000 0.000000 0.144350 0.255920 1 0 1.000000
  0 1.088341 -20.237850 18.706779 -1.000000 0.000000 0.000000 0.175380 0.267990 1 0 1.000000
woodcrates01a
  0 1.088331 -19.082920 15.720479 -1.000000 0.000000 0.000000 0.144350 0.255920 1 0 1.000000
  0 1.088341 -20.237850 15.720479 -1.000000 0.000000 0.000000 0.144330 0.267920 1 0 1.000000
  0 1.088341 -20.237850 18.706779 -1.000000 0.000000 0.000000 0.175380 0.267990 1 0 1.000000
woodcrates01a
  0 1.088339 19.742790 20.059860 -0.002750 0.999719 -0.023520 0.115220 0.614260 1 0 1.000000
  0 1.088339 19.712219 18.760481 -0.002360 0.999928 -0.011760 0.128940 0.614160 1 0 1.000000
  0 -33.726250 19.643867 19.937969 -0.002360 0.999928 -0.011760 0.116070 0.981050 1 0 1.000000
woodcrates01a
  0 1.088339 19.712219 18.760481 -0.002360 0.999928 -0.011760 0.128940 0.614160 1 0 1.000000
  0 -33.726250 19.643867 18.752960 -0.001960 0.999998 0.000000 0.128290 0.980990 1 0 1.000000
  0 -33.726250 19.643867 19.937969 -0.002360 0.999928 -0.011760 0.116070 0.981050 1 0 1.000000
woodcrates01a
  0 1.088339 19.742790 20.059860 -0.003500 0.000000 0.999994 0.115220 0.614260 1 0 1.000000
  0 -33.726250 19.643867 19.937969 -0.003500 0.000000 0.999994 0.116070 0.981050 1 0 1.000000
  0 1.088339 16.726700 20.059860 -0.003500 0.000000 0.999994 0.074300 0.614300 1 0 1.000000
woodcrates01a
  0 1.088339 16.726700 20.059860 -0.003500 0.000000 0.999994 0.074300 0.614300 1 0 1.000000
  0 -33.726250 19.643867 19.937969 -0.003500 0.000000 0.999994 0.116070 0.981050 1 0 1.000000
  0 -33.726250 16.658339 19.937969 -0.003500 0.000000 0.999994 0.074400 0.981040 1 0 1.000000
woodcrates01a
  0 1.088339 16.726700 20.059860 0.001960 -0.999998 0.000000 0.074300 0.614300 1 0 1.000000
  0 -33.726250 16.658339 19.937969 0.001960 -0.999998 0.000000 0.074400 0.981040 1 0 1.000000
  0 1.088339 16.726700 18.760481 0.001960 -0.999998 0.000000 0.061730 0.614240 1 0 1.000000
woodcrates01a
  0 1.088339 16.726700 18.760481 0.001960 -0.999998 0.000000 0.061730 0.614240 1 0 1.000000
  0 -33.726250 16.658339 19.937969 0.001960 -0.999998 0.000000 0.074400 0.981040 1 0 1.000000
  0 -33.726250 16.658339 18.752960 0.001960 -0.999998 0.000000 0.061160 0.980970 1 0 1.000000
woodcrates01a
  0 -33.726250 16.658339 18.752960 -1.000000 0.000000 0.000000 0.074600 0.996800 1 0 1.000000
  0 -33.726250 16.658339 19.937969 -1.000000 0.000000 0.000000 0.074400 0.981040 1 0 1.000000
  0 -33.726250 19.643867 18.752960 -1.000000 0.000000 0.000000 0.115510 0.996410 1 0 1.000000
woodcrates01a
  0 -33.726250 16.658339 19.937969 -1.000000 0.000000 0.000000 0.074400 0.981040 1 0 1.000000
  0 -33.726250 19.643867 19.937969 -1.000000 0.000000 0.000000 0.116070 0.981050 1 0 1.000000
  0 -33.726250 19.643867 18.752960 -1.000000 0.000000 0.000000 0.115510 0.996410 1 0 1.000000
woodcrates01a
  0 1.088339 16.726700 18.760481 1.000000 0.000000 0.000000 0.074290 0.600710 1 0 1.000000
  0 1.088339 19.712219 18.760481 1.000000 0.000000 0.000000 0.115200 0.600670 1 0 1.000000
  0 1.088339 16.726700 20.059860 1.000000 0.000000 0.000000 0.074300 0.614300 1 0 1.000000
woodcrates01a
  0 1.088339 19.712219 18.760481 1.000000 0.000000 0.000000 0.115200 0.600670 1 0 1.000000
  0 1.088339 19.742790 20.059860 1.000000 0.000000 0.000000 0.115220 0.614260 1 0 1.000000
  0 1.088339 16.726700 20.059860 1.000000 0.000000 0.000000 0.074300 0.614300 1 0 1.000000
woodcrates01a
  0 1.088351 -17.158489 19.937969 0.003470 0.999557 0.029570 0.289680 0.123270 1 0 1.000000
  0 1.088351 -17.123421 18.752951 0.002970 0.999886 0.014790 0.289680 0.109440 1 0 1.000000
  0 -33.726250 -17.037373 19.937969 0.002970 0.999886 0.014790 0.660120 0.123270 1 0 1.000000
woodcrates01a
  0 1.088351 -17.123421 18.752951 0.002970 0.999886 0.014790 0.289680 0.109440 1 0 1.000000
  0 -33.726250 -17.037373 18.752960 0.002470 0.999997 0.000000 0.660120 0.109440 1 0 1.000000
  0 -33.726250 -17.037373 19.937969 0.002970 0.999886 0.014790 0.660120 0.123270 1 0 1.000000
woodcrates01a
  0 1.088351 -20.189421 19.857910 0.002170 -0.026400 0.999649 0.289510 0.162940 1 0 1.000000
  0 1.088351 -17.158489 19.937969 0.001080 -0.013200 0.999912 0.289680 0.123270 1 0 1.000000
  0 -33.726250 -20.022902 19.937969 0.001080 -0.013200 0.999912 0.660060 0.162340 1 0 1.000000
woodcrates01a
  0 1.088351 -17.158489 19.937969 0.001080 -0.013200 0.999912 0.289680 0.123270 1 0 1.000000
  0 -33.726250 -17.037373 19.937969 0.000000 0.000000 1.000000 0.660120 0.123270 1 0 1.000000
  0 -33.726250 -20.022902 19.937969 0.001080 -0.013200 0.999912 0.660060 0.162340 1 0 1.000000
woodcrates01a
  0 -33.726250 -20.022902 19.937969 -0.004780 -0.999988 0.000000 0.660060 0.162340 1 0 1.000000
  0 -33.726250 -20.022902 18.752960 -0.003620 -0.999333 -0.036330 0.660110 0.174690 1 0 1.000000
  0 1.088351 -20.189421 19.857910 -0.003620 -0.999333 -0.036330 0.289510 0.162940 1 0 1.000000
woodcrates01a
  0 1.088351 -20.108959 18.752951 -0.002460 -0.997356 -0.072621 0.289450 0.174290 1 0 1.000000
  0 1.088351 -20.189421 19.857910 -0.003620 -0.999333 -0.036330 0.289510 0.162940 1 0 1.000000
  0 -33.726250 -20.022902 18.752960 -0.003620 -0.999333 -0.036330 0.660110 0.174690 1 0 1.000000
woodcrates01a
  0 -33.726250 -20.022902 18.752960 -1.000000 0.000000 0.000000 0.672670 0.162370 1 0 1.000000
  0 -33.726250 -20.022902 19.937969 -1.000000 0.000000 0.000000 0.660060 0.162340 1 0 1.000000
  0 -33.726250 -17.037373 18.752960 -1.000000 0.000000 0.000000 0.672730 0.123290 1 0 1.000000
woodcrates01a
  0 -33.726250 -20.022902 19.937969 -1.000000 0.000000 0.000000 0.660060 0.162340 1 0 1.000000
  0 -33.726250 -17.037373 19.937969 -1.000000 0.000000 0.000000 0.660120 0.123270 1 0 1.000000
  0 -33.726250 -17.037373 18.752960 -1.000000 0.000000 0.000000 0.672730 0.123290 1 0 1.000000
woodcrates01a
  0 1.088351 -20.189421 19.857910 1.000000 0.000000 0.000000 0.289510 0.162940 1 0 1.000000
  0 1.088351 -20.108959 18.752951 1.000000 0.000000 0.000000 0.277740 0.162210 1 0 1.000000
  0 1.088351 -17.158489 19.937969 1.000000 0.000000 0.000000 0.289680 0.123270 1 0 1.000000
woodcrates01a
  0 1.088351 -20.108959 18.752951 1.000000 0.000000 0.000000 0.277740 0.162210 1 0 1.000000
  0 1.088351 -17.123421 18.752951 1.000000 0.000000 0.000000 0.277070 0.123140 1 0 1.000000
  0 1.088351 -17.158489 19.937969 1.000000 0.000000 0.000000 0.289680 0.123270 1 0 1.000000
woodcrates01a
  0 -30.410641 16.711477 19.729000 0.000000 0.000000 1.000000 0.207680 0.991550 1 0 1.000000
  0 -33.410641 16.711477 19.729000 0.000000 0.000000 1.000000 0.236690 0.991570 1 0 1.000000
  0 -30.410641 -16.996292 19.729000 0.000000 0.000000 1.000000 0.207680 0.665600 1 0 1.000000
woodcrates01a
  0 -33.410641 16.711477 19.729000 0.000000 0.000000 1.000000 0.236690 0.991570 1 0 1.000000
  0 -33.410641 -16.996292 19.729000 0.000000 0.000000 1.000000 0.236690 0.665620 1 0 1.000000
  0 -30.410641 -16.996292 19.729000 0.000000 0.000000 1.000000 0.207680 0.665600 1 0 1.000000
woodcrates01a
  0 -30.410641 16.711477 18.759979 1.000000 0.000000 0.000000 0.198310 0.991550 1 0 1.000000
  0 -30.410641 16.711477 19.729000 1.000000 0.000000 0.000000 0.207680 0.991550 1 0 1.000000
  0 -30.410641 -16.996292 18.759979 1.000000 0.000000 0.000000 0.198310 0.665600 1 0 1.000000
woodcrates01a
  0 -30.410641 16.711477 19.729000 1.000000 0.000000 0.000000 0.207680 0.991550 1 0 1.000000
  0 -30.410641 -16.996292 19.729000 1.000000 0.000000 0.000000 0.207680 0.665600 1 0 1.000000
  0 -30.410641 -16.996292 18.759979 1.000000 0.000000 0.000000 0.198310 0.665600 1 0 1.000000
woodcrates01a
  0 -33.410641 16.711477 19.729000 -1.000000 0.000000 0.000000 0.236690 0.991570 1 0 1.000000
  0 -33.410641 16.711477 18.759979 -1.000000 0.000000 0.000000 0.246060 0.991570 1 0 1.000000
  0 -33.410641 -16.996292 19.729000 -1.000000 0.000000 0.000000 0.236690 0.665620 1 0 1.000000
woodcrates01a
  0 -33.410641 16.711477 18.759979 -1.000000 0.000000 0.000000 0.246060 0.991570 1 0 1.000000
  0 -33.410641 -16.996292 18.759979 -1.000000 0.000000 0.000000 0.246060 0.665620 1 0 1.000000
  0 -33.410641 -16.996292 19.729000 -1.000000 0.000000 0.000000 0.236690 0.665620 1 0 1.000000
woodcrates01a
  0 -12.505001 16.711477 19.729000 0.000000 0.000000 1.000000 0.175400 0.318850 1 0 1.000000
  0 -12.202709 -17.103691 19.729000 0.000000 0.000000 1.000000 0.175400 0.644800 1 0 1.000000
  0 -9.505001 16.711477 19.729000 0.000000 0.000000 1.000000 0.146390 0.318870 1 0 1.000000
woodcrates01a
  0 -9.505001 16.711477 19.729000 0.000000 0.000000 1.000000 0.146390 0.318870 1 0 1.000000
  0 -12.202709 -17.103691 19.729000 0.000000 0.000000 1.000000 0.175400 0.644800 1 0 1.000000
  0 -9.202709 -17.103691 19.729000 0.000000 0.000000 1.000000 0.146390 0.644820 1 0 1.000000
woodcrates01a
  0 -9.505001 16.711477 18.759979 0.999960 0.008930 0.000000 0.137020 0.318870 1 0 1.000000
  0 -9.505001 16.711477 19.729000 0.999960 0.008930 0.000000 0.146390 0.318870 1 0 1.000000
  0 -9.202709 -17.103691 18.759979 0.999960 0.008930 0.000000 0.137020 0.644820 1 0 1.000000
woodcrates01a
  0 -9.505001 16.711477 19.729000 0.999960 0.008930 0.000000 0.146390 0.318870 1 0 1.000000
  0 -9.202709 -17.103691 19.729000 0.999960 0.008930 0.000000 0.146390 0.644820 1 0 1.000000
  0 -9.202709 -17.103691 18.759979 0.999960 0.008930 0.000000 0.137020 0.644820 1 0 1.000000
woodcrates01a
  0 -12.505001 16.711477 19.729000 -0.999960 -0.008930 0.000000 0.175400 0.318850 1 0 1.000000
  0 -12.505001 16.711477 18.759979 -0.999960 -0.008930 0.000000 0.184770 0.318850 1 0 1.000000
  0 -12.202709 -17.103691 19.729000 -0.999960 -0.008930 0.000000 0.175400 0.644800 1 0 1.000000
woodcrates01a
  0 -12.505001 16.711477 18.759979 -0.999960 -0.008930 0.000000 0.184770 0.318850 1 0 1.000000
  0 -12.202709 -17.103691 18.759979 -0.999960 -0.008930 0.000000 0.184770 0.644800 1 0 1.000000
  0 -12.202709 -17.103691 19.729000 -0.999960 -0.008930 0.000000 0.175400 0.644800 1 0 1.000000
woodcrates01a
  0 -9.607111 19.474581 -20.083611 0.000000 0.000000 -1.000000 0.075400 0.983090 1 0 1.000000
  0 -9.968119 -19.672831 -20.083611 0.000000 0.000000 -1.000000 0.075400 0.614410 1 0 1.000000
  0 -13.955611 19.360710 -20.083611 0.000000 0.000000 -1.000000 0.116350 0.983090 1 0 1.000000
woodcrates01a
  0 -13.955611 19.360710 -20.083611 0.000000 0.000000 -1.000000 0.116350 0.983090 1 0 1.000000
  0 -9.968119 -19.672831 -20.083611 0.000000 0.000000 -1.000000 0.075400 0.614410 1 0 1.000000
  0 -14.316629 -19.786711 -20.083611 0.000000 0.000000 -1.000000 0.116350 0.614410 1 0 1.000000
woodcrates01a
  0 -13.955611 19.360710 -18.670679 -0.999957 0.009220 0.000000 0.129650 0.983090 1 0 1.000000
  0 -13.955611 19.360710 -20.083611 -0.999957 0.009220 0.000000 0.116350 0.983090 1 0 1.000000
  0 -14.316629 -19.786711 -18.670679 -0.999957 0.009220 0.000000 0.129650 0.614410 1 0 1.000000
woodcrates01a
  0 -13.955611 19.360710 -20.083611 -0.999957 0.009220 0.000000 0.116350 0.983090 1 0 1.000000
  0 -14.316629 -19.786711 -20.083611 -0.999957 0.009220 0.000000 0.116350 0.614410 1 0 1.000000
  0 -14.316629 -19.786711 -18.670679 -0.999957 0.009220 0.000000 0.129650 0.614410 1 0 1.000000
woodcrates01a
  0 -9.607111 19.474581 -20.083611 0.999957 -0.009220 0.000000 0.075400 0.983090 1 0 1.000000
  0 -9.607111 19.474581 -18.670679 0.999957 -0.009220 0.000000 0.062100 0.983090 1 0 1.000000
  0 -9.968119 -19.672831 -20.083611 0.999957 -0.009220 0.000000 0.075400 0.614410 1 0 1.000000
woodcrates01a
  0 -9.607111 19.474581 -18.670679 0.999957 -0.009220 0.000000 0.062100 0.983090 1 0 1.000000
  0 -9.968119 -19.672831 -18.670679 0.999957 -0.009220 0.000000 0.062100 0.614410 1 0 1.000000
  0 -9.968119 -19.672831 -20.083611 0.999957 -0.009220 0.000000 0.075400 0.614410 1 0 1.000000
woodcrates01a
  0 -9.968119 -19.672831 -20.083611 0.026170 -0.999657 0.000000 0.075400 0.614410 1 0 1.000000
  0 -9.968119 -19.672831 -18.670679 0.026170 -0.999657 0.000000 0.075400 0.601110 1 0 1.000000
  0 -14.316629 -19.786711 -20.083611 0.026170 -0.999657 0.000000 0.116350 0.614410 1 0 1.000000
woodcrates01a
  0 -9.968119 -19.672831 -18.670679 0.026170 -0.999657 0.000000 0.075400 0.601110 1 0 1.000000
  0 -14.316629 -19.786711 -18.670679 0.026170 -0.999657 0.000000 0.116350 0.601110 1 0 1.000000
  0 -14.316629 -19.786711 -20.083611 0.026170 -0.999657 0.000000 0.116350 0.614410 1 0 1.000000
woodcrates01a
  0 -9.607111 19.474581 -20.083611 -0.026170 0.999657 0.000000 0.075400 0.983090 1 0 1.000000
  0 -13.955611 19.360710 -20.083611 -0.026170 0.999657 0.000000 0.116350 0.983090 1 0 1.000000
  0 -9.607111 19.474581 -18.670679 -0.026170 0.999657 0.000000 0.075400 0.996390 1 0 1.000000
woodcrates01a
  0 -13.955611 19.360710 -20.083611 -0.026170 0.999657 0.000000 0.116350 0.983090 1 0 1.000000
  0 -13.955611 19.360710 -18.670679 -0.026170 0.999657 0.000000 0.116350 0.996390 1 0 1.000000
  0 -9.607111 19.474581 -18.670679 -0.026170 0.999657 0.000000 0.075400 0.996390 1 0 1.000000
woodcrates01a
  0 -33.803089 20.001230 -18.701010 -0.000080 -0.001320 -0.999999 0.610050 0.202430 1 0 1.000000
  0 -32.710430 19.930370 -18.701010 -0.024560 -0.000650 -0.999698 0.611280 0.192920 1 0 1.000000
  0 -33.766708 -19.019970 -18.649370 -0.024560 -0.000650 -0.999698 0.986690 0.202430 1 0 1.000000
woodcrates01a
  0 -32.710430 19.930370 -18.701010 -0.024560 -0.000650 -0.999698 0.611280 0.192920 1 0 1.000000
  0 -32.714581 -19.094360 -18.701019 -0.049030 0.000000 -0.998797 0.986090 0.192470 1 0 1.000000
  0 -33.766708 -19.019970 -18.649370 -0.024560 -0.000650 -0.999698 0.986690 0.202430 1 0 1.000000
woodcrates01a
  0 -33.803089 20.001230 -15.714719 -0.999999 -0.000930 0.000000 0.610050 0.230880 1 0 1.000000
  0 -33.803089 20.001230 -18.701010 -0.999999 -0.000930 -0.000010 0.610050 0.202430 1 0 1.000000
  0 -33.766708 -19.085840 -15.714721 -0.999999 -0.000930 -0.000010 0.986690 0.230880 1 0 1.000000
woodcrates01a
  0 -33.803089 20.001230 -18.701010 -0.999999 -0.000930 -0.000010 0.610050 0.202430 1 0 1.000000
  0 -33.766708 -19.019970 -18.649370 -0.999999 -0.000930 -0.000020 0.986690 0.202430 1 0 1.000000
  0 -33.766708 -19.085840 -15.714721 -0.999999 -0.000930 -0.000010 0.986690 0.230880 1 0 1.000000
woodcrates01a
  0 -33.803089 20.001230 -15.714719 0.000000 0.000000 1.000000 0.610050 0.230880 1 0 1.000000
  0 -33.766708 -19.085840 -15.714721 0.000000 0.000000 1.000000 0.986690 0.230880 1 0 1.000000
  0 -32.710430 19.930370 -15.714719 0.000000 0.000000 1.000000 0.611280 0.240380 1 0 1.000000
woodcrates01a
  0 -32.710430 19.930370 -15.714719 0.000000 0.000000 1.000000 0.611280 0.240380 1 0 1.000000
  0 -33.766708 -19.085840 -15.714721 0.000000 0.000000 1.000000 0.986690 0.230880 1 0 1.000000
  0 -32.714581 -19.094360 -15.714721 0.000000 0.000000 1.000000 0.986090 0.240840 1 0 1.000000
woodcrates01a
  0 -32.710430 19.930370 -15.714719 0.064710 0.997904 0.000000 0.600530 0.230880 1 0 1.000000
  0 -32.710430 19.930370 -18.701010 0.064710 0.997904 0.000000 0.600530 0.202430 1 0 1.000000
  0 -33.803089 20.001230 -15.714719 0.064710 0.997904 0.000000 0.610050 0.230880 1 0 1.000000
woodcrates01a
  0 -32.710430 19.930370 -18.701010 0.064710 0.997904 0.000000 0.600530 0.202430 1 0 1.000000
  0 -33.803089 20.001230 -18.701010 0.064710 0.997904 0.000000 0.610050 0.202430 1 0 1.000000
  0 -33.803089 20.001230 -15.714719 0.064710 0.997904 0.000000 0.610050 0.230880 1 0 1.000000
woodcrates01a
  0 -29.713140 -19.958111 -15.739831 1.000000 0.000000 0.000000 0.284040 0.087330 1 0 1.000000
  0 -29.713140 -18.958111 -15.739831 1.000000 0.000000 0.000000 0.284040 0.096410 1 0 1.000000
  0 -29.713140 -19.958113 15.782139 1.000000 0.000000 0.000000 0.570030 0.087330 1 0 1.000000
woodcrates01a
  0 -29.713140 -18.958111 -15.739831 1.000000 0.000000 0.000000 0.284040 0.096410 1 0 1.000000
  0 -29.713140 -18.958113 15.782139 1.000000 0.000000 0.000000 0.570030 0.096410 1 0 1.000000
  0 -29.713140 -19.958113 15.782139 1.000000 0.000000 0.000000 0.570030 0.087330 1 0 1.000000
woodcrates01a
  0 -33.708191 -16.845409 -15.739831 -1.000000 0.000000 0.000000 0.284040 0.021810 1 0 1.000000
  0 -33.708191 -19.845409 -15.739831 -1.000000 0.000000 0.000000 0.284040 0.051130 1 0 1.000000
  0 -33.708191 -16.845411 15.782139 -1.000000 0.000000 0.000000 0.570030 0.021810 1 0 1.000000
woodcrates01a
  0 -33.708191 -19.845409 -15.739831 -1.000000 0.000000 0.000000 0.284040 0.051130 1 0 1.000000
  0 -33.708191 -19.845411 15.782139 -1.000000 0.000000 0.000000 0.570030 0.051130 1 0 1.000000
  0 -33.708191 -16.845411 15.782139 -1.000000 0.000000 0.000000 0.570030 0.021810 1 0 1.000000
woodcrates01a
  0 -32.708191 -16.845409 -15.739831 0.000000 1.000000 0.000000 0.284040 0.012740 1 0 1.000000
  0 -33.708191 -16.845409 -15.739831 0.000000 1.000000 0.000000 0.284040 0.021810 1 0 1.000000
  0 -32.708191 -16.845411 15.782139 0.000000 1.000000 0.000000 0.570030 0.012740 1 0 1.000000
woodcrates01a
  0 -33.708191 -16.845409 -15.739831 0.000000 1.000000 0.000000 0.284040 0.021810 1 0 1.000000
  0 -33.708191 -16.845411 15.782139 0.000000 1.000000 0.000000 0.570030 0.021810 1 0 1.000000
  0 -32.708191 -16.845411 15.782139 0.000000 1.000000 0.000000 0.570030 0.012740 1 0 1.000000
woodcrates01a
  0 -29.713140 -19.958113 15.782139 -0.028190 -0.999602 0.000000 0.570030 0.087330 1 0 1.000000
  0 -33.708191 -19.845411 15.782139 -0.028190 -0.999602 0.000000 0.570030 0.051130 1 0 1.000000
  0 -29.713140 -19.958111 -15.739831 -0.028190 -0.999602 0.000000 0.284040 0.087330 1 0 1.000000
woodcrates01a
  0 -33.708191 -19.845411 15.782139 -0.028190 -0.999602 0.000000 0.570030 0.051130 1 0 1.000000
  0 -33.708191 -19.845409 -15.739831 -0.028190 -0.999602 0.000000 0.284040 0.051130 1 0 1.000000
  0 -29.713140 -19.958111 -15.739831 -0.028190 -0.999602 0.000000 0.284040 0.087330 1 0 1.000000
woodcrates01a
  0 -33.708191 -2.176121 -15.739830 -1.000000 0.000000 0.000000 0.048430 0.025120 1 0 1.000000
  0 -33.708191 -2.131162 15.782140 -1.000000 0.000000 0.000000 0.048430 0.331230 1 0 1.000000
  0 -33.708191 0.823869 -15.739830 -1.000000 0.000000 0.000000 0.019290 0.025160 1 0 1.000000
woodcrates01a
  0 -33.708191 0.823869 -15.739830 -1.000000 0.000000 0.000000 0.019290 0.025160 1 0 1.000000
  0 -33.708191 -2.131162 15.782140 -1.000000 0.000000 0.000000 0.048430 0.331230 1 0 1.000000
  0 -33.708191 0.868828 15.782140 -1.000000 0.000000 0.000000 0.019290 0.331270 1 0 1.000000
woodcrates01a
  0 -32.708191 0.823869 -15.739830 0.000000 0.999999 -0.001420 0.009580 0.025160 1 0 1.000000
  0 -33.708191 0.823869 -15.739830 0.000000 0.999999 -0.001420 0.019290 0.025160 1 0 1.000000
  0 -32.708191 0.868828 15.782140 0.000000 0.999999 -0.001420 0.009580 0.331270 1 0 1.000000
woodcrates01a
  0 -33.708191 0.823869 -15.739830 0.000000 0.999999 -0.001420 0.019290 0.025160 1 0 1.000000
  0 -33.708191 0.868828 15.782140 0.000000 0.999999 -0.001420 0.019290 0.331270 1 0 1.000000
  0 -32.708191 0.868828 15.782140 0.000000 0.999999 -0.001420 0.009580 0.331270 1 0 1.000000
woodcrates01a
  0 -33.708191 -2.176121 -15.739830 0.000000 -0.999999 0.001420 0.048430 0.025120 1 0 1.000000
  0 -32.708191 -2.176121 -15.739830 0.000000 -0.999999 0.001420 0.058140 0.025120 1 0 1.000000
  0 -33.708191 -2.131162 15.782140 0.000000 -0.999999 0.001420 0.048430 0.331230 1 0 1.000000
woodcrates01a
  0 -32.708191 -2.176121 -15.739830 0.000000 -0.999999 0.001420 0.058140 0.025120 1 0 1.000000
  0 -32.708191 -2.131162 15.782140 0.000000 -0.999999 0.001420 0.058140 0.331230 1 0 1.000000
  0 -33.708191 -2.131162 15.782140 0.000000 -0.999999 0.001420 0.048430 0.331230 1 0 1.000000
woodcrates01a
  0 -33.803089 20.001228 15.782141 0.000000 0.000000 -1.000000 0.105620 0.611930 1 0 1.000000
  0 -32.710430 19.930368 15.782141 0.000000 0.000000 -1.000000 0.115120 0.613160 1 0 1.000000
  0 -33.766708 -19.085842 15.782139 0.000000 0.000000 -1.000000 0.105620 0.982970 1 0 1.000000
woodcrates01a
  0 -32.710430 19.930368 15.782141 0.000000 0.000000 -1.000000 0.115120 0.613160 1 0 1.000000
  0 -32.714581 -19.094362 15.782139 0.000000 0.000000 -1.000000 0.115580 0.982370 1 0 1.000000
  0 -33.766708 -19.085842 15.782139 0.000000 0.000000 -1.000000 0.105620 0.982970 1 0 1.000000
woodcrates01a
  0 -33.803089 20.001228 18.768440 -0.999999 -0.000930 0.000000 0.077160 0.611930 1 0 1.000000
  0 -33.803089 20.001228 15.782141 -0.999999 -0.000930 0.000000 0.105620 0.611930 1 0 1.000000
  0 -33.766708 -19.085842 18.768440 -0.999999 -0.000930 0.000000 0.077160 0.982970 1 0 1.000000
woodcrates01a
  0 -33.803089 20.001228 15.782141 -0.999999 -0.000930 0.000000 0.105620 0.611930 1 0 1.000000
  0 -33.766708 -19.085842 15.782139 -0.999999 -0.000930 0.000000 0.105620 0.982970 1 0 1.000000
  0 -33.766708 -19.085842 18.768440 -0.999999 -0.000930 0.000000 0.077160 0.982970 1 0 1.000000
woodcrates01a
  0 -33.803089 20.001228 18.768440 0.000000 0.000000 1.000000 0.077160 0.611930 1 0 1.000000
  0 -33.766708 -19.085842 18.768440 0.000000 0.000000 1.000000 0.077160 0.982970 1 0 1.000000
  0 -32.710430 19.930368 18.768440 0.000000 0.000000 1.000000 0.067660 0.613160 1 0 1.000000
woodcrates01a
  0 -32.710430 19.930368 18.768440 0.000000 0.000000 1.000000 0.067660 0.613160 1 0 1.000000
  0 -33.766708 -19.085842 18.768440 0.000000 0.000000 1.000000 0.077160 0.982970 1 0 1.000000
  0 -32.714581 -19.094362 18.768440 0.000000 0.000000 1.000000 0.067210 0.982370 1 0 1.000000
woodcrates01a
  0 -32.710430 19.930368 18.768440 0.064710 0.997904 0.000000 0.077160 0.602420 1 0 1.000000
  0 -32.710430 19.930368 15.782141 0.064710 0.997904 0.000000 0.105620 0.602420 1 0 1.000000
  0 -33.803089 20.001228 18.768440 0.064710 0.997904 0.000000 0.077160 0.611930 1 0 1.000000
woodcrates01a
  0 -32.710430 19.930368 15.782141 0.064710 0.997904 0.000000 0.105620 0.602420 1 0 1.000000
  0 -33.803089 20.001228 15.782141 0.064710 0.997904 0.000000 0.105620 0.611930 1 0 1.000000
  0 -33.803089 20.001228 18.768440 0.064710 0.997904 0.000000 0.077160 0.611930 1 0 1.000000
woodcrates01a
  0 -28.853741 19.390720 -20.083611 0.000000 0.000000 -1.000000 0.209880 0.193990 1 0 1.000000
  0 -29.195471 -19.028851 -20.083611 0.000000 0.000000 -1.000000 0.578560 0.193990 1 0 1.000000
  0 -33.203579 19.428680 -20.083611 0.000000 0.000000 -1.000000 0.209880 0.234940 1 0 1.000000
woodcrates01a
  0 -33.203579 19.428680 -20.083611 0.000000 0.000000 -1.000000 0.209880 0.234940 1 0 1.000000
  0 -29.195471 -19.028851 -20.083611 0.000000 0.000000 -1.000000 0.578560 0.193990 1 0 1.000000
  0 -33.545311 -18.990900 -20.083611 0.000000 0.000000 -1.000000 0.578560 0.234940 1 0 1.000000
woodcrates01a
  0 -33.203579 19.428680 -18.670679 -0.999960 0.008890 0.000000 0.209880 0.248240 1 0 1.000000
  0 -33.203579 19.428680 -20.083611 -0.999960 0.008890 0.000000 0.209880 0.234940 1 0 1.000000
  0 -33.545311 -18.990900 -18.670679 -0.999960 0.008890 0.000000 0.578560 0.248240 1 0 1.000000
woodcrates01a
  0 -33.203579 19.428680 -20.083611 -0.999960 0.008890 0.000000 0.209880 0.234940 1 0 1.000000
  0 -33.545311 -18.990900 -20.083611 -0.999960 0.008890 0.000000 0.578560 0.234940 1 0 1.000000
  0 -33.545311 -18.990900 -18.670679 -0.999960 0.008890 0.000000 0.578560 0.248240 1 0 1.000000
woodcrates01a
  0 -28.853741 19.390720 -20.083611 0.999960 -0.008890 0.000000 0.209880 0.193990 1 0 1.000000
  0 -28.853741 19.390720 -18.670679 0.999960 -0.008890 0.000000 0.209880 0.180680 1 0 1.000000
  0 -29.195471 -19.028851 -20.083611 0.999960 -0.008890 0.000000 0.578560 0.193990 1 0 1.000000
woodcrates01a
  0 -28.853741 19.390720 -18.670679 0.999960 -0.008890 0.000000 0.209880 0.180680 1 0 1.000000
  0 -29.195471 -19.028870 -18.670679 0.999960 -0.008890 0.000000 0.578560 0.180680 1 0 1.000000
  0 -29.195471 -19.028851 -20.083611 0.999960 -0.008890 0.000000 0.578560 0.193990 1 0 1.000000
woodcrates01a
  0 -29.195471 -19.028851 -20.083611 -0.008720 -0.999962 -0.000010 0.578560 0.193990 1 0 1.000000
  0 -29.195471 -19.028870 -18.670679 -0.008720 -0.999962 0.000000 0.591860 0.193990 1 0 1.000000
  0 -33.545311 -18.990900 -20.083611 -0.008720 -0.999962 0.000000 0.578560 0.234940 1 0 1.000000
woodcrates01a
  0 -29.195471 -19.028870 -18.670679 -0.008720 -0.999962 0.000000 0.591860 0.193990 1 0 1.000000
  0 -33.545311 -18.990900 -18.670679 -0.008720 -0.999962 0.000000 0.591860 0.234940 1 0 1.000000
  0 -33.545311 -18.990900 -20.083611 -0.008720 -0.999962 0.000000 0.578560 0.234940 1 0 1.000000
woodcrates01a
  0 -28.853741 19.390720 -20.083611 0.008720 0.999962 0.000000 0.209880 0.193990 1 0 1.000000
  0 -33.203579 19.428680 -20.083611 0.008720 0.999962 0.000000 0.209880 0.234940 1 0 1.000000
  0 -28.853741 19.390720 -18.670679 0.008720 0.999962 0.000000 0.196580 0.193990 1 0 1.000000
woodcrates01a
  0 -33.203579 19.428680 -20.083611 0.008720 0.999962 0.000000 0.209880 0.234940 1 0 1.000000
  0 -33.203579 19.428680 -18.670679 0.008720 0.999962 0.000000 0.196580 0.234940 1 0 1.000000
  0 -28.853741 19.390720 -18.670679 0.008720 0.999962 0.000000 0.196580 0.193990 1 0 1.000000
woodcrates01a
  0 30.054819 18.952209 19.246071 0.000000 0.000000 1.000000 0.951530 1.016480 1 0 1.000000
  0 9.854499 18.952209 19.246071 0.000000 0.000000 1.000000 0.829950 1.016480 1 0 1.000000
  0 30.054819 -19.021811 19.246071 0.000000 0.000000 1.000000 0.951530 0.602440 1 0 1.000000
woodcrates01a
  0 9.854499 18.952209 19.246071 0.000000 0.000000 1.000000 0.829950 1.016480 1 0 1.000000
  0 9.854511 -19.021811 19.246071 0.000000 0.000000 1.000000 0.822420 0.602440 1 0 1.000000
  0 30.054819 -19.021811 19.246071 0.000000 0.000000 1.000000 0.951530 0.602440 1 0 1.000000
woodcrates01a
  0 9.854499 18.952209 19.246071 0.000000 0.000000 1.000000 0.594390 0.252850 1 0 1.000000
  0 -10.345811 18.952198 19.246071 0.000000 0.000000 1.000000 0.594390 0.435380 1 0 1.000000
  0 9.854511 -19.021811 19.246071 0.000000 0.000000 1.000000 0.278780 0.246590 1 0 1.000000
woodcrates01a
  0 -10.345811 18.952198 19.246071 0.000000 0.000000 1.000000 0.594390 0.435380 1 0 1.000000
  0 -10.345809 -19.021822 19.246071 0.000000 0.000000 1.000000 0.278780 0.437170 1 0 1.000000
  0 9.854511 -19.021811 19.246071 0.000000 0.000000 1.000000 0.278780 0.246590 1 0 1.000000
woodcrates01a
  0 -10.345811 18.952198 19.246071 0.000000 0.000000 1.000000 0.592880 0.439860 1 0 1.000000
  0 -30.559111 18.952198 19.246071 0.000000 0.000000 1.000000 0.592880 0.592340 1 0 1.000000
  0 -10.345809 -19.021822 19.246071 0.000000 0.000000 1.000000 0.279120 0.443390 1 0 1.000000
woodcrates01a
  0 -30.559111 18.952198 19.246071 0.000000 0.000000 1.000000 0.592880 0.592340 1 0 1.000000
  0 -30.559099 -19.021822 19.246071 0.000000 0.000000 1.000000 0.279120 0.592340 1 0 1.000000
  0 -10.345809 -19.021822 19.246071 0.000000 0.000000 1.000000 0.279120 0.443390 1 0 1.000000
woodcrates01a
  0 -32.763512 18.952198 18.768520 -1.000000 0.000000 0.000000 0.257700 0.623920 1 0 1.000000
  0 -32.763512 18.952200 -18.670710 -1.000000 0.000000 0.000000 0.618120 0.623920 1 0 1.000000
  0 -32.763500 -19.021832 18.768520 -1.000000 0.000000 0.000000 0.257700 0.984580 1 0 1.000000
woodcrates01a
  0 -32.763512 18.952200 -18.670710 -1.000000 0.000000 0.000000 0.618120 0.623920 1 0 1.000000
  0 -32.763500 -19.021830 -18.670719 -1.000000 0.000000 0.000000 0.618120 0.984580 1 0 1.000000
  0 -32.763500 -19.021832 18.768520 -1.000000 0.000000 0.000000 0.257700 0.984580 1 0 1.000000
woodcrates01a
  0 -32.763500 -19.021830 -18.670719 0.000000 -1.000000 0.000000 0.259000 0.996470 1 0 1.000000
  0 1.088341 -19.021830 -18.670719 0.000000 -1.000000 0.000000 0.259000 0.635730 1 0 1.000000
  0 -32.763500 -19.021832 18.768520 0.000000 -1.000000 0.000000 0.610660 0.996470 1 0 1.000000
woodcrates01a
  0 1.088341 -19.021830 -18.670719 0.000000 -1.000000 0.000000 0.259000 0.635730 1 0 1.000000
  0 1.088341 -19.021811 18.768520 0.000000 -1.000000 0.000000 0.610660 0.635730 1 0 1.000000
  0 -32.763500 -19.021832 18.768520 0.000000 -1.000000 0.000000 0.610660 0.996470 1 0 1.000000
woodcrates01a
  0 -32.763512 18.952200 -18.670710 0.000000 1.000000 0.000000 0.260350 0.254270 1 0 1.000000
  0 -32.763512 18.952198 18.768520 0.000000 1.000000 0.000000 0.615880 0.254270 1 0 1.000000
  0 1.088329 18.952209 -18.670710 0.000000 1.000000 0.000000 0.260350 0.620950 1 0 1.000000
woodcrates01a
  0 -32.763512 18.952198 18.768520 0.000000 1.000000 0.000000 0.615880 0.254270 1 0 1.000000
  0 1.088329 18.952209 18.768520 0.000000 1.000000 0.000000 0.615880 0.620950 1 0 1.000000
  0 1.088329 18.952209 -18.670710 0.000000 1.000000 0.000000 0.260350 0.620950 1 0 1.000000
woodcrates01a
  0 -33.751411 16.019279 -15.739829 0.000000 -1.000000 0.000000 0.706910 0.168530 1 0 1.000000
  0 -32.751411 16.019279 -15.739829 0.000000 -1.000000 0.000000 0.706910 0.177600 1 0 1.000000
  0 -33.751411 16.019278 15.782141 0.000000 -1.000000 0.000000 0.992910 0.168530 1 0 1.000000
woodcrates01a
  0 -32.751411 16.019279 -15.739829 0.000000 -1.000000 0.000000 0.706910 0.177600 1 0 1.000000
  0 -32.751411 16.019278 15.782141 0.000000 -1.000000 0.000000 0.992910 0.177600 1 0 1.000000
  0 -33.751411 16.019278 15.782141 0.000000 -1.000000 0.000000 0.992910 0.168530 1 0 1.000000
woodcrates01a
  0 -30.715460 19.897680 -15.739829 0.000000 1.000000 0.000000 0.706910 0.103010 1 0 1.000000
  0 -33.715462 19.897680 -15.739829 0.000000 1.000000 0.000000 0.706910 0.132330 1 0 1.000000
  0 -30.715460 19.897678 15.782141 0.000000 1.000000 0.000000 0.992910 0.103010 1 0 1.000000
woodcrates01a
  0 -33.715462 19.897680 -15.739829 0.000000 1.000000 0.000000 0.706910 0.132330 1 0 1.000000
  0 -33.715462 19.897678 15.782141 0.000000 1.000000 0.000000 0.992910 0.132330 1 0 1.000000
  0 -30.715460 19.897678 15.782141 0.000000 1.000000 0.000000 0.992910 0.103010 1 0 1.000000
woodcrates01a
  0 -30.715460 18.897680 -15.739829 1.000000 0.000000 0.000000 0.706910 0.093940 1 0 1.000000
  0 -30.715460 19.897680 -15.739829 1.000000 0.000000 0.000000 0.706910 0.103010 1 0 1.000000
  0 -30.715460 18.897678 15.782141 1.000000 0.000000 0.000000 0.992910 0.093940 1 0 1.000000
woodcrates01a
  0 -30.715460 19.897680 -15.739829 1.000000 0.000000 0.000000 0.706910 0.103010 1 0 1.000000
  0 -30.715460 19.897678 15.782141 1.000000 0.000000 0.000000 0.992910 0.103010 1 0 1.000000
  0 -30.715460 18.897678 15.782141 1.000000 0.000000 0.000000 0.992910 0.093940 1 0 1.000000
woodcrates01a
  0 -33.751411 16.019278 15.782141 -0.999957 0.009260 0.000000 0.992910 0.168530 1 0 1.000000
  0 -33.715462 19.897678 15.782141 -0.999957 0.009260 0.000000 0.992910 0.132330 1 0 1.000000
  0 -33.751411 16.019279 -15.739829 -0.999957 0.009260 0.000000 0.706910 0.168530 1 0 1.000000
woodcrates01a
  0 -33.715462 19.897678 15.782141 -0.999957 0.009260 0.000000 0.992910 0.132330 1 0 1.000000
  0 -33.715462 19.897680 -15.739829 -0.999957 0.009260 0.000000 0.706910 0.132330 1 0 1.000000
  0 -33.751411 16.019279 -15.739829 -0.999957 0.009260 0.000000 0.706910 0.168530 1 0 1.000000
woodcrates01a
  0 33.070621 19.643869 19.937969 0.000000 1.000000 0.000000 0.289680 0.123270 1 0 1.000000
  0 33.070621 19.643869 18.752960 0.000000 1.000000 0.000000 0.289680 0.109440 1 0 1.000000
  0 1.088319 19.643869 19.937969 0.000000 1.000000 0.000000 0.660120 0.123270 1 0 1.000000
woodcrates01a
  0 33.070621 19.643869 18.752960 0.000000 1.000000 0.000000 0.289680 0.109440 1 0 1.000000
  0 1.088319 19.643869 18.752960 0.000000 1.000000 0.000000 0.660120 0.109440 1 0 1.000000
  0 1.088319 19.643869 19.937969 0.000000 1.000000 0.000000 0.660120 0.123270 1 0 1.000000
woodcrates01a
  0 33.070621 19.643869 19.937969 0.000000 0.000000 1.000000 0.289680 0.123270 1 0 1.000000
  0 1.088319 19.643869 19.937969 0.000000 0.000000 1.000000 0.660120 0.123270 1 0 1.000000
  0 33.070621 16.658350 19.937969 0.000000 0.000000 1.000000 0.289510 0.162940 1 0 1.000000
woodcrates01a
  0 33.070621 16.658350 19.937969 0.000000 0.000000 1.000000 0.289510 0.162940 1 0 1.000000
  0 1.088319 19.643869 19.937969 0.000000 0.000000 1.000000 0.660120 0.123270 1 0 1.000000
  0 1.088319 16.569691 19.937969 0.000000 0.000000 1.000000 0.660060 0.162340 1 0 1.000000
woodcrates01a
  0 1.088319 16.569691 19.937969 0.002760 -0.997210 -0.074601 0.660060 0.162340 1 0 1.000000
  0 1.088319 16.658340 18.752960 0.001380 -0.999302 -0.037320 0.660110 0.174690 1 0 1.000000
  0 33.070621 16.658350 19.937969 0.001380 -0.999302 -0.037320 0.289510 0.162940 1 0 1.000000
woodcrates01a
  0 33.070621 16.658350 18.752960 0.000000 -1.000000 0.000000 0.289450 0.174290 1 0 1.000000
  0 33.070621 16.658350 19.937969 0.001380 -0.999302 -0.037320 0.289510 0.162940 1 0 1.000000
  0 1.088319 16.658340 18.752960 0.001380 -0.999302 -0.037320 0.660110 0.174690 1 0 1.000000
woodcrates01a
  0 1.088319 16.569691 19.937969 -1.000000 0.000000 0.000000 0.660060 0.162340 1 0 1.000000
  0 1.088319 19.643869 19.937969 -1.000000 0.000000 0.000000 0.660120 0.123270 1 0 1.000000
  0 1.088319 16.658340 18.752960 -1.000000 0.000000 0.000000 0.672670 0.162370 1 0 1.000000
woodcrates01a
  0 1.088319 16.658340 18.752960 -1.000000 0.000000 0.000000 0.672670 0.162370 1 0 1.000000
  0 1.088319 19.643869 19.937969 -1.000000 0.000000 0.000000 0.660120 0.123270 1 0 1.000000
  0 1.088319 19.643869 18.752960 -1.000000 0.000000 0.000000 0.672730 0.123290 1 0 1.000000
woodcrates01a
  0 33.070621 16.658350 18.752960 1.000000 0.000000 0.000000 0.277740 0.162210 1 0 1.000000
  0 33.070621 19.643869 18.752960 1.000000 0.000000 0.000000 0.277070 0.123140 1 0 1.000000
  0 33.070621 16.658350 19.937969 1.000000 0.000000 0.000000 0.289510 0.162940 1 0 1.000000
woodcrates01a
  0 33.070621 19.643869 18.752960 1.000000 0.000000 0.000000 0.277070 0.123140 1 0 1.000000
  0 33.070621 19.643869 19.937969 1.000000 0.000000 0.000000 0.289680 0.123270 1 0 1.000000
  0 33.070621 16.658350 19.937969 1.000000 0.000000 0.000000 0.289510 0.162940 1 0 1.000000
woodcrates01a
  0 1.088331 -17.037359 18.708679 0.000000 0.999007 -0.044540 0.128290 0.980990 1 0 1.000000
  0 1.088331 -16.977680 20.047199 0.000960 0.999751 -0.022270 0.116070 0.981050 1 0 1.000000
  0 33.070629 -17.037380 18.752960 0.000960 0.999751 -0.022270 0.128940 0.614160 1 0 1.000000
woodcrates01a
  0 33.070629 -17.037380 19.937969 0.001860 0.999998 0.000000 0.115220 0.614260 1 0 1.000000
  0 33.070629 -17.037380 18.752960 0.000960 0.999751 -0.022270 0.128940 0.614160 1 0 1.000000
  0 1.088331 -16.977680 20.047199 0.000960 0.999751 -0.022270 0.116070 0.981050 1 0 1.000000
woodcrates01a
  0 33.070629 -20.022890 19.937969 0.004550 0.000000 0.999990 0.074300 0.614300 1 0 1.000000
  0 33.070629 -17.037380 19.937969 0.003990 0.005970 0.999974 0.115220 0.614260 1 0 1.000000
  0 1.088331 -20.022900 20.083599 0.003990 0.005970 0.999974 0.074400 0.981040 1 0 1.000000
woodcrates01a
  0 33.070629 -17.037380 19.937969 0.003990 0.005970 0.999974 0.115220 0.614260 1 0 1.000000
  0 1.088331 -16.977680 20.047199 0.003430 0.011950 0.999923 0.116070 0.981050 1 0 1.000000
  0 1.088331 -20.022900 20.083599 0.003990 0.005970 0.999974 0.074400 0.981040 1 0 1.000000
woodcrates01a
  0 1.088331 -20.022900 20.083599 0.000000 -1.000000 0.000000 0.074400 0.981040 1 0 1.000000
  0 1.088331 -20.022900 18.708679 0.000000 -1.000000 0.000000 0.061160 0.980970 1 0 1.000000
  0 33.070629 -20.022890 19.937969 0.000000 -1.000000 0.000000 0.074300 0.614300 1 0 1.000000
woodcrates01a
  0 33.070629 -20.022890 18.752960 0.000000 -1.000000 0.000000 0.061730 0.614240 1 0 1.000000
  0 33.070629 -20.022890 19.937969 0.000000 -1.000000 0.000000 0.074300 0.614300 1 0 1.000000
  0 1.088331 -20.022900 18.708679 0.000000 -1.000000 0.000000 0.061160 0.980970 1 0 1.000000
woodcrates01a
  0 1.088331 -16.977680 20.047199 -1.000000 0.000000 0.000000 0.116070 0.981050 1 0 1.000000
  0 1.088331 -17.037359 18.708679 -1.000000 0.000000 0.000000 0.115510 0.996410 1 0 1.000000
  0 1.088331 -20.022900 20.083599 -1.000000 0.000000 0.000000 0.074400 0.981040 1 0 1.000000
woodcrates01a
  0 1.088331 -20.022900 18.708679 -1.000000 0.000000 0.000000 0.074600 0.996800 1 0 1.000000
  0 1.088331 -20.022900 20.083599 -1.000000 0.000000 0.000000 0.074400 0.981040 1 0 1.000000
  0 1.088331 -17.037359 18.708679 -1.000000 0.000000 0.000000 0.115510 0.996410 1 0 1.000000
woodcrates01a
  0 33.070629 -20.022890 18.752960 1.000000 0.000000 0.000000 0.074290 0.600710 1 0 1.000000
  0 33.070629 -17.037380 18.752960 1.000000 0.000000 0.000000 0.115200 0.600670 1 0 1.000000
  0 33.070629 -20.022890 19.937969 1.000000 0.000000 0.000000 0.074300 0.614300 1 0 1.000000
woodcrates01a
  0 33.070629 -17.037380 18.752960 1.000000 0.000000 0.000000 0.115200 0.600670 1 0 1.000000
  0 33.070629 -17.037380 19.937969 1.000000 0.000000 0.000000 0.115220 0.614260 1 0 1.000000
  0 33.070629 -20.022890 19.937969 1.000000 0.000000 0.000000 0.074300 0.614300 1 0 1.000000
woodcrates01a
  0 29.785080 16.681959 19.729000 0.000000 0.000000 1.000000 0.149670 0.663670 1 0 1.000000
  0 29.809031 -17.025810 19.729000 0.000000 0.000000 1.000000 0.149670 0.989620 1 0 1.000000
  0 32.785069 16.681959 19.729000 0.000000 0.000000 1.000000 0.178680 0.663690 1 0 1.000000
woodcrates01a
  0 32.785069 16.681959 19.729000 0.000000 0.000000 1.000000 0.178680 0.663690 1 0 1.000000
  0 29.809031 -17.025810 19.729000 0.000000 0.000000 1.000000 0.149670 0.989620 1 0 1.000000
  0 32.809029 -17.025810 19.729000 0.000000 0.000000 1.000000 0.178680 0.989640 1 0 1.000000
woodcrates01a
  0 32.785069 16.681959 18.759979 1.000000 0.000710 0.000000 0.188050 0.663690 1 0 1.000000
  0 32.785069 16.681959 19.729000 1.000000 0.000710 0.000000 0.178680 0.663690 1 0 1.000000
  0 32.809029 -17.025810 18.759979 1.000000 0.000710 0.000000 0.188050 0.989640 1 0 1.000000
woodcrates01a
  0 32.785069 16.681959 19.729000 1.000000 0.000710 0.000000 0.178680 0.663690 1 0 1.000000
  0 32.809029 -17.025810 19.729000 1.000000 0.000710 0.000000 0.178680 0.989640 1 0 1.000000
  0 32.809029 -17.025810 18.759979 1.000000 0.000710 0.000000 0.188050 0.989640 1 0 1.000000
woodcrates01a
  0 29.785080 16.681959 19.729000 -1.000000 -0.000710 0.000000 0.149670 0.663670 1 0 1.000000
  0 29.785080 16.681959 18.759979 -1.000000 -0.000710 0.000000 0.140300 0.663670 1 0 1.000000
  0 29.809031 -17.025810 19.729000 -1.000000 -0.000710 0.000000 0.149670 0.989620 1 0 1.000000
woodcrates01a
  0 29.785080 16.681959 18.759979 -1.000000 -0.000710 0.000000 0.140300 0.663670 1 0 1.000000
  0 29.809031 -17.025810 18.759979 -1.000000 -0.000710 0.000000 0.140300 0.989620 1 0 1.000000
  0 29.809031 -17.025810 19.729000 -1.000000 -0.000710 0.000000 0.149670 0.989620 1 0 1.000000
woodcrates01a
  0 10.369020 16.711479 19.729000 0.000000 0.000000 1.000000 0.208440 0.670110 1 0 1.000000
  0 7.369009 16.711479 19.729000 0.000000 0.000000 1.000000 0.236840 0.670090 1 0 1.000000
  0 9.797761 -17.103689 19.729000 0.000000 0.000000 1.000000 0.208440 0.989220 1 0 1.000000
woodcrates01a
  0 7.369009 16.711479 19.729000 0.000000 0.000000 1.000000 0.236840 0.670090 1 0 1.000000
  0 6.797761 -17.103689 19.729000 0.000000 0.000000 1.000000 0.236840 0.989200 1 0 1.000000
  0 9.797761 -17.103689 19.729000 0.000000 0.000000 1.000000 0.208440 0.989220 1 0 1.000000
woodcrates01a
  0 10.369020 16.711479 18.759979 0.999857 -0.016890 0.000000 0.199270 0.670110 1 0 1.000000
  0 10.369020 16.711479 19.729000 0.999857 -0.016890 0.000000 0.208440 0.670110 1 0 1.000000
  0 9.797761 -17.103689 18.759979 0.999857 -0.016890 0.000000 0.199270 0.989220 1 0 1.000000
woodcrates01a
  0 10.369020 16.711479 19.729000 0.999857 -0.016890 0.000000 0.208440 0.670110 1 0 1.000000
  0 9.797761 -17.103689 19.729000 0.999857 -0.016890 0.000000 0.208440 0.989220 1 0 1.000000
  0 9.797761 -17.103689 18.759979 0.999857 -0.016890 0.000000 0.199270 0.989220 1 0 1.000000
woodcrates01a
  0 7.369009 16.711479 19.729000 -0.999857 0.016890 0.000000 0.236840 0.670090 1 0 1.000000
  0 7.369009 16.711479 18.759979 -0.999857 0.016890 0.000000 0.246020 0.670090 1 0 1.000000
  0 6.797761 -17.103689 19.729000 -0.999857 0.016890 0.000000 0.236840 0.989200 1 0 1.000000
woodcrates01a
  0 7.369009 16.711479 18.759979 -0.999857 0.016890 0.000000 0.246020 0.670090 1 0 1.000000
  0 6.797761 -17.103689 18.759979 -0.999857 0.016890 0.000000 0.246020 0.989200 1 0 1.000000
  0 6.797761 -17.103689 19.729000 -0.999857 0.016890 0.000000 0.236840 0.989200 1 0 1.000000
woodcrates01a
  0 8.600389 19.140682 -20.083611 0.000000 0.000000 -1.000000 0.209880 0.234940 1 0 1.000000
  0 12.948899 19.254541 -20.083611 0.000000 0.000000 -1.000000 0.209880 0.193990 1 0 1.000000
  0 9.625501 -20.006748 -20.083611 0.000000 0.000000 -1.000000 0.578560 0.234940 1 0 1.000000
woodcrates01a
  0 12.948899 19.254541 -20.083611 0.000000 0.000000 -1.000000 0.209880 0.193990 1 0 1.000000
  0 13.974011 -19.892859 -20.083611 0.000000 0.000000 -1.000000 0.578560 0.193990 1 0 1.000000
  0 9.625501 -20.006748 -20.083611 0.000000 0.000000 -1.000000 0.578560 0.234940 1 0 1.000000
woodcrates01a
  0 8.600389 19.140682 -18.670679 -0.999657 -0.026170 0.000000 0.209880 0.248240 1 0 1.000000
  0 8.600389 19.140682 -20.083611 -0.999657 -0.026170 0.000000 0.209880 0.234940 1 0 1.000000
  0 9.625501 -20.006748 -18.670679 -0.999657 -0.026170 0.000000 0.578560 0.248240 1 0 1.000000
woodcrates01a
  0 8.600389 19.140682 -20.083611 -0.999657 -0.026170 0.000000 0.209880 0.234940 1 0 1.000000
  0 9.625501 -20.006748 -20.083611 -0.999657 -0.026170 0.000000 0.578560 0.234940 1 0 1.000000
  0 9.625501 -20.006748 -18.670679 -0.999657 -0.026170 0.000000 0.578560 0.248240 1 0 1.000000
woodcrates01a
  0 12.948899 19.254541 -20.083611 0.999657 0.026170 0.000000 0.209880 0.193990 1 0 1.000000
  0 12.948899 19.254541 -18.670679 0.999657 0.026170 0.000000 0.209880 0.180680 1 0 1.000000
  0 13.974011 -19.892859 -20.083611 0.999657 0.026170 0.000000 0.578560 0.193990 1 0 1.000000
woodcrates01a
  0 12.948899 19.254541 -18.670679 0.999657 0.026170 0.000000 0.209880 0.180680 1 0 1.000000
  0 13.974011 -19.892889 -18.670679 0.999657 0.026170 0.000000 0.578560 0.180680 1 0 1.000000
  0 13.974011 -19.892859 -20.083611 0.999657 0.026170 0.000000 0.578560 0.193990 1 0 1.000000
woodcrates01a
  0 13.974011 -19.892859 -20.083611 0.026180 -0.999657 -0.000020 0.578560 0.193990 1 0 1.000000
  0 13.974011 -19.892889 -18.670679 0.026170 -0.999657 -0.000010 0.591860 0.193990 1 0 1.000000
  0 9.625501 -20.006748 -20.083611 0.026170 -0.999657 -0.000010 0.578560 0.234940 1 0 1.000000
woodcrates01a
  0 13.974011 -19.892889 -18.670679 0.026170 -0.999657 -0.000010 0.591860 0.193990 1 0 1.000000
  0 9.625501 -20.006748 -18.670679 0.026170 -0.999657 0.000000 0.591860 0.234940 1 0 1.000000
  0 9.625501 -20.006748 -20.083611 0.026170 -0.999657 -0.000010 0.578560 0.234940 1 0 1.000000
woodcrates01a
  0 12.948899 19.254541 -20.083611 -0.026170 0.999657 0.000000 0.209880 0.193990 1 0 1.000000
  0 8.600389 19.140682 -20.083611 -0.026170 0.999657 0.000000 0.209880 0.234940 1 0 1.000000
  0 12.948899 19.254541 -18.670679 -0.026170 0.999657 0.000000 0.196580 0.193990 1 0 1.000000
woodcrates01a
  0 8.600389 19.140682 -20.083611 -0.026170 0.999657 0.000000 0.209880 0.234940 1 0 1.000000
  0 8.600389 19.140682 -18.670679 -0.026170 0.999657 0.000000 0.196580 0.234940 1 0 1.000000
  0 12.948899 19.254541 -18.670679 -0.026170 0.999657 0.000000 0.196580 0.193990 1 0 1.000000
woodcrates01a
  0 33.102081 19.673532 -20.083611 0.000000 0.000000 -1.000000 0.292190 0.120950 1 0 1.000000
  0 32.076969 -18.974588 -20.083611 0.000000 0.000000 -1.000000 0.660860 0.120950 1 0 1.000000
  0 28.753580 19.787392 -20.083611 0.000000 0.000000 -1.000000 0.292190 0.161900 1 0 1.000000
woodcrates01a
  0 28.753580 19.787392 -20.083611 0.000000 0.000000 -1.000000 0.292190 0.161900 1 0 1.000000
  0 32.076969 -18.974588 -20.083611 0.000000 0.000000 -1.000000 0.660860 0.120950 1 0 1.000000
  0 27.728460 -18.860718 -20.083611 0.000000 0.000000 -1.000000 0.660860 0.161900 1 0 1.000000
woodcrates01a
  0 28.753580 19.787392 -18.670679 -0.999648 0.026510 0.000000 0.292190 0.175210 1 0 1.000000
  0 28.753580 19.787392 -20.083611 -0.999648 0.026510 0.000000 0.292190 0.161900 1 0 1.000000
  0 27.728460 -18.860718 -18.670679 -0.999648 0.026510 0.000000 0.660870 0.175210 1 0 1.000000
woodcrates01a
  0 28.753580 19.787392 -20.083611 -0.999648 0.026510 0.000000 0.292190 0.161900 1 0 1.000000
  0 27.728460 -18.860718 -20.083611 -0.999648 0.026510 0.000000 0.660860 0.161900 1 0 1.000000
  0 27.728460 -18.860718 -18.670679 -0.999648 0.026510 0.000000 0.660870 0.175210 1 0 1.000000
woodcrates01a
  0 33.102081 19.673532 -20.083611 0.999648 -0.026510 0.000000 0.292190 0.120950 1 0 1.000000
  0 33.102081 19.673532 -18.670679 0.999648 -0.026510 0.000000 0.292190 0.107650 1 0 1.000000
  0 32.076969 -18.974588 -20.083611 0.999648 -0.026510 0.000000 0.660860 0.120950 1 0 1.000000
woodcrates01a
  0 33.102081 19.673532 -18.670679 0.999648 -0.026510 0.000000 0.292190 0.107650 1 0 1.000000
  0 32.076969 -18.974588 -18.670679 0.999648 -0.026510 0.000000 0.660870 0.107650 1 0 1.000000
  0 32.076969 -18.974588 -20.083611 0.999648 -0.026510 0.000000 0.660860 0.120950 1 0 1.000000
woodcrates01a
  0 32.076969 -18.974588 -20.083611 -0.026170 -0.999657 0.000000 0.660860 0.120950 1 0 1.000000
  0 32.076969 -18.974588 -18.670679 -0.026170 -0.999657 0.000000 0.674170 0.120950 1 0 1.000000
  0 27.728460 -18.860718 -20.083611 -0.026170 -0.999657 0.000000 0.660860 0.161900 1 0 1.000000
woodcrates01a
  0 32.076969 -18.974588 -18.670679 -0.026170 -0.999657 0.000000 0.674170 0.120950 1 0 1.000000
  0 27.728460 -18.860718 -18.670679 -0.026170 -0.999657 0.000000 0.674170 0.161900 1 0 1.000000
  0 27.728460 -18.860718 -20.083611 -0.026170 -0.999657 0.000000 0.660860 0.161900 1 0 1.000000
woodcrates01a
  0 33.102081 19.673532 -20.083611 0.026170 0.999657 0.000000 0.292190 0.120950 1 0 1.000000
  0 28.753580 19.787392 -20.083611 0.026170 0.999657 0.000000 0.292190 0.161900 1 0 1.000000
  0 33.102081 19.673532 -18.670679 0.026170 0.999657 0.000000 0.278890 0.120950 1 0 1.000000
woodcrates01a
  0 28.753580 19.787392 -20.083611 0.026170 0.999657 0.000000 0.292190 0.161900 1 0 1.000000
  0 28.753580 19.787392 -18.670679 0.026170 0.999657 0.000000 0.278890 0.161900 1 0 1.000000
  0 33.102081 19.673532 -18.670679 0.026170 0.999657 0.000000 0.278890 0.120950 1 0 1.000000
woodcrates01a
  0 1.088321 -20.156410 -18.649370 0.000000 0.000000 -1.000000 0.207130 0.304680 1 0 1.000000
  0 1.088331 -19.019970 -18.649370 0.000000 0.000000 -1.000000 0.195590 0.304740 1 0 1.000000
  0 32.761021 -20.019949 -18.649370 0.000000 0.000000 -1.000000 0.207130 0.651440 1 0 1.000000
woodcrates01a
  0 1.088331 -19.019970 -18.649370 0.000000 0.000000 -1.000000 0.195590 0.304740 1 0 1.000000
  0 32.761021 -19.019949 -18.649370 0.000000 0.000000 -1.000000 0.197210 0.651450 1 0 1.000000
  0 32.761021 -20.019949 -18.649370 0.000000 0.000000 -1.000000 0.207130 0.651440 1 0 1.000000
woodcrates01a
  0 1.088321 -20.286690 -15.714721 0.006330 -0.998996 -0.044340 0.236940 0.304740 1 0 1.000000
  0 1.088321 -20.156410 -18.649370 0.005320 -0.999428 -0.033390 0.207130 0.304680 1 0 1.000000
  0 32.761021 -20.085817 -15.714721 0.005320 -0.999428 -0.033390 0.236940 0.651500 1 0 1.000000
woodcrates01a
  0 1.088321 -20.156410 -18.649370 0.005320 -0.999428 -0.033390 0.207130 0.304680 1 0 1.000000
  0 32.761021 -20.019949 -18.649370 0.004300 -0.999739 -0.022440 0.207130 0.651440 1 0 1.000000
  0 32.761021 -20.085817 -15.714721 0.005320 -0.999428 -0.033390 0.236940 0.651500 1 0 1.000000
woodcrates01a
  0 1.088331 -19.085840 -15.714721 0.000000 0.000000 1.000000 0.248480 0.304800 1 0 1.000000
  0 1.088321 -20.286690 -15.714721 0.000000 0.000000 1.000000 0.236940 0.304740 1 0 1.000000
  0 32.761021 -19.085817 -15.714721 0.000000 0.000000 1.000000 0.246860 0.651510 1 0 1.000000
woodcrates01a
  0 1.088321 -20.286690 -15.714721 0.000000 0.000000 1.000000 0.236940 0.304740 1 0 1.000000
  0 32.761021 -20.085817 -15.714721 0.000000 0.000000 1.000000 0.236940 0.651500 1 0 1.000000
  0 32.761021 -19.085817 -15.714721 0.000000 0.000000 1.000000 0.246860 0.651510 1 0 1.000000
woodcrates01a
  0 1.088321 -20.286690 -15.714721 -1.000000 0.000000 0.000000 0.236940 0.304740 1 0 1.000000
  0 1.088331 -19.085840 -15.714721 -1.000000 0.000000 0.000000 0.236970 0.293210 1 0 1.000000
  0 1.088321 -20.156410 -18.649370 -1.000000 0.000000 0.000000 0.207130 0.304680 1 0 1.000000
woodcrates01a
  0 1.088331 -19.085840 -15.714721 -1.000000 0.000000 0.000000 0.236970 0.293210 1 0 1.000000
  0 1.088331 -19.019970 -18.649370 -1.000000 0.000000 0.000000 0.207150 0.293150 1 0 1.000000
  0 1.088321 -20.156410 -18.649370 -1.000000 0.000000 0.000000 0.207130 0.304680 1 0 1.000000
woodcrates01a
  0 33.902142 20.037281 -18.701010 0.000000 0.000000 -1.000000 0.609620 0.060050 1 0 1.000000
  0 33.821461 18.937391 -18.701010 0.000000 0.000000 -1.000000 0.609680 0.072060 1 0 1.000000
  0 1.088359 19.930370 -18.701010 0.000000 0.000000 -1.000000 0.974870 0.060050 1 0 1.000000
woodcrates01a
  0 33.821461 18.937391 -18.701010 0.000000 0.000000 -1.000000 0.609680 0.072060 1 0 1.000000
  0 1.088359 18.937389 -18.701010 0.000000 0.000000 -1.000000 0.974880 0.070370 1 0 1.000000
  0 1.088359 19.930370 -18.701010 0.000000 0.000000 -1.000000 0.974870 0.060050 1 0 1.000000
woodcrates01a
  0 33.902142 20.037281 -15.714719 -0.003250 0.999995 0.000000 0.609680 0.031210 1 0 1.000000
  0 33.902142 20.037281 -18.701010 -0.003250 0.999995 0.000000 0.609620 0.060050 1 0 1.000000
  0 1.088359 19.930370 -15.714719 -0.003250 0.999995 0.000000 0.974930 0.031210 1 0 1.000000
woodcrates01a
  0 33.902142 20.037281 -18.701010 -0.003250 0.999995 0.000000 0.609620 0.060050 1 0 1.000000
  0 1.088359 19.930370 -18.701010 -0.003250 0.999995 0.000000 0.974870 0.060050 1 0 1.000000
  0 1.088359 19.930370 -15.714719 -0.003250 0.999995 0.000000 0.974930 0.031210 1 0 1.000000
woodcrates01a
  0 33.902142 20.037281 -15.714719 0.000000 0.000000 1.000000 0.609680 0.031210 1 0 1.000000
  0 1.088359 19.930370 -15.714719 0.000000 0.000000 1.000000 0.974930 0.031210 1 0 1.000000
  0 33.821461 18.937391 -15.714719 0.000000 0.000000 1.000000 0.609740 0.019200 1 0 1.000000
woodcrates01a
  0 33.821461 18.937391 -15.714719 0.000000 0.000000 1.000000 0.609740 0.019200 1 0 1.000000
  0 1.088359 19.930370 -15.714719 0.000000 0.000000 1.000000 0.974930 0.031210 1 0 1.000000
  0 1.088359 18.937389 -15.714719 0.000000 0.000000 1.000000 0.974940 0.020890 1 0 1.000000
woodcrates01a
  0 33.821461 18.937391 -15.714719 0.997320 -0.073160 0.000000 0.597670 0.031190 1 0 1.000000
  0 33.821461 18.937391 -18.701010 0.997320 -0.073160 0.000000 0.597610 0.060030 1 0 1.000000
  0 33.902142 20.037281 -15.714719 0.997320 -0.073160 0.000000 0.609680 0.031210 1 0 1.000000
woodcrates01a
  0 33.821461 18.937391 -18.701010 0.997320 -0.073160 0.000000 0.597610 0.060030 1 0 1.000000
  0 33.902142 20.037281 -18.701010 0.997320 -0.073160 0.000000 0.609620 0.060050 1 0 1.000000
  0 33.902142 20.037281 -15.714719 0.997320 -0.073160 0.000000 0.609680 0.031210 1 0 1.000000
woodcrates01a
  0 29.857910 19.848742 -15.739829 -1.000000 0.000000 0.000000 0.268850 0.086770 1 0 1.000000
  0 29.857910 18.848742 -15.739829 -1.000000 0.000000 0.000000 0.268850 0.095840 1 0 1.000000
  0 29.857910 19.848740 15.782141 -1.000000 0.000000 0.000000 0.554840 0.086760 1 0 1.000000
woodcrates01a
  0 29.857910 18.848742 -15.739829 -1.000000 0.000000 0.000000 0.268850 0.095840 1 0 1.000000
  0 29.857910 18.848740 15.782141 -1.000000 0.000000 0.000000 0.554840 0.095840 1 0 1.000000
  0 29.857910 19.848740 15.782141 -1.000000 0.000000 0.000000 0.554840 0.086760 1 0 1.000000
woodcrates01a
  0 33.736301 16.812792 -15.739829 1.000000 0.000000 0.000000 0.268850 0.021250 1 0 1.000000
  0 33.736301 19.812792 -15.739829 1.000000 0.000000 0.000000 0.268850 0.050560 1 0 1.000000
  0 33.736301 16.812790 15.782141 1.000000 0.000000 0.000000 0.554840 0.021250 1 0 1.000000
woodcrates01a
  0 33.736301 19.812792 -15.739829 1.000000 0.000000 0.000000 0.268850 0.050560 1 0 1.000000
  0 33.736301 19.812790 15.782141 1.000000 0.000000 0.000000 0.554840 0.050560 1 0 1.000000
  0 33.736301 16.812790 15.782141 1.000000 0.000000 0.000000 0.554840 0.021250 1 0 1.000000
woodcrates01a
  0 32.736301 16.812792 -15.739829 0.000000 -1.000000 0.000000 0.268850 0.012170 1 0 1.000000
  0 33.736301 16.812792 -15.739829 0.000000 -1.000000 0.000000 0.268850 0.021250 1 0 1.000000
  0 32.736301 16.812790 15.782141 0.000000 -1.000000 0.000000 0.554840 0.012170 1 0 1.000000
woodcrates01a
  0 33.736301 16.812792 -15.739829 0.000000 -1.000000 0.000000 0.268850 0.021250 1 0 1.000000
  0 33.736301 16.812790 15.782141 0.000000 -1.000000 0.000000 0.554840 0.021250 1 0 1.000000
  0 32.736301 16.812790 15.782141 0.000000 -1.000000 0.000000 0.554840 0.012170 1 0 1.000000
woodcrates01a
  0 29.857910 19.848740 15.782141 0.009260 0.999957 0.000000 0.554840 0.086760 1 0 1.000000
  0 33.736301 19.812790 15.782141 0.009260 0.999957 0.000000 0.554840 0.050560 1 0 1.000000
  0 29.857910 19.848742 -15.739829 0.009260 0.999957 0.000000 0.268850 0.086770 1 0 1.000000
woodcrates01a
  0 33.736301 19.812790 15.782141 0.009260 0.999957 0.000000 0.554840 0.050560 1 0 1.000000
  0 33.736301 19.812792 -15.739829 0.009260 0.999957 0.000000 0.268850 0.050560 1 0 1.000000
  0 29.857910 19.848742 -15.739829 0.009260 0.999957 0.000000 0.268850 0.086770 1 0 1.000000
woodcrates01a
  0 33.736301 -0.686538 -15.739830 1.000000 0.000000 0.000000 0.043170 0.657320 1 0 1.000000
  0 33.736301 3.244872 -15.739830 1.000000 0.000000 0.000000 0.015220 0.657490 1 0 1.000000
  0 33.736301 -0.670259 15.782140 1.000000 0.000000 0.000000 0.043400 0.354930 1 0 1.000000
woodcrates01a
  0 33.736301 3.244872 -15.739830 1.000000 0.000000 0.000000 0.015220 0.657490 1 0 1.000000
  0 33.736301 3.105751 15.782140 1.000000 0.000000 0.000000 0.015220 0.355090 1 0 1.000000
  0 33.736301 -0.670259 15.782140 1.000000 0.000000 0.000000 0.043400 0.354930 1 0 1.000000
woodcrates01a
  0 32.736301 -0.686538 -15.739830 0.000000 -1.000000 0.000510 0.052760 0.657270 1 0 1.000000
  0 33.736301 -0.686538 -15.739830 0.000000 -1.000000 0.000510 0.043170 0.657320 1 0 1.000000
  0 32.736301 -0.670259 15.782140 0.000000 -1.000000 0.000510 0.053000 0.354880 1 0 1.000000
woodcrates01a
  0 33.736301 -0.686538 -15.739830 0.000000 -1.000000 0.000510 0.043170 0.657320 1 0 1.000000
  0 33.736301 -0.670259 15.782140 0.000000 -1.000000 0.000510 0.043400 0.354930 1 0 1.000000
  0 32.736301 -0.670259 15.782140 0.000000 -1.000000 0.000510 0.053000 0.354880 1 0 1.000000
woodcrates01a
  0 33.736301 3.244872 -15.739830 0.000000 0.999990 0.004410 0.015220 0.657490 1 0 1.000000
  0 32.736301 3.244872 -15.739830 0.000000 0.999990 0.004410 0.005620 0.657490 1 0 1.000000
  0 33.736301 3.105751 15.782140 0.000000 0.999990 0.004410 0.015220 0.355090 1 0 1.000000
woodcrates01a
  0 32.736301 3.244872 -15.739830 0.000000 0.999990 0.004410 0.005620 0.657490 1 0 1.000000
  0 32.736301 3.105751 15.782140 0.000000 0.999990 0.004410 0.005620 0.355090 1 0 1.000000
  0 33.736301 3.105751 15.782140 0.000000 0.999990 0.004410 0.015220 0.355090 1 0 1.000000
woodcrates01a
  0 33.769329 -20.139240 15.782129 0.000000 0.000000 -1.000000 0.609350 0.031530 1 0 1.000000
  0 32.765171 -20.078819 15.782129 0.000000 0.000000 -1.000000 0.610580 0.022030 1 0 1.000000
  0 33.821461 18.937389 15.782141 0.000000 0.000000 -1.000000 0.980390 0.031530 1 0 1.000000
woodcrates01a
  0 32.765171 -20.078819 15.782129 0.000000 0.000000 -1.000000 0.610580 0.022030 1 0 1.000000
  0 32.769329 18.945910 15.782141 0.000000 0.000000 -1.000000 0.979780 0.021580 1 0 1.000000
  0 33.821461 18.937389 15.782141 0.000000 0.000000 -1.000000 0.980390 0.031530 1 0 1.000000
woodcrates01a
  0 33.769329 -20.139240 18.768440 0.999999 -0.001330 0.000000 0.609350 0.059990 1 0 1.000000
  0 33.769329 -20.139240 15.782129 0.999999 -0.001330 0.000000 0.609350 0.031530 1 0 1.000000
  0 33.821461 18.937389 18.768440 0.999999 -0.001330 0.000000 0.980390 0.059990 1 0 1.000000
woodcrates01a
  0 33.769329 -20.139240 15.782129 0.999999 -0.001330 0.000000 0.609350 0.031530 1 0 1.000000
  0 33.821461 18.937389 15.782141 0.999999 -0.001330 0.000000 0.980390 0.031530 1 0 1.000000
  0 33.821461 18.937389 18.768440 0.999999 -0.001330 0.000000 0.980390 0.059990 1 0 1.000000
woodcrates01a
  0 33.769329 -20.139240 18.768440 0.000000 0.000000 1.000000 0.609350 0.059990 1 0 1.000000
  0 33.821461 18.937389 18.768440 0.000000 0.000000 1.000000 0.980390 0.059990 1 0 1.000000
  0 32.765171 -20.078819 18.768440 0.000000 0.000000 1.000000 0.610580 0.069490 1 0 1.000000
woodcrates01a
  0 32.765171 -20.078819 18.768440 0.000000 0.000000 1.000000 0.610580 0.069490 1 0 1.000000
  0 33.821461 18.937389 18.768440 0.000000 0.000000 1.000000 0.980390 0.059990 1 0 1.000000
  0 32.769329 18.945910 18.768440 0.000000 0.000000 1.000000 0.979780 0.069950 1 0 1.000000
woodcrates01a
  0 32.765171 -20.078819 18.768440 -0.060060 -0.998195 0.000000 0.599830 0.059990 1 0 1.000000
  0 32.765171 -20.078819 15.782129 -0.060060 -0.998195 0.000000 0.599830 0.031530 1 0 1.000000
  0 33.769329 -20.139240 18.768440 -0.060060 -0.998195 0.000000 0.609350 0.059990 1 0 1.000000
woodcrates01a
  0 32.765171 -20.078819 15.782129 -0.060060 -0.998195 0.000000 0.599830 0.031530 1 0 1.000000
  0 33.769329 -20.139240 15.782129 -0.060060 -0.998195 0.000000 0.609350 0.031530 1 0 1.000000
  0 33.769329 -20.139240 18.768440 -0.060060 -0.998195 0.000000 0.609350 0.059990 1 0 1.000000
woodcrates01a
  0 32.826462 18.952211 -18.670710 1.000000 0.000000 0.000000 0.256440 0.657910 1 0 1.000000
  0 32.826462 18.952209 18.768520 1.000000 0.000000 0.000000 0.610230 0.657050 1 0 1.000000
  0 32.826469 -19.021828 -18.670719 1.000000 0.000000 0.000000 0.256440 0.984480 1 0 1.000000
woodcrates01a
  0 32.826462 18.952209 18.768520 1.000000 0.000000 0.000000 0.610230 0.657050 1 0 1.000000
  0 32.826469 -19.021811 18.768520 1.000000 0.000000 0.000000 0.610230 0.984800 1 0 1.000000
  0 32.826469 -19.021828 -18.670719 1.000000 0.000000 0.000000 0.256440 0.984480 1 0 1.000000
woodcrates01a
  0 15.160441 -19.854759 -1.226221 -0.008410 -0.999950 -0.005460 0.298820 0.235110 1 0 1.000000
  0 17.524570 -19.854759 0.620779 0.000000 -1.000000 0.000000 0.296340 0.194300 1 0 1.000000
  0 4.088761 -19.854759 15.807739 -0.020690 -0.999768 -0.005930 0.572700 0.194400 1 0 1.000000
woodcrates01a
  0 1.721861 -19.764950 13.976460 -0.031040 -0.999478 -0.008890 0.575370 0.235110 1 0 1.000000
  0 15.160441 -19.854759 -1.226221 -0.008410 -0.999950 -0.005460 0.298820 0.235110 1 0 1.000000
  0 4.088761 -19.854759 15.807739 -0.020690 -0.999768 -0.005930 0.572700 0.194400 1 0 1.000000
woodcrates01a
  0 4.088761 -19.854759 15.807739 -0.020690 -0.999768 -0.005930 0.572700 0.194400 1 0 1.000000
  0 1.719221 -19.767429 15.830400 -0.036840 -0.999320 -0.001390 0.594330 0.218410 1 0 1.000000
  0 1.721861 -19.764950 13.976460 -0.031040 -0.999478 -0.008890 0.575370 0.235110 1 0 1.000000
woodcrates01a
  0 -16.630541 -19.854759 0.568639 0.000000 -1.000000 0.000000 0.542830 0.193580 1 0 1.000000
  0 -14.266409 -19.854759 -1.278371 0.008410 -0.999950 -0.005470 0.540340 0.234540 1 0 1.000000
  0 -3.151179 -19.854759 15.807739 0.020690 -0.999768 -0.005930 0.264500 0.193670 1 0 1.000000
woodcrates01a
  0 -0.784279 -19.764950 13.976460 0.031030 -0.999479 -0.008900 0.261830 0.234540 1 0 1.000000
  0 -3.151179 -19.854759 15.807739 0.020690 -0.999768 -0.005930 0.264500 0.193670 1 0 1.000000
  0 -14.266409 -19.854759 -1.278371 0.008410 -0.999950 -0.005470 0.540340 0.234540 1 0 1.000000
woodcrates01a
  0 -3.151179 -19.854759 15.807739 0.020690 -0.999768 -0.005930 0.264500 0.193670 1 0 1.000000
  0 -0.784279 -19.764950 13.976460 0.031030 -0.999479 -0.008900 0.261830 0.234540 1 0 1.000000
  0 -0.781639 -19.767441 15.830400 0.036840 -0.999320 -0.001390 0.242800 0.217780 1 0 1.000000
woodcrates01a
  0 -28.414391 19.762871 -15.706479 -0.012110 0.999805 -0.015560 0.074520 0.958430 1 0 1.000000
  0 -30.783920 19.675550 -15.729139 -0.036340 0.998249 -0.046680 0.098310 0.980480 1 0 1.000000
  0 -30.773529 19.762890 -13.869659 -0.018170 0.999562 -0.023350 0.115310 0.961520 1 0 1.000000
woodcrates01a
  0 -30.773529 19.762890 -13.869659 -0.018170 0.999562 -0.023350 0.115310 0.961520 1 0 1.000000
  0 -17.670210 19.762871 0.568641 0.000000 1.000000 0.000000 0.115310 0.694780 1 0 1.000000
  0 -28.414391 19.762871 -15.706479 -0.012110 0.999805 -0.015560 0.074520 0.958430 1 0 1.000000
woodcrates01a
  0 -17.670210 19.762871 0.568641 0.000000 1.000000 0.000000 0.115310 0.694780 1 0 1.000000
  0 -15.306081 19.762871 -1.278369 0.008410 0.999950 -0.005470 0.074370 0.691750 1 0 1.000000
  0 -28.414391 19.762871 -15.706479 -0.012110 0.999805 -0.015560 0.074520 0.958430 1 0 1.000000
woodcrates01a
  0 -27.374720 -19.854759 -15.706481 -0.012110 -0.999805 -0.015560 0.074520 0.958430 1 0 1.000000
  0 -14.266409 -19.854759 -1.278371 0.008410 -0.999950 -0.005470 0.074370 0.691750 1 0 1.000000
  0 -16.630541 -19.854759 0.568639 0.000000 -1.000000 0.000000 0.115310 0.694780 1 0 1.000000
woodcrates01a
  0 -29.733860 -19.854780 -13.869661 -0.018170 -0.999562 -0.023350 0.115310 0.961520 1 0 1.000000
  0 -27.374720 -19.854759 -15.706481 -0.012110 -0.999805 -0.015560 0.074520 0.958430 1 0 1.000000
  0 -16.630541 -19.854759 0.568639 0.000000 -1.000000 0.000000 0.115310 0.694780 1 0 1.000000
woodcrates01a
  0 -27.374720 -19.854759 -15.706481 -0.012110 -0.999805 -0.015560 0.074520 0.958430 1 0 1.000000
  0 -29.733860 -19.854780 -13.869661 -0.018170 -0.999562 -0.023350 0.115310 0.961520 1 0 1.000000
  0 -29.744249 -19.767441 -15.729141 -0.036340 -0.998249 -0.046680 0.098310 0.980480 1 0 1.000000
woodcrates01a
  0 -4.190851 19.762871 15.807741 0.020690 0.999768 -0.005930 0.264500 0.193670 1 0 1.000000
  0 -1.821311 19.675550 15.830401 0.036840 0.999320 -0.001390 0.242800 0.217780 1 0 1.000000
  0 -1.823951 19.673059 13.976461 0.031030 0.999479 -0.008900 0.261830 0.234540 1 0 1.000000
woodcrates01a
  0 -1.823951 19.673059 13.976461 0.031030 0.999479 -0.008900 0.261830 0.234540 1 0 1.000000
  0 -15.306081 19.762871 -1.278369 0.008410 0.999950 -0.005470 0.540340 0.234540 1 0 1.000000
  0 -4.190851 19.762871 15.807741 0.020690 0.999768 -0.005930 0.264500 0.193670 1 0 1.000000
woodcrates01a
  0 -17.670210 19.762871 0.568641 0.000000 1.000000 0.000000 0.542830 0.193580 1 0 1.000000
  0 -4.190851 19.762871 15.807741 0.020690 0.999768 -0.005930 0.264500 0.193670 1 0 1.000000
  0 -15.306081 19.762871 -1.278369 0.008410 0.999950 -0.005470 0.540340 0.234540 1 0 1.000000
end
