// Created by Crowbar 0.74
version 1
nodes
  0 "static_prop" -1
end
skeleton
  time 0
    0 0.000000 0.000000 0.000000 0.000000 0.000000 0.000000
end
triangles
  phy
    0 -34.215802 20.041799 19.909500 -0.394899 -0.792930 -0.464022 0 0
    0 33.991799 20.041801 19.909500 -0.791270 -0.397204 0.464887 0 0
    0 -34.215802 20.041801 -20.005501 -0.864423 0.433926 -0.253933 0 0
  phy
    0 -34.215802 20.041801 -20.005501 -0.864423 0.433926 -0.253933 0 0
    0 33.991799 20.041801 19.909500 -0.791270 -0.397204 0.464887 0 0
    0 33.991799 20.041804 -20.005501 -0.431252 0.865925 0.253369 0 0
  phy
    0 -34.215802 20.041799 19.909500 -0.394899 -0.792930 -0.464022 0 0
    0 33.991799 -20.031502 19.909500 0.431252 -0.865925 0.253369 0 0
    0 33.991799 20.041801 19.909500 -0.791270 -0.397204 0.464887 0 0
  phy
    0 -34.215802 20.041799 19.909500 -0.394899 -0.792930 -0.464022 0 0
    0 -34.215802 -20.031504 19.909500 0.864423 -0.433926 -0.253933 0 0
    0 33.991799 -20.031502 19.909500 0.431252 -0.865925 0.253369 0 0
  phy
    0 -34.215802 -20.031504 19.909500 0.864423 -0.433926 -0.253933 0 0
    0 -34.215802 20.041799 19.909500 -0.394899 -0.792930 -0.464022 0 0
    0 -34.215802 -20.031502 -20.005501 0.394899 0.792930 -0.464022 0 0
  phy
    0 -34.215802 -20.031502 -20.005501 0.394899 0.792930 -0.464022 0 0
    0 -34.215802 20.041799 19.909500 -0.394899 -0.792930 -0.464022 0 0
    0 -34.215802 20.041801 -20.005501 -0.864423 0.433926 -0.253933 0 0
  phy
    0 33.991799 -20.031502 19.909500 0.431252 -0.865925 0.253369 0 0
    0 33.991799 -20.031500 -20.005501 0.791270 0.397204 0.464887 0 0
    0 33.991799 20.041801 19.909500 -0.791270 -0.397204 0.464887 0 0
  phy
    0 33.991799 -20.031500 -20.005501 0.791270 0.397204 0.464887 0 0
    0 33.991799 20.041804 -20.005501 -0.431252 0.865925 0.253369 0 0
    0 33.991799 20.041801 19.909500 -0.791270 -0.397204 0.464887 0 0
  phy
    0 -34.215802 -20.031504 19.909500 0.864423 -0.433926 -0.253933 0 0
    0 33.991799 -20.031500 -20.005501 0.791270 0.397204 0.464887 0 0
    0 33.991799 -20.031502 19.909500 0.431252 -0.865925 0.253369 0 0
  phy
    0 -34.215802 -20.031504 19.909500 0.864423 -0.433926 -0.253933 0 0
    0 -34.215802 -20.031502 -20.005501 0.394899 0.792930 -0.464022 0 0
    0 33.991799 -20.031500 -20.005501 0.791270 0.397204 0.464887 0 0
  phy
    0 -34.215802 20.041801 -20.005501 -0.864423 0.433926 -0.253933 0 0
    0 33.991799 20.041804 -20.005501 -0.431252 0.865925 0.253369 0 0
    0 -34.215802 -20.031502 -20.005501 0.394899 0.792930 -0.464022 0 0
  phy
    0 -34.215802 -20.031502 -20.005501 0.394899 0.792930 -0.464022 0 0
    0 33.991799 20.041804 -20.005501 -0.431252 0.865925 0.253369 0 0
    0 33.991799 -20.031500 -20.005501 0.791270 0.397204 0.464887 0 0
end
