version 1
nodes
0 "root" -1
end
skeleton
time 0
0 0 0 0 0 0 0
end
triangles
lilpeanuthomu
0  -2.761866 -11.830401 42.002804  0.965355 0.110850 0.236224  0.392256 0.376366 0
0  1.040148 -11.239329 26.188133  0.965355 0.110850 0.236224  0.629722 0.525087 0
0  -2.818183 -11.239329 41.955585  0.965355 0.110850 0.236224  0.657873 0.546995 0
lilpeanuthomu
0  -7.470796 -10.116251 26.129080  1.000000 0.000000 0.000000  0.692383 0.627116 0
0  -7.470796 -11.254074 42.188606  1.000000 0.000000 0.000000  0.754257 0.877073 0
0  -7.470796 -11.254074 26.360210  1.000000 0.000000 0.000000  0.693273 0.877073 0
lilpeanuthomu
0  -12.490576 -10.116251 26.228802  0.000000 1.000000 0.000000  0.553249 0.722853 0
0  -7.470796 -10.116251 42.092308  0.000000 1.000000 0.000000  0.614368 0.972810 0
0  -7.470796 -10.116251 26.129080  0.000000 1.000000 0.000000  0.552865 0.972810 0
lilpeanuthomu
0  -12.490576 -11.254074 26.459936  -1.000000 0.000002 0.000000  0.580493 0.693024 0
0  -12.490576 -10.116251 42.342365  -1.000000 0.000002 0.000000  0.641685 0.942981 0
0  -12.490576 -10.116251 26.228802  -1.000000 0.000002 0.000000  0.579603 0.942981 0
lilpeanuthomu
0  -7.470796 -11.254074 26.360210  0.000000 -1.000000 0.000000  0.846743 0.630592 0
0  -12.490576 -11.254074 42.438671  0.000000 -1.000000 0.000000  0.908690 0.880548 0
0  -12.490576 -11.254074 26.459936  0.000000 -1.000000 0.000000  0.847127 0.880548 0
lilpeanuthomu
0  -2.761866 -11.830401 42.002804  0.000000 -1.000000 -0.000000  0.290133 0.771322 0
0  -15.637506 -11.830401 26.639524  0.000000 -1.000000 -0.000000  0.200398 0.669396 0
0  1.078827 -11.830401 26.307434  0.000000 -1.000000 -0.000000  0.316749 0.663501 0
lilpeanuthomu
0  -13.632921 -11.239329 42.494324  0.000000 1.000000 0.000000  0.634689 0.942975 0
0  1.040148 -11.239329 26.188133  0.000000 1.000000 0.000000  0.527600 0.920042 0
0  -15.636932 -11.239329 26.519440  0.000000 1.000000 0.000000  0.649328 0.920930 0
lilpeanuthomu
0  -2.761866 -11.830401 42.002804  0.049576 0.084228 0.995212  0.517756 0.243484 0
0  -13.632921 -11.239329 42.494324  0.049576 0.084228 0.995212  0.862311 0.415137 0
0  -13.642226 -11.830401 42.544811  0.049576 0.084228 0.995212  0.441972 0.250121 0
lilpeanuthomu
0  -15.636932 -11.239329 26.519440  -0.991881 0.026245 0.124429  0.817892 0.436156 0
0  -13.642226 -11.830401 42.544811  -0.991881 0.026245 0.124429  0.382913 0.293185 0
0  -13.632921 -11.239329 42.494324  -0.991881 0.026245 0.124429  0.803252 0.458200 0
lilpeanuthomu
0  1.078827 -11.830401 26.307434  -0.019465 -0.199034 -0.979799  0.447171 0.263624 0
0  -15.636932 -11.239329 26.519440  -0.019465 -0.199034 -0.979799  0.779750 0.521053 0
0  1.040148 -11.239329 26.188133  -0.019465 -0.199034 -0.979799  0.658022 0.520165 0
lilpeanuthomu
0  -7.470796 -11.254074 26.360210  -0.019465 -0.199031 -0.979800  0.699425 0.755264 0
0  -12.490576 -10.116251 26.228802  -0.019465 -0.199031 -0.979800  0.559401 0.601044 0
0  -7.470796 -10.116251 26.129080  -0.019465 -0.199031 -0.979800  0.698535 0.505307 0
lilpeanuthomu
0  -7.470796 -10.116251 42.092308  0.049576 0.084229 0.995212  0.614368 0.972810 0
0  -12.490576 -11.254074 42.438671  0.049576 0.084229 0.995212  0.642056 0.693024 0
0  -7.470796 -11.254074 42.188606  0.049576 0.084229 0.995212  0.907726 0.630592 0
lilpeanuthomu
0  -2.761866 -11.830401 42.002804  0.965355 0.110850 0.236225  0.392256 0.376366 0
0  1.078827 -11.830401 26.307434  0.965355 0.110850 0.236225  0.418872 0.268545 0
0  1.040148 -11.239329 26.188133  0.965355 0.110850 0.236225  0.629722 0.525087 0
lilpeanuthomu
0  -7.470796 -10.116251 26.129080  1.000000 0.000000 0.000000  0.692383 0.627116 0
0  -7.470796 -10.116251 42.092308  1.000000 0.000000 0.000000  0.753886 0.627116 0
0  -7.470796 -11.254074 42.188606  1.000000 0.000000 0.000000  0.754257 0.877073 0
lilpeanuthomu
0  -12.490576 -10.116251 26.228802  0.000000 1.000000 0.000000  0.553249 0.722853 0
0  -12.490576 -10.116251 42.342365  0.000000 1.000000 0.000000  0.615332 0.722853 0
0  -7.470796 -10.116251 42.092308  0.000000 1.000000 0.000000  0.614368 0.972810 0
lilpeanuthomu
0  -12.490576 -11.254074 26.459936  -1.000000 -0.000000 0.000000  0.580493 0.693024 0
0  -12.490576 -11.254074 42.438671  -1.000000 -0.000000 0.000000  0.642056 0.693024 0
0  -12.490576 -10.116251 42.342365  -1.000000 -0.000000 0.000000  0.641685 0.942981 0
lilpeanuthomu
0  -7.470796 -11.254074 26.360210  0.000000 -1.000000 0.000000  0.846743 0.630592 0
0  -7.470796 -11.254074 42.188606  0.000000 -1.000000 0.000000  0.907726 0.630592 0
0  -12.490576 -11.254074 42.438671  0.000000 -1.000000 0.000000  0.908690 0.880548 0
lilpeanuthomu
0  -2.761866 -11.830401 42.002804  0.000000 -1.000000 -0.000000  0.290133 0.771322 0
0  -13.642226 -11.830401 42.544811  0.000000 -1.000000 -0.000000  0.214350 0.777959 0
0  -15.637506 -11.830401 26.639524  0.000000 -1.000000 -0.000000  0.200398 0.669396 0
lilpeanuthomu
0  -13.632921 -11.239329 42.494324  0.000000 1.000000 0.000000  0.634689 0.942975 0
0  -2.818183 -11.239329 41.955585  0.000000 1.000000 0.000000  0.555751 0.941951 0
0  1.040148 -11.239329 26.188133  0.000000 1.000000 0.000000  0.527600 0.920042 0
lilpeanuthomu
0  -2.761866 -11.830401 42.002804  0.049577 0.084227 0.995212  0.517756 0.243484 0
0  -2.818183 -11.239329 41.955585  0.049577 0.084227 0.995212  0.783373 0.414113 0
0  -13.632921 -11.239329 42.494324  0.049577 0.084227 0.995212  0.862311 0.415137 0
lilpeanuthomu
0  -15.636932 -11.239329 26.519440  -0.991881 0.026241 0.124429  0.817892 0.436156 0
0  -15.637506 -11.830401 26.639524  -0.991881 0.026241 0.124429  0.368961 0.184622 0
0  -13.642226 -11.830401 42.544811  -0.991881 0.026241 0.124429  0.382913 0.293185 0
lilpeanuthomu
0  1.078827 -11.830401 26.307434  -0.019465 -0.199041 -0.979798  0.447171 0.263624 0
0  -15.637506 -11.830401 26.639524  -0.019465 -0.199041 -0.979798  0.330819 0.269519 0
0  -15.636932 -11.239329 26.519440  -0.019465 -0.199041 -0.979798  0.779750 0.521053 0
lilpeanuthomu
0  -7.470796 -11.254074 26.360210  -0.019465 -0.199034 -0.979799  0.699425 0.755264 0
0  -12.490576 -11.254074 26.459936  -0.019465 -0.199034 -0.979799  0.586645 0.571216 0
0  -12.490576 -10.116251 26.228802  -0.019465 -0.199034 -0.979799  0.559401 0.601044 0
lilpeanuthomu
0  -7.470796 -10.116251 42.092308  0.049576 0.084235 0.995212  0.614368 0.972810 0
0  -12.490576 -10.116251 42.342365  0.049576 0.084235 0.995212  0.615332 0.722853 0
0  -12.490576 -11.254074 42.438671  0.049576 0.084235 0.995212  0.642056 0.693024 0
end
