// Created by Crowbar 0.74
version 1
nodes
  0 "static_prop" -1
end
skeleton
  time 0
    0 0.000000 0.000000 0.000000 0.000000 0.000000 0.000000
end
triangles
  phy
    0 -22.499998 -0.625003 51.249993 0.982879 0.108065 -0.149233 0 0
    0 -22.499998 -0.000003 51.249993 -0.932146 0.270624 -0.240555 0 0
    0 -19.375011 -0.625003 50.624999 0.794862 0.605609 0.037852 0 0
  phy
    0 -19.375011 -0.625003 50.624999 0.794862 0.605609 0.037852 0 0
    0 -22.499998 -0.000003 51.249993 -0.932146 0.270624 -0.240555 0 0
    0 -19.375011 -0.000003 50.624999 -0.995724 0.088625 0.026066 0 0
  phy
    0 -22.499998 -0.000003 51.249993 -0.932146 0.270624 -0.240555 0 0
    0 -22.499998 -0.625003 51.249993 0.982879 0.108065 -0.149233 0 0
    0 -27.499997 -0.000004 59.999988 -0.993217 -0.114402 -0.020801 0 0
  phy
    0 -27.499997 -0.000004 59.999988 -0.993217 -0.114402 -0.020801 0 0
    0 -22.499998 -0.625003 51.249993 0.982879 0.108065 -0.149233 0 0
    0 -27.499997 -0.625004 59.999988 0.997844 -0.064566 -0.011739 0 0
  phy
    0 -22.499998 -0.625003 51.249993 0.982879 0.108065 -0.149233 0 0
    0 -19.375011 -0.625003 50.624999 0.794862 0.605609 0.037852 0 0
    0 -15.625006 -0.625003 52.500006 0.979075 -0.133277 0.153782 0 0
  phy
    0 -15.625006 -0.625003 52.500006 0.979075 -0.133277 0.153782 0 0
    0 -27.499997 -0.625004 59.999988 0.997844 -0.064566 -0.011739 0 0
    0 -22.499998 -0.625003 51.249993 0.982879 0.108065 -0.149233 0 0
  phy
    0 -19.375011 -0.625003 50.624999 0.794862 0.605609 0.037852 0 0
    0 -19.375011 -0.000003 50.624999 -0.995724 0.088625 0.026066 0 0
    0 -15.625006 -0.625003 52.500006 0.979075 -0.133277 0.153782 0 0
  phy
    0 -15.625006 -0.625003 52.500006 0.979075 -0.133277 0.153782 0 0
    0 -19.375011 -0.000003 50.624999 -0.995724 0.088625 0.026066 0 0
    0 -15.625006 -0.000003 52.500006 -0.988368 -0.099603 0.114926 0 0
  phy
    0 -27.499997 -0.000004 59.999988 -0.993217 -0.114402 -0.020801 0 0
    0 -19.375011 -0.000003 50.624999 -0.995724 0.088625 0.026066 0 0
    0 -22.499998 -0.000003 51.249993 -0.932146 0.270624 -0.240555 0 0
  phy
    0 -19.375011 -0.000003 50.624999 -0.995724 0.088625 0.026066 0 0
    0 -27.499997 -0.000004 59.999988 -0.993217 -0.114402 -0.020801 0 0
    0 -15.625006 -0.000003 52.500006 -0.988368 -0.099603 0.114926 0 0
  phy
    0 -27.499997 -0.000004 59.999988 -0.993217 -0.114402 -0.020801 0 0
    0 -15.625006 -0.625003 52.500006 0.979075 -0.133277 0.153782 0 0
    0 -15.625006 -0.000003 52.500006 -0.988368 -0.099603 0.114926 0 0
  phy
    0 -27.499997 -0.000004 59.999988 -0.993217 -0.114402 -0.020801 0 0
    0 -27.499997 -0.625004 59.999988 0.997844 -0.064566 -0.011739 0 0
    0 -15.625006 -0.625003 52.500006 0.979075 -0.133277 0.153782 0 0
  phy
    0 24.999997 -0.000001 42.499998 -0.994221 -0.099422 0.040505 0 0
    0 -8.750001 -0.625003 49.999999 0.999287 -0.037664 -0.002543 0 0
    0 24.999997 -0.625001 42.499998 0.997600 -0.049880 0.048033 0 0
  phy
    0 24.999997 -0.000001 42.499998 -0.994221 -0.099422 0.040505 0 0
    0 -8.750001 -0.000003 49.999999 -0.999579 -0.023845 -0.016533 0 0
    0 -8.750001 -0.625003 49.999999 0.999287 -0.037664 -0.002543 0 0
  phy
    0 24.999997 -0.625001 42.499998 0.997600 -0.049880 0.048033 0 0
    0 25.000000 0.000000 29.999999 -0.999079 0.040993 0.012711 0 0
    0 24.999997 -0.000001 42.499998 -0.994221 -0.099422 0.040505 0 0
  phy
    0 24.999997 -0.625001 42.499998 0.997600 -0.049880 0.048033 0 0
    0 25.000000 -0.625000 29.999999 0.999769 0.020511 0.006360 0 0
    0 25.000000 0.000000 29.999999 -0.999079 0.040993 0.012711 0 0
  phy
    0 -8.750001 -0.000003 49.999999 -0.999579 -0.023845 -0.016533 0 0
    0 24.999997 -0.000001 42.499998 -0.994221 -0.099422 0.040505 0 0
    0 25.000000 0.000000 29.999999 -0.999079 0.040993 0.012711 0 0
  phy
    0 -8.750001 -0.625003 49.999999 0.999287 -0.037664 -0.002543 0 0
    0 -8.750001 -0.000003 49.999999 -0.999579 -0.023845 -0.016533 0 0
    0 -15.312500 -0.625002 29.999996 0.998155 0.052229 -0.030951 0 0
  phy
    0 -15.312500 -0.625002 29.999996 0.998155 0.052229 -0.030951 0 0
    0 -8.750001 -0.000003 49.999999 -0.999579 -0.023845 -0.016533 0 0
    0 -15.312500 -0.000002 29.999996 -0.999538 0.026151 -0.015497 0 0
  phy
    0 -15.312500 -0.000002 29.999996 -0.999538 0.026151 -0.015497 0 0
    0 25.000000 0.000000 29.999999 -0.999079 0.040993 0.012711 0 0
    0 -15.312500 -0.625002 29.999996 0.998155 0.052229 -0.030951 0 0
  phy
    0 -15.312500 -0.625002 29.999996 0.998155 0.052229 -0.030951 0 0
    0 25.000000 0.000000 29.999999 -0.999079 0.040993 0.012711 0 0
    0 25.000000 -0.625000 29.999999 0.999769 0.020511 0.006360 0 0
  phy
    0 -15.312500 -0.000002 29.999996 -0.999538 0.026151 -0.015497 0 0
    0 -8.750001 -0.000003 49.999999 -0.999579 -0.023845 -0.016533 0 0
    0 25.000000 0.000000 29.999999 -0.999079 0.040993 0.012711 0 0
  phy
    0 24.999997 -0.625001 42.499998 0.997600 -0.049880 0.048033 0 0
    0 -8.750001 -0.625003 49.999999 0.999287 -0.037664 -0.002543 0 0
    0 25.000000 -0.625000 29.999999 0.999769 0.020511 0.006360 0 0
  phy
    0 25.000000 -0.625000 29.999999 0.999769 0.020511 0.006360 0 0
    0 -8.750001 -0.625003 49.999999 0.999287 -0.037664 -0.002543 0 0
    0 -15.312500 -0.625002 29.999996 0.998155 0.052229 -0.030951 0 0
  phy
    0 2.500007 -0.625004 84.999997 0.998483 -0.015128 -0.052950 0 0
    0 2.500007 -0.000004 84.999997 -0.995781 -0.025210 -0.088234 0 0
    0 11.250006 -0.625003 74.375000 0.960189 0.194469 -0.200546 0 0
  phy
    0 11.250006 -0.625003 74.375000 0.960189 0.194469 -0.200546 0 0
    0 2.500007 -0.000004 84.999997 -0.995781 -0.025210 -0.088234 0 0
    0 11.250006 -0.000003 74.375000 -0.951112 0.255176 -0.173984 0 0
  phy
    0 2.500007 -0.000004 84.999997 -0.995781 -0.025210 -0.088234 0 0
    0 12.500002 -0.000003 78.749995 -0.953282 -0.225778 0.200692 0 0
    0 13.750001 -0.000003 75.000004 -0.996632 0.000000 0.082001 0 0
  phy
    0 11.250006 -0.000003 74.375000 -0.951112 0.255176 -0.173984 0 0
    0 2.500007 -0.000004 84.999997 -0.995781 -0.025210 -0.088234 0 0
    0 13.750001 -0.000003 75.000004 -0.996632 0.000000 0.082001 0 0
  phy
    0 2.500007 -0.000004 84.999997 -0.995781 -0.025210 -0.088234 0 0
    0 2.500007 -0.625004 84.999997 0.998483 -0.015128 -0.052950 0 0
    0 12.500002 -0.625003 78.749995 0.956540 -0.217946 0.193730 0 0
  phy
    0 2.500007 -0.000004 84.999997 -0.995781 -0.025210 -0.088234 0 0
    0 12.500002 -0.625003 78.749995 0.956540 -0.217946 0.193730 0 0
    0 12.500002 -0.000003 78.749995 -0.953282 -0.225778 0.200692 0 0
  phy
    0 12.500002 -0.625003 78.749995 0.956540 -0.217946 0.193730 0 0
    0 13.750001 -0.000003 75.000004 -0.996632 0.000000 0.082001 0 0
    0 12.500002 -0.000003 78.749995 -0.953282 -0.225778 0.200692 0 0
  phy
    0 12.500002 -0.625003 78.749995 0.956540 -0.217946 0.193730 0 0
    0 13.750001 -0.625003 75.000004 0.933345 0.215388 0.287184 0 0
    0 13.750001 -0.000003 75.000004 -0.996632 0.000000 0.082001 0 0
  phy
    0 13.750001 -0.000003 75.000004 -0.996632 0.000000 0.082001 0 0
    0 13.750001 -0.625003 75.000004 0.933345 0.215388 0.287184 0 0
    0 11.250006 -0.000003 74.375000 -0.951112 0.255176 -0.173984 0 0
  phy
    0 11.250006 -0.000003 74.375000 -0.951112 0.255176 -0.173984 0 0
    0 13.750001 -0.625003 75.000004 0.933345 0.215388 0.287184 0 0
    0 11.250006 -0.625003 74.375000 0.960189 0.194469 -0.200546 0 0
  phy
    0 12.500002 -0.625003 78.749995 0.956540 -0.217946 0.193730 0 0
    0 11.250006 -0.625003 74.375000 0.960189 0.194469 -0.200546 0 0
    0 13.750001 -0.625003 75.000004 0.933345 0.215388 0.287184 0 0
  phy
    0 12.500002 -0.625003 78.749995 0.956540 -0.217946 0.193730 0 0
    0 2.500007 -0.625004 84.999997 0.998483 -0.015128 -0.052950 0 0
    0 11.250006 -0.625003 74.375000 0.960189 0.194469 -0.200546 0 0
  phy
    0 0.625000 1.249999 17.500000 0.364790 0.225822 0.903290 0 0
    0 -0.625000 1.249999 17.500000 0.458563 0.397422 -0.794843 0 0
    0 0.624999 17.500000 1.250001 0.205702 0.237349 0.949396 0 0
  phy
    0 0.624999 17.500000 1.250001 0.205702 0.237349 0.949396 0 0
    0 -0.625000 1.249999 17.500000 0.458563 0.397422 -0.794843 0 0
    0 -0.625001 17.500000 1.250001 0.106109 0.171407 -0.979469 0 0
  phy
    0 0.625000 1.249999 22.500000 -0.233862 -0.265043 0.935447 0 0
    0 -0.625000 1.249999 22.500000 -0.074055 -0.139881 -0.987395 0 0
    0 0.625000 1.249999 17.500000 0.364790 0.225822 0.903290 0 0
  phy
    0 0.625000 1.249999 17.500000 0.364790 0.225822 0.903290 0 0
    0 -0.625000 1.249999 22.500000 -0.074055 -0.139881 -0.987395 0 0
    0 -0.625000 1.249999 17.500000 0.458563 0.397422 -0.794843 0 0
  phy
    0 0.625000 1.249999 17.500000 0.364790 0.225822 0.903290 0 0
    0 0.624999 17.500000 1.250001 0.205702 0.237349 0.949396 0 0
    0 0.625000 1.249999 22.500000 -0.233862 -0.265043 0.935447 0 0
  phy
    0 -0.625001 22.500000 1.250001 -0.415997 -0.367057 -0.831995 0 0
    0 0.624999 22.500000 1.250001 -0.240561 -0.127356 0.962243 0 0
    0 -0.625001 17.500000 1.250001 0.106109 0.171407 -0.979469 0 0
  phy
    0 -0.625001 17.500000 1.250001 0.106109 0.171407 -0.979469 0 0
    0 0.624999 22.500000 1.250001 -0.240561 -0.127356 0.962243 0 0
    0 0.624999 17.500000 1.250001 0.205702 0.237349 0.949396 0 0
  phy
    0 0.625000 1.249999 22.500000 -0.233862 -0.265043 0.935447 0 0
    0 0.624999 17.500000 1.250001 0.205702 0.237349 0.949396 0 0
    0 0.624999 22.500000 1.250001 -0.240561 -0.127356 0.962243 0 0
  phy
    0 0.624999 22.500000 1.250001 -0.240561 -0.127356 0.962243 0 0
    0 -0.625001 22.500000 1.250001 -0.415997 -0.367057 -0.831995 0 0
    0 0.625000 1.249999 22.500000 -0.233862 -0.265043 0.935447 0 0
  phy
    0 0.625000 1.249999 22.500000 -0.233862 -0.265043 0.935447 0 0
    0 -0.625001 22.500000 1.250001 -0.415997 -0.367057 -0.831995 0 0
    0 -0.625000 1.249999 22.500000 -0.074055 -0.139881 -0.987395 0 0
  phy
    0 -0.625001 17.500000 1.250001 0.106109 0.171407 -0.979469 0 0
    0 -0.625000 1.249999 17.500000 0.458563 0.397422 -0.794843 0 0
    0 -0.625000 1.249999 22.500000 -0.074055 -0.139881 -0.987395 0 0
  phy
    0 -0.625001 17.500000 1.250001 0.106109 0.171407 -0.979469 0 0
    0 -0.625000 1.249999 22.500000 -0.074055 -0.139881 -0.987395 0 0
    0 -0.625001 22.500000 1.250001 -0.415997 -0.367057 -0.831995 0 0
  phy
    0 6.250000 -0.625000 11.874999 0.989359 -0.087296 0.116395 0 0
    0 7.500000 0.000000 3.125000 -0.996799 0.065059 0.046471 0 0
    0 6.250000 0.000000 11.874999 -0.986108 -0.150817 0.069608 0 0
  phy
    0 6.250000 -0.625000 11.874999 0.989359 -0.087296 0.116395 0 0
    0 7.500000 -0.625000 3.125000 0.999197 0.032608 0.023291 0 0
    0 7.500000 0.000000 3.125000 -0.996799 0.065059 0.046471 0 0
  phy
    0 6.250000 0.000000 11.874999 -0.986108 -0.150817 0.069608 0 0
    0 -5.312500 -0.625001 13.125000 0.997919 -0.061255 -0.020160 0 0
    0 6.250000 -0.625000 11.874999 0.989359 -0.087296 0.116395 0 0
  phy
    0 6.250000 0.000000 11.874999 -0.986108 -0.150817 0.069608 0 0
    0 -5.312500 -0.000001 13.125000 -0.998102 -0.036450 -0.049634 0 0
    0 -5.312500 -0.625001 13.125000 0.997919 -0.061255 -0.020160 0 0
  phy
    0 6.250000 -0.625000 11.874999 0.989359 -0.087296 0.116395 0 0
    0 -5.312500 -0.625001 13.125000 0.997919 -0.061255 -0.020160 0 0
    0 7.500000 -0.625000 3.125000 0.999197 0.032608 0.023291 0 0
  phy
    0 -5.312500 -0.625001 13.125000 0.997919 -0.061255 -0.020160 0 0
    0 -5.312500 -0.000001 13.125000 -0.998102 -0.036450 -0.049634 0 0
    0 -6.875000 -0.625000 2.500001 0.991158 0.104601 -0.081640 0 0
  phy
    0 -6.875000 -0.625000 2.500001 0.991158 0.104601 -0.081640 0 0
    0 -5.312500 -0.000001 13.125000 -0.998102 -0.036450 -0.049634 0 0
    0 -6.875000 0.000000 2.500001 -0.997767 0.052649 -0.041092 0 0
  phy
    0 -6.875000 0.000000 2.500001 -0.997767 0.052649 -0.041092 0 0
    0 7.500000 0.000000 3.125000 -0.996799 0.065059 0.046471 0 0
    0 -6.875000 -0.625000 2.500001 0.991158 0.104601 -0.081640 0 0
  phy
    0 -6.875000 -0.625000 2.500001 0.991158 0.104601 -0.081640 0 0
    0 7.500000 0.000000 3.125000 -0.996799 0.065059 0.046471 0 0
    0 7.500000 -0.625000 3.125000 0.999197 0.032608 0.023291 0 0
  phy
    0 -6.875000 0.000000 2.500001 -0.997767 0.052649 -0.041092 0 0
    0 -5.312500 -0.000001 13.125000 -0.998102 -0.036450 -0.049634 0 0
    0 7.500000 0.000000 3.125000 -0.996799 0.065059 0.046471 0 0
  phy
    0 7.500000 -0.625000 3.125000 0.999197 0.032608 0.023291 0 0
    0 -5.312500 -0.625001 13.125000 0.997919 -0.061255 -0.020160 0 0
    0 -6.875000 -0.625000 2.500001 0.991158 0.104601 -0.081640 0 0
  phy
    0 -5.312500 -0.000001 13.125000 -0.998102 -0.036450 -0.049634 0 0
    0 6.250000 0.000000 11.874999 -0.986108 -0.150817 0.069608 0 0
    0 7.500000 0.000000 3.125000 -0.996799 0.065059 0.046471 0 0
  phy
    0 6.249999 0.000000 11.874998 -0.997380 0.066208 0.029156 0 0
    0 6.249999 -0.625000 11.874998 0.980285 0.194993 0.031908 0 0
    0 -5.312499 -0.000001 13.124999 -0.959372 0.270245 -0.081074 0 0
  phy
    0 -5.312499 -0.000001 13.124999 -0.959372 0.270245 -0.081074 0 0
    0 6.249999 -0.625000 11.874998 0.980285 0.194993 0.031908 0 0
    0 -5.312499 -0.625001 13.124999 0.998109 0.054100 -0.029177 0 0
  phy
    0 -5.312499 -0.000001 13.124999 -0.959372 0.270245 -0.081074 0 0
    0 -5.312499 -0.625001 13.124999 0.998109 0.054100 -0.029177 0 0
    0 -13.437500 -0.000001 20.000003 -0.995716 -0.088535 -0.026682 0 0
  phy
    0 -13.437500 -0.000001 20.000003 -0.995716 -0.088535 -0.026682 0 0
    0 -5.312499 -0.625001 13.124999 0.998109 0.054100 -0.029177 0 0
    0 -13.437500 -0.625001 20.000003 0.997558 -0.066870 -0.020153 0 0
  phy
    0 -5.312499 -0.625001 13.124999 0.998109 0.054100 -0.029177 0 0
    0 6.249999 -0.625000 11.874998 0.980285 0.194993 0.031908 0 0
    0 17.500003 -0.625000 20.000003 0.996572 -0.076473 0.031560 0 0
  phy
    0 17.500003 -0.625000 20.000003 0.996572 -0.076473 0.031560 0 0
    0 -13.437500 -0.625001 20.000003 0.997558 -0.066870 -0.020153 0 0
    0 -5.312499 -0.625001 13.124999 0.998109 0.054100 -0.029177 0 0
  phy
    0 6.249999 -0.625000 11.874998 0.980285 0.194993 0.031908 0 0
    0 6.249999 0.000000 11.874998 -0.997380 0.066208 0.029156 0 0
    0 17.500003 -0.625000 20.000003 0.996572 -0.076473 0.031560 0 0
  phy
    0 17.500003 -0.625000 20.000003 0.996572 -0.076473 0.031560 0 0
    0 6.249999 0.000000 11.874998 -0.997380 0.066208 0.029156 0 0
    0 17.500003 0.000000 20.000003 -0.998601 -0.048883 0.020174 0 0
  phy
    0 -13.437500 -0.000001 20.000003 -0.995716 -0.088535 -0.026682 0 0
    0 6.249999 0.000000 11.874998 -0.997380 0.066208 0.029156 0 0
    0 -5.312499 -0.000001 13.124999 -0.959372 0.270245 -0.081074 0 0
  phy
    0 6.249999 0.000000 11.874998 -0.997380 0.066208 0.029156 0 0
    0 -13.437500 -0.000001 20.000003 -0.995716 -0.088535 -0.026682 0 0
    0 17.500003 0.000000 20.000003 -0.998601 -0.048883 0.020174 0 0
  phy
    0 -13.437500 -0.000001 20.000003 -0.995716 -0.088535 -0.026682 0 0
    0 17.500003 -0.625000 20.000003 0.996572 -0.076473 0.031560 0 0
    0 17.500003 0.000000 20.000003 -0.998601 -0.048883 0.020174 0 0
  phy
    0 -13.437500 -0.000001 20.000003 -0.995716 -0.088535 -0.026682 0 0
    0 -13.437500 -0.625001 20.000003 0.997558 -0.066870 -0.020153 0 0
    0 17.500003 -0.625000 20.000003 0.996572 -0.076473 0.031560 0 0
  phy
    0 -13.437499 -0.625001 20.000001 0.996744 0.069848 -0.040272 0 0
    0 -13.437499 -0.000001 20.000001 -0.998099 0.060889 -0.009551 0 0
    0 17.500000 -0.625000 20.000001 0.998117 0.060591 0.009551 0 0
  phy
    0 17.500000 -0.625000 20.000001 0.998117 0.060591 0.009551 0 0
    0 -13.437499 -0.000001 20.000001 -0.998099 0.060889 -0.009551 0 0
    0 17.500000 0.000000 20.000001 -0.996831 0.068595 0.040276 0 0
  phy
    0 -13.437499 -0.000001 20.000001 -0.998099 0.060889 -0.009551 0 0
    0 -13.437499 -0.625001 20.000001 0.996744 0.069848 -0.040272 0 0
    0 -15.312499 -0.000002 29.999996 -0.992442 -0.117289 -0.036089 0 0
  phy
    0 -15.312499 -0.000002 29.999996 -0.992442 -0.117289 -0.036089 0 0
    0 -13.437499 -0.625001 20.000001 0.996744 0.069848 -0.040272 0 0
    0 -15.312499 -0.625002 29.999996 0.999471 -0.031084 -0.009564 0 0
  phy
    0 17.500000 -0.625000 20.000001 0.998117 0.060591 0.009551 0 0
    0 -15.312499 -0.625002 29.999996 0.999471 -0.031084 -0.009564 0 0
    0 -13.437499 -0.625001 20.000001 0.996744 0.069848 -0.040272 0 0
  phy
    0 17.500000 0.000000 20.000001 -0.996831 0.068595 0.040276 0 0
    0 19.062501 -0.625000 29.999996 0.992310 -0.118401 0.036084 0 0
    0 17.500000 -0.625000 20.000001 0.998117 0.060591 0.009551 0 0
  phy
    0 17.500000 0.000000 20.000001 -0.996831 0.068595 0.040276 0 0
    0 19.062501 0.000000 29.999996 -0.999462 -0.031383 0.009564 0 0
    0 19.062501 -0.625000 29.999996 0.992310 -0.118401 0.036084 0 0
  phy
    0 19.062501 -0.625000 29.999996 0.992310 -0.118401 0.036084 0 0
    0 -15.312499 -0.000002 29.999996 -0.992442 -0.117289 -0.036089 0 0
    0 -15.312499 -0.625002 29.999996 0.999471 -0.031084 -0.009564 0 0
  phy
    0 19.062501 -0.625000 29.999996 0.992310 -0.118401 0.036084 0 0
    0 19.062501 0.000000 29.999996 -0.999462 -0.031383 0.009564 0 0
    0 -15.312499 -0.000002 29.999996 -0.992442 -0.117289 -0.036089 0 0
  phy
    0 19.062501 -0.625000 29.999996 0.992310 -0.118401 0.036084 0 0
    0 -15.312499 -0.625002 29.999996 0.999471 -0.031084 -0.009564 0 0
    0 17.500000 -0.625000 20.000001 0.998117 0.060591 0.009551 0 0
  phy
    0 -13.437499 -0.000001 20.000001 -0.998099 0.060889 -0.009551 0 0
    0 -15.312499 -0.000002 29.999996 -0.992442 -0.117289 -0.036089 0 0
    0 19.062501 0.000000 29.999996 -0.999462 -0.031383 0.009564 0 0
  phy
    0 -13.437499 -0.000001 20.000001 -0.998099 0.060889 -0.009551 0 0
    0 19.062501 0.000000 29.999996 -0.999462 -0.031383 0.009564 0 0
    0 17.500000 0.000000 20.000001 -0.996831 0.068595 0.040276 0 0
  phy
    0 11.249997 -0.625002 48.125011 0.942330 -0.322598 0.089139 0 0
    0 24.999971 -0.000001 42.500013 -0.998623 0.044983 0.026990 0 0
    0 11.249997 -0.000002 48.125011 -0.930632 -0.360514 0.062880 0 0
  phy
    0 11.249997 -0.625002 48.125011 0.942330 -0.322598 0.089139 0 0
    0 24.999971 -0.625001 42.500013 0.930632 0.360514 -0.062880 0 0
    0 24.999971 -0.000001 42.500013 -0.998623 0.044983 0.026990 0 0
  phy
    0 11.249997 -0.000002 48.125011 -0.930632 -0.360514 0.062880 0 0
    0 -8.750037 -0.625003 49.999999 0.998623 -0.044983 -0.026990 0 0
    0 11.249997 -0.625002 48.125011 0.942330 -0.322598 0.089139 0 0
  phy
    0 11.249997 -0.000002 48.125011 -0.930632 -0.360514 0.062880 0 0
    0 -8.750037 -0.000003 49.999999 -0.942330 0.322598 -0.089139 0 0
    0 -8.750037 -0.625003 49.999999 0.998623 -0.044983 -0.026990 0 0
  phy
    0 -8.750037 -0.000003 49.999999 -0.942330 0.322598 -0.089139 0 0
    0 11.249997 -0.000002 48.125011 -0.930632 -0.360514 0.062880 0 0
    0 24.999971 -0.000001 42.500013 -0.998623 0.044983 0.026990 0 0
  phy
    0 24.999971 -0.000001 42.500013 -0.998623 0.044983 0.026990 0 0
    0 24.999971 -0.625001 42.500013 0.930632 0.360514 -0.062880 0 0
    0 -8.750037 -0.000003 49.999999 -0.942330 0.322598 -0.089139 0 0
  phy
    0 -8.750037 -0.000003 49.999999 -0.942330 0.322598 -0.089139 0 0
    0 24.999971 -0.625001 42.500013 0.930632 0.360514 -0.062880 0 0
    0 -8.750037 -0.625003 49.999999 0.998623 -0.044983 -0.026990 0 0
  phy
    0 11.249997 -0.625002 48.125011 0.942330 -0.322598 0.089139 0 0
    0 -8.750037 -0.625003 49.999999 0.998623 -0.044983 -0.026990 0 0
    0 24.999971 -0.625001 42.500013 0.930632 0.360514 -0.062880 0 0
  phy
    0 -8.750000 -0.000003 50.000004 -0.993112 0.109640 -0.041314 0 0
    0 -8.750000 -0.625003 50.000004 0.995407 0.066891 -0.068484 0 0
    0 -11.875001 -0.000003 62.499999 -0.998587 -0.047022 -0.024748 0 0
  phy
    0 -11.875001 -0.000003 62.499999 -0.998587 -0.047022 -0.024748 0 0
    0 -8.750000 -0.625003 50.000004 0.995407 0.066891 -0.068484 0 0
    0 -11.875001 -0.625003 62.499999 0.999646 -0.023536 -0.012387 0 0
  phy
    0 -8.750000 -0.625003 50.000004 0.995407 0.066891 -0.068484 0 0
    0 -8.750000 -0.000003 50.000004 -0.993112 0.109640 -0.041314 0 0
    0 11.250000 -0.625002 48.125006 0.999006 0.043327 0.010522 0 0
  phy
    0 11.250000 -0.625002 48.125006 0.999006 0.043327 0.010522 0 0
    0 -8.750000 -0.000003 50.000004 -0.993112 0.109640 -0.041314 0 0
    0 11.250000 -0.000002 48.125006 -0.999274 0.027242 0.026623 0 0
  phy
    0 -8.750000 -0.000003 50.000004 -0.993112 0.109640 -0.041314 0 0
    0 -11.875001 -0.000003 62.499999 -0.998587 -0.047022 -0.024748 0 0
    0 11.250000 -0.000002 48.125006 -0.999274 0.027242 0.026623 0 0
  phy
    0 11.250000 -0.000002 48.125006 -0.999274 0.027242 0.026623 0 0
    0 14.999999 -0.625002 62.499999 0.996142 -0.074534 0.046332 0 0
    0 11.250000 -0.625002 48.125006 0.999006 0.043327 0.010522 0 0
  phy
    0 11.250000 -0.000002 48.125006 -0.999274 0.027242 0.026623 0 0
    0 14.999999 -0.000002 62.499999 -0.999031 -0.037375 0.023233 0 0
    0 14.999999 -0.625002 62.499999 0.996142 -0.074534 0.046332 0 0
  phy
    0 14.999999 -0.625002 62.499999 0.996142 -0.074534 0.046332 0 0
    0 -11.875001 -0.000003 62.499999 -0.998587 -0.047022 -0.024748 0 0
    0 -11.875001 -0.625003 62.499999 0.999646 -0.023536 -0.012387 0 0
  phy
    0 14.999999 -0.625002 62.499999 0.996142 -0.074534 0.046332 0 0
    0 14.999999 -0.000002 62.499999 -0.999031 -0.037375 0.023233 0 0
    0 -11.875001 -0.000003 62.499999 -0.998587 -0.047022 -0.024748 0 0
  phy
    0 14.999999 -0.625002 62.499999 0.996142 -0.074534 0.046332 0 0
    0 -11.875001 -0.625003 62.499999 0.999646 -0.023536 -0.012387 0 0
    0 11.250000 -0.625002 48.125006 0.999006 0.043327 0.010522 0 0
  phy
    0 -11.875001 -0.000003 62.499999 -0.998587 -0.047022 -0.024748 0 0
    0 14.999999 -0.000002 62.499999 -0.999031 -0.037375 0.023233 0 0
    0 11.250000 -0.000002 48.125006 -0.999274 0.027242 0.026623 0 0
  phy
    0 11.250000 -0.625002 48.125006 0.999006 0.043327 0.010522 0 0
    0 -11.875001 -0.625003 62.499999 0.999646 -0.023536 -0.012387 0 0
    0 -8.750000 -0.625003 50.000004 0.995407 0.066891 -0.068484 0 0
  phy
    0 -11.250001 -0.625002 41.874999 0.977342 0.210799 -0.019164 0 0
    0 -11.250001 -0.000002 41.874999 -0.993008 0.091890 0.074105 0 0
    0 -9.375001 -0.625003 47.499993 0.992163 -0.011847 0.124391 0 0
  phy
    0 -9.375001 -0.625003 47.499993 0.992163 -0.011847 0.124391 0 0
    0 -11.250001 -0.000002 41.874999 -0.993008 0.091890 0.074105 0 0
    0 -9.375003 -0.000002 47.499997 -0.971262 -0.155882 0.179863 0 0
  phy
    0 -17.187504 -0.625003 45.312502 0.993952 0.002967 -0.109780 0 0
    0 -11.250001 -0.625002 41.874999 0.977342 0.210799 -0.019164 0 0
    0 -9.375001 -0.625003 47.499993 0.992163 -0.011847 0.124391 0 0
  phy
    0 -9.375001 -0.625003 47.499993 0.992163 -0.011847 0.124391 0 0
    0 -14.375005 -0.625003 49.374995 0.954325 -0.298682 -0.007285 0 0
    0 -17.187504 -0.625003 45.312502 0.993952 0.002967 -0.109780 0 0
  phy
    0 -9.375003 -0.000002 47.499997 -0.971262 -0.155882 0.179863 0 0
    0 -14.375005 -0.625003 49.374995 0.954325 -0.298682 -0.007285 0 0
    0 -9.375001 -0.625003 47.499993 0.992163 -0.011847 0.124391 0 0
  phy
    0 -17.187503 -0.000003 45.312493 -0.967175 0.162128 -0.195671 0 0
    0 -17.187504 -0.625003 45.312502 0.993952 0.002967 -0.109780 0 0
    0 -14.375007 -0.000003 49.374995 -0.993139 -0.100796 -0.059292 0 0
  phy
    0 -14.375007 -0.000003 49.374995 -0.993139 -0.100796 -0.059292 0 0
    0 -17.187504 -0.625003 45.312502 0.993952 0.002967 -0.109780 0 0
    0 -14.375005 -0.625003 49.374995 0.954325 -0.298682 -0.007285 0 0
  phy
    0 -11.250001 -0.625002 41.874999 0.977342 0.210799 -0.019164 0 0
    0 -17.187504 -0.625003 45.312502 0.993952 0.002967 -0.109780 0 0
    0 -17.187503 -0.000003 45.312493 -0.967175 0.162128 -0.195671 0 0
  phy
    0 -11.250001 -0.625002 41.874999 0.977342 0.210799 -0.019164 0 0
    0 -17.187503 -0.000003 45.312493 -0.967175 0.162128 -0.195671 0 0
    0 -11.250001 -0.000002 41.874999 -0.993008 0.091890 0.074105 0 0
  phy
    0 -14.375007 -0.000003 49.374995 -0.993139 -0.100796 -0.059292 0 0
    0 -14.375005 -0.625003 49.374995 0.954325 -0.298682 -0.007285 0 0
    0 -9.375003 -0.000002 47.499997 -0.971262 -0.155882 0.179863 0 0
  phy
    0 -14.375007 -0.000003 49.374995 -0.993139 -0.100796 -0.059292 0 0
    0 -9.375003 -0.000002 47.499997 -0.971262 -0.155882 0.179863 0 0
    0 -11.250001 -0.000002 41.874999 -0.993008 0.091890 0.074105 0 0
  phy
    0 -17.187503 -0.000003 45.312493 -0.967175 0.162128 -0.195671 0 0
    0 -14.375007 -0.000003 49.374995 -0.993139 -0.100796 -0.059292 0 0
    0 -11.250001 -0.000002 41.874999 -0.993008 0.091890 0.074105 0 0
  phy
    0 -27.499999 -0.625004 59.999997 0.998089 0.012602 -0.060490 0 0
    0 -27.499999 -0.000004 59.999997 -0.996518 0.017005 -0.081626 0 0
    0 -15.624999 -0.625003 52.500001 0.996639 0.081636 0.006803 0 0
  phy
    0 -15.624999 -0.625003 52.500001 0.996639 0.081636 0.006803 0 0
    0 -27.499999 -0.000004 59.999997 -0.996518 0.017005 -0.081626 0 0
    0 -15.624999 -0.000003 52.500001 -0.997282 0.073419 0.006118 0 0
  phy
    0 -15.624999 -0.000003 52.500001 -0.997282 0.073419 0.006118 0 0
    0 -12.499999 -0.000003 61.250005 -0.996518 -0.017005 0.081626 0 0
    0 -15.624999 -0.625003 52.500001 0.996639 0.081636 0.006803 0 0
  phy
    0 -12.499999 -0.000003 61.250005 -0.996518 -0.017005 0.081626 0 0
    0 -12.499999 -0.625003 61.250005 0.991778 -0.026099 0.125277 0 0
    0 -15.624999 -0.625003 52.500001 0.996639 0.081636 0.006803 0 0
  phy
    0 -12.499999 -0.625003 61.250005 0.991778 -0.026099 0.125277 0 0
    0 -18.749997 -0.625004 67.500003 0.996639 -0.081636 -0.006803 0 0
    0 -15.624999 -0.625003 52.500001 0.996639 0.081636 0.006803 0 0
  phy
    0 -15.624999 -0.625003 52.500001 0.996639 0.081636 0.006803 0 0
    0 -18.749997 -0.625004 67.500003 0.996639 -0.081636 -0.006803 0 0
    0 -27.499999 -0.625004 59.999997 0.998089 0.012602 -0.060490 0 0
  phy
    0 -12.499999 -0.000003 61.250005 -0.996518 -0.017005 0.081626 0 0
    0 -18.749997 -0.625004 67.500003 0.996639 -0.081636 -0.006803 0 0
    0 -12.499999 -0.625003 61.250005 0.991778 -0.026099 0.125277 0 0
  phy
    0 -12.499999 -0.000003 61.250005 -0.996518 -0.017005 0.081626 0 0
    0 -18.749997 -0.000004 67.500003 -0.995737 -0.091914 -0.007660 0 0
    0 -18.749997 -0.625004 67.500003 0.996639 -0.081636 -0.006803 0 0
  phy
    0 -18.749997 -0.625004 67.500003 0.996639 -0.081636 -0.006803 0 0
    0 -27.499999 -0.000004 59.999997 -0.996518 0.017005 -0.081626 0 0
    0 -27.499999 -0.625004 59.999997 0.998089 0.012602 -0.060490 0 0
  phy
    0 -18.749997 -0.625004 67.500003 0.996639 -0.081636 -0.006803 0 0
    0 -18.749997 -0.000004 67.500003 -0.995737 -0.091914 -0.007660 0 0
    0 -27.499999 -0.000004 59.999997 -0.996518 0.017005 -0.081626 0 0
  phy
    0 -12.499999 -0.000003 61.250005 -0.996518 -0.017005 0.081626 0 0
    0 -27.499999 -0.000004 59.999997 -0.996518 0.017005 -0.081626 0 0
    0 -18.749997 -0.000004 67.500003 -0.995737 -0.091914 -0.007660 0 0
  phy
    0 -27.499999 -0.000004 59.999997 -0.996518 0.017005 -0.081626 0 0
    0 -12.499999 -0.000003 61.250005 -0.996518 -0.017005 0.081626 0 0
    0 -15.624999 -0.000003 52.500001 -0.997282 0.073419 0.006118 0 0
  phy
    0 -15.624999 -0.625003 52.500001 0.947040 -0.263067 0.184147 0 0
    0 -14.375000 -0.000003 49.375005 -0.985826 0.005082 0.167692 0 0
    0 -15.624999 -0.000003 52.500001 -0.931692 -0.362325 -0.025880 0 0
  phy
    0 -15.624999 -0.625003 52.500001 0.947040 -0.263067 0.184147 0 0
    0 -14.375000 -0.625003 49.375005 0.980749 0.070776 0.181995 0 0
    0 -14.375000 -0.000003 49.375005 -0.985826 0.005082 0.167692 0 0
  phy
    0 -15.624999 -0.000003 52.500001 -0.931692 -0.362325 -0.025880 0 0
    0 -19.375000 -0.625003 50.625008 0.985318 -0.086342 -0.147290 0 0
    0 -15.624999 -0.625003 52.500001 0.947040 -0.263067 0.184147 0 0
  phy
    0 -15.624999 -0.000003 52.500001 -0.931692 -0.362325 -0.025880 0 0
    0 -19.375000 -0.000003 50.625008 -0.979348 0.010096 -0.201928 0 0
    0 -19.375000 -0.625003 50.625008 0.985318 -0.086342 -0.147290 0 0
  phy
    0 -15.624999 -0.625003 52.500001 0.947040 -0.263067 0.184147 0 0
    0 -19.375000 -0.625003 50.625008 0.985318 -0.086342 -0.147290 0 0
    0 -14.375000 -0.625003 49.375005 0.980749 0.070776 0.181995 0 0
  phy
    0 -14.375000 -0.625003 49.375005 0.980749 0.070776 0.181995 0 0
    0 -17.187502 -0.000003 45.312498 -0.977095 0.200224 0.072081 0 0
    0 -14.375000 -0.000003 49.375005 -0.985826 0.005082 0.167692 0 0
  phy
    0 -14.375000 -0.625003 49.375005 0.980749 0.070776 0.181995 0 0
    0 -17.187502 -0.625003 45.312498 0.968926 0.182666 -0.166782 0 0
    0 -17.187502 -0.000003 45.312498 -0.977095 0.200224 0.072081 0 0
  phy
    0 -14.375000 -0.000003 49.375005 -0.985826 0.005082 0.167692 0 0
    0 -19.375000 -0.000003 50.625008 -0.979348 0.010096 -0.201928 0 0
    0 -15.624999 -0.000003 52.500001 -0.931692 -0.362325 -0.025880 0 0
  phy
    0 -19.375000 -0.000003 50.625008 -0.979348 0.010096 -0.201928 0 0
    0 -14.375000 -0.000003 49.375005 -0.985826 0.005082 0.167692 0 0
    0 -17.187502 -0.000003 45.312498 -0.977095 0.200224 0.072081 0 0
  phy
    0 -17.187502 -0.000003 45.312498 -0.977095 0.200224 0.072081 0 0
    0 -17.187502 -0.625003 45.312498 0.968926 0.182666 -0.166782 0 0
    0 -19.375000 -0.000003 50.625008 -0.979348 0.010096 -0.201928 0 0
  phy
    0 -19.375000 -0.000003 50.625008 -0.979348 0.010096 -0.201928 0 0
    0 -17.187502 -0.625003 45.312498 0.968926 0.182666 -0.166782 0 0
    0 -19.375000 -0.625003 50.625008 0.985318 -0.086342 -0.147290 0 0
  phy
    0 -14.375000 -0.625003 49.375005 0.980749 0.070776 0.181995 0 0
    0 -19.375000 -0.625003 50.625008 0.985318 -0.086342 -0.147290 0 0
    0 -17.187502 -0.625003 45.312498 0.968926 0.182666 -0.166782 0 0
  phy
    0 11.249997 -0.625003 74.375000 0.999208 -0.027415 0.028858 0 0
    0 14.999997 -0.000002 62.499999 -0.994856 0.090109 0.046272 0 0
    0 11.249997 -0.000003 74.375000 -0.998987 -0.041835 0.016590 0 0
  phy
    0 11.249997 -0.625003 74.375000 0.999208 -0.027415 0.028858 0 0
    0 14.999997 -0.625002 62.499999 0.998707 0.045229 0.023226 0 0
    0 14.999997 -0.000002 62.499999 -0.994856 0.090109 0.046272 0 0
  phy
    0 11.249997 -0.000003 74.375000 -0.998987 -0.041835 0.016590 0 0
    0 -5.000006 -0.625003 75.624993 0.993466 -0.110191 -0.029734 0 0
    0 11.249997 -0.625003 74.375000 0.999208 -0.027415 0.028858 0 0
  phy
    0 11.249997 -0.000003 74.375000 -0.998987 -0.041835 0.016590 0 0
    0 -5.000006 -0.000004 75.624993 -0.994004 -0.084000 -0.070000 0 0
    0 -5.000006 -0.625003 75.624993 0.993466 -0.110191 -0.029734 0 0
  phy
    0 11.249997 -0.625003 74.375000 0.999208 -0.027415 0.028858 0 0
    0 -5.000006 -0.625003 75.624993 0.993466 -0.110191 -0.029734 0 0
    0 -11.875003 -0.625003 62.499994 0.998476 0.046139 -0.030279 0 0
  phy
    0 11.249997 -0.625003 74.375000 0.999208 -0.027415 0.028858 0 0
    0 -11.875003 -0.625003 62.499994 0.998476 0.046139 -0.030279 0 0
    0 14.999997 -0.625002 62.499999 0.998707 0.045229 0.023226 0 0
  phy
    0 -5.000006 -0.625003 75.624993 0.993466 -0.110191 -0.029734 0 0
    0 -5.000006 -0.000004 75.624993 -0.994004 -0.084000 -0.070000 0 0
    0 -11.875003 -0.625003 62.499994 0.998476 0.046139 -0.030279 0 0
  phy
    0 -11.875003 -0.625003 62.499994 0.998476 0.046139 -0.030279 0 0
    0 -5.000006 -0.000004 75.624993 -0.994004 -0.084000 -0.070000 0 0
    0 -11.875003 -0.000003 62.499994 -0.999618 0.023096 -0.015157 0 0
  phy
    0 -11.875003 -0.000003 62.499994 -0.999618 0.023096 -0.015157 0 0
    0 14.999997 -0.000002 62.499999 -0.994856 0.090109 0.046272 0 0
    0 -11.875003 -0.625003 62.499994 0.998476 0.046139 -0.030279 0 0
  phy
    0 -11.875003 -0.625003 62.499994 0.998476 0.046139 -0.030279 0 0
    0 14.999997 -0.000002 62.499999 -0.994856 0.090109 0.046272 0 0
    0 14.999997 -0.625002 62.499999 0.998707 0.045229 0.023226 0 0
  phy
    0 11.249997 -0.000003 74.375000 -0.998987 -0.041835 0.016590 0 0
    0 -11.875003 -0.000003 62.499994 -0.999618 0.023096 -0.015157 0 0
    0 -5.000006 -0.000004 75.624993 -0.994004 -0.084000 -0.070000 0 0
  phy
    0 -11.875003 -0.000003 62.499994 -0.999618 0.023096 -0.015157 0 0
    0 11.249997 -0.000003 74.375000 -0.998987 -0.041835 0.016590 0 0
    0 14.999997 -0.000002 62.499999 -0.994856 0.090109 0.046272 0 0
  phy
    0 11.249992 -0.000003 74.374995 -0.997015 -0.004817 0.077064 0 0
    0 11.249992 -0.625003 74.374995 0.995327 0.091359 0.031254 0 0
    0 -5.000001 -0.000004 75.624993 -0.995123 0.094774 -0.027339 0 0
  phy
    0 -5.000001 -0.000004 75.624993 -0.995123 0.094774 -0.027339 0 0
    0 11.249992 -0.625003 74.374995 0.995327 0.091359 0.031254 0 0
    0 -5.000001 -0.625004 75.624993 0.997907 0.047519 -0.043864 0 0
  phy
    0 11.249992 -0.000003 74.374995 -0.997015 -0.004817 0.077064 0 0
    0 2.499997 -0.625004 84.999987 0.995833 -0.072955 0.054716 0 0
    0 11.249992 -0.625003 74.374995 0.995327 0.091359 0.031254 0 0
  phy
    0 11.249992 -0.000003 74.374995 -0.997015 -0.004817 0.077064 0 0
    0 2.499997 -0.000004 84.999987 -0.997452 -0.069420 0.016441 0 0
    0 2.499997 -0.625004 84.999987 0.995833 -0.072955 0.054716 0 0
  phy
    0 11.249992 -0.625003 74.374995 0.995327 0.091359 0.031254 0 0
    0 2.499997 -0.625004 84.999987 0.995833 -0.072955 0.054716 0 0
    0 -5.000001 -0.625004 75.624993 0.997907 0.047519 -0.043864 0 0
  phy
    0 -5.000001 -0.000004 75.624993 -0.995123 0.094774 -0.027339 0 0
    0 -5.000001 -0.625004 75.624993 0.997907 0.047519 -0.043864 0 0
    0 -5.000000 -0.000004 82.499981 -0.977268 -0.088843 -0.192493 0 0
  phy
    0 -5.000000 -0.000004 82.499981 -0.977268 -0.088843 -0.192493 0 0
    0 -5.000001 -0.625004 75.624993 0.997907 0.047519 -0.043864 0 0
    0 -5.000000 -0.625004 82.499981 0.974150 -0.177118 -0.140219 0 0
  phy
    0 -5.000000 -0.625004 82.499981 0.974150 -0.177118 -0.140219 0 0
    0 2.499997 -0.000004 84.999987 -0.997452 -0.069420 0.016441 0 0
    0 -5.000000 -0.000004 82.499981 -0.977268 -0.088843 -0.192493 0 0
  phy
    0 -5.000000 -0.625004 82.499981 0.974150 -0.177118 -0.140219 0 0
    0 2.499997 -0.625004 84.999987 0.995833 -0.072955 0.054716 0 0
    0 2.499997 -0.000004 84.999987 -0.997452 -0.069420 0.016441 0 0
  phy
    0 -5.000001 -0.000004 75.624993 -0.995123 0.094774 -0.027339 0 0
    0 -5.000000 -0.000004 82.499981 -0.977268 -0.088843 -0.192493 0 0
    0 2.499997 -0.000004 84.999987 -0.997452 -0.069420 0.016441 0 0
  phy
    0 2.499997 -0.625004 84.999987 0.995833 -0.072955 0.054716 0 0
    0 -5.000000 -0.625004 82.499981 0.974150 -0.177118 -0.140219 0 0
    0 -5.000001 -0.625004 75.624993 0.997907 0.047519 -0.043864 0 0
  phy
    0 -5.000001 -0.000004 75.624993 -0.995123 0.094774 -0.027339 0 0
    0 2.499997 -0.000004 84.999987 -0.997452 -0.069420 0.016441 0 0
    0 11.249992 -0.000003 74.374995 -0.997015 -0.004817 0.077064 0 0
  phy
    0 12.508334 -0.000543 0.029356 0.026751 0.998483 0.048117 0 0
    0 12.508333 22.498273 1.234912 -0.053444 -0.997413 0.048065 0 0
    0 12.508334 -0.000543 1.234911 0.106434 -0.993167 0.047861 0 0
  phy
    0 12.508334 -0.000543 0.029356 0.026751 0.998483 0.048117 0 0
    0 12.508333 22.498273 0.029357 -0.053445 0.997413 0.048065 0 0
    0 12.508333 22.498273 1.234912 -0.053444 -0.997413 0.048065 0 0
  phy
    0 12.508334 -0.000543 1.234911 0.106434 -0.993167 0.047861 0 0
    0 -12.508334 -0.000544 0.029356 0.106434 0.993167 -0.047861 0 0
    0 12.508334 -0.000543 0.029356 0.026751 0.998483 0.048117 0 0
  phy
    0 12.508334 -0.000543 1.234911 0.106434 -0.993167 0.047861 0 0
    0 -12.508334 -0.000544 1.234911 0.026751 -0.998483 -0.048117 0 0
    0 -12.508334 -0.000544 0.029356 0.106434 0.993167 -0.047861 0 0
  phy
    0 12.508334 -0.000543 0.029356 0.026751 0.998483 0.048117 0 0
    0 -12.508334 -0.000544 0.029356 0.106434 0.993167 -0.047861 0 0
    0 -12.508335 22.498273 0.029357 -0.053445 0.997413 -0.048065 0 0
  phy
    0 12.508334 -0.000543 0.029356 0.026751 0.998483 0.048117 0 0
    0 -12.508335 22.498273 0.029357 -0.053445 0.997413 -0.048065 0 0
    0 12.508333 22.498273 0.029357 -0.053445 0.997413 0.048065 0 0
  phy
    0 -12.508334 -0.000544 0.029356 0.106434 0.993167 -0.047861 0 0
    0 -12.508334 -0.000544 1.234911 0.026751 -0.998483 -0.048117 0 0
    0 -12.508335 22.498273 0.029357 -0.053445 0.997413 -0.048065 0 0
  phy
    0 -12.508335 22.498273 0.029357 -0.053445 0.997413 -0.048065 0 0
    0 -12.508334 -0.000544 1.234911 0.026751 -0.998483 -0.048117 0 0
    0 -12.508335 22.498273 1.234912 -0.053444 -0.997413 -0.048065 0 0
  phy
    0 -12.508335 22.498273 1.234912 -0.053444 -0.997413 -0.048065 0 0
    0 12.508333 22.498273 1.234912 -0.053444 -0.997413 0.048065 0 0
    0 -12.508335 22.498273 0.029357 -0.053445 0.997413 -0.048065 0 0
  phy
    0 -12.508335 22.498273 0.029357 -0.053445 0.997413 -0.048065 0 0
    0 12.508333 22.498273 1.234912 -0.053444 -0.997413 0.048065 0 0
    0 12.508333 22.498273 0.029357 -0.053445 0.997413 0.048065 0 0
  phy
    0 -12.508335 22.498273 1.234912 -0.053444 -0.997413 -0.048065 0 0
    0 -12.508334 -0.000544 1.234911 0.026751 -0.998483 -0.048117 0 0
    0 12.508333 22.498273 1.234912 -0.053444 -0.997413 0.048065 0 0
  phy
    0 12.508333 22.498273 1.234912 -0.053444 -0.997413 0.048065 0 0
    0 -12.508334 -0.000544 1.234911 0.026751 -0.998483 -0.048117 0 0
    0 12.508334 -0.000543 1.234911 0.106434 -0.993167 0.047861 0 0
end
