version 1
nodes
0 "ValveBiped.Bip01_Pelvis" -1
1 "ValveBiped.Bip01_L_Thigh" 0
2 "ValveBiped.Bip01_L_Calf" 1
3 "ValveBiped.Bip01_L_Foot" 2
4 "ValveBiped.Bip01_L_Toe0" 3
5 "Skirt.L.Back" 1
6 "Skirt.L.Back.End" 5
7 "Skirt.L.Front" 1
8 "Skirt.L.Front.End" 7
9 "Skirt.L.Side" 1
10 "Skirt.L.Side.End" 9
11 "ValveBiped.Bip01_R_Thigh" 0
12 "ValveBiped.Bip01_R_Calf" 11
13 "ValveBiped.Bip01_R_Foot" 12
14 "ValveBiped.Bip01_R_Toe0" 13
15 "Skirt.R.Back" 11
16 "Skirt.R.Back.End" 15
17 "Skirt.R.Front" 11
18 "Skirt.R.Front.End" 17
19 "Skirt.R.Side" 11
20 "Skirt.R.Side.End" 19
21 "ValveBiped.Bip01_Spine" 0
22 "ValveBiped.Bip01_Spine1" 21
23 "ValveBiped.Bip01_Spine2" 22
24 "ValveBiped.Bip01_Spine4" 23
25 "ValveBiped.Bip01_Neck1" 24
26 "ValveBiped.Bip01_Head1" 25
27 "Eye.L" 26
28 "Eye.R" 26
29 "CatEar.L.1" 26
30 "CatEar.L.2" 29
31 "CatEar.L.2.End" 30
32 "CatEar.R.1" 26
33 "CatEar.R.2" 32
34 "CatEar.R.2.End" 33
35 "ValveBiped.Bip01_L_Clavicle" 24
36 "ValveBiped.Bip01_L_UpperArm" 35
37 "ValveBiped.Bip01_L_Forearm" 36
38 "ValveBiped.Bip01_L_Hand" 37
39 "ValveBiped.Bip01_L_Finger2" 38
40 "ValveBiped.Bip01_L_Finger21" 39
41 "ValveBiped.Bip01_L_Finger22" 40
42 "ValveBiped.Bip01_L_Finger1" 38
43 "ValveBiped.Bip01_L_Finger11" 42
44 "ValveBiped.Bip01_L_Finger12" 43
45 "ValveBiped.Bip01_L_Finger0" 38
46 "ValveBiped.Bip01_L_Finger01" 45
47 "ValveBiped.Bip01_L_Finger02" 46
48 "ValveBiped.Bip01_L_Finger4" 38
49 "ValveBiped.Bip01_L_Finger41" 48
50 "ValveBiped.Bip01_L_Finger42" 49
51 "ValveBiped.Bip01_L_Finger3" 38
52 "ValveBiped.Bip01_L_Finger31" 51
53 "ValveBiped.Bip01_L_Finger32" 52
54 "ValveBiped.Bip01_R_Clavicle" 24
55 "ValveBiped.Bip01_R_UpperArm" 54
56 "ValveBiped.Bip01_R_Forearm" 55
57 "ValveBiped.Bip01_R_Hand" 56
58 "ValveBiped.Bip01_R_Finger2" 57
59 "ValveBiped.Bip01_R_Finger21" 58
60 "ValveBiped.Bip01_R_Finger22" 59
61 "ValveBiped.Bip01_R_Finger1" 57
62 "ValveBiped.Bip01_R_Finger11" 61
63 "ValveBiped.Bip01_R_Finger12" 62
64 "ValveBiped.Bip01_R_Finger0" 57
65 "ValveBiped.Bip01_R_Finger01" 64
66 "ValveBiped.Bip01_R_Finger02" 65
67 "ValveBiped.Bip01_R_Finger4" 57
68 "ValveBiped.Bip01_R_Finger41" 67
69 "ValveBiped.Bip01_R_Finger42" 68
70 "ValveBiped.Bip01_R_Finger3" 57
71 "ValveBiped.Bip01_R_Finger31" 70
72 "ValveBiped.Bip01_R_Finger32" 71
73 "Bust.L.1" 24
74 "Bust.L.2" 73
75 "Bust.R.1" 24
76 "Bust.R.2" 75
77 "Hood" 24
78 "Hood.End" 77
79 "HoodString.L.1" 24
80 "HoodString.L.2" 79
81 "HoodString.L.2.End" 80
82 "HoodString.R.1" 24
83 "HoodString.R.2" 82
84 "HoodString.R.2.End" 83
85 "blender_implicit" 0
86 "Root" 0
end
skeleton
time 0
0  0.000000 -0.136421 34.636204  1.570796 -0.000000 0.000000
1  2.943177 -1.517220 -0.139469  -1.570796 0.030938 -1.605921
2  13.464819 0.000149 -0.000037  0.000000 -0.000000 0.009893
3  15.849340 0.000032 -0.000003  -0.001614 -0.131067 -1.285352
4  4.829280 -0.535855 0.064974  0.009914 -0.018797 -0.327911
5  1.576526 4.417021 -0.078432  0.868085 -1.439528 -2.291739
6  -0.000000 3.282202 0.000011  0.000004 0.000000 0.000000
7  2.049831 -4.710790 -0.320973  0.789179 -1.443377 -2.370341
8  -0.000001 3.547770 -0.000032  -0.000007 0.000001 -0.000001
9  1.475517 -0.168626 3.869984  0.860758 -1.202980 -2.300793
10  -0.000010 3.657034 -0.000011  0.000000 -0.000002 0.000000
11  -2.943177 -1.517220 -0.139473  -1.570796 0.030938 -1.535672
12  13.464818 0.000149 0.000036  -0.000000 -0.000000 0.009893
13  15.849339 0.000036 0.000003  0.013274 0.131067 -1.285352
14  4.829047 -0.536951 -0.072488  -0.100244 0.015040 -0.328098
15  1.576528 4.417016 0.078590  -2.272580 -1.470276 0.851111
16  -0.000000 3.282213 -0.000010  -0.000005 0.000001 0.000000
17  2.050578 -4.713916 0.329239  -2.352887 -1.447249 0.770454
18  0.000000 3.547784 0.000011  0.000003 0.000000 -0.000000
19  1.475514 -0.168487 -3.869994  -2.280764 -1.203011 0.840734
20  0.000010 3.657020 -0.000016  -0.000000 0.000001 -0.000000
21  -0.000000 1.986286 0.477487  1.570796 0.013022 1.570796
22  4.284901 0.487439 -0.000024  -0.000000 0.000000 -0.144096
23  0.000004 0.000001 -0.000000  -0.000000 0.000000 -0.134151
24  4.114182 -0.496243 -0.000199  0.000000 0.000000 0.326149
25  4.705306 -2.337775 0.000021  3.141590 -0.000000 0.327547
26  2.559848 1.166290 0.000042  -0.000000 -0.000001 0.351470
27  2.517383 -0.203315 -0.660682  -2.920618 -1.570762 0.000000
28  2.517348 -0.203319 0.660810  -2.920616 -1.570762 0.000000
29  6.167444 1.545407 -3.137558  1.417494 1.570771 0.000000
30  0.000000 0.000006 0.000001  0.256618 -0.649875 -0.753987
31  0.000015 3.235565 -0.000003  0.000001 0.000003 0.000001
32  6.167283 1.545386 3.137882  1.417412 1.570771 0.000000
33  -0.000000 0.000006 0.000001  0.256620 0.649883 0.753996
34  -0.000012 3.235542 -0.000002  0.000001 -0.000001 0.000001
35  3.763690 -1.842360 0.854307  0.832763 -1.047437 -2.502937
36  3.158070 1.023395 0.009969  -1.243455 -0.153575 -0.884946
37  8.386457 -0.000014 0.000000  0.000000 0.000000 -0.136589
38  8.189343 -0.000055 0.000004  1.227939 0.166032 0.076869
39  2.514868 0.014677 0.413742  0.323090 0.091423 -0.184625
40  1.413583 -0.000000 -0.000000  -0.051595 -0.064269 -0.677213
41  0.872065 0.000005 -0.000001  0.004073 0.029503 -0.137208
42  2.392588 0.028898 1.074981  0.318555 0.062569 -0.163990
43  1.269053 0.000002 -0.000002  0.061718 0.075999 -0.683161
44  0.781341 0.000006 -0.000002  0.001658 0.026316 -0.062909
45  0.011404 -0.384111 0.622054  1.892454 -0.324449 -0.255898
46  1.777523 -0.000005 0.000001  -0.000000 -0.094778 -0.333994
47  1.093383 -0.000001 -0.000002  0.000000 -0.040666 0.285682
48  2.473933 0.016990 -0.793445  0.343628 0.190590 -0.206088
49  1.199410 -0.000004 -0.000000  -0.033841 -0.056553 -0.539645
50  0.691273 0.000004 -0.000001  -0.038850 -0.124039 -0.304402
51  2.565217 0.008268 -0.181205  0.315698 0.064495 -0.241172
52  1.311276 -0.000000 -0.000002  -0.020360 -0.043876 -0.434642
53  0.756729 0.000008 -0.000001  0.002612 0.008298 -0.304949
54  3.763701 -1.842360 -0.854273  -0.909420 1.047437 -2.502937
55  3.159792 1.018115 0.005164  1.293095 0.212691 -0.875900
56  8.386458 -0.000004 -0.000004  -0.000000 -0.000000 -0.136589
57  8.189343 -0.000006 -0.000003  -1.230762 -0.166035 0.076867
58  2.516856 0.011598 -0.401609  -0.320266 -0.091425 -0.184622
59  1.413575 -0.000005 0.000001  0.051595 0.064269 -0.677213
60  0.872056 0.000006 -0.000000  -0.004073 -0.029503 -0.137208
61  2.397793 0.020513 -1.063528  -0.315731 -0.062571 -0.163986
62  1.269057 0.000010 0.000006  -0.061718 -0.075999 -0.683161
63  0.781338 0.000005 0.000003  -0.001658 -0.026316 -0.062909
64  0.014456 -0.389078 -0.618897  -1.889571 0.325162 -0.254974
65  1.777530 0.000003 -0.000000  0.000000 0.094778 -0.333994
66  1.093382 0.000000 -0.000002  0.000000 0.040666 0.285682
67  2.470039 0.023569 0.805308  -0.340804 -0.190592 -0.206085
68  1.199408 -0.000006 -0.000001  0.033841 0.056553 -0.539645
69  0.691269 0.000007 -0.000001  0.038850 0.124039 -0.304402
70  2.564314 0.009958 0.193609  -0.312875 -0.064497 -0.241168
71  1.311277 -0.000004 0.000001  0.020360 0.043876 -0.434642
72  0.756728 0.000003 -0.000000  -0.002612 -0.008298 -0.304949
73  0.195836 2.638546 2.051040  -0.817669 2.243730 -0.996574
74  0.000014 2.190263 -0.000020  0.000002 -0.000004 -0.000004
75  0.195862 2.638547 -2.051037  -0.817638 0.897860 -0.996546
76  0.000000 2.190264 -0.000020  -0.000002 0.000004 -0.000003
77  4.451277 -4.920623 0.000019  1.484076 -1.570792 0.000000
78  0.000000 3.107616 0.000007  0.000001 0.000000 -0.000000
79  4.651334 1.229715 1.307681  0.539457 -1.469591 0.360584
80  0.000006 4.594253 -0.000038  0.447168 -0.036773 0.035679
81  0.000002 4.890029 -0.000002  0.000001 0.000000 0.000000
82  4.651345 1.229719 -1.307638  0.539470 -1.672014 0.360573
83  -0.000006 4.594239 -0.000049  0.447163 0.036773 -0.035679
84  -0.000000 4.890023 0.000009  0.000002 0.000000 0.000000
85  -0.000000 -34.636196 -0.136421  -1.570796 -0.000001 0.000000
86  -0.000000 -34.636196 -0.136421  0.003939 -0.000001 0.000000
time 1
0  -0.000000 -1.442119 35.350025  1.570796 -0.000000 0.000000
1  3.455587 -0.000004 -0.000000  -1.570796 0.030938 -1.605921
2  16.572344 -0.000000 0.000000  0.000000 -0.000000 0.009893
3  16.265831 -0.000000 -0.000001  -0.001614 -0.131067 -1.285352
4  5.046458 -0.000001 -0.000000  0.009914 -0.018797 -0.327911
5  1.576527 4.417021 -0.078432  0.868085 -1.439528 -2.291739
6  0.000000 3.282202 0.000013  0.000004 0.000000 0.000000
7  2.049831 -4.710791 -0.320973  0.789179 -1.443377 -2.370341
8  -0.000001 3.547777 -0.000032  -0.000007 0.000001 -0.000001
9  1.475517 -0.168626 3.869984  0.860758 -1.202980 -2.300793
10  -0.000009 3.657033 -0.000009  0.000000 -0.000002 0.000000
11  -3.455587 0.000003 0.000000  -1.570796 0.030938 -1.535672
12  16.572348 0.000000 0.000000  -0.000000 -0.000000 0.009893
13  16.265833 -0.000000 -0.000000  0.013274 0.131067 -1.285352
14  5.046457 0.000000 0.000001  -0.100244 0.015040 -0.328098
15  1.576530 4.417016 0.078590  -2.272580 -1.470276 0.851111
16  -0.000000 3.282212 -0.000008  -0.000005 0.000001 0.000000
17  2.050580 -4.713916 0.329239  -2.352887 -1.447249 0.770454
18  0.000001 3.547786 0.000010  0.000003 0.000000 -0.000000
19  1.475512 -0.168487 -3.869994  -2.280764 -1.203011 0.840734
20  0.000010 3.657023 -0.000016  -0.000000 0.000001 -0.000000
21  0.000000 3.703727 0.293189  1.570796 0.013022 1.570796
22  3.307851 -0.000000 -0.000000  -0.000000 0.000000 -0.144096
23  3.297964 -0.000000 -0.000000  -0.000000 0.000000 -0.134151
24  6.040982 -0.000001 -0.000000  0.000000 0.000000 0.326149
25  5.065756 -0.000000 -0.000000  3.141590 -0.000000 0.327547
26  3.993750 -0.000002 0.000000  -0.000000 -0.000001 0.351470
27  2.517380 -0.203315 -0.660682  -2.920618 -1.570762 0.000000
28  2.517346 -0.203319 0.660810  -2.920616 -1.570762 0.000000
29  6.167441 1.545407 -3.137557  1.417494 1.570771 0.000000
30  0.000001 0.000001 0.000001  0.256618 -0.649875 -0.753987
31  0.000019 3.235556 -0.000004  0.000001 0.000003 0.000001
32  6.167280 1.545386 3.137882  1.417412 1.570771 0.000000
33  -0.000000 0.000003 -0.000000  0.256620 0.649883 0.753996
34  -0.000012 3.235544 -0.000002  0.000001 -0.000001 0.000001
35  3.815876 1.385489 1.500002  0.832763 -1.047437 -2.502937
36  4.327094 0.000004 -0.000001  -1.243455 -0.153575 -0.884946
37  11.105115 -0.000000 -0.000003  0.000000 0.000000 -0.136589
38  9.862100 -0.000012 -0.000032  1.227939 0.166032 0.076869
39  3.265448 0.050007 0.415745  0.323090 0.091423 -0.184625
40  1.860468 0.000003 0.000000  -0.051595 -0.064269 -0.677213
41  1.061484 0.000001 -0.000000  0.004073 0.029503 -0.137208
42  3.340379 -0.242393 1.285012  0.318555 0.062569 -0.163990
43  1.550754 -0.000000 0.000000  0.061718 0.075999 -0.683161
44  0.904886 -0.000002 0.000000  0.001658 0.026316 -0.062909
45  1.219379 -1.063862 0.837142  1.892454 -0.324449 -0.255898
46  1.496971 -0.000005 0.000007  -0.000000 -0.094778 -0.333994
47  1.100084 0.000000 -0.000002  0.000000 -0.040666 0.285682
48  2.641095 0.214623 -1.073586  0.343628 0.190590 -0.206088
49  1.361603 0.000005 0.000001  -0.033841 -0.056553 -0.539645
50  0.779601 0.000002 0.000002  -0.038850 -0.124039 -0.304402
51  2.908706 0.221763 -0.431870  0.315698 0.064495 -0.241172
52  1.597523 0.000001 -0.000000  -0.020360 -0.043876 -0.434642
53  0.912679 0.000002 0.000001  0.002612 0.008298 -0.304949
54  3.815872 1.385490 -1.499999  -0.909420 1.047437 -2.502937
55  4.327088 -0.000005 -0.000001  1.293095 0.212691 -0.875900
56  11.105104 -0.000000 0.000007  -0.000000 -0.000000 -0.136589
57  9.862082 -0.000007 0.000015  -1.230762 -0.166035 0.076867
58  3.265471 0.051187 -0.415600  -0.320266 -0.091425 -0.184622
59  1.860468 0.000003 -0.000000  0.051595 0.064269 -0.677213
60  1.061483 0.000002 0.000000  -0.004073 -0.029503 -0.137208
61  3.340398 -0.238759 -1.285691  -0.315731 -0.062571 -0.163986
62  1.550753 0.000001 -0.000001  -0.061718 -0.075999 -0.683161
63  0.904887 0.000001 -0.000001  -0.001658 -0.026316 -0.062909
64  1.219409 -1.061494 -0.840139  -1.889571 0.325162 -0.254974
65  1.496975 0.000004 0.000003  0.000000 0.094778 -0.333994
66  1.100087 -0.000001 -0.000007  0.000000 0.040666 0.285682
67  2.641111 0.211586 1.074186  -0.340804 -0.190592 -0.206085
68  1.361601 -0.000000 0.000001  0.033841 0.056553 -0.539645
69  0.779610 0.000004 0.000000  0.038850 0.124039 -0.304402
70  2.908727 0.220543 0.432492  -0.312875 -0.064497 -0.241168
71  1.597529 -0.000003 -0.000001  0.020360 0.043876 -0.434642
72  0.912682 -0.000002 0.000000  -0.002612 -0.008298 -0.304949
73  0.195839 2.638546 2.051040  -0.817669 2.243730 -0.996574
74  0.000013 2.190264 -0.000018  0.000002 -0.000004 -0.000004
75  0.195865 2.638548 -2.051037  -0.817638 0.897860 -0.996546
76  0.000002 2.190265 -0.000026  -0.000002 0.000004 -0.000003
77  4.451284 -4.920623 0.000019  1.484076 -1.570792 0.000000
78  0.000000 3.107620 0.000007  0.000001 0.000000 -0.000000
79  4.651338 1.229715 1.307681  0.539457 -1.469591 0.360584
80  0.000006 4.594256 -0.000032  0.447168 -0.036773 0.035679
81  0.000002 4.890033 -0.000004  0.000001 0.000000 0.000000
82  4.651349 1.229719 -1.307637  0.539470 -1.672014 0.360573
83  -0.000006 4.594238 -0.000053  0.447163 0.036773 -0.035679
84  0.000000 4.890022 0.000008  0.000002 0.000000 0.000000
85  -0.000000 -34.636196 -0.136421  -1.570796 -0.000001 0.000000
86  -0.000000 -34.636196 -0.136421  0.003939 -0.000001 0.000000
end
