version 1
nodes
0 "ValveBiped.Bip01_Pelvis" -1
1 "ValveBiped.Bip01_Spine" 0
2 "ValveBiped.Bip01_Spine1" 1
3 "ValveBiped.Bip01_Spine2" 2
4 "ValveBiped.Bip01_Spine4" 3
5 "BreastUpper2_L" 4
6 "BreastUpper2_R" 4
7 "BeAA1" 4
8 "BeAA2_L" 4
9 "BeAA3_L" 4
10 "BeAA2_R" 4
11 "BeAA3_R" 4
12 "ValveBiped.Bip01_R_Clavicle" 4
13 "ValveBiped.Bip01_R_UpperArm" 12
14 "ValveBiped.Bip01_R_Forearm" 13
15 "ValveBiped.Bip01_R_Hand" 14
16 "ValveBiped.Bip01_R_Finger0" 15
17 "ValveBiped.Bip01_R_Finger01" 16
18 "ValveBiped.Bip01_R_Finger1" 15
19 "ValveBiped.Bip01_R_Finger11" 18
20 "ValveBiped.Bip01_R_Finger12" 19
21 "ValveBiped.Bip01_R_Finger2" 15
22 "ValveBiped.Bip01_R_Finger21" 21
23 "ValveBiped.Bip01_R_Finger22" 22
24 "ValveBiped.Bip01_R_Finger3" 15
25 "ValveBiped.Bip01_R_Finger31" 24
26 "ValveBiped.Bip01_R_Finger32" 25
27 "ValveBiped.Bip01_R_Finger4" 15
28 "ValveBiped.Bip01_R_Finger41" 27
29 "ValveBiped.Bip01_R_Finger42" 28
30 "ValveBiped.Bip01_L_Clavicle" 4
31 "ValveBiped.Bip01_L_UpperArm" 30
32 "ValveBiped.Bip01_L_Forearm" 31
33 "ValveBiped.Bip01_L_Hand" 32
34 "ValveBiped.Bip01_L_Finger0" 33
35 "ValveBiped.Bip01_L_Finger01" 34
36 "ValveBiped.Bip01_L_Finger1" 33
37 "ValveBiped.Bip01_L_Finger11" 36
38 "ValveBiped.Bip01_L_Finger12" 37
39 "ValveBiped.Bip01_L_Finger2" 33
40 "ValveBiped.Bip01_L_Finger21" 39
41 "ValveBiped.Bip01_L_Finger22" 40
42 "ValveBiped.Bip01_L_Finger3" 33
43 "ValveBiped.Bip01_L_Finger31" 42
44 "ValveBiped.Bip01_L_Finger32" 43
45 "ValveBiped.Bip01_L_Finger4" 33
46 "ValveBiped.Bip01_L_Finger41" 45
47 "ValveBiped.Bip01_L_Finger42" 46
48 "ValveBiped.Bip01_Neck1" 4
49 "ValveBiped.Bip01_Head1" 48
50 "Eye_R" 49
51 "Eye_L" 49
52 "Tongue" 49
53 "TeethLower" 49
54 "TeethUpper" 49
55 "OutsideHair5A_R" 49
56 "OutsideHair6_R" 49
57 "OutsideHair4A_R" 49
58 "OutsideHair4B_R" 57
59 "OutsideHair3A_R" 49
60 "OutsideHair3B_R" 59
61 "OutsideHair2A_R" 49
62 "OutsideHair2B_R" 61
63 "LowerLe1_R" 49
64 "LowerLe2_R" 63
65 "LowerLe3_R" 64
66 "LowerLe4_R" 65
67 "FrontHair1_R" 49
68 "OutsideHair5A_L" 49
69 "OutsideHair6_L" 49
70 "OutsideHair4A_L" 49
71 "OutsideHair4B_L" 70
72 "OutsideHair3A_L" 49
73 "OutsideHair3B_L" 72
74 "OutsideHair2A_L" 49
75 "OutsideHair2B_L" 74
76 "OutsideHair1A" 49
77 "OutsideHair1B" 76
78 "OutsideHair1C" 77
79 "LowerLe1_L" 49
80 "LowerLe2_L" 79
81 "LowerLe3_L" 80
82 "LowerLe4_L" 81
83 "FrontHair1_L" 49
84 "FrontHair2" 49
85 "HairConnectionEye" 49
86 "UpKicking1_R" 49
87 "UpKicking2_R" 86
88 "UpKicking1_L" 49
89 "UpKicking2_L" 88
90 "ValveBiped.Exp_Jaw" 49
91 "ValveBiped.Exp_Eyebrows" 49
92 "ValveBiped.Exp_Eyelids_Upper" 49
93 "ValveBiped.Exp_LipsUpper" 49
94 "WingClothes" 2
95 "WaistWingClothes1_R" 94
96 "WaistWingClothes2_R" 95
97 "WaistWingClothes3_R" 96
98 "WaistWingClothes4_R" 97
99 "WaistWingClothes5_R" 98
100 "WaistWingClothes6_R" 99
101 "WaistWingClothes7_R" 100
102 "WaistWingClothes8_R" 101
103 "WaistWingClothes9_R" 102
104 "WaistWingClothes10_R" 103
105 "WaistWingClothes11_R" 104
106 "WaistWingClothes1_L" 94
107 "WaistWingClothes2_L" 106
108 "WaistWingClothes3_L" 107
109 "WaistWingClothes4_L" 108
110 "WaistWingClothes5_L" 109
111 "WaistWingClothes6_L" 110
112 "WaistWingClothes7_L" 111
113 "WaistWingClothes8_L" 112
114 "WaistWingClothes9_L" 113
115 "WaistWingClothes10_L" 114
116 "WaistWingClothes11_L" 115
117 "ValveBiped.Bip01_R_Thigh" 0
118 "ValveBiped.Bip01_R_Calf" 117
119 "ValveBiped.Bip01_R_Foot" 118
120 "ValveBiped.Bip01_L_Thigh" 0
121 "ValveBiped.Bip01_L_Calf" 120
122 "ValveBiped.Bip01_L_Foot" 121
123 "root" -1
end
skeleton
time 0
0  0.000000 -0.492360 35.174164  1.570796 -0.000000 0.000000
1  0.000002 3.696480 -1.136777  1.570796 -0.018321 1.570797
2  3.255433 0.302915 0.000001  0.000000 -0.000001 -0.019842
3  3.082460 0.000032 -0.000001  -0.000000 0.000000 -0.012632
4  6.423963 0.000044 -0.000001  0.000000 0.000000 0.155826
5  -0.648938 4.497379 2.867936  1.570680 0.010764 2.989155
6  -0.648972 4.497385 -2.867943  -1.570912 0.010763 -0.152437
7  -4.043309 -1.713789 -0.000001  -3.033304 1.570780 0.000000
8  -4.209070 0.167549 4.656293  1.601128 0.163315 -1.702389
9  -5.028272 4.781991 4.635704  1.551549 -0.007466 -1.688489
10  -4.209072 0.167547 -4.656290  -1.540466 0.163311 1.439208
11  -5.028274 4.781989 -4.635707  -1.590046 -0.007462 1.453098
12  1.768344 0.346596 -0.819415  1.732893 1.834957 -0.155547
13  3.420102 0.756549 1.219524  1.407222 -0.052098 -0.348798
14  8.884676 0.000062 -0.000018  0.001470 -0.110434 -0.001734
15  8.509773 -0.000023 0.000000  -1.570788 0.040283 0.013371
16  2.616552 -0.421583 -1.302947  1.538256 0.296795 -0.418080
17  1.419879 0.000003 0.000006  0.036330 -0.005045 -0.043809
18  4.438503 -0.068155 -0.750400  -0.000001 0.000004 -0.015351
19  0.663844 0.062095 -0.084955  0.000000 0.000000 0.093266
20  0.969561 -0.021043 0.000001  0.000000 -0.000004 -0.021690
21  4.455381 0.039218 -0.135004  -0.000000 0.000011 0.008793
22  1.052467 0.057583 0.004978  -0.000000 -0.000004 0.054660
23  0.969762 -0.007012 0.000002  0.000000 -0.000003 -0.007227
24  4.217674 -0.008237 0.542850  0.000000 -0.000002 -0.001948
25  0.983794 -0.013130 0.019433  -0.000000 0.000012 -0.013340
26  0.919045 0.070988 0.000007  -0.000001 -0.000010 0.077099
27  4.006809 -0.152511 1.137248  0.000000 0.000012 -0.038052
28  1.082681 0.054272 0.036112  -0.000001 -0.000007 0.050082
29  0.829247 0.056049 0.000000  -0.000000 0.000005 0.067480
30  1.768348 0.346577 0.819441  -1.794297 -1.834325 -0.166279
31  3.416714 0.842096 -1.171934  -1.340561 0.079190 -0.344508
32  8.884682 0.000046 -0.000002  -0.001470 0.110435 -0.001734
33  8.509785 -0.000035 0.000015  1.570791 -0.040089 0.013362
34  2.616627 -0.421050 1.302930  -1.538260 -0.296788 -0.417885
35  1.419886 0.000002 -0.000004  -0.029100 0.002457 -0.043671
36  4.438526 -0.067291 0.750369  -0.000000 0.000003 -0.015159
37  0.663846 0.062102 0.084955  0.000000 -0.000002 0.093268
38  0.969562 -0.021042 -0.000002  -0.000000 0.000006 -0.021690
39  4.455379 0.040101 0.134973  0.000000 -0.000006 0.008993
40  1.052472 0.057582 -0.004980  0.000000 0.000012 0.054662
41  0.969764 -0.007006 0.000003  0.000000 -0.000004 -0.007235
42  4.217677 -0.007404 -0.542880  0.000000 0.000007 -0.001753
43  0.983791 -0.013114 -0.019434  0.000000 0.000006 -0.013321
44  0.919047 0.070977 0.000009  -0.000001 -0.000007 0.077080
45  4.006829 -0.151729 -1.137275  -0.000000 -0.000007 -0.037859
46  1.082672 0.054278 -0.036114  0.000001 0.000007 0.050085
47  0.829248 0.056049 -0.000002  0.000000 -0.000006 0.067480
48  2.707933 0.000022 0.000000  -3.141592 -0.000000 0.224137
49  3.023522 0.595010 -0.000000  0.000000 -0.000001 0.209718
50  2.685645 -0.523849 0.930483  1.570801 -1.057050 1.726883
51  2.685683 -0.523845 -0.930491  -1.570791 -1.057047 -1.414715
52  0.200574 -1.131065 -0.000000  -2.985501 -1.570782 0.000000
53  0.339633 -1.646537 -0.000000  -2.985537 -1.570777 0.000000
54  0.631942 -1.600536 -0.000000  -2.985483 -1.570787 0.000000
55  3.417419 3.368770 2.323851  0.007840 0.175677 -2.973821
56  2.940804 4.449738 1.086403  -0.012250 3.057370 0.108163
57  4.476901 1.030504 3.864546  0.005147 1.800341 0.180876
58  0.081324 0.487102 -2.822743  0.013713 -0.886475 0.043787
59  4.438910 1.994686 3.926557  -0.123694 1.876349 0.031037
60  -0.357890 1.239729 -2.634295  0.034172 -0.159275 -0.011888
61  3.606351 3.578248 3.261865  -0.151122 1.749083 -0.009510
62  -0.071816 1.105662 -2.386040  -0.009875 -0.273592 0.051566
63  6.191967 -0.038304 3.550534  -0.410996 1.693027 -0.261075
64  0.140750 0.362255 -2.375799  -0.039685 -0.515593 0.036532
65  -0.448888 -0.690927 -1.389338  0.017460 0.019476 -0.081085
66  -0.305319 -0.406443 -1.731847  -0.003015 -0.160534 0.034277
67  7.526565 -1.705376 1.828079  0.104865 1.848670 0.250073
68  3.417409 3.368769 -2.323859  -3.133730 0.175546 0.167777
69  2.940814 4.449739 -1.086412  -0.012249 0.084224 0.108162
70  4.476889 1.030502 -3.864551  0.005147 1.341254 0.180874
71  -0.081322 0.487095 -2.822740  0.013710 0.886475 -0.043790
72  4.438898 1.994686 -3.926563  -0.123687 1.265247 0.031043
73  0.357901 1.239728 -2.634284  0.034172 0.159275 0.011888
74  3.606341 3.578247 -3.261869  -0.151124 1.392511 -0.009512
75  0.071817 1.105662 -2.386020  -0.009876 0.273593 -0.051566
76  3.987207 4.611607 -0.000004  -0.148936 1.570796 0.000000
77  0.000000 1.047995 -2.093595  -0.013842 -0.000000 0.000000
78  0.000000 1.102412 -2.362726  0.003407 0.000000 0.000000
79  6.191960 -0.038304 -3.550548  -0.410978 1.448570 -0.261058
80  -0.140752 0.362254 -2.375793  -0.039685 0.515593 -0.036534
81  0.448890 -0.690928 -1.389343  0.017460 -0.019476 0.081084
82  0.305316 -0.406445 -1.731852  -0.033946 0.044420 0.014028
83  7.526573 -1.705375 -1.828098  0.104862 1.292926 0.250070
84  7.312016 -2.808176 0.083641  -0.810536 1.592289 -0.644689
85  7.331994 5.389540 -0.000008  -1.432446 -1.570796 0.000000
86  6.849809 5.620786 0.546271  0.087531 0.421162 0.189480
87  0.052234 1.011409 3.116841  -0.106377 0.149351 -0.013969
88  6.849814 5.620789 -0.546286  0.088235 2.703048 0.191168
89  0.002158 1.011415 3.117276  -0.106120 -0.131897 0.013970
90  1.548067 0.004403 -0.000001  1.724267 1.570795 0.000000
91  3.806166 0.213570 -0.000001  3.010492 1.570795 0.000000
92  3.561819 -3.655106 -0.015468  -2.971100 1.570794 0.000000
93  1.108361 -0.293490 -0.000000  -3.002903 1.570793 0.000000
94  -5.434678 -4.764379 0.000001  0.000188 -1.570697 3.103493
95  -0.325001 2.656086 0.000001  0.129096 -0.187326 1.675433
96  0.000005 5.967077 -0.000017  0.583022 -0.588426 -0.080211
97  0.000033 4.506813 -0.000013  1.338913 -0.751025 -1.333236
98  -0.000001 5.988792 -0.000075  -0.049111 -0.480582 -0.235477
99  -0.000018 9.535481 -0.000045  -1.232461 1.251999 0.109668
100  -0.000052 7.945226 -0.000006  -0.329371 -0.167213 -0.526032
101  -0.000003 6.310169 0.000062  0.052790 -0.274503 -1.133265
102  -0.000029 4.818147 -0.000026  0.057858 -0.027281 -0.287023
103  -0.000002 4.725518 -0.000032  1.100630 -0.273070 2.147549
104  -0.000002 4.475427 -0.000018  -0.636824 1.098445 0.142576
105  0.000000 7.508234 0.000043  -0.583385 0.636241 -0.345978
106  0.325001 2.656080 -0.000011  0.129090 0.187322 -1.675443
107  -0.000010 5.967078 0.000011  0.583027 0.588430 0.080226
108  0.000004 4.506826 0.000006  1.338888 0.751022 1.333219
109  -0.000006 5.988798 0.000028  -0.049086 0.480586 0.235489
110  0.000033 9.535479 -0.000118  -1.232498 -1.252007 -0.109638
111  0.000033 7.945225 0.000080  -0.329345 0.167217 0.526038
112  0.000005 6.310159 -0.000025  0.052762 0.274522 1.133252
113  -0.000007 4.818170 0.000042  0.057863 0.027274 0.287025
114  -0.000029 4.725525 -0.000027  1.100615 0.273073 -2.147566
115  -0.000009 4.475427 0.000016  -0.636816 -1.098431 -0.142577
116  -0.000006 7.508251 0.000028  -0.583356 -0.636223 0.345953
117  -3.084310 0.000004 0.000002  -1.570796 -0.014188 -1.521236
118  15.611663 0.000016 -0.000000  0.002555 0.049497 0.065776
119  15.879439 0.000022 -0.000002  0.000002 -0.000002 -1.086511
120  3.084311 0.000004 0.000002  -1.570796 -0.014188 -1.620357
121  15.611664 0.000014 -0.000001  -0.002577 -0.049902 0.065778
122  15.879447 0.000003 0.000003  -0.000348 0.000209 -1.083445
123  0.000000 0.000000 0.000000  0.000000 -0.000000 0.000000
end
triangles
skirt
0  0.400411 -5.264178 42.453392  0.252727 -0.459850 0.851274  0.896100 0.368290 1 1 1.000000
0  0.810928 -5.078387 42.431873  0.171927 -0.430768 0.885934  0.858300 0.428070 1 1 1.000000
0  0.326921 -5.094510 42.566864  0.339705 -0.422272 0.840408  0.925730 0.385940 1 1 1.000000
skirt
0  1.077715 -4.142391 43.701454  0.818499 -0.573522 0.033647  0.938420 0.650170 1 1 1.000000
0  1.105734 -4.046180 43.769131  0.746381 -0.623965 0.231480  0.956740 0.656460 1 1 1.000000
0  0.867582 -4.287487 43.847553  0.687742 -0.636052 0.349927  0.939460 0.602850 1 1 1.000000
skirt
0  1.077715 -4.142391 43.701454  0.818499 -0.573522 0.033647  0.938420 0.650170 1 1 1.000000
0  0.867582 -4.287487 43.847553  0.687742 -0.636052 0.349927  0.939460 0.602850 1 1 1.000000
0  0.840409 -4.480132 43.684883  0.788982 -0.613600 0.031661  0.899100 0.597320 1 1 1.000000
skirt
0  0.883606 -4.283195 43.531013  0.718536 -0.617592 -0.319820  0.939460 0.602850 1 1 1.000000
0  1.077715 -4.142391 43.701454  0.818499 -0.573522 0.033647  0.938420 0.650170 1 1 1.000000
0  0.840409 -4.480132 43.684883  0.788982 -0.613600 0.031661  0.899100 0.597320 1 1 1.000000
skirt
0  0.592408 -4.520698 43.383602  0.718549 -0.617557 -0.319861  0.923130 0.541090 1 1 1.000000
0  0.883606 -4.283195 43.531013  0.718536 -0.617592 -0.319820  0.939460 0.602850 1 1 1.000000
0  0.840409 -4.480132 43.684883  0.788982 -0.613600 0.031661  0.899100 0.597320 1 1 1.000000
skirt
0  0.883606 -4.283195 43.531013  0.718536 -0.617592 -0.319820  0.939460 0.602850 1 1 1.000000
0  0.592408 -4.520698 43.383602  0.718549 -0.617557 -0.319861  0.923130 0.541090 1 1 1.000000
0  0.699767 -4.360294 43.129658  0.466487 -0.865272 0.183560  0.973030 0.539610 1 1 1.000000
skirt
0  0.699767 -4.360294 43.129658  0.466487 -0.865272 0.183560  0.973030 0.539610 1 1 1.000000
0  0.592408 -4.520698 43.383602  0.718549 -0.617557 -0.319861  0.923130 0.541090 1 1 1.000000
0  0.456545 -4.558043 42.897976  0.555426 -0.784691 0.275248  0.971050 0.478340 1 1 1.000000
skirt
0  0.943444 -4.426633 42.934837  0.032726 -0.811528 0.583396  0.923130 0.541090 1 1 1.000000
0  0.699767 -4.360294 43.129658  0.466487 -0.865272 0.183560  0.973030 0.539610 1 1 1.000000
0  0.456545 -4.558043 42.897976  0.555426 -0.784691 0.275248  0.971050 0.478340 1 1 1.000000
skirt
0  0.742054 -4.636701 42.683132  0.115218 -0.658162 0.744008  0.914930 0.482790 1 1 1.000000
0  0.943444 -4.426633 42.934837  0.032726 -0.811528 0.583396  0.923130 0.541090 1 1 1.000000
0  0.456545 -4.558043 42.897976  0.555426 -0.784691 0.275248  0.971050 0.478340 1 1 1.000000
skirt
0  0.943444 -4.426633 42.934837  0.032726 -0.811528 0.583396  0.923130 0.541090 1 1 1.000000
0  0.742054 -4.636701 42.683132  0.115218 -0.658162 0.744008  0.914930 0.482790 1 1 1.000000
0  1.262789 -4.630687 42.777161  0.359004 -0.696631 0.621145  0.859270 0.542150 1 1 1.000000
skirt
0  0.742054 -4.636701 42.683132  0.115218 -0.658162 0.744008  0.914930 0.482790 1 1 1.000000
0  1.131151 -4.873747 42.516125  -0.020402 -0.598003 0.801234  0.840440 0.485980 1 1 1.000000
0  1.262789 -4.630687 42.777161  0.359004 -0.696631 0.621145  0.859270 0.542150 1 1 1.000000
skirt
0  0.810928 -5.078387 42.431873  0.171927 -0.430768 0.885934  0.858300 0.428070 1 1 1.000000
0  1.131151 -4.873747 42.516125  -0.020402 -0.598003 0.801234  0.840440 0.485980 1 1 1.000000
0  0.742054 -4.636701 42.683132  0.115218 -0.658162 0.744008  0.914930 0.482790 1 1 1.000000
skirt
0  0.533772 -4.860877 42.578922  0.355329 -0.470029 0.807969  0.917360 0.433780 1 1 1.000000
0  0.810928 -5.078387 42.431873  0.171927 -0.430768 0.885934  0.858300 0.428070 1 1 1.000000
0  0.742054 -4.636701 42.683132  0.115218 -0.658162 0.744008  0.914930 0.482790 1 1 1.000000
skirt
0  0.326921 -5.094510 42.566864  0.339705 -0.422272 0.840408  0.925730 0.385940 1 1 1.000000
0  0.810928 -5.078387 42.431873  0.171927 -0.430768 0.885934  0.858300 0.428070 1 1 1.000000
0  0.533772 -4.860877 42.578922  0.355329 -0.470029 0.807969  0.917360 0.433780 1 1 1.000000
skirt
0  0.326921 -5.094510 42.566864  0.339705 -0.422272 0.840408  0.925730 0.385940 1 1 1.000000
0  0.533772 -4.860877 42.578922  0.355329 -0.470029 0.807969  0.917360 0.433780 1 1 1.000000
0  0.271861 -5.027293 42.655178  0.754610 -0.422919 0.501700  0.944530 0.392240 1 1 1.000000
skirt
0  0.271861 -5.027293 42.655178  0.754610 -0.422919 0.501700  0.944530 0.392240 1 1 1.000000
0  0.533772 -4.860877 42.578922  0.355329 -0.470029 0.807969  0.917360 0.433780 1 1 1.000000
0  0.327409 -4.784071 42.749599  0.709434 -0.550963 0.439480  0.960750 0.431730 1 1 1.000000
skirt
0  0.235197 -4.940867 42.960609  0.949197 -0.310878 0.048784  0.917360 0.433780 1 1 1.000000
0  0.271861 -5.027293 42.655178  0.754610 -0.422919 0.501700  0.944530 0.392240 1 1 1.000000
0  0.327409 -4.784071 42.749599  0.709434 -0.550963 0.439480  0.960750 0.431730 1 1 1.000000
skirt
0  0.343628 -4.743443 43.192490  0.863340 -0.457713 -0.212468  0.914930 0.482790 1 1 1.000000
0  0.235197 -4.940867 42.960609  0.949197 -0.310878 0.048784  0.917360 0.433780 1 1 1.000000
0  0.327409 -4.784071 42.749599  0.709434 -0.550963 0.439480  0.960750 0.431730 1 1 1.000000
skirt
0  0.211697 -5.238955 43.197983  0.967228 -0.217598 -0.130848  0.858300 0.428070 1 1 1.000000
0  0.235197 -4.940867 42.960609  0.949197 -0.310878 0.048784  0.917360 0.433780 1 1 1.000000
0  0.343628 -4.743443 43.192490  0.863340 -0.457713 -0.212468  0.914930 0.482790 1 1 1.000000
skirt
0  0.592408 -4.520698 43.383602  0.718549 -0.617557 -0.319861  0.923130 0.541090 1 1 1.000000
0  0.343628 -4.743443 43.192490  0.863340 -0.457713 -0.212468  0.914930 0.482790 1 1 1.000000
0  0.456545 -4.558043 42.897976  0.555426 -0.784691 0.275248  0.971050 0.478340 1 1 1.000000
skirt
0  0.343628 -4.743443 43.192490  0.863340 -0.457713 -0.212468  0.914930 0.482790 1 1 1.000000
0  0.327409 -4.784071 42.749599  0.709434 -0.550963 0.439480  0.960750 0.431730 1 1 1.000000
0  0.456545 -4.558043 42.897976  0.555426 -0.784691 0.275248  0.971050 0.478340 1 1 1.000000
skirt
0  0.327409 -4.784071 42.749599  0.709434 -0.550963 0.439480  0.960750 0.431730 1 1 1.000000
0  0.742054 -4.636701 42.683132  0.115218 -0.658162 0.744008  0.914930 0.482790 1 1 1.000000
0  0.456545 -4.558043 42.897976  0.555426 -0.784691 0.275248  0.971050 0.478340 1 1 1.000000
skirt
0  0.533772 -4.860877 42.578922  0.355329 -0.470029 0.807969  0.917360 0.433780 1 1 1.000000
0  0.742054 -4.636701 42.683132  0.115218 -0.658162 0.744008  0.914930 0.482790 1 1 1.000000
0  0.327409 -4.784071 42.749599  0.709434 -0.550963 0.439480  0.960750 0.431730 1 1 1.000000
skirt
0  1.105734 -4.046180 43.769131  0.746381 -0.623965 0.231480  0.956740 0.656460 1 1 1.000000
0  0.933498 -4.185587 44.012775  0.529938 -0.825626 -0.193668  0.973030 0.604980 1 1 1.000000
0  0.867582 -4.287487 43.847553  0.687742 -0.636052 0.349927  0.939460 0.602850 1 1 1.000000
skirt
0  0.235197 -4.940867 42.960609  0.949197 -0.310878 0.048784  0.917360 0.433780 1 1 1.000000
0  0.216085 -5.124185 42.708546  0.966309 -0.254362 0.039333  0.925730 0.385940 1 1 1.000000
0  0.271861 -5.027293 42.655178  0.754610 -0.422919 0.501700  0.944530 0.392240 1 1 1.000000
skirt
0  0.211697 -5.238955 43.197983  0.967228 -0.217598 -0.130848  0.858300 0.428070 1 1 1.000000
0  0.216085 -5.124185 42.708546  0.966309 -0.254362 0.039333  0.925730 0.385940 1 1 1.000000
0  0.235197 -4.940867 42.960609  0.949197 -0.310878 0.048784  0.917360 0.433780 1 1 1.000000
skirt
0  0.211697 -5.238955 43.197983  0.967228 -0.217598 -0.130848  0.858300 0.428070 1 1 1.000000
0  0.161675 -5.328144 42.758602  0.961343 -0.269873 -0.054665  0.896100 0.368290 1 1 1.000000
0  0.216085 -5.124185 42.708546  0.966309 -0.254362 0.039333  0.925730 0.385940 1 1 1.000000
skirt
0  0.883606 -4.283195 43.531013  0.718536 -0.617592 -0.319820  0.939460 0.602850 1 1 1.000000
0  0.699767 -4.360294 43.129658  0.466487 -0.865272 0.183560  0.973030 0.539610 1 1 1.000000
0  0.965742 -4.176942 43.376129  0.508827 -0.831269 0.223803  0.973030 0.604980 1 1 1.000000
skirt
0  0.965742 -4.176942 43.376129  0.508827 -0.831269 0.223803  0.973030 0.604980 1 1 1.000000
0  0.699767 -4.360294 43.129658  0.466487 -0.865272 0.183560  0.973030 0.539610 1 1 1.000000
0  1.111681 -4.222090 43.239456  0.032740 -0.811530 0.583392  0.939460 0.602850 1 1 1.000000
skirt
0  0.699767 -4.360294 43.129658  0.466487 -0.865272 0.183560  0.973030 0.539610 1 1 1.000000
0  0.943444 -4.426633 42.934837  0.032726 -0.811528 0.583396  0.923130 0.541090 1 1 1.000000
0  1.111681 -4.222090 43.239456  0.032740 -0.811530 0.583392  0.939460 0.602850 1 1 1.000000
skirt
0  1.111681 -4.222090 43.239456  0.032740 -0.811530 0.583392  0.939460 0.602850 1 1 1.000000
0  0.943444 -4.426633 42.934837  0.032726 -0.811528 0.583396  0.923130 0.541090 1 1 1.000000
0  1.284762 -4.361073 43.116787  0.357276 -0.729277 0.583532  0.899100 0.597320 1 1 1.000000
skirt
0  0.943444 -4.426633 42.934837  0.032726 -0.811528 0.583396  0.923130 0.541090 1 1 1.000000
0  1.262789 -4.630687 42.777161  0.359004 -0.696631 0.621145  0.859270 0.542150 1 1 1.000000
0  1.284762 -4.361073 43.116787  0.357276 -0.729277 0.583532  0.899100 0.597320 1 1 1.000000
skirt
0  1.226678 -4.013775 43.493370  0.160067 -0.780968 0.603712  0.956740 0.656460 1 1 1.000000
0  0.965742 -4.176942 43.376129  0.508827 -0.831269 0.223803  0.973030 0.604980 1 1 1.000000
0  1.111681 -4.222090 43.239456  0.032740 -0.811530 0.583392  0.939460 0.602850 1 1 1.000000
skirt
0  1.226678 -4.013775 43.493370  0.160067 -0.780968 0.603712  0.956740 0.656460 1 1 1.000000
0  1.111681 -4.222090 43.239456  0.032740 -0.811530 0.583392  0.939460 0.602850 1 1 1.000000
0  1.295488 -4.084047 43.423069  0.359005 -0.696621 0.621156  0.938420 0.650170 1 1 1.000000
skirt
0  1.295488 -4.084047 43.423069  0.359005 -0.696621 0.621156  0.938420 0.650170 1 1 1.000000
0  1.111681 -4.222090 43.239456  0.032740 -0.811530 0.583392  0.939460 0.602850 1 1 1.000000
0  1.284762 -4.361073 43.116787  0.357276 -0.729277 0.583532  0.899100 0.597320 1 1 1.000000
skirt
0  1.639730 -4.856291 42.201946  0.501403 -0.342484 0.794543  0.858300 0.428070 1 1 1.000000
0  1.814664 -4.517674 42.223598  0.355339 -0.470022 0.807969  0.917360 0.433780 1 1 1.000000
0  1.606057 -4.405180 42.443447  0.580983 -0.533380 0.614789  0.914930 0.482790 1 1 1.000000
skirt
0  1.347656 -4.815728 42.456059  0.681079 -0.410033 0.606633  0.840440 0.485980 1 1 1.000000
0  1.639730 -4.856291 42.201946  0.501403 -0.342484 0.794543  0.858300 0.428070 1 1 1.000000
0  1.606057 -4.405180 42.443447  0.580983 -0.533380 0.614789  0.914930 0.482790 1 1 1.000000
skirt
0  1.262789 -4.630687 42.777161  0.359004 -0.696631 0.621145  0.859270 0.542150 1 1 1.000000
0  1.347656 -4.815728 42.456059  0.681079 -0.410033 0.606633  0.840440 0.485980 1 1 1.000000
0  1.606057 -4.405180 42.443447  0.580983 -0.533380 0.614789  0.914930 0.482790 1 1 1.000000
skirt
0  1.480399 -4.282771 42.785873  0.655820 -0.634383 0.409217  0.923130 0.541090 1 1 1.000000
0  1.262789 -4.630687 42.777161  0.359004 -0.696631 0.621145  0.859270 0.542150 1 1 1.000000
0  1.606057 -4.405180 42.443447  0.580983 -0.533380 0.614789  0.914930 0.482790 1 1 1.000000
skirt
0  1.262789 -4.630687 42.777161  0.359004 -0.696631 0.621145  0.859270 0.542150 1 1 1.000000
0  1.480399 -4.282771 42.785873  0.655820 -0.634383 0.409217  0.923130 0.541090 1 1 1.000000
0  1.284762 -4.361073 43.116787  0.357276 -0.729277 0.583532  0.899100 0.597320 1 1 1.000000
skirt
0  1.480399 -4.282771 42.785873  0.655820 -0.634383 0.409217  0.923130 0.541090 1 1 1.000000
0  1.407429 -4.142846 43.157413  0.623394 -0.658572 0.421500  0.939460 0.602850 1 1 1.000000
0  1.284762 -4.361073 43.116787  0.357276 -0.729277 0.583532  0.899100 0.597320 1 1 1.000000
skirt
0  1.407429 -4.142846 43.157413  0.623394 -0.658572 0.421500  0.939460 0.602850 1 1 1.000000
0  1.295488 -4.084047 43.423069  0.359005 -0.696621 0.621156  0.938420 0.650170 1 1 1.000000
0  1.284762 -4.361073 43.116787  0.357276 -0.729277 0.583532  0.899100 0.597320 1 1 1.000000
skirt
0  1.347656 -3.981338 43.459797  0.537160 -0.679986 0.499078  0.956740 0.656460 1 1 1.000000
0  1.295488 -4.084047 43.423069  0.359005 -0.696621 0.621156  0.938420 0.650170 1 1 1.000000
0  1.407429 -4.142846 43.157413  0.623394 -0.658572 0.421500  0.939460 0.602850 1 1 1.000000
skirt
0  1.295488 -4.084047 43.423069  0.359005 -0.696621 0.621156  0.938420 0.650170 1 1 1.000000
0  1.347656 -3.981338 43.459797  0.537160 -0.679986 0.499078  0.956740 0.656460 1 1 1.000000
0  1.302086 -3.803933 43.717419  0.258840 -0.965920 -0.000028  0.973030 0.704620 1 1 1.000000
skirt
0  1.226678 -4.013775 43.493370  0.160067 -0.780968 0.603712  0.956740 0.656460 1 1 1.000000
0  1.295488 -4.084047 43.423069  0.359005 -0.696621 0.621156  0.938420 0.650170 1 1 1.000000
0  1.302086 -3.803933 43.717419  0.258840 -0.965920 -0.000028  0.973030 0.704620 1 1 1.000000
skirt
0  1.159299 -3.991836 43.566341  0.555411 -0.784709 0.275229  0.973030 0.659110 1 1 1.000000
0  1.226678 -4.013775 43.493370  0.160067 -0.780968 0.603712  0.956740 0.656460 1 1 1.000000
0  1.302086 -3.803933 43.717419  0.258840 -0.965920 -0.000028  0.973030 0.704620 1 1 1.000000
skirt
0  1.226678 -4.013775 43.493370  0.160067 -0.780968 0.603712  0.956740 0.656460 1 1 1.000000
0  1.159299 -3.991836 43.566341  0.555411 -0.784709 0.275229  0.973030 0.659110 1 1 1.000000
0  0.965742 -4.176942 43.376129  0.508827 -0.831269 0.223803  0.973030 0.604980 1 1 1.000000
skirt
0  1.159299 -3.991836 43.566341  0.555411 -0.784709 0.275229  0.973030 0.659110 1 1 1.000000
0  1.112299 -4.044425 43.639603  0.766843 -0.618402 -0.171843  0.956740 0.656460 1 1 1.000000
0  0.965742 -4.176942 43.376129  0.508827 -0.831269 0.223803  0.973030 0.604980 1 1 1.000000
skirt
0  1.112299 -4.044425 43.639603  0.766843 -0.618402 -0.171843  0.956740 0.656460 1 1 1.000000
0  0.883606 -4.283195 43.531013  0.718536 -0.617592 -0.319820  0.939460 0.602850 1 1 1.000000
0  0.965742 -4.176942 43.376129  0.508827 -0.831269 0.223803  0.973030 0.604980 1 1 1.000000
skirt
0  0.883606 -4.283195 43.531013  0.718536 -0.617592 -0.319820  0.939460 0.602850 1 1 1.000000
0  1.112299 -4.044425 43.639603  0.766843 -0.618402 -0.171843  0.956740 0.656460 1 1 1.000000
0  1.077715 -4.142391 43.701454  0.818499 -0.573522 0.033647  0.938420 0.650170 1 1 1.000000
skirt
0  1.077715 -4.142391 43.701454  0.818499 -0.573522 0.033647  0.938420 0.650170 1 1 1.000000
0  1.112299 -4.044425 43.639603  0.766843 -0.618402 -0.171843  0.956740 0.656460 1 1 1.000000
0  1.302086 -3.803933 43.717419  0.258840 -0.965920 -0.000028  0.973030 0.704620 1 1 1.000000
skirt
0  1.105734 -4.046180 43.769131  0.746381 -0.623965 0.231480  0.956740 0.656460 1 1 1.000000
0  1.077715 -4.142391 43.701454  0.818499 -0.573522 0.033647  0.938420 0.650170 1 1 1.000000
0  1.302086 -3.803933 43.717419  0.258840 -0.965920 -0.000028  0.973030 0.704620 1 1 1.000000
skirt
0  1.145062 -3.995672 43.848145  0.599231 -0.761226 -0.247904  0.973030 0.659110 1 1 1.000000
0  1.105734 -4.046180 43.769131  0.746381 -0.623965 0.231480  0.956740 0.656460 1 1 1.000000
0  1.302086 -3.803933 43.717419  0.258840 -0.965920 -0.000028  0.973030 0.704620 1 1 1.000000
skirt
0  1.105734 -4.046180 43.769131  0.746381 -0.623965 0.231480  0.956740 0.656460 1 1 1.000000
0  1.145062 -3.995672 43.848145  0.599231 -0.761226 -0.247904  0.973030 0.659110 1 1 1.000000
0  0.933498 -4.185587 44.012775  0.529938 -0.825626 -0.193668  0.973030 0.604980 1 1 1.000000
skirt
0  1.145062 -3.995672 43.848145  0.599231 -0.761226 -0.247904  0.973030 0.659110 1 1 1.000000
0  1.204706 -4.019659 43.926929  0.221475 -0.764580 -0.605281  0.956740 0.656460 1 1 1.000000
0  0.933498 -4.185587 44.012775  0.529938 -0.825626 -0.193668  0.973030 0.604980 1 1 1.000000
skirt
0  1.204706 -4.019659 43.926929  0.221475 -0.764580 -0.605281  0.956740 0.656460 1 1 1.000000
0  1.145062 -3.995672 43.848145  0.599231 -0.761226 -0.247904  0.973030 0.659110 1 1 1.000000
0  1.302086 -3.803933 43.717419  0.258840 -0.965920 -0.000028  0.973030 0.704620 1 1 1.000000
skirt
0  1.112299 -4.044425 43.639603  0.766843 -0.618402 -0.171843  0.956740 0.656460 1 1 1.000000
0  1.159299 -3.991836 43.566341  0.555411 -0.784709 0.275229  0.973030 0.659110 1 1 1.000000
0  1.302086 -3.803933 43.717419  0.258840 -0.965920 -0.000028  0.973030 0.704620 1 1 1.000000
skirt
0  1.639730 -4.856291 42.201946  0.501403 -0.342484 0.794543  0.858300 0.428070 1 1 1.000000
0  2.041016 -4.824602 41.998283  0.438331 -0.410057 0.799824  0.896100 0.368290 1 1 1.000000
0  2.071114 -4.627144 42.083023  0.339668 -0.422292 0.840414  0.925730 0.385940 1 1 1.000000
skirt
0  1.639730 -4.856291 42.201946  0.501403 -0.342484 0.794543  0.858300 0.428070 1 1 1.000000
0  2.071114 -4.627144 42.083023  0.339668 -0.422292 0.840414  0.925730 0.385940 1 1 1.000000
0  1.814664 -4.517674 42.223598  0.355339 -0.470022 0.807969  0.917360 0.433780 1 1 1.000000
skirt
0  1.814664 -4.517674 42.223598  0.355339 -0.470022 0.807969  0.917360 0.433780 1 1 1.000000
0  2.071114 -4.627144 42.083023  0.339668 -0.422292 0.840414  0.925730 0.385940 1 1 1.000000
0  2.123217 -4.531227 42.141590  -0.119648 -0.657196 0.744162  0.944530 0.392240 1 1 1.000000
skirt
0  1.814664 -4.517674 42.223598  0.355339 -0.470022 0.807969  0.917360 0.433780 1 1 1.000000
0  2.123217 -4.531227 42.141590  -0.119648 -0.657196 0.744162  0.944530 0.392240 1 1 1.000000
0  2.014169 -4.332079 42.281715  -0.056474 -0.756192 0.651908  0.960750 0.431730 1 1 1.000000
skirt
0  1.606057 -4.405180 42.443447  0.580983 -0.533380 0.614789  0.914930 0.482790 1 1 1.000000
0  1.814664 -4.517674 42.223598  0.355339 -0.470022 0.807969  0.917360 0.433780 1 1 1.000000
0  2.014169 -4.332079 42.281715  -0.056474 -0.756192 0.651908  0.960750 0.431730 1 1 1.000000
skirt
0  1.606057 -4.405180 42.443447  0.580983 -0.533380 0.614789  0.914930 0.482790 1 1 1.000000
0  2.014169 -4.332079 42.281715  -0.056474 -0.756192 0.651908  0.960750 0.431730 1 1 1.000000
0  1.884708 -4.175380 42.501789  0.072854 -0.902287 0.424936  0.971050 0.478340 1 1 1.000000
skirt
0  1.480399 -4.282771 42.785873  0.655820 -0.634383 0.409217  0.923130 0.541090 1 1 1.000000
0  1.606057 -4.405180 42.443447  0.580983 -0.533380 0.614789  0.914930 0.482790 1 1 1.000000
0  1.884708 -4.175380 42.501789  0.072854 -0.902287 0.424936  0.971050 0.478340 1 1 1.000000
skirt
0  1.724109 -4.085801 42.845509  0.146629 -0.950986 0.272261  0.973030 0.539610 1 1 1.000000
0  1.480399 -4.282771 42.785873  0.655820 -0.634383 0.409217  0.923130 0.541090 1 1 1.000000
0  1.884708 -4.175380 42.501789  0.072854 -0.902287 0.424936  0.971050 0.478340 1 1 1.000000
skirt
0  1.480399 -4.282771 42.785873  0.655820 -0.634383 0.409217  0.923130 0.541090 1 1 1.000000
0  1.724109 -4.085801 42.845509  0.146629 -0.950986 0.272261  0.973030 0.539610 1 1 1.000000
0  1.407429 -4.142846 43.157413  0.623394 -0.658572 0.421500  0.939460 0.602850 1 1 1.000000
skirt
0  1.724109 -4.085801 42.845509  0.146629 -0.950986 0.272261  0.973030 0.539610 1 1 1.000000
0  1.560520 -4.017578 43.211143  0.118808 -0.935770 0.331994  0.973030 0.604980 1 1 1.000000
0  1.407429 -4.142846 43.157413  0.623394 -0.658572 0.421500  0.939460 0.602850 1 1 1.000000
skirt
0  1.560520 -4.017578 43.211143  0.118808 -0.935770 0.331994  0.973030 0.604980 1 1 1.000000
0  1.347656 -3.981338 43.459797  0.537160 -0.679986 0.499078  0.956740 0.656460 1 1 1.000000
0  1.407429 -4.142846 43.157413  0.623394 -0.658572 0.421500  0.939460 0.602850 1 1 1.000000
skirt
0  1.422608 -3.921304 43.493305  0.072851 -0.902284 0.424943  0.973030 0.659110 1 1 1.000000
0  1.347656 -3.981338 43.459797  0.537160 -0.679986 0.499078  0.956740 0.656460 1 1 1.000000
0  1.560520 -4.017578 43.211143  0.118808 -0.935770 0.331994  0.973030 0.604980 1 1 1.000000
skirt
0  1.347656 -3.981338 43.459797  0.537160 -0.679986 0.499078  0.956740 0.656460 1 1 1.000000
0  1.422608 -3.921304 43.493305  0.072851 -0.902284 0.424943  0.973030 0.659110 1 1 1.000000
0  1.302086 -3.803933 43.717419  0.258840 -0.965920 -0.000028  0.973030 0.704620 1 1 1.000000
skirt
0  1.422608 -3.921304 43.493305  0.072851 -0.902284 0.424943  0.973030 0.659110 1 1 1.000000
0  1.517356 -3.935865 43.527245  -0.362716 -0.921102 0.141448  0.956740 0.656460 1 1 1.000000
0  1.302086 -3.803933 43.717419  0.258840 -0.965920 -0.000028  0.973030 0.704620 1 1 1.000000
skirt
0  1.517356 -3.935865 43.527245  -0.362716 -0.921102 0.141448  0.956740 0.656460 1 1 1.000000
0  1.618538 -3.997491 43.551426  -0.322764 -0.879313 0.350188  0.938420 0.650170 1 1 1.000000
0  1.302086 -3.803933 43.717419  0.258840 -0.965920 -0.000028  0.973030 0.704620 1 1 1.000000
skirt
0  1.517356 -3.935865 43.527245  -0.362716 -0.921102 0.141448  0.956740 0.656460 1 1 1.000000
0  1.745756 -4.052193 43.291847  -0.384100 -0.923231 0.010619  0.939460 0.602850 1 1 1.000000
0  1.618538 -3.997491 43.551426  -0.322764 -0.879313 0.350188  0.938420 0.650170 1 1 1.000000
skirt
0  1.618538 -3.997491 43.551426  -0.322764 -0.879313 0.350188  0.938420 0.650170 1 1 1.000000
0  1.745756 -4.052193 43.291847  -0.384100 -0.923231 0.010619  0.939460 0.602850 1 1 1.000000
0  1.943962 -4.184450 43.378731  -0.283146 -0.900865 0.329045  0.899100 0.597320 1 1 1.000000
skirt
0  1.745756 -4.052193 43.291847  -0.384100 -0.923231 0.010619  0.939460 0.602850 1 1 1.000000
0  2.001135 -4.143234 42.992821  -0.384095 -0.923233 0.010626  0.923130 0.541090 1 1 1.000000
0  1.943962 -4.184450 43.378731  -0.283146 -0.900865 0.329045  0.899100 0.597320 1 1 1.000000
skirt
0  2.001135 -4.143234 42.992821  -0.384095 -0.923233 0.010626  0.923130 0.541090 1 1 1.000000
0  2.294705 -4.354182 43.187256  -0.322798 -0.879291 0.350213  0.859270 0.542150 1 1 1.000000
0  1.943962 -4.184450 43.378731  -0.283146 -0.900865 0.329045  0.899100 0.597320 1 1 1.000000
skirt
0  2.001135 -4.143234 42.992821  -0.384095 -0.923233 0.010626  0.923130 0.541090 1 1 1.000000
0  2.197097 -4.246823 42.678349  -0.528827 -0.830756 0.173745  0.914930 0.482790 1 1 1.000000
0  2.294705 -4.354182 43.187256  -0.322798 -0.879291 0.350213  0.859270 0.542150 1 1 1.000000
skirt
0  2.197097 -4.246823 42.678349  -0.528827 -0.830756 0.173745  0.914930 0.482790 1 1 1.000000
0  2.529736 -4.498984 42.925797  -0.639963 -0.764051 0.081686  0.840440 0.485980 1 1 1.000000
0  2.294705 -4.354182 43.187256  -0.322798 -0.879291 0.350213  0.859270 0.542150 1 1 1.000000
skirt
0  2.528696 -4.618107 42.555225  -0.678344 -0.658607 0.325708  0.858300 0.428070 1 1 1.000000
0  2.529736 -4.498984 42.925797  -0.639963 -0.764051 0.081686  0.840440 0.485980 1 1 1.000000
0  2.197097 -4.246823 42.678349  -0.528827 -0.830756 0.173745  0.914930 0.482790 1 1 1.000000
skirt
0  2.257554 -4.399003 42.399605  -0.534776 -0.708530 0.460434  0.917360 0.433780 1 1 1.000000
0  2.528696 -4.618107 42.555225  -0.678344 -0.658607 0.325708  0.858300 0.428070 1 1 1.000000
0  2.197097 -4.246823 42.678349  -0.528827 -0.830756 0.173745  0.914930 0.482790 1 1 1.000000
skirt
0  2.235516 -4.583102 42.148350  -0.578406 -0.668233 0.467879  0.925730 0.385940 1 1 1.000000
0  2.528696 -4.618107 42.555225  -0.678344 -0.658607 0.325708  0.858300 0.428070 1 1 1.000000
0  2.257554 -4.399003 42.399605  -0.534776 -0.708530 0.460434  0.917360 0.433780 1 1 1.000000
skirt
0  2.235516 -4.583102 42.148350  -0.578406 -0.668233 0.467879  0.925730 0.385940 1 1 1.000000
0  2.257554 -4.399003 42.399605  -0.534776 -0.708530 0.460434  0.917360 0.433780 1 1 1.000000
0  2.123217 -4.531227 42.141590  -0.119648 -0.657196 0.744162  0.944530 0.392240 1 1 1.000000
skirt
0  2.123217 -4.531227 42.141590  -0.119648 -0.657196 0.744162  0.944530 0.392240 1 1 1.000000
0  2.257554 -4.399003 42.399605  -0.534776 -0.708530 0.460434  0.917360 0.433780 1 1 1.000000
0  2.014169 -4.332079 42.281715  -0.056474 -0.756192 0.651908  0.960750 0.431730 1 1 1.000000
skirt
0  2.257554 -4.399003 42.399605  -0.534776 -0.708530 0.460434  0.917360 0.433780 1 1 1.000000
0  2.197097 -4.246823 42.678349  -0.528827 -0.830756 0.173745  0.914930 0.482790 1 1 1.000000
0  2.014169 -4.332079 42.281715  -0.056474 -0.756192 0.651908  0.960750 0.431730 1 1 1.000000
skirt
0  2.014169 -4.332079 42.281715  -0.056474 -0.756192 0.651908  0.960750 0.431730 1 1 1.000000
0  2.197097 -4.246823 42.678349  -0.528827 -0.830756 0.173745  0.914930 0.482790 1 1 1.000000
0  1.884708 -4.175380 42.501789  0.072854 -0.902287 0.424936  0.971050 0.478340 1 1 1.000000
skirt
0  2.197097 -4.246823 42.678349  -0.528827 -0.830756 0.173745  0.914930 0.482790 1 1 1.000000
0  2.001135 -4.143234 42.992821  -0.384095 -0.923233 0.010626  0.923130 0.541090 1 1 1.000000
0  1.884708 -4.175380 42.501789  0.072854 -0.902287 0.424936  0.971050 0.478340 1 1 1.000000
skirt
0  2.001135 -4.143234 42.992821  -0.384095 -0.923233 0.010626  0.923130 0.541090 1 1 1.000000
0  1.724109 -4.085801 42.845509  0.146629 -0.950986 0.272261  0.973030 0.539610 1 1 1.000000
0  1.884708 -4.175380 42.501789  0.072854 -0.902287 0.424936  0.971050 0.478340 1 1 1.000000
skirt
0  2.001135 -4.143234 42.992821  -0.384095 -0.923233 0.010626  0.923130 0.541090 1 1 1.000000
0  1.745756 -4.052193 43.291847  -0.384100 -0.923231 0.010619  0.939460 0.602850 1 1 1.000000
0  1.724109 -4.085801 42.845509  0.146629 -0.950986 0.272261  0.973030 0.539610 1 1 1.000000
skirt
0  1.724109 -4.085801 42.845509  0.146629 -0.950986 0.272261  0.973030 0.539610 1 1 1.000000
0  1.745756 -4.052193 43.291847  -0.384100 -0.923231 0.010619  0.939460 0.602850 1 1 1.000000
0  1.560520 -4.017578 43.211143  0.118808 -0.935770 0.331994  0.973030 0.604980 1 1 1.000000
skirt
0  1.745756 -4.052193 43.291847  -0.384100 -0.923231 0.010619  0.939460 0.602850 1 1 1.000000
0  1.517356 -3.935865 43.527245  -0.362716 -0.921102 0.141448  0.956740 0.656460 1 1 1.000000
0  1.560520 -4.017578 43.211143  0.118808 -0.935770 0.331994  0.973030 0.604980 1 1 1.000000
skirt
0  1.517356 -3.935865 43.527245  -0.362716 -0.921102 0.141448  0.956740 0.656460 1 1 1.000000
0  1.422608 -3.921304 43.493305  0.072851 -0.902284 0.424943  0.973030 0.659110 1 1 1.000000
0  1.560520 -4.017578 43.211143  0.118808 -0.935770 0.331994  0.973030 0.604980 1 1 1.000000
skirt
0  2.395172 -4.729691 42.139057  -0.612842 -0.691691 0.382085  0.896100 0.368290 1 1 1.000000
0  2.528696 -4.618107 42.555225  -0.678344 -0.658607 0.325708  0.858300 0.428070 1 1 1.000000
0  2.235516 -4.583102 42.148350  -0.578406 -0.668233 0.467879  0.925730 0.385940 1 1 1.000000
skirt
0  2.294705 -4.354182 43.187256  -0.322798 -0.879291 0.350213  0.859270 0.542150 1 1 1.000000
0  2.303903 -4.062108 43.475494  -0.033352 -0.819009 0.572810  0.923130 0.541090 1 1 1.000000
0  1.943962 -4.184450 43.378731  -0.283146 -0.900865 0.329045  0.899100 0.597320 1 1 1.000000
skirt
0  2.303903 -4.062108 43.475494  -0.033352 -0.819009 0.572810  0.923130 0.541090 1 1 1.000000
0  1.912498 -4.007502 43.557690  -0.033335 -0.819033 0.572777  0.939460 0.602850 1 1 1.000000
0  1.943962 -4.184450 43.378731  -0.283146 -0.900865 0.329045  0.899100 0.597320 1 1 1.000000
skirt
0  1.912498 -4.007502 43.557690  -0.033335 -0.819033 0.572777  0.939460 0.602850 1 1 1.000000
0  1.618538 -3.997491 43.551426  -0.322764 -0.879313 0.350188  0.938420 0.650170 1 1 1.000000
0  1.943962 -4.184450 43.378731  -0.283146 -0.900865 0.329045  0.899100 0.597320 1 1 1.000000
skirt
0  1.585580 -3.917598 43.635994  -0.150150 -0.864152 0.480308  0.956740 0.656460 1 1 1.000000
0  1.618538 -3.997491 43.551426  -0.322764 -0.879313 0.350188  0.938420 0.650170 1 1 1.000000
0  1.912498 -4.007502 43.557690  -0.033335 -0.819033 0.572777  0.939460 0.602850 1 1 1.000000
skirt
0  1.618538 -3.997491 43.551426  -0.322764 -0.879313 0.350188  0.938420 0.650170 1 1 1.000000
0  1.585580 -3.917598 43.635994  -0.150150 -0.864152 0.480308  0.956740 0.656460 1 1 1.000000
0  1.302086 -3.803933 43.717419  0.258840 -0.965920 -0.000028  0.973030 0.704620 1 1 1.000000
skirt
0  1.585580 -3.917598 43.635994  -0.150150 -0.864152 0.480308  0.956740 0.656460 1 1 1.000000
0  1.571051 -3.881519 43.729996  -0.208635 -0.977703 -0.023841  0.973030 0.659110 1 1 1.000000
0  1.302086 -3.803933 43.717419  0.258840 -0.965920 -0.000028  0.973030 0.704620 1 1 1.000000
skirt
0  1.571051 -3.881519 43.729996  -0.208635 -0.977703 -0.023841  0.973030 0.659110 1 1 1.000000
0  1.576056 -3.920134 43.823929  -0.099664 -0.850597 -0.516286  0.956740 0.656460 1 1 1.000000
0  1.302086 -3.803933 43.717419  0.258840 -0.965920 -0.000028  0.973030 0.704620 1 1 1.000000
skirt
0  1.576056 -3.920134 43.823929  -0.099664 -0.850597 -0.516286  0.956740 0.656460 1 1 1.000000
0  1.571051 -3.881519 43.729996  -0.208635 -0.977703 -0.023841  0.973030 0.659110 1 1 1.000000
0  1.895922 -3.927706 43.745792  -0.101125 -0.994699 -0.018636  0.973030 0.604980 1 1 1.000000
skirt
0  1.893549 -4.012604 43.932392  0.013263 -0.816714 -0.576891  0.939460 0.602850 1 1 1.000000
0  1.576056 -3.920134 43.823929  -0.099664 -0.850597 -0.516286  0.956740 0.656460 1 1 1.000000
0  1.895922 -3.927706 43.745792  -0.101125 -0.994699 -0.018636  0.973030 0.604980 1 1 1.000000
skirt
0  2.301693 -3.931054 43.766270  -0.028299 -0.999597 -0.002146  0.973030 0.539610 1 1 1.000000
0  1.893549 -4.012604 43.932392  0.013263 -0.816714 -0.576891  0.939460 0.602850 1 1 1.000000
0  1.895922 -3.927706 43.745792  -0.101125 -0.994699 -0.018636  0.973030 0.604980 1 1 1.000000
skirt
0  2.301693 -3.931054 43.766270  -0.028299 -0.999597 -0.002146  0.973030 0.539610 1 1 1.000000
0  1.895922 -3.927706 43.745792  -0.101125 -0.994699 -0.018636  0.973030 0.604980 1 1 1.000000
0  1.912498 -4.007502 43.557690  -0.033335 -0.819033 0.572777  0.939460 0.602850 1 1 1.000000
skirt
0  2.303903 -4.062108 43.475494  -0.033352 -0.819009 0.572810  0.923130 0.541090 1 1 1.000000
0  2.301693 -3.931054 43.766270  -0.028299 -0.999597 -0.002146  0.973030 0.539610 1 1 1.000000
0  1.912498 -4.007502 43.557690  -0.033335 -0.819033 0.572777  0.939460 0.602850 1 1 1.000000
skirt
0  1.895922 -3.927706 43.745792  -0.101125 -0.994699 -0.018636  0.973030 0.604980 1 1 1.000000
0  1.585580 -3.917598 43.635994  -0.150150 -0.864152 0.480308  0.956740 0.656460 1 1 1.000000
0  1.912498 -4.007502 43.557690  -0.033335 -0.819033 0.572777  0.939460 0.602850 1 1 1.000000
skirt
0  1.571051 -3.881519 43.729996  -0.208635 -0.977703 -0.023841  0.973030 0.659110 1 1 1.000000
0  1.585580 -3.917598 43.635994  -0.150150 -0.864152 0.480308  0.956740 0.656460 1 1 1.000000
0  1.895922 -3.927706 43.745792  -0.101125 -0.994699 -0.018636  0.973030 0.604980 1 1 1.000000
skirt
0  1.576056 -3.920134 43.823929  -0.099664 -0.850597 -0.516286  0.956740 0.656460 1 1 1.000000
0  1.893549 -4.012604 43.932392  0.013263 -0.816714 -0.576891  0.939460 0.602850 1 1 1.000000
0  1.600434 -4.002334 43.909184  -0.284496 -0.869063 -0.404712  0.938420 0.650170 1 1 1.000000
skirt
0  1.576056 -3.920134 43.823929  -0.099664 -0.850597 -0.516286  0.956740 0.656460 1 1 1.000000
0  1.600434 -4.002334 43.909184  -0.284496 -0.869063 -0.404712  0.938420 0.650170 1 1 1.000000
0  1.302086 -3.803933 43.717419  0.258840 -0.965920 -0.000028  0.973030 0.704620 1 1 1.000000
skirt
0  1.600434 -4.002334 43.909184  -0.284496 -0.869063 -0.404712  0.938420 0.650170 1 1 1.000000
0  1.497236 -3.941260 43.924721  -0.345332 -0.916429 -0.202248  0.956740 0.656460 1 1 1.000000
0  1.302086 -3.803933 43.717419  0.258840 -0.965920 -0.000028  0.973030 0.704620 1 1 1.000000
skirt
0  1.497236 -3.941260 43.924721  -0.345332 -0.916429 -0.202248  0.956740 0.656460 1 1 1.000000
0  1.399531 -3.927479 43.949265  0.100311 -0.885710 -0.453272  0.973030 0.659110 1 1 1.000000
0  1.302086 -3.803933 43.717419  0.258840 -0.965920 -0.000028  0.973030 0.704620 1 1 1.000000
skirt
0  0.334332 -5.087263 43.534813  0.870098 -0.359371 -0.337315  0.840440 0.485980 1 1 1.000000
0  0.211697 -5.238955 43.197983  0.967228 -0.217598 -0.130848  0.858300 0.428070 1 1 1.000000
0  0.343628 -4.743443 43.192490  0.863340 -0.457713 -0.212468  0.914930 0.482790 1 1 1.000000
skirt
0  0.334332 -5.087263 43.534813  0.870098 -0.359371 -0.337315  0.840440 0.485980 1 1 1.000000
0  0.343628 -4.743443 43.192490  0.863340 -0.457713 -0.212468  0.914930 0.482790 1 1 1.000000
0  0.567218 -4.817062 43.666481  0.818488 -0.573537 0.033647  0.859270 0.542150 1 1 1.000000
skirt
0  0.343628 -4.743443 43.192490  0.863340 -0.457713 -0.212468  0.914930 0.482790 1 1 1.000000
0  0.592408 -4.520698 43.383602  0.718549 -0.617557 -0.319861  0.923130 0.541090 1 1 1.000000
0  0.567218 -4.817062 43.666481  0.818488 -0.573537 0.033647  0.859270 0.542150 1 1 1.000000
skirt
0  0.567218 -4.817062 43.666481  0.818488 -0.573537 0.033647  0.859270 0.542150 1 1 1.000000
0  0.592408 -4.520698 43.383602  0.718549 -0.617557 -0.319861  0.923130 0.541090 1 1 1.000000
0  0.840409 -4.480132 43.684883  0.788982 -0.613600 0.031661  0.899100 0.597320 1 1 1.000000
skirt
0  0.563318 -4.528499 43.958332  0.687739 -0.636046 0.349944  0.923130 0.541090 1 1 1.000000
0  0.567218 -4.817062 43.666481  0.818488 -0.573537 0.033647  0.859270 0.542150 1 1 1.000000
0  0.840409 -4.480132 43.684883  0.788982 -0.613600 0.031661  0.899100 0.597320 1 1 1.000000
skirt
0  0.867582 -4.287487 43.847553  0.687742 -0.636052 0.349927  0.939460 0.602850 1 1 1.000000
0  0.563318 -4.528499 43.958332  0.687739 -0.636046 0.349944  0.923130 0.541090 1 1 1.000000
0  0.840409 -4.480132 43.684883  0.788982 -0.613600 0.031661  0.899100 0.597320 1 1 1.000000
skirt
0  0.644251 -4.375149 44.226063  0.483820 -0.860635 -0.158825  0.973030 0.539610 1 1 1.000000
0  0.563318 -4.528499 43.958332  0.687739 -0.636046 0.349944  0.923130 0.541090 1 1 1.000000
0  0.867582 -4.287487 43.847553  0.687742 -0.636052 0.349927  0.939460 0.602850 1 1 1.000000
skirt
0  0.933498 -4.185587 44.012775  0.529938 -0.825626 -0.193668  0.973030 0.604980 1 1 1.000000
0  0.644251 -4.375149 44.226063  0.483820 -0.860635 -0.158825  0.973030 0.539610 1 1 1.000000
0  0.867582 -4.287487 43.847553  0.687742 -0.636052 0.349927  0.939460 0.602850 1 1 1.000000
skirt
0  1.064974 -4.234603 44.162224  0.068155 -0.791837 -0.606917  0.939460 0.602850 1 1 1.000000
0  0.644251 -4.375149 44.226063  0.483820 -0.860635 -0.158825  0.973030 0.539610 1 1 1.000000
0  0.933498 -4.185587 44.012775  0.529938 -0.825626 -0.193668  0.973030 0.604980 1 1 1.000000
skirt
0  1.204706 -4.019659 43.926929  0.221475 -0.764580 -0.605281  0.956740 0.656460 1 1 1.000000
0  1.064974 -4.234603 44.162224  0.068155 -0.791837 -0.606917  0.939460 0.602850 1 1 1.000000
0  0.933498 -4.185587 44.012775  0.529938 -0.825626 -0.193668  0.973030 0.604980 1 1 1.000000
skirt
0  1.064974 -4.234603 44.162224  0.068155 -0.791837 -0.606917  0.939460 0.602850 1 1 1.000000
0  1.204706 -4.019659 43.926929  0.221475 -0.764580 -0.605281  0.956740 0.656460 1 1 1.000000
0  1.266202 -4.091913 44.001915  0.420815 -0.680065 -0.600355  0.938420 0.650170 1 1 1.000000
skirt
0  1.266202 -4.091913 44.001915  0.420815 -0.680065 -0.600355  0.938420 0.650170 1 1 1.000000
0  1.204706 -4.019659 43.926929  0.221475 -0.764580 -0.605281  0.956740 0.656460 1 1 1.000000
0  1.302086 -3.803933 43.717419  0.258840 -0.965920 -0.000028  0.973030 0.704620 1 1 1.000000
skirt
0  1.321685 -3.988326 43.973415  0.585722 -0.666959 -0.460538  0.956740 0.656460 1 1 1.000000
0  1.266202 -4.091913 44.001915  0.420815 -0.680065 -0.600355  0.938420 0.650170 1 1 1.000000
0  1.302086 -3.803933 43.717419  0.258840 -0.965920 -0.000028  0.973030 0.704620 1 1 1.000000
skirt
0  1.399531 -3.927479 43.949265  0.100311 -0.885710 -0.453272  0.973030 0.659110 1 1 1.000000
0  1.321685 -3.988326 43.973415  0.585722 -0.666959 -0.460538  0.956740 0.656460 1 1 1.000000
0  1.302086 -3.803933 43.717419  0.258840 -0.965920 -0.000028  0.973030 0.704620 1 1 1.000000
skirt
0  1.321685 -3.988326 43.973415  0.585722 -0.666959 -0.460538  0.956740 0.656460 1 1 1.000000
0  1.399531 -3.927479 43.949265  0.100311 -0.885710 -0.453272  0.973030 0.659110 1 1 1.000000
0  1.508385 -4.031555 44.241207  0.134601 -0.932169 -0.336071  0.973030 0.604980 1 1 1.000000
skirt
0  1.399531 -3.927479 43.949265  0.100311 -0.885710 -0.453272  0.973030 0.659110 1 1 1.000000
0  1.497236 -3.941260 43.924721  -0.345332 -0.916429 -0.202248  0.956740 0.656460 1 1 1.000000
0  1.508385 -4.031555 44.241207  0.134601 -0.932169 -0.336071  0.973030 0.604980 1 1 1.000000
skirt
0  1.508385 -4.031555 44.241207  0.134601 -0.932169 -0.336071  0.973030 0.604980 1 1 1.000000
0  1.497236 -3.941260 43.924721  -0.345332 -0.916429 -0.202248  0.956740 0.656460 1 1 1.000000
0  1.700869 -4.064220 44.178703  -0.396519 -0.916363 -0.055239  0.939460 0.602850 1 1 1.000000
skirt
0  1.497236 -3.941260 43.924721  -0.345332 -0.916429 -0.202248  0.956740 0.656460 1 1 1.000000
0  1.600434 -4.002334 43.909184  -0.284496 -0.869063 -0.404712  0.938420 0.650170 1 1 1.000000
0  1.700869 -4.064220 44.178703  -0.396519 -0.916363 -0.055239  0.939460 0.602850 1 1 1.000000
skirt
0  2.651137 -4.125164 44.109505  -0.203999 -0.743700 -0.636628  0.914930 0.482790 1 1 1.000000
0  2.585544 -4.484033 44.429466  -0.170347 -0.638229 -0.750763  0.840440 0.485980 1 1 1.000000
0  2.236849 -4.369687 44.329975  -0.284515 -0.869051 -0.404723  0.859270 0.542150 1 1 1.000000
skirt
0  2.274716 -4.069908 44.052162  0.013265 -0.816749 -0.576841  0.923130 0.541090 1 1 1.000000
0  2.651137 -4.125164 44.109505  -0.203999 -0.743700 -0.636628  0.914930 0.482790 1 1 1.000000
0  2.236849 -4.369687 44.329975  -0.284515 -0.869051 -0.404723  0.859270 0.542150 1 1 1.000000
skirt
0  2.274716 -4.069908 44.052162  0.013265 -0.816749 -0.576841  0.923130 0.541090 1 1 1.000000
0  2.236849 -4.369687 44.329975  -0.284515 -0.869051 -0.404723  0.859270 0.542150 1 1 1.000000
0  1.907005 -4.194330 44.108757  -0.247246 -0.891246 -0.380197  0.899100 0.597320 1 1 1.000000
skirt
0  2.236849 -4.369687 44.329975  -0.284515 -0.869051 -0.404723  0.859270 0.542150 1 1 1.000000
0  1.924882 -4.163681 44.499416  -0.396515 -0.916364 -0.055249  0.923130 0.541090 1 1 1.000000
0  1.907005 -4.194330 44.108757  -0.247246 -0.891246 -0.380197  0.899100 0.597320 1 1 1.000000
skirt
0  1.924882 -4.163681 44.499416  -0.396515 -0.916364 -0.055249  0.923130 0.541090 1 1 1.000000
0  1.700869 -4.064220 44.178703  -0.396519 -0.916363 -0.055239  0.939460 0.602850 1 1 1.000000
0  1.907005 -4.194330 44.108757  -0.247246 -0.891246 -0.380197  0.899100 0.597320 1 1 1.000000
skirt
0  1.924882 -4.163681 44.499416  -0.396515 -0.916364 -0.055249  0.923130 0.541090 1 1 1.000000
0  1.634302 -4.109888 44.619511  0.174658 -0.943470 -0.281708  0.973030 0.539610 1 1 1.000000
0  1.700869 -4.064220 44.178703  -0.396519 -0.916363 -0.055239  0.939460 0.602850 1 1 1.000000
skirt
0  1.634302 -4.109888 44.619511  0.174658 -0.943470 -0.281708  0.973030 0.539610 1 1 1.000000
0  1.508385 -4.031555 44.241207  0.134601 -0.932169 -0.336071  0.973030 0.604980 1 1 1.000000
0  1.700869 -4.064220 44.178703  -0.396519 -0.916363 -0.055239  0.939460 0.602850 1 1 1.000000
skirt
0  1.634302 -4.109888 44.619511  0.174658 -0.943470 -0.281708  0.973030 0.539610 1 1 1.000000
0  1.350808 -4.158026 44.275822  0.675694 -0.639276 -0.367101  0.939460 0.602850 1 1 1.000000
0  1.508385 -4.031555 44.241207  0.134601 -0.932169 -0.336071  0.973030 0.604980 1 1 1.000000
skirt
0  1.350808 -4.158026 44.275822  0.675694 -0.639276 -0.367101  0.939460 0.602850 1 1 1.000000
0  1.321685 -3.988326 43.973415  0.585722 -0.666959 -0.460538  0.956740 0.656460 1 1 1.000000
0  1.508385 -4.031555 44.241207  0.134601 -0.932169 -0.336071  0.973030 0.604980 1 1 1.000000
skirt
0  1.266202 -4.091913 44.001915  0.420815 -0.680065 -0.600355  0.938420 0.650170 1 1 1.000000
0  1.321685 -3.988326 43.973415  0.585722 -0.666959 -0.460538  0.956740 0.656460 1 1 1.000000
0  1.350808 -4.158026 44.275822  0.675694 -0.639276 -0.367101  0.939460 0.602850 1 1 1.000000
skirt
0  1.266202 -4.091913 44.001915  0.420815 -0.680065 -0.600355  0.938420 0.650170 1 1 1.000000
0  1.350808 -4.158026 44.275822  0.675694 -0.639276 -0.367101  0.939460 0.602850 1 1 1.000000
0  1.224955 -4.377098 44.297924  0.415318 -0.713745 -0.563985  0.899100 0.597320 1 1 1.000000
skirt
0  1.064974 -4.234603 44.162224  0.068155 -0.791837 -0.606917  0.939460 0.602850 1 1 1.000000
0  1.266202 -4.091913 44.001915  0.420815 -0.680065 -0.600355  0.938420 0.650170 1 1 1.000000
0  1.224955 -4.377098 44.297924  0.415318 -0.713745 -0.563985  0.899100 0.597320 1 1 1.000000
skirt
0  0.867094 -4.447078 44.442631  0.068157 -0.791839 -0.606915  0.923130 0.541090 1 1 1.000000
0  1.064974 -4.234603 44.162224  0.068155 -0.791837 -0.606917  0.939460 0.602850 1 1 1.000000
0  1.224955 -4.377098 44.297924  0.415318 -0.713745 -0.563985  0.899100 0.597320 1 1 1.000000
skirt
0  1.064974 -4.234603 44.162224  0.068155 -0.791837 -0.606917  0.939460 0.602850 1 1 1.000000
0  0.867094 -4.447078 44.442631  0.068157 -0.791839 -0.606915  0.923130 0.541090 1 1 1.000000
0  0.644251 -4.375149 44.226063  0.483820 -0.860635 -0.158825  0.973030 0.539610 1 1 1.000000
skirt
0  0.644251 -4.375149 44.226063  0.483820 -0.860635 -0.158825  0.973030 0.539610 1 1 1.000000
0  0.867094 -4.447078 44.442631  0.068157 -0.791839 -0.606915  0.923130 0.541090 1 1 1.000000
0  0.379154 -4.578781 44.426571  0.599244 -0.761212 -0.247918  0.971050 0.478340 1 1 1.000000
skirt
0  0.563318 -4.528499 43.958332  0.687739 -0.636046 0.349944  0.923130 0.541090 1 1 1.000000
0  0.644251 -4.375149 44.226063  0.483820 -0.860635 -0.158825  0.973030 0.539610 1 1 1.000000
0  0.379154 -4.578781 44.426571  0.599244 -0.761212 -0.247918  0.971050 0.478340 1 1 1.000000
skirt
0  0.296823 -4.755990 44.117271  0.838099 -0.464476 0.286100  0.914930 0.482790 1 1 1.000000
0  0.563318 -4.528499 43.958332  0.687739 -0.636046 0.349944  0.923130 0.541090 1 1 1.000000
0  0.379154 -4.578781 44.426571  0.599244 -0.761212 -0.247918  0.971050 0.478340 1 1 1.000000
skirt
0  0.567218 -4.817062 43.666481  0.818488 -0.573537 0.033647  0.859270 0.542150 1 1 1.000000
0  0.563318 -4.528499 43.958332  0.687739 -0.636046 0.349944  0.923130 0.541090 1 1 1.000000
0  0.296823 -4.755990 44.117271  0.838099 -0.464476 0.286100  0.914930 0.482790 1 1 1.000000
skirt
0  0.165802 -4.959461 44.331600  0.949198 -0.310874 0.048789  0.917360 0.433780 1 1 1.000000
0  0.296823 -4.755990 44.117271  0.838099 -0.464476 0.286100  0.914930 0.482790 1 1 1.000000
0  0.236010 -4.808547 44.554993  0.750936 -0.539869 -0.380311  0.960750 0.431730 1 1 1.000000
skirt
0  0.236010 -4.808547 44.554993  0.750936 -0.539869 -0.380311  0.960750 0.431730 1 1 1.000000
0  0.296823 -4.755990 44.117271  0.838099 -0.464476 0.286100  0.914930 0.482790 1 1 1.000000
0  0.379154 -4.578781 44.426571  0.599244 -0.761212 -0.247918  0.971050 0.478340 1 1 1.000000
skirt
0  0.641619 -4.663616 44.666935  0.190640 -0.637943 -0.746114  0.914930 0.482790 1 1 1.000000
0  0.236010 -4.808547 44.554993  0.750936 -0.539869 -0.380311  0.960750 0.431730 1 1 1.000000
0  0.379154 -4.578781 44.426571  0.599244 -0.761212 -0.247918  0.971050 0.478340 1 1 1.000000
skirt
0  0.867094 -4.447078 44.442631  0.068157 -0.791839 -0.606915  0.923130 0.541090 1 1 1.000000
0  0.641619 -4.663616 44.666935  0.190640 -0.637943 -0.746114  0.914930 0.482790 1 1 1.000000
0  0.379154 -4.578781 44.426571  0.599244 -0.761212 -0.247918  0.971050 0.478340 1 1 1.000000
skirt
0  0.322598 -5.090416 43.766563  0.832066 -0.369603 0.413595  0.840440 0.485980 1 1 1.000000
0  0.567218 -4.817062 43.666481  0.818488 -0.573537 0.033647  0.859270 0.542150 1 1 1.000000
0  0.296823 -4.755990 44.117271  0.838099 -0.464476 0.286100  0.914930 0.482790 1 1 1.000000
skirt
0  0.166778 -5.250983 44.085064  0.949364 -0.222437 0.221876  0.858300 0.428070 1 1 1.000000
0  0.322598 -5.090416 43.766563  0.832066 -0.369603 0.413595  0.840440 0.485980 1 1 1.000000
0  0.296823 -4.755990 44.117271  0.838099 -0.464476 0.286100  0.914930 0.482790 1 1 1.000000
skirt
0  0.165802 -4.959461 44.331600  0.949198 -0.310874 0.048789  0.917360 0.433780 1 1 1.000000
0  0.166778 -5.250983 44.085064  0.949364 -0.222437 0.221876  0.858300 0.428070 1 1 1.000000
0  0.296823 -4.755990 44.117271  0.838099 -0.464476 0.286100  0.914930 0.482790 1 1 1.000000
skirt
0  0.121598 -5.149507 44.575401  0.966313 -0.254349 0.039320  0.925730 0.385940 1 1 1.000000
0  0.166778 -5.250983 44.085064  0.949364 -0.222437 0.221876  0.858300 0.428070 1 1 1.000000
0  0.165802 -4.959461 44.331600  0.949198 -0.310874 0.048789  0.917360 0.433780 1 1 1.000000
skirt
0  0.121598 -5.149507 44.575401  0.966313 -0.254349 0.039320  0.925730 0.385940 1 1 1.000000
0  0.165802 -4.959461 44.331600  0.949198 -0.310874 0.048789  0.917360 0.433780 1 1 1.000000
0  0.171523 -5.054176 44.636707  0.802039 -0.410173 -0.434156  0.944530 0.392240 1 1 1.000000
skirt
0  0.171523 -5.054176 44.636707  0.802039 -0.410173 -0.434156  0.944530 0.392240 1 1 1.000000
0  0.165802 -4.959461 44.331600  0.949198 -0.310874 0.048789  0.917360 0.433780 1 1 1.000000
0  0.236010 -4.808547 44.554993  0.750936 -0.539869 -0.380311  0.960750 0.431730 1 1 1.000000
skirt
0  0.424171 -4.890229 44.743481  0.435745 -0.448461 -0.780390  0.917360 0.433780 1 1 1.000000
0  0.171523 -5.054176 44.636707  0.802039 -0.410173 -0.434156  0.944530 0.392240 1 1 1.000000
0  0.236010 -4.808547 44.554993  0.750936 -0.539869 -0.380311  0.960750 0.431730 1 1 1.000000
skirt
0  0.641619 -4.663616 44.666935  0.190640 -0.637943 -0.746114  0.914930 0.482790 1 1 1.000000
0  0.424171 -4.890229 44.743481  0.435745 -0.448461 -0.780390  0.917360 0.433780 1 1 1.000000
0  0.236010 -4.808547 44.554993  0.750936 -0.539869 -0.380311  0.960750 0.431730 1 1 1.000000
skirt
0  0.685401 -5.112032 44.911816  0.261027 -0.406842 -0.875411  0.858300 0.428070 1 1 1.000000
0  0.424171 -4.890229 44.743481  0.435745 -0.448461 -0.780390  0.917360 0.433780 1 1 1.000000
0  0.641619 -4.663616 44.666935  0.190640 -0.637943 -0.746114  0.914930 0.482790 1 1 1.000000
skirt
0  1.012189 -4.905635 44.865921  0.061419 -0.576091 -0.815074  0.840440 0.485980 1 1 1.000000
0  0.685401 -5.112032 44.911816  0.261027 -0.406842 -0.875411  0.858300 0.428070 1 1 1.000000
0  0.641619 -4.663616 44.666935  0.190640 -0.637943 -0.746114  0.914930 0.482790 1 1 1.000000
skirt
0  1.012189 -4.905635 44.865921  0.061419 -0.576091 -0.815074  0.840440 0.485980 1 1 1.000000
0  0.641619 -4.663616 44.666935  0.190640 -0.637943 -0.746114  0.914930 0.482790 1 1 1.000000
0  1.169212 -4.655749 44.626141  0.420816 -0.680062 -0.600358  0.859270 0.542150 1 1 1.000000
skirt
0  0.641619 -4.663616 44.666935  0.190640 -0.637943 -0.746114  0.914930 0.482790 1 1 1.000000
0  0.867094 -4.447078 44.442631  0.068157 -0.791839 -0.606915  0.923130 0.541090 1 1 1.000000
0  1.169212 -4.655749 44.626141  0.420816 -0.680062 -0.600358  0.859270 0.542150 1 1 1.000000
skirt
0  1.169212 -4.655749 44.626141  0.420816 -0.680062 -0.600358  0.859270 0.542150 1 1 1.000000
0  0.867094 -4.447078 44.442631  0.068157 -0.791839 -0.606915  0.923130 0.541090 1 1 1.000000
0  1.224955 -4.377098 44.297924  0.415318 -0.713745 -0.563985  0.899100 0.597320 1 1 1.000000
skirt
0  1.386107 -4.308028 44.648895  0.675701 -0.639270 -0.367099  0.923130 0.541090 1 1 1.000000
0  1.169212 -4.655749 44.626141  0.420816 -0.680062 -0.600358  0.859270 0.542150 1 1 1.000000
0  1.224955 -4.377098 44.297924  0.415318 -0.713745 -0.563985  0.899100 0.597320 1 1 1.000000
skirt
0  1.350808 -4.158026 44.275822  0.675694 -0.639276 -0.367101  0.939460 0.602850 1 1 1.000000
0  1.386107 -4.308028 44.648895  0.675701 -0.639270 -0.367099  0.923130 0.541090 1 1 1.000000
0  1.224955 -4.377098 44.297924  0.415318 -0.713745 -0.563985  0.899100 0.597320 1 1 1.000000
skirt
0  1.386107 -4.308028 44.648895  0.675701 -0.639270 -0.367099  0.923130 0.541090 1 1 1.000000
0  1.350808 -4.158026 44.275822  0.675694 -0.639276 -0.367101  0.939460 0.602850 1 1 1.000000
0  1.634302 -4.109888 44.619511  0.174658 -0.943470 -0.281708  0.973030 0.539610 1 1 1.000000
skirt
0  1.386107 -4.308028 44.648895  0.675701 -0.639270 -0.367099  0.923130 0.541090 1 1 1.000000
0  1.634302 -4.109888 44.619511  0.174658 -0.943470 -0.281708  0.973030 0.539610 1 1 1.000000
0  1.759505 -4.208926 44.975163  0.123960 -0.898538 -0.421026  0.971050 0.478340 1 1 1.000000
skirt
0  1.634302 -4.109888 44.619511  0.174658 -0.943470 -0.281708  0.973030 0.539610 1 1 1.000000
0  1.924882 -4.163681 44.499416  -0.396515 -0.916364 -0.055249  0.923130 0.541090 1 1 1.000000
0  1.759505 -4.208926 44.975163  0.123960 -0.898538 -0.421026  0.971050 0.478340 1 1 1.000000
skirt
0  0.072778 -5.351971 44.514587  0.951263 -0.272654 0.144077  0.896100 0.368290 1 1 1.000000
0  0.166778 -5.250983 44.085064  0.949364 -0.222437 0.221876  0.858300 0.428070 1 1 1.000000
0  0.121598 -5.149507 44.575401  0.966313 -0.254349 0.039320  0.925730 0.385940 1 1 1.000000
skirt
0  0.424171 -4.890229 44.743481  0.435745 -0.448461 -0.780390  0.917360 0.433780 1 1 1.000000
0  0.217515 -5.123830 44.728298  0.423360 -0.399857 -0.812946  0.925730 0.385940 1 1 1.000000
0  0.171523 -5.054176 44.636707  0.802039 -0.410173 -0.434156  0.944530 0.392240 1 1 1.000000
skirt
0  0.685401 -5.112032 44.911816  0.261027 -0.406842 -0.875411  0.858300 0.428070 1 1 1.000000
0  0.217515 -5.123830 44.728298  0.423360 -0.399857 -0.812946  0.925730 0.385940 1 1 1.000000
0  0.424171 -4.890229 44.743481  0.435745 -0.448461 -0.780390  0.917360 0.433780 1 1 1.000000
skirt
0  0.685401 -5.112032 44.911816  0.261027 -0.406842 -0.875411  0.858300 0.428070 1 1 1.000000
0  0.279403 -5.296618 44.843948  0.337981 -0.436891 -0.833603  0.896100 0.368290 1 1 1.000000
0  0.217515 -5.123830 44.728298  0.423360 -0.399857 -0.812946  0.925730 0.385940 1 1 1.000000
skirt
0  1.924882 -4.163681 44.499416  -0.396515 -0.916364 -0.055249  0.923130 0.541090 1 1 1.000000
0  2.088211 -4.275981 44.829193  -0.507446 -0.825036 -0.248625  0.914930 0.482790 1 1 1.000000
0  1.759505 -4.208926 44.975163  0.123960 -0.898538 -0.421026  0.971050 0.478340 1 1 1.000000
skirt
0  1.924882 -4.163681 44.499416  -0.396515 -0.916364 -0.055249  0.923130 0.541090 1 1 1.000000
0  2.236849 -4.369687 44.329975  -0.284515 -0.869051 -0.404723  0.859270 0.542150 1 1 1.000000
0  2.088211 -4.275981 44.829193  -0.507446 -0.825036 -0.248625  0.914930 0.482790 1 1 1.000000
skirt
0  2.236849 -4.369687 44.329975  -0.284515 -0.869051 -0.404723  0.859270 0.542150 1 1 1.000000
0  2.444480 -4.521834 44.609825  -0.627429 -0.760674 -0.166457  0.840440 0.485980 1 1 1.000000
0  2.088211 -4.275981 44.829193  -0.507446 -0.825036 -0.248625  0.914930 0.482790 1 1 1.000000
skirt
0  2.444480 -4.521834 44.609825  -0.627429 -0.760674 -0.166457  0.840440 0.485980 1 1 1.000000
0  2.406191 -4.650938 44.975037  -0.641155 -0.648581 -0.410200  0.858300 0.428070 1 1 1.000000
0  2.088211 -4.275981 44.829193  -0.507446 -0.825036 -0.248625  0.914930 0.482790 1 1 1.000000
skirt
0  2.406191 -4.650938 44.975037  -0.641155 -0.648581 -0.410200  0.858300 0.428070 1 1 1.000000
0  2.120455 -4.435734 45.108398  -0.490623 -0.696666 -0.523398  0.917360 0.433780 1 1 1.000000
0  2.088211 -4.275981 44.829193  -0.507446 -0.825036 -0.248625  0.914930 0.482790 1 1 1.000000
skirt
0  2.406191 -4.650938 44.975037  -0.641155 -0.648581 -0.410200  0.858300 0.428070 1 1 1.000000
0  2.073390 -4.626529 45.351036  -0.519846 -0.652564 -0.551289  0.925730 0.385940 1 1 1.000000
0  2.120455 -4.435734 45.108398  -0.490623 -0.696666 -0.523398  0.917360 0.433780 1 1 1.000000
skirt
0  2.120455 -4.435734 45.108398  -0.490623 -0.696666 -0.523398  0.917360 0.433780 1 1 1.000000
0  2.073390 -4.626529 45.351036  -0.519846 -0.652564 -0.551289  0.925730 0.385940 1 1 1.000000
0  1.960896 -4.574720 45.347813  -0.043022 -0.636630 -0.769968  0.944530 0.392240 1 1 1.000000
skirt
0  2.120455 -4.435734 45.108398  -0.490623 -0.696666 -0.523398  0.917360 0.433780 1 1 1.000000
0  1.960896 -4.574720 45.347813  -0.043022 -0.636630 -0.769968  0.944530 0.392240 1 1 1.000000
0  1.866311 -4.371703 45.202881  0.010676 -0.738201 -0.674496  0.960750 0.431730 1 1 1.000000
skirt
0  1.960896 -4.574720 45.347813  -0.043022 -0.636630 -0.769968  0.944530 0.392240 1 1 1.000000
0  1.662190 -4.558500 45.235516  0.435786 -0.448442 -0.780378  0.917360 0.433780 1 1 1.000000
0  1.866311 -4.371703 45.202881  0.010676 -0.738201 -0.674496  0.960750 0.431730 1 1 1.000000
skirt
0  1.662190 -4.558500 45.235516  0.435786 -0.448442 -0.780378  0.917360 0.433780 1 1 1.000000
0  1.476726 -4.439830 44.998829  0.640844 -0.517336 -0.567171  0.914930 0.482790 1 1 1.000000
0  1.866311 -4.371703 45.202881  0.010676 -0.738201 -0.674496  0.960750 0.431730 1 1 1.000000
skirt
0  1.662190 -4.558500 45.235516  0.435786 -0.448442 -0.780378  0.917360 0.433780 1 1 1.000000
0  1.486445 -4.897379 45.230156  0.579585 -0.321475 -0.748822  0.858300 0.428070 1 1 1.000000
0  1.476726 -4.439830 44.998829  0.640844 -0.517336 -0.567171  0.914930 0.482790 1 1 1.000000
skirt
0  1.486445 -4.897379 45.230156  0.579585 -0.321475 -0.748822  0.858300 0.428070 1 1 1.000000
0  1.221478 -4.849535 44.949097  0.739388 -0.394415 -0.545658  0.840440 0.485980 1 1 1.000000
0  1.476726 -4.439830 44.998829  0.640844 -0.517336 -0.567171  0.914930 0.482790 1 1 1.000000
skirt
0  1.221478 -4.849535 44.949097  0.739388 -0.394415 -0.545658  0.840440 0.485980 1 1 1.000000
0  1.169212 -4.655749 44.626141  0.420816 -0.680062 -0.600358  0.859270 0.542150 1 1 1.000000
0  1.476726 -4.439830 44.998829  0.640844 -0.517336 -0.567171  0.914930 0.482790 1 1 1.000000
skirt
0  1.169212 -4.655749 44.626141  0.420816 -0.680062 -0.600358  0.859270 0.542150 1 1 1.000000
0  1.386107 -4.308028 44.648895  0.675701 -0.639270 -0.367099  0.923130 0.541090 1 1 1.000000
0  1.476726 -4.439830 44.998829  0.640844 -0.517336 -0.567171  0.914930 0.482790 1 1 1.000000
skirt
0  1.476726 -4.439830 44.998829  0.640844 -0.517336 -0.567171  0.914930 0.482790 1 1 1.000000
0  1.386107 -4.308028 44.648895  0.675701 -0.639270 -0.367099  0.923130 0.541090 1 1 1.000000
0  1.759505 -4.208926 44.975163  0.123960 -0.898538 -0.421026  0.971050 0.478340 1 1 1.000000
skirt
0  1.866311 -4.371703 45.202881  0.010676 -0.738201 -0.674496  0.960750 0.431730 1 1 1.000000
0  1.476726 -4.439830 44.998829  0.640844 -0.517336 -0.567171  0.914930 0.482790 1 1 1.000000
0  1.759505 -4.208926 44.975163  0.123960 -0.898538 -0.421026  0.971050 0.478340 1 1 1.000000
skirt
0  2.088211 -4.275981 44.829193  -0.507446 -0.825036 -0.248625  0.914930 0.482790 1 1 1.000000
0  1.866311 -4.371703 45.202881  0.010676 -0.738201 -0.674496  0.960750 0.431730 1 1 1.000000
0  1.759505 -4.208926 44.975163  0.123960 -0.898538 -0.421026  0.971050 0.478340 1 1 1.000000
skirt
0  2.088211 -4.275981 44.829193  -0.507446 -0.825036 -0.248625  0.914930 0.482790 1 1 1.000000
0  2.120455 -4.435734 45.108398  -0.490623 -0.696666 -0.523398  0.917360 0.433780 1 1 1.000000
0  1.866311 -4.371703 45.202881  0.010676 -0.738201 -0.674496  0.960750 0.431730 1 1 1.000000
skirt
0  2.406191 -4.650938 44.975037  -0.641155 -0.648581 -0.410200  0.858300 0.428070 1 1 1.000000
0  2.231486 -4.773543 45.372456  -0.570205 -0.680282 -0.460525  0.896100 0.368290 1 1 1.000000
0  2.073390 -4.626529 45.351036  -0.519846 -0.652564 -0.551289  0.925730 0.385940 1 1 1.000000
skirt
0  1.903300 -4.672098 45.398232  0.423367 -0.399848 -0.812946  0.925730 0.385940 1 1 1.000000
0  1.662190 -4.558500 45.235516  0.435786 -0.448442 -0.780378  0.917360 0.433780 1 1 1.000000
0  1.960896 -4.574720 45.347813  -0.043022 -0.636630 -0.769968  0.944530 0.392240 1 1 1.000000
skirt
0  1.903300 -4.672098 45.398232  0.423367 -0.399848 -0.812946  0.925730 0.385940 1 1 1.000000
0  1.486445 -4.897379 45.230156  0.579585 -0.321475 -0.748822  0.858300 0.428070 1 1 1.000000
0  1.662190 -4.558500 45.235516  0.435786 -0.448442 -0.780378  0.917360 0.433780 1 1 1.000000
skirt
0  1.865044 -4.871734 45.474125  0.517515 -0.388916 -0.762183  0.896100 0.368290 1 1 1.000000
0  1.486445 -4.897379 45.230156  0.579585 -0.321475 -0.748822  0.858300 0.428070 1 1 1.000000
0  1.903300 -4.672098 45.398232  0.423367 -0.399848 -0.812946  0.925730 0.385940 1 1 1.000000
skirt
0  -2.387008 -5.008800 41.650883  -0.045250 -0.987179 -0.153068  0.974570 0.802640 1 1 1.000000
0  -1.708144 -5.092658 41.991005  -0.011718 -0.990619 -0.136149  0.923650 0.807570 1 1 1.000000
0  -1.967618 -5.020437 42.086468  -0.212724 -0.965212 0.152036  0.935360 0.792450 1 1 1.000000
skirt
0  -2.387008 -5.008800 41.650883  -0.045250 -0.987179 -0.153068  0.974570 0.802640 1 1 1.000000
0  -1.790345 -4.975418 41.743713  0.100326 -0.885712 -0.453264  0.935360 0.792450 1 1 1.000000
0  -1.708144 -5.092658 41.991005  -0.011718 -0.990619 -0.136149  0.923650 0.807570 1 1 1.000000
skirt
0  -1.790345 -4.975418 41.743713  0.100326 -0.885712 -0.453264  0.935360 0.792450 1 1 1.000000
0  -1.221992 -4.916717 41.728703  0.134583 -0.932171 -0.336073  0.900670 0.776270 1 1 1.000000
0  -1.708144 -5.092658 41.991005  -0.011718 -0.990619 -0.136149  0.923650 0.807570 1 1 1.000000
skirt
0  -1.708144 -5.092658 41.991005  -0.011718 -0.990619 -0.136149  0.923650 0.807570 1 1 1.000000
0  -1.221992 -4.916717 41.728703  0.134583 -0.932171 -0.336073  0.900670 0.776270 1 1 1.000000
0  -0.817130 -5.061064 42.455929  0.179786 -0.983519 -0.019166  0.856420 0.811500 1 1 1.000000
skirt
0  -1.221992 -4.916717 41.728703  0.134583 -0.932171 -0.336073  0.900670 0.776270 1 1 1.000000
0  -0.703921 -4.826064 41.671783  0.206856 -0.945002 -0.253342  0.870350 0.757950 1 1 1.000000
0  -0.817130 -5.061064 42.455929  0.179786 -0.983519 -0.019166  0.856420 0.811500 1 1 1.000000
skirt
0  -0.703921 -4.826064 41.671783  0.206856 -0.945002 -0.253342  0.870350 0.757950 1 1 1.000000
0  -0.184486 -4.679962 41.700001  0.371116 -0.913290 -0.167849  0.837220 0.743380 1 1 1.000000
0  -0.817130 -5.061064 42.455929  0.179786 -0.983519 -0.019166  0.856420 0.811500 1 1 1.000000
skirt
0  -0.817130 -5.061064 42.455929  0.179786 -0.983519 -0.019166  0.856420 0.811500 1 1 1.000000
0  -0.184486 -4.679962 41.700001  0.371116 -0.913290 -0.167849  0.837220 0.743380 1 1 1.000000
0  0.114870 -4.716692 42.983170  0.401904 -0.911422 0.088222  0.781090 0.811510 1 1 1.000000
skirt
0  -0.184486 -4.679962 41.700001  0.371116 -0.913290 -0.167849  0.837220 0.743380 1 1 1.000000
0  0.348504 -4.471747 41.971596  0.470587 -0.876263 -0.103495  0.794850 0.741410 1 1 1.000000
0  0.114870 -4.716692 42.983170  0.401904 -0.911422 0.088222  0.781090 0.811510 1 1 1.000000
skirt
0  0.348504 -4.471747 41.971596  0.470587 -0.876263 -0.103495  0.794850 0.741410 1 1 1.000000
0  0.795522 -4.240387 42.429470  0.564919 -0.824478 -0.033205  0.750530 0.752040 1 1 1.000000
0  0.114870 -4.716692 42.983170  0.401904 -0.911422 0.088222  0.781090 0.811510 1 1 1.000000
skirt
0  0.795522 -4.240387 42.429470  0.564919 -0.824478 -0.033205  0.750530 0.752040 1 1 1.000000
0  0.758013 -4.264019 43.375187  0.561123 -0.813613 0.152236  0.722290 0.808800 1 1 1.000000
0  0.114870 -4.716692 42.983170  0.401904 -0.911422 0.088222  0.781090 0.811510 1 1 1.000000
skirt
0  0.795522 -4.240387 42.429470  0.564919 -0.824478 -0.033205  0.750530 0.752040 1 1 1.000000
0  1.068095 -4.025151 42.973640  0.643453 -0.764320 0.042213  0.712480 0.772560 1 1 1.000000
0  0.758013 -4.264019 43.375187  0.561123 -0.813613 0.152236  0.722290 0.808800 1 1 1.000000
skirt
0  1.068095 -4.025151 42.973640  0.643453 -0.764320 0.042213  0.712480 0.772560 1 1 1.000000
0  1.229019 -3.802375 43.679321  0.609315 -0.763251 0.214902  0.673780 0.805340 1 1 1.000000
0  0.758013 -4.264019 43.375187  0.561123 -0.813613 0.152236  0.722290 0.808800 1 1 1.000000
skirt
0  1.229019 -3.802375 43.679321  0.609315 -0.763251 0.214902  0.673780 0.805340 1 1 1.000000
0  0.590458 -4.146389 43.897259  0.490291 -0.803212 0.338328  0.712480 0.772560 1 1 1.000000
0  0.758013 -4.264019 43.375187  0.561123 -0.813613 0.152236  0.722290 0.808800 1 1 1.000000
skirt
0  0.758013 -4.264019 43.375187  0.561123 -0.813613 0.152236  0.722290 0.808800 1 1 1.000000
0  0.590458 -4.146389 43.897259  0.490291 -0.803212 0.338328  0.712480 0.772560 1 1 1.000000
0  0.016027 -4.438237 43.936718  0.372655 -0.875406 0.307883  0.750530 0.752040 1 1 1.000000
skirt
0  0.114870 -4.716692 42.983170  0.401904 -0.911422 0.088222  0.781090 0.811510 1 1 1.000000
0  0.758013 -4.264019 43.375187  0.561123 -0.813613 0.152236  0.722290 0.808800 1 1 1.000000
0  0.016027 -4.438237 43.936718  0.372655 -0.875406 0.307883  0.750530 0.752040 1 1 1.000000
skirt
0  -0.589087 -4.709705 43.784561  0.283925 -0.923636 0.257455  0.794850 0.741410 1 1 1.000000
0  0.114870 -4.716692 42.983170  0.401904 -0.911422 0.088222  0.781090 0.811510 1 1 1.000000
0  0.016027 -4.438237 43.936718  0.372655 -0.875406 0.307883  0.750530 0.752040 1 1 1.000000
skirt
0  0.114870 -4.716692 42.983170  0.401904 -0.911422 0.088222  0.781090 0.811510 1 1 1.000000
0  -0.589087 -4.709705 43.784561  0.283925 -0.923636 0.257455  0.794850 0.741410 1 1 1.000000
0  -1.096822 -4.911517 43.464119  0.186258 -0.968404 0.165838  0.837220 0.743380 1 1 1.000000
skirt
0  -0.817130 -5.061064 42.455929  0.179786 -0.983519 -0.019166  0.856420 0.811500 1 1 1.000000
0  0.114870 -4.716692 42.983170  0.401904 -0.911422 0.088222  0.781090 0.811510 1 1 1.000000
0  -1.096822 -4.911517 43.464119  0.186258 -0.968404 0.165838  0.837220 0.743380 1 1 1.000000
skirt
0  -1.407228 -5.004540 43.031723  0.030858 -0.992978 0.114204  0.870350 0.757950 1 1 1.000000
0  -0.817130 -5.061064 42.455929  0.179786 -0.983519 -0.019166  0.856420 0.811500 1 1 1.000000
0  -1.096822 -4.911517 43.464119  0.186258 -0.968404 0.165838  0.837220 0.743380 1 1 1.000000
skirt
0  -0.817130 -5.061064 42.455929  0.179786 -0.983519 -0.019166  0.856420 0.811500 1 1 1.000000
0  -1.407228 -5.004540 43.031723  0.030858 -0.992978 0.114204  0.870350 0.757950 1 1 1.000000
0  -1.654221 -5.026450 42.564365  -0.093472 -0.990070 0.104997  0.900670 0.776270 1 1 1.000000
skirt
0  -1.708144 -5.092658 41.991005  -0.011718 -0.990619 -0.136149  0.923650 0.807570 1 1 1.000000
0  -0.817130 -5.061064 42.455929  0.179786 -0.983519 -0.019166  0.856420 0.811500 1 1 1.000000
0  -1.654221 -5.026450 42.564365  -0.093472 -0.990070 0.104997  0.900670 0.776270 1 1 1.000000
skirt
0  -1.967618 -5.020437 42.086468  -0.212724 -0.965212 0.152036  0.935360 0.792450 1 1 1.000000
0  -1.708144 -5.092658 41.991005  -0.011718 -0.990619 -0.136149  0.923650 0.807570 1 1 1.000000
0  -1.654221 -5.026450 42.564365  -0.093472 -0.990070 0.104997  0.900670 0.776270 1 1 1.000000
skirt
0  2.995997 -4.492905 43.300236  -0.492594 -0.608785 0.621878  0.858300 0.428070 1 1 1.000000
0  3.320217 -4.481822 43.613731  -0.508113 -0.663681 0.548953  0.896100 0.368290 1 1 1.000000
0  3.218969 -4.319565 43.716187  -0.578411 -0.668231 0.467877  0.925730 0.385940 1 1 1.000000
skirt
0  1.700869 -4.064220 44.178703  -0.396519 -0.916363 -0.055239  0.939460 0.602850 1 1 1.000000
0  1.600434 -4.002334 43.909184  -0.284496 -0.869063 -0.404712  0.938420 0.650170 1 1 1.000000
0  1.907005 -4.194330 44.108757  -0.247246 -0.891246 -0.380197  0.899100 0.597320 1 1 1.000000
skirt
0  1.600434 -4.002334 43.909184  -0.284496 -0.869063 -0.404712  0.938420 0.650170 1 1 1.000000
0  1.893549 -4.012604 43.932392  0.013263 -0.816714 -0.576891  0.939460 0.602850 1 1 1.000000
0  1.907005 -4.194330 44.108757  -0.247246 -0.891246 -0.380197  0.899100 0.597320 1 1 1.000000
skirt
0  1.893549 -4.012604 43.932392  0.013263 -0.816714 -0.576891  0.939460 0.602850 1 1 1.000000
0  2.274716 -4.069908 44.052162  0.013265 -0.816749 -0.576841  0.923130 0.541090 1 1 1.000000
0  1.907005 -4.194330 44.108757  -0.247246 -0.891246 -0.380197  0.899100 0.597320 1 1 1.000000
skirt
0  2.274716 -4.069908 44.052162  0.013265 -0.816749 -0.576841  0.923130 0.541090 1 1 1.000000
0  1.893549 -4.012604 43.932392  0.013263 -0.816714 -0.576891  0.939460 0.602850 1 1 1.000000
0  2.301693 -3.931054 43.766270  -0.028299 -0.999597 -0.002146  0.973030 0.539610 1 1 1.000000
skirt
0  2.274716 -4.069908 44.052162  0.013265 -0.816749 -0.576841  0.923130 0.541090 1 1 1.000000
0  2.301693 -3.931054 43.766270  -0.028299 -0.999597 -0.002146  0.973030 0.539610 1 1 1.000000
0  2.690010 -3.959591 43.785542  -0.208610 -0.977708 -0.023841  0.971050 0.478340 1 1 1.000000
skirt
0  2.301693 -3.931054 43.766270  -0.028299 -0.999597 -0.002146  0.973030 0.539610 1 1 1.000000
0  2.303903 -4.062108 43.475494  -0.033352 -0.819009 0.572810  0.923130 0.541090 1 1 1.000000
0  2.690010 -3.959591 43.785542  -0.208610 -0.977708 -0.023841  0.971050 0.478340 1 1 1.000000
skirt
0  2.303903 -4.062108 43.475494  -0.033352 -0.819009 0.572810  0.923130 0.541090 1 1 1.000000
0  2.684290 -4.116291 43.454983  -0.266227 -0.760367 0.592423  0.914930 0.482790 1 1 1.000000
0  2.690010 -3.959591 43.785542  -0.208610 -0.977708 -0.023841  0.971050 0.478340 1 1 1.000000
skirt
0  2.303903 -4.062108 43.475494  -0.033352 -0.819009 0.572810  0.923130 0.541090 1 1 1.000000
0  2.294705 -4.354182 43.187256  -0.322798 -0.879291 0.350213  0.859270 0.542150 1 1 1.000000
0  2.684290 -4.116291 43.454983  -0.266227 -0.760367 0.592423  0.914930 0.482790 1 1 1.000000
skirt
0  2.294705 -4.354182 43.187256  -0.322798 -0.879291 0.350213  0.859270 0.542150 1 1 1.000000
0  2.651819 -4.466285 43.120426  -0.244500 -0.658063 0.712160  0.840440 0.485980 1 1 1.000000
0  2.684290 -4.116291 43.454983  -0.266227 -0.760367 0.592423  0.914930 0.482790 1 1 1.000000
skirt
0  2.651819 -4.466285 43.120426  -0.244500 -0.658063 0.712160  0.840440 0.485980 1 1 1.000000
0  2.995997 -4.492905 43.300236  -0.492594 -0.608785 0.621878  0.858300 0.428070 1 1 1.000000
0  2.684290 -4.116291 43.454983  -0.266227 -0.760367 0.592423  0.914930 0.482790 1 1 1.000000
skirt
0  2.995997 -4.492905 43.300236  -0.492594 -0.608785 0.621878  0.858300 0.428070 1 1 1.000000
0  2.979810 -4.205446 43.550995  -0.534769 -0.708527 0.460447  0.917360 0.433780 1 1 1.000000
0  2.684290 -4.116291 43.454983  -0.266227 -0.760367 0.592423  0.914930 0.482790 1 1 1.000000
skirt
0  2.995997 -4.492905 43.300236  -0.492594 -0.608785 0.621878  0.858300 0.428070 1 1 1.000000
0  3.218969 -4.319565 43.716187  -0.578411 -0.668231 0.467877  0.925730 0.385940 1 1 1.000000
0  2.979810 -4.205446 43.550995  -0.534769 -0.708527 0.460447  0.917360 0.433780 1 1 1.000000
skirt
0  2.979810 -4.205446 43.550995  -0.534769 -0.708527 0.460447  0.917360 0.433780 1 1 1.000000
0  3.218969 -4.319565 43.716187  -0.578411 -0.668231 0.467877  0.925730 0.385940 1 1 1.000000
0  3.167094 -4.251503 43.805729  -0.612589 -0.789301 -0.041714  0.944530 0.392240 1 1 1.000000
skirt
0  2.979810 -4.205446 43.550995  -0.534769 -0.708527 0.460447  0.917360 0.433780 1 1 1.000000
0  3.167094 -4.251503 43.805729  -0.612589 -0.789301 -0.041714  0.944530 0.392240 1 1 1.000000
0  2.965248 -4.077255 43.797894  -0.488273 -0.871925 -0.036553  0.960750 0.431730 1 1 1.000000
skirt
0  3.167094 -4.251503 43.805729  -0.612589 -0.789301 -0.041714  0.944530 0.392240 1 1 1.000000
0  2.954977 -4.212110 44.041443  -0.490597 -0.696670 -0.523418  0.917360 0.433780 1 1 1.000000
0  2.965248 -4.077255 43.797894  -0.488273 -0.871925 -0.036553  0.960750 0.431730 1 1 1.000000
skirt
0  2.954977 -4.212110 44.041443  -0.490597 -0.696670 -0.523418  0.917360 0.433780 1 1 1.000000
0  2.651137 -4.125164 44.109505  -0.203999 -0.743700 -0.636628  0.914930 0.482790 1 1 1.000000
0  2.965248 -4.077255 43.797894  -0.488273 -0.871925 -0.036553  0.960750 0.431730 1 1 1.000000
skirt
0  2.954977 -4.212110 44.041443  -0.490597 -0.696670 -0.523418  0.917360 0.433780 1 1 1.000000
0  2.946169 -4.506233 44.284698  -0.426438 -0.591096 -0.684658  0.858300 0.428070 1 1 1.000000
0  2.651137 -4.125164 44.109505  -0.203999 -0.743700 -0.636628  0.914930 0.482790 1 1 1.000000
skirt
0  2.946169 -4.506233 44.284698  -0.426438 -0.591096 -0.684658  0.858300 0.428070 1 1 1.000000
0  2.585544 -4.484033 44.429466  -0.170347 -0.638229 -0.750763  0.840440 0.485980 1 1 1.000000
0  2.651137 -4.125164 44.109505  -0.203999 -0.743700 -0.636628  0.914930 0.482790 1 1 1.000000
skirt
0  2.684290 -4.116291 43.454983  -0.266227 -0.760367 0.592423  0.914930 0.482790 1 1 1.000000
0  2.979810 -4.205446 43.550995  -0.534769 -0.708527 0.460447  0.917360 0.433780 1 1 1.000000
0  2.965248 -4.077255 43.797894  -0.488273 -0.871925 -0.036553  0.960750 0.431730 1 1 1.000000
skirt
0  2.684290 -4.116291 43.454983  -0.266227 -0.760367 0.592423  0.914930 0.482790 1 1 1.000000
0  2.965248 -4.077255 43.797894  -0.488273 -0.871925 -0.036553  0.960750 0.431730 1 1 1.000000
0  2.690010 -3.959591 43.785542  -0.208610 -0.977708 -0.023841  0.971050 0.478340 1 1 1.000000
skirt
0  2.965248 -4.077255 43.797894  -0.488273 -0.871925 -0.036553  0.960750 0.431730 1 1 1.000000
0  2.651137 -4.125164 44.109505  -0.203999 -0.743700 -0.636628  0.914930 0.482790 1 1 1.000000
0  2.690010 -3.959591 43.785542  -0.208610 -0.977708 -0.023841  0.971050 0.478340 1 1 1.000000
skirt
0  2.651137 -4.125164 44.109505  -0.203999 -0.743700 -0.636628  0.914930 0.482790 1 1 1.000000
0  2.274716 -4.069908 44.052162  0.013265 -0.816749 -0.576841  0.923130 0.541090 1 1 1.000000
0  2.690010 -3.959591 43.785542  -0.208610 -0.977708 -0.023841  0.971050 0.478340 1 1 1.000000
skirt
0  3.209738 -4.322035 43.898232  -0.519853 -0.652568 -0.551279  0.925730 0.385940 1 1 1.000000
0  2.954977 -4.212110 44.041443  -0.490597 -0.696670 -0.523418  0.917360 0.433780 1 1 1.000000
0  3.167094 -4.251503 43.805729  -0.612589 -0.789301 -0.041714  0.944530 0.392240 1 1 1.000000
skirt
0  3.209738 -4.322035 43.898232  -0.519853 -0.652568 -0.551279  0.925730 0.385940 1 1 1.000000
0  2.946169 -4.506233 44.284698  -0.426438 -0.591096 -0.684658  0.858300 0.428070 1 1 1.000000
0  2.954977 -4.212110 44.041443  -0.490597 -0.696670 -0.523418  0.917360 0.433780 1 1 1.000000
skirt
0  3.300357 -4.487153 44.005947  -0.449253 -0.647867 -0.615175  0.896100 0.368290 1 1 1.000000
0  2.946169 -4.506233 44.284698  -0.426438 -0.591096 -0.684658  0.858300 0.428070 1 1 1.000000
0  3.209738 -4.322035 43.898232  -0.519853 -0.652568 -0.551279  0.925730 0.385940 1 1 1.000000
skirt
0  1.516120 -4.409501 41.737381  0.593363 -0.793454 -0.135464  0.900670 0.776270 1 1 1.000000
0  1.657315 -4.343129 41.950989  0.564942 -0.824463 -0.033184  0.870350 0.757950 1 1 1.000000
0  1.337710 -4.567566 42.086105  0.382344 -0.923677 0.025169  0.856420 0.811500 1 1 1.000000
skirt
0  1.657315 -4.343129 41.950989  0.564942 -0.824463 -0.033184  0.870350 0.757950 1 1 1.000000
0  1.756352 -4.261937 42.188885  0.561111 -0.813612 0.152282  0.837220 0.743380 1 1 1.000000
0  1.337710 -4.567566 42.086105  0.382344 -0.923677 0.025169  0.856420 0.811500 1 1 1.000000
skirt
0  1.337710 -4.567566 42.086105  0.382344 -0.923677 0.025169  0.856420 0.811500 1 1 1.000000
0  1.756352 -4.261937 42.188885  0.561111 -0.813612 0.152282  0.837220 0.743380 1 1 1.000000
0  1.308327 -4.448280 42.634926  0.372666 -0.875403 0.307881  0.781090 0.811510 1 1 1.000000
skirt
0  1.756352 -4.261937 42.188885  0.561111 -0.813612 0.152282  0.837220 0.743380 1 1 1.000000
0  1.750404 -4.184157 42.495876  0.555408 -0.784711 0.275228  0.794850 0.741410 1 1 1.000000
0  1.308327 -4.448280 42.634926  0.372666 -0.875403 0.307881  0.781090 0.811510 1 1 1.000000
skirt
0  1.750404 -4.184157 42.495876  0.555408 -0.784711 0.275228  0.794850 0.741410 1 1 1.000000
0  1.643046 -4.123537 42.813011  0.527208 -0.746146 0.406594  0.750530 0.752040 1 1 1.000000
0  1.308327 -4.448280 42.634926  0.372666 -0.875403 0.307881  0.781090 0.811510 1 1 1.000000
skirt
0  1.643046 -4.123537 42.813011  0.527208 -0.746146 0.406594  0.750530 0.752040 1 1 1.000000
0  1.247708 -4.266716 43.030426  0.347555 -0.798285 0.491880  0.722290 0.808800 1 1 1.000000
0  1.308327 -4.448280 42.634926  0.372666 -0.875403 0.307881  0.781090 0.811510 1 1 1.000000
skirt
0  1.643046 -4.123537 42.813011  0.527208 -0.746146 0.406594  0.750530 0.752040 1 1 1.000000
0  1.458719 -4.087656 43.075474  0.492235 -0.707607 0.506949  0.712480 0.772560 1 1 1.000000
0  1.247708 -4.266716 43.030426  0.347555 -0.798285 0.491880  0.722290 0.808800 1 1 1.000000
skirt
0  1.458719 -4.087656 43.075474  0.492235 -0.707607 0.506949  0.712480 0.772560 1 1 1.000000
0  1.178866 -4.073711 43.330204  0.332793 -0.756255 0.563318  0.673780 0.805340 1 1 1.000000
0  1.247708 -4.266716 43.030426  0.347555 -0.798285 0.491880  0.722290 0.808800 1 1 1.000000
skirt
0  1.178866 -4.073711 43.330204  0.332793 -0.756255 0.563318  0.673780 0.805340 1 1 1.000000
0  0.975200 -4.287356 43.093029  0.182329 -0.835600 0.518198  0.712480 0.772560 1 1 1.000000
0  1.247708 -4.266716 43.030426  0.347555 -0.798285 0.491880  0.722290 0.808800 1 1 1.000000
skirt
0  1.247708 -4.266716 43.030426  0.347555 -0.798285 0.491880  0.722290 0.808800 1 1 1.000000
0  0.975200 -4.287356 43.093029  0.182329 -0.835600 0.518198  0.712480 0.772560 1 1 1.000000
0  0.853995 -4.449449 42.841618  0.178521 -0.890176 0.419186  0.750530 0.752040 1 1 1.000000
skirt
0  1.308327 -4.448280 42.634926  0.372666 -0.875403 0.307881  0.781090 0.811510 1 1 1.000000
0  1.247708 -4.266716 43.030426  0.347555 -0.798285 0.491880  0.722290 0.808800 1 1 1.000000
0  0.853995 -4.449449 42.841618  0.178521 -0.890176 0.419186  0.750530 0.752040 1 1 1.000000
skirt
0  0.801242 -4.576115 42.530235  0.177527 -0.940776 0.288835  0.794850 0.741410 1 1 1.000000
0  1.308327 -4.448280 42.634926  0.372666 -0.875403 0.307881  0.781090 0.811510 1 1 1.000000
0  0.853995 -4.449449 42.841618  0.178521 -0.890176 0.419186  0.750530 0.752040 1 1 1.000000
skirt
0  1.308327 -4.448280 42.634926  0.372666 -0.875403 0.307881  0.781090 0.811510 1 1 1.000000
0  0.801242 -4.576115 42.530235  0.177527 -0.940776 0.288835  0.794850 0.741410 1 1 1.000000
0  0.832803 -4.643298 42.222393  0.186267 -0.968397 0.165867  0.837220 0.743380 1 1 1.000000
skirt
0  1.337710 -4.567566 42.086105  0.382344 -0.923677 0.025169  0.856420 0.811500 1 1 1.000000
0  1.308327 -4.448280 42.634926  0.372666 -0.875403 0.307881  0.781090 0.811510 1 1 1.000000
0  0.832803 -4.643298 42.222393  0.186267 -0.968397 0.165867  0.837220 0.743380 1 1 1.000000
skirt
0  0.945330 -4.637156 41.976898  0.179760 -0.983524 -0.019148  0.870350 0.757950 1 1 1.000000
0  1.337710 -4.567566 42.086105  0.382344 -0.923677 0.025169  0.856420 0.811500 1 1 1.000000
0  0.832803 -4.643298 42.222393  0.186267 -0.968397 0.165867  0.837220 0.743380 1 1 1.000000
skirt
0  1.337710 -4.567566 42.086105  0.382344 -0.923677 0.025169  0.856420 0.811500 1 1 1.000000
0  0.945330 -4.637156 41.976898  0.179760 -0.983524 -0.019148  0.870350 0.757950 1 1 1.000000
0  1.078658 -4.590188 41.753273  0.131558 -0.984179 -0.118678  0.900670 0.776270 1 1 1.000000
skirt
0  1.309887 -4.544227 41.584679  0.371103 -0.913298 -0.167839  0.923650 0.807570 1 1 1.000000
0  1.337710 -4.567566 42.086105  0.382344 -0.923677 0.025169  0.856420 0.811500 1 1 1.000000
0  1.078658 -4.590188 41.753273  0.131558 -0.984179 -0.118678  0.900670 0.776270 1 1 1.000000
skirt
0  1.195930 -4.530283 41.499653  0.026275 -0.980258 -0.195970  0.935360 0.792450 1 1 1.000000
0  1.309887 -4.544227 41.584679  0.371103 -0.913298 -0.167839  0.923650 0.807570 1 1 1.000000
0  1.078658 -4.590188 41.753273  0.131558 -0.984179 -0.118678  0.900670 0.776270 1 1 1.000000
skirt
0  1.268445 -4.476652 41.210987  0.367325 -0.907265 -0.204799  0.974570 0.802640 1 1 1.000000
0  1.309887 -4.544227 41.584679  0.371103 -0.913298 -0.167839  0.923650 0.807570 1 1 1.000000
0  1.195930 -4.530283 41.499653  0.026275 -0.980258 -0.195970  0.935360 0.792450 1 1 1.000000
skirt
0  1.268445 -4.476652 41.210987  0.367325 -0.907265 -0.204799  0.974570 0.802640 1 1 1.000000
0  1.375348 -4.456175 41.493149  0.660266 -0.718421 -0.218904  0.935360 0.792450 1 1 1.000000
0  1.309887 -4.544227 41.584679  0.371103 -0.913298 -0.167839  0.923650 0.807570 1 1 1.000000
skirt
0  1.375348 -4.456175 41.493149  0.660266 -0.718421 -0.218904  0.935360 0.792450 1 1 1.000000
0  1.516120 -4.409501 41.737381  0.593363 -0.793454 -0.135464  0.900670 0.776270 1 1 1.000000
0  1.309887 -4.544227 41.584679  0.371103 -0.913298 -0.167839  0.923650 0.807570 1 1 1.000000
skirt
0  1.309887 -4.544227 41.584679  0.371103 -0.913298 -0.167839  0.923650 0.807570 1 1 1.000000
0  1.516120 -4.409501 41.737381  0.593363 -0.793454 -0.135464  0.900670 0.776270 1 1 1.000000
0  1.337710 -4.567566 42.086105  0.382344 -0.923677 0.025169  0.856420 0.811500 1 1 1.000000
skirt
0  -1.923803 -5.001260 43.591103  -0.103373 -0.937396 0.332571  0.974570 0.802640 1 1 1.000000
0  -1.371377 -5.008347 43.742836  -0.067012 -0.937145 0.342444  0.923650 0.807570 1 1 1.000000
0  -1.542930 -4.903686 43.817234  -0.195711 -0.760721 0.618870  0.935360 0.792450 1 1 1.000000
skirt
0  -1.923803 -5.001260 43.591103  -0.103373 -0.937396 0.332571  0.974570 0.802640 1 1 1.000000
0  -1.471812 -5.005095 43.553505  -0.028297 -0.999597 -0.002148  0.935360 0.792450 1 1 1.000000
0  -1.371377 -5.008347 43.742836  -0.067012 -0.937145 0.342444  0.923650 0.807570 1 1 1.000000
skirt
0  -1.471812 -5.005095 43.553505  -0.028297 -0.999597 -0.002148  0.935360 0.792450 1 1 1.000000
0  -1.058565 -5.025442 43.441330  0.030865 -0.992979 0.114195  0.900670 0.776270 1 1 1.000000
0  -1.371377 -5.008347 43.742836  -0.067012 -0.937145 0.342444  0.923650 0.807570 1 1 1.000000
skirt
0  -1.371377 -5.008347 43.742836  -0.067012 -0.937145 0.342444  0.923650 0.807570 1 1 1.000000
0  -1.058565 -5.025442 43.441330  0.030865 -0.992979 0.114195  0.900670 0.776270 1 1 1.000000
0  -0.640507 -4.917303 43.904961  0.120591 -0.915169 0.384608  0.856420 0.811500 1 1 1.000000
skirt
0  -1.058565 -5.025442 43.441330  0.030865 -0.992979 0.114195  0.900670 0.776270 1 1 1.000000
0  -0.688645 -5.033665 43.298096  0.119879 -0.976742 0.177773  0.870350 0.757950 1 1 1.000000
0  -0.640507 -4.917303 43.904961  0.120591 -0.915169 0.384608  0.856420 0.811500 1 1 1.000000
skirt
0  -0.688645 -5.033665 43.298096  0.119879 -0.976742 0.177773  0.870350 0.757950 1 1 1.000000
0  -0.302050 -4.976784 43.190697  0.296086 -0.930915 0.213844  0.837220 0.743380 1 1 1.000000
0  -0.640507 -4.917303 43.904961  0.120591 -0.915169 0.384608  0.856420 0.811500 1 1 1.000000
skirt
0  -0.640507 -4.917303 43.904961  0.120591 -0.915169 0.384608  0.856420 0.811500 1 1 1.000000
0  -0.302050 -4.976784 43.190697  0.296086 -0.930915 0.213844  0.837220 0.743380 1 1 1.000000
0  0.136777 -4.601501 43.993172  0.388898 -0.819816 0.420309  0.781090 0.811510 1 1 1.000000
skirt
0  -0.302050 -4.976784 43.190697  0.296086 -0.930915 0.213844  0.837220 0.743380 1 1 1.000000
0  0.137525 -4.798699 43.217777  0.412507 -0.882757 0.224896  0.794850 0.741410 1 1 1.000000
0  0.136777 -4.601501 43.993172  0.388898 -0.819816 0.420309  0.781090 0.811510 1 1 1.000000
skirt
0  0.137525 -4.798699 43.217777  0.412507 -0.882757 0.224896  0.794850 0.741410 1 1 1.000000
0  0.546871 -4.534739 43.370281  0.530609 -0.810961 0.246571  0.750530 0.752040 1 1 1.000000
0  0.136777 -4.601501 43.993172  0.388898 -0.819816 0.420309  0.781090 0.811510 1 1 1.000000
skirt
0  0.546871 -4.534739 43.370281  0.530609 -0.810961 0.246571  0.750530 0.752040 1 1 1.000000
0  0.681923 -4.231159 43.997761  0.558807 -0.712264 0.424752  0.722290 0.808800 1 1 1.000000
0  0.136777 -4.601501 43.993172  0.388898 -0.819816 0.420309  0.781090 0.811510 1 1 1.000000
skirt
0  0.546871 -4.534739 43.370281  0.530609 -0.810961 0.246571  0.750530 0.752040 1 1 1.000000
0  0.843432 -4.236067 43.609470  0.616970 -0.740674 0.265989  0.712480 0.772560 1 1 1.000000
0  0.681923 -4.231159 43.997761  0.558807 -0.712264 0.424752  0.722290 0.808800 1 1 1.000000
skirt
0  0.843432 -4.236067 43.609470  0.616970 -0.740674 0.265989  0.712480 0.772560 1 1 1.000000
0  1.086524 -3.867771 43.967110  0.623411 -0.658559 0.421496  0.673780 0.805340 1 1 1.000000
0  0.681923 -4.231159 43.997761  0.558807 -0.712264 0.424752  0.722290 0.808800 1 1 1.000000
skirt
0  1.086524 -3.867771 43.967110  0.623411 -0.658559 0.421496  0.673780 0.805340 1 1 1.000000
0  0.651760 -3.962714 44.320061  0.535005 -0.623873 0.569694  0.712480 0.772560 1 1 1.000000
0  0.681923 -4.231159 43.997761  0.558807 -0.712264 0.424752  0.722290 0.808800 1 1 1.000000
skirt
0  0.681923 -4.231159 43.997761  0.558807 -0.712264 0.424752  0.722290 0.808800 1 1 1.000000
0  0.651760 -3.962714 44.320061  0.535005 -0.623873 0.569694  0.712480 0.772560 1 1 1.000000
0  0.234027 -4.088632 44.529903  0.438403 -0.679532 0.588250  0.750530 0.752040 1 1 1.000000
skirt
0  0.136777 -4.601501 43.993172  0.388898 -0.819816 0.420309  0.781090 0.811510 1 1 1.000000
0  0.681923 -4.231159 43.997761  0.558807 -0.712264 0.424752  0.722290 0.808800 1 1 1.000000
0  0.234027 -4.088632 44.529903  0.438403 -0.679532 0.588250  0.750530 0.752040 1 1 1.000000
skirt
0  -0.238799 -4.262071 44.612659  0.312652 -0.740286 0.595169  0.794850 0.741410 1 1 1.000000
0  0.136777 -4.601501 43.993172  0.388898 -0.819816 0.420309  0.781090 0.811510 1 1 1.000000
0  0.234027 -4.088632 44.529903  0.438403 -0.679532 0.588250  0.750530 0.752040 1 1 1.000000
skirt
0  0.136777 -4.601501 43.993172  0.388898 -0.819816 0.420309  0.781090 0.811510 1 1 1.000000
0  -0.238799 -4.262071 44.612659  0.312652 -0.740286 0.595169  0.794850 0.741410 1 1 1.000000
0  -0.668200 -4.454653 44.547974  0.197094 -0.789616 0.581086  0.837220 0.743380 1 1 1.000000
skirt
0  -0.640507 -4.917303 43.904961  0.120591 -0.915169 0.384608  0.856420 0.811500 1 1 1.000000
0  0.136777 -4.601501 43.993172  0.388898 -0.819816 0.420309  0.781090 0.811510 1 1 1.000000
0  -0.668200 -4.454653 44.547974  0.197094 -0.789616 0.581086  0.837220 0.743380 1 1 1.000000
skirt
0  -0.970936 -4.631112 44.344406  0.017998 -0.831589 0.555100  0.870350 0.757950 1 1 1.000000
0  -0.640507 -4.917303 43.904961  0.120591 -0.915169 0.384608  0.856420 0.811500 1 1 1.000000
0  -0.668200 -4.454653 44.547974  0.197094 -0.789616 0.581086  0.837220 0.743380 1 1 1.000000
skirt
0  -0.640507 -4.917303 43.904961  0.120591 -0.915169 0.384608  0.856420 0.811500 1 1 1.000000
0  -0.970936 -4.631112 44.344406  0.017998 -0.831589 0.555100  0.870350 0.757950 1 1 1.000000
0  -1.232035 -4.778060 44.084278  -0.091169 -0.818907 0.566639  0.900670 0.776270 1 1 1.000000
skirt
0  -1.371377 -5.008347 43.742836  -0.067012 -0.937145 0.342444  0.923650 0.807570 1 1 1.000000
0  -0.640507 -4.917303 43.904961  0.120591 -0.915169 0.384608  0.856420 0.811500 1 1 1.000000
0  -1.232035 -4.778060 44.084278  -0.091169 -0.818907 0.566639  0.900670 0.776270 1 1 1.000000
skirt
0  -1.542930 -4.903686 43.817234  -0.195711 -0.760721 0.618870  0.935360 0.792450 1 1 1.000000
0  -1.371377 -5.008347 43.742836  -0.067012 -0.937145 0.342444  0.923650 0.807570 1 1 1.000000
0  -1.232035 -4.778060 44.084278  -0.091169 -0.818907 0.566639  0.900670 0.776270 1 1 1.000000
end
