version 1
nodes
0 "ValveBiped.Bip01_Pelvis" -1
1 "ValveBiped.Bip01_Spine" 0
2 "ValveBiped.Bip01_Spine1" 1
3 "ValveBiped.Bip01_Spine2" 2
4 "ValveBiped.Bip01_Spine4" 3
5 "BreastUpper2_L" 4
6 "BreastUpper2_R" 4
7 "BeAA1" 4
8 "BeAA2_L" 4
9 "BeAA3_L" 4
10 "BeAA2_R" 4
11 "BeAA3_R" 4
12 "ValveBiped.Bip01_R_Clavicle" 4
13 "ValveBiped.Bip01_R_UpperArm" 12
14 "ValveBiped.Bip01_R_Forearm" 13
15 "ValveBiped.Bip01_R_Hand" 14
16 "ValveBiped.Bip01_R_Finger0" 15
17 "ValveBiped.Bip01_R_Finger01" 16
18 "ValveBiped.Bip01_R_Finger1" 15
19 "ValveBiped.Bip01_R_Finger11" 18
20 "ValveBiped.Bip01_R_Finger12" 19
21 "ValveBiped.Bip01_R_Finger2" 15
22 "ValveBiped.Bip01_R_Finger21" 21
23 "ValveBiped.Bip01_R_Finger22" 22
24 "ValveBiped.Bip01_R_Finger3" 15
25 "ValveBiped.Bip01_R_Finger31" 24
26 "ValveBiped.Bip01_R_Finger32" 25
27 "ValveBiped.Bip01_R_Finger4" 15
28 "ValveBiped.Bip01_R_Finger41" 27
29 "ValveBiped.Bip01_R_Finger42" 28
30 "ValveBiped.Bip01_L_Clavicle" 4
31 "ValveBiped.Bip01_L_UpperArm" 30
32 "ValveBiped.Bip01_L_Forearm" 31
33 "ValveBiped.Bip01_L_Hand" 32
34 "ValveBiped.Bip01_L_Finger0" 33
35 "ValveBiped.Bip01_L_Finger01" 34
36 "ValveBiped.Bip01_L_Finger1" 33
37 "ValveBiped.Bip01_L_Finger11" 36
38 "ValveBiped.Bip01_L_Finger12" 37
39 "ValveBiped.Bip01_L_Finger2" 33
40 "ValveBiped.Bip01_L_Finger21" 39
41 "ValveBiped.Bip01_L_Finger22" 40
42 "ValveBiped.Bip01_L_Finger3" 33
43 "ValveBiped.Bip01_L_Finger31" 42
44 "ValveBiped.Bip01_L_Finger32" 43
45 "ValveBiped.Bip01_L_Finger4" 33
46 "ValveBiped.Bip01_L_Finger41" 45
47 "ValveBiped.Bip01_L_Finger42" 46
48 "ValveBiped.Bip01_Neck1" 4
49 "ValveBiped.Bip01_Head1" 48
50 "Eye_R" 49
51 "Eye_L" 49
52 "Tongue" 49
53 "TeethLower" 49
54 "TeethUpper" 49
55 "OutsideHair5A_R" 49
56 "OutsideHair6_R" 49
57 "OutsideHair4A_R" 49
58 "OutsideHair4B_R" 57
59 "OutsideHair3A_R" 49
60 "OutsideHair3B_R" 59
61 "OutsideHair2A_R" 49
62 "OutsideHair2B_R" 61
63 "LowerLe1_R" 49
64 "LowerLe2_R" 63
65 "LowerLe3_R" 64
66 "LowerLe4_R" 65
67 "FrontHair1_R" 49
68 "OutsideHair5A_L" 49
69 "OutsideHair6_L" 49
70 "OutsideHair4A_L" 49
71 "OutsideHair4B_L" 70
72 "OutsideHair3A_L" 49
73 "OutsideHair3B_L" 72
74 "OutsideHair2A_L" 49
75 "OutsideHair2B_L" 74
76 "OutsideHair1A" 49
77 "OutsideHair1B" 76
78 "OutsideHair1C" 77
79 "LowerLe1_L" 49
80 "LowerLe2_L" 79
81 "LowerLe3_L" 80
82 "LowerLe4_L" 81
83 "FrontHair1_L" 49
84 "FrontHair2" 49
85 "HairConnectionEye" 49
86 "UpKicking1_R" 49
87 "UpKicking2_R" 86
88 "UpKicking1_L" 49
89 "UpKicking2_L" 88
90 "ValveBiped.Exp_Jaw" 49
91 "ValveBiped.Exp_Eyebrows" 49
92 "ValveBiped.Exp_Eyelids_Upper" 49
93 "ValveBiped.Exp_LipsUpper" 49
94 "WingClothes" 2
95 "WaistWingClothes1_R" 94
96 "WaistWingClothes2_R" 95
97 "WaistWingClothes3_R" 96
98 "WaistWingClothes4_R" 97
99 "WaistWingClothes5_R" 98
100 "WaistWingClothes6_R" 99
101 "WaistWingClothes7_R" 100
102 "WaistWingClothes8_R" 101
103 "WaistWingClothes9_R" 102
104 "WaistWingClothes10_R" 103
105 "WaistWingClothes11_R" 104
106 "WaistWingClothes1_L" 94
107 "WaistWingClothes2_L" 106
108 "WaistWingClothes3_L" 107
109 "WaistWingClothes4_L" 108
110 "WaistWingClothes5_L" 109
111 "WaistWingClothes6_L" 110
112 "WaistWingClothes7_L" 111
113 "WaistWingClothes8_L" 112
114 "WaistWingClothes9_L" 113
115 "WaistWingClothes10_L" 114
116 "WaistWingClothes11_L" 115
117 "ValveBiped.Bip01_R_Thigh" 0
118 "ValveBiped.Bip01_R_Calf" 117
119 "ValveBiped.Bip01_R_Foot" 118
120 "ValveBiped.Bip01_L_Thigh" 0
121 "ValveBiped.Bip01_L_Calf" 120
122 "ValveBiped.Bip01_L_Foot" 121
123 "root" -1
end
skeleton
time 0
0  0.000000 -0.492360 35.174164  1.570796 -0.000000 0.000000
1  0.000002 3.696480 -1.136777  1.570796 -0.018321 1.570797
2  3.255433 0.302915 0.000001  0.000000 -0.000001 -0.019842
3  3.082460 0.000032 -0.000001  -0.000000 0.000000 -0.012632
4  6.423963 0.000044 -0.000001  0.000000 0.000000 0.155826
5  -0.648938 4.497379 2.867936  1.570680 0.010764 2.989155
6  -0.648972 4.497385 -2.867943  -1.570912 0.010763 -0.152437
7  -4.043309 -1.713789 -0.000001  -3.033304 1.570780 0.000000
8  -4.209070 0.167549 4.656293  1.601128 0.163315 -1.702389
9  -5.028272 4.781991 4.635704  1.551549 -0.007466 -1.688489
10  -4.209072 0.167547 -4.656290  -1.540466 0.163311 1.439208
11  -5.028274 4.781989 -4.635707  -1.590046 -0.007462 1.453098
12  1.768344 0.346596 -0.819415  1.732893 1.834957 -0.155547
13  3.420102 0.756549 1.219524  1.407222 -0.052098 -0.348798
14  8.884676 0.000062 -0.000018  0.001470 -0.110434 -0.001734
15  8.509773 -0.000023 0.000000  -1.570788 0.040283 0.013371
16  2.616552 -0.421583 -1.302947  1.538256 0.296795 -0.418080
17  1.419879 0.000003 0.000006  0.036330 -0.005045 -0.043809
18  4.438503 -0.068155 -0.750400  -0.000001 0.000004 -0.015351
19  0.663844 0.062095 -0.084955  0.000000 0.000000 0.093266
20  0.969561 -0.021043 0.000001  0.000000 -0.000004 -0.021690
21  4.455381 0.039218 -0.135004  -0.000000 0.000011 0.008793
22  1.052467 0.057583 0.004978  -0.000000 -0.000004 0.054660
23  0.969762 -0.007012 0.000002  0.000000 -0.000003 -0.007227
24  4.217674 -0.008237 0.542850  0.000000 -0.000002 -0.001948
25  0.983794 -0.013130 0.019433  -0.000000 0.000012 -0.013340
26  0.919045 0.070988 0.000007  -0.000001 -0.000010 0.077099
27  4.006809 -0.152511 1.137248  0.000000 0.000012 -0.038052
28  1.082681 0.054272 0.036112  -0.000001 -0.000007 0.050082
29  0.829247 0.056049 0.000000  -0.000000 0.000005 0.067480
30  1.768348 0.346577 0.819441  -1.794297 -1.834325 -0.166279
31  3.416714 0.842096 -1.171934  -1.340561 0.079190 -0.344508
32  8.884682 0.000046 -0.000002  -0.001470 0.110435 -0.001734
33  8.509785 -0.000035 0.000015  1.570791 -0.040089 0.013362
34  2.616627 -0.421050 1.302930  -1.538260 -0.296788 -0.417885
35  1.419886 0.000002 -0.000004  -0.029100 0.002457 -0.043671
36  4.438526 -0.067291 0.750369  -0.000000 0.000003 -0.015159
37  0.663846 0.062102 0.084955  0.000000 -0.000002 0.093268
38  0.969562 -0.021042 -0.000002  -0.000000 0.000006 -0.021690
39  4.455379 0.040101 0.134973  0.000000 -0.000006 0.008993
40  1.052472 0.057582 -0.004980  0.000000 0.000012 0.054662
41  0.969764 -0.007006 0.000003  0.000000 -0.000004 -0.007235
42  4.217677 -0.007404 -0.542880  0.000000 0.000007 -0.001753
43  0.983791 -0.013114 -0.019434  0.000000 0.000006 -0.013321
44  0.919047 0.070977 0.000009  -0.000001 -0.000007 0.077080
45  4.006829 -0.151729 -1.137275  -0.000000 -0.000007 -0.037859
46  1.082672 0.054278 -0.036114  0.000001 0.000007 0.050085
47  0.829248 0.056049 -0.000002  0.000000 -0.000006 0.067480
48  2.707933 0.000022 0.000000  -3.141592 -0.000000 0.224137
49  3.023522 0.595010 -0.000000  0.000000 -0.000001 0.209718
50  2.685645 -0.523849 0.930483  1.570801 -1.057050 1.726883
51  2.685683 -0.523845 -0.930491  -1.570791 -1.057047 -1.414715
52  0.200574 -1.131065 -0.000000  -2.985501 -1.570782 0.000000
53  0.339633 -1.646537 -0.000000  -2.985537 -1.570777 0.000000
54  0.631942 -1.600536 -0.000000  -2.985483 -1.570787 0.000000
55  3.417419 3.368770 2.323851  0.007840 0.175677 -2.973821
56  2.940804 4.449738 1.086403  -0.012250 3.057370 0.108163
57  4.476901 1.030504 3.864546  0.005147 1.800341 0.180876
58  0.081324 0.487102 -2.822743  0.013713 -0.886475 0.043787
59  4.438910 1.994686 3.926557  -0.123694 1.876349 0.031037
60  -0.357890 1.239729 -2.634295  0.034172 -0.159275 -0.011888
61  3.606351 3.578248 3.261865  -0.151122 1.749083 -0.009510
62  -0.071816 1.105662 -2.386040  -0.009875 -0.273592 0.051566
63  6.191967 -0.038304 3.550534  -0.410996 1.693027 -0.261075
64  0.140750 0.362255 -2.375799  -0.039685 -0.515593 0.036532
65  -0.448888 -0.690927 -1.389338  0.017460 0.019476 -0.081085
66  -0.305319 -0.406443 -1.731847  -0.003015 -0.160534 0.034277
67  7.526565 -1.705376 1.828079  0.104865 1.848670 0.250073
68  3.417409 3.368769 -2.323859  -3.133730 0.175546 0.167777
69  2.940814 4.449739 -1.086412  -0.012249 0.084224 0.108162
70  4.476889 1.030502 -3.864551  0.005147 1.341254 0.180874
71  -0.081322 0.487095 -2.822740  0.013710 0.886475 -0.043790
72  4.438898 1.994686 -3.926563  -0.123687 1.265247 0.031043
73  0.357901 1.239728 -2.634284  0.034172 0.159275 0.011888
74  3.606341 3.578247 -3.261869  -0.151124 1.392511 -0.009512
75  0.071817 1.105662 -2.386020  -0.009876 0.273593 -0.051566
76  3.987207 4.611607 -0.000004  -0.148936 1.570796 0.000000
77  0.000000 1.047995 -2.093595  -0.013842 -0.000000 0.000000
78  0.000000 1.102412 -2.362726  0.003407 0.000000 0.000000
79  6.191960 -0.038304 -3.550548  -0.410978 1.448570 -0.261058
80  -0.140752 0.362254 -2.375793  -0.039685 0.515593 -0.036534
81  0.448890 -0.690928 -1.389343  0.017460 -0.019476 0.081084
82  0.305316 -0.406445 -1.731852  -0.033946 0.044420 0.014028
83  7.526573 -1.705375 -1.828098  0.104862 1.292926 0.250070
84  7.312016 -2.808176 0.083641  -0.810536 1.592289 -0.644689
85  7.331994 5.389540 -0.000008  -1.432446 -1.570796 0.000000
86  6.849809 5.620786 0.546271  0.087531 0.421162 0.189480
87  0.052234 1.011409 3.116841  -0.106377 0.149351 -0.013969
88  6.849814 5.620789 -0.546286  0.088235 2.703048 0.191168
89  0.002158 1.011415 3.117276  -0.106120 -0.131897 0.013970
90  1.548067 0.004403 -0.000001  1.724267 1.570795 0.000000
91  3.806166 0.213570 -0.000001  3.010492 1.570795 0.000000
92  3.561819 -3.655106 -0.015468  -2.971100 1.570794 0.000000
93  1.108361 -0.293490 -0.000000  -3.002903 1.570793 0.000000
94  -5.434678 -4.764379 0.000001  0.000188 -1.570697 3.103493
95  -0.325001 2.656086 0.000001  0.129096 -0.187326 1.675433
96  0.000005 5.967077 -0.000017  0.583022 -0.588426 -0.080211
97  0.000033 4.506813 -0.000013  1.338913 -0.751025 -1.333236
98  -0.000001 5.988792 -0.000075  -0.049111 -0.480582 -0.235477
99  -0.000018 9.535481 -0.000045  -1.232461 1.251999 0.109668
100  -0.000052 7.945226 -0.000006  -0.329371 -0.167213 -0.526032
101  -0.000003 6.310169 0.000062  0.052790 -0.274503 -1.133265
102  -0.000029 4.818147 -0.000026  0.057858 -0.027281 -0.287023
103  -0.000002 4.725518 -0.000032  1.100630 -0.273070 2.147549
104  -0.000002 4.475427 -0.000018  -0.636824 1.098445 0.142576
105  0.000000 7.508234 0.000043  -0.583385 0.636241 -0.345978
106  0.325001 2.656080 -0.000011  0.129090 0.187322 -1.675443
107  -0.000010 5.967078 0.000011  0.583027 0.588430 0.080226
108  0.000004 4.506826 0.000006  1.338888 0.751022 1.333219
109  -0.000006 5.988798 0.000028  -0.049086 0.480586 0.235489
110  0.000033 9.535479 -0.000118  -1.232498 -1.252007 -0.109638
111  0.000033 7.945225 0.000080  -0.329345 0.167217 0.526038
112  0.000005 6.310159 -0.000025  0.052762 0.274522 1.133252
113  -0.000007 4.818170 0.000042  0.057863 0.027274 0.287025
114  -0.000029 4.725525 -0.000027  1.100615 0.273073 -2.147566
115  -0.000009 4.475427 0.000016  -0.636816 -1.098431 -0.142577
116  -0.000006 7.508251 0.000028  -0.583356 -0.636223 0.345953
117  -3.084310 0.000004 0.000002  -1.570796 -0.014188 -1.521236
118  15.611663 0.000016 -0.000000  0.002555 0.049497 0.065776
119  15.879439 0.000022 -0.000002  0.000002 -0.000002 -1.086511
120  3.084311 0.000004 0.000002  -1.570796 -0.014188 -1.620357
121  15.611664 0.000014 -0.000001  -0.002577 -0.049902 0.065778
122  15.879447 0.000003 0.000003  -0.000348 0.000209 -1.083445
123  0.000000 0.000000 0.000000  0.000000 -0.000000 0.000000
end
triangles
tick
0  4.473378 -0.122506 10.960207  0.948860 0.000000 0.315698  0.500000 0.000030 1 121 1.000000
0  3.960813 -1.078933 12.535917  0.970101 -0.108170 0.217265  0.000050 0.257790 1 121 1.000000
0  4.510152 -1.238836 10.839052  0.948857 0.000003 0.315705  0.000050 0.000030 1 121 1.000000
tick
0  4.617606 -0.122510 17.154638  0.949449 -0.000003 -0.313921  0.500000 1.000010 1 121 1.000000
0  4.222498 0.833853 15.608597  0.962360 -0.014424 -0.271394  0.999950 0.753820 1 121 1.000000
0  4.760174 0.993756 17.317858  0.953029 -0.078965 -0.292404  0.999950 1.000010 1 121 1.000000
tick
0  4.617606 -0.122510 17.154638  0.949449 -0.000003 -0.313921  0.500000 1.000010 1 121 1.000000
0  4.061352 -0.122509 15.587532  0.982888 -0.000005 -0.184205  0.500000 0.753820 1 121 1.000000
0  4.222498 0.833853 15.608597  0.962360 -0.014424 -0.271394  0.999950 0.753820 1 121 1.000000
tick
0  4.061352 -0.122509 15.587532  0.982888 -0.000005 -0.184205  0.500000 0.753820 1 121 1.000000
0  4.617606 -0.122510 17.154638  0.949449 -0.000003 -0.313921  0.500000 1.000010 1 121 1.000000
0  4.222498 -1.078935 15.608596  0.962360 -0.014429 -0.271394  0.000050 0.753820 1 121 1.000000
tick
0  4.017057 -0.122508 14.062840  0.998091 -0.022899 -0.057354  0.500000 0.511080 1 121 1.000000
0  4.061352 -0.122509 15.587532  0.982888 -0.000005 -0.184205  0.500000 0.753820 1 121 1.000000
0  4.222498 -1.078935 15.608596  0.962360 -0.014429 -0.271394  0.000050 0.753820 1 121 1.000000
tick
0  4.017057 -0.122508 14.062840  0.998091 -0.022899 -0.057354  0.500000 0.511080 1 121 1.000000
0  4.222498 -1.078935 15.608596  0.962360 -0.014429 -0.271394  0.000050 0.753820 1 121 1.000000
0  3.520140 -1.032378 14.083873  0.874938 -0.479416 -0.068143  0.000050 0.511080 1 121 1.000000
tick
0  3.960813 -1.078933 12.535917  0.970101 -0.108170 0.217265  0.000050 0.257790 1 121 1.000000
0  4.017057 -0.122508 14.062840  0.998091 -0.022899 -0.057354  0.500000 0.511080 1 121 1.000000
0  3.520140 -1.032378 14.083873  0.874938 -0.479416 -0.068143  0.000050 0.511080 1 121 1.000000
tick
0  3.942587 -0.122507 12.514884  0.990146 -0.000001 0.140038  0.500000 0.257790 1 121 1.000000
0  4.017057 -0.122508 14.062840  0.998091 -0.022899 -0.057354  0.500000 0.511080 1 121 1.000000
0  3.960813 -1.078933 12.535917  0.970101 -0.108170 0.217265  0.000050 0.257790 1 121 1.000000
tick
0  4.473378 -0.122506 10.960207  0.948860 0.000000 0.315698  0.500000 0.000030 1 121 1.000000
0  3.942587 -0.122507 12.514884  0.990146 -0.000001 0.140038  0.500000 0.257790 1 121 1.000000
0  3.960813 -1.078933 12.535917  0.970101 -0.108170 0.217265  0.000050 0.257790 1 121 1.000000
tick
0  3.942587 -0.122507 12.514884  0.990146 -0.000001 0.140038  0.500000 0.257790 1 121 1.000000
0  4.473378 -0.122506 10.960207  0.948860 0.000000 0.315698  0.500000 0.000030 1 121 1.000000
0  3.960813 0.833855 12.535919  0.975953 0.084821 0.200803  0.999950 0.257790 1 121 1.000000
tick
0  3.960813 0.833855 12.535919  0.975953 0.084821 0.200803  0.999950 0.257790 1 121 1.000000
0  4.473378 -0.122506 10.960207  0.948860 0.000000 0.315698  0.500000 0.000030 1 121 1.000000
0  4.510151 0.993760 10.839052  0.948857 -0.000001 0.315705  0.999950 0.000030 1 121 1.000000
tick
0  4.061352 -0.122509 15.587532  0.982888 -0.000005 -0.184205  0.500000 0.753820 1 121 1.000000
0  4.017057 -0.122508 14.062840  0.998091 -0.022899 -0.057354  0.500000 0.511080 1 121 1.000000
0  4.222498 0.833853 15.608597  0.962360 -0.014424 -0.271394  0.999950 0.753820 1 121 1.000000
tick
0  4.222498 0.833853 15.608597  0.962360 -0.014424 -0.271394  0.999950 0.753820 1 121 1.000000
0  4.017057 -0.122508 14.062840  0.998091 -0.022899 -0.057354  0.500000 0.511080 1 121 1.000000
0  3.639637 0.787330 14.083874  0.920536 0.383571 -0.074070  0.999950 0.511080 1 121 1.000000
tick
0  4.017057 -0.122508 14.062840  0.998091 -0.022899 -0.057354  0.500000 0.511080 1 121 1.000000
0  3.960813 0.833855 12.535919  0.975953 0.084821 0.200803  0.999950 0.257790 1 121 1.000000
0  3.639637 0.787330 14.083874  0.920536 0.383571 -0.074070  0.999950 0.511080 1 121 1.000000
tick
0  4.017057 -0.122508 14.062840  0.998091 -0.022899 -0.057354  0.500000 0.511080 1 121 1.000000
0  3.942587 -0.122507 12.514884  0.990146 -0.000001 0.140038  0.500000 0.257790 1 121 1.000000
0  3.960813 0.833855 12.535919  0.975953 0.084821 0.200803  0.999950 0.257790 1 121 1.000000
tick
0  4.222498 -1.078935 15.608596  0.962360 -0.014429 -0.271394  0.000050 0.753820 1 121 1.000000
0  4.617606 -0.122510 17.154638  0.949449 -0.000003 -0.313921  0.500000 1.000010 1 121 1.000000
0  4.760175 -1.238840 17.317856  0.953029 0.078961 -0.292404  0.000050 1.000010 1 121 1.000000
end
