version 1
nodes
0 "ValveBiped.bip_base" -1
1 "ValveBiped.bip_spine_3" 0
2 "ValveBiped.bip_collar_R" 1
3 "ValveBiped.bip_upperArm_R" 2
4 "ValveBiped.bip_lowerArm_R" 3
5 "ValveBiped.bip_hand_R" 4
6 "ValveBiped.bip_thumb_0_R" 5
7 "ValveBiped.bip_thumb_1_R" 6
8 "ValveBiped.bip_index_0_R" 5
9 "ValveBiped.bip_index_1_R" 8
10 "ValveBiped.bip_middle_0_R" 5
11 "ValveBiped.bip_middle_1_R" 10
12 "ValveBiped.bip_ring_0_R" 5
13 "ValveBiped.bip_ring_1_R" 12
14 "ValveBiped.bip_pinky_0_R" 5
15 "ValveBiped.bip_pinky_1_R" 14
16 "ValveBiped.bip_ulna_r" 4
17 "ValveBiped.bip_bicep_R" 3
18 "ValveBiped.bip_collar_L" 1
19 "bip_upperArm_L" 18
20 "bip_lowerArm_L" 19
21 "bip_hand_L" 20
22 "bip_bicep_L" 19
end
skeleton
time 0
0  -1.000000 0.000000 -70.000000  1.570795 0.000003 -0.000003
1  -0.000000 69.352837 -0.571241  -2.270129 0.000000 0.000000
2  -1.549380 -5.102890 -4.074760  -0.656185 -2.351411 1.692834
3  -2.972436 17.167122 31.915106  0.735678 0.302336 3.024294
4  0.000285 20.109333 0.000073  -0.615524 0.055531 0.015258
5  -0.000169 19.941740 0.000024  -0.783833 0.907877 -0.271304
6  2.899845 -0.471064 -4.331210  -0.171430 -0.559877 -0.709301
7  -0.000038 2.543314 0.000029  0.221027 -0.000000 -0.000000
8  1.551381 3.956612 -3.900820  -0.769016 -1.774019 0.020869
9  0.000003 2.741430 -0.000020  -0.188425 0.000000 0.000000
10  1.401090 3.639807 -1.202134  -1.430379 -1.785755 0.694509
11  -0.000004 2.810951 0.000031  -0.256295 -0.000000 -0.000000
12  1.335648 3.182116 1.418065  0.660245 -1.251595 -1.415244
13  0.000002 2.663273 0.000038  -0.256296 -0.000001 0.000004
14  1.344774 1.881164 3.809578  0.800396 -1.203082 -1.477335
15  0.000002 2.315668 -0.000056  -0.256295 0.000000 0.000000
16  -0.000085 9.722963 0.000004  -0.175947 0.533300 -0.086356
17  0.000115 8.540302 0.000033  -0.107005 0.054189 0.002660
18  12.344646 -14.394218 -7.586400  -0.196989 -2.910743 1.372216
19  0.886134 -10.472036 -0.851661  1.133868 -0.433418 -1.888044
20  9.380621 0.000344 11.731744  -0.162534 0.167718 0.095543
21  3.478570 0.000086 7.248108  0.147395 0.393017 0.346174
22  3.549941 0.000129 4.439691  -2.068391 0.412720 -0.590754
time 1
0  -1.000000 0.000000 -70.000000  1.570795 0.000003 -0.000003
1  -0.000000 69.352837 -0.571241  -2.270129 0.000000 0.000000
2  -1.549380 -5.102890 -4.074760  -0.656185 -2.351411 1.692834
3  -3.140411 17.307753 31.040085  1.251156 -0.024933 2.980044
4  0.000281 20.109331 0.000081  -1.025670 0.056610 0.025421
5  -0.000165 19.941740 0.000025  -1.129047 1.045610 -0.779360
6  2.899848 -0.471063 -4.331212  -0.112673 -0.559877 -0.709301
7  -0.000039 2.543314 0.000026  0.221027 0.000000 -0.000000
8  1.551383 3.956610 -3.900822  -0.826038 -1.774019 0.020869
9  -0.000002 2.741433 -0.000015  -0.188425 0.000000 -0.000000
10  1.401089 3.639806 -1.202137  -1.487477 -1.785755 0.694509
11  -0.000002 2.810957 0.000024  -0.256295 -0.000000 -0.000000
12  1.335652 3.182112 1.418062  0.603160 -1.251595 -1.415244
13  0.000003 2.663272 0.000034  -0.256296 -0.000001 0.000004
14  1.344774 1.881162 3.809577  0.743298 -1.203082 -1.477335
15  0.000006 2.315663 -0.000058  -0.256295 0.000000 -0.000000
16  -0.000082 9.722960 0.000009  -0.207107 0.748029 -0.138177
17  0.000112 8.540302 0.000032  -0.107005 0.054189 0.002660
18  12.344646 -14.394218 -7.586400  -0.196989 -2.910743 1.372216
19  0.886134 -10.472036 -0.851661  1.133868 -0.433418 -1.888044
20  9.380621 0.000344 11.731744  -0.162534 0.167718 0.095543
21  3.478570 0.000086 7.248108  0.147395 0.393017 0.346174
22  3.549941 0.000129 4.439691  -2.068391 0.412720 -0.590754
time 2
0  -1.000000 0.000000 -70.000000  1.570795 0.000003 -0.000003
1  -0.000000 69.352837 -0.571241  -2.270129 0.000000 0.000000
2  -1.549380 -5.102890 -4.074760  -0.656185 -2.351411 1.692834
3  -3.308386 17.448380 30.172869  1.530515 -0.218513 2.860784
4  0.000282 20.109331 0.000078  -0.816426 0.056059 0.020232
5  -0.000166 19.941742 0.000018  -1.518484 0.780501 -1.129400
6  2.899845 -0.471062 -4.331216  -0.003383 -0.559877 -0.709301
7  -0.000040 2.543318 0.000031  0.221027 0.000000 -0.000000
8  1.551378 3.956614 -3.900826  -0.932122 -1.774019 0.020869
9  0.000001 2.741428 -0.000016  -0.188425 0.000000 -0.000000
10  1.401084 3.639807 -1.202139  -1.593663 -1.785755 0.694508
11  -0.000002 2.810959 0.000028  -0.256295 -0.000000 0.000000
12  1.335646 3.182117 1.418059  0.496953 -1.251595 -1.415244
13  0.000008 2.663272 0.000033  -0.256296 -0.000001 0.000004
14  1.344772 1.881165 3.809571  0.637113 -1.203082 -1.477335
15  0.000008 2.315666 -0.000053  -0.256295 0.000000 0.000000
16  -0.000083 9.722960 0.000002  -0.237464 0.875330 -0.179944
17  0.000114 8.540301 0.000032  -0.107005 0.054189 0.002660
18  12.344646 -14.394218 -7.586400  -0.196989 -2.910743 1.372216
19  0.886134 -10.472036 -0.851661  1.133868 -0.433418 -1.888044
20  9.380621 0.000344 11.731744  -0.162534 0.167718 0.095543
21  3.478570 0.000086 7.248108  0.147395 0.393017 0.346174
22  3.549941 0.000129 4.439691  -2.068391 0.412720 -0.590754
time 3
0  -1.000000 0.000000 -70.000000  1.570795 0.000003 -0.000003
1  -0.000000 69.352837 -0.571241  -2.270129 0.000000 0.000000
2  -1.549380 -5.102890 -4.074760  -0.656185 -2.351411 1.692834
3  -2.507577 17.604637 32.473717  -1.851323 -2.762661 0.030776
4  0.000281 20.109331 0.000076  -0.994747 0.056526 0.024654
5  -0.000164 19.941738 0.000020  -1.495378 1.293138 -1.322876
6  2.899850 -0.471066 -4.331210  0.055190 -0.559877 -0.709301
7  -0.000044 2.543311 0.000035  0.221027 0.000000 -0.000000
8  1.551378 3.956614 -3.900819  -0.988962 -1.774019 0.020868
9  0.000001 2.741425 -0.000012  -0.188425 0.000000 -0.000000
10  1.401086 3.639804 -1.202134  -1.650581 -1.785755 0.694508
11  -0.000002 2.810950 0.000027  -0.256295 -0.000000 -0.000000
12  1.335650 3.182112 1.418063  0.440033 -1.251595 -1.415244
13  0.000003 2.663274 0.000037  -0.256296 -0.000001 0.000004
14  1.344775 1.881163 3.809577  0.580197 -1.203082 -1.477335
15  0.000003 2.315668 -0.000053  -0.256295 0.000000 -0.000000
16  -0.000083 9.722960 0.000001  -0.256627 0.934953 -0.204284
17  0.000113 8.540298 0.000027  -0.107005 0.054189 0.002660
18  12.344646 -14.394218 -7.586400  -0.196989 -2.910743 1.372216
19  0.886134 -10.472036 -0.851661  1.133868 -0.433418 -1.888044
20  9.380621 0.000344 11.731744  -0.162534 0.167718 0.095543
21  3.478570 0.000086 7.248108  0.147395 0.393017 0.346174
22  3.549941 0.000129 4.439691  -2.068391 0.412720 -0.590754
time 4
0  -1.000000 0.000000 -70.000000  1.570795 0.000003 -0.000003
1  -0.000000 69.352837 -0.571241  -2.270129 0.000000 0.000000
2  -1.549380 -5.102890 -4.074760  -0.656185 -2.351411 1.692834
3  -0.866902 16.862423 34.477688  0.706522 -0.158118 -2.773276
4  0.000280 20.109325 0.000076  -0.793201 0.055999 0.019657
5  -0.000167 19.941740 0.000020  0.446145 1.413028 0.438544
6  2.899846 -0.471064 -4.331213  -0.075632 -0.559877 -0.709301
7  -0.000039 2.543313 0.000032  0.221027 -0.000000 -0.000000
8  1.551379 3.956613 -3.900821  -0.848123 -1.774019 0.020833
9  -0.000001 2.741428 -0.000011  -0.188425 -0.000000 -0.000000
10  1.401086 3.639807 -1.202135  -1.510554 -1.785755 0.694508
11  -0.000000 2.810952 0.000031  -0.256295 0.000000 -0.000000
12  1.335650 3.182115 1.418062  0.580083 -1.251595 -1.415244
13  0.000004 2.663275 0.000037  -0.256296 -0.000001 0.000004
14  1.344775 1.881164 3.809576  0.720222 -1.203082 -1.477335
15  0.000005 2.315669 -0.000051  -0.256295 0.000000 0.000000
16  -0.000085 9.722962 0.000000  -0.237607 0.875799 -0.180124
17  0.000114 8.540298 0.000032  -0.107005 0.054189 0.002660
18  12.344646 -14.394218 -7.586400  -0.196989 -2.910743 1.372216
19  0.886134 -10.472036 -0.851661  1.133868 -0.433418 -1.888044
20  9.380621 0.000344 11.731744  -0.162534 0.167718 0.095543
21  3.478570 0.000086 7.248108  0.147395 0.393017 0.346174
22  3.549941 0.000129 4.439691  -2.068391 0.412720 -0.590754
time 5
0  -1.000000 0.000000 -70.000000  1.570795 0.000003 -0.000003
1  -0.000000 69.352837 -0.571241  -2.270129 0.000000 0.000000
2  -1.549380 -5.102890 -4.074760  -0.656185 -2.351411 1.692834
3  1.168314 15.206123 33.587025  0.693603 -0.329927 -3.012139
4  0.000282 20.109333 0.000073  -0.954226 0.056418 0.023647
5  -0.000166 19.941740 0.000019  0.781412 1.450758 0.999789
6  2.899852 -0.471067 -4.331216  -0.319009 -0.559877 -0.709301
7  -0.000037 2.543309 0.000035  0.221027 0.000000 0.000000
8  1.551383 3.956610 -3.900823  -0.586112 -1.774019 0.020773
9  -0.000000 2.741426 -0.000008  -0.188425 -0.000000 -0.000000
10  1.401090 3.639806 -1.202138  -1.250051 -1.785755 0.694520
11  -0.000000 2.810953 0.000028  -0.256295 -0.000000 -0.000000
12  1.335653 3.182113 1.418059  0.840566 -1.251595 -1.415244
13  0.000002 2.663275 0.000031  -0.256296 -0.000001 0.000004
14  1.344777 1.881163 3.809576  0.980721 -1.203082 -1.477335
15  0.000004 2.315668 -0.000055  -0.256295 0.000000 -0.000000
16  -0.000085 9.722963 0.000003  -0.250527 0.917227 -0.196650
17  0.000114 8.540300 0.000027  -0.107005 0.054189 0.002660
18  12.344646 -14.394218 -7.586400  -0.196989 -2.910743 1.372216
19  0.886134 -10.472036 -0.851661  1.133868 -0.433418 -1.888044
20  9.380621 0.000344 11.731744  -0.162534 0.167718 0.095543
21  3.478570 0.000086 7.248108  0.147395 0.393017 0.346174
22  3.549941 0.000129 4.439691  -2.068391 0.412720 -0.590754
time 6
0  -1.000000 0.000000 -70.000000  1.570795 0.000003 -0.000003
1  -0.000000 69.352837 -0.571241  -2.270129 0.000000 0.000000
2  -1.549380 -5.102890 -4.074760  -0.656185 -2.351411 1.692834
3  3.246502 13.889681 32.465908  0.518847 -0.327292 3.098160
4  0.000283 20.109335 0.000079  -0.805506 0.056035 0.019968
5  -0.000165 19.941736 0.000021  -0.758789 1.240133 -0.411390
6  2.899849 -0.471065 -4.331215  -0.449461 -0.559877 -0.709301
7  -0.000040 2.543314 0.000029  0.221027 0.000000 -0.000000
8  1.551384 3.956611 -3.900825  -0.445689 -1.774019 0.020737
9  0.000005 2.741428 -0.000014  -0.188425 0.000000 0.000000
10  1.401088 3.639806 -1.202137  -1.110452 -1.785755 0.694509
11  -0.000001 2.810953 0.000034  -0.256295 -0.000000 -0.000000
12  1.335650 3.182114 1.418061  0.980187 -1.251595 -1.415244
13  0.000005 2.663275 0.000038  -0.256296 -0.000001 0.000004
14  1.344771 1.881162 3.809576  1.120317 -1.203082 -1.477335
15  0.000004 2.315667 -0.000052  -0.256295 0.000000 -0.000000
16  -0.000083 9.722960 0.000005  -0.210390 0.764465 -0.142959
17  0.000114 8.540305 0.000030  -0.107005 0.054189 0.002660
18  12.344646 -14.394218 -7.586400  -0.196989 -2.910743 1.372216
19  0.886134 -10.472036 -0.851661  1.133868 -0.433418 -1.888044
20  9.380621 0.000344 11.731744  -0.162534 0.167718 0.095543
21  3.478570 0.000086 7.248108  0.147395 0.393017 0.346174
22  3.549941 0.000129 4.439691  -2.068391 0.412720 -0.590754
time 7
0  -1.000000 0.000000 -70.000000  1.570795 0.000003 -0.000003
1  -0.000000 69.352837 -0.571241  -2.270129 0.000000 0.000000
2  -1.549380 -5.102890 -4.074760  -0.656185 -2.351411 1.692834
3  4.398881 12.967772 31.594784  0.249356 -0.199685 2.999596
4  0.000282 20.109335 0.000079  -0.338700 0.054800 0.008391
5  -0.000166 19.941740 0.000013  -1.076051 0.805523 -0.644783
6  2.899853 -0.471064 -4.331213  -0.377381 -0.559877 -0.709301
7  -0.000040 2.543314 0.000034  0.221027 -0.000000 0.000000
8  1.551385 3.956612 -3.900821  -0.529504 -1.774019 0.020773
9  -0.000002 2.741427 -0.000018  -0.188425 0.000000 -0.000000
10  1.401092 3.639807 -1.202135  -1.193380 -1.785755 0.694508
11  -0.000001 2.810955 0.000030  -0.256295 0.000000 -0.000000
12  1.335655 3.182116 1.418062  0.897239 -1.251595 -1.415244
13  0.000005 2.663273 0.000038  -0.256296 -0.000001 0.000004
14  1.344778 1.881164 3.809577  1.037390 -1.203082 -1.477335
15  0.000007 2.315667 -0.000053  -0.256295 0.000000 0.000000
16  -0.000084 9.722963 -0.000005  -0.183233 0.596673 -0.099971
17  0.000115 8.540304 0.000034  -0.107005 0.054189 0.002660
18  12.344646 -14.394218 -7.586400  -0.196989 -2.910743 1.372216
19  0.886134 -10.472036 -0.851661  1.133868 -0.433418 -1.888044
20  9.380621 0.000344 11.731744  -0.162534 0.167718 0.095543
21  3.478570 0.000086 7.248108  0.147395 0.393017 0.346174
22  3.549941 0.000129 4.439691  -2.068391 0.412720 -0.590754
time 8
0  -1.000000 0.000000 -70.000000  1.570795 0.000003 -0.000003
1  -0.000000 69.352837 -0.571241  -2.270129 0.000000 0.000000
2  -1.549380 -5.102890 -4.074760  -0.656185 -2.351411 1.692834
3  4.574668 13.026369 31.465878  0.092810 0.108679 2.976156
4  0.000281 20.109333 0.000077  0.000034 0.053746 0.000002
5  -0.000166 19.941744 0.000021  -1.052027 0.408948 -0.603814
6  2.899851 -0.471064 -4.331214  -0.243295 -0.559877 -0.709301
7  -0.000040 2.543314 0.000030  0.221027 0.000000 0.000000
8  1.551385 3.956612 -3.900824  -0.685431 -1.774019 0.020833
9  0.000001 2.741429 -0.000015  -0.188425 -0.000000 -0.000000
10  1.401088 3.639806 -1.202134  -1.347682 -1.785755 0.694509
11  -0.000004 2.810956 0.000030  -0.256295 -0.000000 -0.000000
12  1.335654 3.182116 1.418059  0.742946 -1.251595 -1.415244
13  0.000003 2.663276 0.000036  -0.256296 -0.000001 0.000004
14  1.344775 1.881163 3.809578  0.883092 -1.203082 -1.477335
15  0.000007 2.315664 -0.000058  -0.256295 0.000000 0.000000
16  -0.000085 9.722966 0.000002  -0.160403 0.337001 -0.049659
17  0.000114 8.540301 0.000031  -0.107005 0.054189 0.002660
18  12.344646 -14.394218 -7.586400  -0.196989 -2.910743 1.372216
19  0.886134 -10.472036 -0.851661  1.133868 -0.433418 -1.888044
20  9.380621 0.000344 11.731744  -0.162534 0.167718 0.095543
21  3.478570 0.000086 7.248108  0.147395 0.393017 0.346174
22  3.549941 0.000129 4.439691  -2.068391 0.412720 -0.590754
time 9
0  -1.000000 0.000000 -70.000000  1.570795 0.000003 -0.000003
1  -0.000000 69.352837 -0.571241  -2.270129 0.000000 0.000000
2  -1.549380 -5.102890 -4.074760  -0.656185 -2.351411 1.692834
3  4.492634 14.045935 31.950264  0.108868 0.337705 2.957633
4  0.000281 20.109331 0.000075  0.000034 0.053746 0.000002
5  -0.000167 19.941738 0.000021  -0.949860 0.187705 -0.548020
6  2.899855 -0.471065 -4.331214  -0.171430 -0.559877 -0.709301
7  -0.000040 2.543314 0.000034  0.221027 0.000000 -0.000000
8  1.551387 3.956609 -3.900822  -0.769015 -1.774019 0.020869
9  -0.000001 2.741429 -0.000018  -0.188425 0.000000 0.000000
10  1.401089 3.639805 -1.202136  -1.430379 -1.785755 0.694509
11  -0.000006 2.810955 0.000033  -0.256295 -0.000000 0.000000
12  1.335654 3.182113 1.418062  0.660245 -1.251595 -1.415244
13  0.000008 2.663273 0.000036  -0.256296 -0.000001 0.000004
14  1.344783 1.881162 3.809575  0.800396 -1.203082 -1.477335
15  0.000005 2.315665 -0.000049  -0.256295 0.000000 -0.000000
16  -0.000086 9.722961 0.000006  -0.152025 0.097427 -0.011117
17  0.000114 8.540301 0.000030  -0.107005 0.054189 0.002660
18  12.344646 -14.394218 -7.586400  -0.196989 -2.910743 1.372216
19  0.886134 -10.472036 -0.851661  1.133868 -0.433418 -1.888044
20  9.380621 0.000344 11.731744  -0.162534 0.167718 0.095543
21  3.478570 0.000086 7.248108  0.147395 0.393017 0.346174
22  3.549941 0.000129 4.439691  -2.068391 0.412720 -0.590754
time 10
0  -1.000000 0.000000 -70.000000  1.570795 0.000003 -0.000003
1  -0.000000 69.352837 -0.571241  -2.270129 0.000000 0.000000
2  -1.549380 -5.102890 -4.074760  -0.656185 -2.351411 1.692834
3  4.316849 15.245186 32.579185  0.289636 0.355293 2.909608
4  0.000283 20.109331 0.000071  -0.349394 0.054824 0.008667
5  -0.000167 19.941742 0.000023  -0.815151 0.246758 -0.504396
6  2.899850 -0.471064 -4.331210  -0.171430 -0.559877 -0.709301
7  -0.000041 2.543310 0.000034  0.221027 0.000000 0.000000
8  1.551386 3.956611 -3.900821  -0.769016 -1.774019 0.020869
9  -0.000001 2.741431 -0.000015  -0.188425 0.000000 0.000000
10  1.401091 3.639808 -1.202135  -1.430395 -1.785755 0.694509
11  -0.000005 2.810956 0.000033  -0.256295 -0.000000 0.000000
12  1.335656 3.182116 1.418061  0.660245 -1.251595 -1.415244
13  0.000005 2.663275 0.000038  -0.256296 -0.000001 0.000004
14  1.344777 1.881163 3.809577  0.800396 -1.203082 -1.477335
15  0.000008 2.315669 -0.000052  -0.256295 -0.000000 -0.000000
16  -0.000084 9.722963 0.000007  -0.152816 0.140057 -0.017708
17  0.000115 8.540301 0.000031  -0.107005 0.054189 0.002660
18  12.344646 -14.394218 -7.586400  -0.196989 -2.910743 1.372216
19  0.886134 -10.472036 -0.851661  1.133868 -0.433418 -1.888044
20  9.380621 0.000344 11.731744  -0.162534 0.167718 0.095543
21  3.478570 0.000086 7.248108  0.147395 0.393017 0.346174
22  3.549941 0.000129 4.439691  -2.068391 0.412720 -0.590754
time 11
0  -1.000000 0.000000 -70.000000  1.570795 0.000003 -0.000003
1  -0.000000 69.352837 -0.571241  -2.270129 0.000000 0.000000
2  -1.549380 -5.102890 -4.074760  -0.656185 -2.351411 1.692834
3  4.223094 15.823331 32.895607  0.400877 0.371137 2.870960
4  0.000280 20.109333 0.000074  -0.541051 0.055340 0.013413
5  -0.000166 19.941738 0.000016  -0.754351 0.271128 -0.471190
6  2.899842 -0.471068 -4.331211  -0.171430 -0.559877 -0.709301
7  -0.000040 2.543312 0.000032  0.221027 0.000000 -0.000000
8  1.551380 3.956609 -3.900822  -0.769016 -1.774019 0.020869
9  -0.000004 2.741433 -0.000016  -0.188425 -0.000000 -0.000000
10  1.401082 3.639804 -1.202135  -1.430379 -1.785755 0.694508
11  0.000003 2.810951 0.000032  -0.256295 -0.000000 -0.000000
12  1.335648 3.182113 1.418060  0.660245 -1.251595 -1.415244
13  0.000006 2.663272 0.000036  -0.256296 -0.000001 0.000004
14  1.344773 1.881161 3.809576  0.800396 -1.203082 -1.477335
15  0.000006 2.315670 -0.000052  -0.256295 0.000000 0.000000
16  -0.000086 9.722962 -0.000000  -0.152996 0.148172 -0.018967
17  0.000115 8.540300 0.000033  -0.107005 0.054189 0.002660
18  12.344646 -14.394218 -7.586400  -0.196989 -2.910743 1.372216
19  0.886134 -10.472036 -0.851661  1.133868 -0.433418 -1.888044
20  9.380621 0.000344 11.731744  -0.162534 0.167718 0.095543
21  3.478570 0.000086 7.248108  0.147395 0.393017 0.346174
22  3.549941 0.000129 4.439691  -2.068391 0.412720 -0.590754
time 12
0  -1.000000 0.000000 -70.000000  1.570795 0.000003 -0.000003
1  -0.000000 69.352837 -0.571241  -2.270129 0.000000 0.000000
2  -1.549380 -5.102890 -4.074760  -0.656185 -2.351411 1.692834
3  4.195749 15.827239 32.891701  0.480181 0.381984 2.845405
4  0.000282 20.109331 0.000069  -0.667481 0.055663 0.016541
5  -0.000168 19.941742 0.000019  -0.719871 0.292843 -0.447150
6  2.899849 -0.471065 -4.331214  -0.171430 -0.559877 -0.709301
7  -0.000041 2.543318 0.000030  0.221027 0.000000 0.000000
8  1.551385 3.956611 -3.900826  -0.769016 -1.774019 0.020869
9  -0.000002 2.741428 -0.000014  -0.188425 0.000000 0.000000
10  1.401090 3.639807 -1.202140  -1.430379 -1.785755 0.694509
11  0.000004 2.810952 0.000030  -0.256295 0.000000 0.000000
12  1.335654 3.182116 1.418057  0.660245 -1.251595 -1.415244
13  0.000006 2.663273 0.000036  -0.256296 -0.000001 0.000004
14  1.344779 1.881164 3.809572  0.800396 -1.203082 -1.477335
15  0.000010 2.315667 -0.000055  -0.256295 0.000000 -0.000000
16  -0.000086 9.722967 0.000000  -0.153212 0.157284 -0.020393
17  0.000114 8.540300 0.000028  -0.107005 0.054189 0.002660
18  12.344646 -14.394218 -7.586400  -0.196989 -2.910743 1.372216
19  0.886134 -10.472036 -0.851661  1.133868 -0.433418 -1.888044
20  9.380621 0.000344 11.731744  -0.162534 0.167718 0.095543
21  3.478570 0.000086 7.248108  0.147395 0.393017 0.346174
22  3.549941 0.000129 4.439691  -2.068391 0.412720 -0.590754
time 13
0  -1.000000 0.000000 -70.000000  1.570795 0.000003 -0.000003
1  -0.000000 69.352837 -0.571241  -2.270129 0.000000 0.000000
2  -1.549380 -5.102890 -4.074760  -0.656185 -2.351411 1.692834
3  4.125436 15.838960 32.879978  0.542530 0.387989 2.832313
4  0.000277 20.109331 0.000073  -0.770621 0.055939 0.019093
5  -0.000168 19.941742 0.000019  -0.687226 0.323915 -0.426916
6  2.899843 -0.471067 -4.331213  -0.171430 -0.559877 -0.709301
7  -0.000041 2.543311 0.000033  0.221027 -0.000000 0.000000
8  1.551381 3.956608 -3.900826  -0.769016 -1.774019 0.020869
9  0.000004 2.741423 -0.000014  -0.188425 0.000000 0.000000
10  1.401083 3.639803 -1.202140  -1.430379 -1.785755 0.694509
11  0.000003 2.810951 0.000030  -0.256295 -0.000000 -0.000000
12  1.335649 3.182113 1.418060  0.660245 -1.251595 -1.415244
13  0.000005 2.663275 0.000033  -0.256296 -0.000001 0.000004
14  1.344775 1.881162 3.809574  0.800396 -1.203082 -1.477335
15  0.000008 2.315670 -0.000056  -0.256295 0.000000 0.000000
16  -0.000085 9.722965 0.000002  -0.153655 0.174394 -0.023077
17  0.000111 8.540299 0.000027  -0.107005 0.054189 0.002660
18  12.344646 -14.394218 -7.586400  -0.196989 -2.910743 1.372216
19  0.886134 -10.472036 -0.851661  1.133868 -0.433418 -1.888044
20  9.380621 0.000344 11.731744  -0.162534 0.167718 0.095543
21  3.478570 0.000086 7.248108  0.147395 0.393017 0.346174
22  3.549941 0.000129 4.439691  -2.068391 0.412720 -0.590754
time 14
0  -1.000000 0.000000 -70.000000  1.570795 0.000003 -0.000003
1  -0.000000 69.352837 -0.571241  -2.270129 0.000000 0.000000
2  -1.549380 -5.102890 -4.074760  -0.656185 -2.351411 1.692834
3  4.004338 15.862394 32.864357  0.601919 0.393529 2.820993
4  0.000282 20.109337 0.000072  -0.862713 0.056179 0.021382
5  -0.000167 19.941742 0.000023  -0.659938 0.355247 -0.404478
6  2.899844 -0.471066 -4.331211  -0.171430 -0.559877 -0.709301
7  -0.000039 2.543312 0.000032  0.221027 -0.000000 0.000000
8  1.551382 3.956609 -3.900825  -0.769016 -1.774019 0.020869
9  0.000003 2.741426 -0.000013  -0.188425 -0.000000 -0.000000
10  1.401088 3.639805 -1.202137  -1.430379 -1.785755 0.694509
11  0.000001 2.810952 0.000029  -0.256295 -0.000000 -0.000000
12  1.335649 3.182112 1.418062  0.660245 -1.251595 -1.415244
13  0.000007 2.663270 0.000036  -0.256296 -0.000001 0.000004
14  1.344773 1.881161 3.809575  0.800396 -1.203082 -1.477335
15  0.000004 2.315666 -0.000055  -0.256295 0.000000 0.000000
16  -0.000086 9.722965 0.000007  -0.154111 0.190479 -0.025618
17  0.000115 8.540304 0.000028  -0.107005 0.054189 0.002660
18  12.344646 -14.394218 -7.586400  -0.196989 -2.910743 1.372216
19  0.886134 -10.472036 -0.851661  1.133868 -0.433418 -1.888044
20  9.380621 0.000344 11.731744  -0.162534 0.167718 0.095543
21  3.478570 0.000086 7.248108  0.147395 0.393017 0.346174
22  3.549941 0.000129 4.439691  -2.068391 0.412720 -0.590754
time 15
0  -1.000000 0.000000 -70.000000  1.570795 0.000003 -0.000003
1  -0.000000 69.352837 -0.571241  -2.270129 0.000000 0.000000
2  -1.549380 -5.102890 -4.074760  -0.656185 -2.351411 1.692834
3  3.848083 15.893642 32.844826  0.656553 0.398216 2.812188
4  0.000283 20.109331 0.000072  -0.942662 0.056394 0.023360
5  -0.000166 19.941738 0.000012  -0.637393 0.385796 -0.381589
6  2.899847 -0.471064 -4.331210  -0.171430 -0.559877 -0.709301
7  -0.000040 2.543311 0.000032  0.221027 0.000000 -0.000000
8  1.551385 3.956612 -3.900822  -0.769016 -1.774019 0.020869
9  -0.000003 2.741428 -0.000015  -0.188425 0.000000 0.000000
10  1.401087 3.639807 -1.202136  -1.430379 -1.785755 0.694509
11  -0.000002 2.810956 0.000030  -0.256295 -0.000000 -0.000000
12  1.335652 3.182115 1.418061  0.660246 -1.251595 -1.415244
13  0.000005 2.663277 0.000036  -0.256296 -0.000001 0.000004
14  1.344777 1.881164 3.809578  0.800396 -1.203082 -1.477335
15  0.000006 2.315662 -0.000053  -0.256295 0.000000 -0.000000
16  -0.000087 9.722960 0.000001  -0.154590 0.205597 -0.028015
17  0.000114 8.540301 0.000031  -0.107005 0.054189 0.002660
18  12.344646 -14.394218 -7.586400  -0.196989 -2.910743 1.372216
19  0.886134 -10.472036 -0.851661  1.133868 -0.433418 -1.888044
20  9.380621 0.000344 11.731744  -0.162534 0.167718 0.095543
21  3.478570 0.000086 7.248108  0.147395 0.393017 0.346174
22  3.549941 0.000129 4.439691  -2.068391 0.412720 -0.590754
time 16
0  -1.000000 0.000000 -70.000000  1.570795 0.000003 -0.000003
1  -0.000000 69.352837 -0.571241  -2.270129 0.000000 0.000000
2  -1.549380 -5.102890 -4.074760  -0.656185 -2.351411 1.692834
3  3.652767 15.928803 32.817474  0.705356 0.401819 2.806300
4  0.000282 20.109335 0.000075  -1.010885 0.056574 0.025050
5  -0.000168 19.941738 0.000019  -0.618520 0.415388 -0.359953
6  2.899848 -0.471065 -4.331214  -0.171430 -0.559877 -0.709301
7  -0.000039 2.543311 0.000031  0.221027 0.000000 -0.000000
8  1.551376 3.956609 -3.900823  -0.769016 -1.774019 0.020869
9  0.000000 2.741427 -0.000014  -0.188425 0.000000 0.000000
10  1.401084 3.639806 -1.202137  -1.430395 -1.785755 0.694509
11  -0.000003 2.810957 0.000031  -0.256295 0.000000 -0.000000
12  1.335647 3.182113 1.418062  0.660245 -1.251595 -1.415244
13  0.000004 2.663275 0.000033  -0.256296 -0.000001 0.000004
14  1.344770 1.881163 3.809574  0.800396 -1.203082 -1.477335
15  0.000006 2.315672 -0.000057  -0.256295 0.000000 -0.000000
16  -0.000085 9.722962 -0.000001  -0.155082 0.220159 -0.030340
17  0.000115 8.540302 0.000032  -0.107005 0.054189 0.002660
18  12.344646 -14.394218 -7.586400  -0.196989 -2.910743 1.372216
19  0.886134 -10.472036 -0.851661  1.133868 -0.433418 -1.888044
20  9.380621 0.000344 11.731744  -0.162534 0.167718 0.095543
21  3.478570 0.000086 7.248108  0.147395 0.393017 0.346174
22  3.549941 0.000129 4.439691  -2.068391 0.412720 -0.590754
time 17
0  -1.000000 0.000000 -70.000000  1.570795 0.000003 -0.000003
1  -0.000000 69.352837 -0.571241  -2.270129 0.000000 0.000000
2  -1.549380 -5.102890 -4.074760  -0.656185 -2.351411 1.692834
3  3.422289 15.971773 32.786228  0.746533 0.403988 2.803955
4  0.000280 20.109331 0.000075  -1.066997 0.056718 0.026440
5  -0.000165 19.941742 0.000018  -0.602657 0.443762 -0.341472
6  2.899850 -0.471065 -4.331211  -0.171430 -0.559877 -0.709301
7  -0.000040 2.543314 0.000028  0.221027 0.000000 -0.000000
8  1.551385 3.956611 -3.900820  -0.769016 -1.774019 0.020869
9  0.000003 2.741424 -0.000017  -0.188425 0.000000 0.000000
10  1.401093 3.639807 -1.202136  -1.430379 -1.785755 0.694509
11  -0.000004 2.810956 0.000029  -0.256295 -0.000000 -0.000000
12  1.335655 3.182113 1.418063  0.660245 -1.251595 -1.415244
13  0.000000 2.663277 0.000033  -0.256296 -0.000001 0.000004
14  1.344782 1.881163 3.809576  0.800396 -1.203082 -1.477335
15  0.000005 2.315665 -0.000048  -0.256295 -0.000000 -0.000000
16  -0.000083 9.722965 0.000000  -0.155609 0.234691 -0.032677
17  0.000112 8.540302 0.000030  -0.107005 0.054189 0.002660
18  12.344646 -14.394218 -7.586400  -0.196989 -2.910743 1.372216
19  0.886134 -10.472036 -0.851661  1.133868 -0.433418 -1.888044
20  9.380621 0.000344 11.731744  -0.162534 0.167718 0.095543
21  3.478570 0.000086 7.248108  0.147395 0.393017 0.346174
22  3.549941 0.000129 4.439691  -2.068391 0.412720 -0.590754
time 18
0  -1.000000 0.000000 -70.000000  1.570795 0.000003 -0.000003
1  -0.000000 69.352837 -0.571241  -2.270129 0.000000 0.000000
2  -1.549380 -5.102890 -4.074760  -0.656185 -2.351411 1.692834
3  3.164470 16.018648 32.751072  0.778021 0.404298 2.805728
4  0.000283 20.109329 0.000074  -1.110128 0.056838 0.027506
5  -0.000166 19.941738 0.000012  -0.589293 0.470699 -0.328350
6  2.899853 -0.471067 -4.331217  -0.171430 -0.559877 -0.709301
7  -0.000039 2.543309 0.000031  0.221027 0.000000 -0.000000
8  1.551384 3.956609 -3.900824  -0.769016 -1.774019 0.020869
9  0.000003 2.741427 -0.000011  -0.188425 0.000000 0.000000
10  1.401090 3.639804 -1.202139  -1.430395 -1.785755 0.694509
11  0.000005 2.810953 0.000034  -0.256295 -0.000000 0.000000
12  1.335651 3.182112 1.418060  0.660245 -1.251595 -1.415244
13  0.000005 2.663272 0.000034  -0.256296 -0.000001 0.000004
14  1.344780 1.881161 3.809573  0.800396 -1.203082 -1.477335
15  0.000004 2.315664 -0.000056  -0.256295 0.000000 -0.000000
16  -0.000085 9.722961 -0.000004  -0.156184 0.249516 -0.035074
17  0.000116 8.540301 0.000031  -0.107005 0.054189 0.002660
18  12.344646 -14.394218 -7.586400  -0.196989 -2.910743 1.372216
19  0.886134 -10.472036 -0.851661  1.133868 -0.433418 -1.888044
20  9.380621 0.000344 11.731744  -0.162534 0.167718 0.095543
21  3.478570 0.000086 7.248108  0.147395 0.393017 0.346174
22  3.549941 0.000129 4.439691  -2.068391 0.412720 -0.590754
time 19
0  -1.000000 0.000000 -70.000000  1.570795 0.000003 -0.000003
1  -0.000000 69.352837 -0.571241  -2.270129 0.000000 0.000000
2  -1.549380 -5.102890 -4.074760  -0.656185 -2.351411 1.692834
3  2.879306 16.073336 32.712006  0.798027 0.402245 2.812646
4  0.000282 20.109331 0.000072  -1.139215 0.056910 0.028238
5  -0.000165 19.941740 0.000020  -0.588936 0.514434 -0.333709
6  2.899847 -0.471066 -4.331215  -0.171430 -0.559877 -0.709301
7  -0.000040 2.543313 0.000032  0.221027 0.000000 -0.000000
8  1.551375 3.956609 -3.900823  -0.769016 -1.774019 0.020869
9  0.000005 2.741426 -0.000014  -0.188425 0.000000 0.000000
10  1.401086 3.639806 -1.202139  -1.430379 -1.785755 0.694509
11  -0.000005 2.810956 0.000030  -0.256295 -0.000000 0.000000
12  1.335650 3.182115 1.418057  0.660245 -1.251595 -1.415244
13  0.000003 2.663274 0.000034  -0.256296 -0.000001 0.000004
14  1.344771 1.881164 3.809573  0.800396 -1.203082 -1.477335
15  0.000005 2.315670 -0.000055  -0.256295 0.000000 -0.000000
16  -0.000084 9.722963 0.000006  -0.157526 0.280777 -0.040203
17  0.000114 8.540299 0.000031  -0.107005 0.054189 0.002660
18  12.344646 -14.394218 -7.586400  -0.196989 -2.910743 1.372216
19  0.886134 -10.472036 -0.851661  1.133868 -0.433418 -1.888044
20  9.380621 0.000344 11.731744  -0.162534 0.167718 0.095543
21  3.478570 0.000086 7.248108  0.147395 0.393017 0.346174
22  3.549941 0.000129 4.439691  -2.068391 0.412720 -0.590754
time 20
0  -1.000000 0.000000 -70.000000  1.570795 0.000003 -0.000003
1  -0.000000 69.352837 -0.571241  -2.270129 0.000000 0.000000
2  -1.549380 -5.102890 -4.074760  -0.656185 -2.351411 1.692834
3  2.570702 16.131935 32.669033  0.809061 0.398565 2.822765
4  0.000275 20.109333 0.000073  -1.155353 0.056958 0.028633
5  -0.000165 19.941742 0.000021  -0.609390 0.585455 -0.360253
6  2.899848 -0.471065 -4.331212  -0.171430 -0.559877 -0.709301
7  -0.000038 2.543315 0.000032  0.221027 -0.000000 -0.000000
8  1.551379 3.956610 -3.900819  -0.769016 -1.774019 0.020869
9  0.000001 2.741427 -0.000015  -0.188425 -0.000000 -0.000000
10  1.401090 3.639807 -1.202137  -1.430379 -1.785755 0.694509
11  -0.000002 2.810948 0.000032  -0.256295 -0.000000 -0.000000
12  1.335651 3.182114 1.418063  0.660245 -1.251595 -1.415244
13  0.000001 2.663282 0.000034  -0.256296 -0.000001 0.000004
14  1.344775 1.881163 3.809578  0.800396 -1.203082 -1.477335
15  -0.000000 2.315670 -0.000054  -0.256295 0.000000 -0.000000
16  -0.000083 9.722965 0.000000  -0.160343 0.336093 -0.049503
17  0.000111 8.540301 0.000032  -0.107005 0.054189 0.002660
18  12.344646 -14.394218 -7.586400  -0.196989 -2.910743 1.372216
19  0.886134 -10.472036 -0.851661  1.133868 -0.433418 -1.888044
20  9.380621 0.000344 11.731744  -0.162534 0.167718 0.095543
21  3.478570 0.000086 7.248108  0.147395 0.393017 0.346174
22  3.549941 0.000129 4.439691  -2.068391 0.412720 -0.590754
time 21
0  -1.000000 0.000000 -70.000000  1.570795 0.000003 -0.000003
1  -0.000000 69.352837 -0.571241  -2.270129 0.000000 0.000000
2  -1.549380 -5.102890 -4.074760  -0.656185 -2.351411 1.692834
3  2.242565 16.190527 32.626064  0.815790 0.394536 2.833113
4  0.000279 20.109333 0.000072  -1.162472 0.056970 0.028813
5  -0.000164 19.941738 0.000021  -0.633975 0.675536 -0.378083
6  2.899849 -0.471065 -4.331212  -0.171430 -0.559877 -0.709301
7  -0.000040 2.543307 0.000032  0.221027 0.000000 0.000000
8  1.551387 3.956610 -3.900821  -0.769016 -1.774019 0.020869
9  0.000000 2.741426 -0.000017  -0.188425 -0.000000 0.000000
10  1.401093 3.639806 -1.202136  -1.430379 -1.785755 0.694508
11  -0.000001 2.810951 0.000028  -0.256295 -0.000000 0.000000
12  1.335653 3.182115 1.418062  0.660245 -1.251595 -1.415244
13  0.000001 2.663274 0.000034  -0.256296 -0.000001 0.000004
14  1.344778 1.881163 3.809577  0.800396 -1.203082 -1.477335
15  0.000004 2.315671 -0.000054  -0.256295 0.000000 0.000000
16  -0.000080 9.722961 0.000003  -0.164465 0.401106 -0.060925
17  0.000112 8.540301 0.000030  -0.107005 0.054189 0.002660
18  12.344646 -14.394218 -7.586400  -0.196989 -2.910743 1.372216
19  0.886134 -10.472036 -0.851661  1.133868 -0.433418 -1.888044
20  9.380621 0.000344 11.731744  -0.162534 0.167718 0.095543
21  3.478570 0.000086 7.248108  0.147395 0.393017 0.346174
22  3.549941 0.000129 4.439691  -2.068391 0.412720 -0.590754
time 22
0  -1.000000 0.000000 -70.000000  1.570795 0.000003 -0.000003
1  -0.000000 69.352837 -0.571241  -2.270129 0.000000 0.000000
2  -1.549380 -5.102890 -4.074760  -0.656185 -2.351411 1.692834
3  1.898805 16.256937 32.579185  0.819019 0.390236 2.843690
4  0.000282 20.109335 0.000076  -1.162504 0.056970 0.028813
5  -0.000167 19.941740 0.000020  -0.639790 0.769099 -0.361806
6  2.899846 -0.471066 -4.331214  -0.171430 -0.559877 -0.709301
7  -0.000041 2.543316 0.000032  0.221027 -0.000000 -0.000000
8  1.551383 3.956609 -3.900825  -0.769016 -1.774019 0.020869
9  0.000001 2.741428 -0.000014  -0.188425 0.000000 0.000000
10  1.401089 3.639806 -1.202137  -1.430379 -1.785755 0.694509
11  0.000000 2.810952 0.000031  -0.256295 -0.000000 -0.000000
12  1.335654 3.182113 1.418060  0.660245 -1.251595 -1.415244
13  0.000004 2.663277 0.000037  -0.256296 -0.000001 0.000004
14  1.344777 1.881162 3.809575  0.800396 -1.203082 -1.477335
15  0.000004 2.315668 -0.000056  -0.256295 0.000000 -0.000000
16  -0.000082 9.722962 0.000001  -0.168888 0.458443 -0.071531
17  0.000113 8.540303 0.000035  -0.107005 0.054189 0.002660
18  12.344646 -14.394218 -7.586400  -0.196989 -2.910743 1.372216
19  0.886134 -10.472036 -0.851661  1.133868 -0.433418 -1.888044
20  9.380621 0.000344 11.731744  -0.162534 0.167718 0.095543
21  3.478570 0.000086 7.248108  0.147395 0.393017 0.346174
22  3.549941 0.000129 4.439691  -2.068391 0.412720 -0.590754
time 23
0  -1.000000 0.000000 -70.000000  1.570795 0.000003 -0.000003
1  -0.000000 69.352837 -0.571241  -2.270129 0.000000 0.000000
2  -1.549380 -5.102890 -4.074760  -0.656185 -2.351411 1.692834
3  1.543327 16.323343 32.528404  0.819737 0.385703 2.854438
4  0.000281 20.109333 0.000073  -1.157028 0.056958 0.028669
5  -0.000166 19.941738 0.000028  -0.621734 0.846038 -0.316730
6  2.899856 -0.471064 -4.331215  -0.171400 -0.559877 -0.709301
7  -0.000039 2.543312 0.000032  0.221027 0.000000 0.000000
8  1.551385 3.956611 -3.900823  -0.769033 -1.774019 0.020869
9  0.000003 2.741428 -0.000015  -0.188425 -0.000000 -0.000000
10  1.401087 3.639807 -1.202139  -1.430412 -1.785755 0.694509
11  -0.000001 2.810957 0.000030  -0.256295 -0.000000 -0.000000
12  1.335653 3.182114 1.418061  0.660229 -1.251595 -1.415244
13  0.000004 2.663277 0.000037  -0.256296 -0.000001 0.000004
14  1.344778 1.881162 3.809574  0.800379 -1.203082 -1.477335
15  0.000003 2.315669 -0.000054  -0.256295 0.000000 -0.000000
16  -0.000084 9.722961 0.000004  -0.172435 0.498084 -0.079225
17  0.000113 8.540304 0.000036  -0.107005 0.054189 0.002660
18  12.344646 -14.394218 -7.586400  -0.196989 -2.910743 1.372216
19  0.886134 -10.472036 -0.851661  1.133868 -0.433418 -1.888044
20  9.380621 0.000344 11.731744  -0.162534 0.167718 0.095543
21  3.478570 0.000086 7.248108  0.147395 0.393017 0.346174
22  3.549941 0.000129 4.439691  -2.068391 0.412720 -0.590754
time 24
0  -1.000000 0.000000 -70.000000  1.570795 0.000003 -0.000003
1  -0.000000 69.352837 -0.571241  -2.270129 0.000000 0.000000
2  -1.549380 -5.102890 -4.074760  -0.656185 -2.351411 1.692834
3  1.180033 16.389751 32.481529  0.818660 0.381093 2.865072
4  0.000279 20.109333 0.000070  -1.147848 0.056934 0.028453
5  -0.000165 19.941742 0.000019  -0.593833 0.897432 -0.267497
6  2.899842 -0.471065 -4.331214  -0.165085 -0.559877 -0.709301
7  -0.000039 2.543313 0.000033  0.221027 0.000000 -0.000000
8  1.551376 3.956610 -3.900824  -0.775168 -1.774019 0.020869
9  0.000002 2.741429 -0.000019  -0.188425 -0.000000 -0.000000
10  1.401081 3.639805 -1.202137  -1.436559 -1.785755 0.694509
11  -0.000003 2.810953 0.000032  -0.256295 -0.000000 -0.000000
12  1.335649 3.182112 1.418060  0.654080 -1.251595 -1.415244
13  0.000006 2.663270 0.000034  -0.256296 -0.000001 0.000004
14  1.344775 1.881162 3.809576  0.794231 -1.203082 -1.477335
15  0.000004 2.315667 -0.000055  -0.256295 0.000000 -0.000000
16  -0.000084 9.722961 0.000002  -0.174736 0.521610 -0.083947
17  0.000112 8.540303 0.000028  -0.107005 0.054189 0.002660
18  12.344646 -14.394218 -7.586400  -0.196989 -2.910743 1.372216
19  0.886134 -10.472036 -0.851661  1.133868 -0.433418 -1.888044
20  9.380621 0.000344 11.731744  -0.162534 0.167718 0.095543
21  3.478570 0.000086 7.248108  0.147395 0.393017 0.346174
22  3.549941 0.000129 4.439691  -2.068391 0.412720 -0.590754
time 25
0  -1.000000 0.000000 -70.000000  1.570795 0.000003 -0.000003
1  -0.000000 69.352837 -0.571241  -2.270129 0.000000 0.000000
2  -1.549380 -5.102890 -4.074760  -0.656185 -2.351411 1.692834
3  0.808926 16.460072 32.430744  0.816776 0.376328 2.875820
4  0.000285 20.109327 0.000073  -1.136541 0.056898 0.028166
5  -0.000169 19.941740 0.000025  -0.566850 0.934248 -0.223373
6  2.899845 -0.471063 -4.331215  -0.147850 -0.559877 -0.709301
7  -0.000039 2.543311 0.000031  0.221027 0.000000 0.000000
8  1.551377 3.956610 -3.900824  -0.791881 -1.774019 0.020869
9  0.000001 2.741426 -0.000016  -0.188425 0.000000 -0.000000
10  1.401081 3.639806 -1.202136  -1.453291 -1.785755 0.694509
11  -0.000000 2.810953 0.000035  -0.256295 -0.000000 -0.000000
12  1.335644 3.182114 1.418059  0.637349 -1.251595 -1.415244
13  0.000002 2.663278 0.000028  -0.256296 -0.000001 0.000004
14  1.344771 1.881162 3.809573  0.777484 -1.203082 -1.477335
15  0.000007 2.315667 -0.000056  -0.256295 0.000000 -0.000000
16  -0.000086 9.722964 0.000006  -0.176426 0.537900 -0.087303
17  0.000115 8.540301 0.000032  -0.107005 0.054189 0.002660
18  12.344646 -14.394218 -7.586400  -0.196989 -2.910743 1.372216
19  0.886134 -10.472036 -0.851661  1.133868 -0.433418 -1.888044
20  9.380621 0.000344 11.731744  -0.162534 0.167718 0.095543
21  3.478570 0.000086 7.248108  0.147395 0.393017 0.346174
22  3.549941 0.000129 4.439691  -2.068391 0.412720 -0.590754
time 26
0  -1.000000 0.000000 -70.000000  1.570795 0.000003 -0.000003
1  -0.000000 69.352837 -0.571241  -2.270129 0.000000 0.000000
2  -1.549380 -5.102890 -4.074760  -0.656185 -2.351411 1.692834
3  0.433918 16.530382 32.379963  0.814892 0.371486 2.886511
4  0.000280 20.109333 0.000072  -1.124784 0.056874 0.027878
5  -0.000165 19.941740 0.000015  -0.534002 0.964711 -0.171335
6  2.899850 -0.471065 -4.331213  -0.122376 -0.559877 -0.709301
7  -0.000038 2.543317 0.000033  0.221027 -0.000000 0.000000
8  1.551384 3.956610 -3.900824  -0.816620 -1.774019 0.020869
9  -0.000000 2.741428 -0.000014  -0.188425 -0.000000 -0.000000
10  1.401091 3.639806 -1.202137  -1.478032 -1.785755 0.694509
11  -0.000002 2.810953 0.000026  -0.256295 -0.000000 -0.000000
12  1.335648 3.182116 1.418061  0.612589 -1.251595 -1.415244
13  0.000001 2.663280 0.000032  -0.256296 -0.000001 0.000004
14  1.344776 1.881162 3.809576  0.752743 -1.203082 -1.477335
15  0.000007 2.315664 -0.000052  -0.256295 0.000000 -0.000000
16  -0.000082 9.722961 -0.000003  -0.177720 0.549825 -0.089796
17  0.000113 8.540302 0.000031  -0.107005 0.054189 0.002660
18  12.344646 -14.394218 -7.586400  -0.196989 -2.910743 1.372216
19  0.886134 -10.472036 -0.851661  1.133868 -0.433418 -1.888044
20  9.380621 0.000344 11.731744  -0.162534 0.167718 0.095543
21  3.478570 0.000086 7.248108  0.147395 0.393017 0.346174
22  3.549941 0.000129 4.439691  -2.068391 0.412720 -0.590754
time 27
0  -1.000000 0.000000 -70.000000  1.570795 0.000003 -0.000003
1  -0.000000 69.352837 -0.571241  -2.270129 0.000000 0.000000
2  -1.549380 -5.102890 -4.074760  -0.656185 -2.351411 1.692834
3  0.066718 16.596794 32.329185  0.814803 0.366024 2.898689
4  0.000282 20.109327 0.000070  -1.112576 0.056838 0.027578
5  -0.000167 19.941738 0.000019  -0.499113 0.988602 -0.116993
6  2.899851 -0.471065 -4.331213  -0.091650 -0.559877 -0.709301
7  -0.000041 2.543308 0.000031  0.221027 -0.000000 0.000000
8  1.551387 3.956610 -3.900823  -0.846432 -1.774019 0.020869
9  0.000002 2.741421 -0.000013  -0.188425 0.000000 -0.000000
10  1.401089 3.639807 -1.202136  -1.507900 -1.785755 0.694508
11  -0.000001 2.810955 0.000029  -0.256295 -0.000000 -0.000000
12  1.335654 3.182113 1.418060  0.582736 -1.251595 -1.415244
13  0.000003 2.663272 0.000028  -0.256296 -0.000001 0.000004
14  1.344775 1.881163 3.809576  0.722875 -1.203082 -1.477335
15  0.000004 2.315666 -0.000057  -0.256295 0.000000 -0.000000
16  -0.000084 9.722960 -0.000001  -0.178667 0.558292 -0.091581
17  0.000114 8.540298 0.000028  -0.107005 0.054189 0.002660
18  12.344646 -14.394218 -7.586400  -0.196989 -2.910743 1.372216
19  0.886134 -10.472036 -0.851661  1.133868 -0.433418 -1.888044
20  9.380621 0.000344 11.731744  -0.162534 0.167718 0.095543
21  3.478570 0.000086 7.248108  0.147395 0.393017 0.346174
22  3.549941 0.000129 4.439691  -2.068391 0.412720 -0.590754
time 28
0  -1.000000 0.000000 -70.000000  1.570795 0.000003 -0.000003
1  -0.000000 69.352837 -0.571241  -2.270129 0.000000 0.000000
2  -1.549380 -5.102890 -4.074760  -0.656185 -2.351411 1.692834
3  -0.296572 16.667107 32.278400  0.818750 0.359670 2.912810
4  0.000281 20.109335 0.000073  -1.100110 0.056802 0.027267
5  -0.000164 19.941738 0.000025  -0.467591 1.006270 -0.066408
6  2.899847 -0.471063 -4.331215  -0.058120 -0.559877 -0.709301
7  -0.000035 2.543313 0.000032  0.221027 -0.000000 -0.000000
8  1.551383 3.956611 -3.900825  -0.878997 -1.774019 0.020869
9  -0.000001 2.741426 -0.000013  -0.188425 0.000000 -0.000000
10  1.401087 3.639808 -1.202138  -1.540488 -1.785755 0.694509
11  -0.000003 2.810954 0.000031  -0.256295 -0.000000 -0.000000
12  1.335650 3.182116 1.418060  0.550147 -1.251595 -1.415244
13  0.000005 2.663273 0.000036  -0.256296 -0.000001 0.000004
14  1.344776 1.881163 3.809576  0.690288 -1.203082 -1.477335
15  0.000004 2.315670 -0.000058  -0.256295 0.000000 0.000000
16  -0.000080 9.722961 0.000003  -0.179314 0.564005 -0.092804
17  0.000115 8.540302 0.000034  -0.107005 0.054189 0.002660
18  12.344646 -14.394218 -7.586400  -0.196989 -2.910743 1.372216
19  0.886134 -10.472036 -0.851661  1.133868 -0.433418 -1.888044
20  9.380621 0.000344 11.731744  -0.162534 0.167718 0.095543
21  3.478570 0.000086 7.248108  0.147395 0.393017 0.346174
22  3.549941 0.000129 4.439691  -2.068391 0.412720 -0.590754
time 29
0  -1.000000 0.000000 -70.000000  1.570795 0.000003 -0.000003
1  -0.000000 69.352837 -0.571241  -2.270129 0.000000 0.000000
2  -1.549380 -5.102890 -4.074760  -0.656185 -2.351411 1.692834
3  -0.652055 16.733515 32.231525  0.826555 0.352969 2.927789
4  0.000283 20.109329 0.000069  -1.087451 0.056778 0.026955
5  -0.000165 19.941738 0.000017  -0.442700 1.017367 -0.022885
6  2.899842 -0.471065 -4.331211  -0.024483 -0.559877 -0.709301
7  -0.000041 2.543312 0.000033  0.221027 0.000000 0.000000
8  1.551382 3.956609 -3.900822  -0.911628 -1.774019 0.020869
9  0.000002 2.741427 -0.000014  -0.188425 0.000000 0.000000
10  1.401081 3.639806 -1.202135  -1.573175 -1.785755 0.694520
11  -0.000001 2.810949 0.000034  -0.256295 -0.000000 -0.000000
12  1.335647 3.182113 1.418063  0.517459 -1.251595 -1.415244
13  0.000003 2.663280 0.000033  -0.256296 -0.000001 0.000004
14  1.344774 1.881160 3.809577  0.657619 -1.203082 -1.477335
15  0.000002 2.315672 -0.000059  -0.256295 0.000000 -0.000000
16  -0.000082 9.722961 0.000003  -0.179626 0.566730 -0.093391
17  0.000114 8.540302 0.000027  -0.107005 0.054189 0.002660
18  12.344646 -14.394218 -7.586400  -0.196989 -2.910743 1.372216
19  0.886134 -10.472036 -0.851661  1.133868 -0.433418 -1.888044
20  9.380621 0.000344 11.731744  -0.162534 0.167718 0.095543
21  3.478570 0.000086 7.248108  0.147395 0.393017 0.346174
22  3.549941 0.000129 4.439691  -2.068391 0.412720 -0.590754
time 30
0  -1.000000 0.000000 -70.000000  1.570795 0.000003 -0.000003
1  -0.000000 69.352837 -0.571241  -2.270129 0.000000 0.000000
2  -1.549380 -5.102890 -4.074760  -0.656185 -2.351411 1.692834
3  -0.995812 16.796015 32.184643  0.836513 0.346034 2.942939
4  0.000279 20.109335 0.000074  -1.073440 0.056742 0.026608
5  -0.000165 19.941740 0.000021  -0.427347 1.022589 0.009920
6  2.899842 -0.471064 -4.331214  0.006243 -0.559877 -0.709301
7  -0.000043 2.543312 0.000037  0.221027 -0.000000 -0.000000
8  1.551378 3.956612 -3.900825  -0.941457 -1.774019 0.020869
9  -0.000001 2.741424 -0.000013  -0.188425 0.000000 0.000000
10  1.401082 3.639807 -1.202137  -1.603026 -1.785755 0.694509
11  -0.000003 2.810954 0.000027  -0.256295 -0.000000 -0.000000
12  1.335647 3.182117 1.418060  0.487606 -1.251595 -1.415244
13  0.000004 2.663274 0.000040  -0.256296 -0.000001 0.000004
14  1.344773 1.881164 3.809575  0.627751 -1.203082 -1.477335
15  0.000005 2.315664 -0.000056  -0.256295 0.000000 -0.000000
16  -0.000083 9.722965 0.000005  -0.179626 0.566730 -0.093391
17  0.000115 8.540299 0.000025  -0.107005 0.054189 0.002660
18  12.344646 -14.394218 -7.586400  -0.196989 -2.910743 1.372216
19  0.886134 -10.472036 -0.851661  1.133868 -0.433418 -1.888044
20  9.380621 0.000344 11.731744  -0.162534 0.167718 0.095543
21  3.478570 0.000086 7.248108  0.147395 0.393017 0.346174
22  3.549941 0.000129 4.439691  -2.068391 0.412720 -0.590754
time 31
0  -1.000000 0.000000 -70.000000  1.570795 0.000003 -0.000003
1  -0.000000 69.352837 -0.571241  -2.270129 0.000000 0.000000
2  -1.549380 -5.102890 -4.074760  -0.656185 -2.351411 1.692834
3  -1.323950 16.858519 32.137768  0.847099 0.339100 2.957975
4  0.000282 20.109337 0.000074  -1.056786 0.056694 0.026188
5  -0.000165 19.941742 0.000023  -0.423215 1.022937 0.030305
6  2.899851 -0.471068 -4.331212  0.031625 -0.559877 -0.709301
7  -0.000039 2.543315 0.000031  0.221027 0.000000 0.000000
8  1.551390 3.956605 -3.900823  -0.966096 -1.774019 0.020869
9  -0.000002 2.741429 -0.000015  -0.188425 -0.000000 -0.000000
10  1.401092 3.639802 -1.202136  -1.627685 -1.785755 0.694509
11  -0.000001 2.810956 0.000033  -0.256295 -0.000000 -0.000000
12  1.335654 3.182110 1.418062  0.462946 -1.251595 -1.415244
13  0.000003 2.663280 0.000034  -0.256296 -0.000001 0.000004
14  1.344782 1.881157 3.809576  0.603092 -1.203082 -1.477335
15  0.000003 2.315667 -0.000051  -0.256295 0.000000 -0.000000
16  -0.000083 9.722963 0.000005  -0.179374 0.564503 -0.092912
17  0.000115 8.540303 0.000029  -0.107005 0.054189 0.002660
18  12.344646 -14.394218 -7.586400  -0.196989 -2.910743 1.372216
19  0.886134 -10.472036 -0.851661  1.133868 -0.433418 -1.888044
20  9.380621 0.000344 11.731744  -0.162534 0.167718 0.095543
21  3.478570 0.000086 7.248108  0.147395 0.393017 0.346174
22  3.549941 0.000129 4.439691  -2.068391 0.412720 -0.590754
time 32
0  -1.000000 0.000000 -70.000000  1.570795 0.000003 -0.000003
1  -0.000000 69.352837 -0.571241  -2.270129 0.000000 0.000000
2  -1.549380 -5.102890 -4.074760  -0.656185 -2.351411 1.692834
3  -1.632552 16.917112 32.098709  0.856967 0.332243 2.972497
4  0.000280 20.109333 0.000076  -1.036332 0.056634 0.025685
5  -0.000167 19.941738 0.000014  -0.431223 1.019412 0.036966
6  2.899842 -0.471063 -4.331216  0.048875 -0.559877 -0.709301
7  -0.000043 2.543310 0.000031  0.221027 0.000000 0.000000
8  1.551379 3.956611 -3.900825  -0.982827 -1.774019 0.020868
9  -0.000000 2.741429 -0.000016  -0.188425 -0.000000 0.000000
10  1.401086 3.639807 -1.202139  -1.644449 -1.785755 0.694509
11  -0.000001 2.810953 0.000031  -0.256295 -0.000000 -0.000000
12  1.335646 3.182113 1.418059  0.446181 -1.251595 -1.415244
13  0.000004 2.663278 0.000040  -0.256296 -0.000001 0.000004
14  1.344773 1.881164 3.809575  0.586329 -1.203082 -1.477335
15  0.000005 2.315665 -0.000052  -0.256295 0.000000 0.000000
16  -0.000086 9.722961 0.000000  -0.178931 0.560665 -0.092097
17  0.000115 8.540302 0.000031  -0.107005 0.054189 0.002660
18  12.344646 -14.394218 -7.586400  -0.196989 -2.910743 1.372216
19  0.886134 -10.472036 -0.851661  1.133868 -0.433418 -1.888044
20  9.380621 0.000344 11.731744  -0.162534 0.167718 0.095543
21  3.478570 0.000086 7.248108  0.147395 0.393017 0.346174
22  3.549941 0.000129 4.439691  -2.068391 0.412720 -0.590754
time 33
0  -1.000000 0.000000 -70.000000  1.570795 0.000003 -0.000003
1  -0.000000 69.352837 -0.571241  -2.270129 0.000000 0.000000
2  -1.549380 -5.102890 -4.074760  -0.656185 -2.351411 1.692834
3  -1.917715 16.967897 32.059639  0.864413 0.325735 2.985932
4  0.000284 20.109329 0.000076  -1.011304 0.056574 0.025062
5  -0.000164 19.941742 0.000020  -0.450759 1.012885 0.030205
6  2.899845 -0.471064 -4.331215  0.055205 -0.559877 -0.709301
7  -0.000042 2.543314 0.000032  0.221027 -0.000000 -0.000000
8  1.551384 3.956609 -3.900825  -0.988978 -1.774019 0.020869
9  -0.000001 2.741431 -0.000012  -0.188425 -0.000000 -0.000000
10  1.401089 3.639807 -1.202138  -1.650597 -1.785755 0.694509
11  -0.000004 2.810955 0.000026  -0.256295 -0.000000 -0.000000
12  1.335648 3.182115 1.418059  0.440033 -1.251595 -1.415244
13  0.000005 2.663277 0.000034  -0.256296 -0.000001 0.000004
14  1.344773 1.881162 3.809574  0.580181 -1.203082 -1.477335
15  0.000006 2.315668 -0.000058  -0.256295 0.000000 -0.000000
16  -0.000083 9.722963 0.000005  -0.178392 0.555919 -0.091078
17  0.000115 8.540301 0.000030  -0.107005 0.054189 0.002660
18  12.344646 -14.394218 -7.586400  -0.196989 -2.910743 1.372216
19  0.886134 -10.472036 -0.851661  1.133868 -0.433418 -1.888044
20  9.380621 0.000344 11.731744  -0.162534 0.167718 0.095543
21  3.478570 0.000086 7.248108  0.147395 0.393017 0.346174
22  3.549941 0.000129 4.439691  -2.068391 0.412720 -0.590754
time 34
0  -1.000000 0.000000 -70.000000  1.570795 0.000003 -0.000003
1  -0.000000 69.352837 -0.571241  -2.270129 0.000000 0.000000
2  -1.549380 -5.102890 -4.074760  -0.656185 -2.351411 1.692834
3  -2.175537 17.018677 32.024483  0.868181 0.319730 2.997995
4  0.000282 20.109331 0.000077  -0.980639 0.056490 0.024307
5  -0.000163 19.941738 0.000021  -0.480802 1.004050 0.011122
6  2.899853 -0.471068 -4.331213  0.042637 -0.559877 -0.709301
7  -0.000039 2.543312 0.000031  0.221027 0.000000 -0.000000
8  1.551387 3.956609 -3.900823  -0.976791 -1.774019 0.020869
9  0.000001 2.741427 -0.000016  -0.188425 0.000000 -0.000000
10  1.401091 3.639802 -1.202137  -1.638383 -1.785755 0.694521
11  -0.000000 2.810954 0.000032  -0.256295 -0.000000 -0.000000
12  1.335652 3.182113 1.418062  0.452231 -1.251595 -1.415244
13  0.000003 2.663275 0.000031  -0.256296 -0.000001 0.000004
14  1.344781 1.881158 3.809575  0.592378 -1.203082 -1.477335
15  0.000006 2.315670 -0.000054  -0.256295 0.000000 -0.000000
16  -0.000082 9.722965 0.000005  -0.177828 0.550879 -0.090011
17  0.000116 8.540298 0.000029  -0.107005 0.054189 0.002660
18  12.344646 -14.394218 -7.586400  -0.196989 -2.910743 1.372216
19  0.886134 -10.472036 -0.851661  1.133868 -0.433418 -1.888044
20  9.380621 0.000344 11.731744  -0.162534 0.167718 0.095543
21  3.478570 0.000086 7.248108  0.147395 0.393017 0.346174
22  3.549941 0.000129 4.439691  -2.068391 0.412720 -0.590754
time 35
0  -1.000000 0.000000 -70.000000  1.570795 0.000003 -0.000003
1  -0.000000 69.352837 -0.571241  -2.270129 0.000000 0.000000
2  -1.549380 -5.102890 -4.074760  -0.656185 -2.351411 1.692834
3  -2.406012 17.057743 31.993235  0.866925 0.314346 3.008343
4  0.000282 20.109335 0.000078  -0.943467 0.056394 0.023384
5  -0.000165 19.941738 0.000021  -0.519618 0.993302 -0.018678
6  2.899843 -0.471066 -4.331211  0.010140 -0.559877 -0.709301
7  -0.000039 2.543313 0.000023  0.221027 -0.000000 0.000000
8  1.551380 3.956609 -3.900821  -0.945238 -1.774019 0.020869
9  -0.000002 2.741425 -0.000013  -0.188425 0.000000 -0.000000
10  1.401089 3.639803 -1.202135  -1.606801 -1.785755 0.694509
11  -0.000000 2.810953 0.000028  -0.256295 -0.000000 -0.000000
12  1.335646 3.182113 1.418064  0.483831 -1.251595 -1.415244
13  0.000005 2.663277 0.000034  -0.256296 -0.000001 0.000004
14  1.344773 1.881161 3.809575  0.623976 -1.203082 -1.477335
15  0.000006 2.315666 -0.000056  -0.256295 0.000000 -0.000000
16  -0.000083 9.722967 0.000003  -0.177301 0.546045 -0.089005
17  0.000114 8.540303 0.000032  -0.107005 0.054189 0.002660
18  12.344646 -14.394218 -7.586400  -0.196989 -2.910743 1.372216
19  0.886134 -10.472036 -0.851661  1.133868 -0.433418 -1.888044
20  9.380621 0.000344 11.731744  -0.162534 0.167718 0.095543
21  3.478570 0.000086 7.248108  0.147395 0.393017 0.346174
22  3.549941 0.000129 4.439691  -2.068391 0.412720 -0.590754
time 36
0  -1.000000 0.000000 -70.000000  1.570795 0.000003 -0.000003
1  -0.000000 69.352837 -0.571241  -2.270129 0.000000 0.000000
2  -1.549380 -5.102890 -4.074760  -0.656185 -2.351411 1.692834
3  -2.601331 17.096807 31.965887  0.859568 0.309813 3.016576
4  0.000281 20.109335 0.000078  -0.899273 0.056274 0.022281
5  -0.000163 19.941740 0.000024  -0.564708 0.980943 -0.057092
6  2.899850 -0.471067 -4.331212  -0.034001 -0.559877 -0.709301
7  -0.000041 2.543313 0.000031  0.221027 -0.000000 0.000000
8  1.551385 3.956607 -3.900822  -0.902393 -1.774019 0.020869
9  0.000000 2.741426 -0.000015  -0.188425 0.000000 -0.000000
10  1.401095 3.639802 -1.202138  -1.563926 -1.785755 0.694509
11  -0.000001 2.810953 0.000028  -0.256295 -0.000000 -0.000000
12  1.335652 3.182112 1.418061  0.526707 -1.251595 -1.415244
13  0.000003 2.663276 0.000042  -0.256296 -0.000001 0.000004
14  1.344779 1.881159 3.809574  0.666849 -1.203082 -1.477335
15  0.000006 2.315667 -0.000054  -0.256295 0.000000 -0.000000
16  -0.000085 9.722965 0.000005  -0.176858 0.541914 -0.088130
17  0.000114 8.540301 0.000035  -0.107005 0.054189 0.002660
18  12.344646 -14.394218 -7.586400  -0.196989 -2.910743 1.372216
19  0.886134 -10.472036 -0.851661  1.133868 -0.433418 -1.888044
20  9.380621 0.000344 11.731744  -0.162534 0.167718 0.095543
21  3.478570 0.000086 7.248108  0.147395 0.393017 0.346174
22  3.549941 0.000129 4.439691  -2.068391 0.412720 -0.590754
time 37
0  -1.000000 0.000000 -70.000000  1.570795 0.000003 -0.000003
1  -0.000000 69.352837 -0.571241  -2.270129 0.000000 0.000000
2  -1.549380 -5.102890 -4.074760  -0.656185 -2.351411 1.692834
3  -2.757586 17.124151 31.942450  0.844497 0.306249 3.022465
4  0.000282 20.109333 0.000070  -0.846608 0.056143 0.020987
5  -0.000169 19.941744 0.000019  -0.614644 0.966756 -0.102569
6  2.899845 -0.471061 -4.331213  -0.082224 -0.559877 -0.709301
7  -0.000042 2.543311 0.000031  0.221027 0.000000 0.000000
8  1.551379 3.956616 -3.900821  -0.855585 -1.774019 0.020869
9  -0.000003 2.741429 -0.000016  -0.188425 0.000000 -0.000000
10  1.401088 3.639811 -1.202137  -1.517048 -1.785755 0.694509
11  -0.000003 2.810955 0.000026  -0.256295 -0.000000 -0.000000
12  1.335650 3.182116 1.418061  0.573571 -1.251595 -1.415244
13  0.000003 2.663276 0.000042  -0.256296 -0.000001 0.000004
14  1.344772 1.881165 3.809574  0.713727 -1.203082 -1.477335
15  0.000004 2.315665 -0.000049  -0.256295 0.000000 -0.000000
16  -0.000087 9.722968 0.000005  -0.176510 0.538633 -0.087447
17  0.000114 8.540302 0.000030  -0.107005 0.054189 0.002660
18  12.344646 -14.394218 -7.586400  -0.196989 -2.910743 1.372216
19  0.886134 -10.472036 -0.851661  1.133868 -0.433418 -1.888044
20  9.380621 0.000344 11.731744  -0.162534 0.167718 0.095543
21  3.478570 0.000086 7.248108  0.147395 0.393017 0.346174
22  3.549941 0.000129 4.439691  -2.068391 0.412720 -0.590754
time 38
0  -1.000000 0.000000 -70.000000  1.570795 0.000003 -0.000003
1  -0.000000 69.352837 -0.571241  -2.270129 0.000000 0.000000
2  -1.549380 -5.102890 -4.074760  -0.656185 -2.351411 1.692834
3  -2.874777 17.147589 31.926825  0.820275 0.303770 3.025781
4  0.000280 20.109337 0.000075  -0.783763 0.055975 0.019429
5  -0.000167 19.941742 0.000021  -0.667997 0.950480 -0.153805
6  2.899838 -0.471066 -4.331210  -0.126596 -0.559877 -0.709301
7  -0.000039 2.543312 0.000028  0.221027 -0.000000 -0.000000
8  1.551378 3.956609 -3.900822  -0.812524 -1.774019 0.020869
9  -0.000000 2.741427 -0.000013  -0.188425 0.000000 -0.000000
10  1.401088 3.639803 -1.202136  -1.473945 -1.785755 0.694509
11  0.000001 2.810953 0.000026  -0.256295 0.000000 -0.000000
12  1.335647 3.182112 1.418062  0.616677 -1.251595 -1.415244
13  0.000001 2.663274 0.000032  -0.256296 -0.000001 0.000004
14  1.344774 1.881161 3.809575  0.756831 -1.203082 -1.477335
15  0.000005 2.315669 -0.000051  -0.256295 0.000000 -0.000000
16  -0.000086 9.722960 0.000001  -0.176246 0.536230 -0.086955
17  0.000115 8.540302 0.000031  -0.107005 0.054189 0.002660
18  12.344646 -14.394218 -7.586400  -0.196989 -2.910743 1.372216
19  0.886134 -10.472036 -0.851661  1.133868 -0.433418 -1.888044
20  9.380621 0.000344 11.731744  -0.162534 0.167718 0.095543
21  3.478570 0.000086 7.248108  0.147395 0.393017 0.346174
22  3.549941 0.000129 4.439691  -2.068391 0.412720 -0.590754
time 39
0  -1.000000 0.000000 -70.000000  1.570795 0.000003 -0.000003
1  -0.000000 69.352837 -0.571241  -2.270129 0.000000 0.000000
2  -1.549380 -5.102890 -4.074760  -0.656185 -2.351411 1.692834
3  -2.948998 17.159311 31.919018  0.785108 0.302453 3.026410
4  0.000282 20.109333 0.000078  -0.708679 0.055771 0.017559
5  -0.000164 19.941744 0.000021  -0.723849 0.931463 -0.209750
6  2.899847 -0.471064 -4.331210  -0.158878 -0.559877 -0.709301
7  -0.000040 2.543312 0.000035  0.221027 0.000000 -0.000000
8  1.551379 3.956613 -3.900820  -0.781203 -1.774019 0.020869
9  -0.000000 2.741425 -0.000014  -0.188425 0.000000 0.000000
10  1.401093 3.639807 -1.202135  -1.442577 -1.785755 0.694521
11  -0.000002 2.810954 0.000030  -0.256295 -0.000000 -0.000000
12  1.335654 3.182113 1.418062  0.648047 -1.251595 -1.415244
13  0.000003 2.663272 0.000031  -0.256296 -0.000001 0.000004
14  1.344778 1.881161 3.809577  0.788198 -1.203082 -1.477335
15  0.000007 2.315668 -0.000058  -0.256295 0.000000 -0.000000
16  -0.000083 9.722969 0.000006  -0.176079 0.534590 -0.086608
17  0.000114 8.540304 0.000037  -0.107005 0.054189 0.002660
18  12.344646 -14.394218 -7.586400  -0.196989 -2.910743 1.372216
19  0.886134 -10.472036 -0.851661  1.133868 -0.433418 -1.888044
20  9.380621 0.000344 11.731744  -0.162534 0.167718 0.095543
21  3.478570 0.000086 7.248108  0.147395 0.393017 0.346174
22  3.549941 0.000129 4.439691  -2.068391 0.412720 -0.590754
time 40
0  -1.000000 0.000000 -70.000000  1.570795 0.000003 -0.000003
1  -0.000000 69.352837 -0.571241  -2.270129 0.000000 0.000000
2  -1.549380 -5.102890 -4.074760  -0.656185 -2.351411 1.692834
3  -2.972436 17.167122 31.915106  0.735678 0.302336 3.024294
4  0.000285 20.109333 0.000073  -0.615524 0.055531 0.015258
5  -0.000169 19.941740 0.000024  -0.783833 0.907877 -0.271304
6  2.899845 -0.471064 -4.331210  -0.171430 -0.559877 -0.709301
7  -0.000038 2.543314 0.000029  0.221027 -0.000000 -0.000000
8  1.551381 3.956612 -3.900820  -0.769016 -1.774019 0.020869
9  0.000003 2.741430 -0.000020  -0.188425 0.000000 0.000000
10  1.401090 3.639807 -1.202134  -1.430379 -1.785755 0.694509
11  -0.000004 2.810951 0.000031  -0.256295 -0.000000 -0.000000
12  1.335648 3.182116 1.418065  0.660245 -1.251595 -1.415244
13  0.000002 2.663273 0.000038  -0.256296 -0.000001 0.000004
14  1.344774 1.881164 3.809578  0.800396 -1.203082 -1.477335
15  0.000002 2.315668 -0.000056  -0.256295 0.000000 0.000000
16  -0.000085 9.722963 0.000004  -0.175947 0.533300 -0.086356
17  0.000115 8.540302 0.000033  -0.107005 0.054189 0.002660
18  12.344646 -14.394218 -7.586400  -0.196989 -2.910743 1.372216
19  0.886134 -10.472036 -0.851661  1.133868 -0.433418 -1.888044
20  9.380621 0.000344 11.731744  -0.162534 0.167718 0.095543
21  3.478570 0.000086 7.248108  0.147395 0.393017 0.346174
22  3.549941 0.000129 4.439691  -2.068391 0.412720 -0.590754
end
