version 1
nodes
0 "root" -1
end
skeleton
time 0
0 0 0 0 0 0 0
end
triangles
bollards
0  -1.668934 -0.000002 38.454426  -0.281701 0.001037 0.959502  0.976429 0.847043 0
0  -1.445340 -0.834469 38.429440  -0.231402 -0.151919 0.960923  0.985447 0.857311 0
0  -0.066220 0.185806 38.576923  0.013695 0.019057 0.999725  0.969290 0.883041 0
bollards
0  0.834467 -1.445342 38.439781  0.147055 -0.216766 0.965084  0.985430 0.914073 0
0  1.445340 -0.834469 38.374767  0.237513 -0.110159 0.965118  0.976476 0.924835 0
0  -0.066220 0.185806 38.576923  0.013695 0.019057 0.999725  0.969290 0.883041 0
bollards
0  1.445340 -0.834469 38.374767  0.237513 -0.110159 0.965118  0.976476 0.924835 0
0  1.668934 -0.000002 38.374767  0.242724 -0.005932 0.970077  0.965992 0.924831 0
0  -0.066220 0.185806 38.576923  0.013695 0.019057 0.999725  0.969290 0.883041 0
bollards
0  0.000000 2.160618 38.176243  0.015550 0.333688 0.942555  0.945438 0.871886 0
0  0.071407 1.486675 38.387665  0.019523 0.238657 0.970908  0.953581 0.878034 0
0  1.080310 1.871150 38.176243  0.168821 0.288170 0.942580  0.945421 0.899520 0
bollards
0  1.080310 1.871150 38.176243  0.168821 0.288170 0.942580  0.945421 0.899520 0
0  0.071407 1.486675 38.387665  0.019523 0.238657 0.970908  0.953581 0.878034 0
0  0.905874 1.263080 38.387665  0.109660 0.209646 0.971609  0.953595 0.899014 0
bollards
0  0.905874 1.263080 38.387665  0.109660 0.209646 0.971609  0.953595 0.899014 0
0  0.071407 1.486675 38.387665  0.019523 0.238657 0.970908  0.953581 0.878034 0
0  -0.066220 0.185806 38.576923  0.013695 0.019057 0.999725  0.969290 0.883041 0
bollards
0  1.305922 0.830330 38.414501  0.200108 0.124703 0.971805  0.957461 0.911031 0
0  0.905874 1.263080 38.387665  0.109660 0.209646 0.971609  0.953595 0.899014 0
0  -0.066220 0.185806 38.576923  0.013695 0.019057 0.999725  0.969290 0.883041 0
bollards
0  1.668934 -0.000002 38.374767  0.242724 -0.005932 0.970077  0.965992 0.924831 0
0  1.305922 0.830330 38.414501  0.200108 0.124703 0.971805  0.957461 0.911031 0
0  -0.066220 0.185806 38.576923  0.013695 0.019057 0.999725  0.969290 0.883041 0
bollards
0  1.668934 -0.000002 38.374767  0.242724 -0.005932 0.970077  0.965992 0.924831 0
0  1.871152 1.080308 38.176243  0.308062 0.186453 0.932916  0.952331 0.923551 0
0  1.305922 0.830330 38.414501  0.200108 0.124703 0.971805  0.957461 0.911031 0
bollards
0  2.160620 -0.000002 38.176243  0.367624 0.001745 0.929973  0.964295 0.937393 0
0  1.871152 1.080308 38.176243  0.308062 0.186453 0.932916  0.952331 0.923551 0
0  1.668934 -0.000002 38.374767  0.242724 -0.005932 0.970077  0.965992 0.924831 0
bollards
0  1.445340 -0.834469 38.374767  0.237513 -0.110159 0.965118  0.976476 0.924835 0
0  2.160620 -0.000002 38.176243  0.367624 0.001745 0.929973  0.964295 0.937393 0
0  1.668934 -0.000002 38.374767  0.242724 -0.005932 0.970077  0.965992 0.924831 0
bollards
0  1.871152 -1.080312 38.176243  0.352946 -0.195002 0.915098  0.978142 0.937436 0
0  2.160620 -0.000002 38.176243  0.367624 0.001745 0.929973  0.964295 0.937393 0
0  1.445340 -0.834469 38.374767  0.237513 -0.110159 0.965118  0.976476 0.924835 0
bollards
0  1.871152 -1.080312 38.176243  0.352946 -0.195002 0.915098  0.978142 0.937436 0
0  1.445340 -0.834469 38.374767  0.237513 -0.110159 0.965118  0.976476 0.924835 0
0  1.080310 -1.871154 38.176243  0.225683 -0.378118 0.897827  0.990210 0.923691 0
bollards
0  1.080310 -1.871154 38.176243  0.225683 -0.378118 0.897827  0.990210 0.923691 0
0  1.445340 -0.834469 38.374767  0.237513 -0.110159 0.965118  0.976476 0.924835 0
0  0.834467 -1.445342 38.439781  0.147055 -0.216766 0.965084  0.985430 0.914073 0
bollards
0  0.000000 -1.668936 38.425926  -0.010878 -0.271331 0.962425  0.990649 0.896158 0
0  1.080310 -1.871154 38.176243  0.225683 -0.378118 0.897827  0.990210 0.923691 0
0  0.834467 -1.445342 38.439781  0.147055 -0.216766 0.965084  0.985430 0.914073 0
bollards
0  0.000000 -1.668936 38.425926  -0.010878 -0.271331 0.962425  0.990649 0.896158 0
0  0.834467 -1.445342 38.439781  0.147055 -0.216766 0.965084  0.985430 0.914073 0
0  -0.066220 0.185806 38.576923  0.013695 0.019057 0.999725  0.969290 0.883041 0
bollards
0  -0.834467 -1.445341 38.410461  -0.135098 -0.236470 0.962201  0.990698 0.875326 0
0  0.000000 -1.668936 38.425926  -0.010878 -0.271331 0.962425  0.990649 0.896158 0
0  -0.066220 0.185806 38.576923  0.013695 0.019057 0.999725  0.969290 0.883041 0
bollards
0  -1.445340 -0.834469 38.429440  -0.231402 -0.151919 0.960923  0.985447 0.857311 0
0  -0.834467 -1.445341 38.410461  -0.135098 -0.236470 0.962201  0.990698 0.875326 0
0  -0.066220 0.185806 38.576923  0.013695 0.019057 0.999725  0.969290 0.883041 0
bollards
0  -1.871152 -1.080312 38.176243  -0.395738 -0.234677 0.887873  0.990247 0.847769 0
0  -0.834467 -1.445341 38.410461  -0.135098 -0.236470 0.962201  0.990698 0.875326 0
0  -1.445340 -0.834469 38.429440  -0.231402 -0.151919 0.960923  0.985447 0.857311 0
bollards
0  -1.871152 -1.080312 38.176243  -0.395738 -0.234677 0.887873  0.990247 0.847769 0
0  -1.445340 -0.834469 38.429440  -0.231402 -0.151919 0.960923  0.985447 0.857311 0
0  -2.160620 -0.000002 38.176243  -0.476084 -0.000925 0.879400  0.978210 0.833740 0
bollards
0  -2.160620 -0.000002 38.176243  -0.476084 -0.000925 0.879400  0.978210 0.833740 0
0  -1.445340 -0.834469 38.429440  -0.231402 -0.151919 0.960923  0.985447 0.857311 0
0  -1.668934 -0.000002 38.454426  -0.281701 0.001037 0.959502  0.976429 0.847043 0
bollards
0  1.871152 1.080308 38.176243  0.308062 0.186453 0.932916  0.952331 0.923551 0
0  0.905874 1.263080 38.387665  0.109660 0.209646 0.971609  0.953595 0.899014 0
0  1.305922 0.830330 38.414501  0.200108 0.124703 0.971805  0.957461 0.911031 0
bollards
0  1.080310 1.871150 38.176243  0.168821 0.288170 0.942580  0.945421 0.899520 0
0  0.905874 1.263080 38.387665  0.109660 0.209646 0.971609  0.953595 0.899014 0
0  1.871152 1.080308 38.176243  0.308062 0.186453 0.932916  0.952331 0.923551 0
bollards
0  -1.080310 -1.871154 38.176243  -0.221838 -0.385080 0.895824  0.997150 0.871897 0
0  -0.834467 -1.445341 38.410461  -0.135098 -0.236470 0.962201  0.990698 0.875326 0
0  -1.871152 -1.080312 38.176243  -0.395738 -0.234677 0.887873  0.990247 0.847769 0
bollards
0  -1.080310 -1.871154 38.176243  -0.221838 -0.385080 0.895824  0.997150 0.871897 0
0  0.000000 -2.160622 38.176243  -0.003583 -0.452019 0.892001  0.997153 0.899651 0
0  -0.834467 -1.445341 38.410461  -0.135098 -0.236470 0.962201  0.990698 0.875326 0
bollards
0  -0.834467 -1.445341 38.410461  -0.135098 -0.236470 0.962201  0.990698 0.875326 0
0  0.000000 -2.160622 38.176243  -0.003583 -0.452019 0.892001  0.997153 0.899651 0
0  0.000000 -1.668936 38.425926  -0.010878 -0.271331 0.962425  0.990649 0.896158 0
bollards
0  0.000000 -2.160622 38.176243  -0.003583 -0.452019 0.892001  0.997153 0.899651 0
0  1.080310 -1.871154 38.176243  0.225683 -0.378118 0.897827  0.990210 0.923691 0
0  0.000000 -1.668936 38.425926  -0.010878 -0.271331 0.962425  0.990649 0.896158 0
bollards
0  -1.466072 0.835117 38.425415  -0.235121 0.159261 0.958830  0.966124 0.846395 0
0  -2.160620 -0.000002 38.176243  -0.476084 -0.000925 0.879400  0.978210 0.833740 0
0  -1.668934 -0.000002 38.454426  -0.281701 0.001037 0.959502  0.976429 0.847043 0
bollards
0  -1.466072 0.835117 38.425415  -0.235121 0.159261 0.958830  0.966124 0.846395 0
0  -1.668934 -0.000002 38.454426  -0.281701 0.001037 0.959502  0.976429 0.847043 0
0  -0.066220 0.185806 38.576923  0.013695 0.019057 0.999725  0.969290 0.883041 0
bollards
0  -0.796570 1.474304 38.397362  -0.102768 0.237421 0.965955  0.956540 0.857848 0
0  -1.466072 0.835117 38.425415  -0.235121 0.159261 0.958830  0.966124 0.846395 0
0  -0.066220 0.185806 38.576923  0.013695 0.019057 0.999725  0.969290 0.883041 0
bollards
0  0.071407 1.486675 38.387665  0.019523 0.238657 0.970908  0.953581 0.878034 0
0  -0.796570 1.474304 38.397362  -0.102768 0.237421 0.965955  0.956540 0.857848 0
0  -0.066220 0.185806 38.576923  0.013695 0.019057 0.999725  0.969290 0.883041 0
bollards
0  0.000000 2.160618 38.176243  0.015550 0.333688 0.942555  0.945438 0.871886 0
0  -0.796570 1.474304 38.397362  -0.102768 0.237421 0.965955  0.956540 0.857848 0
0  0.071407 1.486675 38.387665  0.019523 0.238657 0.970908  0.953581 0.878034 0
bollards
0  -1.080310 1.871150 38.176243  -0.179227 0.346812 0.920651  0.952308 0.847825 0
0  -0.796570 1.474304 38.397362  -0.102768 0.237421 0.965955  0.956540 0.857848 0
0  0.000000 2.160618 38.176243  0.015550 0.333688 0.942555  0.945438 0.871886 0
bollards
0  -1.080310 1.871150 38.176243  -0.179227 0.346812 0.920651  0.952308 0.847825 0
0  -1.466072 0.835117 38.425415  -0.235121 0.159261 0.958830  0.966124 0.846395 0
0  -0.796570 1.474304 38.397362  -0.102768 0.237421 0.965955  0.956540 0.857848 0
bollards
0  -1.871152 1.080308 38.176243  -0.392758 0.233728 0.889445  0.964296 0.833831 0
0  -1.466072 0.835117 38.425415  -0.235121 0.159261 0.958830  0.966124 0.846395 0
0  -1.080310 1.871150 38.176243  -0.179227 0.346812 0.920651  0.952308 0.847825 0
bollards
0  -1.871152 1.080308 38.176243  -0.392758 0.233728 0.889445  0.964296 0.833831 0
0  -2.160620 -0.000002 38.176243  -0.476084 -0.000925 0.879400  0.978210 0.833740 0
0  -1.466072 0.835117 38.425415  -0.235121 0.159261 0.958830  0.966124 0.846395 0
bollards
0  2.427664 -0.000002 38.106251  0.707097 -0.000008 0.707117  0.894090 0.938819 0
0  2.041802 1.178833 38.176243  0.612375 0.353552 0.707105  0.909360 0.941220 0
0  2.357671 -0.000002 38.176243  0.707098 -0.000001 0.707116  0.894094 0.941220 0
bollards
0  2.102418 1.213829 38.106251  0.612379 0.353545 0.707105  0.909365 0.938820 0
0  2.041802 1.178833 38.176243  0.612375 0.353552 0.707105  0.909360 0.941220 0
0  2.427664 -0.000002 38.106251  0.707097 -0.000008 0.707117  0.894090 0.938819 0
bollards
0  2.041802 1.178833 38.176243  0.612375 0.353552 0.707105  0.909360 0.941220 0
0  2.102418 1.213829 38.106251  0.612379 0.353545 0.707105  0.909365 0.938820 0
0  1.178835 2.041800 38.176243  0.353549 0.612368 0.707113  0.924609 0.941207 0
bollards
0  1.178835 2.041800 38.176243  0.353549 0.612368 0.707113  0.924609 0.941207 0
0  2.102418 1.213829 38.106251  0.612379 0.353545 0.707105  0.909365 0.938820 0
0  1.213832 2.102416 38.106251  0.353556 0.612364 0.707113  0.924639 0.938823 0
bollards
0  1.178835 2.041800 38.176243  0.353549 0.612368 0.707113  0.924609 0.941207 0
0  1.213832 2.102416 38.106251  0.353556 0.612364 0.707113  0.924639 0.938823 0
0  0.000000 2.357668 38.176243  -0.000004 0.707101 0.707113  0.939697 0.941260 0
bollards
0  0.000000 2.357668 38.176243  -0.000004 0.707101 0.707113  0.939697 0.941260 0
0  1.213832 2.102416 38.106251  0.353556 0.612364 0.707113  0.924639 0.938823 0
0  0.000000 2.427661 38.106251  0.000003 0.707101 0.707113  0.939919 0.938860 0
bollards
0  0.000000 2.357668 38.176243  -0.000004 0.707101 0.707113  0.756822 0.941259 0
0  0.000000 2.427661 38.106251  0.000003 0.707101 0.707113  0.756610 0.938859 0
0  -1.178835 2.041800 38.176243  -0.353557 0.612366 0.707111  0.771922 0.941205 0
bollards
0  -1.178835 2.041800 38.176243  -0.353557 0.612366 0.707111  0.771922 0.941205 0
0  0.000000 2.427661 38.106251  0.000003 0.707101 0.707113  0.756610 0.938859 0
0  -1.213831 2.102416 38.106251  -0.353549 0.612370 0.707111  0.771890 0.938822 0
bollards
0  -1.178835 2.041800 38.176243  -0.353557 0.612366 0.707111  0.771922 0.941205 0
0  -1.213831 2.102416 38.106251  -0.353549 0.612370 0.707111  0.771890 0.938822 0
0  -2.041802 1.178833 38.176243  -0.612377 0.353545 0.707107  0.787157 0.941219 0
bollards
0  -2.041802 1.178833 38.176243  -0.612377 0.353545 0.707107  0.787157 0.941219 0
0  -1.213831 2.102416 38.106251  -0.353549 0.612370 0.707111  0.771890 0.938822 0
0  -2.102418 1.213830 38.106251  -0.612372 0.353551 0.707108  0.787163 0.938819 0
bollards
0  -2.041802 1.178833 38.176243  -0.612377 0.353545 0.707107  0.787157 0.941219 0
0  -2.102418 1.213830 38.106251  -0.612372 0.353551 0.707108  0.787163 0.938819 0
0  -2.357670 -0.000002 38.176243  -0.707081 -0.000003 0.707132  0.802437 0.941219 0
bollards
0  -2.357670 -0.000002 38.176243  -0.707081 -0.000003 0.707132  0.802437 0.941219 0
0  -2.102418 1.213830 38.106251  -0.612372 0.353551 0.707108  0.787163 0.938819 0
0  -2.427663 -0.000002 38.106251  -0.707081 0.000004 0.707132  0.802439 0.938818 0
bollards
0  -2.357670 -0.000002 38.176243  -0.707081 -0.000003 0.707132  0.802437 0.941219 0
0  -2.427663 -0.000002 38.106251  -0.707081 0.000004 0.707132  0.802439 0.938818 0
0  -2.041802 -1.178837 38.176243  -0.612373 -0.353549 0.707109  0.817723 0.941219 0
bollards
0  -2.041802 -1.178837 38.176243  -0.612373 -0.353549 0.707109  0.817723 0.941219 0
0  -2.427663 -0.000002 38.106251  -0.707081 0.000004 0.707132  0.802439 0.938818 0
0  -2.102418 -1.213834 38.106251  -0.612376 -0.353544 0.707108  0.817714 0.938819 0
bollards
0  -2.041802 -1.178837 38.176243  -0.612373 -0.353549 0.707109  0.817723 0.941219 0
0  -2.102418 -1.213834 38.106251  -0.612376 -0.353544 0.707108  0.817714 0.938819 0
0  -1.178835 -2.041804 38.176243  -0.353549 -0.612367 0.707114  0.832993 0.941220 0
bollards
0  -1.178835 -2.041804 38.176243  -0.353549 -0.612367 0.707114  0.832993 0.941220 0
0  -2.102418 -1.213834 38.106251  -0.612376 -0.353544 0.707108  0.817714 0.938819 0
0  -1.213832 -2.102420 38.106251  -0.353556 -0.612363 0.707114  0.832989 0.938820 0
bollards
0  -1.178835 -2.041804 38.176243  -0.353549 -0.612367 0.707114  0.832993 0.941220 0
0  -1.213832 -2.102420 38.106251  -0.353556 -0.612363 0.707114  0.832989 0.938820 0
0  0.000000 -2.357672 38.176243  -0.000012 -0.707103 0.707111  0.848263 0.941224 0
bollards
0  0.000000 -2.357672 38.176243  -0.000012 -0.707103 0.707111  0.848263 0.941224 0
0  -1.213832 -2.102420 38.106251  -0.353556 -0.612363 0.707114  0.832989 0.938820 0
0  0.000000 -2.427665 38.106251  -0.000018 -0.707103 0.707111  0.848264 0.938822 0
bollards
0  0.000000 -2.357672 38.176243  -0.000012 -0.707103 0.707111  0.848263 0.941224 0
0  0.000000 -2.427665 38.106251  -0.000018 -0.707103 0.707111  0.848264 0.938822 0
0  1.178835 -2.041805 38.176243  0.353561 -0.612366 0.707108  0.863540 0.941220 0
bollards
0  1.178835 -2.041805 38.176243  0.353561 -0.612366 0.707108  0.863540 0.941220 0
0  0.000000 -2.427665 38.106251  -0.000018 -0.707103 0.707111  0.848264 0.938822 0
0  1.213832 -2.102420 38.106251  0.353557 -0.612369 0.707108  0.863539 0.938820 0
bollards
0  1.178835 -2.041805 38.176243  0.353561 -0.612366 0.707108  0.863540 0.941220 0
0  1.213832 -2.102420 38.106251  0.353557 -0.612369 0.707108  0.863539 0.938820 0
0  2.041803 -1.178837 38.176243  0.612360 -0.353555 0.707116  0.878823 0.941220 0
bollards
0  2.041803 -1.178837 38.176243  0.612360 -0.353555 0.707116  0.878823 0.941220 0
0  1.213832 -2.102420 38.106251  0.353557 -0.612369 0.707108  0.863539 0.938820 0
0  2.102418 -1.213834 38.106251  0.612354 -0.353563 0.707118  0.878815 0.938819 0
bollards
0  2.041803 -1.178837 38.176243  0.612360 -0.353555 0.707116  0.878823 0.941220 0
0  2.102418 -1.213834 38.106251  0.612354 -0.353563 0.707118  0.878815 0.938819 0
0  2.357671 -0.000002 38.176243  0.707098 -0.000001 0.707116  0.894094 0.941220 0
bollards
0  2.357671 -0.000002 38.176243  0.707098 -0.000001 0.707116  0.894094 0.941220 0
0  2.102418 -1.213834 38.106251  0.612354 -0.353563 0.707118  0.878815 0.938819 0
0  2.427664 -0.000002 38.106251  0.707097 -0.000008 0.707117  0.894090 0.938819 0
bollards
0  2.427664 0.000000 -0.156547  1.000000 -0.000002 -0.000000  0.894113 0.008193 0
0  2.102418 1.213831 -0.156547  0.866026 0.499999 0.000000  0.909397 0.008195 0
0  2.427664 -0.000002 38.106251  1.000000 0.000002 -0.000000  0.894090 0.938819 0
bollards
0  2.427664 -0.000002 38.106251  1.000000 0.000002 -0.000000  0.894090 0.938819 0
0  2.102418 1.213831 -0.156547  0.866026 0.499999 0.000000  0.909397 0.008195 0
0  2.102418 1.213829 38.106251  0.866024 0.500002 0.000000  0.909365 0.938820 0
bollards
0  2.102418 1.213831 -0.156547  0.866026 0.499999 0.000000  0.909397 0.008195 0
0  1.213832 2.102418 -0.156547  0.500002 0.866024 0.000000  0.924679 0.008198 0
0  2.102418 1.213829 38.106251  0.866024 0.500002 0.000000  0.909365 0.938820 0
bollards
0  2.102418 1.213829 38.106251  0.866024 0.500002 0.000000  0.909365 0.938820 0
0  1.213832 2.102418 -0.156547  0.500002 0.866024 0.000000  0.924679 0.008198 0
0  1.213832 2.102416 38.106251  0.499999 0.866026 0.000000  0.924639 0.938823 0
bollards
0  1.213832 2.102418 -0.156547  0.500002 0.866024 0.000000  0.924679 0.008198 0
0  0.000000 2.427663 -0.156547  0.000002 1.000000 0.000000  0.939962 0.008201 0
0  1.213832 2.102416 38.106251  0.499999 0.866026 0.000000  0.924639 0.938823 0
bollards
0  1.213832 2.102416 38.106251  0.499999 0.866026 0.000000  0.924639 0.938823 0
0  0.000000 2.427663 -0.156547  0.000002 1.000000 0.000000  0.939962 0.008201 0
0  0.000000 2.427661 38.106251  -0.000002 1.000000 0.000000  0.939919 0.938860 0
bollards
0  0.000000 2.427663 -0.156547  0.000002 1.000000 0.000000  0.756569 0.008200 0
0  -1.213831 2.102418 -0.156547  -0.499998 0.866027 0.000000  0.771852 0.008197 0
0  0.000000 2.427661 38.106251  -0.000002 1.000000 0.000000  0.756610 0.938859 0
bollards
0  0.000000 2.427661 38.106251  -0.000002 1.000000 0.000000  0.756610 0.938859 0
0  -1.213831 2.102418 -0.156547  -0.499998 0.866027 0.000000  0.771852 0.008197 0
0  -1.213831 2.102416 38.106251  -0.500001 0.866025 0.000000  0.771890 0.938822 0
bollards
0  -1.213831 2.102418 -0.156547  -0.499998 0.866027 0.000000  0.771852 0.008197 0
0  -2.102418 1.213832 -0.156547  -0.866024 0.500002 0.000000  0.787134 0.008194 0
0  -1.213831 2.102416 38.106251  -0.500001 0.866025 0.000000  0.771890 0.938822 0
bollards
0  -1.213831 2.102416 38.106251  -0.500001 0.866025 0.000000  0.771890 0.938822 0
0  -2.102418 1.213832 -0.156547  -0.866024 0.500002 0.000000  0.787134 0.008194 0
0  -2.102418 1.213830 38.106251  -0.866026 0.499999 0.000000  0.787163 0.938819 0
bollards
0  -2.102418 1.213832 -0.156547  -0.866024 0.500002 0.000000  0.787134 0.008194 0
0  -2.427663 0.000000 -0.156547  -1.000000 0.000002 0.000000  0.802417 0.008193 0
0  -2.102418 1.213830 38.106251  -0.866026 0.499999 0.000000  0.787163 0.938819 0
bollards
0  -2.102418 1.213830 38.106251  -0.866026 0.499999 0.000000  0.787163 0.938819 0
0  -2.427663 0.000000 -0.156547  -1.000000 0.000002 0.000000  0.802417 0.008193 0
0  -2.427663 -0.000002 38.106251  -1.000000 -0.000002 -0.000000  0.802439 0.938818 0
bollards
0  -2.427663 0.000000 -0.156547  -1.000000 0.000002 0.000000  0.802417 0.008193 0
0  -2.102418 -1.213832 -0.156547  -0.866026 -0.499998 -0.000000  0.817700 0.008190 0
0  -2.427663 -0.000002 38.106251  -1.000000 -0.000002 -0.000000  0.802439 0.938818 0
bollards
0  -2.427663 -0.000002 38.106251  -1.000000 -0.000002 -0.000000  0.802439 0.938818 0
0  -2.102418 -1.213832 -0.156547  -0.866026 -0.499998 -0.000000  0.817700 0.008190 0
0  -2.102418 -1.213834 38.106251  -0.866025 -0.500001 -0.000000  0.817714 0.938819 0
bollards
0  -2.102418 -1.213832 -0.156547  -0.866026 -0.499998 -0.000000  0.817700 0.008190 0
0  -1.213832 -2.102418 -0.156547  -0.500002 -0.866024 -0.000000  0.832983 0.008188 0
0  -2.102418 -1.213834 38.106251  -0.866025 -0.500001 -0.000000  0.817714 0.938819 0
bollards
0  -2.102418 -1.213834 38.106251  -0.866025 -0.500001 -0.000000  0.817714 0.938819 0
0  -1.213832 -2.102418 -0.156547  -0.500002 -0.866024 -0.000000  0.832983 0.008188 0
0  -1.213832 -2.102420 38.106251  -0.499998 -0.866026 -0.000000  0.832989 0.938820 0
bollards
0  -1.213832 -2.102418 -0.156547  -0.500002 -0.866024 -0.000000  0.832983 0.008188 0
0  0.000000 -2.427663 -0.156547  -0.000002 -1.000000 -0.000000  0.848265 0.008186 0
0  -1.213832 -2.102420 38.106251  -0.499998 -0.866026 -0.000000  0.832989 0.938820 0
bollards
0  -1.213832 -2.102420 38.106251  -0.499998 -0.866026 -0.000000  0.832989 0.938820 0
0  0.000000 -2.427663 -0.156547  -0.000002 -1.000000 -0.000000  0.848265 0.008186 0
0  0.000000 -2.427665 38.106251  0.000002 -1.000000 -0.000000  0.848264 0.938822 0
bollards
0  0.000000 -2.427663 -0.156547  -0.000002 -1.000000 -0.000000  0.848265 0.008186 0
0  1.213832 -2.102418 -0.156547  0.499998 -0.866026 -0.000000  0.863548 0.008188 0
0  0.000000 -2.427665 38.106251  0.000002 -1.000000 -0.000000  0.848264 0.938822 0
bollards
0  0.000000 -2.427665 38.106251  0.000002 -1.000000 -0.000000  0.848264 0.938822 0
0  1.213832 -2.102418 -0.156547  0.499998 -0.866026 -0.000000  0.863548 0.008188 0
0  1.213832 -2.102420 38.106251  0.500002 -0.866025 -0.000000  0.863539 0.938820 0
bollards
0  1.213832 -2.102418 -0.156547  0.499998 -0.866026 -0.000000  0.863548 0.008188 0
0  2.102418 -1.213832 -0.156547  0.866024 -0.500002 -0.000000  0.878831 0.008191 0
0  1.213832 -2.102420 38.106251  0.500002 -0.866025 -0.000000  0.863539 0.938820 0
bollards
0  1.213832 -2.102420 38.106251  0.500002 -0.866025 -0.000000  0.863539 0.938820 0
0  2.102418 -1.213832 -0.156547  0.866024 -0.500002 -0.000000  0.878831 0.008191 0
0  2.102418 -1.213834 38.106251  0.866026 -0.499999 -0.000000  0.878815 0.938819 0
bollards
0  2.102418 -1.213832 -0.156547  0.866024 -0.500002 -0.000000  0.878831 0.008191 0
0  2.427664 0.000000 -0.156547  1.000000 -0.000002 -0.000000  0.894113 0.008193 0
0  2.102418 -1.213834 38.106251  0.866026 -0.499999 -0.000000  0.878815 0.938819 0
bollards
0  2.102418 -1.213834 38.106251  0.866026 -0.499999 -0.000000  0.878815 0.938819 0
0  2.427664 0.000000 -0.156547  1.000000 -0.000002 -0.000000  0.894113 0.008193 0
0  2.427664 -0.000002 38.106251  1.000000 0.000002 -0.000000  0.894090 0.938819 0
bollards
0  2.357671 -0.000002 38.176243  0.000000 0.000000 1.000000  0.894094 0.941220 0
0  2.041802 1.178833 38.176243  -0.000009 0.000000 1.000000  0.909360 0.941220 0
0  2.160620 -0.000002 38.176243  -0.000001 0.000000 1.000000  0.894096 0.945944 0
bollards
0  2.160620 -0.000002 38.176243  -0.000001 0.000000 1.000000  0.894096 0.945944 0
0  2.041802 1.178833 38.176243  -0.000009 0.000000 1.000000  0.909360 0.941220 0
0  1.871152 1.080308 38.176243  -0.000010 0.000000 1.000000  0.909357 0.945930 0
bollards
0  2.041802 1.178833 38.176243  -0.000009 0.000000 1.000000  0.909360 0.941220 0
0  1.178835 2.041800 38.176243  0.000000 0.000000 1.000000  0.924609 0.941207 0
0  1.871152 1.080308 38.176243  -0.000010 0.000000 1.000000  0.909357 0.945930 0
bollards
0  1.871152 1.080308 38.176243  -0.000010 0.000000 1.000000  0.909357 0.945930 0
0  1.178835 2.041800 38.176243  0.000000 0.000000 1.000000  0.924609 0.941207 0
0  1.080310 1.871150 38.176243  0.000000 0.000000 1.000000  0.924595 0.945917 0
bollards
0  1.178835 2.041800 38.176243  0.000000 0.000000 1.000000  0.924609 0.941207 0
0  0.000000 2.357668 38.176243  0.000002 0.000000 1.000000  0.939697 0.941260 0
0  1.080310 1.871150 38.176243  0.000000 0.000000 1.000000  0.924595 0.945917 0
bollards
0  1.080310 1.871150 38.176243  0.000000 0.000000 1.000000  0.924595 0.945917 0
0  0.000000 2.357668 38.176243  0.000002 0.000000 1.000000  0.939697 0.941260 0
0  0.000000 2.160618 38.176243  0.000002 0.000000 1.000000  0.939073 0.945970 0
bollards
0  0.000000 2.357668 38.176243  0.000002 0.000000 1.000000  0.756822 0.941259 0
0  -1.178835 2.041800 38.176243  0.000010 0.000000 1.000000  0.771922 0.941205 0
0  0.000000 2.160618 38.176243  0.000002 0.000000 1.000000  0.757437 0.945970 0
bollards
0  0.000000 2.160618 38.176243  0.000002 0.000000 1.000000  0.757437 0.945970 0
0  -1.178835 2.041800 38.176243  0.000010 0.000000 1.000000  0.771922 0.941205 0
0  -1.080310 1.871150 38.176243  0.000010 0.000000 1.000000  0.771938 0.945925 0
bollards
0  -1.178835 2.041800 38.176243  0.000010 0.000000 1.000000  0.771922 0.941205 0
0  -2.041802 1.178833 38.176243  0.000016 0.000000 1.000000  0.787157 0.941219 0
0  -1.080310 1.871150 38.176243  0.000010 0.000000 1.000000  0.771938 0.945925 0
bollards
0  -1.080310 1.871150 38.176243  0.000010 0.000000 1.000000  0.771938 0.945925 0
0  -2.041802 1.178833 38.176243  0.000016 0.000000 1.000000  0.787157 0.941219 0
0  -1.871152 1.080308 38.176243  0.000014 0.000000 1.000000  0.787152 0.945949 0
bollards
0  -2.041802 1.178833 38.176243  0.000016 0.000000 1.000000  0.787157 0.941219 0
0  -2.357670 -0.000002 38.176243  0.000002 0.000000 1.000000  0.802437 0.941219 0
0  -1.871152 1.080308 38.176243  0.000014 0.000000 1.000000  0.787152 0.945949 0
bollards
0  -1.871152 1.080308 38.176243  0.000014 0.000000 1.000000  0.787152 0.945949 0
0  -2.357670 -0.000002 38.176243  0.000002 0.000000 1.000000  0.802437 0.941219 0
0  -2.160620 -0.000002 38.176243  -0.000000 0.000000 1.000000  0.802435 0.945967 0
bollards
0  -2.357670 -0.000002 38.176243  0.000002 0.000000 1.000000  0.802437 0.941219 0
0  -2.041802 -1.178837 38.176243  -0.000004 0.000000 1.000000  0.817723 0.941219 0
0  -2.160620 -0.000002 38.176243  -0.000000 0.000000 1.000000  0.802435 0.945967 0
bollards
0  -2.160620 -0.000002 38.176243  -0.000000 0.000000 1.000000  0.802435 0.945967 0
0  -2.041802 -1.178837 38.176243  -0.000004 0.000000 1.000000  0.817723 0.941219 0
0  -1.871152 -1.080312 38.176243  -0.000005 0.000000 1.000000  0.817728 0.945956 0
bollards
0  -2.041802 -1.178837 38.176243  -0.000004 0.000000 1.000000  0.817723 0.941219 0
0  -1.178835 -2.041804 38.176243  -0.000002 0.000000 1.000000  0.832993 0.941220 0
0  -1.871152 -1.080312 38.176243  -0.000005 0.000000 1.000000  0.817728 0.945956 0
bollards
0  -1.871152 -1.080312 38.176243  -0.000005 0.000000 1.000000  0.817728 0.945956 0
0  -1.178835 -2.041804 38.176243  -0.000002 0.000000 1.000000  0.832993 0.941220 0
0  -1.080310 -1.871154 38.176243  -0.000002 0.000000 1.000000  0.832996 0.945951 0
bollards
0  -1.178835 -2.041804 38.176243  -0.000002 0.000000 1.000000  0.832993 0.941220 0
0  0.000000 -2.357672 38.176243  0.000004 0.000000 1.000000  0.848263 0.941224 0
0  -1.080310 -1.871154 38.176243  -0.000002 0.000000 1.000000  0.832996 0.945951 0
bollards
0  -1.080310 -1.871154 38.176243  -0.000002 0.000000 1.000000  0.832996 0.945951 0
0  0.000000 -2.357672 38.176243  0.000004 0.000000 1.000000  0.848263 0.941224 0
0  0.000000 -2.160622 38.176243  0.000004 0.000000 1.000000  0.848261 0.945948 0
bollards
0  0.000000 -2.357672 38.176243  0.000004 0.000000 1.000000  0.848263 0.941224 0
0  1.178835 -2.041805 38.176243  0.000000 0.000000 1.000000  0.863540 0.941220 0
0  0.000000 -2.160622 38.176243  0.000004 0.000000 1.000000  0.848261 0.945948 0
bollards
0  0.000000 -2.160622 38.176243  0.000004 0.000000 1.000000  0.848261 0.945948 0
0  1.178835 -2.041805 38.176243  0.000000 0.000000 1.000000  0.863540 0.941220 0
0  1.080310 -1.871154 38.176243  0.000000 0.000000 1.000000  0.863540 0.945942 0
bollards
0  1.178835 -2.041805 38.176243  0.000000 0.000000 1.000000  0.863540 0.941220 0
0  2.041803 -1.178837 38.176243  0.000004 0.000000 1.000000  0.878823 0.941220 0
0  1.080310 -1.871154 38.176243  0.000000 0.000000 1.000000  0.863540 0.945942 0
bollards
0  1.080310 -1.871154 38.176243  0.000000 0.000000 1.000000  0.863540 0.945942 0
0  2.041803 -1.178837 38.176243  0.000004 0.000000 1.000000  0.878823 0.941220 0
0  1.871152 -1.080312 38.176243  0.000004 0.000000 1.000000  0.878828 0.945943 0
bollards
0  2.041803 -1.178837 38.176243  0.000004 0.000000 1.000000  0.878823 0.941220 0
0  2.357671 -0.000002 38.176243  0.000000 0.000000 1.000000  0.894094 0.941220 0
0  1.871152 -1.080312 38.176243  0.000004 0.000000 1.000000  0.878828 0.945943 0
bollards
0  1.871152 -1.080312 38.176243  0.000004 0.000000 1.000000  0.878828 0.945943 0
0  2.357671 -0.000002 38.176243  0.000000 0.000000 1.000000  0.894094 0.941220 0
0  2.160620 -0.000002 38.176243  -0.000001 0.000000 1.000000  0.894096 0.945944 0
end
