// Created by Crowbar 0.74
version 1
nodes
  0 "ValveBiped.Bip01_Pelvis" -1
  1 "ValveBiped.Bip01_Spine" 0
  2 "ValveBiped.Bip01_Spine1" 1
  3 "ValveBiped.Bip01_Spine2" 2
  4 "ValveBiped.Bip01_Spine4" 3
  5 "ValveBiped.Bip01_Neck1" 4
  6 "ValveBiped.Bip01_Head1" 5
  7 "ValveBiped.forward" 6
  8 "ValveBiped.Bip01_R_Eye" 6
  9 "ValveBiped.Bip01_L_Eye" 6
  10 "ValveBiped.Bip01_L_Clavicle" 4
  11 "ValveBiped.Bip01_L_UpperArm" 10
  12 "ValveBiped.Bip01_L_Forearm" 11
  13 "ValveBiped.Bip01_L_Ulna" 12
  14 "ValveBiped.Bip01_L_Wrist" 12
  15 "ValveBiped.Bip01_L_Hand" 12
  16 "ValveBiped.Bip01_L_Finger3" 15
  17 "ValveBiped.Bip01_L_Finger31" 16
  18 "ValveBiped.Bip01_L_Finger32" 17
  19 "ValveBiped.Bip01_L_Finger2" 15
  20 "ValveBiped.Bip01_L_Finger21" 19
  21 "ValveBiped.Bip01_L_Finger22" 20
  22 "ValveBiped.Bip01_L_Finger1" 15
  23 "ValveBiped.Bip01_L_Finger11" 22
  24 "ValveBiped.Bip01_L_Finger12" 23
  25 "ValveBiped.Bip01_L_Finger4" 15
  26 "ValveBiped.Bip01_L_Finger41" 25
  27 "ValveBiped.Bip01_L_Finger42" 26
  28 "ValveBiped.Bip01_L_Finger0" 15
  29 "ValveBiped.Bip01_L_Finger01" 28
  30 "ValveBiped.Bip01_L_Finger02" 29
  31 "ValveBiped.Bip01_L_Trapezius" 10
  32 "ValveBiped.Bip01_R_Clavicle" 4
  33 "ValveBiped.Bip01_R_UpperArm" 32
  34 "ValveBiped.Bip01_R_Forearm" 33
  35 "ValveBiped.Bip01_R_Hand" 34
  36 "ValveBiped.Bip01_R_Finger2" 35
  37 "ValveBiped.Bip01_R_Finger21" 36
  38 "ValveBiped.Bip01_R_Finger22" 37
  39 "ValveBiped.Bip01_R_Finger1" 35
  40 "ValveBiped.Bip01_R_Finger11" 39
  41 "ValveBiped.Bip01_R_Finger12" 40
  42 "ValveBiped.Bip01_R_Finger3" 35
  43 "ValveBiped.Bip01_R_Finger31" 42
  44 "ValveBiped.Bip01_R_Finger32" 43
  45 "ValveBiped.Bip01_R_Finger4" 35
  46 "ValveBiped.Bip01_R_Finger41" 45
  47 "ValveBiped.Bip01_R_Finger42" 46
  48 "ValveBiped.Bip01_R_Finger0" 35
  49 "ValveBiped.Bip01_R_Finger01" 48
  50 "ValveBiped.Bip01_R_Finger02" 49
  51 "ValveBiped.Bip01_R_Wrist" 34
  52 "ValveBiped.Bip01_R_Ulna" 34
  53 "ValveBiped.Bip01_R_Trapezius" 32
  54 "ValveBiped.Bip01_L_Thigh" 0
  55 "ValveBiped.Bip01_L_Calf" 54
  56 "ValveBiped.Bip01_L_Foot" 55
  57 "ValveBiped.Bip01_L_Toe0" 56
  58 "ValveBiped.Bip01_L_Ankle" 55
  59 "ValveBiped.Bip01_R_Thigh" 0
  60 "ValveBiped.Bip01_R_Calf" 59
  61 "ValveBiped.Bip01_R_Foot" 60
  62 "ValveBiped.Bip01_R_Toe0" 61
  63 "ValveBiped.Bip01_R_Ankle" 60
  64 "j_hair_r_01" 6
  65 "j_hair_r_02" 64
  66 "j_hair_r_03" 65
  67 "j_hair_l_01" 6
  68 "j_hair_l_02" 67
  69 "j_hair_l_03" 68
  70 "j_hair_l_04" 69
  71 "j_hair_l_05" 70
  72 "j_hair_f_01" 6
  73 "j_hair_f_02" 72
  74 "j_hair_b_01" 6
  75 "j_hair_b_02" 74
  76 "j_hair_b_03" 75
  77 "j_hair_b_04" 76
  78 "j_hair_bl_01" 74
  79 "j_hair_bl_02" 78
  80 "j_hair_br_01" 74
  81 "j_hair_br_02" 80
  82 "j_hair_br_03" 74
  83 "j_hair_br_04" 82
  84 "j_hair_bl_03" 74
  85 "j_hair_bl_04" 84
  86 "p_skirt_e_helper" 54
  87 "p_skirt_e_01" 86
  88 "p_skirt_e_02" 87
  89 "p_skirt_se_helper" 54
  90 "p_skirt_se_01" 89
  91 "p_skirt_se_02" 90
  92 "p_skirt_w_helper" 59
  93 "p_skirt_w_01" 92
  94 "p_skirt_w_02" 93
  95 "p_skirt_sw_helper" 59
  96 "p_skirt_sw_01" 95
  97 "p_skirt_sw_02" 96
  98 "p_skirt_n_helper" 0
  99 "p_skirt_n_01" 98
  100 "p_skirt_n_02" 99
  101 "p_skirt_nw_helper" 0
  102 "p_skirt_nw_01" 101
  103 "p_skirt_nw_02" 102
  104 "p_skirt_ne_helper" 0
  105 "p_skirt_ne_01" 104
  106 "p_skirt_ne_02" 105
  107 "p_sleeve_l_01" 12
  108 "p_sleeve_l_02" 107
  109 "p_sleeve_l_03" 108
  110 "ValveBiped.Bip01_L_Elbow" 11
  111 "p_sleeve_r_01" 34
  112 "p_sleeve_r_02" 111
  113 "p_sleeve_r_03" 112
  114 "ValveBiped.Bip01_R_Elbow" 33
end
skeleton
  time 0
    0 -0.012177 0.050568 -0.001746 0.000000 0.000000 -1.570796
    1 -0.000001 -2.429688 0.116577 0.000002 0.000015 -0.017451
    2 -0.263916 0.000007 0.000055 0.000002 -0.000015 0.000004
    3 -0.249878 -0.000014 -0.000010 0.000000 0.000000 0.000000
    4 0.080872 0.069397 -0.000002 0.000000 0.000000 0.000000
    5 -0.824707 0.024918 0.000004 0.003141 0.000367 -0.002925
    6 0.243042 0.000011 0.000008 0.000000 0.000004 0.001120
    7 0.000000 0.000000 0.000000 0.000000 0.000000 0.000000
    8 0.000000 0.000000 0.000000 0.000000 0.000000 0.000000
    9 0.000000 0.000000 0.000000 0.000000 0.000000 0.000000
    10 -0.139893 -0.062500 1.047852 0.000000 0.000000 0.000000
    11 -2.003906 0.045898 0.084229 -0.040290 0.048382 -0.005570
    12 -1.715820 -0.014313 -0.605957 0.144047 -0.001032 -0.036056
    13 0.000000 0.000000 0.000000 0.000000 0.000000 0.000000
    14 0.000000 0.000000 0.000000 0.000000 0.000000 0.000000
    15 -2.806641 0.000066 0.000015 0.000000 0.000000 0.000000
    16 -0.504883 -0.093018 0.264160 -0.109048 -0.035943 -0.128055
    17 -0.491211 -0.053223 -0.077820 -0.009670 0.086155 0.061892
    18 -0.226929 0.000000 -0.000005 0.246135 -0.138675 0.034655
    19 -0.520996 -0.065918 0.075623 -0.004708 -0.025504 -0.127366
    20 -0.563965 -0.052094 -0.073853 -0.041637 0.026344 0.076476
    21 -0.251709 0.000015 -0.000006 -0.000004 -0.000002 -0.000023
    22 -0.525391 -0.025925 -0.095276 0.121289 -0.157596 -0.032715
    23 -0.478271 -0.055298 -0.057831 0.035540 0.091574 -0.125051
    24 -0.065735 0.024002 -0.032715 0.039908 0.087863 0.245216
    25 -0.571289 -0.324463 0.294434 0.144750 -0.088144 0.019291
    26 -0.318604 -0.046112 -0.020462 -0.540650 0.076319 -0.210226
    27 -0.160400 -0.000004 -0.000003 0.172719 -0.097890 0.117859
    28 -0.175659 -0.045624 -0.608887 1.294738 0.101704 -0.211741
    29 -0.328857 0.000000 -0.000015 -0.014985 0.155049 0.014004
    30 -0.259766 0.000011 0.000004 -0.323240 0.095691 0.271643
    31 0.000000 0.000000 0.000000 0.000000 0.000000 0.000000
    32 -0.139893 -0.062561 -1.074219 0.000000 0.000000 0.000000
    33 -2.126953 0.005611 -0.083923 0.031008 -0.050554 -0.003356
    34 -1.603516 -0.008057 0.434082 -0.141407 0.003252 -0.036337
    35 -2.736328 0.000078 0.000019 -0.004759 0.006462 0.000000
    36 -0.676758 -0.113525 0.001078 0.050330 -0.011947 -0.026536
    37 -0.735840 0.012932 -0.047760 0.089641 0.008161 -0.266662
    38 -0.090271 0.040375 0.058716 -0.010964 -0.013218 0.351469
    39 -0.682617 -0.076538 0.161865 -0.109322 0.113057 0.012106
    40 -0.321289 -0.017288 0.064514 -0.010328 -0.082216 -0.132127
    41 -0.189453 -0.000015 -0.000008 0.021575 -0.167620 0.285149
    42 -0.657715 -0.139282 -0.031891 0.007718 0.054803 -0.090354
    43 -0.562500 -0.001587 -0.000535 0.009214 -0.023057 -0.097408
    44 -0.196899 -0.000004 0.000005 -0.070752 0.054397 0.220277
    45 -0.627930 -0.202759 -0.277344 -0.068830 -0.060658 -0.185283
    46 -0.472168 -0.020584 0.022522 -0.239515 0.170766 0.049018
    47 -0.067932 0.006821 -0.017456 0.014727 -0.045888 0.103162
    48 -0.178833 -0.104431 0.566895 0.576305 -0.098658 -0.290684
    49 -0.309570 0.000017 0.000004 0.107424 0.001225 -0.011423
    50 -0.244751 0.000005 -0.000008 0.021842 0.086896 0.108327
    51 0.000000 0.000000 0.000000 0.000000 0.000000 0.000000
    52 0.000000 0.000000 0.000000 0.000000 0.000000 0.000000
    53 0.000000 0.000000 0.000000 0.000000 0.000000 0.000000
    54 -0.274170 0.000000 0.000000 -0.002340 0.006298 0.053630
    55 -0.541504 -0.008400 0.011002 0.003484 0.022827 -0.109917
    56 1.101563 -0.102051 0.046082 -0.072162 -0.110857 -0.034325
    57 -0.316895 -0.000037 -0.000001 -0.000004 -0.000004 -0.000072
    58 0.000000 0.000000 0.000000 0.000000 0.000000 0.000000
    59 0.274170 0.000000 -0.000001 0.002433 -0.002494 0.053642
    60 -0.541504 -0.008492 -0.011635 -0.004133 -0.025443 -0.109862
    61 1.102539 -0.101990 -0.049164 0.043120 0.057102 -0.041735
    62 -0.316895 -0.000028 0.000001 0.000000 0.000000 -0.000017
    63 0.000000 0.000000 0.000000 0.000000 0.000000 0.000000
    64 0.000000 0.000000 0.000000 0.000000 0.000000 0.000000
    65 0.000000 0.000000 0.000000 0.000000 0.000000 0.000000
    66 0.000000 0.000000 0.000000 0.000000 0.000000 0.000000
    67 0.000000 0.000000 0.000000 0.000000 0.000000 0.000000
    68 0.000000 0.000000 0.000000 0.000000 0.000000 0.000000
    69 0.000000 0.000000 0.000000 0.000000 0.000000 0.000000
    70 0.000000 0.000000 0.000000 0.000000 0.000000 0.000000
    71 0.000000 0.000000 0.000000 0.000000 0.000000 0.000000
    72 0.000000 0.000000 0.000000 0.000000 0.000000 0.000000
    73 0.000000 0.000000 0.000000 0.000000 0.000000 0.000000
    74 0.000000 0.000000 0.000000 0.000000 0.000000 0.000000
    75 0.000000 0.000000 0.000000 0.000000 0.000000 0.000000
    76 0.000000 0.000000 0.000000 0.000000 0.000000 0.000000
    77 0.000000 0.000000 0.000000 0.000000 0.000000 0.000000
    78 0.000000 0.000000 0.000000 0.000000 0.000000 0.000000
    79 0.000000 0.000000 0.000000 0.000000 0.000000 0.000000
    80 0.000000 0.000000 0.000000 0.000000 0.000000 0.000000
    81 0.000000 0.000000 0.000000 0.000000 0.000000 0.000000
    82 0.000000 0.000000 0.000000 0.000000 0.000000 0.000000
    83 0.000000 0.000000 0.000000 0.000000 0.000000 0.000000
    84 0.000000 0.000000 0.000000 0.000000 0.000000 0.000000
    85 0.000000 0.000000 0.000000 0.000000 0.000000 0.000000
    86 0.000000 0.000000 0.000000 0.000000 0.000000 0.000000
    87 0.000000 0.000000 0.000000 0.000000 0.000000 0.000000
    88 0.000000 0.000000 0.000000 0.000000 0.000000 0.000000
    89 0.000000 0.000000 0.000000 0.000154 -0.000002 0.000013
    90 0.000000 0.000000 0.000000 0.000000 0.000000 0.000000
    91 0.000000 0.000000 0.000000 0.000000 0.000000 0.000000
    92 0.000000 0.000000 0.000000 0.000000 0.000000 0.000000
    93 0.000000 0.000000 0.000000 0.000000 0.000000 0.000000
    94 0.000000 0.000000 0.000000 0.000000 0.000000 0.000000
    95 0.000000 0.000000 0.000000 0.000000 0.000000 0.000000
    96 0.000000 0.000000 0.000000 0.000000 0.000000 0.000000
    97 0.000000 0.000000 0.000000 0.000000 0.000000 0.000000
    98 0.000000 0.000000 0.000000 0.000000 0.000000 0.000000
    99 0.000000 0.000000 0.000000 0.000000 0.000000 0.000000
    100 0.000000 0.000000 0.000000 0.000000 0.000000 0.000000
    101 0.000000 0.000000 0.000000 0.000000 0.000000 0.000000
    102 0.000000 0.000000 0.000000 0.000000 0.000000 0.000000
    103 0.000000 0.000000 0.000000 0.000000 0.000000 0.000000
    104 0.000000 0.000000 0.000000 0.000000 0.000000 0.000000
    105 0.000000 0.000000 0.000000 0.000000 0.000000 0.000000
    106 0.000000 0.000000 0.000000 0.000000 0.000000 0.000000
    107 0.000000 0.000000 0.000000 0.000000 0.000000 0.000000
    108 0.000000 0.000000 0.000000 0.000000 0.000000 0.000000
    109 0.000000 0.000000 0.000000 0.000000 0.000000 0.000000
    110 0.000000 0.000000 0.000000 0.000000 0.000000 0.000000
    111 0.000000 0.000000 0.000000 0.000000 0.000000 0.000000
    112 0.000000 0.000000 0.000000 0.000000 0.000000 0.000000
    113 0.000000 0.000000 0.000000 0.000000 0.000000 0.000000
    114 0.000000 0.000000 0.000000 0.000000 0.000000 0.000000
end
