// Created by Crowbar 0.74
version 1
nodes
  0 "ValveBiped.Bip01_Pelvis" -1
  1 "ValveBiped.Bip01_Spine" 0
  2 "ValveBiped.Bip01_Spine1" 1
  3 "ValveBiped.Bip01_Spine2" 2
  4 "ValveBiped.Bip01_Spine4" 3
  5 "ValveBiped.Bip01_Neck1" 4
  6 "ValveBiped.Bip01_Head1" 5
  7 "Eye_L" 6
  8 "Eye_R" 6
  9 "Teeth" 6
  10 "Tongue1" 6
  11 "Tongue2" 10
  12 "Tongue3" 11
  13 "FrontHair1" 6
  14 "FrontHair2" 13
  15 "FrontHair_L" 6
  16 "FrontHair_R" 6
  17 "SideHair1_L" 6
  18 "SideHair2_L" 17
  19 "SideHair3_L" 18
  20 "SideHair1_R" 6
  21 "SideHair2_R" 20
  22 "SideHair3_R" 21
  23 "BackSideHair1_L" 6
  24 "BackSideHair2_L" 23
  25 "BackSideHair1_R" 6
  26 "BackSideHair2_R" 25
  27 "BackInsideHair" 6
  28 "BackHair" 6
  29 "ValveBiped.Bip01_L_Clavicle" 4
  30 "SleeveRibbon_L" 29
  31 "ValveBiped.Bip01_L_UpperArm" 29
  32 "ValveBiped.Bip01_L_Forearm" 31
  33 "ValveBiped.Bip01_L_Hand" 32
  34 "BackArmKA_L" 31
  35 "FrontArmKA_L" 31
  36 "BackKA1_L" 29
  37 "BackKA2_L" 36
  38 "SideKA1_L" 4
  39 "SideKA2_L" 38
  40 "FrontKA1_L" 4
  41 "FrontKA2_L" 40
  42 "ValveBiped.Bip01_R_Clavicle" 4
  43 "SleeveRibbon_R" 42
  44 "ValveBiped.Bip01_R_UpperArm" 42
  45 "ValveBiped.Bip01_R_Forearm" 44
  46 "ValveBiped.Bip01_R_Hand" 45
  47 "BackArmKA_R" 44
  48 "FrontArmKA_R" 44
  49 "BackKA1_R" 42
  50 "BackKA2_R" 49
  51 "SideKA1_R" 4
  52 "SideKA2_R" 51
  53 "FrontKA1_R" 4
  54 "FrontKA2_R" 53
  55 "BackMiddleKA1" 4
  56 "BackMiddleKA2" 55
  57 "ValveBiped.Bip01_L_Thigh" 0
  58 "ValveBiped.Bip01_L_Calf" 57
  59 "ValveBiped.Bip01_L_Foot" 58
  60 "ValveBiped.Bip01_R_Thigh" 0
  61 "ValveBiped.Bip01_R_Calf" 60
  62 "ValveBiped.Bip01_R_Foot" 61
  63 "ValveBiped.Bip01_L_Finger0" 33
  64 "ValveBiped.Bip01_L_Finger01" 63
  65 "ValveBiped.Bip01_L_Finger02" 64
  66 "ValveBiped.Bip01_L_Finger1" 33
  67 "ValveBiped.Bip01_L_Finger11" 66
  68 "ValveBiped.Bip01_L_Finger12" 67
  69 "ValveBiped.Bip01_L_Finger2" 33
  70 "ValveBiped.Bip01_L_Finger21" 69
  71 "ValveBiped.Bip01_L_Finger22" 70
  72 "ValveBiped.Bip01_L_Finger3" 33
  73 "ValveBiped.Bip01_L_Finger31" 72
  74 "ValveBiped.Bip01_L_Finger32" 73
  75 "ValveBiped.Bip01_L_Finger4" 33
  76 "ValveBiped.Bip01_L_Finger41" 75
  77 "ValveBiped.Bip01_L_Finger42" 76
  78 "ValveBiped.Bip01_R_Finger0" 46
  79 "ValveBiped.Bip01_R_Finger01" 78
  80 "ValveBiped.Bip01_R_Finger02" 79
  81 "ValveBiped.Bip01_R_Finger1" 46
  82 "ValveBiped.Bip01_R_Finger11" 81
  83 "ValveBiped.Bip01_R_Finger12" 82
  84 "ValveBiped.Bip01_R_Finger2" 46
  85 "ValveBiped.Bip01_R_Finger21" 84
  86 "ValveBiped.Bip01_R_Finger22" 85
  87 "ValveBiped.Bip01_R_Finger3" 46
  88 "ValveBiped.Bip01_R_Finger31" 87
  89 "ValveBiped.Bip01_R_Finger32" 88
  90 "ValveBiped.Bip01_R_Finger4" 46
  91 "ValveBiped.Bip01_R_Finger41" 90
  92 "ValveBiped.Bip01_R_Finger42" 91
  93 "Tie1" 4
  94 "Tie2" 93
  95 "Tie3" 94
  96 "Tie4" 95
  97 "Tie5" 96
  98 "Tie6" 97
  99 "Belt1" 0
  100 "Belt2" 99
  101 "Belt3" 100
  102 "Belt4" 101
  103 "Belt5" 102
end
skeleton
  time 0
    0 0.000000 -2.085938 35.187500 1.570788 0.000010 -0.000010
    1 0.000003 3.958523 -1.379565 1.570796 -0.074104 1.570801
    2 3.543999 0.000027 0.000016 0.000001 -0.000006 -0.112615
    3 3.341240 0.000028 -0.000005 0.000000 0.000004 -0.012632
    4 6.963299 0.000036 0.000019 0.000000 -0.000004 0.155826
    5 2.935257 -0.000237 -0.000006 -3.141592 0.000001 0.224052
    6 2.189419 0.080307 0.000001 0.000000 0.000001 0.100578
    7 2.523140 -0.334478 -1.152895 -2.838601 -0.054556 -0.074840
    8 2.523148 -0.334476 1.152903 0.303011 -0.054536 3.066762
    9 0.249523 -1.665982 0.000000 0.000000 1.570794 2.933635
    10 0.238724 -1.261398 0.000000 0.000000 1.570789 2.901134
    11 0.000000 0.645901 0.000000 0.005272 0.000000 0.000000
    12 0.000000 0.483725 -0.000011 -0.005191 0.000000 0.000000
    13 5.935234 -3.225060 0.000009 0.000000 -1.570795 0.244065
    14 0.000000 0.033809 2.125092 -0.005249 0.000000 0.000000
    15 5.935238 -3.225061 -2.082912 0.000000 1.570795 0.244065
    16 5.935230 -3.225058 2.082930 0.000000 -1.570795 0.244065
    17 5.365295 0.301672 -4.434359 0.000000 -1.570795 0.195590
    18 0.000000 -0.100058 3.071205 0.009521 0.000000 0.000000
    19 0.000000 -0.047046 2.040993 0.016280 0.000000 0.000000
    20 5.365273 0.301674 4.434371 0.000000 -1.570795 0.195590
    21 0.000000 -0.100058 3.071205 0.009522 0.000000 0.000000
    22 0.000000 -0.047046 2.040981 0.016279 0.000000 0.000000
    23 4.607594 3.495597 -5.170744 0.000000 -1.570795 0.195590
    24 0.000000 -0.166048 5.096722 0.000154 -0.000022 0.001360
    25 4.607563 3.495595 5.170754 0.000000 -1.570795 0.195589
    26 0.000000 -0.166049 5.096737 0.000154 0.000022 -0.001360
    27 0.605942 4.565639 0.000001 0.000000 -1.570795 0.183581
    28 0.339760 5.719981 0.000001 0.000000 -1.570795 0.183581
    29 1.620522 0.585389 0.906230 1.397308 -1.239013 3.061126
    30 8.683130 -0.055901 -0.805785 2.049573 1.402847 1.843492
    31 4.017078 -0.343716 -0.838145 -1.424292 0.049762 -0.291220
    32 9.653366 0.000000 0.000000 0.000000 0.001788 -0.013702
    33 9.700520 -0.000003 0.173653 1.570796 -0.058854 0.000001
    34 0.140934 1.465839 1.656826 -0.037035 -0.653280 -1.463125
    35 -0.074825 -0.930140 1.653088 0.145504 -0.483089 -1.732807
    36 2.275753 1.061657 -2.923033 -2.592914 -0.707330 0.649718
    37 -0.000006 1.650681 0.000000 -0.503380 -0.223883 0.141366
    38 1.750286 1.309223 2.431600 1.011993 0.210461 0.907309
    39 -0.000002 2.839314 0.000004 -0.415784 -0.535950 0.456325
    40 1.246666 2.549739 1.387323 0.860368 0.095125 0.755684
    41 -0.000011 3.089649 0.000004 -0.353464 -0.556296 0.514158
    42 1.620544 0.585401 -0.906207 -1.460919 1.238521 3.069740
    43 8.685409 -0.111885 0.775028 -1.212662 1.486555 -1.477698
    44 4.019470 -0.402164 0.799939 1.492225 -0.026337 -0.293716
    45 9.653353 0.000000 0.000000 0.000000 -0.001793 -0.013703
    46 9.700523 -0.000002 -0.173683 -1.570796 0.059154 0.000001
    47 0.140934 1.465840 -1.656834 3.104556 -0.653280 1.678468
    48 -0.074835 -0.930140 -1.653088 -2.996089 -0.483088 1.408786
    49 2.284115 0.849785 2.985156 0.473894 -0.664781 -2.444388
    50 -0.000004 1.650673 0.000000 -0.503380 0.223883 -0.141367
    51 1.750278 1.309222 -2.431606 -2.129602 0.210458 -2.234284
    52 0.000006 2.839322 -0.000004 -0.415784 0.535950 -0.456325
    53 1.246651 2.549738 -1.387329 -2.281227 0.095122 -2.385909
    54 0.000000 3.089647 0.000004 -0.353463 0.556296 -0.514157
    55 0.209564 -2.528919 -0.000001 0.000000 1.570788 3.001086
    56 0.000000 0.488070 1.833454 0.035867 0.000000 0.000000
    57 2.982521 0.000004 0.000002 -1.570796 0.000000 -1.570796
    58 13.441391 -0.116433 -0.318382 0.000000 0.000000 0.122992
    59 17.962406 0.000000 0.000000 0.000001 0.000000 -1.083473
    60 -2.982520 0.000004 0.000002 -1.570796 0.000000 -1.570796
    61 13.441391 -0.116433 0.318380 0.000000 0.000000 0.122992
    62 17.962404 0.000000 0.000000 0.000000 0.000000 -1.086513
    63 0.255142 -0.280396 0.786743 -1.627755 -0.392902 -0.330939
    64 1.293726 0.000001 0.000004 -0.056161 0.001272 -0.043727
    65 1.033816 0.026757 0.086334 -0.001546 -0.078120 -0.261983
    66 2.478046 -0.225307 0.803191 0.000000 -0.000003 -0.090672
    67 1.164511 -0.027367 0.008878 0.000000 0.000001 -0.023497
    68 0.793106 0.009369 -0.015788 0.000000 0.000001 0.011817
    69 2.609573 -0.172768 0.167416 0.000000 0.000000 -0.066108
    70 1.203957 0.021431 0.008552 0.000000 0.000000 0.017799
    71 0.809978 -0.023346 0.000000 0.000000 0.000001 -0.028814
    72 2.495249 -0.287563 -0.444678 0.000000 0.000001 -0.114735
    73 1.024574 0.059872 0.017763 0.000000 -0.000001 0.058380
    74 0.752829 -0.013725 0.027300 0.000000 -0.000001 -0.018228
    75 2.354773 -0.462547 -1.022895 0.000000 0.000000 -0.193958
    76 0.807177 0.074558 0.035851 0.000000 -0.000001 0.092100
    77 0.590862 0.010323 0.023023 0.000000 0.000000 0.017467
    78 0.255066 -0.280472 -0.786743 1.627755 0.392902 -0.331235
    79 1.293739 0.000000 0.000000 0.063510 -0.003851 -0.043927
    80 1.033585 0.026157 -0.089211 0.000848 0.076727 -0.262614
    81 2.477987 -0.226040 -0.803191 0.000000 0.000003 -0.090969
    82 1.164513 -0.027367 -0.008878 0.000000 -0.000001 -0.023497
    83 0.793108 0.009380 0.015789 0.000000 -0.000001 0.011816
    84 2.609531 -0.173538 -0.167416 0.000000 0.000001 -0.066404
    85 1.203957 0.021431 -0.008552 0.000000 0.000001 0.017799
    86 0.809977 -0.023357 0.000000 0.000000 -0.000001 -0.028815
    87 2.495169 -0.288296 0.444679 0.000000 0.000000 -0.115032
    88 1.024570 0.059879 -0.017762 0.000000 0.000001 0.058379
    89 0.752827 -0.013721 -0.027300 0.000000 0.000001 -0.018229
    90 2.354630 -0.463242 1.022895 0.000000 0.000001 -0.194255
    91 0.807183 0.074554 -0.035851 0.000000 0.000001 0.092099
    92 0.590853 0.010319 -0.023023 0.000000 -0.000001 0.017467
    93 0.794472 3.282163 -0.000002 0.000000 -1.570795 -0.637865
    94 0.000000 0.091843 0.779438 0.120736 0.000000 0.000000
    95 0.000000 0.167423 0.697979 0.088975 -0.000036 -0.000003
    96 0.000041 0.226933 1.110523 0.034320 0.000032 0.000000
    97 0.000008 0.112391 1.553921 0.017734 0.000002 0.000000
    98 0.000005 -0.150730 1.708767 0.276285 0.000059 0.000016
    99 2.795703 6.788696 3.734684 0.869066 0.000000 0.000000
    100 -0.000001 -0.562551 3.198040 0.317572 0.000000 0.000000
    101 0.000001 0.136873 4.045177 0.008174 0.000001 0.000000
    102 -0.000004 0.182449 4.048155 0.092432 0.000000 0.000000
    103 -0.000002 0.549179 4.012951 0.022276 0.000000 0.000000
  time 1
    0 0.000000 -2.085938 35.187500 1.570788 0.000010 -0.000010
    1 0.000003 3.958523 -1.379565 1.570796 -0.074104 1.570801
    2 3.543999 0.000027 0.000016 0.000001 -0.000006 -0.112615
    3 3.341240 0.000028 -0.000005 0.000000 0.000004 -0.012632
    4 6.963299 0.000036 0.000019 0.000000 -0.000004 0.155826
    5 2.935257 -0.000237 -0.000006 -3.141592 0.000001 0.224052
    6 2.189419 0.080307 0.000001 0.000000 0.000001 0.100578
    7 2.523140 -0.334478 -1.152895 -2.838601 -0.054556 -0.074840
    8 2.523148 -0.334476 1.152903 0.303011 -0.054536 3.066762
    9 0.249523 -1.665982 0.000000 0.000000 1.570794 2.933635
    10 0.238724 -1.261398 0.000000 0.000000 1.570789 2.901134
    11 0.000000 0.645901 0.000000 0.005272 0.000000 0.000000
    12 0.000000 0.483725 -0.000011 -0.005191 0.000000 0.000000
    13 5.935234 -3.225060 0.000009 0.000000 -1.570795 0.244065
    14 0.000000 0.033809 2.125092 -0.005249 0.000000 0.000000
    15 5.935238 -3.225061 -2.082912 0.000000 1.570795 0.244065
    16 5.935230 -3.225058 2.082930 0.000000 -1.570795 0.244065
    17 5.365295 0.301672 -4.434359 0.000000 -1.570795 0.195590
    18 0.000000 -0.100058 3.071205 0.009521 0.000000 0.000000
    19 0.000000 -0.047046 2.040993 0.016280 0.000000 0.000000
    20 5.365273 0.301674 4.434371 0.000000 -1.570795 0.195590
    21 0.000000 -0.100058 3.071205 0.009522 0.000000 0.000000
    22 0.000000 -0.047046 2.040981 0.016279 0.000000 0.000000
    23 4.607594 3.495597 -5.170744 0.000000 -1.570795 0.195590
    24 0.000000 -0.166048 5.096722 0.000154 -0.000022 0.001360
    25 4.607563 3.495595 5.170754 0.000000 -1.570795 0.195589
    26 0.000000 -0.166049 5.096737 0.000154 0.000022 -0.001360
    27 0.605942 4.565639 0.000001 0.000000 -1.570795 0.183581
    28 0.339760 5.719981 0.000001 0.000000 -1.570795 0.183581
    29 1.620522 0.585389 0.906230 1.397308 -1.239013 3.061126
    30 8.683130 -0.055901 -0.805785 2.049573 1.402847 1.843492
    31 4.017078 -0.343716 -0.838145 -1.424292 0.049762 -0.291220
    32 9.653366 0.000000 0.000000 0.000000 0.001788 -0.013702
    33 9.700520 -0.000003 0.173653 1.570796 -0.058854 0.000001
    34 0.140934 1.465839 1.656826 -0.037035 -0.653280 -1.463125
    35 -0.074825 -0.930140 1.653088 0.145504 -0.483089 -1.732807
    36 2.275753 1.061657 -2.923033 -2.592914 -0.707330 0.649718
    37 -0.000006 1.650681 0.000000 -0.503380 -0.223883 0.141366
    38 1.750286 1.309223 2.431600 1.011993 0.210461 0.907309
    39 -0.000002 2.839314 0.000004 -0.415784 -0.535950 0.456325
    40 1.246666 2.549739 1.387323 0.860368 0.095125 0.755684
    41 -0.000011 3.089649 0.000004 -0.353464 -0.556296 0.514158
    42 1.620544 0.585401 -0.906207 -1.460919 1.238521 3.069740
    43 8.685409 -0.111885 0.775028 -1.212662 1.486555 -1.477698
    44 4.019470 -0.402164 0.799939 1.492225 -0.026337 -0.293716
    45 9.653353 0.000000 0.000000 0.000000 -0.001793 -0.013703
    46 9.700523 -0.000002 -0.173683 -1.570796 0.059154 0.000001
    47 0.140934 1.465840 -1.656834 3.104556 -0.653280 1.678468
    48 -0.074835 -0.930140 -1.653088 -2.996089 -0.483088 1.408786
    49 2.284115 0.849785 2.985156 0.473894 -0.664781 -2.444388
    50 -0.000004 1.650673 0.000000 -0.503380 0.223883 -0.141367
    51 1.750278 1.309222 -2.431606 -2.129602 0.210458 -2.234284
    52 0.000006 2.839322 -0.000004 -0.415784 0.535950 -0.456325
    53 1.246651 2.549738 -1.387329 -2.281227 0.095122 -2.385909
    54 0.000000 3.089647 0.000004 -0.353463 0.556296 -0.514157
    55 0.209564 -2.528919 -0.000001 0.000000 1.570788 3.001086
    56 0.000000 0.488070 1.833454 0.035867 0.000000 0.000000
    57 2.982521 0.000004 0.000002 -1.570796 0.000000 -1.570796
    58 13.441391 -0.116433 -0.318382 0.000000 0.000000 0.122992
    59 17.962406 0.000000 0.000000 0.000001 0.000000 -1.083473
    60 -2.982520 0.000004 0.000002 -1.570796 0.000000 -1.570796
    61 13.441391 -0.116433 0.318380 0.000000 0.000000 0.122992
    62 17.962404 0.000000 0.000000 0.000000 0.000000 -1.086513
    63 0.255142 -0.280396 0.786743 -1.627755 -0.392902 -0.330939
    64 1.293726 0.000001 0.000004 -0.056161 0.001272 -0.043727
    65 1.033816 0.026757 0.086334 -0.001546 -0.078120 -0.261983
    66 2.478046 -0.225307 0.803191 0.000000 -0.000003 -0.090672
    67 1.164511 -0.027367 0.008878 0.000000 0.000001 -0.023497
    68 0.793106 0.009369 -0.015788 0.000000 0.000001 0.011817
    69 2.609573 -0.172768 0.167416 0.000000 0.000000 -0.066108
    70 1.203957 0.021431 0.008552 0.000000 0.000000 0.017799
    71 0.809978 -0.023346 0.000000 0.000000 0.000001 -0.028814
    72 2.495249 -0.287563 -0.444678 0.000000 0.000001 -0.114735
    73 1.024574 0.059872 0.017763 0.000000 -0.000001 0.058380
    74 0.752829 -0.013725 0.027300 0.000000 -0.000001 -0.018228
    75 2.354773 -0.462547 -1.022895 0.000000 0.000000 -0.193958
    76 0.807177 0.074558 0.035851 0.000000 -0.000001 0.092100
    77 0.590862 0.010323 0.023023 0.000000 0.000000 0.017467
    78 0.255066 -0.280472 -0.786743 1.627755 0.392902 -0.331235
    79 1.293739 0.000000 0.000000 0.063510 -0.003851 -0.043927
    80 1.033585 0.026157 -0.089211 0.000848 0.076727 -0.262614
    81 2.477987 -0.226040 -0.803191 0.000000 0.000003 -0.090969
    82 1.164513 -0.027367 -0.008878 0.000000 -0.000001 -0.023497
    83 0.793108 0.009380 0.015789 0.000000 -0.000001 0.011816
    84 2.609531 -0.173538 -0.167416 0.000000 0.000001 -0.066404
    85 1.203957 0.021431 -0.008552 0.000000 0.000001 0.017799
    86 0.809977 -0.023357 0.000000 0.000000 -0.000001 -0.028815
    87 2.495169 -0.288296 0.444679 0.000000 0.000000 -0.115032
    88 1.024570 0.059879 -0.017762 0.000000 0.000001 0.058379
    89 0.752827 -0.013721 -0.027300 0.000000 0.000001 -0.018229
    90 2.354630 -0.463242 1.022895 0.000000 0.000001 -0.194255
    91 0.807183 0.074554 -0.035851 0.000000 0.000001 0.092099
    92 0.590853 0.010319 -0.023023 0.000000 -0.000001 0.017467
    93 0.794472 3.282163 -0.000002 0.000000 -1.570795 -0.637865
    94 0.000000 0.091843 0.779438 0.120736 0.000000 0.000000
    95 0.000000 0.167423 0.697979 0.088975 -0.000036 -0.000003
    96 0.000041 0.226933 1.110523 0.034320 0.000032 0.000000
    97 0.000008 0.112391 1.553921 0.017734 0.000002 0.000000
    98 0.000005 -0.150730 1.708767 0.276285 0.000059 0.000016
    99 2.795703 6.788696 3.734684 0.869066 0.000000 0.000000
    100 -0.000001 -0.562551 3.198040 0.317572 0.000000 0.000000
    101 0.000001 0.136873 4.045177 0.008174 0.000001 0.000000
    102 -0.000004 0.182449 4.048155 0.092432 0.000000 0.000000
    103 -0.000002 0.549179 4.012951 0.022276 0.000000 0.000000
end
