version 1
nodes
  0 "ROOT" -1
  1 "PJ_127" 0
  2 "PJ_128" 0
  3 "PJ_129" 0
  4 "PJ_130" 0
  5 "PJ_131" 0
  6 "PJ_132" 0
  7 "PJ_133" 0
  8 "PJ_134" 0
  9 "PJ_135" 0
  10 "PJ_136" 0
  11 "PJ_137" 0
  12 "PJ_138" 0
  13 "PJ_139" 0
  14 "PJ_140" 0
  15 "PJ_141" 0
  16 "PJ_142" 0
  17 "PJ_143" 0
  18 "PJ_144" 0
  19 "PJ_145" 0
  20 "PJ_146" 0
  21 "PJ_147" 0
  22 "PJ_148" 0
  23 "PJ_149" 0
  24 "PJ_150" 0
  25 "PJ_151" 0
  26 "PJ_152" 0
  27 "PJ_154" 0
  28 "PJ_155" 0
  29 "PJ_156" 0
  30 "PJ_158" 0
  31 "PJ_159" 0
  32 "PJ_160" 0
  33 "PJ_161" 0
  34 "PJ_162" 0
  35 "PJ_163" 0
  36 "PJ_164" 0
  37 "PJ_165" 0
  38 "PJ_166" 0
  39 "PJ_167" 0
  40 "PJ_168" 0
  41 "PJ_169" 0
  42 "PJ_170" 0
  43 "PJ_171" 0
  44 "PJ_172" 0
  45 "PJ_173" 0
  46 "PJ_174" 0
  47 "PJ_175" 0
  48 "PJ_176" 0
  49 "PJ_177" 0
  50 "PJ_178" 0
  51 "PJ_179" 0
  52 "PJ_180" 0
  53 "PJ_181" 0
  54 "PJ_182" 0
  55 "PJ_183" 0
  56 "PJ_184" 0
  57 "PJ_185" 0
  58 "PJ_186" 0
  59 "PJ_187" 0
  60 "PJ_188" 0
  61 "PJ_189" 0
  62 "PJ_190" 0
  63 "PJ_191" 0
  64 "PJ_192" 0
  65 "PJ_194" 0
  66 "PJ_195" 0
  67 "PJ_196" 0
  68 "PJ_197" 0
  69 "PJ_198" 0
  70 "PJ_199" 0
  71 "PJ_200" 0
  72 "PJ_201" 0
  73 "PJ_202" 0
  74 "PJ_203" 0
  75 "PJ_204" 0
  76 "PJ_205" 0
  77 "PJ_206" 0
  78 "PJ_207" 0
  79 "PJ_208" 0
  80 "PJ_209" 0
  81 "PJ_211" 0
  82 "PJ_212" 0
  83 "PJ_213" 0
  84 "PJ_214" 0
  85 "PJ_215" 0
  86 "PJ_216" 0
  87 "PJ_217" 0
  88 "PJ_218" 0
  89 "PJ_219" 0
  90 "PJ_220" 0
  91 "PJ_221" 0
  92 "PJ_222" 0
  93 "PJ_223" 0
  94 "PJ_224" 0
  95 "PJ_225" 0
  96 "PJ_226" 0
  97 "PJ_227" 0
  98 "PJ_228" 0
  99 "PJ_229" 0
  100 "PJ_231" 0
  101 "PJ_232" 0
  102 "PJ_233" 0
  103 "PJ_234" 0
  104 "PJ_235" 0
  105 "PJ_236" 0
  106 "PJ_237" 0
  107 "PJ_238" 0
  108 "PJ_239" 0
  109 "PJ_240" 0
  110 "PJ_241" 0
  111 "PJ_242" 0
  112 "PJ_243" 0
  113 "PJ_244" 0
  114 "PJ_245" 0
  115 "PJ_246" 0
  116 "PJ_247" 0
  117 "PJ_248" 0
  118 "PJ_249" 0
  119 "PJ_250" 0
  120 "PJ_251" 0
  121 "PJ_252" 0
  122 "PJ_253" 0
  123 "PJ_254" 0
  124 "PJ_255" 0
  125 "PJ_256" 0
  126 "PJ_257" 0
end
skeleton
  time 0
    0 -2560.000000 5376.000000 192.000000 1.570674 0.000183 -0.000183
    1 3668.000000 63.312500 7848.000000 0.000000 0.000000 0.000000
    2 3604.000000 97.687500 7752.000000 0.000000 0.000000 0.000000
    3 3608.000000 87.250000 7800.000000 0.000000 0.000000 0.000000
    4 3770.000000 80.437500 7748.000000 0.000000 0.000000 0.000000
    5 3670.000000 634.500000 7576.000000 0.000000 0.000000 0.000000
    6 3490.000000 63.062500 7840.000000 0.000000 0.000000 0.000000
    7 3584.000000 59.531250 7828.000000 0.000000 0.000000 0.000000
    8 3642.000000 209.000000 7632.000000 0.000000 0.000000 0.000000
    9 3746.000000 259.500000 7644.000000 0.000000 0.000000 0.000000
    10 3686.000000 877.500000 7356.000000 0.000000 0.000000 0.000000
    11 3784.000000 384.250000 7572.000000 0.000000 0.000000 0.000000
    12 3598.000000 769.500000 7412.000000 0.000000 0.000000 0.000000
    13 3602.000000 531.000000 7636.000000 0.000000 0.000000 0.000000
    14 3786.000000 450.500000 7560.000000 0.000000 0.000000 0.000000
    15 3754.000000 200.875000 7564.000000 0.000000 0.000000 0.000000
    16 3716.000000 266.000000 7536.000000 0.000000 0.000000 0.000000
    17 3778.000000 297.250000 7552.000000 0.000000 0.000000 0.000000
    18 3748.000000 203.750000 7640.000000 0.000000 0.000000 0.000000
    19 3498.000000 239.000000 7544.000000 0.000000 0.000000 0.000000
    20 3816.000000 284.000000 7476.000000 0.000000 0.000000 0.000000
    21 3820.000000 294.250000 7604.000000 0.000000 0.000000 0.000000
    22 3848.000000 278.750000 7596.000000 0.000000 0.000000 0.000000
    23 3872.000000 421.250000 7496.000000 0.000000 0.000000 0.000000
    24 3748.000000 728.500000 7604.000000 0.000000 0.000000 0.000000
    25 3776.000000 477.000000 7428.000000 0.000000 0.000000 0.000000
    26 3658.000000 327.250000 7500.000000 0.000000 0.000000 0.000000
    27 3746.000000 330.000000 7496.000000 0.000000 0.000000 0.000000
    28 3726.000000 762.000000 7456.000000 0.000000 0.000000 0.000000
    29 3612.000000 679.500000 7504.000000 0.000000 0.000000 0.000000
    30 3850.000000 280.000000 7420.000000 0.000000 0.000000 0.000000
    31 3724.000000 781.000000 7552.000000 0.000000 0.000000 0.000000
    32 3680.000000 882.000000 7352.000000 0.000000 0.000000 0.000000
    33 3628.000000 793.000000 7332.000000 0.000000 0.000000 0.000000
    34 3830.000000 318.750000 7488.000000 0.000000 0.000000 0.000000
    35 3846.000000 831.000000 7504.000000 0.000000 0.000000 0.000000
    36 3808.000000 860.000000 7524.000000 0.000000 0.000000 0.000000
    37 3584.000000 832.500000 7540.000000 0.000000 0.000000 0.000000
    38 3766.000000 917.500000 7436.000000 0.000000 0.000000 0.000000
    39 3812.000000 572.000000 7328.000000 0.000000 0.000000 0.000000
    40 3714.000000 522.000000 7476.000000 0.000000 0.000000 0.000000
    41 3696.000000 348.750000 7652.000000 0.000000 0.000000 0.000000
    42 3622.000000 1097.000000 7408.000000 0.000000 0.000000 0.000000
    43 3724.000000 466.750000 7372.000000 0.000000 0.000000 0.000000
    44 3780.000000 811.000000 7348.000000 0.000000 0.000000 0.000000
    45 3690.000000 867.500000 7428.000000 0.000000 0.000000 0.000000
    46 3762.000000 759.500000 7352.000000 0.000000 0.000000 0.000000
    47 3556.000000 1014.500000 7296.000000 0.000000 0.000000 0.000000
    48 3744.000000 513.000000 7496.000000 0.000000 0.000000 0.000000
    49 3780.000000 583.500000 7504.000000 0.000000 0.000000 0.000000
    50 3654.000000 887.000000 7176.000000 0.000000 0.000000 0.000000
    51 3856.000000 582.500000 7340.000000 0.000000 0.000000 0.000000
    52 3770.000000 737.500000 7480.000000 0.000000 0.000000 0.000000
    53 3800.000000 635.500000 7464.000000 0.000000 0.000000 0.000000
    54 3736.000000 1040.000000 7368.000000 0.000000 0.000000 0.000000
    55 3774.000000 800.000000 7456.000000 0.000000 0.000000 0.000000
    56 3946.000000 1014.500000 7360.000000 0.000000 0.000000 0.000000
    57 3888.000000 470.000000 7356.000000 0.000000 0.000000 0.000000
    58 3700.000000 1005.000000 7448.000000 0.000000 0.000000 0.000000
    59 3788.000000 908.000000 7456.000000 0.000000 0.000000 0.000000
    60 3580.000000 1015.000000 7384.000000 0.000000 0.000000 0.000000
    61 3618.000000 1001.000000 7452.000000 0.000000 0.000000 0.000000
    62 3780.000000 703.500000 7368.000000 0.000000 0.000000 0.000000
    63 3664.000000 1160.000000 7424.000000 0.000000 0.000000 0.000000
    64 3572.000000 971.000000 7216.000000 0.000000 0.000000 0.000000
    65 3874.000000 900.000000 7168.000000 0.000000 0.000000 0.000000
    66 3934.000000 821.500000 7344.000000 0.000000 0.000000 0.000000
    67 3622.000000 841.000000 7304.000000 0.000000 0.000000 0.000000
    68 3848.000000 882.500000 7456.000000 0.000000 0.000000 0.000000
    69 3914.000000 731.500000 7220.000000 0.000000 0.000000 0.000000
    70 3698.000000 967.000000 7348.000000 0.000000 0.000000 0.000000
    71 3558.000000 1088.000000 7396.000000 0.000000 0.000000 0.000000
    72 3656.000000 1248.000000 7280.000000 0.000000 0.000000 0.000000
    73 3772.000000 1039.000000 7392.000000 0.000000 0.000000 0.000000
    74 3696.000000 1129.000000 7452.000000 0.000000 0.000000 0.000000
    75 3888.000000 919.000000 7360.000000 0.000000 0.000000 0.000000
    76 3922.000000 892.000000 7292.000000 0.000000 0.000000 0.000000
    77 3810.000000 939.000000 7352.000000 0.000000 0.000000 0.000000
    78 3532.000000 1271.000000 7256.000000 0.000000 0.000000 0.000000
    79 3776.000000 1028.000000 7388.000000 0.000000 0.000000 0.000000
    80 3650.000000 857.500000 7460.000000 0.000000 0.000000 0.000000
    81 3676.000000 1362.000000 7072.000000 0.000000 0.000000 0.000000
    82 3688.000000 781.000000 7348.000000 0.000000 0.000000 0.000000
    83 3740.000000 1373.000000 7296.000000 0.000000 0.000000 0.000000
    84 3638.000000 1019.000000 7160.000000 0.000000 0.000000 0.000000
    85 3652.000000 985.000000 7128.000000 0.000000 0.000000 0.000000
    86 3708.000000 1257.000000 7276.000000 0.000000 0.000000 0.000000
    87 3782.000000 811.000000 7320.000000 0.000000 0.000000 0.000000
    88 3678.000000 1185.000000 7300.000000 0.000000 0.000000 0.000000
    89 3612.000000 924.000000 7092.000000 0.000000 0.000000 0.000000
    90 3608.000000 1163.000000 7236.000000 0.000000 0.000000 0.000000
    91 3560.000000 1175.000000 7296.000000 0.000000 0.000000 0.000000
    92 3528.000000 1100.000000 7116.000000 0.000000 0.000000 0.000000
    93 3742.000000 1096.000000 7232.000000 0.000000 0.000000 0.000000
    94 3708.000000 1142.000000 7060.000000 0.000000 0.000000 0.000000
    95 3650.000000 1474.000000 7168.000000 0.000000 0.000000 0.000000
    96 3876.000000 1185.000000 7288.000000 0.000000 0.000000 0.000000
    97 3662.000000 1041.000000 7244.000000 0.000000 0.000000 0.000000
    98 3866.000000 1281.000000 7160.000000 0.000000 0.000000 0.000000
    99 3606.000000 1036.000000 7352.000000 0.000000 0.000000 0.000000
    100 3808.000000 1087.000000 7292.000000 0.000000 0.000000 0.000000
    101 3648.000000 1242.000000 7140.000000 0.000000 0.000000 0.000000
    102 3860.000000 1107.000000 7212.000000 0.000000 0.000000 0.000000
    103 3656.000000 1338.000000 7136.000000 0.000000 0.000000 0.000000
    104 3790.000000 1215.000000 7084.000000 0.000000 0.000000 0.000000
    105 3712.000000 1518.000000 7132.000000 0.000000 0.000000 0.000000
    106 3502.000000 1378.000000 7112.000000 0.000000 0.000000 0.000000
    107 3814.000000 994.500000 7272.000000 0.000000 0.000000 0.000000
    108 3832.000000 1390.000000 7264.000000 0.000000 0.000000 0.000000
    109 3728.000000 1091.000000 7060.000000 0.000000 0.000000 0.000000
    110 3804.000000 1281.000000 7268.000000 0.000000 0.000000 0.000000
    111 3474.000000 1152.000000 7240.000000 0.000000 0.000000 0.000000
    112 3486.000000 1412.000000 6952.000000 0.000000 0.000000 0.000000
    113 3704.000000 1483.000000 6988.000000 0.000000 0.000000 0.000000
    114 3458.000000 1189.000000 6912.000000 0.000000 0.000000 0.000000
    115 3584.000000 1037.000000 7188.000000 0.000000 0.000000 0.000000
    116 3452.000000 1258.000000 6996.000000 0.000000 0.000000 0.000000
    117 3524.000000 1459.000000 6992.000000 0.000000 0.000000 0.000000
    118 3684.000000 1312.000000 6964.000000 0.000000 0.000000 0.000000
    119 3668.000000 1101.000000 6944.000000 0.000000 0.000000 0.000000
    120 3692.000000 1022.000000 7204.000000 0.000000 0.000000 0.000000
    121 3780.000000 1279.000000 6844.000000 0.000000 0.000000 0.000000
    122 3650.000000 1072.000000 7360.000000 0.000000 0.000000 0.000000
    123 3468.000000 1184.000000 7124.000000 0.000000 0.000000 0.000000
    124 3570.000000 844.500000 7092.000000 0.000000 0.000000 0.000000
    125 3682.000000 1241.000000 7184.000000 0.000000 0.000000 0.000000
    126 3518.000000 1342.000000 6956.000000 0.000000 0.000000 0.000000
end
