// Created by Crowbar 0.74
version 1
nodes
  0 "static_prop" -1
end
skeleton
  time 0
    0 0.000000 0.000000 0.000000 0.000000 0.000000 0.000000
end
triangles
  phy
    0 48.006196 48.002296 4.039942 -0.706197 0.033102 0.707241 0 0
    0 48.006205 -48.003187 4.039940 0.453043 0.011006 0.891421 0 0
    0 45.190979 -47.704301 -0.109711 0.043153 0.998090 0.044197 0 0
  phy
    0 45.190979 -47.704301 -0.109711 0.043153 0.998090 0.044197 0 0
    0 45.190970 47.704301 -0.109707 -0.041981 0.998146 0.044070 0 0
    0 48.006196 48.002296 4.039942 -0.706197 0.033102 0.707241 0 0
  phy
    0 48.006205 -48.003187 4.039940 0.453043 0.011006 0.891421 0 0
    0 -47.999273 -48.003197 4.039930 0.706765 0.014280 -0.707304 0 0
    0 45.190979 -47.704301 -0.109711 0.043153 0.998090 0.044197 0 0
  phy
    0 -47.999273 -48.003197 4.039930 0.706765 0.014280 -0.707304 0 0
    0 -45.695220 -47.704310 -0.109711 0.042210 0.998126 -0.044310 0 0
    0 45.190979 -47.704301 -0.109711 0.043153 0.998090 0.044197 0 0
  phy
    0 45.190979 -47.704301 -0.109711 0.043153 0.998090 0.044197 0 0
    0 -45.695230 47.704301 -0.109707 -0.043389 0.998069 -0.044439 0 0
    0 45.190970 47.704301 -0.109707 -0.041981 0.998146 0.044070 0 0
  phy
    0 -45.695230 47.704301 -0.109707 -0.043389 0.998069 -0.044439 0 0
    0 45.190979 -47.704301 -0.109711 0.043153 0.998090 0.044197 0 0
    0 -45.695220 -47.704310 -0.109711 0.042210 0.998126 -0.044310 0 0
  phy
    0 -45.695230 47.704301 -0.109707 -0.043389 0.998069 -0.044439 0 0
    0 48.006196 48.002296 4.039942 -0.706197 0.033102 0.707241 0 0
    0 45.190970 47.704301 -0.109707 -0.041981 0.998146 0.044070 0 0
  phy
    0 48.006196 48.002296 4.039942 -0.706197 0.033102 0.707241 0 0
    0 -45.695230 47.704301 -0.109707 -0.043389 0.998069 -0.044439 0 0
    0 -47.999283 48.002296 4.039947 -0.891437 0.009196 -0.453051 0 0
  phy
    0 48.006196 48.002296 128.082422 -0.682033 -0.263937 0.682033 0 0
    0 48.006196 48.002296 4.039942 -0.706197 0.033102 0.707241 0 0
    0 -47.999283 48.002296 4.039947 -0.891437 0.009196 -0.453051 0 0
  phy
    0 48.006196 48.002296 4.039942 -0.706197 0.033102 0.707241 0 0
    0 48.006196 48.002296 128.082422 -0.682033 -0.263937 0.682033 0 0
    0 48.006205 -48.003187 4.039940 0.453043 0.011006 0.891421 0 0
  phy
    0 48.006205 -48.003192 128.082422 0.735407 -0.569185 0.367703 0 0
    0 -47.999273 -48.003197 4.039930 0.706765 0.014280 -0.707304 0 0
    0 48.006205 -48.003187 4.039940 0.453043 0.011006 0.891421 0 0
  phy
    0 48.006205 -48.003187 4.039940 0.453043 0.011006 0.891421 0 0
    0 48.006196 48.002296 128.082422 -0.682033 -0.263937 0.682033 0 0
    0 48.006205 -48.003192 128.082422 0.735407 -0.569185 0.367703 0 0
  phy
    0 -47.999273 -48.003197 4.039930 0.706765 0.014280 -0.707304 0 0
    0 -45.695230 47.704301 -0.109707 -0.043389 0.998069 -0.044439 0 0
    0 -45.695220 -47.704310 -0.109711 0.042210 0.998126 -0.044310 0 0
  phy
    0 -45.695230 47.704301 -0.109707 -0.043389 0.998069 -0.044439 0 0
    0 -47.999273 -48.003197 4.039930 0.706765 0.014280 -0.707304 0 0
    0 -47.999283 48.002296 4.039947 -0.891437 0.009196 -0.453051 0 0
  phy
    0 48.006205 -48.003192 128.082422 0.735407 -0.569185 0.367703 0 0
    0 -47.999283 48.002286 128.082422 -0.367703 -0.569185 -0.735407 0 0
    0 -47.999273 -48.003201 128.082422 0.620289 -0.480087 -0.620289 0 0
  phy
    0 48.006205 -48.003192 128.082422 0.735407 -0.569185 0.367703 0 0
    0 48.006196 48.002296 128.082422 -0.682033 -0.263937 0.682033 0 0
    0 -47.999283 48.002286 128.082422 -0.367703 -0.569185 -0.735407 0 0
  phy
    0 48.006205 -48.003192 128.082422 0.735407 -0.569185 0.367703 0 0
    0 -47.999273 -48.003201 128.082422 0.620289 -0.480087 -0.620289 0 0
    0 -47.999273 -48.003197 4.039930 0.706765 0.014280 -0.707304 0 0
  phy
    0 -47.999283 48.002286 128.082422 -0.367703 -0.569185 -0.735407 0 0
    0 -47.999273 -48.003197 4.039930 0.706765 0.014280 -0.707304 0 0
    0 -47.999273 -48.003201 128.082422 0.620289 -0.480087 -0.620289 0 0
  phy
    0 -47.999273 -48.003197 4.039930 0.706765 0.014280 -0.707304 0 0
    0 -47.999283 48.002286 128.082422 -0.367703 -0.569185 -0.735407 0 0
    0 -47.999283 48.002296 4.039947 -0.891437 0.009196 -0.453051 0 0
  phy
    0 -47.999283 48.002286 128.082422 -0.367703 -0.569185 -0.735407 0 0
    0 48.006196 48.002296 128.082422 -0.682033 -0.263937 0.682033 0 0
    0 -47.999283 48.002296 4.039947 -0.891437 0.009196 -0.453051 0 0
end
