// Created by Crowbar 0.74
version 1
nodes
  0 "static_prop" -1
end
skeleton
  time 0
    0 0.000000 0.000000 0.000000 0.000000 0.000000 0.000000
end
triangles
  phy
    0 5.463165 -18.757769 1.449378 -0.656402 -0.716000 -0.237655 0 0
    0 4.497138 -24.675384 5.230941 -0.415060 -0.908715 -0.044294 0 0
    0 6.159627 -20.220458 2.429809 -0.559819 -0.821317 0.109736 0 0
  phy
    0 4.497138 -24.675384 5.230941 -0.415060 -0.908715 -0.044294 0 0
    0 6.875939 -23.202431 4.290150 -0.115151 -0.555168 0.823729 0 0
    0 6.159627 -20.220458 2.429809 -0.559819 -0.821317 0.109736 0 0
  phy
    0 6.272062 -18.532418 0.806679 -0.449785 -0.240463 0.860158 0 0
    0 5.463165 -18.757769 1.449378 -0.656402 -0.716000 -0.237655 0 0
    0 6.159627 -20.220458 2.429809 -0.559819 -0.821317 0.109736 0 0
  phy
    0 6.159627 -20.220458 2.429809 -0.559819 -0.821317 0.109736 0 0
    0 6.875939 -23.202431 4.290150 -0.115151 -0.555168 0.823729 0 0
    0 6.272062 -18.532418 0.806679 -0.449785 -0.240463 0.860158 0 0
  phy
    0 4.381383 -23.100282 1.658417 0.583265 0.804777 -0.110159 0 0
    0 5.059486 -22.016698 0.822370 0.367396 0.928377 0.055993 0 0
    0 5.375607 -23.287582 1.704186 0.621529 0.783349 0.008095 0 0
  phy
    0 4.348194 -24.377859 2.630994 0.793323 0.598135 -0.113455 0 0
    0 4.381383 -23.100282 1.658417 0.583265 0.804777 -0.110159 0 0
    0 5.375607 -23.287582 1.704186 0.621529 0.783349 0.008095 0 0
  phy
    0 4.381383 -23.100282 1.658417 0.583265 0.804777 -0.110159 0 0
    0 3.862043 -22.705859 1.489759 0.539214 0.811292 -0.225949 0 0
    0 5.059486 -22.016698 0.822370 0.367396 0.928377 0.055993 0 0
  phy
    0 3.862043 -22.705859 1.489759 0.539214 0.811292 -0.225949 0 0
    0 4.381383 -23.100282 1.658417 0.583265 0.804777 -0.110159 0 0
    0 4.348194 -24.377859 2.630994 0.793323 0.598135 -0.113455 0 0
  phy
    0 3.530390 -19.996682 1.169868 -0.492268 -0.401624 -0.772250 0 0
    0 4.185164 -18.930327 0.235265 -0.689021 0.144466 -0.710197 0 0
    0 3.333826 -21.619656 1.011636 0.229573 0.785684 -0.574453 0 0
  phy
    0 4.185164 -18.930327 0.235265 -0.689021 0.144466 -0.710197 0 0
    0 4.250867 -19.541915 -0.000001 0.212997 0.972005 -0.099184 0 0
    0 3.333826 -21.619656 1.011636 0.229573 0.785684 -0.574453 0 0
  phy
    0 4.250867 -19.541915 -0.000001 0.212997 0.972005 -0.099184 0 0
    0 4.185164 -18.930327 0.235265 -0.689021 0.144466 -0.710197 0 0
    0 5.697589 -18.532408 0.093922 -0.046565 0.946854 0.318276 0 0
  phy
    0 4.185164 -18.930327 0.235265 -0.689021 0.144466 -0.710197 0 0
    0 3.530390 -19.996682 1.169868 -0.492268 -0.401624 -0.772250 0 0
    0 5.463165 -18.757769 1.449378 -0.656402 -0.716000 -0.237655 0 0
  phy
    0 4.185164 -18.930327 0.235265 -0.689021 0.144466 -0.710197 0 0
    0 5.463165 -18.757769 1.449378 -0.656402 -0.716000 -0.237655 0 0
    0 5.697589 -18.532408 0.093922 -0.046565 0.946854 0.318276 0 0
  phy
    0 3.530390 -19.996682 1.169868 -0.492268 -0.401624 -0.772250 0 0
    0 3.050772 -23.828750 3.767886 0.002617 -0.236475 -0.971634 0 0
    0 3.368967 -23.985883 4.688669 -0.467184 -0.736129 -0.489748 0 0
  phy
    0 3.050772 -23.828750 3.767886 0.002617 -0.236475 -0.971634 0 0
    0 3.530390 -19.996682 1.169868 -0.492268 -0.401624 -0.772250 0 0
    0 2.924302 -23.612713 2.865754 0.338009 0.105193 -0.935245 0 0
  phy
    0 4.192577 -24.710056 3.838511 0.957175 0.126142 -0.260584 0 0
    0 3.368967 -23.985883 4.688669 -0.467184 -0.736129 -0.489748 0 0
    0 3.050772 -23.828750 3.767886 0.002617 -0.236475 -0.971634 0 0
  phy
    0 3.050772 -23.828750 3.767886 0.002617 -0.236475 -0.971634 0 0
    0 2.924302 -23.612713 2.865754 0.338009 0.105193 -0.935245 0 0
    0 4.192577 -24.710056 3.838511 0.957175 0.126142 -0.260584 0 0
  phy
    0 6.272062 -18.532418 0.806679 -0.449785 -0.240463 0.860158 0 0
    0 6.762297 -21.926549 2.657297 0.016053 0.187301 0.982171 0 0
    0 6.272063 -19.505409 0.806676 0.052202 0.441225 0.895877 0 0
  phy
    0 6.272062 -18.532418 0.806679 -0.449785 -0.240463 0.860158 0 0
    0 6.875939 -23.202431 4.290150 -0.115151 -0.555168 0.823729 0 0
    0 6.762297 -21.926549 2.657297 0.016053 0.187301 0.982171 0 0
  phy
    0 6.272063 -19.505409 0.806676 0.052202 0.441225 0.895877 0 0
    0 5.697589 -18.532408 0.093922 -0.046565 0.946854 0.318276 0 0
    0 6.272062 -18.532418 0.806679 -0.449785 -0.240463 0.860158 0 0
  phy
    0 5.463165 -18.757769 1.449378 -0.656402 -0.716000 -0.237655 0 0
    0 6.272062 -18.532418 0.806679 -0.449785 -0.240463 0.860158 0 0
    0 5.697589 -18.532408 0.093922 -0.046565 0.946854 0.318276 0 0
  phy
    0 3.595164 -23.645341 2.294375 0.655023 0.669903 -0.349535 0 0
    0 3.862043 -22.705859 1.489759 0.539214 0.811292 -0.225949 0 0
    0 4.348194 -24.377859 2.630994 0.793323 0.598135 -0.113455 0 0
  phy
    0 3.862043 -22.705859 1.489759 0.539214 0.811292 -0.225949 0 0
    0 2.979484 -23.029367 2.026607 0.201660 0.428767 -0.880620 0 0
    0 3.333826 -21.619656 1.011636 0.229573 0.785684 -0.574453 0 0
  phy
    0 5.059486 -22.016698 0.822370 0.367396 0.928377 0.055993 0 0
    0 3.862043 -22.705859 1.489759 0.539214 0.811292 -0.225949 0 0
    0 3.333826 -21.619656 1.011636 0.229573 0.785684 -0.574453 0 0
  phy
    0 3.862043 -22.705859 1.489759 0.539214 0.811292 -0.225949 0 0
    0 3.595164 -23.645341 2.294375 0.655023 0.669903 -0.349535 0 0
    0 2.979484 -23.029367 2.026607 0.201660 0.428767 -0.880620 0 0
  phy
    0 2.979484 -23.029367 2.026607 0.201660 0.428767 -0.880620 0 0
    0 3.530390 -19.996682 1.169868 -0.492268 -0.401624 -0.772250 0 0
    0 3.333826 -21.619656 1.011636 0.229573 0.785684 -0.574453 0 0
  phy
    0 3.530390 -19.996682 1.169868 -0.492268 -0.401624 -0.772250 0 0
    0 2.979484 -23.029367 2.026607 0.201660 0.428767 -0.880620 0 0
    0 2.924302 -23.612713 2.865754 0.338009 0.105193 -0.935245 0 0
  phy
    0 3.530390 -19.996682 1.169868 -0.492268 -0.401624 -0.772250 0 0
    0 3.368967 -23.985883 4.688669 -0.467184 -0.736129 -0.489748 0 0
    0 5.463165 -18.757769 1.449378 -0.656402 -0.716000 -0.237655 0 0
  phy
    0 4.192577 -24.710056 3.838511 0.957175 0.126142 -0.260584 0 0
    0 4.348194 -24.377859 2.630994 0.793323 0.598135 -0.113455 0 0
    0 6.103405 -24.263371 2.849928 0.844812 0.230180 0.483021 0 0
  phy
    0 6.103405 -24.263371 2.849928 0.844812 0.230180 0.483021 0 0
    0 5.328838 -24.772779 4.754069 0.871754 -0.161259 0.462646 0 0
    0 4.192577 -24.710056 3.838511 0.957175 0.126142 -0.260584 0 0
  phy
    0 4.192577 -24.710056 3.838511 0.957175 0.126142 -0.260584 0 0
    0 5.328838 -24.772779 4.754069 0.871754 -0.161259 0.462646 0 0
    0 4.497138 -24.675384 5.230941 -0.415060 -0.908715 -0.044294 0 0
  phy
    0 4.192577 -24.710056 3.838511 0.957175 0.126142 -0.260584 0 0
    0 2.924302 -23.612713 2.865754 0.338009 0.105193 -0.935245 0 0
    0 4.348194 -24.377859 2.630994 0.793323 0.598135 -0.113455 0 0
  phy
    0 4.497138 -24.675384 5.230941 -0.415060 -0.908715 -0.044294 0 0
    0 3.368967 -23.985883 4.688669 -0.467184 -0.736129 -0.489748 0 0
    0 4.192577 -24.710056 3.838511 0.957175 0.126142 -0.260584 0 0
  phy
    0 6.272063 -19.505409 0.806676 0.052202 0.441225 0.895877 0 0
    0 6.762297 -21.926549 2.657297 0.016053 0.187301 0.982171 0 0
    0 6.315356 -22.799415 1.399415 0.248719 0.643225 0.724155 0 0
  phy
    0 6.272063 -19.505409 0.806676 0.052202 0.441225 0.895877 0 0
    0 6.315356 -22.799415 1.399415 0.248719 0.643225 0.724155 0 0
    0 5.697589 -18.532408 0.093922 -0.046565 0.946854 0.318276 0 0
  phy
    0 6.103405 -24.263371 2.849928 0.844812 0.230180 0.483021 0 0
    0 4.348194 -24.377859 2.630994 0.793323 0.598135 -0.113455 0 0
    0 6.249045 -23.406660 1.951541 0.617971 0.536725 0.574490 0 0
  phy
    0 6.249045 -23.406660 1.951541 0.617971 0.536725 0.574490 0 0
    0 4.348194 -24.377859 2.630994 0.793323 0.598135 -0.113455 0 0
    0 5.375607 -23.287582 1.704186 0.621529 0.783349 0.008095 0 0
  phy
    0 6.315356 -22.799415 1.399415 0.248719 0.643225 0.724155 0 0
    0 6.249045 -23.406660 1.951541 0.617971 0.536725 0.574490 0 0
    0 5.375607 -23.287582 1.704186 0.621529 0.783349 0.008095 0 0
  phy
    0 6.315356 -22.799415 1.399415 0.248719 0.643225 0.724155 0 0
    0 6.875939 -23.202431 4.290150 -0.115151 -0.555168 0.823729 0 0
    0 6.249045 -23.406660 1.951541 0.617971 0.536725 0.574490 0 0
  phy
    0 6.249045 -23.406660 1.951541 0.617971 0.536725 0.574490 0 0
    0 6.875939 -23.202431 4.290150 -0.115151 -0.555168 0.823729 0 0
    0 6.103405 -24.263371 2.849928 0.844812 0.230180 0.483021 0 0
  phy
    0 3.595164 -23.645341 2.294375 0.655023 0.669903 -0.349535 0 0
    0 2.924302 -23.612713 2.865754 0.338009 0.105193 -0.935245 0 0
    0 2.979484 -23.029367 2.026607 0.201660 0.428767 -0.880620 0 0
  phy
    0 4.348194 -24.377859 2.630994 0.793323 0.598135 -0.113455 0 0
    0 2.924302 -23.612713 2.865754 0.338009 0.105193 -0.935245 0 0
    0 3.595164 -23.645341 2.294375 0.655023 0.669903 -0.349535 0 0
  phy
    0 4.250867 -19.541915 -0.000001 0.212997 0.972005 -0.099184 0 0
    0 5.059486 -22.016698 0.822370 0.367396 0.928377 0.055993 0 0
    0 3.333826 -21.619656 1.011636 0.229573 0.785684 -0.574453 0 0
  phy
    0 5.059486 -22.016698 0.822370 0.367396 0.928377 0.055993 0 0
    0 4.250867 -19.541915 -0.000001 0.212997 0.972005 -0.099184 0 0
    0 5.697589 -18.532408 0.093922 -0.046565 0.946854 0.318276 0 0
  phy
    0 5.463165 -18.757769 1.449378 -0.656402 -0.716000 -0.237655 0 0
    0 3.368967 -23.985883 4.688669 -0.467184 -0.736129 -0.489748 0 0
    0 4.497138 -24.675384 5.230941 -0.415060 -0.908715 -0.044294 0 0
  phy
    0 4.497138 -24.675384 5.230941 -0.415060 -0.908715 -0.044294 0 0
    0 5.328838 -24.772779 4.754069 0.871754 -0.161259 0.462646 0 0
    0 6.875939 -23.202431 4.290150 -0.115151 -0.555168 0.823729 0 0
  phy
    0 5.059486 -22.016698 0.822370 0.367396 0.928377 0.055993 0 0
    0 6.315356 -22.799415 1.399415 0.248719 0.643225 0.724155 0 0
    0 5.375607 -23.287582 1.704186 0.621529 0.783349 0.008095 0 0
  phy
    0 6.315356 -22.799415 1.399415 0.248719 0.643225 0.724155 0 0
    0 5.059486 -22.016698 0.822370 0.367396 0.928377 0.055993 0 0
    0 5.697589 -18.532408 0.093922 -0.046565 0.946854 0.318276 0 0
  phy
    0 6.762297 -21.926549 2.657297 0.016053 0.187301 0.982171 0 0
    0 6.875939 -23.202431 4.290150 -0.115151 -0.555168 0.823729 0 0
    0 6.315356 -22.799415 1.399415 0.248719 0.643225 0.724155 0 0
  phy
    0 6.875939 -23.202431 4.290150 -0.115151 -0.555168 0.823729 0 0
    0 5.328838 -24.772779 4.754069 0.871754 -0.161259 0.462646 0 0
    0 6.103405 -24.263371 2.849928 0.844812 0.230180 0.483021 0 0
  phy
    0 3.569483 -30.233991 6.023430 -0.022362 -0.761932 0.647270 0 0
    0 5.290283 -27.873826 4.133559 -0.169657 -0.662949 0.729188 0 0
    0 2.768599 -29.173409 6.594951 -0.153574 -0.830996 0.534659 0 0
  phy
    0 5.052636 -30.754209 4.701031 0.055662 -0.692134 0.719619 0 0
    0 5.290283 -27.873826 4.133559 -0.169657 -0.662949 0.729188 0 0
    0 3.569483 -30.233991 6.023430 -0.022362 -0.761932 0.647270 0 0
  phy
    0 2.768599 -29.173409 6.594951 -0.153574 -0.830996 0.534659 0 0
    0 3.031112 -31.788312 6.167638 0.366053 -0.738988 0.565598 0 0
    0 3.569483 -30.233991 6.023430 -0.022362 -0.761932 0.647270 0 0
  phy
    0 3.569483 -30.233991 6.023430 -0.022362 -0.761932 0.647270 0 0
    0 3.031112 -31.788312 6.167638 0.366053 -0.738988 0.565598 0 0
    0 5.052636 -30.754209 4.701031 0.055662 -0.692134 0.719619 0 0
  phy
    0 1.898920 -25.333368 0.096658 -0.277847 0.958676 -0.061161 0 0
    0 0.109766 -22.985410 1.498691 -0.462251 0.876550 -0.134104 0 0
    0 4.066492 -24.169749 0.492533 -0.477056 0.878211 0.034109 0 0
  phy
    0 4.066492 -24.169749 0.492533 -0.477056 0.878211 0.034109 0 0
    0 0.109766 -22.985410 1.498691 -0.462251 0.876550 -0.134104 0 0
    0 1.165632 -21.599174 2.149841 -0.884047 0.460430 -0.080411 0 0
  phy
    0 0.282855 -22.190518 2.029102 -0.704863 0.215353 -0.675864 0 0
    0 0.109766 -22.985410 1.498691 -0.462251 0.876550 -0.134104 0 0
    0 -3.600787 -27.240332 -0.000001 -0.188226 0.976143 -0.108238 0 0
  phy
    0 0.109766 -22.985410 1.498691 -0.462251 0.876550 -0.134104 0 0
    0 0.282855 -22.190518 2.029102 -0.704863 0.215353 -0.675864 0 0
    0 1.165632 -21.599174 2.149841 -0.884047 0.460430 -0.080411 0 0
  phy
    0 0.109766 -22.985410 1.498691 -0.462251 0.876550 -0.134104 0 0
    0 1.898920 -25.333368 0.096658 -0.277847 0.958676 -0.061161 0 0
    0 -3.600787 -27.240332 -0.000001 -0.188226 0.976143 -0.108238 0 0
  phy
    0 1.841707 -31.641881 6.620296 0.315046 -0.927271 0.202274 0 0
    0 1.282950 -31.306711 6.657876 0.085411 -0.996339 0.003555 0 0
    0 1.552570 -32.801121 5.858357 0.744673 -0.665684 -0.048248 0 0
  phy
    0 1.282950 -31.306711 6.657876 0.085411 -0.996339 0.003555 0 0
    0 0.595530 -30.923397 6.687070 0.289572 -0.795861 -0.531745 0 0
    0 1.552570 -32.801121 5.858357 0.744673 -0.665684 -0.048248 0 0
  phy
    0 0.595530 -30.923397 6.687070 0.289572 -0.795861 -0.531745 0 0
    0 1.282950 -31.306711 6.657876 0.085411 -0.996339 0.003555 0 0
    0 0.412898 -28.908105 6.707139 -0.165745 -0.875008 -0.454852 0 0
  phy
    0 1.282950 -31.306711 6.657876 0.085411 -0.996339 0.003555 0 0
    0 2.175692 -28.068325 6.643997 -0.195686 -0.958202 0.208700 0 0
    0 0.412898 -28.908105 6.707139 -0.165745 -0.875008 -0.454852 0 0
  phy
    0 0.595530 -30.923397 6.687070 0.289572 -0.795861 -0.531745 0 0
    0 0.412898 -28.908105 6.707139 -0.165745 -0.875008 -0.454852 0 0
    0 -1.401653 -30.902744 4.882475 0.283361 -0.638252 -0.715780 0 0
  phy
    0 -0.411338 -32.029884 5.256785 0.490862 -0.610258 -0.621803 0 0
    0 1.552570 -32.801121 5.858357 0.744673 -0.665684 -0.048248 0 0
    0 0.595530 -30.923397 6.687070 0.289572 -0.795861 -0.531745 0 0
  phy
    0 -1.401653 -30.902744 4.882475 0.283361 -0.638252 -0.715780 0 0
    0 -0.411338 -32.029884 5.256785 0.490862 -0.610258 -0.621803 0 0
    0 0.595530 -30.923397 6.687070 0.289572 -0.795861 -0.531745 0 0
  phy
    0 1.841707 -31.641881 6.620296 0.315046 -0.927271 0.202274 0 0
    0 2.768599 -29.173409 6.594951 -0.153574 -0.830996 0.534659 0 0
    0 1.282950 -31.306711 6.657876 0.085411 -0.996339 0.003555 0 0
  phy
    0 2.768599 -29.173409 6.594951 -0.153574 -0.830996 0.534659 0 0
    0 2.175692 -28.068325 6.643997 -0.195686 -0.958202 0.208700 0 0
    0 1.282950 -31.306711 6.657876 0.085411 -0.996339 0.003555 0 0
  phy
    0 2.768599 -29.173409 6.594951 -0.153574 -0.830996 0.534659 0 0
    0 2.925620 -23.085020 4.527236 -0.415077 -0.620121 0.665703 0 0
    0 2.175692 -28.068325 6.643997 -0.195686 -0.958202 0.208700 0 0
  phy
    0 5.290283 -27.873826 4.133559 -0.169657 -0.662949 0.729188 0 0
    0 2.925620 -23.085020 4.527236 -0.415077 -0.620121 0.665703 0 0
    0 2.768599 -29.173409 6.594951 -0.153574 -0.830996 0.534659 0 0
  phy
    0 2.768599 -29.173409 6.594951 -0.153574 -0.830996 0.534659 0 0
    0 1.841707 -31.641881 6.620296 0.315046 -0.927271 0.202274 0 0
    0 3.031112 -31.788312 6.167638 0.366053 -0.738988 0.565598 0 0
  phy
    0 4.636989 -24.144288 0.858429 -0.749152 0.402787 0.525865 0 0
    0 4.066492 -24.169749 0.492533 -0.477056 0.878211 0.034109 0 0
    0 1.165632 -21.599174 2.149841 -0.884047 0.460430 -0.080411 0 0
  phy
    0 1.937742 -21.657165 2.795631 -0.927318 -0.336857 0.163119 0 0
    0 4.636989 -24.144288 0.858429 -0.749152 0.402787 0.525865 0 0
    0 1.165632 -21.599174 2.149841 -0.884047 0.460430 -0.080411 0 0
  phy
    0 4.796466 -24.158997 1.630121 -0.505008 -0.145449 0.850771 0 0
    0 4.636989 -24.144288 0.858429 -0.749152 0.402787 0.525865 0 0
    0 1.937742 -21.657165 2.795631 -0.927318 -0.336857 0.163119 0 0
  phy
    0 4.796466 -24.158997 1.630121 -0.505008 -0.145449 0.850771 0 0
    0 5.305912 -25.367737 0.741810 -0.388111 0.593130 0.705384 0 0
    0 4.636989 -24.144288 0.858429 -0.749152 0.402787 0.525865 0 0
  phy
    0 4.066492 -24.169749 0.492533 -0.477056 0.878211 0.034109 0 0
    0 4.636989 -24.144288 0.858429 -0.749152 0.402787 0.525865 0 0
    0 5.305912 -25.367737 0.741810 -0.388111 0.593130 0.705384 0 0
  phy
    0 1.908297 -27.813930 0.000001 -0.007287 0.999969 0.002862 0 0
    0 1.898920 -25.333368 0.096658 -0.277847 0.958676 -0.061161 0 0
    0 4.166646 -25.336353 0.149774 -0.122442 0.982270 0.141960 0 0
  phy
    0 1.908297 -27.813930 0.000001 -0.007287 0.999969 0.002862 0 0
    0 4.166646 -25.336353 0.149774 -0.122442 0.982270 0.141960 0 0
    0 5.368360 -29.893579 0.000001 -0.011561 0.999890 0.009344 0 0
  phy
    0 1.898920 -25.333368 0.096658 -0.277847 0.958676 -0.061161 0 0
    0 4.066492 -24.169749 0.492533 -0.477056 0.878211 0.034109 0 0
    0 4.166646 -25.336353 0.149774 -0.122442 0.982270 0.141960 0 0
  phy
    0 1.898920 -25.333368 0.096658 -0.277847 0.958676 -0.061161 0 0
    0 1.908297 -27.813930 0.000001 -0.007287 0.999969 0.002862 0 0
    0 -3.600787 -27.240332 -0.000001 -0.188226 0.976143 -0.108238 0 0
  phy
    0 9.102937 -33.594370 -0.000001 0.031539 -0.042775 0.998587 0 0
    0 5.368360 -29.893579 0.000001 -0.011561 0.999890 0.009344 0 0
    0 8.831177 -33.010765 0.013982 -0.160269 0.957687 0.239059 0 0
  phy
    0 8.831177 -33.010765 0.013982 -0.160269 0.957687 0.239059 0 0
    0 5.368360 -29.893579 0.000001 -0.011561 0.999890 0.009344 0 0
    0 4.166646 -25.336353 0.149774 -0.122442 0.982270 0.141960 0 0
  phy
    0 9.102937 -33.594370 -0.000001 0.031539 -0.042775 0.998587 0 0
    0 6.940168 -36.747357 -0.000002 0.690583 -0.601630 0.401417 0 0
    0 2.732706 -37.389968 -0.000002 0.508227 0.860403 0.037579 0 0
  phy
    0 9.102937 -33.594370 -0.000001 0.031539 -0.042775 0.998587 0 0
    0 2.732706 -37.389968 -0.000002 0.508227 0.860403 0.037579 0 0
    0 5.368360 -29.893579 0.000001 -0.011561 0.999890 0.009344 0 0
  phy
    0 5.368360 -29.893579 0.000001 -0.011561 0.999890 0.009344 0 0
    0 2.732706 -37.389968 -0.000002 0.508227 0.860403 0.037579 0 0
    0 1.908297 -27.813930 0.000001 -0.007287 0.999969 0.002862 0 0
  phy
    0 1.908297 -27.813930 0.000001 -0.007287 0.999969 0.002862 0 0
    0 2.732706 -37.389968 -0.000002 0.508227 0.860403 0.037579 0 0
    0 -1.174562 -37.347372 -0.000002 0.736955 0.478645 -0.477281 0 0
  phy
    0 1.908297 -27.813930 0.000001 -0.007287 0.999969 0.002862 0 0
    0 -1.174562 -37.347372 -0.000002 0.736955 0.478645 -0.477281 0 0
    0 -4.106048 -32.840636 0.000000 0.392663 0.679100 -0.620192 0 0
  phy
    0 1.908297 -27.813930 0.000001 -0.007287 0.999969 0.002862 0 0
    0 -4.106048 -32.840636 0.000000 0.392663 0.679100 -0.620192 0 0
    0 -3.600787 -27.240332 -0.000001 -0.188226 0.976143 -0.108238 0 0
  phy
    0 -3.600787 -27.240332 -0.000001 -0.188226 0.976143 -0.108238 0 0
    0 -4.106048 -32.840636 0.000000 0.392663 0.679100 -0.620192 0 0
    0 -5.985914 -29.777638 0.000001 -0.174505 -0.352352 -0.919454 0 0
  phy
    0 -0.411338 -32.029884 5.256785 0.490862 -0.610258 -0.621803 0 0
    0 -1.401653 -30.902744 4.882475 0.283361 -0.638252 -0.715780 0 0
    0 -4.106048 -32.840636 0.000000 0.392663 0.679100 -0.620192 0 0
  phy
    0 -4.106048 -32.840636 0.000000 0.392663 0.679100 -0.620192 0 0
    0 -1.401653 -30.902744 4.882475 0.283361 -0.638252 -0.715780 0 0
    0 -5.985914 -29.777638 0.000001 -0.174505 -0.352352 -0.919454 0 0
  phy
    0 -1.401653 -30.902744 4.882475 0.283361 -0.638252 -0.715780 0 0
    0 0.412898 -28.908105 6.707139 -0.165745 -0.875008 -0.454852 0 0
    0 -1.634355 -29.236257 4.746294 -0.083293 -0.682208 -0.726399 0 0
  phy
    0 -1.401653 -30.902744 4.882475 0.283361 -0.638252 -0.715780 0 0
    0 -1.634355 -29.236257 4.746294 -0.083293 -0.682208 -0.726399 0 0
    0 -5.985914 -29.777638 0.000001 -0.174505 -0.352352 -0.919454 0 0
  phy
    0 -0.411338 -32.029884 5.256785 0.490862 -0.610258 -0.621803 0 0
    0 -4.106048 -32.840636 0.000000 0.392663 0.679100 -0.620192 0 0
    0 -1.174562 -37.347372 -0.000002 0.736955 0.478645 -0.477281 0 0
  phy
    0 1.756539 -23.553357 5.398427 -0.478623 -0.857110 -0.190481 0 0
    0 0.412898 -28.908105 6.707139 -0.165745 -0.875008 -0.454852 0 0
    0 2.175692 -28.068325 6.643997 -0.195686 -0.958202 0.208700 0 0
  phy
    0 2.175692 -28.068325 6.643997 -0.195686 -0.958202 0.208700 0 0
    0 2.925620 -23.085020 4.527236 -0.415077 -0.620121 0.665703 0 0
    0 1.756539 -23.553357 5.398427 -0.478623 -0.857110 -0.190481 0 0
  phy
    0 9.102937 -33.594370 -0.000001 0.031539 -0.042775 0.998587 0 0
    0 5.305912 -25.367737 0.741810 -0.388111 0.593130 0.705384 0 0
    0 4.796466 -24.158997 1.630121 -0.505008 -0.145449 0.850771 0 0
  phy
    0 9.102937 -33.594370 -0.000001 0.031539 -0.042775 0.998587 0 0
    0 8.831177 -33.010765 0.013982 -0.160269 0.957687 0.239059 0 0
    0 5.305912 -25.367737 0.741810 -0.388111 0.593130 0.705384 0 0
  phy
    0 5.694226 -26.733786 3.038937 -0.354812 -0.355971 0.864519 0 0
    0 9.102937 -33.594370 -0.000001 0.031539 -0.042775 0.998587 0 0
    0 4.796466 -24.158997 1.630121 -0.505008 -0.145449 0.850771 0 0
  phy
    0 4.796466 -24.158997 1.630121 -0.505008 -0.145449 0.850771 0 0
    0 2.925620 -23.085020 4.527236 -0.415077 -0.620121 0.665703 0 0
    0 5.694226 -26.733786 3.038937 -0.354812 -0.355971 0.864519 0 0
  phy
    0 4.796466 -24.158997 1.630121 -0.505008 -0.145449 0.850771 0 0
    0 1.937742 -21.657165 2.795631 -0.927318 -0.336857 0.163119 0 0
    0 2.925620 -23.085020 4.527236 -0.415077 -0.620121 0.665703 0 0
  phy
    0 5.290283 -27.873826 4.133559 -0.169657 -0.662949 0.729188 0 0
    0 9.102937 -33.594370 -0.000001 0.031539 -0.042775 0.998587 0 0
    0 5.694226 -26.733786 3.038937 -0.354812 -0.355971 0.864519 0 0
  phy
    0 5.694226 -26.733786 3.038937 -0.354812 -0.355971 0.864519 0 0
    0 2.925620 -23.085020 4.527236 -0.415077 -0.620121 0.665703 0 0
    0 5.290283 -27.873826 4.133559 -0.169657 -0.662949 0.729188 0 0
  phy
    0 4.066492 -24.169749 0.492533 -0.477056 0.878211 0.034109 0 0
    0 5.305912 -25.367737 0.741810 -0.388111 0.593130 0.705384 0 0
    0 4.166646 -25.336353 0.149774 -0.122442 0.982270 0.141960 0 0
  phy
    0 4.166646 -25.336353 0.149774 -0.122442 0.982270 0.141960 0 0
    0 5.305912 -25.367737 0.741810 -0.388111 0.593130 0.705384 0 0
    0 8.831177 -33.010765 0.013982 -0.160269 0.957687 0.239059 0 0
  phy
    0 0.282855 -22.190518 2.029102 -0.704863 0.215353 -0.675864 0 0
    0 -1.236106 -23.732275 2.422926 -0.630945 -0.035196 -0.775029 0 0
    0 -1.266434 -24.215260 4.209959 -0.386813 -0.627805 -0.675453 0 0
  phy
    0 0.282855 -22.190518 2.029102 -0.704863 0.215353 -0.675864 0 0
    0 -1.266434 -24.215260 4.209959 -0.386813 -0.627805 -0.675453 0 0
    0 1.165632 -21.599174 2.149841 -0.884047 0.460430 -0.080411 0 0
  phy
    0 -1.236106 -23.732275 2.422926 -0.630945 -0.035196 -0.775029 0 0
    0 0.282855 -22.190518 2.029102 -0.704863 0.215353 -0.675864 0 0
    0 -5.985914 -29.777638 0.000001 -0.174505 -0.352352 -0.919454 0 0
  phy
    0 0.282855 -22.190518 2.029102 -0.704863 0.215353 -0.675864 0 0
    0 -3.600787 -27.240332 -0.000001 -0.188226 0.976143 -0.108238 0 0
    0 -5.985914 -29.777638 0.000001 -0.174505 -0.352352 -0.919454 0 0
  phy
    0 2.715306 -32.819303 5.507033 0.638284 -0.713943 0.287886 0 0
    0 1.841707 -31.641881 6.620296 0.315046 -0.927271 0.202274 0 0
    0 1.552570 -32.801121 5.858357 0.744673 -0.665684 -0.048248 0 0
  phy
    0 2.715306 -32.819303 5.507033 0.638284 -0.713943 0.287886 0 0
    0 3.031112 -31.788312 6.167638 0.366053 -0.738988 0.565598 0 0
    0 1.841707 -31.641881 6.620296 0.315046 -0.927271 0.202274 0 0
  phy
    0 2.715306 -32.819303 5.507033 0.638284 -0.713943 0.287886 0 0
    0 6.940168 -36.747357 -0.000002 0.690583 -0.601630 0.401417 0 0
    0 3.031112 -31.788312 6.167638 0.366053 -0.738988 0.565598 0 0
  phy
    0 1.552570 -32.801121 5.858357 0.744673 -0.665684 -0.048248 0 0
    0 6.940168 -36.747357 -0.000002 0.690583 -0.601630 0.401417 0 0
    0 2.715306 -32.819303 5.507033 0.638284 -0.713943 0.287886 0 0
  phy
    0 3.031112 -31.788312 6.167638 0.366053 -0.738988 0.565598 0 0
    0 9.102937 -33.594370 -0.000001 0.031539 -0.042775 0.998587 0 0
    0 5.052636 -30.754209 4.701031 0.055662 -0.692134 0.719619 0 0
  phy
    0 5.052636 -30.754209 4.701031 0.055662 -0.692134 0.719619 0 0
    0 9.102937 -33.594370 -0.000001 0.031539 -0.042775 0.998587 0 0
    0 5.290283 -27.873826 4.133559 -0.169657 -0.662949 0.729188 0 0
  phy
    0 -0.411338 -32.029884 5.256785 0.490862 -0.610258 -0.621803 0 0
    0 -1.174562 -37.347372 -0.000002 0.736955 0.478645 -0.477281 0 0
    0 1.552570 -32.801121 5.858357 0.744673 -0.665684 -0.048248 0 0
  phy
    0 1.937742 -21.657165 2.795631 -0.927318 -0.336857 0.163119 0 0
    0 1.756539 -23.553357 5.398427 -0.478623 -0.857110 -0.190481 0 0
    0 2.925620 -23.085020 4.527236 -0.415077 -0.620121 0.665703 0 0
  phy
    0 1.756539 -23.553357 5.398427 -0.478623 -0.857110 -0.190481 0 0
    0 1.937742 -21.657165 2.795631 -0.927318 -0.336857 0.163119 0 0
    0 -1.266434 -24.215260 4.209959 -0.386813 -0.627805 -0.675453 0 0
  phy
    0 1.756539 -23.553357 5.398427 -0.478623 -0.857110 -0.190481 0 0
    0 -1.266434 -24.215260 4.209959 -0.386813 -0.627805 -0.675453 0 0
    0 0.412898 -28.908105 6.707139 -0.165745 -0.875008 -0.454852 0 0
  phy
    0 0.412898 -28.908105 6.707139 -0.165745 -0.875008 -0.454852 0 0
    0 -1.266434 -24.215260 4.209959 -0.386813 -0.627805 -0.675453 0 0
    0 -1.634355 -29.236257 4.746294 -0.083293 -0.682208 -0.726399 0 0
  phy
    0 -1.634355 -29.236257 4.746294 -0.083293 -0.682208 -0.726399 0 0
    0 -1.266434 -24.215260 4.209959 -0.386813 -0.627805 -0.675453 0 0
    0 -5.985914 -29.777638 0.000001 -0.174505 -0.352352 -0.919454 0 0
  phy
    0 6.940168 -36.747357 -0.000002 0.690583 -0.601630 0.401417 0 0
    0 9.102937 -33.594370 -0.000001 0.031539 -0.042775 0.998587 0 0
    0 3.031112 -31.788312 6.167638 0.366053 -0.738988 0.565598 0 0
  phy
    0 -1.266434 -24.215260 4.209959 -0.386813 -0.627805 -0.675453 0 0
    0 1.937742 -21.657165 2.795631 -0.927318 -0.336857 0.163119 0 0
    0 1.165632 -21.599174 2.149841 -0.884047 0.460430 -0.080411 0 0
  phy
    0 1.552570 -32.801121 5.858357 0.744673 -0.665684 -0.048248 0 0
    0 2.732706 -37.389968 -0.000002 0.508227 0.860403 0.037579 0 0
    0 6.940168 -36.747357 -0.000002 0.690583 -0.601630 0.401417 0 0
  phy
    0 -1.174562 -37.347372 -0.000002 0.736955 0.478645 -0.477281 0 0
    0 2.732706 -37.389968 -0.000002 0.508227 0.860403 0.037579 0 0
    0 1.552570 -32.801121 5.858357 0.744673 -0.665684 -0.048248 0 0
  phy
    0 -1.266434 -24.215260 4.209959 -0.386813 -0.627805 -0.675453 0 0
    0 -1.236106 -23.732275 2.422926 -0.630945 -0.035196 -0.775029 0 0
    0 -5.985914 -29.777638 0.000001 -0.174505 -0.352352 -0.919454 0 0
  phy
    0 -15.403598 1.235311 2.143083 0.071040 0.120421 -0.990178 0 0
    0 -15.132365 0.891231 1.367162 0.062858 0.510687 -0.857466 0 0
    0 -14.402641 -1.676289 0.836765 0.482117 0.065960 -0.873620 0 0
  phy
    0 -14.402641 -1.676289 0.836765 0.482117 0.065960 -0.873620 0 0
    0 -15.132365 0.891231 1.367162 0.062858 0.510687 -0.857466 0 0
    0 -13.909999 -1.888294 0.019731 0.243215 0.892024 -0.380971 0 0
  phy
    0 -14.792392 2.150587 1.020145 -0.074695 0.620114 -0.780948 0 0
    0 -15.132365 0.891231 1.367162 0.062858 0.510687 -0.857466 0 0
    0 -15.403598 1.235311 2.143083 0.071040 0.120421 -0.990178 0 0
  phy
    0 -15.132365 0.891231 1.367162 0.062858 0.510687 -0.857466 0 0
    0 -14.792392 2.150587 1.020145 -0.074695 0.620114 -0.780948 0 0
    0 -13.909999 -1.888294 0.019731 0.243215 0.892024 -0.380971 0 0
  phy
    0 -13.802802 1.804772 -0.000038 -0.049502 0.947777 -0.315069 0 0
    0 -14.792392 2.150587 1.020145 -0.074695 0.620114 -0.780948 0 0
    0 -14.163899 2.410309 0.406412 -0.213053 0.687047 -0.694676 0 0
  phy
    0 -14.792392 2.150587 1.020145 -0.074695 0.620114 -0.780948 0 0
    0 -13.802802 1.804772 -0.000038 -0.049502 0.947777 -0.315069 0 0
    0 -13.909999 -1.888294 0.019731 0.243215 0.892024 -0.380971 0 0
  phy
    0 -14.163899 2.410309 0.406412 -0.213053 0.687047 -0.694676 0 0
    0 -14.792392 2.150587 1.020145 -0.074695 0.620114 -0.780948 0 0
    0 -14.682802 3.647767 1.461243 -0.516226 0.300233 -0.802104 0 0
  phy
    0 -14.792392 2.150587 1.020145 -0.074695 0.620114 -0.780948 0 0
    0 -15.403598 1.235311 2.143083 0.071040 0.120421 -0.990178 0 0
    0 -14.682802 3.647767 1.461243 -0.516226 0.300233 -0.802104 0 0
  phy
    0 -13.802802 1.804772 -0.000038 -0.049502 0.947777 -0.315069 0 0
    0 -14.163899 2.410309 0.406412 -0.213053 0.687047 -0.694676 0 0
    0 -13.539272 3.958443 0.313727 -0.503795 0.856702 -0.110692 0 0
  phy
    0 -12.675338 1.543903 0.160786 -0.021363 0.943709 0.330086 0 0
    0 -13.802802 1.804772 -0.000038 -0.049502 0.947777 -0.315069 0 0
    0 -13.539272 3.958443 0.313727 -0.503795 0.856702 -0.110692 0 0
  phy
    0 -13.802802 1.804772 -0.000038 -0.049502 0.947777 -0.315069 0 0
    0 -12.675338 1.543903 0.160786 -0.021363 0.943709 0.330086 0 0
    0 -13.909999 -1.888294 0.019731 0.243215 0.892024 -0.380971 0 0
  phy
    0 -15.394880 2.374809 2.934538 -0.209757 -0.291750 -0.933212 0 0
    0 -13.572503 5.072017 3.152607 -0.725315 -0.654201 -0.214334 0 0
    0 -14.682802 3.647767 1.461243 -0.516226 0.300233 -0.802104 0 0
  phy
    0 -13.572503 5.072017 3.152607 -0.725315 -0.654201 -0.214334 0 0
    0 -15.394880 2.374809 2.934538 -0.209757 -0.291750 -0.933212 0 0
    0 -14.642378 3.216050 3.865334 0.153531 -0.912734 0.378610 0 0
  phy
    0 -15.403598 1.235311 2.143083 0.071040 0.120421 -0.990178 0 0
    0 -15.394880 2.374809 2.934538 -0.209757 -0.291750 -0.933212 0 0
    0 -14.682802 3.647767 1.461243 -0.516226 0.300233 -0.802104 0 0
  phy
    0 -15.394880 2.374809 2.934538 -0.209757 -0.291750 -0.933212 0 0
    0 -15.403598 1.235311 2.143083 0.071040 0.120421 -0.990178 0 0
    0 -14.619743 -0.863732 2.055849 0.432887 -0.644784 -0.629970 0 0
  phy
    0 -14.619743 -0.863732 2.055849 0.432887 -0.644784 -0.629970 0 0
    0 -14.642378 3.216050 3.865334 0.153531 -0.912734 0.378610 0 0
    0 -15.394880 2.374809 2.934538 -0.209757 -0.291750 -0.933212 0 0
  phy
    0 -14.682802 3.647767 1.461243 -0.516226 0.300233 -0.802104 0 0
    0 -13.572503 5.072017 3.152607 -0.725315 -0.654201 -0.214334 0 0
    0 -12.874125 5.152963 2.058326 -0.937551 0.347029 -0.023869 0 0
  phy
    0 -13.572503 5.072017 3.152607 -0.725315 -0.654201 -0.214334 0 0
    0 -14.642378 3.216050 3.865334 0.153531 -0.912734 0.378610 0 0
    0 -11.580507 3.688118 1.237017 0.044146 -0.664852 0.745669 0 0
  phy
    0 -11.580507 3.688118 1.237017 0.044146 -0.664852 0.745669 0 0
    0 -12.874125 5.152963 2.058326 -0.937551 0.347029 -0.023869 0 0
    0 -13.572503 5.072017 3.152607 -0.725315 -0.654201 -0.214334 0 0
  phy
    0 -11.580507 3.688118 1.237017 0.044146 -0.664852 0.745669 0 0
    0 -14.642378 3.216050 3.865334 0.153531 -0.912734 0.378610 0 0
    0 -12.717728 0.040334 1.754444 0.125241 -0.739649 0.661237 0 0
  phy
    0 -12.717728 0.040334 1.754444 0.125241 -0.739649 0.661237 0 0
    0 -14.642378 3.216050 3.865334 0.153531 -0.912734 0.378610 0 0
    0 -13.501943 -1.881036 2.011765 0.546451 -0.780572 0.303479 0 0
  phy
    0 -12.717728 0.040334 1.754444 0.125241 -0.739649 0.661237 0 0
    0 -12.132507 -0.387214 1.011416 0.231247 -0.270834 0.934438 0 0
    0 -11.580507 3.688118 1.237017 0.044146 -0.664852 0.745669 0 0
  phy
    0 -13.501943 -1.881036 2.011765 0.546451 -0.780572 0.303479 0 0
    0 -12.132507 -0.387214 1.011416 0.231247 -0.270834 0.934438 0 0
    0 -12.717728 0.040334 1.754444 0.125241 -0.739649 0.661237 0 0
  phy
    0 -13.539272 3.958443 0.313727 -0.503795 0.856702 -0.110692 0 0
    0 -14.163899 2.410309 0.406412 -0.213053 0.687047 -0.694676 0 0
    0 -14.682802 3.647767 1.461243 -0.516226 0.300233 -0.802104 0 0
  phy
    0 -12.675338 1.543903 0.160786 -0.021363 0.943709 0.330086 0 0
    0 -13.539272 3.958443 0.313727 -0.503795 0.856702 -0.110692 0 0
    0 -11.749717 3.682174 0.803823 -0.214729 0.747960 0.628050 0 0
  phy
    0 -12.618533 -1.843736 0.437068 0.352212 0.603669 0.715213 0 0
    0 -12.675338 1.543903 0.160786 -0.021363 0.943709 0.330086 0 0
    0 -11.749717 3.682174 0.803823 -0.214729 0.747960 0.628050 0 0
  phy
    0 -12.675338 1.543903 0.160786 -0.021363 0.943709 0.330086 0 0
    0 -12.618533 -1.843736 0.437068 0.352212 0.603669 0.715213 0 0
    0 -13.909999 -1.888294 0.019731 0.243215 0.892024 -0.380971 0 0
  phy
    0 -15.403598 1.235311 2.143083 0.071040 0.120421 -0.990178 0 0
    0 -14.402641 -1.676289 0.836765 0.482117 0.065960 -0.873620 0 0
    0 -14.619743 -0.863732 2.055849 0.432887 -0.644784 -0.629970 0 0
  phy
    0 -14.402641 -1.676289 0.836765 0.482117 0.065960 -0.873620 0 0
    0 -13.501943 -1.881036 2.011765 0.546451 -0.780572 0.303479 0 0
    0 -14.619743 -0.863732 2.055849 0.432887 -0.644784 -0.629970 0 0
  phy
    0 -14.402641 -1.676289 0.836765 0.482117 0.065960 -0.873620 0 0
    0 -13.909999 -1.888294 0.019731 0.243215 0.892024 -0.380971 0 0
    0 -13.501943 -1.881036 2.011765 0.546451 -0.780572 0.303479 0 0
  phy
    0 -11.580507 3.688118 1.237017 0.044146 -0.664852 0.745669 0 0
    0 -11.749717 3.682174 0.803823 -0.214729 0.747960 0.628050 0 0
    0 -12.874125 5.152963 2.058326 -0.937551 0.347029 -0.023869 0 0
  phy
    0 -11.580507 3.688118 1.237017 0.044146 -0.664852 0.745669 0 0
    0 -12.132507 -0.387214 1.011416 0.231247 -0.270834 0.934438 0 0
    0 -11.749717 3.682174 0.803823 -0.214729 0.747960 0.628050 0 0
  phy
    0 -11.749717 3.682174 0.803823 -0.214729 0.747960 0.628050 0 0
    0 -13.539272 3.958443 0.313727 -0.503795 0.856702 -0.110692 0 0
    0 -12.874125 5.152963 2.058326 -0.937551 0.347029 -0.023869 0 0
  phy
    0 -13.539272 3.958443 0.313727 -0.503795 0.856702 -0.110692 0 0
    0 -14.682802 3.647767 1.461243 -0.516226 0.300233 -0.802104 0 0
    0 -12.874125 5.152963 2.058326 -0.937551 0.347029 -0.023869 0 0
  phy
    0 -12.618533 -1.843736 0.437068 0.352212 0.603669 0.715213 0 0
    0 -12.132507 -0.387214 1.011416 0.231247 -0.270834 0.934438 0 0
    0 -13.501943 -1.881036 2.011765 0.546451 -0.780572 0.303479 0 0
  phy
    0 -13.501943 -1.881036 2.011765 0.546451 -0.780572 0.303479 0 0
    0 -13.909999 -1.888294 0.019731 0.243215 0.892024 -0.380971 0 0
    0 -12.618533 -1.843736 0.437068 0.352212 0.603669 0.715213 0 0
  phy
    0 -11.749717 3.682174 0.803823 -0.214729 0.747960 0.628050 0 0
    0 -12.132507 -0.387214 1.011416 0.231247 -0.270834 0.934438 0 0
    0 -12.618533 -1.843736 0.437068 0.352212 0.603669 0.715213 0 0
  phy
    0 -13.501943 -1.881036 2.011765 0.546451 -0.780572 0.303479 0 0
    0 -14.642378 3.216050 3.865334 0.153531 -0.912734 0.378610 0 0
    0 -14.619743 -0.863732 2.055849 0.432887 -0.644784 -0.629970 0 0
  phy
    0 -2.953086 -2.749285 12.477965 0.132148 -0.991051 -0.018862 0 0
    0 -5.299200 -16.057285 8.964304 0.189425 -0.865214 -0.464245 0 0
    0 -0.594873 -14.812884 10.688066 0.201235 -0.970563 -0.132331 0 0
  phy
    0 -2.953086 -2.749285 12.477965 0.132148 -0.991051 -0.018862 0 0
    0 -4.682027 -2.484378 11.895311 0.106309 -0.803737 -0.585410 0 0
    0 -5.299200 -16.057285 8.964304 0.189425 -0.865214 -0.464245 0 0
  phy
    0 -2.953086 -2.749285 12.477965 0.132148 -0.991051 -0.018862 0 0
    0 -0.594873 -14.812884 10.688066 0.201235 -0.970563 -0.132331 0 0
    0 2.096206 -14.333650 10.137258 0.086888 -0.951214 0.296045 0 0
  phy
    0 2.096206 -14.333650 10.137258 0.086888 -0.951214 0.296045 0 0
    0 0.062500 2.123014 12.058984 -0.097212 -0.943519 0.316736 0 0
    0 -2.953086 -2.749285 12.477965 0.132148 -0.991051 -0.018862 0 0
  phy
    0 -2.953086 -2.749285 12.477965 0.132148 -0.991051 -0.018862 0 0
    0 -3.210874 1.064208 12.562703 -0.206872 -0.955633 -0.209687 0 0
    0 -4.682027 -2.484378 11.895311 0.106309 -0.803737 -0.585410 0 0
  phy
    0 0.062500 2.123014 12.058984 -0.097212 -0.943519 0.316736 0 0
    0 -3.210874 1.064208 12.562703 -0.206872 -0.955633 -0.209687 0 0
    0 -2.953086 -2.749285 12.477965 0.132148 -0.991051 -0.018862 0 0
  phy
    0 -5.918328 -24.638671 2.971798 0.831640 -0.435026 -0.345148 0 0
    0 -5.718374 -25.084249 1.388286 0.967093 0.233043 -0.102094 0 0
    0 -1.869108 -25.773534 3.278772 0.962096 -0.193680 -0.191987 0 0
  phy
    0 -5.918328 -24.638671 2.971798 0.831640 -0.435026 -0.345148 0 0
    0 -6.711215 -24.829056 1.218361 0.738714 0.118260 -0.663563 0 0
    0 -5.718374 -25.084249 1.388286 0.967093 0.233043 -0.102094 0 0
  phy
    0 -7.451838 -23.890717 2.409239 0.579332 -0.563559 -0.588877 0 0
    0 -6.711215 -24.829056 1.218361 0.738714 0.118260 -0.663563 0 0
    0 -5.918328 -24.638671 2.971798 0.831640 -0.435026 -0.345148 0 0
  phy
    0 -5.918328 -24.638671 2.971798 0.831640 -0.435026 -0.345148 0 0
    0 -3.717260 -23.530349 5.980723 0.622476 -0.703673 -0.342590 0 0
    0 -7.451838 -23.890717 2.409239 0.579332 -0.563559 -0.588877 0 0
  phy
    0 -1.869108 -25.773534 3.278772 0.962096 -0.193680 -0.191987 0 0
    0 -3.717260 -23.530349 5.980723 0.622476 -0.703673 -0.342590 0 0
    0 -5.918328 -24.638671 2.971798 0.831640 -0.435026 -0.345148 0 0
  phy
    0 1.678523 -22.178438 7.928497 0.563819 -0.819918 -0.099210 0 0
    0 -0.377415 -25.237902 4.905997 0.778478 -0.627601 -0.009380 0 0
    0 5.297661 -22.496492 7.621401 0.583618 -0.801867 0.128061 0 0
  phy
    0 -3.717260 -23.530349 5.980723 0.622476 -0.703673 -0.342590 0 0
    0 -0.377415 -25.237902 4.905997 0.778478 -0.627601 -0.009380 0 0
    0 1.678523 -22.178438 7.928497 0.563819 -0.819918 -0.099210 0 0
  phy
    0 5.297661 -22.496492 7.621401 0.583618 -0.801867 0.128061 0 0
    0 0.922558 -18.426077 9.912956 0.307942 -0.950099 0.049828 0 0
    0 1.678523 -22.178438 7.928497 0.563819 -0.819918 -0.099210 0 0
  phy
    0 0.922558 -18.426077 9.912956 0.307942 -0.950099 0.049828 0 0
    0 -4.278694 -19.812040 8.119861 0.438065 -0.843740 -0.310165 0 0
    0 1.678523 -22.178438 7.928497 0.563819 -0.819918 -0.099210 0 0
  phy
    0 1.678523 -22.178438 7.928497 0.563819 -0.819918 -0.099210 0 0
    0 -4.278694 -19.812040 8.119861 0.438065 -0.843740 -0.310165 0 0
    0 -3.717260 -23.530349 5.980723 0.622476 -0.703673 -0.342590 0 0
  phy
    0 5.297661 -22.496492 7.621401 0.583618 -0.801867 0.128061 0 0
    0 -0.377415 -25.237902 4.905997 0.778478 -0.627601 -0.009380 0 0
    0 5.643255 -23.442788 6.195430 0.931474 -0.203695 0.301439 0 0
  phy
    0 5.297661 -22.496492 7.621401 0.583618 -0.801867 0.128061 0 0
    0 5.643255 -23.442788 6.195430 0.931474 -0.203695 0.301439 0 0
    0 7.397875 -22.468726 6.427014 0.525300 -0.278553 0.804033 0 0
  phy
    0 7.397875 -22.468726 6.427014 0.525300 -0.278553 0.804033 0 0
    0 7.286428 -21.042631 7.611093 0.039100 -0.869726 0.491984 0 0
    0 5.297661 -22.496492 7.621401 0.583618 -0.801867 0.128061 0 0
  phy
    0 5.297661 -22.496492 7.621401 0.583618 -0.801867 0.128061 0 0
    0 7.286428 -21.042631 7.611093 0.039100 -0.869726 0.491984 0 0
    0 0.922558 -18.426077 9.912956 0.307942 -0.950099 0.049828 0 0
  phy
    0 -0.594873 -14.812884 10.688066 0.201235 -0.970563 -0.132331 0 0
    0 0.922558 -18.426077 9.912956 0.307942 -0.950099 0.049828 0 0
    0 2.096206 -14.333650 10.137258 0.086888 -0.951214 0.296045 0 0
  phy
    0 0.922558 -18.426077 9.912956 0.307942 -0.950099 0.049828 0 0
    0 7.286428 -21.042631 7.611093 0.039100 -0.869726 0.491984 0 0
    0 2.096206 -14.333650 10.137258 0.086888 -0.951214 0.296045 0 0
  phy
    0 2.096206 -14.333650 10.137258 0.086888 -0.951214 0.296045 0 0
    0 7.286428 -21.042631 7.611093 0.039100 -0.869726 0.491984 0 0
    0 0.062500 2.123014 12.058984 -0.097212 -0.943519 0.316736 0 0
  phy
    0 -0.594873 -14.812884 10.688066 0.201235 -0.970563 -0.132331 0 0
    0 -5.299200 -16.057285 8.964304 0.189425 -0.865214 -0.464245 0 0
    0 -4.684202 -18.612083 8.367089 0.323190 -0.752657 -0.573633 0 0
  phy
    0 -4.684202 -18.612083 8.367089 0.323190 -0.752657 -0.573633 0 0
    0 -4.278694 -19.812040 8.119861 0.438065 -0.843740 -0.310165 0 0
    0 -0.594873 -14.812884 10.688066 0.201235 -0.970563 -0.132331 0 0
  phy
    0 -0.594873 -14.812884 10.688066 0.201235 -0.970563 -0.132331 0 0
    0 -4.278694 -19.812040 8.119861 0.438065 -0.843740 -0.310165 0 0
    0 0.922558 -18.426077 9.912956 0.307942 -0.950099 0.049828 0 0
  phy
    0 -7.451838 -23.890717 2.409239 0.579332 -0.563559 -0.588877 0 0
    0 -3.717260 -23.530349 5.980723 0.622476 -0.703673 -0.342590 0 0
    0 -8.020194 -21.378562 3.901532 0.385867 -0.646031 -0.658598 0 0
  phy
    0 -3.717260 -23.530349 5.980723 0.622476 -0.703673 -0.342590 0 0
    0 -4.278694 -19.812040 8.119861 0.438065 -0.843740 -0.310165 0 0
    0 -8.020194 -21.378562 3.901532 0.385867 -0.646031 -0.658598 0 0
  phy
    0 -7.451838 -23.890717 2.409239 0.579332 -0.563559 -0.588877 0 0
    0 -8.020194 -21.378562 3.901532 0.385867 -0.646031 -0.658598 0 0
    0 -8.556815 -22.721551 2.131270 0.413410 -0.265732 -0.870907 0 0
  phy
    0 -8.020194 -21.378562 3.901532 0.385867 -0.646031 -0.658598 0 0
    0 -4.278694 -19.812040 8.119861 0.438065 -0.843740 -0.310165 0 0
    0 -4.684202 -18.612083 8.367089 0.323190 -0.752657 -0.573633 0 0
  phy
    0 -4.684202 -18.612083 8.367089 0.323190 -0.752657 -0.573633 0 0
    0 -10.627461 -12.770075 5.543758 0.193865 -0.741432 -0.642413 0 0
    0 -8.020194 -21.378562 3.901532 0.385867 -0.646031 -0.658598 0 0
  phy
    0 -8.556815 -22.721551 2.131270 0.413410 -0.265732 -0.870907 0 0
    0 -8.020194 -21.378562 3.901532 0.385867 -0.646031 -0.658598 0 0
    0 -11.330927 -13.088091 4.416976 0.316634 -0.319741 -0.893033 0 0
  phy
    0 -11.330927 -13.088091 4.416976 0.316634 -0.319741 -0.893033 0 0
    0 -8.020194 -21.378562 3.901532 0.385867 -0.646031 -0.658598 0 0
    0 -10.627461 -12.770075 5.543758 0.193865 -0.741432 -0.642413 0 0
  phy
    0 -6.711215 -24.829056 1.218361 0.738714 0.118260 -0.663563 0 0
    0 -7.451838 -23.890717 2.409239 0.579332 -0.563559 -0.588877 0 0
    0 -8.556815 -22.721551 2.131270 0.413410 -0.265732 -0.870907 0 0
  phy
    0 -6.711215 -24.829056 1.218361 0.738714 0.118260 -0.663563 0 0
    0 -8.556815 -22.721551 2.131270 0.413410 -0.265732 -0.870907 0 0
    0 -8.626831 -21.972938 0.604851 0.303024 0.552353 -0.776584 0 0
  phy
    0 -6.734011 -24.116886 0.211087 0.156508 0.959159 -0.235626 0 0
    0 -6.711215 -24.829056 1.218361 0.738714 0.118260 -0.663563 0 0
    0 -8.626831 -21.972938 0.604851 0.303024 0.552353 -0.776584 0 0
  phy
    0 -6.734011 -24.116886 0.211087 0.156508 0.959159 -0.235626 0 0
    0 -5.718374 -25.084249 1.388286 0.967093 0.233043 -0.102094 0 0
    0 -6.711215 -24.829056 1.218361 0.738714 0.118260 -0.663563 0 0
  phy
    0 -14.687753 -2.539868 0.121892 -0.094139 0.811016 -0.577400 0 0
    0 -14.446052 -2.081511 0.096998 -0.056106 0.982380 -0.178277 0 0
    0 -12.851301 -2.256247 0.000000 -0.001150 0.999980 -0.006217 0 0
  phy
    0 -14.687753 -2.539868 0.121892 -0.094139 0.811016 -0.577400 0 0
    0 -12.851301 -2.256247 0.000000 -0.001150 0.999980 -0.006217 0 0
    0 -13.671635 -5.147063 0.112562 0.064866 0.983118 -0.171088 0 0
  phy
    0 -13.671635 -5.147063 0.112562 0.064866 0.983118 -0.171088 0 0
    0 -12.851301 -2.256247 0.000000 -0.001150 0.999980 -0.006217 0 0
    0 -7.625142 -17.948545 -0.000001 0.002909 0.999967 -0.007553 0 0
  phy
    0 -14.687753 -2.539868 0.121892 -0.094139 0.811016 -0.577400 0 0
    0 -7.317767 29.105173 0.786940 -0.117191 0.920947 -0.371650 0 0
    0 -14.446052 -2.081511 0.096998 -0.056106 0.982380 -0.178277 0 0
  phy
    0 -14.446052 -2.081511 0.096998 -0.056106 0.982380 -0.178277 0 0
    0 -7.317767 29.105173 0.786940 -0.117191 0.920947 -0.371650 0 0
    0 -2.356497 36.504294 0.114003 -0.141242 0.964588 -0.222759 0 0
  phy
    0 -2.356497 36.504294 0.114003 -0.141242 0.964588 -0.222759 0 0
    0 -0.472793 36.328243 0.000002 -0.011649 0.999923 0.004388 0 0
    0 -12.851301 -2.256247 0.000000 -0.001150 0.999980 -0.006217 0 0
  phy
    0 -2.356497 36.504294 0.114003 -0.141242 0.964588 -0.222759 0 0
    0 -12.851301 -2.256247 0.000000 -0.001150 0.999980 -0.006217 0 0
    0 -14.446052 -2.081511 0.096998 -0.056106 0.982380 -0.178277 0 0
  phy
    0 -8.605090 31.042587 2.702353 -0.387801 -0.079696 -0.918291 0 0
    0 -8.357721 31.103633 3.616289 -0.163620 -0.733949 -0.659203 0 0
    0 -3.276359 35.149657 4.441804 -0.292853 -0.907331 -0.301643 0 0
  phy
    0 -8.605090 31.042587 2.702353 -0.387801 -0.079696 -0.918291 0 0
    0 -3.276359 35.149657 4.441804 -0.292853 -0.907331 -0.301643 0 0
    0 -3.133684 35.621256 2.162705 -0.777283 -0.109714 -0.619511 0 0
  phy
    0 -8.424614 31.284610 1.912910 -0.284570 0.618661 -0.732310 0 0
    0 -8.605090 31.042587 2.702353 -0.387801 -0.079696 -0.918291 0 0
    0 -3.133684 35.621256 2.162705 -0.777283 -0.109714 -0.619511 0 0
  phy
    0 -8.424614 31.284610 1.912910 -0.284570 0.618661 -0.732310 0 0
    0 -3.133684 35.621256 2.162705 -0.777283 -0.109714 -0.619511 0 0
    0 -2.356497 36.504294 0.114003 -0.141242 0.964588 -0.222759 0 0
  phy
    0 -2.356497 36.504294 0.114003 -0.141242 0.964588 -0.222759 0 0
    0 -3.133684 35.621256 2.162705 -0.777283 -0.109714 -0.619511 0 0
    0 -1.660632 36.340717 4.148380 -0.264142 -0.955627 0.130409 0 0
  phy
    0 -1.660632 36.340717 4.148380 -0.264142 -0.955627 0.130409 0 0
    0 -3.133684 35.621256 2.162705 -0.777283 -0.109714 -0.619511 0 0
    0 -3.276359 35.149657 4.441804 -0.292853 -0.907331 -0.301643 0 0
  phy
    0 -5.182713 -24.206516 0.273318 0.615013 0.754788 0.228155 0 0
    0 -1.869108 -25.773534 3.278772 0.962096 -0.193680 -0.191987 0 0
    0 -5.718374 -25.084249 1.388286 0.967093 0.233043 -0.102094 0 0
  phy
    0 -5.182713 -24.206516 0.273318 0.615013 0.754788 0.228155 0 0
    0 -1.326813 -25.821788 3.475941 0.825973 0.455792 0.331695 0 0
    0 -1.869108 -25.773534 3.278772 0.962096 -0.193680 -0.191987 0 0
  phy
    0 -1.674966 -24.805491 2.234705 0.654113 0.692069 0.305249 0 0
    0 -1.326813 -25.821788 3.475941 0.825973 0.455792 0.331695 0 0
    0 -5.182713 -24.206516 0.273318 0.615013 0.754788 0.228155 0 0
  phy
    0 -5.182713 -24.206516 0.273318 0.615013 0.754788 0.228155 0 0
    0 -5.718374 -25.084249 1.388286 0.967093 0.233043 -0.102094 0 0
    0 -6.734011 -24.116886 0.211087 0.156508 0.959159 -0.235626 0 0
  phy
    0 -5.182713 -24.206516 0.273318 0.615013 0.754788 0.228155 0 0
    0 -6.734011 -24.116886 0.211087 0.156508 0.959159 -0.235626 0 0
    0 -5.419728 -23.389961 -0.000001 0.042994 0.999074 0.001643 0 0
  phy
    0 -1.674966 -24.805491 2.234705 0.654113 0.692069 0.305249 0 0
    0 -5.182713 -24.206516 0.273318 0.615013 0.754788 0.228155 0 0
    0 5.999663 -18.725170 -0.000001 0.070272 0.996642 0.042022 0 0
  phy
    0 -5.182713 -24.206516 0.273318 0.615013 0.754788 0.228155 0 0
    0 -5.419728 -23.389961 -0.000001 0.042994 0.999074 0.001643 0 0
    0 5.999663 -18.725170 -0.000001 0.070272 0.996642 0.042022 0 0
  phy
    0 -8.626831 -21.972938 0.604851 0.303024 0.552353 -0.776584 0 0
    0 -14.687753 -2.539868 0.121892 -0.094139 0.811016 -0.577400 0 0
    0 -13.671635 -5.147063 0.112562 0.064866 0.983118 -0.171088 0 0
  phy
    0 -8.626831 -21.972938 0.604851 0.303024 0.552353 -0.776584 0 0
    0 -13.671635 -5.147063 0.112562 0.064866 0.983118 -0.171088 0 0
    0 -6.734011 -24.116886 0.211087 0.156508 0.959159 -0.235626 0 0
  phy
    0 -5.419728 -23.389961 -0.000001 0.042994 0.999074 0.001643 0 0
    0 -6.734011 -24.116886 0.211087 0.156508 0.959159 -0.235626 0 0
    0 -7.625142 -17.948545 -0.000001 0.002909 0.999967 -0.007553 0 0
  phy
    0 -7.625142 -17.948545 -0.000001 0.002909 0.999967 -0.007553 0 0
    0 -6.734011 -24.116886 0.211087 0.156508 0.959159 -0.235626 0 0
    0 -13.671635 -5.147063 0.112562 0.064866 0.983118 -0.171088 0 0
  phy
    0 15.271386 23.957913 0.910806 0.067502 0.716923 0.693877 0 0
    0 13.218987 3.023974 0.916447 0.104457 0.785342 0.610186 0 0
    0 14.971011 25.546907 0.491499 -0.157539 0.920212 0.358318 0 0
  phy
    0 13.218987 3.023974 0.916447 0.104457 0.785342 0.610186 0 0
    0 15.271386 23.957913 0.910806 0.067502 0.716923 0.693877 0 0
    0 16.304301 25.614791 1.775538 -0.209120 0.525550 0.824661 0 0
  phy
    0 15.271386 23.957913 0.910806 0.067502 0.716923 0.693877 0 0
    0 14.971011 25.546907 0.491499 -0.157539 0.920212 0.358318 0 0
    0 16.304301 25.614791 1.775538 -0.209120 0.525550 0.824661 0 0
  phy
    0 15.428977 24.946379 3.838023 -0.073305 -0.916474 0.393322 0 0
    0 16.559909 25.565211 2.840242 -0.439304 -0.311686 0.842534 0 0
    0 15.593685 25.409622 3.710836 -0.462396 -0.823523 0.328634 0 0
  phy
    0 15.428977 24.946379 3.838023 -0.073305 -0.916474 0.393322 0 0
    0 15.224171 22.673344 3.913735 0.018520 -0.860767 0.508662 0 0
    0 16.559909 25.565211 2.840242 -0.439304 -0.311686 0.842534 0 0
  phy
    0 15.224171 22.673344 3.913735 0.018520 -0.860767 0.508662 0 0
    0 14.251874 3.556379 3.868473 0.086443 -0.642328 0.761540 0 0
    0 16.559909 25.565211 2.840242 -0.439304 -0.311686 0.842534 0 0
  phy
    0 15.224171 22.673344 3.913735 0.018520 -0.860767 0.508662 0 0
    0 7.286428 -21.042631 7.611093 0.039100 -0.869726 0.491984 0 0
    0 14.251874 3.556379 3.868473 0.086443 -0.642328 0.761540 0 0
  phy
    0 14.280622 3.327028 2.498007 0.214973 0.288716 0.932968 0 0
    0 16.559909 25.565211 2.840242 -0.439304 -0.311686 0.842534 0 0
    0 14.251874 3.556379 3.868473 0.086443 -0.642328 0.761540 0 0
  phy
    0 14.251874 3.556379 3.868473 0.086443 -0.642328 0.761540 0 0
    0 8.328768 -19.483491 6.484999 0.239695 -0.140896 0.960570 0 0
    0 14.280622 3.327028 2.498007 0.214973 0.288716 0.932968 0 0
  phy
    0 14.251874 3.556379 3.868473 0.086443 -0.642328 0.761540 0 0
    0 7.286428 -21.042631 7.611093 0.039100 -0.869726 0.491984 0 0
    0 8.328768 -19.483491 6.484999 0.239695 -0.140896 0.960570 0 0
  phy
    0 8.210378 -19.626829 4.402821 0.276772 0.288977 0.916455 0 0
    0 7.397875 -22.468726 6.427014 0.525300 -0.278553 0.804033 0 0
    0 7.312422 -22.485641 5.073770 0.780136 0.328709 0.532296 0 0
  phy
    0 8.210378 -19.626829 4.402821 0.276772 0.288977 0.916455 0 0
    0 8.328768 -19.483491 6.484999 0.239695 -0.140896 0.960570 0 0
    0 7.397875 -22.468726 6.427014 0.525300 -0.278553 0.804033 0 0
  phy
    0 14.280622 3.327028 2.498007 0.214973 0.288716 0.932968 0 0
    0 8.328768 -19.483491 6.484999 0.239695 -0.140896 0.960570 0 0
    0 8.210378 -19.626829 4.402821 0.276772 0.288977 0.916455 0 0
  phy
    0 7.312422 -22.485641 5.073770 0.780136 0.328709 0.532296 0 0
    0 7.142176 -21.792547 4.083491 0.651685 0.586997 0.480355 0 0
    0 8.210378 -19.626829 4.402821 0.276772 0.288977 0.916455 0 0
  phy
    0 8.210378 -19.626829 4.402821 0.276772 0.288977 0.916455 0 0
    0 6.557971 -18.661660 0.210991 0.344889 0.641387 0.685328 0 0
    0 14.280622 3.327028 2.498007 0.214973 0.288716 0.932968 0 0
  phy
    0 8.210378 -19.626829 4.402821 0.276772 0.288977 0.916455 0 0
    0 7.142176 -21.792547 4.083491 0.651685 0.586997 0.480355 0 0
    0 6.557971 -18.661660 0.210991 0.344889 0.641387 0.685328 0 0
  phy
    0 5.643255 -23.442788 6.195430 0.931474 -0.203695 0.301439 0 0
    0 -1.326813 -25.821788 3.475941 0.825973 0.455792 0.331695 0 0
    0 7.312422 -22.485641 5.073770 0.780136 0.328709 0.532296 0 0
  phy
    0 7.312422 -22.485641 5.073770 0.780136 0.328709 0.532296 0 0
    0 -1.326813 -25.821788 3.475941 0.825973 0.455792 0.331695 0 0
    0 7.142176 -21.792547 4.083491 0.651685 0.586997 0.480355 0 0
  phy
    0 7.397875 -22.468726 6.427014 0.525300 -0.278553 0.804033 0 0
    0 5.643255 -23.442788 6.195430 0.931474 -0.203695 0.301439 0 0
    0 7.312422 -22.485641 5.073770 0.780136 0.328709 0.532296 0 0
  phy
    0 -3.717260 -23.530349 5.980723 0.622476 -0.703673 -0.342590 0 0
    0 -1.326813 -25.821788 3.475941 0.825973 0.455792 0.331695 0 0
    0 -0.377415 -25.237902 4.905997 0.778478 -0.627601 -0.009380 0 0
  phy
    0 -3.717260 -23.530349 5.980723 0.622476 -0.703673 -0.342590 0 0
    0 -1.869108 -25.773534 3.278772 0.962096 -0.193680 -0.191987 0 0
    0 -1.326813 -25.821788 3.475941 0.825973 0.455792 0.331695 0 0
  phy
    0 -13.018490 -8.673067 2.243206 0.292447 -0.093676 -0.951683 0 0
    0 -12.680996 -8.883063 4.074367 0.173115 -0.410423 -0.895312 0 0
    0 -14.937748 -2.614232 0.472491 0.009799 -0.021427 -0.999722 0 0
  phy
    0 -9.561345 -19.725364 1.919288 0.305721 -0.006312 -0.952100 0 0
    0 -13.018490 -8.673067 2.243206 0.292447 -0.093676 -0.951683 0 0
    0 -14.937748 -2.614232 0.472491 0.009799 -0.021427 -0.999722 0 0
  phy
    0 -12.680996 -8.883063 4.074367 0.173115 -0.410423 -0.895312 0 0
    0 -13.018490 -8.673067 2.243206 0.292447 -0.093676 -0.951683 0 0
    0 -11.330927 -13.088091 4.416976 0.316634 -0.319741 -0.893033 0 0
  phy
    0 -13.018490 -8.673067 2.243206 0.292447 -0.093676 -0.951683 0 0
    0 -9.561345 -19.725364 1.919288 0.305721 -0.006312 -0.952100 0 0
    0 -11.330927 -13.088091 4.416976 0.316634 -0.319741 -0.893033 0 0
  phy
    0 -14.530120 -2.496599 1.646956 -0.098421 -0.599948 -0.793962 0 0
    0 -12.122241 -6.839314 5.103706 0.027768 -0.706566 -0.707103 0 0
    0 -6.479804 2.494046 10.713592 -0.101027 -0.699797 -0.707162 0 0
  phy
    0 -14.530120 -2.496599 1.646956 -0.098421 -0.599948 -0.793962 0 0
    0 -6.479804 2.494046 10.713592 -0.101027 -0.699797 -0.707162 0 0
    0 -8.357721 31.103633 3.616289 -0.163620 -0.733949 -0.659203 0 0
  phy
    0 -14.530120 -2.496599 1.646956 -0.098421 -0.599948 -0.793962 0 0
    0 -8.357721 31.103633 3.616289 -0.163620 -0.733949 -0.659203 0 0
    0 -14.937748 -2.614232 0.472491 0.009799 -0.021427 -0.999722 0 0
  phy
    0 -14.530120 -2.496599 1.646956 -0.098421 -0.599948 -0.793962 0 0
    0 -12.680996 -8.883063 4.074367 0.173115 -0.410423 -0.895312 0 0
    0 -12.122241 -6.839314 5.103706 0.027768 -0.706566 -0.707103 0 0
  phy
    0 -12.680996 -8.883063 4.074367 0.173115 -0.410423 -0.895312 0 0
    0 -14.530120 -2.496599 1.646956 -0.098421 -0.599948 -0.793962 0 0
    0 -14.937748 -2.614232 0.472491 0.009799 -0.021427 -0.999722 0 0
  phy
    0 -5.299200 -16.057285 8.964304 0.189425 -0.865214 -0.464245 0 0
    0 -10.627461 -12.770075 5.543758 0.193865 -0.741432 -0.642413 0 0
    0 -4.684202 -18.612083 8.367089 0.323190 -0.752657 -0.573633 0 0
  phy
    0 -9.561345 -19.725364 1.919288 0.305721 -0.006312 -0.952100 0 0
    0 -8.556815 -22.721551 2.131270 0.413410 -0.265732 -0.870907 0 0
    0 -11.330927 -13.088091 4.416976 0.316634 -0.319741 -0.893033 0 0
  phy
    0 -8.556815 -22.721551 2.131270 0.413410 -0.265732 -0.870907 0 0
    0 -9.561345 -19.725364 1.919288 0.305721 -0.006312 -0.952100 0 0
    0 -8.626831 -21.972938 0.604851 0.303024 0.552353 -0.776584 0 0
  phy
    0 -0.472793 36.328243 0.000002 -0.011649 0.999923 0.004388 0 0
    0 -2.356497 36.504294 0.114003 -0.141242 0.964588 -0.222759 0 0
    0 -0.778118 37.304243 0.135068 -0.692260 0.718435 0.068018 0 0
  phy
    0 -2.356497 36.504294 0.114003 -0.141242 0.964588 -0.222759 0 0
    0 -1.660632 36.340717 4.148380 -0.264142 -0.955627 0.130409 0 0
    0 -0.778118 37.304243 0.135068 -0.692260 0.718435 0.068018 0 0
  phy
    0 -2.356497 36.504294 0.114003 -0.141242 0.964588 -0.222759 0 0
    0 -7.317767 29.105173 0.786940 -0.117191 0.920947 -0.371650 0 0
    0 -8.424614 31.284610 1.912910 -0.284570 0.618661 -0.732310 0 0
  phy
    0 15.224171 22.673344 3.913735 0.018520 -0.860767 0.508662 0 0
    0 0.062500 2.123014 12.058984 -0.097212 -0.943519 0.316736 0 0
    0 7.286428 -21.042631 7.611093 0.039100 -0.869726 0.491984 0 0
  phy
    0 15.224171 22.673344 3.913735 0.018520 -0.860767 0.508662 0 0
    0 15.428977 24.946379 3.838023 -0.073305 -0.916474 0.393322 0 0
    0 0.062500 2.123014 12.058984 -0.097212 -0.943519 0.316736 0 0
  phy
    0 15.428977 24.946379 3.838023 -0.073305 -0.916474 0.393322 0 0
    0 14.078608 25.079504 4.178234 -0.229738 -0.958188 0.170577 0 0
    0 0.062500 2.123014 12.058984 -0.097212 -0.943519 0.316736 0 0
  phy
    0 15.428977 24.946379 3.838023 -0.073305 -0.916474 0.393322 0 0
    0 15.593685 25.409622 3.710836 -0.462396 -0.823523 0.328634 0 0
    0 14.078608 25.079504 4.178234 -0.229738 -0.958188 0.170577 0 0
  phy
    0 0.062500 2.123014 12.058984 -0.097212 -0.943519 0.316736 0 0
    0 14.078608 25.079504 4.178234 -0.229738 -0.958188 0.170577 0 0
    0 -1.660632 36.340717 4.148380 -0.264142 -0.955627 0.130409 0 0
  phy
    0 -1.660632 36.340717 4.148380 -0.264142 -0.955627 0.130409 0 0
    0 -3.210874 1.064208 12.562703 -0.206872 -0.955633 -0.209687 0 0
    0 0.062500 2.123014 12.058984 -0.097212 -0.943519 0.316736 0 0
  phy
    0 6.557971 -18.661660 0.210991 0.344889 0.641387 0.685328 0 0
    0 -1.326813 -25.821788 3.475941 0.825973 0.455792 0.331695 0 0
    0 -1.674966 -24.805491 2.234705 0.654113 0.692069 0.305249 0 0
  phy
    0 6.557971 -18.661660 0.210991 0.344889 0.641387 0.685328 0 0
    0 -1.674966 -24.805491 2.234705 0.654113 0.692069 0.305249 0 0
    0 5.999663 -18.725170 -0.000001 0.070272 0.996642 0.042022 0 0
  phy
    0 -12.851301 -2.256247 0.000000 -0.001150 0.999980 -0.006217 0 0
    0 -0.472793 36.328243 0.000002 -0.011649 0.999923 0.004388 0 0
    0 11.910746 20.367353 0.000001 -0.001640 0.999987 0.004813 0 0
  phy
    0 -12.851301 -2.256247 0.000000 -0.001150 0.999980 -0.006217 0 0
    0 11.910746 20.367353 0.000001 -0.001640 0.999987 0.004813 0 0
    0 10.863356 3.060666 0.000000 0.006860 0.999046 0.043126 0 0
  phy
    0 -12.851301 -2.256247 0.000000 -0.001150 0.999980 -0.006217 0 0
    0 10.863356 3.060666 0.000000 0.006860 0.999046 0.043126 0 0
    0 -7.625142 -17.948545 -0.000001 0.002909 0.999967 -0.007553 0 0
  phy
    0 -7.625142 -17.948545 -0.000001 0.002909 0.999967 -0.007553 0 0
    0 10.863356 3.060666 0.000000 0.006860 0.999046 0.043126 0 0
    0 5.999663 -18.725170 -0.000001 0.070272 0.996642 0.042022 0 0
  phy
    0 -7.625142 -17.948545 -0.000001 0.002909 0.999967 -0.007553 0 0
    0 5.999663 -18.725170 -0.000001 0.070272 0.996642 0.042022 0 0
    0 -5.419728 -23.389961 -0.000001 0.042994 0.999074 0.001643 0 0
  phy
    0 -7.317767 29.105173 0.786940 -0.117191 0.920947 -0.371650 0 0
    0 -14.687753 -2.539868 0.121892 -0.094139 0.811016 -0.577400 0 0
    0 -8.424614 31.284610 1.912910 -0.284570 0.618661 -0.732310 0 0
  phy
    0 13.218987 3.023974 0.916447 0.104457 0.785342 0.610186 0 0
    0 6.557971 -18.661660 0.210991 0.344889 0.641387 0.685328 0 0
    0 10.863356 3.060666 0.000000 0.006860 0.999046 0.043126 0 0
  phy
    0 10.863356 3.060666 0.000000 0.006860 0.999046 0.043126 0 0
    0 6.557971 -18.661660 0.210991 0.344889 0.641387 0.685328 0 0
    0 5.999663 -18.725170 -0.000001 0.070272 0.996642 0.042022 0 0
  phy
    0 13.218987 3.023974 0.916447 0.104457 0.785342 0.610186 0 0
    0 10.863356 3.060666 0.000000 0.006860 0.999046 0.043126 0 0
    0 14.971011 25.546907 0.491499 -0.157539 0.920212 0.358318 0 0
  phy
    0 14.971011 25.546907 0.491499 -0.157539 0.920212 0.358318 0 0
    0 10.863356 3.060666 0.000000 0.006860 0.999046 0.043126 0 0
    0 13.331947 25.178809 0.171020 -0.034510 0.994260 0.101275 0 0
  phy
    0 10.863356 3.060666 0.000000 0.006860 0.999046 0.043126 0 0
    0 11.910746 20.367353 0.000001 -0.001640 0.999987 0.004813 0 0
    0 13.331947 25.178809 0.171020 -0.034510 0.994260 0.101275 0 0
  phy
    0 13.218987 3.023974 0.916447 0.104457 0.785342 0.610186 0 0
    0 16.304301 25.614791 1.775538 -0.209120 0.525550 0.824661 0 0
    0 14.280622 3.327028 2.498007 0.214973 0.288716 0.932968 0 0
  phy
    0 14.280622 3.327028 2.498007 0.214973 0.288716 0.932968 0 0
    0 6.557971 -18.661660 0.210991 0.344889 0.641387 0.685328 0 0
    0 13.218987 3.023974 0.916447 0.104457 0.785342 0.610186 0 0
  phy
    0 16.304301 25.614791 1.775538 -0.209120 0.525550 0.824661 0 0
    0 16.559909 25.565211 2.840242 -0.439304 -0.311686 0.842534 0 0
    0 14.280622 3.327028 2.498007 0.214973 0.288716 0.932968 0 0
  phy
    0 -0.472793 36.328243 0.000002 -0.011649 0.999923 0.004388 0 0
    0 14.971011 25.546907 0.491499 -0.157539 0.920212 0.358318 0 0
    0 13.331947 25.178809 0.171020 -0.034510 0.994260 0.101275 0 0
  phy
    0 14.971011 25.546907 0.491499 -0.157539 0.920212 0.358318 0 0
    0 -0.472793 36.328243 0.000002 -0.011649 0.999923 0.004388 0 0
    0 -0.778118 37.304243 0.135068 -0.692260 0.718435 0.068018 0 0
  phy
    0 11.910746 20.367353 0.000001 -0.001640 0.999987 0.004813 0 0
    0 -0.472793 36.328243 0.000002 -0.011649 0.999923 0.004388 0 0
    0 13.331947 25.178809 0.171020 -0.034510 0.994260 0.101275 0 0
  phy
    0 8.328768 -19.483491 6.484999 0.239695 -0.140896 0.960570 0 0
    0 7.286428 -21.042631 7.611093 0.039100 -0.869726 0.491984 0 0
    0 7.397875 -22.468726 6.427014 0.525300 -0.278553 0.804033 0 0
  phy
    0 -0.377415 -25.237902 4.905997 0.778478 -0.627601 -0.009380 0 0
    0 -1.326813 -25.821788 3.475941 0.825973 0.455792 0.331695 0 0
    0 5.643255 -23.442788 6.195430 0.931474 -0.203695 0.301439 0 0
  phy
    0 -12.122241 -6.839314 5.103706 0.027768 -0.706566 -0.707103 0 0
    0 -12.680996 -8.883063 4.074367 0.173115 -0.410423 -0.895312 0 0
    0 -10.627461 -12.770075 5.543758 0.193865 -0.741432 -0.642413 0 0
  phy
    0 -12.680996 -8.883063 4.074367 0.173115 -0.410423 -0.895312 0 0
    0 -11.330927 -13.088091 4.416976 0.316634 -0.319741 -0.893033 0 0
    0 -10.627461 -12.770075 5.543758 0.193865 -0.741432 -0.642413 0 0
  phy
    0 -4.682027 -2.484378 11.895311 0.106309 -0.803737 -0.585410 0 0
    0 -10.627461 -12.770075 5.543758 0.193865 -0.741432 -0.642413 0 0
    0 -5.299200 -16.057285 8.964304 0.189425 -0.865214 -0.464245 0 0
  phy
    0 -8.626831 -21.972938 0.604851 0.303024 0.552353 -0.776584 0 0
    0 -9.561345 -19.725364 1.919288 0.305721 -0.006312 -0.952100 0 0
    0 -14.937748 -2.614232 0.472491 0.009799 -0.021427 -0.999722 0 0
  phy
    0 -8.605090 31.042587 2.702353 -0.387801 -0.079696 -0.918291 0 0
    0 -8.424614 31.284610 1.912910 -0.284570 0.618661 -0.732310 0 0
    0 -14.937748 -2.614232 0.472491 0.009799 -0.021427 -0.999722 0 0
  phy
    0 -8.357721 31.103633 3.616289 -0.163620 -0.733949 -0.659203 0 0
    0 -8.605090 31.042587 2.702353 -0.387801 -0.079696 -0.918291 0 0
    0 -14.937748 -2.614232 0.472491 0.009799 -0.021427 -0.999722 0 0
  phy
    0 -1.660632 36.340717 4.148380 -0.264142 -0.955627 0.130409 0 0
    0 -0.318796 36.936555 3.357553 -0.690920 -0.606996 0.392665 0 0
    0 -0.778118 37.304243 0.135068 -0.692260 0.718435 0.068018 0 0
  phy
    0 -0.778118 37.304243 0.135068 -0.692260 0.718435 0.068018 0 0
    0 -0.318796 36.936555 3.357553 -0.690920 -0.606996 0.392665 0 0
    0 0.552005 37.239405 1.737790 -0.815133 -0.277183 0.508653 0 0
  phy
    0 0.552005 37.239405 1.737790 -0.815133 -0.277183 0.508653 0 0
    0 -0.318796 36.936555 3.357553 -0.690920 -0.606996 0.392665 0 0
    0 16.559909 25.565211 2.840242 -0.439304 -0.311686 0.842534 0 0
  phy
    0 -0.318796 36.936555 3.357553 -0.690920 -0.606996 0.392665 0 0
    0 15.593685 25.409622 3.710836 -0.462396 -0.823523 0.328634 0 0
    0 16.559909 25.565211 2.840242 -0.439304 -0.311686 0.842534 0 0
  phy
    0 -1.660632 36.340717 4.148380 -0.264142 -0.955627 0.130409 0 0
    0 15.593685 25.409622 3.710836 -0.462396 -0.823523 0.328634 0 0
    0 -0.318796 36.936555 3.357553 -0.690920 -0.606996 0.392665 0 0
  phy
    0 -3.276359 35.149657 4.441804 -0.292853 -0.907331 -0.301643 0 0
    0 -3.210874 1.064208 12.562703 -0.206872 -0.955633 -0.209687 0 0
    0 -1.660632 36.340717 4.148380 -0.264142 -0.955627 0.130409 0 0
  phy
    0 -8.357721 31.103633 3.616289 -0.163620 -0.733949 -0.659203 0 0
    0 -3.210874 1.064208 12.562703 -0.206872 -0.955633 -0.209687 0 0
    0 -3.276359 35.149657 4.441804 -0.292853 -0.907331 -0.301643 0 0
  phy
    0 -8.424614 31.284610 1.912910 -0.284570 0.618661 -0.732310 0 0
    0 -14.687753 -2.539868 0.121892 -0.094139 0.811016 -0.577400 0 0
    0 -14.937748 -2.614232 0.472491 0.009799 -0.021427 -0.999722 0 0
  phy
    0 -14.687753 -2.539868 0.121892 -0.094139 0.811016 -0.577400 0 0
    0 -8.626831 -21.972938 0.604851 0.303024 0.552353 -0.776584 0 0
    0 -14.937748 -2.614232 0.472491 0.009799 -0.021427 -0.999722 0 0
  phy
    0 16.304301 25.614791 1.775538 -0.209120 0.525550 0.824661 0 0
    0 14.971011 25.546907 0.491499 -0.157539 0.920212 0.358318 0 0
    0 0.478865 37.359553 0.649843 -0.734953 0.397533 0.549374 0 0
  phy
    0 14.971011 25.546907 0.491499 -0.157539 0.920212 0.358318 0 0
    0 -0.778118 37.304243 0.135068 -0.692260 0.718435 0.068018 0 0
    0 0.478865 37.359553 0.649843 -0.734953 0.397533 0.549374 0 0
  phy
    0 16.559909 25.565211 2.840242 -0.439304 -0.311686 0.842534 0 0
    0 16.304301 25.614791 1.775538 -0.209120 0.525550 0.824661 0 0
    0 0.478865 37.359553 0.649843 -0.734953 0.397533 0.549374 0 0
  phy
    0 7.142176 -21.792547 4.083491 0.651685 0.586997 0.480355 0 0
    0 -1.326813 -25.821788 3.475941 0.825973 0.455792 0.331695 0 0
    0 6.557971 -18.661660 0.210991 0.344889 0.641387 0.685328 0 0
  phy
    0 -4.682027 -2.484378 11.895311 0.106309 -0.803737 -0.585410 0 0
    0 -6.479804 2.494046 10.713592 -0.101027 -0.699797 -0.707162 0 0
    0 -12.122241 -6.839314 5.103706 0.027768 -0.706566 -0.707103 0 0
  phy
    0 -12.122241 -6.839314 5.103706 0.027768 -0.706566 -0.707103 0 0
    0 -10.627461 -12.770075 5.543758 0.193865 -0.741432 -0.642413 0 0
    0 -4.682027 -2.484378 11.895311 0.106309 -0.803737 -0.585410 0 0
  phy
    0 -4.682027 -2.484378 11.895311 0.106309 -0.803737 -0.585410 0 0
    0 -3.210874 1.064208 12.562703 -0.206872 -0.955633 -0.209687 0 0
    0 -6.479804 2.494046 10.713592 -0.101027 -0.699797 -0.707162 0 0
  phy
    0 -1.660632 36.340717 4.148380 -0.264142 -0.955627 0.130409 0 0
    0 14.078608 25.079504 4.178234 -0.229738 -0.958188 0.170577 0 0
    0 15.593685 25.409622 3.710836 -0.462396 -0.823523 0.328634 0 0
  phy
    0 -6.479804 2.494046 10.713592 -0.101027 -0.699797 -0.707162 0 0
    0 -3.210874 1.064208 12.562703 -0.206872 -0.955633 -0.209687 0 0
    0 -8.357721 31.103633 3.616289 -0.163620 -0.733949 -0.659203 0 0
  phy
    0 -0.778118 37.304243 0.135068 -0.692260 0.718435 0.068018 0 0
    0 0.552005 37.239405 1.737790 -0.815133 -0.277183 0.508653 0 0
    0 0.478865 37.359553 0.649843 -0.734953 0.397533 0.549374 0 0
  phy
    0 0.552005 37.239405 1.737790 -0.815133 -0.277183 0.508653 0 0
    0 16.559909 25.565211 2.840242 -0.439304 -0.311686 0.842534 0 0
    0 0.478865 37.359553 0.649843 -0.734953 0.397533 0.549374 0 0
end
