version 1
nodes
0 "ValveBiped.Bip01_Pelvis" -1
1 "ValveBiped.Bip01_L_Thigh" 0
2 "ValveBiped.Bip01_L_Calf" 1
3 "ValveBiped.Bip01_L_Foot" 2
4 "ValveBiped.Bip01_L_Toe0" 3
5 "ValveBiped.Bip01_R_Thigh" 0
6 "ValveBiped.Bip01_R_Calf" 5
7 "ValveBiped.Bip01_R_Foot" 6
8 "ValveBiped.Bip01_R_Toe0" 7
9 "ValveBiped.Bip01_Spine" 0
10 "ValveBiped.Bip01_Spine1" 9
11 "ValveBiped.Bip01_Spine2" 10
12 "ValveBiped.Bip01_Spine4" 11
13 "ValveBiped.Bip01_Neck1" 12
14 "ValveBiped.Bip01_Head1" 13
15 "ValveBiped.forward" 14
16 "hair01" 14
17 "hair02" 16
18 "miterLF" 14
19 "miterLB" 14
20 "miterRB" 14
21 "miterRF" 14
22 "hairB" 14
23 "miterL" 14
24 "miterR" 14
25 "hairF" 14
26 "hairFL" 14
27 "hairFR" 14
28 "ValveBiped.Bip01_L_Clavicle" 12
29 "ValveBiped.Bip01_L_UpperArm" 28
30 "ValveBiped.Bip01_L_Forearm" 29
31 "ValveBiped.Bip01_L_Hand" 30
32 "ValveBiped.Bip01_L_Finger4" 31
33 "ValveBiped.Bip01_L_Finger41" 32
34 "ValveBiped.Bip01_L_Finger42" 33
35 "ValveBiped.Bip01_L_Finger3" 31
36 "ValveBiped.Bip01_L_Finger31" 35
37 "ValveBiped.Bip01_L_Finger32" 36
38 "ValveBiped.Bip01_L_Finger2" 31
39 "ValveBiped.Bip01_L_Finger21" 38
40 "ValveBiped.Bip01_L_Finger22" 39
41 "ValveBiped.Bip01_L_Finger1" 31
42 "ValveBiped.Bip01_L_Finger11" 41
43 "ValveBiped.Bip01_L_Finger12" 42
44 "ValveBiped.Bip01_L_Finger0" 31
45 "ValveBiped.Bip01_L_Finger01" 44
46 "ValveBiped.Bip01_L_Finger02" 45
47 "ValveBiped.Bip01_L_Ulna" 30
48 "ValveBiped.Bip01_R_Clavicle" 12
49 "ValveBiped.Bip01_R_UpperArm" 48
50 "ValveBiped.Bip01_R_Forearm" 49
51 "ValveBiped.Bip01_R_Hand" 50
52 "ValveBiped.Bip01_R_Finger4" 51
53 "ValveBiped.Bip01_R_Finger41" 52
54 "ValveBiped.Bip01_R_Finger42" 53
55 "ValveBiped.Bip01_R_Finger3" 51
56 "ValveBiped.Bip01_R_Finger31" 55
57 "ValveBiped.Bip01_R_Finger32" 56
58 "ValveBiped.Bip01_R_Finger2" 51
59 "ValveBiped.Bip01_R_Finger21" 58
60 "ValveBiped.Bip01_R_Finger22" 59
61 "ValveBiped.Bip01_R_Finger1" 51
62 "ValveBiped.Bip01_R_Finger11" 61
63 "ValveBiped.Bip01_R_Finger12" 62
64 "ValveBiped.Bip01_R_Finger0" 51
65 "ValveBiped.Bip01_R_Finger01" 64
66 "ValveBiped.Bip01_R_Finger02" 65
67 "ValveBiped.Bip01_R_Ulna" 50
68 "sleeveR" 50
69 "tie" 12
70 "ribbon" 9
71 "ribbonL" 70
72 "ribbonR" 70
73 "ValveBiped.SkirtFL_Helper" 0
74 "SkirtFL01" 73
75 "SkirtFL02" 74
76 "SkirtFL03" 75
77 "SkirtLF01" 73
78 "SkirtLF02" 77
79 "ValveBiped.SkirtBL_Helper" 0
80 "SkirtLB01" 79
81 "SkirtLB02" 80
82 "SkirtBL01" 79
83 "SkirtBL02" 82
84 "SkirtBL03" 83
85 "ValveBiped.SkirtBR_Helper" 0
86 "SkirtBR01" 85
87 "SkirtBR02" 86
88 "SkirtBR03" 87
89 "SkirtRB01" 85
90 "SkirtRB02" 89
91 "ValveBiped.SkirtFR_Helper" 0
92 "SkirtRF01" 91
93 "SkirtRF02" 92
94 "SkirtFR01" 91
95 "SkirtFR02" 94
96 "SkirtFR03" 95
97 "SkirtR01" 0
98 "SkirtR02" 97
99 "SkirtR03" 98
100 "SkirtL01" 0
101 "SkirtL02" 100
102 "SkirtL03" 101
103 "root" -1
end
skeleton
time 0
0  0.000000 -0.814058 36.832977  1.570796 -0.000000 0.000000
1  2.927098 -0.000000 0.000000  -1.570000 0.008273 -1.602075
2  15.037244 -0.012297 0.055022  -0.002321 -0.025793 0.063446
3  18.084888 0.000103 -0.000002  0.002055 -0.007268 -1.050271
4  4.739568 0.000022 0.000005  -0.028750 0.003303 -0.507310
5  -2.927098 -0.000000 0.000000  -1.571226 0.012313 -1.540543
6  15.036520 -0.010318 -0.053130  0.002752 0.024662 0.056973
7  18.084911 0.000117 -0.000003  0.029884 -0.020424 -1.043993
8  4.739570 -0.000055 0.000000  -0.009770 0.008842 -0.522022
9  0.000000 3.137291 0.248350  1.570796 0.013020 1.570796
10  2.801946 -0.000005 -0.000001  -0.000000 0.000000 -0.144101
11  2.793582 0.000010 -0.000001  -0.000000 -0.000000 -0.134145
12  5.117096 -0.000017 -0.000001  0.000000 0.000000 0.326140
13  4.291018 0.000027 0.000000  3.141590 -0.000000 0.327546
14  2.052493 -0.000016 0.000000  -0.000000 -0.000001 0.351452
15  0.000002 0.000000 0.000000  -0.000000 -0.000000 -0.000001
16  7.513990 5.809596 0.017858  -3.141407 1.557975 0.011154
17  -0.070802 -2.388369 5.522472  0.000000 0.000000 0.000000
18  1.415678 -2.044643 -3.621219  2.948734 1.557982 0.011045
19  5.299827 4.644359 -3.248581  -2.985544 0.817098 -0.097313
20  5.344987 4.701543 3.299804  -0.135460 -0.800557 -0.161473
21  1.415695 -2.044666 3.542303  -0.793863 -1.588740 0.997869
22  1.906928 3.979193 0.017852  -3.141423 1.557975 0.011137
23  8.304110 3.999398 -2.460397  -3.141582 -0.021105 0.010963
24  8.304135 4.001092 2.569060  -0.000019 -3.120488 0.010969
25  4.579012 -4.663075 0.155580  -2.898452 1.557876 0.011317
26  4.679013 -4.162772 3.006109  -2.898458 1.557884 0.011134
27  4.679015 -4.162763 -2.328868  -2.898458 1.557884 0.011134
28  3.150841 1.164188 1.317458  0.268426 -1.245597 -1.987215
29  2.376377 -0.000000 -0.000006  -1.366135 -0.161535 -0.544332
30  8.345258 0.000046 0.000016  -0.005910 0.005353 -0.054418
31  7.671074 0.000038 -0.000000  1.260628 -0.011906 0.001741
32  2.711133 0.353538 -1.055026  0.370699 0.047593 -0.059610
33  0.889052 -0.000008 0.000004  -0.030188 -0.032714 0.052034
34  0.597714 0.000001 -0.000007  0.007051 0.034261 -0.034752
35  2.906743 0.220936 -0.413925  0.369630 0.042122 -0.041730
36  1.107321 0.000000 0.000001  -0.033057 -0.000597 -0.003556
37  0.805332 -0.000003 -0.000001  0.008466 -0.015049 0.086396
38  2.892797 -0.069739 0.173101  0.376689 -0.011847 0.054332
39  1.335583 0.000007 -0.000003  -0.140828 -0.045112 -0.092846
40  0.860885 0.000005 -0.000003  0.016533 0.036125 0.032675
41  2.911526 -0.329748 0.785543  0.299929 -0.015263 0.037364
42  1.127890 -0.000011 0.000007  -0.012091 -0.001039 -0.044465
43  0.809894 0.000001 -0.000004  0.045871 0.003860 -0.059260
44  1.047374 -0.739432 0.515888  2.147676 -0.539424 -0.436966
45  1.149370 -0.000006 0.000028  0.100217 -0.121901 -0.206478
46  1.065285 -0.000005 -0.000010  -0.002573 0.052995 -0.080878
47  4.359102 0.000028 0.000013  -0.512899 0.000000 0.000016
48  3.150840 1.164188 -1.311071  -0.395459 1.249431 -2.036242
49  2.376387 -0.000038 -0.000030  1.455947 0.210316 -0.498349
50  8.345269 0.000049 -0.000014  0.030602 -0.054567 -0.033300
51  7.671054 -0.000044 0.000003  -1.273721 0.006571 0.058194
52  2.845345 0.552998 0.859379  -0.380658 0.021389 -0.065585
53  0.834522 -0.000003 0.000008  -0.034915 -0.029177 0.023082
54  0.631605 -0.000002 0.000001  0.047638 0.013824 0.065694
55  2.986410 0.396010 0.231333  -0.294671 0.023299 -0.007354
56  1.102686 -0.000003 0.000003  -0.005596 0.013246 -0.025829
57  0.764541 0.000001 0.000005  0.023971 0.018070 0.140744
58  2.994096 0.287064 -0.409325  -0.312187 0.037635 -0.000958
59  1.319736 0.000008 -0.000001  0.144920 0.000853 -0.053342
60  0.959329 -0.000003 0.000002  -0.020966 -0.015793 0.044018
61  2.939399 -0.086535 -1.048680  -0.226163 -0.004497 -0.064545
62  1.194919 0.000007 0.000008  -0.082093 0.023496 0.088246
63  0.830585 -0.000018 0.000002  -0.036521 0.009451 -0.040001
64  0.949157 -0.693608 -0.507710  -2.034662 0.541191 -0.433149
65  1.150744 -0.000021 0.000008  0.070760 0.052103 -0.182220
66  1.066570 -0.000007 0.000056  0.131497 -0.005544 -0.056875
67  4.359086 -0.000022 -0.000016  0.512795 -0.000000 -0.000005
68  4.570312 1.230456 1.797583  -0.580064 -0.071450 0.041247
69  1.518005 4.585081 0.141492  -0.608103 -1.557970 -0.034894
70  2.006736 -5.194377 -0.017843  0.352860 -1.557980 0.013013
71  2.984208 -0.653523 2.448051  0.199490 0.657247 -0.288154
72  -3.781746 -0.683498 2.366668  1.113210 0.683623 -2.836881
73  4.277519 3.645744 2.245929  0.000000 -0.000000 -0.000002
74  -1.235540 -1.007116 0.823418  -1.159733 -0.305407 -3.136879
75  -0.066761 -0.033034 6.296068  0.106048 -0.000005 -0.000002
76  -0.233290 0.797918 6.712668  -0.038863 0.000001 -0.000001
77  2.803625 -3.834930 0.288095  -0.907598 -0.725251 2.946262
78  -2.040680 0.030785 5.862429  0.017238 -0.324261 0.084589
79  4.277521 3.645734 -4.011556  0.000000 -0.000000 -0.000002
80  2.089628 -3.370140 -0.613847  2.067910 -0.849311 0.153383
81  -0.060705 0.005449 6.550002  0.085057 -0.057913 0.043815
82  -2.076636 -0.522386 -0.616946  2.174806 -0.264441 -0.055941
83  0.053802 -0.017950 6.004162  0.041205 -0.000004 -0.000000
84  0.031840 0.650589 7.095342  -0.082422 0.000003 -0.000001
85  -4.283147 3.645768 -4.011562  0.000000 -0.000000 -0.000002
86  2.087357 -0.465439 -0.607980  1.002421 -2.854769 0.019281
87  0.053769 0.192423 6.160192  -0.039352 -0.000003 -0.000001
88  0.031789 -0.518811 6.994168  0.082429 0.000001 0.000001
89  -1.952572 -3.255465 -0.613312  1.058667 -2.289564 -0.117009
90  -0.160659 -0.077904 6.599900  -0.032572 -0.054229 -0.038826
91  -4.283151 3.645763 2.245916  0.000000 -0.000000 -0.000002
92  -2.280476 -2.980416 0.203457  1.175060 -0.831070 -0.274709
93  -0.062309 -0.644972 7.496580  0.057128 0.012543 0.008653
94  1.100764 -0.903439 0.711816  1.071986 -0.310280 -0.024653
95  -0.066652 -0.536078 6.383456  0.063822 -0.000004 -0.000001
96  0.032344 -0.142311 6.866489  0.038866 0.000025 0.000001
97  -5.374800 3.421856 -1.292935  -0.000913 -1.570209 0.886698
98  0.000570 -0.434945 6.885411  0.078739 0.000010 -0.000001
99  0.000003 -0.165535 6.972930  0.029792 -0.000000 -0.000000
100  5.469971 3.343349 -0.719049  -0.000558 1.570315 -1.085042
101  -0.000570 0.973686 6.959699  -0.122592 -0.000011 0.000001
102  0.000025 -0.223887 6.820126  0.029794 0.000003 -0.000000
103  0.000000 0.000000 0.000000  0.000000 -0.000000 0.000000
end
