// Created by Crowbar 0.74
version 1
nodes
  0 "static_prop" -1
end
skeleton
  time 0
    0 0.000000 0.000000 0.000000 0.000000 0.000000 0.000000
end
triangles
  phy
    0 51.769239 -1.003193 -3.521409 0.969111 0.241775 0.048678 0 0
    0 47.280357 -1.003193 -1.290929 0.977333 0.110199 -0.180763 0 0
    0 49.384246 -1.003193 -3.266752 0.702738 0.631160 -0.328323 0 0
  phy
    0 51.769239 -1.003193 -3.521409 0.969111 0.241775 0.048678 0 0
    0 55.853626 -1.003194 -0.009178 0.998438 0.003190 0.055785 0 0
    0 47.280357 -1.003193 -1.290929 0.977333 0.110199 -0.180763 0 0
  phy
    0 55.853626 -1.003194 -0.009178 0.998438 0.003190 0.055785 0 0
    0 35.509765 -1.003195 19.492019 0.946357 0.125866 -0.297602 0 0
    0 47.280357 -1.003193 -1.290929 0.977333 0.110199 -0.180763 0 0
  phy
    0 55.853626 -1.003194 -0.009178 0.998438 0.003190 0.055785 0 0
    0 32.726446 -1.003196 35.121572 0.997724 -0.000296 -0.067428 0 0
    0 35.509765 -1.003195 19.492019 0.946357 0.125866 -0.297602 0 0
  phy
    0 55.853626 -1.003194 -0.009178 0.998438 0.003190 0.055785 0 0
    0 33.233607 -1.003197 43.505970 0.998299 -0.015400 -0.056228 0 0
    0 32.726446 -1.003196 35.121572 0.997724 -0.000296 -0.067428 0 0
  phy
    0 55.853626 -1.003194 -0.009178 0.998438 0.003190 0.055785 0 0
    0 37.349073 -1.003197 51.999937 0.997300 -0.068815 -0.025620 0 0
    0 33.233607 -1.003197 43.505970 0.998299 -0.015400 -0.056228 0 0
  phy
    0 55.853626 -1.003194 -0.009178 0.998438 0.003190 0.055785 0 0
    0 55.853607 -1.003198 51.999998 0.978088 -0.037732 0.204746 0 0
    0 37.349073 -1.003197 51.999937 0.997300 -0.068815 -0.025620 0 0
  phy
    0 49.384246 -1.003193 -3.266752 0.702738 0.631160 -0.328323 0 0
    0 48.799435 1.003200 -4.358871 -0.954326 0.298071 0.020364 0 0
    0 49.591923 0.709499 -4.354851 -0.698495 0.593961 0.399143 0 0
  phy
    0 49.384246 -1.003193 -3.266752 0.702738 0.631160 -0.328323 0 0
    0 49.591923 0.709499 -4.354851 -0.698495 0.593961 0.399143 0 0
    0 51.769239 -1.003193 -3.521409 0.969111 0.241775 0.048678 0 0
  phy
    0 49.384246 -1.003193 -3.266752 0.702738 0.631160 -0.328323 0 0
    0 47.280357 -1.003193 -1.290929 0.977333 0.110199 -0.180763 0 0
    0 47.579258 1.003200 -3.552019 -0.952986 0.141469 -0.267963 0 0
  phy
    0 48.799435 1.003200 -4.358871 -0.954326 0.298071 0.020364 0 0
    0 49.384246 -1.003193 -3.266752 0.702738 0.631160 -0.328323 0 0
    0 47.579258 1.003200 -3.552019 -0.952986 0.141469 -0.267963 0 0
  phy
    0 32.070460 1.003195 43.218408 0.238919 -0.295906 -0.924855 0 0
    0 36.556289 1.003196 52.000003 -0.996831 -0.074625 -0.027554 0 0
    0 31.995370 1.003195 40.175183 -0.960745 0.039512 -0.274603 0 0
  phy
    0 31.995370 1.003195 40.175183 -0.960745 0.039512 -0.274603 0 0
    0 36.556289 1.003196 52.000003 -0.996831 -0.074625 -0.027554 0 0
    0 35.224341 1.003197 24.875776 -0.998427 0.017575 -0.053235 0 0
  phy
    0 35.224341 1.003197 24.875776 -0.998427 0.017575 -0.053235 0 0
    0 36.556289 1.003196 52.000003 -0.996831 -0.074625 -0.027554 0 0
    0 55.853607 1.003198 52.000003 -0.996738 -0.049674 0.063601 0 0
  phy
    0 35.224341 1.003197 24.875776 -0.998427 0.017575 -0.053235 0 0
    0 55.853607 1.003198 52.000003 -0.996738 -0.049674 0.063601 0 0
    0 55.853584 1.003201 3.599039 -0.987082 0.012077 0.159761 0 0
  phy
    0 35.224341 1.003197 24.875776 -0.998427 0.017575 -0.053235 0 0
    0 55.853584 1.003201 3.599039 -0.987082 0.012077 0.159761 0 0
    0 47.579258 1.003200 -3.552019 -0.952986 0.141469 -0.267963 0 0
  phy
    0 47.579258 1.003200 -3.552019 -0.952986 0.141469 -0.267963 0 0
    0 55.853584 1.003201 3.599039 -0.987082 0.012077 0.159761 0 0
    0 48.799435 1.003200 -4.358871 -0.954326 0.298071 0.020364 0 0
  phy
    0 32.726446 -1.003196 35.121572 0.997724 -0.000296 -0.067428 0 0
    0 31.995370 1.003195 40.175183 -0.960745 0.039512 -0.274603 0 0
    0 32.637058 -0.661544 33.377756 -0.240400 0.185222 -0.952838 0 0
  phy
    0 31.995370 1.003195 40.175183 -0.960745 0.039512 -0.274603 0 0
    0 32.726446 -1.003196 35.121572 0.997724 -0.000296 -0.067428 0 0
    0 32.070460 1.003195 43.218408 0.238919 -0.295906 -0.924855 0 0
  phy
    0 32.637058 -0.661544 33.377756 -0.240400 0.185222 -0.952838 0 0
    0 31.995370 1.003195 40.175183 -0.960745 0.039512 -0.274603 0 0
    0 35.224341 1.003197 24.875776 -0.998427 0.017575 -0.053235 0 0
  phy
    0 32.726446 -1.003196 35.121572 0.997724 -0.000296 -0.067428 0 0
    0 33.233607 -1.003197 43.505970 0.998299 -0.015400 -0.056228 0 0
    0 32.070460 1.003195 43.218408 0.238919 -0.295906 -0.924855 0 0
  phy
    0 32.637058 -0.661544 33.377756 -0.240400 0.185222 -0.952838 0 0
    0 35.509765 -1.003195 19.492019 0.946357 0.125866 -0.297602 0 0
    0 32.726446 -1.003196 35.121572 0.997724 -0.000296 -0.067428 0 0
  phy
    0 47.280357 -1.003193 -1.290929 0.977333 0.110199 -0.180763 0 0
    0 35.509765 -1.003195 19.492019 0.946357 0.125866 -0.297602 0 0
    0 47.579258 1.003200 -3.552019 -0.952986 0.141469 -0.267963 0 0
  phy
    0 32.637058 -0.661544 33.377756 -0.240400 0.185222 -0.952838 0 0
    0 35.224341 1.003197 24.875776 -0.998427 0.017575 -0.053235 0 0
    0 35.509765 -1.003195 19.492019 0.946357 0.125866 -0.297602 0 0
  phy
    0 35.509765 -1.003195 19.492019 0.946357 0.125866 -0.297602 0 0
    0 35.224341 1.003197 24.875776 -0.998427 0.017575 -0.053235 0 0
    0 47.579258 1.003200 -3.552019 -0.952986 0.141469 -0.267963 0 0
  phy
    0 37.349073 -1.003197 51.999937 0.997300 -0.068815 -0.025620 0 0
    0 55.853607 1.003198 52.000003 -0.996738 -0.049674 0.063601 0 0
    0 36.556289 1.003196 52.000003 -0.996831 -0.074625 -0.027554 0 0
  phy
    0 37.349073 -1.003197 51.999937 0.997300 -0.068815 -0.025620 0 0
    0 55.853607 -1.003198 51.999998 0.978088 -0.037732 0.204746 0 0
    0 55.853607 1.003198 52.000003 -0.996738 -0.049674 0.063601 0 0
  phy
    0 33.233607 -1.003197 43.505970 0.998299 -0.015400 -0.056228 0 0
    0 37.349073 -1.003197 51.999937 0.997300 -0.068815 -0.025620 0 0
    0 32.070460 1.003195 43.218408 0.238919 -0.295906 -0.924855 0 0
  phy
    0 37.349073 -1.003197 51.999937 0.997300 -0.068815 -0.025620 0 0
    0 36.556289 1.003196 52.000003 -0.996831 -0.074625 -0.027554 0 0
    0 32.070460 1.003195 43.218408 0.238919 -0.295906 -0.924855 0 0
  phy
    0 49.591923 0.709499 -4.354851 -0.698495 0.593961 0.399143 0 0
    0 48.799435 1.003200 -4.358871 -0.954326 0.298071 0.020364 0 0
    0 55.853584 1.003201 3.599039 -0.987082 0.012077 0.159761 0 0
  phy
    0 53.329806 -0.661551 -3.087751 -0.683830 0.498374 0.532916 0 0
    0 49.591923 0.709499 -4.354851 -0.698495 0.593961 0.399143 0 0
    0 55.853584 1.003201 3.599039 -0.987082 0.012077 0.159761 0 0
  phy
    0 55.853626 -1.003194 -0.009178 0.998438 0.003190 0.055785 0 0
    0 53.329806 -0.661551 -3.087751 -0.683830 0.498374 0.532916 0 0
    0 55.853584 1.003201 3.599039 -0.987082 0.012077 0.159761 0 0
  phy
    0 49.591923 0.709499 -4.354851 -0.698495 0.593961 0.399143 0 0
    0 53.329806 -0.661551 -3.087751 -0.683830 0.498374 0.532916 0 0
    0 51.769239 -1.003193 -3.521409 0.969111 0.241775 0.048678 0 0
  phy
    0 55.853626 -1.003194 -0.009178 0.998438 0.003190 0.055785 0 0
    0 51.769239 -1.003193 -3.521409 0.969111 0.241775 0.048678 0 0
    0 53.329806 -0.661551 -3.087751 -0.683830 0.498374 0.532916 0 0
  phy
    0 55.853607 -1.003198 51.999998 0.978088 -0.037732 0.204746 0 0
    0 55.853584 1.003201 3.599039 -0.987082 0.012077 0.159761 0 0
    0 55.853607 1.003198 52.000003 -0.996738 -0.049674 0.063601 0 0
  phy
    0 55.853607 -1.003198 51.999998 0.978088 -0.037732 0.204746 0 0
    0 55.853626 -1.003194 -0.009178 0.998438 0.003190 0.055785 0 0
    0 55.853584 1.003201 3.599039 -0.987082 0.012077 0.159761 0 0
end
