// Created by Crowbar 0.74
version 1
nodes
  0 "airliner_fuselage_secondary_1" -1
  1 "baked_fuselage_debris_secondary_1" 0
  2 "baked_fuselage_debris_secondary_2" 0
  3 "baked_fuselage_debris_secondary_3" 0
  4 "baked_fuselage_debris_secondary_4" 0
  5 "baked_fuselage_debris_secondary_5" 0
  6 "baked_fuselage_debris_secondary_6" 0
  7 "baked_fuselage_debris_secondary_7" 0
  8 "baked_fuselage_debris_secondary_8" 0
  9 "baked_fuselage_debris_secondary_9" 0
  10 "baked_fuselage_debris_secondary_10" 0
  11 "baked_fuselage_debris_secondary_11" 0
  12 "baked_fuselage_debris_secondary_12" 0
  13 "baked_fuselage_debris_secondary_13" 0
  14 "baked_fuselage_debris_secondary_14" 0
  15 "baked_fuselage_debris_secondary_15" 0
  16 "baked_fuselage_debris_secondary_16" 0
  17 "baked_fuselage_debris_secondary_17" 0
  18 "baked_fuselage_debris_secondary_18" 0
  19 "baked_fuselage_debris_secondary_19" 0
  20 "baked_fuselage_debris_secondary_20" 0
  21 "baked_fuselage_debris_secondary_21" 0
  22 "baked_fuselage_debris_secondary_22" 0
  23 "baked_fuselage_debris_secondary_23" 0
  24 "baked_fuselage_debris_secondary_24" 0
  25 "baked_fuselage_debris_secondary_25" 0
  26 "baked_fuselage_debris_secondary_26" 0
  27 "baked_fuselage_debris_secondary_27" 0
  28 "baked_fuselage_debris_secondary_28" 0
  29 "baked_fuselage_debris_secondary_29" 0
  30 "baked_fuselage_debris_secondary_30" 0
  31 "baked_fuselage_debris_secondary_31" 0
  32 "baked_fuselage_debris_secondary_32" 0
  33 "baked_fuselage_debris_secondary_33" 0
  34 "baked_fuselage_debris_secondary_34" 0
  35 "baked_fuselage_debris_secondary_35" 0
  36 "baked_fuselage_debris_secondary_36" 0
  37 "baked_fuselage_debris_secondary_37" 0
  38 "baked_fuselage_debris_secondary_38" 0
  39 "baked_fuselage_debris_secondary_39" 0
  40 "baked_fuselage_debris_secondary_40" 0
  41 "baked_fuselage_debris_secondary_41" 0
  42 "baked_fuselage_debris_secondary_42" 0
  43 "baked_fuselage_debris_secondary_43" 0
  44 "baked_fuselage_debris_secondary_44" 0
  45 "baked_fuselage_debris_secondary_45" 0
  46 "baked_fuselage_debris_secondary_46" 0
  47 "baked_fuselage_debris_secondary_47" 0
  48 "baked_fuselage_debris_secondary_48" 0
  49 "baked_fuselage_debris_secondary_49" 0
  50 "baked_fuselage_debris_secondary_50" 0
  51 "baked_fuselage_debris_secondary_51" 0
  52 "baked_fuselage_debris_secondary_52" 0
  53 "baked_fuselage_debris_secondary_53" 0
  54 "baked_fuselage_debris_secondary_54" 0
  55 "baked_fuselage_debris_secondary_55" 0
  56 "baked_fuselage_debris_secondary_56" 0
  57 "baked_fuselage_debris_secondary_57" 0
  58 "baked_fuselage_debris_secondary_58" 0
  59 "baked_fuselage_debris_secondary_59" 0
  60 "baked_fuselage_debris_secondary_60" 0
  61 "baked_fuselage_debris_secondary_61" 0
  62 "baked_fuselage_debris_secondary_62" 0
  63 "baked_fuselage_debris_secondary_63" 0
  64 "baked_fuselage_debris_secondary_64" 0
  65 "baked_fuselage_debris_secondary_65" 0
  66 "baked_fuselage_debris_secondary_66" 0
  67 "baked_fuselage_debris_secondary_67" 0
  68 "baked_fuselage_debris_secondary_68" 0
  69 "baked_fuselage_debris_secondary_69" 0
  70 "baked_fuselage_debris_secondary_70" 0
  71 "baked_fuselage_debris_secondary_71" 0
  72 "baked_fuselage_debris_secondary_72" 0
  73 "baked_fuselage_debris_secondary_73" 0
  74 "baked_fuselage_debris_secondary_74" 0
  75 "baked_fuselage_debris_secondary_75" 0
  76 "baked_fuselage_debris_secondary_76" 0
  77 "baked_fuselage_debris_secondary_77" 0
  78 "baked_fuselage_debris_secondary_78" 0
  79 "baked_fuselage_debris_secondary_79" 0
  80 "baked_fuselage_debris_secondary_80" 0
  81 "baked_fuselage_debris_secondary_81" 0
  82 "baked_fuselage_debris_secondary_82" 0
  83 "baked_fuselage_debris_secondary_83" 0
  84 "baked_fuselage_debris_secondary_84" 0
  85 "baked_fuselage_debris_secondary_85" 0
  86 "baked_fuselage_debris_secondary_86" 0
  87 "baked_fuselage_debris_secondary_87" 0
  88 "baked_fuselage_debris_secondary_88" 0
  89 "baked_fuselage_debris_secondary_89" 0
  90 "baked_fuselage_debris_secondary_90" 0
  91 "baked_fuselage_debris_secondary_91" 0
  92 "baked_fuselage_debris_secondary_92" 0
  93 "baked_fuselage_debris_secondary_93" 0
  94 "baked_fuselage_debris_secondary_94" 0
  95 "baked_fuselage_debris_secondary_95" 0
  96 "baked_fuselage_debris_secondary_96" 0
  97 "baked_fuselage_debris_secondary_97" 0
  98 "baked_fuselage_debris_secondary_98" 0
  99 "baked_fuselage_debris_secondary_99" 0
  100 "baked_fuselage_debris_secondary_100" 0
  101 "baked_fuselage_debris_secondary_101" 0
  102 "baked_fuselage_debris_secondary_102" 0
  103 "baked_fuselage_debris_secondary_103" 0
  104 "baked_fuselage_debris_secondary_104" 0
  105 "baked_fuselage_debris_secondary_105" 0
  106 "baked_fuselage_debris_secondary_106" 0
  107 "baked_fuselage_debris_secondary_107" 0
  108 "baked_fuselage_debris_secondary_108" 0
  109 "baked_fuselage_debris_secondary_109" 0
  110 "baked_fuselage_debris_secondary_110" 0
  111 "baked_fuselage_debris_secondary_111" 0
  112 "baked_fuselage_debris_secondary_112" 0
  113 "baked_fuselage_debris_secondary_113" 0
  114 "baked_fuselage_debris_secondary_114" 0
  115 "baked_fuselage_debris_secondary_115" 0
  116 "baked_fuselage_debris_secondary_116" 0
  117 "baked_fuselage_debris_secondary_117" 0
  118 "baked_fuselage_debris_secondary_118" 0
  119 "baked_fuselage_debris_secondary_119" 0
  120 "baked_fuselage_debris_secondary_120" 0
  121 "baked_fuselage_debris_secondary_121" 0
  122 "baked_fuselage_debris_secondary_122" 0
  123 "baked_fuselage_debris_secondary_123" 0
  124 "baked_fuselage_debris_secondary_124" 0
end
skeleton
  time 0
    0 -2508.000000 5324.000000 -881.500000 1.570674 0.000183 -0.000183
    1 -24.138184 -100.583252 624.424072 0.000000 0.000000 0.000000
    2 29.196777 -56.179321 646.240479 0.000000 0.000000 0.000000
    3 48.178223 -15.555969 529.437744 0.000000 0.000000 0.000000
    4 17.207031 -75.741699 309.552979 0.000000 0.000000 0.000000
    5 19.248535 78.701782 571.982178 0.000000 0.000000 0.000000
    6 41.841797 24.032227 416.322510 0.000000 0.000000 0.000000
    7 -3.437988 91.981323 405.323486 0.000000 0.000000 0.000000
    8 -21.115723 99.510864 281.626709 0.000000 0.000000 0.000000
    9 0.886230 95.367188 493.787354 0.000000 0.000000 0.000000
    10 -26.127441 -100.164978 -38.102783 0.000000 0.000000 0.000000
    11 47.556641 -2.047363 279.736572 0.000000 0.000000 0.000000
    12 45.540527 31.422729 -276.168945 0.000000 0.000000 0.000000
    13 35.578613 56.169312 -261.410400 0.000000 0.000000 0.000000
    14 -30.494629 104.432495 58.009521 0.000000 0.000000 0.000000
    15 33.777832 -46.881592 -283.925049 0.000000 0.000000 0.000000
    16 44.092773 -8.575867 -464.266846 0.000000 0.000000 0.000000
    17 45.577148 12.657104 -465.501221 0.000000 0.000000 0.000000
    18 22.851074 22.727783 -627.316162 0.000000 0.000000 0.000000
    19 -42.709473 99.402832 -627.355469 0.000000 0.000000 0.000000
    20 -30.618652 104.410889 538.874268 0.000000 0.000000 0.000000
    21 49.202637 5.872803 588.472412 0.000000 0.000000 0.000000
    22 16.237793 -73.872437 425.037842 0.000000 0.000000 0.000000
    23 26.336914 -68.944885 220.598877 0.000000 0.000000 0.000000
    24 1.071777 -90.471924 143.264893 0.000000 0.000000 0.000000
    25 -35.317871 -104.903015 76.568115 0.000000 0.000000 0.000000
    26 1.932129 94.787842 109.797852 0.000000 0.000000 0.000000
    27 37.373047 50.564819 101.583740 0.000000 0.000000 0.000000
    28 48.665527 17.249878 84.357666 0.000000 0.000000 0.000000
    29 48.026855 -15.095825 -55.849854 0.000000 0.000000 0.000000
    30 47.836426 -12.117615 -152.287842 0.000000 0.000000 0.000000
    31 -27.969238 103.635132 -174.774658 0.000000 0.000000 0.000000
    32 36.715332 53.505371 -146.250732 0.000000 0.000000 0.000000
    33 19.204102 79.029907 -165.631104 0.000000 0.000000 0.000000
    34 49.572266 7.186890 -282.675537 0.000000 0.000000 0.000000
    35 9.057129 88.706909 -268.875732 0.000000 0.000000 0.000000
    36 -10.805176 100.760864 -202.108643 0.000000 0.000000 0.000000
    37 -16.474609 97.572754 -482.416260 0.000000 0.000000 0.000000
    38 47.729492 23.734985 -339.133301 0.000000 0.000000 0.000000
    39 46.533691 -31.515442 -355.701660 0.000000 0.000000 0.000000
    40 30.977051 50.830200 -539.294678 0.000000 0.000000 0.000000
    41 38.289551 27.093628 -531.278076 0.000000 0.000000 0.000000
    42 36.574219 -2.751160 -539.267578 0.000000 0.000000 0.000000
    43 -31.592285 -103.674072 461.356201 0.000000 0.000000 0.000000
    44 11.319336 -79.575562 73.929443 0.000000 0.000000 0.000000
    45 42.495605 -36.344360 102.625000 0.000000 0.000000 0.000000
    46 41.333496 -42.431580 466.284424 0.000000 0.000000 0.000000
    47 46.770996 13.767944 448.492432 0.000000 0.000000 0.000000
    48 -27.980957 103.346313 538.627197 0.000000 0.000000 0.000000
    49 -39.404297 -106.217773 -74.547852 0.000000 0.000000 0.000000
    50 -43.353027 -107.567017 -204.871826 0.000000 0.000000 0.000000
    51 37.188965 -51.973877 29.282471 0.000000 0.000000 0.000000
    52 16.777832 -76.023010 -124.536865 0.000000 0.000000 0.000000
    53 -22.251465 89.435913 -656.746582 0.000000 0.000000 0.000000
    54 33.175293 -56.503540 269.463135 0.000000 0.000000 0.000000
    55 20.178711 73.314941 270.902588 0.000000 0.000000 0.000000
    56 46.588379 20.128540 269.075439 0.000000 0.000000 0.000000
    57 49.931641 0.249512 92.884521 0.000000 0.000000 0.000000
    58 -6.022949 -92.465576 80.310303 0.000000 0.000000 0.000000
    59 -1.656250 -91.309814 -210.585205 0.000000 0.000000 0.000000
    60 30.215332 -65.364258 -238.071045 0.000000 0.000000 0.000000
    61 44.410645 -35.234741 -220.392578 0.000000 0.000000 0.000000
    62 50.007324 0.269531 -38.336670 0.000000 0.000000 0.000000
    63 33.933105 51.764160 -44.520752 0.000000 0.000000 0.000000
    64 9.780762 86.294556 -36.187256 0.000000 0.000000 0.000000
    65 -16.223145 102.488892 107.714600 0.000000 0.000000 0.000000
    66 43.056152 33.273315 -175.950439 0.000000 0.000000 0.000000
    67 12.114258 86.802612 -179.138916 0.000000 0.000000 0.000000
    68 36.700684 44.080444 -289.829346 0.000000 0.000000 0.000000
    69 -39.319824 107.188843 -276.742676 0.000000 0.000000 0.000000
    70 -18.997559 102.756470 -180.477295 0.000000 0.000000 0.000000
    71 23.509277 -39.097534 -511.813232 0.000000 0.000000 0.000000
    72 41.577148 21.398315 -479.375732 0.000000 0.000000 0.000000
    73 22.515137 70.163452 -480.601807 0.000000 0.000000 0.000000
    74 -11.963379 100.417358 -320.150635 0.000000 0.000000 0.000000
    75 11.664551 87.156372 -317.455322 0.000000 0.000000 0.000000
    76 -41.695801 -57.811035 -619.305908 0.000000 0.000000 0.000000
    77 -30.333496 -55.242920 -616.633545 0.000000 0.000000 0.000000
    78 -7.459473 -31.890381 -651.305420 0.000000 0.000000 0.000000
    79 13.787598 15.133911 -677.781982 0.000000 0.000000 0.000000
    80 2.275879 62.452637 -681.903320 0.000000 0.000000 0.000000
    81 -9.418945 -20.009338 -707.543701 0.000000 0.000000 0.000000
    82 -24.041504 -30.028748 -713.013428 0.000000 0.000000 0.000000
    83 -44.478516 -41.155396 -697.635010 0.000000 0.000000 0.000000
    84 39.631348 -48.269653 575.048584 0.000000 0.000000 0.000000
    85 31.095215 -64.075989 100.761475 0.000000 0.000000 0.000000
    86 28.873047 -64.049561 -324.548584 0.000000 0.000000 0.000000
    87 27.736816 -67.874329 361.175537 0.000000 0.000000 0.000000
    88 -38.033203 -45.759888 -665.696289 0.000000 0.000000 0.000000
    89 47.950684 -21.775085 17.242676 0.000000 0.000000 0.000000
    90 17.682617 -75.785889 -253.165283 0.000000 0.000000 0.000000
    91 9.845215 -82.488770 -344.169922 0.000000 0.000000 0.000000
    92 13.393066 -79.663452 -75.584229 0.000000 0.000000 0.000000
    93 42.480957 -43.514160 -195.627686 0.000000 0.000000 0.000000
    94 -23.774414 -102.864624 -77.468750 0.000000 0.000000 0.000000
    95 23.427246 74.636597 -27.609131 0.000000 0.000000 0.000000
    96 -16.212402 102.491089 -25.010010 0.000000 0.000000 0.000000
    97 36.900391 52.861206 -165.629639 0.000000 0.000000 0.000000
    98 49.301270 -3.900879 -194.986572 0.000000 0.000000 0.000000
    99 50.438965 0.045410 -306.466064 0.000000 0.000000 0.000000
    100 37.035156 53.621948 -306.926025 0.000000 0.000000 0.000000
    101 -32.118164 -86.581238 -484.515625 0.000000 0.000000 0.000000
    102 36.337402 40.303101 -492.193848 0.000000 0.000000 0.000000
    103 40.876465 -14.265381 -496.087891 0.000000 0.000000 0.000000
    104 -3.340332 -62.102112 -555.263184 0.000000 0.000000 0.000000
    105 3.281738 -14.888428 -673.401611 0.000000 0.000000 0.000000
    106 11.300293 39.593384 -684.364746 0.000000 0.000000 0.000000
    107 -43.019043 90.654907 -691.773438 0.000000 0.000000 0.000000
    108 -5.322754 76.868042 -680.864990 0.000000 0.000000 0.000000
    109 40.601074 -47.730713 -352.187500 0.000000 0.000000 0.000000
    110 -19.858887 -70.914795 -508.825439 0.000000 0.000000 0.000000
    111 29.083008 -51.753418 -418.578369 0.000000 0.000000 0.000000
    112 -47.262207 107.957031 -83.811035 0.000000 0.000000 0.000000
    113 -35.181152 106.787109 -63.865723 0.000000 0.000000 0.000000
    114 47.207520 -27.942017 -189.192627 0.000000 0.000000 0.000000
    115 -11.359863 99.025757 -456.674072 0.000000 0.000000 0.000000
    116 -23.951660 -32.291016 -690.012939 0.000000 0.000000 0.000000
    117 9.105469 11.226074 -696.515381 0.000000 0.000000 0.000000
    118 -43.384277 -106.609985 599.942627 0.000000 0.000000 0.000000
    119 -31.619629 -103.662842 512.562744 0.000000 0.000000 0.000000
    120 31.022949 -34.055176 701.553955 0.000000 0.000000 0.000000
    121 33.516113 -46.570251 420.406982 0.000000 0.000000 0.000000
    122 -25.795410 103.436279 361.197998 0.000000 0.000000 0.000000
    123 -31.597168 -103.677856 272.130127 0.000000 0.000000 0.000000
    124 -38.482910 -105.943054 29.278076 0.000000 0.000000 0.000000
end
