// Created by Crowbar 0.74
version 1
nodes
  0 "Scene_Root" -1
  1 "DoorRootBone" 0
  2 "DoorLockBone" 1
  3 "DoorHandleBone" 1
  4 "DoorLockBoneLeft" 1
  5 "DoorHandleBoneLeft" 1
end
skeleton
  time 0
    0 0.000000 0.000000 0.000000 1.570796 0.000000 0.000000
    1 0.000000 0.000000 0.000000 0.000000 0.000000 0.000000
    2 53.303986 -4.798946 -4.157716 0.000000 0.000000 0.000000
    3 53.413738 -9.099644 -4.157716 0.000000 0.000000 0.000000
    4 53.332615 -4.798946 3.873690 0.000000 0.000000 0.000000
    5 53.442368 -9.099644 3.873690 0.000000 0.000000 0.000000
end
triangles
  phy
    0 42.346910 0.705710 2.110215 -0.990408 0.015374 -0.137319 0 0
    0 42.820837 0.705587 25.158073 -0.965684 -0.062486 -0.252090 0 0
    0 55.853546 1.003180 51.999942 -0.998879 -0.032598 0.034316 0 0
  phy
    0 42.820837 0.705587 25.158073 -0.965684 -0.062486 -0.252090 0 0
    0 42.346910 0.705710 2.110215 -0.990408 0.015374 -0.137319 0 0
    0 40.384542 -1.300817 25.200799 0.994021 -0.031590 -0.104524 0 0
  phy
    0 55.853546 1.003180 51.999942 -0.998879 -0.032598 0.034316 0 0
    0 42.820837 0.705587 25.158073 -0.965684 -0.062486 -0.252090 0 0
    0 40.384542 -1.300817 25.200799 0.994021 -0.031590 -0.104524 0 0
  phy
    0 55.853617 -1.003212 51.999992 0.967731 -0.020855 0.251121 0 0
    0 40.384542 -1.300817 25.200799 0.994021 -0.031590 -0.104524 0 0
    0 55.853618 -1.237486 -51.999991 0.996547 0.014041 0.081829 0 0
  phy
    0 55.853617 -1.003212 51.999992 0.967731 -0.020855 0.251121 0 0
    0 55.853546 1.003180 51.999942 -0.998879 -0.032598 0.034316 0 0
    0 40.384542 -1.300817 25.200799 0.994021 -0.031590 -0.104524 0 0
  phy
    0 55.853618 -1.237486 -51.999991 0.996547 0.014041 0.081829 0 0
    0 55.853607 1.054649 -51.788898 -0.991005 0.037558 0.128449 0 0
    0 55.853617 -1.003212 51.999992 0.967731 -0.020855 0.251121 0 0
  phy
    0 55.853617 -1.003212 51.999992 0.967731 -0.020855 0.251121 0 0
    0 55.853607 1.054649 -51.788898 -0.991005 0.037558 0.128449 0 0
    0 55.853546 1.003180 51.999942 -0.998879 -0.032598 0.034316 0 0
  phy
    0 42.346910 0.705710 2.110215 -0.990408 0.015374 -0.137319 0 0
    0 42.284133 -1.300638 -5.952737 0.581364 0.177333 -0.794084 0 0
    0 40.384542 -1.300817 25.200799 0.994021 -0.031590 -0.104524 0 0
  phy
    0 42.284133 -1.300638 -5.952737 0.581364 0.177333 -0.794084 0 0
    0 42.346910 0.705710 2.110215 -0.990408 0.015374 -0.137319 0 0
    0 55.853607 1.054649 -51.788898 -0.991005 0.037558 0.128449 0 0
  phy
    0 42.346910 0.705710 2.110215 -0.990408 0.015374 -0.137319 0 0
    0 55.853546 1.003180 51.999942 -0.998879 -0.032598 0.034316 0 0
    0 55.853607 1.054649 -51.788898 -0.991005 0.037558 0.128449 0 0
  phy
    0 55.853618 -1.237486 -51.999991 0.996547 0.014041 0.081829 0 0
    0 40.384542 -1.300817 25.200799 0.994021 -0.031590 -0.104524 0 0
    0 42.284133 -1.300638 -5.952737 0.581364 0.177333 -0.794084 0 0
  phy
    0 55.853618 -1.237486 -51.999991 0.996547 0.014041 0.081829 0 0
    0 42.284133 -1.300638 -5.952737 0.581364 0.177333 -0.794084 0 0
    0 55.853607 1.054649 -51.788898 -0.991005 0.037558 0.128449 0 0
  phy
    0 21.171116 -1.300684 -11.184260 0.967268 0.054398 0.247856 0 0
    0 0.067582 -1.002916 -52.000008 0.994474 0.027953 -0.101189 0 0
    0 20.402986 0.705680 -13.455071 -0.905277 0.153674 0.396053 0 0
  phy
    0 0.067582 -1.002916 -52.000008 0.994474 0.027953 -0.101189 0 0
    0 0.067572 1.003481 -51.999997 -0.999243 0.015611 -0.035620 0 0
    0 20.402986 0.705680 -13.455071 -0.905277 0.153674 0.396053 0 0
  phy
    0 20.402986 0.705680 -13.455071 -0.905277 0.153674 0.396053 0 0
    0 20.505860 0.705571 10.740029 -0.996464 -0.013879 0.082861 0 0
    0 21.171116 -1.300684 -11.184260 0.967268 0.054398 0.247856 0 0
  phy
    0 20.505860 0.705571 10.740029 -0.996464 -0.013879 0.082861 0 0
    0 20.402986 0.705680 -13.455071 -0.905277 0.153674 0.396053 0 0
    0 0.067572 1.003481 -51.999997 -0.999243 0.015611 -0.035620 0 0
  phy
    0 20.505860 0.705571 10.740029 -0.996464 -0.013879 0.082861 0 0
    0 20.933423 -1.300907 24.637643 0.997341 -0.031708 0.065617 0 0
    0 21.171116 -1.300684 -11.184260 0.967268 0.054398 0.247856 0 0
  phy
    0 21.171116 -1.300684 -11.184260 0.967268 0.054398 0.247856 0 0
    0 20.933423 -1.300907 24.637643 0.997341 -0.031708 0.065617 0 0
    0 0.067582 -1.002916 -52.000008 0.994474 0.027953 -0.101189 0 0
  phy
    0 20.505860 0.705571 10.740029 -0.996464 -0.013879 0.082861 0 0
    0 0.067572 1.002913 51.999999 -0.994391 -0.033899 -0.100187 0 0
    0 20.933423 -1.300907 24.637643 0.997341 -0.031708 0.065617 0 0
  phy
    0 0.067572 1.002913 51.999999 -0.994391 -0.033899 -0.100187 0 0
    0 20.505860 0.705571 10.740029 -0.996464 -0.013879 0.082861 0 0
    0 0.067572 1.003481 -51.999997 -0.999243 0.015611 -0.035620 0 0
  phy
    0 0.067582 -1.002916 -52.000008 0.994474 0.027953 -0.101189 0 0
    0 0.067582 -1.003480 51.999997 0.996212 -0.019219 -0.084802 0 0
    0 0.067572 1.002913 51.999999 -0.994391 -0.033899 -0.100187 0 0
  phy
    0 0.067582 -1.002916 -52.000008 0.994474 0.027953 -0.101189 0 0
    0 20.933423 -1.300907 24.637643 0.997341 -0.031708 0.065617 0 0
    0 0.067582 -1.003480 51.999997 0.996212 -0.019219 -0.084802 0 0
  phy
    0 0.067582 -1.003480 51.999997 0.996212 -0.019219 -0.084802 0 0
    0 20.933423 -1.300907 24.637643 0.997341 -0.031708 0.065617 0 0
    0 0.067572 1.002913 51.999999 -0.994391 -0.033899 -0.100187 0 0
  phy
    0 0.067582 -1.002916 -52.000008 0.994474 0.027953 -0.101189 0 0
    0 0.067572 1.002913 51.999999 -0.994391 -0.033899 -0.100187 0 0
    0 0.067572 1.003481 -51.999997 -0.999243 0.015611 -0.035620 0 0
  phy
    0 32.024530 0.705590 17.430467 -0.999257 0.031257 -0.022543 0 0
    0 30.428035 1.003059 51.999933 -0.996623 -0.044238 -0.069182 0 0
    0 54.943158 1.063731 52.000004 -0.996217 -0.086893 0.000805 0 0
  phy
    0 32.740234 0.705582 17.227846 -0.995470 0.088829 0.033898 0 0
    0 32.024530 0.705590 17.430467 -0.999257 0.031257 -0.022543 0 0
    0 54.943158 1.063731 52.000004 -0.996217 -0.086893 0.000805 0 0
  phy
    0 32.024530 0.705590 17.430467 -0.999257 0.031257 -0.022543 0 0
    0 37.162596 -1.300795 18.715436 0.721777 0.420781 0.549528 0 0
    0 35.509731 -1.300810 19.492007 0.985288 0.145884 -0.089029 0 0
  phy
    0 32.024530 0.705590 17.430467 -0.999257 0.031257 -0.022543 0 0
    0 32.740234 0.705582 17.227846 -0.995470 0.088829 0.033898 0 0
    0 37.162596 -1.300795 18.715436 0.721777 0.420781 0.549528 0 0
  phy
    0 32.024530 0.705590 17.430467 -0.999257 0.031257 -0.022543 0 0
    0 30.115609 0.705547 21.243268 -0.627116 0.029368 -0.778372 0 0
    0 30.428035 1.003059 51.999933 -0.996623 -0.044238 -0.069182 0 0
  phy
    0 35.509731 -1.300810 19.492007 0.985288 0.145884 -0.089029 0 0
    0 29.829564 -1.300848 23.190576 0.830381 0.359607 -0.425618 0 0
    0 32.024530 0.705590 17.430467 -0.999257 0.031257 -0.022543 0 0
  phy
    0 30.115609 0.705547 21.243268 -0.627116 0.029368 -0.778372 0 0
    0 32.024530 0.705590 17.430467 -0.999257 0.031257 -0.022543 0 0
    0 29.829564 -1.300848 23.190576 0.830381 0.359607 -0.425618 0 0
  phy
    0 29.416217 -1.300870 25.150637 0.998417 -0.009476 -0.055436 0 0
    0 30.115609 0.705547 21.243268 -0.627116 0.029368 -0.778372 0 0
    0 29.829564 -1.300848 23.190576 0.830381 0.359607 -0.425618 0 0
  phy
    0 30.115609 0.705547 21.243268 -0.627116 0.029368 -0.778372 0 0
    0 29.416217 -1.300870 25.150637 0.998417 -0.009476 -0.055436 0 0
    0 29.514075 -1.003338 51.999988 0.971298 -0.164488 -0.171826 0 0
  phy
    0 30.428035 1.003059 51.999933 -0.996623 -0.044238 -0.069182 0 0
    0 30.115609 0.705547 21.243268 -0.627116 0.029368 -0.778372 0 0
    0 29.514075 -1.003338 51.999988 0.971298 -0.164488 -0.171826 0 0
  phy
    0 35.509731 -1.300810 19.492007 0.985288 0.145884 -0.089029 0 0
    0 39.529483 -1.300814 23.775807 0.999969 -0.006025 0.005005 0 0
    0 29.416217 -1.300870 25.150637 0.998417 -0.009476 -0.055436 0 0
  phy
    0 37.162596 -1.300795 18.715436 0.721777 0.420781 0.549528 0 0
    0 39.529483 -1.300814 23.775807 0.999969 -0.006025 0.005005 0 0
    0 35.509731 -1.300810 19.492007 0.985288 0.145884 -0.089029 0 0
  phy
    0 29.416217 -1.300870 25.150637 0.998417 -0.009476 -0.055436 0 0
    0 29.829564 -1.300848 23.190576 0.830381 0.359607 -0.425618 0 0
    0 35.509731 -1.300810 19.492007 0.985288 0.145884 -0.089029 0 0
  phy
    0 39.687651 0.705599 20.354659 -0.989377 0.112497 0.092075 0 0
    0 55.853612 1.003181 52.000003 -0.623754 0.328608 0.709188 0 0
    0 42.820842 0.705587 25.158115 0.341316 0.442157 0.829458 0 0
  phy
    0 55.853612 1.003181 52.000003 -0.623754 0.328608 0.709188 0 0
    0 39.687651 0.705599 20.354659 -0.989377 0.112497 0.092075 0 0
    0 54.943158 1.063731 52.000004 -0.996217 -0.086893 0.000805 0 0
  phy
    0 39.687651 0.705599 20.354659 -0.989377 0.112497 0.092075 0 0
    0 32.740234 0.705582 17.227846 -0.995470 0.088829 0.033898 0 0
    0 54.943158 1.063731 52.000004 -0.996217 -0.086893 0.000805 0 0
  phy
    0 39.687651 0.705599 20.354659 -0.989377 0.112497 0.092075 0 0
    0 42.820842 0.705587 25.158115 0.341316 0.442157 0.829458 0 0
    0 37.162596 -1.300795 18.715436 0.721777 0.420781 0.549528 0 0
  phy
    0 39.687651 0.705599 20.354659 -0.989377 0.112497 0.092075 0 0
    0 37.162596 -1.300795 18.715436 0.721777 0.420781 0.549528 0 0
    0 32.740234 0.705582 17.227846 -0.995470 0.088829 0.033898 0 0
  phy
    0 55.853659 -1.003211 52.000025 0.994019 -0.004025 0.109132 0 0
    0 29.514075 -1.003338 51.999988 0.971298 -0.164488 -0.171826 0 0
    0 29.416217 -1.300870 25.150637 0.998417 -0.009476 -0.055436 0 0
  phy
    0 29.416217 -1.300870 25.150637 0.998417 -0.009476 -0.055436 0 0
    0 39.529483 -1.300814 23.775807 0.999969 -0.006025 0.005005 0 0
    0 55.853659 -1.003211 52.000025 0.994019 -0.004025 0.109132 0 0
  phy
    0 55.853659 -1.003211 52.000025 0.994019 -0.004025 0.109132 0 0
    0 42.820842 0.705587 25.158115 0.341316 0.442157 0.829458 0 0
    0 55.853612 1.003181 52.000003 -0.623754 0.328608 0.709188 0 0
  phy
    0 55.853612 1.003181 52.000003 -0.623754 0.328608 0.709188 0 0
    0 54.943158 1.063731 52.000004 -0.996217 -0.086893 0.000805 0 0
    0 55.853659 -1.003211 52.000025 0.994019 -0.004025 0.109132 0 0
  phy
    0 37.162596 -1.300795 18.715436 0.721777 0.420781 0.549528 0 0
    0 42.820842 0.705587 25.158115 0.341316 0.442157 0.829458 0 0
    0 55.853659 -1.003211 52.000025 0.994019 -0.004025 0.109132 0 0
  phy
    0 55.853659 -1.003211 52.000025 0.994019 -0.004025 0.109132 0 0
    0 39.529483 -1.300814 23.775807 0.999969 -0.006025 0.005005 0 0
    0 37.162596 -1.300795 18.715436 0.721777 0.420781 0.549528 0 0
  phy
    0 29.514075 -1.003338 51.999988 0.971298 -0.164488 -0.171826 0 0
    0 54.943158 1.063731 52.000004 -0.996217 -0.086893 0.000805 0 0
    0 30.428035 1.003059 51.999933 -0.996623 -0.044238 -0.069182 0 0
  phy
    0 55.853659 -1.003211 52.000025 0.994019 -0.004025 0.109132 0 0
    0 54.943158 1.063731 52.000004 -0.996217 -0.086893 0.000805 0 0
    0 29.514075 -1.003338 51.999988 0.971298 -0.164488 -0.171826 0 0
  phy
    0 55.853603 -1.002645 -52.000111 0.981953 0.029553 0.186799 0 0
    0 34.004374 -1.300427 -52.000005 0.998478 0.034686 -0.042868 0 0
    0 31.924128 1.003634 -51.999992 -0.946315 0.102341 -0.306617 0 0
  phy
    0 55.853616 1.003749 -51.999992 -0.991426 -0.007938 0.130431 0 0
    0 55.853603 -1.002645 -52.000111 0.981953 0.029553 0.186799 0 0
    0 41.344437 1.120535 -51.999992 -0.999741 0.022738 -0.000991 0 0
  phy
    0 55.853603 -1.002645 -52.000111 0.981953 0.029553 0.186799 0 0
    0 31.924128 1.003634 -51.999992 -0.946315 0.102341 -0.306617 0 0
    0 41.344437 1.120535 -51.999992 -0.999741 0.022738 -0.000991 0 0
  phy
    0 55.853603 -1.002645 -52.000111 0.981953 0.029553 0.186799 0 0
    0 55.853616 1.003749 -51.999992 -0.991426 -0.007938 0.130431 0 0
    0 40.504793 0.705640 13.567720 0.397220 -0.239569 0.885902 0 0
  phy
    0 40.504793 0.705640 13.567720 0.397220 -0.239569 0.885902 0 0
    0 40.286119 -1.300702 3.991739 0.996783 -0.018725 0.077933 0 0
    0 55.853603 -1.002645 -52.000111 0.981953 0.029553 0.186799 0 0
  phy
    0 55.853603 -1.002645 -52.000111 0.981953 0.029553 0.186799 0 0
    0 40.286119 -1.300702 3.991739 0.996783 -0.018725 0.077933 0 0
    0 34.004374 -1.300427 -52.000005 0.998478 0.034686 -0.042868 0 0
  phy
    0 36.071254 0.705638 9.908680 -0.998450 -0.017304 -0.052892 0 0
    0 35.182216 -1.300741 6.684304 0.475268 -0.182734 -0.860656 0 0
    0 38.740223 0.705619 15.779500 -0.999824 -0.018095 -0.004908 0 0
  phy
    0 36.315230 -1.300742 7.960654 0.998875 -0.035326 -0.031651 0 0
    0 38.740223 0.705619 15.779500 -0.999824 -0.018095 -0.004908 0 0
    0 35.182216 -1.300741 6.684304 0.475268 -0.182734 -0.860656 0 0
  phy
    0 35.182216 -1.300741 6.684304 0.475268 -0.182734 -0.860656 0 0
    0 36.071254 0.705638 9.908680 -0.998450 -0.017304 -0.052892 0 0
    0 33.677761 0.705679 -1.033805 -0.508191 -0.067620 -0.858586 0 0
  phy
    0 35.182216 -1.300741 6.684304 0.475268 -0.182734 -0.860656 0 0
    0 33.677761 0.705679 -1.033805 -0.508191 -0.067620 -0.858586 0 0
    0 32.915484 -1.300633 -15.082035 0.904020 -0.010512 -0.427361 0 0
  phy
    0 35.182216 -1.300741 6.684304 0.475268 -0.182734 -0.860656 0 0
    0 32.915484 -1.300633 -15.082035 0.904020 -0.010512 -0.427361 0 0
    0 36.315230 -1.300742 7.960654 0.998875 -0.035326 -0.031651 0 0
  phy
    0 36.071254 0.705638 9.908680 -0.998450 -0.017304 -0.052892 0 0
    0 38.740223 0.705619 15.779500 -0.999824 -0.018095 -0.004908 0 0
    0 41.344437 1.120535 -51.999992 -0.999741 0.022738 -0.000991 0 0
  phy
    0 31.924128 1.003634 -51.999992 -0.946315 0.102341 -0.306617 0 0
    0 36.071254 0.705638 9.908680 -0.998450 -0.017304 -0.052892 0 0
    0 41.344437 1.120535 -51.999992 -0.999741 0.022738 -0.000991 0 0
  phy
    0 33.677761 0.705679 -1.033805 -0.508191 -0.067620 -0.858586 0 0
    0 36.071254 0.705638 9.908680 -0.998450 -0.017304 -0.052892 0 0
    0 31.924128 1.003634 -51.999992 -0.946315 0.102341 -0.306617 0 0
  phy
    0 40.504793 0.705640 13.567720 0.397220 -0.239569 0.885902 0 0
    0 38.740223 0.705619 15.779500 -0.999824 -0.018095 -0.004908 0 0
    0 37.872706 -1.300741 9.094853 0.960065 -0.190308 0.205081 0 0
  phy
    0 37.872706 -1.300741 9.094853 0.960065 -0.190308 0.205081 0 0
    0 40.286119 -1.300702 3.991739 0.996783 -0.018725 0.077933 0 0
    0 40.504793 0.705640 13.567720 0.397220 -0.239569 0.885902 0 0
  phy
    0 37.872706 -1.300741 9.094853 0.960065 -0.190308 0.205081 0 0
    0 38.740223 0.705619 15.779500 -0.999824 -0.018095 -0.004908 0 0
    0 36.315230 -1.300742 7.960654 0.998875 -0.035326 -0.031651 0 0
  phy
    0 36.315230 -1.300742 7.960654 0.998875 -0.035326 -0.031651 0 0
    0 40.286119 -1.300702 3.991739 0.996783 -0.018725 0.077933 0 0
    0 37.872706 -1.300741 9.094853 0.960065 -0.190308 0.205081 0 0
  phy
    0 34.004374 -1.300427 -52.000005 0.998478 0.034686 -0.042868 0 0
    0 40.286119 -1.300702 3.991739 0.996783 -0.018725 0.077933 0 0
    0 32.915484 -1.300633 -15.082035 0.904020 -0.010512 -0.427361 0 0
  phy
    0 34.004374 -1.300427 -52.000005 0.998478 0.034686 -0.042868 0 0
    0 32.915484 -1.300633 -15.082035 0.904020 -0.010512 -0.427361 0 0
    0 31.924128 1.003634 -51.999992 -0.946315 0.102341 -0.306617 0 0
  phy
    0 32.915484 -1.300633 -15.082035 0.904020 -0.010512 -0.427361 0 0
    0 33.677761 0.705679 -1.033805 -0.508191 -0.067620 -0.858586 0 0
    0 31.924128 1.003634 -51.999992 -0.946315 0.102341 -0.306617 0 0
  phy
    0 32.915484 -1.300633 -15.082035 0.904020 -0.010512 -0.427361 0 0
    0 40.286119 -1.300702 3.991739 0.996783 -0.018725 0.077933 0 0
    0 36.315230 -1.300742 7.960654 0.998875 -0.035326 -0.031651 0 0
  phy
    0 40.504793 0.705640 13.567720 0.397220 -0.239569 0.885902 0 0
    0 55.853616 1.003749 -51.999992 -0.991426 -0.007938 0.130431 0 0
    0 38.740223 0.705619 15.779500 -0.999824 -0.018095 -0.004908 0 0
  phy
    0 38.740223 0.705619 15.779500 -0.999824 -0.018095 -0.004908 0 0
    0 55.853616 1.003749 -51.999992 -0.991426 -0.007938 0.130431 0 0
    0 41.344437 1.120535 -51.999992 -0.999741 0.022738 -0.000991 0 0
  phy
    0 30.016159 0.705620 7.952683 -0.769382 0.066436 0.635325 0 0
    0 29.271758 -1.300776 7.807519 0.936202 0.121886 0.329650 0 0
    0 25.040513 0.705603 6.541726 -0.999591 0.027713 -0.007017 0 0
  phy
    0 29.271758 -1.300776 7.807519 0.936202 0.121886 0.329650 0 0
    0 27.422339 -1.300784 7.711938 0.795844 0.568958 -0.207170 0 0
    0 25.040513 0.705603 6.541726 -0.999591 0.027713 -0.007017 0 0
  phy
    0 29.271758 -1.300776 7.807519 0.936202 0.121886 0.329650 0 0
    0 30.016159 0.705620 7.952683 -0.769382 0.066436 0.635325 0 0
    0 29.416215 -1.300877 25.150562 0.979117 0.000892 0.203298 0 0
  phy
    0 29.416215 -1.300877 25.150562 0.979117 0.000892 0.203298 0 0
    0 24.193018 -1.300811 9.656800 0.994709 0.052791 -0.088134 0 0
    0 29.271758 -1.300776 7.807519 0.936202 0.121886 0.329650 0 0
  phy
    0 24.193018 -1.300811 9.656800 0.994709 0.052791 -0.088134 0 0
    0 27.422339 -1.300784 7.711938 0.795844 0.568958 -0.207170 0 0
    0 29.271758 -1.300776 7.807519 0.936202 0.121886 0.329650 0 0
  phy
    0 30.416088 0.954842 44.874962 -0.997549 0.007392 0.069585 0 0
    0 30.428054 1.003059 51.999999 -0.782059 -0.479826 0.397681 0 0
    0 29.416215 -1.300877 25.150562 0.979117 0.000892 0.203298 0 0
  phy
    0 29.416215 -1.300877 25.150562 0.979117 0.000892 0.203298 0 0
    0 30.428054 1.003059 51.999999 -0.782059 -0.479826 0.397681 0 0
    0 29.378450 -1.301036 51.999986 0.985962 -0.079068 0.147065 0 0
  phy
    0 30.016159 0.705620 7.952683 -0.769382 0.066436 0.635325 0 0
    0 30.416088 0.954842 44.874962 -0.997549 0.007392 0.069585 0 0
    0 29.416215 -1.300877 25.150562 0.979117 0.000892 0.203298 0 0
  phy
    0 29.416215 -1.300877 25.150562 0.979117 0.000892 0.203298 0 0
    0 14.980825 -1.301105 51.999986 0.995981 -0.089101 -0.009085 0 0
    0 24.193018 -1.300811 9.656800 0.994709 0.052791 -0.088134 0 0
  phy
    0 29.378450 -1.301036 51.999986 0.985962 -0.079068 0.147065 0 0
    0 14.980825 -1.301105 51.999986 0.995981 -0.089101 -0.009085 0 0
    0 29.416215 -1.300877 25.150562 0.979117 0.000892 0.203298 0 0
  phy
    0 4.158627 1.053410 51.999999 -0.997966 -0.063751 0.000051 0 0
    0 14.980825 -1.301105 51.999986 0.995981 -0.089101 -0.009085 0 0
    0 30.428054 1.003059 51.999999 -0.782059 -0.479826 0.397681 0 0
  phy
    0 4.158627 1.053410 51.999999 -0.997966 -0.063751 0.000051 0 0
    0 0.067586 -1.003479 51.999988 0.971116 0.064987 -0.229589 0 0
    0 14.980825 -1.301105 51.999986 0.995981 -0.089101 -0.009085 0 0
  phy
    0 4.158627 1.053410 51.999999 -0.997966 -0.063751 0.000051 0 0
    0 0.067576 1.002913 51.999999 -0.950628 0.121209 -0.285682 0 0
    0 0.067586 -1.003479 51.999988 0.971116 0.064987 -0.229589 0 0
  phy
    0 14.980825 -1.301105 51.999986 0.995981 -0.089101 -0.009085 0 0
    0 29.378450 -1.301036 51.999986 0.985962 -0.079068 0.147065 0 0
    0 30.428054 1.003059 51.999999 -0.782059 -0.479826 0.397681 0 0
  phy
    0 30.416088 0.954842 44.874962 -0.997549 0.007392 0.069585 0 0
    0 30.016159 0.705620 7.952683 -0.769382 0.066436 0.635325 0 0
    0 25.040513 0.705603 6.541726 -0.999591 0.027713 -0.007017 0 0
  phy
    0 20.505872 0.705559 10.740139 0.190120 0.478186 -0.857434 0 0
    0 25.040513 0.705603 6.541726 -0.999591 0.027713 -0.007017 0 0
    0 24.193018 -1.300811 9.656800 0.994709 0.052791 -0.088134 0 0
  phy
    0 24.193018 -1.300811 9.656800 0.994709 0.052791 -0.088134 0 0
    0 25.040513 0.705603 6.541726 -0.999591 0.027713 -0.007017 0 0
    0 27.422339 -1.300784 7.711938 0.795844 0.568958 -0.207170 0 0
  phy
    0 24.193018 -1.300811 9.656800 0.994709 0.052791 -0.088134 0 0
    0 0.067586 -1.003479 51.999988 0.971116 0.064987 -0.229589 0 0
    0 20.505872 0.705559 10.740139 0.190120 0.478186 -0.857434 0 0
  phy
    0 24.193018 -1.300811 9.656800 0.994709 0.052791 -0.088134 0 0
    0 14.980825 -1.301105 51.999986 0.995981 -0.089101 -0.009085 0 0
    0 0.067586 -1.003479 51.999988 0.971116 0.064987 -0.229589 0 0
  phy
    0 20.505872 0.705559 10.740139 0.190120 0.478186 -0.857434 0 0
    0 0.067576 1.002913 51.999999 -0.950628 0.121209 -0.285682 0 0
    0 25.040513 0.705603 6.541726 -0.999591 0.027713 -0.007017 0 0
  phy
    0 0.067576 1.002913 51.999999 -0.950628 0.121209 -0.285682 0 0
    0 20.505872 0.705559 10.740139 0.190120 0.478186 -0.857434 0 0
    0 0.067586 -1.003479 51.999988 0.971116 0.064987 -0.229589 0 0
  phy
    0 25.040513 0.705603 6.541726 -0.999591 0.027713 -0.007017 0 0
    0 0.067576 1.002913 51.999999 -0.950628 0.121209 -0.285682 0 0
    0 4.158627 1.053410 51.999999 -0.997966 -0.063751 0.000051 0 0
  phy
    0 30.416088 0.954842 44.874962 -0.997549 0.007392 0.069585 0 0
    0 25.040513 0.705603 6.541726 -0.999591 0.027713 -0.007017 0 0
    0 4.158627 1.053410 51.999999 -0.997966 -0.063751 0.000051 0 0
  phy
    0 30.428054 1.003059 51.999999 -0.782059 -0.479826 0.397681 0 0
    0 30.416088 0.954842 44.874962 -0.997549 0.007392 0.069585 0 0
    0 4.158627 1.053410 51.999999 -0.997966 -0.063751 0.000051 0 0
  phy
    0 27.128559 1.003611 -51.999988 -0.952538 0.087610 -0.291542 0 0
    0 25.836376 0.705713 -12.867710 -0.305749 0.010613 -0.952053 0 0
    0 26.611478 0.705660 -2.330505 -0.995254 -0.047623 -0.084862 0 0
  phy
    0 25.836376 0.705713 -12.867710 -0.305749 0.010613 -0.952053 0 0
    0 25.947523 -1.300682 -12.429747 0.983680 -0.003033 -0.179899 0 0
    0 26.611478 0.705660 -2.330505 -0.995254 -0.047623 -0.084862 0 0
  phy
    0 25.947523 -1.300682 -12.429747 0.983680 -0.003033 -0.179899 0 0
    0 25.836376 0.705713 -12.867710 -0.305749 0.010613 -0.952053 0 0
    0 26.520818 -1.300466 -52.000000 0.829930 0.064862 -0.554084 0 0
  phy
    0 25.836376 0.705713 -12.867710 -0.305749 0.010613 -0.952053 0 0
    0 27.128559 1.003611 -51.999988 -0.952538 0.087610 -0.291542 0 0
    0 26.520818 -1.300466 -52.000000 0.829930 0.064862 -0.554084 0 0
  phy
    0 25.947523 -1.300682 -12.429747 0.983680 -0.003033 -0.179899 0 0
    0 26.709969 -1.300716 -5.337300 0.848211 -0.200737 -0.490146 0 0
    0 26.611478 0.705660 -2.330505 -0.995254 -0.047623 -0.084862 0 0
  phy
    0 25.947523 -1.300682 -12.429747 0.983680 -0.003033 -0.179899 0 0
    0 31.434294 -1.300728 0.967517 0.997481 -0.067706 -0.021137 0 0
    0 26.709969 -1.300716 -5.337300 0.848211 -0.200737 -0.490146 0 0
  phy
    0 26.709969 -1.300716 -5.337300 0.848211 -0.200737 -0.490146 0 0
    0 31.434294 -1.300728 0.967517 0.997481 -0.067706 -0.021137 0 0
    0 26.611478 0.705660 -2.330505 -0.995254 -0.047623 -0.084862 0 0
  phy
    0 31.919385 1.008892 -51.999988 -0.991261 0.018121 0.130666 0 0
    0 33.735612 -1.002749 -51.999999 0.021928 0.028335 0.999358 0 0
    0 33.422557 -1.300433 -52.000000 0.998926 0.043122 0.016929 0 0
  phy
    0 31.919385 1.008892 -51.999988 -0.991261 0.018121 0.130666 0 0
    0 33.422557 -1.300433 -52.000000 0.998926 0.043122 0.016929 0 0
    0 27.128559 1.003611 -51.999988 -0.952538 0.087610 -0.291542 0 0
  phy
    0 27.128559 1.003611 -51.999988 -0.952538 0.087610 -0.291542 0 0
    0 33.422557 -1.300433 -52.000000 0.998926 0.043122 0.016929 0 0
    0 26.520818 -1.300466 -52.000000 0.829930 0.064862 -0.554084 0 0
  phy
    0 27.128559 1.003611 -51.999988 -0.952538 0.087610 -0.291542 0 0
    0 26.611478 0.705660 -2.330505 -0.995254 -0.047623 -0.084862 0 0
    0 31.919385 1.008892 -51.999988 -0.991261 0.018121 0.130666 0 0
  phy
    0 26.611478 0.705660 -2.330505 -0.995254 -0.047623 -0.084862 0 0
    0 33.677766 0.705686 -1.033772 -0.999045 -0.043586 0.003082 0 0
    0 31.919385 1.008892 -51.999988 -0.991261 0.018121 0.130666 0 0
  phy
    0 33.677766 0.705686 -1.033772 -0.999045 -0.043586 0.003082 0 0
    0 34.858332 0.705713 -2.913922 -0.131983 -0.006531 0.991231 0 0
    0 31.919385 1.008892 -51.999988 -0.991261 0.018121 0.130666 0 0
  phy
    0 33.677766 0.705686 -1.033772 -0.999045 -0.043586 0.003082 0 0
    0 26.611478 0.705660 -2.330505 -0.995254 -0.047623 -0.084862 0 0
    0 31.434294 -1.300728 0.967517 0.997481 -0.067706 -0.021137 0 0
  phy
    0 33.677766 0.705686 -1.033772 -0.999045 -0.043586 0.003082 0 0
    0 31.434294 -1.300728 0.967517 0.997481 -0.067706 -0.021137 0 0
    0 34.858332 0.705713 -2.913922 -0.131983 -0.006531 0.991231 0 0
  phy
    0 25.947523 -1.300682 -12.429747 0.983680 -0.003033 -0.179899 0 0
    0 33.422557 -1.300433 -52.000000 0.998926 0.043122 0.016929 0 0
    0 31.434294 -1.300728 0.967517 0.997481 -0.067706 -0.021137 0 0
  phy
    0 26.520818 -1.300466 -52.000000 0.829930 0.064862 -0.554084 0 0
    0 33.422557 -1.300433 -52.000000 0.998926 0.043122 0.016929 0 0
    0 25.947523 -1.300682 -12.429747 0.983680 -0.003033 -0.179899 0 0
  phy
    0 32.915482 -1.300634 -15.081855 0.845195 -0.012939 0.534302 0 0
    0 34.858332 0.705713 -2.913922 -0.131983 -0.006531 0.991231 0 0
    0 32.098982 -1.300717 -0.496891 0.835675 -0.050473 0.546900 0 0
  phy
    0 32.098982 -1.300717 -0.496891 0.835675 -0.050473 0.546900 0 0
    0 31.434294 -1.300728 0.967517 0.997481 -0.067706 -0.021137 0 0
    0 32.915482 -1.300634 -15.081855 0.845195 -0.012939 0.534302 0 0
  phy
    0 34.858332 0.705713 -2.913922 -0.131983 -0.006531 0.991231 0 0
    0 31.434294 -1.300728 0.967517 0.997481 -0.067706 -0.021137 0 0
    0 32.098982 -1.300717 -0.496891 0.835675 -0.050473 0.546900 0 0
  phy
    0 33.735612 -1.002749 -51.999999 0.021928 0.028335 0.999358 0 0
    0 34.858332 0.705713 -2.913922 -0.131983 -0.006531 0.991231 0 0
    0 32.915482 -1.300634 -15.081855 0.845195 -0.012939 0.534302 0 0
  phy
    0 32.915482 -1.300634 -15.081855 0.845195 -0.012939 0.534302 0 0
    0 33.422557 -1.300433 -52.000000 0.998926 0.043122 0.016929 0 0
    0 33.735612 -1.002749 -51.999999 0.021928 0.028335 0.999358 0 0
  phy
    0 31.434294 -1.300728 0.967517 0.997481 -0.067706 -0.021137 0 0
    0 33.422557 -1.300433 -52.000000 0.998926 0.043122 0.016929 0 0
    0 32.915482 -1.300634 -15.081855 0.845195 -0.012939 0.534302 0 0
  phy
    0 33.735612 -1.002749 -51.999999 0.021928 0.028335 0.999358 0 0
    0 31.919385 1.008892 -51.999988 -0.991261 0.018121 0.130666 0 0
    0 34.858332 0.705713 -2.913922 -0.131983 -0.006531 0.991231 0 0
  phy
    0 25.748098 -1.316555 -10.858199 -0.084799 -0.434588 0.896628 0 0
    0 25.944840 -1.308320 -12.403762 0.809405 -0.010135 0.587163 0 0
    0 25.836371 0.705724 -12.867691 -0.410586 -0.053695 0.910239 0 0
  phy
    0 25.836371 0.705724 -12.867691 -0.410586 -0.053695 0.910239 0 0
    0 24.936858 0.705699 -10.717118 -0.999822 -0.018749 0.002060 0 0
    0 25.748098 -1.316555 -10.858199 -0.084799 -0.434588 0.896628 0 0
  phy
    0 25.748098 -1.316555 -10.858199 -0.084799 -0.434588 0.896628 0 0
    0 24.090315 -1.322861 -8.869451 -0.007470 -0.947452 -0.319812 0 0
    0 25.944840 -1.308320 -12.403762 0.809405 -0.010135 0.587163 0 0
  phy
    0 24.936858 0.705699 -10.717118 -0.999822 -0.018749 0.002060 0 0
    0 24.090315 -1.322861 -8.869451 -0.007470 -0.947452 -0.319812 0 0
    0 25.748098 -1.316555 -10.858199 -0.084799 -0.434588 0.896628 0 0
  phy
    0 25.944840 -1.308320 -12.403762 0.809405 -0.010135 0.587163 0 0
    0 27.128561 1.003606 -51.999992 -0.989106 0.039047 0.141934 0 0
    0 25.836371 0.705724 -12.867691 -0.410586 -0.053695 0.910239 0 0
  phy
    0 24.936858 0.705699 -10.717118 -0.999822 -0.018749 0.002060 0 0
    0 25.836371 0.705724 -12.867691 -0.410586 -0.053695 0.910239 0 0
    0 27.128561 1.003606 -51.999992 -0.989106 0.039047 0.141934 0 0
  phy
    0 21.171123 -1.300712 -11.184237 0.989288 -0.063965 -0.131220 0 0
    0 20.402967 0.705690 -13.455064 -0.822614 -0.309895 -0.476730 0 0
    0 0.067571 1.003481 -51.999992 -0.991914 0.013580 -0.126180 0 0
  phy
    0 20.402967 0.705690 -13.455064 -0.822614 -0.309895 -0.476730 0 0
    0 24.936858 0.705699 -10.717118 -0.999822 -0.018749 0.002060 0 0
    0 0.067571 1.003481 -51.999992 -0.991914 0.013580 -0.126180 0 0
  phy
    0 21.171123 -1.300712 -11.184237 0.989288 -0.063965 -0.131220 0 0
    0 24.090315 -1.322861 -8.869451 -0.007470 -0.947452 -0.319812 0 0
    0 20.402967 0.705690 -13.455064 -0.822614 -0.309895 -0.476730 0 0
  phy
    0 24.936858 0.705699 -10.717118 -0.999822 -0.018749 0.002060 0 0
    0 20.402967 0.705690 -13.455064 -0.822614 -0.309895 -0.476730 0 0
    0 24.090315 -1.322861 -8.869451 -0.007470 -0.947452 -0.319812 0 0
  phy
    0 21.171123 -1.300712 -11.184237 0.989288 -0.063965 -0.131220 0 0
    0 26.478209 -1.083577 -52.000004 0.994181 0.089052 0.060609 0 0
    0 25.944840 -1.308320 -12.403762 0.809405 -0.010135 0.587163 0 0
  phy
    0 25.944840 -1.308320 -12.403762 0.809405 -0.010135 0.587163 0 0
    0 24.090315 -1.322861 -8.869451 -0.007470 -0.947452 -0.319812 0 0
    0 21.171123 -1.300712 -11.184237 0.989288 -0.063965 -0.131220 0 0
  phy
    0 25.944840 -1.308320 -12.403762 0.809405 -0.010135 0.587163 0 0
    0 26.478209 -1.083577 -52.000004 0.994181 0.089052 0.060609 0 0
    0 27.128561 1.003606 -51.999992 -0.989106 0.039047 0.141934 0 0
  phy
    0 0.067583 -1.002912 -51.999999 0.996771 0.015539 -0.078773 0 0
    0 21.171123 -1.300712 -11.184237 0.989288 -0.063965 -0.131220 0 0
    0 0.067571 1.003481 -51.999992 -0.991914 0.013580 -0.126180 0 0
  phy
    0 0.067583 -1.002912 -51.999999 0.996771 0.015539 -0.078773 0 0
    0 26.478209 -1.083577 -52.000004 0.994181 0.089052 0.060609 0 0
    0 21.171123 -1.300712 -11.184237 0.989288 -0.063965 -0.131220 0 0
  phy
    0 24.936858 0.705699 -10.717118 -0.999822 -0.018749 0.002060 0 0
    0 27.128561 1.003606 -51.999992 -0.989106 0.039047 0.141934 0 0
    0 0.067571 1.003481 -51.999992 -0.991914 0.013580 -0.126180 0 0
  phy
    0 26.478209 -1.083577 -52.000004 0.994181 0.089052 0.060609 0 0
    0 0.067583 -1.002912 -51.999999 0.996771 0.015539 -0.078773 0 0
    0 0.067571 1.003481 -51.999992 -0.991914 0.013580 -0.126180 0 0
  phy
    0 27.128561 1.003606 -51.999992 -0.989106 0.039047 0.141934 0 0
    0 26.478209 -1.083577 -52.000004 0.994181 0.089052 0.060609 0 0
    0 0.067571 1.003481 -51.999992 -0.991914 0.013580 -0.126180 0 0
end
