// Created by Crowbar 0.74
version 1
nodes
  0 "ValveBiped.Bip01_Pelvis" -1
  1 "ValveBiped.Bip01_Spine" 0
  2 "ValveBiped.Bip01_Spine1" 1
  3 "ValveBiped.Bip01_Spine2" 2
  4 "ValveBiped.Bip01_Spine4" 3
  5 "ValveBiped.Bip01_Neck1" 4
  6 "ValveBiped.Bip01_Head1" 5
  7 "Eye_L" 6
  8 "Eye_R" 6
  9 "Teeth" 6
  10 "Tongue1" 6
  11 "Tongue2" 10
  12 "Tongue3" 11
  13 "FrontHair1" 6
  14 "FrontHair2" 13
  15 "FrontHair_L" 6
  16 "FrontHair_R" 6
  17 "SideHair1_L" 6
  18 "SideHair2_L" 17
  19 "SideHair3_L" 18
  20 "SideHair1_R" 6
  21 "SideHair2_R" 20
  22 "SideHair3_R" 21
  23 "BackSideHair1_L" 6
  24 "BackSideHair2_L" 23
  25 "BackSideHair1_R" 6
  26 "BackSideHair2_R" 25
  27 "BackInsideHair" 6
  28 "BackHair" 6
  29 "ValveBiped.Bip01_L_Clavicle" 4
  30 "ValveBiped.Bip01_L_UpperArm" 29
  31 "ValveBiped.Bip01_L_Forearm" 30
  32 "ValveBiped.Bip01_L_Hand" 31
  33 "ValveBiped.Bip01_R_Clavicle" 4
  34 "ValveBiped.Bip01_R_UpperArm" 33
  35 "ValveBiped.Bip01_R_Forearm" 34
  36 "ValveBiped.Bip01_R_Hand" 35
  37 "ValveBiped.Bip01_L_Thigh" 0
  38 "ValveBiped.Bip01_L_Calf" 37
  39 "ValveBiped.Bip01_L_Foot" 38
  40 "ValveBiped.Bip01_R_Thigh" 0
  41 "ValveBiped.Bip01_R_Calf" 40
  42 "ValveBiped.Bip01_R_Foot" 41
  43 "ValveBiped.Bip01_L_Finger0" 32
  44 "ValveBiped.Bip01_L_Finger01" 43
  45 "ValveBiped.Bip01_L_Finger02" 44
  46 "ValveBiped.Bip01_L_Finger1" 32
  47 "ValveBiped.Bip01_L_Finger11" 46
  48 "ValveBiped.Bip01_L_Finger12" 47
  49 "ValveBiped.Bip01_L_Finger2" 32
  50 "ValveBiped.Bip01_L_Finger21" 49
  51 "ValveBiped.Bip01_L_Finger22" 50
  52 "ValveBiped.Bip01_L_Finger3" 32
  53 "ValveBiped.Bip01_L_Finger31" 52
  54 "ValveBiped.Bip01_L_Finger32" 53
  55 "ValveBiped.Bip01_L_Finger4" 32
  56 "ValveBiped.Bip01_L_Finger41" 55
  57 "ValveBiped.Bip01_L_Finger42" 56
  58 "ValveBiped.Bip01_R_Finger0" 36
  59 "ValveBiped.Bip01_R_Finger01" 58
  60 "ValveBiped.Bip01_R_Finger02" 59
  61 "ValveBiped.Bip01_R_Finger1" 36
  62 "ValveBiped.Bip01_R_Finger11" 61
  63 "ValveBiped.Bip01_R_Finger12" 62
  64 "ValveBiped.Bip01_R_Finger2" 36
  65 "ValveBiped.Bip01_R_Finger21" 64
  66 "ValveBiped.Bip01_R_Finger22" 65
  67 "ValveBiped.Bip01_R_Finger3" 36
  68 "ValveBiped.Bip01_R_Finger31" 67
  69 "ValveBiped.Bip01_R_Finger32" 68
  70 "ValveBiped.Bip01_R_Finger4" 36
  71 "ValveBiped.Bip01_R_Finger41" 70
  72 "ValveBiped.Bip01_R_Finger42" 71
  73 "Side_L1" 6
  74 "Side_L2" 73
  75 "Side_L3" 74
  76 "Side_L4" 75
  77 "Side_R1" 6
  78 "Side_R2" 77
  79 "Side_R3" 78
  80 "Side_R4" 79
  81 "RibbonL" 4
  82 "RibbonR" 4
end
skeleton
  time 0
    0 -0.000005 -0.788086 37.906250 1.570788 0.000010 -0.000010
    1 0.000005 4.281250 -1.492188 1.570797 -0.074104 1.570795
    2 3.835938 0.000015 0.000001 0.000000 0.000006 -0.112615
    3 3.615234 0.000029 0.000002 0.000000 -0.000002 -0.012632
    4 7.531250 0.000039 0.000003 0.000000 -0.000004 0.155826
    5 3.175781 -0.000011 0.000001 -3.141592 0.000000 0.224052
    6 2.966797 -0.108826 -0.000001 0.000000 -0.000004 0.059067
    7 2.253914 -0.073982 -1.091766 -2.838592 -0.054443 -0.033335
    8 2.253929 -0.073982 1.091756 0.303009 -0.054425 3.108275
    9 0.003014 -1.393598 0.000000 0.000000 1.570729 3.088269
    10 -0.067036 -1.009804 0.000000 0.000000 1.570765 3.055267
    11 0.000000 0.622602 0.000011 0.004922 0.000000 0.000000
    12 0.000000 0.466433 -0.000004 -0.004828 0.000000 0.000000
    13 5.801979 -2.705345 -0.000013 0.000000 -1.570794 0.267526
    14 0.000000 -0.004396 2.049244 -0.014641 0.000000 0.000000
    15 5.801975 -2.705348 -2.008743 0.000000 -1.570794 0.267526
    16 5.801975 -2.705345 2.008718 0.000000 -1.570794 0.267526
    17 5.111847 0.669872 -4.276173 0.000000 -1.570794 0.277592
    18 0.000000 0.023473 2.963116 -0.008260 0.000000 0.000000
    19 0.000000 -0.000668 1.968708 -0.000133 0.000000 0.000000
    20 5.111874 0.669869 4.276145 0.000000 -1.570794 0.277592
    21 0.000000 0.023472 2.963123 -0.008260 0.000000 0.000000
    22 0.000000 -0.000668 1.968708 -0.000133 0.000000 0.000000
    23 4.253975 3.716858 -4.986283 0.000000 -1.570794 0.283935
    24 0.000000 0.070142 4.916977 -0.011116 0.000016 0.001249
    25 4.253998 3.716867 4.986264 0.000000 -1.570794 0.283935
    26 0.000000 0.070142 4.916988 -0.011116 -0.000016 -0.001248
    27 0.355644 4.587690 -0.000001 0.000000 -1.570794 0.224975
    28 0.052959 5.689240 0.000000 0.000000 -1.570794 0.233502
    29 1.982422 0.678223 1.116211 1.356069 -1.235664 3.088469
    30 4.859375 -0.223877 -1.074219 -1.406362 0.028753 -0.273659
    31 11.117188 0.000012 -0.016724 0.000000 0.001505 0.000000
    32 11.195313 -0.000038 0.000004 1.570541 -0.040953 0.006058
    33 1.983398 0.678223 -1.116211 -1.430149 1.236027 3.086006
    34 4.859375 -0.301514 1.060547 1.475675 -0.010128 -0.275228
    35 11.117188 -0.000024 0.016708 0.000000 -0.001499 0.000000
    36 11.187500 0.000055 0.000011 -1.570527 0.041243 0.006351
    37 3.982422 0.000000 -0.000003 -1.570796 0.000000 -1.570796
    38 15.929688 -0.138062 -0.376709 0.000000 0.000000 0.122992
    39 17.703125 0.000004 -0.000001 0.000000 -0.000001 -1.083475
    40 -3.982422 0.000008 0.000007 -1.570796 0.000000 -1.570796
    41 15.929688 -0.138062 0.376709 0.000000 0.000000 0.122992
    42 17.703125 -0.000014 -0.000002 0.000000 0.000000 -1.086514
    43 0.515625 -0.577637 1.623047 -1.627556 -0.398360 -0.326762
    44 1.392578 0.000005 -0.006435 -0.056360 0.006165 -0.043739
    45 1.095703 0.028366 0.091797 -0.001469 -0.073134 -0.261978
    46 3.652344 -0.333008 1.208008 0.000543 -0.003389 -0.090683
    47 1.626953 -0.038208 0.016678 0.000067 -0.006014 -0.023469
    48 0.955078 0.011246 -0.022217 0.000042 0.011763 0.011759
    49 3.750000 -0.248535 0.263428 0.000401 -0.013743 -0.066117
    50 2.037109 0.036285 -0.001233 0.000137 0.000352 0.017802
    51 1.064453 -0.030716 -0.007828 -0.000206 0.006116 -0.028784
    52 3.697266 -0.425537 -0.635254 0.000688 -0.009987 -0.114755
    53 1.745117 0.102051 0.023285 0.000228 0.006048 0.058410
    54 0.958984 -0.017502 0.036713 0.000032 -0.000826 -0.018278
    55 3.482422 -0.682617 -1.487305 0.001166 -0.001859 -0.193954
    56 1.210938 0.112000 0.058777 -0.000378 -0.012604 0.092097
    57 0.678711 0.011871 0.020630 0.000149 0.000022 0.017472
    58 0.515137 -0.578125 -1.624023 1.627454 0.398640 -0.327095
    59 1.391602 0.000002 0.006428 0.063707 -0.004535 -0.043677
    60 1.094727 0.027725 -0.090210 0.001868 0.072191 -0.262520
    61 3.652344 -0.333984 -1.209961 -0.000572 0.003682 -0.090969
    62 1.626953 -0.038208 -0.016678 -0.000067 0.006014 -0.023463
    63 0.955566 0.011238 0.022217 -0.000042 -0.011759 0.011756
    64 3.750000 -0.249634 -0.264160 -0.000422 0.014038 -0.066412
    65 2.033203 0.036255 0.001228 -0.000137 -0.000352 0.017802
    66 1.064453 -0.030701 0.007828 0.000206 -0.006115 -0.028784
    67 3.695313 -0.426758 0.635254 -0.000728 0.010281 -0.115046
    68 1.743164 0.101990 -0.023285 -0.000228 -0.006052 0.058418
    69 0.958984 -0.017517 -0.036774 -0.000032 0.000828 -0.018284
    70 3.484375 -0.684082 1.487305 -0.001219 0.002146 -0.194250
    71 1.210938 0.111938 -0.058777 0.000380 0.012605 0.092097
    72 0.678711 0.011871 -0.020645 -0.000149 -0.000022 0.017472
    73 6.417381 2.459604 -3.591180 3.137808 -1.093364 -2.859367
    74 0.022156 0.019206 2.589825 -0.030614 0.309310 -0.027717
    75 0.145278 -0.028349 2.437290 0.018930 0.166506 0.084009
    76 -0.109299 -0.002376 2.414471 -0.010479 0.000090 -0.050628
    77 6.417397 2.459610 3.591151 -0.003785 -1.093364 0.282225
    78 -0.022137 0.019204 2.589817 -0.030612 -0.309307 0.027714
    79 -0.145280 -0.028348 2.437271 0.018929 -0.166506 -0.084005
    80 0.109295 -0.002376 2.414501 -0.010480 -0.000090 0.050625
    81 1.526993 2.709389 0.406722 0.823143 -1.074315 -1.381151
    82 1.526993 2.709392 -0.406728 -2.318443 -1.074315 1.760437
  time 1
    0 -0.000005 -0.788086 37.906250 1.570788 0.000010 -0.000010
    1 0.000005 4.281250 -1.492188 1.570797 -0.074104 1.570795
    2 3.835938 0.000015 0.000001 0.000000 0.000006 -0.112615
    3 3.615234 0.000029 0.000002 0.000000 -0.000002 -0.012632
    4 7.531250 0.000039 0.000003 0.000000 -0.000004 0.155826
    5 3.175781 -0.000011 0.000001 -3.141592 0.000000 0.224052
    6 2.966797 -0.108826 -0.000001 0.000000 -0.000004 0.059067
    7 2.253914 -0.073982 -1.091766 -2.838592 -0.054443 -0.033335
    8 2.253929 -0.073982 1.091756 0.303009 -0.054425 3.108275
    9 0.003014 -1.393598 0.000000 0.000000 1.570729 3.088269
    10 -0.067036 -1.009804 0.000000 0.000000 1.570765 3.055267
    11 0.000000 0.622602 0.000011 0.004922 0.000000 0.000000
    12 0.000000 0.466433 -0.000004 -0.004828 0.000000 0.000000
    13 5.801979 -2.705345 -0.000013 0.000000 -1.570794 0.267526
    14 0.000000 -0.004396 2.049244 -0.014641 0.000000 0.000000
    15 5.801975 -2.705348 -2.008743 0.000000 -1.570794 0.267526
    16 5.801975 -2.705345 2.008718 0.000000 -1.570794 0.267526
    17 5.111847 0.669872 -4.276173 0.000000 -1.570794 0.277592
    18 0.000000 0.023473 2.963116 -0.008260 0.000000 0.000000
    19 0.000000 -0.000668 1.968708 -0.000133 0.000000 0.000000
    20 5.111874 0.669869 4.276145 0.000000 -1.570794 0.277592
    21 0.000000 0.023472 2.963123 -0.008260 0.000000 0.000000
    22 0.000000 -0.000668 1.968708 -0.000133 0.000000 0.000000
    23 4.253975 3.716858 -4.986283 0.000000 -1.570794 0.283935
    24 0.000000 0.070142 4.916977 -0.011116 0.000016 0.001249
    25 4.253998 3.716867 4.986264 0.000000 -1.570794 0.283935
    26 0.000000 0.070142 4.916988 -0.011116 -0.000016 -0.001248
    27 0.355644 4.587690 -0.000001 0.000000 -1.570794 0.224975
    28 0.052959 5.689240 0.000000 0.000000 -1.570794 0.233502
    29 1.982422 0.678223 1.116211 1.356069 -1.235664 3.088469
    30 4.859375 -0.223877 -1.074219 -1.406362 0.028753 -0.273659
    31 11.117188 0.000012 -0.016724 0.000000 0.001505 0.000000
    32 11.195313 -0.000038 0.000004 1.570541 -0.040953 0.006058
    33 1.983398 0.678223 -1.116211 -1.430149 1.236027 3.086006
    34 4.859375 -0.301514 1.060547 1.475675 -0.010128 -0.275228
    35 11.117188 -0.000024 0.016708 0.000000 -0.001499 0.000000
    36 11.187500 0.000055 0.000011 -1.570527 0.041243 0.006351
    37 3.982422 0.000000 -0.000003 -1.570796 0.000000 -1.570796
    38 15.929688 -0.138062 -0.376709 0.000000 0.000000 0.122992
    39 17.703125 0.000004 -0.000001 0.000000 -0.000001 -1.083475
    40 -3.982422 0.000008 0.000007 -1.570796 0.000000 -1.570796
    41 15.929688 -0.138062 0.376709 0.000000 0.000000 0.122992
    42 17.703125 -0.000014 -0.000002 0.000000 0.000000 -1.086514
    43 0.515625 -0.577637 1.623047 -1.627556 -0.398360 -0.326762
    44 1.392578 0.000005 -0.006435 -0.056360 0.006165 -0.043739
    45 1.095703 0.028366 0.091797 -0.001469 -0.073134 -0.261978
    46 3.652344 -0.333008 1.208008 0.000543 -0.003389 -0.090683
    47 1.626953 -0.038208 0.016678 0.000067 -0.006014 -0.023469
    48 0.955078 0.011246 -0.022217 0.000042 0.011763 0.011759
    49 3.750000 -0.248535 0.263428 0.000401 -0.013743 -0.066117
    50 2.037109 0.036285 -0.001233 0.000137 0.000352 0.017802
    51 1.064453 -0.030716 -0.007828 -0.000206 0.006116 -0.028784
    52 3.697266 -0.425537 -0.635254 0.000688 -0.009987 -0.114755
    53 1.745117 0.102051 0.023285 0.000228 0.006048 0.058410
    54 0.958984 -0.017502 0.036713 0.000032 -0.000826 -0.018278
    55 3.482422 -0.682617 -1.487305 0.001166 -0.001859 -0.193954
    56 1.210938 0.112000 0.058777 -0.000378 -0.012604 0.092097
    57 0.678711 0.011871 0.020630 0.000149 0.000022 0.017472
    58 0.515137 -0.578125 -1.624023 1.627454 0.398640 -0.327095
    59 1.391602 0.000002 0.006428 0.063707 -0.004535 -0.043677
    60 1.094727 0.027725 -0.090210 0.001868 0.072191 -0.262520
    61 3.652344 -0.333984 -1.209961 -0.000572 0.003682 -0.090969
    62 1.626953 -0.038208 -0.016678 -0.000067 0.006014 -0.023463
    63 0.955566 0.011238 0.022217 -0.000042 -0.011759 0.011756
    64 3.750000 -0.249634 -0.264160 -0.000422 0.014038 -0.066412
    65 2.033203 0.036255 0.001228 -0.000137 -0.000352 0.017802
    66 1.064453 -0.030701 0.007828 0.000206 -0.006115 -0.028784
    67 3.695313 -0.426758 0.635254 -0.000728 0.010281 -0.115046
    68 1.743164 0.101990 -0.023285 -0.000228 -0.006052 0.058418
    69 0.958984 -0.017517 -0.036774 -0.000032 0.000828 -0.018284
    70 3.484375 -0.684082 1.487305 -0.001219 0.002146 -0.194250
    71 1.210938 0.111938 -0.058777 0.000380 0.012605 0.092097
    72 0.678711 0.011871 -0.020645 -0.000149 -0.000022 0.017472
    73 6.417381 2.459604 -3.591180 3.137808 -1.093364 -2.859367
    74 0.022156 0.019206 2.589825 -0.030614 0.309310 -0.027717
    75 0.145278 -0.028349 2.437290 0.018930 0.166506 0.084009
    76 -0.109299 -0.002376 2.414471 -0.010479 0.000090 -0.050628
    77 6.417397 2.459610 3.591151 -0.003785 -1.093364 0.282225
    78 -0.022137 0.019204 2.589817 -0.030612 -0.309307 0.027714
    79 -0.145280 -0.028348 2.437271 0.018929 -0.166506 -0.084005
    80 0.109295 -0.002376 2.414501 -0.010480 -0.000090 0.050625
    81 1.526993 2.709389 0.406722 0.823143 -1.074315 -1.381151
    82 1.526993 2.709392 -0.406728 -2.318443 -1.074315 1.760437
end
