// Created by Crowbar 0.74
version 1
nodes
  0 "static_prop" -1
end
skeleton
  time 0
    0 0.000000 0.000000 0.000000 0.000000 0.000000 0.000000
end
triangles
  phy
    0 6.781462 -6.128324 11.973531 0.208441 -0.890600 0.404207 0 0
    0 4.510777 13.825697 13.853872 -0.123924 -0.909881 -0.395928 0 0
    0 4.510773 -6.128301 11.973531 0.174132 -0.893280 -0.414402 0 0
  phy
    0 6.781462 13.825697 13.853869 -0.194902 -0.751547 0.630231 0 0
    0 4.510777 13.825697 13.853872 -0.123924 -0.909881 -0.395928 0 0
    0 6.781462 -6.128324 11.973531 0.208441 -0.890600 0.404207 0 0
  phy
    0 6.781462 -6.128324 11.973531 0.208441 -0.890600 0.404207 0 0
    0 20.740520 -6.128343 0.251466 0.103836 -0.683573 0.722459 0 0
    0 6.781462 13.825697 13.853869 -0.194902 -0.751547 0.630231 0 0
  phy
    0 6.781462 -6.128324 11.973531 0.208441 -0.890600 0.404207 0 0
    0 11.851852 -40.443380 0.251460 0.155120 0.959781 0.234007 0 0
    0 20.740520 -6.128343 0.251466 0.103836 -0.683573 0.722459 0 0
  phy
    0 4.510773 -6.128301 11.973531 0.174132 -0.893280 -0.414402 0 0
    0 -2.006555 -40.443380 0.251460 0.371318 -0.842284 -0.390744 0 0
    0 6.781462 -6.128324 11.973531 0.208441 -0.890600 0.404207 0 0
  phy
    0 -2.006555 -40.443380 0.251460 0.371318 -0.842284 -0.390744 0 0
    0 11.851852 -40.443380 0.251460 0.155120 0.959781 0.234007 0 0
    0 6.781462 -6.128324 11.973531 0.208441 -0.890600 0.404207 0 0
  phy
    0 4.510773 -6.128301 11.973531 0.174132 -0.893280 -0.414402 0 0
    0 -18.486507 -6.128329 0.251447 0.082259 0.945262 -0.315773 0 0
    0 -2.006555 -40.443380 0.251460 0.371318 -0.842284 -0.390744 0 0
  phy
    0 4.510773 -6.128301 11.973531 0.174132 -0.893280 -0.414402 0 0
    0 4.510777 13.825697 13.853872 -0.123924 -0.909881 -0.395928 0 0
    0 -18.486507 -6.128329 0.251447 0.082259 0.945262 -0.315773 0 0
  phy
    0 20.740520 -6.128343 0.251466 0.103836 -0.683573 0.722459 0 0
    0 20.740513 13.825701 0.251463 -0.088127 0.974908 0.204421 0 0
    0 6.781462 13.825697 13.853869 -0.194902 -0.751547 0.630231 0 0
  phy
    0 6.781462 13.825697 13.853869 -0.194902 -0.751547 0.630231 0 0
    0 20.740513 13.825701 0.251463 -0.088127 0.974908 0.204421 0 0
    0 2.022029 37.291526 0.251464 -0.353487 0.902066 0.247635 0 0
  phy
    0 2.022029 37.291526 0.251464 -0.353487 0.902066 0.247635 0 0
    0 4.510777 13.825697 13.853872 -0.123924 -0.909881 -0.395928 0 0
    0 6.781462 13.825697 13.853869 -0.194902 -0.751547 0.630231 0 0
  phy
    0 -2.006555 -40.443380 0.251460 0.371318 -0.842284 -0.390744 0 0
    0 -18.486507 -6.128329 0.251447 0.082259 0.945262 -0.315773 0 0
    0 11.851852 -40.443380 0.251460 0.155120 0.959781 0.234007 0 0
  phy
    0 -18.486507 -6.128329 0.251447 0.082259 0.945262 -0.315773 0 0
    0 4.510777 13.825697 13.853872 -0.123924 -0.909881 -0.395928 0 0
    0 -18.486510 13.825701 0.251463 -0.105494 -0.813110 -0.572472 0 0
  phy
    0 -18.486507 -6.128329 0.251447 0.082259 0.945262 -0.315773 0 0
    0 -18.486510 13.825701 0.251463 -0.105494 -0.813110 -0.572472 0 0
    0 -10.485139 37.291529 0.251464 -0.628973 -0.294058 -0.719669 0 0
  phy
    0 4.510777 13.825697 13.853872 -0.123924 -0.909881 -0.395928 0 0
    0 -10.485139 37.291529 0.251464 -0.628973 -0.294058 -0.719669 0 0
    0 -18.486510 13.825701 0.251463 -0.105494 -0.813110 -0.572472 0 0
  phy
    0 20.740513 13.825701 0.251463 -0.088127 0.974908 0.204421 0 0
    0 20.740520 -6.128343 0.251466 0.103836 -0.683573 0.722459 0 0
    0 11.851852 -40.443380 0.251460 0.155120 0.959781 0.234007 0 0
  phy
    0 -18.486507 -6.128329 0.251447 0.082259 0.945262 -0.315773 0 0
    0 2.022029 37.291526 0.251464 -0.353487 0.902066 0.247635 0 0
    0 20.740513 13.825701 0.251463 -0.088127 0.974908 0.204421 0 0
  phy
    0 2.022029 37.291526 0.251464 -0.353487 0.902066 0.247635 0 0
    0 -18.486507 -6.128329 0.251447 0.082259 0.945262 -0.315773 0 0
    0 -10.485139 37.291529 0.251464 -0.628973 -0.294058 -0.719669 0 0
  phy
    0 2.022029 37.291526 0.251464 -0.353487 0.902066 0.247635 0 0
    0 -10.485139 37.291529 0.251464 -0.628973 -0.294058 -0.719669 0 0
    0 4.510777 13.825697 13.853872 -0.123924 -0.909881 -0.395928 0 0
  phy
    0 -18.486507 -6.128329 0.251447 0.082259 0.945262 -0.315773 0 0
    0 20.740513 13.825701 0.251463 -0.088127 0.974908 0.204421 0 0
    0 11.851852 -40.443380 0.251460 0.155120 0.959781 0.234007 0 0
end
