// Created by Crowbar 0.74
version 1
nodes
  0 "airliner_fuselage_secondary_3" -1
  1 "baked_fuselage_debris_secondary_249" 0
  2 "baked_fuselage_debris_secondary_250" 0
  3 "baked_fuselage_debris_secondary_251" 0
  4 "baked_fuselage_debris_secondary_252" 0
  5 "baked_fuselage_debris_secondary_253" 0
  6 "baked_fuselage_debris_secondary_254" 0
  7 "baked_fuselage_debris_secondary_255" 0
  8 "baked_fuselage_debris_secondary_256" 0
  9 "baked_fuselage_debris_secondary_257" 0
  10 "baked_fuselage_debris_secondary_258" 0
  11 "baked_fuselage_debris_secondary_259" 0
  12 "baked_fuselage_debris_secondary_260" 0
  13 "baked_fuselage_debris_secondary_261" 0
  14 "baked_fuselage_debris_secondary_262" 0
  15 "baked_fuselage_debris_secondary_263" 0
  16 "baked_fuselage_debris_secondary_264" 0
  17 "baked_fuselage_debris_secondary_265" 0
  18 "baked_fuselage_debris_secondary_266" 0
  19 "baked_fuselage_debris_secondary_267" 0
  20 "baked_fuselage_debris_secondary_268" 0
  21 "baked_fuselage_debris_secondary_269" 0
  22 "baked_fuselage_debris_secondary_270" 0
  23 "baked_fuselage_debris_secondary_271" 0
  24 "baked_fuselage_debris_secondary_272" 0
  25 "baked_fuselage_debris_secondary_273" 0
  26 "baked_fuselage_debris_secondary_274" 0
  27 "baked_fuselage_debris_secondary_275" 0
  28 "baked_fuselage_debris_secondary_276" 0
  29 "baked_fuselage_debris_secondary_277" 0
  30 "baked_fuselage_debris_secondary_278" 0
  31 "baked_fuselage_debris_secondary_279" 0
  32 "baked_fuselage_debris_secondary_280" 0
  33 "baked_fuselage_debris_secondary_281" 0
  34 "baked_fuselage_debris_secondary_282" 0
  35 "baked_fuselage_debris_secondary_283" 0
  36 "baked_fuselage_debris_secondary_284" 0
  37 "baked_fuselage_debris_secondary_285" 0
  38 "baked_fuselage_debris_secondary_286" 0
  39 "baked_fuselage_debris_secondary_287" 0
  40 "baked_fuselage_debris_secondary_288" 0
  41 "baked_fuselage_debris_secondary_289" 0
  42 "baked_fuselage_debris_secondary_290" 0
  43 "baked_fuselage_debris_secondary_291" 0
  44 "baked_fuselage_debris_secondary_292" 0
  45 "baked_fuselage_debris_secondary_293" 0
  46 "baked_fuselage_debris_secondary_294" 0
  47 "baked_fuselage_debris_secondary_295" 0
  48 "baked_fuselage_debris_secondary_296" 0
  49 "baked_fuselage_debris_secondary_297" 0
  50 "baked_fuselage_debris_secondary_298" 0
  51 "baked_fuselage_debris_secondary_299" 0
  52 "baked_fuselage_debris_secondary_300" 0
  53 "baked_fuselage_debris_secondary_301" 0
  54 "baked_fuselage_debris_secondary_302" 0
  55 "baked_fuselage_debris_secondary_303" 0
  56 "baked_fuselage_debris_secondary_304" 0
  57 "baked_fuselage_debris_secondary_305" 0
  58 "baked_fuselage_debris_secondary_306" 0
  59 "baked_fuselage_debris_secondary_307" 0
  60 "baked_fuselage_debris_secondary_308" 0
  61 "baked_fuselage_debris_secondary_309" 0
  62 "baked_fuselage_debris_secondary_310" 0
  63 "baked_fuselage_debris_secondary_311" 0
  64 "baked_fuselage_debris_secondary_312" 0
  65 "baked_fuselage_debris_secondary_313" 0
  66 "baked_fuselage_debris_secondary_314" 0
  67 "baked_fuselage_debris_secondary_315" 0
  68 "baked_fuselage_debris_secondary_316" 0
  69 "baked_fuselage_debris_secondary_317" 0
  70 "baked_fuselage_debris_secondary_318" 0
  71 "baked_fuselage_debris_secondary_319" 0
  72 "baked_fuselage_debris_secondary_320" 0
  73 "baked_fuselage_debris_secondary_321" 0
  74 "baked_fuselage_debris_secondary_322" 0
  75 "baked_fuselage_debris_secondary_323" 0
  76 "baked_fuselage_debris_secondary_324" 0
  77 "baked_fuselage_debris_secondary_325" 0
  78 "baked_fuselage_debris_secondary_326" 0
  79 "baked_fuselage_debris_secondary_327" 0
  80 "baked_fuselage_debris_secondary_328" 0
  81 "baked_fuselage_debris_secondary_329" 0
  82 "baked_fuselage_debris_secondary_330" 0
  83 "baked_fuselage_debris_secondary_331" 0
  84 "baked_fuselage_debris_secondary_332" 0
  85 "baked_fuselage_debris_secondary_333" 0
  86 "baked_fuselage_debris_secondary_334" 0
  87 "baked_fuselage_debris_secondary_335" 0
  88 "baked_fuselage_debris_secondary_336" 0
  89 "baked_fuselage_debris_secondary_337" 0
  90 "baked_fuselage_debris_secondary_338" 0
  91 "baked_fuselage_debris_secondary_339" 0
  92 "baked_fuselage_debris_secondary_340" 0
  93 "baked_fuselage_debris_secondary_341" 0
  94 "baked_fuselage_debris_secondary_342" 0
  95 "baked_fuselage_debris_secondary_343" 0
  96 "baked_fuselage_debris_secondary_344" 0
  97 "baked_fuselage_debris_secondary_345" 0
  98 "baked_fuselage_debris_secondary_346" 0
  99 "baked_fuselage_debris_secondary_347" 0
  100 "baked_fuselage_debris_secondary_348" 0
  101 "baked_fuselage_debris_secondary_349" 0
  102 "baked_fuselage_debris_secondary_350" 0
  103 "baked_fuselage_debris_secondary_351" 0
  104 "baked_fuselage_debris_secondary_352" 0
  105 "baked_fuselage_debris_secondary_353" 0
  106 "baked_fuselage_debris_secondary_354" 0
  107 "baked_fuselage_debris_secondary_355" 0
  108 "baked_fuselage_debris_secondary_356" 0
  109 "baked_fuselage_debris_secondary_357" 0
  110 "baked_fuselage_debris_secondary_358" 0
  111 "baked_fuselage_debris_secondary_359" 0
  112 "baked_fuselage_debris_secondary_360" 0
  113 "baked_fuselage_debris_secondary_361" 0
  114 "baked_fuselage_debris_secondary_362" 0
  115 "baked_fuselage_debris_secondary_363" 0
  116 "baked_fuselage_debris_secondary_364" 0
  117 "baked_fuselage_debris_secondary_365" 0
  118 "baked_fuselage_debris_secondary_366" 0
  119 "baked_fuselage_debris_secondary_367" 0
  120 "baked_fuselage_debris_secondary_368" 0
  121 "baked_fuselage_debris_secondary_369" 0
  122 "baked_fuselage_debris_secondary_370" 0
  123 "baked_fuselage_debris_secondary_371" 0
  124 "baked_fuselage_debris_secondary_372" 0
end
skeleton
  time 0
    0 2188.000000 1500.000000 1215.000000 1.570674 0.000183 -0.000183
    1 -25.852539 -70.186096 -189.303223 0.000000 0.000000 0.000000
    2 31.677246 106.146606 -211.611328 0.000000 0.000000 0.000000
    3 2.561523 70.019409 -685.527344 0.000000 0.000000 0.000000
    4 -1.942871 -27.559998 -685.968506 0.000000 0.000000 0.000000
    5 32.482422 98.369385 -643.257324 0.000000 0.000000 0.000000
    6 28.430664 103.847290 -503.229248 0.000000 0.000000 0.000000
    7 16.116211 102.201538 531.421387 0.000000 0.000000 0.000000
    8 -49.953125 0.176086 482.704102 0.000000 0.000000 0.000000
    9 -31.106445 -45.797241 637.767090 0.000000 0.000000 0.000000
    10 41.824707 -64.381653 760.119141 0.000000 0.000000 0.000000
    11 -45.124023 33.008911 378.912598 0.000000 0.000000 0.000000
    12 -46.344727 27.894165 346.854492 0.000000 0.000000 0.000000
    13 -24.187500 73.809204 237.431641 0.000000 0.000000 0.000000
    14 -21.755859 76.204224 546.916992 0.000000 0.000000 0.000000
    15 -38.755859 49.198364 497.425293 0.000000 0.000000 0.000000
    16 -47.016602 -20.205322 559.859863 0.000000 0.000000 0.000000
    17 -44.308594 -34.483398 577.306152 0.000000 0.000000 0.000000
    18 -36.629883 -29.276733 630.540527 0.000000 0.000000 0.000000
    19 -26.812012 -30.176392 672.287598 0.000000 0.000000 0.000000
    20 -9.877441 -55.512878 697.619629 0.000000 0.000000 0.000000
    21 -18.698242 -44.698486 690.160645 0.000000 0.000000 0.000000
    22 23.966797 -64.263184 748.427246 0.000000 0.000000 0.000000
    23 3.077148 -52.196655 739.260254 0.000000 0.000000 0.000000
    24 -29.781250 -44.655212 649.667969 0.000000 0.000000 0.000000
    25 11.845703 -63.655457 731.833496 0.000000 0.000000 0.000000
    26 42.041992 -107.183167 475.315918 0.000000 0.000000 0.000000
    27 -28.891602 -66.785522 72.841064 0.000000 0.000000 0.000000
    28 33.547852 -105.856506 -266.455566 0.000000 0.000000 0.000000
    29 -46.767578 19.454956 -64.726563 0.000000 0.000000 0.000000
    30 -49.824219 -3.840576 -147.656738 0.000000 0.000000 0.000000
    31 29.090332 105.419067 -119.312500 0.000000 0.000000 0.000000
    32 2.236328 96.745117 -245.470947 0.000000 0.000000 0.000000
    33 15.914551 102.418213 -337.526855 0.000000 0.000000 0.000000
    34 -1.518555 95.136597 -311.363281 0.000000 0.000000 0.000000
    35 11.254883 -97.590576 -317.470947 0.000000 0.000000 0.000000
    36 -0.111328 -87.526001 -398.616455 0.000000 0.000000 0.000000
    37 35.517578 -35.966553 -742.472168 0.000000 0.000000 0.000000
    38 43.114258 90.602173 -734.917480 0.000000 0.000000 0.000000
    39 -37.793945 44.103760 -480.173828 0.000000 0.000000 0.000000
    40 -16.632324 82.055542 -21.646973 0.000000 0.000000 0.000000
    41 -12.767090 86.332642 180.101563 0.000000 0.000000 0.000000
    42 -36.695801 53.676636 33.960449 0.000000 0.000000 0.000000
    43 -40.245117 -48.599365 462.378906 0.000000 0.000000 0.000000
    44 -37.917969 -53.792969 376.291504 0.000000 0.000000 0.000000
    45 -32.980469 61.143677 464.223145 0.000000 0.000000 0.000000
    46 1.199219 95.794556 236.062988 0.000000 0.000000 0.000000
    47 42.510254 -93.290405 674.655762 0.000000 0.000000 0.000000
    48 -25.325684 -69.882141 563.378906 0.000000 0.000000 0.000000
    49 5.808594 -79.620850 665.945801 0.000000 0.000000 0.000000
    50 -19.195313 -70.759155 619.790527 0.000000 0.000000 0.000000
    51 24.961914 -103.341248 502.730957 0.000000 0.000000 0.000000
    52 11.057617 -97.731445 515.459473 0.000000 0.000000 0.000000
    53 -0.432617 -90.919128 517.007324 0.000000 0.000000 0.000000
    54 -3.860352 -88.685059 517.479980 0.000000 0.000000 0.000000
    55 -13.327148 -81.650085 515.459473 0.000000 0.000000 0.000000
    56 -13.221680 -82.391357 453.837402 0.000000 0.000000 0.000000
    57 -10.815918 -84.283691 417.089355 0.000000 0.000000 0.000000
    58 11.002441 -98.156128 405.652832 0.000000 0.000000 0.000000
    59 23.680664 -102.977783 405.311035 0.000000 0.000000 0.000000
    60 43.182617 -107.558533 379.076660 0.000000 0.000000 0.000000
    61 -5.200684 -87.928711 295.408691 0.000000 0.000000 0.000000
    62 -28.907715 -66.790955 323.657715 0.000000 0.000000 0.000000
    63 -40.340820 -48.603760 217.363281 0.000000 0.000000 0.000000
    64 10.997559 100.852295 171.230957 0.000000 0.000000 0.000000
    65 -4.470703 93.293091 121.172852 0.000000 0.000000 0.000000
    66 -19.446289 78.987427 25.574707 0.000000 0.000000 0.000000
    67 16.078125 102.436157 59.026855 0.000000 0.000000 0.000000
    68 -3.432129 93.424927 -80.153320 0.000000 0.000000 0.000000
    69 44.926270 107.691772 1.482910 0.000000 0.000000 0.000000
    70 16.054199 102.438354 -61.597168 0.000000 0.000000 0.000000
    71 -39.910645 47.562866 -141.895508 0.000000 0.000000 0.000000
    72 -23.081055 75.107666 -73.036133 0.000000 0.000000 0.000000
    73 16.242676 102.454346 -238.689453 0.000000 0.000000 0.000000
    74 -19.335449 78.931763 -243.328125 0.000000 0.000000 0.000000
    75 -39.274414 48.163574 -216.166504 0.000000 0.000000 0.000000
    76 16.710938 102.595093 -285.401611 0.000000 0.000000 0.000000
    77 30.023926 106.237549 -292.979492 0.000000 0.000000 0.000000
    78 -39.272949 -51.086914 -150.432617 0.000000 0.000000 0.000000
    79 -46.596680 -33.624207 -162.852051 0.000000 0.000000 0.000000
    80 2.310547 -92.810486 -130.182129 0.000000 0.000000 0.000000
    81 1.395508 -92.232971 23.657715 0.000000 0.000000 0.000000
    82 -0.257324 -72.907104 -511.859863 0.000000 0.000000 0.000000
    83 -39.528809 -26.872925 -501.485107 0.000000 0.000000 0.000000
    84 -20.962891 10.565796 -662.285156 0.000000 0.000000 0.000000
    85 -9.289551 1.329346 -718.953613 0.000000 0.000000 0.000000
    86 -14.631836 35.619263 -706.666504 0.000000 0.000000 0.000000
    87 48.613281 -108.140015 -242.118652 0.000000 0.000000 0.000000
    88 29.160156 -85.661865 694.696289 0.000000 0.000000 0.000000
    89 -28.789551 68.772583 242.028809 0.000000 0.000000 0.000000
    90 -35.096191 -44.449219 610.598145 0.000000 0.000000 0.000000
    91 -44.142578 -37.392639 267.912598 0.000000 0.000000 0.000000
    92 9.211914 -93.614136 397.433105 0.000000 0.000000 0.000000
    93 -46.637695 26.501465 297.011230 0.000000 0.000000 0.000000
    94 38.361816 -106.006348 14.352539 0.000000 0.000000 0.000000
    95 31.396484 -103.678589 -116.261719 0.000000 0.000000 0.000000
    96 -48.095703 -18.316162 201.967041 0.000000 0.000000 0.000000
    97 -14.712891 -77.533813 171.910645 0.000000 0.000000 0.000000
    98 -7.231445 -86.608765 102.919434 0.000000 0.000000 0.000000
    99 -23.460938 -72.931396 -228.452148 0.000000 0.000000 0.000000
    100 -46.430664 26.420044 -245.715820 0.000000 0.000000 0.000000
    101 -34.340820 58.101929 -310.053467 0.000000 0.000000 0.000000
    102 21.227051 102.948486 139.257080 0.000000 0.000000 0.000000
    103 -28.365723 -48.442993 -493.438965 0.000000 0.000000 0.000000
    104 -33.733887 -55.605591 -381.422363 0.000000 0.000000 0.000000
    105 -7.808594 0.219177 -704.568115 0.000000 0.000000 0.000000
    106 -19.193359 77.755737 -487.479004 0.000000 0.000000 0.000000
    107 2.489258 82.895874 -645.933594 0.000000 0.000000 0.000000
    108 28.193359 103.876587 -473.786621 0.000000 0.000000 0.000000
    109 39.242188 106.995483 520.804199 0.000000 0.000000 0.000000
    110 -44.358398 -32.551025 531.719238 0.000000 0.000000 0.000000
    111 -39.169434 47.007202 446.539551 0.000000 0.000000 0.000000
    112 -16.172363 82.588013 236.985352 0.000000 0.000000 0.000000
    113 -21.603516 74.388550 518.072266 0.000000 0.000000 0.000000
    114 -46.483887 26.453735 482.702637 0.000000 0.000000 0.000000
    115 -19.391602 -75.387024 432.864746 0.000000 0.000000 0.000000
    116 -5.449707 -86.432129 323.929199 0.000000 0.000000 0.000000
    117 -22.258789 -74.440186 -261.865234 0.000000 0.000000 0.000000
    118 23.664063 -102.968750 -186.942627 0.000000 0.000000 0.000000
    119 -13.736328 -81.319458 -164.171143 0.000000 0.000000 0.000000
    120 44.752930 107.673218 -179.444336 0.000000 0.000000 0.000000
    121 32.204102 -83.159058 -527.991211 0.000000 0.000000 0.000000
    122 18.796875 83.997192 -717.106201 0.000000 0.000000 0.000000
    123 -46.643555 6.553345 -491.870850 0.000000 0.000000 0.000000
    124 39.214844 107.139648 -58.261230 0.000000 0.000000 0.000000
end
