version 1
nodes
0 "origin" -1
1 "rotation_point" 0
end
skeleton
time 0
0  0.000000 0.000000 0.000000  0.000000 -0.000000 -1.570796
1  0.000000 11.290442 -74.189888  1.570796 -0.000000 0.000000
time 1
0  0.000000 0.000000 0.000000  0.000000 -0.000000 -1.570796
1  0.000000 11.290442 -74.189888  1.560522 0.000000 -0.000000
time 2
0  0.000000 0.000000 0.000000  0.000000 -0.000000 -1.570796
1  0.000000 11.290442 -74.189888  1.530876 0.000000 -0.000000
time 3
0  0.000000 0.000000 0.000000  0.000000 -0.000000 -1.570796
1  0.000000 11.290442 -74.189888  1.483382 0.000000 -0.000000
time 4
0  0.000000 0.000000 0.000000  0.000000 -0.000000 -1.570796
1  0.000000 11.290442 -74.189888  1.419387 0.000000 -0.000000
time 5
0  0.000000 0.000000 0.000000  0.000000 -0.000000 -1.570796
1  0.000000 11.290442 -74.189888  1.340254 0.000000 -0.000000
time 6
0  0.000000 0.000000 0.000000  0.000000 -0.000000 -1.570796
1  0.000000 11.290442 -74.189888  1.247540 0.000000 -0.000000
time 7
0  0.000000 0.000000 0.000000  0.000000 -0.000000 -1.570796
1  0.000000 11.290442 -74.189888  1.143142 0.000000 -0.000000
time 8
0  0.000000 0.000000 0.000000  0.000000 -0.000000 -1.570796
1  0.000000 11.290442 -74.189888  1.029395 0.000000 -0.000000
time 9
0  0.000000 0.000000 0.000000  0.000000 -0.000000 -1.570796
1  0.000000 11.290442 -74.189888  0.909090 0.000000 -0.000000
time 10
0  0.000000 0.000000 0.000000  0.000000 -0.000000 -1.570796
1  0.000000 11.290442 -74.189888  0.785398 0.000000 -0.000000
time 11
0  0.000000 0.000000 0.000000  0.000000 -0.000000 -1.570796
1  0.000000 11.290442 -74.189888  0.661706 0.000000 -0.000000
time 12
0  0.000000 0.000000 0.000000  0.000000 -0.000000 -1.570796
1  0.000000 11.290442 -74.189888  0.541402 0.000000 -0.000000
time 13
0  0.000000 0.000000 0.000000  0.000000 -0.000000 -1.570796
1  0.000000 11.290442 -74.189888  0.427655 0.000000 -0.000000
time 14
0  0.000000 0.000000 0.000000  0.000000 -0.000000 -1.570796
1  0.000000 11.290442 -74.189888  0.323256 0.000000 -0.000000
time 15
0  0.000000 0.000000 0.000000  0.000000 -0.000000 -1.570796
1  0.000000 11.290442 -74.189888  0.230542 0.000000 -0.000000
time 16
0  0.000000 0.000000 0.000000  0.000000 -0.000000 -1.570796
1  0.000000 11.290442 -74.189888  0.151409 0.000000 -0.000000
time 17
0  0.000000 0.000000 0.000000  0.000000 -0.000000 -1.570796
1  0.000000 11.290442 -74.189888  0.087414 0.000000 -0.000000
time 18
0  0.000000 0.000000 0.000000  0.000000 -0.000000 -1.570796
1  0.000000 11.290442 -74.189888  0.039920 0.000000 -0.000000
time 19
0  0.000000 0.000000 0.000000  0.000000 -0.000000 -1.570796
1  0.000000 11.290442 -74.189888  0.010275 0.000000 -0.000000
time 20
0  0.000000 0.000000 0.000000  0.000000 -0.000000 -1.570796
1  0.000000 11.290442 -74.189888  -0.000000 0.000000 -0.000000
end
