// Created by Crowbar 0.74
version 1
nodes
  0 "airliner_primary_debris_1" -1
  1 "fuselage_debris_primary_1" 0
  2 "fuselage_debris_primary_2" 0
  3 "fuselage_debris_primary_3" 0
  4 "fuselage_debris_primary_4" 0
  5 "fuselage_debris_primary_5" 0
  6 "fuselage_debris_primary_6" 0
  7 "fuselage_debris_primary_7" 0
  8 "fuselage_debris_primary_8" 0
  9 "fuselage_debris_primary_9" 0
  10 "fuselage_debris_primary_10" 0
  11 "fuselage_debris_primary_11" 0
  12 "fuselage_debris_primary_12" 0
  13 "fuselage_debris_primary_13" 0
  14 "fuselage_debris_primary_14" 0
  15 "fuselage_debris_primary_15" 0
  16 "fuselage_debris_primary_16" 0
  17 "fuselage_debris_primary_17" 0
  18 "fuselage_debris_primary_18" 0
  19 "fuselage_debris_primary_19" 0
  20 "fuselage_debris_primary_20" 0
  21 "FireFinger_1" 0
  22 "FireFinger_2" 0
  23 "FireFinger_3" 0
  24 "FireFinger_4" 0
  25 "FireFinger_5" 0
  26 "FireFinger_6" 0
  27 "FireFinger_7" 0
  28 "FireFinger_8" 0
  29 "FireEngine_1" 0
  30 "FireEngine_2" 0
  31 "FireTail_1" 0
  32 "FireTail_2" 0
  33 "HullDebris1" 0
  34 "LESparkEmitter" 0
  35 "LWFirstImpact" 0
  36 "rubbleEmit" 0
  37 "leftEngineFire" 0
end
skeleton
  time 0
    0 -2560.000000 5376.000000 -807.500000 1.570674 0.000183 -0.000183
    1 0.000000 0.000000 0.000000 0.000000 0.000000 0.000000
    2 0.000000 0.000000 0.000000 0.000000 0.000000 0.000000
    3 0.000000 0.000000 0.000000 0.000000 0.000000 0.000000
    4 0.000000 0.000000 0.000000 0.000000 0.000000 0.000000
    5 0.000000 0.000000 0.000000 0.000000 0.000000 0.000000
    6 0.000000 0.000000 0.000000 0.000000 0.000000 0.000000
    7 0.000000 0.000000 0.000000 0.000000 0.000000 0.000000
    8 0.000000 0.000000 0.000000 0.000000 0.000000 0.000000
    9 0.000000 0.000000 0.000000 0.000000 0.000000 0.000000
    10 0.000000 0.000000 0.000000 0.000000 0.000000 0.000000
    11 0.000000 0.000000 0.000000 0.000000 0.000000 0.000000
    12 0.000000 0.000000 0.000000 0.000000 0.000000 0.000000
    13 0.000000 0.000000 0.000000 0.000000 0.000000 0.000000
    14 0.000000 0.000000 0.000000 0.000000 0.000000 0.000000
    15 0.000000 0.000000 0.000000 0.000000 0.000000 0.000000
    16 0.000000 0.000000 0.000000 0.000000 0.000000 0.000000
    17 0.000000 0.000000 0.000000 0.000000 0.000000 0.000000
    18 0.000000 0.000000 0.000000 0.000000 0.000000 0.000000
    19 0.000000 0.000000 0.000000 0.000000 0.000000 0.000000
    20 0.000000 0.000000 0.000000 0.000000 0.000000 0.000000
    21 -304.831055 -88.300537 -4.838135 0.000000 0.000000 0.000000
    22 -172.540039 -117.341492 43.250732 0.000000 0.000000 0.000000
    23 87.865234 -29.587402 -238.826660 0.000000 0.000000 0.000000
    24 -168.523438 -90.326904 146.338379 0.000000 0.000000 0.000000
    25 -216.601074 -112.879150 26.939453 0.000000 0.000000 0.000000
    26 -169.124023 -124.568909 164.841309 0.000000 0.000000 0.000000
    27 345.712891 -91.829102 115.348877 0.000000 0.000000 0.000000
    28 -35.097168 28.803101 -249.277344 0.000000 0.000000 0.000000
    29 309.106445 -122.229858 113.025879 0.000000 0.000000 0.000000
    30 -309.108887 -163.081238 141.537598 0.000000 0.000000 0.000000
    31 -21.538574 21.142822 -588.507324 0.000000 0.000000 0.000000
    32 24.437500 -95.778809 -250.036133 1.820668 -1.530418 -1.936129
    33 27.724121 -51.938232 -346.568359 0.000000 0.000000 0.000000
    34 313.477539 -190.412048 308.403809 0.000000 0.000000 0.000000
    35 903.993164 -41.082397 -255.864258 0.000000 0.000000 0.000000
    36 -14.909180 -163.566345 780.754883 -0.278760 -1.494532 -1.376215
    37 281.729492 -168.543762 250.419922 3.089176 -1.093056 -2.863012
end
