// Created by Crowbar 0.74
version 1
nodes
  0 "ValveBiped.Bip01_Pelvis" -1
  1 "ValveBiped.Bip01_L_Thigh" 0
  2 "ValveBiped.Bip01_L_Calf" 1
  3 "ValveBiped.Bip01_L_Foot" 2
  4 "ValveBiped.Bip01_L_Toe0" 3
  5 "ValveBiped.Bip01_R_Thigh" 0
  6 "ValveBiped.Bip01_R_Calf" 5
  7 "ValveBiped.Bip01_R_Foot" 6
  8 "ValveBiped.Bip01_R_Toe0" 7
  9 "ValveBiped.Bip01_Spine" 0
  10 "ValveBiped.Bip01_Spine1" 9
  11 "ValveBiped.Bip01_Spine2" 10
  12 "ValveBiped.Bip01_Spine4" 11
  13 "ValveBiped.Bip01_Neck1" 12
  14 "ValveBiped.Bip01_Head1" 13
  15 "ValveBiped.Bip01_L_Clavicle" 12
  16 "ValveBiped.Bip01_L_UpperArm" 15
  17 "ValveBiped.Bip01_L_Forearm" 16
  18 "ValveBiped.Bip01_L_Hand" 17
  19 "ValveBiped.Bip01_L_Finger2" 18
  20 "ValveBiped.Bip01_L_Finger1" 18
  21 "ValveBiped.Bip01_L_Finger0" 18
  22 "ValveBiped.Bip01_R_Clavicle" 12
  23 "ValveBiped.Bip01_R_UpperArm" 22
  24 "ValveBiped.Bip01_R_Forearm" 23
  25 "ValveBiped.Bip01_R_Hand" 24
  26 "ValveBiped.Bip01_R_Finger2" 25
  27 "ValveBiped.Bip01_R_Finger1" 25
  28 "ValveBiped.Bip01_R_Finger0" 25
  29 "ValveBiped.forward" 14
end
skeleton
  time 0
    0 0.000000 0.000000 0.000000 0.000000 0.000000 0.000000
    1 3.625659 0.000000 0.000000 -1.570796 0.019193 -1.499695
    2 17.934227 0.000000 0.000000 0.000000 0.000000 0.069368
    3 16.552130 0.000000 0.000000 -0.097071 -0.054000 -1.229014
    4 5.708390 0.000000 0.000000 -0.050374 0.037013 -0.424499
    5 -3.625659 0.000000 0.000000 -1.570796 0.019193 -1.641898
    6 17.934229 0.000000 0.000000 0.000000 0.000000 0.069368
    7 16.552132 0.000000 0.000000 0.108261 0.054000 -1.229014
    8 5.708389 0.000002 0.000000 -0.040250 -0.041620 -0.424097
    9 0.000000 3.859306 0.127612 1.570796 0.074842 1.570796
    10 4.399116 0.000000 0.000000 0.000000 0.000000 -0.180318
    11 3.698238 -0.000001 0.000000 0.000000 0.000000 0.014283
    12 5.656147 0.000000 0.000000 0.000000 0.000000 0.633643
    13 5.507969 0.000001 0.000000 3.141590 0.000000 0.170759
    14 3.999084 -0.000001 0.000000 0.000000 -0.000001 0.717035
    15 4.644871 1.703169 1.500000 0.742138 -1.202736 -2.450465
    16 5.552732 0.000002 -0.000001 -1.571971 -0.255936 -0.585989
    17 11.061707 0.000001 0.000000 0.000000 0.000000 -0.155034
    18 11.534477 0.000000 -0.000031 1.566226 0.076278 0.042191
    19 4.630783 0.044913 0.354261 0.006373 -0.023588 -0.675369
    20 4.414578 0.011157 1.290116 0.006373 -0.023588 -0.223064
    21 1.082559 -0.425824 1.212161 1.511477 -0.670014 -0.572366
    22 4.644874 1.703168 -1.500000 -0.816923 1.202736 -2.450465
    23 5.552732 0.000000 0.000000 1.637113 0.296754 -0.568206
    24 11.061707 0.000000 0.000000 0.000000 0.000000 -0.155034
    25 11.534459 -0.000001 0.000017 -1.569754 -0.076282 0.042191
    26 4.630801 0.046169 -0.354100 -0.002845 0.023588 -0.675365
    27 4.414598 0.015715 -1.290068 -0.002845 0.023588 -0.223060
    28 1.082580 -0.421553 -1.213656 -1.507687 0.671921 -0.570007
    29 2.000000 -2.999999 0.000000 -1.570796 0.000000 -1.326450
end
triangles
  phy
    0 -4.671721 4.386880 -3.779596 -0.519290 0.694323 0.498250 0 0
    0 -4.803646 -4.758090 -3.453429 -0.522072 0.640047 -0.563720 0 0
    0 -6.500039 -4.758091 0.381409 -0.676567 0.115868 -0.727208 0 0
  phy
    0 -4.803646 -4.758090 -3.453429 -0.522072 0.640047 -0.563720 0 0
    0 -4.671721 4.386880 -3.779596 -0.519290 0.694323 0.498250 0 0
    0 -0.000359 -4.758089 -4.920228 0.000000 0.996812 -0.079784 0 0
  phy
    0 4.802929 -4.758090 -3.453429 0.454355 0.377103 -0.807066 0 0
    0 -4.803646 -4.758090 -3.453429 -0.522072 0.640047 -0.563720 0 0
    0 -0.000359 -4.758089 -4.920228 0.000000 0.996812 -0.079784 0 0
  phy
    0 -4.803646 -4.758090 -3.453429 -0.522072 0.640047 -0.563720 0 0
    0 4.802929 -4.758090 -3.453429 0.454355 0.377103 -0.807066 0 0
    0 -6.500039 -4.758091 0.381409 -0.676567 0.115868 -0.727208 0 0
  phy
    0 -4.671721 4.386880 -3.779596 -0.519290 0.694323 0.498250 0 0
    0 -4.671721 5.888621 4.390556 -0.235866 -0.218347 0.946938 0 0
    0 4.671721 4.386880 -3.779596 0.289686 0.589769 0.753827 0 0
  phy
    0 -4.671721 5.888621 4.390556 -0.235866 -0.218347 0.946938 0 0
    0 4.671721 5.888621 4.390556 0.358164 -0.444990 0.820794 0 0
    0 4.671721 4.386880 -3.779596 0.289686 0.589769 0.753827 0 0
  phy
    0 4.671721 4.386880 -3.779596 0.289686 0.589769 0.753827 0 0
    0 0.000000 4.159116 -4.584373 0.000000 0.992311 0.123769 0 0
    0 -4.671721 4.386880 -3.779596 -0.519290 0.694323 0.498250 0 0
  phy
    0 4.671721 5.888621 4.390556 0.358164 -0.444990 0.820794 0 0
    0 6.917823 5.137134 1.295481 0.995505 0.001268 0.094697 0 0
    0 4.671721 4.386880 -3.779596 0.289686 0.589769 0.753827 0 0
  phy
    0 4.671721 4.386880 -3.779596 0.289686 0.589769 0.753827 0 0
    0 6.917823 5.137134 1.295481 0.995505 0.001268 0.094697 0 0
    0 4.802929 -4.758090 -3.453429 0.454355 0.377103 -0.807066 0 0
  phy
    0 4.671721 4.386880 -3.779596 0.289686 0.589769 0.753827 0 0
    0 4.802929 -4.758090 -3.453429 0.454355 0.377103 -0.807066 0 0
    0 -0.000359 -4.758089 -4.920228 0.000000 0.996812 -0.079784 0 0
  phy
    0 0.000000 4.159116 -4.584373 0.000000 0.992311 0.123769 0 0
    0 4.671721 4.386880 -3.779596 0.289686 0.589769 0.753827 0 0
    0 -0.000359 -4.758089 -4.920228 0.000000 0.996812 -0.079784 0 0
  phy
    0 -4.671721 4.386880 -3.779596 -0.519290 0.694323 0.498250 0 0
    0 0.000000 4.159116 -4.584373 0.000000 0.992311 0.123769 0 0
    0 -0.000359 -4.758089 -4.920228 0.000000 0.996812 -0.079784 0 0
  phy
    0 -4.671721 4.386880 -3.779596 -0.519290 0.694323 0.498250 0 0
    0 -6.500039 -4.758091 0.381409 -0.676567 0.115868 -0.727208 0 0
    0 -6.917794 5.137149 1.295548 -0.984540 -0.126072 0.121597 0 0
  phy
    0 -4.671721 4.386880 -3.779596 -0.519290 0.694323 0.498250 0 0
    0 -6.917794 5.137149 1.295548 -0.984540 -0.126072 0.121597 0 0
    0 -4.671721 5.888621 4.390556 -0.235866 -0.218347 0.946938 0 0
  phy
    0 -6.500039 -4.758091 0.381409 -0.676567 0.115868 -0.727208 0 0
    0 4.802929 -4.758090 -3.453429 0.454355 0.377103 -0.807066 0 0
    0 -0.000359 -4.758093 4.649419 0.000000 -0.616426 -0.787413 0 0
  phy
    0 -0.000359 -4.758093 4.649419 0.000000 -0.616426 -0.787413 0 0
    0 4.802929 -4.758090 -3.453429 0.454355 0.377103 -0.807066 0 0
    0 4.802929 -4.758092 4.010560 0.488151 -0.809891 -0.325246 0 0
  phy
    0 4.802929 -4.758092 4.010560 0.488151 -0.809891 -0.325246 0 0
    0 6.917823 5.137134 1.295481 0.995505 0.001268 0.094697 0 0
    0 4.671721 5.888621 4.390556 0.358164 -0.444990 0.820794 0 0
  phy
    0 6.499322 -4.758091 0.381409 0.977914 0.000000 -0.209008 0 0
    0 6.917823 5.137134 1.295481 0.995505 0.001268 0.094697 0 0
    0 4.802929 -4.758092 4.010560 0.488151 -0.809891 -0.325246 0 0
  phy
    0 4.671721 5.888621 4.390556 0.358164 -0.444990 0.820794 0 0
    0 0.000000 6.004907 5.347857 0.000000 -0.999986 -0.005272 0 0
    0 4.802929 -4.758092 4.010560 0.488151 -0.809891 -0.325246 0 0
  phy
    0 0.000000 6.004907 5.347857 0.000000 -0.999986 -0.005272 0 0
    0 -0.000359 -4.758093 4.649419 0.000000 -0.616426 -0.787413 0 0
    0 4.802929 -4.758092 4.010560 0.488151 -0.809891 -0.325246 0 0
  phy
    0 4.802929 -4.758092 4.010560 0.488151 -0.809891 -0.325246 0 0
    0 4.802929 -4.758090 -3.453429 0.454355 0.377103 -0.807066 0 0
    0 6.499322 -4.758091 0.381409 0.977914 0.000000 -0.209008 0 0
  phy
    0 4.802929 -4.758090 -3.453429 0.454355 0.377103 -0.807066 0 0
    0 6.917823 5.137134 1.295481 0.995505 0.001268 0.094697 0 0
    0 6.499322 -4.758091 0.381409 0.977914 0.000000 -0.209008 0 0
  phy
    0 -4.671721 5.888621 4.390556 -0.235866 -0.218347 0.946938 0 0
    0 0.000000 6.004907 5.347857 0.000000 -0.999986 -0.005272 0 0
    0 4.671721 5.888621 4.390556 0.358164 -0.444990 0.820794 0 0
  phy
    0 -4.803646 -4.758092 4.010560 -0.510511 -0.846989 -0.148282 0 0
    0 0.000000 6.004907 5.347857 0.000000 -0.999986 -0.005272 0 0
    0 -4.671721 5.888621 4.390556 -0.235866 -0.218347 0.946938 0 0
  phy
    0 -4.803646 -4.758092 4.010560 -0.510511 -0.846989 -0.148282 0 0
    0 -4.671721 5.888621 4.390556 -0.235866 -0.218347 0.946938 0 0
    0 -6.917794 5.137149 1.295548 -0.984540 -0.126072 0.121597 0 0
  phy
    0 -4.803646 -4.758092 4.010560 -0.510511 -0.846989 -0.148282 0 0
    0 -0.000359 -4.758093 4.649419 0.000000 -0.616426 -0.787413 0 0
    0 0.000000 6.004907 5.347857 0.000000 -0.999986 -0.005272 0 0
  phy
    0 -4.803646 -4.758092 4.010560 -0.510511 -0.846989 -0.148282 0 0
    0 -6.500039 -4.758091 0.381409 -0.676567 0.115868 -0.727208 0 0
    0 -0.000359 -4.758093 4.649419 0.000000 -0.616426 -0.787413 0 0
  phy
    0 -6.500039 -4.758091 0.381409 -0.676567 0.115868 -0.727208 0 0
    0 -4.803646 -4.758092 4.010560 -0.510511 -0.846989 -0.148282 0 0
    0 -6.917794 5.137149 1.295548 -0.984540 -0.126072 0.121597 0 0
  phy
    10 -5.254635 13.016247 -3.765560 0.422379 0.510957 -0.748678 0 0
    10 -4.592301 3.967018 -3.344170 -0.011756 0.516975 -0.855920 0 0
    10 -7.053886 3.012785 0.118217 -0.719535 0.625604 -0.301477 0 0
  phy
    10 -5.254635 13.016247 -3.765560 0.422379 0.510957 -0.748678 0 0
    10 -7.053886 3.012785 0.118217 -0.719535 0.625604 -0.301477 0 0
    10 -7.278883 13.969024 -0.316596 0.914943 0.403582 -0.000337 0 0
  phy
    10 5.254636 13.016247 -3.765560 0.620950 -0.440142 -0.648611 0 0
    10 0.000000 12.571003 -4.769030 0.347479 0.000000 -0.937688 0 0
    10 -5.254635 13.016247 -3.765560 0.422379 0.510957 -0.748678 0 0
  phy
    10 -5.254635 13.016247 -3.765560 0.422379 0.510957 -0.748678 0 0
    10 -7.278883 13.969024 -0.316596 0.914943 0.403582 -0.000337 0 0
    10 5.254636 13.016247 -3.765560 0.620950 -0.440142 -0.648611 0 0
  phy
    10 -4.592301 3.967018 -3.344170 -0.011756 0.516975 -0.855920 0 0
    10 -5.254635 13.016247 -3.765560 0.422379 0.510957 -0.748678 0 0
    10 0.000000 4.252659 -4.642382 -0.213396 0.000000 -0.976966 0 0
  phy
    10 -5.254635 13.016247 -3.765560 0.422379 0.510957 -0.748678 0 0
    10 0.000000 12.571003 -4.769030 0.347479 0.000000 -0.937688 0 0
    10 0.000000 4.252659 -4.642382 -0.213396 0.000000 -0.976966 0 0
  phy
    10 -4.824330 2.609483 3.796657 -0.301646 0.619420 0.724795 0 0
    10 -5.171605 14.866041 3.278789 -0.096531 0.581206 0.808011 0 0
    10 -7.053886 3.012785 0.118217 -0.719535 0.625604 -0.301477 0 0
  phy
    10 -4.824330 2.609483 3.796657 -0.301646 0.619420 0.724795 0 0
    10 0.000000 2.405938 5.653145 -0.398192 0.000000 0.917302 0 0
    10 -5.171605 14.866041 3.278789 -0.096531 0.581206 0.808011 0 0
  phy
    10 -4.824330 2.609483 3.796657 -0.301646 0.619420 0.724795 0 0
    10 -7.053886 3.012785 0.118217 -0.719535 0.625604 -0.301477 0 0
    10 0.000000 2.405938 5.653145 -0.398192 0.000000 0.917302 0 0
  phy
    10 5.171605 14.866041 3.278788 -0.096530 -0.581206 0.808011 0 0
    10 0.000000 2.405938 5.653145 -0.398192 0.000000 0.917302 0 0
    10 4.824330 2.609482 3.796657 -0.782274 -0.497018 0.375528 0 0
  phy
    10 0.000000 15.230436 4.533203 0.534932 0.000000 0.844895 0 0
    10 0.000000 2.405938 5.653145 -0.398192 0.000000 0.917302 0 0
    10 5.171605 14.866041 3.278788 -0.096530 -0.581206 0.808011 0 0
  phy
    10 4.824330 2.609482 3.796657 -0.782274 -0.497018 0.375528 0 0
    10 7.053886 3.012785 0.118217 -0.613130 -0.743849 -0.266009 0 0
    10 5.171605 14.866041 3.278788 -0.096530 -0.581206 0.808011 0 0
  phy
    10 7.053886 3.012785 0.118217 -0.613130 -0.743849 -0.266009 0 0
    10 7.278874 13.969028 -0.316580 0.872542 -0.488531 0.002968 0 0
    10 5.171605 14.866041 3.278788 -0.096530 -0.581206 0.808011 0 0
  phy
    10 5.171605 14.866041 3.278788 -0.096530 -0.581206 0.808011 0 0
    10 7.278874 13.969028 -0.316580 0.872542 -0.488531 0.002968 0 0
    10 0.000000 15.230436 4.533203 0.534932 0.000000 0.844895 0 0
  phy
    10 5.254636 13.016247 -3.765560 0.620950 -0.440142 -0.648611 0 0
    10 4.592301 3.967018 -3.344170 -0.011756 -0.516974 -0.855920 0 0
    10 0.000000 4.252659 -4.642382 -0.213396 0.000000 -0.976966 0 0
  phy
    10 0.000000 12.571003 -4.769030 0.347479 0.000000 -0.937688 0 0
    10 5.254636 13.016247 -3.765560 0.620950 -0.440142 -0.648611 0 0
    10 0.000000 4.252659 -4.642382 -0.213396 0.000000 -0.976966 0 0
  phy
    10 5.254636 13.016247 -3.765560 0.620950 -0.440142 -0.648611 0 0
    10 7.053886 3.012785 0.118217 -0.613130 -0.743849 -0.266009 0 0
    10 4.592301 3.967018 -3.344170 -0.011756 -0.516974 -0.855920 0 0
  phy
    10 5.254636 13.016247 -3.765560 0.620950 -0.440142 -0.648611 0 0
    10 7.278874 13.969028 -0.316580 0.872542 -0.488531 0.002968 0 0
    10 7.053886 3.012785 0.118217 -0.613130 -0.743849 -0.266009 0 0
  phy
    10 -7.278883 13.969024 -0.316596 0.914943 0.403582 -0.000337 0 0
    10 7.278874 13.969028 -0.316580 0.872542 -0.488531 0.002968 0 0
    10 5.254636 13.016247 -3.765560 0.620950 -0.440142 -0.648611 0 0
  phy
    10 -7.053886 3.012785 0.118217 -0.719535 0.625604 -0.301477 0 0
    10 -4.592301 3.967018 -3.344170 -0.011756 0.516975 -0.855920 0 0
    10 0.000000 4.252659 -4.642382 -0.213396 0.000000 -0.976966 0 0
  phy
    10 -7.053886 3.012785 0.118217 -0.719535 0.625604 -0.301477 0 0
    10 -5.171605 14.866041 3.278789 -0.096531 0.581206 0.808011 0 0
    10 -7.278883 13.969024 -0.316596 0.914943 0.403582 -0.000337 0 0
  phy
    10 0.000000 15.230436 4.533203 0.534932 0.000000 0.844895 0 0
    10 -7.278883 13.969024 -0.316596 0.914943 0.403582 -0.000337 0 0
    10 -5.171605 14.866041 3.278789 -0.096531 0.581206 0.808011 0 0
  phy
    10 -5.171605 14.866041 3.278789 -0.096531 0.581206 0.808011 0 0
    10 0.000000 2.405938 5.653145 -0.398192 0.000000 0.917302 0 0
    10 0.000000 15.230436 4.533203 0.534932 0.000000 0.844895 0 0
  phy
    10 4.592301 3.967018 -3.344170 -0.011756 -0.516974 -0.855920 0 0
    10 7.053886 3.012785 0.118217 -0.613130 -0.743849 -0.266009 0 0
    10 0.000000 4.252659 -4.642382 -0.213396 0.000000 -0.976966 0 0
  phy
    10 4.824330 2.609482 3.796657 -0.782274 -0.497018 0.375528 0 0
    10 -7.053886 3.012785 0.118217 -0.719535 0.625604 -0.301477 0 0
    10 7.053886 3.012785 0.118217 -0.613130 -0.743849 -0.266009 0 0
  phy
    10 -7.053886 3.012785 0.118217 -0.719535 0.625604 -0.301477 0 0
    10 4.824330 2.609482 3.796657 -0.782274 -0.497018 0.375528 0 0
    10 0.000000 2.405938 5.653145 -0.398192 0.000000 0.917302 0 0
  phy
    10 7.053886 3.012785 0.118217 -0.613130 -0.743849 -0.266009 0 0
    10 -7.053886 3.012785 0.118217 -0.719535 0.625604 -0.301477 0 0
    10 0.000000 4.252659 -4.642382 -0.213396 0.000000 -0.976966 0 0
  phy
    10 0.000000 15.230436 4.533203 0.534932 0.000000 0.844895 0 0
    10 7.278874 13.969028 -0.316580 0.872542 -0.488531 0.002968 0 0
    10 -7.278883 13.969024 -0.316596 0.914943 0.403582 -0.000337 0 0
  phy
    11 -5.246637 10.042586 3.560475 -0.368058 0.635230 0.678982 0 0
    11 0.000000 9.452978 5.130174 -0.734848 0.000000 0.678232 0 0
    11 -5.542636 17.847983 3.177361 -0.056976 0.360428 0.931045 0 0
  phy
    11 -5.542636 17.847983 3.177361 -0.056976 0.360428 0.931045 0 0
    11 0.000000 9.452978 5.130174 -0.734848 0.000000 0.678232 0 0
    11 0.000000 17.847983 3.983941 0.000276 0.000000 1.000000 0 0
  phy
    11 -5.542636 17.847983 3.177361 -0.056976 0.360428 0.931045 0 0
    11 0.000000 17.847983 3.983941 0.000276 0.000000 1.000000 0 0
    11 -3.159684 22.471783 1.968951 0.183976 0.093098 0.978512 0 0
  phy
    11 -5.246637 10.042586 3.560475 -0.368058 0.635230 0.678982 0 0
    11 -5.542636 17.847983 3.177361 -0.056976 0.360428 0.931045 0 0
    11 -7.982055 17.847984 0.540152 0.182918 0.973198 0.139378 0 0
  phy
    11 -4.734098 23.181690 1.072647 0.679904 0.362393 0.637497 0 0
    11 -7.982055 17.847984 0.540152 0.182918 0.973198 0.139378 0 0
    11 -5.542636 17.847983 3.177361 -0.056976 0.360428 0.931045 0 0
  phy
    11 -3.159684 22.471783 1.968951 0.183976 0.093098 0.978512 0 0
    11 -4.734098 23.181690 1.072647 0.679904 0.362393 0.637497 0 0
    11 -5.542636 17.847983 3.177361 -0.056976 0.360428 0.931045 0 0
  phy
    11 -3.159684 22.471783 1.968951 0.183976 0.093098 0.978512 0 0
    11 3.159684 22.471782 1.968951 0.240927 -0.082445 0.967035 0 0
    11 -4.734098 23.181690 1.072647 0.679904 0.362393 0.637497 0 0
  phy
    11 0.000000 17.847983 3.983941 0.000276 0.000000 1.000000 0 0
    11 3.159684 22.471782 1.968951 0.240927 -0.082445 0.967035 0 0
    11 -3.159684 22.471783 1.968951 0.183976 0.093098 0.978512 0 0
  phy
    11 -3.159684 24.501676 -2.600661 0.668067 0.554352 -0.496367 0 0
    11 0.000000 18.740197 -4.790413 0.424916 0.000000 -0.905233 0 0
    11 -5.823063 18.175302 -4.117789 0.277154 0.569327 -0.773985 0 0
  phy
    11 0.000000 18.740197 -4.790413 0.424916 0.000000 -0.905233 0 0
    11 -3.159684 24.501676 -2.600661 0.668067 0.554352 -0.496367 0 0
    11 0.000000 24.888448 -2.874015 0.999624 0.000000 0.027421 0 0
  phy
    11 -4.734098 23.181690 1.072647 0.679904 0.362393 0.637497 0 0
    11 0.000000 24.888448 -2.874015 0.999624 0.000000 0.027421 0 0
    11 -3.159684 24.501676 -2.600661 0.668067 0.554352 -0.496367 0 0
  phy
    11 -4.734098 23.181690 1.072647 0.679904 0.362393 0.637497 0 0
    11 -3.159684 24.501676 -2.600661 0.668067 0.554352 -0.496367 0 0
    11 -7.982055 17.847984 0.540152 0.182918 0.973198 0.139378 0 0
  phy
    11 -3.159684 24.501676 -2.600661 0.668067 0.554352 -0.496367 0 0
    11 -5.823063 18.175302 -4.117789 0.277154 0.569327 -0.773985 0 0
    11 -7.982055 17.847984 0.540152 0.182918 0.973198 0.139378 0 0
  phy
    11 -4.734098 23.181690 1.072647 0.679904 0.362393 0.637497 0 0
    11 3.159684 22.471782 1.968951 0.240927 -0.082445 0.967035 0 0
    11 4.734098 23.181690 1.072647 0.680549 -0.386304 0.622594 0 0
  phy
    11 4.734098 23.181690 1.072647 0.680549 -0.386304 0.622594 0 0
    11 0.000000 24.888448 -2.874015 0.999624 0.000000 0.027421 0 0
    11 -4.734098 23.181690 1.072647 0.679904 0.362393 0.637497 0 0
  phy
    11 3.159684 24.501676 -2.600661 0.668067 -0.554352 -0.496367 0 0
    11 0.000000 24.888448 -2.874015 0.999624 0.000000 0.027421 0 0
    11 4.734098 23.181690 1.072647 0.680549 -0.386304 0.622594 0 0
  phy
    11 4.734098 23.181690 1.072647 0.680549 -0.386304 0.622594 0 0
    11 3.159684 22.471782 1.968951 0.240927 -0.082445 0.967035 0 0
    11 5.542636 17.847983 3.177361 -0.056976 -0.360428 0.931045 0 0
  phy
    11 5.542636 17.847983 3.177361 -0.056976 -0.360428 0.931045 0 0
    11 7.982055 17.847984 0.540152 0.182919 -0.973198 0.139378 0 0
    11 4.734098 23.181690 1.072647 0.680549 -0.386304 0.622594 0 0
  phy
    11 4.734098 23.181690 1.072647 0.680549 -0.386304 0.622594 0 0
    11 7.982055 17.847984 0.540152 0.182919 -0.973198 0.139378 0 0
    11 3.159684 24.501676 -2.600661 0.668067 -0.554352 -0.496367 0 0
  phy
    11 5.542636 17.847983 3.177361 -0.056976 -0.360428 0.931045 0 0
    11 0.000000 9.452978 5.130174 -0.734848 0.000000 0.678232 0 0
    11 5.246637 10.042586 3.560475 -0.368057 -0.635230 0.678982 0 0
  phy
    11 7.269166 11.373966 0.015960 -0.743366 -0.332143 -0.580594 0 0
    11 5.246637 10.042586 3.560475 -0.368057 -0.635230 0.678982 0 0
    11 0.000000 9.452978 5.130174 -0.734848 0.000000 0.678232 0 0
  phy
    11 5.246637 10.042586 3.560475 -0.368057 -0.635230 0.678982 0 0
    11 7.982055 17.847984 0.540152 0.182919 -0.973198 0.139378 0 0
    11 5.542636 17.847983 3.177361 -0.056976 -0.360428 0.931045 0 0
  phy
    11 7.269166 11.373966 0.015960 -0.743366 -0.332143 -0.580594 0 0
    11 7.982055 17.847984 0.540152 0.182919 -0.973198 0.139378 0 0
    11 5.246637 10.042586 3.560475 -0.368057 -0.635230 0.678982 0 0
  phy
    11 -5.823063 18.175302 -4.117789 0.277154 0.569327 -0.773985 0 0
    11 -4.852855 12.680859 -3.295134 -0.191891 0.442029 -0.876235 0 0
    11 -7.269167 11.373966 0.015960 -0.743366 0.332143 -0.580593 0 0
  phy
    11 -4.852855 12.680859 -3.295134 -0.191891 0.442029 -0.876235 0 0
    11 -5.823063 18.175302 -4.117789 0.277154 0.569327 -0.773985 0 0
    11 0.000000 13.275819 -4.908690 -0.348309 0.000000 -0.937380 0 0
  phy
    11 -7.269167 11.373966 0.015960 -0.743366 0.332143 -0.580593 0 0
    11 -4.852855 12.680859 -3.295134 -0.191891 0.442029 -0.876235 0 0
    11 0.000000 13.275819 -4.908690 -0.348309 0.000000 -0.937380 0 0
  phy
    11 0.000000 18.740197 -4.790413 0.424916 0.000000 -0.905233 0 0
    11 3.159684 24.501676 -2.600661 0.668067 -0.554352 -0.496367 0 0
    11 5.823062 18.175302 -4.117789 0.277154 -0.569326 -0.773985 0 0
  phy
    11 3.159684 24.501676 -2.600661 0.668067 -0.554352 -0.496367 0 0
    11 0.000000 18.740197 -4.790413 0.424916 0.000000 -0.905233 0 0
    11 0.000000 24.888448 -2.874015 0.999624 0.000000 0.027421 0 0
  phy
    11 -5.823063 18.175302 -4.117789 0.277154 0.569327 -0.773985 0 0
    11 0.000000 18.740197 -4.790413 0.424916 0.000000 -0.905233 0 0
    11 0.000000 13.275819 -4.908690 -0.348309 0.000000 -0.937380 0 0
  phy
    11 0.000000 18.740197 -4.790413 0.424916 0.000000 -0.905233 0 0
    11 5.823062 18.175302 -4.117789 0.277154 -0.569326 -0.773985 0 0
    11 0.000000 13.275819 -4.908690 -0.348309 0.000000 -0.937380 0 0
  phy
    11 -7.269167 11.373966 0.015960 -0.743366 0.332143 -0.580593 0 0
    11 -5.246637 10.042586 3.560475 -0.368058 0.635230 0.678982 0 0
    11 -7.982055 17.847984 0.540152 0.182918 0.973198 0.139378 0 0
  phy
    11 -5.246637 10.042586 3.560475 -0.368058 0.635230 0.678982 0 0
    11 -7.269167 11.373966 0.015960 -0.743366 0.332143 -0.580593 0 0
    11 0.000000 9.452978 5.130174 -0.734848 0.000000 0.678232 0 0
  phy
    11 5.823062 18.175302 -4.117789 0.277154 -0.569326 -0.773985 0 0
    11 7.269166 11.373966 0.015960 -0.743366 -0.332143 -0.580594 0 0
    11 4.852855 12.680859 -3.295134 -0.191890 -0.442029 -0.876235 0 0
  phy
    11 5.823062 18.175302 -4.117789 0.277154 -0.569326 -0.773985 0 0
    11 4.852855 12.680859 -3.295134 -0.191890 -0.442029 -0.876235 0 0
    11 0.000000 13.275819 -4.908690 -0.348309 0.000000 -0.937380 0 0
  phy
    11 4.852855 12.680859 -3.295134 -0.191890 -0.442029 -0.876235 0 0
    11 7.269166 11.373966 0.015960 -0.743366 -0.332143 -0.580594 0 0
    11 0.000000 13.275819 -4.908690 -0.348309 0.000000 -0.937380 0 0
  phy
    11 5.542636 17.847983 3.177361 -0.056976 -0.360428 0.931045 0 0
    11 3.159684 22.471782 1.968951 0.240927 -0.082445 0.967035 0 0
    11 0.000000 17.847983 3.983941 0.000276 0.000000 1.000000 0 0
  phy
    11 0.000000 17.847983 3.983941 0.000276 0.000000 1.000000 0 0
    11 0.000000 9.452978 5.130174 -0.734848 0.000000 0.678232 0 0
    11 5.542636 17.847983 3.177361 -0.056976 -0.360428 0.931045 0 0
  phy
    11 3.159684 24.501676 -2.600661 0.668067 -0.554352 -0.496367 0 0
    11 7.982055 17.847984 0.540152 0.182919 -0.973198 0.139378 0 0
    11 5.823062 18.175302 -4.117789 0.277154 -0.569326 -0.773985 0 0
  phy
    11 -5.823063 18.175302 -4.117789 0.277154 0.569327 -0.773985 0 0
    11 -7.269167 11.373966 0.015960 -0.743366 0.332143 -0.580593 0 0
    11 -7.982055 17.847984 0.540152 0.182918 0.973198 0.139378 0 0
  phy
    11 7.269166 11.373966 0.015960 -0.743366 -0.332143 -0.580594 0 0
    11 -7.269167 11.373966 0.015960 -0.743366 0.332143 -0.580593 0 0
    11 0.000000 13.275819 -4.908690 -0.348309 0.000000 -0.937380 0 0
  phy
    11 -7.269167 11.373966 0.015960 -0.743366 0.332143 -0.580593 0 0
    11 7.269166 11.373966 0.015960 -0.743366 -0.332143 -0.580594 0 0
    11 0.000000 9.452978 5.130174 -0.734848 0.000000 0.678232 0 0
  phy
    11 5.823062 18.175302 -4.117789 0.277154 -0.569326 -0.773985 0 0
    11 7.982055 17.847984 0.540152 0.182919 -0.973198 0.139378 0 0
    11 7.269166 11.373966 0.015960 -0.743366 -0.332143 -0.580594 0 0
  phy
    22 -2.620500 23.355812 0.384395 -0.353452 0.453052 0.818423 0 0
    22 -9.004534 21.092395 0.384395 0.212144 0.087371 0.973325 0 0
    22 -8.212645 18.790614 0.384394 0.078583 0.921520 -0.380296 0 0
  phy
    22 -2.620500 23.355812 0.384395 -0.353452 0.453052 0.818423 0 0
    22 -8.212645 18.790614 0.384394 0.078583 0.921520 -0.380296 0 0
    22 -1.828611 21.054031 0.384394 -0.529014 0.355026 -0.770779 0 0
  phy
    22 -9.004534 21.092396 -3.636629 0.740016 -0.394536 0.544718 0 0
    22 -8.212645 18.790614 0.384394 0.078583 0.921520 -0.380296 0 0
    22 -9.004534 21.092395 0.384395 0.212144 0.087371 0.973325 0 0
  phy
    22 -9.004534 21.092396 -3.636629 0.740016 -0.394536 0.544718 0 0
    22 -8.212645 18.790615 -3.636630 0.175879 -0.205505 -0.962722 0 0
    22 -8.212645 18.790614 0.384394 0.078583 0.921520 -0.380296 0 0
  phy
    22 -1.828611 21.054031 0.384394 -0.529014 0.355026 -0.770779 0 0
    22 -8.212645 18.790614 0.384394 0.078583 0.921520 -0.380296 0 0
    22 -8.212645 18.790615 -3.636630 0.175879 -0.205505 -0.962722 0 0
  phy
    22 -1.828611 21.054031 0.384394 -0.529014 0.355026 -0.770779 0 0
    22 -8.212645 18.790615 -3.636630 0.175879 -0.205505 -0.962722 0 0
    22 -1.828610 21.054032 -3.636629 -0.242611 -0.349909 -0.904822 0 0
  phy
    22 -2.620500 23.355812 0.384395 -0.353452 0.453052 0.818423 0 0
    22 -2.620499 23.355814 -3.636629 0.007256 -0.750366 0.660982 0 0
    22 -9.004534 21.092395 0.384395 0.212144 0.087371 0.973325 0 0
  phy
    22 -2.620499 23.355814 -3.636629 0.007256 -0.750366 0.660982 0 0
    22 -9.004534 21.092396 -3.636629 0.740016 -0.394536 0.544718 0 0
    22 -9.004534 21.092395 0.384395 0.212144 0.087371 0.973325 0 0
  phy
    22 -2.620499 23.355814 -3.636629 0.007256 -0.750366 0.660982 0 0
    22 -2.620500 23.355812 0.384395 -0.353452 0.453052 0.818423 0 0
    22 -1.828611 21.054031 0.384394 -0.529014 0.355026 -0.770779 0 0
  phy
    22 -8.212645 18.790615 -3.636630 0.175879 -0.205505 -0.962722 0 0
    22 -2.620499 23.355814 -3.636629 0.007256 -0.750366 0.660982 0 0
    22 -1.828610 21.054032 -3.636629 -0.242611 -0.349909 -0.904822 0 0
  phy
    22 -8.212645 18.790615 -3.636630 0.175879 -0.205505 -0.962722 0 0
    22 -9.004534 21.092396 -3.636629 0.740016 -0.394536 0.544718 0 0
    22 -2.620499 23.355814 -3.636629 0.007256 -0.750366 0.660982 0 0
  phy
    22 -1.828610 21.054032 -3.636629 -0.242611 -0.349909 -0.904822 0 0
    22 -2.620499 23.355814 -3.636629 0.007256 -0.750366 0.660982 0 0
    22 -1.828611 21.054031 0.384394 -0.529014 0.355026 -0.770779 0 0
  phy
    15 9.004534 21.092395 0.384394 0.355271 -0.208393 0.911238 0 0
    15 2.620500 23.355812 0.384395 -0.525451 -0.407919 0.746662 0 0
    15 8.212646 18.790614 0.384393 -0.125155 -0.877741 -0.462500 0 0
  phy
    15 2.620500 23.355812 0.384395 -0.525451 -0.407919 0.746662 0 0
    15 1.828611 21.054031 0.384394 -0.393445 -0.366955 -0.842938 0 0
    15 8.212646 18.790614 0.384393 -0.125155 -0.877741 -0.462500 0 0
  phy
    15 8.212646 18.790614 0.384393 -0.125155 -0.877741 -0.462500 0 0
    15 8.212646 18.790615 -3.636630 0.308258 0.217897 -0.926012 0 0
    15 9.004534 21.092395 0.384394 0.355271 -0.208393 0.911238 0 0
  phy
    15 8.212646 18.790615 -3.636630 0.308258 0.217897 -0.926012 0 0
    15 8.212646 18.790614 0.384393 -0.125155 -0.877741 -0.462500 0 0
    15 1.828611 21.054031 0.384394 -0.393445 -0.366955 -0.842938 0 0
  phy
    15 9.004534 21.092395 0.384394 0.355271 -0.208393 0.911238 0 0
    15 2.620500 23.355813 -3.636629 0.150034 0.670137 0.726916 0 0
    15 2.620500 23.355812 0.384395 -0.525451 -0.407919 0.746662 0 0
  phy
    15 9.004534 21.092395 0.384394 0.355271 -0.208393 0.911238 0 0
    15 9.004535 21.092396 -3.636630 0.556708 0.496128 0.666283 0 0
    15 2.620500 23.355813 -3.636629 0.150034 0.670137 0.726916 0 0
  phy
    15 8.212646 18.790615 -3.636630 0.308258 0.217897 -0.926012 0 0
    15 9.004535 21.092396 -3.636630 0.556708 0.496128 0.666283 0 0
    15 9.004534 21.092395 0.384394 0.355271 -0.208393 0.911238 0 0
  phy
    15 1.828610 21.054032 -3.636630 -0.460460 0.459561 -0.759461 0 0
    15 2.620500 23.355812 0.384395 -0.525451 -0.407919 0.746662 0 0
    15 2.620500 23.355813 -3.636629 0.150034 0.670137 0.726916 0 0
  phy
    15 2.620500 23.355812 0.384395 -0.525451 -0.407919 0.746662 0 0
    15 1.828610 21.054032 -3.636630 -0.460460 0.459561 -0.759461 0 0
    15 1.828611 21.054031 0.384394 -0.393445 -0.366955 -0.842938 0 0
  phy
    15 8.212646 18.790615 -3.636630 0.308258 0.217897 -0.926012 0 0
    15 1.828610 21.054032 -3.636630 -0.460460 0.459561 -0.759461 0 0
    15 2.620500 23.355813 -3.636629 0.150034 0.670137 0.726916 0 0
  phy
    15 8.212646 18.790615 -3.636630 0.308258 0.217897 -0.926012 0 0
    15 2.620500 23.355813 -3.636629 0.150034 0.670137 0.726916 0 0
    15 9.004535 21.092396 -3.636630 0.556708 0.496128 0.666283 0 0
  phy
    15 1.828610 21.054032 -3.636630 -0.460460 0.459561 -0.759461 0 0
    15 8.212646 18.790615 -3.636630 0.308258 0.217897 -0.926012 0 0
    15 1.828611 21.054031 0.384394 -0.393445 -0.366955 -0.842938 0 0
  phy
    16 12.872750 10.991429 -3.485571 0.623131 0.583859 0.520400 0 0
    16 15.195685 13.010145 -0.650712 0.186977 -0.727564 -0.660068 0 0
    16 12.871428 10.992853 -0.650978 0.115033 0.891278 -0.438623 0 0
  phy
    16 12.872750 10.991429 -3.485571 0.623131 0.583859 0.520400 0 0
    16 15.196797 13.008540 -3.485305 0.346454 -0.454150 0.820803 0 0
    16 15.195685 13.010145 -0.650712 0.186977 -0.727564 -0.660068 0 0
  phy
    16 12.872750 10.991429 -3.485571 0.623131 0.583859 0.520400 0 0
    16 12.871428 10.992853 -0.650978 0.115033 0.891278 -0.438623 0 0
    16 8.315216 15.901053 -4.045890 -0.043507 0.693139 0.719490 0 0
  phy
    16 8.315216 15.901053 -4.045890 -0.043507 0.693139 0.719490 0 0
    16 15.196797 13.008540 -3.485305 0.346454 -0.454150 0.820803 0 0
    16 12.872750 10.991429 -3.485571 0.623131 0.583859 0.520400 0 0
  phy
    16 8.315216 15.901053 -4.045890 -0.043507 0.693139 0.719490 0 0
    16 12.871428 10.992853 -0.650978 0.115033 0.891278 -0.438623 0 0
    16 8.315216 15.901052 -0.410575 -0.301656 0.529805 -0.792660 0 0
  phy
    16 12.871428 10.992853 -0.650978 0.115033 0.891278 -0.438623 0 0
    16 15.195685 13.010145 -0.650712 0.186977 -0.727564 -0.660068 0 0
    16 8.315216 15.901052 -0.410575 -0.301656 0.529805 -0.792660 0 0
  phy
    16 8.315216 15.901053 -4.045890 -0.043507 0.693139 0.719490 0 0
    16 8.594360 18.373884 -2.222673 -0.792250 0.600415 0.108818 0 0
    16 9.018855 20.328673 -4.045889 -0.028232 -0.850648 0.524977 0 0
  phy
    16 8.594360 18.373884 -2.222673 -0.792250 0.600415 0.108818 0 0
    16 8.315216 15.901053 -4.045890 -0.043507 0.693139 0.719490 0 0
    16 8.315216 15.901052 -0.410575 -0.301656 0.529805 -0.792660 0 0
  phy
    16 9.018855 20.328673 -4.045889 -0.028232 -0.850648 0.524977 0 0
    16 15.196797 13.008540 -3.485305 0.346454 -0.454150 0.820803 0 0
    16 8.315216 15.901053 -4.045890 -0.043507 0.693139 0.719490 0 0
  phy
    16 9.018855 20.328673 -4.045889 -0.028232 -0.850648 0.524977 0 0
    16 8.594360 18.373884 -2.222673 -0.792250 0.600415 0.108818 0 0
    16 9.018855 20.328672 -0.410573 -0.316710 -0.611038 -0.725485 0 0
  phy
    16 8.594360 18.373884 -2.222673 -0.792250 0.600415 0.108818 0 0
    16 8.315216 15.901052 -0.410575 -0.301656 0.529805 -0.792660 0 0
    16 9.018855 20.328672 -0.410573 -0.316710 -0.611038 -0.725485 0 0
  phy
    16 15.195685 13.010145 -0.650712 0.186977 -0.727564 -0.660068 0 0
    16 15.196797 13.008540 -3.485305 0.346454 -0.454150 0.820803 0 0
    16 9.018855 20.328673 -4.045889 -0.028232 -0.850648 0.524977 0 0
  phy
    16 9.018855 20.328673 -4.045889 -0.028232 -0.850648 0.524977 0 0
    16 9.018855 20.328672 -0.410573 -0.316710 -0.611038 -0.725485 0 0
    16 15.195685 13.010145 -0.650712 0.186977 -0.727564 -0.660068 0 0
  phy
    16 8.315216 15.901052 -0.410575 -0.301656 0.529805 -0.792660 0 0
    16 15.195685 13.010145 -0.650712 0.186977 -0.727564 -0.660068 0 0
    16 9.018855 20.328672 -0.410573 -0.316710 -0.611038 -0.725485 0 0
  phy
    17 20.165039 3.342173 -0.690391 0.164065 0.704603 -0.690374 0 0
    17 15.943148 12.929268 -0.773607 -0.067049 -0.708181 -0.702840 0 0
    17 13.307361 10.689632 -0.773607 -0.238710 0.676896 -0.696297 0 0
  phy
    17 15.943148 12.929268 -0.773607 -0.067049 -0.708181 -0.702840 0 0
    17 20.165039 3.342173 -0.690391 0.164065 0.704603 -0.690374 0 0
    17 22.274771 5.134813 -0.690390 0.257876 -0.678289 -0.688058 0 0
  phy
    17 22.274771 5.134814 -3.458980 0.267832 -0.670268 0.692104 0 0
    17 15.943148 12.929269 -4.232537 -0.140122 -0.706220 0.693988 0 0
    17 15.943148 12.929268 -0.773607 -0.067049 -0.708181 -0.702840 0 0
  phy
    17 15.943148 12.929268 -0.773607 -0.067049 -0.708181 -0.702840 0 0
    17 22.274771 5.134813 -0.690390 0.257876 -0.678289 -0.688058 0 0
    17 22.274771 5.134814 -3.458980 0.267832 -0.670268 0.692104 0 0
  phy
    17 15.943148 12.929268 -0.773607 -0.067049 -0.708181 -0.702840 0 0
    17 14.543077 11.836308 -2.503362 -0.997726 -0.064807 -0.018494 0 0
    17 13.307361 10.689632 -0.773607 -0.238710 0.676896 -0.696297 0 0
  phy
    17 14.543077 11.836308 -2.503362 -0.997726 -0.064807 -0.018494 0 0
    17 15.943148 12.929268 -0.773607 -0.067049 -0.708181 -0.702840 0 0
    17 15.943148 12.929269 -4.232537 -0.140122 -0.706220 0.693988 0 0
  phy
    17 22.274771 5.134814 -3.458980 0.267832 -0.670268 0.692104 0 0
    17 20.165039 3.342173 -0.690391 0.164065 0.704603 -0.690374 0 0
    17 20.165038 3.342174 -3.458981 0.214501 0.696681 0.684562 0 0
  phy
    17 20.165038 3.342174 -3.458981 0.214501 0.696681 0.684562 0 0
    17 13.307360 10.689633 -4.232538 -0.104585 0.701922 0.704533 0 0
    17 22.274771 5.134814 -3.458980 0.267832 -0.670268 0.692104 0 0
  phy
    17 20.165038 3.342174 -3.458981 0.214501 0.696681 0.684562 0 0
    17 20.165039 3.342173 -0.690391 0.164065 0.704603 -0.690374 0 0
    17 13.307360 10.689633 -4.232538 -0.104585 0.701922 0.704533 0 0
  phy
    17 13.307361 10.689632 -0.773607 -0.238710 0.676896 -0.696297 0 0
    17 14.543077 11.836308 -2.503362 -0.997726 -0.064807 -0.018494 0 0
    17 13.307360 10.689633 -4.232538 -0.104585 0.701922 0.704533 0 0
  phy
    17 14.543077 11.836308 -2.503362 -0.997726 -0.064807 -0.018494 0 0
    17 15.943148 12.929269 -4.232537 -0.140122 -0.706220 0.693988 0 0
    17 13.307360 10.689633 -4.232538 -0.104585 0.701922 0.704533 0 0
  phy
    17 22.274771 5.134814 -3.458980 0.267832 -0.670268 0.692104 0 0
    17 22.274771 5.134813 -0.690390 0.257876 -0.678289 -0.688058 0 0
    17 20.165039 3.342173 -0.690391 0.164065 0.704603 -0.690374 0 0
  phy
    17 22.274771 5.134814 -3.458980 0.267832 -0.670268 0.692104 0 0
    17 13.307360 10.689633 -4.232538 -0.104585 0.701922 0.704533 0 0
    17 15.943148 12.929269 -4.232537 -0.140122 -0.706220 0.693988 0 0
  phy
    17 20.165039 3.342173 -0.690391 0.164065 0.704603 -0.690374 0 0
    17 13.307361 10.689632 -0.773607 -0.238710 0.676896 -0.696297 0 0
    17 13.307360 10.689633 -4.232538 -0.104585 0.701922 0.704533 0 0
  phy
    18 23.410564 -2.413780 0.109003 0.161656 -0.232133 -0.959157 0 0
    18 26.611808 -2.413780 -4.118110 0.624627 0.329411 0.708046 0 0
    18 26.611809 -2.413781 0.088889 0.365078 -0.830826 0.420054 0 0
  phy
    18 23.410564 -2.413780 0.109003 0.161656 -0.232133 -0.959157 0 0
    18 23.410564 -2.413780 -4.138222 0.135177 0.786008 -0.603257 0 0
    18 26.611808 -2.413780 -4.118110 0.624627 0.329411 0.708046 0 0
  phy
    18 20.684055 2.603242 -4.203875 -0.426973 0.368458 -0.825792 0 0
    18 23.410564 -2.413780 0.109003 0.161656 -0.232133 -0.959157 0 0
    18 20.684056 2.603242 0.174660 -0.611002 -0.702675 -0.364590 0 0
  phy
    18 23.410564 -2.413780 -4.138222 0.135177 0.786008 -0.603257 0 0
    18 23.410564 -2.413780 0.109003 0.161656 -0.232133 -0.959157 0 0
    18 20.684055 2.603242 -4.203875 -0.426973 0.368458 -0.825792 0 0
  phy
    18 26.611809 -2.413781 0.088889 0.365078 -0.830826 0.420054 0 0
    18 20.684056 2.603242 0.174660 -0.611002 -0.702675 -0.364590 0 0
    18 23.410564 -2.413780 0.109003 0.161656 -0.232133 -0.959157 0 0
  phy
    18 20.684055 2.603242 -4.203875 -0.426973 0.368458 -0.825792 0 0
    18 20.684056 2.603242 0.174660 -0.611002 -0.702675 -0.364590 0 0
    18 23.608363 4.502893 -4.203875 -0.335208 0.721492 0.605875 0 0
  phy
    18 23.608363 4.502893 -4.203875 -0.335208 0.721492 0.605875 0 0
    18 20.684056 2.603242 0.174660 -0.611002 -0.702675 -0.364590 0 0
    18 23.608364 4.502892 0.174659 0.037816 -0.382486 0.923187 0 0
  phy
    18 26.611809 -2.413781 0.088889 0.365078 -0.830826 0.420054 0 0
    18 26.611808 -2.413780 -4.118110 0.624627 0.329411 0.708046 0 0
    18 23.608364 4.502892 0.174659 0.037816 -0.382486 0.923187 0 0
  phy
    18 26.611808 -2.413780 -4.118110 0.624627 0.329411 0.708046 0 0
    18 23.608363 4.502893 -4.203875 -0.335208 0.721492 0.605875 0 0
    18 23.608364 4.502892 0.174659 0.037816 -0.382486 0.923187 0 0
  phy
    18 23.608363 4.502893 -4.203875 -0.335208 0.721492 0.605875 0 0
    18 26.611808 -2.413780 -4.118110 0.624627 0.329411 0.708046 0 0
    18 23.410564 -2.413780 -4.138222 0.135177 0.786008 -0.603257 0 0
  phy
    18 23.608363 4.502893 -4.203875 -0.335208 0.721492 0.605875 0 0
    18 23.410564 -2.413780 -4.138222 0.135177 0.786008 -0.603257 0 0
    18 20.684055 2.603242 -4.203875 -0.426973 0.368458 -0.825792 0 0
  phy
    18 23.608364 4.502892 0.174659 0.037816 -0.382486 0.923187 0 0
    18 20.684056 2.603242 0.174660 -0.611002 -0.702675 -0.364590 0 0
    18 26.611809 -2.413781 0.088889 0.365078 -0.830826 0.420054 0 0
  phy
    23 -15.509839 13.226452 -3.676347 0.359621 0.857641 0.367593 0 0
    23 -13.160966 11.187797 -0.433598 0.213078 -0.606808 -0.765756 0 0
    23 -15.509839 13.226451 -0.460491 0.161288 0.691536 -0.704105 0 0
  phy
    23 -15.509839 13.226452 -3.676347 0.359621 0.857641 0.367593 0 0
    23 -13.160966 11.187798 -3.683873 0.315992 -0.373289 0.872241 0 0
    23 -13.160966 11.187797 -0.433598 0.213078 -0.606808 -0.765756 0 0
  phy
    23 -13.160966 11.187798 -3.683873 0.315992 -0.373289 0.872241 0 0
    23 -8.403244 15.660197 -3.705523 -0.123174 -0.891483 0.435989 0 0
    23 -13.160966 11.187797 -0.433598 0.213078 -0.606808 -0.765756 0 0
  phy
    23 -8.403244 15.660197 -3.705523 -0.123174 -0.891483 0.435989 0 0
    23 -8.403244 15.660196 -0.356203 -0.356983 -0.753939 -0.551489 0 0
    23 -13.160966 11.187797 -0.433598 0.213078 -0.606808 -0.765756 0 0
  phy
    23 -13.160966 11.187797 -0.433598 0.213078 -0.606808 -0.765756 0 0
    23 -8.403244 15.660196 -0.356203 -0.356983 -0.753939 -0.551489 0 0
    23 -9.229981 19.930773 -0.356200 -0.220605 0.703605 -0.675480 0 0
  phy
    23 -15.509839 13.226451 -0.460491 0.161288 0.691536 -0.704105 0 0
    23 -13.160966 11.187797 -0.433598 0.213078 -0.606808 -0.765756 0 0
    23 -9.229981 19.930773 -0.356200 -0.220605 0.703605 -0.675480 0 0
  phy
    23 -13.160966 11.187798 -3.683873 0.315992 -0.373289 0.872241 0 0
    23 -9.229981 19.930774 -3.705521 -0.055188 0.396900 0.916201 0 0
    23 -8.403244 15.660197 -3.705523 -0.123174 -0.891483 0.435989 0 0
  phy
    23 -13.160966 11.187798 -3.683873 0.315992 -0.373289 0.872241 0 0
    23 -15.509839 13.226452 -3.676347 0.359621 0.857641 0.367593 0 0
    23 -9.229981 19.930774 -3.705521 -0.055188 0.396900 0.916201 0 0
  phy
    23 -8.817790 18.118761 -2.025741 -0.811798 -0.573193 0.111503 0 0
    23 -8.403244 15.660197 -3.705523 -0.123174 -0.891483 0.435989 0 0
    23 -9.229981 19.930774 -3.705521 -0.055188 0.396900 0.916201 0 0
  phy
    23 -8.403244 15.660197 -3.705523 -0.123174 -0.891483 0.435989 0 0
    23 -8.817790 18.118761 -2.025741 -0.811798 -0.573193 0.111503 0 0
    23 -8.403244 15.660196 -0.356203 -0.356983 -0.753939 -0.551489 0 0
  phy
    23 -8.403244 15.660196 -0.356203 -0.356983 -0.753939 -0.551489 0 0
    23 -8.817790 18.118761 -2.025741 -0.811798 -0.573193 0.111503 0 0
    23 -9.229981 19.930773 -0.356200 -0.220605 0.703605 -0.675480 0 0
  phy
    23 -8.817790 18.118761 -2.025741 -0.811798 -0.573193 0.111503 0 0
    23 -9.229981 19.930774 -3.705521 -0.055188 0.396900 0.916201 0 0
    23 -9.229981 19.930773 -0.356200 -0.220605 0.703605 -0.675480 0 0
  phy
    23 -15.509839 13.226451 -0.460491 0.161288 0.691536 -0.704105 0 0
    23 -9.229981 19.930773 -0.356200 -0.220605 0.703605 -0.675480 0 0
    23 -15.509839 13.226452 -3.676347 0.359621 0.857641 0.367593 0 0
  phy
    23 -15.509839 13.226452 -3.676347 0.359621 0.857641 0.367593 0 0
    23 -9.229981 19.930773 -0.356200 -0.220605 0.703605 -0.675480 0 0
    23 -9.229981 19.930774 -3.705521 -0.055188 0.396900 0.916201 0 0
  phy
    24 -22.323372 5.073485 -0.743402 0.277274 0.875670 -0.395375 0 0
    24 -20.313339 3.365558 -0.743403 0.078109 -0.717460 -0.692207 0 0
    24 -15.809147 12.805387 -0.746117 -0.084425 0.496443 -0.863954 0 0
  phy
    24 -15.809147 12.805387 -0.746117 -0.084425 0.496443 -0.863954 0 0
    24 -20.313339 3.365558 -0.743403 0.078109 -0.717460 -0.692207 0 0
    24 -13.459528 10.808913 -0.746118 -0.201632 -0.700937 -0.684128 0 0
  phy
    24 -20.313339 3.365559 -3.381160 0.347105 -0.672165 0.653997 0 0
    24 -13.459528 10.808914 -3.979317 -0.120421 -0.709401 0.694441 0 0
    24 -20.313339 3.365558 -0.743403 0.078109 -0.717460 -0.692207 0 0
  phy
    24 -20.313339 3.365558 -0.743403 0.078109 -0.717460 -0.692207 0 0
    24 -13.459528 10.808914 -3.979317 -0.120421 -0.709401 0.694441 0 0
    24 -13.459528 10.808913 -0.746118 -0.201632 -0.700937 -0.684128 0 0
  phy
    24 -20.313339 3.365558 -0.743403 0.078109 -0.717460 -0.692207 0 0
    24 -22.323372 5.073485 -0.743402 0.277274 0.875670 -0.395375 0 0
    24 -20.313339 3.365559 -3.381160 0.347105 -0.672165 0.653997 0 0
  phy
    24 -15.809147 12.805387 -0.746117 -0.084425 0.496443 -0.863954 0 0
    24 -14.591350 11.865161 -2.065210 -0.997726 0.064808 -0.018495 0 0
    24 -15.809146 12.805389 -3.979316 -0.080655 0.883835 0.460792 0 0
  phy
    24 -15.809146 12.805389 -3.979316 -0.080655 0.883835 0.460792 0 0
    24 -14.591350 11.865161 -2.065210 -0.997726 0.064808 -0.018495 0 0
    24 -13.459528 10.808914 -3.979317 -0.120421 -0.709401 0.694441 0 0
  phy
    24 -13.459528 10.808913 -0.746118 -0.201632 -0.700937 -0.684128 0 0
    24 -14.591350 11.865161 -2.065210 -0.997726 0.064808 -0.018495 0 0
    24 -15.809147 12.805387 -0.746117 -0.084425 0.496443 -0.863954 0 0
  phy
    24 -14.591350 11.865161 -2.065210 -0.997726 0.064808 -0.018495 0 0
    24 -13.459528 10.808913 -0.746118 -0.201632 -0.700937 -0.684128 0 0
    24 -13.459528 10.808914 -3.979317 -0.120421 -0.709401 0.694441 0 0
  phy
    24 -20.313339 3.365559 -3.381160 0.347105 -0.672165 0.653997 0 0
    24 -22.323372 5.073485 -0.743402 0.277274 0.875670 -0.395375 0 0
    24 -22.323372 5.073486 -3.381159 0.172323 0.401739 0.899395 0 0
  phy
    24 -22.323372 5.073486 -3.381159 0.172323 0.401739 0.899395 0 0
    24 -13.459528 10.808914 -3.979317 -0.120421 -0.709401 0.694441 0 0
    24 -20.313339 3.365559 -3.381160 0.347105 -0.672165 0.653997 0 0
  phy
    24 -15.809146 12.805389 -3.979316 -0.080655 0.883835 0.460792 0 0
    24 -22.323372 5.073486 -3.381159 0.172323 0.401739 0.899395 0 0
    24 -22.323372 5.073485 -0.743402 0.277274 0.875670 -0.395375 0 0
  phy
    24 -15.809146 12.805389 -3.979316 -0.080655 0.883835 0.460792 0 0
    24 -13.459528 10.808914 -3.979317 -0.120421 -0.709401 0.694441 0 0
    24 -22.323372 5.073486 -3.381159 0.172323 0.401739 0.899395 0 0
  phy
    24 -15.809147 12.805387 -0.746117 -0.084425 0.496443 -0.863954 0 0
    24 -15.809146 12.805389 -3.979316 -0.080655 0.883835 0.460792 0 0
    24 -22.323372 5.073485 -0.743402 0.277274 0.875670 -0.395375 0 0
  phy
    25 -23.632251 4.482535 -4.245796 -0.108326 -0.544308 0.831862 0 0
    25 -23.764010 -3.152762 -4.272919 0.148242 -0.519445 -0.841547 0 0
    25 -26.906520 -3.152764 -4.069126 0.507090 -0.598650 0.620063 0 0
  phy
    25 -26.906520 -3.152764 -4.069126 0.507090 -0.598650 0.620063 0 0
    25 -27.258588 -3.152766 0.239639 0.493025 0.578618 0.649713 0 0
    25 -23.632251 4.482535 -4.245796 -0.108326 -0.544308 0.831862 0 0
  phy
    25 -23.764010 -3.152762 -4.272919 0.148242 -0.519445 -0.841547 0 0
    25 -27.258588 -3.152766 0.239639 0.493025 0.578618 0.649713 0 0
    25 -26.906520 -3.152764 -4.069126 0.507090 -0.598650 0.620063 0 0
  phy
    25 -23.632251 4.482533 0.210783 -0.146793 0.605615 0.782101 0 0
    25 -20.648533 2.562387 0.211246 -0.498571 0.573847 -0.649713 0 0
    25 -23.632251 4.482535 -4.245796 -0.108326 -0.544308 0.831862 0 0
  phy
    25 -23.632251 4.482535 -4.245796 -0.108326 -0.544308 0.831862 0 0
    25 -20.648533 2.562387 0.211246 -0.498571 0.573847 -0.649713 0 0
    25 -20.648533 2.562389 -4.245733 -0.506360 -0.573844 -0.643664 0 0
  phy
    25 -20.648533 2.562389 -4.245733 -0.506360 -0.573844 -0.643664 0 0
    25 -23.764010 -3.152762 -4.272919 0.148242 -0.519445 -0.841547 0 0
    25 -23.632251 4.482535 -4.245796 -0.108326 -0.544308 0.831862 0 0
  phy
    25 -23.764010 -3.152762 -4.272919 0.148242 -0.519445 -0.841547 0 0
    25 -20.648533 2.562389 -4.245733 -0.506360 -0.573844 -0.643664 0 0
    25 -20.648533 2.562387 0.211246 -0.498571 0.573847 -0.649713 0 0
  phy
    25 -24.116076 -3.152764 0.035844 0.134314 0.453320 -0.881170 0 0
    25 -27.258588 -3.152766 0.239639 0.493025 0.578618 0.649713 0 0
    25 -23.764010 -3.152762 -4.272919 0.148242 -0.519445 -0.841547 0 0
  phy
    25 -24.116076 -3.152764 0.035844 0.134314 0.453320 -0.881170 0 0
    25 -23.764010 -3.152762 -4.272919 0.148242 -0.519445 -0.841547 0 0
    25 -20.648533 2.562387 0.211246 -0.498571 0.573847 -0.649713 0 0
  phy
    25 -27.258588 -3.152766 0.239639 0.493025 0.578618 0.649713 0 0
    25 -24.116076 -3.152764 0.035844 0.134314 0.453320 -0.881170 0 0
    25 -20.648533 2.562387 0.211246 -0.498571 0.573847 -0.649713 0 0
  phy
    25 -23.632251 4.482535 -4.245796 -0.108326 -0.544308 0.831862 0 0
    25 -27.258588 -3.152766 0.239639 0.493025 0.578618 0.649713 0 0
    25 -23.632251 4.482533 0.210783 -0.146793 0.605615 0.782101 0 0
  phy
    25 -23.632251 4.482533 0.210783 -0.146793 0.605615 0.782101 0 0
    25 -27.258588 -3.152766 0.239639 0.493025 0.578618 0.649713 0 0
    25 -20.648533 2.562387 0.211246 -0.498571 0.573847 -0.649713 0 0
  phy
    5 -0.708443 -3.919219 -3.903096 -0.091221 -0.549609 0.830427 0 0
    5 -0.708443 -3.919221 3.195284 -0.317799 -0.874494 -0.366420 0 0
    5 -2.834784 -16.989699 -2.538386 0.269102 -0.898992 0.345539 0 0
  phy
    5 -0.708443 -3.919221 3.195284 -0.317799 -0.874494 -0.366420 0 0
    5 -2.883443 -17.288804 3.065967 0.321795 -0.412391 -0.852280 0 0
    5 -2.834784 -16.989699 -2.538386 0.269102 -0.898992 0.345539 0 0
  phy
    5 -7.705910 -16.614455 -2.538386 0.369355 0.456997 0.809154 0 0
    5 -0.708443 -3.919219 -3.903096 -0.091221 -0.549609 0.830427 0 0
    5 -2.834784 -16.989699 -2.538386 0.269102 -0.898992 0.345539 0 0
  phy
    5 -2.834784 -16.989699 -2.538386 0.269102 -0.898992 0.345539 0 0
    5 -2.883443 -17.288804 3.065967 0.321795 -0.412391 -0.852280 0 0
    5 -7.705910 -16.614455 -2.538386 0.369355 0.456997 0.809154 0 0
  phy
    5 -7.705910 -16.614455 -2.538386 0.369355 0.456997 0.809154 0 0
    5 -2.883443 -17.288804 3.065967 0.321795 -0.412391 -0.852280 0 0
    5 -7.727747 -16.919101 3.130254 0.131453 0.926710 -0.352035 0 0
  phy
    5 -7.705910 -16.614455 -2.538386 0.369355 0.456997 0.809154 0 0
    5 -7.727747 -16.919101 3.130254 0.131453 0.926710 -0.352035 0 0
    5 -6.702071 -1.302787 -3.848652 -0.364706 0.812130 0.455449 0 0
  phy
    5 -7.705910 -16.614455 -2.538386 0.369355 0.456997 0.809154 0 0
    5 -6.702071 -1.302787 -3.848652 -0.364706 0.812130 0.455449 0 0
    5 -0.708443 -3.919219 -3.903096 -0.091221 -0.549609 0.830427 0 0
  phy
    5 -6.702071 -1.302787 -3.848652 -0.364706 0.812130 0.455449 0 0
    5 -7.727747 -16.919101 3.130254 0.131453 0.926710 -0.352035 0 0
    5 -6.702071 -1.302789 3.300054 -0.233571 0.490711 -0.839433 0 0
  phy
    5 -7.727747 -16.919101 3.130254 0.131453 0.926710 -0.352035 0 0
    5 -2.883443 -17.288804 3.065967 0.321795 -0.412391 -0.852280 0 0
    5 -6.702071 -1.302789 3.300054 -0.233571 0.490711 -0.839433 0 0
  phy
    5 -0.708443 -3.919219 -3.903096 -0.091221 -0.549609 0.830427 0 0
    5 -6.702071 -1.302787 -3.848652 -0.364706 0.812130 0.455449 0 0
    5 -0.708443 -3.919221 3.195284 -0.317799 -0.874494 -0.366420 0 0
  phy
    5 -0.708443 -3.919221 3.195284 -0.317799 -0.874494 -0.366420 0 0
    5 -6.702071 -1.302787 -3.848652 -0.364706 0.812130 0.455449 0 0
    5 -6.702071 -1.302789 3.300054 -0.233571 0.490711 -0.839433 0 0
  phy
    5 -2.883443 -17.288804 3.065967 0.321795 -0.412391 -0.852280 0 0
    5 -0.708443 -3.919221 3.195284 -0.317799 -0.874494 -0.366420 0 0
    5 -6.702071 -1.302789 3.300054 -0.233571 0.490711 -0.839433 0 0
  phy
    6 -7.800556 -37.628420 -4.644825 0.113803 0.634820 0.764233 0 0
    6 -2.995873 -17.206444 -2.566473 -0.146519 -0.832594 0.534153 0 0
    6 -5.044884 -38.000902 -4.660762 0.321059 -0.862097 0.392059 0 0
  phy
    6 -7.800556 -37.628420 -4.644825 0.113803 0.634820 0.764233 0 0
    6 -7.601122 -16.850418 -2.566473 -0.073271 0.904860 0.419357 0 0
    6 -2.995873 -17.206444 -2.566473 -0.146519 -0.832594 0.534153 0 0
  phy
    6 -7.601122 -16.850418 -2.566473 -0.073271 0.904860 0.419357 0 0
    6 -7.800556 -37.628420 -4.644825 0.113803 0.634820 0.764233 0 0
    6 -8.945741 -37.628174 2.357819 0.198332 0.943730 -0.264649 0 0
  phy
    6 -7.800556 -37.628420 -4.644825 0.113803 0.634820 0.764233 0 0
    6 -5.044884 -38.000902 -4.660762 0.321059 -0.862097 0.392059 0 0
    6 -8.945741 -37.628174 2.357819 0.198332 0.943730 -0.264649 0 0
  phy
    6 -3.022157 -17.544659 3.013321 -0.183264 -0.760901 -0.622450 0 0
    6 -6.985691 -17.190714 3.014836 -0.999423 -0.011173 0.032067 0 0
    6 -7.625482 -17.141252 3.014836 -0.060991 0.522654 -0.850360 0 0
  phy
    6 -3.022157 -17.544659 3.013321 -0.183264 -0.760901 -0.622450 0 0
    6 -7.625482 -17.141252 3.014836 -0.060991 0.522654 -0.850360 0 0
    6 -4.460323 -38.001252 2.357819 0.077571 -0.823233 -0.562379 0 0
  phy
    6 -7.625482 -17.141252 3.014836 -0.060991 0.522654 -0.850360 0 0
    6 -6.985691 -17.190714 3.014836 -0.999423 -0.011173 0.032067 0 0
    6 -7.601122 -16.850418 -2.566473 -0.073271 0.904860 0.419357 0 0
  phy
    6 -7.601122 -16.850418 -2.566473 -0.073271 0.904860 0.419357 0 0
    6 -6.985691 -17.190714 3.014836 -0.999423 -0.011173 0.032067 0 0
    6 -2.995873 -17.206444 -2.566473 -0.146519 -0.832594 0.534153 0 0
  phy
    6 -2.995873 -17.206444 -2.566473 -0.146519 -0.832594 0.534153 0 0
    6 -6.985691 -17.190714 3.014836 -0.999423 -0.011173 0.032067 0 0
    6 -3.022157 -17.544659 3.013321 -0.183264 -0.760901 -0.622450 0 0
  phy
    6 -7.601122 -16.850418 -2.566473 -0.073271 0.904860 0.419357 0 0
    6 -8.945741 -37.628174 2.357819 0.198332 0.943730 -0.264649 0 0
    6 -7.625482 -17.141252 3.014836 -0.060991 0.522654 -0.850360 0 0
  phy
    6 -2.995873 -17.206444 -2.566473 -0.146519 -0.832594 0.534153 0 0
    6 -3.022157 -17.544659 3.013321 -0.183264 -0.760901 -0.622450 0 0
    6 -4.460323 -38.001252 2.357819 0.077571 -0.823233 -0.562379 0 0
  phy
    6 -4.460323 -38.001252 2.357819 0.077571 -0.823233 -0.562379 0 0
    6 -5.044884 -38.000902 -4.660762 0.321059 -0.862097 0.392059 0 0
    6 -2.995873 -17.206444 -2.566473 -0.146519 -0.832594 0.534153 0 0
  phy
    6 -8.945741 -37.628174 2.357819 0.198332 0.943730 -0.264649 0 0
    6 -5.044884 -38.000902 -4.660762 0.321059 -0.862097 0.392059 0 0
    6 -4.460323 -38.001252 2.357819 0.077571 -0.823233 -0.562379 0 0
  phy
    6 -8.945741 -37.628174 2.357819 0.198332 0.943730 -0.264649 0 0
    6 -4.460323 -38.001252 2.357819 0.077571 -0.823233 -0.562379 0 0
    6 -7.625482 -17.141252 3.014836 -0.060991 0.522654 -0.850360 0 0
  phy
    1 0.692122 -3.878352 -3.903096 -0.168353 0.796988 0.580058 0 0
    1 6.537218 -1.347411 -4.453963 -0.354308 -0.438180 0.826114 0 0
    1 2.772069 -16.974873 -2.496894 0.357562 0.692007 0.627117 0 0
  phy
    1 0.692122 -3.878352 -3.903096 -0.168353 0.796988 0.580058 0 0
    1 2.772069 -16.974873 -2.496894 0.357562 0.692007 0.627117 0 0
    1 0.692122 -3.878354 3.195284 -0.283216 0.756452 -0.589550 0 0
  phy
    1 6.537218 -1.347411 -4.453963 -0.354308 -0.438180 0.826114 0 0
    1 0.692122 -3.878352 -3.903096 -0.168353 0.796988 0.580058 0 0
    1 0.692122 -3.878354 3.195284 -0.283216 0.756452 -0.589550 0 0
  phy
    1 6.537218 -1.347411 -4.453963 -0.354308 -0.438180 0.826114 0 0
    1 6.537218 -1.347413 3.300976 -0.215485 -0.875998 -0.431501 0 0
    1 7.582236 -16.669244 -2.498440 0.172416 -0.926127 0.335502 0 0
  phy
    1 7.582236 -16.669244 -2.498440 0.172416 -0.926127 0.335502 0 0
    1 6.537218 -1.347413 3.300976 -0.215485 -0.875998 -0.431501 0 0
    1 7.602718 -16.969554 3.088185 0.283763 -0.457207 -0.842876 0 0
  phy
    1 2.772069 -16.974873 -2.496894 0.357562 0.692007 0.627117 0 0
    1 6.537218 -1.347411 -4.453963 -0.354308 -0.438180 0.826114 0 0
    1 7.582236 -16.669244 -2.498440 0.172416 -0.926127 0.335502 0 0
  phy
    1 7.582236 -16.669244 -2.498440 0.172416 -0.926127 0.335502 0 0
    1 7.602718 -16.969554 3.088185 0.283763 -0.457207 -0.842876 0 0
    1 2.772069 -16.974873 -2.496894 0.357562 0.692007 0.627117 0 0
  phy
    1 2.772069 -16.974873 -2.496894 0.357562 0.692007 0.627117 0 0
    1 2.818960 -17.270132 3.027234 0.312545 0.725842 -0.612755 0 0
    1 0.692122 -3.878354 3.195284 -0.283216 0.756452 -0.589550 0 0
  phy
    1 2.772069 -16.974873 -2.496894 0.357562 0.692007 0.627117 0 0
    1 7.602718 -16.969554 3.088185 0.283763 -0.457207 -0.842876 0 0
    1 2.818960 -17.270132 3.027234 0.312545 0.725842 -0.612755 0 0
  phy
    1 0.692122 -3.878354 3.195284 -0.283216 0.756452 -0.589550 0 0
    1 2.818960 -17.270132 3.027234 0.312545 0.725842 -0.612755 0 0
    1 7.602718 -16.969554 3.088185 0.283763 -0.457207 -0.842876 0 0
  phy
    1 6.537218 -1.347411 -4.453963 -0.354308 -0.438180 0.826114 0 0
    1 0.692122 -3.878354 3.195284 -0.283216 0.756452 -0.589550 0 0
    1 6.537218 -1.347413 3.300976 -0.215485 -0.875998 -0.431501 0 0
  phy
    1 0.692122 -3.878354 3.195284 -0.283216 0.756452 -0.589550 0 0
    1 7.602718 -16.969554 3.088185 0.283763 -0.457207 -0.842876 0 0
    1 6.537218 -1.347413 3.300976 -0.215485 -0.875998 -0.431501 0 0
  phy
    2 7.475800 -16.900482 -2.526131 -0.066773 -0.830044 0.553686 0 0
    2 8.667778 -37.695139 2.357818 0.191000 -0.949936 -0.247267 0 0
    2 7.751056 -37.695339 -4.644825 0.160723 -0.878957 0.449002 0 0
  phy
    2 7.751056 -37.695339 -4.644825 0.160723 -0.878957 0.449002 0 0
    2 4.991186 -37.998164 -4.657729 0.225088 0.666078 0.711109 0 0
    2 7.475800 -16.900482 -2.526131 -0.066773 -0.830044 0.553686 0 0
  phy
    2 8.667778 -37.695139 2.357818 0.191000 -0.949936 -0.247267 0 0
    2 4.991186 -37.998164 -4.657729 0.225088 0.666078 0.711109 0 0
    2 7.751056 -37.695339 -4.644825 0.160723 -0.878957 0.449002 0 0
  phy
    2 8.667778 -37.695139 2.357818 0.191000 -0.949936 -0.247267 0 0
    2 7.495670 -17.187547 2.976733 -0.050388 -0.765587 -0.641356 0 0
    2 4.685806 -37.998268 2.357819 0.073930 0.831496 -0.550590 0 0
  phy
    2 4.685806 -37.998268 2.357819 0.073930 0.831496 -0.550590 0 0
    2 7.495670 -17.187547 2.976733 -0.050388 -0.765587 -0.641356 0 0
    2 6.864488 -17.227813 2.976733 -0.518108 -0.000859 -0.855315 0 0
  phy
    2 7.495670 -17.187547 2.976733 -0.050388 -0.765587 -0.641356 0 0
    2 8.667778 -37.695139 2.357818 0.191000 -0.949936 -0.247267 0 0
    2 7.475800 -16.900482 -2.526131 -0.066773 -0.830044 0.553686 0 0
  phy
    2 7.495670 -17.187547 2.976733 -0.050388 -0.765587 -0.641356 0 0
    2 7.475800 -16.900482 -2.526131 -0.066773 -0.830044 0.553686 0 0
    2 6.864488 -17.227813 2.976733 -0.518108 -0.000859 -0.855315 0 0
  phy
    2 7.475800 -16.900482 -2.526131 -0.066773 -0.830044 0.553686 0 0
    2 4.991186 -37.998164 -4.657729 0.225088 0.666078 0.711109 0 0
    2 2.930893 -17.190421 -2.526131 -0.150313 0.918739 0.365136 0 0
  phy
    2 7.475800 -16.900482 -2.526131 -0.066773 -0.830044 0.553686 0 0
    2 2.930893 -17.190421 -2.526131 -0.150313 0.918739 0.365136 0 0
    2 6.864488 -17.227813 2.976733 -0.518108 -0.000859 -0.855315 0 0
  phy
    2 4.685806 -37.998268 2.357819 0.073930 0.831496 -0.550590 0 0
    2 4.991186 -37.998164 -4.657729 0.225088 0.666078 0.711109 0 0
    2 8.667778 -37.695139 2.357818 0.191000 -0.949936 -0.247267 0 0
  phy
    2 2.930893 -17.190421 -2.526131 -0.150313 0.918739 0.365136 0 0
    2 4.685806 -37.998268 2.357819 0.073930 0.831496 -0.550590 0 0
    2 2.952323 -17.524209 2.975328 -0.176142 0.804566 -0.567140 0 0
  phy
    2 4.685806 -37.998268 2.357819 0.073930 0.831496 -0.550590 0 0
    2 2.930893 -17.190421 -2.526131 -0.150313 0.918739 0.365136 0 0
    2 4.991186 -37.998164 -4.657729 0.225088 0.666078 0.711109 0 0
  phy
    2 2.930893 -17.190421 -2.526131 -0.150313 0.918739 0.365136 0 0
    2 2.952323 -17.524209 2.975328 -0.176142 0.804566 -0.567140 0 0
    2 6.864488 -17.227813 2.976733 -0.518108 -0.000859 -0.855315 0 0
  phy
    2 2.952323 -17.524209 2.975328 -0.176142 0.804566 -0.567140 0 0
    2 4.685806 -37.998268 2.357819 0.073930 0.831496 -0.550590 0 0
    2 6.864488 -17.227813 2.976733 -0.518108 -0.000859 -0.855315 0 0
  phy
    14 -2.133810 26.532871 -1.193320 -0.049612 -0.728008 0.683772 0 0
    14 -0.006270 26.756642 -2.435161 -0.074419 -0.000002 0.997227 0 0
    14 -1.435265 24.884041 -0.851438 -0.423099 -0.472791 0.772953 0 0
  phy
    14 -1.435265 24.884041 -0.851438 -0.423099 -0.472791 0.772953 0 0
    14 -0.006270 26.756642 -2.435161 -0.074419 -0.000002 0.997227 0 0
    14 -0.008073 25.028806 -1.477050 -0.881551 0.000000 0.472090 0 0
  phy
    14 -1.435265 24.884041 -0.851438 -0.423099 -0.472791 0.772953 0 0
    14 -2.026428 24.541150 0.630347 -0.770050 -0.553367 0.317502 0 0
    14 -2.133810 26.532871 -1.193320 -0.049612 -0.728008 0.683772 0 0
  phy
    14 -1.435265 24.884041 -0.851438 -0.423099 -0.472791 0.772953 0 0
    14 -0.008073 25.028806 -1.477050 -0.881551 0.000000 0.472090 0 0
    14 -2.026428 24.541150 0.630347 -0.770050 -0.553367 0.317502 0 0
  phy
    14 -1.047167 33.543414 0.916872 0.933875 -0.324677 0.149877 0 0
    14 -1.478455 33.373736 2.142607 0.803447 -0.567241 -0.180860 0 0
    14 1.035273 33.543414 0.916872 0.974111 0.225956 0.007191 0 0
  phy
    14 1.035273 33.543414 0.916872 0.974111 0.225956 0.007191 0 0
    14 -0.005947 33.613697 0.409157 0.972622 -0.000001 0.232394 0 0
    14 -1.047167 33.543414 0.916872 0.933875 -0.324677 0.149877 0 0
  phy
    14 -0.005947 31.974545 -2.921102 0.440812 -0.000002 0.897600 0 0
    14 -2.603386 31.833744 -1.324847 0.283331 -0.884830 0.369864 0 0
    14 -1.047167 33.543414 0.916872 0.933875 -0.324677 0.149877 0 0
  phy
    14 -1.047167 33.543414 0.916872 0.933875 -0.324677 0.149877 0 0
    14 -0.005947 33.613697 0.409157 0.972622 -0.000001 0.232394 0 0
    14 -0.005947 31.974545 -2.921102 0.440812 -0.000002 0.897600 0 0
  phy
    14 -1.047167 33.543414 0.916872 0.933875 -0.324677 0.149877 0 0
    14 -2.603386 31.833744 -1.324847 0.283331 -0.884830 0.369864 0 0
    14 -1.478455 33.373736 2.142607 0.803447 -0.567241 -0.180860 0 0
  phy
    14 -2.133810 26.532871 -1.193320 -0.049612 -0.728008 0.683772 0 0
    14 -2.603386 31.833744 -1.324847 0.283331 -0.884830 0.369864 0 0
    14 -0.005947 31.974545 -2.921102 0.440812 -0.000002 0.897600 0 0
  phy
    14 -0.005947 31.974545 -2.921102 0.440812 -0.000002 0.897600 0 0
    14 -0.006270 26.756642 -2.435161 -0.074419 -0.000002 0.997227 0 0
    14 -2.133810 26.532871 -1.193320 -0.049612 -0.728008 0.683772 0 0
  phy
    14 -2.026428 24.541150 0.630347 -0.770050 -0.553367 0.317502 0 0
    14 -3.015066 25.995028 1.791437 -0.179394 -0.983409 -0.026929 0 0
    14 -2.133810 26.532871 -1.193320 -0.049612 -0.728008 0.683772 0 0
  phy
    14 -2.133810 26.532871 -1.193320 -0.049612 -0.728008 0.683772 0 0
    14 -3.015066 25.995028 1.791437 -0.179394 -0.983409 -0.026929 0 0
    14 -2.603386 31.833744 -1.324847 0.283331 -0.884830 0.369864 0 0
  phy
    14 -0.008073 25.028806 -1.477050 -0.881551 0.000000 0.472090 0 0
    14 1.419118 24.884037 -0.851436 -0.423823 0.472436 0.772773 0 0
    14 2.010281 24.541150 0.630344 -0.770332 0.552874 0.317676 0 0
  phy
    14 -0.008073 25.028806 -1.477050 -0.881551 0.000000 0.472090 0 0
    14 2.010281 24.541150 0.630344 -0.770332 0.552874 0.317676 0 0
    14 0.804086 23.681818 4.343935 -0.910224 0.404321 0.089540 0 0
  phy
    14 -0.008073 25.028806 -1.477050 -0.881551 0.000000 0.472090 0 0
    14 0.804086 23.681818 4.343935 -0.910224 0.404321 0.089540 0 0
    14 -0.818996 23.681818 4.343935 -0.929307 -0.369096 -0.012488 0 0
  phy
    14 -2.026428 24.541150 0.630347 -0.770050 -0.553367 0.317502 0 0
    14 -0.008073 25.028806 -1.477050 -0.881551 0.000000 0.472090 0 0
    14 -0.818996 23.681818 4.343935 -0.929307 -0.369096 -0.012488 0 0
  phy
    14 -0.008073 25.028806 -1.477050 -0.881551 0.000000 0.472090 0 0
    14 -0.006270 26.756642 -2.435161 -0.074419 -0.000002 0.997227 0 0
    14 1.419118 24.884037 -0.851436 -0.423823 0.472436 0.772773 0 0
  phy
    14 1.035273 33.204057 3.368342 0.745532 0.377789 -0.549051 0 0
    14 1.466562 33.373735 2.142607 0.697090 0.704246 -0.134544 0 0
    14 1.035273 33.543414 0.916872 0.974111 0.225956 0.007191 0 0
  phy
    14 1.035273 33.543414 0.916872 0.974111 0.225956 0.007191 0 0
    14 -1.047167 33.204058 3.368342 0.760224 -0.258708 -0.595927 0 0
    14 1.035273 33.204057 3.368342 0.745532 0.377789 -0.549051 0 0
  phy
    14 1.035273 33.204057 3.368342 0.745532 0.377789 -0.549051 0 0
    14 3.046662 31.493807 2.342969 0.093542 0.954789 -0.282183 0 0
    14 1.466562 33.373735 2.142607 0.697090 0.704246 -0.134544 0 0
  phy
    14 3.046662 31.493807 2.342969 0.093542 0.954789 -0.282183 0 0
    14 1.035273 33.204057 3.368342 0.745532 0.377789 -0.549051 0 0
    14 1.363002 31.178270 5.807445 0.108561 0.433109 -0.894780 0 0
  phy
    14 1.035273 33.204057 3.368342 0.745532 0.377789 -0.549051 0 0
    14 -1.047167 33.204058 3.368342 0.760224 -0.258708 -0.595927 0 0
    14 1.363002 31.178270 5.807445 0.108561 0.433109 -0.894780 0 0
  phy
    14 1.035273 33.543414 0.916872 0.974111 0.225956 0.007191 0 0
    14 2.591492 31.833744 -1.324847 0.283257 0.884841 0.369896 0 0
    14 -0.005947 31.974545 -2.921102 0.440812 -0.000002 0.897600 0 0
  phy
    14 -0.005947 31.974545 -2.921102 0.440812 -0.000002 0.897600 0 0
    14 -0.005947 33.613697 0.409157 0.972622 -0.000001 0.232394 0 0
    14 1.035273 33.543414 0.916872 0.974111 0.225956 0.007191 0 0
  phy
    14 1.466562 33.373735 2.142607 0.697090 0.704246 -0.134544 0 0
    14 2.591492 31.833744 -1.324847 0.283257 0.884841 0.369896 0 0
    14 1.035273 33.543414 0.916872 0.974111 0.225956 0.007191 0 0
  phy
    14 -1.478455 33.373736 2.142607 0.803447 -0.567241 -0.180860 0 0
    14 -1.047167 33.204058 3.368342 0.760224 -0.258708 -0.595927 0 0
    14 1.035273 33.543414 0.916872 0.974111 0.225956 0.007191 0 0
  phy
    14 0.804086 23.681818 4.343935 -0.910224 0.404321 0.089540 0 0
    14 1.203347 25.308973 5.598676 -0.270516 0.737845 -0.618390 0 0
    14 -0.818996 23.681818 4.343935 -0.929307 -0.369096 -0.012488 0 0
  phy
    14 0.804086 23.681818 4.343935 -0.910224 0.404321 0.089540 0 0
    14 2.010281 24.541150 0.630344 -0.770332 0.552874 0.317676 0 0
    14 3.002525 25.995028 1.791437 -0.179849 0.983330 -0.026758 0 0
  phy
    14 1.203347 25.308973 5.598676 -0.270516 0.737845 -0.618390 0 0
    14 0.804086 23.681818 4.343935 -0.910224 0.404321 0.089540 0 0
    14 3.002525 25.995028 1.791437 -0.179849 0.983330 -0.026758 0 0
  phy
    14 -1.047167 33.204058 3.368342 0.760224 -0.258708 -0.595927 0 0
    14 -3.058556 31.493807 2.342969 0.093636 -0.954794 -0.282135 0 0
    14 -1.375494 31.178269 5.807445 0.110179 -0.589773 -0.800018 0 0
  phy
    14 -1.375494 31.178269 5.807445 0.110179 -0.589773 -0.800018 0 0
    14 -3.058556 31.493807 2.342969 0.093636 -0.954794 -0.282135 0 0
    14 -1.216207 25.308972 5.598676 -0.245214 -0.647337 -0.721682 0 0
  phy
    14 -1.047167 33.204058 3.368342 0.760224 -0.258708 -0.595927 0 0
    14 -1.375494 31.178269 5.807445 0.110179 -0.589773 -0.800018 0 0
    14 1.363002 31.178270 5.807445 0.108561 0.433109 -0.894780 0 0
  phy
    14 -1.375494 31.178269 5.807445 0.110179 -0.589773 -0.800018 0 0
    14 -1.216207 25.308972 5.598676 -0.245214 -0.647337 -0.721682 0 0
    14 1.363002 31.178270 5.807445 0.108561 0.433109 -0.894780 0 0
  phy
    14 -1.478455 33.373736 2.142607 0.803447 -0.567241 -0.180860 0 0
    14 -3.058556 31.493807 2.342969 0.093636 -0.954794 -0.282135 0 0
    14 -1.047167 33.204058 3.368342 0.760224 -0.258708 -0.595927 0 0
  phy
    14 -2.603386 31.833744 -1.324847 0.283331 -0.884830 0.369864 0 0
    14 -3.058556 31.493807 2.342969 0.093636 -0.954794 -0.282135 0 0
    14 -1.478455 33.373736 2.142607 0.803447 -0.567241 -0.180860 0 0
  phy
    14 -0.005947 31.974545 -2.921102 0.440812 -0.000002 0.897600 0 0
    14 2.591492 31.833744 -1.324847 0.283257 0.884841 0.369896 0 0
    14 2.121269 26.532871 -1.193320 -0.050031 0.727914 0.683840 0 0
  phy
    14 2.121269 26.532871 -1.193320 -0.050031 0.727914 0.683840 0 0
    14 -0.006270 26.756642 -2.435161 -0.074419 -0.000002 0.997227 0 0
    14 -0.005947 31.974545 -2.921102 0.440812 -0.000002 0.897600 0 0
  phy
    14 -2.026428 24.541150 0.630347 -0.770050 -0.553367 0.317502 0 0
    14 -0.818996 23.681818 4.343935 -0.929307 -0.369096 -0.012488 0 0
    14 -3.015066 25.995028 1.791437 -0.179394 -0.983409 -0.026929 0 0
  phy
    14 2.121269 26.532871 -1.193320 -0.050031 0.727914 0.683840 0 0
    14 2.010281 24.541150 0.630344 -0.770332 0.552874 0.317676 0 0
    14 1.419118 24.884037 -0.851436 -0.423823 0.472436 0.772773 0 0
  phy
    14 2.010281 24.541150 0.630344 -0.770332 0.552874 0.317676 0 0
    14 2.121269 26.532871 -1.193320 -0.050031 0.727914 0.683840 0 0
    14 3.002525 25.995028 1.791437 -0.179849 0.983330 -0.026758 0 0
  phy
    14 2.121269 26.532871 -1.193320 -0.050031 0.727914 0.683840 0 0
    14 2.591492 31.833744 -1.324847 0.283257 0.884841 0.369896 0 0
    14 3.002525 25.995028 1.791437 -0.179849 0.983330 -0.026758 0 0
  phy
    14 1.419118 24.884037 -0.851436 -0.423823 0.472436 0.772773 0 0
    14 -0.006270 26.756642 -2.435161 -0.074419 -0.000002 0.997227 0 0
    14 2.121269 26.532871 -1.193320 -0.050031 0.727914 0.683840 0 0
  phy
    14 1.466562 33.373735 2.142607 0.697090 0.704246 -0.134544 0 0
    14 3.046662 31.493807 2.342969 0.093542 0.954789 -0.282183 0 0
    14 2.591492 31.833744 -1.324847 0.283257 0.884841 0.369896 0 0
  phy
    14 1.203347 25.308973 5.598676 -0.270516 0.737845 -0.618390 0 0
    14 3.046662 31.493807 2.342969 0.093542 0.954789 -0.282183 0 0
    14 1.363002 31.178270 5.807445 0.108561 0.433109 -0.894780 0 0
  phy
    14 3.046662 31.493807 2.342969 0.093542 0.954789 -0.282183 0 0
    14 1.203347 25.308973 5.598676 -0.270516 0.737845 -0.618390 0 0
    14 3.002525 25.995028 1.791437 -0.179849 0.983330 -0.026758 0 0
  phy
    14 2.591492 31.833744 -1.324847 0.283257 0.884841 0.369896 0 0
    14 3.046662 31.493807 2.342969 0.093542 0.954789 -0.282183 0 0
    14 3.002525 25.995028 1.791437 -0.179849 0.983330 -0.026758 0 0
  phy
    14 -1.216207 25.308972 5.598676 -0.245214 -0.647337 -0.721682 0 0
    14 -3.058556 31.493807 2.342969 0.093636 -0.954794 -0.282135 0 0
    14 -3.015066 25.995028 1.791437 -0.179394 -0.983409 -0.026929 0 0
  phy
    14 -3.015066 25.995028 1.791437 -0.179394 -0.983409 -0.026929 0 0
    14 -0.818996 23.681818 4.343935 -0.929307 -0.369096 -0.012488 0 0
    14 -1.216207 25.308972 5.598676 -0.245214 -0.647337 -0.721682 0 0
  phy
    14 -1.216207 25.308972 5.598676 -0.245214 -0.647337 -0.721682 0 0
    14 1.203347 25.308973 5.598676 -0.270516 0.737845 -0.618390 0 0
    14 1.363002 31.178270 5.807445 0.108561 0.433109 -0.894780 0 0
  phy
    14 1.203347 25.308973 5.598676 -0.270516 0.737845 -0.618390 0 0
    14 -1.216207 25.308972 5.598676 -0.245214 -0.647337 -0.721682 0 0
    14 -0.818996 23.681818 4.343935 -0.929307 -0.369096 -0.012488 0 0
  phy
    14 -3.015066 25.995028 1.791437 -0.179394 -0.983409 -0.026929 0 0
    14 -3.058556 31.493807 2.342969 0.093636 -0.954794 -0.282135 0 0
    14 -2.603386 31.833744 -1.324847 0.283331 -0.884830 0.369864 0 0
end
