// Created by Crowbar 0.74
version 1
nodes
  0 "ValveBiped.Bip01_Pelvis" -1
  1 "ValveBiped.Bip01_Spine" 0
  2 "ValveBiped.Bip01_Spine1" 1
  3 "ValveBiped.Bip01_Spine2" 2
  4 "ValveBiped.Bip01_Spine4" 3
  5 "ValveBiped.Bip01_Neck1" 4
  6 "ValveBiped.Bip01_Head1" 5
  7 "ValveBiped.forward" 6
  8 "ValveBiped.Bip01_R_Eye" 6
  9 "ValveBiped.Bip01_L_Eye" 6
  10 "ValveBiped.Bip01_L_Clavicle" 4
  11 "ValveBiped.Bip01_L_UpperArm" 10
  12 "ValveBiped.Bip01_L_Forearm" 11
  13 "ValveBiped.Bip01_L_Ulna" 12
  14 "ValveBiped.Bip01_L_Wrist" 12
  15 "ValveBiped.Bip01_L_Hand" 12
  16 "ValveBiped.Bip01_L_Finger3" 15
  17 "ValveBiped.Bip01_L_Finger31" 16
  18 "ValveBiped.Bip01_L_Finger32" 17
  19 "ValveBiped.Bip01_L_Finger2" 15
  20 "ValveBiped.Bip01_L_Finger21" 19
  21 "ValveBiped.Bip01_L_Finger22" 20
  22 "ValveBiped.Bip01_L_Finger1" 15
  23 "ValveBiped.Bip01_L_Finger11" 22
  24 "ValveBiped.Bip01_L_Finger12" 23
  25 "ValveBiped.Bip01_L_Finger4" 15
  26 "ValveBiped.Bip01_L_Finger41" 25
  27 "ValveBiped.Bip01_L_Finger42" 26
  28 "ValveBiped.Bip01_L_Finger0" 15
  29 "ValveBiped.Bip01_L_Finger01" 28
  30 "ValveBiped.Bip01_L_Finger02" 29
  31 "ValveBiped.Bip01_L_Shoulder" 11
  32 "ValveBiped.Bip01_L_Elbow" 11
  33 "ValveBiped.Bip01_L_Trapezius" 10
  34 "ValveBiped.Bip01_R_Clavicle" 4
  35 "ValveBiped.Bip01_R_UpperArm" 34
  36 "ValveBiped.Bip01_R_Forearm" 35
  37 "ValveBiped.Bip01_R_Hand" 36
  38 "ValveBiped.Bip01_R_Finger2" 37
  39 "ValveBiped.Bip01_R_Finger21" 38
  40 "ValveBiped.Bip01_R_Finger22" 39
  41 "ValveBiped.Bip01_R_Finger1" 37
  42 "ValveBiped.Bip01_R_Finger11" 41
  43 "ValveBiped.Bip01_R_Finger12" 42
  44 "ValveBiped.Bip01_R_Finger3" 37
  45 "ValveBiped.Bip01_R_Finger31" 44
  46 "ValveBiped.Bip01_R_Finger32" 45
  47 "ValveBiped.Bip01_R_Finger4" 37
  48 "ValveBiped.Bip01_R_Finger41" 47
  49 "ValveBiped.Bip01_R_Finger42" 48
  50 "ValveBiped.Bip01_R_Finger0" 37
  51 "ValveBiped.Bip01_R_Finger01" 50
  52 "ValveBiped.Bip01_R_Finger02" 51
  53 "ValveBiped.Bip01_R_Wrist" 36
  54 "ValveBiped.Bip01_R_Ulna" 36
  55 "ValveBiped.Bip01_R_Shoulder" 35
  56 "ValveBiped.Bip01_R_Elbow" 35
  57 "ValveBiped.Bip01_R_Trapezius" 34
  58 "ValveBiped.Bip01_L_Thigh" 0
  59 "ValveBiped.Bip01_L_Calf" 58
  60 "ValveBiped.Bip01_L_Foot" 59
  61 "ValveBiped.Bip01_R_Thigh" 0
  62 "ValveBiped.Bip01_R_Calf" 61
  63 "ValveBiped.Bip01_R_Foot" 62
  64 "j_hair_b_01" 6
  65 "j_hair_b_011" 64
  66 "j_hair_b_012" 65
  67 "j_hair_b_013" 66
  68 "j_hair_b_014" 67
  69 "j_hair_b_015" 68
  70 "j_hair_b_021" 64
  71 "j_hair_b_022" 70
  72 "j_hair_b_023" 71
  73 "j_hair_b_024" 72
  74 "j_hair_b_025" 73
  75 "j_hair_b_041" 64
  76 "j_hair_b_042" 75
  77 "j_hair_b_043" 76
  78 "j_hair_b_044" 77
  79 "j_hair_b_045" 78
  80 "j_hair_b_051" 64
  81 "j_hair_b_052" 80
  82 "j_hair_b_053" 81
  83 "j_hair_b_054" 82
  84 "j_hair_b_055" 83
  85 "j_hair_b_061" 64
  86 "j_hair_b_062" 85
  87 "j_hair_b_063" 86
  88 "j_hair_b_064" 87
  89 "j_hair_b_065" 88
  90 "j_hair_b_071" 64
  91 "j_hair_b_072" 90
  92 "j_hair_b_073" 91
  93 "j_hair_b_074" 92
  94 "j_hair_b_075" 93
  95 "j_hair_b_031" 64
  96 "j_hair_b_032" 95
  97 "j_hair_b_033" 96
  98 "j_hair_b_034" 97
  99 "j_hair_b_035" 98
  100 "j_hair_f_01" 6
  101 "j_hair_f_02" 100
  102 "j_hair_fr_01" 6
  103 "j_hair_fl_01" 6
  104 "j_hair_r_01" 6
  105 "j_hair_l_01" 6
  106 "p_wing_c_01" 4
  107 "p_wing_r_01" 106
  108 "p_wing_l_01" 106
  109 "ValveBiped.Bip01_L_Ankle" 59
  110 "ValveBiped.Bip01_L_Knee" 58
  111 "ValveBiped.Bip01_R_Toe0" 63
  112 "ValveBiped.Bip01_R_Ankle" 62
  113 "ValveBiped.Bip01_R_Knee" 61
  114 "ValveBiped.Bip01_L_Toe0" 60
end
skeleton
  time 0
    0 -0.010646 -0.740858 37.743862 1.570796 0.000000 0.000000
    1 0.000004 1.778797 -1.570904 1.570796 -0.010522 1.570812
    2 3.567223 0.000007 0.000055 0.000002 -0.000018 -0.112607
    3 3.363216 -0.000013 -0.000010 0.000000 0.000003 -0.012644
    4 7.610756 0.069372 -0.000002 0.000000 0.000002 0.155812
    5 2.349380 0.024892 0.000004 3.141590 -0.000004 0.227056
    6 3.207985 0.000010 0.000007 0.000000 0.000004 0.110999
    7 -0.000004 -0.000004 0.000000 -1.570790 -0.000001 -1.323624
    8 2.939034 -0.168531 1.371935 1.570917 -1.554020 0.174495
    9 2.947495 -0.167045 -1.324620 -1.570800 -1.507879 -2.967001
    10 1.881260 0.843594 1.898573 1.638349 -1.334134 2.900133
    11 2.970787 0.045891 0.084168 -1.441670 0.096460 -0.516718
    12 8.699282 0.000000 0.000008 0.002964 -0.045845 -0.039703
    13 3.891232 0.000032 -0.000008 -0.030886 -0.000001 0.000005
    14 7.782441 0.000062 -0.000004 -0.057558 -0.000001 0.000007
    15 7.782440 0.000061 0.000004 1.505406 -0.038597 0.036303
    16 2.959185 0.161552 -0.430215 0.068895 -0.044917 -0.258021
    17 1.164919 -0.049374 -0.072165 0.042615 0.057692 0.125586
    18 0.679466 -0.000015 -0.000004 0.156422 -0.040108 -0.202636
    19 3.009077 0.080181 0.136267 0.142335 -0.052334 -0.171462
    20 1.365345 -0.048332 -0.068482 -0.036119 0.039214 0.053667
    21 0.755196 0.000008 -0.000005 -0.001248 -0.005676 -0.098996
    22 3.020005 -0.040039 0.648113 0.302879 -0.149214 -0.102527
    23 1.066566 -0.051331 -0.053617 -0.020784 0.084747 -0.150765
    24 0.824848 0.022255 -0.030329 0.022996 0.020221 0.074277
    25 2.759466 -0.116608 -1.107510 0.217198 -0.052916 -0.105017
    26 0.834291 -0.042744 -0.018990 -0.400109 0.100868 0.016258
    27 0.481278 -0.000004 -0.000003 0.194187 -0.012833 -0.056701
    28 1.003924 -0.318420 0.595913 -0.074761 -0.826036 -0.527881
    29 0.985941 0.000015 -0.000008 -0.169025 0.043735 0.104422
    30 0.778557 0.000011 -0.000008 -0.319728 0.108344 -0.014836
    31 1.039955 0.001345 0.056854 -0.157228 -0.054605 0.001289
    32 8.699303 0.000000 0.000004 0.005469 -0.054331 -0.098913
    33 2.308937 0.045898 0.084166 -0.000001 -0.000002 0.000002
    34 1.881268 0.843600 -1.924851 -1.710131 1.334135 2.900095
    35 2.846478 0.005608 -0.083893 1.500783 -0.058195 -0.465612
    36 8.662304 -0.007339 0.395618 -0.000704 -0.008665 -0.041731
    37 7.708399 0.000072 0.000034 -1.502003 0.039028 0.029843
    38 2.961793 0.036312 -0.067124 -0.093571 0.056361 -0.120094
    39 1.241522 0.012360 -0.044787 0.084561 0.001868 -0.292336
    40 0.922279 0.038929 0.055068 -0.007848 -0.008324 0.252469
    41 2.970550 -0.095581 -0.592683 -0.299683 0.165178 -0.119529
    42 1.246892 -0.016453 0.060774 0.001275 -0.065005 -0.155369
    43 0.727602 -0.000023 -0.000010 0.041279 -0.100705 0.112504
    44 2.912333 0.127556 0.651073 -0.175290 0.080300 -0.179112
    45 1.127991 -0.001530 -0.000503 -0.004427 -0.045748 -0.074528
    46 0.724867 -0.000015 0.000003 -0.081651 0.016452 -0.018054
    47 2.798820 0.008007 1.134010 -0.144906 -0.034656 -0.248804
    48 0.709028 -0.019749 0.021117 -0.275152 0.134573 0.055072
    49 0.581722 0.006519 -0.016452 -0.005666 -0.131234 -0.068402
    50 1.034818 -0.392479 -0.639815 1.804363 0.759700 -0.503069
    51 1.017588 0.000011 0.000008 0.227154 0.055420 0.089629
    52 0.804546 0.000008 -0.000015 0.020418 0.073867 -0.178570
    53 7.708399 0.000072 0.000034 0.065178 0.000000 0.000005
    54 3.854197 0.000038 0.000027 0.034933 -0.000001 0.000012
    55 1.031609 0.000007 0.000019 0.000004 0.000001 0.000005
    56 8.662304 -0.007339 0.395618 -0.000009 0.000001 -0.100055
    57 2.184628 0.005600 -0.083895 0.000002 -0.000003 0.000006
    58 3.703570 -0.000004 -0.000003 -1.570796 0.031080 -1.611085
    59 15.711946 -0.008476 0.011104 -0.000001 -0.017307 0.051665
    60 19.191345 -0.102982 0.046527 0.029982 -0.030327 -1.230008
    61 -3.703569 0.000008 0.000006 -1.571276 0.031101 -1.528219
    62 15.674868 -0.008654 -0.011853 0.000000 0.017924 0.051651
    63 19.147047 -0.103892 -0.050088 -0.016314 0.041538 -1.233103
    64 7.838810 6.460746 -0.010600 -0.000003 0.000004 2.556780
    65 1.795998 0.000000 0.000000 0.034014 0.420080 0.389860
    66 12.693279 0.000010 -0.000004 0.000000 0.000000 0.204715
    67 14.397278 -0.000021 -0.000004 0.000000 0.000000 -0.003575
    68 14.182587 0.000000 -0.000008 0.000000 0.000000 -0.002292
    69 11.238811 -0.000006 -0.000002 0.000000 0.000000 0.074577
    70 1.796021 0.000008 0.000000 0.013064 0.281255 0.345385
    71 12.495441 0.000008 -0.000001 0.000000 0.000000 0.218223
    72 14.264744 0.000004 0.000002 0.000000 0.000000 -0.015021
    73 14.315907 -0.000010 0.000003 0.000000 0.000000 0.008428
    74 10.998483 0.000000 -0.000001 0.000000 0.000000 0.067886
    75 1.796005 -0.000011 0.000000 -0.000001 0.000000 0.341128
    76 12.211094 0.000000 0.000000 0.000000 0.000000 0.135281
    77 14.351528 0.000000 0.000000 0.000000 0.000000 0.061742
    78 14.240404 0.000000 0.000000 0.000000 0.000000 -0.001125
    79 10.626455 0.000002 0.000000 0.000000 0.000000 -0.015238
    80 1.796021 0.000008 0.000000 -0.003249 -0.143342 0.328360
    81 12.448360 0.000011 0.000000 0.000000 0.000000 0.181920
    82 14.022095 0.000000 0.000002 0.000000 0.000000 0.019288
    83 13.727724 -0.000004 -0.000001 0.000000 0.000000 0.017582
    84 11.751338 0.000006 -0.000004 0.000000 0.000000 0.028943
    85 1.796005 -0.000011 0.000000 -0.013760 -0.288079 0.355381
    86 12.201801 -0.000004 -0.000006 0.000000 0.000000 0.200657
    87 13.727722 -0.000004 0.000002 0.000000 0.000000 -0.026888
    88 14.050240 -0.000006 -0.000002 0.000000 0.000000 0.068499
    89 11.467726 -0.000076 -0.000004 0.000000 0.000000 0.000719
    90 1.796005 -0.000011 0.000000 -0.033588 -0.413297 0.386574
    91 12.348488 0.000010 -0.000004 0.000000 0.000000 0.216387
    92 13.917492 0.000004 -0.000006 0.000000 0.000000 -0.027174
    93 13.326015 0.000000 -0.000002 0.000000 0.000000 0.019387
    94 12.015517 -0.000031 0.000004 0.000000 0.000000 0.029158
    95 1.796024 0.000004 0.000000 0.003044 0.134524 0.328332
    96 12.448383 0.000008 0.000000 0.000000 0.000000 0.187607
    97 13.887730 0.000004 -0.000001 0.000000 0.000000 0.022613
    98 14.264746 0.000006 -0.000001 0.000000 0.000000 -0.009326
    99 11.346076 0.000008 0.000000 0.000000 0.000000 0.059512
    100 7.951519 -3.887465 -0.205244 -1.575307 0.054810 -3.066612
    101 2.581451 0.000001 -0.000004 -0.000001 0.000000 -0.023750
    102 7.462284 -3.217740 2.206808 -1.570797 -0.036015 -2.984453
    103 8.022854 -3.128915 -2.191640 -1.570796 -0.023246 -2.984453
    104 4.493595 -2.010132 4.287770 -1.570798 0.292063 -2.984453
    105 5.194363 -1.899093 -4.650998 -1.570798 -0.254472 -2.984453
    106 -1.049805 -2.841841 0.010650 3.141589 -0.000002 -0.071378
    107 1.969006 -0.000021 0.000000 1.570833 -1.452447 -0.030330
    108 1.969017 0.000000 0.000000 1.570819 1.388424 -0.030273
    109 18.014826 -0.155478 0.043366 0.000000 0.000000 0.000009
    110 15.711946 -0.008476 0.011104 0.000000 0.000000 0.025260
    111 5.992654 -0.000032 0.000001 -0.078651 -0.006187 -0.498958
    112 17.973303 -0.156878 -0.046989 0.000000 0.000000 0.000018
    113 15.674856 -0.008654 -0.011852 0.000000 0.000000 0.025254
    114 5.947886 -0.000037 -0.000001 -0.011148 0.000933 -0.500539
end
triangles
mokou_cloth2
  6 -5.599294 7.784039 68.869888 0.417066 0.768045 0.485965 0.708655 0.524352 1 6 1.000000
  6 -5.714023 6.706637 70.671448 0.417066 0.768045 0.485965 0.708655 0.524351 1 6 1.000000
  6 0.000003 5.435921 67.774963 0.417084 0.768038 0.485961 0.602131 0.530091 1 6 1.000000
mokou_cloth2
  6 0.000003 5.435921 67.774963 -0.420071 -0.357565 0.834079 0.602131 0.530091 1 6 1.000000
  6 -6.371953 4.278456 69.539185 0.081924 -0.942936 -0.322737 0.708655 0.524351 1 6 1.000000
  6 -6.364694 4.959212 67.552628 0.081862 -0.942961 -0.322680 0.708655 0.524352 1 6 1.000000
mokou_cloth2
  6 -6.317649 5.641080 65.566635 0.028276 -0.984617 -0.172424 0.708655 0.524352 1 6 1.000000
  6 0.000003 5.435921 67.774963 -0.420071 -0.357565 0.834079 0.602131 0.530091 1 6 1.000000
  6 -6.364694 4.959212 67.552628 0.081862 -0.942961 -0.322680 0.708655 0.524352 1 6 1.000000
mokou_cloth2
  6 -6.317649 5.641080 65.566635 0.028276 -0.984617 -0.172424 0.708655 0.524352 1 6 1.000000
  6 -6.282575 5.666563 65.174004 -0.122633 -0.969860 0.210555 0.708655 0.524353 1 6 1.000000
  6 0.000003 5.435921 67.774963 -0.420071 -0.357565 0.834079 0.602131 0.530091 1 6 1.000000
mokou_cloth2
  6 -6.282575 5.666563 65.174004 -0.122633 -0.969860 0.210555 0.708655 0.524353 1 6 1.000000
  6 -6.243695 5.576459 64.992607 -0.363725 -0.490815 0.791710 0.708655 0.524353 1 6 1.000000
  6 0.000003 5.435921 67.774963 -0.420071 -0.357565 0.834079 0.602131 0.530091 1 6 1.000000
mokou_cloth2
  6 -6.243695 5.576459 64.992607 -0.363725 -0.490815 0.791710 0.708655 0.524353 1 6 1.000000
  6 -6.204813 5.379577 65.040184 -0.380647 0.349312 0.856206 0.708655 0.524353 1 6 1.000000
  6 0.000003 5.435921 67.774963 -0.420071 -0.357565 0.834079 0.602131 0.530091 1 6 1.000000
mokou_cloth2
  6 -6.204813 5.379577 65.040184 -0.380647 0.349312 0.856206 0.708655 0.524353 1 6 1.000000
  6 -6.169742 5.095192 65.312080 -0.291680 0.718328 0.631607 0.708655 0.524352 1 6 1.000000
  6 0.000003 5.435921 67.774963 -0.420071 -0.357565 0.834079 0.602131 0.530091 1 6 1.000000
mokou_cloth2
  6 -6.169742 5.095192 65.312080 -0.291680 0.718328 0.631607 0.708655 0.524352 1 6 1.000000
  6 -6.108291 4.012903 67.111374 -0.247468 0.825862 0.506667 0.708655 0.524352 1 6 1.000000
  6 0.000003 5.435921 67.774963 -0.420071 -0.357565 0.834079 0.602131 0.530091 1 6 1.000000
mokou_cloth2
  6 -6.108291 4.012903 67.111374 -0.247468 0.825862 0.506667 0.708655 0.524352 1 6 1.000000
  6 -6.007639 2.933909 68.912201 -0.187376 0.742375 0.643250 0.708655 0.524351 1 6 1.000000
  6 0.000003 5.435921 67.774963 -0.420071 -0.357565 0.834079 0.602131 0.530091 1 6 1.000000
mokou_cloth2
  6 -6.007639 2.933909 68.912201 -0.187376 0.742375 0.643250 0.708655 0.524351 1 6 1.000000
  6 -5.938015 2.652421 69.185440 -0.007679 0.465119 0.885215 0.708655 0.524351 1 6 1.000000
  6 0.000003 5.435921 67.774963 -0.420071 -0.357565 0.834079 0.602131 0.530091 1 6 1.000000
mokou_cloth2
  6 -5.938015 2.652421 69.185440 -0.007679 0.465119 0.885215 0.708655 0.524351 1 6 1.000000
  6 -5.860835 2.458755 69.234543 0.333633 -0.205886 0.919946 0.708655 0.524351 1 6 1.000000
  6 0.000003 5.435921 67.774963 -0.420071 -0.357565 0.834079 0.602131 0.530091 1 6 1.000000
mokou_cloth2
  6 -5.860835 2.458755 69.234543 0.333633 -0.205886 0.919946 0.708655 0.524351 1 6 1.000000
  6 -5.783654 2.371865 69.054626 0.497877 -0.793384 0.350230 0.708655 0.524351 1 6 1.000000
  6 0.000003 5.435921 67.774963 -0.420071 -0.357565 0.834079 0.602131 0.530091 1 6 1.000000
mokou_cloth2
  6 -5.783654 2.371865 69.054626 0.497877 -0.793384 0.350230 0.708655 0.524351 1 6 1.000000
  6 -5.714025 2.400259 68.663345 0.471495 -0.881646 0.019836 0.708655 0.524351 1 6 1.000000
  6 0.000003 5.435921 67.774963 -0.420071 -0.357565 0.834079 0.602131 0.530091 1 6 1.000000
mokou_cloth2
  6 -6.007637 6.172983 70.422623 -0.247399 -0.919592 -0.305195 0.708655 0.524351 1 6 1.000000
  6 -6.108287 6.858944 68.438507 -0.247437 -0.919078 -0.306709 0.708655 0.524352 1 6 1.000000
  6 0.000003 5.435921 67.774963 -0.420071 -0.357565 0.834079 0.602131 0.530091 1 6 1.000000
mokou_cloth2
  6 -6.108287 6.858944 68.438507 -0.247437 -0.919078 -0.306709 0.708655 0.524352 1 6 1.000000
  6 -6.169739 7.541603 66.452873 -0.291743 -0.945564 -0.144202 0.708655 0.524352 1 6 1.000000
  6 0.000003 5.435921 67.774963 -0.420071 -0.357565 0.834079 0.602131 0.530091 1 6 1.000000
mokou_cloth2
  6 -6.169739 7.541603 66.452873 -0.291743 -0.945564 -0.144202 0.708655 0.524352 1 6 1.000000
  6 -6.204813 7.567092 66.060242 -0.380543 -0.880385 0.283035 0.708655 0.524353 1 6 1.000000
  6 0.000003 5.435921 67.774963 -0.420071 -0.357565 0.834079 0.602131 0.530091 1 6 1.000000
mokou_cloth2
  6 -6.204813 7.567092 66.060242 -0.380543 -0.880385 0.283035 0.708655 0.524353 1 6 1.000000
  6 -6.243695 7.476989 65.878838 -0.363792 -0.290795 0.884926 0.708655 0.524353 1 6 1.000000
  6 0.000003 5.435921 67.774963 -0.420071 -0.357565 0.834079 0.602131 0.530091 1 6 1.000000
mokou_cloth2
  6 -6.243695 7.476989 65.878838 -0.363792 -0.290795 0.884926 0.708655 0.524353 1 6 1.000000
  6 -6.282575 7.280107 65.926414 -0.122644 0.462394 0.878152 0.708655 0.524353 1 6 1.000000
  6 0.000003 5.435921 67.774963 -0.420071 -0.357565 0.834079 0.602131 0.530091 1 6 1.000000
mokou_cloth2
  6 -6.282575 7.280107 65.926414 -0.122644 0.462394 0.878152 0.708655 0.524353 1 6 1.000000
  6 -6.317649 6.995717 66.198318 0.028282 0.765100 0.643290 0.708655 0.524352 1 6 1.000000
  6 0.000003 5.435921 67.774963 -0.420071 -0.357565 0.834079 0.602131 0.530091 1 6 1.000000
mokou_cloth2
  6 0.000003 5.435921 67.774963 -0.420071 -0.357565 0.834079 0.602131 0.530091 1 6 1.000000
  6 -6.317649 6.995717 66.198318 0.028282 0.765100 0.643290 0.708655 0.524352 1 6 1.000000
  6 -6.364695 5.912634 67.997208 0.081882 0.853247 0.515039 0.708655 0.524352 1 6 1.000000
mokou_cloth2
  6 -6.371951 4.828438 69.795654 0.081912 0.853308 0.514932 0.708655 0.524351 1 6 1.000000
  6 0.000003 5.435921 67.774963 -0.420071 -0.357565 0.834079 0.602131 0.530091 1 6 1.000000
  6 -6.364695 5.912634 67.997208 0.081882 0.853247 0.515039 0.708655 0.524352 1 6 1.000000
mokou_cloth2
  6 5.714030 6.706628 70.671455 -0.417066 0.768046 0.485965 0.708655 0.524351 1 6 1.000000
  6 5.599300 7.784034 68.869896 -0.417066 0.768046 0.485965 0.708655 0.524352 1 6 1.000000
  6 0.000003 5.435921 67.774963 -0.417084 0.768038 0.485961 0.602131 0.530091 1 6 1.000000
mokou_cloth2
  6 0.000003 5.435921 67.774963 0.420071 -0.357565 0.834079 0.602131 0.530091 1 6 1.000000
  6 6.371958 4.828429 69.795639 -0.081912 0.853308 0.514932 0.708655 0.524351 1 6 1.000000
  6 6.364701 5.912625 67.997208 -0.081882 0.853247 0.515039 0.708655 0.524352 1 6 1.000000
mokou_cloth2
  6 6.317658 6.995706 66.198288 -0.028282 0.765100 0.643290 0.708655 0.524352 1 6 1.000000
  6 0.000003 5.435921 67.774963 0.420071 -0.357565 0.834079 0.602131 0.530091 1 6 1.000000
  6 6.364701 5.912625 67.997208 -0.081882 0.853247 0.515039 0.708655 0.524352 1 6 1.000000
mokou_cloth2
  6 6.317658 6.995706 66.198288 -0.028282 0.765100 0.643290 0.708655 0.524352 1 6 1.000000
  6 6.282581 7.280097 65.926422 0.122644 0.462394 0.878152 0.708655 0.524353 1 6 1.000000
  6 0.000003 5.435921 67.774963 0.420071 -0.357565 0.834079 0.602131 0.530091 1 6 1.000000
mokou_cloth2
  6 6.282581 7.280097 65.926422 0.122644 0.462394 0.878152 0.708655 0.524353 1 6 1.000000
  6 6.243702 7.476982 65.878830 0.363792 -0.290795 0.884926 0.708655 0.524353 1 6 1.000000
  6 0.000003 5.435921 67.774963 0.420071 -0.357565 0.834079 0.602131 0.530091 1 6 1.000000
mokou_cloth2
  6 6.243702 7.476982 65.878830 0.363792 -0.290795 0.884926 0.708655 0.524353 1 6 1.000000
  6 6.204819 7.567088 66.060242 0.380543 -0.880385 0.283035 0.708655 0.524353 1 6 1.000000
  6 0.000003 5.435921 67.774963 0.420071 -0.357565 0.834079 0.602131 0.530091 1 6 1.000000
mokou_cloth2
  6 6.204819 7.567088 66.060242 0.380543 -0.880385 0.283035 0.708655 0.524353 1 6 1.000000
  6 6.169745 7.541594 66.452850 0.291743 -0.945564 -0.144202 0.708655 0.524352 1 6 1.000000
  6 0.000003 5.435921 67.774963 0.420071 -0.357565 0.834079 0.602131 0.530091 1 6 1.000000
mokou_cloth2
  6 6.169745 7.541594 66.452850 0.291743 -0.945564 -0.144202 0.708655 0.524352 1 6 1.000000
  6 6.108295 6.858937 68.438507 0.247437 -0.919078 -0.306709 0.708655 0.524352 1 6 1.000000
  6 0.000003 5.435921 67.774963 0.420071 -0.357565 0.834079 0.602131 0.530091 1 6 1.000000
mokou_cloth2
  6 6.108295 6.858937 68.438507 0.247437 -0.919078 -0.306709 0.708655 0.524352 1 6 1.000000
  6 6.007647 6.172976 70.422607 0.247399 -0.919592 -0.305195 0.708655 0.524351 1 6 1.000000
  6 0.000003 5.435921 67.774963 0.420071 -0.357565 0.834079 0.602131 0.530091 1 6 1.000000
mokou_cloth2
  6 6.371955 4.278447 69.539169 -0.081924 -0.942936 -0.322737 0.708655 0.524351 1 6 1.000000
  6 0.000003 5.435921 67.774963 0.420071 -0.357565 0.834079 0.602131 0.530091 1 6 1.000000
  6 6.364701 4.959204 67.552628 -0.081862 -0.942961 -0.322680 0.708655 0.524352 1 6 1.000000
mokou_cloth2
  6 0.000003 5.435921 67.774963 0.420071 -0.357565 0.834079 0.602131 0.530091 1 6 1.000000
  6 6.317658 5.641069 65.566605 -0.028276 -0.984617 -0.172424 0.708655 0.524352 1 6 1.000000
  6 6.364701 4.959204 67.552628 -0.081862 -0.942961 -0.322680 0.708655 0.524352 1 6 1.000000
mokou_cloth2
  6 6.282581 5.666552 65.173996 0.122633 -0.969860 0.210555 0.708655 0.524353 1 6 1.000000
  6 6.317658 5.641069 65.566605 -0.028276 -0.984617 -0.172424 0.708655 0.524352 1 6 1.000000
  6 0.000003 5.435921 67.774963 0.420071 -0.357565 0.834079 0.602131 0.530091 1 6 1.000000
mokou_cloth2
  6 6.243702 5.576449 64.992584 0.363725 -0.490815 0.791710 0.708655 0.524353 1 6 1.000000
  6 6.282581 5.666552 65.173996 0.122633 -0.969860 0.210555 0.708655 0.524353 1 6 1.000000
  6 0.000003 5.435921 67.774963 0.420071 -0.357565 0.834079 0.602131 0.530091 1 6 1.000000
mokou_cloth2
  6 6.204819 5.379570 65.040161 0.380647 0.349312 0.856206 0.708655 0.524353 1 6 1.000000
  6 6.243702 5.576449 64.992584 0.363725 -0.490815 0.791710 0.708655 0.524353 1 6 1.000000
  6 0.000003 5.435921 67.774963 0.420071 -0.357565 0.834079 0.602131 0.530091 1 6 1.000000
mokou_cloth2
  6 6.169744 5.095183 65.312057 0.291680 0.718328 0.631607 0.708655 0.524352 1 6 1.000000
  6 6.204819 5.379570 65.040161 0.380647 0.349312 0.856206 0.708655 0.524353 1 6 1.000000
  6 0.000003 5.435921 67.774963 0.420071 -0.357565 0.834079 0.602131 0.530091 1 6 1.000000
mokou_cloth2
  6 6.108294 4.012893 67.111382 0.247468 0.825862 0.506667 0.708655 0.524352 1 6 1.000000
  6 6.169744 5.095183 65.312057 0.291680 0.718328 0.631607 0.708655 0.524352 1 6 1.000000
  6 0.000003 5.435921 67.774963 0.420071 -0.357565 0.834079 0.602131 0.530091 1 6 1.000000
mokou_cloth2
  6 6.007642 2.933902 68.912186 0.187376 0.742374 0.643250 0.708655 0.524351 1 6 1.000000
  6 6.108294 4.012893 67.111382 0.247468 0.825862 0.506667 0.708655 0.524352 1 6 1.000000
  6 0.000003 5.435921 67.774963 0.420071 -0.357565 0.834079 0.602131 0.530091 1 6 1.000000
mokou_cloth2
  6 5.938016 2.652414 69.185440 0.007679 0.465119 0.885215 0.708655 0.524351 1 6 1.000000
  6 6.007642 2.933902 68.912186 0.187376 0.742374 0.643250 0.708655 0.524351 1 6 1.000000
  6 0.000003 5.435921 67.774963 0.420071 -0.357565 0.834079 0.602131 0.530091 1 6 1.000000
mokou_cloth2
  6 5.860837 2.458748 69.234528 -0.333633 -0.205886 0.919946 0.708655 0.524351 1 6 1.000000
  6 5.938016 2.652414 69.185440 0.007679 0.465119 0.885215 0.708655 0.524351 1 6 1.000000
  6 0.000003 5.435921 67.774963 0.420071 -0.357565 0.834079 0.602131 0.530091 1 6 1.000000
mokou_cloth2
  6 5.783654 2.371858 69.054642 -0.497877 -0.793384 0.350230 0.708655 0.524351 1 6 1.000000
  6 5.860837 2.458748 69.234528 -0.333633 -0.205886 0.919946 0.708655 0.524351 1 6 1.000000
  6 0.000003 5.435921 67.774963 0.420071 -0.357565 0.834079 0.602131 0.530091 1 6 1.000000
mokou_cloth2
  6 5.714027 2.400251 68.663345 -0.471495 -0.881645 0.019836 0.708655 0.524351 1 6 1.000000
  6 5.783654 2.371858 69.054642 -0.497877 -0.793384 0.350230 0.708655 0.524351 1 6 1.000000
  6 0.000003 5.435921 67.774963 0.420071 -0.357565 0.834079 0.602131 0.530091 1 6 1.000000
mokou_cloth2
  6 6.371955 4.345115 70.114151 -0.302627 -0.852000 0.427216 0.708655 0.572351 1 6 1.000000
  6 0.000003 5.435921 67.774963 -0.302631 -0.851999 0.427215 0.602131 0.578091 1 6 1.000000
  6 6.371954 4.253929 69.932259 -0.302627 -0.852000 0.427216 0.708655 0.572351 1 6 1.000000
mokou_cloth2
  6 0.000003 5.435921 67.774963 0.417081 -0.865890 -0.276185 0.602131 0.552100 1 6 1.000000
  6 -5.714025 2.400259 68.663345 0.417089 -0.865887 -0.276183 0.708655 0.552100 1 6 1.000000
  6 -5.600255 3.087669 66.679916 0.417089 -0.865887 -0.276183 0.708655 0.552100 1 6 1.000000
mokou_cloth2
  6 0.000003 5.435921 67.774963 -0.413352 -0.884224 -0.217456 0.602131 0.530091 1 6 1.000000
  6 5.339677 3.775698 64.380669 -0.413347 -0.884228 -0.217451 0.708527 0.541077 1 6 1.000000
  6 5.600257 3.087661 66.679916 -0.413347 -0.884228 -0.217451 0.708655 0.527043 1 6 1.000000
mokou_cloth2
  6 6.371958 4.828429 69.795639 -0.161897 0.680204 0.714920 0.708655 0.572351 1 6 1.000000
  6 0.000003 5.435921 67.774963 -0.161906 0.680203 0.714919 0.602131 0.578091 1 6 1.000000
  6 6.371955 4.543075 70.067093 -0.161897 0.680204 0.714920 0.708655 0.572351 1 6 1.000000
mokou_cloth2
  6 5.783654 6.425148 70.944717 -0.484253 0.028615 0.874460 0.708655 0.572351 1 6 1.000000
  6 0.000003 5.435921 67.774963 -0.484248 0.028615 0.874463 0.602131 0.578091 1 6 1.000000
  6 5.860839 6.231480 70.993774 -0.484253 0.028615 0.874460 0.708655 0.572351 1 6 1.000000
mokou_cloth2
  6 0.000003 5.435921 67.774963 0.484248 0.028615 0.874463 0.602131 0.578091 1 6 1.000000
  6 -5.783649 6.425157 70.944717 0.484253 0.028615 0.874460 0.708655 0.572351 1 6 1.000000
  6 -5.860832 6.231490 70.993797 0.484253 0.028615 0.874460 0.708655 0.572351 1 6 1.000000
mokou_cloth2
  6 0.000003 5.435921 67.774963 0.161906 0.680203 0.714919 0.602131 0.578091 1 6 1.000000
  6 -6.371951 4.828438 69.795654 0.161897 0.680204 0.714921 0.708655 0.572351 1 6 1.000000
  6 -6.371953 4.543084 70.067093 0.161897 0.680204 0.714921 0.708655 0.572351 1 6 1.000000
mokou_cloth2
  6 -5.339677 3.775707 64.380661 0.413347 -0.884228 -0.217451 0.708527 0.541077 1 6 1.000000
  6 0.000003 5.435921 67.774963 0.413352 -0.884225 -0.217456 0.602131 0.530091 1 6 1.000000
  6 -5.600255 3.087669 66.679916 0.413347 -0.884228 -0.217451 0.708655 0.527043 1 6 1.000000
mokou_cloth2
  6 0.000003 5.435921 67.774963 0.302732 0.220546 0.927207 0.602131 0.578091 1 6 1.000000
  6 -6.371953 4.543084 70.067093 0.302726 0.220546 0.927209 0.708655 0.572351 1 6 1.000000
  6 -6.371953 4.345124 70.114151 0.302726 0.220546 0.927209 0.708655 0.572351 1 6 1.000000
mokou_cloth2
  6 0.000003 5.435921 67.774963 0.095577 -0.911638 0.399727 0.602131 0.578091 1 6 1.000000
  6 -5.860832 6.231490 70.993797 0.095593 -0.911637 0.399726 0.708655 0.572351 1 6 1.000000
  6 -5.938013 6.144596 70.813889 0.095593 -0.911637 0.399726 0.708655 0.572351 1 6 1.000000
mokou_cloth2
  6 5.714030 6.706628 70.671455 -0.471497 0.551462 0.688172 0.708655 0.572351 1 6 1.000000
  6 0.000003 5.435921 67.774963 -0.471487 0.551466 0.688176 0.602131 0.578091 1 6 1.000000
  6 5.783654 6.425148 70.944717 -0.471497 0.551462 0.688172 0.708655 0.572351 1 6 1.000000
mokou_cloth2
  6 0.000003 5.435921 67.774963 0.302631 -0.851999 0.427215 0.602131 0.578091 1 6 1.000000
  6 -6.371953 4.345124 70.114151 0.302627 -0.852000 0.427216 0.708655 0.572351 1 6 1.000000
  6 -6.371953 4.253940 69.932266 0.302627 -0.852000 0.427216 0.708655 0.572351 1 6 1.000000
mokou_cloth2
  6 -5.599294 7.784039 68.869888 0.413399 0.735238 0.537146 0.708655 0.527043 1 6 1.000000
  6 0.000003 5.435921 67.774963 0.413393 0.735240 0.537148 0.602131 0.530091 1 6 1.000000
  6 -5.339673 9.103262 66.864952 0.413399 0.735238 0.537146 0.708527 0.541077 1 6 1.000000
mokou_cloth2
  6 6.371954 4.253929 69.932259 -0.161881 -0.984873 -0.061796 0.708655 0.572351 1 6 1.000000
  6 0.000003 5.435921 67.774963 -0.141804 -0.988800 -0.046539 0.602131 0.578091 1 6 1.000000
  6 6.371955 4.278447 69.539169 -0.161881 -0.984873 -0.061796 0.708655 0.572351 1 6 1.000000
mokou_cloth2
  6 0.000003 5.435921 67.774963 -0.141804 -0.988800 -0.046539 0.602131 0.578091 1 6 1.000000
  6 -5.938013 6.144596 70.813889 -0.141809 -0.988799 -0.046538 0.708655 0.572351 1 6 1.000000
  6 -6.007637 6.172983 70.422623 -0.141809 -0.988799 -0.046538 0.708655 0.572351 1 6 1.000000
mokou_cloth2
  6 5.714027 2.400251 68.663345 -0.417089 -0.865887 -0.276183 0.708655 0.552100 1 6 1.000000
  6 0.000003 5.435921 67.774963 -0.417081 -0.865890 -0.276185 0.602131 0.552100 1 6 1.000000
  6 5.600257 3.087661 66.679916 -0.417089 -0.865887 -0.276183 0.708655 0.552100 1 6 1.000000
mokou_cloth2
  6 0.000003 5.435921 67.774963 0.471487 0.551465 0.688176 0.602131 0.578091 1 6 1.000000
  6 -5.714023 6.706637 70.671448 0.471497 0.551462 0.688172 0.708655 0.572351 1 6 1.000000
  6 -5.783649 6.425157 70.944717 0.471497 0.551462 0.688172 0.708655 0.572351 1 6 1.000000
mokou_cloth2
  6 5.938019 6.144588 70.813904 0.141809 -0.988799 -0.046538 0.708655 0.572351 1 6 1.000000
  6 0.000003 5.435921 67.774963 0.141804 -0.988800 -0.046539 0.602131 0.578091 1 6 1.000000
  6 6.007647 6.172976 70.422607 0.141809 -0.988799 -0.046538 0.708655 0.572351 1 6 1.000000
mokou_cloth2
  6 0.000003 5.435921 67.774963 0.141804 -0.988800 -0.046539 0.602131 0.578091 1 6 1.000000
  6 -6.371953 4.253940 69.932266 0.161881 -0.984873 -0.061796 0.708655 0.572351 1 6 1.000000
  6 -6.371953 4.278456 69.539185 0.161881 -0.984873 -0.061796 0.708655 0.572351 1 6 1.000000
mokou_cloth2
  6 5.860839 6.231480 70.993774 -0.095593 -0.911637 0.399726 0.708655 0.572351 1 6 1.000000
  6 0.000003 5.435921 67.774963 -0.095577 -0.911638 0.399727 0.602131 0.578091 1 6 1.000000
  6 5.938019 6.144588 70.813904 -0.095593 -0.911637 0.399726 0.708655 0.572351 1 6 1.000000
mokou_cloth2
  6 6.371955 4.543075 70.067093 -0.302726 0.220546 0.927209 0.708655 0.572351 1 6 1.000000
  6 0.000003 5.435921 67.774963 -0.302732 0.220546 0.927207 0.602131 0.578091 1 6 1.000000
  6 6.371955 4.345115 70.114151 -0.302726 0.220546 0.927209 0.708655 0.572351 1 6 1.000000
mokou_cloth2
  6 0.000003 5.435921 67.774963 -0.413393 0.735240 0.537148 0.602131 0.530091 1 6 1.000000
  6 5.599300 7.784034 68.869896 -0.413399 0.735238 0.537146 0.708655 0.527043 1 6 1.000000
  6 5.339680 9.103256 66.864952 -0.413399 0.735238 0.537146 0.708527 0.541077 1 6 1.000000
mokou_hair2
  64 0.805993 8.078127 66.568565 0.885429 0.212115 0.413548 0.279879 0.069810 2 64 0.500000 65 0.500000
  64 0.000008 8.213408 67.319534 -0.234377 0.694811 0.679930 0.245659 0.081730 2 64 0.500000 65 0.500000
  64 0.000003 6.597548 68.663536 -0.068097 -0.481386 0.873859 0.227579 0.007690 2 64 0.900000 75 0.100000
mokou_hair2
  64 0.000008 8.213408 67.319534 -0.234377 0.694811 0.679930 0.245659 0.081730 2 64 0.500000 65 0.500000
  64 -0.402308 8.221040 66.115311 -0.936395 0.311457 0.161737 0.237419 0.083550 2 64 0.500000 65 0.500000
  64 0.000003 6.597548 68.663536 -0.068097 -0.481386 0.873859 0.227579 0.007690 2 64 0.900000 75 0.100000
mokou_hair2
  70 0.402323 8.221042 66.115311 0.936423 0.311371 0.161741 0.237419 0.083550 3 70 0.344426 65 0.329451 95 0.326123
  64 0.000008 8.213408 67.319534 0.234377 0.694811 0.679930 0.245659 0.081730 2 64 0.500000 65 0.500000
  64 0.000003 6.597548 68.663536 0.068097 -0.481386 0.873859 0.227579 0.007690 2 64 0.900000 75 0.100000
mokou_hair2
  64 0.000008 8.213408 67.319534 0.234377 0.694811 0.679930 0.245659 0.081730 2 64 0.500000 65 0.500000
  80 -0.805979 8.078130 66.568558 -0.885429 0.212115 0.413548 0.279879 0.069810 3 80 0.799780 64 0.100110 65 0.100110
  64 0.000003 6.597548 68.663536 0.068097 -0.481386 0.873859 0.227579 0.007690 2 64 0.900000 75 0.100000
mokou_hair2
  6 0.428533 6.674479 68.149765 0.924143 0.314663 0.216673 0.232199 0.046510 1 6 1.000000
  64 0.000003 6.597548 68.663536 0.160997 0.491632 0.855791 0.256279 0.043270 2 64 0.900000 75 0.100000
  64 0.000003 5.387008 68.993134 0.155380 -0.709632 0.687226 0.227579 0.007690 1 64 1.000000
mokou_hair2
  64 0.000003 6.597548 68.663536 0.160997 0.491632 0.855791 0.256279 0.043270 2 64 0.900000 75 0.100000
  6 -0.815921 6.449445 68.187897 -0.765131 0.001001 0.643874 0.265539 0.042050 1 6 1.000000
  64 0.000003 5.387008 68.993134 0.155380 -0.709632 0.687226 0.227579 0.007690 1 64 1.000000
end
