// Created by Crowbar 0.74
version 1
nodes
  0 "bip_pelvis" -1
  1 "bip_spine_0" 0
  2 "bip_spine_1" 1
  3 "bip_spine_2" 2
  4 "bip_spine_3" 3
  5 "bip_neck" 4
  6 "bip_head" 5
  7 "bip_collar_L" 4
  8 "bip_upperArm_L" 7
  9 "bip_lowerArm_L" 8
  10 "bip_hand_L" 9
  11 "bip_collar_R" 4
  12 "bip_upperArm_R" 11
  13 "bip_lowerArm_R" 12
  14 "bip_hand_R" 13
  15 "bip_thumb_0_R" 14
  16 "bip_thumb_1_R" 15
  17 "bip_thumb_2_R" 16
  18 "bip_index_0_R" 14
  19 "bip_index_1_R" 18
  20 "bip_index_2_R" 19
  21 "bip_middle_0_R" 14
  22 "bip_middle_1_R" 21
  23 "bip_middle_2_R" 22
  24 "bip_ring_0_R" 14
  25 "bip_ring_1_R" 24
  26 "bip_ring_2_R" 25
  27 "bip_pinky_0_R" 14
  28 "bip_pinky_1_R" 27
  29 "bip_pinky_2_R" 28
  30 "bip_hip_R" 0
  31 "bip_knee_R" 30
  32 "bip_foot_R" 31
  33 "Rfoot_IK" 31
  34 "bip_hip_L" 0
  35 "bip_knee_L" 34
  36 "bip_foot_L" 35
  37 "Lfoot_IK" 35
end
skeleton
  time 0
    0 0.000069 -4.609375 -5.636719 0.000000 0.000000 -1.570796
    1 0.000000 0.877441 0.942871 0.000000 0.000000 0.000000
    2 0.000000 7.488281 -0.000002 0.000000 0.000000 0.000000
    3 0.000000 5.597656 0.000000 0.000000 0.000000 0.000000
    4 0.000000 0.077209 0.583984 0.000000 0.000000 0.000000
    5 0.000000 2.828125 6.695313 0.000000 0.000000 0.000000
    6 0.000000 1.071289 3.226563 0.000000 0.000000 0.000000
    7 -0.706543 1.146484 11.125000 0.000000 0.000000 0.000000
    8 -1.732422 6.238281 1.516602 0.000000 0.000000 0.000000
    9 0.937012 0.852051 -5.343750 0.000000 0.000000 0.000000
    10 1.784180 -3.632813 -0.326660 0.000000 0.000000 0.000000
    11 0.707520 1.323242 10.914063 0.000000 0.000000 0.000000
    12 -1.152344 -7.968750 2.441406 0.000000 0.000000 0.000000
    13 -10.453125 -0.470947 1.088867 0.000000 0.000000 0.000000
    14 -0.108948 4.792969 -2.285156 0.000000 0.000000 0.000000
    15 0.000000 0.000000 0.000000 0.000000 0.000000 0.000000
    16 0.000000 0.000000 0.000000 0.000000 0.000000 0.000000
    17 0.000000 0.000000 0.000000 0.000000 0.000000 0.000000
    18 0.000000 0.000000 0.000000 0.000000 0.000000 0.000000
    19 0.000000 0.000000 0.000000 0.000000 0.000000 0.000000
    20 0.000000 0.000000 0.000000 0.000000 0.000000 0.000000
    21 0.000000 0.000000 0.000000 0.000000 0.000000 0.000000
    22 0.000000 0.000000 0.000000 0.000000 0.000000 0.000000
    23 0.000000 0.000000 0.000000 0.000000 0.000000 0.000000
    24 0.000000 0.000000 0.000000 0.000000 0.000000 0.000000
    25 0.000000 0.000000 0.000000 0.000000 0.000000 0.000000
    26 0.000000 0.000000 0.000000 0.000000 0.000000 0.000000
    27 0.000000 0.000000 0.000000 0.000000 0.000000 0.000000
    28 0.000000 0.000000 0.000000 0.000000 0.000000 0.000000
    29 0.000000 0.000000 0.000000 0.000000 0.000000 0.000000
    30 3.724609 -1.971680 2.060547 0.000000 0.000000 0.000000
    31 -4.265625 0.017715 -0.024521 0.000000 0.000000 0.000000
    32 -5.375000 1.561523 -0.262939 0.000000 0.000000 0.000000
    33 0.000000 0.000000 0.000000 0.000000 0.000000 0.000000
    34 -3.724609 -1.971680 2.060547 0.000000 0.000000 0.000000
    35 -4.265625 0.036682 -0.008522 0.000000 0.000000 0.000000
    36 -5.265625 0.117126 -1.406250 0.000000 0.000000 0.000000
    37 0.000000 0.000000 0.000000 0.000000 0.000000 0.000000
end
