// Created by Crowbar 0.74
version 1
nodes
  0 "bip_pelvis" -1
  1 "bip_spine_0" 0
  2 "bip_spine_1" 1
  3 "bip_spine_2" 2
  4 "bip_spine_3" 3
  5 "bip_neck" 4
  6 "bip_head" 5
  7 "bip_collar_L" 4
  8 "bip_upperArm_L" 7
  9 "bip_lowerArm_L" 8
  10 "bip_hand_L" 9
  11 "bip_collar_R" 4
  12 "bip_upperArm_R" 11
  13 "bip_lowerArm_R" 12
  14 "bip_hand_R" 13
  15 "bip_thumb_0_R" 14
  16 "bip_thumb_1_R" 15
  17 "bip_thumb_2_R" 16
  18 "bip_index_0_R" 14
  19 "bip_index_1_R" 18
  20 "bip_index_2_R" 19
  21 "bip_middle_0_R" 14
  22 "bip_middle_1_R" 21
  23 "bip_middle_2_R" 22
  24 "bip_ring_0_R" 14
  25 "bip_ring_1_R" 24
  26 "bip_ring_2_R" 25
  27 "bip_pinky_0_R" 14
  28 "bip_pinky_1_R" 27
  29 "bip_pinky_2_R" 28
  30 "bip_hip_R" 0
  31 "bip_knee_R" 30
  32 "bip_foot_R" 31
  33 "Rfoot_IK" 31
  34 "bip_hip_L" 0
  35 "bip_knee_L" 34
  36 "bip_foot_L" 35
  37 "Lfoot_IK" 35
end
skeleton
  time 0
    0 -0.236816 -0.302246 40.687500 -0.872561 -0.175620 0.728383
    1 0.000000 -5.351563 0.000000 -0.256875 -0.149401 -0.375758
    2 0.000002 -7.484375 0.000003 0.108455 0.010395 -0.033895
    3 0.000000 -5.597656 -0.000002 0.268406 0.013411 -0.064163
    4 -0.000002 -6.562500 -0.000004 0.794302 -0.031791 -0.142057
    5 0.000004 -6.554688 0.000000 0.244327 0.657663 -0.225580
    6 -0.000001 -3.251953 0.000004 -1.136902 -0.207549 -0.331702
    7 1.547852 -4.921875 -4.285156 -2.653135 -0.771122 -1.651581
    8 1.189453 -10.468750 -0.305908 1.353245 -0.238019 -0.934258
    9 0.000008 0.000000 15.015625 -0.201992 -0.066164 0.008331
    10 -0.000008 0.000002 8.039063 0.000000 0.000000 0.318946
    11 -1.548828 -5.101563 -4.074219 2.677295 -0.804920 -1.474701
    12 -0.000050 11.984375 0.000031 -0.244511 -0.525395 2.150655
    13 20.093750 -0.000002 0.000000 -1.511818 -0.373669 -0.030833
    14 19.937500 0.000002 -0.000006 -0.361774 -0.658595 -1.476336
    15 2.899811 -0.471063 -4.331224 -0.449459 -0.559870 -0.709308
    16 -0.000027 2.543324 0.000039 0.221027 0.000000 0.000000
    17 0.000065 2.315296 -0.000038 0.100871 0.000000 0.000000
    18 1.551384 3.956605 -3.900833 2.695898 -1.367579 -3.120851
    19 0.000000 2.741438 -0.000006 -0.256295 0.000000 0.000000
    20 0.000010 2.668509 0.000044 -0.190584 0.000000 0.000000
    21 1.401085 3.639791 -1.202138 2.031134 -1.355833 -2.447068
    22 -0.000002 2.810940 0.000000 -0.256295 0.000000 0.000000
    23 -0.000014 2.736195 -0.000031 -0.190584 0.000000 0.000000
    24 1.335670 3.182092 1.418062 0.980181 -1.251584 -1.415242
    25 0.000003 2.663261 0.000050 -0.256295 0.000000 0.000000
    26 -0.000002 2.592527 -0.000038 -0.190584 0.000000 0.000000
    27 1.344780 1.881134 3.809573 1.120331 -1.203081 -1.477345
    28 -0.000002 2.315653 -0.000076 -0.256295 0.000000 0.000000
    29 -0.000015 2.254025 0.000080 -0.190584 0.000000 0.000000
    30 -6.937500 1.999023 -1.013672 2.471511 1.168986 2.496105
    31 20.703125 0.000000 0.000000 0.000000 0.000000 1.055771
    32 18.093750 0.000000 -0.000002 1.573165 -1.288603 1.816423
    33 20.353382 4.314385 -3.818229 0.414888 -1.514505 -2.818948
    34 6.937500 1.999023 -1.013672 2.712146 0.793230 1.247172
    35 20.703125 -0.000002 0.000000 0.000000 0.388233 0.000000
    36 18.093750 0.000000 0.000001 -1.027565 0.189832 1.349996
    37 20.354837 3.810967 -4.133191 -0.833567 0.023142 1.517555
  time 1
    0 -0.236816 -0.302246 40.687500 -0.872561 -0.175620 0.728383
    1 0.000000 -5.351563 0.000000 -0.256875 -0.149401 -0.375758
    2 0.000002 -7.484375 0.000003 0.108455 0.010395 -0.033895
    3 0.000000 -5.597656 -0.000002 0.268406 0.013411 -0.064163
    4 -0.000002 -6.562500 -0.000004 0.794302 -0.031791 -0.142057
    5 0.000004 -6.554688 0.000000 0.244327 0.657663 -0.225580
    6 -0.000001 -3.251953 0.000004 -1.136902 -0.207549 -0.331702
    7 1.547852 -4.921875 -4.285156 -2.653135 -0.771122 -1.651581
    8 1.189453 -10.468750 -0.305908 1.353245 -0.238019 -0.934258
    9 0.000008 0.000000 15.015625 -0.201992 -0.066164 0.008331
    10 -0.000008 0.000002 8.039063 0.000000 0.000000 0.318946
    11 -1.548828 -5.101563 -4.074219 2.677295 -0.804920 -1.474701
    12 -0.000050 11.984375 0.000031 -0.244511 -0.525395 2.150655
    13 20.093750 -0.000002 0.000000 -1.511818 -0.373669 -0.030833
    14 19.937500 0.000002 -0.000006 -0.361774 -0.658595 -1.476336
    15 2.899811 -0.471063 -4.331224 -0.449459 -0.559870 -0.709308
    16 -0.000027 2.543324 0.000039 0.221027 0.000000 0.000000
    17 0.000065 2.315296 -0.000038 0.100871 0.000000 0.000000
    18 1.551384 3.956605 -3.900833 2.695898 -1.367579 -3.120851
    19 0.000000 2.741438 -0.000006 -0.256295 0.000000 0.000000
    20 0.000010 2.668509 0.000044 -0.190584 0.000000 0.000000
    21 1.401085 3.639791 -1.202138 2.031134 -1.355833 -2.447068
    22 -0.000002 2.810940 0.000000 -0.256295 0.000000 0.000000
    23 -0.000014 2.736195 -0.000031 -0.190584 0.000000 0.000000
    24 1.335670 3.182092 1.418062 0.980181 -1.251584 -1.415242
    25 0.000003 2.663261 0.000050 -0.256295 0.000000 0.000000
    26 -0.000002 2.592527 -0.000038 -0.190584 0.000000 0.000000
    27 1.344780 1.881134 3.809573 1.120331 -1.203081 -1.477345
    28 -0.000002 2.315653 -0.000076 -0.256295 0.000000 0.000000
    29 -0.000015 2.254025 0.000080 -0.190584 0.000000 0.000000
    30 -6.937500 1.999023 -1.013672 2.471511 1.168986 2.496105
    31 20.703125 0.000000 0.000000 0.000000 0.000000 1.055771
    32 18.093750 0.000000 -0.000002 1.573165 -1.288603 1.816423
    33 20.353382 4.314385 -3.818229 0.414888 -1.514505 -2.818948
    34 6.937500 1.999023 -1.013672 2.712146 0.793230 1.247172
    35 20.703125 -0.000002 0.000000 0.000000 0.388233 0.000000
    36 18.093750 0.000000 0.000001 -1.027565 0.189832 1.349996
    37 20.354837 3.810967 -4.133191 -0.833567 0.023142 1.517555
  time 2
    0 -0.236816 -0.302246 40.687500 -0.872561 -0.175620 0.728383
    1 0.000000 -5.351563 0.000000 -0.256875 -0.149401 -0.375758
    2 0.000002 -7.484375 0.000003 0.108455 0.010395 -0.033895
    3 0.000000 -5.597656 -0.000002 0.268406 0.013411 -0.064163
    4 -0.000002 -6.562500 -0.000004 0.794302 -0.031791 -0.142057
    5 0.000004 -6.554688 0.000000 0.244327 0.657663 -0.225580
    6 -0.000001 -3.251953 0.000004 -1.136902 -0.207549 -0.331702
    7 1.547852 -4.921875 -4.285156 -2.653135 -0.771122 -1.651581
    8 1.189453 -10.468750 -0.305908 1.353245 -0.238019 -0.934258
    9 0.000008 0.000000 15.015625 -0.201992 -0.066164 0.008331
    10 -0.000008 0.000002 8.039063 0.000000 0.000000 0.318946
    11 -1.548828 -5.101563 -4.074219 2.677295 -0.804920 -1.474701
    12 -0.000050 11.984375 0.000031 -0.244511 -0.525395 2.150655
    13 20.093750 -0.000002 0.000000 -1.511818 -0.373669 -0.030833
    14 19.937500 0.000002 -0.000006 -0.361774 -0.658595 -1.476336
    15 2.899811 -0.471063 -4.331224 -0.449459 -0.559870 -0.709308
    16 -0.000027 2.543324 0.000039 0.221027 0.000000 0.000000
    17 0.000065 2.315296 -0.000038 0.100871 0.000000 0.000000
    18 1.551384 3.956605 -3.900833 2.695898 -1.367579 -3.120851
    19 0.000000 2.741438 -0.000006 -0.256295 0.000000 0.000000
    20 0.000010 2.668509 0.000044 -0.190584 0.000000 0.000000
    21 1.401085 3.639791 -1.202138 2.031134 -1.355833 -2.447068
    22 -0.000002 2.810940 0.000000 -0.256295 0.000000 0.000000
    23 -0.000014 2.736195 -0.000031 -0.190584 0.000000 0.000000
    24 1.335670 3.182092 1.418062 0.980181 -1.251584 -1.415242
    25 0.000003 2.663261 0.000050 -0.256295 0.000000 0.000000
    26 -0.000002 2.592527 -0.000038 -0.190584 0.000000 0.000000
    27 1.344780 1.881134 3.809573 1.120331 -1.203081 -1.477345
    28 -0.000002 2.315653 -0.000076 -0.256295 0.000000 0.000000
    29 -0.000015 2.254025 0.000080 -0.190584 0.000000 0.000000
    30 -6.937500 1.999023 -1.013672 2.471511 1.168986 2.496105
    31 20.703125 0.000000 0.000000 0.000000 0.000000 1.055771
    32 18.093750 0.000000 -0.000002 1.573165 -1.288603 1.816423
    33 20.353382 4.314385 -3.818229 0.414888 -1.514505 -2.818948
    34 6.937500 1.999023 -1.013672 2.712146 0.793230 1.247172
    35 20.703125 -0.000002 0.000000 0.000000 0.388233 0.000000
    36 18.093750 0.000000 0.000001 -1.027565 0.189832 1.349996
    37 20.354837 3.810967 -4.133191 -0.833567 0.023142 1.517555
  time 3
    0 -0.236816 -0.302246 40.687500 -0.872561 -0.175620 0.728383
    1 0.000000 -5.351563 0.000000 -0.256875 -0.149401 -0.375758
    2 0.000002 -7.484375 0.000003 0.108455 0.010395 -0.033895
    3 0.000000 -5.597656 -0.000002 0.268406 0.013411 -0.064163
    4 -0.000002 -6.562500 -0.000004 0.794302 -0.031791 -0.142057
    5 0.000004 -6.554688 0.000000 0.244327 0.657663 -0.225580
    6 -0.000001 -3.251953 0.000004 -1.136902 -0.207549 -0.331702
    7 1.547852 -4.921875 -4.285156 -2.653135 -0.771122 -1.651581
    8 1.189453 -10.468750 -0.305908 1.353245 -0.238019 -0.934258
    9 0.000008 0.000000 15.015625 -0.201992 -0.066164 0.008331
    10 -0.000008 0.000002 8.039063 0.000000 0.000000 0.318946
    11 -1.548828 -5.101563 -4.074219 2.677295 -0.804920 -1.474701
    12 -0.000050 11.984375 0.000031 -0.244511 -0.525395 2.150655
    13 20.093750 -0.000002 0.000000 -1.511818 -0.373669 -0.030833
    14 19.937500 0.000002 -0.000006 -0.361774 -0.658595 -1.476336
    15 2.899811 -0.471063 -4.331224 -0.449459 -0.559870 -0.709308
    16 -0.000027 2.543324 0.000039 0.221027 0.000000 0.000000
    17 0.000065 2.315296 -0.000038 0.100871 0.000000 0.000000
    18 1.551384 3.956605 -3.900833 2.695898 -1.367579 -3.120851
    19 0.000000 2.741438 -0.000006 -0.256295 0.000000 0.000000
    20 0.000010 2.668509 0.000044 -0.190584 0.000000 0.000000
    21 1.401085 3.639791 -1.202138 2.031134 -1.355833 -2.447068
    22 -0.000002 2.810940 0.000000 -0.256295 0.000000 0.000000
    23 -0.000014 2.736195 -0.000031 -0.190584 0.000000 0.000000
    24 1.335670 3.182092 1.418062 0.980181 -1.251584 -1.415242
    25 0.000003 2.663261 0.000050 -0.256295 0.000000 0.000000
    26 -0.000002 2.592527 -0.000038 -0.190584 0.000000 0.000000
    27 1.344780 1.881134 3.809573 1.120331 -1.203081 -1.477345
    28 -0.000002 2.315653 -0.000076 -0.256295 0.000000 0.000000
    29 -0.000015 2.254025 0.000080 -0.190584 0.000000 0.000000
    30 -6.937500 1.999023 -1.013672 2.471511 1.168986 2.496105
    31 20.703125 0.000000 0.000000 0.000000 0.000000 1.055771
    32 18.093750 0.000000 -0.000002 1.573165 -1.288603 1.816423
    33 20.353382 4.314385 -3.818229 0.414888 -1.514505 -2.818948
    34 6.937500 1.999023 -1.013672 2.712146 0.793230 1.247172
    35 20.703125 -0.000002 0.000000 0.000000 0.388233 0.000000
    36 18.093750 0.000000 0.000001 -1.027565 0.189832 1.349996
    37 20.354837 3.810967 -4.133191 -0.833567 0.023142 1.517555
  time 4
    0 -0.236816 -0.302246 40.687500 -0.872561 -0.175620 0.728383
    1 0.000000 -5.351563 0.000000 -0.256875 -0.149401 -0.375758
    2 0.000002 -7.484375 0.000003 0.108455 0.010395 -0.033895
    3 0.000000 -5.597656 -0.000002 0.268406 0.013411 -0.064163
    4 -0.000002 -6.562500 -0.000004 0.794302 -0.031791 -0.142057
    5 0.000004 -6.554688 0.000000 0.244327 0.657663 -0.225580
    6 -0.000001 -3.251953 0.000004 -1.136902 -0.207549 -0.331702
    7 1.547852 -4.921875 -4.285156 -2.653135 -0.771122 -1.651581
    8 1.189453 -10.468750 -0.305908 1.353245 -0.238019 -0.934258
    9 0.000008 0.000000 15.015625 -0.201992 -0.066164 0.008331
    10 -0.000008 0.000002 8.039063 0.000000 0.000000 0.318946
    11 -1.548828 -5.101563 -4.074219 2.677295 -0.804920 -1.474701
    12 -0.000050 11.984375 0.000031 -0.244511 -0.525395 2.150655
    13 20.093750 -0.000002 0.000000 -1.511818 -0.373669 -0.030833
    14 19.937500 0.000002 -0.000006 -0.361774 -0.658595 -1.476336
    15 2.899811 -0.471063 -4.331224 -0.449459 -0.559870 -0.709308
    16 -0.000027 2.543324 0.000039 0.221027 0.000000 0.000000
    17 0.000065 2.315296 -0.000038 0.100871 0.000000 0.000000
    18 1.551384 3.956605 -3.900833 2.695898 -1.367579 -3.120851
    19 0.000000 2.741438 -0.000006 -0.256295 0.000000 0.000000
    20 0.000010 2.668509 0.000044 -0.190584 0.000000 0.000000
    21 1.401085 3.639791 -1.202138 2.031134 -1.355833 -2.447068
    22 -0.000002 2.810940 0.000000 -0.256295 0.000000 0.000000
    23 -0.000014 2.736195 -0.000031 -0.190584 0.000000 0.000000
    24 1.335670 3.182092 1.418062 0.980181 -1.251584 -1.415242
    25 0.000003 2.663261 0.000050 -0.256295 0.000000 0.000000
    26 -0.000002 2.592527 -0.000038 -0.190584 0.000000 0.000000
    27 1.344780 1.881134 3.809573 1.120331 -1.203081 -1.477345
    28 -0.000002 2.315653 -0.000076 -0.256295 0.000000 0.000000
    29 -0.000015 2.254025 0.000080 -0.190584 0.000000 0.000000
    30 -6.937500 1.999023 -1.013672 2.471511 1.168986 2.496105
    31 20.703125 0.000000 0.000000 0.000000 0.000000 1.055771
    32 18.093750 0.000000 -0.000002 1.573165 -1.288603 1.816423
    33 20.353382 4.314385 -3.818229 0.414888 -1.514505 -2.818948
    34 6.937500 1.999023 -1.013672 2.712146 0.793230 1.247172
    35 20.703125 -0.000002 0.000000 0.000000 0.388233 0.000000
    36 18.093750 0.000000 0.000001 -1.027565 0.189832 1.349996
    37 20.354837 3.810967 -4.133191 -0.833567 0.023142 1.517555
  time 5
    0 -0.236816 -0.302246 40.687500 -0.872561 -0.175620 0.728383
    1 0.000000 -5.351563 0.000000 -0.256875 -0.149401 -0.375758
    2 0.000002 -7.484375 0.000003 0.108455 0.010395 -0.033895
    3 0.000000 -5.597656 -0.000002 0.268406 0.013411 -0.064163
    4 -0.000002 -6.562500 -0.000004 0.794302 -0.031791 -0.142057
    5 0.000004 -6.554688 0.000000 0.244327 0.657663 -0.225580
    6 -0.000001 -3.251953 0.000004 -1.136902 -0.207549 -0.331702
    7 1.547852 -4.921875 -4.285156 -2.653135 -0.771122 -1.651581
    8 1.189453 -10.468750 -0.305908 1.353245 -0.238019 -0.934258
    9 0.000008 0.000000 15.015625 -0.201992 -0.066164 0.008331
    10 -0.000008 0.000002 8.039063 0.000000 0.000000 0.318946
    11 -1.548828 -5.101563 -4.074219 2.677295 -0.804920 -1.474701
    12 -0.000050 11.984375 0.000031 -0.244511 -0.525395 2.150655
    13 20.093750 -0.000002 0.000000 -1.511818 -0.373669 -0.030833
    14 19.937500 0.000002 -0.000006 -0.361774 -0.658595 -1.476336
    15 2.899811 -0.471063 -4.331224 -0.449459 -0.559870 -0.709308
    16 -0.000027 2.543324 0.000039 0.221027 0.000000 0.000000
    17 0.000065 2.315296 -0.000038 0.100871 0.000000 0.000000
    18 1.551384 3.956605 -3.900833 2.695898 -1.367579 -3.120851
    19 0.000000 2.741438 -0.000006 -0.256295 0.000000 0.000000
    20 0.000010 2.668509 0.000044 -0.190584 0.000000 0.000000
    21 1.401085 3.639791 -1.202138 2.031134 -1.355833 -2.447068
    22 -0.000002 2.810940 0.000000 -0.256295 0.000000 0.000000
    23 -0.000014 2.736195 -0.000031 -0.190584 0.000000 0.000000
    24 1.335670 3.182092 1.418062 0.980181 -1.251584 -1.415242
    25 0.000003 2.663261 0.000050 -0.256295 0.000000 0.000000
    26 -0.000002 2.592527 -0.000038 -0.190584 0.000000 0.000000
    27 1.344780 1.881134 3.809573 1.120331 -1.203081 -1.477345
    28 -0.000002 2.315653 -0.000076 -0.256295 0.000000 0.000000
    29 -0.000015 2.254025 0.000080 -0.190584 0.000000 0.000000
    30 -6.937500 1.999023 -1.013672 2.471511 1.168986 2.496105
    31 20.703125 0.000000 0.000000 0.000000 0.000000 1.055771
    32 18.093750 0.000000 -0.000002 1.573165 -1.288603 1.816423
    33 20.353382 4.314385 -3.818229 0.414888 -1.514505 -2.818948
    34 6.937500 1.999023 -1.013672 2.712146 0.793230 1.247172
    35 20.703125 -0.000002 0.000000 0.000000 0.388233 0.000000
    36 18.093750 0.000000 0.000001 -1.027565 0.189832 1.349996
    37 20.354837 3.810967 -4.133191 -0.833567 0.023142 1.517555
  time 6
    0 -0.236816 -0.302246 40.687500 -0.872561 -0.175620 0.728383
    1 0.000000 -5.351563 0.000000 -0.256875 -0.149401 -0.375758
    2 0.000002 -7.484375 0.000003 0.108455 0.010395 -0.033895
    3 0.000000 -5.597656 -0.000002 0.268406 0.013411 -0.064163
    4 -0.000002 -6.562500 -0.000004 0.794302 -0.031791 -0.142057
    5 0.000004 -6.554688 0.000000 0.244327 0.657663 -0.225580
    6 -0.000001 -3.251953 0.000004 -1.136902 -0.207549 -0.331702
    7 1.547852 -4.921875 -4.285156 -2.653135 -0.771122 -1.651581
    8 1.189453 -10.468750 -0.305908 1.353245 -0.238019 -0.934258
    9 0.000008 0.000000 15.015625 -0.201992 -0.066164 0.008331
    10 -0.000008 0.000002 8.039063 0.000000 0.000000 0.318946
    11 -1.548828 -5.101563 -4.074219 2.677295 -0.804920 -1.474701
    12 -0.000050 11.984375 0.000031 -0.244511 -0.525395 2.150655
    13 20.093750 -0.000002 0.000000 -1.511818 -0.373669 -0.030833
    14 19.937500 0.000002 -0.000006 -0.361774 -0.658595 -1.476336
    15 2.899811 -0.471063 -4.331224 -0.449459 -0.559870 -0.709308
    16 -0.000027 2.543324 0.000039 0.221027 0.000000 0.000000
    17 0.000065 2.315296 -0.000038 0.100871 0.000000 0.000000
    18 1.551384 3.956605 -3.900833 2.695898 -1.367579 -3.120851
    19 0.000000 2.741438 -0.000006 -0.256295 0.000000 0.000000
    20 0.000010 2.668509 0.000044 -0.190584 0.000000 0.000000
    21 1.401085 3.639791 -1.202138 2.031134 -1.355833 -2.447068
    22 -0.000002 2.810940 0.000000 -0.256295 0.000000 0.000000
    23 -0.000014 2.736195 -0.000031 -0.190584 0.000000 0.000000
    24 1.335670 3.182092 1.418062 0.980181 -1.251584 -1.415242
    25 0.000003 2.663261 0.000050 -0.256295 0.000000 0.000000
    26 -0.000002 2.592527 -0.000038 -0.190584 0.000000 0.000000
    27 1.344780 1.881134 3.809573 1.120331 -1.203081 -1.477345
    28 -0.000002 2.315653 -0.000076 -0.256295 0.000000 0.000000
    29 -0.000015 2.254025 0.000080 -0.190584 0.000000 0.000000
    30 -6.937500 1.999023 -1.013672 2.471511 1.168986 2.496105
    31 20.703125 0.000000 0.000000 0.000000 0.000000 1.055771
    32 18.093750 0.000000 -0.000002 1.573165 -1.288603 1.816423
    33 20.353382 4.314385 -3.818229 0.414888 -1.514505 -2.818948
    34 6.937500 1.999023 -1.013672 2.712146 0.793230 1.247172
    35 20.703125 -0.000002 0.000000 0.000000 0.388233 0.000000
    36 18.093750 0.000000 0.000001 -1.027565 0.189832 1.349996
    37 20.354837 3.810967 -4.133191 -0.833567 0.023142 1.517555
  time 7
    0 -0.236816 -0.302246 40.687500 -0.872561 -0.175620 0.728383
    1 0.000000 -5.351563 0.000000 -0.256875 -0.149401 -0.375758
    2 0.000002 -7.484375 0.000003 0.108455 0.010395 -0.033895
    3 0.000000 -5.597656 -0.000002 0.268406 0.013411 -0.064163
    4 -0.000002 -6.562500 -0.000004 0.794302 -0.031791 -0.142057
    5 0.000004 -6.554688 0.000000 0.244327 0.657663 -0.225580
    6 -0.000001 -3.251953 0.000004 -1.136902 -0.207549 -0.331702
    7 1.547852 -4.921875 -4.285156 -2.653135 -0.771122 -1.651581
    8 1.189453 -10.468750 -0.305908 1.353245 -0.238019 -0.934258
    9 0.000008 0.000000 15.015625 -0.201992 -0.066164 0.008331
    10 -0.000008 0.000002 8.039063 0.000000 0.000000 0.318946
    11 -1.548828 -5.101563 -4.074219 2.677295 -0.804920 -1.474701
    12 -0.000050 11.984375 0.000031 -0.244511 -0.525395 2.150655
    13 20.093750 -0.000002 0.000000 -1.511818 -0.373669 -0.030833
    14 19.937500 0.000002 -0.000006 -0.361774 -0.658595 -1.476336
    15 2.899811 -0.471063 -4.331224 -0.449459 -0.559870 -0.709308
    16 -0.000027 2.543324 0.000039 0.221027 0.000000 0.000000
    17 0.000065 2.315296 -0.000038 0.100871 0.000000 0.000000
    18 1.551384 3.956605 -3.900833 2.695898 -1.367579 -3.120851
    19 0.000000 2.741438 -0.000006 -0.256295 0.000000 0.000000
    20 0.000010 2.668509 0.000044 -0.190584 0.000000 0.000000
    21 1.401085 3.639791 -1.202138 2.031134 -1.355833 -2.447068
    22 -0.000002 2.810940 0.000000 -0.256295 0.000000 0.000000
    23 -0.000014 2.736195 -0.000031 -0.190584 0.000000 0.000000
    24 1.335670 3.182092 1.418062 0.980181 -1.251584 -1.415242
    25 0.000003 2.663261 0.000050 -0.256295 0.000000 0.000000
    26 -0.000002 2.592527 -0.000038 -0.190584 0.000000 0.000000
    27 1.344780 1.881134 3.809573 1.120331 -1.203081 -1.477345
    28 -0.000002 2.315653 -0.000076 -0.256295 0.000000 0.000000
    29 -0.000015 2.254025 0.000080 -0.190584 0.000000 0.000000
    30 -6.937500 1.999023 -1.013672 2.471511 1.168986 2.496105
    31 20.703125 0.000000 0.000000 0.000000 0.000000 1.055771
    32 18.093750 0.000000 -0.000002 1.573165 -1.288603 1.816423
    33 20.353382 4.314385 -3.818229 0.414888 -1.514505 -2.818948
    34 6.937500 1.999023 -1.013672 2.712146 0.793230 1.247172
    35 20.703125 -0.000002 0.000000 0.000000 0.388233 0.000000
    36 18.093750 0.000000 0.000001 -1.027565 0.189832 1.349996
    37 20.354837 3.810967 -4.133191 -0.833567 0.023142 1.517555
  time 8
    0 -0.236816 -0.302246 40.687500 -0.872561 -0.175620 0.728383
    1 0.000000 -5.351563 0.000000 -0.256875 -0.149401 -0.375758
    2 0.000002 -7.484375 0.000003 0.108455 0.010395 -0.033895
    3 0.000000 -5.597656 -0.000002 0.268406 0.013411 -0.064163
    4 -0.000002 -6.562500 -0.000004 0.794302 -0.031791 -0.142057
    5 0.000004 -6.554688 0.000000 0.244327 0.657663 -0.225580
    6 -0.000001 -3.251953 0.000004 -1.136902 -0.207549 -0.331702
    7 1.547852 -4.921875 -4.285156 -2.653135 -0.771122 -1.651581
    8 1.189453 -10.468750 -0.305908 1.353245 -0.238019 -0.934258
    9 0.000008 0.000000 15.015625 -0.201992 -0.066164 0.008331
    10 -0.000008 0.000002 8.039063 0.000000 0.000000 0.318946
    11 -1.548828 -5.101563 -4.074219 2.677295 -0.804920 -1.474701
    12 -0.000050 11.984375 0.000031 -0.244511 -0.525395 2.150655
    13 20.093750 -0.000002 0.000000 -1.511818 -0.373669 -0.030833
    14 19.937500 0.000002 -0.000006 -0.361774 -0.658595 -1.476336
    15 2.899811 -0.471063 -4.331224 -0.449459 -0.559870 -0.709308
    16 -0.000027 2.543324 0.000039 0.221027 0.000000 0.000000
    17 0.000065 2.315296 -0.000038 0.100871 0.000000 0.000000
    18 1.551384 3.956605 -3.900833 2.695898 -1.367579 -3.120851
    19 0.000000 2.741438 -0.000006 -0.256295 0.000000 0.000000
    20 0.000010 2.668509 0.000044 -0.190584 0.000000 0.000000
    21 1.401085 3.639791 -1.202138 2.031134 -1.355833 -2.447068
    22 -0.000002 2.810940 0.000000 -0.256295 0.000000 0.000000
    23 -0.000014 2.736195 -0.000031 -0.190584 0.000000 0.000000
    24 1.335670 3.182092 1.418062 0.980181 -1.251584 -1.415242
    25 0.000003 2.663261 0.000050 -0.256295 0.000000 0.000000
    26 -0.000002 2.592527 -0.000038 -0.190584 0.000000 0.000000
    27 1.344780 1.881134 3.809573 1.120331 -1.203081 -1.477345
    28 -0.000002 2.315653 -0.000076 -0.256295 0.000000 0.000000
    29 -0.000015 2.254025 0.000080 -0.190584 0.000000 0.000000
    30 -6.937500 1.999023 -1.013672 2.471511 1.168986 2.496105
    31 20.703125 0.000000 0.000000 0.000000 0.000000 1.055771
    32 18.093750 0.000000 -0.000002 1.573165 -1.288603 1.816423
    33 20.353382 4.314385 -3.818229 0.414888 -1.514505 -2.818948
    34 6.937500 1.999023 -1.013672 2.712146 0.793230 1.247172
    35 20.703125 -0.000002 0.000000 0.000000 0.388233 0.000000
    36 18.093750 0.000000 0.000001 -1.027565 0.189832 1.349996
    37 20.354837 3.810967 -4.133191 -0.833567 0.023142 1.517555
  time 9
    0 -0.236816 -0.302246 40.687500 -0.872561 -0.175620 0.728383
    1 0.000000 -5.351563 0.000000 -0.256875 -0.149401 -0.375758
    2 0.000002 -7.484375 0.000003 0.108455 0.010395 -0.033895
    3 0.000000 -5.597656 -0.000002 0.268406 0.013411 -0.064163
    4 -0.000002 -6.562500 -0.000004 0.794302 -0.031791 -0.142057
    5 0.000004 -6.554688 0.000000 0.244327 0.657663 -0.225580
    6 -0.000001 -3.251953 0.000004 -1.136902 -0.207549 -0.331702
    7 1.547852 -4.921875 -4.285156 -2.653135 -0.771122 -1.651581
    8 1.189453 -10.468750 -0.305908 1.353245 -0.238019 -0.934258
    9 0.000008 0.000000 15.015625 -0.201992 -0.066164 0.008331
    10 -0.000008 0.000002 8.039063 0.000000 0.000000 0.318946
    11 -1.548828 -5.101563 -4.074219 2.677295 -0.804920 -1.474701
    12 -0.000050 11.984375 0.000031 -0.244511 -0.525395 2.150655
    13 20.093750 -0.000002 0.000000 -1.511818 -0.373669 -0.030833
    14 19.937500 0.000002 -0.000006 -0.361774 -0.658595 -1.476336
    15 2.899811 -0.471063 -4.331224 -0.449459 -0.559870 -0.709308
    16 -0.000027 2.543324 0.000039 0.221027 0.000000 0.000000
    17 0.000065 2.315296 -0.000038 0.100871 0.000000 0.000000
    18 1.551384 3.956605 -3.900833 2.695898 -1.367579 -3.120851
    19 0.000000 2.741438 -0.000006 -0.256295 0.000000 0.000000
    20 0.000010 2.668509 0.000044 -0.190584 0.000000 0.000000
    21 1.401085 3.639791 -1.202138 2.031134 -1.355833 -2.447068
    22 -0.000002 2.810940 0.000000 -0.256295 0.000000 0.000000
    23 -0.000014 2.736195 -0.000031 -0.190584 0.000000 0.000000
    24 1.335670 3.182092 1.418062 0.980181 -1.251584 -1.415242
    25 0.000003 2.663261 0.000050 -0.256295 0.000000 0.000000
    26 -0.000002 2.592527 -0.000038 -0.190584 0.000000 0.000000
    27 1.344780 1.881134 3.809573 1.120331 -1.203081 -1.477345
    28 -0.000002 2.315653 -0.000076 -0.256295 0.000000 0.000000
    29 -0.000015 2.254025 0.000080 -0.190584 0.000000 0.000000
    30 -6.937500 1.999023 -1.013672 2.471511 1.168986 2.496105
    31 20.703125 0.000000 0.000000 0.000000 0.000000 1.055771
    32 18.093750 0.000000 -0.000002 1.573165 -1.288603 1.816423
    33 20.353382 4.314385 -3.818229 0.414888 -1.514505 -2.818948
    34 6.937500 1.999023 -1.013672 2.712146 0.793230 1.247172
    35 20.703125 -0.000002 0.000000 0.000000 0.388233 0.000000
    36 18.093750 0.000000 0.000001 -1.027565 0.189832 1.349996
    37 20.354837 3.810967 -4.133191 -0.833567 0.023142 1.517555
  time 10
    0 -0.236816 -0.302246 40.687500 -0.872561 -0.175620 0.728383
    1 0.000000 -5.351563 0.000000 -0.256875 -0.149401 -0.375758
    2 0.000002 -7.484375 0.000003 0.108455 0.010395 -0.033895
    3 0.000000 -5.597656 -0.000002 0.268406 0.013411 -0.064163
    4 -0.000002 -6.562500 -0.000004 0.794302 -0.031791 -0.142057
    5 0.000004 -6.554688 0.000000 0.244327 0.657663 -0.225580
    6 -0.000001 -3.251953 0.000004 -1.136902 -0.207549 -0.331702
    7 1.547852 -4.921875 -4.285156 -2.653135 -0.771122 -1.651581
    8 1.189453 -10.468750 -0.305908 1.353245 -0.238019 -0.934258
    9 0.000008 0.000000 15.015625 -0.201992 -0.066164 0.008331
    10 -0.000008 0.000002 8.039063 0.000000 0.000000 0.318946
    11 -1.548828 -5.101563 -4.074219 2.677295 -0.804920 -1.474701
    12 -0.000050 11.984375 0.000031 -0.244511 -0.525395 2.150655
    13 20.093750 -0.000002 0.000000 -1.511818 -0.373669 -0.030833
    14 19.937500 0.000002 -0.000006 -0.361774 -0.658595 -1.476336
    15 2.899811 -0.471063 -4.331224 -0.449459 -0.559870 -0.709308
    16 -0.000027 2.543324 0.000039 0.221027 0.000000 0.000000
    17 0.000065 2.315296 -0.000038 0.100871 0.000000 0.000000
    18 1.551384 3.956605 -3.900833 2.695898 -1.367579 -3.120851
    19 0.000000 2.741438 -0.000006 -0.256295 0.000000 0.000000
    20 0.000010 2.668509 0.000044 -0.190584 0.000000 0.000000
    21 1.401085 3.639791 -1.202138 2.031134 -1.355833 -2.447068
    22 -0.000002 2.810940 0.000000 -0.256295 0.000000 0.000000
    23 -0.000014 2.736195 -0.000031 -0.190584 0.000000 0.000000
    24 1.335670 3.182092 1.418062 0.980181 -1.251584 -1.415242
    25 0.000003 2.663261 0.000050 -0.256295 0.000000 0.000000
    26 -0.000002 2.592527 -0.000038 -0.190584 0.000000 0.000000
    27 1.344780 1.881134 3.809573 1.120331 -1.203081 -1.477345
    28 -0.000002 2.315653 -0.000076 -0.256295 0.000000 0.000000
    29 -0.000015 2.254025 0.000080 -0.190584 0.000000 0.000000
    30 -6.937500 1.999023 -1.013672 2.471511 1.168986 2.496105
    31 20.703125 0.000000 0.000000 0.000000 0.000000 1.055771
    32 18.093750 0.000000 -0.000002 1.573165 -1.288603 1.816423
    33 20.353382 4.314385 -3.818229 0.414888 -1.514505 -2.818948
    34 6.937500 1.999023 -1.013672 2.712146 0.793230 1.247172
    35 20.703125 -0.000002 0.000000 0.000000 0.388233 0.000000
    36 18.093750 0.000000 0.000001 -1.027565 0.189832 1.349996
    37 20.354837 3.810967 -4.133191 -0.833567 0.023142 1.517555
  time 11
    0 -0.236816 -0.302246 40.687500 -0.872561 -0.175620 0.728383
    1 0.000000 -5.351563 0.000000 -0.256875 -0.149401 -0.375758
    2 0.000002 -7.484375 0.000003 0.108455 0.010395 -0.033895
    3 0.000000 -5.597656 -0.000002 0.268406 0.013411 -0.064163
    4 -0.000002 -6.562500 -0.000004 0.794302 -0.031791 -0.142057
    5 0.000004 -6.554688 0.000000 0.244327 0.657663 -0.225580
    6 -0.000001 -3.251953 0.000004 -1.136902 -0.207549 -0.331702
    7 1.547852 -4.921875 -4.285156 -2.653135 -0.771122 -1.651581
    8 1.189453 -10.468750 -0.305908 1.353245 -0.238019 -0.934258
    9 0.000008 0.000000 15.015625 -0.201992 -0.066164 0.008331
    10 -0.000008 0.000002 8.039063 0.000000 0.000000 0.318946
    11 -1.548828 -5.101563 -4.074219 2.677295 -0.804920 -1.474701
    12 -0.000050 11.984375 0.000031 -0.244511 -0.525395 2.150655
    13 20.093750 -0.000002 0.000000 -1.511818 -0.373669 -0.030833
    14 19.937500 0.000002 -0.000006 -0.361774 -0.658595 -1.476336
    15 2.899811 -0.471063 -4.331224 -0.449459 -0.559870 -0.709308
    16 -0.000027 2.543324 0.000039 0.221027 0.000000 0.000000
    17 0.000065 2.315296 -0.000038 0.100871 0.000000 0.000000
    18 1.551384 3.956605 -3.900833 2.695898 -1.367579 -3.120851
    19 0.000000 2.741438 -0.000006 -0.256295 0.000000 0.000000
    20 0.000010 2.668509 0.000044 -0.190584 0.000000 0.000000
    21 1.401085 3.639791 -1.202138 2.031134 -1.355833 -2.447068
    22 -0.000002 2.810940 0.000000 -0.256295 0.000000 0.000000
    23 -0.000014 2.736195 -0.000031 -0.190584 0.000000 0.000000
    24 1.335670 3.182092 1.418062 0.980181 -1.251584 -1.415242
    25 0.000003 2.663261 0.000050 -0.256295 0.000000 0.000000
    26 -0.000002 2.592527 -0.000038 -0.190584 0.000000 0.000000
    27 1.344780 1.881134 3.809573 1.120331 -1.203081 -1.477345
    28 -0.000002 2.315653 -0.000076 -0.256295 0.000000 0.000000
    29 -0.000015 2.254025 0.000080 -0.190584 0.000000 0.000000
    30 -6.937500 1.999023 -1.013672 2.471511 1.168986 2.496105
    31 20.703125 0.000000 0.000000 0.000000 0.000000 1.055771
    32 18.093750 0.000000 -0.000002 1.573165 -1.288603 1.816423
    33 20.353382 4.314385 -3.818229 0.414888 -1.514505 -2.818948
    34 6.937500 1.999023 -1.013672 2.712146 0.793230 1.247172
    35 20.703125 -0.000002 0.000000 0.000000 0.388233 0.000000
    36 18.093750 0.000000 0.000001 -1.027565 0.189832 1.349996
    37 20.354837 3.810967 -4.133191 -0.833567 0.023142 1.517555
  time 12
    0 -0.236816 -0.302246 40.687500 -0.872561 -0.175620 0.728383
    1 0.000000 -5.351563 0.000000 -0.256875 -0.149401 -0.375758
    2 0.000002 -7.484375 0.000003 0.108455 0.010395 -0.033895
    3 0.000000 -5.597656 -0.000002 0.268406 0.013411 -0.064163
    4 -0.000002 -6.562500 -0.000004 0.794302 -0.031791 -0.142057
    5 0.000004 -6.554688 0.000000 0.244327 0.657663 -0.225580
    6 -0.000001 -3.251953 0.000004 -1.136902 -0.207549 -0.331702
    7 1.547852 -4.921875 -4.285156 -2.653135 -0.771122 -1.651581
    8 1.189453 -10.468750 -0.305908 1.353245 -0.238019 -0.934258
    9 0.000008 0.000000 15.015625 -0.201992 -0.066164 0.008331
    10 -0.000008 0.000002 8.039063 0.000000 0.000000 0.318946
    11 -1.548828 -5.101563 -4.074219 2.677295 -0.804920 -1.474701
    12 -0.000050 11.984375 0.000031 -0.244511 -0.525395 2.150655
    13 20.093750 -0.000002 0.000000 -1.511818 -0.373669 -0.030833
    14 19.937500 0.000002 -0.000006 -0.361774 -0.658595 -1.476336
    15 2.899811 -0.471063 -4.331224 -0.449459 -0.559870 -0.709308
    16 -0.000027 2.543324 0.000039 0.221027 0.000000 0.000000
    17 0.000065 2.315296 -0.000038 0.100871 0.000000 0.000000
    18 1.551384 3.956605 -3.900833 2.695898 -1.367579 -3.120851
    19 0.000000 2.741438 -0.000006 -0.256295 0.000000 0.000000
    20 0.000010 2.668509 0.000044 -0.190584 0.000000 0.000000
    21 1.401085 3.639791 -1.202138 2.031134 -1.355833 -2.447068
    22 -0.000002 2.810940 0.000000 -0.256295 0.000000 0.000000
    23 -0.000014 2.736195 -0.000031 -0.190584 0.000000 0.000000
    24 1.335670 3.182092 1.418062 0.980181 -1.251584 -1.415242
    25 0.000003 2.663261 0.000050 -0.256295 0.000000 0.000000
    26 -0.000002 2.592527 -0.000038 -0.190584 0.000000 0.000000
    27 1.344780 1.881134 3.809573 1.120331 -1.203081 -1.477345
    28 -0.000002 2.315653 -0.000076 -0.256295 0.000000 0.000000
    29 -0.000015 2.254025 0.000080 -0.190584 0.000000 0.000000
    30 -6.937500 1.999023 -1.013672 2.471511 1.168986 2.496105
    31 20.703125 0.000000 0.000000 0.000000 0.000000 1.055771
    32 18.093750 0.000000 -0.000002 1.573165 -1.288603 1.816423
    33 20.353382 4.314385 -3.818229 0.414888 -1.514505 -2.818948
    34 6.937500 1.999023 -1.013672 2.712146 0.793230 1.247172
    35 20.703125 -0.000002 0.000000 0.000000 0.388233 0.000000
    36 18.093750 0.000000 0.000001 -1.027565 0.189832 1.349996
    37 20.354837 3.810967 -4.133191 -0.833567 0.023142 1.517555
  time 13
    0 -0.236816 -0.302246 40.687500 -0.872561 -0.175620 0.728383
    1 0.000000 -5.351563 0.000000 -0.256875 -0.149401 -0.375758
    2 0.000002 -7.484375 0.000003 0.108455 0.010395 -0.033895
    3 0.000000 -5.597656 -0.000002 0.268406 0.013411 -0.064163
    4 -0.000002 -6.562500 -0.000004 0.794302 -0.031791 -0.142057
    5 0.000004 -6.554688 0.000000 0.244327 0.657663 -0.225580
    6 -0.000001 -3.251953 0.000004 -1.136902 -0.207549 -0.331702
    7 1.547852 -4.921875 -4.285156 -2.653135 -0.771122 -1.651581
    8 1.189453 -10.468750 -0.305908 1.353245 -0.238019 -0.934258
    9 0.000008 0.000000 15.015625 -0.201992 -0.066164 0.008331
    10 -0.000008 0.000002 8.039063 0.000000 0.000000 0.318946
    11 -1.548828 -5.101563 -4.074219 2.677295 -0.804920 -1.474701
    12 -0.000050 11.984375 0.000031 -0.244511 -0.525395 2.150655
    13 20.093750 -0.000002 0.000000 -1.511818 -0.373669 -0.030833
    14 19.937500 0.000002 -0.000006 -0.361774 -0.658595 -1.476336
    15 2.899811 -0.471063 -4.331224 -0.449459 -0.559870 -0.709308
    16 -0.000027 2.543324 0.000039 0.221027 0.000000 0.000000
    17 0.000065 2.315296 -0.000038 0.100871 0.000000 0.000000
    18 1.551384 3.956605 -3.900833 2.695898 -1.367579 -3.120851
    19 0.000000 2.741438 -0.000006 -0.256295 0.000000 0.000000
    20 0.000010 2.668509 0.000044 -0.190584 0.000000 0.000000
    21 1.401085 3.639791 -1.202138 2.031134 -1.355833 -2.447068
    22 -0.000002 2.810940 0.000000 -0.256295 0.000000 0.000000
    23 -0.000014 2.736195 -0.000031 -0.190584 0.000000 0.000000
    24 1.335670 3.182092 1.418062 0.980181 -1.251584 -1.415242
    25 0.000003 2.663261 0.000050 -0.256295 0.000000 0.000000
    26 -0.000002 2.592527 -0.000038 -0.190584 0.000000 0.000000
    27 1.344780 1.881134 3.809573 1.120331 -1.203081 -1.477345
    28 -0.000002 2.315653 -0.000076 -0.256295 0.000000 0.000000
    29 -0.000015 2.254025 0.000080 -0.190584 0.000000 0.000000
    30 -6.937500 1.999023 -1.013672 2.471511 1.168986 2.496105
    31 20.703125 0.000000 0.000000 0.000000 0.000000 1.055771
    32 18.093750 0.000000 -0.000002 1.573165 -1.288603 1.816423
    33 20.353382 4.314385 -3.818229 0.414888 -1.514505 -2.818948
    34 6.937500 1.999023 -1.013672 2.712146 0.793230 1.247172
    35 20.703125 -0.000002 0.000000 0.000000 0.388233 0.000000
    36 18.093750 0.000000 0.000001 -1.027565 0.189832 1.349996
    37 20.354837 3.810967 -4.133191 -0.833567 0.023142 1.517555
  time 14
    0 -0.236816 -0.302246 40.687500 -0.872561 -0.175620 0.728383
    1 0.000000 -5.351563 0.000000 -0.256875 -0.149401 -0.375758
    2 0.000002 -7.484375 0.000003 0.108455 0.010395 -0.033895
    3 0.000000 -5.597656 -0.000002 0.268406 0.013411 -0.064163
    4 -0.000002 -6.562500 -0.000004 0.794302 -0.031791 -0.142057
    5 0.000004 -6.554688 0.000000 0.244327 0.657663 -0.225580
    6 -0.000001 -3.251953 0.000004 -1.136902 -0.207549 -0.331702
    7 1.547852 -4.921875 -4.285156 -2.653135 -0.771122 -1.651581
    8 1.189453 -10.468750 -0.305908 1.353245 -0.238019 -0.934258
    9 0.000008 0.000000 15.015625 -0.201992 -0.066164 0.008331
    10 -0.000008 0.000002 8.039063 0.000000 0.000000 0.318946
    11 -1.548828 -5.101563 -4.074219 2.677295 -0.804920 -1.474701
    12 -0.000050 11.984375 0.000031 -0.244511 -0.525395 2.150655
    13 20.093750 -0.000002 0.000000 -1.511818 -0.373669 -0.030833
    14 19.937500 0.000002 -0.000006 -0.361774 -0.658595 -1.476336
    15 2.899811 -0.471063 -4.331224 -0.449459 -0.559870 -0.709308
    16 -0.000027 2.543324 0.000039 0.221027 0.000000 0.000000
    17 0.000065 2.315296 -0.000038 0.100871 0.000000 0.000000
    18 1.551384 3.956605 -3.900833 2.695898 -1.367579 -3.120851
    19 0.000000 2.741438 -0.000006 -0.256295 0.000000 0.000000
    20 0.000010 2.668509 0.000044 -0.190584 0.000000 0.000000
    21 1.401085 3.639791 -1.202138 2.031134 -1.355833 -2.447068
    22 -0.000002 2.810940 0.000000 -0.256295 0.000000 0.000000
    23 -0.000014 2.736195 -0.000031 -0.190584 0.000000 0.000000
    24 1.335670 3.182092 1.418062 0.980181 -1.251584 -1.415242
    25 0.000003 2.663261 0.000050 -0.256295 0.000000 0.000000
    26 -0.000002 2.592527 -0.000038 -0.190584 0.000000 0.000000
    27 1.344780 1.881134 3.809573 1.120331 -1.203081 -1.477345
    28 -0.000002 2.315653 -0.000076 -0.256295 0.000000 0.000000
    29 -0.000015 2.254025 0.000080 -0.190584 0.000000 0.000000
    30 -6.937500 1.999023 -1.013672 2.471511 1.168986 2.496105
    31 20.703125 0.000000 0.000000 0.000000 0.000000 1.055771
    32 18.093750 0.000000 -0.000002 1.573165 -1.288603 1.816423
    33 20.353382 4.314385 -3.818229 0.414888 -1.514505 -2.818948
    34 6.937500 1.999023 -1.013672 2.712146 0.793230 1.247172
    35 20.703125 -0.000002 0.000000 0.000000 0.388233 0.000000
    36 18.093750 0.000000 0.000001 -1.027565 0.189832 1.349996
    37 20.354837 3.810967 -4.133191 -0.833567 0.023142 1.517555
  time 15
    0 -0.236816 -0.302246 40.687500 -0.872561 -0.175620 0.728383
    1 0.000000 -5.351563 0.000000 -0.256875 -0.149401 -0.375758
    2 0.000002 -7.484375 0.000003 0.108455 0.010395 -0.033895
    3 0.000000 -5.597656 -0.000002 0.268406 0.013411 -0.064163
    4 -0.000002 -6.562500 -0.000004 0.794302 -0.031791 -0.142057
    5 0.000004 -6.554688 0.000000 0.244327 0.657663 -0.225580
    6 -0.000001 -3.251953 0.000004 -1.136902 -0.207549 -0.331702
    7 1.547852 -4.921875 -4.285156 -2.653135 -0.771122 -1.651581
    8 1.189453 -10.468750 -0.305908 1.353245 -0.238019 -0.934258
    9 0.000008 0.000000 15.015625 -0.201992 -0.066164 0.008331
    10 -0.000008 0.000002 8.039063 0.000000 0.000000 0.318946
    11 -1.548828 -5.101563 -4.074219 2.677295 -0.804920 -1.474701
    12 -0.000050 11.984375 0.000031 -0.244511 -0.525395 2.150655
    13 20.093750 -0.000002 0.000000 -1.511818 -0.373669 -0.030833
    14 19.937500 0.000002 -0.000006 -0.361774 -0.658595 -1.476336
    15 2.899811 -0.471063 -4.331224 -0.449459 -0.559870 -0.709308
    16 -0.000027 2.543324 0.000039 0.221027 0.000000 0.000000
    17 0.000065 2.315296 -0.000038 0.100871 0.000000 0.000000
    18 1.551384 3.956605 -3.900833 2.695898 -1.367579 -3.120851
    19 0.000000 2.741438 -0.000006 -0.256295 0.000000 0.000000
    20 0.000010 2.668509 0.000044 -0.190584 0.000000 0.000000
    21 1.401085 3.639791 -1.202138 2.031134 -1.355833 -2.447068
    22 -0.000002 2.810940 0.000000 -0.256295 0.000000 0.000000
    23 -0.000014 2.736195 -0.000031 -0.190584 0.000000 0.000000
    24 1.335670 3.182092 1.418062 0.980181 -1.251584 -1.415242
    25 0.000003 2.663261 0.000050 -0.256295 0.000000 0.000000
    26 -0.000002 2.592527 -0.000038 -0.190584 0.000000 0.000000
    27 1.344780 1.881134 3.809573 1.120331 -1.203081 -1.477345
    28 -0.000002 2.315653 -0.000076 -0.256295 0.000000 0.000000
    29 -0.000015 2.254025 0.000080 -0.190584 0.000000 0.000000
    30 -6.937500 1.999023 -1.013672 2.471511 1.168986 2.496105
    31 20.703125 0.000000 0.000000 0.000000 0.000000 1.055771
    32 18.093750 0.000000 -0.000002 1.573165 -1.288603 1.816423
    33 20.353382 4.314385 -3.818229 0.414888 -1.514505 -2.818948
    34 6.937500 1.999023 -1.013672 2.712146 0.793230 1.247172
    35 20.703125 -0.000002 0.000000 0.000000 0.388233 0.000000
    36 18.093750 0.000000 0.000001 -1.027565 0.189832 1.349996
    37 20.354837 3.810967 -4.133191 -0.833567 0.023142 1.517555
  time 16
    0 -0.236816 -0.302246 40.687500 -0.872561 -0.175620 0.728383
    1 0.000000 -5.351563 0.000000 -0.256875 -0.149401 -0.375758
    2 0.000002 -7.484375 0.000003 0.108455 0.010395 -0.033895
    3 0.000000 -5.597656 -0.000002 0.268406 0.013411 -0.064163
    4 -0.000002 -6.562500 -0.000004 0.794302 -0.031791 -0.142057
    5 0.000004 -6.554688 0.000000 0.244327 0.657663 -0.225580
    6 -0.000001 -3.251953 0.000004 -1.136902 -0.207549 -0.331702
    7 1.547852 -4.921875 -4.285156 -2.653135 -0.771122 -1.651581
    8 1.189453 -10.468750 -0.305908 1.353245 -0.238019 -0.934258
    9 0.000008 0.000000 15.015625 -0.201992 -0.066164 0.008331
    10 -0.000008 0.000002 8.039063 0.000000 0.000000 0.318946
    11 -1.548828 -5.101563 -4.074219 2.677295 -0.804920 -1.474701
    12 -0.000050 11.984375 0.000031 -0.244511 -0.525395 2.150655
    13 20.093750 -0.000002 0.000000 -1.511818 -0.373669 -0.030833
    14 19.937500 0.000002 -0.000006 -0.361774 -0.658595 -1.476336
    15 2.899811 -0.471063 -4.331224 -0.449459 -0.559870 -0.709308
    16 -0.000027 2.543324 0.000039 0.221027 0.000000 0.000000
    17 0.000065 2.315296 -0.000038 0.100871 0.000000 0.000000
    18 1.551384 3.956605 -3.900833 2.695898 -1.367579 -3.120851
    19 0.000000 2.741438 -0.000006 -0.256295 0.000000 0.000000
    20 0.000010 2.668509 0.000044 -0.190584 0.000000 0.000000
    21 1.401085 3.639791 -1.202138 2.031134 -1.355833 -2.447068
    22 -0.000002 2.810940 0.000000 -0.256295 0.000000 0.000000
    23 -0.000014 2.736195 -0.000031 -0.190584 0.000000 0.000000
    24 1.335670 3.182092 1.418062 0.980181 -1.251584 -1.415242
    25 0.000003 2.663261 0.000050 -0.256295 0.000000 0.000000
    26 -0.000002 2.592527 -0.000038 -0.190584 0.000000 0.000000
    27 1.344780 1.881134 3.809573 1.120331 -1.203081 -1.477345
    28 -0.000002 2.315653 -0.000076 -0.256295 0.000000 0.000000
    29 -0.000015 2.254025 0.000080 -0.190584 0.000000 0.000000
    30 -6.937500 1.999023 -1.013672 2.471511 1.168986 2.496105
    31 20.703125 0.000000 0.000000 0.000000 0.000000 1.055771
    32 18.093750 0.000000 -0.000002 1.573165 -1.288603 1.816423
    33 20.353382 4.314385 -3.818229 0.414888 -1.514505 -2.818948
    34 6.937500 1.999023 -1.013672 2.712146 0.793230 1.247172
    35 20.703125 -0.000002 0.000000 0.000000 0.388233 0.000000
    36 18.093750 0.000000 0.000001 -1.027565 0.189832 1.349996
    37 20.354837 3.810967 -4.133191 -0.833567 0.023142 1.517555
  time 17
    0 -0.236816 -0.302246 40.687500 -0.872561 -0.175620 0.728383
    1 0.000000 -5.351563 0.000000 -0.256875 -0.149401 -0.375758
    2 0.000002 -7.484375 0.000003 0.108455 0.010395 -0.033895
    3 0.000000 -5.597656 -0.000002 0.268406 0.013411 -0.064163
    4 -0.000002 -6.562500 -0.000004 0.794302 -0.031791 -0.142057
    5 0.000004 -6.554688 0.000000 0.244327 0.657663 -0.225580
    6 -0.000001 -3.251953 0.000004 -1.136902 -0.207549 -0.331702
    7 1.547852 -4.921875 -4.285156 -2.653135 -0.771122 -1.651581
    8 1.189453 -10.468750 -0.305908 1.353245 -0.238019 -0.934258
    9 0.000008 0.000000 15.015625 -0.201992 -0.066164 0.008331
    10 -0.000008 0.000002 8.039063 0.000000 0.000000 0.318946
    11 -1.548828 -5.101563 -4.074219 2.677295 -0.804920 -1.474701
    12 -0.000050 11.984375 0.000031 -0.244511 -0.525395 2.150655
    13 20.093750 -0.000002 0.000000 -1.511818 -0.373669 -0.030833
    14 19.937500 0.000002 -0.000006 -0.361774 -0.658595 -1.476336
    15 2.899811 -0.471063 -4.331224 -0.449459 -0.559870 -0.709308
    16 -0.000027 2.543324 0.000039 0.221027 0.000000 0.000000
    17 0.000065 2.315296 -0.000038 0.100871 0.000000 0.000000
    18 1.551384 3.956605 -3.900833 2.695898 -1.367579 -3.120851
    19 0.000000 2.741438 -0.000006 -0.256295 0.000000 0.000000
    20 0.000010 2.668509 0.000044 -0.190584 0.000000 0.000000
    21 1.401085 3.639791 -1.202138 2.031134 -1.355833 -2.447068
    22 -0.000002 2.810940 0.000000 -0.256295 0.000000 0.000000
    23 -0.000014 2.736195 -0.000031 -0.190584 0.000000 0.000000
    24 1.335670 3.182092 1.418062 0.980181 -1.251584 -1.415242
    25 0.000003 2.663261 0.000050 -0.256295 0.000000 0.000000
    26 -0.000002 2.592527 -0.000038 -0.190584 0.000000 0.000000
    27 1.344780 1.881134 3.809573 1.120331 -1.203081 -1.477345
    28 -0.000002 2.315653 -0.000076 -0.256295 0.000000 0.000000
    29 -0.000015 2.254025 0.000080 -0.190584 0.000000 0.000000
    30 -6.937500 1.999023 -1.013672 2.471511 1.168986 2.496105
    31 20.703125 0.000000 0.000000 0.000000 0.000000 1.055771
    32 18.093750 0.000000 -0.000002 1.573165 -1.288603 1.816423
    33 20.353382 4.314385 -3.818229 0.414888 -1.514505 -2.818948
    34 6.937500 1.999023 -1.013672 2.712146 0.793230 1.247172
    35 20.703125 -0.000002 0.000000 0.000000 0.388233 0.000000
    36 18.093750 0.000000 0.000001 -1.027565 0.189832 1.349996
    37 20.354837 3.810967 -4.133191 -0.833567 0.023142 1.517555
  time 18
    0 -0.236816 -0.302246 40.687500 -0.872561 -0.175620 0.728383
    1 0.000000 -5.351563 0.000000 -0.256875 -0.149401 -0.375758
    2 0.000002 -7.484375 0.000003 0.108455 0.010395 -0.033895
    3 0.000000 -5.597656 -0.000002 0.268406 0.013411 -0.064163
    4 -0.000002 -6.562500 -0.000004 0.794302 -0.031791 -0.142057
    5 0.000004 -6.554688 0.000000 0.244327 0.657663 -0.225580
    6 -0.000001 -3.251953 0.000004 -1.136902 -0.207549 -0.331702
    7 1.547852 -4.921875 -4.285156 -2.653135 -0.771122 -1.651581
    8 1.189453 -10.468750 -0.305908 1.353245 -0.238019 -0.934258
    9 0.000008 0.000000 15.015625 -0.201992 -0.066164 0.008331
    10 -0.000008 0.000002 8.039063 0.000000 0.000000 0.318946
    11 -1.548828 -5.101563 -4.074219 2.677295 -0.804920 -1.474701
    12 -0.000050 11.984375 0.000031 -0.244511 -0.525395 2.150655
    13 20.093750 -0.000002 0.000000 -1.511818 -0.373669 -0.030833
    14 19.937500 0.000002 -0.000006 -0.361774 -0.658595 -1.476336
    15 2.899811 -0.471063 -4.331224 -0.449459 -0.559870 -0.709308
    16 -0.000027 2.543324 0.000039 0.221027 0.000000 0.000000
    17 0.000065 2.315296 -0.000038 0.100871 0.000000 0.000000
    18 1.551384 3.956605 -3.900833 2.695898 -1.367579 -3.120851
    19 0.000000 2.741438 -0.000006 -0.256295 0.000000 0.000000
    20 0.000010 2.668509 0.000044 -0.190584 0.000000 0.000000
    21 1.401085 3.639791 -1.202138 2.031134 -1.355833 -2.447068
    22 -0.000002 2.810940 0.000000 -0.256295 0.000000 0.000000
    23 -0.000014 2.736195 -0.000031 -0.190584 0.000000 0.000000
    24 1.335670 3.182092 1.418062 0.980181 -1.251584 -1.415242
    25 0.000003 2.663261 0.000050 -0.256295 0.000000 0.000000
    26 -0.000002 2.592527 -0.000038 -0.190584 0.000000 0.000000
    27 1.344780 1.881134 3.809573 1.120331 -1.203081 -1.477345
    28 -0.000002 2.315653 -0.000076 -0.256295 0.000000 0.000000
    29 -0.000015 2.254025 0.000080 -0.190584 0.000000 0.000000
    30 -6.937500 1.999023 -1.013672 2.471511 1.168986 2.496105
    31 20.703125 0.000000 0.000000 0.000000 0.000000 1.055771
    32 18.093750 0.000000 -0.000002 1.573165 -1.288603 1.816423
    33 20.353382 4.314385 -3.818229 0.414888 -1.514505 -2.818948
    34 6.937500 1.999023 -1.013672 2.712146 0.793230 1.247172
    35 20.703125 -0.000002 0.000000 0.000000 0.388233 0.000000
    36 18.093750 0.000000 0.000001 -1.027565 0.189832 1.349996
    37 20.354837 3.810967 -4.133191 -0.833567 0.023142 1.517555
  time 19
    0 -0.236816 -0.302246 40.687500 -0.872561 -0.175620 0.728383
    1 0.000000 -5.351563 0.000000 -0.256875 -0.149401 -0.375758
    2 0.000002 -7.484375 0.000003 0.108455 0.010395 -0.033895
    3 0.000000 -5.597656 -0.000002 0.268406 0.013411 -0.064163
    4 -0.000002 -6.562500 -0.000004 0.794302 -0.031791 -0.142057
    5 0.000004 -6.554688 0.000000 0.244327 0.657663 -0.225580
    6 -0.000001 -3.251953 0.000004 -1.136902 -0.207549 -0.331702
    7 1.547852 -4.921875 -4.285156 -2.653135 -0.771122 -1.651581
    8 1.189453 -10.468750 -0.305908 1.353245 -0.238019 -0.934258
    9 0.000008 0.000000 15.015625 -0.201992 -0.066164 0.008331
    10 -0.000008 0.000002 8.039063 0.000000 0.000000 0.318946
    11 -1.548828 -5.101563 -4.074219 2.677295 -0.804920 -1.474701
    12 -0.000050 11.984375 0.000031 -0.244511 -0.525395 2.150655
    13 20.093750 -0.000002 0.000000 -1.511818 -0.373669 -0.030833
    14 19.937500 0.000002 -0.000006 -0.361774 -0.658595 -1.476336
    15 2.899811 -0.471063 -4.331224 -0.449459 -0.559870 -0.709308
    16 -0.000027 2.543324 0.000039 0.221027 0.000000 0.000000
    17 0.000065 2.315296 -0.000038 0.100871 0.000000 0.000000
    18 1.551384 3.956605 -3.900833 2.695898 -1.367579 -3.120851
    19 0.000000 2.741438 -0.000006 -0.256295 0.000000 0.000000
    20 0.000010 2.668509 0.000044 -0.190584 0.000000 0.000000
    21 1.401085 3.639791 -1.202138 2.031134 -1.355833 -2.447068
    22 -0.000002 2.810940 0.000000 -0.256295 0.000000 0.000000
    23 -0.000014 2.736195 -0.000031 -0.190584 0.000000 0.000000
    24 1.335670 3.182092 1.418062 0.980181 -1.251584 -1.415242
    25 0.000003 2.663261 0.000050 -0.256295 0.000000 0.000000
    26 -0.000002 2.592527 -0.000038 -0.190584 0.000000 0.000000
    27 1.344780 1.881134 3.809573 1.120331 -1.203081 -1.477345
    28 -0.000002 2.315653 -0.000076 -0.256295 0.000000 0.000000
    29 -0.000015 2.254025 0.000080 -0.190584 0.000000 0.000000
    30 -6.937500 1.999023 -1.013672 2.471511 1.168986 2.496105
    31 20.703125 0.000000 0.000000 0.000000 0.000000 1.055771
    32 18.093750 0.000000 -0.000002 1.573165 -1.288603 1.816423
    33 20.353382 4.314385 -3.818229 0.414888 -1.514505 -2.818948
    34 6.937500 1.999023 -1.013672 2.712146 0.793230 1.247172
    35 20.703125 -0.000002 0.000000 0.000000 0.388233 0.000000
    36 18.093750 0.000000 0.000001 -1.027565 0.189832 1.349996
    37 20.354837 3.810967 -4.133191 -0.833567 0.023142 1.517555
  time 20
    0 -0.236816 -0.302246 40.687500 -0.872561 -0.175620 0.728383
    1 0.000000 -5.351563 0.000000 -0.256875 -0.149401 -0.375758
    2 0.000002 -7.484375 0.000003 0.108455 0.010395 -0.033895
    3 0.000000 -5.597656 -0.000002 0.268406 0.013411 -0.064163
    4 -0.000002 -6.562500 -0.000004 0.794302 -0.031791 -0.142057
    5 0.000004 -6.554688 0.000000 0.244327 0.657663 -0.225580
    6 -0.000001 -3.251953 0.000004 -1.136902 -0.207549 -0.331702
    7 1.547852 -4.921875 -4.285156 -2.653135 -0.771122 -1.651581
    8 1.189453 -10.468750 -0.305908 1.353245 -0.238019 -0.934258
    9 0.000008 0.000000 15.015625 -0.201992 -0.066164 0.008331
    10 -0.000008 0.000002 8.039063 0.000000 0.000000 0.318946
    11 -1.548828 -5.101563 -4.074219 2.677295 -0.804920 -1.474701
    12 -0.000050 11.984375 0.000031 -0.244511 -0.525395 2.150655
    13 20.093750 -0.000002 0.000000 -1.511818 -0.373669 -0.030833
    14 19.937500 0.000002 -0.000006 -0.361774 -0.658595 -1.476336
    15 2.899811 -0.471063 -4.331224 -0.449459 -0.559870 -0.709308
    16 -0.000027 2.543324 0.000039 0.221027 0.000000 0.000000
    17 0.000065 2.315296 -0.000038 0.100871 0.000000 0.000000
    18 1.551384 3.956605 -3.900833 2.695898 -1.367579 -3.120851
    19 0.000000 2.741438 -0.000006 -0.256295 0.000000 0.000000
    20 0.000010 2.668509 0.000044 -0.190584 0.000000 0.000000
    21 1.401085 3.639791 -1.202138 2.031134 -1.355833 -2.447068
    22 -0.000002 2.810940 0.000000 -0.256295 0.000000 0.000000
    23 -0.000014 2.736195 -0.000031 -0.190584 0.000000 0.000000
    24 1.335670 3.182092 1.418062 0.980181 -1.251584 -1.415242
    25 0.000003 2.663261 0.000050 -0.256295 0.000000 0.000000
    26 -0.000002 2.592527 -0.000038 -0.190584 0.000000 0.000000
    27 1.344780 1.881134 3.809573 1.120331 -1.203081 -1.477345
    28 -0.000002 2.315653 -0.000076 -0.256295 0.000000 0.000000
    29 -0.000015 2.254025 0.000080 -0.190584 0.000000 0.000000
    30 -6.937500 1.999023 -1.013672 2.471511 1.168986 2.496105
    31 20.703125 0.000000 0.000000 0.000000 0.000000 1.055771
    32 18.093750 0.000000 -0.000002 1.573165 -1.288603 1.816423
    33 20.353382 4.314385 -3.818229 0.414888 -1.514505 -2.818948
    34 6.937500 1.999023 -1.013672 2.712146 0.793230 1.247172
    35 20.703125 -0.000002 0.000000 0.000000 0.388233 0.000000
    36 18.093750 0.000000 0.000001 -1.027565 0.189832 1.349996
    37 20.354837 3.810967 -4.133191 -0.833567 0.023142 1.517555
  time 21
    0 -0.236816 -0.302246 40.687500 -0.872561 -0.175620 0.728383
    1 0.000000 -5.351563 0.000000 -0.256875 -0.149401 -0.375758
    2 0.000002 -7.484375 0.000003 0.108455 0.010395 -0.033895
    3 0.000000 -5.597656 -0.000002 0.268406 0.013411 -0.064163
    4 -0.000002 -6.562500 -0.000004 0.794302 -0.031791 -0.142057
    5 0.000004 -6.554688 0.000000 0.244327 0.657663 -0.225580
    6 -0.000001 -3.251953 0.000004 -1.136902 -0.207549 -0.331702
    7 1.547852 -4.921875 -4.285156 -2.653135 -0.771122 -1.651581
    8 1.189453 -10.468750 -0.305908 1.353245 -0.238019 -0.934258
    9 0.000008 0.000000 15.015625 -0.201992 -0.066164 0.008331
    10 -0.000008 0.000002 8.039063 0.000000 0.000000 0.318946
    11 -1.548828 -5.101563 -4.074219 2.677295 -0.804920 -1.474701
    12 -0.000050 11.984375 0.000031 -0.244511 -0.525395 2.150655
    13 20.093750 -0.000002 0.000000 -1.511818 -0.373669 -0.030833
    14 19.937500 0.000002 -0.000006 -0.361774 -0.658595 -1.476336
    15 2.899811 -0.471063 -4.331224 -0.449459 -0.559870 -0.709308
    16 -0.000027 2.543324 0.000039 0.221027 0.000000 0.000000
    17 0.000065 2.315296 -0.000038 0.100871 0.000000 0.000000
    18 1.551384 3.956605 -3.900833 2.695898 -1.367579 -3.120851
    19 0.000000 2.741438 -0.000006 -0.256295 0.000000 0.000000
    20 0.000010 2.668509 0.000044 -0.190584 0.000000 0.000000
    21 1.401085 3.639791 -1.202138 2.031134 -1.355833 -2.447068
    22 -0.000002 2.810940 0.000000 -0.256295 0.000000 0.000000
    23 -0.000014 2.736195 -0.000031 -0.190584 0.000000 0.000000
    24 1.335670 3.182092 1.418062 0.980181 -1.251584 -1.415242
    25 0.000003 2.663261 0.000050 -0.256295 0.000000 0.000000
    26 -0.000002 2.592527 -0.000038 -0.190584 0.000000 0.000000
    27 1.344780 1.881134 3.809573 1.120331 -1.203081 -1.477345
    28 -0.000002 2.315653 -0.000076 -0.256295 0.000000 0.000000
    29 -0.000015 2.254025 0.000080 -0.190584 0.000000 0.000000
    30 -6.937500 1.999023 -1.013672 2.471511 1.168986 2.496105
    31 20.703125 0.000000 0.000000 0.000000 0.000000 1.055771
    32 18.093750 0.000000 -0.000002 1.573165 -1.288603 1.816423
    33 20.353382 4.314385 -3.818229 0.414888 -1.514505 -2.818948
    34 6.937500 1.999023 -1.013672 2.712146 0.793230 1.247172
    35 20.703125 -0.000002 0.000000 0.000000 0.388233 0.000000
    36 18.093750 0.000000 0.000001 -1.027565 0.189832 1.349996
    37 20.354837 3.810967 -4.133191 -0.833567 0.023142 1.517555
  time 22
    0 -0.236816 -0.302246 40.687500 -0.872561 -0.175620 0.728383
    1 0.000000 -5.351563 0.000000 -0.256875 -0.149401 -0.375758
    2 0.000002 -7.484375 0.000003 0.108455 0.010395 -0.033895
    3 0.000000 -5.597656 -0.000002 0.268406 0.013411 -0.064163
    4 -0.000002 -6.562500 -0.000004 0.794302 -0.031791 -0.142057
    5 0.000004 -6.554688 0.000000 0.244327 0.657663 -0.225580
    6 -0.000001 -3.251953 0.000004 -1.136902 -0.207549 -0.331702
    7 1.547852 -4.921875 -4.285156 -2.653135 -0.771122 -1.651581
    8 1.189453 -10.468750 -0.305908 1.353245 -0.238019 -0.934258
    9 0.000008 0.000000 15.015625 -0.201992 -0.066164 0.008331
    10 -0.000008 0.000002 8.039063 0.000000 0.000000 0.318946
    11 -1.548828 -5.101563 -4.074219 2.677295 -0.804920 -1.474701
    12 -0.000050 11.984375 0.000031 -0.244511 -0.525395 2.150655
    13 20.093750 -0.000002 0.000000 -1.511818 -0.373669 -0.030833
    14 19.937500 0.000002 -0.000006 -0.361774 -0.658595 -1.476336
    15 2.899811 -0.471063 -4.331224 -0.449459 -0.559870 -0.709308
    16 -0.000027 2.543324 0.000039 0.221027 0.000000 0.000000
    17 0.000065 2.315296 -0.000038 0.100871 0.000000 0.000000
    18 1.551384 3.956605 -3.900833 2.695898 -1.367579 -3.120851
    19 0.000000 2.741438 -0.000006 -0.256295 0.000000 0.000000
    20 0.000010 2.668509 0.000044 -0.190584 0.000000 0.000000
    21 1.401085 3.639791 -1.202138 2.031134 -1.355833 -2.447068
    22 -0.000002 2.810940 0.000000 -0.256295 0.000000 0.000000
    23 -0.000014 2.736195 -0.000031 -0.190584 0.000000 0.000000
    24 1.335670 3.182092 1.418062 0.980181 -1.251584 -1.415242
    25 0.000003 2.663261 0.000050 -0.256295 0.000000 0.000000
    26 -0.000002 2.592527 -0.000038 -0.190584 0.000000 0.000000
    27 1.344780 1.881134 3.809573 1.120331 -1.203081 -1.477345
    28 -0.000002 2.315653 -0.000076 -0.256295 0.000000 0.000000
    29 -0.000015 2.254025 0.000080 -0.190584 0.000000 0.000000
    30 -6.937500 1.999023 -1.013672 2.471511 1.168986 2.496105
    31 20.703125 0.000000 0.000000 0.000000 0.000000 1.055771
    32 18.093750 0.000000 -0.000002 1.573165 -1.288603 1.816423
    33 20.353382 4.314385 -3.818229 0.414888 -1.514505 -2.818948
    34 6.937500 1.999023 -1.013672 2.712146 0.793230 1.247172
    35 20.703125 -0.000002 0.000000 0.000000 0.388233 0.000000
    36 18.093750 0.000000 0.000001 -1.027565 0.189832 1.349996
    37 20.354837 3.810967 -4.133191 -0.833567 0.023142 1.517555
  time 23
    0 -0.236816 -0.302246 40.687500 -0.872561 -0.175620 0.728383
    1 0.000000 -5.351563 0.000000 -0.256875 -0.149401 -0.375758
    2 0.000002 -7.484375 0.000003 0.108455 0.010395 -0.033895
    3 0.000000 -5.597656 -0.000002 0.268406 0.013411 -0.064163
    4 -0.000002 -6.562500 -0.000004 0.794302 -0.031791 -0.142057
    5 0.000004 -6.554688 0.000000 0.244327 0.657663 -0.225580
    6 -0.000001 -3.251953 0.000004 -1.136902 -0.207549 -0.331702
    7 1.547852 -4.921875 -4.285156 -2.653135 -0.771122 -1.651581
    8 1.189453 -10.468750 -0.305908 1.353245 -0.238019 -0.934258
    9 0.000008 0.000000 15.015625 -0.201992 -0.066164 0.008331
    10 -0.000008 0.000002 8.039063 0.000000 0.000000 0.318946
    11 -1.548828 -5.101563 -4.074219 2.677295 -0.804920 -1.474701
    12 -0.000050 11.984375 0.000031 -0.244511 -0.525395 2.150655
    13 20.093750 -0.000002 0.000000 -1.511818 -0.373669 -0.030833
    14 19.937500 0.000002 -0.000006 -0.361774 -0.658595 -1.476336
    15 2.899811 -0.471063 -4.331224 -0.449459 -0.559870 -0.709308
    16 -0.000027 2.543324 0.000039 0.221027 0.000000 0.000000
    17 0.000065 2.315296 -0.000038 0.100871 0.000000 0.000000
    18 1.551384 3.956605 -3.900833 2.695898 -1.367579 -3.120851
    19 0.000000 2.741438 -0.000006 -0.256295 0.000000 0.000000
    20 0.000010 2.668509 0.000044 -0.190584 0.000000 0.000000
    21 1.401085 3.639791 -1.202138 2.031134 -1.355833 -2.447068
    22 -0.000002 2.810940 0.000000 -0.256295 0.000000 0.000000
    23 -0.000014 2.736195 -0.000031 -0.190584 0.000000 0.000000
    24 1.335670 3.182092 1.418062 0.980181 -1.251584 -1.415242
    25 0.000003 2.663261 0.000050 -0.256295 0.000000 0.000000
    26 -0.000002 2.592527 -0.000038 -0.190584 0.000000 0.000000
    27 1.344780 1.881134 3.809573 1.120331 -1.203081 -1.477345
    28 -0.000002 2.315653 -0.000076 -0.256295 0.000000 0.000000
    29 -0.000015 2.254025 0.000080 -0.190584 0.000000 0.000000
    30 -6.937500 1.999023 -1.013672 2.471511 1.168986 2.496105
    31 20.703125 0.000000 0.000000 0.000000 0.000000 1.055771
    32 18.093750 0.000000 -0.000002 1.573165 -1.288603 1.816423
    33 20.353382 4.314385 -3.818229 0.414888 -1.514505 -2.818948
    34 6.937500 1.999023 -1.013672 2.712146 0.793230 1.247172
    35 20.703125 -0.000002 0.000000 0.000000 0.388233 0.000000
    36 18.093750 0.000000 0.000001 -1.027565 0.189832 1.349996
    37 20.354837 3.810967 -4.133191 -0.833567 0.023142 1.517555
  time 24
    0 -0.236816 -0.302246 40.687500 -0.872561 -0.175620 0.728383
    1 0.000000 -5.351563 0.000000 -0.256875 -0.149401 -0.375758
    2 0.000002 -7.484375 0.000003 0.108455 0.010395 -0.033895
    3 0.000000 -5.597656 -0.000002 0.268406 0.013411 -0.064163
    4 -0.000002 -6.562500 -0.000004 0.794302 -0.031791 -0.142057
    5 0.000004 -6.554688 0.000000 0.244327 0.657663 -0.225580
    6 -0.000001 -3.251953 0.000004 -1.136902 -0.207549 -0.331702
    7 1.547852 -4.921875 -4.285156 -2.653135 -0.771122 -1.651581
    8 1.189453 -10.468750 -0.305908 1.353245 -0.238019 -0.934258
    9 0.000008 0.000000 15.015625 -0.201992 -0.066164 0.008331
    10 -0.000008 0.000002 8.039063 0.000000 0.000000 0.318946
    11 -1.548828 -5.101563 -4.074219 2.677295 -0.804920 -1.474701
    12 -0.000050 11.984375 0.000031 -0.244511 -0.525395 2.150655
    13 20.093750 -0.000002 0.000000 -1.511818 -0.373669 -0.030833
    14 19.937500 0.000002 -0.000006 -0.361774 -0.658595 -1.476336
    15 2.899811 -0.471063 -4.331224 -0.449459 -0.559870 -0.709308
    16 -0.000027 2.543324 0.000039 0.221027 0.000000 0.000000
    17 0.000065 2.315296 -0.000038 0.100871 0.000000 0.000000
    18 1.551384 3.956605 -3.900833 2.695898 -1.367579 -3.120851
    19 0.000000 2.741438 -0.000006 -0.256295 0.000000 0.000000
    20 0.000010 2.668509 0.000044 -0.190584 0.000000 0.000000
    21 1.401085 3.639791 -1.202138 2.031134 -1.355833 -2.447068
    22 -0.000002 2.810940 0.000000 -0.256295 0.000000 0.000000
    23 -0.000014 2.736195 -0.000031 -0.190584 0.000000 0.000000
    24 1.335670 3.182092 1.418062 0.980181 -1.251584 -1.415242
    25 0.000003 2.663261 0.000050 -0.256295 0.000000 0.000000
    26 -0.000002 2.592527 -0.000038 -0.190584 0.000000 0.000000
    27 1.344780 1.881134 3.809573 1.120331 -1.203081 -1.477345
    28 -0.000002 2.315653 -0.000076 -0.256295 0.000000 0.000000
    29 -0.000015 2.254025 0.000080 -0.190584 0.000000 0.000000
    30 -6.937500 1.999023 -1.013672 2.471511 1.168986 2.496105
    31 20.703125 0.000000 0.000000 0.000000 0.000000 1.055771
    32 18.093750 0.000000 -0.000002 1.573165 -1.288603 1.816423
    33 20.353382 4.314385 -3.818229 0.414888 -1.514505 -2.818948
    34 6.937500 1.999023 -1.013672 2.712146 0.793230 1.247172
    35 20.703125 -0.000002 0.000000 0.000000 0.388233 0.000000
    36 18.093750 0.000000 0.000001 -1.027565 0.189832 1.349996
    37 20.354837 3.810967 -4.133191 -0.833567 0.023142 1.517555
  time 25
    0 -0.236816 -0.302246 40.687500 -0.872561 -0.175620 0.728383
    1 0.000000 -5.351563 0.000000 -0.256875 -0.149401 -0.375758
    2 0.000002 -7.484375 0.000003 0.108455 0.010395 -0.033895
    3 0.000000 -5.597656 -0.000002 0.268406 0.013411 -0.064163
    4 -0.000002 -6.562500 -0.000004 0.794302 -0.031791 -0.142057
    5 0.000004 -6.554688 0.000000 0.244327 0.657663 -0.225580
    6 -0.000001 -3.251953 0.000004 -1.136902 -0.207549 -0.331702
    7 1.547852 -4.921875 -4.285156 -2.653135 -0.771122 -1.651581
    8 1.189453 -10.468750 -0.305908 1.353245 -0.238019 -0.934258
    9 0.000008 0.000000 15.015625 -0.201992 -0.066164 0.008331
    10 -0.000008 0.000002 8.039063 0.000000 0.000000 0.318946
    11 -1.548828 -5.101563 -4.074219 2.677295 -0.804920 -1.474701
    12 -0.000050 11.984375 0.000031 -0.244511 -0.525395 2.150655
    13 20.093750 -0.000002 0.000000 -1.511818 -0.373669 -0.030833
    14 19.937500 0.000002 -0.000006 -0.361774 -0.658595 -1.476336
    15 2.899811 -0.471063 -4.331224 -0.449459 -0.559870 -0.709308
    16 -0.000027 2.543324 0.000039 0.221027 0.000000 0.000000
    17 0.000065 2.315296 -0.000038 0.100871 0.000000 0.000000
    18 1.551384 3.956605 -3.900833 2.695898 -1.367579 -3.120851
    19 0.000000 2.741438 -0.000006 -0.256295 0.000000 0.000000
    20 0.000010 2.668509 0.000044 -0.190584 0.000000 0.000000
    21 1.401085 3.639791 -1.202138 2.031134 -1.355833 -2.447068
    22 -0.000002 2.810940 0.000000 -0.256295 0.000000 0.000000
    23 -0.000014 2.736195 -0.000031 -0.190584 0.000000 0.000000
    24 1.335670 3.182092 1.418062 0.980181 -1.251584 -1.415242
    25 0.000003 2.663261 0.000050 -0.256295 0.000000 0.000000
    26 -0.000002 2.592527 -0.000038 -0.190584 0.000000 0.000000
    27 1.344780 1.881134 3.809573 1.120331 -1.203081 -1.477345
    28 -0.000002 2.315653 -0.000076 -0.256295 0.000000 0.000000
    29 -0.000015 2.254025 0.000080 -0.190584 0.000000 0.000000
    30 -6.937500 1.999023 -1.013672 2.471511 1.168986 2.496105
    31 20.703125 0.000000 0.000000 0.000000 0.000000 1.055771
    32 18.093750 0.000000 -0.000002 1.573165 -1.288603 1.816423
    33 20.353382 4.314385 -3.818229 0.414888 -1.514505 -2.818948
    34 6.937500 1.999023 -1.013672 2.712146 0.793230 1.247172
    35 20.703125 -0.000002 0.000000 0.000000 0.388233 0.000000
    36 18.093750 0.000000 0.000001 -1.027565 0.189832 1.349996
    37 20.354837 3.810967 -4.133191 -0.833567 0.023142 1.517555
  time 26
    0 -0.236816 -0.302246 40.687500 -0.872561 -0.175620 0.728383
    1 0.000000 -5.351563 0.000000 -0.256875 -0.149401 -0.375758
    2 0.000002 -7.484375 0.000003 0.108455 0.010395 -0.033895
    3 0.000000 -5.597656 -0.000002 0.268406 0.013411 -0.064163
    4 -0.000002 -6.562500 -0.000004 0.794302 -0.031791 -0.142057
    5 0.000004 -6.554688 0.000000 0.244327 0.657663 -0.225580
    6 -0.000001 -3.251953 0.000004 -1.136902 -0.207549 -0.331702
    7 1.547852 -4.921875 -4.285156 -2.653135 -0.771122 -1.651581
    8 1.189453 -10.468750 -0.305908 1.353245 -0.238019 -0.934258
    9 0.000008 0.000000 15.015625 -0.201992 -0.066164 0.008331
    10 -0.000008 0.000002 8.039063 0.000000 0.000000 0.318946
    11 -1.548828 -5.101563 -4.074219 2.677295 -0.804920 -1.474701
    12 -0.000050 11.984375 0.000031 -0.244511 -0.525395 2.150655
    13 20.093750 -0.000002 0.000000 -1.511818 -0.373669 -0.030833
    14 19.937500 0.000002 -0.000006 -0.361774 -0.658595 -1.476336
    15 2.899811 -0.471063 -4.331224 -0.449459 -0.559870 -0.709308
    16 -0.000027 2.543324 0.000039 0.221027 0.000000 0.000000
    17 0.000065 2.315296 -0.000038 0.100871 0.000000 0.000000
    18 1.551384 3.956605 -3.900833 2.695898 -1.367579 -3.120851
    19 0.000000 2.741438 -0.000006 -0.256295 0.000000 0.000000
    20 0.000010 2.668509 0.000044 -0.190584 0.000000 0.000000
    21 1.401085 3.639791 -1.202138 2.031134 -1.355833 -2.447068
    22 -0.000002 2.810940 0.000000 -0.256295 0.000000 0.000000
    23 -0.000014 2.736195 -0.000031 -0.190584 0.000000 0.000000
    24 1.335670 3.182092 1.418062 0.980181 -1.251584 -1.415242
    25 0.000003 2.663261 0.000050 -0.256295 0.000000 0.000000
    26 -0.000002 2.592527 -0.000038 -0.190584 0.000000 0.000000
    27 1.344780 1.881134 3.809573 1.120331 -1.203081 -1.477345
    28 -0.000002 2.315653 -0.000076 -0.256295 0.000000 0.000000
    29 -0.000015 2.254025 0.000080 -0.190584 0.000000 0.000000
    30 -6.937500 1.999023 -1.013672 2.471511 1.168986 2.496105
    31 20.703125 0.000000 0.000000 0.000000 0.000000 1.055771
    32 18.093750 0.000000 -0.000002 1.573165 -1.288603 1.816423
    33 20.353382 4.314385 -3.818229 0.414888 -1.514505 -2.818948
    34 6.937500 1.999023 -1.013672 2.712146 0.793230 1.247172
    35 20.703125 -0.000002 0.000000 0.000000 0.388233 0.000000
    36 18.093750 0.000000 0.000001 -1.027565 0.189832 1.349996
    37 20.354837 3.810967 -4.133191 -0.833567 0.023142 1.517555
  time 27
    0 -0.236816 -0.302246 40.687500 -0.872561 -0.175620 0.728383
    1 0.000000 -5.351563 0.000000 -0.256875 -0.149401 -0.375758
    2 0.000002 -7.484375 0.000003 0.108455 0.010395 -0.033895
    3 0.000000 -5.597656 -0.000002 0.268406 0.013411 -0.064163
    4 -0.000002 -6.562500 -0.000004 0.794302 -0.031791 -0.142057
    5 0.000004 -6.554688 0.000000 0.244327 0.657663 -0.225580
    6 -0.000001 -3.251953 0.000004 -1.136902 -0.207549 -0.331702
    7 1.547852 -4.921875 -4.285156 -2.653135 -0.771122 -1.651581
    8 1.189453 -10.468750 -0.305908 1.353245 -0.238019 -0.934258
    9 0.000008 0.000000 15.015625 -0.201992 -0.066164 0.008331
    10 -0.000008 0.000002 8.039063 0.000000 0.000000 0.318946
    11 -1.548828 -5.101563 -4.074219 2.677295 -0.804920 -1.474701
    12 -0.000050 11.984375 0.000031 -0.244511 -0.525395 2.150655
    13 20.093750 -0.000002 0.000000 -1.511818 -0.373669 -0.030833
    14 19.937500 0.000002 -0.000006 -0.361774 -0.658595 -1.476336
    15 2.899811 -0.471063 -4.331224 -0.449459 -0.559870 -0.709308
    16 -0.000027 2.543324 0.000039 0.221027 0.000000 0.000000
    17 0.000065 2.315296 -0.000038 0.100871 0.000000 0.000000
    18 1.551384 3.956605 -3.900833 2.695898 -1.367579 -3.120851
    19 0.000000 2.741438 -0.000006 -0.256295 0.000000 0.000000
    20 0.000010 2.668509 0.000044 -0.190584 0.000000 0.000000
    21 1.401085 3.639791 -1.202138 2.031134 -1.355833 -2.447068
    22 -0.000002 2.810940 0.000000 -0.256295 0.000000 0.000000
    23 -0.000014 2.736195 -0.000031 -0.190584 0.000000 0.000000
    24 1.335670 3.182092 1.418062 0.980181 -1.251584 -1.415242
    25 0.000003 2.663261 0.000050 -0.256295 0.000000 0.000000
    26 -0.000002 2.592527 -0.000038 -0.190584 0.000000 0.000000
    27 1.344780 1.881134 3.809573 1.120331 -1.203081 -1.477345
    28 -0.000002 2.315653 -0.000076 -0.256295 0.000000 0.000000
    29 -0.000015 2.254025 0.000080 -0.190584 0.000000 0.000000
    30 -6.937500 1.999023 -1.013672 2.471511 1.168986 2.496105
    31 20.703125 0.000000 0.000000 0.000000 0.000000 1.055771
    32 18.093750 0.000000 -0.000002 1.573165 -1.288603 1.816423
    33 20.353382 4.314385 -3.818229 0.414888 -1.514505 -2.818948
    34 6.937500 1.999023 -1.013672 2.712146 0.793230 1.247172
    35 20.703125 -0.000002 0.000000 0.000000 0.388233 0.000000
    36 18.093750 0.000000 0.000001 -1.027565 0.189832 1.349996
    37 20.354837 3.810967 -4.133191 -0.833567 0.023142 1.517555
  time 28
    0 -0.236816 -0.302246 40.687500 -0.872561 -0.175620 0.728383
    1 0.000000 -5.351563 0.000000 -0.256875 -0.149401 -0.375758
    2 0.000002 -7.484375 0.000003 0.108455 0.010395 -0.033895
    3 0.000000 -5.597656 -0.000002 0.268406 0.013411 -0.064163
    4 -0.000002 -6.562500 -0.000004 0.794302 -0.031791 -0.142057
    5 0.000004 -6.554688 0.000000 0.244327 0.657663 -0.225580
    6 -0.000001 -3.251953 0.000004 -1.136902 -0.207549 -0.331702
    7 1.547852 -4.921875 -4.285156 -2.653135 -0.771122 -1.651581
    8 1.189453 -10.468750 -0.305908 1.353245 -0.238019 -0.934258
    9 0.000008 0.000000 15.015625 -0.201992 -0.066164 0.008331
    10 -0.000008 0.000002 8.039063 0.000000 0.000000 0.318946
    11 -1.548828 -5.101563 -4.074219 2.677295 -0.804920 -1.474701
    12 -0.000050 11.984375 0.000031 -0.244511 -0.525395 2.150655
    13 20.093750 -0.000002 0.000000 -1.511818 -0.373669 -0.030833
    14 19.937500 0.000002 -0.000006 -0.361774 -0.658595 -1.476336
    15 2.899811 -0.471063 -4.331224 -0.449459 -0.559870 -0.709308
    16 -0.000027 2.543324 0.000039 0.221027 0.000000 0.000000
    17 0.000065 2.315296 -0.000038 0.100871 0.000000 0.000000
    18 1.551384 3.956605 -3.900833 2.695898 -1.367579 -3.120851
    19 0.000000 2.741438 -0.000006 -0.256295 0.000000 0.000000
    20 0.000010 2.668509 0.000044 -0.190584 0.000000 0.000000
    21 1.401085 3.639791 -1.202138 2.031134 -1.355833 -2.447068
    22 -0.000002 2.810940 0.000000 -0.256295 0.000000 0.000000
    23 -0.000014 2.736195 -0.000031 -0.190584 0.000000 0.000000
    24 1.335670 3.182092 1.418062 0.980181 -1.251584 -1.415242
    25 0.000003 2.663261 0.000050 -0.256295 0.000000 0.000000
    26 -0.000002 2.592527 -0.000038 -0.190584 0.000000 0.000000
    27 1.344780 1.881134 3.809573 1.120331 -1.203081 -1.477345
    28 -0.000002 2.315653 -0.000076 -0.256295 0.000000 0.000000
    29 -0.000015 2.254025 0.000080 -0.190584 0.000000 0.000000
    30 -6.937500 1.999023 -1.013672 2.471511 1.168986 2.496105
    31 20.703125 0.000000 0.000000 0.000000 0.000000 1.055771
    32 18.093750 0.000000 -0.000002 1.573165 -1.288603 1.816423
    33 20.353382 4.314385 -3.818229 0.414888 -1.514505 -2.818948
    34 6.937500 1.999023 -1.013672 2.712146 0.793230 1.247172
    35 20.703125 -0.000002 0.000000 0.000000 0.388233 0.000000
    36 18.093750 0.000000 0.000001 -1.027565 0.189832 1.349996
    37 20.354837 3.810967 -4.133191 -0.833567 0.023142 1.517555
  time 29
    0 -0.236816 -0.302246 40.687500 -0.872561 -0.175620 0.728383
    1 0.000000 -5.351563 0.000000 -0.256875 -0.149401 -0.375758
    2 0.000002 -7.484375 0.000003 0.108455 0.010395 -0.033895
    3 0.000000 -5.597656 -0.000002 0.268406 0.013411 -0.064163
    4 -0.000002 -6.562500 -0.000004 0.794302 -0.031791 -0.142057
    5 0.000004 -6.554688 0.000000 0.244327 0.657663 -0.225580
    6 -0.000001 -3.251953 0.000004 -1.136902 -0.207549 -0.331702
    7 1.547852 -4.921875 -4.285156 -2.653135 -0.771122 -1.651581
    8 1.189453 -10.468750 -0.305908 1.353245 -0.238019 -0.934258
    9 0.000008 0.000000 15.015625 -0.201992 -0.066164 0.008331
    10 -0.000008 0.000002 8.039063 0.000000 0.000000 0.318946
    11 -1.548828 -5.101563 -4.074219 2.677295 -0.804920 -1.474701
    12 -0.000050 11.984375 0.000031 -0.244511 -0.525395 2.150655
    13 20.093750 -0.000002 0.000000 -1.511818 -0.373669 -0.030833
    14 19.937500 0.000002 -0.000006 -0.361774 -0.658595 -1.476336
    15 2.899811 -0.471063 -4.331224 -0.449459 -0.559870 -0.709308
    16 -0.000027 2.543324 0.000039 0.221027 0.000000 0.000000
    17 0.000065 2.315296 -0.000038 0.100871 0.000000 0.000000
    18 1.551384 3.956605 -3.900833 2.695898 -1.367579 -3.120851
    19 0.000000 2.741438 -0.000006 -0.256295 0.000000 0.000000
    20 0.000010 2.668509 0.000044 -0.190584 0.000000 0.000000
    21 1.401085 3.639791 -1.202138 2.031134 -1.355833 -2.447068
    22 -0.000002 2.810940 0.000000 -0.256295 0.000000 0.000000
    23 -0.000014 2.736195 -0.000031 -0.190584 0.000000 0.000000
    24 1.335670 3.182092 1.418062 0.980181 -1.251584 -1.415242
    25 0.000003 2.663261 0.000050 -0.256295 0.000000 0.000000
    26 -0.000002 2.592527 -0.000038 -0.190584 0.000000 0.000000
    27 1.344780 1.881134 3.809573 1.120331 -1.203081 -1.477345
    28 -0.000002 2.315653 -0.000076 -0.256295 0.000000 0.000000
    29 -0.000015 2.254025 0.000080 -0.190584 0.000000 0.000000
    30 -6.937500 1.999023 -1.013672 2.471511 1.168986 2.496105
    31 20.703125 0.000000 0.000000 0.000000 0.000000 1.055771
    32 18.093750 0.000000 -0.000002 1.573165 -1.288603 1.816423
    33 20.353382 4.314385 -3.818229 0.414888 -1.514505 -2.818948
    34 6.937500 1.999023 -1.013672 2.712146 0.793230 1.247172
    35 20.703125 -0.000002 0.000000 0.000000 0.388233 0.000000
    36 18.093750 0.000000 0.000001 -1.027565 0.189832 1.349996
    37 20.354837 3.810967 -4.133191 -0.833567 0.023142 1.517555
end
