// Created by Crowbar 0.74
version 1
nodes
  0 "ValveBiped.Bip01_Pelvis" -1
  1 "ValveBiped.Bip01_R_Thigh" 0
  2 "ValveBiped.Bip01_R_Calf" 1
  3 "ValveBiped.Bip01_R_Foot" 2
  4 "ValveBiped.Bip01_L_Thigh" 0
  5 "ValveBiped.Bip01_L_Calf" 4
  6 "ValveBiped.Bip01_L_Foot" 5
  7 "ValveBiped.qz00" 0
  8 "ValveBiped.qz01" 0
  9 "ValveBiped.qz02" 0
  10 "ValveBiped.qz03" 0
  11 "ValveBiped.qz04" 0
  12 "ValveBiped.qz05" 0
  13 "ValveBiped.qz06" 0
  14 "ValveBiped.qz07" 0
  15 "ValveBiped.qz08" 0
  16 "ValveBiped.qz09" 0
  17 "ValveBiped.qz10" 0
  18 "ValveBiped.qz11" 0
  19 "ValveBiped.qz12" 0
  20 "ValveBiped.qz13" 0
  21 "ValveBiped.qz14" 0
  22 "ValveBiped.qz15" 0
  23 "ValveBiped.Bip01_Spine" 0
  24 "ValveBiped.Bip01_Spine1" 23
  25 "ValveBiped.Bip01_Spine2" 24
  26 "ValveBiped.Bip01_Spine4" 25
  27 "ValveBiped.Bip01_Neck1" 26
  28 "ValveBiped.Bip01_Head1" 27
  29 "ValveBiped.forward" 28
  30 "ValveBiped.Bip01_R_Clavicle" 26
  31 "ValveBiped.Bip01_R_UpperArm" 30
  32 "ValveBiped.Bip01_R_Forearm" 31
  33 "ValveBiped.Bip01_R_Hand" 32
  34 "ValveBiped.weapon_bone" 33
  35 "ValveBiped.weapon_bone_Clip" 34
  36 "ValveBiped.weapon_bone_extra" 34
  37 "ValveBiped.Bip01_R_Finger0" 33
  38 "ValveBiped.Bip01_R_Finger01" 37
  39 "ValveBiped.Bip01_R_Finger02" 38
  40 "ValveBiped.Bip01_R_Finger3" 33
  41 "ValveBiped.Bip01_R_Finger31" 40
  42 "ValveBiped.Bip01_R_Finger32" 41
  43 "ValveBiped.Bip01_R_Finger4" 33
  44 "ValveBiped.Bip01_R_Finger41" 43
  45 "ValveBiped.Bip01_R_Finger42" 44
  46 "ValveBiped.Bip01_R_Finger2" 33
  47 "ValveBiped.Bip01_R_Finger21" 46
  48 "ValveBiped.Bip01_R_Finger22" 47
  49 "ValveBiped.Bip01_R_Finger1" 33
  50 "ValveBiped.Bip01_R_Finger11" 49
  51 "ValveBiped.Bip01_R_Finger12" 50
  52 "ValveBiped.attachment_armR_T" 32
  53 "ValveBiped.Bip01_R_Wrist" 32
  54 "ValveBiped.Bip01_R_Ulna" 32
  55 "ValveBiped.Bip01_L_Clavicle" 26
  56 "ValveBiped.Bip01_L_UpperArm" 55
  57 "ValveBiped.Bip01_L_Forearm" 56
  58 "ValveBiped.Bip01_L_Hand" 57
  59 "ValveBiped.L_weapon_bone" 58
  60 "ValveBiped.Bip01_L_Finger3" 58
  61 "ValveBiped.Bip01_L_Finger31" 60
  62 "ValveBiped.Bip01_L_Finger32" 61
  63 "ValveBiped.Bip01_L_Finger2" 58
  64 "ValveBiped.Bip01_L_Finger21" 63
  65 "ValveBiped.Bip01_L_Finger22" 64
  66 "ValveBiped.Bip01_L_Finger1" 58
  67 "ValveBiped.Bip01_L_Finger11" 66
  68 "ValveBiped.Bip01_L_Finger12" 67
  69 "ValveBiped.Bip01_L_Finger4" 58
  70 "ValveBiped.Bip01_L_Finger41" 69
  71 "ValveBiped.Bip01_L_Finger42" 70
  72 "ValveBiped.Bip01_L_Finger0" 58
  73 "ValveBiped.Bip01_L_Finger01" 72
  74 "ValveBiped.Bip01_L_Finger02" 73
  75 "ValveBiped.attachment_armL_T" 57
  76 "ValveBiped.Bip01_L_Ulna" 57
  77 "ValveBiped.Bip01_L_Wrist" 57
  78 "000" -1
  79 "fa00" 28
  80 "fa01" 28
  81 "fa02" 28
  82 "fa03" 28
  83 "fa04" 28
  84 "fa05" 28
  85 "fa06" 28
  86 "fa07" 28
  87 "fa08" 28
  88 "qz00" 7
  89 "qzz00" 88
  90 "qz01" 8
  91 "qzz01" 90
  92 "qz02" 9
  93 "qzz02" 92
  94 "qz03" 10
  95 "qzz03" 94
  96 "qz04" 11
  97 "qzz04" 96
  98 "qz05" 12
  99 "qzz05" 98
  100 "qz06" 13
  101 "qzz06" 100
  102 "qz07" 14
  103 "qzz07" 102
  104 "qz08" 15
  105 "qzz08" 104
  106 "qz09" 16
  107 "qzz09" 106
  108 "qz10" 17
  109 "qzz10" 108
  110 "qz11" 18
  111 "qzz11" 110
  112 "qz12" 19
  113 "qzz12" 112
  114 "qz13" 20
  115 "qzz13" 114
  116 "qz14" 21
  117 "qzz14" 116
  118 "qz15" 22
  119 "qzz15" 118
  120 "ld" 26
end
skeleton
  time 0
    0 0.000000 0.000000 0.000000 0.000000 0.000000 -1.570796
    78 0.000000 0.000000 0.000000 0.000000 0.000000 -1.570796
end
