// Created by Crowbar 0.74
version 1
nodes
  0 "ValveBiped.Bip01_Pelvis" -1
  1 "ValveBiped.Bip01_Spine" 0
  2 "ValveBiped.Bip01_Spine1" 1
  3 "ValveBiped.Bip01_Spine2" 2
  4 "ValveBiped.Bip01_Spine4" 3
  5 "BreastUpper2_L" 4
  6 "BreastUpper2_R" 4
  7 "BeAA1" 4
  8 "BeAA2_L" 4
  9 "BeAA3_L" 4
  10 "BeAA2_R" 4
  11 "BeAA3_R" 4
  12 "ValveBiped.Bip01_R_Clavicle" 4
  13 "ValveBiped.Bip01_R_UpperArm" 12
  14 "ValveBiped.Bip01_R_Forearm" 13
  15 "ValveBiped.Bip01_R_Hand" 14
  16 "ValveBiped.Bip01_R_Finger0" 15
  17 "ValveBiped.Bip01_R_Finger01" 16
  18 "ValveBiped.Bip01_R_Finger1" 15
  19 "ValveBiped.Bip01_R_Finger11" 18
  20 "ValveBiped.Bip01_R_Finger12" 19
  21 "ValveBiped.Bip01_R_Finger2" 15
  22 "ValveBiped.Bip01_R_Finger21" 21
  23 "ValveBiped.Bip01_R_Finger22" 22
  24 "ValveBiped.Bip01_R_Finger3" 15
  25 "ValveBiped.Bip01_R_Finger31" 24
  26 "ValveBiped.Bip01_R_Finger32" 25
  27 "ValveBiped.Bip01_R_Finger4" 15
  28 "ValveBiped.Bip01_R_Finger41" 27
  29 "ValveBiped.Bip01_R_Finger42" 28
  30 "ValveBiped.Bip01_L_Clavicle" 4
  31 "ValveBiped.Bip01_L_UpperArm" 30
  32 "ValveBiped.Bip01_L_Forearm" 31
  33 "ValveBiped.Bip01_L_Hand" 32
  34 "ValveBiped.Bip01_L_Finger0" 33
  35 "ValveBiped.Bip01_L_Finger01" 34
  36 "ValveBiped.Bip01_L_Finger1" 33
  37 "ValveBiped.Bip01_L_Finger11" 36
  38 "ValveBiped.Bip01_L_Finger12" 37
  39 "ValveBiped.Bip01_L_Finger2" 33
  40 "ValveBiped.Bip01_L_Finger21" 39
  41 "ValveBiped.Bip01_L_Finger22" 40
  42 "ValveBiped.Bip01_L_Finger3" 33
  43 "ValveBiped.Bip01_L_Finger31" 42
  44 "ValveBiped.Bip01_L_Finger32" 43
  45 "ValveBiped.Bip01_L_Finger4" 33
  46 "ValveBiped.Bip01_L_Finger41" 45
  47 "ValveBiped.Bip01_L_Finger42" 46
  48 "ValveBiped.Bip01_Neck1" 4
  49 "ValveBiped.Bip01_Head1" 48
  50 "Eye_R" 49
  51 "Eye_L" 49
  52 "Tongue" 49
  53 "TeethLower" 49
  54 "TeethUpper" 49
  55 "OutsideHair5A_R" 49
  56 "OutsideHair6_R" 49
  57 "OutsideHair4A_R" 49
  58 "OutsideHair4B_R" 57
  59 "OutsideHair3A_R" 49
  60 "OutsideHair3B_R" 59
  61 "OutsideHair2A_R" 49
  62 "OutsideHair2B_R" 61
  63 "LowerLe1_R" 49
  64 "LowerLe2_R" 63
  65 "LowerLe3_R" 64
  66 "LowerLe4_R" 65
  67 "FrontHair1_R" 49
  68 "OutsideHair5A_L" 49
  69 "OutsideHair6_L" 49
  70 "OutsideHair4A_L" 49
  71 "OutsideHair4B_L" 70
  72 "OutsideHair3A_L" 49
  73 "OutsideHair3B_L" 72
  74 "OutsideHair2A_L" 49
  75 "OutsideHair2B_L" 74
  76 "OutsideHair1A" 49
  77 "OutsideHair1B" 76
  78 "OutsideHair1C" 77
  79 "LowerLe1_L" 49
  80 "LowerLe2_L" 79
  81 "LowerLe3_L" 80
  82 "LowerLe4_L" 81
  83 "FrontHair1_L" 49
  84 "FrontHair2" 49
  85 "ValveBiped.Bip01_R_Thigh" 0
  86 "ValveBiped.Bip01_R_Calf" 85
  87 "ValveBiped.Bip01_R_Foot" 86
  88 "ValveBiped.Bip01_L_Thigh" 0
  89 "ValveBiped.Bip01_L_Calf" 88
  90 "ValveBiped.Bip01_L_Foot" 89
  91 "HairConnectionEye" 49
  92 "UpKicking1_R" 49
  93 "UpKicking2_R" 92
  94 "UpKicking1_L" 49
  95 "UpKicking2_L" 94
  96 "WingClothes" 2
  97 "WaistWingClothes1_R" 96
  98 "WaistWingClothes2_R" 97
  99 "WaistWingClothes3_R" 98
  100 "WaistWingClothes4_R" 99
  101 "WaistWingClothes5_R" 100
  102 "WaistWingClothes6_R" 101
  103 "WaistWingClothes7_R" 102
  104 "WaistWingClothes8_R" 103
  105 "WaistWingClothes9_R" 104
  106 "WaistWingClothes10_R" 105
  107 "WaistWingClothes11_R" 106
  108 "WaistWingClothes1_L" 96
  109 "WaistWingClothes2_L" 108
  110 "WaistWingClothes3_L" 109
  111 "WaistWingClothes4_L" 110
  112 "WaistWingClothes5_L" 111
  113 "WaistWingClothes6_L" 112
  114 "WaistWingClothes7_L" 113
  115 "WaistWingClothes8_L" 114
  116 "WaistWingClothes9_L" 115
  117 "WaistWingClothes10_L" 116
  118 "WaistWingClothes11_L" 117
  119 "ValveBiped.Exp_Jaw" 49
  120 "ValveBiped.Exp_Eyebrows" 49
  121 "ValveBiped.Exp_Eyelids_Upper" 49
  122 "ValveBiped.Exp_LipsUpper" 49
end
skeleton
  time 0
    0 0.000000 0.000000 0.000000 0.000000 0.000000 -1.570796
    1 0.000000 0.000000 0.000000 0.000000 0.000000 0.000000
    2 0.000000 0.000000 0.000000 0.000000 0.000000 0.000000
    3 0.000000 0.000000 0.000000 0.000000 0.000000 0.000000
    4 0.000000 0.000000 0.000000 0.000000 0.000000 0.000000
    5 -0.648911 4.497382 2.867939 1.570681 0.010771 2.989143
    6 -0.648911 4.497380 -2.867940 -1.570912 0.010771 -0.152451
    7 -4.043316 -1.713767 -0.000001 0.000000 1.570780 3.033295
    8 0.000000 0.000000 0.000000 0.000000 0.000000 0.000000
    9 -5.028244 4.782017 4.635705 1.551557 -0.007465 -1.688503
    10 0.000000 0.000000 0.000000 0.000000 0.000000 0.000000
    11 -5.028248 4.782018 -4.635706 -1.590037 -0.007465 1.453084
    12 0.000000 0.000000 0.000000 0.000000 0.000000 0.000000
    13 0.000000 0.000000 0.000000 0.000000 0.000000 0.000000
    14 0.000000 0.000000 0.000000 0.000000 0.000000 0.000000
    15 0.000000 0.000000 0.000000 0.000000 0.000000 0.000000
    16 0.000000 0.000000 0.000000 0.000000 0.000000 0.000000
    17 0.000000 0.000000 0.000000 0.000000 0.000000 0.000000
    18 0.000000 0.000000 0.000000 0.000000 0.000000 0.000000
    19 0.000000 0.000000 0.000000 0.000000 0.000000 0.000000
    20 0.000000 0.000000 0.000000 0.000000 0.000000 0.000000
    21 0.000000 0.000000 0.000000 0.000000 0.000000 0.000000
    22 0.000000 0.000000 0.000000 0.000000 0.000000 0.000000
    23 0.000000 0.000000 0.000000 0.000000 0.000000 0.000000
    24 0.000000 0.000000 0.000000 0.000000 0.000000 0.000000
    25 0.000000 0.000000 0.000000 0.000000 0.000000 0.000000
    26 0.000000 0.000000 0.000000 0.000000 0.000000 0.000000
    27 0.000000 0.000000 0.000000 0.000000 0.000000 0.000000
    28 0.000000 0.000000 0.000000 0.000000 0.000000 0.000000
    29 0.000000 0.000000 0.000000 0.000000 0.000000 0.000000
    30 0.000000 0.000000 0.000000 0.000000 0.000000 0.000000
    31 0.000000 0.000000 0.000000 0.000000 0.000000 0.000000
    32 0.000000 0.000000 0.000000 0.000000 0.000000 0.000000
    33 0.000000 0.000000 0.000000 0.000000 0.000000 0.000000
    34 0.000000 0.000000 0.000000 0.000000 0.000000 0.000000
    35 0.000000 0.000000 0.000000 0.000000 0.000000 0.000000
    36 0.000000 0.000000 0.000000 0.000000 0.000000 0.000000
    37 0.000000 0.000000 0.000000 0.000000 0.000000 0.000000
    38 0.000000 0.000000 0.000000 0.000000 0.000000 0.000000
    39 0.000000 0.000000 0.000000 0.000000 0.000000 0.000000
    40 0.000000 0.000000 0.000000 0.000000 0.000000 0.000000
    41 0.000000 0.000000 0.000000 0.000000 0.000000 0.000000
    42 0.000000 0.000000 0.000000 0.000000 0.000000 0.000000
    43 0.000000 0.000000 0.000000 0.000000 0.000000 0.000000
    44 0.000000 0.000000 0.000000 0.000000 0.000000 0.000000
    45 0.000000 0.000000 0.000000 0.000000 0.000000 0.000000
    46 0.000000 0.000000 0.000000 0.000000 0.000000 0.000000
    47 0.000000 0.000000 0.000000 0.000000 0.000000 0.000000
    48 0.000000 0.000000 0.000000 0.000000 0.000000 0.000000
    49 0.000000 0.000000 0.000000 0.000000 0.000000 0.000000
    50 0.000000 0.000000 0.000000 0.000000 0.000000 0.000000
    51 0.000000 0.000000 0.000000 0.000000 0.000000 0.000000
    52 0.000000 0.000000 0.000000 0.000000 0.000000 0.000000
    53 0.000000 0.000000 0.000000 0.000000 0.000000 0.000000
    54 0.000000 0.000000 0.000000 0.000000 0.000000 0.000000
    55 3.417385 3.368795 2.323852 0.007851 0.175221 -2.973809
    56 2.940769 4.449759 1.086405 3.129343 0.084223 -3.033415
    57 4.476883 1.030538 3.864545 -3.136448 1.341252 -2.960716
    58 0.081324 0.487088 -2.822746 0.013715 -0.886476 0.043786
    59 4.438885 1.994720 3.926556 3.017901 1.265244 -3.110550
    60 -0.357891 1.239716 -2.634289 0.034165 -0.159277 -0.011890
    61 3.606319 3.578274 3.261864 2.990471 1.392509 3.132086
    62 -0.071815 1.105649 -2.386044 -0.009875 -0.273594 0.051566
    63 6.191956 -0.038257 3.550536 2.730608 1.448567 2.880539
    64 0.140751 0.362261 -2.375797 -0.039676 -0.515594 0.036530
    65 -0.448891 -0.690934 -1.389339 0.017450 0.019479 -0.081081
    66 -0.305315 -0.406434 -1.731853 -0.003009 -0.160533 0.034274
    67 7.526562 -1.705317 1.828083 -3.036729 1.292923 -2.891510
    68 3.417377 3.368793 -2.323858 -3.133741 0.175223 0.167783
    69 2.940773 4.449759 -1.086410 -0.012249 0.084224 0.108178
    70 4.476875 1.030536 -3.864552 0.005145 1.341254 0.180877
    71 -0.081326 0.487088 -2.822750 0.013716 0.886476 -0.043785
    72 4.438877 1.994720 -3.926564 -0.123692 1.265246 0.031041
    73 0.357897 1.239714 -2.634289 0.034165 0.159277 0.011890
    74 3.606308 3.578273 -3.261870 -0.151123 1.392511 -0.009508
    75 0.071815 1.105649 -2.386032 -0.009876 0.273594 -0.051566
    76 3.987167 4.611635 -0.000003 0.000000 1.570796 0.148948
    77 0.000000 1.048001 -2.093582 -0.013839 0.000000 0.000000
    78 0.000000 1.102415 -2.362724 0.003413 0.000000 0.000000
    79 6.191952 -0.038255 -3.550546 -0.410990 1.448569 -0.261059
    80 -0.140752 0.362261 -2.375797 -0.039676 0.515594 -0.036529
    81 0.448889 -0.690934 -1.389339 0.017450 -0.019479 0.081081
    82 0.305313 -0.406434 -1.731853 -0.033945 0.044421 0.014028
    83 7.526569 -1.705315 -1.828094 0.104865 1.292925 0.250085
    84 7.312023 -2.808115 0.083643 2.331033 1.549304 2.496884
    85 0.000000 0.000000 0.000000 0.000000 0.000000 0.000000
    86 0.000000 0.000000 0.000000 0.000000 0.000000 0.000000
    87 0.000000 0.000000 0.000000 0.000000 0.000000 0.000000
    88 0.000000 0.000000 0.000000 0.000000 0.000000 0.000000
    89 0.000000 0.000000 0.000000 0.000000 0.000000 0.000000
    90 0.000000 0.000000 0.000000 0.000000 0.000000 0.000000
    91 7.331951 5.389594 -0.000006 0.000000 -1.570796 -1.432443
    92 6.849758 5.620837 0.546273 0.087533 0.421161 0.189504
    93 0.052246 1.011392 3.116848 -0.106369 0.149351 -0.014003
    94 6.849766 5.620838 -0.546284 -3.053358 0.438545 -2.950403
    95 0.002151 1.011392 3.117283 -0.106122 -0.131899 0.013970
    96 0.000000 0.000000 0.000000 0.000000 0.000000 0.000000
    97 0.000000 0.000000 0.000000 0.000000 0.000000 0.000000
    98 0.000000 0.000000 0.000000 0.000000 0.000000 0.000000
    99 0.000000 0.000000 0.000000 0.000000 0.000000 0.000000
    100 0.000000 0.000000 0.000000 0.000000 0.000000 0.000000
    101 0.000000 0.000000 0.000000 0.000000 0.000000 0.000000
    102 0.000000 0.000000 0.000000 0.000000 0.000000 0.000000
    103 0.000000 0.000000 0.000000 0.000000 0.000000 0.000000
    104 0.000000 0.000000 0.000000 0.000000 0.000000 0.000000
    105 0.000000 0.000000 0.000000 0.000000 0.000000 0.000000
    106 0.000000 0.000000 0.000000 0.000000 0.000000 0.000000
    107 0.000000 0.000000 0.000000 0.000000 0.000000 0.000000
    108 0.000000 0.000000 0.000000 0.000000 0.000000 0.000000
    109 0.000000 0.000000 0.000000 0.000000 0.000000 0.000000
    110 0.000000 0.000000 0.000000 0.000000 0.000000 0.000000
    111 0.000000 0.000000 0.000000 0.000000 0.000000 0.000000
    112 0.000000 0.000000 0.000000 0.000000 0.000000 0.000000
    113 0.000000 0.000000 0.000000 0.000000 0.000000 0.000000
    114 0.000000 0.000000 0.000000 0.000000 0.000000 0.000000
    115 0.000000 0.000000 0.000000 0.000000 0.000000 0.000000
    116 0.000000 0.000000 0.000000 0.000000 0.000000 0.000000
    117 0.000000 0.000000 0.000000 0.000000 0.000000 0.000000
    118 0.000000 0.000000 0.000000 0.000000 0.000000 0.000000
    119 1.548061 0.004415 0.000000 0.000000 1.570795 -1.724259
    120 3.806156 0.213600 0.000000 0.000000 1.570795 -3.010492
    121 3.561836 -3.655074 -0.015467 0.000000 1.570795 2.971113
    122 1.108356 -0.293481 0.000000 0.000000 1.570795 3.002910
end
