// Created by Crowbar 0.74
version 1
nodes
  0 "static_prop" -1
end
skeleton
  time 0
    0 0.000000 0.000000 0.000000 0.000000 0.000000 0.000000
end
triangles
  phy
    0 19.374602 14.291597 -1.092930 -0.064939 0.981210 0.181687 0 0
    0 7.127664 15.528507 -1.092930 -0.053616 0.998554 0.003846 0 0
    0 19.374602 14.291597 1.092930 -0.035897 -0.994296 0.100431 0 0
  phy
    0 19.374602 14.291597 1.092930 -0.035897 -0.994296 0.100431 0 0
    0 7.127664 15.528507 -1.092930 -0.053616 0.998554 0.003846 0 0
    0 7.127664 15.528507 1.092930 -0.108095 -0.994110 0.007754 0 0
  phy
    0 19.374602 14.291597 1.092930 -0.035897 -0.994296 0.100431 0 0
    0 19.374602 -18.735993 -1.092930 0.079280 0.994485 0.068662 0 0
    0 19.374602 14.291597 -1.092930 -0.064939 0.981210 0.181687 0 0
  phy
    0 19.374602 14.291597 1.092930 -0.035897 -0.994296 0.100431 0 0
    0 19.374602 -18.735993 1.092930 0.045317 -0.998201 0.039248 0 0
    0 19.374602 -18.735993 -1.092930 0.079280 0.994485 0.068662 0 0
  phy
    0 7.127664 15.528507 -1.092930 -0.053616 0.998554 0.003846 0 0
    0 19.374602 14.291597 -1.092930 -0.064939 0.981210 0.181687 0 0
    0 19.374602 -18.735993 -1.092930 0.079280 0.994485 0.068662 0 0
  phy
    0 7.127664 15.528507 -1.092930 -0.053616 0.998554 0.003846 0 0
    0 19.374602 -18.735993 -1.092930 0.079280 0.994485 0.068662 0 0
    0 -17.802625 -2.785780 -1.092930 -0.005650 0.998989 -0.044601 0 0
  phy
    0 -17.802625 -2.785780 -1.092930 -0.005650 0.998989 -0.044601 0 0
    0 19.374602 -18.735993 -1.092930 0.079280 0.994485 0.068662 0 0
    0 -18.760236 -18.736000 -1.092930 0.132211 0.989597 -0.056723 0 0
  phy
    0 7.127664 15.528507 1.092930 -0.108095 -0.994110 0.007754 0 0
    0 7.127664 15.528507 -1.092930 -0.053616 0.998554 0.003846 0 0
    0 -0.650415 15.728007 1.092930 -0.294817 -0.948965 -0.112019 0 0
  phy
    0 -0.650415 15.728007 1.092930 -0.294817 -0.948965 -0.112019 0 0
    0 7.127664 15.528507 -1.092930 -0.053616 0.998554 0.003846 0 0
    0 -0.650415 15.728007 -1.092930 -0.344359 0.912427 -0.221121 0 0
  phy
    0 -17.802625 -2.785780 1.092930 -0.006590 -0.999583 -0.028111 0 0
    0 19.374602 14.291597 1.092930 -0.035897 -0.994296 0.100431 0 0
    0 7.127664 15.528507 1.092930 -0.108095 -0.994110 0.007754 0 0
  phy
    0 -17.802625 -2.785780 1.092930 -0.006590 -0.999583 -0.028111 0 0
    0 19.374602 -18.735993 1.092930 0.045317 -0.998201 0.039248 0 0
    0 19.374602 14.291597 1.092930 -0.035897 -0.994296 0.100431 0 0
  phy
    0 -17.802625 -2.785780 1.092930 -0.006590 -0.999583 -0.028111 0 0
    0 -18.760236 -18.736000 1.092930 0.256577 -0.960235 -0.110080 0 0
    0 19.374602 -18.735993 1.092930 0.045317 -0.998201 0.039248 0 0
  phy
    0 7.127664 15.528507 1.092930 -0.108095 -0.994110 0.007754 0 0
    0 -0.650415 15.728007 1.092930 -0.294817 -0.948965 -0.112019 0 0
    0 -17.802625 -2.785780 1.092930 -0.006590 -0.999583 -0.028111 0 0
  phy
    0 -17.802625 -2.785780 -1.092930 -0.005650 0.998989 -0.044601 0 0
    0 -17.802625 -2.785780 1.092930 -0.006590 -0.999583 -0.028111 0 0
    0 -14.812573 4.037187 -1.092930 -0.469099 0.657083 -0.590075 0 0
  phy
    0 -14.812573 4.037187 -1.092930 -0.469099 0.657083 -0.590075 0 0
    0 -17.802625 -2.785780 1.092930 -0.006590 -0.999583 -0.028111 0 0
    0 -14.812573 4.037187 1.092930 -0.603884 -0.544094 -0.582483 0 0
  phy
    0 -17.802625 -2.785780 1.092930 -0.006590 -0.999583 -0.028111 0 0
    0 -17.802625 -2.785780 -1.092930 -0.005650 0.998989 -0.044601 0 0
    0 -18.760236 -18.736000 1.092930 0.256577 -0.960235 -0.110080 0 0
  phy
    0 -18.760236 -18.736000 1.092930 0.256577 -0.960235 -0.110080 0 0
    0 -17.802625 -2.785780 -1.092930 -0.005650 0.998989 -0.044601 0 0
    0 -18.760236 -18.736000 -1.092930 0.132211 0.989597 -0.056723 0 0
  phy
    0 7.127664 15.528507 -1.092930 -0.053616 0.998554 0.003846 0 0
    0 -17.802625 -2.785780 -1.092930 -0.005650 0.998989 -0.044601 0 0
    0 -0.650415 15.728007 -1.092930 -0.344359 0.912427 -0.221121 0 0
  phy
    0 -17.802625 -2.785780 -1.092930 -0.005650 0.998989 -0.044601 0 0
    0 -14.812573 4.037187 -1.092930 -0.469099 0.657083 -0.590075 0 0
    0 -0.650415 15.728007 -1.092930 -0.344359 0.912427 -0.221121 0 0
  phy
    0 -14.812573 4.037187 -1.092930 -0.469099 0.657083 -0.590075 0 0
    0 -14.812573 4.037187 1.092930 -0.603884 -0.544094 -0.582483 0 0
    0 -0.650415 15.728007 -1.092930 -0.344359 0.912427 -0.221121 0 0
  phy
    0 -0.650415 15.728007 -1.092930 -0.344359 0.912427 -0.221121 0 0
    0 -14.812573 4.037187 1.092930 -0.603884 -0.544094 -0.582483 0 0
    0 -0.650415 15.728007 1.092930 -0.294817 -0.948965 -0.112019 0 0
  phy
    0 -17.802625 -2.785780 1.092930 -0.006590 -0.999583 -0.028111 0 0
    0 -0.650415 15.728007 1.092930 -0.294817 -0.948965 -0.112019 0 0
    0 -14.812573 4.037187 1.092930 -0.603884 -0.544094 -0.582483 0 0
  phy
    0 -18.760236 -18.736000 1.092930 0.256577 -0.960235 -0.110080 0 0
    0 19.374602 -18.735993 -1.092930 0.079280 0.994485 0.068662 0 0
    0 19.374602 -18.735993 1.092930 0.045317 -0.998201 0.039248 0 0
  phy
    0 -18.760236 -18.736000 1.092930 0.256577 -0.960235 -0.110080 0 0
    0 -18.760236 -18.736000 -1.092930 0.132211 0.989597 -0.056723 0 0
    0 19.374602 -18.735993 -1.092930 0.079280 0.994485 0.068662 0 0
end
