// Created by Crowbar 0.74
version 1
nodes
  0 "static_prop" -1
end
skeleton
  time 0
    0 0.000000 0.000000 0.000000 0.000000 0.000000 0.000000
end
triangles
  phy
    0 -6.108933 15.932291 17.398952 -0.589277 -0.709799 -0.385925 0 0
    0 -7.950070 7.629612 17.398952 0.213058 -0.678782 -0.702753 0 0
    0 6.568594 7.629558 17.398952 0.555928 -0.736919 0.384569 0 0
  phy
    0 6.568594 7.629558 17.398952 0.555928 -0.736919 0.384569 0 0
    0 4.727484 15.932291 17.398951 -0.952480 -0.215894 0.214874 0 0
    0 -6.108933 15.932291 17.398952 -0.589277 -0.709799 -0.385925 0 0
  phy
    0 6.568594 7.629558 17.398952 0.555928 -0.736919 0.384569 0 0
    0 15.471595 -4.060569 0.000000 0.568045 0.717930 0.402370 0 0
    0 11.372378 15.932290 0.000300 -0.672944 0.382195 0.633304 0 0
  phy
    0 11.372378 15.932290 0.000300 -0.672944 0.382195 0.633304 0 0
    0 4.727484 15.932291 17.398951 -0.952480 -0.215894 0.214874 0 0
    0 6.568594 7.629558 17.398952 0.555928 -0.736919 0.384569 0 0
  phy
    0 -7.950070 7.629612 17.398952 0.213058 -0.678782 -0.702753 0 0
    0 -16.853041 -4.060571 0.000000 0.905150 -0.038240 -0.423370 0 0
    0 6.568594 7.629558 17.398952 0.555928 -0.736919 0.384569 0 0
  phy
    0 6.568594 7.629558 17.398952 0.555928 -0.736919 0.384569 0 0
    0 -16.853041 -4.060571 0.000000 0.905150 -0.038240 -0.423370 0 0
    0 15.471595 -4.060569 0.000000 0.568045 0.717930 0.402370 0 0
  phy
    0 -7.950070 7.629612 17.398952 0.213058 -0.678782 -0.702753 0 0
    0 -6.108933 15.932291 17.398952 -0.589277 -0.709799 -0.385925 0 0
    0 -12.753886 15.932291 0.000183 -0.555928 0.736919 -0.384569 0 0
  phy
    0 -12.753886 15.932291 0.000183 -0.555928 0.736919 -0.384569 0 0
    0 -6.108933 15.932291 17.398952 -0.589277 -0.709799 -0.385925 0 0
    0 4.727484 15.932291 17.398951 -0.952480 -0.215894 0.214874 0 0
  phy
    0 -7.950070 7.629612 17.398952 0.213058 -0.678782 -0.702753 0 0
    0 -12.753886 15.932291 0.000183 -0.555928 0.736919 -0.384569 0 0
    0 -16.853041 -4.060571 0.000000 0.905150 -0.038240 -0.423370 0 0
  phy
    0 11.372378 15.932290 0.000300 -0.672944 0.382195 0.633304 0 0
    0 15.471595 -4.060569 0.000000 0.568045 0.717930 0.402370 0 0
    0 -12.753886 15.932291 0.000183 -0.555928 0.736919 -0.384569 0 0
  phy
    0 11.372378 15.932290 0.000300 -0.672944 0.382195 0.633304 0 0
    0 -12.753886 15.932291 0.000183 -0.555928 0.736919 -0.384569 0 0
    0 4.727484 15.932291 17.398951 -0.952480 -0.215894 0.214874 0 0
  phy
    0 -12.753886 15.932291 0.000183 -0.555928 0.736919 -0.384569 0 0
    0 15.471595 -4.060569 0.000000 0.568045 0.717930 0.402370 0 0
    0 -16.853041 -4.060571 0.000000 0.905150 -0.038240 -0.423370 0 0
  phy
    0 5.340002 9.758493 27.073795 -0.367515 -0.150278 0.917796 0 0
    0 5.845368 2.901099 22.984691 0.735271 -0.006401 0.677743 0 0
    0 2.484109 7.026609 15.650835 -0.176151 0.807582 0.562834 0 0
  phy
    0 2.484109 7.026609 15.650835 -0.176151 0.807582 0.562834 0 0
    0 1.978742 13.884001 19.739939 -0.951053 0.031243 0.307445 0 0
    0 5.340002 9.758493 27.073795 -0.367515 -0.150278 0.917796 0 0
  phy
    0 2.484109 7.026609 15.650835 -0.176151 0.807582 0.562834 0 0
    0 -3.043483 5.590337 17.376300 0.637576 0.526019 -0.562850 0 0
    0 -3.548850 12.447730 21.465404 -0.301964 0.042356 -0.952378 0 0
  phy
    0 2.484109 7.026609 15.650835 -0.176151 0.807582 0.562834 0 0
    0 -3.548850 12.447730 21.465404 -0.301964 0.042356 -0.952378 0 0
    0 1.978742 13.884001 19.739939 -0.951053 0.031243 0.307445 0 0
  phy
    0 5.845368 2.901099 22.984691 0.735271 -0.006401 0.677743 0 0
    0 -3.043483 5.590337 17.376300 0.637576 0.526019 -0.562850 0 0
    0 2.484109 7.026609 15.650835 -0.176151 0.807582 0.562834 0 0
  phy
    0 5.340002 9.758493 27.073795 -0.367515 -0.150278 0.917796 0 0
    0 -0.187590 8.322222 28.799263 -0.196778 -0.950871 -0.239005 0 0
    0 5.845368 2.901099 22.984691 0.735271 -0.006401 0.677743 0 0
  phy
    0 -0.187590 8.322222 28.799263 -0.196778 -0.950871 -0.239005 0 0
    0 5.340002 9.758493 27.073795 -0.367515 -0.150278 0.917796 0 0
    0 1.978742 13.884001 19.739939 -0.951053 0.031243 0.307445 0 0
  phy
    0 5.845368 2.901099 22.984691 0.735271 -0.006401 0.677743 0 0
    0 0.317776 1.464828 24.710157 0.635927 -0.326873 -0.699108 0 0
    0 -3.043483 5.590337 17.376300 0.637576 0.526019 -0.562850 0 0
  phy
    0 -0.187590 8.322222 28.799263 -0.196778 -0.950871 -0.239005 0 0
    0 0.317776 1.464828 24.710157 0.635927 -0.326873 -0.699108 0 0
    0 5.845368 2.901099 22.984691 0.735271 -0.006401 0.677743 0 0
  phy
    0 -3.548850 12.447730 21.465404 -0.301964 0.042356 -0.952378 0 0
    0 -3.043483 5.590337 17.376300 0.637576 0.526019 -0.562850 0 0
    0 0.317776 1.464828 24.710157 0.635927 -0.326873 -0.699108 0 0
  phy
    0 -0.187590 8.322222 28.799263 -0.196778 -0.950871 -0.239005 0 0
    0 -3.548850 12.447730 21.465404 -0.301964 0.042356 -0.952378 0 0
    0 0.317776 1.464828 24.710157 0.635927 -0.326873 -0.699108 0 0
  phy
    0 -3.548850 12.447730 21.465404 -0.301964 0.042356 -0.952378 0 0
    0 -0.187590 8.322222 28.799263 -0.196778 -0.950871 -0.239005 0 0
    0 1.978742 13.884001 19.739939 -0.951053 0.031243 0.307445 0 0
  phy
    0 3.964394 -33.486699 5.717187 0.709585 -0.235518 0.664094 0 0
    0 -9.613739 -41.388799 -0.000003 0.214199 0.947466 -0.237542 0 0
    0 3.964389 -33.486697 -0.000002 0.622283 0.523055 0.582389 0 0
  phy
    0 -9.613739 -41.388789 5.717187 0.251476 -0.966857 -0.044118 0 0
    0 -9.613739 -41.388799 -0.000003 0.214199 0.947466 -0.237542 0 0
    0 3.964394 -33.486699 5.717187 0.709585 -0.235518 0.664094 0 0
  phy
    0 3.964394 -33.486699 5.717187 0.709585 -0.235518 0.664094 0 0
    0 20.696685 -13.021559 8.761296 0.054913 -0.943392 0.327102 0 0
    0 -9.613739 -41.388789 5.717187 0.251476 -0.966857 -0.044118 0 0
  phy
    0 3.964389 -33.486697 -0.000002 0.622283 0.523055 0.582389 0 0
    0 20.696685 -13.021573 -0.000001 0.061297 0.973544 0.220126 0 0
    0 3.964394 -33.486699 5.717187 0.709585 -0.235518 0.664094 0 0
  phy
    0 20.696685 -13.021573 -0.000001 0.061297 0.973544 0.220126 0 0
    0 20.696685 -13.021559 8.761296 0.054913 -0.943392 0.327102 0 0
    0 3.964394 -33.486699 5.717187 0.709585 -0.235518 0.664094 0 0
  phy
    0 -13.743635 -18.676266 8.761294 0.077743 -0.923947 -0.374538 0 0
    0 -8.506920 3.999999 10.556538 -0.409977 -0.757055 -0.508710 0 0
    0 -8.506921 4.000000 0.000000 -0.363604 0.855795 -0.367977 0 0
  phy
    0 -13.743635 -18.676266 8.761294 0.077743 -0.923947 -0.374538 0 0
    0 7.203170 4.000001 10.556538 -0.347538 -0.921798 0.171769 0 0
    0 -8.506920 3.999999 10.556538 -0.409977 -0.757055 -0.508710 0 0
  phy
    0 -8.506921 4.000000 0.000000 -0.363604 0.855795 -0.367977 0 0
    0 -8.506920 3.999999 10.556538 -0.409977 -0.757055 -0.508710 0 0
    0 7.203170 4.000001 10.556538 -0.347538 -0.921798 0.171769 0 0
  phy
    0 20.696685 -13.021573 -0.000001 0.061297 0.973544 0.220126 0 0
    0 -13.743634 -18.676264 -0.000001 -0.006035 0.968878 -0.247464 0 0
    0 -8.506921 4.000000 0.000000 -0.363604 0.855795 -0.367977 0 0
  phy
    0 -13.743634 -18.676264 -0.000001 -0.006035 0.968878 -0.247464 0 0
    0 20.696685 -13.021573 -0.000001 0.061297 0.973544 0.220126 0 0
    0 -9.613739 -41.388799 -0.000003 0.214199 0.947466 -0.237542 0 0
  phy
    0 -13.743634 -18.676264 -0.000001 -0.006035 0.968878 -0.247464 0 0
    0 -13.743635 -18.676266 8.761294 0.077743 -0.923947 -0.374538 0 0
    0 -8.506921 4.000000 0.000000 -0.363604 0.855795 -0.367977 0 0
  phy
    0 -13.743635 -18.676266 8.761294 0.077743 -0.923947 -0.374538 0 0
    0 -13.743634 -18.676264 -0.000001 -0.006035 0.968878 -0.247464 0 0
    0 -9.613739 -41.388799 -0.000003 0.214199 0.947466 -0.237542 0 0
  phy
    0 20.696685 -13.021573 -0.000001 0.061297 0.973544 0.220126 0 0
    0 3.964389 -33.486697 -0.000002 0.622283 0.523055 0.582389 0 0
    0 -9.613739 -41.388799 -0.000003 0.214199 0.947466 -0.237542 0 0
  phy
    0 -9.613739 -41.388789 5.717187 0.251476 -0.966857 -0.044118 0 0
    0 20.696685 -13.021559 8.761296 0.054913 -0.943392 0.327102 0 0
    0 -13.743635 -18.676266 8.761294 0.077743 -0.923947 -0.374538 0 0
  phy
    0 20.696685 -13.021559 8.761296 0.054913 -0.943392 0.327102 0 0
    0 7.203170 4.000001 10.556538 -0.347538 -0.921798 0.171769 0 0
    0 -13.743635 -18.676266 8.761294 0.077743 -0.923947 -0.374538 0 0
  phy
    0 -9.613739 -41.388789 5.717187 0.251476 -0.966857 -0.044118 0 0
    0 -13.743635 -18.676266 8.761294 0.077743 -0.923947 -0.374538 0 0
    0 -9.613739 -41.388799 -0.000003 0.214199 0.947466 -0.237542 0 0
  phy
    0 20.696685 -13.021573 -0.000001 0.061297 0.973544 0.220126 0 0
    0 -8.506921 4.000000 0.000000 -0.363604 0.855795 -0.367977 0 0
    0 7.203222 4.000001 0.000000 -0.709332 0.444733 0.546863 0 0
  phy
    0 20.696685 -13.021573 -0.000001 0.061297 0.973544 0.220126 0 0
    0 7.203222 4.000001 0.000000 -0.709332 0.444733 0.546863 0 0
    0 20.696685 -13.021559 8.761296 0.054913 -0.943392 0.327102 0 0
  phy
    0 7.203222 4.000001 0.000000 -0.709332 0.444733 0.546863 0 0
    0 -8.506921 4.000000 0.000000 -0.363604 0.855795 -0.367977 0 0
    0 7.203170 4.000001 10.556538 -0.347538 -0.921798 0.171769 0 0
  phy
    0 7.203222 4.000001 0.000000 -0.709332 0.444733 0.546863 0 0
    0 7.203170 4.000001 10.556538 -0.347538 -0.921798 0.171769 0 0
    0 20.696685 -13.021559 8.761296 0.054913 -0.943392 0.327102 0 0
end
