version 1
nodes
0 "bip_pelvis" -1
1 "bip_spine_0" 0
2 "bip_spine_1" 1
3 "bip_spine_2" 2
4 "bip_spine_3" 3
5 "bip_collar_R" 4
6 "bip_upperArm_R" 5
7 "bip_lowerArm_R" 6
8 "bip_hand_R" 7
9 "bip_thumb_0_R" 8
10 "bip_thumb_1_R" 9
11 "bip_thumb_2_R" 10
12 "bip_index_0_R" 8
13 "bip_index_1_R" 12
14 "bip_index_2_R" 13
15 "bip_middle_0_R" 8
16 "bip_middle_1_R" 15
17 "bip_middle_2_R" 16
18 "bip_ring_0_R" 8
19 "bip_ring_1_R" 18
20 "bip_ring_2_R" 19
21 "bip_pinky_0_R" 8
22 "bip_pinky_1_R" 21
23 "bip_pinky_2_R" 22
24 "bip_neck" 4
25 "bip_head" 24
26 "bip_collar_L" 4
27 "bip_upperArm_L" 26
28 "bip_lowerArm_L" 27
29 "bip_hand_L" 28
30 "bip_hip_L" 0
31 "bip_knee_L" 30
32 "bip_foot_L" 31
33 "bip_toe_L" 32
34 "bip_hip_R" 0
35 "bip_knee_R" 34
36 "bip_foot_R" 35
37 "bip_toe_R" 36
end
skeleton
time 0
0  0.000000 44.620117 -0.558480  -2.946745 -0.000000 0.000000
1  0.000000 -5.355257 -0.000006  -0.365171 -0.000000 0.000000
2  0.000000 -7.488270 -0.000007  0.078847 0.000000 -0.000000
3  -0.000000 -5.597976 0.000003  0.203053 -0.000000 0.000000
4  -0.000000 -6.565102 0.000002  0.759885 -0.000000 -0.000000
5  -2.063126 -0.067781 -6.194536  -0.656185 -2.351416 1.692835
6  1.255517 5.269155 -0.635006  -0.529489 -0.241075 2.646309
7  11.265919 0.162839 -0.481341  -1.516295 -0.106849 -0.008479
8  19.941729 -0.000448 -0.000010  -0.151341 -1.545971 -1.570818
9  2.899844 -0.471045 -4.331232  -0.449452 -0.559880 -0.709305
10  -0.000024 2.543316 0.000042  0.221028 0.000000 0.000000
11  0.000071 2.315283 -0.000049  0.100872 -0.000000 0.000000
12  1.551418 3.956636 -3.900815  -0.445693 -1.774017 0.020741
13  -0.000004 2.741444 0.000004  -0.256296 -0.000000 0.000000
14  0.000012 2.668505 0.000039  -0.190586 0.000000 -0.000000
15  1.401113 3.639804 -1.202117  -1.110445 -1.785763 0.694509
16  0.000003 2.810953 0.000012  -0.256296 -0.000000 0.000000
17  0.000001 2.736201 -0.000019  -0.190586 0.000000 -0.000000
18  1.335677 3.182089 1.418086  0.980184 -1.251585 -1.415249
19  -0.000004 2.663276 0.000057  -0.256296 0.000000 0.000000
20  0.000004 2.592522 -0.000043  -0.190586 0.000000 -0.000000
21  1.344778 1.881109 3.809597  1.120332 -1.203080 -1.477339
22  0.000009 2.315661 -0.000091  -0.256296 -0.000000 0.000000
23  -0.000006 2.254007 0.000090  -0.190586 -0.000000 0.000000
24  -0.000000 -6.555983 0.000072  0.091394 -0.000000 0.000000
25  -0.000000 -3.252141 -0.000012  -0.684594 0.000000 -0.000000
26  1.548545 -4.925817 -4.285317  0.341044 -2.410093 1.636733
27  1.190080 -10.472059 -0.306121  1.353248 -0.238019 -0.934260
28  0.000042 -0.000157 15.020968  -0.201994 -0.066154 0.008339
29  -0.000015 0.000024 8.039617  0.000000 0.000000 0.318947
30  6.938272 1.999414 -1.014581  0.027869 2.953206 -1.681975
31  17.929306 -0.654243 -0.234203  -0.000000 0.195504 -0.000000
32  20.788445 0.654105 0.769975  -1.033567 0.034965 1.514705
33  0.011255 -6.809919 1.974028  -0.607868 0.000000 0.000000
34  -6.938270 1.999410 -1.014580  1.542928 0.188387 1.681976
35  17.946318 0.241774 0.498741  0.000000 -0.000000 0.195504
36  20.770239 -0.774038 -0.498774  -0.019628 -1.504708 -2.583760
37  -0.011240 6.809899 -1.974067  -0.607868 -0.000000 0.000000
time 1
0  0.000000 44.620117 -0.558481  -2.946745 -0.000000 0.000000
1  0.000000 -5.355255 -0.000001  -0.365171 -0.000000 0.000000
2  0.000000 -7.488279 -0.000002  0.078847 0.000000 -0.000000
3  0.000000 -5.597977 0.000000  0.203053 -0.000000 0.000000
4  0.000000 -6.565116 0.000002  0.759885 -0.000000 -0.000000
5  -1.549379 -5.102885 -4.074770  -0.656185 -2.351416 1.692835
6  -0.000069 11.987243 0.000029  -0.529489 -0.241075 2.646309
7  20.109314 0.000002 -0.000000  -1.516295 -0.106849 -0.008479
8  19.941738 0.000001 -0.000006  -0.151341 -1.545971 -1.570818
9  2.899847 -0.471041 -4.331213  -0.449452 -0.559880 -0.709305
10  -0.000024 2.543311 0.000027  0.221028 0.000000 0.000000
11  0.000060 2.315285 -0.000040  0.100872 -0.000000 0.000000
12  1.551410 3.956638 -3.900799  -0.445693 -1.774017 0.020741
13  -0.000001 2.741437 -0.000005  -0.256296 -0.000000 0.000000
14  0.000011 2.668501 0.000048  -0.190586 0.000000 -0.000000
15  1.401098 3.639813 -1.202110  -1.110445 -1.785763 0.694509
16  0.000005 2.810952 0.000006  -0.256296 -0.000000 0.000000
17  -0.000003 2.736203 -0.000026  -0.190586 0.000000 -0.000000
18  1.335664 3.182098 1.418086  0.980184 -1.251585 -1.415249
19  -0.000003 2.663267 0.000044  -0.256296 0.000000 0.000000
20  0.000003 2.592522 -0.000036  -0.190586 0.000000 -0.000000
21  1.344769 1.881122 3.809587  1.120332 -1.203080 -1.477339
22  0.000012 2.315659 -0.000082  -0.256296 -0.000000 0.000000
23  -0.000006 2.254010 0.000074  -0.190586 -0.000000 0.000000
24  -0.000000 -6.555975 0.000003  0.091394 -0.000000 0.000000
25  -0.000000 -3.252138 -0.000005  -0.684594 0.000000 -0.000000
26  1.548545 -4.925743 -4.285369  0.341044 -2.410093 1.636733
27  1.190182 -10.472042 -0.306139  1.353248 -0.238019 -0.934260
28  0.000011 0.000001 15.020971  -0.201994 -0.066154 0.008339
29  0.000002 0.000001 8.039607  0.000000 0.000000 0.318947
30  6.938272 1.999410 -1.014579  0.027869 2.953206 -1.681975
31  20.710255 -0.000001 -0.000000  -0.000000 0.195504 -0.000000
32  18.105982 0.000002 0.000001  -1.033567 0.034965 1.514705
33  0.011267 -6.809892 1.974033  -0.607868 0.000000 0.000000
34  -6.938271 1.999410 -1.014579  1.542928 0.188387 1.681976
35  20.710218 -0.000000 0.000001  0.000000 -0.000000 0.195504
36  18.106009 0.000000 0.000001  -0.019628 -1.504708 -2.583760
37  -0.011249 6.809884 -1.974043  -0.607868 -0.000000 0.000000
end
