version 1
nodes
0 "ValveBiped.Bip01_Pelvis" -1
1 "ValveBiped.Bip01_Spine" 0
2 "ValveBiped.Bip01_Spine1" 1
3 "ValveBiped.Bip01_Spine2" 2
4 "ValveBiped.Bip01_Spine4" 3
5 "ValveBiped.Bip01_Neck1" 4
6 "ValveBiped.Bip01_Head1" 5
7 "ValveBiped.forward" 6
8 "ValveBiped.Bip01_R_Eye" 6
9 "ValveBiped.Bip01_L_Eye" 6
10 "j_hair_b_01" 6
11 "j_hair_b_011" 10
12 "j_hair_b_012" 11
13 "j_hair_b_013" 12
14 "j_hair_b_014" 13
15 "j_hair_b_015" 14
16 "j_hair_b_021" 10
17 "j_hair_b_022" 16
18 "j_hair_b_023" 17
19 "j_hair_b_024" 18
20 "j_hair_b_025" 19
21 "j_hair_b_041" 10
22 "j_hair_b_042" 21
23 "j_hair_b_043" 22
24 "j_hair_b_044" 23
25 "j_hair_b_045" 24
26 "j_hair_b_051" 10
27 "j_hair_b_052" 26
28 "j_hair_b_053" 27
29 "j_hair_b_054" 28
30 "j_hair_b_055" 29
31 "j_hair_b_061" 10
32 "j_hair_b_062" 31
33 "j_hair_b_063" 32
34 "j_hair_b_064" 33
35 "j_hair_b_065" 34
36 "j_hair_b_071" 10
37 "j_hair_b_072" 36
38 "j_hair_b_073" 37
39 "j_hair_b_074" 38
40 "j_hair_b_075" 39
41 "j_hair_b_031" 10
42 "j_hair_b_032" 41
43 "j_hair_b_033" 42
44 "j_hair_b_034" 43
45 "j_hair_b_035" 44
46 "j_hair_f_01" 6
47 "j_hair_f_02" 46
48 "j_hair_fr_01" 6
49 "j_hair_fl_01" 6
50 "j_hair_r_01" 6
51 "j_hair_l_01" 6
52 "ValveBiped.Bip01_L_Clavicle" 4
53 "ValveBiped.Bip01_L_UpperArm" 52
54 "ValveBiped.Bip01_L_Forearm" 53
55 "ValveBiped.Bip01_L_Ulna" 54
56 "ValveBiped.Bip01_L_Wrist" 54
57 "ValveBiped.Bip01_L_Hand" 54
58 "ValveBiped.Bip01_L_Finger3" 57
59 "ValveBiped.Bip01_L_Finger31" 58
60 "ValveBiped.Bip01_L_Finger32" 59
61 "ValveBiped.Bip01_L_Finger2" 57
62 "ValveBiped.Bip01_L_Finger21" 61
63 "ValveBiped.Bip01_L_Finger22" 62
64 "ValveBiped.Bip01_L_Finger1" 57
65 "ValveBiped.Bip01_L_Finger11" 64
66 "ValveBiped.Bip01_L_Finger12" 65
67 "ValveBiped.Bip01_L_Finger4" 57
68 "ValveBiped.Bip01_L_Finger41" 67
69 "ValveBiped.Bip01_L_Finger42" 68
70 "ValveBiped.Bip01_L_Finger0" 57
71 "ValveBiped.Bip01_L_Finger01" 70
72 "ValveBiped.Bip01_L_Finger02" 71
73 "ValveBiped.Bip01_L_Shoulder" 53
74 "ValveBiped.Bip01_L_Elbow" 53
75 "ValveBiped.Bip01_L_Trapezius" 52
76 "ValveBiped.Bip01_R_Clavicle" 4
77 "ValveBiped.Bip01_R_UpperArm" 76
78 "ValveBiped.Bip01_R_Forearm" 77
79 "ValveBiped.Bip01_R_Hand" 78
80 "ValveBiped.Bip01_R_Finger2" 79
81 "ValveBiped.Bip01_R_Finger21" 80
82 "ValveBiped.Bip01_R_Finger22" 81
83 "ValveBiped.Bip01_R_Finger1" 79
84 "ValveBiped.Bip01_R_Finger11" 83
85 "ValveBiped.Bip01_R_Finger12" 84
86 "ValveBiped.Bip01_R_Finger3" 79
87 "ValveBiped.Bip01_R_Finger31" 86
88 "ValveBiped.Bip01_R_Finger32" 87
89 "ValveBiped.Bip01_R_Finger4" 79
90 "ValveBiped.Bip01_R_Finger41" 89
91 "ValveBiped.Bip01_R_Finger42" 90
92 "ValveBiped.Bip01_R_Finger0" 79
93 "ValveBiped.Bip01_R_Finger01" 92
94 "ValveBiped.Bip01_R_Finger02" 93
95 "ValveBiped.Bip01_R_Wrist" 78
96 "ValveBiped.Bip01_R_Ulna" 78
97 "ValveBiped.Bip01_R_Shoulder" 77
98 "ValveBiped.Bip01_R_Elbow" 77
99 "ValveBiped.Bip01_R_Trapezius" 76
100 "p_wing_c_01" 4
101 "p_wing_r_01" 100
102 "p_wing_l_01" 100
103 "ValveBiped.Bip01_L_Thigh" 0
104 "ValveBiped.Bip01_L_Calf" 103
105 "ValveBiped.Bip01_L_Foot" 104
106 "ValveBiped.Bip01_L_Toe0" 105
107 "ValveBiped.Bip01_L_Ankle" 104
108 "ValveBiped.Bip01_L_Knee" 103
109 "ValveBiped.Bip01_R_Thigh" 0
110 "ValveBiped.Bip01_R_Calf" 109
111 "ValveBiped.Bip01_R_Foot" 110
112 "ValveBiped.Bip01_R_Toe0" 111
113 "ValveBiped.Bip01_R_Ankle" 110
114 "ValveBiped.Bip01_R_Knee" 109
115 "root" -1
end
skeleton
time 0
0  -0.010646 -0.740858 37.743862  1.570796 -0.000000 0.000000
1  0.000004 1.778801 -1.570904  1.570796 -0.010528 1.570812
2  3.567222 -0.000016 0.000055  0.000002 -0.000018 -0.112617
3  3.363213 -0.000002 -0.000010  0.000000 0.000003 -0.012641
4  7.610757 0.069373 -0.000001  -0.000000 0.000002 0.155813
5  2.349385 0.024889 0.000004  3.141590 -0.000004 0.227054
6  3.207989 0.000005 0.000008  -0.000000 0.000004 0.111004
7  0.000002 -0.000003 0.000000  -1.570790 -0.000001 -1.323625
8  2.939039 -0.168550 1.371936  1.571041 -1.554020 0.174364
9  2.947497 -0.167063 -1.324620  1.570786 -1.633708 0.174591
10  7.838858 6.460703 -0.010598  -0.000003 0.000004 2.556769
11  1.795999 0.000007 -0.000000  0.034014 0.420091 0.389848
12  12.693293 0.000203 0.000119  -0.000017 -0.000037 0.204735
13  14.397285 -0.000088 -0.000412  0.000013 0.000020 -0.003570
14  14.182595 -0.000135 -0.000117  -0.000006 0.000025 -0.002318
15  11.238826 0.000179 0.000192  -0.000002 -0.000043 0.074594
16  1.796021 0.000014 -0.000000  0.013064 0.281247 0.345405
17  12.495463 -0.000175 -0.000104  0.000012 0.000003 0.218213
18  14.264750 -0.000060 -0.000064  -0.000002 0.000008 -0.015028
19  14.315914 0.000021 0.000045  -0.000006 0.000008 0.008426
20  10.998489 0.000044 0.000124  -0.000001 -0.000025 0.067891
21  1.796008 -0.000002 -0.000000  -0.000001 0.000000 0.341148
22  12.211101 -0.000188 -0.000000  0.000000 -0.000000 0.135257
23  14.351534 0.000116 -0.000001  0.000000 0.000000 0.061748
24  14.240410 0.000031 0.000000  0.000000 0.000000 -0.001125
25  10.626462 0.000023 0.000000  0.000000 -0.000000 -0.015231
26  1.796021 0.000014 -0.000000  -0.003249 -0.143342 0.328368
27  12.448377 -0.000033 -0.000002  -0.000001 -0.000013 0.181913
28  14.022105 0.000055 -0.000182  0.000001 0.000014 0.019295
29  13.727727 -0.000040 0.000017  -0.000004 0.000002 0.017588
30  11.751347 -0.000087 0.000035  0.000005 0.000033 0.028955
31  1.796008 -0.000002 -0.000000  -0.013760 -0.288072 0.355400
32  12.201813 -0.000170 0.000078  -0.000008 0.000000 0.200649
33  13.727725 -0.000082 0.000093  0.000006 -0.000014 -0.026899
34  14.050259 0.000074 -0.000117  -0.000002 -0.000026 0.068499
35  11.467733 -0.000010 -0.000391  -0.000004 0.000019 0.000730
36  1.796008 -0.000002 -0.000000  -0.033588 -0.413300 0.386593
37  12.348496 -0.000153 -0.000042  -0.000001 0.000026 0.216382
38  13.917513 -0.000104 0.000289  -0.000000 0.000038 -0.027175
39  13.326023 -0.000084 0.000791  -0.000002 -0.000024 0.019375
40  12.015522 0.000033 0.000430  0.000000 -0.000045 0.029163
41  1.796025 0.000011 -0.000000  0.003044 0.134521 0.328351
42  12.448415 -0.000155 -0.000032  0.000002 0.000005 0.187596
43  13.887742 -0.000038 0.000041  0.000003 0.000012 0.022602
44  14.264750 0.000115 0.000219  -0.000008 -0.000008 -0.009301
45  11.346079 -0.000189 0.000088  0.000007 -0.000028 0.059486
46  7.951499 -3.887518 -0.205242  -1.575304 0.054796 -3.066599
47  2.581427 0.000039 -0.000057  -0.000004 0.000010 -0.023738
48  7.462265 -3.217788 2.206812  -1.570765 -0.035999 -2.984471
49  8.022839 -3.128971 -2.191636  -1.570793 -0.023259 -2.984441
50  4.493585 -2.010164 4.287773  1.570793 2.849525 0.157127
51  5.194356 -1.899128 -4.650994  1.570791 -2.887118 0.157145
52  1.881268 0.843590 1.898575  -1.503288 -1.807438 -0.241407
53  2.970788 0.045838 0.084208  -1.441676 0.096440 -0.516738
54  8.699284 0.000038 0.000004  0.002977 -0.045845 -0.039723
55  3.891239 0.000125 -0.000011  -0.030891 -0.000000 0.000029
56  7.782444 0.000247 -0.000003  -0.057572 -0.000001 0.000028
57  7.782445 0.000246 0.000005  1.505400 -0.038605 0.036337
58  2.959192 0.161515 -0.430188  0.068897 -0.044930 -0.258034
59  1.164918 -0.049369 -0.072170  0.042616 0.057706 0.125599
60  0.679468 -0.000023 0.000003  0.156416 -0.040115 -0.202642
61  3.009077 0.080144 0.136295  0.142330 -0.052338 -0.171465
62  1.365345 -0.048336 -0.068474  -0.036110 0.039207 0.053660
63  0.755192 0.000011 -0.000006  -0.001250 -0.005673 -0.098994
64  3.020000 -0.040074 0.648142  0.302872 -0.149215 -0.102524
65  1.066566 -0.051342 -0.053605  -0.020777 0.084728 -0.150781
66  0.824845 0.022262 -0.030335  0.022999 0.020232 0.074286
67  2.759480 -0.116649 -1.107486  0.217204 -0.052923 -0.105024
68  0.834291 -0.042746 -0.018989  -0.400122 0.100860 0.016253
69  0.481277 0.000000 -0.000004  0.194194 -0.012831 -0.056700
70  1.003916 -0.318441 0.595923  -0.074760 -0.826044 -0.527891
71  0.985941 0.000010 -0.000012  -0.169024 0.043740 0.104425
72  0.778556 0.000006 -0.000003  -0.319732 0.108341 -0.014838
73  1.039957 0.001349 0.056852  -0.157219 -0.054605 0.001297
74  8.699305 0.000038 0.000002  0.005484 -0.054329 -0.098917
75  2.308939 0.045844 0.084195  -0.000001 -0.000007 -0.000006
76  1.881274 0.843599 -1.924850  1.431435 1.807472 -0.241532
77  2.846481 0.005646 -0.083866  1.500777 -0.058212 -0.465598
78  8.662306 -0.007396 0.395620  -0.000700 -0.008665 -0.041751
79  7.708406 0.000177 0.000038  -1.502002 0.039027 0.029858
80  2.961793 0.036305 -0.067128  -0.093567 0.056361 -0.120093
81  1.241524 0.012356 -0.044789  0.084557 0.001858 -0.292327
82  0.922285 0.038923 0.055060  -0.007845 -0.008312 0.252457
83  2.970551 -0.095584 -0.592688  -0.299688 0.165179 -0.119529
84  1.246895 -0.016448 0.060773  0.001284 -0.065017 -0.155360
85  0.727606 -0.000030 -0.000019  0.041281 -0.100690 0.112495
86  2.912335 0.127545 0.651071  -0.175295 0.080301 -0.179114
87  1.127996 -0.001531 -0.000502  -0.004425 -0.045743 -0.074531
88  0.724871 -0.000010 0.000006  -0.081644 0.016442 -0.018045
89  2.798821 0.007999 1.134009  -0.144908 -0.034663 -0.248794
90  0.709027 -0.019755 0.021109  -0.275160 0.134587 0.055056
91  0.581720 0.006523 -0.016448  -0.005657 -0.131240 -0.068398
92  1.034821 -0.392484 -0.639818  1.804367 0.759700 -0.503068
93  1.017592 0.000012 0.000008  0.227149 0.055419 0.089628
94  0.804549 0.000006 -0.000016  0.020420 0.073866 -0.178579
95  7.708406 0.000177 0.000038  0.065184 0.000000 0.000013
96  3.854198 0.000090 0.000027  0.034932 -0.000001 0.000031
97  1.031609 0.000000 0.000020  0.000002 -0.000000 0.000003
98  8.662306 -0.007396 0.395620  -0.000013 0.000000 -0.100068
99  2.184631 0.005629 -0.083874  -0.000001 -0.000002 0.000006
100  -1.049802 -2.841842 0.010650  3.141589 -0.000002 -0.071380
101  1.968996 -0.000022 0.000000  1.570918 -1.452439 -0.030418
102  1.969008 -0.000001 0.000000  1.570770 1.388433 -0.030325
103  3.703570 -0.000000 -0.000003  -1.570796 0.031087 -1.611085
104  15.711951 -0.008584 0.011099  -0.000001 -0.017307 0.051659
105  19.191357 -0.102995 0.046528  0.029982 -0.030327 -1.230021
106  5.947888 0.000044 -0.000003  -0.011147 0.000934 -0.500524
107  18.014866 -0.155491 0.043366  -0.000001 0.000000 0.000068
108  15.711951 -0.008584 0.011099  0.000001 0.000000 0.025252
109  -3.703569 0.000011 0.000006  -1.571277 0.031093 -1.528219
110  15.674867 -0.008532 -0.011853  0.000001 0.017924 0.051663
111  19.147018 -0.103972 -0.050086  -0.016314 0.041538 -1.233105
112  5.992657 -0.000049 0.000002  -0.078651 -0.006185 -0.498941
113  17.973276 -0.156954 -0.046987  -0.000002 0.000000 -0.000025
114  15.674855 -0.008532 -0.011852  0.000000 0.000000 0.025264
115  0.000000 0.000000 0.000000  0.000000 -0.000000 0.000000
end
triangles
mokou_cloth2
0  -15.452113 1.837699 45.724663  0.421560 0.898081 0.125454  0.039646 0.028117 1 78 1.000000
0  -15.327827 1.785159 45.596226  0.490193 0.863135 0.121279  0.039664 0.024449 1 78 1.000000
0  -15.465097 1.868596 45.592632  0.402625 0.910819 -0.091107  0.041942 0.026598 1 78 1.000000
mokou_cloth2
0  -15.327827 1.785159 45.596226  0.490193 0.863135 0.121279  0.039664 0.024449 1 78 1.000000
0  -15.452113 1.837699 45.724663  0.421560 0.898081 0.125454  0.039646 0.028117 1 78 1.000000
0  -15.123845 1.671726 45.595684  0.483131 0.868311 0.112338  0.036355 0.021191 1 78 1.000000
mokou_cloth2
0  -15.521671 -0.484944 45.723175  0.549705 -0.832035 0.074446  0.044529 0.026120 1 78 1.000000
0  -15.746008 -0.420320 46.114365  0.551065 -0.597683 0.582325  0.041982 0.034822 1 78 1.000000
0  -15.817709 -0.553547 46.045475  0.271740 -0.898971 0.343523  0.044529 0.034822 1 78 1.000000
mokou_cloth2
0  -15.479567 -0.358576 45.824280  0.743528 -0.550949 0.378975  0.041982 0.026990 1 78 1.000000
0  -15.746008 -0.420320 46.114365  0.551065 -0.597683 0.582325  0.041982 0.034822 1 78 1.000000
0  -15.521671 -0.484944 45.723175  0.549705 -0.832035 0.074446  0.044529 0.026120 1 78 1.000000
mokou_cloth2
0  -15.270695 -0.234786 45.431099  0.723650 -0.684131 -0.091079  0.044529 0.018743 1 78 1.000000
0  -15.479567 -0.358576 45.824280  0.743528 -0.550949 0.378975  0.041982 0.026990 1 78 1.000000
0  -15.521671 -0.484944 45.723175  0.549705 -0.832035 0.074446  0.044529 0.026120 1 78 1.000000
mokou_cloth2
0  -15.253689 -0.133434 45.561405  0.852075 -0.462956 0.244215  0.041982 0.020351 1 78 1.000000
0  -15.479567 -0.358576 45.824280  0.743528 -0.550949 0.378975  0.041982 0.026990 1 78 1.000000
0  -15.270695 -0.234786 45.431099  0.723650 -0.684131 -0.091079  0.044529 0.018743 1 78 1.000000
mokou_cloth2
0  -15.013680 0.150573 45.119286  0.794274 -0.582974 -0.171087  0.044529 0.013813 1 78 1.000000
0  -15.253689 -0.133434 45.561405  0.852075 -0.462956 0.244215  0.041982 0.020351 1 78 1.000000
0  -15.270695 -0.234786 45.431099  0.723650 -0.684131 -0.091079  0.044529 0.018743 1 78 1.000000
mokou_cloth2
0  -15.013449 0.212562 45.271355  0.893066 -0.419716 0.162084  0.041982 0.015914 1 78 1.000000
0  -15.253689 -0.133434 45.561405  0.852075 -0.462956 0.244215  0.041982 0.020351 1 78 1.000000
0  -15.013680 0.150573 45.119286  0.794274 -0.582974 -0.171087  0.044529 0.013813 1 78 1.000000
mokou_cloth2
0  -14.786082 0.612130 44.831356  0.921016 -0.036613 -0.387799  0.044529 0.012082 1 78 1.000000
0  -15.013449 0.212562 45.271355  0.893066 -0.419716 0.162084  0.041982 0.015914 1 78 1.000000
0  -15.013680 0.150573 45.119286  0.794274 -0.582974 -0.171087  0.044529 0.013813 1 78 1.000000
mokou_cloth2
0  -14.791737 0.626402 44.994373  0.998961 -0.013996 0.043367  0.041982 0.014356 1 78 1.000000
0  -15.013449 0.212562 45.271355  0.893066 -0.419716 0.162084  0.041982 0.015914 1 78 1.000000
0  -14.786082 0.612130 44.831356  0.921016 -0.036613 -0.387799  0.044529 0.012082 1 78 1.000000
mokou_cloth2
0  -15.013681 1.115806 45.024502  0.789086 0.545827 -0.281808  0.044529 0.013813 1 78 1.000000
0  -14.791737 0.626402 44.994373  0.998961 -0.013996 0.043367  0.041982 0.014356 1 78 1.000000
0  -14.786082 0.612130 44.831356  0.921016 -0.036613 -0.387799  0.044529 0.012082 1 78 1.000000
mokou_cloth2
0  -15.013447 1.081272 45.186039  0.892000 0.441458 0.097211  0.041982 0.015914 1 78 1.000000
0  -14.791737 0.626402 44.994373  0.998961 -0.013996 0.043367  0.041982 0.014356 1 78 1.000000
0  -15.013681 1.115806 45.024502  0.789086 0.545827 -0.281808  0.044529 0.013813 1 78 1.000000
mokou_cloth2
0  -15.270695 1.548728 45.255951  0.727376 0.638554 -0.251343  0.044529 0.018743 1 78 1.000000
0  -15.013447 1.081272 45.186039  0.892000 0.441458 0.097211  0.041982 0.015914 1 78 1.000000
0  -15.013681 1.115806 45.024502  0.789086 0.545827 -0.281808  0.044529 0.013813 1 78 1.000000
mokou_cloth2
0  -15.253689 1.471728 45.403778  0.887290 0.442911 0.128631  0.041982 0.020351 1 78 1.000000
0  -15.013447 1.081272 45.186039  0.892000 0.441458 0.097211  0.041982 0.015914 1 78 1.000000
0  -15.270695 1.548728 45.255951  0.727376 0.638554 -0.251343  0.044529 0.018743 1 78 1.000000
mokou_cloth2
0  -15.465097 1.868596 45.592632  0.402625 0.910819 -0.091107  0.041942 0.026598 1 78 1.000000
0  -15.253689 1.471728 45.403778  0.887290 0.442911 0.128631  0.041982 0.020351 1 78 1.000000
0  -15.270695 1.548728 45.255951  0.727376 0.638554 -0.251343  0.044529 0.018743 1 78 1.000000
mokou_cloth2
0  -15.521669 1.845332 45.494347  0.303258 0.870474 -0.387698  0.044529 0.026120 1 78 1.000000
0  -15.465097 1.868596 45.592632  0.402625 0.910819 -0.091107  0.041942 0.026598 1 78 1.000000
0  -15.270695 1.548728 45.255951  0.727376 0.638554 -0.251343  0.044529 0.018743 1 78 1.000000
mokou_cloth2
0  -15.817711 1.968724 45.797798  0.019423 0.997306 -0.070740  0.044529 0.034822 1 78 1.000000
0  -15.465097 1.868596 45.592632  0.402625 0.910819 -0.091107  0.041942 0.026598 1 78 1.000000
0  -15.521669 1.845332 45.494347  0.303258 0.870474 -0.387698  0.044529 0.026120 1 78 1.000000
mokou_cloth2
0  -15.452113 1.837699 45.724663  0.421560 0.898081 0.125454  0.039646 0.028117 1 78 1.000000
0  -15.465097 1.868596 45.592632  0.402625 0.910819 -0.091107  0.041942 0.026598 1 78 1.000000
0  -15.817711 1.968724 45.797798  0.019423 0.997306 -0.070740  0.044529 0.034822 1 78 1.000000
mokou_cloth2
0  -15.743105 1.969259 45.873188  0.083025 0.992546 -0.089210  0.042037 0.034691 1 78 1.000000
0  -15.452113 1.837699 45.724663  0.421560 0.898081 0.125454  0.039646 0.028117 1 78 1.000000
0  -15.817711 1.968724 45.797798  0.019423 0.997306 -0.070740  0.044529 0.034822 1 78 1.000000
mokou_cloth2
0  -16.043640 1.879656 46.228539  -0.259177 0.860420 0.438754  0.041616 0.043874 1 78 1.000000
0  -15.743105 1.969259 45.873188  0.083025 0.992546 -0.089210  0.042037 0.034691 1 78 1.000000
0  -15.817711 1.968724 45.797798  0.019423 0.997306 -0.070740  0.044529 0.034822 1 78 1.000000
mokou_cloth2
0  -16.794828 -0.581252 44.938118  -0.288151 -0.939871 -0.183337  0.079234 0.034822 3 78 0.750000 79 0.125000 95 0.125000
0  -16.113758 -0.430155 46.348927  -0.014117 -0.799277 0.600796  0.044529 0.043524 1 78 1.000000
0  -17.074591 -0.463414 45.238960  -0.559213 -0.826471 0.065010  0.079234 0.042654 3 78 0.750000 79 0.125000 95 0.125000
mokou_cloth2
0  -15.817709 -0.553547 46.045475  0.271740 -0.898971 0.343523  0.044529 0.034822 1 78 1.000000
0  -16.113758 -0.430155 46.348927  -0.014117 -0.799277 0.600796  0.044529 0.043524 1 78 1.000000
0  -16.794828 -0.581252 44.938118  -0.288151 -0.939871 -0.183337  0.079234 0.034822 3 78 0.750000 79 0.125000 95 0.125000
mokou_cloth2
0  -16.515060 -0.517654 44.619476  -0.005425 -0.895177 -0.445678  0.079234 0.026990 3 78 0.750000 79 0.125000 95 0.125000
0  -15.817709 -0.553547 46.045475  0.271740 -0.898971 0.343523  0.044529 0.034822 1 78 1.000000
0  -16.794828 -0.581252 44.938118  -0.288151 -0.939871 -0.183337  0.079234 0.034822 3 78 0.750000 79 0.125000 95 0.125000
mokou_cloth2
0  -15.521671 -0.484944 45.723175  0.549705 -0.832035 0.074446  0.044529 0.026120 1 78 1.000000
0  -15.817709 -0.553547 46.045475  0.271740 -0.898971 0.343523  0.044529 0.034822 1 78 1.000000
0  -16.515060 -0.517654 44.619476  -0.005425 -0.895177 -0.445678  0.079234 0.026990 3 78 0.750000 79 0.125000 95 0.125000
mokou_cloth2
0  -16.277891 -0.282301 44.331512  0.167298 -0.772419 -0.612682  0.079234 0.020351 3 78 0.750000 79 0.125000 95 0.125000
0  -15.521671 -0.484944 45.723175  0.549705 -0.832035 0.074446  0.044529 0.026120 1 78 1.000000
0  -16.515060 -0.517654 44.619476  -0.005425 -0.895177 -0.445678  0.079234 0.026990 3 78 0.750000 79 0.125000 95 0.125000
mokou_cloth2
0  -15.270695 -0.234786 45.431099  0.723650 -0.684131 -0.091079  0.044529 0.018743 1 78 1.000000
0  -15.521671 -0.484944 45.723175  0.549705 -0.832035 0.074446  0.044529 0.026120 1 78 1.000000
0  -16.277891 -0.282301 44.331512  0.167298 -0.772419 -0.612682  0.079234 0.020351 3 78 0.750000 79 0.125000 95 0.125000
mokou_cloth2
0  -16.025635 0.079884 44.014256  0.262178 -0.690049 -0.674607  0.079234 0.015914 3 78 0.750000 79 0.125000 95 0.125000
0  -15.270695 -0.234786 45.431099  0.723650 -0.684131 -0.091079  0.044529 0.018743 1 78 1.000000
0  -16.277891 -0.282301 44.331512  0.167298 -0.772419 -0.612682  0.079234 0.020351 3 78 0.750000 79 0.125000 95 0.125000
mokou_cloth2
0  -15.013680 0.150573 45.119286  0.794274 -0.582974 -0.171087  0.044529 0.013813 1 78 1.000000
0  -15.270695 -0.234786 45.431099  0.723650 -0.684131 -0.091079  0.044529 0.018743 1 78 1.000000
0  -16.025635 0.079884 44.014256  0.262178 -0.690049 -0.674607  0.079234 0.015914 3 78 0.750000 79 0.125000 95 0.125000
mokou_cloth2
0  -15.792840 0.513389 43.711731  0.456757 -0.075015 -0.886423  0.079234 0.014356 3 78 0.750000 79 0.125000 95 0.125000
0  -15.013680 0.150573 45.119286  0.794274 -0.582974 -0.171087  0.044529 0.013813 1 78 1.000000
0  -16.025635 0.079884 44.014256  0.262178 -0.690049 -0.674607  0.079234 0.015914 3 78 0.750000 79 0.125000 95 0.125000
mokou_cloth2
0  -14.786082 0.612130 44.831356  0.921016 -0.036613 -0.387799  0.044529 0.012082 1 78 1.000000
0  -15.013680 0.150573 45.119286  0.794274 -0.582974 -0.171087  0.044529 0.013813 1 78 1.000000
0  -15.792840 0.513389 43.711731  0.456757 -0.075015 -0.886423  0.079234 0.014356 3 78 0.750000 79 0.125000 95 0.125000
mokou_cloth2
0  -16.025635 0.992029 43.924683  0.264936 0.547225 -0.793948  0.079234 0.015914 3 78 0.750000 79 0.125000 95 0.125000
0  -14.786082 0.612130 44.831356  0.921016 -0.036613 -0.387799  0.044529 0.012082 1 78 1.000000
0  -15.792840 0.513389 43.711731  0.456757 -0.075015 -0.886423  0.079234 0.014356 3 78 0.750000 79 0.125000 95 0.125000
mokou_cloth2
0  -15.013681 1.115806 45.024502  0.789086 0.545827 -0.281808  0.044529 0.013813 1 78 1.000000
0  -14.786082 0.612130 44.831356  0.921016 -0.036613 -0.387799  0.044529 0.012082 1 78 1.000000
0  -16.025635 0.992029 43.924683  0.264936 0.547225 -0.793948  0.079234 0.015914 3 78 0.750000 79 0.125000 95 0.125000
mokou_cloth2
0  -16.277891 1.403120 44.166016  0.171377 0.643568 -0.745956  0.079234 0.020351 3 78 0.750000 79 0.125000 95 0.125000
0  -15.013681 1.115806 45.024502  0.789086 0.545827 -0.281808  0.044529 0.013813 1 78 1.000000
0  -16.025635 0.992029 43.924683  0.264936 0.547225 -0.793948  0.079234 0.015914 3 78 0.750000 79 0.125000 95 0.125000
mokou_cloth2
0  -15.270695 1.548728 45.255951  0.727376 0.638554 -0.251343  0.044529 0.018743 1 78 1.000000
0  -15.013681 1.115806 45.024502  0.789086 0.545827 -0.281808  0.044529 0.013813 1 78 1.000000
0  -16.277891 1.403120 44.166016  0.171377 0.643568 -0.745956  0.079234 0.020351 3 78 0.750000 79 0.125000 95 0.125000
mokou_cloth2
0  -16.515062 1.684455 44.403229  -0.005116 0.800248 -0.599647  0.079234 0.026990 2 78 0.750000 79 0.250000
0  -15.270695 1.548728 45.255951  0.727376 0.638554 -0.251343  0.044529 0.018743 1 78 1.000000
0  -16.277891 1.403120 44.166016  0.171377 0.643568 -0.745956  0.079234 0.020351 3 78 0.750000 79 0.125000 95 0.125000
mokou_cloth2
0  -15.521669 1.845332 45.494347  0.303258 0.870474 -0.387698  0.044529 0.026120 1 78 1.000000
0  -15.270695 1.548728 45.255951  0.727376 0.638554 -0.251343  0.044529 0.018743 1 78 1.000000
0  -16.515062 1.684455 44.403229  -0.005116 0.800248 -0.599647  0.079234 0.026990 2 78 0.750000 79 0.250000
mokou_cloth2
0  -16.794830 1.802294 44.704071  -0.289947 0.891804 -0.347299  0.079234 0.034822 2 78 0.750000 79 0.250000
0  -15.521669 1.845332 45.494347  0.303258 0.870474 -0.387698  0.044529 0.026120 1 78 1.000000
0  -16.515062 1.684455 44.403229  -0.005116 0.800248 -0.599647  0.079234 0.026990 2 78 0.750000 79 0.250000
mokou_cloth2
0  -15.817711 1.968724 45.797798  0.019423 0.997306 -0.070740  0.044529 0.034822 1 78 1.000000
0  -15.521669 1.845332 45.494347  0.303258 0.870474 -0.387698  0.044529 0.026120 1 78 1.000000
0  -16.794830 1.802294 44.704071  -0.289947 0.891804 -0.347299  0.079234 0.034822 2 78 0.750000 79 0.250000
mokou_cloth2
0  -16.794830 1.802294 44.704071  -0.289947 0.891804 -0.347299  0.079234 0.034822 2 78 0.750000 79 0.250000
0  -16.515062 1.684455 44.403229  -0.005116 0.800248 -0.599647  0.079234 0.026990 2 78 0.750000 79 0.250000
0  -16.870235 1.675277 44.626236  -0.527864 0.649060 -0.547797  0.081785 0.034822 2 78 0.750000 79 0.250000
mokou_cloth2
0  -16.870235 1.675277 44.626236  -0.527864 0.649060 -0.547797  0.081785 0.034822 2 78 0.750000 79 0.250000
0  -16.515062 1.684455 44.403229  -0.005116 0.800248 -0.599647  0.079234 0.026990 2 78 0.750000 79 0.250000
0  -16.618448 1.569223 44.355476  -0.306954 0.586122 -0.749827  0.081785 0.027773 3 78 0.750000 79 0.125000 95 0.125000
mokou_cloth2
0  -16.515062 1.684455 44.403229  -0.005116 0.800248 -0.599647  0.079234 0.026990 2 78 0.750000 79 0.250000
0  -16.277891 1.403120 44.166016  0.171377 0.643568 -0.745956  0.079234 0.020351 3 78 0.750000 79 0.125000 95 0.125000
0  -16.618448 1.569223 44.355476  -0.306954 0.586122 -0.749827  0.081785 0.027773 3 78 0.750000 79 0.125000 95 0.125000
mokou_cloth2
0  -16.618448 1.569223 44.355476  -0.306954 0.586122 -0.749827  0.081785 0.027773 3 78 0.750000 79 0.125000 95 0.125000
0  -16.277891 1.403120 44.166016  0.171377 0.643568 -0.745956  0.079234 0.020351 3 78 0.750000 79 0.125000 95 0.125000
0  -16.404997 1.316020 44.141994  -0.164374 0.485147 -0.858844  0.081785 0.021798 3 78 0.750000 79 0.125000 95 0.125000
mokou_cloth2
0  -16.277891 1.403120 44.166016  0.171377 0.643568 -0.745956  0.079234 0.020351 3 78 0.750000 79 0.125000 95 0.125000
0  -16.025635 0.992029 43.924683  0.264936 0.547225 -0.793948  0.079234 0.015914 3 78 0.750000 79 0.125000 95 0.125000
0  -16.404997 1.316020 44.141994  -0.164374 0.485147 -0.858844  0.081785 0.021798 3 78 0.750000 79 0.125000 95 0.125000
mokou_cloth2
0  -16.404997 1.316020 44.141994  -0.164374 0.485147 -0.858844  0.081785 0.021798 3 78 0.750000 79 0.125000 95 0.125000
0  -16.025635 0.992029 43.924683  0.264936 0.547225 -0.793948  0.079234 0.015914 3 78 0.750000 79 0.125000 95 0.125000
0  -16.168592 0.945130 43.914421  -0.070506 0.440137 -0.895158  0.081785 0.017805 3 78 0.750000 79 0.125000 95 0.125000
mokou_cloth2
0  -16.025635 0.992029 43.924683  0.264936 0.547225 -0.793948  0.079234 0.015914 3 78 0.750000 79 0.125000 95 0.125000
0  -15.792840 0.513389 43.711731  0.456757 -0.075015 -0.886423  0.079234 0.014356 3 78 0.750000 79 0.125000 95 0.125000
0  -16.168592 0.945130 43.914421  -0.070506 0.440137 -0.895158  0.081785 0.017805 3 78 0.750000 79 0.125000 95 0.125000
mokou_cloth2
0  -16.168592 0.945130 43.914421  -0.070506 0.440137 -0.895158  0.081785 0.017805 3 78 0.750000 79 0.125000 95 0.125000
0  -15.792840 0.513389 43.711731  0.456757 -0.075015 -0.886423  0.079234 0.014356 3 78 0.750000 79 0.125000 95 0.125000
0  -15.941355 0.512638 43.703129  0.048151 -0.074871 -0.996030  0.081785 0.016403 3 78 0.750000 79 0.125000 95 0.125000
mokou_cloth2
0  -15.792840 0.513389 43.711731  0.456757 -0.075015 -0.886423  0.079234 0.014356 3 78 0.750000 79 0.125000 95 0.125000
0  -16.025635 0.079884 44.014256  0.262178 -0.690049 -0.674607  0.079234 0.015914 3 78 0.750000 79 0.125000 95 0.125000
0  -15.941355 0.512638 43.703129  0.048151 -0.074871 -0.996030  0.081785 0.016403 3 78 0.750000 79 0.125000 95 0.125000
mokou_cloth2
0  -15.941355 0.512638 43.703129  0.048151 -0.074871 -0.996030  0.081785 0.016403 3 78 0.750000 79 0.125000 95 0.125000
0  -16.025635 0.079884 44.014256  0.262178 -0.690049 -0.674607  0.079234 0.015914 3 78 0.750000 79 0.125000 95 0.125000
0  -16.168594 0.124199 43.995026  -0.083695 -0.598835 -0.796487  0.081785 0.017805 3 78 0.750000 79 0.125000 95 0.125000
mokou_cloth2
0  -16.025635 0.079884 44.014256  0.262178 -0.690049 -0.674607  0.079234 0.015914 3 78 0.750000 79 0.125000 95 0.125000
0  -16.277891 -0.282301 44.331512  0.167298 -0.772419 -0.612682  0.079234 0.020351 3 78 0.750000 79 0.125000 95 0.125000
0  -16.168594 0.124199 43.995026  -0.083695 -0.598835 -0.796487  0.081785 0.017805 3 78 0.750000 79 0.125000 95 0.125000
mokou_cloth2
0  -16.168594 0.124199 43.995026  -0.083695 -0.598835 -0.796487  0.081785 0.017805 3 78 0.750000 79 0.125000 95 0.125000
0  -16.277891 -0.282301 44.331512  0.167298 -0.772419 -0.612682  0.079234 0.020351 3 78 0.750000 79 0.125000 95 0.125000
0  -16.404997 -0.200858 44.290947  -0.170343 -0.639329 -0.749828  0.081785 0.021798 3 78 0.750000 79 0.125000 95 0.125000
mokou_cloth2
0  -16.277891 -0.282301 44.331512  0.167298 -0.772419 -0.612682  0.079234 0.020351 3 78 0.750000 79 0.125000 95 0.125000
0  -16.515060 -0.517654 44.619476  -0.005425 -0.895177 -0.445678  0.079234 0.026990 3 78 0.750000 79 0.125000 95 0.125000
0  -16.404997 -0.200858 44.290947  -0.170343 -0.639329 -0.749828  0.081785 0.021798 3 78 0.750000 79 0.125000 95 0.125000
mokou_cloth2
0  -16.404997 -0.200858 44.290947  -0.170343 -0.639329 -0.749828  0.081785 0.021798 3 78 0.750000 79 0.125000 95 0.125000
0  -16.515060 -0.517654 44.619476  -0.005425 -0.895177 -0.445678  0.079234 0.026990 3 78 0.750000 79 0.125000 95 0.125000
0  -16.618448 -0.412675 44.550110  -0.303426 -0.714998 -0.629849  0.081785 0.027773 3 78 0.750000 79 0.125000 95 0.125000
mokou_cloth2
0  -16.515060 -0.517654 44.619476  -0.005425 -0.895177 -0.445678  0.079234 0.026990 3 78 0.750000 79 0.125000 95 0.125000
0  -16.794828 -0.581252 44.938118  -0.288151 -0.939871 -0.183337  0.079234 0.034822 3 78 0.750000 79 0.125000 95 0.125000
0  -16.618448 -0.412675 44.550110  -0.303426 -0.714998 -0.629849  0.081785 0.027773 3 78 0.750000 79 0.125000 95 0.125000
mokou_cloth2
0  -16.618448 -0.412675 44.550110  -0.303426 -0.714998 -0.629849  0.081785 0.027773 3 78 0.750000 79 0.125000 95 0.125000
0  -16.794828 -0.581252 44.938118  -0.288151 -0.939871 -0.183337  0.079234 0.034822 3 78 0.750000 79 0.125000 95 0.125000
0  -16.870237 -0.469915 44.836887  -0.523634 -0.739422 -0.423158  0.081785 0.034822 3 78 0.750000 79 0.125000 95 0.125000
mokou_cloth2
0  -16.794828 -0.581252 44.938118  -0.288151 -0.939871 -0.183337  0.079234 0.034822 3 78 0.750000 79 0.125000 95 0.125000
0  -17.074591 -0.463414 45.238960  -0.559213 -0.826471 0.065010  0.079234 0.042654 3 78 0.750000 79 0.125000 95 0.125000
0  -16.870237 -0.469915 44.836887  -0.523634 -0.739422 -0.423158  0.081785 0.034822 3 78 0.750000 79 0.125000 95 0.125000
mokou_cloth2
0  -16.870237 -0.469915 44.836887  -0.523634 -0.739422 -0.423158  0.081785 0.034822 3 78 0.750000 79 0.125000 95 0.125000
0  -17.074591 -0.463414 45.238960  -0.559213 -0.826471 0.065010  0.079234 0.042654 3 78 0.750000 79 0.125000 95 0.125000
0  -17.122030 -0.363860 45.107643  -0.726958 -0.647609 -0.228330  0.081785 0.041871 3 78 0.750000 79 0.125000 95 0.125000
mokou_cloth2
0  -17.074591 -0.463414 45.238960  -0.559213 -0.826471 0.065010  0.079234 0.042654 3 78 0.750000 79 0.125000 95 0.125000
0  -17.311764 -0.182078 45.476196  -0.764855 -0.594862 0.247259  0.079234 0.049294 2 78 0.750000 79 0.250000
0  -17.122030 -0.363860 45.107643  -0.726958 -0.647609 -0.228330  0.081785 0.041871 3 78 0.750000 79 0.125000 95 0.125000
mokou_cloth2
0  -17.122030 -0.363860 45.107643  -0.726958 -0.647609 -0.228330  0.081785 0.041871 3 78 0.750000 79 0.125000 95 0.125000
0  -17.311764 -0.182078 45.476196  -0.764855 -0.594862 0.247259  0.079234 0.049294 2 78 0.750000 79 0.250000
0  -17.335491 -0.110658 45.321144  -0.877299 -0.472690 -0.083135  0.081785 0.047847 3 78 0.750000 79 0.125000 95 0.125000
mokou_cloth2
0  -17.311764 -0.182078 45.476196  -0.764855 -0.594862 0.247259  0.079234 0.049294 2 78 0.750000 79 0.250000
0  -17.475431 0.220426 45.619442  -0.886520 -0.307399 0.345816  0.079234 0.055334 2 78 0.750000 79 0.250000
0  -17.335491 -0.110658 45.321144  -0.877299 -0.472690 -0.083135  0.081785 0.047847 3 78 0.750000 79 0.125000 95 0.125000
mokou_cloth2
0  -17.335491 -0.110658 45.321144  -0.877299 -0.472690 -0.083135  0.081785 0.047847 3 78 0.750000 79 0.125000 95 0.125000
0  -17.475431 0.220426 45.619442  -0.886520 -0.307399 0.345816  0.079234 0.055334 2 78 0.750000 79 0.250000
0  -17.483297 0.251645 45.450630  -0.965961 -0.258678 -0.002086  0.081785 0.053443 3 78 0.750000 79 0.125000 95 0.125000
mokou_cloth2
0  -17.475431 0.220426 45.619442  -0.886520 -0.307399 0.345816  0.079234 0.055334 2 78 0.750000 79 0.250000
0  -17.541477 0.682899 45.647778  -0.930363 0.034819 0.364984  0.079234 0.059808 2 78 0.750000 95 0.250000
0  -17.483297 0.251645 45.450630  -0.965961 -0.258678 -0.002086  0.081785 0.053443 3 78 0.750000 79 0.125000 95 0.125000
mokou_cloth2
0  -17.483297 0.251645 45.450630  -0.965961 -0.258678 -0.002086  0.081785 0.053443 3 78 0.750000 79 0.125000 95 0.125000
0  -17.541477 0.682899 45.647778  -0.930363 0.034819 0.364984  0.079234 0.059808 2 78 0.750000 95 0.250000
0  -17.543785 0.667974 45.477295  -0.999919 0.001007 0.012718  0.081785 0.057762 2 78 0.750000 79 0.250000
mokou_cloth2
0  -17.541477 0.682899 45.647778  -0.930363 0.034819 0.364984  0.079234 0.059808 2 78 0.750000 95 0.250000
0  -17.475430 1.132571 45.529865  -0.885353 0.368117 0.283971  0.079234 0.055334 2 78 0.750000 95 0.250000
0  -17.543785 0.667974 45.477295  -0.999919 0.001007 0.012718  0.081785 0.057762 2 78 0.750000 79 0.250000
mokou_cloth2
0  -17.475430 1.132571 45.529865  -0.885353 0.368117 0.283971  0.079234 0.055334 2 78 0.750000 95 0.250000
0  -17.483297 1.072577 45.370026  -0.965683 0.255142 -0.048566  0.081785 0.053443 2 78 0.750000 79 0.250000
0  -17.543785 0.667974 45.477295  -0.999919 0.001007 0.012718  0.081785 0.057762 2 78 0.750000 79 0.250000
mokou_cloth2
0  -17.475430 1.132571 45.529865  -0.885353 0.368117 0.283971  0.079234 0.055334 2 78 0.750000 95 0.250000
0  -17.311764 1.503341 45.310680  -0.764302 0.630315 0.136182  0.079234 0.049294 2 78 0.750000 95 0.250000
0  -17.483297 1.072577 45.370026  -0.965683 0.255142 -0.048566  0.081785 0.053443 2 78 0.750000 79 0.250000
mokou_cloth2
0  -17.483297 1.072577 45.370026  -0.965683 0.255142 -0.048566  0.081785 0.053443 2 78 0.750000 79 0.250000
0  -17.311764 1.503341 45.310680  -0.764302 0.630315 0.136182  0.079234 0.049294 2 78 0.750000 95 0.250000
0  -17.335487 1.406220 45.172192  -0.877881 0.449589 -0.164907  0.081785 0.047847 2 78 0.750000 79 0.250000
mokou_cloth2
0  -17.311764 1.503341 45.310680  -0.764302 0.630315 0.136182  0.079234 0.049294 2 78 0.750000 95 0.250000
0  -17.074589 1.738695 45.022728  -0.560522 0.823987 -0.082832  0.079234 0.042654 2 78 0.750000 95 0.250000
0  -17.335487 1.406220 45.172192  -0.877881 0.449589 -0.164907  0.081785 0.047847 2 78 0.750000 79 0.250000
mokou_cloth2
0  -17.335487 1.406220 45.172192  -0.877881 0.449589 -0.164907  0.081785 0.047847 2 78 0.750000 79 0.250000
0  -17.074589 1.738695 45.022728  -0.560522 0.823987 -0.082832  0.079234 0.042654 2 78 0.750000 95 0.250000
0  -17.122028 1.618039 44.913036  -0.729684 0.594320 -0.338150  0.081785 0.041871 2 78 0.750000 79 0.250000
mokou_cloth2
0  -17.074589 1.738695 45.022728  -0.560522 0.823987 -0.082832  0.079234 0.042654 2 78 0.750000 95 0.250000
0  -16.794830 1.802294 44.704071  -0.289947 0.891804 -0.347299  0.079234 0.034822 2 78 0.750000 79 0.250000
0  -17.122028 1.618039 44.913036  -0.729684 0.594320 -0.338150  0.081785 0.041871 2 78 0.750000 79 0.250000
mokou_cloth2
0  -17.122028 1.618039 44.913036  -0.729684 0.594320 -0.338150  0.081785 0.041871 2 78 0.750000 79 0.250000
0  -16.794830 1.802294 44.704071  -0.289947 0.891804 -0.347299  0.079234 0.034822 2 78 0.750000 79 0.250000
0  -16.870235 1.675277 44.626236  -0.527864 0.649060 -0.547797  0.081785 0.034822 2 78 0.750000 79 0.250000
mokou_cloth2
0  -17.074589 1.738695 45.022728  -0.560522 0.823987 -0.082832  0.079234 0.042654 2 78 0.750000 95 0.250000
0  -15.817711 1.968724 45.797798  0.019423 0.997306 -0.070740  0.044529 0.034822 1 78 1.000000
0  -16.794830 1.802294 44.704071  -0.289947 0.891804 -0.347299  0.079234 0.034822 2 78 0.750000 79 0.250000
mokou_cloth2
0  -16.113760 1.900120 46.120102  -0.258384 0.938399 0.229446  0.044529 0.043524 1 78 1.000000
0  -15.817711 1.968724 45.797798  0.019423 0.997306 -0.070740  0.044529 0.034822 1 78 1.000000
0  -17.074589 1.738695 45.022728  -0.560522 0.823987 -0.082832  0.079234 0.042654 2 78 0.750000 95 0.250000
mokou_cloth2
0  -17.311764 1.503341 45.310680  -0.764302 0.630315 0.136182  0.079234 0.049294 2 78 0.750000 95 0.250000
0  -16.113760 1.900120 46.120102  -0.258384 0.938399 0.229446  0.044529 0.043524 1 78 1.000000
0  -17.074589 1.738695 45.022728  -0.560522 0.823987 -0.082832  0.079234 0.042654 2 78 0.750000 95 0.250000
mokou_cloth2
0  -16.364738 1.649962 46.412189  -0.247709 0.662553 0.706869  0.044529 0.050902 1 78 1.000000
0  -16.113760 1.900120 46.120102  -0.258384 0.938399 0.229446  0.044529 0.043524 1 78 1.000000
0  -17.311764 1.503341 45.310680  -0.764302 0.630315 0.136182  0.079234 0.049294 2 78 0.750000 95 0.250000
mokou_cloth2
0  -17.475430 1.132571 45.529865  -0.885353 0.368117 0.283971  0.079234 0.055334 2 78 0.750000 95 0.250000
0  -16.364738 1.649962 46.412189  -0.247709 0.662553 0.706869  0.044529 0.050902 1 78 1.000000
0  -17.311764 1.503341 45.310680  -0.764302 0.630315 0.136182  0.079234 0.049294 2 78 0.750000 95 0.250000
mokou_cloth2
0  -16.537386 1.256797 46.634823  -0.416305 0.406911 0.813089  0.044529 0.057435 1 78 1.000000
0  -16.364738 1.649962 46.412189  -0.247709 0.662553 0.706869  0.044529 0.050902 1 78 1.000000
0  -17.475430 1.132571 45.529865  -0.885353 0.368117 0.283971  0.079234 0.055334 2 78 0.750000 95 0.250000
mokou_cloth2
0  -16.537386 1.256797 46.634823  -0.416305 0.406911 0.813089  0.044529 0.057435 1 78 1.000000
0  -17.475430 1.132571 45.529865  -0.885353 0.368117 0.283971  0.079234 0.055334 2 78 0.750000 95 0.250000
0  -17.541477 0.682899 45.647778  -0.930363 0.034819 0.364984  0.079234 0.059808 2 78 0.750000 95 0.250000
mokou_cloth2
0  -16.606171 0.780546 46.754913  -0.435120 0.087172 0.896143  0.044529 0.062082 1 78 1.000000
0  -16.537386 1.256797 46.634823  -0.416305 0.406911 0.813089  0.044529 0.057435 1 78 1.000000
0  -17.541477 0.682899 45.647778  -0.930363 0.034819 0.364984  0.079234 0.059808 2 78 0.750000 95 0.250000
mokou_cloth2
0  -17.475431 0.220426 45.619442  -0.886520 -0.307399 0.345816  0.079234 0.055334 2 78 0.750000 79 0.250000
0  -16.606171 0.780546 46.754913  -0.435120 0.087172 0.896143  0.044529 0.062082 1 78 1.000000
0  -17.541477 0.682899 45.647778  -0.930363 0.034819 0.364984  0.079234 0.059808 2 78 0.750000 95 0.250000
mokou_cloth2
0  -16.537384 0.291564 46.729607  -0.381813 -0.268193 0.884473  0.044529 0.057435 1 78 1.000000
0  -16.606171 0.780546 46.754913  -0.435120 0.087172 0.896143  0.044529 0.062082 1 78 1.000000
0  -17.475431 0.220426 45.619442  -0.886520 -0.307399 0.345816  0.079234 0.055334 2 78 0.750000 79 0.250000
mokou_cloth2
0  -17.311764 -0.182078 45.476196  -0.764855 -0.594862 0.247259  0.079234 0.049294 2 78 0.750000 79 0.250000
0  -16.537384 0.291564 46.729607  -0.381813 -0.268193 0.884473  0.044529 0.057435 1 78 1.000000
0  -17.475431 0.220426 45.619442  -0.886520 -0.307399 0.345816  0.079234 0.055334 2 78 0.750000 79 0.250000
mokou_cloth2
0  -16.364738 -0.133551 46.587326  -0.241860 -0.566795 0.787558  0.044529 0.050902 1 78 1.000000
0  -16.537384 0.291564 46.729607  -0.381813 -0.268193 0.884473  0.044529 0.057435 1 78 1.000000
0  -17.311764 -0.182078 45.476196  -0.764855 -0.594862 0.247259  0.079234 0.049294 2 78 0.750000 79 0.250000
mokou_cloth2
0  -17.074591 -0.463414 45.238960  -0.559213 -0.826471 0.065010  0.079234 0.042654 3 78 0.750000 79 0.125000 95 0.125000
0  -16.364738 -0.133551 46.587326  -0.241860 -0.566795 0.787558  0.044529 0.050902 1 78 1.000000
0  -17.311764 -0.182078 45.476196  -0.764855 -0.594862 0.247259  0.079234 0.049294 2 78 0.750000 79 0.250000
mokou_cloth2
0  -16.113758 -0.430155 46.348927  -0.014117 -0.799277 0.600796  0.044529 0.043524 1 78 1.000000
0  -16.364738 -0.133551 46.587326  -0.241860 -0.566795 0.787558  0.044529 0.050902 1 78 1.000000
0  -17.074591 -0.463414 45.238960  -0.559213 -0.826471 0.065010  0.079234 0.042654 3 78 0.750000 79 0.125000 95 0.125000
mokou_cloth2
0  -16.113758 -0.430155 46.348927  -0.014117 -0.799277 0.600796  0.044529 0.043524 1 78 1.000000
0  -16.238335 -0.042322 46.602024  0.164539 -0.375023 0.912296  0.041982 0.049294 1 78 1.000000
0  -16.364738 -0.133551 46.587326  -0.241860 -0.566795 0.787558  0.044529 0.050902 1 78 1.000000
mokou_cloth2
0  -16.012451 -0.309266 46.387463  0.341877 -0.533183 0.773845  0.041982 0.042654 1 78 1.000000
0  -16.238335 -0.042322 46.602024  0.164539 -0.375023 0.912296  0.041982 0.049294 1 78 1.000000
0  -16.113758 -0.430155 46.348927  -0.014117 -0.799277 0.600796  0.044529 0.043524 1 78 1.000000
mokou_cloth2
0  -15.817709 -0.553547 46.045475  0.271740 -0.898971 0.343523  0.044529 0.034822 1 78 1.000000
0  -16.012451 -0.309266 46.387463  0.341877 -0.533183 0.773845  0.041982 0.042654 1 78 1.000000
0  -16.113758 -0.430155 46.348927  -0.014117 -0.799277 0.600796  0.044529 0.043524 1 78 1.000000
mokou_cloth2
0  -15.746008 -0.420320 46.114365  0.551065 -0.597683 0.582325  0.041982 0.034822 1 78 1.000000
0  -16.012451 -0.309266 46.387463  0.341877 -0.533183 0.773845  0.041982 0.042654 1 78 1.000000
0  -15.817709 -0.553547 46.045475  0.271740 -0.898971 0.343523  0.044529 0.034822 1 78 1.000000
mokou_cloth2
0  -16.113760 1.900120 46.120102  -0.258384 0.938399 0.229446  0.044529 0.043524 1 78 1.000000
0  -16.043640 1.879656 46.228539  -0.259177 0.860420 0.438754  0.041616 0.043874 1 78 1.000000
0  -15.817711 1.968724 45.797798  0.019423 0.997306 -0.070740  0.044529 0.034822 1 78 1.000000
mokou_cloth2
0  -16.364738 1.649962 46.412189  -0.247709 0.662553 0.706869  0.044529 0.050902 1 78 1.000000
0  -16.043640 1.879656 46.228539  -0.259177 0.860420 0.438754  0.041616 0.043874 1 78 1.000000
0  -16.113760 1.900120 46.120102  -0.258384 0.938399 0.229446  0.044529 0.043524 1 78 1.000000
mokou_cloth2
0  -16.537386 1.256797 46.634823  -0.416305 0.406911 0.813089  0.044529 0.057435 1 78 1.000000
0  -16.043640 1.879656 46.228539  -0.259177 0.860420 0.438754  0.041616 0.043874 1 78 1.000000
0  -16.364738 1.649962 46.412189  -0.247709 0.662553 0.706869  0.044529 0.050902 1 78 1.000000
mokou_cloth2
0  -15.943857 1.744965 46.500820  -0.285879 0.753595 0.591919  0.035740 0.045804 1 78 1.000000
0  -16.043640 1.879656 46.228539  -0.259177 0.860420 0.438754  0.041616 0.043874 1 78 1.000000
0  -16.537386 1.256797 46.634823  -0.416305 0.406911 0.813089  0.044529 0.057435 1 78 1.000000
mokou_cloth2
0  -16.394207 1.209037 46.645287  0.010971 0.247113 0.968925  0.041982 0.055334 1 78 1.000000
0  -15.943857 1.744965 46.500820  -0.285879 0.753595 0.591919  0.035740 0.045804 1 78 1.000000
0  -16.537386 1.256797 46.634823  -0.416305 0.406911 0.813089  0.044529 0.057435 1 78 1.000000
mokou_cloth2
0  -16.394207 1.209037 46.645287  0.010971 0.247113 0.968925  0.041982 0.055334 1 78 1.000000
0  -16.537386 1.256797 46.634823  -0.416305 0.406911 0.813089  0.044529 0.057435 1 78 1.000000
0  -16.606171 0.780546 46.754913  -0.435120 0.087172 0.896143  0.044529 0.062082 1 78 1.000000
mokou_cloth2
0  -16.457100 0.780502 46.754414  0.004013 0.098532 0.995126  0.041982 0.059808 1 78 1.000000
0  -16.394207 1.209037 46.645287  0.010971 0.247113 0.968925  0.041982 0.055334 1 78 1.000000
0  -16.606171 0.780546 46.754913  -0.435120 0.087172 0.896143  0.044529 0.062082 1 78 1.000000
mokou_cloth2
0  -16.537384 0.291564 46.729607  -0.381813 -0.268193 0.884473  0.044529 0.057435 1 78 1.000000
0  -16.457100 0.780502 46.754414  0.004013 0.098532 0.995126  0.041982 0.059808 1 78 1.000000
0  -16.606171 0.780546 46.754913  -0.435120 0.087172 0.896143  0.044529 0.062082 1 78 1.000000
mokou_cloth2
0  -16.394207 0.340327 46.730595  0.049563 -0.164507 0.985130  0.041982 0.055334 1 78 1.000000
0  -16.457100 0.780502 46.754414  0.004013 0.098532 0.995126  0.041982 0.059808 1 78 1.000000
0  -16.537384 0.291564 46.729607  -0.381813 -0.268193 0.884473  0.044529 0.057435 1 78 1.000000
mokou_cloth2
0  -16.364738 -0.133551 46.587326  -0.241860 -0.566795 0.787558  0.044529 0.050902 1 78 1.000000
0  -16.394207 0.340327 46.730595  0.049563 -0.164507 0.985130  0.041982 0.055334 1 78 1.000000
0  -16.537384 0.291564 46.729607  -0.381813 -0.268193 0.884473  0.044529 0.057435 1 78 1.000000
mokou_cloth2
0  -16.238335 -0.042322 46.602024  0.164539 -0.375023 0.912296  0.041982 0.049294 1 78 1.000000
0  -16.394207 0.340327 46.730595  0.049563 -0.164507 0.985130  0.041982 0.055334 1 78 1.000000
0  -16.364738 -0.133551 46.587326  -0.241860 -0.566795 0.787558  0.044529 0.050902 1 78 1.000000
mokou_cloth2
0  -15.943857 1.744965 46.500820  -0.285879 0.753595 0.591919  0.035740 0.045804 1 78 1.000000
0  -15.790297 1.966277 46.196815  0.106815 0.777389 0.619885  0.037647 0.039712 1 78 1.000000
0  -16.043640 1.879656 46.228539  -0.259177 0.860420 0.438754  0.041616 0.043874 1 78 1.000000
mokou_cloth2
0  -15.790297 1.966277 46.196815  0.106815 0.777389 0.619885  0.037647 0.039712 1 78 1.000000
0  -15.943857 1.744965 46.500820  -0.285879 0.753595 0.591919  0.035740 0.045804 1 78 1.000000
0  -15.217022 2.005696 45.946434  0.232357 0.726736 0.646425  0.031785 0.027712 1 78 1.000000
mokou_cloth2
0  15.253700 1.471737 45.403824  -0.887296 0.442899 0.128632  0.041982 0.020351 1 54 1.000000
0  15.465105 1.868604 45.592678  -0.402633 0.910816 -0.091110  0.041942 0.026598 1 54 1.000000
0  15.270704 1.548736 45.255997  -0.727380 0.638550 -0.251342  0.044529 0.018743 1 54 1.000000
mokou_cloth2
0  15.465105 1.868604 45.592678  -0.402633 0.910816 -0.091110  0.041942 0.026598 1 54 1.000000
0  15.521679 1.845340 45.494392  -0.303255 0.870475 -0.387699  0.044529 0.026120 1 54 1.000000
0  15.270704 1.548736 45.255997  -0.727380 0.638550 -0.251342  0.044529 0.018743 1 54 1.000000
mokou_cloth2
0  15.465105 1.868604 45.592678  -0.402633 0.910816 -0.091110  0.041942 0.026598 1 54 1.000000
0  15.817720 1.968732 45.797840  -0.019523 0.997337 -0.070275  0.044529 0.034822 1 54 1.000000
0  15.521679 1.845340 45.494392  -0.303255 0.870475 -0.387699  0.044529 0.026120 1 54 1.000000
mokou_cloth2
0  15.521679 1.845340 45.494392  -0.303255 0.870475 -0.387699  0.044529 0.026120 1 54 1.000000
0  15.817720 1.968732 45.797840  -0.019523 0.997337 -0.070275  0.044529 0.034822 1 54 1.000000
0  16.794840 1.802305 44.704121  0.289943 0.891806 -0.347296  0.079234 0.034822 1 54 1.000000
mokou_cloth2
0  15.817720 1.968732 45.797840  -0.019523 0.997337 -0.070275  0.044529 0.034822 1 54 1.000000
0  17.074598 1.738707 45.022774  0.560530 0.823981 -0.082833  0.079234 0.042654 1 54 1.000000
0  16.794840 1.802305 44.704121  0.289943 0.891806 -0.347296  0.079234 0.034822 1 54 1.000000
mokou_cloth2
0  15.817720 1.968732 45.797840  -0.019523 0.997337 -0.070275  0.044529 0.034822 1 54 1.000000
0  16.113766 1.900130 46.120148  0.258394 0.938398 0.229439  0.044529 0.043524 1 54 1.000000
0  17.074598 1.738707 45.022774  0.560530 0.823981 -0.082833  0.079234 0.042654 1 54 1.000000
mokou_cloth2
0  16.113766 1.900130 46.120148  0.258394 0.938398 0.229439  0.044529 0.043524 1 54 1.000000
0  17.311768 1.503355 45.310730  0.764297 0.630321 0.136183  0.079234 0.049294 1 54 1.000000
0  17.074598 1.738707 45.022774  0.560530 0.823981 -0.082833  0.079234 0.042654 1 54 1.000000
mokou_cloth2
0  16.113766 1.900130 46.120148  0.258394 0.938398 0.229439  0.044529 0.043524 1 54 1.000000
0  16.364740 1.649974 46.412235  0.247709 0.662551 0.706871  0.044529 0.050902 1 54 1.000000
0  17.311768 1.503355 45.310730  0.764297 0.630321 0.136183  0.079234 0.049294 1 54 1.000000
mokou_cloth2
0  16.364740 1.649974 46.412235  0.247709 0.662551 0.706871  0.044529 0.050902 1 54 1.000000
0  17.475441 1.132585 45.529915  0.885356 0.368117 0.283963  0.079234 0.055334 1 54 1.000000
0  17.311768 1.503355 45.310730  0.764297 0.630321 0.136183  0.079234 0.049294 1 54 1.000000
mokou_cloth2
0  16.364740 1.649974 46.412235  0.247709 0.662551 0.706871  0.044529 0.050902 1 54 1.000000
0  16.537392 1.256809 46.634869  0.416309 0.406911 0.813087  0.044529 0.057435 1 54 1.000000
0  17.475441 1.132585 45.529915  0.885356 0.368117 0.283963  0.079234 0.055334 1 54 1.000000
mokou_cloth2
0  17.475441 1.132585 45.529915  0.885356 0.368117 0.283963  0.079234 0.055334 1 54 1.000000
0  16.537392 1.256809 46.634869  0.416309 0.406911 0.813087  0.044529 0.057435 1 54 1.000000
0  17.541485 0.682915 45.647827  0.930358 0.034823 0.364994  0.079234 0.059808 1 54 1.000000
mokou_cloth2
0  16.537392 1.256809 46.634869  0.416309 0.406911 0.813087  0.044529 0.057435 1 54 1.000000
0  16.606174 0.780560 46.754959  0.435104 0.087176 0.896150  0.044529 0.062082 1 54 1.000000
0  17.541485 0.682915 45.647827  0.930358 0.034823 0.364994  0.079234 0.059808 1 54 1.000000
mokou_cloth2
0  16.606174 0.780560 46.754959  0.435104 0.087176 0.896150  0.044529 0.062082 1 54 1.000000
0  17.475445 0.220441 45.619492  0.886520 -0.307402 0.345814  0.079234 0.055334 1 54 1.000000
0  17.541485 0.682915 45.647827  0.930358 0.034823 0.364994  0.079234 0.059808 1 54 1.000000
mokou_cloth2
0  16.606174 0.780560 46.754959  0.435104 0.087176 0.896150  0.044529 0.062082 1 54 1.000000
0  16.537395 0.291577 46.729652  0.381823 -0.268187 0.884470  0.044529 0.057435 1 54 1.000000
0  17.475445 0.220441 45.619492  0.886520 -0.307402 0.345814  0.079234 0.055334 1 54 1.000000
mokou_cloth2
0  16.537395 0.291577 46.729652  0.381823 -0.268187 0.884470  0.044529 0.057435 1 54 1.000000
0  17.311775 -0.182062 45.476246  0.764860 -0.594858 0.247252  0.079234 0.049294 1 54 1.000000
0  17.475445 0.220441 45.619492  0.886520 -0.307402 0.345814  0.079234 0.055334 1 54 1.000000
mokou_cloth2
0  16.537395 0.291577 46.729652  0.381823 -0.268187 0.884470  0.044529 0.057435 1 54 1.000000
0  16.364746 -0.133537 46.587376  0.241856 -0.566793 0.787560  0.044529 0.050902 1 54 1.000000
0  17.311775 -0.182062 45.476246  0.764860 -0.594858 0.247252  0.079234 0.049294 1 54 1.000000
mokou_cloth2
0  16.364746 -0.133537 46.587376  0.241856 -0.566793 0.787560  0.044529 0.050902 1 54 1.000000
0  17.074606 -0.463400 45.239017  0.559225 -0.826463 0.065013  0.079234 0.042654 1 54 1.000000
0  17.311775 -0.182062 45.476246  0.764860 -0.594858 0.247252  0.079234 0.049294 1 54 1.000000
mokou_cloth2
0  16.364746 -0.133537 46.587376  0.241856 -0.566793 0.787560  0.044529 0.050902 1 54 1.000000
0  16.113773 -0.430143 46.348972  0.014122 -0.799281 0.600791  0.044529 0.043524 1 54 1.000000
0  17.074606 -0.463400 45.239017  0.559225 -0.826463 0.065013  0.079234 0.042654 1 54 1.000000
mokou_cloth2
0  15.943863 1.744976 46.500866  0.285876 0.753594 0.591921  0.035740 0.045804 1 54 1.000000
0  16.394215 1.209050 46.645332  -0.010973 0.247116 0.968924  0.041982 0.055334 1 54 1.000000
0  16.537392 1.256809 46.634869  0.416309 0.406911 0.813087  0.044529 0.057435 1 54 1.000000
mokou_cloth2
0  16.043650 1.879667 46.228584  0.259193 0.860419 0.438746  0.041616 0.043874 1 54 1.000000
0  15.943863 1.744976 46.500866  0.285876 0.753594 0.591921  0.035740 0.045804 1 54 1.000000
0  16.537392 1.256809 46.634869  0.416309 0.406911 0.813087  0.044529 0.057435 1 54 1.000000
mokou_cloth2
0  16.043650 1.879667 46.228584  0.259193 0.860419 0.438746  0.041616 0.043874 1 54 1.000000
0  16.537392 1.256809 46.634869  0.416309 0.406911 0.813087  0.044529 0.057435 1 54 1.000000
0  16.364740 1.649974 46.412235  0.247709 0.662551 0.706871  0.044529 0.050902 1 54 1.000000
mokou_cloth2
0  16.043650 1.879667 46.228584  0.259193 0.860419 0.438746  0.041616 0.043874 1 54 1.000000
0  16.364740 1.649974 46.412235  0.247709 0.662551 0.706871  0.044529 0.050902 1 54 1.000000
0  16.113766 1.900130 46.120148  0.258394 0.938398 0.229439  0.044529 0.043524 1 54 1.000000
mokou_cloth2
0  16.043650 1.879667 46.228584  0.259193 0.860419 0.438746  0.041616 0.043874 1 54 1.000000
0  16.113766 1.900130 46.120148  0.258394 0.938398 0.229439  0.044529 0.043524 1 54 1.000000
0  15.817720 1.968732 45.797840  -0.019523 0.997337 -0.070275  0.044529 0.034822 1 54 1.000000
mokou_cloth2
0  15.743111 1.969267 45.873222  -0.083036 0.992543 -0.089239  0.042037 0.034691 1 54 1.000000
0  16.043650 1.879667 46.228584  0.259193 0.860419 0.438746  0.041616 0.043874 1 54 1.000000
0  15.817720 1.968732 45.797840  -0.019523 0.997337 -0.070275  0.044529 0.034822 1 54 1.000000
mokou_cloth2
0  15.452122 1.837708 45.724709  -0.421562 0.898080 0.125448  0.039646 0.028117 1 54 1.000000
0  15.743111 1.969267 45.873222  -0.083036 0.992543 -0.089239  0.042037 0.034691 1 54 1.000000
0  15.817720 1.968732 45.797840  -0.019523 0.997337 -0.070275  0.044529 0.034822 1 54 1.000000
mokou_cloth2
0  15.465105 1.868604 45.592678  -0.402633 0.910816 -0.091110  0.041942 0.026598 1 54 1.000000
0  15.452122 1.837708 45.724709  -0.421562 0.898080 0.125448  0.039646 0.028117 1 54 1.000000
0  15.817720 1.968732 45.797840  -0.019523 0.997337 -0.070275  0.044529 0.034822 1 54 1.000000
mokou_cloth2
0  15.327840 1.785167 45.596272  -0.490178 0.863146 0.121262  0.039664 0.024449 1 54 1.000000
0  15.452122 1.837708 45.724709  -0.421562 0.898080 0.125448  0.039646 0.028117 1 54 1.000000
0  15.465105 1.868604 45.592678  -0.402633 0.910816 -0.091110  0.041942 0.026598 1 54 1.000000
mokou_cloth2
0  15.452122 1.837708 45.724709  -0.421562 0.898080 0.125448  0.039646 0.028117 1 54 1.000000
0  15.327840 1.785167 45.596272  -0.490178 0.863146 0.121262  0.039664 0.024449 1 54 1.000000
0  15.123854 1.671734 45.595730  -0.483104 0.868329 0.112317  0.036355 0.021191 1 54 1.000000
mokou_cloth2
0  15.790302 1.966287 46.196861  -0.106821 0.777389 0.619883  0.037647 0.039712 1 54 1.000000
0  15.943863 1.744976 46.500866  0.285876 0.753594 0.591921  0.035740 0.045804 1 54 1.000000
0  16.043650 1.879667 46.228584  0.259193 0.860419 0.438746  0.041616 0.043874 1 54 1.000000
mokou_cloth2
0  15.943863 1.744976 46.500866  0.285876 0.753594 0.591921  0.035740 0.045804 1 54 1.000000
0  15.790302 1.966287 46.196861  -0.106821 0.777389 0.619883  0.037647 0.039712 1 54 1.000000
0  15.217028 2.005703 45.946480  -0.232367 0.726733 0.646424  0.031785 0.027712 1 54 1.000000
mokou_cloth2
0  15.013462 0.212570 45.271400  -0.893068 -0.419712 0.162085  0.041982 0.015914 1 54 1.000000
0  14.791750 0.626408 44.994423  -0.998961 -0.013994 0.043367  0.041982 0.014356 1 54 1.000000
0  14.786096 0.612136 44.831406  -0.921017 -0.036613 -0.387798  0.044529 0.012082 1 54 1.000000
mokou_cloth2
0  15.013462 0.212570 45.271400  -0.893068 -0.419712 0.162085  0.041982 0.015914 1 54 1.000000
0  14.786096 0.612136 44.831406  -0.921017 -0.036613 -0.387798  0.044529 0.012082 1 54 1.000000
0  15.013694 0.150581 45.119335  -0.794273 -0.582976 -0.171083  0.044529 0.013813 1 54 1.000000
mokou_cloth2
0  15.253704 -0.133424 45.561451  -0.852070 -0.462965 0.244213  0.041982 0.020351 1 54 1.000000
0  15.013462 0.212570 45.271400  -0.893068 -0.419712 0.162085  0.041982 0.015914 1 54 1.000000
0  15.013694 0.150581 45.119335  -0.794273 -0.582976 -0.171083  0.044529 0.013813 1 54 1.000000
mokou_cloth2
0  15.253704 -0.133424 45.561451  -0.852070 -0.462965 0.244213  0.041982 0.020351 1 54 1.000000
0  15.013694 0.150581 45.119335  -0.794273 -0.582976 -0.171083  0.044529 0.013813 1 54 1.000000
0  15.270710 -0.234776 45.431141  -0.723642 -0.684139 -0.091081  0.044529 0.018743 1 54 1.000000
mokou_cloth2
0  15.479580 -0.358565 45.824326  -0.743529 -0.550949 0.378972  0.041982 0.026990 1 54 1.000000
0  15.253704 -0.133424 45.561451  -0.852070 -0.462965 0.244213  0.041982 0.020351 1 54 1.000000
0  15.270710 -0.234776 45.431141  -0.723642 -0.684139 -0.091081  0.044529 0.018743 1 54 1.000000
mokou_cloth2
0  15.479580 -0.358565 45.824326  -0.743529 -0.550949 0.378972  0.041982 0.026990 1 54 1.000000
0  15.270710 -0.234776 45.431141  -0.723642 -0.684139 -0.091081  0.044529 0.018743 1 54 1.000000
0  15.521686 -0.484933 45.723221  -0.549703 -0.832036 0.074446  0.044529 0.026120 1 54 1.000000
mokou_cloth2
0  15.746023 -0.420308 46.114410  -0.551069 -0.597680 0.582324  0.041982 0.034822 1 54 1.000000
0  15.479580 -0.358565 45.824326  -0.743529 -0.550949 0.378972  0.041982 0.026990 1 54 1.000000
0  15.521686 -0.484933 45.723221  -0.549703 -0.832036 0.074446  0.044529 0.026120 1 54 1.000000
mokou_cloth2
0  15.746023 -0.420308 46.114410  -0.551069 -0.597680 0.582324  0.041982 0.034822 1 54 1.000000
0  15.521686 -0.484933 45.723221  -0.549703 -0.832036 0.074446  0.044529 0.026120 1 54 1.000000
0  15.817727 -0.553536 46.045525  -0.271737 -0.898971 0.343525  0.044529 0.034822 1 54 1.000000
mokou_cloth2
0  16.012463 -0.309254 46.387512  -0.341885 -0.533194 0.773834  0.041982 0.042654 1 54 1.000000
0  15.746023 -0.420308 46.114410  -0.551069 -0.597680 0.582324  0.041982 0.034822 1 54 1.000000
0  15.817727 -0.553536 46.045525  -0.271737 -0.898971 0.343525  0.044529 0.034822 1 54 1.000000
mokou_cloth2
0  16.012463 -0.309254 46.387512  -0.341885 -0.533194 0.773834  0.041982 0.042654 1 54 1.000000
0  15.817727 -0.553536 46.045525  -0.271737 -0.898971 0.343525  0.044529 0.034822 1 54 1.000000
0  16.113773 -0.430143 46.348972  0.014122 -0.799281 0.600791  0.044529 0.043524 1 54 1.000000
mokou_cloth2
0  16.238342 -0.042308 46.602074  -0.164555 -0.375019 0.912295  0.041982 0.049294 1 54 1.000000
0  16.012463 -0.309254 46.387512  -0.341885 -0.533194 0.773834  0.041982 0.042654 1 54 1.000000
0  16.113773 -0.430143 46.348972  0.014122 -0.799281 0.600791  0.044529 0.043524 1 54 1.000000
mokou_cloth2
0  16.238342 -0.042308 46.602074  -0.164555 -0.375019 0.912295  0.041982 0.049294 1 54 1.000000
0  16.113773 -0.430143 46.348972  0.014122 -0.799281 0.600791  0.044529 0.043524 1 54 1.000000
0  16.364746 -0.133537 46.587376  0.241856 -0.566793 0.787560  0.044529 0.050902 1 54 1.000000
mokou_cloth2
0  16.394215 0.340341 46.730640  -0.049546 -0.164503 0.985131  0.041982 0.055334 1 54 1.000000
0  16.238342 -0.042308 46.602074  -0.164555 -0.375019 0.912295  0.041982 0.049294 1 54 1.000000
0  16.364746 -0.133537 46.587376  0.241856 -0.566793 0.787560  0.044529 0.050902 1 54 1.000000
mokou_cloth2
0  16.394215 0.340341 46.730640  -0.049546 -0.164503 0.985131  0.041982 0.055334 1 54 1.000000
0  16.364746 -0.133537 46.587376  0.241856 -0.566793 0.787560  0.044529 0.050902 1 54 1.000000
0  16.537395 0.291577 46.729652  0.381823 -0.268187 0.884470  0.044529 0.057435 1 54 1.000000
mokou_cloth2
0  16.457111 0.780515 46.754459  -0.004049 0.098531 0.995126  0.041982 0.059808 1 54 1.000000
0  16.394215 0.340341 46.730640  -0.049546 -0.164503 0.985131  0.041982 0.055334 1 54 1.000000
0  16.537395 0.291577 46.729652  0.381823 -0.268187 0.884470  0.044529 0.057435 1 54 1.000000
mokou_cloth2
0  16.457111 0.780515 46.754459  -0.004049 0.098531 0.995126  0.041982 0.059808 1 54 1.000000
0  16.537395 0.291577 46.729652  0.381823 -0.268187 0.884470  0.044529 0.057435 1 54 1.000000
0  16.606174 0.780560 46.754959  0.435104 0.087176 0.896150  0.044529 0.062082 1 54 1.000000
mokou_cloth2
0  16.394215 1.209050 46.645332  -0.010973 0.247116 0.968924  0.041982 0.055334 1 54 1.000000
0  16.457111 0.780515 46.754459  -0.004049 0.098531 0.995126  0.041982 0.059808 1 54 1.000000
0  16.606174 0.780560 46.754959  0.435104 0.087176 0.896150  0.044529 0.062082 1 54 1.000000
mokou_cloth2
0  16.537392 1.256809 46.634869  0.416309 0.406911 0.813087  0.044529 0.057435 1 54 1.000000
0  16.394215 1.209050 46.645332  -0.010973 0.247116 0.968924  0.041982 0.055334 1 54 1.000000
0  16.606174 0.780560 46.754959  0.435104 0.087176 0.896150  0.044529 0.062082 1 54 1.000000
mokou_cloth2
0  16.113773 -0.430143 46.348972  0.014122 -0.799281 0.600791  0.044529 0.043524 1 54 1.000000
0  16.794846 -0.581239 44.938175  0.288160 -0.939870 -0.183328  0.079234 0.034822 1 54 1.000000
0  17.074606 -0.463400 45.239017  0.559225 -0.826463 0.065013  0.079234 0.042654 1 54 1.000000
mokou_cloth2
0  16.113773 -0.430143 46.348972  0.014122 -0.799281 0.600791  0.044529 0.043524 1 54 1.000000
0  15.817727 -0.553536 46.045525  -0.271737 -0.898971 0.343525  0.044529 0.034822 1 54 1.000000
0  16.794846 -0.581239 44.938175  0.288160 -0.939870 -0.183328  0.079234 0.034822 1 54 1.000000
mokou_cloth2
0  15.817727 -0.553536 46.045525  -0.271737 -0.898971 0.343525  0.044529 0.034822 1 54 1.000000
0  16.515076 -0.517642 44.619522  0.005420 -0.895180 -0.445671  0.079234 0.026990 1 54 1.000000
0  16.794846 -0.581239 44.938175  0.288160 -0.939870 -0.183328  0.079234 0.034822 1 54 1.000000
mokou_cloth2
0  15.817727 -0.553536 46.045525  -0.271737 -0.898971 0.343525  0.044529 0.034822 1 54 1.000000
0  15.521686 -0.484933 45.723221  -0.549703 -0.832036 0.074446  0.044529 0.026120 1 54 1.000000
0  16.515076 -0.517642 44.619522  0.005420 -0.895180 -0.445671  0.079234 0.026990 1 54 1.000000
mokou_cloth2
0  15.521686 -0.484933 45.723221  -0.549703 -0.832036 0.074446  0.044529 0.026120 1 54 1.000000
0  16.277905 -0.282289 44.331566  -0.167324 -0.772421 -0.612673  0.079234 0.020351 3 54 0.750000 56 0.125000 57 0.125000
0  16.515076 -0.517642 44.619522  0.005420 -0.895180 -0.445671  0.079234 0.026990 1 54 1.000000
mokou_cloth2
0  15.521686 -0.484933 45.723221  -0.549703 -0.832036 0.074446  0.044529 0.026120 1 54 1.000000
0  15.270710 -0.234776 45.431141  -0.723642 -0.684139 -0.091081  0.044529 0.018743 1 54 1.000000
0  16.277905 -0.282289 44.331566  -0.167324 -0.772421 -0.612673  0.079234 0.020351 3 54 0.750000 56 0.125000 57 0.125000
mokou_cloth2
0  15.270710 -0.234776 45.431141  -0.723642 -0.684139 -0.091081  0.044529 0.018743 1 54 1.000000
0  16.025650 0.079894 44.014305  -0.262189 -0.690058 -0.674595  0.079234 0.015914 3 54 0.750000 56 0.125000 57 0.125000
0  16.277905 -0.282289 44.331566  -0.167324 -0.772421 -0.612673  0.079234 0.020351 3 54 0.750000 56 0.125000 57 0.125000
mokou_cloth2
0  15.270710 -0.234776 45.431141  -0.723642 -0.684139 -0.091081  0.044529 0.018743 1 54 1.000000
0  15.013694 0.150581 45.119335  -0.794273 -0.582976 -0.171083  0.044529 0.013813 1 54 1.000000
0  16.025650 0.079894 44.014305  -0.262189 -0.690058 -0.674595  0.079234 0.015914 3 54 0.750000 56 0.125000 57 0.125000
mokou_cloth2
0  15.013694 0.150581 45.119335  -0.794273 -0.582976 -0.171083  0.044529 0.013813 1 54 1.000000
0  15.792854 0.513398 43.711769  -0.456751 -0.075013 -0.886426  0.079234 0.014356 3 54 0.750000 56 0.125000 57 0.125000
0  16.025650 0.079894 44.014305  -0.262189 -0.690058 -0.674595  0.079234 0.015914 3 54 0.750000 56 0.125000 57 0.125000
mokou_cloth2
0  15.013694 0.150581 45.119335  -0.794273 -0.582976 -0.171083  0.044529 0.013813 1 54 1.000000
0  14.786096 0.612136 44.831406  -0.921017 -0.036613 -0.387798  0.044529 0.012082 1 54 1.000000
0  15.792854 0.513398 43.711769  -0.456751 -0.075013 -0.886426  0.079234 0.014356 3 54 0.750000 56 0.125000 57 0.125000
mokou_cloth2
0  14.786096 0.612136 44.831406  -0.921017 -0.036613 -0.387798  0.044529 0.012082 1 54 1.000000
0  16.025646 0.992038 43.924736  -0.264953 0.547234 -0.793936  0.079234 0.015914 3 54 0.750000 56 0.125000 57 0.125000
0  15.792854 0.513398 43.711769  -0.456751 -0.075013 -0.886426  0.079234 0.014356 3 54 0.750000 56 0.125000 57 0.125000
mokou_cloth2
0  14.786096 0.612136 44.831406  -0.921017 -0.036613 -0.387798  0.044529 0.012082 1 54 1.000000
0  15.013691 1.115812 45.024551  -0.789095 0.545819 -0.281799  0.044529 0.013813 1 54 1.000000
0  16.025646 0.992038 43.924736  -0.264953 0.547234 -0.793936  0.079234 0.015914 3 54 0.750000 56 0.125000 57 0.125000
mokou_cloth2
0  14.791750 0.626408 44.994423  -0.998961 -0.013994 0.043367  0.041982 0.014356 1 54 1.000000
0  15.013691 1.115812 45.024551  -0.789095 0.545819 -0.281799  0.044529 0.013813 1 54 1.000000
0  14.786096 0.612136 44.831406  -0.921017 -0.036613 -0.387798  0.044529 0.012082 1 54 1.000000
mokou_cloth2
0  14.791750 0.626408 44.994423  -0.998961 -0.013994 0.043367  0.041982 0.014356 1 54 1.000000
0  15.013461 1.081279 45.186085  -0.892005 0.441444 0.097231  0.041982 0.015914 1 54 1.000000
0  15.013691 1.115812 45.024551  -0.789095 0.545819 -0.281799  0.044529 0.013813 1 54 1.000000
mokou_cloth2
0  17.074606 -0.463400 45.239017  0.559225 -0.826463 0.065013  0.079234 0.042654 1 54 1.000000
0  16.870251 -0.469901 44.836937  0.523642 -0.739421 -0.423150  0.081785 0.034822 3 54 0.750000 56 0.125000 57 0.125000
0  17.122044 -0.363846 45.107700  0.726973 -0.647591 -0.228332  0.081785 0.041871 3 54 0.750000 56 0.125000 57 0.125000
mokou_cloth2
0  17.074606 -0.463400 45.239017  0.559225 -0.826463 0.065013  0.079234 0.042654 1 54 1.000000
0  16.794846 -0.581239 44.938175  0.288160 -0.939870 -0.183328  0.079234 0.034822 1 54 1.000000
0  16.870251 -0.469901 44.836937  0.523642 -0.739421 -0.423150  0.081785 0.034822 3 54 0.750000 56 0.125000 57 0.125000
mokou_cloth2
0  16.794846 -0.581239 44.938175  0.288160 -0.939870 -0.183328  0.079234 0.034822 1 54 1.000000
0  16.618464 -0.412663 44.550148  0.303409 -0.715014 -0.629840  0.081785 0.027773 3 54 0.750000 56 0.125000 57 0.125000
0  16.870251 -0.469901 44.836937  0.523642 -0.739421 -0.423150  0.081785 0.034822 3 54 0.750000 56 0.125000 57 0.125000
mokou_cloth2
0  16.794846 -0.581239 44.938175  0.288160 -0.939870 -0.183328  0.079234 0.034822 1 54 1.000000
0  16.515076 -0.517642 44.619522  0.005420 -0.895180 -0.445671  0.079234 0.026990 1 54 1.000000
0  16.618464 -0.412663 44.550148  0.303409 -0.715014 -0.629840  0.081785 0.027773 3 54 0.750000 56 0.125000 57 0.125000
mokou_cloth2
0  16.515076 -0.517642 44.619522  0.005420 -0.895180 -0.445671  0.079234 0.026990 1 54 1.000000
0  16.405010 -0.200846 44.290993  0.170299 -0.639347 -0.749823  0.081785 0.021798 3 54 0.750000 56 0.125000 57 0.125000
0  16.618464 -0.412663 44.550148  0.303409 -0.715014 -0.629840  0.081785 0.027773 3 54 0.750000 56 0.125000 57 0.125000
mokou_cloth2
0  16.515076 -0.517642 44.619522  0.005420 -0.895180 -0.445671  0.079234 0.026990 1 54 1.000000
0  16.277905 -0.282289 44.331566  -0.167324 -0.772421 -0.612673  0.079234 0.020351 3 54 0.750000 56 0.125000 57 0.125000
0  16.405010 -0.200846 44.290993  0.170299 -0.639347 -0.749823  0.081785 0.021798 3 54 0.750000 56 0.125000 57 0.125000
mokou_cloth2
0  16.277905 -0.282289 44.331566  -0.167324 -0.772421 -0.612673  0.079234 0.020351 3 54 0.750000 56 0.125000 57 0.125000
0  16.168602 0.124209 43.995064  0.083658 -0.598858 -0.796474  0.081785 0.017805 3 54 0.750000 56 0.125000 57 0.125000
0  16.405010 -0.200846 44.290993  0.170299 -0.639347 -0.749823  0.081785 0.021798 3 54 0.750000 56 0.125000 57 0.125000
mokou_cloth2
0  16.277905 -0.282289 44.331566  -0.167324 -0.772421 -0.612673  0.079234 0.020351 3 54 0.750000 56 0.125000 57 0.125000
0  16.025650 0.079894 44.014305  -0.262189 -0.690058 -0.674595  0.079234 0.015914 3 54 0.750000 56 0.125000 57 0.125000
0  16.168602 0.124209 43.995064  0.083658 -0.598858 -0.796474  0.081785 0.017805 3 54 0.750000 56 0.125000 57 0.125000
mokou_cloth2
0  16.025650 0.079894 44.014305  -0.262189 -0.690058 -0.674595  0.079234 0.015914 3 54 0.750000 56 0.125000 57 0.125000
0  15.941372 0.512646 43.703182  -0.048141 -0.074894 -0.996029  0.081785 0.016403 3 54 0.750000 56 0.125000 57 0.125000
0  16.168602 0.124209 43.995064  0.083658 -0.598858 -0.796474  0.081785 0.017805 3 54 0.750000 56 0.125000 57 0.125000
mokou_cloth2
0  16.025650 0.079894 44.014305  -0.262189 -0.690058 -0.674595  0.079234 0.015914 3 54 0.750000 56 0.125000 57 0.125000
0  15.792854 0.513398 43.711769  -0.456751 -0.075013 -0.886426  0.079234 0.014356 3 54 0.750000 56 0.125000 57 0.125000
0  15.941372 0.512646 43.703182  -0.048141 -0.074894 -0.996029  0.081785 0.016403 3 54 0.750000 56 0.125000 57 0.125000
mokou_cloth2
0  15.792854 0.513398 43.711769  -0.456751 -0.075013 -0.886426  0.079234 0.014356 3 54 0.750000 56 0.125000 57 0.125000
0  16.168602 0.945139 43.914467  0.070478 0.440160 -0.895149  0.081785 0.017805 3 54 0.750000 56 0.125000 57 0.125000
0  15.941372 0.512646 43.703182  -0.048141 -0.074894 -0.996029  0.081785 0.016403 3 54 0.750000 56 0.125000 57 0.125000
mokou_cloth2
0  15.792854 0.513398 43.711769  -0.456751 -0.075013 -0.886426  0.079234 0.014356 3 54 0.750000 56 0.125000 57 0.125000
0  16.025646 0.992038 43.924736  -0.264953 0.547234 -0.793936  0.079234 0.015914 3 54 0.750000 56 0.125000 57 0.125000
0  16.168602 0.945139 43.914467  0.070478 0.440160 -0.895149  0.081785 0.017805 3 54 0.750000 56 0.125000 57 0.125000
mokou_cloth2
0  16.025646 0.992038 43.924736  -0.264953 0.547234 -0.793936  0.079234 0.015914 3 54 0.750000 56 0.125000 57 0.125000
0  16.405005 1.316030 44.142036  0.164733 0.485417 -0.858623  0.081785 0.021798 3 54 0.750000 56 0.125000 57 0.125000
0  16.168602 0.945139 43.914467  0.070478 0.440160 -0.895149  0.081785 0.017805 3 54 0.750000 56 0.125000 57 0.125000
mokou_cloth2
0  16.025646 0.992038 43.924736  -0.264953 0.547234 -0.793936  0.079234 0.015914 3 54 0.750000 56 0.125000 57 0.125000
0  16.277899 1.403130 44.166054  -0.171372 0.643564 -0.745961  0.079234 0.020351 3 54 0.750000 56 0.125000 57 0.125000
0  16.405005 1.316030 44.142036  0.164733 0.485417 -0.858623  0.081785 0.021798 3 54 0.750000 56 0.125000 57 0.125000
mokou_cloth2
0  15.013691 1.115812 45.024551  -0.789095 0.545819 -0.281799  0.044529 0.013813 1 54 1.000000
0  16.277899 1.403130 44.166054  -0.171372 0.643564 -0.745961  0.079234 0.020351 3 54 0.750000 56 0.125000 57 0.125000
0  16.025646 0.992038 43.924736  -0.264953 0.547234 -0.793936  0.079234 0.015914 3 54 0.750000 56 0.125000 57 0.125000
mokou_cloth2
0  15.013691 1.115812 45.024551  -0.789095 0.545819 -0.281799  0.044529 0.013813 1 54 1.000000
0  15.270704 1.548736 45.255997  -0.727380 0.638550 -0.251342  0.044529 0.018743 1 54 1.000000
0  16.277899 1.403130 44.166054  -0.171372 0.643564 -0.745961  0.079234 0.020351 3 54 0.750000 56 0.125000 57 0.125000
mokou_cloth2
0  15.013461 1.081279 45.186085  -0.892005 0.441444 0.097231  0.041982 0.015914 1 54 1.000000
0  15.270704 1.548736 45.255997  -0.727380 0.638550 -0.251342  0.044529 0.018743 1 54 1.000000
0  15.013691 1.115812 45.024551  -0.789095 0.545819 -0.281799  0.044529 0.013813 1 54 1.000000
mokou_cloth2
0  15.013461 1.081279 45.186085  -0.892005 0.441444 0.097231  0.041982 0.015914 1 54 1.000000
0  15.253700 1.471737 45.403824  -0.887296 0.442899 0.128632  0.041982 0.020351 1 54 1.000000
0  15.270704 1.548736 45.255997  -0.727380 0.638550 -0.251342  0.044529 0.018743 1 54 1.000000
mokou_cloth2
0  15.270704 1.548736 45.255997  -0.727380 0.638550 -0.251342  0.044529 0.018743 1 54 1.000000
0  16.515070 1.684465 44.403275  0.005131 0.800237 -0.599662  0.079234 0.026990 1 54 1.000000
0  16.277899 1.403130 44.166054  -0.171372 0.643564 -0.745961  0.079234 0.020351 3 54 0.750000 56 0.125000 57 0.125000
mokou_cloth2
0  15.270704 1.548736 45.255997  -0.727380 0.638550 -0.251342  0.044529 0.018743 1 54 1.000000
0  15.521679 1.845340 45.494392  -0.303255 0.870475 -0.387699  0.044529 0.026120 1 54 1.000000
0  16.515070 1.684465 44.403275  0.005131 0.800237 -0.599662  0.079234 0.026990 1 54 1.000000
mokou_cloth2
0  15.521679 1.845340 45.494392  -0.303255 0.870475 -0.387699  0.044529 0.026120 1 54 1.000000
0  16.794840 1.802305 44.704121  0.289943 0.891806 -0.347296  0.079234 0.034822 1 54 1.000000
0  16.515070 1.684465 44.403275  0.005131 0.800237 -0.599662  0.079234 0.026990 1 54 1.000000
mokou_cloth2
0  16.277899 1.403130 44.166054  -0.171372 0.643564 -0.745961  0.079234 0.020351 3 54 0.750000 56 0.125000 57 0.125000
0  16.618458 1.569234 44.355537  0.306998 0.586083 -0.749839  0.081785 0.027773 3 54 0.750000 56 0.125000 57 0.125000
0  16.405005 1.316030 44.142036  0.164733 0.485417 -0.858623  0.081785 0.021798 3 54 0.750000 56 0.125000 57 0.125000
mokou_cloth2
0  16.277899 1.403130 44.166054  -0.171372 0.643564 -0.745961  0.079234 0.020351 3 54 0.750000 56 0.125000 57 0.125000
0  16.515070 1.684465 44.403275  0.005131 0.800237 -0.599662  0.079234 0.026990 1 54 1.000000
0  16.618458 1.569234 44.355537  0.306998 0.586083 -0.749839  0.081785 0.027773 3 54 0.750000 56 0.125000 57 0.125000
mokou_cloth2
0  16.515070 1.684465 44.403275  0.005131 0.800237 -0.599662  0.079234 0.026990 1 54 1.000000
0  16.870245 1.675288 44.626282  0.527855 0.649063 -0.547800  0.081785 0.034822 2 54 0.750000 57 0.250000
0  16.618458 1.569234 44.355537  0.306998 0.586083 -0.749839  0.081785 0.027773 3 54 0.750000 56 0.125000 57 0.125000
mokou_cloth2
0  16.515070 1.684465 44.403275  0.005131 0.800237 -0.599662  0.079234 0.026990 1 54 1.000000
0  16.794840 1.802305 44.704121  0.289943 0.891806 -0.347296  0.079234 0.034822 1 54 1.000000
0  16.870245 1.675288 44.626282  0.527855 0.649063 -0.547800  0.081785 0.034822 2 54 0.750000 57 0.250000
mokou_cloth2
0  16.794840 1.802305 44.704121  0.289943 0.891806 -0.347296  0.079234 0.034822 1 54 1.000000
0  17.122038 1.618051 44.913086  0.729699 0.594304 -0.338146  0.081785 0.041871 2 54 0.750000 57 0.250000
0  16.870245 1.675288 44.626282  0.527855 0.649063 -0.547800  0.081785 0.034822 2 54 0.750000 57 0.250000
mokou_cloth2
0  16.794840 1.802305 44.704121  0.289943 0.891806 -0.347296  0.079234 0.034822 1 54 1.000000
0  17.074598 1.738707 45.022774  0.560530 0.823981 -0.082833  0.079234 0.042654 1 54 1.000000
0  17.122038 1.618051 44.913086  0.729699 0.594304 -0.338146  0.081785 0.041871 2 54 0.750000 57 0.250000
mokou_cloth2
0  17.074598 1.738707 45.022774  0.560530 0.823981 -0.082833  0.079234 0.042654 1 54 1.000000
0  17.335493 1.406233 45.172241  0.877883 0.449587 -0.164902  0.081785 0.047847 2 54 0.750000 57 0.250000
0  17.122038 1.618051 44.913086  0.729699 0.594304 -0.338146  0.081785 0.041871 2 54 0.750000 57 0.250000
mokou_cloth2
0  17.074598 1.738707 45.022774  0.560530 0.823981 -0.082833  0.079234 0.042654 1 54 1.000000
0  17.311768 1.503355 45.310730  0.764297 0.630321 0.136183  0.079234 0.049294 1 54 1.000000
0  17.335493 1.406233 45.172241  0.877883 0.449587 -0.164902  0.081785 0.047847 2 54 0.750000 57 0.250000
mokou_cloth2
0  17.311768 1.503355 45.310730  0.764297 0.630321 0.136183  0.079234 0.049294 1 54 1.000000
0  17.483305 1.072591 45.370079  0.965684 0.255136 -0.048586  0.081785 0.053443 2 54 0.750000 57 0.250000
0  17.335493 1.406233 45.172241  0.877883 0.449587 -0.164902  0.081785 0.047847 2 54 0.750000 57 0.250000
mokou_cloth2
0  17.311768 1.503355 45.310730  0.764297 0.630321 0.136183  0.079234 0.049294 1 54 1.000000
0  17.475441 1.132585 45.529915  0.885356 0.368117 0.283963  0.079234 0.055334 1 54 1.000000
0  17.483305 1.072591 45.370079  0.965684 0.255136 -0.048586  0.081785 0.053443 2 54 0.750000 57 0.250000
mokou_cloth2
0  17.483305 1.072591 45.370079  0.965684 0.255136 -0.048586  0.081785 0.053443 2 54 0.750000 57 0.250000
0  17.475441 1.132585 45.529915  0.885356 0.368117 0.283963  0.079234 0.055334 1 54 1.000000
0  17.543797 0.667989 45.477348  0.999918 0.001012 0.012735  0.081785 0.057762 2 54 0.750000 57 0.250000
mokou_cloth2
0  17.475441 1.132585 45.529915  0.885356 0.368117 0.283963  0.079234 0.055334 1 54 1.000000
0  17.541485 0.682915 45.647827  0.930358 0.034823 0.364994  0.079234 0.059808 1 54 1.000000
0  17.543797 0.667989 45.477348  0.999918 0.001012 0.012735  0.081785 0.057762 2 54 0.750000 57 0.250000
mokou_cloth2
0  17.541485 0.682915 45.647827  0.930358 0.034823 0.364994  0.079234 0.059808 1 54 1.000000
0  17.483311 0.251661 45.450691  0.965959 -0.258687 -0.002086  0.081785 0.053443 2 54 0.750000 57 0.250000
0  17.543797 0.667989 45.477348  0.999918 0.001012 0.012735  0.081785 0.057762 2 54 0.750000 57 0.250000
mokou_cloth2
0  17.541485 0.682915 45.647827  0.930358 0.034823 0.364994  0.079234 0.059808 1 54 1.000000
0  17.475445 0.220441 45.619492  0.886520 -0.307402 0.345814  0.079234 0.055334 1 54 1.000000
0  17.483311 0.251661 45.450691  0.965959 -0.258687 -0.002086  0.081785 0.053443 2 54 0.750000 57 0.250000
mokou_cloth2
0  17.475445 0.220441 45.619492  0.886520 -0.307402 0.345814  0.079234 0.055334 1 54 1.000000
0  17.335499 -0.110642 45.321201  0.877300 -0.472684 -0.083151  0.081785 0.047847 3 54 0.750000 56 0.125000 57 0.125000
0  17.483311 0.251661 45.450691  0.965959 -0.258687 -0.002086  0.081785 0.053443 2 54 0.750000 57 0.250000
mokou_cloth2
0  17.475445 0.220441 45.619492  0.886520 -0.307402 0.345814  0.079234 0.055334 1 54 1.000000
0  17.311775 -0.182062 45.476246  0.764860 -0.594858 0.247252  0.079234 0.049294 1 54 1.000000
0  17.335499 -0.110642 45.321201  0.877300 -0.472684 -0.083151  0.081785 0.047847 3 54 0.750000 56 0.125000 57 0.125000
mokou_cloth2
0  17.311775 -0.182062 45.476246  0.764860 -0.594858 0.247252  0.079234 0.049294 1 54 1.000000
0  17.122044 -0.363846 45.107700  0.726973 -0.647591 -0.228332  0.081785 0.041871 3 54 0.750000 56 0.125000 57 0.125000
0  17.335499 -0.110642 45.321201  0.877300 -0.472684 -0.083151  0.081785 0.047847 3 54 0.750000 56 0.125000 57 0.125000
mokou_cloth2
0  17.311775 -0.182062 45.476246  0.764860 -0.594858 0.247252  0.079234 0.049294 1 54 1.000000
0  17.074606 -0.463400 45.239017  0.559225 -0.826463 0.065013  0.079234 0.042654 1 54 1.000000
0  17.122044 -0.363846 45.107700  0.726973 -0.647591 -0.228332  0.081785 0.041871 3 54 0.750000 56 0.125000 57 0.125000
end
