version 1
nodes
0 "ValveBiped.Bip01_Pelvis" -1
1 "ValveBiped.Bip01_Spine" 0
2 "ValveBiped.Bip01_Spine1" 1
3 "ValveBiped.Bip01_Spine2" 2
4 "ValveBiped.Bip01_Spine4" 3
5 "ValveBiped.Bip01_Neck1" 4
6 "ValveBiped.Bip01_Head1" 5
7 "ValveBiped.forward" 6
8 "ValveBiped.Bip01_R_Eye" 6
9 "ValveBiped.Bip01_L_Eye" 6
10 "j_hair_r_01" 6
11 "j_hair_r_02" 10
12 "j_hair_r_03" 11
13 "j_hair_l_01" 6
14 "j_hair_l_02" 13
15 "j_hair_l_03" 14
16 "j_hair_l_04" 15
17 "j_hair_l_05" 16
18 "j_hair_f_01" 6
19 "j_hair_f_02" 18
20 "j_hair_b_01" 6
21 "j_hair_b_02" 20
22 "j_hair_b_03" 21
23 "j_hair_b_04" 22
24 "j_hair_bl_01" 20
25 "j_hair_bl_02" 24
26 "j_hair_br_01" 20
27 "j_hair_br_02" 26
28 "j_hair_br_03" 20
29 "j_hair_br_04" 28
30 "j_hair_bl_03" 20
31 "j_hair_bl_04" 30
32 "ValveBiped.Exp_Jaw" 6
33 "ValveBiped.Exp_Eyebrows" 6
34 "ValveBiped.Exp_Eyelids_Upper" 6
35 "ValveBiped.Exp_LipsUpper" 6
36 "ValveBiped.Bip01_L_Clavicle" 4
37 "ValveBiped.Bip01_L_UpperArm" 36
38 "ValveBiped.Bip01_L_Forearm" 37
39 "ValveBiped.Bip01_L_Ulna" 38
40 "ValveBiped.Bip01_L_Wrist" 38
41 "ValveBiped.Bip01_L_Hand" 38
42 "ValveBiped.Bip01_L_Finger3" 41
43 "ValveBiped.Bip01_L_Finger31" 42
44 "ValveBiped.Bip01_L_Finger32" 43
45 "ValveBiped.Bip01_L_Finger2" 41
46 "ValveBiped.Bip01_L_Finger21" 45
47 "ValveBiped.Bip01_L_Finger22" 46
48 "ValveBiped.Bip01_L_Finger1" 41
49 "ValveBiped.Bip01_L_Finger11" 48
50 "ValveBiped.Bip01_L_Finger12" 49
51 "ValveBiped.Bip01_L_Finger4" 41
52 "ValveBiped.Bip01_L_Finger41" 51
53 "ValveBiped.Bip01_L_Finger42" 52
54 "ValveBiped.Bip01_L_Finger0" 41
55 "ValveBiped.Bip01_L_Finger01" 54
56 "ValveBiped.Bip01_L_Finger02" 55
57 "p_sleeve_l_01" 38
58 "p_sleeve_l_02" 57
59 "p_sleeve_l_03" 58
60 "ValveBiped.Bip01_L_Elbow" 37
61 "ValveBiped.Bip01_L_Trapezius" 36
62 "ValveBiped.Bip01_R_Clavicle" 4
63 "ValveBiped.Bip01_R_UpperArm" 62
64 "ValveBiped.Bip01_R_Forearm" 63
65 "ValveBiped.Bip01_R_Hand" 64
66 "ValveBiped.Bip01_R_Finger2" 65
67 "ValveBiped.Bip01_R_Finger21" 66
68 "ValveBiped.Bip01_R_Finger22" 67
69 "ValveBiped.Bip01_R_Finger1" 65
70 "ValveBiped.Bip01_R_Finger11" 69
71 "ValveBiped.Bip01_R_Finger12" 70
72 "ValveBiped.Bip01_R_Finger3" 65
73 "ValveBiped.Bip01_R_Finger31" 72
74 "ValveBiped.Bip01_R_Finger32" 73
75 "ValveBiped.Bip01_R_Finger4" 65
76 "ValveBiped.Bip01_R_Finger41" 75
77 "ValveBiped.Bip01_R_Finger42" 76
78 "ValveBiped.Bip01_R_Finger0" 65
79 "ValveBiped.Bip01_R_Finger01" 78
80 "ValveBiped.Bip01_R_Finger02" 79
81 "ValveBiped.Bip01_R_Wrist" 64
82 "ValveBiped.Bip01_R_Ulna" 64
83 "p_sleeve_r_01" 64
84 "p_sleeve_r_02" 83
85 "p_sleeve_r_03" 84
86 "ValveBiped.Bip01_R_Elbow" 63
87 "ValveBiped.Bip01_R_Trapezius" 62
88 "ValveBiped.Bip01_L_Thigh" 0
89 "ValveBiped.Bip01_L_Calf" 88
90 "ValveBiped.Bip01_L_Foot" 89
91 "ValveBiped.Bip01_L_Toe0" 90
92 "ValveBiped.Bip01_L_Ankle" 89
93 "p_skirt_e_helper" 88
94 "p_skirt_e_01" 93
95 "p_skirt_e_02" 94
96 "p_skirt_se_helper" 88
97 "p_skirt_se_01" 96
98 "p_skirt_se_02" 97
99 "ValveBiped.Bip01_R_Thigh" 0
100 "ValveBiped.Bip01_R_Calf" 99
101 "ValveBiped.Bip01_R_Foot" 100
102 "ValveBiped.Bip01_R_Toe0" 101
103 "ValveBiped.Bip01_R_Ankle" 100
104 "p_skirt_w_helper" 99
105 "p_skirt_w_01" 104
106 "p_skirt_w_02" 105
107 "p_skirt_sw_helper" 99
108 "p_skirt_sw_01" 107
109 "p_skirt_sw_02" 108
110 "p_skirt_n_helper" 0
111 "p_skirt_n_01" 110
112 "p_skirt_n_02" 111
113 "p_skirt_nw_helper" 0
114 "p_skirt_nw_01" 113
115 "p_skirt_nw_02" 114
116 "p_skirt_ne_helper" 0
117 "p_skirt_ne_01" 116
118 "p_skirt_ne_02" 117
119 "root" -1
end
skeleton
time 0
0  -0.012192 -0.737503 37.904503  1.570796 -0.000000 0.000000
1  0.000004 1.780953 -1.572807  1.570796 -0.010530 1.570812
2  3.571568 -0.000022 0.000055  0.000002 -0.000018 -0.112614
3  3.367264 -0.000018 -0.000010  0.000000 0.000003 -0.012646
4  7.619948 0.069465 -0.000001  -0.000000 0.000002 0.155822
5  2.352240 0.024902 0.000004  3.141590 -0.000004 0.227041
6  3.211877 -0.000007 0.000009  -0.000000 0.000004 0.110995
7  0.000001 -0.000001 -0.000000  -1.570790 -0.000001 -1.323623
8  2.942610 -0.168743 1.373599  1.570898 -1.554009 0.174490
9  2.951105 -0.167239 -1.326224  1.570788 -1.633716 0.174595
10  4.421260 -1.909447 3.664773  0.000001 3.029285 0.072037
11  4.684015 0.000004 -0.000006  -0.134756 0.028066 -0.819479
12  5.457761 0.000012 0.000002  -0.000001 -0.000000 0.166865
13  4.655779 -2.001996 -3.435416  -0.000003 -0.093361 -3.059267
14  5.094953 0.000018 0.000020  0.015923 0.131739 1.259740
15  5.192093 -0.000003 0.000008  -0.231378 0.186742 -0.577368
16  5.435999 -0.000020 0.000129  0.000005 -0.000058 -0.345657
17  4.731780 0.000104 -0.000151  0.000000 0.000020 0.024229
18  7.119505 -3.152170 0.000010  -0.000002 0.000004 -2.873249
19  2.814538 -0.000028 0.000002  0.000000 -0.000000 -0.299686
20  1.994457 4.870112 0.000037  -0.000003 -0.000001 2.703594
21  5.899437 -0.000047 -0.000001  0.000000 0.000000 0.173266
22  5.630083 -0.000029 -0.000001  0.000000 -0.000000 0.094639
23  6.220773 0.000008 -0.000001  -0.000000 -0.000000 -0.064081
24  8.762209 1.396445 -4.498491  -0.088179 0.175135 0.143036
25  7.805554 -0.000082 0.000040  -0.000000 -0.000016 0.299016
26  8.773525 1.399519 4.506262  0.066743 -0.134468 0.150101
27  7.649930 -0.000003 0.000023  -0.000003 0.000011 0.278252
28  7.635021 2.571735 8.971979  0.080541 -0.180641 0.172923
29  9.289906 0.000079 0.000110  -0.000004 0.000002 0.000004
30  7.430557 2.693196 -9.271925  -0.092287 0.194280 0.148131
31  8.829143 -0.000066 0.000036  0.000005 0.000001 0.000000
32  1.548073 0.004411 0.000000  1.724266 1.570795 0.000000
33  3.806175 0.213592 0.000001  3.010497 1.570795 0.000000
34  3.561857 -3.655087 -0.015466  -2.971121 1.570794 0.000000
35  1.108370 -0.293484 0.000000  -3.002915 1.570795 0.000000
36  1.883529 0.844598 1.900873  -1.503232 -1.807465 -0.241485
37  2.974383 0.045967 0.084259  -1.438299 0.093059 -0.481144
38  9.383970 -0.000033 -0.000005  0.002969 -0.045846 -0.039712
39  4.197491 0.000059 0.000015  -0.030900 -0.000002 0.000006
40  8.394959 0.000119 -0.000003  -0.057567 -0.000003 0.000000
41  8.394966 0.000118 0.000013  1.505397 -0.038596 0.036303
42  3.192088 0.174263 -0.464098  0.068894 -0.044905 -0.258012
43  1.256601 -0.053264 -0.077838  0.042615 0.057690 0.125582
44  0.732944 0.000001 -0.000003  0.249844 -0.099383 -0.203711
45  3.245904 0.086484 0.146970  0.142335 -0.052325 -0.171457
46  1.472802 -0.052144 -0.073869  -0.036121 0.039222 0.053674
47  0.814635 0.000006 0.000002  -0.001247 -0.005689 -0.099010
48  3.257701 -0.043197 0.699102  0.302883 -0.149215 -0.102536
49  1.150510 -0.055343 -0.057853  -0.020786 0.084747 -0.150765
50  0.889769 0.024051 -0.032722  0.023001 0.020232 0.074285
51  2.976636 -0.125767 -1.194694  0.214215 -0.120058 -0.106166
52  0.899957 -0.046114 -0.020472  -0.409242 0.077778 -0.086173
53  0.519159 -0.000004 -0.000005  0.194183 -0.012827 -0.056691
54  1.082931 -0.343481 0.642807  -0.074762 -0.826027 -0.527875
55  1.063540 0.000002 -0.000008  -0.169025 0.043734 0.104420
56  0.839828 0.000011 -0.000007  -0.319730 0.108349 -0.014828
57  2.997195 -0.699807 -1.344606  1.477368 1.101228 -0.034192
58  4.303500 0.000017 -0.000013  0.000000 0.000001 0.039021
59  4.050241 0.000013 -0.000009  -0.000000 0.000007 -0.046203
60  9.383978 -0.000033 -0.000002  0.005460 -0.054333 -0.098921
61  2.311732 0.045995 0.084262  -0.000000 0.000002 0.000005
62  1.883539 0.844605 -1.927184  1.431439 1.807466 -0.241531
63  2.849925 0.005632 -0.083977  1.498785 -0.056955 -0.431352
64  9.511900 -0.007995 0.434432  -0.000702 -0.008665 -0.041715
65  8.464431 0.000002 0.000030  -1.502003 0.039102 0.029843
66  3.090575 0.038221 -0.071628  -0.093264 0.021102 -0.119215
67  1.301060 0.012936 -0.047769  0.084538 0.001872 -0.292340
68  0.976055 0.040378 0.058751  -0.007846 -0.008318 0.252456
69  3.099708 -0.100568 -0.632352  -0.299501 0.127612 -0.118591
70  1.307216 -0.017274 0.064609  0.001279 -0.065009 -0.155363
71  0.765944 -0.000014 -0.000009  0.041267 -0.100698 0.112509
72  3.038953 0.134210 0.694624  -0.175269 0.080301 -0.179127
73  1.184649 -0.001578 -0.000520  -0.004426 -0.045753 -0.074519
74  0.762938 -0.000009 0.000007  -0.081635 0.016452 -0.018053
75  2.920514 0.008433 1.209877  -0.144885 -0.034643 -0.248825
76  0.746389 -0.020577 0.022532  -0.275123 0.134554 0.055084
77  0.611744 0.006823 -0.017463  -0.005657 -0.131224 -0.068404
78  1.079818 -0.412897 -0.682631  1.804300 0.759696 -0.503176
79  1.082528 0.000002 -0.000004  0.227053 0.055400 0.089607
80  0.854823 0.000016 -0.000012  0.020399 0.073843 -0.178563
81  8.464431 0.000002 0.000030  0.065180 0.000000 -0.000004
82  4.232220 0.000002 0.000035  0.034936 -0.000001 0.000004
83  2.772803 -0.707651 1.379482  1.664912 -1.105216 -0.034037
84  4.426396 0.000045 -0.000044  0.000001 0.000010 -0.070523
85  4.084991 -0.000015 0.000002  0.000000 0.000012 0.002473
86  9.511900 -0.007995 0.434432  -0.000002 0.000001 -0.100042
87  2.187282 0.005626 -0.083983  0.000003 -0.000004 0.000006
88  3.708055 -0.000004 -0.000003  -1.570796 0.031074 -1.611082
89  15.395995 -0.008346 0.011009  -0.000001 -0.017306 0.051662
90  18.806471 -0.102051 0.046131  0.008989 -0.076839 -1.230075
91  5.886005 -0.000008 -0.000002  -0.011146 0.000934 -0.500517
92  17.653563 -0.154107 0.042998  -0.000000 0.000000 0.000026
93  2.092996 0.672171 3.294091  -1.570799 -0.134115 -0.031065
94  6.501244 -0.000077 -0.000061  -0.000001 0.000011 -0.124843
95  4.914312 0.000016 0.000005  -0.000000 -0.000003 -0.035448
96  1.680329 -3.272564 1.085590  -3.139299 -0.203652 -0.042394
97  6.521069 0.000070 -0.000141  -0.000002 0.000184 0.047598
98  5.665311 -0.000073 0.000923  -0.000017 0.000002 0.100874
99  -3.708055 0.000007 0.000006  -1.571276 0.031098 -1.528219
100  15.395949 -0.008447 -0.011641  -0.000000 0.017924 0.051649
101  18.806328 -0.101941 -0.049194  -0.013288 0.048300 -1.233147
102  5.886011 -0.000013 0.000000  -0.078651 -0.006188 -0.498961
103  17.653423 -0.153989 -0.046149  0.000001 0.000000 0.000026
104  2.401435 0.663994 -3.033962  -1.570308 0.159702 -0.031021
105  6.517076 0.000036 -0.000001  -0.000001 -0.000000 0.131592
106  4.949774 -0.000000 -0.000003  0.000000 0.000004 0.035682
107  1.496829 -2.982043 -1.200155  -3.136176 0.209795 -0.086323
108  6.295231 -0.000005 -0.002868  -0.000007 0.000234 0.001376
109  6.067081 -0.000025 -0.001353  0.000023 0.000217 0.100190
110  0.000846 -1.981616 -5.161444  1.570798 0.025314 -1.570759
111  6.021768 0.000021 0.000226  0.000004 -0.000037 -0.093176
112  6.446048 0.000003 0.000005  0.000000 -0.000000 -0.035050
113  -4.396205 -2.128181 -4.230236  1.568947 -0.031829 -1.673039
114  5.928003 0.000018 -0.000822  -0.000012 0.000119 -0.099910
115  6.402660 0.000008 -0.000123  -0.000001 0.000035 -0.008505
116  3.809694 -2.289824 -4.372341  1.582022 0.010754 -1.423822
117  5.620352 0.000035 0.000610  0.000003 -0.000081 -0.029019
118  6.122753 0.000010 0.000172  0.000002 0.000065 0.001412
119  0.000000 0.000000 0.000000  0.000000 -0.000000 0.000000
end
