// Created by Crowbar 0.74
version 1
nodes
  0 "static_prop" -1
end
skeleton
  time 0
    0 0.000000 0.000000 0.000000 0.000000 0.000000 0.000000
end
triangles
  phy
    0 47.555805 -1.003196 -14.758286 -0.585751 -0.073584 0.807144 0 0
    0 47.023151 -1.003195 -29.764312 0.981653 0.114020 0.152829 0 0
    0 48.144075 -1.003195 -25.358932 -0.876560 0.003385 0.481280 0 0
  phy
    0 47.555805 -1.003196 -14.758286 -0.585751 -0.073584 0.807144 0 0
    0 46.740986 -1.003196 -9.968473 0.998870 -0.032983 0.034217 0 0
    0 47.023151 -1.003195 -29.764312 0.981653 0.114020 0.152829 0 0
  phy
    0 46.740986 -1.003196 -9.968473 0.998870 -0.032983 0.034217 0 0
    0 38.404739 -1.003194 -33.317776 0.996457 0.081670 0.020094 0 0
    0 47.023151 -1.003195 -29.764312 0.981653 0.114020 0.152829 0 0
  phy
    0 46.740986 -1.003196 -9.968473 0.998870 -0.032983 0.034217 0 0
    0 35.194020 -1.003194 -32.963828 0.998334 0.054794 -0.018068 0 0
    0 38.404739 -1.003194 -33.317776 0.996457 0.081670 0.020094 0 0
  phy
    0 46.740986 -1.003196 -9.968473 0.998870 -0.032983 0.034217 0 0
    0 27.623674 -1.003194 -29.762894 0.993802 0.094954 -0.057798 0 0
    0 35.194020 -1.003194 -32.963828 0.998334 0.054794 -0.018068 0 0
  phy
    0 46.740986 -1.003196 -9.968473 0.998870 -0.032983 0.034217 0 0
    0 25.482189 -1.003194 -24.323792 0.998639 0.008023 -0.051535 0 0
    0 27.623674 -1.003194 -29.762894 0.993802 0.094954 -0.057798 0 0
  phy
    0 46.740986 -1.003196 -9.968473 0.998870 -0.032983 0.034217 0 0
    0 24.602406 -1.003195 -11.178872 0.978015 -0.015810 -0.207934 0 0
    0 25.482189 -1.003194 -24.323792 0.998639 0.008023 -0.051535 0 0
  phy
    0 46.740986 -1.003196 -9.968473 0.998870 -0.032983 0.034217 0 0
    0 26.709965 -1.003195 -5.337291 0.994232 -0.044929 -0.097387 0 0
    0 24.602406 -1.003195 -11.178872 0.978015 -0.015810 -0.207934 0 0
  phy
    0 46.740986 -1.003196 -9.968473 0.998870 -0.032983 0.034217 0 0
    0 31.434286 -1.003196 0.967519 0.999189 -0.039226 0.009069 0 0
    0 26.709965 -1.003195 -5.337291 0.994232 -0.044929 -0.097387 0 0
  phy
    0 25.482189 -1.003194 -24.323792 0.998639 0.008023 -0.051535 0 0
    0 26.518569 -1.003194 -28.447474 0.756004 0.239799 -0.609060 0 0
    0 27.623674 -1.003194 -29.762894 0.993802 0.094954 -0.057798 0 0
  phy
    0 27.623674 -1.003194 -29.762894 0.993802 0.094954 -0.057798 0 0
    0 38.118043 0.709509 -38.330057 0.779459 0.567809 -0.264646 0 0
    0 35.194020 -1.003194 -32.963828 0.998334 0.054794 -0.018068 0 0
  phy
    0 38.118043 0.709509 -38.330057 0.779459 0.567809 -0.264646 0 0
    0 38.404739 -1.003194 -33.317776 0.996457 0.081670 0.020094 0 0
    0 35.194020 -1.003194 -32.963828 0.998334 0.054794 -0.018068 0 0
  phy
    0 25.482189 -1.003194 -24.323792 0.998639 0.008023 -0.051535 0 0
    0 24.808596 -0.661540 -19.916362 0.263103 0.064427 -0.962614 0 0
    0 25.331552 1.003202 -30.266671 -0.981980 0.069621 -0.175694 0 0
  phy
    0 24.808596 -0.661540 -19.916362 0.263103 0.064427 -0.962614 0 0
    0 24.602406 -1.003195 -11.178872 0.978015 -0.015810 -0.207934 0 0
    0 25.331552 1.003202 -30.266671 -0.981980 0.069621 -0.175694 0 0
  phy
    0 25.482189 -1.003194 -24.323792 0.998639 0.008023 -0.051535 0 0
    0 24.602406 -1.003195 -11.178872 0.978015 -0.015810 -0.207934 0 0
    0 24.808596 -0.661540 -19.916362 0.263103 0.064427 -0.962614 0 0
  phy
    0 47.555805 -1.003196 -14.758286 -0.585751 -0.073584 0.807144 0 0
    0 48.144075 -1.003195 -25.358932 -0.876560 0.003385 0.481280 0 0
    0 43.526372 1.003179 -7.379487 -0.990919 -0.008796 0.134174 0 0
  phy
    0 47.555805 -1.003196 -14.758286 -0.585751 -0.073584 0.807144 0 0
    0 43.526372 1.003179 -7.379487 -0.990919 -0.008796 0.134174 0 0
    0 46.740986 -1.003196 -9.968473 0.998870 -0.032983 0.034217 0 0
  phy
    0 26.518569 -1.003194 -28.447474 0.756004 0.239799 -0.609060 0 0
    0 25.331552 1.003202 -30.266671 -0.981980 0.069621 -0.175694 0 0
    0 27.623674 -1.003194 -29.762894 0.993802 0.094954 -0.057798 0 0
  phy
    0 38.118043 0.709509 -38.330057 0.779459 0.567809 -0.264646 0 0
    0 27.623674 -1.003194 -29.762894 0.993802 0.094954 -0.057798 0 0
    0 25.331552 1.003202 -30.266671 -0.981980 0.069621 -0.175694 0 0
  phy
    0 26.518569 -1.003194 -28.447474 0.756004 0.239799 -0.609060 0 0
    0 25.482189 -1.003194 -24.323792 0.998639 0.008023 -0.051535 0 0
    0 25.331552 1.003202 -30.266671 -0.981980 0.069621 -0.175694 0 0
  phy
    0 25.836382 1.003198 -12.867676 -0.998450 -0.002548 -0.055604 0 0
    0 26.611484 1.003193 -2.330513 -0.866091 -0.191865 -0.461599 0 0
    0 33.677769 1.003198 -1.033778 -0.999723 -0.022841 0.005588 0 0
  phy
    0 25.836382 1.003198 -12.867676 -0.998450 -0.002548 -0.055604 0 0
    0 33.677769 1.003198 -1.033778 -0.999723 -0.022841 0.005588 0 0
    0 42.623629 1.003199 -6.248069 -0.949265 -0.244840 0.197354 0 0
  phy
    0 25.836382 1.003198 -12.867676 -0.998450 -0.002548 -0.055604 0 0
    0 42.623629 1.003199 -6.248069 -0.949265 -0.244840 0.197354 0 0
    0 43.526372 1.003179 -7.379487 -0.990919 -0.008796 0.134174 0 0
  phy
    0 25.836382 1.003198 -12.867676 -0.998450 -0.002548 -0.055604 0 0
    0 43.526372 1.003179 -7.379487 -0.990919 -0.008796 0.134174 0 0
    0 43.793569 1.003201 -30.107423 -0.997521 0.007183 0.070002 0 0
  phy
    0 25.836382 1.003198 -12.867676 -0.998450 -0.002548 -0.055604 0 0
    0 43.793569 1.003201 -30.107423 -0.997521 0.007183 0.070002 0 0
    0 25.331552 1.003202 -30.266671 -0.981980 0.069621 -0.175694 0 0
  phy
    0 25.331552 1.003202 -30.266671 -0.981980 0.069621 -0.175694 0 0
    0 43.793569 1.003201 -30.107423 -0.997521 0.007183 0.070002 0 0
    0 40.948968 1.003201 -39.015680 -0.958464 0.233763 0.163406 0 0
  phy
    0 40.948968 1.003201 -39.015680 -0.958464 0.233763 0.163406 0 0
    0 38.118043 0.709509 -38.330057 0.779459 0.567809 -0.264646 0 0
    0 25.331552 1.003202 -30.266671 -0.981980 0.069621 -0.175694 0 0
  phy
    0 47.023151 -1.003195 -29.764312 0.981653 0.114020 0.152829 0 0
    0 40.948968 1.003201 -39.015680 -0.958464 0.233763 0.163406 0 0
    0 43.793569 1.003201 -30.107423 -0.997521 0.007183 0.070002 0 0
  phy
    0 40.948968 1.003201 -39.015680 -0.958464 0.233763 0.163406 0 0
    0 38.404739 -1.003194 -33.317776 0.996457 0.081670 0.020094 0 0
    0 38.118043 0.709509 -38.330057 0.779459 0.567809 -0.264646 0 0
  phy
    0 47.023151 -1.003195 -29.764312 0.981653 0.114020 0.152829 0 0
    0 38.404739 -1.003194 -33.317776 0.996457 0.081670 0.020094 0 0
    0 40.948968 1.003201 -39.015680 -0.958464 0.233763 0.163406 0 0
  phy
    0 48.144075 -1.003195 -25.358932 -0.876560 0.003385 0.481280 0 0
    0 47.023151 -1.003195 -29.764312 0.981653 0.114020 0.152829 0 0
    0 43.793569 1.003201 -30.107423 -0.997521 0.007183 0.070002 0 0
  phy
    0 43.526372 1.003179 -7.379487 -0.990919 -0.008796 0.134174 0 0
    0 48.144075 -1.003195 -25.358932 -0.876560 0.003385 0.481280 0 0
    0 43.793569 1.003201 -30.107423 -0.997521 0.007183 0.070002 0 0
  phy
    0 42.623629 1.003199 -6.248069 -0.949265 -0.244840 0.197354 0 0
    0 46.740986 -1.003196 -9.968473 0.998870 -0.032983 0.034217 0 0
    0 43.526372 1.003179 -7.379487 -0.990919 -0.008796 0.134174 0 0
  phy
    0 30.692041 -0.625268 3.368897 0.577356 -0.794574 0.187915 0 0
    0 46.740986 -1.003196 -9.968473 0.998870 -0.032983 0.034217 0 0
    0 42.623629 1.003199 -6.248069 -0.949265 -0.244840 0.197354 0 0
  phy
    0 31.490284 0.625271 2.290575 -0.909682 -0.403407 0.098698 0 0
    0 30.692041 -0.625268 3.368897 0.577356 -0.794574 0.187915 0 0
    0 42.623629 1.003199 -6.248069 -0.949265 -0.244840 0.197354 0 0
  phy
    0 31.490284 0.625271 2.290575 -0.909682 -0.403407 0.098698 0 0
    0 42.623629 1.003199 -6.248069 -0.949265 -0.244840 0.197354 0 0
    0 33.677769 1.003198 -1.033778 -0.999723 -0.022841 0.005588 0 0
  phy
    0 26.611484 1.003193 -2.330513 -0.866091 -0.191865 -0.461599 0 0
    0 26.709965 -1.003195 -5.337291 0.994232 -0.044929 -0.097387 0 0
    0 30.692041 -0.625268 3.368897 0.577356 -0.794574 0.187915 0 0
  phy
    0 26.709965 -1.003195 -5.337291 0.994232 -0.044929 -0.097387 0 0
    0 26.611484 1.003193 -2.330513 -0.866091 -0.191865 -0.461599 0 0
    0 24.602406 -1.003195 -11.178872 0.978015 -0.015810 -0.207934 0 0
  phy
    0 31.434286 -1.003196 0.967519 0.999189 -0.039226 0.009069 0 0
    0 30.692041 -0.625268 3.368897 0.577356 -0.794574 0.187915 0 0
    0 26.709965 -1.003195 -5.337291 0.994232 -0.044929 -0.097387 0 0
  phy
    0 31.490284 0.625271 2.290575 -0.909682 -0.403407 0.098698 0 0
    0 26.611484 1.003193 -2.330513 -0.866091 -0.191865 -0.461599 0 0
    0 30.692041 -0.625268 3.368897 0.577356 -0.794574 0.187915 0 0
  phy
    0 26.611484 1.003193 -2.330513 -0.866091 -0.191865 -0.461599 0 0
    0 31.490284 0.625271 2.290575 -0.909682 -0.403407 0.098698 0 0
    0 33.677769 1.003198 -1.033778 -0.999723 -0.022841 0.005588 0 0
  phy
    0 26.611484 1.003193 -2.330513 -0.866091 -0.191865 -0.461599 0 0
    0 25.836382 1.003198 -12.867676 -0.998450 -0.002548 -0.055604 0 0
    0 24.602406 -1.003195 -11.178872 0.978015 -0.015810 -0.207934 0 0
  phy
    0 24.602406 -1.003195 -11.178872 0.978015 -0.015810 -0.207934 0 0
    0 25.836382 1.003198 -12.867676 -0.998450 -0.002548 -0.055604 0 0
    0 25.331552 1.003202 -30.266671 -0.981980 0.069621 -0.175694 0 0
  phy
    0 31.434286 -1.003196 0.967519 0.999189 -0.039226 0.009069 0 0
    0 46.740986 -1.003196 -9.968473 0.998870 -0.032983 0.034217 0 0
    0 30.692041 -0.625268 3.368897 0.577356 -0.794574 0.187915 0 0
end
