// Created by Crowbar 0.74
version 1
nodes
  0 "static_prop" -1
end
skeleton
  time 0
    0 0.000000 0.000000 0.000000 0.000000 0.000000 0.000000
end
triangles
  phy
    0 9.000001 -0.000002 38.499999 -0.970330 -0.236026 0.052450 0 0
    0 -7.000007 -0.000002 40.000001 -0.977831 0.193804 -0.079284 0 0
    0 9.000001 -0.500002 38.499999 0.895016 -0.435412 0.096758 0 0
  phy
    0 -7.000007 -0.000002 40.000001 -0.977831 0.193804 -0.079284 0 0
    0 -7.000007 -0.500002 40.000001 0.994317 0.098536 -0.040310 0 0
    0 9.000001 -0.500002 38.499999 0.895016 -0.435412 0.096758 0 0
  phy
    0 9.000001 -0.500002 38.499999 0.895016 -0.435412 0.096758 0 0
    0 19.999996 0.000000 33.999991 -0.998623 0.044983 0.026990 0 0
    0 9.000001 -0.000002 38.499999 -0.970330 -0.236026 0.052450 0 0
  phy
    0 9.000001 -0.500002 38.499999 0.895016 -0.435412 0.096758 0 0
    0 19.999996 -0.500000 33.999991 0.930632 0.360514 -0.062880 0 0
    0 19.999996 0.000000 33.999991 -0.998623 0.044983 0.026990 0 0
  phy
    0 -7.000007 -0.000002 40.000001 -0.977831 0.193804 -0.079284 0 0
    0 9.000001 -0.000002 38.499999 -0.970330 -0.236026 0.052450 0 0
    0 19.999996 0.000000 33.999991 -0.998623 0.044983 0.026990 0 0
  phy
    0 -7.000007 -0.500002 40.000001 0.994317 0.098536 -0.040310 0 0
    0 -7.000007 -0.000002 40.000001 -0.977831 0.193804 -0.079284 0 0
    0 19.999996 -0.500000 33.999991 0.930632 0.360514 -0.062880 0 0
  phy
    0 19.999996 -0.500000 33.999991 0.930632 0.360514 -0.062880 0 0
    0 -7.000007 -0.000002 40.000001 -0.977831 0.193804 -0.079284 0 0
    0 19.999996 0.000000 33.999991 -0.998623 0.044983 0.026990 0 0
  phy
    0 9.000001 -0.500002 38.499999 0.895016 -0.435412 0.096758 0 0
    0 -7.000007 -0.500002 40.000001 0.994317 0.098536 -0.040310 0 0
    0 19.999996 -0.500000 33.999991 0.930632 0.360514 -0.062880 0 0
  phy
    0 13.999999 0.000000 15.999997 -0.999344 0.024712 0.026477 0 0
    0 5.000001 0.000000 9.500000 -0.977584 0.192689 0.084854 0 0
    0 -4.250000 0.000002 10.499999 -0.999917 0.011920 -0.004919 0 0
  phy
    0 13.999999 0.000000 15.999997 -0.999344 0.024712 0.026477 0 0
    0 -4.250000 0.000002 10.499999 -0.999917 0.011920 -0.004919 0 0
    0 19.999998 0.000002 33.999996 -0.999671 -0.023771 0.009685 0 0
  phy
    0 13.999999 0.000000 15.999997 -0.999344 0.024712 0.026477 0 0
    0 20.000001 -0.500003 24.000003 0.999432 0.014122 0.030598 0 0
    0 13.999998 -0.500001 15.999996 0.900400 0.327418 0.286491 0 0
  phy
    0 13.999999 0.000000 15.999997 -0.999344 0.024712 0.026477 0 0
    0 20.000001 0.000000 24.000003 -0.972688 0.048635 0.226962 0 0
    0 20.000001 -0.500003 24.000003 0.999432 0.014122 0.030598 0 0
  phy
    0 20.000001 0.000000 24.000003 -0.972688 0.048635 0.226962 0 0
    0 13.999999 0.000000 15.999997 -0.999344 0.024712 0.026477 0 0
    0 19.999998 0.000002 33.999996 -0.999671 -0.023771 0.009685 0 0
  phy
    0 13.999999 0.000000 15.999997 -0.999344 0.024712 0.026477 0 0
    0 13.999998 -0.500001 15.999996 0.900400 0.327418 0.286491 0 0
    0 5.000001 0.000000 9.500000 -0.977584 0.192689 0.084854 0 0
  phy
    0 5.000001 0.000000 9.500000 -0.977584 0.192689 0.084854 0 0
    0 13.999998 -0.500001 15.999996 0.900400 0.327418 0.286491 0 0
    0 5.000000 -0.500000 9.499999 0.997087 0.075278 0.012318 0 0
  phy
    0 20.000001 -0.500003 24.000003 0.999432 0.014122 0.030598 0 0
    0 5.000000 -0.500000 9.499999 0.997087 0.075278 0.012318 0 0
    0 13.999998 -0.500001 15.999996 0.900400 0.327418 0.286491 0 0
  phy
    0 -9.949922 -0.500005 31.009767 0.950328 -0.048049 -0.307518 0 0
    0 -9.949922 0.000007 31.009767 -0.836515 -0.084590 -0.541376 0 0
    0 -10.750000 -0.500002 16.000001 0.995076 0.026540 -0.095499 0 0
  phy
    0 -10.750000 -0.500002 16.000001 0.995076 0.026540 -0.095499 0 0
    0 -9.949922 0.000007 31.009767 -0.836515 -0.084590 -0.541376 0 0
    0 -10.750000 0.000005 16.000001 -0.998762 0.013319 -0.047926 0 0
  phy
    0 -9.949922 0.000007 31.009767 -0.836515 -0.084590 -0.541376 0 0
    0 -9.949922 -0.500005 31.009767 0.950328 -0.048049 -0.307518 0 0
    0 -7.000001 -0.500007 40.000001 0.999542 -0.030126 -0.003008 0 0
  phy
    0 -9.949922 0.000007 31.009767 -0.836515 -0.084590 -0.541376 0 0
    0 -7.000001 -0.500007 40.000001 0.999542 -0.030126 -0.003008 0 0
    0 -7.000001 0.000008 39.999997 -0.999885 -0.015068 -0.001504 0 0
  phy
    0 -10.750000 0.000005 16.000001 -0.998762 0.013319 -0.047926 0 0
    0 -9.949922 0.000007 31.009767 -0.836515 -0.084590 -0.541376 0 0
    0 -7.000001 0.000008 39.999997 -0.999885 -0.015068 -0.001504 0 0
  phy
    0 -4.250000 0.000002 10.499999 -0.999917 0.011920 -0.004919 0 0
    0 5.000001 0.000000 9.500000 -0.977584 0.192689 0.084854 0 0
    0 5.000000 -0.500000 9.499999 0.997087 0.075278 0.012318 0 0
  phy
    0 20.000001 -0.500003 24.000003 0.999432 0.014122 0.030598 0 0
    0 20.000001 -0.500005 33.999996 0.999832 -0.013201 0.012712 0 0
    0 -4.249999 -0.500000 10.499999 0.999980 0.005841 -0.002410 0 0
  phy
    0 -4.249999 -0.500000 10.499999 0.999980 0.005841 -0.002410 0 0
    0 5.000000 -0.500000 9.499999 0.997087 0.075278 0.012318 0 0
    0 20.000001 -0.500003 24.000003 0.999432 0.014122 0.030598 0 0
  phy
    0 20.000001 0.000000 24.000003 -0.972688 0.048635 0.226962 0 0
    0 20.000001 -0.500005 33.999996 0.999832 -0.013201 0.012712 0 0
    0 20.000001 -0.500003 24.000003 0.999432 0.014122 0.030598 0 0
  phy
    0 -4.249999 -0.500000 10.499999 0.999980 0.005841 -0.002410 0 0
    0 -7.000001 -0.500007 40.000001 0.999542 -0.030126 -0.003008 0 0
    0 -10.750000 -0.500002 16.000001 0.995076 0.026540 -0.095499 0 0
  phy
    0 20.000001 -0.500005 33.999996 0.999832 -0.013201 0.012712 0 0
    0 -7.000001 -0.500007 40.000001 0.999542 -0.030126 -0.003008 0 0
    0 -4.249999 -0.500000 10.499999 0.999980 0.005841 -0.002410 0 0
  phy
    0 -4.250000 0.000002 10.499999 -0.999917 0.011920 -0.004919 0 0
    0 -4.249999 -0.500000 10.499999 0.999980 0.005841 -0.002410 0 0
    0 -10.750000 -0.500002 16.000001 0.995076 0.026540 -0.095499 0 0
  phy
    0 -4.249999 -0.500000 10.499999 0.999980 0.005841 -0.002410 0 0
    0 -4.250000 0.000002 10.499999 -0.999917 0.011920 -0.004919 0 0
    0 5.000000 -0.500000 9.499999 0.997087 0.075278 0.012318 0 0
  phy
    0 -10.750000 0.000005 16.000001 -0.998762 0.013319 -0.047926 0 0
    0 -4.250000 0.000002 10.499999 -0.999917 0.011920 -0.004919 0 0
    0 -10.750000 -0.500002 16.000001 0.995076 0.026540 -0.095499 0 0
  phy
    0 -4.250000 0.000002 10.499999 -0.999917 0.011920 -0.004919 0 0
    0 -10.750000 0.000005 16.000001 -0.998762 0.013319 -0.047926 0 0
    0 -7.000001 0.000008 39.999997 -0.999885 -0.015068 -0.001504 0 0
  phy
    0 19.999998 0.000002 33.999996 -0.999671 -0.023771 0.009685 0 0
    0 20.000001 -0.500005 33.999996 0.999832 -0.013201 0.012712 0 0
    0 20.000001 0.000000 24.000003 -0.972688 0.048635 0.226962 0 0
  phy
    0 19.999998 0.000002 33.999996 -0.999671 -0.023771 0.009685 0 0
    0 -4.250000 0.000002 10.499999 -0.999917 0.011920 -0.004919 0 0
    0 -7.000001 0.000008 39.999997 -0.999885 -0.015068 -0.001504 0 0
  phy
    0 -10.750000 -0.500002 16.000001 0.995076 0.026540 -0.095499 0 0
    0 -7.000001 -0.500007 40.000001 0.999542 -0.030126 -0.003008 0 0
    0 -9.949922 -0.500005 31.009767 0.950328 -0.048049 -0.307518 0 0
  phy
    0 19.999998 0.000002 33.999996 -0.999671 -0.023771 0.009685 0 0
    0 -7.000001 -0.500007 40.000001 0.999542 -0.030126 -0.003008 0 0
    0 20.000001 -0.500005 33.999996 0.999832 -0.013201 0.012712 0 0
  phy
    0 19.999998 0.000002 33.999996 -0.999671 -0.023771 0.009685 0 0
    0 -7.000001 0.000008 39.999997 -0.999885 -0.015068 -0.001504 0 0
    0 -7.000001 -0.500007 40.000001 0.999542 -0.030126 -0.003008 0 0
  phy
    0 -2.000000 0.000000 1.000001 0.985804 0.034590 -0.164300 0 0
    0 -2.000000 -0.000002 29.500000 0.960420 -0.015996 -0.278096 0 0
    0 -2.000000 1.000000 1.000000 -0.946588 0.066427 -0.315530 0 0
  phy
    0 -2.000000 1.000000 1.000000 -0.946588 0.066427 -0.315530 0 0
    0 -2.000000 -0.000002 29.500000 0.960420 -0.015996 -0.278096 0 0
    0 -2.000000 1.000000 29.500002 -0.975490 -0.032495 -0.217633 0 0
  phy
    0 -2.000000 0.000000 1.000001 0.985804 0.034590 -0.164300 0 0
    0 2.000000 0.000000 10.500000 0.945791 0.031505 0.323245 0 0
    0 -2.000000 -0.000002 29.500000 0.960420 -0.015996 -0.278096 0 0
  phy
    0 -2.000000 0.000000 1.000001 0.985804 0.034590 -0.164300 0 0
    0 -2.000000 1.000000 1.000000 -0.946588 0.066427 -0.315530 0 0
    0 2.000000 0.000000 10.500000 0.945791 0.031505 0.323245 0 0
  phy
    0 2.000000 0.000000 10.500000 0.945791 0.031505 0.323245 0 0
    0 2.000000 -0.000002 42.040001 0.996695 -0.063202 0.051036 0 0
    0 -2.000000 -0.000002 29.500000 0.960420 -0.015996 -0.278096 0 0
  phy
    0 -2.000000 1.000000 29.500002 -0.975490 -0.032495 -0.217633 0 0
    0 -2.000000 -0.000002 29.500000 0.960420 -0.015996 -0.278096 0 0
    0 2.000000 -0.000002 42.040001 0.996695 -0.063202 0.051036 0 0
  phy
    0 2.000000 0.000000 10.500000 0.945791 0.031505 0.323245 0 0
    0 2.000000 1.000000 42.040001 -0.927882 -0.029419 0.371712 0 0
    0 2.000000 -0.000002 42.040001 0.996695 -0.063202 0.051036 0 0
  phy
    0 2.000000 0.000000 10.500000 0.945791 0.031505 0.323245 0 0
    0 2.000000 1.000000 10.500000 -0.985578 0.016415 0.168422 0 0
    0 2.000000 1.000000 42.040001 -0.927882 -0.029419 0.371712 0 0
  phy
    0 2.000000 0.000000 10.500000 0.945791 0.031505 0.323245 0 0
    0 -2.000000 1.000000 1.000000 -0.946588 0.066427 -0.315530 0 0
    0 2.000000 1.000000 10.500000 -0.985578 0.016415 0.168422 0 0
  phy
    0 -2.000000 1.000000 29.500002 -0.975490 -0.032495 -0.217633 0 0
    0 2.000000 1.000000 42.040001 -0.927882 -0.029419 0.371712 0 0
    0 2.000000 1.000000 10.500000 -0.985578 0.016415 0.168422 0 0
  phy
    0 -2.000000 1.000000 29.500002 -0.975490 -0.032495 -0.217633 0 0
    0 2.000000 1.000000 10.500000 -0.985578 0.016415 0.168422 0 0
    0 -2.000000 1.000000 1.000000 -0.946588 0.066427 -0.315530 0 0
  phy
    0 -2.000000 1.000000 29.500002 -0.975490 -0.032495 -0.217633 0 0
    0 2.000000 -0.000002 42.040001 0.996695 -0.063202 0.051036 0 0
    0 2.000000 1.000000 42.040001 -0.927882 -0.029419 0.371712 0 0
  phy
    0 -6.000001 14.000000 1.000001 -0.049553 -0.991059 0.123882 0 0
    0 -6.000001 14.000000 0.000001 -0.176090 0.880451 0.440225 0 0
    0 -10.000000 14.000000 1.000001 -0.190476 -0.952381 -0.238095 0 0
  phy
    0 -10.000000 14.000000 1.000001 -0.190476 -0.952381 -0.238095 0 0
    0 -6.000001 14.000000 0.000001 -0.176090 0.880451 0.440225 0 0
    0 -10.000000 14.000000 0.000001 -0.048450 0.969003 -0.242251 0 0
  phy
    0 -6.000001 14.000000 1.000001 -0.049553 -0.991059 0.123882 0 0
    0 -6.000000 4.000000 1.000000 0.089087 -0.890871 0.445435 0 0
    0 -6.000001 14.000000 0.000001 -0.176090 0.880451 0.440225 0 0
  phy
    0 -6.000000 4.000000 1.000000 0.089087 -0.890871 0.445435 0 0
    0 -6.000000 4.000000 0.000000 0.098743 0.987429 0.123429 0 0
    0 -6.000001 14.000000 0.000001 -0.176090 0.880451 0.440225 0 0
  phy
    0 -10.000000 14.000000 0.000001 -0.048450 0.969003 -0.242251 0 0
    0 -6.000001 14.000000 0.000001 -0.176090 0.880451 0.440225 0 0
    0 -6.000000 4.000000 0.000000 0.098743 0.987429 0.123429 0 0
  phy
    0 -10.000000 14.000000 1.000001 -0.190476 -0.952381 -0.238095 0 0
    0 -10.000000 14.000000 0.000001 -0.048450 0.969003 -0.242251 0 0
    0 -10.000000 3.999999 1.000000 0.096561 -0.965609 -0.241402 0 0
  phy
    0 -10.000000 3.999999 1.000000 0.096561 -0.965609 -0.241402 0 0
    0 -10.000000 14.000000 0.000001 -0.048450 0.969003 -0.242251 0 0
    0 -10.000000 3.999999 0.000000 0.096561 0.965609 -0.241402 0 0
  phy
    0 -10.000000 3.999999 1.000000 0.096561 -0.965609 -0.241402 0 0
    0 -6.000001 14.000000 1.000001 -0.049553 -0.991059 0.123882 0 0
    0 -10.000000 14.000000 1.000001 -0.190476 -0.952381 -0.238095 0 0
  phy
    0 -10.000000 3.999999 1.000000 0.096561 -0.965609 -0.241402 0 0
    0 -6.000000 4.000000 0.000000 0.098743 0.987429 0.123429 0 0
    0 -6.000000 4.000000 1.000000 0.089087 -0.890871 0.445435 0 0
  phy
    0 -10.000000 3.999999 1.000000 0.096561 -0.965609 -0.241402 0 0
    0 -10.000000 3.999999 0.000000 0.096561 0.965609 -0.241402 0 0
    0 -6.000000 4.000000 0.000000 0.098743 0.987429 0.123429 0 0
  phy
    0 -6.000000 4.000000 1.000000 0.089087 -0.890871 0.445435 0 0
    0 -6.000001 14.000000 1.000001 -0.049553 -0.991059 0.123882 0 0
    0 -10.000000 3.999999 1.000000 0.096561 -0.965609 -0.241402 0 0
  phy
    0 -10.000000 3.999999 0.000000 0.096561 0.965609 -0.241402 0 0
    0 -10.000000 14.000000 0.000001 -0.048450 0.969003 -0.242251 0 0
    0 -6.000000 4.000000 0.000000 0.098743 0.987429 0.123429 0 0
  phy
    0 -9.500000 -0.000002 49.999999 -0.991970 -0.018313 -0.125141 0 0
    0 -9.500000 -0.500003 49.999999 0.999449 -0.004805 -0.032834 0 0
    0 -4.000002 -0.000002 60.500000 -0.999010 -0.034179 -0.028482 0 0
  phy
    0 -9.500000 -0.500003 49.999999 0.999449 -0.004805 -0.032834 0 0
    0 -9.500000 -0.000002 49.999999 -0.991970 -0.018313 -0.125141 0 0
    0 -6.999999 -0.000002 39.999997 -0.999540 0.025745 -0.016004 0 0
  phy
    0 -9.500000 -0.000002 49.999999 -0.991970 -0.018313 -0.125141 0 0
    0 -4.000002 -0.000002 60.500000 -0.999010 -0.034179 -0.028482 0 0
    0 -6.999999 -0.000002 39.999997 -0.999540 0.025745 -0.016004 0 0
  phy
    0 9.000002 -0.000002 59.499999 -0.999196 -0.026694 0.029916 0 0
    0 9.000000 -0.500003 59.499989 0.999692 -0.016533 0.018529 0 0
    0 10.500001 -0.500002 44.250005 0.999337 0.000000 0.036418 0 0
  phy
    0 10.500001 -0.500002 44.250005 0.999337 0.000000 0.036418 0 0
    0 10.500001 -0.000002 44.250005 -0.999592 0.000000 0.028560 0 0
    0 9.000002 -0.000002 59.499999 -0.999196 -0.026694 0.029916 0 0
  phy
    0 10.500001 -0.500002 44.250005 0.999337 0.000000 0.036418 0 0
    0 8.999999 -0.500002 38.499999 0.984471 0.174959 0.014362 0 0
    0 9.000000 -0.000002 38.500001 -0.993575 0.100148 0.052710 0 0
  phy
    0 9.000000 -0.000002 38.500001 -0.993575 0.100148 0.052710 0 0
    0 10.500001 -0.000002 44.250005 -0.999592 0.000000 0.028560 0 0
    0 10.500001 -0.500002 44.250005 0.999337 0.000000 0.036418 0 0
  phy
    0 10.500001 -0.500002 44.250005 0.999337 0.000000 0.036418 0 0
    0 9.000000 -0.500003 59.499989 0.999692 -0.016533 0.018529 0 0
    0 -9.500000 -0.500003 49.999999 0.999449 -0.004805 -0.032834 0 0
  phy
    0 -9.500000 -0.500003 49.999999 0.999449 -0.004805 -0.032834 0 0
    0 -7.000000 -0.500002 40.000001 0.999244 0.033026 -0.020529 0 0
    0 10.500001 -0.500002 44.250005 0.999337 0.000000 0.036418 0 0
  phy
    0 -7.000000 -0.500002 40.000001 0.999244 0.033026 -0.020529 0 0
    0 8.999999 -0.500002 38.499999 0.984471 0.174959 0.014362 0 0
    0 10.500001 -0.500002 44.250005 0.999337 0.000000 0.036418 0 0
  phy
    0 -7.000000 -0.500002 40.000001 0.999244 0.033026 -0.020529 0 0
    0 -9.500000 -0.500003 49.999999 0.999449 -0.004805 -0.032834 0 0
    0 -6.999999 -0.000002 39.999997 -0.999540 0.025745 -0.016004 0 0
  phy
    0 -4.000002 -0.000002 60.500000 -0.999010 -0.034179 -0.028482 0 0
    0 -9.500000 -0.500003 49.999999 0.999449 -0.004805 -0.032834 0 0
    0 -4.000002 -0.500003 60.499991 0.993466 -0.110191 -0.029734 0 0
  phy
    0 9.000000 -0.500003 59.499989 0.999692 -0.016533 0.018529 0 0
    0 -4.000002 -0.500003 60.499991 0.993466 -0.110191 -0.029734 0 0
    0 -9.500000 -0.500003 49.999999 0.999449 -0.004805 -0.032834 0 0
  phy
    0 -4.000002 -0.000002 60.500000 -0.999010 -0.034179 -0.028482 0 0
    0 9.000002 -0.000002 59.499999 -0.999196 -0.026694 0.029916 0 0
    0 -6.999999 -0.000002 39.999997 -0.999540 0.025745 -0.016004 0 0
  phy
    0 -6.999999 -0.000002 39.999997 -0.999540 0.025745 -0.016004 0 0
    0 9.000002 -0.000002 59.499999 -0.999196 -0.026694 0.029916 0 0
    0 10.500001 -0.000002 44.250005 -0.999592 0.000000 0.028560 0 0
  phy
    0 -4.000002 -0.000002 60.500000 -0.999010 -0.034179 -0.028482 0 0
    0 -4.000002 -0.500003 60.499991 0.993466 -0.110191 -0.029734 0 0
    0 9.000002 -0.000002 59.499999 -0.999196 -0.026694 0.029916 0 0
  phy
    0 9.000002 -0.000002 59.499999 -0.999196 -0.026694 0.029916 0 0
    0 -4.000002 -0.500003 60.499991 0.993466 -0.110191 -0.029734 0 0
    0 9.000000 -0.500003 59.499989 0.999692 -0.016533 0.018529 0 0
  phy
    0 -7.000000 -0.500002 40.000001 0.999244 0.033026 -0.020529 0 0
    0 -6.999999 -0.000002 39.999997 -0.999540 0.025745 -0.016004 0 0
    0 8.999999 -0.500002 38.499999 0.984471 0.174959 0.014362 0 0
  phy
    0 -6.999999 -0.000002 39.999997 -0.999540 0.025745 -0.016004 0 0
    0 9.000000 -0.000002 38.500001 -0.993575 0.100148 0.052710 0 0
    0 8.999999 -0.500002 38.499999 0.984471 0.174959 0.014362 0 0
  phy
    0 9.000000 -0.000002 38.500001 -0.993575 0.100148 0.052710 0 0
    0 -6.999999 -0.000002 39.999997 -0.999540 0.025745 -0.016004 0 0
    0 10.500001 -0.000002 44.250005 -0.999592 0.000000 0.028560 0 0
  phy
    0 -13.750001 -0.500003 36.249996 0.997002 0.029762 -0.071427 0 0
    0 -13.750001 -0.000003 36.249996 -0.988166 0.058995 -0.141588 0 0
    0 -9.000000 -0.500001 33.500002 0.977341 0.210800 -0.019163 0 0
  phy
    0 -9.000000 -0.500001 33.500002 0.977341 0.210800 -0.019163 0 0
    0 -13.750001 -0.000003 36.249996 -0.988166 0.058995 -0.141588 0 0
    0 -9.000000 -0.000001 33.500002 -0.981473 0.149145 0.120279 0 0
  phy
    0 -9.000000 -0.000001 33.500002 -0.981473 0.149145 0.120279 0 0
    0 -7.500003 -0.500002 38.000000 0.992163 -0.011847 0.124391 0 0
    0 -9.000000 -0.500001 33.500002 0.977341 0.210800 -0.019163 0 0
  phy
    0 -9.000000 -0.000001 33.500002 -0.981473 0.149145 0.120279 0 0
    0 -7.500003 -0.000002 38.000000 -0.993051 -0.077073 0.088930 0 0
    0 -7.500003 -0.500002 38.000000 0.992163 -0.011847 0.124391 0 0
  phy
    0 -7.500003 -0.500002 38.000000 0.992163 -0.011847 0.124391 0 0
    0 -13.750001 -0.500003 36.249996 0.997002 0.029762 -0.071427 0 0
    0 -9.000000 -0.500001 33.500002 0.977341 0.210800 -0.019163 0 0
  phy
    0 -7.500003 -0.000002 38.000000 -0.993051 -0.077073 0.088930 0 0
    0 -11.500002 -0.500003 39.499998 0.929639 -0.354824 -0.099351 0 0
    0 -7.500003 -0.500002 38.000000 0.992163 -0.011847 0.124391 0 0
  phy
    0 -7.500003 -0.000002 38.000000 -0.993051 -0.077073 0.088930 0 0
    0 -11.500002 -0.000003 39.499998 -0.980923 -0.187199 -0.052416 0 0
    0 -11.500002 -0.500003 39.499998 0.929639 -0.354824 -0.099351 0 0
  phy
    0 -7.500003 -0.500002 38.000000 0.992163 -0.011847 0.124391 0 0
    0 -11.500002 -0.500003 39.499998 0.929639 -0.354824 -0.099351 0 0
    0 -13.750001 -0.500003 36.249996 0.997002 0.029762 -0.071427 0 0
  phy
    0 -13.750001 -0.500003 36.249996 0.997002 0.029762 -0.071427 0 0
    0 -11.500002 -0.500003 39.499998 0.929639 -0.354824 -0.099351 0 0
    0 -13.750001 -0.000003 36.249996 -0.988166 0.058995 -0.141588 0 0
  phy
    0 -13.750001 -0.000003 36.249996 -0.988166 0.058995 -0.141588 0 0
    0 -11.500002 -0.500003 39.499998 0.929639 -0.354824 -0.099351 0 0
    0 -11.500002 -0.000003 39.499998 -0.980923 -0.187199 -0.052416 0 0
  phy
    0 -7.500003 -0.000002 38.000000 -0.993051 -0.077073 0.088930 0 0
    0 -13.750001 -0.000003 36.249996 -0.988166 0.058995 -0.141588 0 0
    0 -11.500002 -0.000003 39.499998 -0.980923 -0.187199 -0.052416 0 0
  phy
    0 -13.750001 -0.000003 36.249996 -0.988166 0.058995 -0.141588 0 0
    0 -7.500003 -0.000002 38.000000 -0.993051 -0.077073 0.088930 0 0
    0 -9.000000 -0.000001 33.500002 -0.981473 0.149145 0.120279 0 0
  phy
    0 0.500000 0.999999 13.999999 0.364790 0.225822 0.903290 0 0
    0 -0.500000 0.999999 13.999999 0.237349 0.205702 -0.949396 0 0
    0 0.499999 14.000000 1.000001 0.205702 0.237349 0.949396 0 0
  phy
    0 0.499999 14.000000 1.000001 0.205702 0.237349 0.949396 0 0
    0 -0.500000 0.999999 13.999999 0.237349 0.205702 -0.949396 0 0
    0 -0.500001 14.000000 1.000001 0.225822 0.364790 -0.903290 0 0
  phy
    0 0.500000 0.999999 13.999999 0.364790 0.225822 0.903290 0 0
    0 -0.500000 0.999999 17.999998 -0.127356 -0.240561 -0.962243 0 0
    0 -0.500000 0.999999 13.999999 0.237349 0.205702 -0.949396 0 0
  phy
    0 0.500000 0.999999 13.999999 0.364790 0.225822 0.903290 0 0
    0 0.500000 0.999999 17.999998 -0.233862 -0.265043 0.935447 0 0
    0 -0.500000 0.999999 17.999998 -0.127356 -0.240561 -0.962243 0 0
  phy
    0 0.499999 14.000000 1.000001 0.205702 0.237349 0.949396 0 0
    0 0.500000 0.999999 17.999998 -0.233862 -0.265043 0.935447 0 0
    0 0.500000 0.999999 13.999999 0.364790 0.225822 0.903290 0 0
  phy
    0 0.499999 14.000000 1.000001 0.205702 0.237349 0.949396 0 0
    0 -0.500001 14.000000 1.000001 0.225822 0.364790 -0.903290 0 0
    0 0.499999 18.000000 1.000001 -0.240561 -0.127356 0.962243 0 0
  phy
    0 0.499999 18.000000 1.000001 -0.240561 -0.127356 0.962243 0 0
    0 -0.500001 14.000000 1.000001 0.225822 0.364790 -0.903290 0 0
    0 -0.500001 18.000000 1.000001 -0.265043 -0.233862 -0.935447 0 0
  phy
    0 -0.500001 18.000000 1.000001 -0.265043 -0.233862 -0.935447 0 0
    0 0.500000 0.999999 17.999998 -0.233862 -0.265043 0.935447 0 0
    0 0.499999 18.000000 1.000001 -0.240561 -0.127356 0.962243 0 0
  phy
    0 -0.500001 18.000000 1.000001 -0.265043 -0.233862 -0.935447 0 0
    0 -0.500000 0.999999 17.999998 -0.127356 -0.240561 -0.962243 0 0
    0 0.500000 0.999999 17.999998 -0.233862 -0.265043 0.935447 0 0
  phy
    0 0.499999 18.000000 1.000001 -0.240561 -0.127356 0.962243 0 0
    0 0.500000 0.999999 17.999998 -0.233862 -0.265043 0.935447 0 0
    0 0.499999 14.000000 1.000001 0.205702 0.237349 0.949396 0 0
  phy
    0 -0.500001 14.000000 1.000001 0.225822 0.364790 -0.903290 0 0
    0 -0.500000 0.999999 13.999999 0.237349 0.205702 -0.949396 0 0
    0 -0.500001 18.000000 1.000001 -0.265043 -0.233862 -0.935447 0 0
  phy
    0 -0.500000 0.999999 13.999999 0.237349 0.205702 -0.949396 0 0
    0 -0.500000 0.999999 17.999998 -0.127356 -0.240561 -0.962243 0 0
    0 -0.500001 18.000000 1.000001 -0.265043 -0.233862 -0.935447 0 0
  phy
    0 -10.000000 18.000000 0.000001 -0.123997 0.991973 -0.024799 0 0
    0 -10.000000 13.999999 0.000001 0.445435 0.890871 -0.089087 0 0
    0 -10.000000 18.000000 1.000001 -0.445435 -0.890871 -0.089087 0 0
  phy
    0 -10.000000 18.000000 1.000001 -0.445435 -0.890871 -0.089087 0 0
    0 -10.000000 13.999999 0.000001 0.445435 0.890871 -0.089087 0 0
    0 -10.000000 13.999999 1.000001 0.123997 -0.991973 -0.024799 0 0
  phy
    0 -10.000000 13.999999 0.000001 0.445435 0.890871 -0.089087 0 0
    0 -10.000000 18.000000 0.000001 -0.123997 0.991973 -0.024799 0 0
    0 9.999999 13.999999 0.000001 0.123882 0.991059 0.049553 0 0
  phy
    0 9.999999 13.999999 0.000001 0.123882 0.991059 0.049553 0 0
    0 -10.000000 18.000000 0.000001 -0.123997 0.991973 -0.024799 0 0
    0 9.999999 18.000000 0.000001 -0.446767 0.893534 0.044677 0 0
  phy
    0 -10.000000 13.999999 0.000001 0.445435 0.890871 -0.089087 0 0
    0 9.999999 13.999999 1.000001 0.446767 -0.893534 0.044677 0 0
    0 -10.000000 13.999999 1.000001 0.123997 -0.991973 -0.024799 0 0
  phy
    0 -10.000000 13.999999 0.000001 0.445435 0.890871 -0.089087 0 0
    0 9.999999 13.999999 0.000001 0.123882 0.991059 0.049553 0 0
    0 9.999999 13.999999 1.000001 0.446767 -0.893534 0.044677 0 0
  phy
    0 -10.000000 18.000000 0.000001 -0.123997 0.991973 -0.024799 0 0
    0 -10.000000 18.000000 1.000001 -0.445435 -0.890871 -0.089087 0 0
    0 9.999999 18.000000 0.000001 -0.446767 0.893534 0.044677 0 0
  phy
    0 9.999999 18.000000 0.000001 -0.446767 0.893534 0.044677 0 0
    0 -10.000000 18.000000 1.000001 -0.445435 -0.890871 -0.089087 0 0
    0 9.999999 18.000000 1.000001 -0.123882 -0.991059 0.049553 0 0
  phy
    0 -10.000000 13.999999 1.000001 0.123997 -0.991973 -0.024799 0 0
    0 9.999999 18.000000 1.000001 -0.123882 -0.991059 0.049553 0 0
    0 -10.000000 18.000000 1.000001 -0.445435 -0.890871 -0.089087 0 0
  phy
    0 -10.000000 13.999999 1.000001 0.123997 -0.991973 -0.024799 0 0
    0 9.999999 13.999999 1.000001 0.446767 -0.893534 0.044677 0 0
    0 9.999999 18.000000 1.000001 -0.123882 -0.991059 0.049553 0 0
  phy
    0 9.999999 18.000000 1.000001 -0.123882 -0.991059 0.049553 0 0
    0 9.999999 13.999999 0.000001 0.123882 0.991059 0.049553 0 0
    0 9.999999 18.000000 0.000001 -0.446767 0.893534 0.044677 0 0
  phy
    0 9.999999 18.000000 1.000001 -0.123882 -0.991059 0.049553 0 0
    0 9.999999 13.999999 1.000001 0.446767 -0.893534 0.044677 0 0
    0 9.999999 13.999999 0.000001 0.123882 0.991059 0.049553 0 0
end
