version 1
nodes
  0 "SPARKROOT" -1
  1 "SJ_1" 0
  2 "SJ_2" 0
  3 "SJ_3" 0
  4 "SJ_4" 0
  5 "SJ_5" 0
  6 "SJ_6" 0
  7 "SJ_7" 0
  8 "SJ_8" 0
  9 "SJ_9" 0
  10 "SJ_10" 0
  11 "SJ_11" 0
  12 "SJ_12" 0
  13 "SJ_13" 0
  14 "SJ_14" 0
  15 "SJ_15" 0
  16 "SJ_16" 0
  17 "SJ_17" 0
  18 "SJ_18" 0
  19 "SJ_19" 0
  20 "SJ_20" 0
  21 "SJ_21" 0
  22 "SJ_22" 0
  23 "SJ_23" 0
  24 "SJ_24" 0
  25 "SJ_25" 0
  26 "SJ_26" 0
  27 "SJ_27" 0
  28 "SJ_28" 0
  29 "SJ_29" 0
  30 "SJ_30" 0
  31 "SJ_31" 0
  32 "SJ_32" 0
end
skeleton
  time 0
    0 -2560.000000 5376.000000 192.000000 1.570674 0.000183 -0.000183
    1 2838.000000 -404.750000 6316.000000 0.000000 0.000000 0.000000
    2 2664.000000 -412.500000 6984.000000 0.000000 0.000000 0.000000
    3 2750.000000 -408.750000 6648.000000 0.000000 0.000000 0.000000
    4 2946.000000 -441.250000 6388.000000 0.000000 0.000000 0.000000
    5 3058.000000 -441.250000 6280.000000 0.000000 0.000000 0.000000
    6 2876.000000 -425.000000 6492.000000 0.000000 0.000000 0.000000
    7 3002.000000 -441.250000 6332.000000 0.000000 0.000000 0.000000
    8 2860.000000 -426.750000 6632.000000 0.000000 0.000000 0.000000
    9 2800.000000 -421.500000 6704.000000 0.000000 0.000000 0.000000
    10 2892.000000 -423.000000 6352.000000 0.000000 0.000000 0.000000
    11 3278.000000 -473.000000 7188.000000 0.000000 0.000000 0.000000
    12 3174.000000 -455.500000 7192.000000 0.000000 0.000000 0.000000
    13 3264.000000 -471.750000 7248.000000 0.000000 0.000000 0.000000
    14 3278.000000 -462.750000 7160.000000 0.000000 0.000000 0.000000
    15 3200.000000 -459.000000 7228.000000 0.000000 0.000000 0.000000
    16 3274.000000 -457.750000 7132.000000 0.000000 0.000000 0.000000
    17 3286.000000 -467.250000 7108.000000 0.000000 0.000000 0.000000
    18 3244.000000 -457.500000 7076.000000 0.000000 0.000000 0.000000
    19 3724.000000 -433.000000 7936.000000 0.000000 0.000000 0.000000
    20 3860.000000 -433.000000 8100.000000 0.000000 0.000000 0.000000
    21 3724.000000 -433.000000 8132.000000 0.000000 0.000000 0.000000
    22 3226.000000 -464.250000 7188.000000 0.000000 0.000000 0.000000
    23 3220.000000 -463.750000 7220.000000 0.000000 0.000000 0.000000
    24 3272.000000 -467.250000 7204.000000 0.000000 0.000000 0.000000
    25 3238.000000 -460.750000 7196.000000 0.000000 0.000000 0.000000
    26 3236.000000 -458.250000 7180.000000 0.000000 0.000000 0.000000
    27 3280.000000 -462.500000 7120.000000 0.000000 0.000000 0.000000
    28 3266.000000 -462.250000 7092.000000 0.000000 0.000000 0.000000
    29 3768.000000 -433.000000 8056.000000 0.000000 0.000000 0.000000
    30 3784.000000 -433.000000 8096.000000 0.000000 0.000000 0.000000
    31 3738.000000 -433.000000 8040.000000 0.000000 0.000000 0.000000
    32 3784.000000 -433.000000 8032.000000 0.000000 0.000000 0.000000
end
