// Created by Crowbar 0.74
version 1
nodes
  0 "AIRLINER_PRECRASH_EXPORT" -1
end
skeleton
  time 0
    0 -23584.000000 -6272.000000 6868.000000 1.984651 0.895283 0.253538
  time 1
    0 -23584.000000 -6328.000000 6864.000000 1.986320 0.897110 0.259111
  time 2
    0 -23584.000000 -6388.000000 6856.000000 1.987888 0.898956 0.264581
  time 3
    0 -23600.000000 -6448.000000 6852.000000 1.989637 0.900754 0.270227
  time 4
    0 -23600.000000 -6508.000000 6848.000000 1.991339 0.902667 0.275735
  time 5
    0 -23616.000000 -6564.000000 6844.000000 1.992945 0.904426 0.281369
  time 6
    0 -23616.000000 -6624.000000 6836.000000 1.994645 0.906264 0.287004
  time 7
    0 -23616.000000 -6684.000000 6832.000000 1.996360 0.908138 0.292697
  time 8
    0 -23632.000000 -6744.000000 6828.000000 1.998088 0.909851 0.298442
  time 9
    0 -23632.000000 -6800.000000 6820.000000 1.999744 0.911731 0.304070
  time 10
    0 -23632.000000 -6860.000000 6816.000000 2.001528 0.913463 0.309911
  time 11
    0 -23648.000000 -6920.000000 6812.000000 2.003185 0.915267 0.315670
  time 12
    0 -23648.000000 -6980.000000 6808.000000 2.004910 0.917006 0.321446
  time 13
    0 -23648.000000 -7040.000000 6800.000000 2.006508 0.918817 0.327140
  time 14
    0 -23664.000000 -7096.000000 6796.000000 2.008234 0.920480 0.333047
  time 15
    0 -23664.000000 -7156.000000 6792.000000 2.009893 0.922309 0.338841
  time 16
    0 -23664.000000 -7216.000000 6784.000000 2.011559 0.923979 0.344683
  time 17
    0 -23664.000000 -7276.000000 6780.000000 2.013244 0.925682 0.350586
  time 18
    0 -23680.000000 -7336.000000 6776.000000 2.015032 0.927463 0.356500
  time 19
    0 -23680.000000 -7392.000000 6768.000000 2.016782 0.929182 0.362508
  time 20
    0 -23680.000000 -7452.000000 6764.000000 2.018391 0.930782 0.368416
  time 21
    0 -23680.000000 -7512.000000 6756.000000 2.020082 0.932510 0.374361
  time 22
    0 -23696.000000 -7572.000000 6752.000000 2.021817 0.934221 0.380345
  time 23
    0 -23696.000000 -7632.000000 6748.000000 2.023514 0.935869 0.386425
  time 24
    0 -23696.000000 -7688.000000 6740.000000 2.025128 0.937494 0.392373
  time 25
    0 -23696.000000 -7748.000000 6736.000000 2.026975 0.939202 0.398509
  time 26
    0 -23712.000000 -7808.000000 6728.000000 2.028658 0.940842 0.404566
  time 27
    0 -23712.000000 -7868.000000 6724.000000 2.030368 0.942513 0.410693
  time 28
    0 -23712.000000 -7928.000000 6716.000000 2.031992 0.944163 0.416687
  time 29
    0 -23712.000000 -7984.000000 6712.000000 2.033726 0.945705 0.422923
  time 30
    0 -23712.000000 -8044.000000 6704.000000 2.035422 0.947368 0.429029
  time 31
    0 -23712.000000 -8104.000000 6700.000000 2.037097 0.948920 0.435201
  time 32
    0 -23728.000000 -8164.000000 6692.000000 2.038802 0.950501 0.441447
  time 33
    0 -23728.000000 -8224.000000 6688.000000 2.040485 0.952158 0.447532
  time 34
    0 -23728.000000 -8280.000000 6680.000000 2.042132 0.953750 0.453715
  time 35
    0 -23728.000000 -8336.000000 6676.000000 2.043973 0.955277 0.460088
  time 36
    0 -23728.000000 -8400.000000 6668.000000 2.045481 0.956834 0.466263
  time 37
    0 -23728.000000 -8456.000000 6664.000000 2.047263 0.958371 0.472574
  time 38
    0 -23728.000000 -8520.000000 6656.000000 2.048932 0.959986 0.478814
  time 39
    0 -23728.000000 -8576.000000 6652.000000 2.050725 0.961438 0.485267
  time 40
    0 -23728.000000 -8632.000000 6644.000000 2.052414 0.962921 0.491614
  time 41
    0 -23744.000000 -8696.000000 6640.000000 2.054062 0.964576 0.497872
  time 42
    0 -23744.000000 -8752.000000 6632.000000 2.055843 0.966021 0.504306
  time 43
    0 -23744.000000 -8816.000000 6624.000000 2.057512 0.967544 0.510672
  time 44
    0 -23744.000000 -8872.000000 6620.000000 2.059155 0.968953 0.517099
  time 45
    0 -23744.000000 -8928.000000 6612.000000 2.060766 0.970489 0.523403
  time 46
    0 -23744.000000 -8992.000000 6604.000000 2.062567 0.972000 0.529940
  time 47
    0 -23744.000000 -9048.000000 6600.000000 2.064197 0.973403 0.536349
  time 48
    0 -23744.000000 -9104.000000 6592.000000 2.065867 0.974833 0.542842
  time 49
    0 -23744.000000 -9168.000000 6588.000000 2.067659 0.976336 0.549364
  time 50
    0 -23744.000000 -9224.000000 6580.000000 2.069270 0.977824 0.555838
  time 51
    0 -23744.000000 -9288.000000 6572.000000 2.070929 0.979247 0.562315
  time 52
    0 -23744.000000 -9344.000000 6564.000000 2.072634 0.980695 0.568880
  time 53
    0 -23728.000000 -9400.000000 6560.000000 2.074309 0.981984 0.575461
  time 54
    0 -23728.000000 -9464.000000 6552.000000 2.075956 0.983447 0.581965
  time 55
    0 -23728.000000 -9520.000000 6544.000000 2.077802 0.984877 0.588712
  time 56
    0 -23728.000000 -9576.000000 6536.000000 2.079314 0.986260 0.595169
  time 57
    0 -23728.000000 -9640.000000 6532.000000 2.081024 0.987567 0.601823
  time 58
    0 -23728.000000 -9696.000000 6524.000000 2.082631 0.988954 0.608417
  time 59
    0 -23728.000000 -9760.000000 6516.000000 2.084285 0.990319 0.615057
  time 60
    0 -23728.000000 -9816.000000 6508.000000 2.085986 0.991664 0.621744
  time 61
    0 -23728.000000 -9872.000000 6500.000000 2.087735 0.992987 0.628476
  time 62
    0 -23712.000000 -9936.000000 6496.000000 2.089384 0.994390 0.635152
  time 63
    0 -23712.000000 -9992.000000 6488.000000 2.091076 0.995728 0.641826
  time 64
    0 -23712.000000 -10048.000000 6480.000000 2.092738 0.996994 0.648605
  time 65
    0 -23712.000000 -10112.000000 6472.000000 2.094380 0.998392 0.655270
  time 66
    0 -23712.000000 -10168.000000 6464.000000 2.095986 0.999674 0.661990
  time 67
    0 -23696.000000 -10224.000000 6456.000000 2.097639 1.000935 0.668757
  time 68
    0 -23696.000000 -10288.000000 6448.000000 2.099348 1.002215 0.675624
  time 69
    0 -23696.000000 -10344.000000 6440.000000 2.100944 1.003492 0.682332
  time 70
    0 -23680.000000 -10400.000000 6432.000000 2.102598 1.004789 0.689141
  time 71
    0 -23680.000000 -10456.000000 6424.000000 2.104299 1.006063 0.695998
  time 72
    0 -23680.000000 -10520.000000 6416.000000 2.105961 1.007221 0.702907
  time 73
    0 -23680.000000 -10576.000000 6408.000000 2.107607 1.008512 0.709707
  time 74
    0 -23664.000000 -10632.000000 6400.000000 2.109213 1.009687 0.716558
  time 75
    0 -23664.000000 -10696.000000 6392.000000 2.110816 1.011036 0.723357
  time 76
    0 -23664.000000 -10752.000000 6384.000000 2.112517 1.012165 0.730304
  time 77
    0 -23648.000000 -10808.000000 6376.000000 2.114127 1.013375 0.737203
  time 78
    0 -23648.000000 -10864.000000 6368.000000 2.115635 1.014627 0.743998
  time 79
    0 -23632.000000 -10928.000000 6360.000000 2.117341 1.015790 0.750993
  time 80
    0 -23632.000000 -10984.000000 6352.000000 2.118945 1.016995 0.757884
  time 81
    0 -23632.000000 -11040.000000 6344.000000 2.120521 1.018123 0.764886
  time 82
    0 -23616.000000 -11104.000000 6336.000000 2.122069 1.019347 0.771721
  time 83
    0 -23616.000000 -11160.000000 6328.000000 2.123835 1.020519 0.778820
  time 84
    0 -23600.000000 -11216.000000 6320.000000 2.125385 1.021602 0.785751
  time 85
    0 -23600.000000 -11272.000000 6308.000000 2.126851 1.022767 0.792641
  time 86
    0 -23584.000000 -11328.000000 6300.000000 2.128611 1.023934 0.799734
  time 87
    0 -23584.000000 -11392.000000 6292.000000 2.130173 1.025050 0.806722
  time 88
    0 -23568.000000 -11448.000000 6284.000000 2.131633 1.026211 0.813606
  time 89
    0 -23568.000000 -11504.000000 6276.000000 2.133290 1.027279 0.820691
  time 90
    0 -23552.000000 -11560.000000 6264.000000 2.134869 1.028428 0.827740
  time 91
    0 -23552.000000 -11624.000000 6256.000000 2.136373 1.029422 0.834766
  time 92
    0 -23536.000000 -11680.000000 6248.000000 2.137898 1.030592 0.841761
  time 93
    0 -23520.000000 -11736.000000 6240.000000 2.139595 1.031629 0.848889
  time 94
    0 -23520.000000 -11792.000000 6228.000000 2.141116 1.032654 0.855978
  time 95
    0 -23504.000000 -11848.000000 6220.000000 2.142536 1.033726 0.862963
  time 96
    0 -23504.000000 -11904.000000 6212.000000 2.144252 1.034794 0.870157
  time 97
    0 -23488.000000 -11968.000000 6200.000000 2.145766 1.035815 0.877241
  time 98
    0 -23472.000000 -12024.000000 6192.000000 2.147179 1.036883 0.884223
  time 99
    0 -23472.000000 -12080.000000 6184.000000 2.148817 1.037887 0.891478
  time 100
    0 -23456.000000 -12136.000000 6172.000000 2.150324 1.038903 0.898558
  time 101
    0 -23440.000000 -12192.000000 6164.000000 2.151731 1.039968 0.905537
  time 102
    0 -23440.000000 -12248.000000 6156.000000 2.153363 1.040966 0.912790
  time 103
    0 -23424.000000 -12304.000000 6144.000000 2.154759 1.041885 0.919857
  time 104
    0 -23408.000000 -12368.000000 6136.000000 2.156338 1.042905 0.927059
  time 105
    0 -23392.000000 -12424.000000 6124.000000 2.157712 1.043880 0.934150
  time 106
    0 -23392.000000 -12480.000000 6116.000000 2.159386 1.044845 0.941452
  time 107
    0 -23376.000000 -12536.000000 6104.000000 2.160708 1.045843 0.948492
  time 108
    0 -23360.000000 -12592.000000 6096.000000 2.162221 1.046738 0.955731
  time 109
    0 -23344.000000 -12648.000000 6084.000000 2.163635 1.047682 0.962869
  time 110
    0 -23344.000000 -12704.000000 6076.000000 2.165205 1.048692 0.970071
  time 111
    0 -23328.000000 -12760.000000 6064.000000 2.166675 1.049550 0.977227
  time 112
    0 -23312.000000 -12816.000000 6056.000000 2.167971 1.050397 0.984350
  time 113
    0 -23296.000000 -12872.000000 6044.000000 2.169463 1.051341 0.991618
  time 114
    0 -23280.000000 -12928.000000 6036.000000 2.170818 1.052305 0.998706
  time 115
    0 -23264.000000 -12992.000000 6024.000000 2.172362 1.053162 1.005991
  time 116
    0 -23248.000000 -13048.000000 6016.000000 2.173736 1.054007 1.013245
  time 117
    0 -23232.000000 -13104.000000 6004.000000 2.175086 1.054969 1.020333
  time 118
    0 -23232.000000 -13160.000000 5992.000000 2.176550 1.055757 1.027685
  time 119
    0 -23216.000000 -13216.000000 5984.000000 2.178033 1.056691 1.034958
  time 120
    0 -23200.000000 -13272.000000 5972.000000 2.179261 1.057556 1.042030
  time 121
    0 -23184.000000 -13328.000000 5964.000000 2.180719 1.058339 1.049383
  time 122
    0 -23168.000000 -13384.000000 5952.000000 2.182081 1.059175 1.056640
  time 123
    0 -23152.000000 -13440.000000 5940.000000 2.183442 1.059955 1.063857
  time 124
    0 -23136.000000 -13496.000000 5928.000000 2.184752 1.060816 1.071066
  time 125
    0 -23120.000000 -13552.000000 5920.000000 2.186107 1.061647 1.078325
  time 126
    0 -23104.000000 -13608.000000 5908.000000 2.187507 1.062450 1.085633
  time 127
    0 -23088.000000 -13664.000000 5896.000000 2.188812 1.063307 1.092847
  time 128
    0 -23072.000000 -13712.000000 5888.000000 2.190162 1.064135 1.100109
  time 129
    0 -23056.000000 -13768.000000 5876.000000 2.191435 1.064839 1.107398
  time 130
    0 -23024.000000 -13824.000000 5864.000000 2.192872 1.065607 1.114759
  time 131
    0 -23008.000000 -13880.000000 5852.000000 2.194166 1.066405 1.121931
  time 132
    0 -22992.000000 -13936.000000 5840.000000 2.195430 1.067105 1.129222
  time 133
    0 -22976.000000 -13992.000000 5832.000000 2.196600 1.067860 1.136419
  time 134
    0 -22960.000000 -14048.000000 5820.000000 2.197938 1.068680 1.143690
  time 135
    0 -22944.000000 -14104.000000 5808.000000 2.199194 1.069376 1.150984
  time 136
    0 -22928.000000 -14160.000000 5796.000000 2.200358 1.070128 1.158186
  time 137
    0 -22912.000000 -14216.000000 5784.000000 2.201698 1.070762 1.165576
  time 138
    0 -22880.000000 -14272.000000 5772.000000 2.202812 1.071541 1.172734
  time 139
    0 -22864.000000 -14320.000000 5764.000000 2.204102 1.072202 1.180080
  time 140
    0 -22848.000000 -14376.000000 5752.000000 2.205301 1.072920 1.187335
  time 141
    0 -22832.000000 -14432.000000 5740.000000 2.206541 1.073607 1.194638
  time 142
    0 -22816.000000 -14488.000000 5728.000000 2.207823 1.074262 1.201989
  time 143
    0 -22784.000000 -14544.000000 5716.000000 2.209014 1.074976 1.209249
  time 144
    0 -22768.000000 -14600.000000 5704.000000 2.210247 1.075659 1.216558
  time 145
    0 -22752.000000 -14656.000000 5692.000000 2.211260 1.076306 1.223747
  time 146
    0 -22720.000000 -14704.000000 5680.000000 2.212574 1.076925 1.231152
  time 147
    0 -22704.000000 -14760.000000 5668.000000 2.213539 1.077600 1.238300
  time 148
    0 -22688.000000 -14816.000000 5656.000000 2.214804 1.078246 1.245663
  time 149
    0 -22656.000000 -14872.000000 5644.000000 2.215849 1.078857 1.252906
  time 150
    0 -22640.000000 -14920.000000 5632.000000 2.217067 1.079531 1.260229
  time 151
    0 -22624.000000 -14976.000000 5620.000000 2.218130 1.080060 1.267461
  time 152
    0 -22592.000000 -15032.000000 5608.000000 2.219166 1.080667 1.274711
  time 153
    0 -22576.000000 -15088.000000 5596.000000 2.220179 1.081225 1.281901
  time 154
    0 -22560.000000 -15136.000000 5584.000000 2.221229 1.081751 1.289136
  time 155
    0 -22528.000000 -15192.000000 5572.000000 2.222192 1.082338 1.296285
  time 156
    0 -22512.000000 -15248.000000 5556.000000 2.222993 1.082781 1.303335
  time 157
    0 -22480.000000 -15304.000000 5544.000000 2.223828 1.083193 1.310429
  time 158
    0 -22464.000000 -15352.000000 5532.000000 2.224575 1.083667 1.317435
  time 159
    0 -22432.000000 -15408.000000 5520.000000 2.225480 1.084014 1.324616
  time 160
    0 -22416.000000 -15464.000000 5508.000000 2.226111 1.084506 1.331470
  time 161
    0 -22384.000000 -15512.000000 5496.000000 2.226962 1.084883 1.338608
  time 162
    0 -22368.000000 -15568.000000 5484.000000 2.227520 1.085215 1.345510
  time 163
    0 -22336.000000 -15624.000000 5468.000000 2.228045 1.085501 1.352342
  time 164
    0 -22320.000000 -15672.000000 5456.000000 2.228809 1.085864 1.359366
  time 165
    0 -22288.000000 -15728.000000 5444.000000 2.229278 1.086184 1.366154
  time 166
    0 -22272.000000 -15776.000000 5432.000000 2.229637 1.086374 1.372944
  time 167
    0 -22240.000000 -15832.000000 5416.000000 2.230168 1.086629 1.379813
  time 168
    0 -22224.000000 -15888.000000 5404.000000 2.230661 1.086840 1.386608
  time 169
    0 -22192.000000 -15936.000000 5392.000000 2.230924 1.087021 1.393278
  time 170
    0 -22160.000000 -15992.000000 5380.000000 2.231215 1.087169 1.399988
  time 171
    0 -22144.000000 -16040.000000 5364.000000 2.231536 1.087285 1.406737
  time 172
    0 -22112.000000 -16096.000000 5352.000000 2.231700 1.087458 1.413285
  time 173
    0 -22080.000000 -16144.000000 5340.000000 2.232006 1.087499 1.419995
  time 174
    0 -22064.000000 -16192.000000 5324.000000 2.232226 1.087607 1.426620
  time 175
    0 -22032.000000 -16248.000000 5312.000000 2.232143 1.087676 1.433004
  time 176
    0 -22000.000000 -16296.000000 5300.000000 2.232416 1.087720 1.439705
  time 177
    0 -21984.000000 -16352.000000 5284.000000 2.232386 1.087725 1.446164
  time 178
    0 -21952.000000 -16400.000000 5272.000000 2.232311 1.087689 1.452542
  time 179
    0 -21920.000000 -16448.000000 5256.000000 2.232221 1.087730 1.458955
  time 180
    0 -21888.000000 -16496.000000 5244.000000 2.232194 1.087630 1.465407
  time 181
    0 -21856.000000 -16544.000000 5228.000000 2.232082 1.087599 1.471775
  time 182
    0 -21840.000000 -16592.000000 5216.000000 2.231922 1.087530 1.478059
  time 183
    0 -21808.000000 -16656.000000 5204.000000 2.231637 1.087328 1.484339
  time 184
    0 -21776.000000 -16704.000000 5188.000000 2.231267 1.087195 1.490536
  time 185
    0 -21744.000000 -16752.000000 5176.000000 2.231068 1.087131 1.496810
  time 186
    0 -21712.000000 -16800.000000 5160.000000 2.230744 1.086933 1.503079
  time 187
    0 -21680.000000 -16848.000000 5144.000000 2.230368 1.086698 1.509262
  time 188
    0 -21648.000000 -16896.000000 5132.000000 2.229939 1.086426 1.515358
  time 189
    0 -21632.000000 -16944.000000 5116.000000 2.229500 1.086228 1.521495
  time 190
    0 -21600.000000 -16992.000000 5104.000000 2.229009 1.085995 1.527545
  time 191
    0 -21568.000000 -17040.000000 5088.000000 2.228388 1.085625 1.533588
  time 192
    0 -21536.000000 -17088.000000 5076.000000 2.227937 1.085325 1.539707
  time 193
    0 -21504.000000 -17136.000000 5060.000000 2.227179 1.084992 1.545583
  time 194
    0 -21472.000000 -17184.000000 5044.000000 2.226591 1.084729 1.551533
  time 195
    0 -21440.000000 -17232.000000 5032.000000 2.225872 1.084329 1.557477
  time 196
    0 -21408.000000 -17280.000000 5016.000000 2.225097 1.083894 1.563331
  time 197
    0 -21376.000000 -17328.000000 5000.000000 2.224414 1.083426 1.569344
  time 198
    0 -21328.000000 -17376.000000 4988.000000 2.223501 1.083030 -4.708156
  time 199
    0 -21296.000000 -17424.000000 4972.000000 2.222681 1.082600 -4.702312
  time 200
    0 -21264.000000 -17472.000000 4956.000000 2.221803 1.082137 -4.696559
  time 201
    0 -21232.000000 -17520.000000 4940.000000 2.220791 1.081534 -4.690811
  time 202
    0 -21200.000000 -17568.000000 4928.000000 2.219948 1.081003 -4.684991
  time 203
    0 -21168.000000 -17600.000000 4912.000000 2.218949 1.080547 -4.679373
  time 204
    0 -21136.000000 -17648.000000 4896.000000 2.217816 1.079949 -4.673760
  time 205
    0 -21088.000000 -17696.000000 4880.000000 2.216850 1.079425 -4.668075
  time 206
    0 -21056.000000 -17744.000000 4864.000000 2.215673 1.078761 -4.662521
  time 207
    0 -21024.000000 -17792.000000 4848.000000 2.214512 1.078062 -4.656933
  time 208
    0 -20992.000000 -17824.000000 4836.000000 2.213272 1.077436 -4.651419
  time 209
    0 -20944.000000 -17872.000000 4820.000000 2.212065 1.076671 -4.645892
  time 210
    0 -20912.000000 -17920.000000 4804.000000 2.210932 1.076090 -4.640402
  time 211
    0 -20880.000000 -17968.000000 4788.000000 2.209662 1.075363 -4.634915
  time 212
    0 -20848.000000 -18000.000000 4772.000000 2.208407 1.074601 -4.629395
  time 213
    0 -20800.000000 -18048.000000 4756.000000 2.206847 1.073807 -4.624109
  time 214
    0 -20768.000000 -18096.000000 4740.000000 2.205543 1.072979 -4.618649
  time 215
    0 -20720.000000 -18128.000000 4724.000000 2.204088 1.072232 -4.613389
  time 216
    0 -20688.000000 -18176.000000 4708.000000 2.202723 1.071442 -4.607968
  time 217
    0 -20656.000000 -18224.000000 4692.000000 2.201068 1.070517 -4.602802
  time 218
    0 -20608.000000 -18256.000000 4676.000000 2.199653 1.069661 -4.597441
  time 219
    0 -20576.000000 -18304.000000 4660.000000 2.198176 1.068777 -4.592176
  time 220
    0 -20528.000000 -18336.000000 4644.000000 2.196473 1.067853 -4.587012
  time 221
    0 -20496.000000 -18384.000000 4628.000000 2.195021 1.066895 -4.581679
  time 222
    0 -20448.000000 -18416.000000 4612.000000 2.193267 1.065906 -4.576575
  time 223
    0 -20416.000000 -18464.000000 4596.000000 2.191679 1.064995 -4.571407
  time 224
    0 -20368.000000 -18496.000000 4580.000000 2.189875 1.063941 -4.566362
  time 225
    0 -20336.000000 -18544.000000 4560.000000 2.188310 1.062955 -4.561127
  time 226
    0 -20288.000000 -18576.000000 4544.000000 2.186529 1.061824 -4.556013
  time 227
    0 -20240.000000 -18624.000000 4528.000000 2.184602 1.060780 -4.551097
  time 228
    0 -20208.000000 -18656.000000 4512.000000 2.182913 1.059806 -4.545989
  time 229
    0 -20160.000000 -18688.000000 4496.000000 2.181092 1.058569 -4.540901
  time 230
    0 -20112.000000 -18736.000000 4476.000000 2.179125 1.057421 -4.536009
  time 231
    0 -20080.000000 -18768.000000 4460.000000 2.177319 1.056356 -4.531057
  time 232
    0 -20032.000000 -18800.000000 4444.000000 2.175374 1.055130 -4.526094
  time 233
    0 -19984.000000 -18848.000000 4428.000000 2.173440 1.053863 -4.521096
  time 234
    0 -19936.000000 -18880.000000 4408.000000 2.171361 1.052687 -4.516291
  time 235
    0 -19904.000000 -18912.000000 4392.000000 2.169523 1.051479 -4.511330
  time 236
    0 -19856.000000 -18944.000000 4376.000000 2.167545 1.050104 -4.506354
  time 237
    0 -19808.000000 -18992.000000 4356.000000 2.165424 1.048822 -4.501572
  time 238
    0 -19760.000000 -19024.000000 4340.000000 2.163313 1.047498 -4.496752
  time 239
    0 -19712.000000 -19056.000000 4324.000000 2.161139 1.046150 -4.492027
  time 240
    0 -19680.000000 -19088.000000 4304.000000 2.159197 1.044872 -4.487117
  time 241
    0 -19632.000000 -19120.000000 4288.000000 2.157042 1.043440 -4.482318
  time 242
    0 -19584.000000 -19152.000000 4268.000000 2.154823 1.041983 -4.477612
  time 243
    0 -19536.000000 -19184.000000 4252.000000 2.152762 1.040615 -4.472854
  time 244
    0 -19488.000000 -19216.000000 4236.000000 2.150561 1.039073 -4.468073
  time 245
    0 -19440.000000 -19248.000000 4216.000000 2.148294 1.037607 -4.463352
  time 246
    0 -19392.000000 -19280.000000 4200.000000 2.146186 1.036130 -4.458614
  time 247
    0 -19344.000000 -19312.000000 4180.000000 2.143865 1.034597 -4.453948
  time 248
    0 -19296.000000 -19344.000000 4164.000000 2.141480 1.033039 -4.449373
  time 249
    0 -19248.000000 -19376.000000 4144.000000 2.139252 1.031575 -4.444751
  time 250
    0 -19200.000000 -19408.000000 4128.000000 2.136956 1.029905 -4.439966
  time 251
    0 -19152.000000 -19440.000000 4108.000000 2.134668 1.028290 -4.435106
  time 252
    0 -19104.000000 -19472.000000 4092.000000 2.132240 1.026586 -4.430174
  time 253
    0 -19056.000000 -19488.000000 4074.000000 2.129967 1.025073 -4.425160
  time 254
    0 -19008.000000 -19520.000000 4056.000000 2.127481 1.023199 -4.419975
  time 255
    0 -18960.000000 -19552.000000 4036.000000 2.125220 1.021488 -4.414572
  time 256
    0 -18912.000000 -19584.000000 4018.000000 2.122681 1.019826 -4.409317
  time 257
    0 -18864.000000 -19600.000000 4000.000000 2.120292 1.018053 -4.403746
  time 258
    0 -18816.000000 -19632.000000 3982.000000 2.117841 1.016344 -4.398219
  time 259
    0 -18768.000000 -19664.000000 3964.000000 2.115538 1.014517 -4.392373
  time 260
    0 -18704.000000 -19680.000000 3946.000000 2.112961 1.012729 -4.386662
  time 261
    0 -18656.000000 -19712.000000 3926.000000 2.110531 1.010813 -4.380626
  time 262
    0 -18608.000000 -19728.000000 3908.000000 2.108042 1.008954 -4.374628
  time 263
    0 -18560.000000 -19760.000000 3890.000000 2.105628 1.006989 -4.368435
  time 264
    0 -18512.000000 -19776.000000 3872.000000 2.102944 1.005053 -4.362364
  time 265
    0 -18464.000000 -19808.000000 3852.000000 2.100550 1.003130 -4.355969
  time 266
    0 -18400.000000 -19824.000000 3834.000000 2.097951 1.001097 -4.349594
  time 267
    0 -18352.000000 -19856.000000 3816.000000 2.095508 0.999239 -4.343124
  time 268
    0 -18304.000000 -19872.000000 3796.000000 2.092863 0.997265 -4.336669
  time 269
    0 -18256.000000 -19888.000000 3778.000000 2.090290 0.995166 -4.330006
  time 270
    0 -18192.000000 -19920.000000 3760.000000 2.087727 0.993070 -4.323229
  time 271
    0 -18144.000000 -19936.000000 3740.000000 2.085107 0.991014 -4.316473
  time 272
    0 -18096.000000 -19952.000000 3722.000000 2.082490 0.988857 -4.309640
  time 273
    0 -18048.000000 -19968.000000 3702.000000 2.079883 0.986697 -4.302687
  time 274
    0 -17984.000000 -20000.000000 3684.000000 2.077430 0.984704 -4.295637
  time 275
    0 -17936.000000 -20016.000000 3666.000000 2.074833 0.982428 -4.288480
  time 276
    0 -17888.000000 -20032.000000 3646.000000 2.072180 0.980180 -4.281335
  time 277
    0 -17824.000000 -20048.000000 3628.000000 2.069470 0.977958 -4.274199
  time 278
    0 -17776.000000 -20064.000000 3608.000000 2.066824 0.975573 -4.266835
  time 279
    0 -17728.000000 -20080.000000 3590.000000 2.064268 0.973393 -4.259510
  time 280
    0 -17664.000000 -20096.000000 3570.000000 2.061508 0.971049 -4.252155
  time 281
    0 -17616.000000 -20112.000000 3552.000000 2.058894 0.968766 -4.244742
  time 282
    0 -17568.000000 -20128.000000 3532.000000 2.056224 0.966502 -4.237330
  time 283
    0 -17504.000000 -20144.000000 3514.000000 2.053610 0.964053 -4.229680
  time 284
    0 -17456.000000 -20160.000000 3494.000000 2.050879 0.961668 -4.222168
  time 285
    0 -17392.000000 -20160.000000 3476.000000 2.048301 0.959442 -4.214555
  time 286
    0 -17344.000000 -20176.000000 3456.000000 2.045507 0.956926 -4.206936
  time 287
    0 -17296.000000 -20192.000000 3438.000000 2.042913 0.954410 -4.199113
  time 288
    0 -17232.000000 -20208.000000 3418.000000 2.040202 0.951956 -4.191426
  time 289
    0 -17184.000000 -20208.000000 3400.000000 2.037492 0.949445 -4.183583
  time 290
    0 -17120.000000 -20224.000000 3380.000000 2.034909 0.946894 -4.175728
  time 291
    0 -17072.000000 -20224.000000 3362.000000 2.032071 0.944281 -4.167901
  time 292
    0 -17024.000000 -20240.000000 3342.000000 2.029414 0.941560 -4.159914
  time 293
    0 -16960.000000 -20256.000000 3324.000000 2.026753 0.939292 -4.152223
  time 294
    0 -16912.000000 -20256.000000 3304.000000 2.019597 0.937713 -4.148596
  time 295
    0 -16848.000000 -20272.000000 3286.000000 2.012135 0.935938 -4.145197
  time 296
    0 -16800.000000 -20272.000000 3266.000000 2.004718 0.934275 -4.142066
  time 297
    0 -16736.000000 -20272.000000 3246.000000 1.997111 0.932270 -4.138853
  time 298
    0 -16688.000000 -20288.000000 3228.000000 1.989443 0.929965 -4.135716
  time 299
    0 -16624.000000 -20288.000000 3208.000000 1.981642 0.927797 -4.132827
  time 300
    0 -16576.000000 -20288.000000 3190.000000 1.973839 0.925250 -4.129852
  time 301
    0 -16512.000000 -20304.000000 3170.000000 1.965749 0.922479 -4.127061
  time 302
    0 -16464.000000 -20304.000000 3152.000000 1.957765 0.919759 -4.124386
  time 303
    0 -16416.000000 -20304.000000 3132.000000 1.949598 0.916545 -4.121602
  time 304
    0 -16360.000000 -20304.000000 3114.000000 1.941540 0.913383 -4.118930
  time 305
    0 -16304.000000 -20304.000000 3094.000000 1.933448 0.909993 -4.116250
  time 306
    0 -16248.000000 -20304.000000 3076.000000 1.925280 0.906556 -4.113680
  time 307
    0 -16192.000000 -20304.000000 3056.000000 1.917028 0.902974 -4.111257
  time 308
    0 -16136.000000 -20304.000000 3038.000000 1.908847 0.898865 -4.108502
  time 309
    0 -16080.000000 -20304.000000 3018.000000 1.900681 0.895110 -4.106171
  time 310
    0 -16024.000000 -20304.000000 3000.000000 1.892406 0.890682 -4.103457
  time 311
    0 -15968.000000 -20304.000000 2980.000000 1.884374 0.886558 -4.101074
  time 312
    0 -15912.000000 -20304.000000 2962.000000 1.876139 0.882038 -4.098598
  time 313
    0 -15856.000000 -20304.000000 2942.000000 1.868071 0.877492 -4.096067
  time 314
    0 -15800.000000 -20288.000000 2924.000000 1.859979 0.872569 -4.093495
  time 315
    0 -15744.000000 -20288.000000 2904.000000 1.852006 0.867837 -4.091026
  time 316
    0 -15688.000000 -20288.000000 2886.000000 1.844011 0.862718 -4.088503
  time 317
    0 -15632.000000 -20272.000000 2868.000000 1.836180 0.857582 -4.085930
  time 318
    0 -15576.000000 -20272.000000 2848.000000 1.828461 0.852565 -4.083519
  time 319
    0 -15520.000000 -20272.000000 2830.000000 1.820599 0.846815 -4.080728
  time 320
    0 -15464.000000 -20256.000000 2812.000000 1.812976 0.841627 -4.078385
  time 321
    0 -15408.000000 -20256.000000 2792.000000 1.805386 0.835989 -4.075715
  time 322
    0 -15344.000000 -20240.000000 2774.000000 1.797905 0.830393 -4.073258
  time 323
    0 -15288.000000 -20240.000000 2756.000000 1.790456 0.824305 -4.070433
  time 324
    0 -15232.000000 -20224.000000 2738.000000 1.783118 0.818487 -4.067787
  time 325
    0 -15176.000000 -20224.000000 2718.000000 1.775932 0.812463 -4.065166
  time 326
    0 -15120.000000 -20208.000000 2700.000000 1.768853 0.806771 -4.062783
  time 327
    0 -15064.000000 -20208.000000 2682.000000 1.761847 0.800225 -4.059738
  time 328
    0 -15008.000000 -20192.000000 2664.000000 1.754903 0.794213 -4.057201
  time 329
    0 -14952.000000 -20176.000000 2646.000000 1.748107 0.788154 -4.054716
  time 330
    0 -14896.000000 -20176.000000 2628.000000 1.741377 0.781110 -4.051447
  time 331
    0 -14840.000000 -20160.000000 2610.000000 1.734834 0.775467 -4.049378
  time 332
    0 -14784.000000 -20144.000000 2592.000000 1.728351 0.768804 -4.046495
  time 333
    0 -14728.000000 -20128.000000 2574.000000 1.722012 0.762239 -4.043682
  time 334
    0 -14672.000000 -20128.000000 2556.000000 1.715645 0.755158 -4.040560
  time 335
    0 -14616.000000 -20112.000000 2538.000000 1.709589 0.748720 -4.037946
  time 336
    0 -14568.000000 -20096.000000 2520.000000 1.703503 0.741751 -4.035009
  time 337
    0 -14512.000000 -20080.000000 2502.000000 1.697587 0.734570 -4.031785
  time 338
    0 -14456.000000 -20064.000000 2484.000000 1.691779 0.728016 -4.029201
  time 339
    0 -14400.000000 -20048.000000 2466.000000 1.686092 0.722341 -4.027489
  time 340
    0 -14344.000000 -20032.000000 2448.000000 1.680604 0.716030 -4.025143
  time 341
    0 -14288.000000 -20016.000000 2432.000000 1.675092 0.708374 -4.021654
  time 342
    0 -14232.000000 -20000.000000 2414.000000 1.669706 0.701807 -4.019233
  time 343
    0 -14176.000000 -19984.000000 2396.000000 1.664488 0.695240 -4.016727
  time 344
    0 -14120.000000 -19968.000000 2380.000000 1.659456 0.690962 -4.016391
  time 345
    0 -14064.000000 -19952.000000 2362.000000 1.654312 0.681696 -4.011538
  time 346
    0 -14008.000000 -19936.000000 2346.000000 1.649748 0.680915 -4.014442
  time 347
    0 -13952.000000 -19920.000000 2328.000000 1.645173 0.679698 -4.016948
  time 348
    0 -13904.000000 -19904.000000 2312.000000 1.639569 0.655701 -3.998731
  time 349
    0 -13848.000000 -19872.000000 2294.000000 1.634717 0.645168 -3.992835
  time 350
    0 -13792.000000 -19856.000000 2278.000000 1.630466 0.642194 -3.993842
  time 351
    0 -13736.000000 -19840.000000 2262.000000 1.625999 0.634898 -3.990900
  time 352
    0 -13680.000000 -19824.000000 2246.000000 1.621804 0.630518 -3.990736
  time 353
    0 -13624.000000 -19792.000000 2228.000000 1.617524 0.621952 -3.986693
  time 354
    0 -13576.000000 -19776.000000 2212.000000 1.613525 0.617733 -3.986701
  time 355
    0 -13520.000000 -19760.000000 2196.000000 1.609384 0.609510 -3.982962
  time 356
    0 -13464.000000 -19744.000000 2180.000000 1.605527 0.603634 -3.981411
  time 357
    0 -13408.000000 -19712.000000 2164.000000 1.601646 0.597776 -3.979935
  time 358
    0 -13360.000000 -19696.000000 2148.000000 1.597930 0.590640 -3.977079
  time 359
    0 -13304.000000 -19680.000000 2132.000000 1.594309 0.585436 -3.976157
  time 360
    0 -13248.000000 -19648.000000 2116.000000 1.590695 0.578187 -3.973202
  time 361
    0 -13192.000000 -19632.000000 2102.000000 1.587227 0.572985 -3.972207
  time 362
    0 -13144.000000 -19600.000000 2086.000000 1.583842 0.566328 -3.969645
  time 363
    0 -13088.000000 -19584.000000 2070.000000 1.580586 0.561416 -3.968769
  time 364
    0 -13040.000000 -19552.000000 2056.000000 1.577205 0.554198 -3.965667
  time 365
    0 -12984.000000 -19536.000000 2041.000000 1.574070 0.549194 -3.964530
  time 366
    0 -12928.000000 -19520.000000 2026.000000 1.571042 0.543852 -3.963035
  time 367
    0 -12880.000000 -19488.000000 2011.000000 1.567961 0.537623 -3.960609
  time 368
    0 -12824.000000 -19472.000000 1996.000000 1.565047 0.532213 -3.958880
  time 369
    0 -12776.000000 -19440.000000 1982.000000 1.562137 0.526990 -3.957199
  time 370
    0 -12720.000000 -19408.000000 1967.000000 1.559311 0.521480 -3.955098
  time 371
    0 -12672.000000 -19392.000000 1953.000000 1.556642 0.516649 -3.953570
  time 372
    0 -12616.000000 -19360.000000 1939.000000 1.553971 0.511957 -3.952047
  time 373
    0 -12568.000000 -19344.000000 1925.000000 1.551248 0.506522 -3.949728
  time 374
    0 -12512.000000 -19312.000000 1911.000000 1.548786 0.502137 -3.948175
  time 375
    0 -12464.000000 -19296.000000 1897.000000 1.546263 0.497651 -3.946483
  time 376
    0 -12408.000000 -19264.000000 1883.000000 1.543797 0.492894 -3.944280
  time 377
    0 -12360.000000 -19232.000000 1870.000000 1.541390 0.489051 -3.942900
  time 378
    0 -12312.000000 -19216.000000 1857.000000 1.539112 0.485120 -3.941218
  time 379
    0 -12256.000000 -19184.000000 1843.000000 1.536834 0.480729 -3.938925
  time 380
    0 -12208.000000 -19152.000000 1830.000000 1.534589 0.477184 -3.937284
  time 381
    0 -12160.000000 -19136.000000 1817.000000 1.532397 0.473376 -3.935142
  time 382
    0 -12112.000000 -19104.000000 1804.000000 1.530244 0.469845 -3.933063
  time 383
    0 -12056.000000 -19072.000000 1792.000000 1.528205 0.466751 -3.931233
  time 384
    0 -12008.000000 -19040.000000 1779.000000 1.526151 0.463728 -3.929350
  time 385
    0 -11960.000000 -19024.000000 1766.000000 1.524199 0.460633 -3.927070
  time 386
    0 -11912.000000 -18992.000000 1754.000000 1.522304 0.457774 -3.924930
  time 387
    0 -11864.000000 -18960.000000 1742.000000 1.520445 0.455154 -3.922821
  time 388
    0 -11808.000000 -18928.000000 1730.000000 1.518550 0.452615 -3.920556
  time 389
    0 -11760.000000 -18912.000000 1718.000000 1.516710 0.450293 -3.918414
  time 390
    0 -11712.000000 -18880.000000 1706.000000 1.514969 0.447904 -3.915883
  time 391
    0 -11664.000000 -18848.000000 1694.000000 1.513212 0.445584 -3.913300
  time 392
    0 -11616.000000 -18816.000000 1682.000000 1.511490 0.443492 -3.910738
  time 393
    0 -11568.000000 -18784.000000 1671.000000 1.509802 0.441622 -3.908192
  time 394
    0 -11520.000000 -18752.000000 1659.000000 1.508148 0.439971 -3.905659
  time 395
    0 -11472.000000 -18720.000000 1648.000000 1.506478 0.438381 -3.903068
  time 396
    0 -11424.000000 -18688.000000 1637.000000 1.504906 0.436739 -3.900103
  time 397
    0 -11376.000000 -18656.000000 1625.000000 1.503305 0.435579 -3.897531
  time 398
    0 -11328.000000 -18624.000000 1614.000000 1.501752 0.434217 -3.894522
  time 399
    0 -11280.000000 -18592.000000 1603.000000 1.500234 0.433071 -3.891523
  time 400
    0 -11232.000000 -18560.000000 1593.000000 1.498701 0.431991 -3.888471
  time 401
    0 -11184.000000 -18528.000000 1582.000000 1.497254 0.431269 -3.885488
  time 402
    0 -11136.000000 -18496.000000 1571.000000 1.495737 0.430103 -3.881878
  time 403
    0 -11088.000000 -18464.000000 1561.000000 1.494244 0.429543 -3.878703
  time 404
    0 -11040.000000 -18432.000000 1550.000000 1.492751 0.428670 -3.875060
  time 405
    0 -10992.000000 -18400.000000 1540.000000 1.491334 0.428533 -3.871901
  time 406
    0 -10944.000000 -18368.000000 1530.000000 1.489919 0.428090 -3.868280
  time 407
    0 -10896.000000 -18336.000000 1519.000000 1.488475 0.427754 -3.864531
  time 408
    0 -10848.000000 -18304.000000 1509.000000 1.487021 0.427497 -3.860740
  time 409
    0 -10800.000000 -18272.000000 1499.000000 1.485608 0.427458 -3.856962
  time 410
    0 -10752.000000 -18224.000000 1489.000000 1.484170 0.427532 -3.853062
  time 411
    0 -10712.000000 -18192.000000 1479.000000 1.482789 0.427471 -3.848785
  time 412
    0 -10664.000000 -18160.000000 1470.000000 1.481402 0.427499 -3.844476
  time 413
    0 -10616.000000 -18128.000000 1460.000000 1.480047 0.428098 -3.840570
  time 414
    0 -10568.000000 -18080.000000 1450.000000 1.478618 0.428381 -3.836038
  time 415
    0 -10520.000000 -18048.000000 1441.000000 1.477253 0.428853 -3.831608
  time 416
    0 -10472.000000 -18016.000000 1431.000000 1.475886 0.429122 -3.826699
  time 417
    0 -10424.000000 -17968.000000 1422.000000 1.474555 0.429960 -3.822189
  time 418
    0 -10384.000000 -17936.000000 1412.000000 1.473157 0.430807 -3.817532
  time 419
    0 -10336.000000 -17888.000000 1403.000000 1.471814 0.431600 -3.812460
  time 420
    0 -10288.000000 -17856.000000 1394.000000 1.470395 0.432183 -3.806747
  time 421
    0 -10240.000000 -17808.000000 1385.000000 1.468969 0.432934 -3.800960
  time 422
    0 -10192.000000 -17776.000000 1376.000000 1.467644 0.434112 -3.795193
  time 423
    0 -10144.000000 -17728.000000 1367.000000 1.466255 0.435118 -3.788819
  time 424
    0 -10104.000000 -17696.000000 1358.000000 1.464880 0.436266 -3.782459
  time 425
    0 -10056.000000 -17648.000000 1349.000000 1.463449 0.437273 -3.775521
  time 426
    0 -10008.000000 -17616.000000 1340.000000 1.462091 0.438559 -3.768650
  time 427
    0 -9960.000000 -17568.000000 1331.000000 1.460626 0.439858 -3.761589
  time 428
    0 -9912.000000 -17536.000000 1322.000000 1.459255 0.441144 -3.754265
  time 429
    0 -9872.000000 -17488.000000 1314.000000 1.457847 0.442529 -3.746870
  time 430
    0 -9824.000000 -17440.000000 1305.000000 1.456458 0.444137 -3.739447
  time 431
    0 -9776.000000 -17392.000000 1297.000000 1.454998 0.445448 -3.731599
  time 432
    0 -9728.000000 -17360.000000 1288.000000 1.453556 0.447219 -3.724117
  time 433
    0 -9680.000000 -17312.000000 1280.000000 1.452108 0.448768 -3.716319
  time 434
    0 -9640.000000 -17264.000000 1271.000000 1.450642 0.450380 -3.708530
  time 435
    0 -9592.000000 -17216.000000 1263.000000 1.449212 0.452170 -3.700784
  time 436
    0 -9544.000000 -17168.000000 1254.000000 1.447725 0.453640 -3.692704
  time 437
    0 -9496.000000 -17136.000000 1246.000000 1.446204 0.455446 -3.684942
  time 438
    0 -9448.000000 -17088.000000 1238.000000 1.444729 0.457369 -3.677280
  time 439
    0 -9408.000000 -17040.000000 1230.000000 1.443198 0.458983 -3.669294
  time 440
    0 -9360.000000 -16992.000000 1221.000000 1.441700 0.460908 -3.661760
  time 441
    0 -9312.000000 -16944.000000 1213.000000 1.439988 0.462944 -3.654320
  time 442
    0 -9264.000000 -16896.000000 1205.000000 1.438194 0.465133 -3.646694
  time 443
    0 -9216.000000 -16848.000000 1197.000000 1.436114 0.467652 -3.639375
  time 444
    0 -9168.000000 -16800.000000 1189.000000 1.433884 0.470475 -3.632138
  time 445
    0 -9128.000000 -16736.000000 1181.000000 1.431448 0.473498 -3.624957
  time 446
    0 -9080.000000 -16688.000000 1173.000000 1.428911 0.477048 -3.618281
  time 447
    0 -9032.000000 -16640.000000 1165.000000 1.426190 0.480492 -3.611434
  time 448
    0 -8984.000000 -16592.000000 1157.000000 1.423369 0.484462 -3.605092
  time 449
    0 -8936.000000 -16544.000000 1149.000000 1.420367 0.488335 -3.598587
  time 450
    0 -8888.000000 -16480.000000 1141.000000 1.417263 0.492658 -3.592638
  time 451
    0 -8840.000000 -16432.000000 1133.000000 1.414074 0.497192 -3.586962
  time 452
    0 -8792.000000 -16384.000000 1125.000000 1.410742 0.501902 -3.581485
  time 453
    0 -8744.000000 -16328.000000 1117.000000 1.407380 0.506851 -3.576358
  time 454
    0 -8704.000000 -16272.000000 1110.000000 1.403867 0.511898 -3.571479
  time 455
    0 -8656.000000 -16216.000000 1102.000000 1.400375 0.517206 -3.567020
end
